<?xml version="1.0" encoding="UTF-8" standalone="no"?>
<!DOCTYPE svg PUBLIC "-//W3C//DTD SVG 1.1//EN"
 "http://www.w3.org/Graphics/SVG/1.1/DTD/svg11.dtd">
<!-- Generated by graphviz version 2.43.0 (0)
 -->
<!-- Title: _Genld Pages: 1 -->
<svg width="1680pt" height="727pt"
 viewBox="0.00 0.00 1680.00 727.07" xmlns="http://www.w3.org/2000/svg" xmlns:xlink="http://www.w3.org/1999/xlink">
<g id="graph0" class="graph" transform="scale(1 1) rotate(0) translate(4 723.07)">
<title>_Genld</title>
<!-- Node1 -->
<g id="Node000001" class="node">
<title>Node1</title>
<g id="a_Node000001"><a xlink:title=" ">
<polygon fill="#999999" stroke="#666666" points="1672,-633 1622,-633 1622,-614 1672,-614 1672,-633"/>
<text text-anchor="middle" x="1647" y="-621" font-family="Helvetica,sans-Serif" font-size="10.00">_Genld</text>
</a>
</g>
</g>
<!-- Node2 -->
<g id="Node000002" class="node">
<title>Node2</title>
<g id="a_Node000002"><a xlink:href="__Ldtob_8c.html#a7cc858157b66e15c831ad085113729ae" target="_top" xlink:title=" ">
<polygon fill="white" stroke="#666666" points="1586,-633 1537,-633 1537,-614 1586,-614 1586,-633"/>
<text text-anchor="middle" x="1561.5" y="-621" font-family="Helvetica,sans-Serif" font-size="10.00">_Ldtob</text>
</a>
</g>
</g>
<!-- Node1&#45;&gt;Node2 -->
<g id="edge1_Node000001_Node000002" class="edge">
<title>Node1&#45;&gt;Node2</title>
<g id="a_edge1_Node000001_Node000002"><a xlink:title=" ">
<path fill="none" stroke="#63b8ff" d="M1611.65,-623.5C1603.03,-623.5 1593.98,-623.5 1586.02,-623.5"/>
<polygon fill="#63b8ff" stroke="#63b8ff" points="1611.85,-627 1621.85,-623.5 1611.85,-620 1611.85,-627"/>
</a>
</g>
</g>
<!-- Node3 -->
<g id="Node000003" class="node">
<title>Node3</title>
<g id="a_Node000003"><a xlink:href="__Printf_8c.html#ad73a5847f2d7c9de14cc2723da86bf45" target="_top" xlink:title=" ">
<polygon fill="white" stroke="#666666" points="1501,-633 1451,-633 1451,-614 1501,-614 1501,-633"/>
<text text-anchor="middle" x="1476" y="-621" font-family="Helvetica,sans-Serif" font-size="10.00">_Putfld</text>
</a>
</g>
</g>
<!-- Node2&#45;&gt;Node3 -->
<g id="edge2_Node000002_Node000003" class="edge">
<title>Node2&#45;&gt;Node3</title>
<g id="a_edge2_Node000002_Node000003"><a xlink:title=" ">
<path fill="none" stroke="#63b8ff" d="M1526.66,-623.5C1518.08,-623.5 1509.04,-623.5 1501.05,-623.5"/>
<polygon fill="#63b8ff" stroke="#63b8ff" points="1526.8,-627 1536.8,-623.5 1526.8,-620 1526.8,-627"/>
</a>
</g>
</g>
<!-- Node4 -->
<g id="Node000004" class="node">
<title>Node4</title>
<g id="a_Node000004"><a xlink:href="__Printf_8c.html#a39bb05c90efce6c6790c5d58d271d72d" target="_top" xlink:title=" ">
<polygon fill="white" stroke="#666666" points="1415,-633 1367,-633 1367,-614 1415,-614 1415,-633"/>
<text text-anchor="middle" x="1391" y="-621" font-family="Helvetica,sans-Serif" font-size="10.00">_Printf</text>
</a>
</g>
</g>
<!-- Node3&#45;&gt;Node4 -->
<g id="edge3_Node000003_Node000004" class="edge">
<title>Node3&#45;&gt;Node4</title>
<g id="a_edge3_Node000003_Node000004"><a xlink:title=" ">
<path fill="none" stroke="#63b8ff" d="M1440.77,-623.5C1432.12,-623.5 1423.05,-623.5 1415.1,-623.5"/>
<polygon fill="#63b8ff" stroke="#63b8ff" points="1440.99,-627 1450.99,-623.5 1440.99,-620 1440.99,-627"/>
</a>
</g>
</g>
<!-- Node5 -->
<g id="Node000005" class="node">
<title>Node5</title>
<g id="a_Node000005"><a xlink:href="is__debug_8c.html#a0a0b1c5c397ef1486b9b08b2e872ff5f" target="_top" xlink:title=" ">
<polygon fill="white" stroke="#666666" points="1312.5,-689 1235.5,-689 1235.5,-670 1312.5,-670 1312.5,-689"/>
<text text-anchor="middle" x="1274" y="-677" font-family="Helvetica,sans-Serif" font-size="10.00">osSyncPrintf</text>
</a>
</g>
</g>
<!-- Node4&#45;&gt;Node5 -->
<g id="edge4_Node000004_Node000005" class="edge">
<title>Node4&#45;&gt;Node5</title>
<g id="a_edge4_Node000004_Node000005"><a xlink:title=" ">
<path fill="none" stroke="#63b8ff" d="M1368.59,-639.22C1357.72,-646.69 1344.08,-655.32 1331,-661.5 1324.26,-664.69 1316.81,-667.52 1309.6,-669.94"/>
<polygon fill="#63b8ff" stroke="#63b8ff" points="1370.83,-641.92 1376.99,-633.3 1366.8,-636.2 1370.83,-641.92"/>
</a>
</g>
</g>
<!-- Node6 -->
<g id="Node000006" class="node">
<title>Node6</title>
<g id="a_Node000006"><a xlink:href="osSyncPrintf_8c.html#a8b417b868747c80d58f83d8a1e78ecf3" target="_top" xlink:title=" ">
<polygon fill="white" stroke="#666666" points="1149.5,-713 1081.5,-713 1081.5,-694 1149.5,-694 1149.5,-713"/>
<text text-anchor="middle" x="1115.5" y="-701" font-family="Helvetica,sans-Serif" font-size="10.00">rmonPrintf</text>
</a>
</g>
</g>
<!-- Node4&#45;&gt;Node6 -->
<g id="edge59_Node000004_Node000006" class="edge">
<title>Node4&#45;&gt;Node6</title>
<g id="a_edge59_Node000004_Node000006"><a xlink:title=" ">
<path fill="none" stroke="#63b8ff" d="M1381.39,-642.12C1371.89,-660.21 1354.75,-686.62 1331,-698.5 1272.7,-727.66 1193.87,-719.29 1149.82,-711.07"/>
<polygon fill="#63b8ff" stroke="#63b8ff" points="1384.57,-643.59 1385.87,-633.08 1378.29,-640.48 1384.57,-643.59"/>
</a>
</g>
</g>
<!-- Node7 -->
<g id="Node000007" class="node">
<title>Node7</title>
<g id="a_Node000007"><a xlink:href="is__debug_8c.html#a07582d28e6728e94c69884a4ad3038f8" target="_top" xlink:title=" ">
<polygon fill="white" stroke="#666666" points="1331,-652 1217,-652 1217,-633 1331,-633 1331,-652"/>
<text text-anchor="middle" x="1274" y="-640" font-family="Helvetica,sans-Serif" font-size="10.00">osSyncPrintfUnused</text>
</a>
</g>
</g>
<!-- Node4&#45;&gt;Node7 -->
<g id="edge6_Node000004_Node000007" class="edge">
<title>Node4&#45;&gt;Node7</title>
<g id="a_edge6_Node000004_Node000007"><a xlink:title=" ">
<path fill="none" stroke="#63b8ff" d="M1356.67,-629.01C1348.62,-630.34 1339.81,-631.79 1331.04,-633.24"/>
<polygon fill="#63b8ff" stroke="#63b8ff" points="1357.43,-632.43 1366.73,-627.34 1356.29,-625.52 1357.43,-632.43"/>
</a>
</g>
</g>
<!-- Node8 -->
<g id="Node000008" class="node">
<title>Node8</title>
<g id="a_Node000008"><a xlink:href="is__debug_8c.html#a42e65774c872bb2ffd35e7827f481776" target="_top" xlink:title=" ">
<polygon fill="white" stroke="#666666" points="1293.5,-615 1254.5,-615 1254.5,-596 1293.5,-596 1293.5,-615"/>
<text text-anchor="middle" x="1274" y="-603" font-family="Helvetica,sans-Serif" font-size="10.00">print</text>
</a>
</g>
</g>
<!-- Node4&#45;&gt;Node8 -->
<g id="edge7_Node000004_Node000008" class="edge">
<title>Node4&#45;&gt;Node8</title>
<g id="a_edge7_Node000004_Node000008"><a xlink:title=" ">
<path fill="none" stroke="#63b8ff" d="M1356.83,-618.31C1336.31,-615.1 1310.73,-611.09 1293.68,-608.42"/>
<polygon fill="#63b8ff" stroke="#63b8ff" points="1356.31,-621.77 1366.73,-619.86 1357.39,-614.85 1356.31,-621.77"/>
</a>
</g>
</g>
<!-- Node9 -->
<g id="Node000009" class="node">
<title>Node9</title>
<g id="a_Node000009"><a xlink:href="stubs_8c.html#a8b417b868747c80d58f83d8a1e78ecf3" target="_top" xlink:title=" ">
<polygon fill="white" stroke="#666666" points="1308,-578 1240,-578 1240,-559 1308,-559 1308,-578"/>
<text text-anchor="middle" x="1274" y="-566" font-family="Helvetica,sans-Serif" font-size="10.00">rmonPrintf</text>
</a>
</g>
</g>
<!-- Node4&#45;&gt;Node9 -->
<g id="edge8_Node000004_Node000009" class="edge">
<title>Node4&#45;&gt;Node9</title>
<g id="a_edge8_Node000004_Node000009"><a xlink:title=" ">
<path fill="none" stroke="#63b8ff" d="M1367.57,-608.2C1356.82,-601.29 1343.57,-593.38 1331,-587.5 1323.47,-583.98 1315.1,-580.78 1307.17,-578.06"/>
<polygon fill="#63b8ff" stroke="#63b8ff" points="1365.67,-611.14 1375.95,-613.7 1369.51,-605.29 1365.67,-611.14"/>
</a>
</g>
</g>
<!-- Node111 -->
<g id="Node000111" class="node">
<title>Node111</title>
<g id="a_Node000111"><a xlink:href="sprintf_8c.html#a353b2f73aed82bd1eb8cc2b34ec936d9" target="_top" xlink:title=" ">
<polygon fill="white" stroke="#666666" points="1298,-475 1250,-475 1250,-456 1298,-456 1298,-475"/>
<text text-anchor="middle" x="1274" y="-463" font-family="Helvetica,sans-Serif" font-size="10.00">sprintf</text>
</a>
</g>
</g>
<!-- Node4&#45;&gt;Node111 -->
<g id="edge60_Node000004_Node000111" class="edge">
<title>Node4&#45;&gt;Node111</title>
<g id="a_edge60_Node000004_Node000111"><a xlink:title=" ">
<path fill="none" stroke="#63b8ff" d="M1376.67,-605.19C1352.24,-571.63 1301.07,-501.31 1282.19,-475.38"/>
<polygon fill="#63b8ff" stroke="#63b8ff" points="1374.09,-607.59 1382.81,-613.62 1379.75,-603.47 1374.09,-607.59"/>
</a>
</g>
</g>
<!-- Node5&#45;&gt;Node6 -->
<g id="edge5_Node000005_Node000006" class="edge">
<title>Node5&#45;&gt;Node6</title>
<g id="a_edge5_Node000005_Node000006"><a xlink:title=" ">
<path fill="none" stroke="#63b8ff" d="M1224.96,-686.87C1200.51,-690.62 1171.42,-695.08 1149.53,-698.44"/>
<polygon fill="#63b8ff" stroke="#63b8ff" points="1225.76,-690.29 1235.12,-685.31 1224.7,-683.37 1225.76,-690.29"/>
</a>
</g>
</g>
<!-- Node10 -->
<g id="Node000010" class="node">
<title>Node10</title>
<g id="a_Node000010"><a xlink:href="menus_8c.html#a8b056069ac34db88a251d9da269821dc" target="_top" xlink:title=" ">
<polygon fill="white" stroke="#666666" points="1181,-598.5 1050,-598.5 1050,-568.5 1181,-568.5 1181,-598.5"/>
<text text-anchor="start" x="1058" y="-586.5" font-family="Helvetica,sans-Serif" font-size="10.00">debug_print_ghost_kart</text>
<text text-anchor="middle" x="1115.5" y="-575.5" font-family="Helvetica,sans-Serif" font-size="10.00">_character_id</text>
</a>
</g>
</g>
<!-- Node9&#45;&gt;Node10 -->
<g id="edge9_Node000009_Node000010" class="edge">
<title>Node9&#45;&gt;Node10</title>
<g id="a_edge9_Node000009_Node000010"><a xlink:title=" ">
<path fill="none" stroke="#63b8ff" d="M1229.8,-572.64C1214.79,-574.08 1197.61,-575.73 1181.24,-577.29"/>
<polygon fill="#63b8ff" stroke="#63b8ff" points="1230.19,-576.12 1239.81,-571.68 1229.52,-569.15 1230.19,-576.12"/>
</a>
</g>
</g>
<!-- Node11 -->
<g id="Node000011" class="node">
<title>Node11</title>
<g id="a_Node000011"><a xlink:href="menu__items_8c.html#a37eb021a953285ba504198ac6ca73a9a" target="_top" xlink:title=" ">
<polygon fill="white" stroke="#666666" points="1162,-512 1069,-512 1069,-493 1162,-493 1162,-512"/>
<text text-anchor="middle" x="1115.5" y="-500" font-family="Helvetica,sans-Serif" font-size="10.00">func_80095BD0</text>
</a>
</g>
</g>
<!-- Node9&#45;&gt;Node11 -->
<g id="edge10_Node000009_Node000011" class="edge">
<title>Node9&#45;&gt;Node11</title>
<g id="a_edge10_Node000009_Node000011"><a xlink:title=" ">
<path fill="none" stroke="#63b8ff" d="M1240.94,-554.98C1210.58,-542.18 1165.78,-523.28 1139.03,-512"/>
<polygon fill="#63b8ff" stroke="#63b8ff" points="1239.67,-558.24 1250.24,-558.9 1242.39,-551.79 1239.67,-558.24"/>
</a>
</g>
</g>
<!-- Node60 -->
<g id="Node000060" class="node">
<title>Node60</title>
<g id="a_Node000060"><a xlink:href="menu__items_8c.html#ad129d5fc839c6e03c8d1399f72f53071" target="_top" xlink:title=" ">
<polygon fill="white" stroke="#666666" points="1176.5,-646.5 1054.5,-646.5 1054.5,-616.5 1176.5,-616.5 1176.5,-646.5"/>
<text text-anchor="start" x="1062.5" y="-634.5" font-family="Helvetica,sans-Serif" font-size="10.00">func_80095BD0_wide</text>
<text text-anchor="middle" x="1115.5" y="-623.5" font-family="Helvetica,sans-Serif" font-size="10.00">_right</text>
</a>
</g>
</g>
<!-- Node9&#45;&gt;Node60 -->
<g id="edge48_Node000009_Node000060" class="edge">
<title>Node9&#45;&gt;Node60</title>
<g id="a_edge48_Node000009_Node000060"><a xlink:title=" ">
<path fill="none" stroke="#63b8ff" d="M1231.86,-581.5C1226.8,-583.38 1221.75,-585.4 1217,-587.5 1200.27,-594.91 1197.62,-599.84 1181,-607.5 1174.27,-610.6 1167.02,-613.61 1159.89,-616.38"/>
<polygon fill="#63b8ff" stroke="#63b8ff" points="1233.27,-584.72 1241.52,-578.07 1230.92,-578.13 1233.27,-584.72"/>
</a>
</g>
</g>
<!-- Node12 -->
<g id="Node000012" class="node">
<title>Node12</title>
<g id="a_Node000012"><a xlink:href="menu__items_8c.html#aafca6e35a19465ad361e68b13e467243" target="_top" xlink:title=" ">
<polygon fill="white" stroke="#666666" points="986,-400 915,-400 915,-381 986,-381 986,-400"/>
<text text-anchor="middle" x="950.5" y="-388" font-family="Helvetica,sans-Serif" font-size="10.00">print_letter</text>
</a>
</g>
</g>
<!-- Node11&#45;&gt;Node12 -->
<g id="edge11_Node000011_Node000012" class="edge">
<title>Node11&#45;&gt;Node12</title>
<g id="a_edge11_Node000011_Node000012"><a xlink:title=" ">
<path fill="none" stroke="#63b8ff" d="M1062.26,-489.46C1058.01,-487.7 1053.86,-485.72 1050,-483.5 1010.44,-460.77 974.27,-419.08 959.07,-400.22"/>
<polygon fill="#63b8ff" stroke="#63b8ff" points="1061.1,-492.76 1071.69,-492.98 1063.55,-486.21 1061.1,-492.76"/>
</a>
</g>
</g>
<!-- Node13 -->
<g id="Node000013" class="node">
<title>Node13</title>
<g id="a_Node000013"><a xlink:href="menu__items_8c.html#a07904969a6bc8374f305d668f432b26a" target="_top" xlink:title=" ">
<polygon fill="white" stroke="#666666" points="823,-378 753,-378 753,-359 823,-359 823,-378"/>
<text text-anchor="middle" x="788" y="-366" font-family="Helvetica,sans-Serif" font-size="10.00">print_text0</text>
</a>
</g>
</g>
<!-- Node12&#45;&gt;Node13 -->
<g id="edge12_Node000012_Node000013" class="edge">
<title>Node12&#45;&gt;Node13</title>
<g id="a_edge12_Node000012_Node000013"><a xlink:title=" ">
<path fill="none" stroke="#63b8ff" d="M904.75,-384.37C878.94,-380.83 847,-376.45 823.21,-373.19"/>
<polygon fill="#63b8ff" stroke="#63b8ff" points="904.29,-387.84 914.67,-385.73 905.24,-380.9 904.29,-387.84"/>
</a>
</g>
</g>
<!-- Node41 -->
<g id="Node000041" class="node">
<title>Node41</title>
<g id="a_Node000041"><a xlink:href="menu__items_8c.html#ad2af1a6781c3f0bf246aba0d078ae773" target="_top" xlink:title=" ">
<polygon fill="white" stroke="#666666" points="823,-421 753,-421 753,-402 823,-402 823,-421"/>
<text text-anchor="middle" x="788" y="-409" font-family="Helvetica,sans-Serif" font-size="10.00">print_text1</text>
</a>
</g>
</g>
<!-- Node12&#45;&gt;Node41 -->
<g id="edge31_Node000012_Node000041" class="edge">
<title>Node12&#45;&gt;Node41</title>
<g id="a_edge31_Node000012_Node000041"><a xlink:title=" ">
<path fill="none" stroke="#63b8ff" d="M904.75,-396.35C878.94,-399.73 847,-403.91 823.21,-407.02"/>
<polygon fill="#63b8ff" stroke="#63b8ff" points="905.21,-399.82 914.67,-395.06 904.3,-392.88 905.21,-399.82"/>
</a>
</g>
</g>
<!-- Node53 -->
<g id="Node000053" class="node">
<title>Node53</title>
<g id="a_Node000053"><a xlink:href="menu__items_8c.html#afa1d2583978658f8524340b7b94544b1" target="_top" xlink:title=" ">
<polygon fill="white" stroke="#666666" points="823,-304 753,-304 753,-285 823,-285 823,-304"/>
<text text-anchor="middle" x="788" y="-292" font-family="Helvetica,sans-Serif" font-size="10.00">print_text2</text>
</a>
</g>
</g>
<!-- Node12&#45;&gt;Node53 -->
<g id="edge42_Node000012_Node000053" class="edge">
<title>Node12&#45;&gt;Node53</title>
<g id="a_edge42_Node000012_Node000053"><a xlink:title=" ">
<path fill="none" stroke="#63b8ff" d="M924.83,-375.75C891.49,-355.8 832.99,-320.81 804.91,-304.02"/>
<polygon fill="#63b8ff" stroke="#63b8ff" points="923.15,-378.81 933.52,-380.94 926.74,-372.81 923.15,-378.81"/>
</a>
</g>
</g>
<!-- Node14 -->
<g id="Node000014" class="node">
<title>Node14</title>
<g id="a_Node000014"><a xlink:href="menu__items_8c.html#ad7caaa9bd54f2228a931877bd6eb3b87" target="_top" xlink:title=" ">
<polygon fill="#fff0f0" stroke="red" points="674.5,-243 566.5,-243 566.5,-224 674.5,-224 674.5,-243"/>
<text text-anchor="middle" x="620.5" y="-231" font-family="Helvetica,sans-Serif" font-size="10.00">print_text_mode_1</text>
</a>
</g>
</g>
<!-- Node13&#45;&gt;Node14 -->
<g id="edge13_Node000013_Node000014" class="edge">
<title>Node13&#45;&gt;Node14</title>
<g id="a_edge13_Node000013_Node000014"><a xlink:title=" ">
<path fill="none" stroke="#63b8ff" d="M768.31,-352.19C755.86,-341.17 739.22,-326.2 725,-312.5 708.48,-296.58 706.87,-289.89 689,-275.5 673.3,-262.86 653.56,-250.98 639.48,-243.1"/>
<polygon fill="#63b8ff" stroke="#63b8ff" points="766.01,-354.82 775.83,-358.8 770.63,-349.56 766.01,-354.82"/>
</a>
</g>
</g>
<!-- Node40 -->
<g id="Node000040" class="node">
<title>Node40</title>
<g id="a_Node000040"><a xlink:href="menu__items_8c.html#a339d2d418704e61fba5d9bd467ebebfd" target="_top" xlink:title=" ">
<polygon fill="#fff0f0" stroke="red" points="674.5,-378 566.5,-378 566.5,-359 674.5,-359 674.5,-378"/>
<text text-anchor="middle" x="620.5" y="-366" font-family="Helvetica,sans-Serif" font-size="10.00">print_text_mode_2</text>
</a>
</g>
</g>
<!-- Node13&#45;&gt;Node40 -->
<g id="edge28_Node000013_Node000040" class="edge">
<title>Node13&#45;&gt;Node40</title>
<g id="a_edge28_Node000013_Node000040"><a xlink:title=" ">
<path fill="none" stroke="#63b8ff" d="M742.51,-368.5C721.61,-368.5 696.54,-368.5 674.65,-368.5"/>
<polygon fill="#63b8ff" stroke="#63b8ff" points="742.71,-372 752.71,-368.5 742.71,-365 742.71,-372"/>
</a>
</g>
</g>
<!-- Node15 -->
<g id="Node000015" class="node">
<title>Node15</title>
<g id="a_Node000015"><a xlink:href="menu__items_8c.html#a72503793b504611ce264cfb68fcbc01c" target="_top" xlink:title=" ">
<polygon fill="white" stroke="#666666" points="484.5,-206 393.5,-206 393.5,-187 484.5,-187 484.5,-206"/>
<text text-anchor="middle" x="439" y="-194" font-family="Helvetica,sans-Serif" font-size="10.00">func_800930E4</text>
</a>
</g>
</g>
<!-- Node14&#45;&gt;Node15 -->
<g id="edge14_Node000014_Node000015" class="edge">
<title>Node14&#45;&gt;Node15</title>
<g id="a_edge14_Node000014_Node000015"><a xlink:title=" ">
<path fill="none" stroke="#63b8ff" d="M563.4,-221.94C537.99,-216.7 508.37,-210.59 484.52,-205.68"/>
<polygon fill="#63b8ff" stroke="#63b8ff" points="562.77,-225.38 573.27,-223.97 564.19,-218.52 562.77,-225.38"/>
</a>
</g>
</g>
<!-- Node16 -->
<g id="Node000016" class="node">
<title>Node16</title>
<g id="a_Node000016"><a xlink:href="menu__items_8c.html#abb912ddea43d5de759cf94ccdf913c19" target="_top" xlink:title=" ">
<polygon fill="white" stroke="#666666" points="485.5,-169 392.5,-169 392.5,-150 485.5,-150 485.5,-169"/>
<text text-anchor="middle" x="439" y="-157" font-family="Helvetica,sans-Serif" font-size="10.00">func_800A10CC</text>
</a>
</g>
</g>
<!-- Node14&#45;&gt;Node16 -->
<g id="edge15_Node000014_Node000016" class="edge">
<title>Node14&#45;&gt;Node16</title>
<g id="a_edge15_Node000014_Node000016"><a xlink:title=" ">
<path fill="none" stroke="#63b8ff" d="M596.05,-218.49C575.61,-205.97 544.8,-188.48 516,-177.5 506.37,-173.83 495.76,-170.75 485.6,-168.24"/>
<polygon fill="#63b8ff" stroke="#63b8ff" points="594.33,-221.54 604.67,-223.84 598.02,-215.59 594.33,-221.54"/>
</a>
</g>
</g>
<!-- Node17 -->
<g id="Node000017" class="node">
<title>Node17</title>
<g id="a_Node000017"><a xlink:href="menu__items_8c.html#aff6bf222ec21a72574bb84ed5d5cb3b8" target="_top" xlink:title=" ">
<polygon fill="white" stroke="#666666" points="485.5,-132 392.5,-132 392.5,-113 485.5,-113 485.5,-132"/>
<text text-anchor="middle" x="439" y="-120" font-family="Helvetica,sans-Serif" font-size="10.00">func_800A1DE0</text>
</a>
</g>
</g>
<!-- Node14&#45;&gt;Node17 -->
<g id="edge16_Node000014_Node000017" class="edge">
<title>Node14&#45;&gt;Node17</title>
<g id="a_edge16_Node000014_Node000017"><a xlink:title=" ">
<path fill="none" stroke="#63b8ff" d="M605.08,-216.03C586.64,-194.88 552.68,-159.7 516,-140.5 506.63,-135.59 495.91,-132.01 485.54,-129.39"/>
<polygon fill="#63b8ff" stroke="#63b8ff" points="602.63,-218.56 611.78,-223.9 607.96,-214.02 602.63,-218.56"/>
</a>
</g>
</g>
<!-- Node18 -->
<g id="Node000018" class="node">
<title>Node18</title>
<g id="a_Node000018"><a xlink:href="menu__items_8c.html#ae1c49d1d64d691675110d1b5f7abe0f5" target="_top" xlink:title=" ">
<polygon fill="white" stroke="#666666" points="485,-243 393,-243 393,-224 485,-224 485,-243"/>
<text text-anchor="middle" x="439" y="-231" font-family="Helvetica,sans-Serif" font-size="10.00">func_800A1F30</text>
</a>
</g>
</g>
<!-- Node14&#45;&gt;Node18 -->
<g id="edge17_Node000014_Node000018" class="edge">
<title>Node14&#45;&gt;Node18</title>
<g id="a_edge17_Node000014_Node000018"><a xlink:title=" ">
<path fill="none" stroke="#63b8ff" d="M555.96,-233.5C532.62,-233.5 506.69,-233.5 485.28,-233.5"/>
<polygon fill="#63b8ff" stroke="#63b8ff" points="556.13,-237 566.13,-233.5 556.13,-230 556.13,-237"/>
</a>
</g>
</g>
<!-- Node19 -->
<g id="Node000019" class="node">
<title>Node19</title>
<g id="a_Node000019"><a xlink:href="menu__items_8c.html#a1fbba00e12e86c92555e7306213bd449" target="_top" xlink:title=" ">
<polygon fill="white" stroke="#666666" points="326,-94 234,-94 234,-75 326,-75 326,-94"/>
<text text-anchor="middle" x="280" y="-82" font-family="Helvetica,sans-Serif" font-size="10.00">func_800A2EB8</text>
</a>
</g>
</g>
<!-- Node14&#45;&gt;Node19 -->
<g id="edge18_Node000014_Node000019" class="edge">
<title>Node14&#45;&gt;Node19</title>
<g id="a_edge18_Node000014_Node000019"><a xlink:title=" ">
<path fill="none" stroke="#63b8ff" d="M610.73,-214.49C595.92,-184.87 562.92,-128.5 516,-103.5 456.39,-71.74 376,-73.03 326.38,-77.96"/>
<polygon fill="#63b8ff" stroke="#63b8ff" points="607.7,-216.27 615.2,-223.76 614.01,-213.23 607.7,-216.27"/>
</a>
</g>
</g>
<!-- Node20 -->
<g id="Node000020" class="node">
<title>Node20</title>
<g id="a_Node000020"><a xlink:href="menu__items_8c.html#af76c99301ac87a434bc5f1f0348ca5b4" target="_top" xlink:title=" ">
<polygon fill="white" stroke="#666666" points="485,-19 393,-19 393,0 485,0 485,-19"/>
<text text-anchor="middle" x="439" y="-7" font-family="Helvetica,sans-Serif" font-size="10.00">func_800A32B4</text>
</a>
</g>
</g>
<!-- Node14&#45;&gt;Node20 -->
<g id="edge19_Node000014_Node000020" class="edge">
<title>Node14&#45;&gt;Node20</title>
<g id="a_edge19_Node000014_Node000020"><a xlink:title=" ">
<path fill="none" stroke="#63b8ff" d="M615.52,-214.05C606.05,-172.86 578.13,-76.61 516,-27.5 507.17,-20.52 496.08,-16.18 485.12,-13.49"/>
<polygon fill="#63b8ff" stroke="#63b8ff" points="612.12,-214.89 617.68,-223.91 618.96,-213.39 612.12,-214.89"/>
</a>
</g>
</g>
<!-- Node21 -->
<g id="Node000021" class="node">
<title>Node21</title>
<g id="a_Node000021"><a xlink:href="menu__items_8c.html#ac7c33e8f4090f802c08b6b5b9ce6dba9" target="_top" xlink:title=" ">
<polygon fill="white" stroke="#666666" points="326,-281 234,-281 234,-262 326,-262 326,-281"/>
<text text-anchor="middle" x="280" y="-269" font-family="Helvetica,sans-Serif" font-size="10.00">func_800A34A8</text>
</a>
</g>
</g>
<!-- Node14&#45;&gt;Node21 -->
<g id="edge21_Node000014_Node000021" class="edge">
<title>Node14&#45;&gt;Node21</title>
<g id="a_edge21_Node000014_Node000021"><a xlink:title=" ">
<path fill="none" stroke="#63b8ff" d="M559.68,-244.82C545.41,-247.26 530.19,-249.67 516,-251.5 450.21,-260 373.58,-265.75 326.18,-268.83"/>
<polygon fill="#63b8ff" stroke="#63b8ff" points="560.64,-248.2 569.88,-243.03 559.43,-241.31 560.64,-248.2"/>
</a>
</g>
</g>
<!-- Node22 -->
<g id="Node000022" class="node">
<title>Node22</title>
<g id="a_Node000022"><a xlink:href="menu__items_8c.html#a76397d21278950ffb0c43c27305293ea" target="_top" xlink:title=" ">
<polygon fill="white" stroke="#666666" points="486.5,-56 391.5,-56 391.5,-37 486.5,-37 486.5,-56"/>
<text text-anchor="middle" x="439" y="-44" font-family="Helvetica,sans-Serif" font-size="10.00">func_800A3ADC</text>
</a>
</g>
</g>
<!-- Node14&#45;&gt;Node22 -->
<g id="edge22_Node000014_Node000022" class="edge">
<title>Node14&#45;&gt;Node22</title>
<g id="a_edge22_Node000014_Node000022"><a xlink:title=" ">
<path fill="none" stroke="#63b8ff" d="M612.37,-214.05C598.87,-179.93 566.36,-109.22 516,-70.5 507.44,-63.92 497.05,-59.12 486.72,-55.63"/>
<polygon fill="#63b8ff" stroke="#63b8ff" points="609.24,-215.67 616.08,-223.76 615.78,-213.17 609.24,-215.67"/>
</a>
</g>
</g>
<!-- Node23 -->
<g id="Node000023" class="node">
<title>Node23</title>
<g id="a_Node000023"><a xlink:href="menu__items_8c.html#a84c992e63f0d9de4e6e0d4f6c54d6e5b" target="_top" xlink:title=" ">
<polygon fill="white" stroke="#666666" points="485,-393 393,-393 393,-374 485,-374 485,-393"/>
<text text-anchor="middle" x="439" y="-381" font-family="Helvetica,sans-Serif" font-size="10.00">func_800A3E60</text>
</a>
</g>
</g>
<!-- Node14&#45;&gt;Node23 -->
<g id="edge24_Node000014_Node000023" class="edge">
<title>Node14&#45;&gt;Node23</title>
<g id="a_edge24_Node000014_Node000023"><a xlink:title=" ">
<path fill="none" stroke="#63b8ff" d="M587.65,-247.87C575.2,-254.77 561.63,-264.05 552,-275.5 524.54,-308.15 548.2,-336.5 516,-364.5 507.38,-372 496.23,-376.62 485.15,-379.45"/>
<polygon fill="#63b8ff" stroke="#63b8ff" points="589.63,-250.79 596.87,-243.06 586.39,-244.58 589.63,-250.79"/>
</a>
</g>
</g>
<!-- Node24 -->
<g id="Node000024" class="node">
<title>Node24</title>
<g id="a_Node000024"><a xlink:href="menu__items_8c.html#a4987a4089aeb4a9a41fed37158cddbca" target="_top" xlink:title=" ">
<polygon fill="white" stroke="#666666" points="485,-356 393,-356 393,-337 485,-337 485,-356"/>
<text text-anchor="middle" x="439" y="-344" font-family="Helvetica,sans-Serif" font-size="10.00">func_800A6154</text>
</a>
</g>
</g>
<!-- Node14&#45;&gt;Node24 -->
<g id="edge25_Node000014_Node000024" class="edge">
<title>Node14&#45;&gt;Node24</title>
<g id="a_edge25_Node000014_Node000024"><a xlink:title=" ">
<path fill="none" stroke="#63b8ff" d="M590.84,-247.87C578.09,-255.09 563.42,-264.62 552,-275.5 531.64,-294.88 539.12,-311.51 516,-327.5 506.94,-333.77 496,-337.97 485.29,-340.79"/>
<polygon fill="#63b8ff" stroke="#63b8ff" points="592.61,-250.89 599.71,-243.03 589.25,-244.75 592.61,-250.89"/>
</a>
</g>
</g>
<!-- Node25 -->
<g id="Node000025" class="node">
<title>Node25</title>
<g id="a_Node000025"><a xlink:href="menu__items_8c.html#ad3214a6a4c78586f2ad8c6b46e449446" target="_top" xlink:title=" ">
<polygon fill="white" stroke="#666666" points="485,-507 393,-507 393,-488 485,-488 485,-507"/>
<text text-anchor="middle" x="439" y="-495" font-family="Helvetica,sans-Serif" font-size="10.00">func_800A638C</text>
</a>
</g>
</g>
<!-- Node14&#45;&gt;Node25 -->
<g id="edge26_Node000014_Node000025" class="edge">
<title>Node14&#45;&gt;Node25</title>
<g id="a_edge26_Node000014_Node000025"><a xlink:title=" ">
<path fill="none" stroke="#63b8ff" d="M586.2,-247.83C573.89,-254.61 560.81,-263.82 552,-275.5 516.93,-322 542.58,-349.68 516,-401.5 497.95,-436.68 466.01,-471.42 449.89,-487.78"/>
<polygon fill="#63b8ff" stroke="#63b8ff" points="588.09,-250.8 595.38,-243.12 584.89,-244.57 588.09,-250.8"/>
</a>
</g>
</g>
<!-- Node26 -->
<g id="Node000026" class="node">
<title>Node26</title>
<g id="a_Node000026"><a xlink:href="menu__items_8c.html#ace492156cb35cf1576afe2d2ee1747d0" target="_top" xlink:title=" ">
<polygon fill="white" stroke="#666666" points="485,-319 393,-319 393,-300 485,-300 485,-319"/>
<text text-anchor="middle" x="439" y="-307" font-family="Helvetica,sans-Serif" font-size="10.00">func_800A874C</text>
</a>
</g>
</g>
<!-- Node14&#45;&gt;Node26 -->
<g id="edge27_Node000014_Node000026" class="edge">
<title>Node14&#45;&gt;Node26</title>
<g id="a_edge27_Node000014_Node000026"><a xlink:title=" ">
<path fill="none" stroke="#63b8ff" d="M593.9,-247.81C573.27,-258.98 543.31,-274.41 516,-285.5 502.67,-290.91 487.62,-295.89 474.46,-299.89"/>
<polygon fill="#63b8ff" stroke="#63b8ff" points="595.58,-250.87 602.67,-243 592.22,-244.73 595.58,-250.87"/>
</a>
</g>
</g>
<!-- Node20&#45;&gt;Node19 -->
<g id="edge20_Node000020_Node000019" class="edge">
<title>Node20&#45;&gt;Node19</title>
<g id="a_edge20_Node000020_Node000019"><a xlink:title=" ">
<path fill="none" stroke="#63b8ff" d="M383.04,-19.87C375.82,-21.99 368.63,-24.52 362,-27.5 334.4,-39.92 306.47,-62.2 291.7,-74.92"/>
<polygon fill="#63b8ff" stroke="#63b8ff" points="384.12,-23.2 392.86,-17.21 382.29,-16.44 384.12,-23.2"/>
</a>
</g>
</g>
<!-- Node22&#45;&gt;Node21 -->
<g id="edge23_Node000022_Node000021" class="edge">
<title>Node22&#45;&gt;Node21</title>
<g id="a_edge23_Node000022_Node000021"><a xlink:title=" ">
<path fill="none" stroke="#63b8ff" d="M411.84,-61.62C395.88,-71.85 375.92,-86.57 362,-103.5 319.01,-155.77 292.23,-234.67 283.84,-261.88"/>
<polygon fill="#63b8ff" stroke="#63b8ff" points="414.05,-64.37 420.71,-56.13 410.37,-58.42 414.05,-64.37"/>
</a>
</g>
</g>
<!-- Node40&#45;&gt;Node23 -->
<g id="edge29_Node000040_Node000023" class="edge">
<title>Node40&#45;&gt;Node23</title>
<g id="a_edge29_Node000040_Node000023"><a xlink:title=" ">
<path fill="none" stroke="#63b8ff" d="M555.96,-373.81C532.62,-375.76 506.69,-377.93 485.28,-379.72"/>
<polygon fill="#63b8ff" stroke="#63b8ff" points="556.46,-377.28 566.13,-372.96 555.87,-370.3 556.46,-377.28"/>
</a>
</g>
</g>
<!-- Node40&#45;&gt;Node24 -->
<g id="edge30_Node000040_Node000024" class="edge">
<title>Node40&#45;&gt;Node24</title>
<g id="a_edge30_Node000040_Node000024"><a xlink:title=" ">
<path fill="none" stroke="#63b8ff" d="M555.96,-360.71C532.62,-357.85 506.69,-354.67 485.28,-352.05"/>
<polygon fill="#63b8ff" stroke="#63b8ff" points="555.78,-364.22 566.13,-361.96 556.63,-357.27 555.78,-364.22"/>
</a>
</g>
</g>
<!-- Node42 -->
<g id="Node000042" class="node">
<title>Node42</title>
<g id="a_Node000042"><a xlink:href="menu__items_8c.html#ac9a8fae36ca33cb34bee67b9f9ab440f" target="_top" xlink:title=" ">
<polygon fill="#fff0f0" stroke="red" points="673.5,-426.5 567.5,-426.5 567.5,-396.5 673.5,-396.5 673.5,-426.5"/>
<text text-anchor="start" x="575.5" y="-414.5" font-family="Helvetica,sans-Serif" font-size="10.00">print_text1_center</text>
<text text-anchor="middle" x="620.5" y="-403.5" font-family="Helvetica,sans-Serif" font-size="10.00">_mode_1</text>
</a>
</g>
</g>
<!-- Node41&#45;&gt;Node42 -->
<g id="edge32_Node000041_Node000042" class="edge">
<title>Node41&#45;&gt;Node42</title>
<g id="a_edge32_Node000041_Node000042"><a xlink:title=" ">
<path fill="none" stroke="#63b8ff" d="M742.67,-411.5C721.43,-411.5 695.86,-411.5 673.69,-411.5"/>
<polygon fill="#63b8ff" stroke="#63b8ff" points="742.71,-415 752.71,-411.5 742.71,-408 742.71,-415"/>
</a>
</g>
</g>
<!-- Node48 -->
<g id="Node000048" class="node">
<title>Node48</title>
<g id="a_Node000048"><a xlink:href="menu__items_8c.html#a8051db7229d932b267fdec53a1e794eb" target="_top" xlink:title=" ">
<polygon fill="#fff0f0" stroke="red" points="673.5,-512.5 567.5,-512.5 567.5,-482.5 673.5,-482.5 673.5,-512.5"/>
<text text-anchor="start" x="575.5" y="-500.5" font-family="Helvetica,sans-Serif" font-size="10.00">print_text1_center</text>
<text text-anchor="middle" x="620.5" y="-489.5" font-family="Helvetica,sans-Serif" font-size="10.00">_mode_2</text>
</a>
</g>
</g>
<!-- Node41&#45;&gt;Node48 -->
<g id="edge37_Node000041_Node000048" class="edge">
<title>Node41&#45;&gt;Node48</title>
<g id="a_edge37_Node000041_Node000048"><a xlink:title=" ">
<path fill="none" stroke="#63b8ff" d="M765.14,-426.9C745.75,-440.12 716.34,-459.1 689,-472.5 681.71,-476.08 673.76,-479.45 665.97,-482.49"/>
<polygon fill="#63b8ff" stroke="#63b8ff" points="767.3,-429.66 773.55,-421.1 763.33,-423.9 767.3,-429.66"/>
</a>
</g>
</g>
<!-- Node51 -->
<g id="Node000051" class="node">
<title>Node51</title>
<g id="a_Node000051"><a xlink:href="menu__items_8c.html#ad5ebb6015362a99f480a286c01b07d24" target="_top" xlink:title=" ">
<polygon fill="#fff0f0" stroke="red" points="666,-341 575,-341 575,-322 666,-322 666,-341"/>
<text text-anchor="middle" x="620.5" y="-329" font-family="Helvetica,sans-Serif" font-size="10.00">print_text1_left</text>
</a>
</g>
</g>
<!-- Node41&#45;&gt;Node51 -->
<g id="edge39_Node000041_Node000051" class="edge">
<title>Node41&#45;&gt;Node51</title>
<g id="a_edge39_Node000041_Node000051"><a xlink:title=" ">
<path fill="none" stroke="#63b8ff" d="M746.7,-398.1C739.2,-394.83 731.64,-390.96 725,-386.5 705.95,-373.71 708.8,-361.1 689,-349.5 681.99,-345.39 674.02,-342.2 666.08,-339.73"/>
<polygon fill="#63b8ff" stroke="#63b8ff" points="745.51,-401.4 756.09,-401.93 748.15,-394.91 745.51,-401.4"/>
</a>
</g>
</g>
<!-- Node52 -->
<g id="Node000052" class="node">
<title>Node52</title>
<g id="a_Node000052"><a xlink:href="menu__items_8c.html#aeadbf47fc56f2dabd289f8f417f2afff" target="_top" xlink:title=" ">
<polygon fill="white" stroke="#666666" points="669.5,-464 571.5,-464 571.5,-445 669.5,-445 669.5,-464"/>
<text text-anchor="middle" x="620.5" y="-452" font-family="Helvetica,sans-Serif" font-size="10.00">print_text1_right</text>
</a>
</g>
</g>
<!-- Node41&#45;&gt;Node52 -->
<g id="edge41_Node000041_Node000052" class="edge">
<title>Node41&#45;&gt;Node52</title>
<g id="a_edge41_Node000041_Node000052"><a xlink:title=" ">
<path fill="none" stroke="#63b8ff" d="M742.95,-422.94C716.54,-429.81 683.34,-438.43 658.33,-444.93"/>
<polygon fill="#63b8ff" stroke="#63b8ff" points="743.91,-426.31 752.71,-420.41 742.15,-419.54 743.91,-426.31"/>
</a>
</g>
</g>
<!-- Node42&#45;&gt;Node19 -->
<g id="edge33_Node000042_Node000019" class="edge">
<title>Node42&#45;&gt;Node19</title>
<g id="a_edge33_Node000042_Node000019"><a xlink:title=" ">
<path fill="none" stroke="#63b8ff" d="M557.31,-417.37C490.73,-422.24 390.76,-425.06 362,-401.5 309.3,-358.33 342.81,-318.52 326,-252.5 310.65,-192.22 290.86,-120.17 283.72,-94.32"/>
<polygon fill="#63b8ff" stroke="#63b8ff" points="557.58,-420.86 567.29,-416.6 557.05,-413.88 557.58,-420.86"/>
</a>
</g>
</g>
<!-- Node42&#45;&gt;Node21 -->
<g id="edge34_Node000042_Node000021" class="edge">
<title>Node42&#45;&gt;Node21</title>
<g id="a_edge34_Node000042_Node000021"><a xlink:title=" ">
<path fill="none" stroke="#63b8ff" d="M557.13,-428.37C543.66,-431.34 529.44,-433.96 516,-435.5 448,-443.28 420.13,-471.63 362,-435.5 304.82,-399.97 286.8,-310.82 282.29,-281.22"/>
<polygon fill="#63b8ff" stroke="#63b8ff" points="558.29,-431.7 567.25,-426.05 556.72,-424.88 558.29,-431.7"/>
</a>
</g>
</g>
<!-- Node42&#45;&gt;Node23 -->
<g id="edge35_Node000042_Node000023" class="edge">
<title>Node42&#45;&gt;Node23</title>
<g id="a_edge35_Node000042_Node000023"><a xlink:title=" ">
<path fill="none" stroke="#63b8ff" d="M557.14,-401.77C533.46,-398.08 506.96,-393.94 485.16,-390.54"/>
<polygon fill="#63b8ff" stroke="#63b8ff" points="556.68,-405.24 567.1,-403.33 557.76,-398.33 556.68,-405.24"/>
</a>
</g>
</g>
<!-- Node42&#45;&gt;Node25 -->
<g id="edge36_Node000042_Node000025" class="edge">
<title>Node42&#45;&gt;Node25</title>
<g id="a_edge36_Node000042_Node000025"><a xlink:title=" ">
<path fill="none" stroke="#63b8ff" d="M559.64,-431C557,-432.41 554.44,-433.91 552,-435.5 532.5,-448.19 535.72,-461.16 516,-473.5 506.15,-479.67 494.58,-484.37 483.48,-487.91"/>
<polygon fill="#63b8ff" stroke="#63b8ff" points="561.38,-434.04 568.84,-426.52 558.32,-427.75 561.38,-434.04"/>
</a>
</g>
</g>
<!-- Node48&#45;&gt;Node25 -->
<g id="edge38_Node000048_Node000025" class="edge">
<title>Node48&#45;&gt;Node25</title>
<g id="a_edge38_Node000048_Node000025"><a xlink:title=" ">
<path fill="none" stroke="#63b8ff" d="M556.83,-497.5C533.22,-497.5 506.86,-497.5 485.16,-497.5"/>
<polygon fill="#63b8ff" stroke="#63b8ff" points="557.1,-501 567.1,-497.5 557.1,-494 557.1,-501"/>
</a>
</g>
</g>
<!-- Node51&#45;&gt;Node26 -->
<g id="edge40_Node000051_Node000026" class="edge">
<title>Node51&#45;&gt;Node26</title>
<g id="a_edge40_Node000051_Node000026"><a xlink:title=" ">
<path fill="none" stroke="#63b8ff" d="M564.44,-324.75C539.04,-321.64 509.26,-317.99 485.19,-315.04"/>
<polygon fill="#63b8ff" stroke="#63b8ff" points="564.32,-328.26 574.67,-326.01 565.17,-321.31 564.32,-328.26"/>
</a>
</g>
</g>
<!-- Node54 -->
<g id="Node000054" class="node">
<title>Node54</title>
<g id="a_Node000054"><a xlink:href="menu__items_8c.html#a51a08d17a71783b05d2688b3e4f1e88c" target="_top" xlink:title=" ">
<polygon fill="#fff0f0" stroke="red" points="666.5,-56 574.5,-56 574.5,-37 666.5,-37 666.5,-56"/>
<text text-anchor="middle" x="620.5" y="-44" font-family="Helvetica,sans-Serif" font-size="10.00">func_800939C8</text>
</a>
</g>
</g>
<!-- Node53&#45;&gt;Node54 -->
<g id="edge43_Node000053_Node000054" class="edge">
<title>Node53&#45;&gt;Node54</title>
<g id="a_edge43_Node000053_Node000054"><a xlink:title=" ">
<path fill="none" stroke="#63b8ff" d="M774.93,-276.41C742.23,-227.42 652.74,-93.31 627.94,-56.15"/>
<polygon fill="#63b8ff" stroke="#63b8ff" points="772.05,-278.4 780.51,-284.78 777.87,-274.52 772.05,-278.4"/>
</a>
</g>
</g>
<!-- Node55 -->
<g id="Node000055" class="node">
<title>Node55</title>
<g id="a_Node000055"><a xlink:href="menu__items_8c.html#a24be09f5258f7b9e60f78e51ad9b5c73" target="_top" xlink:title=" ">
<polygon fill="#fff0f0" stroke="red" points="653,-304 588,-304 588,-285 653,-285 653,-304"/>
<text text-anchor="middle" x="620.5" y="-292" font-family="Helvetica,sans-Serif" font-size="10.00">text_draw</text>
</a>
</g>
</g>
<!-- Node53&#45;&gt;Node55 -->
<g id="edge46_Node000053_Node000055" class="edge">
<title>Node53&#45;&gt;Node55</title>
<g id="a_edge46_Node000053_Node000055"><a xlink:title=" ">
<path fill="none" stroke="#63b8ff" d="M742.69,-294.5C714.48,-294.5 678.6,-294.5 653.22,-294.5"/>
<polygon fill="#63b8ff" stroke="#63b8ff" points="742.71,-298 752.71,-294.5 742.71,-291 742.71,-298"/>
</a>
</g>
</g>
<!-- Node54&#45;&gt;Node20 -->
<g id="edge44_Node000054_Node000020" class="edge">
<title>Node54&#45;&gt;Node20</title>
<g id="a_edge44_Node000054_Node000020"><a xlink:title=" ">
<path fill="none" stroke="#63b8ff" d="M564.36,-35.13C539.01,-29.91 509.3,-23.78 485.28,-18.83"/>
<polygon fill="#63b8ff" stroke="#63b8ff" points="563.7,-38.57 574.2,-37.16 565.12,-31.72 563.7,-38.57"/>
</a>
</g>
</g>
<!-- Node54&#45;&gt;Node22 -->
<g id="edge45_Node000054_Node000022" class="edge">
<title>Node54&#45;&gt;Node22</title>
<g id="a_edge45_Node000054_Node000022"><a xlink:title=" ">
<path fill="none" stroke="#63b8ff" d="M564.18,-46.5C539.31,-46.5 510.27,-46.5 486.53,-46.5"/>
<polygon fill="#63b8ff" stroke="#63b8ff" points="564.2,-50 574.2,-46.5 564.2,-43 564.2,-50"/>
</a>
</g>
</g>
<!-- Node55&#45;&gt;Node26 -->
<g id="edge47_Node000055_Node000026" class="edge">
<title>Node55&#45;&gt;Node26</title>
<g id="a_edge47_Node000055_Node000026"><a xlink:title=" ">
<path fill="none" stroke="#63b8ff" d="M577.65,-298C549.92,-300.31 513.55,-303.35 485.17,-305.73"/>
<polygon fill="#63b8ff" stroke="#63b8ff" points="578.15,-301.47 587.82,-297.15 577.57,-294.49 578.15,-301.47"/>
</a>
</g>
</g>
<!-- Node61 -->
<g id="Node000061" class="node">
<title>Node61</title>
<g id="a_Node000061"><a xlink:href="menu__items_8c.html#a4a007ea44e7ab306e6126af44f75814a" target="_top" xlink:title=" ">
<polygon fill="white" stroke="#666666" points="1014,-639 887,-639 887,-620 1014,-620 1014,-639"/>
<text text-anchor="middle" x="950.5" y="-627" font-family="Helvetica,sans-Serif" font-size="10.00">print_letter_wide_right</text>
</a>
</g>
</g>
<!-- Node60&#45;&gt;Node61 -->
<g id="edge49_Node000060_Node000061" class="edge">
<title>Node60&#45;&gt;Node61</title>
<g id="a_edge49_Node000060_Node000061"><a xlink:title=" ">
<path fill="none" stroke="#63b8ff" d="M1044.04,-630.64C1034.12,-630.51 1023.98,-630.39 1014.21,-630.27"/>
<polygon fill="#63b8ff" stroke="#63b8ff" points="1044.23,-634.14 1054.27,-630.76 1044.31,-627.14 1044.23,-634.14"/>
</a>
</g>
</g>
<!-- Node62 -->
<g id="Node000062" class="node">
<title>Node62</title>
<g id="a_Node000062"><a xlink:href="menu__items_8c.html#a29d12f53fcd2239f7403a52647b315e4" target="_top" xlink:title=" ">
<polygon fill="white" stroke="#666666" points="851,-639 725,-639 725,-620 851,-620 851,-639"/>
<text text-anchor="middle" x="788" y="-627" font-family="Helvetica,sans-Serif" font-size="10.00">print_text0_wide_right</text>
</a>
</g>
</g>
<!-- Node61&#45;&gt;Node62 -->
<g id="edge50_Node000061_Node000062" class="edge">
<title>Node61&#45;&gt;Node62</title>
<g id="a_edge50_Node000061_Node000062"><a xlink:title=" ">
<path fill="none" stroke="#63b8ff" d="M876.93,-629.5C868.3,-629.5 859.55,-629.5 851.08,-629.5"/>
<polygon fill="#63b8ff" stroke="#63b8ff" points="876.99,-633 886.99,-629.5 876.99,-626 876.99,-633"/>
</a>
</g>
</g>
<!-- Node66 -->
<g id="Node000066" class="node">
<title>Node66</title>
<g id="a_Node000066"><a xlink:href="menu__items_8c.html#a5abcef085b1e2089c54ea352ab09c9e2" target="_top" xlink:title=" ">
<polygon fill="white" stroke="#666666" points="837,-598 739,-598 739,-579 837,-579 837,-598"/>
<text text-anchor="middle" x="788" y="-586" font-family="Helvetica,sans-Serif" font-size="10.00">print_text2_wide</text>
</a>
</g>
</g>
<!-- Node61&#45;&gt;Node66 -->
<g id="edge53_Node000061_Node000066" class="edge">
<title>Node61&#45;&gt;Node66</title>
<g id="a_edge53_Node000061_Node000066"><a xlink:title=" ">
<path fill="none" stroke="#63b8ff" d="M902.55,-617.51C878.26,-611.3 849.02,-603.83 826.3,-598.03"/>
<polygon fill="#63b8ff" stroke="#63b8ff" points="901.72,-620.91 912.27,-619.99 903.45,-614.12 901.72,-620.91"/>
</a>
</g>
</g>
<!-- Node63 -->
<g id="Node000063" class="node">
<title>Node63</title>
<g id="a_Node000063"><a xlink:href="menu__items_8c.html#a30b200caa6b850c044716dae37f399f1" target="_top" xlink:title=" ">
<polygon fill="#fff0f0" stroke="red" points="689,-691.5 552,-691.5 552,-661.5 689,-661.5 689,-691.5"/>
<text text-anchor="start" x="560" y="-679.5" font-family="Helvetica,sans-Serif" font-size="10.00">print_text_mode_1_wide</text>
<text text-anchor="middle" x="620.5" y="-668.5" font-family="Helvetica,sans-Serif" font-size="10.00">_right</text>
</a>
</g>
</g>
<!-- Node62&#45;&gt;Node63 -->
<g id="edge51_Node000062_Node000063" class="edge">
<title>Node62&#45;&gt;Node63</title>
<g id="a_edge51_Node000062_Node000063"><a xlink:title=" ">
<path fill="none" stroke="#63b8ff" d="M743.81,-641.77C722.61,-647.79 696.87,-655.1 674.49,-661.45"/>
<polygon fill="#63b8ff" stroke="#63b8ff" points="744.85,-645.11 753.51,-639.01 742.93,-638.38 744.85,-645.11"/>
</a>
</g>
</g>
<!-- Node64 -->
<g id="Node000064" class="node">
<title>Node64</title>
<g id="a_Node000064"><a xlink:href="menu__items_8c.html#ab60993caf76992168173f0ffb695df05" target="_top" xlink:title=" ">
<polygon fill="#fff0f0" stroke="red" points="689,-643.5 552,-643.5 552,-613.5 689,-613.5 689,-643.5"/>
<text text-anchor="start" x="560" y="-631.5" font-family="Helvetica,sans-Serif" font-size="10.00">print_text_mode_2_wide</text>
<text text-anchor="middle" x="620.5" y="-620.5" font-family="Helvetica,sans-Serif" font-size="10.00">_right</text>
</a>
</g>
</g>
<!-- Node62&#45;&gt;Node64 -->
<g id="edge52_Node000062_Node000064" class="edge">
<title>Node62&#45;&gt;Node64</title>
<g id="a_edge52_Node000062_Node000064"><a xlink:title=" ">
<path fill="none" stroke="#63b8ff" d="M714.68,-629.06C706.22,-629.01 697.61,-628.96 689.21,-628.91"/>
<polygon fill="#63b8ff" stroke="#63b8ff" points="714.88,-632.56 724.9,-629.12 714.92,-625.56 714.88,-632.56"/>
</a>
</g>
</g>
<!-- Node67 -->
<g id="Node000067" class="node">
<title>Node67</title>
<g id="a_Node000067"><a xlink:href="menu__items_8c.html#ae50e7ba196b45d70439274d82e043027" target="_top" xlink:title=" ">
<polygon fill="white" stroke="#666666" points="667.5,-593 573.5,-593 573.5,-574 667.5,-574 667.5,-593"/>
<text text-anchor="middle" x="620.5" y="-581" font-family="Helvetica,sans-Serif" font-size="10.00">text_draw_wide</text>
</a>
</g>
</g>
<!-- Node66&#45;&gt;Node67 -->
<g id="edge54_Node000066_Node000067" class="edge">
<title>Node66&#45;&gt;Node67</title>
<g id="a_edge54_Node000066_Node000067"><a xlink:title=" ">
<path fill="none" stroke="#63b8ff" d="M728.46,-586.73C708.49,-586.13 686.45,-585.46 667.6,-584.89"/>
<polygon fill="#63b8ff" stroke="#63b8ff" points="728.58,-590.24 738.69,-587.04 728.8,-583.24 728.58,-590.24"/>
</a>
</g>
</g>
<!-- Node68 -->
<g id="Node000068" class="node">
<title>Node68</title>
<g id="a_Node000068"><a xlink:href="render__objects_8c.html#a2b1f1c1dd2701d0fbcfc7e69ba26d51a" target="_top" xlink:title=" ">
<polygon fill="white" stroke="#666666" points="516,-571 362,-571 362,-552 516,-552 516,-571"/>
<text text-anchor="middle" x="439" y="-559" font-family="Helvetica,sans-Serif" font-size="10.00">render_digital_speedometer</text>
</a>
</g>
</g>
<!-- Node67&#45;&gt;Node68 -->
<g id="edge55_Node000067_Node000068" class="edge">
<title>Node67&#45;&gt;Node68</title>
<g id="a_edge55_Node000067_Node000068"><a xlink:title=" ">
<path fill="none" stroke="#63b8ff" d="M563.18,-576.6C548.22,-574.76 531.83,-572.75 516.01,-570.82"/>
<polygon fill="#63b8ff" stroke="#63b8ff" points="562.92,-580.09 573.27,-577.83 563.77,-573.14 562.92,-580.09"/>
</a>
</g>
</g>
<!-- Node69 -->
<g id="Node000069" class="node">
<title>Node69</title>
<g id="a_Node000069"><a xlink:href="code__80057C60_8c.html#a6051ac40ac976a71882df84a87524235" target="_top" xlink:title=" ">
<polygon fill="white" stroke="#666666" points="325.5,-571 234.5,-571 234.5,-552 325.5,-552 325.5,-571"/>
<text text-anchor="middle" x="280" y="-559" font-family="Helvetica,sans-Serif" font-size="10.00">func_80058F78</text>
</a>
</g>
</g>
<!-- Node68&#45;&gt;Node69 -->
<g id="edge56_Node000068_Node000069" class="edge">
<title>Node68&#45;&gt;Node69</title>
<g id="a_edge56_Node000068_Node000069"><a xlink:title=" ">
<path fill="none" stroke="#63b8ff" d="M351.68,-561.5C342.75,-561.5 333.95,-561.5 325.76,-561.5"/>
<polygon fill="#63b8ff" stroke="#63b8ff" points="351.8,-565 361.8,-561.5 351.8,-558 351.8,-565"/>
</a>
</g>
</g>
<!-- Node70 -->
<g id="Node000070" class="node">
<title>Node70</title>
<g id="a_Node000070"><a xlink:href="code__80057C60_8c.html#abba725605f125f2fd8b6940a291570a2" target="_top" xlink:title=" ">
<polygon fill="white" stroke="#666666" points="198,-571 127,-571 127,-552 198,-552 198,-571"/>
<text text-anchor="middle" x="162.5" y="-559" font-family="Helvetica,sans-Serif" font-size="10.00">render_hud</text>
</a>
</g>
</g>
<!-- Node69&#45;&gt;Node70 -->
<g id="edge57_Node000069_Node000070" class="edge">
<title>Node69&#45;&gt;Node70</title>
<g id="a_edge57_Node000069_Node000070"><a xlink:title=" ">
<path fill="none" stroke="#63b8ff" d="M224.32,-561.5C215.36,-561.5 206.3,-561.5 198.01,-561.5"/>
<polygon fill="#63b8ff" stroke="#63b8ff" points="224.34,-565 234.34,-561.5 224.34,-558 224.34,-565"/>
</a>
</g>
</g>
<!-- Node71 -->
<g id="Node000071" class="node">
<title>Node71</title>
<g id="a_Node000071"><a xlink:href="skybox__and__splitscreen_8c.html#ae4f7ad839fe3a60b3b6fde3d07ae8acd" target="_top" xlink:title=" ">
<polygon fill="#fff0f0" stroke="red" points="91,-571 0,-571 0,-552 91,-552 91,-571"/>
<text text-anchor="middle" x="45.5" y="-559" font-family="Helvetica,sans-Serif" font-size="10.00">render_screens</text>
</a>
</g>
</g>
<!-- Node70&#45;&gt;Node71 -->
<g id="edge58_Node000070_Node000071" class="edge">
<title>Node70&#45;&gt;Node71</title>
<g id="a_edge58_Node000070_Node000071"><a xlink:title=" ">
<path fill="none" stroke="#63b8ff" d="M116.94,-561.5C108.5,-561.5 99.66,-561.5 91.21,-561.5"/>
<polygon fill="#63b8ff" stroke="#63b8ff" points="117,-565 127,-561.5 117,-558 117,-565"/>
</a>
</g>
</g>
<!-- Node111&#45;&gt;Node68 -->
<g id="edge64_Node000111_Node000068" class="edge">
<title>Node111&#45;&gt;Node68</title>
<g id="a_edge64_Node000111_Node000068"><a xlink:title=" ">
<path fill="none" stroke="#63b8ff" d="M1252.66,-481.37C1234.84,-494.33 1207.69,-511.87 1181,-520.5 1083.58,-552.01 1053.89,-540.5 951.5,-540.5 951.5,-540.5 951.5,-540.5 787,-540.5 693.6,-540.5 586.32,-548.17 516.07,-554.24"/>
<polygon fill="#63b8ff" stroke="#63b8ff" points="1255.16,-483.87 1261.08,-475.08 1250.97,-478.27 1255.16,-483.87"/>
</a>
</g>
</g>
<!-- Node112 -->
<g id="Node000112" class="node">
<title>Node112</title>
<g id="a_Node000112"><a xlink:href="stubs_8c.html#a6bb2c5cb35cc8f2d71036be0276e891f" target="_top" xlink:title=" ">
<polygon fill="white" stroke="#666666" points="1165.5,-475 1065.5,-475 1065.5,-456 1165.5,-456 1165.5,-475"/>
<text text-anchor="middle" x="1115.5" y="-463" font-family="Helvetica,sans-Serif" font-size="10.00">osPfsAllocateFile</text>
</a>
</g>
</g>
<!-- Node111&#45;&gt;Node112 -->
<g id="edge61_Node000111_Node000112" class="edge">
<title>Node111&#45;&gt;Node112</title>
<g id="a_edge61_Node000111_Node000112"><a xlink:title=" ">
<path fill="none" stroke="#63b8ff" d="M1239.63,-465.5C1218.08,-465.5 1189.67,-465.5 1165.57,-465.5"/>
<polygon fill="#63b8ff" stroke="#63b8ff" points="1239.91,-469 1249.91,-465.5 1239.91,-462 1239.91,-469"/>
</a>
</g>
</g>
<!-- Node113 -->
<g id="Node000113" class="node">
<title>Node113</title>
<g id="a_Node000113"><a xlink:href="stubs_8c.html#a4694169ebbc67d1cab176b4f8945ce51" target="_top" xlink:title=" ">
<polygon fill="white" stroke="#666666" points="1161.5,-438 1069.5,-438 1069.5,-419 1161.5,-419 1161.5,-438"/>
<text text-anchor="middle" x="1115.5" y="-426" font-family="Helvetica,sans-Serif" font-size="10.00">osPfsDeleteFile</text>
</a>
</g>
</g>
<!-- Node111&#45;&gt;Node113 -->
<g id="edge62_Node000111_Node000113" class="edge">
<title>Node111&#45;&gt;Node113</title>
<g id="a_edge62_Node000111_Node000113"><a xlink:title=" ">
<path fill="none" stroke="#63b8ff" d="M1240.09,-457.72C1215.78,-451.97 1182.57,-444.12 1156.7,-438"/>
<polygon fill="#63b8ff" stroke="#63b8ff" points="1239.37,-461.15 1249.91,-460.04 1240.98,-454.33 1239.37,-461.15"/>
</a>
</g>
</g>
<!-- Node114 -->
<g id="Node000114" class="node">
<title>Node114</title>
<g id="a_Node000114"><a xlink:href="stubs_8c.html#ac2db0df25dbcd5c6bec9319681fdd138" target="_top" xlink:title=" ">
<polygon fill="white" stroke="#666666" points="1155.5,-401 1075.5,-401 1075.5,-382 1155.5,-382 1155.5,-401"/>
<text text-anchor="middle" x="1115.5" y="-389" font-family="Helvetica,sans-Serif" font-size="10.00">osPfsFindFile</text>
</a>
</g>
</g>
<!-- Node111&#45;&gt;Node114 -->
<g id="edge63_Node000111_Node000114" class="edge">
<title>Node111&#45;&gt;Node114</title>
<g id="a_edge63_Node000111_Node000114"><a xlink:title=" ">
<path fill="none" stroke="#63b8ff" d="M1251.31,-449.93C1233.23,-437.55 1206.42,-420.53 1181,-409.5 1173,-406.03 1164.15,-403.05 1155.64,-400.56"/>
<polygon fill="#63b8ff" stroke="#63b8ff" points="1249.71,-453.09 1259.92,-455.93 1253.71,-447.34 1249.71,-453.09"/>
</a>
</g>
</g>
</g>
</svg>
