<?xml version="1.0" encoding="UTF-8" standalone="no"?>
<!DOCTYPE svg PUBLIC "-//W3C//DTD SVG 1.1//EN"
 "http://www.w3.org/Graphics/SVG/1.1/DTD/svg11.dtd">
<!-- Generated by graphviz version 2.43.0 (0)
 -->
<!-- Title: use_blue_shell_item Pages: 1 -->
<!--zoomable 372 -->

<svg id="main" version="1.1" xmlns="http://www.w3.org/2000/svg" xmlns:xlink="http://www.w3.org/1999/xlink" xml:space="preserve" onload="init(evt)">

<style type="text/css"><![CDATA[
.node, .edge {opacity: 0.7;}
.node.selected, .edge.selected {opacity: 1;}
.edge:hover path { stroke: red; }
.edge:hover polygon { stroke: red; fill: red; }
]]></style>

<defs>
  <circle id="rim" cx="0" cy="0" r="7"/>
  <circle id="rim2" cx="0" cy="0" r="3.5"/>
  <g id="zoomPlus">
    <use xlink:href="#rim" fill="#404040"><set attributeName="fill" to="#808080" begin="zoomplus.mouseover" end="zoomplus.mouseout"/></use>
    <path d="M-4,0h8M0,-4v8" fill="none" stroke="white" stroke-width="1.5" pointer-events="none"/>
  </g>
  <g id="zoomMin">
    <use xlink:href="#rim" fill="#404040"><set attributeName="fill" to="#808080" begin="zoomminus.mouseover" end="zoomminus.mouseout"/></use>
    <path d="M-4,0h8" fill="none" stroke="white" stroke-width="1.5" pointer-events="none"/>
  </g>
  <g id="arrowUp" transform="translate(30 24)">
    <use xlink:href="#rim"/>
    <path pointer-events="none" fill="none" stroke="white" stroke-width="1.5" d="M0,-3.0v7 M-2.5,-0.5L0,-3.0L2.5,-0.5"/>
  </g>
  <g id="arrowRight" transform="rotate(90) translate(36 -43)">
    <use xlink:href="#rim"/>
    <path pointer-events="none" fill="none" stroke="white" stroke-width="1.5" d="M0,-3.0v7 M-2.5,-0.5L0,-3.0L2.5,-0.5"/>
  </g>
  <g id="arrowDown" transform="rotate(180) translate(-30 -48)">
    <use xlink:href="#rim"/>
    <path pointer-events="none" fill="none" stroke="white" stroke-width="1.5" d="M0,-3.0v7 M-2.5,-0.5L0,-3.0L2.5,-0.5"/>
  </g>
  <g id="arrowLeft" transform="rotate(270) translate(-36 17)">
    <use xlink:href="#rim"/>
    <path pointer-events="none" fill="none" stroke="white" stroke-width="1.5" d="M0,-3.0v7 M-2.5,-0.5L0,-3.0L2.5,-0.5"/>
  </g>
  <g id="resetDef">
    <use xlink:href="#rim2" fill="#404040"><set attributeName="fill" to="#808080" begin="reset.mouseover" end="reset.mouseout"/></use>
  </g>
</defs>
<script type="application/ecmascript">
var viewWidth = 1752;
var viewHeight = 372;
var sectionId = 'dynsection-34';
</script>
<script type="application/ecmascript" xlink:href="svg.min.js"/>
<svg id="graph" class="graph">
<g id="viewport">
<title>use_blue_shell_item</title>
<!-- Node1 -->
<g id="Node000001" class="node">
<title>Node1</title>
<g id="a_Node000001"><a xlink:title=" ">
<polygon fill="#999999" stroke="#666666" points="116,-92 0,-92 0,-73 116,-73 116,-92"/>
<text text-anchor="middle" x="58" y="-80" font-family="Helvetica,sans-Serif" font-size="10.00">use_blue_shell_item</text>
</a>
</g>
</g>
<!-- Node2 -->
<g id="Node000002" class="node">
<title>Node2</title>
<g id="a_Node000002"><a xlink:href="actors__extended_8c.html#abfd4761b52386597862e72451a1a3d1d" target="_top" xlink:title=" ">
<polygon fill="white" stroke="#666666" points="263,-92 152,-92 152,-73 263,-73 263,-92"/>
<text text-anchor="middle" x="207.5" y="-80" font-family="Helvetica,sans-Serif" font-size="10.00">use_red_shell_item</text>
</a>
</g>
</g>
<!-- Node1&#45;&gt;Node2 -->
<g id="edge1_Node000001_Node000002" class="edge">
<title>Node1&#45;&gt;Node2</title>
<g id="a_edge1_Node000001_Node000002"><a xlink:title=" ">
<path fill="none" stroke="#63b8ff" d="M116.03,-82.5C124.33,-82.5 132.92,-82.5 141.37,-82.5"/>
<polygon fill="#63b8ff" stroke="#63b8ff" points="141.56,-86 151.56,-82.5 141.56,-79 141.56,-86"/>
</a>
</g>
</g>
<!-- Node3 -->
<g id="Node000003" class="node">
<title>Node3</title>
<g id="a_Node000003"><a xlink:href="collision_8c.html#a79293dbdae52d290fdaf8dde9d5244ca" target="_top" xlink:title=" ">
<polygon fill="white" stroke="#666666" points="437.5,-222 312.5,-222 312.5,-203 437.5,-203 437.5,-222"/>
<text text-anchor="middle" x="375" y="-210" font-family="Helvetica,sans-Serif" font-size="10.00">actor_terrain_collision</text>
</a>
</g>
</g>
<!-- Node2&#45;&gt;Node3 -->
<g id="edge2_Node000002_Node000003" class="edge">
<title>Node2&#45;&gt;Node3</title>
<g id="a_edge2_Node000002_Node000003"><a xlink:title=" ">
<path fill="none" stroke="#63b8ff" d="M220.67,-92.06C248.88,-114.22 319,-169.3 353.78,-196.62"/>
<polygon fill="#63b8ff" stroke="#63b8ff" points="351.79,-199.5 361.81,-202.93 356.11,-194 351.79,-199.5"/>
</a>
</g>
</g>
<!-- Node7 -->
<g id="Node000007" class="node">
<title>Node7</title>
<g id="a_Node000007"><a xlink:href="actors_8c.html#a91fb2e4e37e7c72fea918fe2c1bb4eaf" target="_top" xlink:title=" ">
<polygon fill="white" stroke="#666666" points="445,-111 305,-111 305,-92 445,-92 445,-111"/>
<text text-anchor="middle" x="375" y="-99" font-family="Helvetica,sans-Serif" font-size="10.00">add_actor_to_empty_slot</text>
</a>
</g>
</g>
<!-- Node2&#45;&gt;Node7 -->
<g id="edge6_Node000002_Node000007" class="edge">
<title>Node2&#45;&gt;Node7</title>
<g id="a_edge6_Node000002_Node000007"><a xlink:title=" ">
<path fill="none" stroke="#63b8ff" d="M263.15,-88.77C273.28,-89.94 284.05,-91.17 294.74,-92.4"/>
<polygon fill="#63b8ff" stroke="#63b8ff" points="294.61,-95.91 304.95,-93.57 295.41,-88.95 294.61,-95.91"/>
</a>
</g>
</g>
<!-- Node34 -->
<g id="Node000034" class="node">
<title>Node34</title>
<g id="a_Node000034"><a xlink:href="actors__extended_8c.html#a78e98c146f1f4dd6e3608016486172a4" target="_top" xlink:title=" ">
<polygon fill="white" stroke="#666666" points="421,-74 329,-74 329,-55 421,-55 421,-74"/>
<text text-anchor="middle" x="375" y="-62" font-family="Helvetica,sans-Serif" font-size="10.00">func_802B4E30</text>
</a>
</g>
</g>
<!-- Node2&#45;&gt;Node34 -->
<g id="edge33_Node000002_Node000034" class="edge">
<title>Node2&#45;&gt;Node34</title>
<g id="a_edge33_Node000002_Node000034"><a xlink:title=" ">
<path fill="none" stroke="#63b8ff" d="M263.15,-76.56C281.02,-74.61 300.88,-72.45 318.79,-70.51"/>
<polygon fill="#63b8ff" stroke="#63b8ff" points="319.23,-73.98 328.8,-69.42 318.48,-67.02 319.23,-73.98"/>
</a>
</g>
</g>
<!-- Node35 -->
<g id="Node000035" class="node">
<title>Node35</title>
<g id="a_Node000035"><a xlink:href="math__util_8c.html#ad5bb0138c68b50f119d3cb7966f522b7" target="_top" xlink:title=" ">
<polygon fill="white" stroke="#666666" points="451,-37 299,-37 299,-18 451,-18 451,-37"/>
<text text-anchor="middle" x="375" y="-25" font-family="Helvetica,sans-Serif" font-size="10.00">mtxf_translate_vec3f_mat3</text>
</a>
</g>
</g>
<!-- Node2&#45;&gt;Node35 -->
<g id="edge34_Node000002_Node000035" class="edge">
<title>Node2&#45;&gt;Node35</title>
<g id="a_edge34_Node000002_Node000035"><a xlink:title=" ">
<path fill="none" stroke="#63b8ff" d="M229.37,-72.9C247.5,-64.82 274.6,-53.36 299,-45.5 305.51,-43.4 312.4,-41.43 319.27,-39.6"/>
<polygon fill="#63b8ff" stroke="#63b8ff" points="320.45,-42.92 329.27,-37.05 318.72,-36.13 320.45,-42.92"/>
</a>
</g>
</g>
<!-- Node4 -->
<g id="Node000004" class="node">
<title>Node4</title>
<g id="a_Node000004"><a xlink:href="collision_8c.html#a6ea8b20f38e63c1b1157923085c8e306" target="_top" xlink:title=" ">
<polygon fill="white" stroke="#666666" points="630,-289.5 487,-289.5 487,-259.5 630,-259.5 630,-289.5"/>
<text text-anchor="start" x="495" y="-277.5" font-family="Helvetica,sans-Serif" font-size="10.00">is_colliding_with_drivable</text>
<text text-anchor="middle" x="558.5" y="-266.5" font-family="Helvetica,sans-Serif" font-size="10.00">_surface</text>
</a>
</g>
</g>
<!-- Node3&#45;&gt;Node4 -->
<g id="edge3_Node000003_Node000004" class="edge">
<title>Node3&#45;&gt;Node4</title>
<g id="a_edge3_Node000003_Node000004"><a xlink:title=" ">
<path fill="none" stroke="#63b8ff" d="M403.82,-222.04C426.27,-229.73 458.66,-240.83 487,-250.5 492.28,-252.3 497.78,-254.18 503.27,-256.05"/>
<polygon fill="#63b8ff" stroke="#63b8ff" points="502.52,-259.49 513.12,-259.4 504.78,-252.87 502.52,-259.49"/>
</a>
</g>
</g>
<!-- Node5 -->
<g id="Node000005" class="node">
<title>Node5</title>
<g id="a_Node000005"><a xlink:href="collision_8c.html#a94970a4a6ca911f74e59114decd74557" target="_top" xlink:title=" ">
<polygon fill="white" stroke="#666666" points="623,-241 494,-241 494,-222 623,-222 623,-241"/>
<text text-anchor="middle" x="558.5" y="-229" font-family="Helvetica,sans-Serif" font-size="10.00">is_colliding_with_wall1</text>
</a>
</g>
</g>
<!-- Node3&#45;&gt;Node5 -->
<g id="edge4_Node000003_Node000005" class="edge">
<title>Node3&#45;&gt;Node5</title>
<g id="a_edge4_Node000003_Node000005"><a xlink:title=" ">
<path fill="none" stroke="#63b8ff" d="M437.7,-218.96C452.54,-220.51 468.53,-222.19 483.85,-223.79"/>
<polygon fill="#63b8ff" stroke="#63b8ff" points="483.49,-227.27 493.8,-224.83 484.22,-220.31 483.49,-227.27"/>
</a>
</g>
</g>
<!-- Node6 -->
<g id="Node000006" class="node">
<title>Node6</title>
<g id="a_Node000006"><a xlink:href="collision_8c.html#a23443870e0d3a6797de707a89ded7ef0" target="_top" xlink:title=" ">
<polygon fill="white" stroke="#666666" points="623,-204 494,-204 494,-185 623,-185 623,-204"/>
<text text-anchor="middle" x="558.5" y="-192" font-family="Helvetica,sans-Serif" font-size="10.00">is_colliding_with_wall2</text>
</a>
</g>
</g>
<!-- Node3&#45;&gt;Node6 -->
<g id="edge5_Node000003_Node000006" class="edge">
<title>Node3&#45;&gt;Node6</title>
<g id="a_edge5_Node000003_Node000006"><a xlink:title=" ">
<path fill="none" stroke="#63b8ff" d="M437.7,-206.38C452.54,-204.91 468.53,-203.32 483.85,-201.8"/>
<polygon fill="#63b8ff" stroke="#63b8ff" points="484.2,-205.29 493.8,-200.82 483.51,-198.32 484.2,-205.29"/>
</a>
</g>
</g>
<!-- Node8 -->
<g id="Node000008" class="node">
<title>Node8</title>
<g id="a_Node000008"><a xlink:href="actors_8c.html#a39c023177b5a7686cdd1fc65b8b953e1" target="_top" xlink:title=" ">
<polygon fill="white" stroke="#666666" points="589.5,-167 527.5,-167 527.5,-148 589.5,-148 589.5,-167"/>
<text text-anchor="middle" x="558.5" y="-155" font-family="Helvetica,sans-Serif" font-size="10.00">actor_init</text>
</a>
</g>
</g>
<!-- Node7&#45;&gt;Node8 -->
<g id="edge7_Node000007_Node000008" class="edge">
<title>Node7&#45;&gt;Node8</title>
<g id="a_edge7_Node000007_Node000008"><a xlink:title=" ">
<path fill="none" stroke="#63b8ff" d="M403.23,-111.07C425.61,-118.82 458.21,-129.83 487,-138.5 496.83,-141.46 507.5,-144.45 517.49,-147.15"/>
<polygon fill="#63b8ff" stroke="#63b8ff" points="516.63,-150.55 527.2,-149.75 518.44,-143.79 516.63,-150.55"/>
</a>
</g>
</g>
<!-- Node30 -->
<g id="Node000030" class="node">
<title>Node30</title>
<g id="a_Node000030"><a xlink:href="Game_8cpp.html#a42f23077aaa52cb3ea5c7803b7dd6816" target="_top" xlink:title=" ">
<polygon fill="white" stroke="#666666" points="611.5,-130 505.5,-130 505.5,-111 611.5,-111 611.5,-130"/>
<text text-anchor="middle" x="558.5" y="-118" font-family="Helvetica,sans-Serif" font-size="10.00">CM_AddBaseActor</text>
</a>
</g>
</g>
<!-- Node7&#45;&gt;Node30 -->
<g id="edge29_Node000007_Node000030" class="edge">
<title>Node7&#45;&gt;Node30</title>
<g id="a_edge29_Node000007_Node000030"><a xlink:title=" ">
<path fill="none" stroke="#63b8ff" d="M445.14,-108.74C461.57,-110.46 479.01,-112.28 495.12,-113.97"/>
<polygon fill="#63b8ff" stroke="#63b8ff" points="495.19,-117.5 505.5,-115.06 495.92,-110.53 495.19,-117.5"/>
</a>
</g>
</g>
<!-- Node31 -->
<g id="Node000031" class="node">
<title>Node31</title>
<g id="a_Node000031"><a xlink:href="Game_8cpp.html#aab23ecf7032de4618ff75c395d8fccf1" target="_top" xlink:title=" ">
<polygon fill="white" stroke="#666666" points="616.5,-93 500.5,-93 500.5,-74 616.5,-74 616.5,-93"/>
<text text-anchor="middle" x="558.5" y="-81" font-family="Helvetica,sans-Serif" font-size="10.00">CM_AddEditorObject</text>
</a>
</g>
</g>
<!-- Node7&#45;&gt;Node31 -->
<g id="edge30_Node000007_Node000031" class="edge">
<title>Node7&#45;&gt;Node31</title>
<g id="a_edge30_Node000007_Node000031"><a xlink:title=" ">
<path fill="none" stroke="#63b8ff" d="M445.14,-94.64C459.95,-93.17 475.58,-91.62 490.32,-90.16"/>
<polygon fill="#63b8ff" stroke="#63b8ff" points="490.75,-93.64 500.36,-89.17 490.06,-86.67 490.75,-93.64"/>
</a>
</g>
</g>
<!-- Node32 -->
<g id="Node000032" class="node">
<title>Node32</title>
<g id="a_Node000032"><a xlink:href="Game_8cpp.html#a0841ffe9a66e95aca42438b9d8ffc3d3" target="_top" xlink:title=" ">
<polygon fill="white" stroke="#666666" points="609,-56 508,-56 508,-37 609,-37 609,-56"/>
<text text-anchor="middle" x="558.5" y="-44" font-family="Helvetica,sans-Serif" font-size="10.00">CM_GetActorSize</text>
</a>
</g>
</g>
<!-- Node7&#45;&gt;Node32 -->
<g id="edge31_Node000007_Node000032" class="edge">
<title>Node7&#45;&gt;Node32</title>
<g id="a_edge31_Node000007_Node000032"><a xlink:title=" ">
<path fill="none" stroke="#63b8ff" d="M420.51,-91.91C430.66,-89.26 441.31,-86.1 451,-82.5 467.77,-76.27 470.24,-70.75 487,-64.5 492.54,-62.44 498.4,-60.53 504.29,-58.78"/>
<polygon fill="#63b8ff" stroke="#63b8ff" points="505.49,-62.08 514.17,-56.01 503.6,-55.34 505.49,-62.08"/>
</a>
</g>
</g>
<!-- Node33 -->
<g id="Node000033" class="node">
<title>Node33</title>
<g id="a_Node000033"><a xlink:href="actors_8c.html#a3d238d4f049ffbc555cb8a4dc93c9975" target="_top" xlink:title=" ">
<polygon fill="white" stroke="#666666" points="606,-19 511,-19 511,0 606,0 606,-19"/>
<text text-anchor="middle" x="558.5" y="-7" font-family="Helvetica,sans-Serif" font-size="10.00">get_actor_name</text>
</a>
</g>
</g>
<!-- Node7&#45;&gt;Node33 -->
<g id="edge32_Node000007_Node000033" class="edge">
<title>Node7&#45;&gt;Node33</title>
<g id="a_edge32_Node000007_Node000033"><a xlink:title=" ">
<path fill="none" stroke="#63b8ff" d="M432.91,-91.97C439.34,-89.5 445.53,-86.4 451,-82.5 474.78,-65.53 463.23,-44.49 487,-27.5 491.43,-24.33 496.37,-21.72 501.52,-19.57"/>
<polygon fill="#63b8ff" stroke="#63b8ff" points="502.73,-22.85 510.95,-16.17 500.36,-16.27 502.73,-22.85"/>
</a>
</g>
</g>
<!-- Node9 -->
<g id="Node000009" class="node">
<title>Node9</title>
<g id="a_Node000009"><a xlink:href="collision_8c.html#a37aa55b3768d001533ad75e7f1b8388a" target="_top" xlink:title=" ">
<polygon fill="white" stroke="#666666" points="807,-309 666,-309 666,-290 807,-290 807,-309"/>
<text text-anchor="middle" x="736.5" y="-297" font-family="Helvetica,sans-Serif" font-size="10.00">check_bounding_collision</text>
</a>
</g>
</g>
<!-- Node8&#45;&gt;Node9 -->
<g id="edge8_Node000008_Node000009" class="edge">
<title>Node8&#45;&gt;Node9</title>
<g id="a_edge8_Node000008_Node000009"><a xlink:title=" ">
<path fill="none" stroke="#63b8ff" d="M589.82,-161.14C603.01,-163.82 618.14,-168.47 630,-176.5 652.08,-191.45 648.91,-204.03 666,-224.5 683.08,-244.97 704.04,-267.24 718.45,-282.14"/>
<polygon fill="#63b8ff" stroke="#63b8ff" points="716.23,-284.88 725.71,-289.61 721.25,-280 716.23,-284.88"/>
</a>
</g>
</g>
<!-- Node13 -->
<g id="Node000013" class="node">
<title>Node13</title>
<g id="a_Node000013"><a xlink:href="actors_8c.html#a1a9bccb586242555a9123ebd4ab70f2a" target="_top" xlink:title=" ">
<polygon fill="white" stroke="#666666" points="802.5,-215.5 670.5,-215.5 670.5,-185.5 802.5,-185.5 802.5,-215.5"/>
<text text-anchor="start" x="678.5" y="-203.5" font-family="Helvetica,sans-Serif" font-size="10.00">cleanup_red_and_green</text>
<text text-anchor="middle" x="736.5" y="-192.5" font-family="Helvetica,sans-Serif" font-size="10.00">_shells</text>
</a>
</g>
</g>
<!-- Node8&#45;&gt;Node13 -->
<g id="edge12_Node000008_Node000013" class="edge">
<title>Node8&#45;&gt;Node13</title>
<g id="a_edge12_Node000008_Node000013"><a xlink:title=" ">
<path fill="none" stroke="#63b8ff" d="M589.76,-164.89C610.24,-169.9 638.19,-176.72 664.13,-183.06"/>
<polygon fill="#63b8ff" stroke="#63b8ff" points="663.42,-186.49 673.96,-185.47 665.08,-179.69 663.42,-186.49"/>
</a>
</g>
</g>
<!-- Node26 -->
<g id="Node000026" class="node">
<title>Node26</title>
<g id="a_Node000026"><a xlink:href="collision_8c.html#ad72fef3ffe32191d73b1822f512ebf3f" target="_top" xlink:title=" ">
<polygon fill="white" stroke="#666666" points="784,-167 689,-167 689,-148 784,-148 784,-167"/>
<text text-anchor="middle" x="736.5" y="-155" font-family="Helvetica,sans-Serif" font-size="10.00">func_802AAAAC</text>
</a>
</g>
</g>
<!-- Node8&#45;&gt;Node26 -->
<g id="edge25_Node000008_Node000026" class="edge">
<title>Node8&#45;&gt;Node26</title>
<g id="a_edge25_Node000008_Node000026"><a xlink:title=" ">
<path fill="none" stroke="#63b8ff" d="M589.76,-157.5C614.11,-157.5 649.03,-157.5 678.58,-157.5"/>
<polygon fill="#63b8ff" stroke="#63b8ff" points="678.78,-161 688.78,-157.5 678.78,-154 678.78,-161"/>
</a>
</g>
</g>
<!-- Node28 -->
<g id="Node000028" class="node">
<title>Node28</title>
<g id="a_Node000028"><a xlink:href="math__util_8c.html#af7b470ed76fce07b8042a47c96e5690b" target="_top" xlink:title=" ">
<polygon fill="white" stroke="#666666" points="790,-130 683,-130 683,-111 790,-111 790,-130"/>
<text text-anchor="middle" x="736.5" y="-118" font-family="Helvetica,sans-Serif" font-size="10.00">vec3f_copy_return</text>
</a>
</g>
</g>
<!-- Node8&#45;&gt;Node28 -->
<g id="edge27_Node000008_Node000028" class="edge">
<title>Node8&#45;&gt;Node28</title>
<g id="a_edge27_Node000008_Node000028"><a xlink:title=" ">
<path fill="none" stroke="#63b8ff" d="M589.76,-151.14C614.57,-145.92 650.35,-138.4 680.24,-132.12"/>
<polygon fill="#63b8ff" stroke="#63b8ff" points="681.07,-135.52 690.13,-130.04 679.63,-128.67 681.07,-135.52"/>
</a>
</g>
</g>
<!-- Node29 -->
<g id="Node000029" class="node">
<title>Node29</title>
<g id="a_Node000029"><a xlink:href="math__util_8c.html#a0e270ee67600c8c9c2f140c647d008a1" target="_top" xlink:title=" ">
<polygon fill="white" stroke="#666666" points="773.5,-93 699.5,-93 699.5,-74 773.5,-74 773.5,-93"/>
<text text-anchor="middle" x="736.5" y="-81" font-family="Helvetica,sans-Serif" font-size="10.00">vec3s_copy</text>
</a>
</g>
</g>
<!-- Node8&#45;&gt;Node29 -->
<g id="edge28_Node000008_Node000029" class="edge">
<title>Node8&#45;&gt;Node29</title>
<g id="a_edge28_Node000008_Node000029"><a xlink:title=" ">
<path fill="none" stroke="#63b8ff" d="M589.71,-153.05C602.73,-150.23 617.76,-145.69 630,-138.5 649.78,-126.88 646.16,-113.02 666,-101.5 673.2,-97.32 681.38,-94.09 689.53,-91.61"/>
<polygon fill="#63b8ff" stroke="#63b8ff" points="690.67,-94.93 699.4,-88.93 688.83,-88.17 690.67,-94.93"/>
</a>
</g>
</g>
<!-- Node10 -->
<g id="Node000010" class="node">
<title>Node10</title>
<g id="a_Node000010"><a xlink:href="collision_8c.html#ac312bf382cb40752f6b790a99e7cdcb6" target="_top" xlink:title=" ">
<polygon fill="white" stroke="#666666" points="970,-364 862,-364 862,-345 970,-345 970,-364"/>
<text text-anchor="middle" x="916" y="-352" font-family="Helvetica,sans-Serif" font-size="10.00">check_collision_yx</text>
</a>
</g>
</g>
<!-- Node9&#45;&gt;Node10 -->
<g id="edge9_Node000009_Node000010" class="edge">
<title>Node9&#45;&gt;Node10</title>
<g id="a_edge9_Node000009_Node000010"><a xlink:title=" ">
<path fill="none" stroke="#63b8ff" d="M762.87,-309.14C784.1,-317.03 815.3,-328.2 843,-336.5 849.87,-338.56 857.16,-340.57 864.36,-342.47"/>
<polygon fill="#63b8ff" stroke="#63b8ff" points="863.52,-345.87 874.08,-344.97 865.26,-339.09 863.52,-345.87"/>
</a>
</g>
</g>
<!-- Node11 -->
<g id="Node000011" class="node">
<title>Node11</title>
<g id="a_Node000011"><a xlink:href="collision_8c.html#a4b48832a90e984536a0635a016ec4f28" target="_top" xlink:title=" ">
<polygon fill="white" stroke="#666666" points="969.5,-327 862.5,-327 862.5,-308 969.5,-308 969.5,-327"/>
<text text-anchor="middle" x="916" y="-315" font-family="Helvetica,sans-Serif" font-size="10.00">check_collision_zx</text>
</a>
</g>
</g>
<!-- Node9&#45;&gt;Node11 -->
<g id="edge10_Node000009_Node000011" class="edge">
<title>Node9&#45;&gt;Node11</title>
<g id="a_edge10_Node000009_Node000011"><a xlink:title=" ">
<path fill="none" stroke="#63b8ff" d="M807.14,-306.56C821.91,-308.06 837.43,-309.63 851.94,-311.1"/>
<polygon fill="#63b8ff" stroke="#63b8ff" points="852,-314.63 862.3,-312.16 852.7,-307.66 852,-314.63"/>
</a>
</g>
</g>
<!-- Node12 -->
<g id="Node000012" class="node">
<title>Node12</title>
<g id="a_Node000012"><a xlink:href="collision_8c.html#a21fef964ab48191a1c0341954ef27a40" target="_top" xlink:title=" ">
<polygon fill="white" stroke="#666666" points="969.5,-290 862.5,-290 862.5,-271 969.5,-271 969.5,-290"/>
<text text-anchor="middle" x="916" y="-278" font-family="Helvetica,sans-Serif" font-size="10.00">check_collision_zy</text>
</a>
</g>
</g>
<!-- Node9&#45;&gt;Node12 -->
<g id="edge11_Node000009_Node000012" class="edge">
<title>Node9&#45;&gt;Node12</title>
<g id="a_edge11_Node000009_Node000012"><a xlink:title=" ">
<path fill="none" stroke="#63b8ff" d="M807.14,-292.05C821.91,-290.46 837.43,-288.8 851.94,-287.25"/>
<polygon fill="#63b8ff" stroke="#63b8ff" points="852.73,-290.69 862.3,-286.14 851.98,-283.73 852.73,-290.69"/>
</a>
</g>
</g>
<!-- Node14 -->
<g id="Node000014" class="node">
<title>Node14</title>
<g id="a_Node000014"><a xlink:href="Game_8cpp.html#a693de7d8b89fe291aafea86bc64a0a2e" target="_top" xlink:title=" ">
<polygon fill="white" stroke="#666666" points="956,-253 876,-253 876,-234 956,-234 956,-253"/>
<text text-anchor="middle" x="916" y="-241" font-family="Helvetica,sans-Serif" font-size="10.00">CM_GetActor</text>
</a>
</g>
</g>
<!-- Node13&#45;&gt;Node14 -->
<g id="edge13_Node000013_Node000014" class="edge">
<title>Node13&#45;&gt;Node14</title>
<g id="a_edge13_Node000013_Node000014"><a xlink:title=" ">
<path fill="none" stroke="#63b8ff" d="M799.58,-215.54C821.4,-220.83 845.6,-226.69 866.17,-231.67"/>
<polygon fill="#63b8ff" stroke="#63b8ff" points="865.41,-235.09 875.96,-234.04 867.06,-228.29 865.41,-235.09"/>
</a>
</g>
</g>
<!-- Node15 -->
<g id="Node000015" class="node">
<title>Node15</title>
<g id="a_Node000015"><a xlink:href="code__80005FD0_8c.html#ad301b978cdd3c4cc190b10be050d51d8" target="_top" xlink:title=" ">
<polygon fill="white" stroke="#666666" points="989,-215.5 843,-215.5 843,-185.5 989,-185.5 989,-215.5"/>
<text text-anchor="start" x="851" y="-203.5" font-family="Helvetica,sans-Serif" font-size="10.00">delete_actor_in_unexpired</text>
<text text-anchor="middle" x="916" y="-192.5" font-family="Helvetica,sans-Serif" font-size="10.00">_actor_list</text>
</a>
</g>
</g>
<!-- Node13&#45;&gt;Node15 -->
<g id="edge14_Node000013_Node000015" class="edge">
<title>Node13&#45;&gt;Node15</title>
<g id="a_edge14_Node000013_Node000015"><a xlink:title=" ">
<path fill="none" stroke="#63b8ff" d="M802.59,-200.5C812.38,-200.5 822.59,-200.5 832.69,-200.5"/>
<polygon fill="#63b8ff" stroke="#63b8ff" points="832.73,-204 842.73,-200.5 832.73,-197 832.73,-204"/>
</a>
</g>
</g>
<!-- Node16 -->
<g id="Node000016" class="node">
<title>Node16</title>
<g id="a_Node000016"><a xlink:href="actors_8c.html#a694ec6ef7548b8618aeb35c038d3a9b9" target="_top" xlink:title=" ">
<polygon fill="white" stroke="#666666" points="957.5,-167 874.5,-167 874.5,-148 957.5,-148 957.5,-167"/>
<text text-anchor="middle" x="916" y="-155" font-family="Helvetica,sans-Serif" font-size="10.00">destroy_actor</text>
</a>
</g>
</g>
<!-- Node13&#45;&gt;Node16 -->
<g id="edge15_Node000013_Node000016" class="edge">
<title>Node13&#45;&gt;Node16</title>
<g id="a_edge15_Node000013_Node000016"><a xlink:title=" ">
<path fill="none" stroke="#63b8ff" d="M799.58,-185.46C821.32,-180.2 845.41,-174.36 865.93,-169.39"/>
<polygon fill="#63b8ff" stroke="#63b8ff" points="866.8,-172.78 875.69,-167.02 865.15,-165.98 866.8,-172.78"/>
</a>
</g>
</g>
<!-- Node17 -->
<g id="Node000017" class="node">
<title>Node17</title>
<g id="a_Node000017"><a xlink:href="actors_8c.html#a12dc3ccac4c7d8569eadac0af4fd6f9f" target="_top" xlink:title=" ">
<polygon fill="white" stroke="#666666" points="1183,-167 1025,-167 1025,-148 1183,-148 1183,-167"/>
<text text-anchor="middle" x="1104" y="-155" font-family="Helvetica,sans-Serif" font-size="10.00">play_sound_before_despawn</text>
</a>
</g>
</g>
<!-- Node16&#45;&gt;Node17 -->
<g id="edge16_Node000016_Node000017" class="edge">
<title>Node16&#45;&gt;Node17</title>
<g id="a_edge16_Node000016_Node000017"><a xlink:title=" ">
<path fill="none" stroke="#63b8ff" d="M957.82,-157.5C974.65,-157.5 994.86,-157.5 1014.77,-157.5"/>
<polygon fill="#63b8ff" stroke="#63b8ff" points="1014.82,-161 1024.82,-157.5 1014.82,-154 1014.82,-161"/>
</a>
</g>
</g>
<!-- Node18 -->
<g id="Node000018" class="node">
<title>Node18</title>
<g id="a_Node000018"><a xlink:href="external_8c.html#ae72057869772019e4464c87d4e16c682" target="_top" xlink:title=" ">
<polygon fill="white" stroke="#666666" points="1311,-167 1219,-167 1219,-148 1311,-148 1311,-167"/>
<text text-anchor="middle" x="1265" y="-155" font-family="Helvetica,sans-Serif" font-size="10.00">func_800C99E0</text>
</a>
</g>
</g>
<!-- Node17&#45;&gt;Node18 -->
<g id="edge17_Node000017_Node000018" class="edge">
<title>Node17&#45;&gt;Node18</title>
<g id="a_edge17_Node000017_Node000018"><a xlink:title=" ">
<path fill="none" stroke="#63b8ff" d="M1183.1,-157.5C1191.72,-157.5 1200.35,-157.5 1208.61,-157.5"/>
<polygon fill="#63b8ff" stroke="#63b8ff" points="1208.83,-161 1218.83,-157.5 1208.83,-154 1208.83,-161"/>
</a>
</g>
</g>
<!-- Node19 -->
<g id="Node000019" class="node">
<title>Node19</title>
<g id="a_Node000019"><a xlink:href="external_8c.html#aeb87c527482a244173df36a1f3d4f446" target="_top" xlink:title=" ">
<polygon fill="white" stroke="#666666" points="1439,-186 1347,-186 1347,-167 1439,-167 1439,-186"/>
<text text-anchor="middle" x="1393" y="-174" font-family="Helvetica,sans-Serif" font-size="10.00">func_800C21E8</text>
</a>
</g>
</g>
<!-- Node18&#45;&gt;Node19 -->
<g id="edge18_Node000018_Node000019" class="edge">
<title>Node18&#45;&gt;Node19</title>
<g id="a_edge18_Node000018_Node000019"><a xlink:title=" ">
<path fill="none" stroke="#63b8ff" d="M1311.13,-164.31C1319.46,-165.56 1328.23,-166.88 1336.81,-168.18"/>
<polygon fill="#63b8ff" stroke="#63b8ff" points="1336.35,-171.65 1346.76,-169.68 1337.39,-164.73 1336.35,-171.65"/>
</a>
</g>
</g>
<!-- Node20 -->
<g id="Node000020" class="node">
<title>Node20</title>
<g id="a_Node000020"><a xlink:href="external_8c.html#a028d40421b90c38f68ebfd5acc626f2e" target="_top" xlink:title=" ">
<polygon fill="white" stroke="#666666" points="1439,-149 1347,-149 1347,-130 1439,-130 1439,-149"/>
<text text-anchor="middle" x="1393" y="-137" font-family="Helvetica,sans-Serif" font-size="10.00">func_800C5578</text>
</a>
</g>
</g>
<!-- Node18&#45;&gt;Node20 -->
<g id="edge19_Node000018_Node000020" class="edge">
<title>Node18&#45;&gt;Node20</title>
<g id="a_edge19_Node000018_Node000020"><a xlink:title=" ">
<path fill="none" stroke="#63b8ff" d="M1311.13,-151.05C1319.46,-149.86 1328.23,-148.61 1336.81,-147.38"/>
<polygon fill="#63b8ff" stroke="#63b8ff" points="1337.35,-150.84 1346.76,-145.96 1336.36,-143.91 1337.35,-150.84"/>
</a>
</g>
</g>
<!-- Node21 -->
<g id="Node000021" class="node">
<title>Node21</title>
<g id="a_Node000021"><a xlink:href="external_8c.html#ac0fb767de7e14a03f1bcfa53f0abd23b" target="_top" xlink:title=" ">
<polygon fill="white" stroke="#666666" points="1615,-186 1475,-186 1475,-167 1615,-167 1615,-186"/>
<text text-anchor="middle" x="1545" y="-174" font-family="Helvetica,sans-Serif" font-size="10.00">delete_sound_from_bank</text>
</a>
</g>
</g>
<!-- Node20&#45;&gt;Node21 -->
<g id="edge20_Node000020_Node000021" class="edge">
<title>Node20&#45;&gt;Node21</title>
<g id="a_edge20_Node000020_Node000021"><a xlink:title=" ">
<path fill="none" stroke="#63b8ff" d="M1432.63,-149.03C1451.8,-153.76 1475.16,-159.52 1495.52,-164.54"/>
<polygon fill="#63b8ff" stroke="#63b8ff" points="1494.69,-167.94 1505.24,-166.94 1496.37,-161.15 1494.69,-167.94"/>
</a>
</g>
</g>
<!-- Node23 -->
<g id="Node000023" class="node">
<title>Node23</title>
<g id="a_Node000023"><a xlink:href="external_8c.html#ab83bd36e63f0f1baddcb2482b5ad31b0" target="_top" xlink:title=" ">
<polygon fill="white" stroke="#666666" points="1591.5,-149 1498.5,-149 1498.5,-130 1591.5,-130 1591.5,-149"/>
<text text-anchor="middle" x="1545" y="-137" font-family="Helvetica,sans-Serif" font-size="10.00">func_800C41CC</text>
</a>
</g>
</g>
<!-- Node20&#45;&gt;Node23 -->
<g id="edge22_Node000020_Node000023" class="edge">
<title>Node20&#45;&gt;Node23</title>
<g id="a_edge22_Node000020_Node000023"><a xlink:title=" ">
<path fill="none" stroke="#63b8ff" d="M1439,-139.5C1454.37,-139.5 1471.74,-139.5 1487.86,-139.5"/>
<polygon fill="#63b8ff" stroke="#63b8ff" points="1488.25,-143 1498.25,-139.5 1488.25,-136 1488.25,-143"/>
</a>
</g>
</g>
<!-- Node24 -->
<g id="Node000024" class="node">
<title>Node24</title>
<g id="a_Node000024"><a xlink:href="port__eu_8c.html#aa89dfaecca46c6d071f08c1898d1f7c9" target="_top" xlink:title=" ">
<polygon fill="white" stroke="#666666" points="1591.5,-112 1498.5,-112 1498.5,-93 1591.5,-93 1591.5,-112"/>
<text text-anchor="middle" x="1545" y="-100" font-family="Helvetica,sans-Serif" font-size="10.00">func_800CBBE8</text>
</a>
</g>
</g>
<!-- Node20&#45;&gt;Node24 -->
<g id="edge23_Node000020_Node000024" class="edge">
<title>Node20&#45;&gt;Node24</title>
<g id="a_edge23_Node000020_Node000024"><a xlink:title=" ">
<path fill="none" stroke="#63b8ff" d="M1432.63,-129.97C1451.8,-125.24 1475.16,-119.48 1495.52,-114.46"/>
<polygon fill="#63b8ff" stroke="#63b8ff" points="1496.37,-117.85 1505.24,-112.06 1494.69,-111.06 1496.37,-117.85"/>
</a>
</g>
</g>
<!-- Node22 -->
<g id="Node000022" class="node">
<title>Node22</title>
<g id="a_Node000022"><a xlink:href="external_8c.html#a358ac55e8ab5262dcae8037334be06d7" target="_top" xlink:title=" ">
<polygon fill="white" stroke="#666666" points="1743.5,-186 1651.5,-186 1651.5,-167 1743.5,-167 1743.5,-186"/>
<text text-anchor="middle" x="1697.5" y="-174" font-family="Helvetica,sans-Serif" font-size="10.00">func_800C40F0</text>
</a>
</g>
</g>
<!-- Node21&#45;&gt;Node22 -->
<g id="edge21_Node000021_Node000022" class="edge">
<title>Node21&#45;&gt;Node22</title>
<g id="a_edge21_Node000021_Node000022"><a xlink:title=" ">
<path fill="none" stroke="#63b8ff" d="M1615.08,-176.5C1623.87,-176.5 1632.78,-176.5 1641.31,-176.5"/>
<polygon fill="#63b8ff" stroke="#63b8ff" points="1641.5,-180 1651.5,-176.5 1641.5,-173 1641.5,-180"/>
</a>
</g>
</g>
<!-- Node25 -->
<g id="Node000025" class="node">
<title>Node25</title>
<g id="a_Node000025"><a xlink:href="port__eu_8c.html#af361a20d2e08f30c53a237ca481ff734" target="_top" xlink:title=" ">
<polygon fill="white" stroke="#666666" points="1744,-112 1651,-112 1651,-93 1744,-93 1744,-112"/>
<text text-anchor="middle" x="1697.5" y="-100" font-family="Helvetica,sans-Serif" font-size="10.00">func_800CBB48</text>
</a>
</g>
</g>
<!-- Node24&#45;&gt;Node25 -->
<g id="edge24_Node000024_Node000025" class="edge">
<title>Node24&#45;&gt;Node25</title>
<g id="a_edge24_Node000024_Node000025"><a xlink:title=" ">
<path fill="none" stroke="#63b8ff" d="M1591.56,-102.5C1606.96,-102.5 1624.34,-102.5 1640.46,-102.5"/>
<polygon fill="#63b8ff" stroke="#63b8ff" points="1640.83,-106 1650.83,-102.5 1640.83,-99 1640.83,-106"/>
</a>
</g>
</g>
<!-- Node27 -->
<g id="Node000027" class="node">
<title>Node27</title>
<g id="a_Node000027"><a xlink:href="math__util_8c.html#a79fd07a0971ec96a3ff0801963a2fa7f" target="_top" xlink:title=" ">
<polygon fill="white" stroke="#666666" points="948,-130 884,-130 884,-111 948,-111 948,-130"/>
<text text-anchor="middle" x="916" y="-118" font-family="Helvetica,sans-Serif" font-size="10.00">vec3f_set</text>
</a>
</g>
</g>
<!-- Node26&#45;&gt;Node27 -->
<g id="edge26_Node000026_Node000027" class="edge">
<title>Node26&#45;&gt;Node27</title>
<g id="a_edge26_Node000026_Node000027"><a xlink:title=" ">
<path fill="none" stroke="#63b8ff" d="M783.21,-147.97C811.26,-142.12 846.89,-134.7 874.02,-129.04"/>
<polygon fill="#63b8ff" stroke="#63b8ff" points="874.9,-132.43 883.97,-126.97 873.47,-125.58 874.9,-132.43"/>
</a>
</g>
</g>
</g>
</svg>

<g id="navigator" transform="translate(0 0)" fill="#404254">
  <rect fill="#f2f5e9" fill-opacity="0.5" stroke="#606060" stroke-width=".5" x="0" y="0" width="60" height="60"/>
  <use id="zoomplus" xlink:href="#zoomPlus" x="17" y="9" onmousedown="handleZoom(evt,'in')"/>
  <use id="zoomminus" xlink:href="#zoomMin" x="42" y="9" onmousedown="handleZoom(evt,'out')"/>
  <use id="reset" xlink:href="#resetDef" x="30" y="36" onmousedown="handleReset()"/>
   <use id="arrowup" xlink:href="#arrowUp" x="0" y="0" onmousedown="handlePan(0,-1)"/>
  <use id="arrowright" xlink:href="#arrowRight" x="0" y="0" onmousedown="handlePan(1,0)"/>
  <use id="arrowdown" xlink:href="#arrowDown" x="0" y="0" onmousedown="handlePan(0,1)"/>
  <use id="arrowleft" xlink:href="#arrowLeft" x="0" y="0" onmousedown="handlePan(-1,0)"/>
</g>
<svg viewBox="0 0 15 15" width="100%" height="30px" preserveAspectRatio="xMaxYMin meet">
 <g id="arrow_out" transform="scale(0.3 0.3)">
  <a xlink:href="actors__extended_8c_ad9d19faf571dd050a8b4edb74a42058a_cgraph_org.svg" target="_base">
   <rect id="button" ry="5" rx="5" y="6" x="6" height="38" width="38"
        fill="#f2f5e9" fill-opacity="0.5" stroke="#606060" stroke-width="1.0"/>
   <path id="arrow"
     d="M 11.500037,31.436501 C 11.940474,20.09759 22.043105,11.32322 32.158766,21.979434 L 37.068811,17.246167 C 37.068811,17.246167 37.088388,32 37.088388,32 L 22.160133,31.978069 C 22.160133,31.978069 26.997745,27.140456 26.997745,27.140456 C 18.528582,18.264221 13.291696,25.230495 11.500037,31.436501 z"
     style="fill:#404040;"/>
  </a>
 </g>
</svg>

<style type='text/css'>
<![CDATA[
[data-mouse-over-selected='false'] { opacity: 0.7; }
[data-mouse-over-selected='true']  { opacity: 1.0; }
]]>
</style>
<script type="application/ecmascript"><![CDATA[
document.addEventListener('DOMContentLoaded', (event) => {
  highlightEdges();
  highlightAdjacentNodes();
});
]]></script>
</svg>
