<?xml version="1.0" encoding="UTF-8" standalone="no"?>
<!DOCTYPE svg PUBLIC "-//W3C//DTD SVG 1.1//EN"
 "http://www.w3.org/Graphics/SVG/1.1/DTD/svg11.dtd">
<!-- Generated by graphviz version 2.43.0 (0)
 -->
<!-- Title: func_802B2914 Pages: 1 -->
<!--zoomable 446 -->

<svg id="main" version="1.1" xmlns="http://www.w3.org/2000/svg" xmlns:xlink="http://www.w3.org/1999/xlink" xml:space="preserve" onload="init(evt)">

<style type="text/css"><![CDATA[
.node, .edge {opacity: 0.7;}
.node.selected, .edge.selected {opacity: 1;}
.edge:hover path { stroke: red; }
.edge:hover polygon { stroke: red; fill: red; }
]]></style>

<defs>
  <circle id="rim" cx="0" cy="0" r="7"/>
  <circle id="rim2" cx="0" cy="0" r="3.5"/>
  <g id="zoomPlus">
    <use xlink:href="#rim" fill="#404040"><set attributeName="fill" to="#808080" begin="zoomplus.mouseover" end="zoomplus.mouseout"/></use>
    <path d="M-4,0h8M0,-4v8" fill="none" stroke="white" stroke-width="1.5" pointer-events="none"/>
  </g>
  <g id="zoomMin">
    <use xlink:href="#rim" fill="#404040"><set attributeName="fill" to="#808080" begin="zoomminus.mouseover" end="zoomminus.mouseout"/></use>
    <path d="M-4,0h8" fill="none" stroke="white" stroke-width="1.5" pointer-events="none"/>
  </g>
  <g id="arrowUp" transform="translate(30 24)">
    <use xlink:href="#rim"/>
    <path pointer-events="none" fill="none" stroke="white" stroke-width="1.5" d="M0,-3.0v7 M-2.5,-0.5L0,-3.0L2.5,-0.5"/>
  </g>
  <g id="arrowRight" transform="rotate(90) translate(36 -43)">
    <use xlink:href="#rim"/>
    <path pointer-events="none" fill="none" stroke="white" stroke-width="1.5" d="M0,-3.0v7 M-2.5,-0.5L0,-3.0L2.5,-0.5"/>
  </g>
  <g id="arrowDown" transform="rotate(180) translate(-30 -48)">
    <use xlink:href="#rim"/>
    <path pointer-events="none" fill="none" stroke="white" stroke-width="1.5" d="M0,-3.0v7 M-2.5,-0.5L0,-3.0L2.5,-0.5"/>
  </g>
  <g id="arrowLeft" transform="rotate(270) translate(-36 17)">
    <use xlink:href="#rim"/>
    <path pointer-events="none" fill="none" stroke="white" stroke-width="1.5" d="M0,-3.0v7 M-2.5,-0.5L0,-3.0L2.5,-0.5"/>
  </g>
  <g id="resetDef">
    <use xlink:href="#rim2" fill="#404040"><set attributeName="fill" to="#808080" begin="reset.mouseover" end="reset.mouseout"/></use>
  </g>
</defs>
<script type="application/ecmascript">
var viewWidth = 1581;
var viewHeight = 446;
var sectionId = 'dynsection-17';
</script>
<script type="application/ecmascript" xlink:href="svg.min.js"/>
<svg id="graph" class="graph">
<g id="viewport">
<title>func_802B2914</title>
<!-- Node1 -->
<g id="Node000001" class="node">
<title>Node1</title>
<g id="a_Node000001"><a xlink:title=" ">
<polygon fill="#999999" stroke="#666666" points="92,-111 0,-111 0,-92 92,-92 92,-111"/>
<text text-anchor="middle" x="46" y="-99" font-family="Helvetica,sans-Serif" font-size="10.00">func_802B2914</text>
</a>
</g>
</g>
<!-- Node2 -->
<g id="Node000002" class="node">
<title>Node2</title>
<g id="a_Node000002"><a xlink:href="collision_8c.html#a79293dbdae52d290fdaf8dde9d5244ca" target="_top" xlink:title=" ">
<polygon fill="white" stroke="#666666" points="266.5,-296 141.5,-296 141.5,-277 266.5,-277 266.5,-296"/>
<text text-anchor="middle" x="204" y="-284" font-family="Helvetica,sans-Serif" font-size="10.00">actor_terrain_collision</text>
</a>
</g>
</g>
<!-- Node1&#45;&gt;Node2 -->
<g id="edge1_Node000001_Node000002" class="edge">
<title>Node1&#45;&gt;Node2</title>
<g id="a_edge1_Node000001_Node000002"><a xlink:title=" ">
<path fill="none" stroke="#63b8ff" d="M55.17,-111.19C80.23,-140.91 156.28,-231.09 188.42,-269.21"/>
<polygon fill="#63b8ff" stroke="#63b8ff" points="185.79,-271.52 194.91,-276.91 191.14,-267.01 185.79,-271.52"/>
</a>
</g>
</g>
<!-- Node6 -->
<g id="Node000006" class="node">
<title>Node6</title>
<g id="a_Node000006"><a xlink:href="actors_8c.html#a91fb2e4e37e7c72fea918fe2c1bb4eaf" target="_top" xlink:title=" ">
<polygon fill="white" stroke="#666666" points="274,-167 134,-167 134,-148 274,-148 274,-167"/>
<text text-anchor="middle" x="204" y="-155" font-family="Helvetica,sans-Serif" font-size="10.00">add_actor_to_empty_slot</text>
</a>
</g>
</g>
<!-- Node1&#45;&gt;Node6 -->
<g id="edge5_Node000001_Node000006" class="edge">
<title>Node1&#45;&gt;Node6</title>
<g id="a_edge5_Node000001_Node000006"><a xlink:title=" ">
<path fill="none" stroke="#63b8ff" d="M65.59,-111.16C81.75,-119.27 105.98,-130.75 128,-138.5 135.05,-140.98 142.57,-143.28 150.04,-145.36"/>
<polygon fill="#63b8ff" stroke="#63b8ff" points="149.2,-148.76 159.77,-147.96 151.01,-142 149.2,-148.76"/>
</a>
</g>
</g>
<!-- Node33 -->
<g id="Node000033" class="node">
<title>Node33</title>
<g id="a_Node000033"><a xlink:href="Game_8cpp.html#a04c2e1c30af14b6e8354d7a9be00e39c" target="_top" xlink:title=" ">
<polygon fill="white" stroke="#666666" points="259,-130 149,-130 149,-111 259,-111 259,-130"/>
<text text-anchor="middle" x="204" y="-118" font-family="Helvetica,sans-Serif" font-size="10.00">CM_FindActorIndex</text>
</a>
</g>
</g>
<!-- Node1&#45;&gt;Node33 -->
<g id="edge32_Node000001_Node000033" class="edge">
<title>Node1&#45;&gt;Node33</title>
<g id="a_edge32_Node000001_Node000033"><a xlink:title=" ">
<path fill="none" stroke="#63b8ff" d="M92.12,-107C106.66,-108.77 123.07,-110.77 138.72,-112.67"/>
<polygon fill="#63b8ff" stroke="#63b8ff" points="138.51,-116.17 148.86,-113.91 139.36,-109.22 138.51,-116.17"/>
</a>
</g>
</g>
<!-- Node34 -->
<g id="Node000034" class="node">
<title>Node34</title>
<g id="a_Node000034"><a xlink:href="external_8c.html#a2be9efc97a92e19d02aaee90d676acc1" target="_top" xlink:title=" ">
<polygon fill="white" stroke="#666666" points="250,-93 158,-93 158,-74 250,-74 250,-93"/>
<text text-anchor="middle" x="204" y="-81" font-family="Helvetica,sans-Serif" font-size="10.00">func_800C9060</text>
</a>
</g>
</g>
<!-- Node1&#45;&gt;Node34 -->
<g id="edge33_Node000001_Node000034" class="edge">
<title>Node1&#45;&gt;Node34</title>
<g id="a_edge33_Node000001_Node000034"><a xlink:title=" ">
<path fill="none" stroke="#63b8ff" d="M92.12,-96.29C109.58,-94.28 129.74,-91.95 148.04,-89.84"/>
<polygon fill="#63b8ff" stroke="#63b8ff" points="148.45,-93.32 157.98,-88.69 147.64,-86.36 148.45,-93.32"/>
</a>
</g>
</g>
<!-- Node36 -->
<g id="Node000036" class="node">
<title>Node36</title>
<g id="a_Node000036"><a xlink:href="actors__extended_8c.html#a78e98c146f1f4dd6e3608016486172a4" target="_top" xlink:title=" ">
<polygon fill="white" stroke="#666666" points="250,-56 158,-56 158,-37 250,-37 250,-56"/>
<text text-anchor="middle" x="204" y="-44" font-family="Helvetica,sans-Serif" font-size="10.00">func_802B4E30</text>
</a>
</g>
</g>
<!-- Node1&#45;&gt;Node36 -->
<g id="edge35_Node000001_Node000036" class="edge">
<title>Node1&#45;&gt;Node36</title>
<g id="a_edge35_Node000001_Node000036"><a xlink:title=" ">
<path fill="none" stroke="#63b8ff" d="M65.24,-91.93C81.39,-83.77 105.78,-72.16 128,-64.5 134.38,-62.3 141.15,-60.27 147.92,-58.43"/>
<polygon fill="#63b8ff" stroke="#63b8ff" points="148.98,-61.77 157.78,-55.86 147.22,-54.99 148.98,-61.77"/>
</a>
</g>
</g>
<!-- Node37 -->
<g id="Node000037" class="node">
<title>Node37</title>
<g id="a_Node000037"><a xlink:href="math__util_8c.html#ad5bb0138c68b50f119d3cb7966f522b7" target="_top" xlink:title=" ">
<polygon fill="white" stroke="#666666" points="280,-19 128,-19 128,0 280,0 280,-19"/>
<text text-anchor="middle" x="204" y="-7" font-family="Helvetica,sans-Serif" font-size="10.00">mtxf_translate_vec3f_mat3</text>
</a>
</g>
</g>
<!-- Node1&#45;&gt;Node37 -->
<g id="edge36_Node000001_Node000037" class="edge">
<title>Node1&#45;&gt;Node37</title>
<g id="a_edge36_Node000001_Node000037"><a xlink:title=" ">
<path fill="none" stroke="#63b8ff" d="M54.62,-91.91C67.82,-75.99 96.54,-44.2 128,-27.5 131.49,-25.65 135.18,-23.98 138.96,-22.48"/>
<polygon fill="#63b8ff" stroke="#63b8ff" points="140.27,-25.74 148.53,-19.1 137.94,-19.13 140.27,-25.74"/>
</a>
</g>
</g>
<!-- Node3 -->
<g id="Node000003" class="node">
<title>Node3</title>
<g id="a_Node000003"><a xlink:href="collision_8c.html#a6ea8b20f38e63c1b1157923085c8e306" target="_top" xlink:title=" ">
<polygon fill="white" stroke="#666666" points="459,-363.5 316,-363.5 316,-333.5 459,-333.5 459,-363.5"/>
<text text-anchor="start" x="324" y="-351.5" font-family="Helvetica,sans-Serif" font-size="10.00">is_colliding_with_drivable</text>
<text text-anchor="middle" x="387.5" y="-340.5" font-family="Helvetica,sans-Serif" font-size="10.00">_surface</text>
</a>
</g>
</g>
<!-- Node2&#45;&gt;Node3 -->
<g id="edge2_Node000002_Node000003" class="edge">
<title>Node2&#45;&gt;Node3</title>
<g id="a_edge2_Node000002_Node000003"><a xlink:title=" ">
<path fill="none" stroke="#63b8ff" d="M232.82,-296.04C255.27,-303.73 287.66,-314.83 316,-324.5 321.28,-326.3 326.78,-328.18 332.27,-330.05"/>
<polygon fill="#63b8ff" stroke="#63b8ff" points="331.52,-333.49 342.12,-333.4 333.78,-326.87 331.52,-333.49"/>
</a>
</g>
</g>
<!-- Node4 -->
<g id="Node000004" class="node">
<title>Node4</title>
<g id="a_Node000004"><a xlink:href="collision_8c.html#a94970a4a6ca911f74e59114decd74557" target="_top" xlink:title=" ">
<polygon fill="white" stroke="#666666" points="452,-315 323,-315 323,-296 452,-296 452,-315"/>
<text text-anchor="middle" x="387.5" y="-303" font-family="Helvetica,sans-Serif" font-size="10.00">is_colliding_with_wall1</text>
</a>
</g>
</g>
<!-- Node2&#45;&gt;Node4 -->
<g id="edge3_Node000002_Node000004" class="edge">
<title>Node2&#45;&gt;Node4</title>
<g id="a_edge3_Node000002_Node000004"><a xlink:title=" ">
<path fill="none" stroke="#63b8ff" d="M266.7,-292.96C281.54,-294.51 297.53,-296.19 312.85,-297.79"/>
<polygon fill="#63b8ff" stroke="#63b8ff" points="312.49,-301.27 322.8,-298.83 313.22,-294.31 312.49,-301.27"/>
</a>
</g>
</g>
<!-- Node5 -->
<g id="Node000005" class="node">
<title>Node5</title>
<g id="a_Node000005"><a xlink:href="collision_8c.html#a23443870e0d3a6797de707a89ded7ef0" target="_top" xlink:title=" ">
<polygon fill="white" stroke="#666666" points="452,-278 323,-278 323,-259 452,-259 452,-278"/>
<text text-anchor="middle" x="387.5" y="-266" font-family="Helvetica,sans-Serif" font-size="10.00">is_colliding_with_wall2</text>
</a>
</g>
</g>
<!-- Node2&#45;&gt;Node5 -->
<g id="edge4_Node000002_Node000005" class="edge">
<title>Node2&#45;&gt;Node5</title>
<g id="a_edge4_Node000002_Node000005"><a xlink:title=" ">
<path fill="none" stroke="#63b8ff" d="M266.7,-280.38C281.54,-278.91 297.53,-277.32 312.85,-275.8"/>
<polygon fill="#63b8ff" stroke="#63b8ff" points="313.2,-279.29 322.8,-274.82 312.51,-272.32 313.2,-279.29"/>
</a>
</g>
</g>
<!-- Node7 -->
<g id="Node000007" class="node">
<title>Node7</title>
<g id="a_Node000007"><a xlink:href="actors_8c.html#a39c023177b5a7686cdd1fc65b8b953e1" target="_top" xlink:title=" ">
<polygon fill="white" stroke="#666666" points="418.5,-241 356.5,-241 356.5,-222 418.5,-222 418.5,-241"/>
<text text-anchor="middle" x="387.5" y="-229" font-family="Helvetica,sans-Serif" font-size="10.00">actor_init</text>
</a>
</g>
</g>
<!-- Node6&#45;&gt;Node7 -->
<g id="edge6_Node000006_Node000007" class="edge">
<title>Node6&#45;&gt;Node7</title>
<g id="a_edge6_Node000006_Node000007"><a xlink:title=" ">
<path fill="none" stroke="#63b8ff" d="M221.83,-167.15C243.19,-179.08 281.4,-199.41 316,-212.5 325.69,-216.17 336.38,-219.43 346.45,-222.17"/>
<polygon fill="#63b8ff" stroke="#63b8ff" points="345.68,-225.59 356.24,-224.74 347.46,-218.82 345.68,-225.59"/>
</a>
</g>
</g>
<!-- Node29 -->
<g id="Node000029" class="node">
<title>Node29</title>
<g id="a_Node000029"><a xlink:href="Game_8cpp.html#a42f23077aaa52cb3ea5c7803b7dd6816" target="_top" xlink:title=" ">
<polygon fill="white" stroke="#666666" points="440.5,-204 334.5,-204 334.5,-185 440.5,-185 440.5,-204"/>
<text text-anchor="middle" x="387.5" y="-192" font-family="Helvetica,sans-Serif" font-size="10.00">CM_AddBaseActor</text>
</a>
</g>
</g>
<!-- Node6&#45;&gt;Node29 -->
<g id="edge28_Node000006_Node000029" class="edge">
<title>Node6&#45;&gt;Node29</title>
<g id="a_edge28_Node000006_Node000029"><a xlink:title=" ">
<path fill="none" stroke="#63b8ff" d="M251.74,-167.03C275.47,-171.86 304.49,-177.78 329.51,-182.88"/>
<polygon fill="#63b8ff" stroke="#63b8ff" points="329.1,-186.37 339.6,-184.94 330.5,-179.51 329.1,-186.37"/>
</a>
</g>
</g>
<!-- Node30 -->
<g id="Node000030" class="node">
<title>Node30</title>
<g id="a_Node000030"><a xlink:href="Game_8cpp.html#aab23ecf7032de4618ff75c395d8fccf1" target="_top" xlink:title=" ">
<polygon fill="white" stroke="#666666" points="445.5,-167 329.5,-167 329.5,-148 445.5,-148 445.5,-167"/>
<text text-anchor="middle" x="387.5" y="-155" font-family="Helvetica,sans-Serif" font-size="10.00">CM_AddEditorObject</text>
</a>
</g>
</g>
<!-- Node6&#45;&gt;Node30 -->
<g id="edge29_Node000006_Node000030" class="edge">
<title>Node6&#45;&gt;Node30</title>
<g id="a_edge29_Node000006_Node000030"><a xlink:title=" ">
<path fill="none" stroke="#63b8ff" d="M274.14,-157.5C288.95,-157.5 304.58,-157.5 319.32,-157.5"/>
<polygon fill="#63b8ff" stroke="#63b8ff" points="319.36,-161 329.36,-157.5 319.36,-154 319.36,-161"/>
</a>
</g>
</g>
<!-- Node31 -->
<g id="Node000031" class="node">
<title>Node31</title>
<g id="a_Node000031"><a xlink:href="Game_8cpp.html#a0841ffe9a66e95aca42438b9d8ffc3d3" target="_top" xlink:title=" ">
<polygon fill="white" stroke="#666666" points="438,-130 337,-130 337,-111 438,-111 438,-130"/>
<text text-anchor="middle" x="387.5" y="-118" font-family="Helvetica,sans-Serif" font-size="10.00">CM_GetActorSize</text>
</a>
</g>
</g>
<!-- Node6&#45;&gt;Node31 -->
<g id="edge30_Node000006_Node000031" class="edge">
<title>Node6&#45;&gt;Node31</title>
<g id="a_edge30_Node000006_Node000031"><a xlink:title=" ">
<path fill="none" stroke="#63b8ff" d="M251.74,-147.97C275.47,-143.14 304.49,-137.22 329.51,-132.12"/>
<polygon fill="#63b8ff" stroke="#63b8ff" points="330.5,-135.49 339.6,-130.06 329.1,-128.63 330.5,-135.49"/>
</a>
</g>
</g>
<!-- Node32 -->
<g id="Node000032" class="node">
<title>Node32</title>
<g id="a_Node000032"><a xlink:href="actors_8c.html#a3d238d4f049ffbc555cb8a4dc93c9975" target="_top" xlink:title=" ">
<polygon fill="white" stroke="#666666" points="435,-93 340,-93 340,-74 435,-74 435,-93"/>
<text text-anchor="middle" x="387.5" y="-81" font-family="Helvetica,sans-Serif" font-size="10.00">get_actor_name</text>
</a>
</g>
</g>
<!-- Node6&#45;&gt;Node32 -->
<g id="edge31_Node000006_Node000032" class="edge">
<title>Node6&#45;&gt;Node32</title>
<g id="a_edge31_Node000006_Node000032"><a xlink:title=" ">
<path fill="none" stroke="#63b8ff" d="M258.09,-147.97C265.71,-145.5 273.25,-142.4 280,-138.5 299.87,-127.03 296.14,-112.99 316,-101.5 320.46,-98.92 325.3,-96.7 330.27,-94.8"/>
<polygon fill="#63b8ff" stroke="#63b8ff" points="331.59,-98.04 339.94,-91.52 329.34,-91.42 331.59,-98.04"/>
</a>
</g>
</g>
<!-- Node8 -->
<g id="Node000008" class="node">
<title>Node8</title>
<g id="a_Node000008"><a xlink:href="collision_8c.html#a37aa55b3768d001533ad75e7f1b8388a" target="_top" xlink:title=" ">
<polygon fill="white" stroke="#666666" points="636,-382 495,-382 495,-363 636,-363 636,-382"/>
<text text-anchor="middle" x="565.5" y="-370" font-family="Helvetica,sans-Serif" font-size="10.00">check_bounding_collision</text>
</a>
</g>
</g>
<!-- Node7&#45;&gt;Node8 -->
<g id="edge7_Node000007_Node000008" class="edge">
<title>Node7&#45;&gt;Node8</title>
<g id="a_edge7_Node000007_Node000008"><a xlink:title=" ">
<path fill="none" stroke="#63b8ff" d="M418.84,-234.6C432.04,-237.07 447.17,-241.52 459,-249.5 481.4,-264.61 477.72,-277.72 495,-298.5 511.93,-318.85 532.91,-340.79 547.37,-355.45"/>
<polygon fill="#63b8ff" stroke="#63b8ff" points="545.13,-358.17 554.66,-362.79 550.1,-353.23 545.13,-358.17"/>
</a>
</g>
</g>
<!-- Node12 -->
<g id="Node000012" class="node">
<title>Node12</title>
<g id="a_Node000012"><a xlink:href="actors_8c.html#a1a9bccb586242555a9123ebd4ab70f2a" target="_top" xlink:title=" ">
<polygon fill="white" stroke="#666666" points="631.5,-289.5 499.5,-289.5 499.5,-259.5 631.5,-259.5 631.5,-289.5"/>
<text text-anchor="start" x="507.5" y="-277.5" font-family="Helvetica,sans-Serif" font-size="10.00">cleanup_red_and_green</text>
<text text-anchor="middle" x="565.5" y="-266.5" font-family="Helvetica,sans-Serif" font-size="10.00">_shells</text>
</a>
</g>
</g>
<!-- Node7&#45;&gt;Node12 -->
<g id="edge11_Node000007_Node000012" class="edge">
<title>Node7&#45;&gt;Node12</title>
<g id="a_edge11_Node000007_Node000012"><a xlink:title=" ">
<path fill="none" stroke="#63b8ff" d="M418.76,-238.89C439.24,-243.9 467.19,-250.72 493.13,-257.06"/>
<polygon fill="#63b8ff" stroke="#63b8ff" points="492.42,-260.49 502.96,-259.47 494.08,-253.69 492.42,-260.49"/>
</a>
</g>
</g>
<!-- Node25 -->
<g id="Node000025" class="node">
<title>Node25</title>
<g id="a_Node000025"><a xlink:href="collision_8c.html#ad72fef3ffe32191d73b1822f512ebf3f" target="_top" xlink:title=" ">
<polygon fill="white" stroke="#666666" points="613,-241 518,-241 518,-222 613,-222 613,-241"/>
<text text-anchor="middle" x="565.5" y="-229" font-family="Helvetica,sans-Serif" font-size="10.00">func_802AAAAC</text>
</a>
</g>
</g>
<!-- Node7&#45;&gt;Node25 -->
<g id="edge24_Node000007_Node000025" class="edge">
<title>Node7&#45;&gt;Node25</title>
<g id="a_edge24_Node000007_Node000025"><a xlink:title=" ">
<path fill="none" stroke="#63b8ff" d="M418.76,-231.5C443.11,-231.5 478.03,-231.5 507.58,-231.5"/>
<polygon fill="#63b8ff" stroke="#63b8ff" points="507.78,-235 517.78,-231.5 507.78,-228 507.78,-235"/>
</a>
</g>
</g>
<!-- Node27 -->
<g id="Node000027" class="node">
<title>Node27</title>
<g id="a_Node000027"><a xlink:href="math__util_8c.html#af7b470ed76fce07b8042a47c96e5690b" target="_top" xlink:title=" ">
<polygon fill="white" stroke="#666666" points="619,-204 512,-204 512,-185 619,-185 619,-204"/>
<text text-anchor="middle" x="565.5" y="-192" font-family="Helvetica,sans-Serif" font-size="10.00">vec3f_copy_return</text>
</a>
</g>
</g>
<!-- Node7&#45;&gt;Node27 -->
<g id="edge26_Node000007_Node000027" class="edge">
<title>Node7&#45;&gt;Node27</title>
<g id="a_edge26_Node000007_Node000027"><a xlink:title=" ">
<path fill="none" stroke="#63b8ff" d="M418.76,-225.14C443.57,-219.92 479.35,-212.4 509.24,-206.12"/>
<polygon fill="#63b8ff" stroke="#63b8ff" points="510.07,-209.52 519.13,-204.04 508.63,-202.67 510.07,-209.52"/>
</a>
</g>
</g>
<!-- Node28 -->
<g id="Node000028" class="node">
<title>Node28</title>
<g id="a_Node000028"><a xlink:href="math__util_8c.html#a0e270ee67600c8c9c2f140c647d008a1" target="_top" xlink:title=" ">
<polygon fill="white" stroke="#666666" points="602.5,-167 528.5,-167 528.5,-148 602.5,-148 602.5,-167"/>
<text text-anchor="middle" x="565.5" y="-155" font-family="Helvetica,sans-Serif" font-size="10.00">vec3s_copy</text>
</a>
</g>
</g>
<!-- Node7&#45;&gt;Node28 -->
<g id="edge27_Node000007_Node000028" class="edge">
<title>Node7&#45;&gt;Node28</title>
<g id="a_edge27_Node000007_Node000028"><a xlink:title=" ">
<path fill="none" stroke="#63b8ff" d="M418.71,-227.05C431.73,-224.23 446.76,-219.69 459,-212.5 478.78,-200.88 475.16,-187.02 495,-175.5 502.2,-171.32 510.38,-168.09 518.53,-165.61"/>
<polygon fill="#63b8ff" stroke="#63b8ff" points="519.67,-168.93 528.4,-162.93 517.83,-162.17 519.67,-168.93"/>
</a>
</g>
</g>
<!-- Node9 -->
<g id="Node000009" class="node">
<title>Node9</title>
<g id="a_Node000009"><a xlink:href="collision_8c.html#ac312bf382cb40752f6b790a99e7cdcb6" target="_top" xlink:title=" ">
<polygon fill="white" stroke="#666666" points="799,-438 691,-438 691,-419 799,-419 799,-438"/>
<text text-anchor="middle" x="745" y="-426" font-family="Helvetica,sans-Serif" font-size="10.00">check_collision_yx</text>
</a>
</g>
</g>
<!-- Node8&#45;&gt;Node9 -->
<g id="edge8_Node000008_Node000009" class="edge">
<title>Node8&#45;&gt;Node9</title>
<g id="a_edge8_Node000008_Node000009"><a xlink:title=" ">
<path fill="none" stroke="#63b8ff" d="M590.99,-382.12C612.22,-390.26 643.88,-401.94 672,-410.5 678.63,-412.52 685.64,-414.48 692.6,-416.32"/>
<polygon fill="#63b8ff" stroke="#63b8ff" points="692.12,-419.82 702.68,-418.93 693.88,-413.04 692.12,-419.82"/>
</a>
</g>
</g>
<!-- Node10 -->
<g id="Node000010" class="node">
<title>Node10</title>
<g id="a_Node000010"><a xlink:href="collision_8c.html#a4b48832a90e984536a0635a016ec4f28" target="_top" xlink:title=" ">
<polygon fill="white" stroke="#666666" points="798.5,-401 691.5,-401 691.5,-382 798.5,-382 798.5,-401"/>
<text text-anchor="middle" x="745" y="-389" font-family="Helvetica,sans-Serif" font-size="10.00">check_collision_zx</text>
</a>
</g>
</g>
<!-- Node8&#45;&gt;Node10 -->
<g id="edge9_Node000008_Node000010" class="edge">
<title>Node8&#45;&gt;Node10</title>
<g id="a_edge9_Node000008_Node000010"><a xlink:title=" ">
<path fill="none" stroke="#63b8ff" d="M636.14,-379.95C650.91,-381.54 666.43,-383.2 680.94,-384.75"/>
<polygon fill="#63b8ff" stroke="#63b8ff" points="680.98,-388.27 691.3,-385.86 681.73,-381.31 680.98,-388.27"/>
</a>
</g>
</g>
<!-- Node11 -->
<g id="Node000011" class="node">
<title>Node11</title>
<g id="a_Node000011"><a xlink:href="collision_8c.html#a21fef964ab48191a1c0341954ef27a40" target="_top" xlink:title=" ">
<polygon fill="white" stroke="#666666" points="798.5,-364 691.5,-364 691.5,-345 798.5,-345 798.5,-364"/>
<text text-anchor="middle" x="745" y="-352" font-family="Helvetica,sans-Serif" font-size="10.00">check_collision_zy</text>
</a>
</g>
</g>
<!-- Node8&#45;&gt;Node11 -->
<g id="edge10_Node000008_Node000011" class="edge">
<title>Node8&#45;&gt;Node11</title>
<g id="a_edge10_Node000008_Node000011"><a xlink:title=" ">
<path fill="none" stroke="#63b8ff" d="M636.14,-365.44C650.91,-363.94 666.43,-362.37 680.94,-360.9"/>
<polygon fill="#63b8ff" stroke="#63b8ff" points="681.7,-364.34 691.3,-359.84 681,-357.37 681.7,-364.34"/>
</a>
</g>
</g>
<!-- Node13 -->
<g id="Node000013" class="node">
<title>Node13</title>
<g id="a_Node000013"><a xlink:href="Game_8cpp.html#a693de7d8b89fe291aafea86bc64a0a2e" target="_top" xlink:title=" ">
<polygon fill="white" stroke="#666666" points="785,-327 705,-327 705,-308 785,-308 785,-327"/>
<text text-anchor="middle" x="745" y="-315" font-family="Helvetica,sans-Serif" font-size="10.00">CM_GetActor</text>
</a>
</g>
</g>
<!-- Node12&#45;&gt;Node13 -->
<g id="edge12_Node000012_Node000013" class="edge">
<title>Node12&#45;&gt;Node13</title>
<g id="a_edge12_Node000012_Node000013"><a xlink:title=" ">
<path fill="none" stroke="#63b8ff" d="M628.58,-289.54C650.4,-294.83 674.6,-300.69 695.17,-305.67"/>
<polygon fill="#63b8ff" stroke="#63b8ff" points="694.41,-309.09 704.96,-308.04 696.06,-302.29 694.41,-309.09"/>
</a>
</g>
</g>
<!-- Node14 -->
<g id="Node000014" class="node">
<title>Node14</title>
<g id="a_Node000014"><a xlink:href="code__80005FD0_8c.html#ad301b978cdd3c4cc190b10be050d51d8" target="_top" xlink:title=" ">
<polygon fill="white" stroke="#666666" points="818,-289.5 672,-289.5 672,-259.5 818,-259.5 818,-289.5"/>
<text text-anchor="start" x="680" y="-277.5" font-family="Helvetica,sans-Serif" font-size="10.00">delete_actor_in_unexpired</text>
<text text-anchor="middle" x="745" y="-266.5" font-family="Helvetica,sans-Serif" font-size="10.00">_actor_list</text>
</a>
</g>
</g>
<!-- Node12&#45;&gt;Node14 -->
<g id="edge13_Node000012_Node000014" class="edge">
<title>Node12&#45;&gt;Node14</title>
<g id="a_edge13_Node000012_Node000014"><a xlink:title=" ">
<path fill="none" stroke="#63b8ff" d="M631.59,-274.5C641.38,-274.5 651.59,-274.5 661.69,-274.5"/>
<polygon fill="#63b8ff" stroke="#63b8ff" points="661.73,-278 671.73,-274.5 661.73,-271 661.73,-278"/>
</a>
</g>
</g>
<!-- Node15 -->
<g id="Node000015" class="node">
<title>Node15</title>
<g id="a_Node000015"><a xlink:href="actors_8c.html#a694ec6ef7548b8618aeb35c038d3a9b9" target="_top" xlink:title=" ">
<polygon fill="white" stroke="#666666" points="786.5,-241 703.5,-241 703.5,-222 786.5,-222 786.5,-241"/>
<text text-anchor="middle" x="745" y="-229" font-family="Helvetica,sans-Serif" font-size="10.00">destroy_actor</text>
</a>
</g>
</g>
<!-- Node12&#45;&gt;Node15 -->
<g id="edge14_Node000012_Node000015" class="edge">
<title>Node12&#45;&gt;Node15</title>
<g id="a_edge14_Node000012_Node000015"><a xlink:title=" ">
<path fill="none" stroke="#63b8ff" d="M628.58,-259.46C650.32,-254.2 674.41,-248.36 694.93,-243.39"/>
<polygon fill="#63b8ff" stroke="#63b8ff" points="695.8,-246.78 704.69,-241.02 694.15,-239.98 695.8,-246.78"/>
</a>
</g>
</g>
<!-- Node16 -->
<g id="Node000016" class="node">
<title>Node16</title>
<g id="a_Node000016"><a xlink:href="actors_8c.html#a12dc3ccac4c7d8569eadac0af4fd6f9f" target="_top" xlink:title=" ">
<polygon fill="white" stroke="#666666" points="1012,-241 854,-241 854,-222 1012,-222 1012,-241"/>
<text text-anchor="middle" x="933" y="-229" font-family="Helvetica,sans-Serif" font-size="10.00">play_sound_before_despawn</text>
</a>
</g>
</g>
<!-- Node15&#45;&gt;Node16 -->
<g id="edge15_Node000015_Node000016" class="edge">
<title>Node15&#45;&gt;Node16</title>
<g id="a_edge15_Node000015_Node000016"><a xlink:title=" ">
<path fill="none" stroke="#63b8ff" d="M786.82,-231.5C803.65,-231.5 823.86,-231.5 843.77,-231.5"/>
<polygon fill="#63b8ff" stroke="#63b8ff" points="843.82,-235 853.82,-231.5 843.82,-228 843.82,-235"/>
</a>
</g>
</g>
<!-- Node17 -->
<g id="Node000017" class="node">
<title>Node17</title>
<g id="a_Node000017"><a xlink:href="external_8c.html#ae72057869772019e4464c87d4e16c682" target="_top" xlink:title=" ">
<polygon fill="white" stroke="#666666" points="1140,-241 1048,-241 1048,-222 1140,-222 1140,-241"/>
<text text-anchor="middle" x="1094" y="-229" font-family="Helvetica,sans-Serif" font-size="10.00">func_800C99E0</text>
</a>
</g>
</g>
<!-- Node16&#45;&gt;Node17 -->
<g id="edge16_Node000016_Node000017" class="edge">
<title>Node16&#45;&gt;Node17</title>
<g id="a_edge16_Node000016_Node000017"><a xlink:title=" ">
<path fill="none" stroke="#63b8ff" d="M1012.1,-231.5C1020.72,-231.5 1029.35,-231.5 1037.61,-231.5"/>
<polygon fill="#63b8ff" stroke="#63b8ff" points="1037.83,-235 1047.83,-231.5 1037.83,-228 1037.83,-235"/>
</a>
</g>
</g>
<!-- Node18 -->
<g id="Node000018" class="node">
<title>Node18</title>
<g id="a_Node000018"><a xlink:href="external_8c.html#aeb87c527482a244173df36a1f3d4f446" target="_top" xlink:title=" ">
<polygon fill="white" stroke="#666666" points="1268,-260 1176,-260 1176,-241 1268,-241 1268,-260"/>
<text text-anchor="middle" x="1222" y="-248" font-family="Helvetica,sans-Serif" font-size="10.00">func_800C21E8</text>
</a>
</g>
</g>
<!-- Node17&#45;&gt;Node18 -->
<g id="edge17_Node000017_Node000018" class="edge">
<title>Node17&#45;&gt;Node18</title>
<g id="a_edge17_Node000017_Node000018"><a xlink:title=" ">
<path fill="none" stroke="#63b8ff" d="M1140.13,-238.31C1148.46,-239.56 1157.23,-240.88 1165.81,-242.18"/>
<polygon fill="#63b8ff" stroke="#63b8ff" points="1165.35,-245.65 1175.76,-243.68 1166.39,-238.73 1165.35,-245.65"/>
</a>
</g>
</g>
<!-- Node19 -->
<g id="Node000019" class="node">
<title>Node19</title>
<g id="a_Node000019"><a xlink:href="external_8c.html#a028d40421b90c38f68ebfd5acc626f2e" target="_top" xlink:title=" ">
<polygon fill="white" stroke="#666666" points="1268,-223 1176,-223 1176,-204 1268,-204 1268,-223"/>
<text text-anchor="middle" x="1222" y="-211" font-family="Helvetica,sans-Serif" font-size="10.00">func_800C5578</text>
</a>
</g>
</g>
<!-- Node17&#45;&gt;Node19 -->
<g id="edge18_Node000017_Node000019" class="edge">
<title>Node17&#45;&gt;Node19</title>
<g id="a_edge18_Node000017_Node000019"><a xlink:title=" ">
<path fill="none" stroke="#63b8ff" d="M1140.13,-225.05C1148.46,-223.86 1157.23,-222.61 1165.81,-221.38"/>
<polygon fill="#63b8ff" stroke="#63b8ff" points="1166.35,-224.84 1175.76,-219.96 1165.36,-217.91 1166.35,-224.84"/>
</a>
</g>
</g>
<!-- Node20 -->
<g id="Node000020" class="node">
<title>Node20</title>
<g id="a_Node000020"><a xlink:href="external_8c.html#ac0fb767de7e14a03f1bcfa53f0abd23b" target="_top" xlink:title=" ">
<polygon fill="white" stroke="#666666" points="1444,-260 1304,-260 1304,-241 1444,-241 1444,-260"/>
<text text-anchor="middle" x="1374" y="-248" font-family="Helvetica,sans-Serif" font-size="10.00">delete_sound_from_bank</text>
</a>
</g>
</g>
<!-- Node19&#45;&gt;Node20 -->
<g id="edge19_Node000019_Node000020" class="edge">
<title>Node19&#45;&gt;Node20</title>
<g id="a_edge19_Node000019_Node000020"><a xlink:title=" ">
<path fill="none" stroke="#63b8ff" d="M1261.63,-223.03C1280.8,-227.76 1304.16,-233.52 1324.52,-238.54"/>
<polygon fill="#63b8ff" stroke="#63b8ff" points="1323.69,-241.94 1334.24,-240.94 1325.37,-235.15 1323.69,-241.94"/>
</a>
</g>
</g>
<!-- Node22 -->
<g id="Node000022" class="node">
<title>Node22</title>
<g id="a_Node000022"><a xlink:href="external_8c.html#ab83bd36e63f0f1baddcb2482b5ad31b0" target="_top" xlink:title=" ">
<polygon fill="white" stroke="#666666" points="1420.5,-223 1327.5,-223 1327.5,-204 1420.5,-204 1420.5,-223"/>
<text text-anchor="middle" x="1374" y="-211" font-family="Helvetica,sans-Serif" font-size="10.00">func_800C41CC</text>
</a>
</g>
</g>
<!-- Node19&#45;&gt;Node22 -->
<g id="edge21_Node000019_Node000022" class="edge">
<title>Node19&#45;&gt;Node22</title>
<g id="a_edge21_Node000019_Node000022"><a xlink:title=" ">
<path fill="none" stroke="#63b8ff" d="M1268,-213.5C1283.37,-213.5 1300.74,-213.5 1316.86,-213.5"/>
<polygon fill="#63b8ff" stroke="#63b8ff" points="1317.25,-217 1327.25,-213.5 1317.25,-210 1317.25,-217"/>
</a>
</g>
</g>
<!-- Node23 -->
<g id="Node000023" class="node">
<title>Node23</title>
<g id="a_Node000023"><a xlink:href="port__eu_8c.html#aa89dfaecca46c6d071f08c1898d1f7c9" target="_top" xlink:title=" ">
<polygon fill="white" stroke="#666666" points="1420.5,-186 1327.5,-186 1327.5,-167 1420.5,-167 1420.5,-186"/>
<text text-anchor="middle" x="1374" y="-174" font-family="Helvetica,sans-Serif" font-size="10.00">func_800CBBE8</text>
</a>
</g>
</g>
<!-- Node19&#45;&gt;Node23 -->
<g id="edge22_Node000019_Node000023" class="edge">
<title>Node19&#45;&gt;Node23</title>
<g id="a_edge22_Node000019_Node000023"><a xlink:title=" ">
<path fill="none" stroke="#63b8ff" d="M1261.63,-203.97C1280.8,-199.24 1304.16,-193.48 1324.52,-188.46"/>
<polygon fill="#63b8ff" stroke="#63b8ff" points="1325.37,-191.85 1334.24,-186.06 1323.69,-185.06 1325.37,-191.85"/>
</a>
</g>
</g>
<!-- Node21 -->
<g id="Node000021" class="node">
<title>Node21</title>
<g id="a_Node000021"><a xlink:href="external_8c.html#a358ac55e8ab5262dcae8037334be06d7" target="_top" xlink:title=" ">
<polygon fill="white" stroke="#666666" points="1572.5,-260 1480.5,-260 1480.5,-241 1572.5,-241 1572.5,-260"/>
<text text-anchor="middle" x="1526.5" y="-248" font-family="Helvetica,sans-Serif" font-size="10.00">func_800C40F0</text>
</a>
</g>
</g>
<!-- Node20&#45;&gt;Node21 -->
<g id="edge20_Node000020_Node000021" class="edge">
<title>Node20&#45;&gt;Node21</title>
<g id="a_edge20_Node000020_Node000021"><a xlink:title=" ">
<path fill="none" stroke="#63b8ff" d="M1444.08,-250.5C1452.87,-250.5 1461.78,-250.5 1470.31,-250.5"/>
<polygon fill="#63b8ff" stroke="#63b8ff" points="1470.5,-254 1480.5,-250.5 1470.5,-247 1470.5,-254"/>
</a>
</g>
</g>
<!-- Node24 -->
<g id="Node000024" class="node">
<title>Node24</title>
<g id="a_Node000024"><a xlink:href="port__eu_8c.html#af361a20d2e08f30c53a237ca481ff734" target="_top" xlink:title=" ">
<polygon fill="white" stroke="#666666" points="1573,-186 1480,-186 1480,-167 1573,-167 1573,-186"/>
<text text-anchor="middle" x="1526.5" y="-174" font-family="Helvetica,sans-Serif" font-size="10.00">func_800CBB48</text>
</a>
</g>
</g>
<!-- Node23&#45;&gt;Node24 -->
<g id="edge23_Node000023_Node000024" class="edge">
<title>Node23&#45;&gt;Node24</title>
<g id="a_edge23_Node000023_Node000024"><a xlink:title=" ">
<path fill="none" stroke="#63b8ff" d="M1420.56,-176.5C1435.96,-176.5 1453.34,-176.5 1469.46,-176.5"/>
<polygon fill="#63b8ff" stroke="#63b8ff" points="1469.83,-180 1479.83,-176.5 1469.83,-173 1469.83,-180"/>
</a>
</g>
</g>
<!-- Node26 -->
<g id="Node000026" class="node">
<title>Node26</title>
<g id="a_Node000026"><a xlink:href="math__util_8c.html#a79fd07a0971ec96a3ff0801963a2fa7f" target="_top" xlink:title=" ">
<polygon fill="white" stroke="#666666" points="777,-204 713,-204 713,-185 777,-185 777,-204"/>
<text text-anchor="middle" x="745" y="-192" font-family="Helvetica,sans-Serif" font-size="10.00">vec3f_set</text>
</a>
</g>
</g>
<!-- Node25&#45;&gt;Node26 -->
<g id="edge25_Node000025_Node000026" class="edge">
<title>Node25&#45;&gt;Node26</title>
<g id="a_edge25_Node000025_Node000026"><a xlink:title=" ">
<path fill="none" stroke="#63b8ff" d="M612.21,-221.97C640.26,-216.12 675.89,-208.7 703.02,-203.04"/>
<polygon fill="#63b8ff" stroke="#63b8ff" points="703.9,-206.43 712.97,-200.97 702.47,-199.58 703.9,-206.43"/>
</a>
</g>
</g>
<!-- Node35 -->
<g id="Node000035" class="node">
<title>Node35</title>
<g id="a_Node000035"><a xlink:href="external_8c.html#a475cff796211891556f52877cd8e9b9e" target="_top" xlink:title=" ">
<polygon fill="white" stroke="#666666" points="423.5,-56 351.5,-56 351.5,-37 423.5,-37 423.5,-56"/>
<text text-anchor="middle" x="387.5" y="-44" font-family="Helvetica,sans-Serif" font-size="10.00">play_sound</text>
</a>
</g>
</g>
<!-- Node34&#45;&gt;Node35 -->
<g id="edge34_Node000034_Node000035" class="edge">
<title>Node34&#45;&gt;Node35</title>
<g id="a_edge34_Node000034_Node000035"><a xlink:title=" ">
<path fill="none" stroke="#63b8ff" d="M250.33,-74.26C278.2,-68.58 313.76,-61.33 341.56,-55.66"/>
<polygon fill="#63b8ff" stroke="#63b8ff" points="342.32,-59.08 351.42,-53.65 340.92,-52.22 342.32,-59.08"/>
</a>
</g>
</g>
</g>
</svg>

<g id="navigator" transform="translate(0 0)" fill="#404254">
  <rect fill="#f2f5e9" fill-opacity="0.5" stroke="#606060" stroke-width=".5" x="0" y="0" width="60" height="60"/>
  <use id="zoomplus" xlink:href="#zoomPlus" x="17" y="9" onmousedown="handleZoom(evt,'in')"/>
  <use id="zoomminus" xlink:href="#zoomMin" x="42" y="9" onmousedown="handleZoom(evt,'out')"/>
  <use id="reset" xlink:href="#resetDef" x="30" y="36" onmousedown="handleReset()"/>
   <use id="arrowup" xlink:href="#arrowUp" x="0" y="0" onmousedown="handlePan(0,-1)"/>
  <use id="arrowright" xlink:href="#arrowRight" x="0" y="0" onmousedown="handlePan(1,0)"/>
  <use id="arrowdown" xlink:href="#arrowDown" x="0" y="0" onmousedown="handlePan(0,1)"/>
  <use id="arrowleft" xlink:href="#arrowLeft" x="0" y="0" onmousedown="handlePan(-1,0)"/>
</g>
<svg viewBox="0 0 15 15" width="100%" height="30px" preserveAspectRatio="xMaxYMin meet">
 <g id="arrow_out" transform="scale(0.3 0.3)">
  <a xlink:href="actors__extended_8c_ac03bad0075e21f3e3ce262eedd8f056b_cgraph_org.svg" target="_base">
   <rect id="button" ry="5" rx="5" y="6" x="6" height="38" width="38"
        fill="#f2f5e9" fill-opacity="0.5" stroke="#606060" stroke-width="1.0"/>
   <path id="arrow"
     d="M 11.500037,31.436501 C 11.940474,20.09759 22.043105,11.32322 32.158766,21.979434 L 37.068811,17.246167 C 37.068811,17.246167 37.088388,32 37.088388,32 L 22.160133,31.978069 C 22.160133,31.978069 26.997745,27.140456 26.997745,27.140456 C 18.528582,18.264221 13.291696,25.230495 11.500037,31.436501 z"
     style="fill:#404040;"/>
  </a>
 </g>
</svg>

<style type='text/css'>
<![CDATA[
[data-mouse-over-selected='false'] { opacity: 0.7; }
[data-mouse-over-selected='true']  { opacity: 1.0; }
]]>
</style>
<script type="application/ecmascript"><![CDATA[
document.addEventListener('DOMContentLoaded', (event) => {
  highlightEdges();
  highlightAdjacentNodes();
});
]]></script>
</svg>
