<?xml version="1.0" encoding="UTF-8" standalone="no"?>
<!DOCTYPE svg PUBLIC "-//W3C//DTD SVG 1.1//EN"
 "http://www.w3.org/Graphics/SVG/1.1/DTD/svg11.dtd">
<!-- Generated by graphviz version 2.43.0 (0)
 -->
<!-- Title: init_triple_shell Pages: 1 -->
<svg width="1581pt" height="390pt"
 viewBox="0.00 0.00 1581.00 390.00" xmlns="http://www.w3.org/2000/svg" xmlns:xlink="http://www.w3.org/1999/xlink">
<g id="graph0" class="graph" transform="scale(1 1) rotate(0) translate(4 386)">
<title>init_triple_shell</title>
<!-- Node1 -->
<g id="Node000001" class="node">
<title>Node1</title>
<g id="a_Node000001"><a xlink:title=" ">
<polygon fill="#999999" stroke="#666666" points="92,-93 0,-93 0,-74 92,-74 92,-93"/>
<text text-anchor="middle" x="46" y="-81" font-family="Helvetica,sans-Serif" font-size="10.00">init_triple_shell</text>
</a>
</g>
</g>
<!-- Node2 -->
<g id="Node000002" class="node">
<title>Node2</title>
<g id="a_Node000002"><a xlink:href="collision_8c.html#a79293dbdae52d290fdaf8dde9d5244ca" target="_top" xlink:title=" ">
<polygon fill="white" stroke="#666666" points="266.5,-240 141.5,-240 141.5,-221 266.5,-221 266.5,-240"/>
<text text-anchor="middle" x="204" y="-228" font-family="Helvetica,sans-Serif" font-size="10.00">actor_terrain_collision</text>
</a>
</g>
</g>
<!-- Node1&#45;&gt;Node2 -->
<g id="edge1_Node000001_Node000002" class="edge">
<title>Node1&#45;&gt;Node2</title>
<g id="a_edge1_Node000001_Node000002"><a xlink:title=" ">
<path fill="none" stroke="#63b8ff" d="M57.24,-93.15C83.23,-117.64 152.06,-182.5 184.98,-213.52"/>
<polygon fill="#63b8ff" stroke="#63b8ff" points="182.84,-216.32 192.52,-220.63 187.64,-211.22 182.84,-216.32"/>
</a>
</g>
</g>
<!-- Node6 -->
<g id="Node000006" class="node">
<title>Node6</title>
<g id="a_Node000006"><a xlink:href="actors_8c.html#a91fb2e4e37e7c72fea918fe2c1bb4eaf" target="_top" xlink:title=" ">
<polygon fill="white" stroke="#666666" points="274,-130 134,-130 134,-111 274,-111 274,-130"/>
<text text-anchor="middle" x="204" y="-118" font-family="Helvetica,sans-Serif" font-size="10.00">add_actor_to_empty_slot</text>
</a>
</g>
</g>
<!-- Node1&#45;&gt;Node6 -->
<g id="edge5_Node000001_Node000006" class="edge">
<title>Node1&#45;&gt;Node6</title>
<g id="a_edge5_Node000001_Node000006"><a xlink:title=" ">
<path fill="none" stroke="#63b8ff" d="M87.17,-93.03C107.2,-97.78 131.62,-103.57 152.87,-108.61"/>
<polygon fill="#63b8ff" stroke="#63b8ff" points="152.15,-112.04 162.69,-110.94 153.77,-105.23 152.15,-112.04"/>
</a>
</g>
</g>
<!-- Node33 -->
<g id="Node000033" class="node">
<title>Node33</title>
<g id="a_Node000033"><a xlink:href="Game_8cpp.html#a04c2e1c30af14b6e8354d7a9be00e39c" target="_top" xlink:title=" ">
<polygon fill="white" stroke="#666666" points="259,-93 149,-93 149,-74 259,-74 259,-93"/>
<text text-anchor="middle" x="204" y="-81" font-family="Helvetica,sans-Serif" font-size="10.00">CM_FindActorIndex</text>
</a>
</g>
</g>
<!-- Node1&#45;&gt;Node33 -->
<g id="edge32_Node000001_Node000033" class="edge">
<title>Node1&#45;&gt;Node33</title>
<g id="a_edge32_Node000001_Node000033"><a xlink:title=" ">
<path fill="none" stroke="#63b8ff" d="M92.12,-83.5C106.66,-83.5 123.07,-83.5 138.72,-83.5"/>
<polygon fill="#63b8ff" stroke="#63b8ff" points="138.86,-87 148.86,-83.5 138.86,-80 138.86,-87"/>
</a>
</g>
</g>
<!-- Node34 -->
<g id="Node000034" class="node">
<title>Node34</title>
<g id="a_Node000034"><a xlink:href="actors__extended_8c.html#a78e98c146f1f4dd6e3608016486172a4" target="_top" xlink:title=" ">
<polygon fill="white" stroke="#666666" points="250,-56 158,-56 158,-37 250,-37 250,-56"/>
<text text-anchor="middle" x="204" y="-44" font-family="Helvetica,sans-Serif" font-size="10.00">func_802B4E30</text>
</a>
</g>
</g>
<!-- Node1&#45;&gt;Node34 -->
<g id="edge33_Node000001_Node000034" class="edge">
<title>Node1&#45;&gt;Node34</title>
<g id="a_edge33_Node000001_Node000034"><a xlink:title=" ">
<path fill="none" stroke="#63b8ff" d="M87.17,-73.97C107.2,-69.22 131.62,-63.43 152.87,-58.39"/>
<polygon fill="#63b8ff" stroke="#63b8ff" points="153.77,-61.77 162.69,-56.06 152.15,-54.96 153.77,-61.77"/>
</a>
</g>
</g>
<!-- Node35 -->
<g id="Node000035" class="node">
<title>Node35</title>
<g id="a_Node000035"><a xlink:href="math__util_8c.html#ad5bb0138c68b50f119d3cb7966f522b7" target="_top" xlink:title=" ">
<polygon fill="white" stroke="#666666" points="280,-19 128,-19 128,0 280,0 280,-19"/>
<text text-anchor="middle" x="204" y="-7" font-family="Helvetica,sans-Serif" font-size="10.00">mtxf_translate_vec3f_mat3</text>
</a>
</g>
</g>
<!-- Node1&#45;&gt;Node35 -->
<g id="edge34_Node000001_Node000035" class="edge">
<title>Node1&#45;&gt;Node35</title>
<g id="a_edge34_Node000001_Node000035"><a xlink:title=" ">
<path fill="none" stroke="#63b8ff" d="M57.99,-73.89C72.86,-61.39 100.68,-39.71 128,-27.5 132.62,-25.44 137.51,-23.59 142.49,-21.94"/>
<polygon fill="#63b8ff" stroke="#63b8ff" points="143.58,-25.27 152.13,-19.01 141.54,-18.57 143.58,-25.27"/>
</a>
</g>
</g>
<!-- Node3 -->
<g id="Node000003" class="node">
<title>Node3</title>
<g id="a_Node000003"><a xlink:href="collision_8c.html#a6ea8b20f38e63c1b1157923085c8e306" target="_top" xlink:title=" ">
<polygon fill="white" stroke="#666666" points="459,-307.5 316,-307.5 316,-277.5 459,-277.5 459,-307.5"/>
<text text-anchor="start" x="324" y="-295.5" font-family="Helvetica,sans-Serif" font-size="10.00">is_colliding_with_drivable</text>
<text text-anchor="middle" x="387.5" y="-284.5" font-family="Helvetica,sans-Serif" font-size="10.00">_surface</text>
</a>
</g>
</g>
<!-- Node2&#45;&gt;Node3 -->
<g id="edge2_Node000002_Node000003" class="edge">
<title>Node2&#45;&gt;Node3</title>
<g id="a_edge2_Node000002_Node000003"><a xlink:title=" ">
<path fill="none" stroke="#63b8ff" d="M232.82,-240.04C255.27,-247.73 287.66,-258.83 316,-268.5 321.28,-270.3 326.78,-272.18 332.27,-274.05"/>
<polygon fill="#63b8ff" stroke="#63b8ff" points="331.52,-277.49 342.12,-277.4 333.78,-270.87 331.52,-277.49"/>
</a>
</g>
</g>
<!-- Node4 -->
<g id="Node000004" class="node">
<title>Node4</title>
<g id="a_Node000004"><a xlink:href="collision_8c.html#a94970a4a6ca911f74e59114decd74557" target="_top" xlink:title=" ">
<polygon fill="white" stroke="#666666" points="452,-259 323,-259 323,-240 452,-240 452,-259"/>
<text text-anchor="middle" x="387.5" y="-247" font-family="Helvetica,sans-Serif" font-size="10.00">is_colliding_with_wall1</text>
</a>
</g>
</g>
<!-- Node2&#45;&gt;Node4 -->
<g id="edge3_Node000002_Node000004" class="edge">
<title>Node2&#45;&gt;Node4</title>
<g id="a_edge3_Node000002_Node000004"><a xlink:title=" ">
<path fill="none" stroke="#63b8ff" d="M266.7,-236.96C281.54,-238.51 297.53,-240.19 312.85,-241.79"/>
<polygon fill="#63b8ff" stroke="#63b8ff" points="312.49,-245.27 322.8,-242.83 313.22,-238.31 312.49,-245.27"/>
</a>
</g>
</g>
<!-- Node5 -->
<g id="Node000005" class="node">
<title>Node5</title>
<g id="a_Node000005"><a xlink:href="collision_8c.html#a23443870e0d3a6797de707a89ded7ef0" target="_top" xlink:title=" ">
<polygon fill="white" stroke="#666666" points="452,-222 323,-222 323,-203 452,-203 452,-222"/>
<text text-anchor="middle" x="387.5" y="-210" font-family="Helvetica,sans-Serif" font-size="10.00">is_colliding_with_wall2</text>
</a>
</g>
</g>
<!-- Node2&#45;&gt;Node5 -->
<g id="edge4_Node000002_Node000005" class="edge">
<title>Node2&#45;&gt;Node5</title>
<g id="a_edge4_Node000002_Node000005"><a xlink:title=" ">
<path fill="none" stroke="#63b8ff" d="M266.7,-224.38C281.54,-222.91 297.53,-221.32 312.85,-219.8"/>
<polygon fill="#63b8ff" stroke="#63b8ff" points="313.2,-223.29 322.8,-218.82 312.51,-216.32 313.2,-223.29"/>
</a>
</g>
</g>
<!-- Node7 -->
<g id="Node000007" class="node">
<title>Node7</title>
<g id="a_Node000007"><a xlink:href="actors_8c.html#a39c023177b5a7686cdd1fc65b8b953e1" target="_top" xlink:title=" ">
<polygon fill="white" stroke="#666666" points="418.5,-185 356.5,-185 356.5,-166 418.5,-166 418.5,-185"/>
<text text-anchor="middle" x="387.5" y="-173" font-family="Helvetica,sans-Serif" font-size="10.00">actor_init</text>
</a>
</g>
</g>
<!-- Node6&#45;&gt;Node7 -->
<g id="edge6_Node000006_Node000007" class="edge">
<title>Node6&#45;&gt;Node7</title>
<g id="a_edge6_Node000006_Node000007"><a xlink:title=" ">
<path fill="none" stroke="#63b8ff" d="M233.16,-130.07C255.53,-137.56 287.64,-148.09 316,-156.5 325.84,-159.42 336.52,-162.4 346.51,-165.1"/>
<polygon fill="#63b8ff" stroke="#63b8ff" points="345.65,-168.49 356.22,-167.7 347.46,-161.73 345.65,-168.49"/>
</a>
</g>
</g>
<!-- Node29 -->
<g id="Node000029" class="node">
<title>Node29</title>
<g id="a_Node000029"><a xlink:href="Game_8cpp.html#a42f23077aaa52cb3ea5c7803b7dd6816" target="_top" xlink:title=" ">
<polygon fill="white" stroke="#666666" points="440.5,-148 334.5,-148 334.5,-129 440.5,-129 440.5,-148"/>
<text text-anchor="middle" x="387.5" y="-136" font-family="Helvetica,sans-Serif" font-size="10.00">CM_AddBaseActor</text>
</a>
</g>
</g>
<!-- Node6&#45;&gt;Node29 -->
<g id="edge28_Node000006_Node000029" class="edge">
<title>Node6&#45;&gt;Node29</title>
<g id="a_edge28_Node000006_Node000029"><a xlink:title=" ">
<path fill="none" stroke="#63b8ff" d="M274.14,-127.36C290.57,-128.99 308.01,-130.72 324.12,-132.31"/>
<polygon fill="#63b8ff" stroke="#63b8ff" points="324.2,-135.84 334.5,-133.34 324.89,-128.87 324.2,-135.84"/>
</a>
</g>
</g>
<!-- Node30 -->
<g id="Node000030" class="node">
<title>Node30</title>
<g id="a_Node000030"><a xlink:href="Game_8cpp.html#aab23ecf7032de4618ff75c395d8fccf1" target="_top" xlink:title=" ">
<polygon fill="white" stroke="#666666" points="445.5,-111 329.5,-111 329.5,-92 445.5,-92 445.5,-111"/>
<text text-anchor="middle" x="387.5" y="-99" font-family="Helvetica,sans-Serif" font-size="10.00">CM_AddEditorObject</text>
</a>
</g>
</g>
<!-- Node6&#45;&gt;Node30 -->
<g id="edge29_Node000006_Node000030" class="edge">
<title>Node6&#45;&gt;Node30</title>
<g id="a_edge29_Node000006_Node000030"><a xlink:title=" ">
<path fill="none" stroke="#63b8ff" d="M274.14,-113.26C288.95,-111.71 304.58,-110.08 319.32,-108.53"/>
<polygon fill="#63b8ff" stroke="#63b8ff" points="319.78,-112 329.36,-107.48 319.05,-105.04 319.78,-112"/>
</a>
</g>
</g>
<!-- Node31 -->
<g id="Node000031" class="node">
<title>Node31</title>
<g id="a_Node000031"><a xlink:href="Game_8cpp.html#a0841ffe9a66e95aca42438b9d8ffc3d3" target="_top" xlink:title=" ">
<polygon fill="white" stroke="#666666" points="438,-74 337,-74 337,-55 438,-55 438,-74"/>
<text text-anchor="middle" x="387.5" y="-62" font-family="Helvetica,sans-Serif" font-size="10.00">CM_GetActorSize</text>
</a>
</g>
</g>
<!-- Node6&#45;&gt;Node31 -->
<g id="edge30_Node000006_Node000031" class="edge">
<title>Node6&#45;&gt;Node31</title>
<g id="a_edge30_Node000006_Node000031"><a xlink:title=" ">
<path fill="none" stroke="#63b8ff" d="M249.96,-110.96C259.99,-108.32 270.47,-105.16 280,-101.5 296.89,-95.01 299.12,-89.01 316,-82.5 321.23,-80.48 326.77,-78.63 332.34,-76.93"/>
<polygon fill="#63b8ff" stroke="#63b8ff" points="333.72,-80.18 342.37,-74.06 331.8,-73.45 333.72,-80.18"/>
</a>
</g>
</g>
<!-- Node32 -->
<g id="Node000032" class="node">
<title>Node32</title>
<g id="a_Node000032"><a xlink:href="actors_8c.html#a3d238d4f049ffbc555cb8a4dc93c9975" target="_top" xlink:title=" ">
<polygon fill="white" stroke="#666666" points="435,-37 340,-37 340,-18 435,-18 435,-37"/>
<text text-anchor="middle" x="387.5" y="-25" font-family="Helvetica,sans-Serif" font-size="10.00">get_actor_name</text>
</a>
</g>
</g>
<!-- Node6&#45;&gt;Node32 -->
<g id="edge31_Node000006_Node000032" class="edge">
<title>Node6&#45;&gt;Node32</title>
<g id="a_edge31_Node000006_Node000032"><a xlink:title=" ">
<path fill="none" stroke="#63b8ff" d="M262.33,-110.86C268.61,-108.41 274.66,-105.34 280,-101.5 304.02,-84.22 292,-62.81 316,-45.5 320.42,-42.31 325.35,-39.69 330.49,-37.53"/>
<polygon fill="#63b8ff" stroke="#63b8ff" points="331.71,-40.81 339.92,-34.12 329.33,-34.23 331.71,-40.81"/>
</a>
</g>
</g>
<!-- Node8 -->
<g id="Node000008" class="node">
<title>Node8</title>
<g id="a_Node000008"><a xlink:href="collision_8c.html#a37aa55b3768d001533ad75e7f1b8388a" target="_top" xlink:title=" ">
<polygon fill="white" stroke="#666666" points="636,-327 495,-327 495,-308 636,-308 636,-327"/>
<text text-anchor="middle" x="565.5" y="-315" font-family="Helvetica,sans-Serif" font-size="10.00">check_bounding_collision</text>
</a>
</g>
</g>
<!-- Node7&#45;&gt;Node8 -->
<g id="edge7_Node000007_Node000008" class="edge">
<title>Node7&#45;&gt;Node8</title>
<g id="a_edge7_Node000007_Node000008"><a xlink:title=" ">
<path fill="none" stroke="#63b8ff" d="M418.82,-179.14C432.01,-181.82 447.14,-186.47 459,-194.5 481.08,-209.45 477.91,-222.03 495,-242.5 512.08,-262.97 533.04,-285.24 547.45,-300.14"/>
<polygon fill="#63b8ff" stroke="#63b8ff" points="545.23,-302.88 554.71,-307.61 550.25,-298 545.23,-302.88"/>
</a>
</g>
</g>
<!-- Node12 -->
<g id="Node000012" class="node">
<title>Node12</title>
<g id="a_Node000012"><a xlink:href="actors_8c.html#a1a9bccb586242555a9123ebd4ab70f2a" target="_top" xlink:title=" ">
<polygon fill="white" stroke="#666666" points="631.5,-233.5 499.5,-233.5 499.5,-203.5 631.5,-203.5 631.5,-233.5"/>
<text text-anchor="start" x="507.5" y="-221.5" font-family="Helvetica,sans-Serif" font-size="10.00">cleanup_red_and_green</text>
<text text-anchor="middle" x="565.5" y="-210.5" font-family="Helvetica,sans-Serif" font-size="10.00">_shells</text>
</a>
</g>
</g>
<!-- Node7&#45;&gt;Node12 -->
<g id="edge11_Node000007_Node000012" class="edge">
<title>Node7&#45;&gt;Node12</title>
<g id="a_edge11_Node000007_Node000012"><a xlink:title=" ">
<path fill="none" stroke="#63b8ff" d="M418.76,-182.89C439.24,-187.9 467.19,-194.72 493.13,-201.06"/>
<polygon fill="#63b8ff" stroke="#63b8ff" points="492.42,-204.49 502.96,-203.47 494.08,-197.69 492.42,-204.49"/>
</a>
</g>
</g>
<!-- Node25 -->
<g id="Node000025" class="node">
<title>Node25</title>
<g id="a_Node000025"><a xlink:href="collision_8c.html#ad72fef3ffe32191d73b1822f512ebf3f" target="_top" xlink:title=" ">
<polygon fill="white" stroke="#666666" points="613,-185 518,-185 518,-166 613,-166 613,-185"/>
<text text-anchor="middle" x="565.5" y="-173" font-family="Helvetica,sans-Serif" font-size="10.00">func_802AAAAC</text>
</a>
</g>
</g>
<!-- Node7&#45;&gt;Node25 -->
<g id="edge24_Node000007_Node000025" class="edge">
<title>Node7&#45;&gt;Node25</title>
<g id="a_edge24_Node000007_Node000025"><a xlink:title=" ">
<path fill="none" stroke="#63b8ff" d="M418.76,-175.5C443.11,-175.5 478.03,-175.5 507.58,-175.5"/>
<polygon fill="#63b8ff" stroke="#63b8ff" points="507.78,-179 517.78,-175.5 507.78,-172 507.78,-179"/>
</a>
</g>
</g>
<!-- Node27 -->
<g id="Node000027" class="node">
<title>Node27</title>
<g id="a_Node000027"><a xlink:href="math__util_8c.html#af7b470ed76fce07b8042a47c96e5690b" target="_top" xlink:title=" ">
<polygon fill="white" stroke="#666666" points="619,-148 512,-148 512,-129 619,-129 619,-148"/>
<text text-anchor="middle" x="565.5" y="-136" font-family="Helvetica,sans-Serif" font-size="10.00">vec3f_copy_return</text>
</a>
</g>
</g>
<!-- Node7&#45;&gt;Node27 -->
<g id="edge26_Node000007_Node000027" class="edge">
<title>Node7&#45;&gt;Node27</title>
<g id="a_edge26_Node000007_Node000027"><a xlink:title=" ">
<path fill="none" stroke="#63b8ff" d="M418.76,-169.14C443.57,-163.92 479.35,-156.4 509.24,-150.12"/>
<polygon fill="#63b8ff" stroke="#63b8ff" points="510.07,-153.52 519.13,-148.04 508.63,-146.67 510.07,-153.52"/>
</a>
</g>
</g>
<!-- Node28 -->
<g id="Node000028" class="node">
<title>Node28</title>
<g id="a_Node000028"><a xlink:href="math__util_8c.html#a0e270ee67600c8c9c2f140c647d008a1" target="_top" xlink:title=" ">
<polygon fill="white" stroke="#666666" points="602.5,-111 528.5,-111 528.5,-92 602.5,-92 602.5,-111"/>
<text text-anchor="middle" x="565.5" y="-99" font-family="Helvetica,sans-Serif" font-size="10.00">vec3s_copy</text>
</a>
</g>
</g>
<!-- Node7&#45;&gt;Node28 -->
<g id="edge27_Node000007_Node000028" class="edge">
<title>Node7&#45;&gt;Node28</title>
<g id="a_edge27_Node000007_Node000028"><a xlink:title=" ">
<path fill="none" stroke="#63b8ff" d="M418.71,-171.05C431.73,-168.23 446.76,-163.69 459,-156.5 478.78,-144.88 475.16,-131.02 495,-119.5 502.2,-115.32 510.38,-112.09 518.53,-109.61"/>
<polygon fill="#63b8ff" stroke="#63b8ff" points="519.67,-112.93 528.4,-106.93 517.83,-106.17 519.67,-112.93"/>
</a>
</g>
</g>
<!-- Node9 -->
<g id="Node000009" class="node">
<title>Node9</title>
<g id="a_Node000009"><a xlink:href="collision_8c.html#ac312bf382cb40752f6b790a99e7cdcb6" target="_top" xlink:title=" ">
<polygon fill="white" stroke="#666666" points="799,-382 691,-382 691,-363 799,-363 799,-382"/>
<text text-anchor="middle" x="745" y="-370" font-family="Helvetica,sans-Serif" font-size="10.00">check_collision_yx</text>
</a>
</g>
</g>
<!-- Node8&#45;&gt;Node9 -->
<g id="edge8_Node000008_Node000009" class="edge">
<title>Node8&#45;&gt;Node9</title>
<g id="a_edge8_Node000008_Node000009"><a xlink:title=" ">
<path fill="none" stroke="#63b8ff" d="M591.87,-327.14C613.1,-335.03 644.3,-346.2 672,-354.5 678.87,-356.56 686.16,-358.57 693.36,-360.47"/>
<polygon fill="#63b8ff" stroke="#63b8ff" points="692.52,-363.87 703.08,-362.97 694.26,-357.09 692.52,-363.87"/>
</a>
</g>
</g>
<!-- Node10 -->
<g id="Node000010" class="node">
<title>Node10</title>
<g id="a_Node000010"><a xlink:href="collision_8c.html#a4b48832a90e984536a0635a016ec4f28" target="_top" xlink:title=" ">
<polygon fill="white" stroke="#666666" points="798.5,-345 691.5,-345 691.5,-326 798.5,-326 798.5,-345"/>
<text text-anchor="middle" x="745" y="-333" font-family="Helvetica,sans-Serif" font-size="10.00">check_collision_zx</text>
</a>
</g>
</g>
<!-- Node8&#45;&gt;Node10 -->
<g id="edge9_Node000008_Node000010" class="edge">
<title>Node8&#45;&gt;Node10</title>
<g id="a_edge9_Node000008_Node000010"><a xlink:title=" ">
<path fill="none" stroke="#63b8ff" d="M636.14,-324.56C650.91,-326.06 666.43,-327.63 680.94,-329.1"/>
<polygon fill="#63b8ff" stroke="#63b8ff" points="681,-332.63 691.3,-330.16 681.7,-325.66 681,-332.63"/>
</a>
</g>
</g>
<!-- Node11 -->
<g id="Node000011" class="node">
<title>Node11</title>
<g id="a_Node000011"><a xlink:href="collision_8c.html#a21fef964ab48191a1c0341954ef27a40" target="_top" xlink:title=" ">
<polygon fill="white" stroke="#666666" points="798.5,-308 691.5,-308 691.5,-289 798.5,-289 798.5,-308"/>
<text text-anchor="middle" x="745" y="-296" font-family="Helvetica,sans-Serif" font-size="10.00">check_collision_zy</text>
</a>
</g>
</g>
<!-- Node8&#45;&gt;Node11 -->
<g id="edge10_Node000008_Node000011" class="edge">
<title>Node8&#45;&gt;Node11</title>
<g id="a_edge10_Node000008_Node000011"><a xlink:title=" ">
<path fill="none" stroke="#63b8ff" d="M636.14,-310.05C650.91,-308.46 666.43,-306.8 680.94,-305.25"/>
<polygon fill="#63b8ff" stroke="#63b8ff" points="681.73,-308.69 691.3,-304.14 680.98,-301.73 681.73,-308.69"/>
</a>
</g>
</g>
<!-- Node13 -->
<g id="Node000013" class="node">
<title>Node13</title>
<g id="a_Node000013"><a xlink:href="Game_8cpp.html#a693de7d8b89fe291aafea86bc64a0a2e" target="_top" xlink:title=" ">
<polygon fill="white" stroke="#666666" points="785,-271 705,-271 705,-252 785,-252 785,-271"/>
<text text-anchor="middle" x="745" y="-259" font-family="Helvetica,sans-Serif" font-size="10.00">CM_GetActor</text>
</a>
</g>
</g>
<!-- Node12&#45;&gt;Node13 -->
<g id="edge12_Node000012_Node000013" class="edge">
<title>Node12&#45;&gt;Node13</title>
<g id="a_edge12_Node000012_Node000013"><a xlink:title=" ">
<path fill="none" stroke="#63b8ff" d="M628.58,-233.54C650.4,-238.83 674.6,-244.69 695.17,-249.67"/>
<polygon fill="#63b8ff" stroke="#63b8ff" points="694.41,-253.09 704.96,-252.04 696.06,-246.29 694.41,-253.09"/>
</a>
</g>
</g>
<!-- Node14 -->
<g id="Node000014" class="node">
<title>Node14</title>
<g id="a_Node000014"><a xlink:href="code__80005FD0_8c.html#ad301b978cdd3c4cc190b10be050d51d8" target="_top" xlink:title=" ">
<polygon fill="white" stroke="#666666" points="818,-233.5 672,-233.5 672,-203.5 818,-203.5 818,-233.5"/>
<text text-anchor="start" x="680" y="-221.5" font-family="Helvetica,sans-Serif" font-size="10.00">delete_actor_in_unexpired</text>
<text text-anchor="middle" x="745" y="-210.5" font-family="Helvetica,sans-Serif" font-size="10.00">_actor_list</text>
</a>
</g>
</g>
<!-- Node12&#45;&gt;Node14 -->
<g id="edge13_Node000012_Node000014" class="edge">
<title>Node12&#45;&gt;Node14</title>
<g id="a_edge13_Node000012_Node000014"><a xlink:title=" ">
<path fill="none" stroke="#63b8ff" d="M631.59,-218.5C641.38,-218.5 651.59,-218.5 661.69,-218.5"/>
<polygon fill="#63b8ff" stroke="#63b8ff" points="661.73,-222 671.73,-218.5 661.73,-215 661.73,-222"/>
</a>
</g>
</g>
<!-- Node15 -->
<g id="Node000015" class="node">
<title>Node15</title>
<g id="a_Node000015"><a xlink:href="actors_8c.html#a694ec6ef7548b8618aeb35c038d3a9b9" target="_top" xlink:title=" ">
<polygon fill="white" stroke="#666666" points="786.5,-185 703.5,-185 703.5,-166 786.5,-166 786.5,-185"/>
<text text-anchor="middle" x="745" y="-173" font-family="Helvetica,sans-Serif" font-size="10.00">destroy_actor</text>
</a>
</g>
</g>
<!-- Node12&#45;&gt;Node15 -->
<g id="edge14_Node000012_Node000015" class="edge">
<title>Node12&#45;&gt;Node15</title>
<g id="a_edge14_Node000012_Node000015"><a xlink:title=" ">
<path fill="none" stroke="#63b8ff" d="M628.58,-203.46C650.32,-198.2 674.41,-192.36 694.93,-187.39"/>
<polygon fill="#63b8ff" stroke="#63b8ff" points="695.8,-190.78 704.69,-185.02 694.15,-183.98 695.8,-190.78"/>
</a>
</g>
</g>
<!-- Node16 -->
<g id="Node000016" class="node">
<title>Node16</title>
<g id="a_Node000016"><a xlink:href="actors_8c.html#a12dc3ccac4c7d8569eadac0af4fd6f9f" target="_top" xlink:title=" ">
<polygon fill="white" stroke="#666666" points="1012,-185 854,-185 854,-166 1012,-166 1012,-185"/>
<text text-anchor="middle" x="933" y="-173" font-family="Helvetica,sans-Serif" font-size="10.00">play_sound_before_despawn</text>
</a>
</g>
</g>
<!-- Node15&#45;&gt;Node16 -->
<g id="edge15_Node000015_Node000016" class="edge">
<title>Node15&#45;&gt;Node16</title>
<g id="a_edge15_Node000015_Node000016"><a xlink:title=" ">
<path fill="none" stroke="#63b8ff" d="M786.82,-175.5C803.65,-175.5 823.86,-175.5 843.77,-175.5"/>
<polygon fill="#63b8ff" stroke="#63b8ff" points="843.82,-179 853.82,-175.5 843.82,-172 843.82,-179"/>
</a>
</g>
</g>
<!-- Node17 -->
<g id="Node000017" class="node">
<title>Node17</title>
<g id="a_Node000017"><a xlink:href="external_8c.html#ae72057869772019e4464c87d4e16c682" target="_top" xlink:title=" ">
<polygon fill="white" stroke="#666666" points="1140,-185 1048,-185 1048,-166 1140,-166 1140,-185"/>
<text text-anchor="middle" x="1094" y="-173" font-family="Helvetica,sans-Serif" font-size="10.00">func_800C99E0</text>
</a>
</g>
</g>
<!-- Node16&#45;&gt;Node17 -->
<g id="edge16_Node000016_Node000017" class="edge">
<title>Node16&#45;&gt;Node17</title>
<g id="a_edge16_Node000016_Node000017"><a xlink:title=" ">
<path fill="none" stroke="#63b8ff" d="M1012.1,-175.5C1020.72,-175.5 1029.35,-175.5 1037.61,-175.5"/>
<polygon fill="#63b8ff" stroke="#63b8ff" points="1037.83,-179 1047.83,-175.5 1037.83,-172 1037.83,-179"/>
</a>
</g>
</g>
<!-- Node18 -->
<g id="Node000018" class="node">
<title>Node18</title>
<g id="a_Node000018"><a xlink:href="external_8c.html#aeb87c527482a244173df36a1f3d4f446" target="_top" xlink:title=" ">
<polygon fill="white" stroke="#666666" points="1268,-204 1176,-204 1176,-185 1268,-185 1268,-204"/>
<text text-anchor="middle" x="1222" y="-192" font-family="Helvetica,sans-Serif" font-size="10.00">func_800C21E8</text>
</a>
</g>
</g>
<!-- Node17&#45;&gt;Node18 -->
<g id="edge17_Node000017_Node000018" class="edge">
<title>Node17&#45;&gt;Node18</title>
<g id="a_edge17_Node000017_Node000018"><a xlink:title=" ">
<path fill="none" stroke="#63b8ff" d="M1140.13,-182.31C1148.46,-183.56 1157.23,-184.88 1165.81,-186.18"/>
<polygon fill="#63b8ff" stroke="#63b8ff" points="1165.35,-189.65 1175.76,-187.68 1166.39,-182.73 1165.35,-189.65"/>
</a>
</g>
</g>
<!-- Node19 -->
<g id="Node000019" class="node">
<title>Node19</title>
<g id="a_Node000019"><a xlink:href="external_8c.html#a028d40421b90c38f68ebfd5acc626f2e" target="_top" xlink:title=" ">
<polygon fill="white" stroke="#666666" points="1268,-167 1176,-167 1176,-148 1268,-148 1268,-167"/>
<text text-anchor="middle" x="1222" y="-155" font-family="Helvetica,sans-Serif" font-size="10.00">func_800C5578</text>
</a>
</g>
</g>
<!-- Node17&#45;&gt;Node19 -->
<g id="edge18_Node000017_Node000019" class="edge">
<title>Node17&#45;&gt;Node19</title>
<g id="a_edge18_Node000017_Node000019"><a xlink:title=" ">
<path fill="none" stroke="#63b8ff" d="M1140.13,-169.05C1148.46,-167.86 1157.23,-166.61 1165.81,-165.38"/>
<polygon fill="#63b8ff" stroke="#63b8ff" points="1166.35,-168.84 1175.76,-163.96 1165.36,-161.91 1166.35,-168.84"/>
</a>
</g>
</g>
<!-- Node20 -->
<g id="Node000020" class="node">
<title>Node20</title>
<g id="a_Node000020"><a xlink:href="external_8c.html#ac0fb767de7e14a03f1bcfa53f0abd23b" target="_top" xlink:title=" ">
<polygon fill="white" stroke="#666666" points="1444,-204 1304,-204 1304,-185 1444,-185 1444,-204"/>
<text text-anchor="middle" x="1374" y="-192" font-family="Helvetica,sans-Serif" font-size="10.00">delete_sound_from_bank</text>
</a>
</g>
</g>
<!-- Node19&#45;&gt;Node20 -->
<g id="edge19_Node000019_Node000020" class="edge">
<title>Node19&#45;&gt;Node20</title>
<g id="a_edge19_Node000019_Node000020"><a xlink:title=" ">
<path fill="none" stroke="#63b8ff" d="M1261.63,-167.03C1280.8,-171.76 1304.16,-177.52 1324.52,-182.54"/>
<polygon fill="#63b8ff" stroke="#63b8ff" points="1323.69,-185.94 1334.24,-184.94 1325.37,-179.15 1323.69,-185.94"/>
</a>
</g>
</g>
<!-- Node22 -->
<g id="Node000022" class="node">
<title>Node22</title>
<g id="a_Node000022"><a xlink:href="external_8c.html#ab83bd36e63f0f1baddcb2482b5ad31b0" target="_top" xlink:title=" ">
<polygon fill="white" stroke="#666666" points="1420.5,-167 1327.5,-167 1327.5,-148 1420.5,-148 1420.5,-167"/>
<text text-anchor="middle" x="1374" y="-155" font-family="Helvetica,sans-Serif" font-size="10.00">func_800C41CC</text>
</a>
</g>
</g>
<!-- Node19&#45;&gt;Node22 -->
<g id="edge21_Node000019_Node000022" class="edge">
<title>Node19&#45;&gt;Node22</title>
<g id="a_edge21_Node000019_Node000022"><a xlink:title=" ">
<path fill="none" stroke="#63b8ff" d="M1268,-157.5C1283.37,-157.5 1300.74,-157.5 1316.86,-157.5"/>
<polygon fill="#63b8ff" stroke="#63b8ff" points="1317.25,-161 1327.25,-157.5 1317.25,-154 1317.25,-161"/>
</a>
</g>
</g>
<!-- Node23 -->
<g id="Node000023" class="node">
<title>Node23</title>
<g id="a_Node000023"><a xlink:href="port__eu_8c.html#aa89dfaecca46c6d071f08c1898d1f7c9" target="_top" xlink:title=" ">
<polygon fill="white" stroke="#666666" points="1420.5,-130 1327.5,-130 1327.5,-111 1420.5,-111 1420.5,-130"/>
<text text-anchor="middle" x="1374" y="-118" font-family="Helvetica,sans-Serif" font-size="10.00">func_800CBBE8</text>
</a>
</g>
</g>
<!-- Node19&#45;&gt;Node23 -->
<g id="edge22_Node000019_Node000023" class="edge">
<title>Node19&#45;&gt;Node23</title>
<g id="a_edge22_Node000019_Node000023"><a xlink:title=" ">
<path fill="none" stroke="#63b8ff" d="M1261.63,-147.97C1280.8,-143.24 1304.16,-137.48 1324.52,-132.46"/>
<polygon fill="#63b8ff" stroke="#63b8ff" points="1325.37,-135.85 1334.24,-130.06 1323.69,-129.06 1325.37,-135.85"/>
</a>
</g>
</g>
<!-- Node21 -->
<g id="Node000021" class="node">
<title>Node21</title>
<g id="a_Node000021"><a xlink:href="external_8c.html#a358ac55e8ab5262dcae8037334be06d7" target="_top" xlink:title=" ">
<polygon fill="white" stroke="#666666" points="1572.5,-204 1480.5,-204 1480.5,-185 1572.5,-185 1572.5,-204"/>
<text text-anchor="middle" x="1526.5" y="-192" font-family="Helvetica,sans-Serif" font-size="10.00">func_800C40F0</text>
</a>
</g>
</g>
<!-- Node20&#45;&gt;Node21 -->
<g id="edge20_Node000020_Node000021" class="edge">
<title>Node20&#45;&gt;Node21</title>
<g id="a_edge20_Node000020_Node000021"><a xlink:title=" ">
<path fill="none" stroke="#63b8ff" d="M1444.08,-194.5C1452.87,-194.5 1461.78,-194.5 1470.31,-194.5"/>
<polygon fill="#63b8ff" stroke="#63b8ff" points="1470.5,-198 1480.5,-194.5 1470.5,-191 1470.5,-198"/>
</a>
</g>
</g>
<!-- Node24 -->
<g id="Node000024" class="node">
<title>Node24</title>
<g id="a_Node000024"><a xlink:href="port__eu_8c.html#af361a20d2e08f30c53a237ca481ff734" target="_top" xlink:title=" ">
<polygon fill="white" stroke="#666666" points="1573,-130 1480,-130 1480,-111 1573,-111 1573,-130"/>
<text text-anchor="middle" x="1526.5" y="-118" font-family="Helvetica,sans-Serif" font-size="10.00">func_800CBB48</text>
</a>
</g>
</g>
<!-- Node23&#45;&gt;Node24 -->
<g id="edge23_Node000023_Node000024" class="edge">
<title>Node23&#45;&gt;Node24</title>
<g id="a_edge23_Node000023_Node000024"><a xlink:title=" ">
<path fill="none" stroke="#63b8ff" d="M1420.56,-120.5C1435.96,-120.5 1453.34,-120.5 1469.46,-120.5"/>
<polygon fill="#63b8ff" stroke="#63b8ff" points="1469.83,-124 1479.83,-120.5 1469.83,-117 1469.83,-124"/>
</a>
</g>
</g>
<!-- Node26 -->
<g id="Node000026" class="node">
<title>Node26</title>
<g id="a_Node000026"><a xlink:href="math__util_8c.html#a79fd07a0971ec96a3ff0801963a2fa7f" target="_top" xlink:title=" ">
<polygon fill="white" stroke="#666666" points="777,-148 713,-148 713,-129 777,-129 777,-148"/>
<text text-anchor="middle" x="745" y="-136" font-family="Helvetica,sans-Serif" font-size="10.00">vec3f_set</text>
</a>
</g>
</g>
<!-- Node25&#45;&gt;Node26 -->
<g id="edge25_Node000025_Node000026" class="edge">
<title>Node25&#45;&gt;Node26</title>
<g id="a_edge25_Node000025_Node000026"><a xlink:title=" ">
<path fill="none" stroke="#63b8ff" d="M612.21,-165.97C640.26,-160.12 675.89,-152.7 703.02,-147.04"/>
<polygon fill="#63b8ff" stroke="#63b8ff" points="703.9,-150.43 712.97,-144.97 702.47,-143.58 703.9,-150.43"/>
</a>
</g>
</g>
</g>
</svg>
