<?xml version="1.0" encoding="UTF-8" standalone="no"?>
<!DOCTYPE svg PUBLIC "-//W3C//DTD SVG 1.1//EN"
 "http://www.w3.org/Graphics/SVG/1.1/DTD/svg11.dtd">
<!-- Generated by graphviz version 2.43.0 (0)
 -->
<!-- Title: evaluate_collision_for_destructible_actors Pages: 1 -->
<!--zoomable 337 -->

<svg id="main" version="1.1" xmlns="http://www.w3.org/2000/svg" xmlns:xlink="http://www.w3.org/1999/xlink" xml:space="preserve" onload="init(evt)">

<style type="text/css"><![CDATA[
.node, .edge {opacity: 0.7;}
.node.selected, .edge.selected {opacity: 1;}
.edge:hover path { stroke: red; }
.edge:hover polygon { stroke: red; fill: red; }
]]></style>

<defs>
  <circle id="rim" cx="0" cy="0" r="7"/>
  <circle id="rim2" cx="0" cy="0" r="3.5"/>
  <g id="zoomPlus">
    <use xlink:href="#rim" fill="#404040"><set attributeName="fill" to="#808080" begin="zoomplus.mouseover" end="zoomplus.mouseout"/></use>
    <path d="M-4,0h8M0,-4v8" fill="none" stroke="white" stroke-width="1.5" pointer-events="none"/>
  </g>
  <g id="zoomMin">
    <use xlink:href="#rim" fill="#404040"><set attributeName="fill" to="#808080" begin="zoomminus.mouseover" end="zoomminus.mouseout"/></use>
    <path d="M-4,0h8" fill="none" stroke="white" stroke-width="1.5" pointer-events="none"/>
  </g>
  <g id="arrowUp" transform="translate(30 24)">
    <use xlink:href="#rim"/>
    <path pointer-events="none" fill="none" stroke="white" stroke-width="1.5" d="M0,-3.0v7 M-2.5,-0.5L0,-3.0L2.5,-0.5"/>
  </g>
  <g id="arrowRight" transform="rotate(90) translate(36 -43)">
    <use xlink:href="#rim"/>
    <path pointer-events="none" fill="none" stroke="white" stroke-width="1.5" d="M0,-3.0v7 M-2.5,-0.5L0,-3.0L2.5,-0.5"/>
  </g>
  <g id="arrowDown" transform="rotate(180) translate(-30 -48)">
    <use xlink:href="#rim"/>
    <path pointer-events="none" fill="none" stroke="white" stroke-width="1.5" d="M0,-3.0v7 M-2.5,-0.5L0,-3.0L2.5,-0.5"/>
  </g>
  <g id="arrowLeft" transform="rotate(270) translate(-36 17)">
    <use xlink:href="#rim"/>
    <path pointer-events="none" fill="none" stroke="white" stroke-width="1.5" d="M0,-3.0v7 M-2.5,-0.5L0,-3.0L2.5,-0.5"/>
  </g>
  <g id="resetDef">
    <use xlink:href="#rim2" fill="#404040"><set attributeName="fill" to="#808080" begin="reset.mouseover" end="reset.mouseout"/></use>
  </g>
</defs>
<script type="application/ecmascript">
var viewWidth = 1283;
var viewHeight = 337;
var sectionId = 'dynsection-26';
</script>
<script type="application/ecmascript" xlink:href="svg.min.js"/>
<svg id="graph" class="graph">
<g id="viewport">
<title>evaluate_collision_for_destructible_actors</title>
<!-- Node1 -->
<g id="Node000001" class="node">
<title>Node1</title>
<g id="a_Node000001"><a xlink:title=" ">
<polygon fill="#999999" stroke="#666666" points="134,-120 0,-120 0,-90 134,-90 134,-120"/>
<text text-anchor="start" x="8" y="-108" font-family="Helvetica,sans-Serif" font-size="10.00">evaluate_collision</text>
<text text-anchor="middle" x="67" y="-97" font-family="Helvetica,sans-Serif" font-size="10.00">_for_destructible_actors</text>
</a>
</g>
</g>
<!-- Node2 -->
<g id="Node000002" class="node">
<title>Node2</title>
<g id="a_Node000002"><a xlink:href="Game_8cpp.html#a693de7d8b89fe291aafea86bc64a0a2e" target="_top" xlink:title=" ">
<polygon fill="white" stroke="#666666" points="302.5,-136.5 222.5,-136.5 222.5,-117.5 302.5,-117.5 302.5,-136.5"/>
<text text-anchor="middle" x="262.5" y="-124.5" font-family="Helvetica,sans-Serif" font-size="10.00">CM_GetActor</text>
</a>
</g>
</g>
<!-- Node1&#45;&gt;Node2 -->
<g id="edge1_Node000001_Node000002" class="edge">
<title>Node1&#45;&gt;Node2</title>
<g id="a_edge1_Node000001_Node000002"><a xlink:title=" ">
<path fill="none" stroke="#63b8ff" d="M134.05,-112.51C159.61,-115.42 188.36,-118.68 212.07,-121.38"/>
<polygon fill="#63b8ff" stroke="#63b8ff" points="211.91,-124.88 222.24,-122.54 212.7,-117.93 211.91,-124.88"/>
</a>
</g>
</g>
<!-- Node3 -->
<g id="Node000003" class="node">
<title>Node3</title>
<g id="a_Node000003"><a xlink:href="actors_8c.html#abaeba2c5e7821d4ace731cf123a6ee17" target="_top" xlink:title=" ">
<polygon fill="white" stroke="#666666" points="355,-99 170,-99 170,-69 355,-69 355,-99"/>
<text text-anchor="start" x="178" y="-87" font-family="Helvetica,sans-Serif" font-size="10.00">evaluate_actor_collision</text>
<text text-anchor="middle" x="262.5" y="-76" font-family="Helvetica,sans-Serif" font-size="10.00">_between_two_destructible_actors</text>
</a>
</g>
</g>
<!-- Node1&#45;&gt;Node3 -->
<g id="edge2_Node000001_Node000003" class="edge">
<title>Node1&#45;&gt;Node3</title>
<g id="a_edge2_Node000001_Node000003"><a xlink:title=" ">
<path fill="none" stroke="#63b8ff" d="M134.05,-97.83C142.31,-96.94 150.91,-96 159.56,-95.06"/>
<polygon fill="#63b8ff" stroke="#63b8ff" points="160.16,-98.52 169.72,-93.96 159.41,-91.56 160.16,-98.52"/>
</a>
</g>
</g>
<!-- Node4 -->
<g id="Node000004" class="node">
<title>Node4</title>
<g id="a_Node000004"><a xlink:href="actors_8c.html#a53268aa601911d56424ff08fb3395bcb" target="_top" xlink:title=" ">
<polygon fill="white" stroke="#666666" points="526.5,-205 407.5,-205 407.5,-175 526.5,-175 526.5,-205"/>
<text text-anchor="start" x="415.5" y="-193" font-family="Helvetica,sans-Serif" font-size="10.00">destroy_destructable</text>
<text text-anchor="middle" x="467" y="-182" font-family="Helvetica,sans-Serif" font-size="10.00">_actor</text>
</a>
</g>
</g>
<!-- Node3&#45;&gt;Node4 -->
<g id="edge3_Node000003_Node000004" class="edge">
<title>Node3&#45;&gt;Node4</title>
<g id="a_edge3_Node000003_Node000004"><a xlink:title=" ">
<path fill="none" stroke="#63b8ff" d="M332.47,-99.05C340.23,-101.63 347.89,-104.6 355,-108 387.77,-123.68 420.66,-149.56 442.03,-168.04"/>
<polygon fill="#63b8ff" stroke="#63b8ff" points="439.82,-170.76 449.64,-174.73 444.44,-165.5 439.82,-170.76"/>
</a>
</g>
</g>
<!-- Node24 -->
<g id="Node000024" class="node">
<title>Node24</title>
<g id="a_Node000024"><a xlink:href="external_8c.html#acb60983213d09ee795e80ca3c8b5975e" target="_top" xlink:title=" ">
<polygon fill="white" stroke="#666666" points="700,-72.5 608,-72.5 608,-53.5 700,-53.5 700,-72.5"/>
<text text-anchor="middle" x="654" y="-60.5" font-family="Helvetica,sans-Serif" font-size="10.00">func_800C98B8</text>
</a>
</g>
</g>
<!-- Node3&#45;&gt;Node24 -->
<g id="edge26_Node000003_Node000024" class="edge">
<title>Node3&#45;&gt;Node24</title>
<g id="a_edge26_Node000003_Node000024"><a xlink:title=" ">
<path fill="none" stroke="#63b8ff" d="M355.03,-90.41C409.73,-92.89 480.52,-93.74 543,-87 564.68,-84.66 588.35,-79.8 608.16,-75.07"/>
<polygon fill="#63b8ff" stroke="#63b8ff" points="609.27,-78.4 618.14,-72.61 607.6,-71.6 609.27,-78.4"/>
</a>
</g>
</g>
<!-- Node26 -->
<g id="Node000026" class="node">
<title>Node26</title>
<g id="a_Node000026"><a xlink:href="actors_8c.html#aab84c3195e786b4531daebcb5d4a6e61" target="_top" xlink:title=" ">
<polygon fill="white" stroke="#666666" points="543,-78 391,-78 391,-48 543,-48 543,-78"/>
<text text-anchor="start" x="399" y="-66" font-family="Helvetica,sans-Serif" font-size="10.00">play_sound_on_destructible</text>
<text text-anchor="middle" x="467" y="-55" font-family="Helvetica,sans-Serif" font-size="10.00">_actor_collision</text>
</a>
</g>
</g>
<!-- Node3&#45;&gt;Node26 -->
<g id="edge29_Node000003_Node000026" class="edge">
<title>Node3&#45;&gt;Node26</title>
<g id="a_edge29_Node000003_Node000026"><a xlink:title=" ">
<path fill="none" stroke="#63b8ff" d="M355.27,-74.48C363.75,-73.6 372.32,-72.71 380.74,-71.84"/>
<polygon fill="#63b8ff" stroke="#63b8ff" points="381.33,-75.3 390.92,-70.79 380.61,-68.34 381.33,-75.3"/>
</a>
</g>
</g>
<!-- Node27 -->
<g id="Node000027" class="node">
<title>Node27</title>
<g id="a_Node000027"><a xlink:href="actors_8c.html#a11e841de9884478c86e7aa3d4cab5290" target="_top" xlink:title=" ">
<polygon fill="white" stroke="#666666" points="527,-30 407,-30 407,0 527,0 527,-30"/>
<text text-anchor="start" x="415" y="-18" font-family="Helvetica,sans-Serif" font-size="10.00">query_collision_actor</text>
<text text-anchor="middle" x="467" y="-7" font-family="Helvetica,sans-Serif" font-size="10.00">_vs_actor</text>
</a>
</g>
</g>
<!-- Node3&#45;&gt;Node27 -->
<g id="edge31_Node000003_Node000027" class="edge">
<title>Node3&#45;&gt;Node27</title>
<g id="a_edge31_Node000003_Node000027"><a xlink:title=" ">
<path fill="none" stroke="#63b8ff" d="M305.02,-69C329.9,-60.09 362.19,-48.69 391,-39 396.64,-37.1 402.54,-35.15 408.44,-33.23"/>
<polygon fill="#63b8ff" stroke="#63b8ff" points="409.89,-36.44 418.32,-30.02 407.73,-29.78 409.89,-36.44"/>
</a>
</g>
</g>
<!-- Node5 -->
<g id="Node000005" class="node">
<title>Node5</title>
<g id="a_Node000005"><a xlink:href="Game_8cpp.html#a04c2e1c30af14b6e8354d7a9be00e39c" target="_top" xlink:title=" ">
<polygon fill="white" stroke="#666666" points="709,-221.5 599,-221.5 599,-202.5 709,-202.5 709,-221.5"/>
<text text-anchor="middle" x="654" y="-209.5" font-family="Helvetica,sans-Serif" font-size="10.00">CM_FindActorIndex</text>
</a>
</g>
</g>
<!-- Node4&#45;&gt;Node5 -->
<g id="edge4_Node000004_Node000005" class="edge">
<title>Node4&#45;&gt;Node5</title>
<g id="a_edge4_Node000004_Node000005"><a xlink:title=" ">
<path fill="none" stroke="#63b8ff" d="M526.54,-196.96C546.37,-199.32 568.62,-201.97 588.86,-204.37"/>
<polygon fill="#63b8ff" stroke="#63b8ff" points="588.59,-207.86 598.93,-205.57 589.41,-200.91 588.59,-207.86"/>
</a>
</g>
</g>
<!-- Node6 -->
<g id="Node000006" class="node">
<title>Node6</title>
<g id="a_Node000006"><a xlink:href="code__80005FD0_8c.html#ad301b978cdd3c4cc190b10be050d51d8" target="_top" xlink:title=" ">
<polygon fill="white" stroke="#666666" points="727,-184 581,-184 581,-154 727,-154 727,-184"/>
<text text-anchor="start" x="589" y="-172" font-family="Helvetica,sans-Serif" font-size="10.00">delete_actor_in_unexpired</text>
<text text-anchor="middle" x="654" y="-161" font-family="Helvetica,sans-Serif" font-size="10.00">_actor_list</text>
</a>
</g>
</g>
<!-- Node4&#45;&gt;Node6 -->
<g id="edge5_Node000004_Node000006" class="edge">
<title>Node4&#45;&gt;Node6</title>
<g id="a_edge5_Node000004_Node000006"><a xlink:title=" ">
<path fill="none" stroke="#63b8ff" d="M526.54,-183.36C540.55,-181.76 555.78,-180.04 570.66,-178.35"/>
<polygon fill="#63b8ff" stroke="#63b8ff" points="571.34,-181.79 580.88,-177.19 570.55,-174.84 571.34,-181.79"/>
</a>
</g>
</g>
<!-- Node7 -->
<g id="Node000007" class="node">
<title>Node7</title>
<g id="a_Node000007"><a xlink:href="actors__extended_8c.html#ae4a15c57c04e2152938b23b9d2e2d328" target="_top" xlink:title=" ">
<polygon fill="white" stroke="#666666" points="729,-136 579,-136 579,-106 729,-106 729,-136"/>
<text text-anchor="start" x="587" y="-124" font-family="Helvetica,sans-Serif" font-size="10.00">destroy_banana_in_banana</text>
<text text-anchor="middle" x="654" y="-113" font-family="Helvetica,sans-Serif" font-size="10.00">_bunch</text>
</a>
</g>
</g>
<!-- Node4&#45;&gt;Node7 -->
<g id="edge6_Node000004_Node000007" class="edge">
<title>Node4&#45;&gt;Node7</title>
<g id="a_edge6_Node000004_Node000007"><a xlink:title=" ">
<path fill="none" stroke="#63b8ff" d="M503.24,-174.96C524.94,-165.89 553.41,-154.33 579,-145 584.16,-143.12 589.54,-141.24 594.95,-139.39"/>
<polygon fill="#63b8ff" stroke="#63b8ff" points="596.3,-142.63 604.66,-136.13 594.07,-135.99 596.3,-142.63"/>
</a>
</g>
</g>
<!-- Node15 -->
<g id="Node000015" class="node">
<title>Node15</title>
<g id="a_Node000015"><a xlink:href="external_8c.html#a73831bcbe259500206651a0b4702be9f" target="_top" xlink:title=" ">
<polygon fill="white" stroke="#666666" points="700,-307.5 608,-307.5 608,-288.5 700,-288.5 700,-307.5"/>
<text text-anchor="middle" x="654" y="-295.5" font-family="Helvetica,sans-Serif" font-size="10.00">func_800C9EF4</text>
</a>
</g>
</g>
<!-- Node4&#45;&gt;Node15 -->
<g id="edge17_Node000004_Node000015" class="edge">
<title>Node4&#45;&gt;Node15</title>
<g id="a_edge17_Node000004_Node000015"><a xlink:title=" ">
<path fill="none" stroke="#63b8ff" d="M482.69,-205.29C502.66,-225.18 540.34,-259.67 579,-279 584.98,-281.99 591.47,-284.54 598.04,-286.7"/>
<polygon fill="#63b8ff" stroke="#63b8ff" points="597.09,-290.07 607.68,-289.61 599.11,-283.37 597.09,-290.07"/>
</a>
</g>
</g>
<!-- Node23 -->
<g id="Node000023" class="node">
<title>Node23</title>
<g id="a_Node000023"><a xlink:href="actors__extended_8c.html#a1edd6e4f2545082e3782c4ce50933c7c" target="_top" xlink:title=" ">
<polygon fill="white" stroke="#666666" points="712,-270 596,-270 596,-240 712,-240 712,-270"/>
<text text-anchor="start" x="604" y="-258" font-family="Helvetica,sans-Serif" font-size="10.00">triple_shell_actor</text>
<text text-anchor="middle" x="654" y="-247" font-family="Helvetica,sans-Serif" font-size="10.00">_collide_with_player</text>
</a>
</g>
</g>
<!-- Node4&#45;&gt;Node23 -->
<g id="edge25_Node000004_Node000023" class="edge">
<title>Node4&#45;&gt;Node23</title>
<g id="a_edge25_Node000004_Node000023"><a xlink:title=" ">
<path fill="none" stroke="#63b8ff" d="M509.05,-205.01C529.95,-212.6 555.79,-221.9 579,-230 585.28,-232.19 591.87,-234.46 598.42,-236.7"/>
<polygon fill="#63b8ff" stroke="#63b8ff" points="597.35,-240.03 607.95,-239.94 599.61,-233.41 597.35,-240.03"/>
</a>
</g>
</g>
<!-- Node8 -->
<g id="Node000008" class="node">
<title>Node8</title>
<g id="a_Node000008"><a xlink:href="external_8c.html#a2be9efc97a92e19d02aaee90d676acc1" target="_top" xlink:title=" ">
<polygon fill="white" stroke="#666666" points="857,-109.5 765,-109.5 765,-90.5 857,-90.5 857,-109.5"/>
<text text-anchor="middle" x="811" y="-97.5" font-family="Helvetica,sans-Serif" font-size="10.00">func_800C9060</text>
</a>
</g>
</g>
<!-- Node7&#45;&gt;Node8 -->
<g id="edge7_Node000007_Node000008" class="edge">
<title>Node7&#45;&gt;Node8</title>
<g id="a_edge7_Node000007_Node000008"><a xlink:title=" ">
<path fill="none" stroke="#63b8ff" d="M729.32,-110.93C737.84,-109.78 746.42,-108.61 754.63,-107.5"/>
<polygon fill="#63b8ff" stroke="#63b8ff" points="755.37,-110.93 764.81,-106.12 754.43,-104 755.37,-110.93"/>
</a>
</g>
</g>
<!-- Node10 -->
<g id="Node000010" class="node">
<title>Node10</title>
<g id="a_Node000010"><a xlink:href="actors__extended_8c.html#ab349562338ca47f2b524137864704d0e" target="_top" xlink:title=" ">
<polygon fill="white" stroke="#666666" points="857,-146.5 765,-146.5 765,-127.5 857,-127.5 857,-146.5"/>
<text text-anchor="middle" x="811" y="-134.5" font-family="Helvetica,sans-Serif" font-size="10.00">func_802B0464</text>
</a>
</g>
</g>
<!-- Node7&#45;&gt;Node10 -->
<g id="edge9_Node000007_Node000010" class="edge">
<title>Node7&#45;&gt;Node10</title>
<g id="a_edge9_Node000007_Node000010"><a xlink:title=" ">
<path fill="none" stroke="#63b8ff" d="M729.32,-128.67C737.84,-129.55 746.42,-130.44 754.63,-131.28"/>
<polygon fill="#63b8ff" stroke="#63b8ff" points="754.5,-134.79 764.81,-132.33 755.22,-127.83 754.5,-134.79"/>
</a>
</g>
</g>
<!-- Node14 -->
<g id="Node000014" class="node">
<title>Node14</title>
<g id="a_Node000014"><a xlink:href="actors__extended_8c.html#a2f342036a9e04bb583aa7cf9c08edae9" target="_top" xlink:title=" ">
<polygon fill="white" stroke="#666666" points="857,-201.5 765,-201.5 765,-182.5 857,-182.5 857,-201.5"/>
<text text-anchor="middle" x="811" y="-189.5" font-family="Helvetica,sans-Serif" font-size="10.00">func_802B04E8</text>
</a>
</g>
</g>
<!-- Node7&#45;&gt;Node14 -->
<g id="edge14_Node000007_Node000014" class="edge">
<title>Node7&#45;&gt;Node14</title>
<g id="a_edge14_Node000007_Node000014"><a xlink:title=" ">
<path fill="none" stroke="#63b8ff" d="M708.87,-136.02C715.8,-138.66 722.68,-141.65 729,-145 746.91,-154.49 747.51,-162.75 765,-173 768.19,-174.87 771.59,-176.65 775.05,-178.32"/>
<polygon fill="#63b8ff" stroke="#63b8ff" points="773.65,-181.53 784.21,-182.47 776.54,-175.16 773.65,-181.53"/>
</a>
</g>
</g>
<!-- Node9 -->
<g id="Node000009" class="node">
<title>Node9</title>
<g id="a_Node000009"><a xlink:href="external_8c.html#a475cff796211891556f52877cd8e9b9e" target="_top" xlink:title=" ">
<polygon fill="white" stroke="#666666" points="999,-72.5 927,-72.5 927,-53.5 999,-53.5 999,-72.5"/>
<text text-anchor="middle" x="963" y="-60.5" font-family="Helvetica,sans-Serif" font-size="10.00">play_sound</text>
</a>
</g>
</g>
<!-- Node8&#45;&gt;Node9 -->
<g id="edge8_Node000008_Node000009" class="edge">
<title>Node8&#45;&gt;Node9</title>
<g id="a_edge8_Node000008_Node000009"><a xlink:title=" ">
<path fill="none" stroke="#63b8ff" d="M850.63,-90.47C870.94,-85.46 895.94,-79.3 917.11,-74.07"/>
<polygon fill="#63b8ff" stroke="#63b8ff" points="917.97,-77.47 926.84,-71.67 916.29,-70.67 917.97,-77.47"/>
</a>
</g>
</g>
<!-- Node10&#45;&gt;Node10 -->
<g id="edge13_Node000010_Node000010" class="edge">
<title>Node10&#45;&gt;Node10</title>
<g id="a_edge13_Node000010_Node000010"><a xlink:title=" ">
<path fill="none" stroke="#63b8ff" d="M787.57,-146.58C776.18,-155.23 783.98,-164.5 811,-164.5 828.73,-164.5 838.19,-160.51 839.37,-155.32"/>
<polygon fill="#63b8ff" stroke="#63b8ff" points="842.4,-153.56 834.43,-146.58 836.31,-157.01 842.4,-153.56"/>
</a>
</g>
</g>
<!-- Node11 -->
<g id="Node000011" class="node">
<title>Node11</title>
<g id="a_Node000011"><a xlink:href="actors__extended_8c.html#a093f702b462b6657ba7ab789941ef800" target="_top" xlink:title=" ">
<polygon fill="white" stroke="#666666" points="1009,-174.5 917,-174.5 917,-155.5 1009,-155.5 1009,-174.5"/>
<text text-anchor="middle" x="963" y="-162.5" font-family="Helvetica,sans-Serif" font-size="10.00">func_802B039C</text>
</a>
</g>
</g>
<!-- Node10&#45;&gt;Node11 -->
<g id="edge10_Node000010_Node000011" class="edge">
<title>Node10&#45;&gt;Node11</title>
<g id="a_edge10_Node000010_Node000011"><a xlink:title=" ">
<path fill="none" stroke="#63b8ff" d="M857,-145.4C872.66,-148.32 890.39,-151.63 906.77,-154.69"/>
<polygon fill="#63b8ff" stroke="#63b8ff" points="906.3,-158.16 916.77,-156.56 907.58,-151.28 906.3,-158.16"/>
</a>
</g>
</g>
<!-- Node12 -->
<g id="Node000012" class="node">
<title>Node12</title>
<g id="a_Node000012"><a xlink:href="math__util_8c.html#a151b63b8adf9af7e4054b3b84bd226dc" target="_top" xlink:title=" ">
<polygon fill="white" stroke="#666666" points="1151.5,-174.5 1079.5,-174.5 1079.5,-155.5 1151.5,-155.5 1151.5,-174.5"/>
<text text-anchor="middle" x="1115.5" y="-162.5" font-family="Helvetica,sans-Serif" font-size="10.00">random_int</text>
</a>
</g>
</g>
<!-- Node11&#45;&gt;Node12 -->
<g id="edge11_Node000011_Node000012" class="edge">
<title>Node11&#45;&gt;Node12</title>
<g id="a_edge11_Node000011_Node000012"><a xlink:title=" ">
<path fill="none" stroke="#63b8ff" d="M1009.15,-165C1028.15,-165 1050.21,-165 1069.21,-165"/>
<polygon fill="#63b8ff" stroke="#63b8ff" points="1069.42,-168.5 1079.42,-165 1069.42,-161.5 1069.42,-168.5"/>
</a>
</g>
</g>
<!-- Node13 -->
<g id="Node000013" class="node">
<title>Node13</title>
<g id="a_Node000013"><a xlink:href="math__util_8c.html#a062850863585005ad1d0a75d9ff70693" target="_top" xlink:title=" ">
<polygon fill="white" stroke="#666666" points="1275,-174.5 1198,-174.5 1198,-155.5 1275,-155.5 1275,-174.5"/>
<text text-anchor="middle" x="1236.5" y="-162.5" font-family="Helvetica,sans-Serif" font-size="10.00">random_u16</text>
</a>
</g>
</g>
<!-- Node12&#45;&gt;Node13 -->
<g id="edge12_Node000012_Node000013" class="edge">
<title>Node12&#45;&gt;Node13</title>
<g id="a_edge12_Node000012_Node000013"><a xlink:title=" ">
<path fill="none" stroke="#63b8ff" d="M1151.56,-165C1162.8,-165 1175.45,-165 1187.46,-165"/>
<polygon fill="#63b8ff" stroke="#63b8ff" points="1187.79,-168.5 1197.79,-165 1187.79,-161.5 1187.79,-168.5"/>
</a>
</g>
</g>
<!-- Node14&#45;&gt;Node11 -->
<g id="edge15_Node000014_Node000011" class="edge">
<title>Node14&#45;&gt;Node11</title>
<g id="a_edge15_Node000014_Node000011"><a xlink:title=" ">
<path fill="none" stroke="#63b8ff" d="M857,-183.9C872.66,-181.08 890.39,-177.89 906.77,-174.94"/>
<polygon fill="#63b8ff" stroke="#63b8ff" points="907.55,-178.36 916.77,-173.14 906.31,-171.47 907.55,-178.36"/>
</a>
</g>
</g>
<!-- Node14&#45;&gt;Node14 -->
<g id="edge16_Node000014_Node000014" class="edge">
<title>Node14&#45;&gt;Node14</title>
<g id="a_edge16_Node000014_Node000014"><a xlink:title=" ">
<path fill="none" stroke="#63b8ff" d="M787.57,-201.58C776.18,-210.23 783.98,-219.5 811,-219.5 828.73,-219.5 838.19,-215.51 839.37,-210.32"/>
<polygon fill="#63b8ff" stroke="#63b8ff" points="842.4,-208.56 834.43,-201.58 836.31,-212.01 842.4,-208.56"/>
</a>
</g>
</g>
<!-- Node16 -->
<g id="Node000016" class="node">
<title>Node16</title>
<g id="a_Node000016"><a xlink:href="external_8c.html#aeb87c527482a244173df36a1f3d4f446" target="_top" xlink:title=" ">
<polygon fill="white" stroke="#666666" points="857,-328.5 765,-328.5 765,-309.5 857,-309.5 857,-328.5"/>
<text text-anchor="middle" x="811" y="-316.5" font-family="Helvetica,sans-Serif" font-size="10.00">func_800C21E8</text>
</a>
</g>
</g>
<!-- Node15&#45;&gt;Node16 -->
<g id="edge18_Node000015_Node000016" class="edge">
<title>Node15&#45;&gt;Node16</title>
<g id="a_edge18_Node000015_Node000016"><a xlink:title=" ">
<path fill="none" stroke="#63b8ff" d="M700.25,-304.13C717.36,-306.45 737.02,-309.11 754.94,-311.54"/>
<polygon fill="#63b8ff" stroke="#63b8ff" points="754.58,-315.02 764.96,-312.9 755.52,-308.09 754.58,-315.02"/>
</a>
</g>
</g>
<!-- Node17 -->
<g id="Node000017" class="node">
<title>Node17</title>
<g id="a_Node000017"><a xlink:href="external_8c.html#a028d40421b90c38f68ebfd5acc626f2e" target="_top" xlink:title=" ">
<polygon fill="white" stroke="#666666" points="857,-291.5 765,-291.5 765,-272.5 857,-272.5 857,-291.5"/>
<text text-anchor="middle" x="811" y="-279.5" font-family="Helvetica,sans-Serif" font-size="10.00">func_800C5578</text>
</a>
</g>
</g>
<!-- Node15&#45;&gt;Node17 -->
<g id="edge19_Node000015_Node000017" class="edge">
<title>Node15&#45;&gt;Node17</title>
<g id="a_edge19_Node000015_Node000017"><a xlink:title=" ">
<path fill="none" stroke="#63b8ff" d="M700.25,-293.33C717.36,-291.56 737.02,-289.53 754.94,-287.68"/>
<polygon fill="#63b8ff" stroke="#63b8ff" points="755.37,-291.16 764.96,-286.65 754.66,-284.19 755.37,-291.16"/>
</a>
</g>
</g>
<!-- Node18 -->
<g id="Node000018" class="node">
<title>Node18</title>
<g id="a_Node000018"><a xlink:href="external_8c.html#ac0fb767de7e14a03f1bcfa53f0abd23b" target="_top" xlink:title=" ">
<polygon fill="white" stroke="#666666" points="1033,-291.5 893,-291.5 893,-272.5 1033,-272.5 1033,-291.5"/>
<text text-anchor="middle" x="963" y="-279.5" font-family="Helvetica,sans-Serif" font-size="10.00">delete_sound_from_bank</text>
</a>
</g>
</g>
<!-- Node17&#45;&gt;Node18 -->
<g id="edge20_Node000017_Node000018" class="edge">
<title>Node17&#45;&gt;Node18</title>
<g id="a_edge20_Node000017_Node000018"><a xlink:title=" ">
<path fill="none" stroke="#63b8ff" d="M857,-282C865.22,-282 874.01,-282 882.87,-282"/>
<polygon fill="#63b8ff" stroke="#63b8ff" points="882.89,-285.5 892.89,-282 882.89,-278.5 882.89,-285.5"/>
</a>
</g>
</g>
<!-- Node20 -->
<g id="Node000020" class="node">
<title>Node20</title>
<g id="a_Node000020"><a xlink:href="external_8c.html#ab83bd36e63f0f1baddcb2482b5ad31b0" target="_top" xlink:title=" ">
<polygon fill="white" stroke="#666666" points="1009.5,-254.5 916.5,-254.5 916.5,-235.5 1009.5,-235.5 1009.5,-254.5"/>
<text text-anchor="middle" x="963" y="-242.5" font-family="Helvetica,sans-Serif" font-size="10.00">func_800C41CC</text>
</a>
</g>
</g>
<!-- Node17&#45;&gt;Node20 -->
<g id="edge22_Node000017_Node000020" class="edge">
<title>Node17&#45;&gt;Node20</title>
<g id="a_edge22_Node000017_Node000020"><a xlink:title=" ">
<path fill="none" stroke="#63b8ff" d="M850.63,-272.47C869.8,-267.74 893.16,-261.98 913.52,-256.96"/>
<polygon fill="#63b8ff" stroke="#63b8ff" points="914.37,-260.35 923.24,-254.56 912.69,-253.56 914.37,-260.35"/>
</a>
</g>
</g>
<!-- Node21 -->
<g id="Node000021" class="node">
<title>Node21</title>
<g id="a_Node000021"><a xlink:href="port__eu_8c.html#aa89dfaecca46c6d071f08c1898d1f7c9" target="_top" xlink:title=" ">
<polygon fill="white" stroke="#666666" points="1009.5,-328.5 916.5,-328.5 916.5,-309.5 1009.5,-309.5 1009.5,-328.5"/>
<text text-anchor="middle" x="963" y="-316.5" font-family="Helvetica,sans-Serif" font-size="10.00">func_800CBBE8</text>
</a>
</g>
</g>
<!-- Node17&#45;&gt;Node21 -->
<g id="edge23_Node000017_Node000021" class="edge">
<title>Node17&#45;&gt;Node21</title>
<g id="a_edge23_Node000017_Node000021"><a xlink:title=" ">
<path fill="none" stroke="#63b8ff" d="M850.63,-291.53C869.8,-296.26 893.16,-302.02 913.52,-307.04"/>
<polygon fill="#63b8ff" stroke="#63b8ff" points="912.69,-310.44 923.24,-309.44 914.37,-303.65 912.69,-310.44"/>
</a>
</g>
</g>
<!-- Node19 -->
<g id="Node000019" class="node">
<title>Node19</title>
<g id="a_Node000019"><a xlink:href="external_8c.html#a358ac55e8ab5262dcae8037334be06d7" target="_top" xlink:title=" ">
<polygon fill="white" stroke="#666666" points="1161.5,-291.5 1069.5,-291.5 1069.5,-272.5 1161.5,-272.5 1161.5,-291.5"/>
<text text-anchor="middle" x="1115.5" y="-279.5" font-family="Helvetica,sans-Serif" font-size="10.00">func_800C40F0</text>
</a>
</g>
</g>
<!-- Node18&#45;&gt;Node19 -->
<g id="edge21_Node000018_Node000019" class="edge">
<title>Node18&#45;&gt;Node19</title>
<g id="a_edge21_Node000018_Node000019"><a xlink:title=" ">
<path fill="none" stroke="#63b8ff" d="M1033.08,-282C1041.87,-282 1050.78,-282 1059.31,-282"/>
<polygon fill="#63b8ff" stroke="#63b8ff" points="1059.5,-285.5 1069.5,-282 1059.5,-278.5 1059.5,-285.5"/>
</a>
</g>
</g>
<!-- Node22 -->
<g id="Node000022" class="node">
<title>Node22</title>
<g id="a_Node000022"><a xlink:href="port__eu_8c.html#af361a20d2e08f30c53a237ca481ff734" target="_top" xlink:title=" ">
<polygon fill="white" stroke="#666666" points="1162,-328.5 1069,-328.5 1069,-309.5 1162,-309.5 1162,-328.5"/>
<text text-anchor="middle" x="1115.5" y="-316.5" font-family="Helvetica,sans-Serif" font-size="10.00">func_800CBB48</text>
</a>
</g>
</g>
<!-- Node21&#45;&gt;Node22 -->
<g id="edge24_Node000021_Node000022" class="edge">
<title>Node21&#45;&gt;Node22</title>
<g id="a_edge24_Node000021_Node000022"><a xlink:title=" ">
<path fill="none" stroke="#63b8ff" d="M1009.56,-319C1024.96,-319 1042.34,-319 1058.46,-319"/>
<polygon fill="#63b8ff" stroke="#63b8ff" points="1058.83,-322.5 1068.83,-319 1058.83,-315.5 1058.83,-322.5"/>
</a>
</g>
</g>
<!-- Node24&#45;&gt;Node9 -->
<g id="edge28_Node000024_Node000009" class="edge">
<title>Node24&#45;&gt;Node9</title>
<g id="a_edge28_Node000024_Node000009"><a xlink:title=" ">
<path fill="none" stroke="#63b8ff" d="M699.73,-53.49C719.62,-49.72 743.37,-45.85 765,-44 805.74,-40.51 816.27,-40.35 857,-44 876.77,-45.77 898.39,-49.39 916.84,-53"/>
<polygon fill="#63b8ff" stroke="#63b8ff" points="916.24,-56.45 926.74,-54.99 917.62,-49.59 916.24,-56.45"/>
</a>
</g>
</g>
<!-- Node25 -->
<g id="Node000025" class="node">
<title>Node25</title>
<g id="a_Node000025"><a xlink:href="external_8c.html#a747de0be4005b4b29150d5c068564b7d" target="_top" xlink:title=" ">
<polygon fill="white" stroke="#666666" points="857,-72.5 765,-72.5 765,-53.5 857,-53.5 857,-72.5"/>
<text text-anchor="middle" x="811" y="-60.5" font-family="Helvetica,sans-Serif" font-size="10.00">func_800C1C88</text>
</a>
</g>
</g>
<!-- Node24&#45;&gt;Node25 -->
<g id="edge27_Node000024_Node000025" class="edge">
<title>Node24&#45;&gt;Node25</title>
<g id="a_edge27_Node000024_Node000025"><a xlink:title=" ">
<path fill="none" stroke="#63b8ff" d="M700.25,-63C717.36,-63 737.02,-63 754.94,-63"/>
<polygon fill="#63b8ff" stroke="#63b8ff" points="754.96,-66.5 764.96,-63 754.96,-59.5 754.96,-66.5"/>
</a>
</g>
</g>
<!-- Node26&#45;&gt;Node24 -->
<g id="edge30_Node000026_Node000024" class="edge">
<title>Node26&#45;&gt;Node24</title>
<g id="a_edge30_Node000026_Node000024"><a xlink:title=" ">
<path fill="none" stroke="#63b8ff" d="M543.25,-63C561.39,-63 580.45,-63 597.5,-63"/>
<polygon fill="#63b8ff" stroke="#63b8ff" points="597.83,-66.5 607.83,-63 597.83,-59.5 597.83,-66.5"/>
</a>
</g>
</g>
</g>
</svg>

<g id="navigator" transform="translate(0 0)" fill="#404254">
  <rect fill="#f2f5e9" fill-opacity="0.5" stroke="#606060" stroke-width=".5" x="0" y="0" width="60" height="60"/>
  <use id="zoomplus" xlink:href="#zoomPlus" x="17" y="9" onmousedown="handleZoom(evt,'in')"/>
  <use id="zoomminus" xlink:href="#zoomMin" x="42" y="9" onmousedown="handleZoom(evt,'out')"/>
  <use id="reset" xlink:href="#resetDef" x="30" y="36" onmousedown="handleReset()"/>
   <use id="arrowup" xlink:href="#arrowUp" x="0" y="0" onmousedown="handlePan(0,-1)"/>
  <use id="arrowright" xlink:href="#arrowRight" x="0" y="0" onmousedown="handlePan(1,0)"/>
  <use id="arrowdown" xlink:href="#arrowDown" x="0" y="0" onmousedown="handlePan(0,1)"/>
  <use id="arrowleft" xlink:href="#arrowLeft" x="0" y="0" onmousedown="handlePan(-1,0)"/>
</g>
<svg viewBox="0 0 15 15" width="100%" height="30px" preserveAspectRatio="xMaxYMin meet">
 <g id="arrow_out" transform="scale(0.3 0.3)">
  <a xlink:href="actors_8c_a4b201e7d945d6be6ef527df902a6bcc8_cgraph_org.svg" target="_base">
   <rect id="button" ry="5" rx="5" y="6" x="6" height="38" width="38"
        fill="#f2f5e9" fill-opacity="0.5" stroke="#606060" stroke-width="1.0"/>
   <path id="arrow"
     d="M 11.500037,31.436501 C 11.940474,20.09759 22.043105,11.32322 32.158766,21.979434 L 37.068811,17.246167 C 37.068811,17.246167 37.088388,32 37.088388,32 L 22.160133,31.978069 C 22.160133,31.978069 26.997745,27.140456 26.997745,27.140456 C 18.528582,18.264221 13.291696,25.230495 11.500037,31.436501 z"
     style="fill:#404040;"/>
  </a>
 </g>
</svg>

<style type='text/css'>
<![CDATA[
[data-mouse-over-selected='false'] { opacity: 0.7; }
[data-mouse-over-selected='true']  { opacity: 1.0; }
]]>
</style>
<script type="application/ecmascript"><![CDATA[
document.addEventListener('DOMContentLoaded', (event) => {
  highlightEdges();
  highlightAdjacentNodes();
});
]]></script>
</svg>
