<?xml version="1.0" encoding="UTF-8" standalone="no"?>
<!DOCTYPE svg PUBLIC "-//W3C//DTD SVG 1.1//EN"
 "http://www.w3.org/Graphics/SVG/1.1/DTD/svg11.dtd">
<!-- Generated by graphviz version 2.43.0 (0)
 -->
<!-- Title: courses/all_course_packed.h Pages: 1 -->
<svg width="3006pt" height="159pt"
 viewBox="0.00 0.00 3006.00 159.00" xmlns="http://www.w3.org/2000/svg" xmlns:xlink="http://www.w3.org/1999/xlink">
<g id="graph0" class="graph" transform="scale(1 1) rotate(0) translate(4 155)">
<title>courses/all_course_packed.h</title>
<!-- Node1 -->
<g id="Node000001" class="node">
<title>Node1</title>
<g id="a_Node000001"><a xlink:title=" ">
<polygon fill="#999999" stroke="#666666" points="1555,-151 1448,-151 1448,-121 1555,-121 1555,-151"/>
<text text-anchor="start" x="1456" y="-139" font-family="Helvetica,sans-Serif" font-size="10.00">courses/all_course</text>
<text text-anchor="middle" x="1501.5" y="-128" font-family="Helvetica,sans-Serif" font-size="10.00">_packed.h</text>
</a>
</g>
</g>
<!-- Node2 -->
<g id="Node000002" class="node">
<title>Node2</title>
<g id="a_Node000002"><a xlink:href="rainbow__road__displaylists_8h.html" target="_top" xlink:title=" ">
<polygon fill="white" stroke="#666666" points="2285,-85 2168,-85 2168,-55 2285,-55 2285,-85"/>
<text text-anchor="start" x="2176" y="-73" font-family="Helvetica,sans-Serif" font-size="10.00">assets/rainbow_road</text>
<text text-anchor="middle" x="2226.5" y="-62" font-family="Helvetica,sans-Serif" font-size="10.00">_displaylists.h</text>
</a>
</g>
</g>
<!-- Node1&#45;&gt;Node2 -->
<g id="edge1_Node000001_Node000002" class="edge">
<title>Node1&#45;&gt;Node2</title>
<g id="a_edge1_Node000001_Node000002"><a xlink:title=" ">
<path fill="none" stroke="#63b8ff" d="M1555.06,-133.29C1665.88,-129.25 1928.49,-117.02 2157.56,-85.16"/>
<polygon fill="#63b8ff" stroke="#63b8ff" points="2158.34,-88.59 2167.75,-83.73 2157.36,-81.65 2158.34,-88.59"/>
</a>
</g>
</g>
<!-- Node6 -->
<g id="Node000006" class="node">
<title>Node6</title>
<g id="a_Node000006"><a xlink:href="sherbet__land__displaylists_8h.html" target="_top" xlink:title=" ">
<polygon fill="white" stroke="#666666" points="2417.5,-85 2303.5,-85 2303.5,-55 2417.5,-55 2417.5,-85"/>
<text text-anchor="start" x="2311.5" y="-73" font-family="Helvetica,sans-Serif" font-size="10.00">assets/sherbet_land</text>
<text text-anchor="middle" x="2360.5" y="-62" font-family="Helvetica,sans-Serif" font-size="10.00">_displaylists.h</text>
</a>
</g>
</g>
<!-- Node1&#45;&gt;Node6 -->
<g id="edge5_Node000001_Node000006" class="edge">
<title>Node1&#45;&gt;Node6</title>
<g id="a_edge5_Node000001_Node000006"><a xlink:title=" ">
<path fill="none" stroke="#63b8ff" d="M1555.14,-134.32C1681.96,-132.12 2010.26,-123.04 2293.3,-85.02"/>
<polygon fill="#63b8ff" stroke="#63b8ff" points="2293.91,-88.47 2303.35,-83.66 2292.97,-81.53 2293.91,-88.47"/>
</a>
</g>
</g>
<!-- Node7 -->
<g id="Node000007" class="node">
<title>Node7</title>
<g id="a_Node000007"><a xlink:href="koopa__troopa__beach__displaylists_8h.html" target="_top" xlink:title=" ">
<polygon fill="white" stroke="#666666" points="2557,-85 2436,-85 2436,-55 2557,-55 2557,-85"/>
<text text-anchor="start" x="2444" y="-73" font-family="Helvetica,sans-Serif" font-size="10.00">assets/koopa_troopa</text>
<text text-anchor="middle" x="2496.5" y="-62" font-family="Helvetica,sans-Serif" font-size="10.00">_beach_displaylists.h</text>
</a>
</g>
</g>
<!-- Node1&#45;&gt;Node7 -->
<g id="edge9_Node000001_Node000007" class="edge">
<title>Node1&#45;&gt;Node7</title>
<g id="a_edge9_Node000001_Node000007"><a xlink:title=" ">
<path fill="none" stroke="#63b8ff" d="M1555.18,-134.78C1696.31,-133.64 2089.44,-126.75 2425.94,-84.92"/>
<polygon fill="#63b8ff" stroke="#63b8ff" points="2426.39,-88.4 2435.88,-83.68 2425.52,-81.45 2426.39,-88.4"/>
</a>
</g>
</g>
<!-- Node8 -->
<g id="Node000008" class="node">
<title>Node8</title>
<g id="a_Node000008"><a xlink:href="yoshi__valley__displaylists_8h.html" target="_top" xlink:title=" ">
<polygon fill="white" stroke="#666666" points="2688,-85 2575,-85 2575,-55 2688,-55 2688,-85"/>
<text text-anchor="start" x="2583" y="-73" font-family="Helvetica,sans-Serif" font-size="10.00">assets/yoshi_valley</text>
<text text-anchor="middle" x="2631.5" y="-62" font-family="Helvetica,sans-Serif" font-size="10.00">_displaylists.h</text>
</a>
</g>
</g>
<!-- Node1&#45;&gt;Node8 -->
<g id="edge13_Node000001_Node000008" class="edge">
<title>Node1&#45;&gt;Node8</title>
<g id="a_edge13_Node000001_Node000008"><a xlink:title=" ">
<path fill="none" stroke="#63b8ff" d="M1555.24,-135.6C1710.55,-136.68 2173.28,-135.2 2564.77,-85.08"/>
<polygon fill="#63b8ff" stroke="#63b8ff" points="2565.41,-88.53 2574.88,-83.77 2564.51,-81.58 2565.41,-88.53"/>
</a>
</g>
</g>
<!-- Node9 -->
<g id="Node000009" class="node">
<title>Node9</title>
<g id="a_Node000009"><a xlink:href="dks__jungle__parkway__displaylists_8h.html" target="_top" xlink:title=" ">
<polygon fill="white" stroke="#666666" points="2857,-85 2706,-85 2706,-55 2857,-55 2857,-85"/>
<text text-anchor="start" x="2714" y="-73" font-family="Helvetica,sans-Serif" font-size="10.00">assets/dks_jungle_parkway</text>
<text text-anchor="middle" x="2781.5" y="-62" font-family="Helvetica,sans-Serif" font-size="10.00">_displaylists.h</text>
</a>
</g>
</g>
<!-- Node1&#45;&gt;Node9 -->
<g id="edge17_Node000001_Node000009" class="edge">
<title>Node1&#45;&gt;Node9</title>
<g id="a_edge17_Node000001_Node000009"><a xlink:title=" ">
<path fill="none" stroke="#63b8ff" d="M1555.02,-135.11C1722.24,-134.96 2249.92,-130.7 2695.37,-85.14"/>
<polygon fill="#63b8ff" stroke="#63b8ff" points="2695.96,-88.6 2705.55,-84.09 2695.24,-81.63 2695.96,-88.6"/>
</a>
</g>
</g>
<!-- Node10 -->
<g id="Node000010" class="node">
<title>Node10</title>
<g id="a_Node000010"><a xlink:href="toads__turnpike__displaylists_8h.html" target="_top" xlink:title=" ">
<polygon fill="white" stroke="#666666" points="2998,-85 2875,-85 2875,-55 2998,-55 2998,-85"/>
<text text-anchor="start" x="2883" y="-73" font-family="Helvetica,sans-Serif" font-size="10.00">assets/toads_turnpike</text>
<text text-anchor="middle" x="2936.5" y="-62" font-family="Helvetica,sans-Serif" font-size="10.00">_displaylists.h</text>
</a>
</g>
</g>
<!-- Node1&#45;&gt;Node10 -->
<g id="edge21_Node000001_Node000010" class="edge">
<title>Node1&#45;&gt;Node10</title>
<g id="a_edge21_Node000001_Node000010"><a xlink:title=" ">
<path fill="none" stroke="#63b8ff" d="M1555.35,-134.19C1772.57,-130.72 2585.63,-116.01 2864.65,-85.06"/>
<polygon fill="#63b8ff" stroke="#63b8ff" points="2865.21,-88.52 2874.75,-83.91 2864.42,-81.57 2865.21,-88.52"/>
</a>
</g>
</g>
<!-- Node11 -->
<g id="Node000011" class="node">
<title>Node11</title>
<g id="a_Node000011"><a xlink:href="banshee__boardwalk__displaylists_8h.html" target="_top" xlink:title=" ">
<polygon fill="white" stroke="#666666" points="149,-85 0,-85 0,-55 149,-55 149,-85"/>
<text text-anchor="start" x="8" y="-73" font-family="Helvetica,sans-Serif" font-size="10.00">assets/banshee_boardwalk</text>
<text text-anchor="middle" x="74.5" y="-62" font-family="Helvetica,sans-Serif" font-size="10.00">_displaylists.h</text>
</a>
</g>
</g>
<!-- Node1&#45;&gt;Node11 -->
<g id="edge25_Node000001_Node000011" class="edge">
<title>Node1&#45;&gt;Node11</title>
<g id="a_edge25_Node000001_Node000011"><a xlink:title=" ">
<path fill="none" stroke="#63b8ff" d="M1447.91,-135.46C1267.53,-136.49 665.87,-135.71 159.16,-84.96"/>
<polygon fill="#63b8ff" stroke="#63b8ff" points="159.39,-81.46 149.09,-83.94 158.69,-88.43 159.39,-81.46"/>
</a>
</g>
</g>
<!-- Node12 -->
<g id="Node000012" class="node">
<title>Node12</title>
<g id="a_Node000012"><a xlink:href="mario__raceway__displaylists_8h.html" target="_top" xlink:title=" ">
<polygon fill="white" stroke="#666666" points="293.5,-85 167.5,-85 167.5,-55 293.5,-55 293.5,-85"/>
<text text-anchor="start" x="175.5" y="-73" font-family="Helvetica,sans-Serif" font-size="10.00">assets/mario_raceway</text>
<text text-anchor="middle" x="230.5" y="-62" font-family="Helvetica,sans-Serif" font-size="10.00">_displaylists.h</text>
</a>
</g>
</g>
<!-- Node1&#45;&gt;Node12 -->
<g id="edge29_Node000001_Node000012" class="edge">
<title>Node1&#45;&gt;Node12</title>
<g id="a_edge29_Node000001_Node000012"><a xlink:title=" ">
<path fill="none" stroke="#63b8ff" d="M1447.79,-135.63C1279.99,-136.98 750.56,-136.66 303.84,-85.02"/>
<polygon fill="#63b8ff" stroke="#63b8ff" points="303.97,-81.51 293.63,-83.83 303.16,-88.47 303.97,-81.51"/>
</a>
</g>
</g>
<!-- Node13 -->
<g id="Node000013" class="node">
<title>Node13</title>
<g id="a_Node000013"><a xlink:href="luigi__raceway__displaylists_8h.html" target="_top" xlink:title=" ">
<polygon fill="white" stroke="#666666" points="431,-85 312,-85 312,-55 431,-55 431,-85"/>
<text text-anchor="start" x="320" y="-73" font-family="Helvetica,sans-Serif" font-size="10.00">assets/luigi_raceway</text>
<text text-anchor="middle" x="371.5" y="-62" font-family="Helvetica,sans-Serif" font-size="10.00">_displaylists.h</text>
</a>
</g>
</g>
<!-- Node1&#45;&gt;Node13 -->
<g id="edge33_Node000001_Node000013" class="edge">
<title>Node1&#45;&gt;Node13</title>
<g id="a_edge33_Node000001_Node000013"><a xlink:title=" ">
<path fill="none" stroke="#63b8ff" d="M1447.99,-135.36C1293.34,-135.8 832.53,-132.78 441.35,-84.95"/>
<polygon fill="#63b8ff" stroke="#63b8ff" points="441.6,-81.46 431.25,-83.71 440.74,-88.4 441.6,-81.46"/>
</a>
</g>
</g>
<!-- Node14 -->
<g id="Node000014" class="node">
<title>Node14</title>
<g id="a_Node000014"><a xlink:href="royal__raceway__displaylists_8h.html" target="_top" xlink:title=" ">
<polygon fill="white" stroke="#666666" points="571.5,-85 449.5,-85 449.5,-55 571.5,-55 571.5,-85"/>
<text text-anchor="start" x="457.5" y="-73" font-family="Helvetica,sans-Serif" font-size="10.00">assets/royal_raceway</text>
<text text-anchor="middle" x="510.5" y="-62" font-family="Helvetica,sans-Serif" font-size="10.00">_displaylists.h</text>
</a>
</g>
</g>
<!-- Node1&#45;&gt;Node14 -->
<g id="edge37_Node000001_Node000014" class="edge">
<title>Node1&#45;&gt;Node14</title>
<g id="a_edge37_Node000001_Node000014"><a xlink:title=" ">
<path fill="none" stroke="#63b8ff" d="M1447.79,-134.76C1307.13,-133.58 916.29,-126.59 582.24,-85.09"/>
<polygon fill="#63b8ff" stroke="#63b8ff" points="582.24,-81.57 571.88,-83.79 581.36,-88.51 582.24,-81.57"/>
</a>
</g>
</g>
<!-- Node15 -->
<g id="Node000015" class="node">
<title>Node15</title>
<g id="a_Node000015"><a xlink:href="kalimari__desert__displaylists_8h.html" target="_top" xlink:title=" ">
<polygon fill="white" stroke="#666666" points="717,-85 590,-85 590,-55 717,-55 717,-85"/>
<text text-anchor="start" x="598" y="-73" font-family="Helvetica,sans-Serif" font-size="10.00">assets/kalimari_desert</text>
<text text-anchor="middle" x="653.5" y="-62" font-family="Helvetica,sans-Serif" font-size="10.00">_displaylists.h</text>
</a>
</g>
</g>
<!-- Node1&#45;&gt;Node15 -->
<g id="edge41_Node000001_Node000015" class="edge">
<title>Node1&#45;&gt;Node15</title>
<g id="a_edge41_Node000001_Node000015"><a xlink:title=" ">
<path fill="none" stroke="#63b8ff" d="M1447.72,-133.84C1322.93,-130.66 1003.91,-119.67 727.36,-84.98"/>
<polygon fill="#63b8ff" stroke="#63b8ff" points="727.49,-81.47 717.13,-83.69 726.61,-88.42 727.49,-81.47"/>
</a>
</g>
</g>
<!-- Node16 -->
<g id="Node000016" class="node">
<title>Node16</title>
<g id="a_Node000016"><a xlink:href="frappe__snowland__displaylists_8h.html" target="_top" xlink:title=" ">
<polygon fill="white" stroke="#666666" points="869.5,-85 735.5,-85 735.5,-55 869.5,-55 869.5,-85"/>
<text text-anchor="start" x="743.5" y="-73" font-family="Helvetica,sans-Serif" font-size="10.00">assets/frappe_snowland</text>
<text text-anchor="middle" x="802.5" y="-62" font-family="Helvetica,sans-Serif" font-size="10.00">_displaylists.h</text>
</a>
</g>
</g>
<!-- Node1&#45;&gt;Node16 -->
<g id="edge45_Node000001_Node000016" class="edge">
<title>Node1&#45;&gt;Node16</title>
<g id="a_edge45_Node000001_Node000016"><a xlink:title=" ">
<path fill="none" stroke="#63b8ff" d="M1447.97,-132.55C1341.58,-127.28 1095.86,-113.1 879.53,-85.04"/>
<polygon fill="#63b8ff" stroke="#63b8ff" points="879.95,-81.57 869.58,-83.74 879.04,-88.51 879.95,-81.57"/>
</a>
</g>
</g>
<!-- Node17 -->
<g id="Node000017" class="node">
<title>Node17</title>
<g id="a_Node000017"><a xlink:href="wario__stadium__displaylists_8h.html" target="_top" xlink:title=" ">
<polygon fill="white" stroke="#666666" points="1011,-85 888,-85 888,-55 1011,-55 1011,-85"/>
<text text-anchor="start" x="896" y="-73" font-family="Helvetica,sans-Serif" font-size="10.00">assets/wario_stadium</text>
<text text-anchor="middle" x="949.5" y="-62" font-family="Helvetica,sans-Serif" font-size="10.00">_displaylists.h</text>
</a>
</g>
</g>
<!-- Node1&#45;&gt;Node17 -->
<g id="edge49_Node000001_Node000017" class="edge">
<title>Node1&#45;&gt;Node17</title>
<g id="a_edge49_Node000001_Node000017"><a xlink:title=" ">
<path fill="none" stroke="#63b8ff" d="M1447.92,-131.03C1360.69,-124.23 1182.43,-108.85 1021.12,-85"/>
<polygon fill="#63b8ff" stroke="#63b8ff" points="1021.42,-81.5 1011.01,-83.49 1020.39,-88.42 1021.42,-81.5"/>
</a>
</g>
</g>
<!-- Node18 -->
<g id="Node000018" class="node">
<title>Node18</title>
<g id="a_Node000018"><a xlink:href="moo__moo__farm__displaylists_8h.html" target="_top" xlink:title=" ">
<polygon fill="white" stroke="#666666" points="1157.5,-85 1029.5,-85 1029.5,-55 1157.5,-55 1157.5,-85"/>
<text text-anchor="start" x="1037.5" y="-73" font-family="Helvetica,sans-Serif" font-size="10.00">assets/moo_moo_farm</text>
<text text-anchor="middle" x="1093.5" y="-62" font-family="Helvetica,sans-Serif" font-size="10.00">_displaylists.h</text>
</a>
</g>
</g>
<!-- Node1&#45;&gt;Node18 -->
<g id="edge53_Node000001_Node000018" class="edge">
<title>Node1&#45;&gt;Node18</title>
<g id="a_edge53_Node000001_Node000018"><a xlink:title=" ">
<path fill="none" stroke="#63b8ff" d="M1447.72,-127.67C1383.53,-118.77 1272.68,-102.9 1167.71,-85.16"/>
<polygon fill="#63b8ff" stroke="#63b8ff" points="1168.01,-81.67 1157.57,-83.44 1166.84,-88.57 1168.01,-81.67"/>
</a>
</g>
</g>
<!-- Node19 -->
<g id="Node000019" class="node">
<title>Node19</title>
<g id="a_Node000019"><a xlink:href="big__donut__displaylists_8h.html" target="_top" xlink:title=" ">
<polygon fill="white" stroke="#666666" points="1345,-79.5 1176,-79.5 1176,-60.5 1345,-60.5 1345,-79.5"/>
<text text-anchor="middle" x="1260.5" y="-67.5" font-family="Helvetica,sans-Serif" font-size="10.00">assets/big_donut_displaylists.h</text>
</a>
</g>
</g>
<!-- Node1&#45;&gt;Node19 -->
<g id="edge57_Node000001_Node000019" class="edge">
<title>Node1&#45;&gt;Node19</title>
<g id="a_edge57_Node000001_Node000019"><a xlink:title=" ">
<path fill="none" stroke="#63b8ff" d="M1448.61,-120.95C1404.67,-109.29 1343,-92.91 1302.41,-82.13"/>
<polygon fill="#63b8ff" stroke="#63b8ff" points="1303.14,-78.7 1292.57,-79.52 1301.34,-85.47 1303.14,-78.7"/>
</a>
</g>
</g>
<!-- Node20 -->
<g id="Node000020" class="node">
<title>Node20</title>
<g id="a_Node000020"><a xlink:href="choco__mountain__displaylists_8h.html" target="_top" xlink:title=" ">
<polygon fill="white" stroke="#666666" points="1494,-85 1363,-85 1363,-55 1494,-55 1494,-85"/>
<text text-anchor="start" x="1371" y="-73" font-family="Helvetica,sans-Serif" font-size="10.00">assets/choco_mountain</text>
<text text-anchor="middle" x="1428.5" y="-62" font-family="Helvetica,sans-Serif" font-size="10.00">_displaylists.h</text>
</a>
</g>
</g>
<!-- Node1&#45;&gt;Node20 -->
<g id="edge61_Node000001_Node000020" class="edge">
<title>Node1&#45;&gt;Node20</title>
<g id="a_edge61_Node000001_Node000020"><a xlink:title=" ">
<path fill="none" stroke="#63b8ff" d="M1485.3,-120.8C1475.66,-112.34 1463.25,-101.46 1452.49,-92.03"/>
<polygon fill="#63b8ff" stroke="#63b8ff" points="1454.48,-89.12 1444.66,-85.16 1449.87,-94.39 1454.48,-89.12"/>
</a>
</g>
</g>
<!-- Node21 -->
<g id="Node000021" class="node">
<title>Node21</title>
<g id="a_Node000021"><a xlink:href="bowsers__castle__displaylists_8h.html" target="_top" xlink:title=" ">
<polygon fill="white" stroke="#666666" points="1638.5,-85 1512.5,-85 1512.5,-55 1638.5,-55 1638.5,-85"/>
<text text-anchor="start" x="1520.5" y="-73" font-family="Helvetica,sans-Serif" font-size="10.00">assets/bowsers_castle</text>
<text text-anchor="middle" x="1575.5" y="-62" font-family="Helvetica,sans-Serif" font-size="10.00">_displaylists.h</text>
</a>
</g>
</g>
<!-- Node1&#45;&gt;Node21 -->
<g id="edge65_Node000001_Node000021" class="edge">
<title>Node1&#45;&gt;Node21</title>
<g id="a_edge65_Node000001_Node000021"><a xlink:title=" ">
<path fill="none" stroke="#63b8ff" d="M1517.92,-120.8C1527.79,-112.26 1540.52,-101.25 1551.5,-91.75"/>
<polygon fill="#63b8ff" stroke="#63b8ff" points="1553.85,-94.35 1559.12,-85.16 1549.27,-89.06 1553.85,-94.35"/>
</a>
</g>
</g>
<!-- Node22 -->
<g id="Node000022" class="node">
<title>Node22</title>
<g id="a_Node000022"><a xlink:href="skyscraper__displaylists_8h.html" target="_top" xlink:title=" ">
<polygon fill="white" stroke="#666666" points="1830,-79.5 1657,-79.5 1657,-60.5 1830,-60.5 1830,-79.5"/>
<text text-anchor="middle" x="1743.5" y="-67.5" font-family="Helvetica,sans-Serif" font-size="10.00">assets/skyscraper_displaylists.h</text>
</a>
</g>
</g>
<!-- Node1&#45;&gt;Node22 -->
<g id="edge69_Node000001_Node000022" class="edge">
<title>Node1&#45;&gt;Node22</title>
<g id="a_edge69_Node000001_Node000022"><a xlink:title=" ">
<path fill="none" stroke="#63b8ff" d="M1554.61,-120.95C1598.73,-109.29 1660.66,-92.91 1701.41,-82.13"/>
<polygon fill="#63b8ff" stroke="#63b8ff" points="1702.52,-85.46 1711.29,-79.52 1700.73,-78.69 1702.52,-85.46"/>
</a>
</g>
</g>
<!-- Node23 -->
<g id="Node000023" class="node">
<title>Node23</title>
<g id="a_Node000023"><a xlink:href="block__fort__displaylists_8h.html" target="_top" xlink:title=" ">
<polygon fill="white" stroke="#666666" points="2018.5,-79.5 1848.5,-79.5 1848.5,-60.5 2018.5,-60.5 2018.5,-79.5"/>
<text text-anchor="middle" x="1933.5" y="-67.5" font-family="Helvetica,sans-Serif" font-size="10.00">assets/block_fort_displaylists.h</text>
</a>
</g>
</g>
<!-- Node1&#45;&gt;Node23 -->
<g id="edge73_Node000001_Node000023" class="edge">
<title>Node1&#45;&gt;Node23</title>
<g id="a_edge73_Node000001_Node000023"><a xlink:title=" ">
<path fill="none" stroke="#63b8ff" d="M1555.07,-127.09C1621.72,-117.25 1739.02,-99.91 1839.5,-85 1848.16,-83.72 1857.26,-82.36 1866.26,-81.02"/>
<polygon fill="#63b8ff" stroke="#63b8ff" points="1866.96,-84.46 1876.34,-79.52 1865.93,-77.53 1866.96,-84.46"/>
</a>
</g>
</g>
<!-- Node24 -->
<g id="Node000024" class="node">
<title>Node24</title>
<g id="a_Node000024"><a xlink:href="double__deck__displaylists_8h.html" target="_top" xlink:title=" ">
<polygon fill="white" stroke="#666666" points="2150,-85 2037,-85 2037,-55 2150,-55 2150,-85"/>
<text text-anchor="start" x="2045" y="-73" font-family="Helvetica,sans-Serif" font-size="10.00">assets/double_deck</text>
<text text-anchor="middle" x="2093.5" y="-62" font-family="Helvetica,sans-Serif" font-size="10.00">_displaylists.h</text>
</a>
</g>
</g>
<!-- Node1&#45;&gt;Node24 -->
<g id="edge77_Node000001_Node000024" class="edge">
<title>Node1&#45;&gt;Node24</title>
<g id="a_edge77_Node000001_Node000024"><a xlink:title=" ">
<path fill="none" stroke="#63b8ff" d="M1555.13,-131.93C1648.78,-126.13 1848.32,-111.81 2026.61,-85.01"/>
<polygon fill="#63b8ff" stroke="#63b8ff" points="2027.33,-88.44 2036.69,-83.48 2026.28,-81.52 2027.33,-88.44"/>
</a>
</g>
</g>
<!-- Node3 -->
<g id="Node000003" class="node">
<title>Node3</title>
<g id="a_Node000003"><a xlink:title=" ">
<polygon fill="#e0e0e0" stroke="#999999" points="1435.5,-19 1355.5,-19 1355.5,0 1435.5,0 1435.5,-19"/>
<text text-anchor="middle" x="1395.5" y="-7" font-family="Helvetica,sans-Serif" font-size="10.00">libultraship.h</text>
</a>
</g>
</g>
<!-- Node2&#45;&gt;Node3 -->
<g id="edge2_Node000002_Node000003" class="edge">
<title>Node2&#45;&gt;Node3</title>
<g id="a_edge2_Node000002_Node000003"><a xlink:title=" ">
<path fill="none" stroke="#63b8ff" d="M2167.76,-56.19C2164.98,-55.75 2162.21,-55.35 2159.5,-55 1847.32,-14.77 1762.54,-53.41 1445.95,-19"/>
<polygon fill="#63b8ff" stroke="#63b8ff" points="1445.88,-15.47 1435.55,-17.86 1445.11,-22.43 1445.88,-15.47"/>
</a>
</g>
</g>
<!-- Node4 -->
<g id="Node000004" class="node">
<title>Node4</title>
<g id="a_Node000004"><a xlink:title=" ">
<polygon fill="#e0e0e0" stroke="#999999" points="1531.5,-19 1453.5,-19 1453.5,0 1531.5,0 1531.5,-19"/>
<text text-anchor="middle" x="1492.5" y="-7" font-family="Helvetica,sans-Serif" font-size="10.00">libultra/gbi.h</text>
</a>
</g>
</g>
<!-- Node2&#45;&gt;Node4 -->
<g id="edge3_Node000002_Node000004" class="edge">
<title>Node2&#45;&gt;Node4</title>
<g id="a_edge3_Node000002_Node000004"><a xlink:title=" ">
<path fill="none" stroke="#63b8ff" d="M2167.76,-56.21C2164.97,-55.77 2162.21,-55.36 2159.5,-55 1890.09,-19.21 1816.6,-49.8 1542.03,-18.89"/>
<polygon fill="#63b8ff" stroke="#63b8ff" points="1542.09,-15.37 1531.76,-17.71 1541.3,-22.33 1542.09,-15.37"/>
</a>
</g>
</g>
<!-- Node5 -->
<g id="Node000005" class="node">
<title>Node5</title>
<g id="a_Node000005"><a xlink:href="align__asset__macro_8h.html" target="_top" xlink:title=" ">
<polygon fill="white" stroke="#666666" points="1667,-19 1550,-19 1550,0 1667,0 1667,-19"/>
<text text-anchor="middle" x="1608.5" y="-7" font-family="Helvetica,sans-Serif" font-size="10.00">align_asset_macro.h</text>
</a>
</g>
</g>
<!-- Node2&#45;&gt;Node5 -->
<g id="edge4_Node000002_Node000005" class="edge">
<title>Node2&#45;&gt;Node5</title>
<g id="a_edge4_Node000002_Node000005"><a xlink:title=" ">
<path fill="none" stroke="#63b8ff" d="M2167.75,-56.29C2164.96,-55.82 2162.21,-55.39 2159.5,-55 1986.91,-30.1 1781.74,-18.13 1677.19,-13.28"/>
<polygon fill="#63b8ff" stroke="#63b8ff" points="1677.23,-9.78 1667.08,-12.82 1676.91,-16.77 1677.23,-9.78"/>
</a>
</g>
</g>
<!-- Node6&#45;&gt;Node3 -->
<g id="edge6_Node000006_Node000003" class="edge">
<title>Node6&#45;&gt;Node3</title>
<g id="a_edge6_Node000006_Node000003"><a xlink:title=" ">
<path fill="none" stroke="#63b8ff" d="M2303.36,-56.27C2300.37,-55.8 2297.41,-55.37 2294.5,-55 1922.66,-8.02 1822.21,-58.5 1445.63,-18.96"/>
<polygon fill="#63b8ff" stroke="#63b8ff" points="1445.87,-15.46 1435.55,-17.88 1445.13,-22.42 1445.87,-15.46"/>
</a>
</g>
</g>
<!-- Node6&#45;&gt;Node4 -->
<g id="edge7_Node000006_Node000004" class="edge">
<title>Node6&#45;&gt;Node4</title>
<g id="a_edge7_Node000006_Node000004"><a xlink:title=" ">
<path fill="none" stroke="#63b8ff" d="M2303.36,-56.29C2300.37,-55.81 2297.4,-55.37 2294.5,-55 1965.45,-12.52 1876.27,-54.86 1541.72,-18.84"/>
<polygon fill="#63b8ff" stroke="#63b8ff" points="1542.07,-15.36 1531.75,-17.75 1541.31,-22.32 1542.07,-15.36"/>
</a>
</g>
</g>
<!-- Node6&#45;&gt;Node5 -->
<g id="edge8_Node000006_Node000005" class="edge">
<title>Node6&#45;&gt;Node5</title>
<g id="a_edge8_Node000006_Node000005"><a xlink:title=" ">
<path fill="none" stroke="#63b8ff" d="M2303.35,-56.35C2300.36,-55.85 2297.4,-55.4 2294.5,-55 2069.97,-24.07 1801.04,-14.54 1677.16,-11.68"/>
<polygon fill="#63b8ff" stroke="#63b8ff" points="1677.14,-8.18 1667.06,-11.46 1676.98,-15.18 1677.14,-8.18"/>
</a>
</g>
</g>
<!-- Node7&#45;&gt;Node3 -->
<g id="edge10_Node000007_Node000003" class="edge">
<title>Node7&#45;&gt;Node3</title>
<g id="a_edge10_Node000007_Node000003"><a xlink:title=" ">
<path fill="none" stroke="#63b8ff" d="M2435.89,-56.26C2432.72,-55.79 2429.58,-55.36 2426.5,-55 1996.03,-4.4 1880.61,-63.52 1445.56,-18.94"/>
<polygon fill="#63b8ff" stroke="#63b8ff" points="1445.86,-15.45 1435.55,-17.9 1445.14,-22.41 1445.86,-15.45"/>
</a>
</g>
</g>
<!-- Node7&#45;&gt;Node4 -->
<g id="edge11_Node000007_Node000004" class="edge">
<title>Node7&#45;&gt;Node4</title>
<g id="a_edge11_Node000007_Node000004"><a xlink:title=" ">
<path fill="none" stroke="#63b8ff" d="M2435.89,-56.27C2432.72,-55.8 2429.58,-55.37 2426.5,-55 2038.97,-8.65 1934.72,-59.84 1541.97,-18.86"/>
<polygon fill="#63b8ff" stroke="#63b8ff" points="1542.06,-15.35 1531.75,-17.78 1541.33,-22.31 1542.06,-15.35"/>
</a>
</g>
</g>
<!-- Node7&#45;&gt;Node5 -->
<g id="edge12_Node000007_Node000005" class="edge">
<title>Node7&#45;&gt;Node5</title>
<g id="a_edge12_Node000007_Node000005"><a xlink:title=" ">
<path fill="none" stroke="#63b8ff" d="M2435.88,-56.32C2432.71,-55.84 2429.57,-55.39 2426.5,-55 2150.33,-20.05 1818.3,-12.53 1677.25,-10.93"/>
<polygon fill="#63b8ff" stroke="#63b8ff" points="1677.06,-7.43 1667.03,-10.82 1676.99,-14.42 1677.06,-7.43"/>
</a>
</g>
</g>
<!-- Node8&#45;&gt;Node3 -->
<g id="edge14_Node000008_Node000003" class="edge">
<title>Node8&#45;&gt;Node3</title>
<g id="a_edge14_Node000008_Node000003"><a xlink:title=" ">
<path fill="none" stroke="#63b8ff" d="M2574.88,-56.18C2572.06,-55.73 2569.25,-55.34 2566.5,-55 2074.68,5.36 1942.63,-68.73 1445.86,-18.96"/>
<polygon fill="#63b8ff" stroke="#63b8ff" points="1445.85,-15.44 1435.55,-17.92 1445.14,-22.41 1445.85,-15.44"/>
</a>
</g>
</g>
<!-- Node8&#45;&gt;Node4 -->
<g id="edge15_Node000008_Node000004" class="edge">
<title>Node8&#45;&gt;Node4</title>
<g id="a_edge15_Node000008_Node000004"><a xlink:title=" ">
<path fill="none" stroke="#63b8ff" d="M2574.88,-56.19C2572.05,-55.74 2569.25,-55.34 2566.5,-55 2117.46,0.8 1996.66,-65.09 1541.87,-18.84"/>
<polygon fill="#63b8ff" stroke="#63b8ff" points="1542.05,-15.34 1531.75,-17.79 1541.34,-22.3 1542.05,-15.34"/>
</a>
</g>
</g>
<!-- Node8&#45;&gt;Node5 -->
<g id="edge16_Node000008_Node000005" class="edge">
<title>Node8&#45;&gt;Node5</title>
<g id="a_edge16_Node000008_Node000005"><a xlink:title=" ">
<path fill="none" stroke="#63b8ff" d="M2574.88,-56.23C2572.05,-55.77 2569.25,-55.36 2566.5,-55 2235.3,-11.94 1834.94,-9.04 1677.15,-9.8"/>
<polygon fill="#63b8ff" stroke="#63b8ff" points="1677.09,-6.3 1667.11,-9.86 1677.13,-13.3 1677.09,-6.3"/>
</a>
</g>
</g>
<!-- Node9&#45;&gt;Node3 -->
<g id="edge18_Node000009_Node000003" class="edge">
<title>Node9&#45;&gt;Node3</title>
<g id="a_edge18_Node000009_Node000003"><a xlink:title=" ">
<path fill="none" stroke="#63b8ff" d="M2705.56,-55.87C2702.84,-55.55 2700.15,-55.26 2697.5,-55 2146.38,-1.41 2000.6,-73.86 1445.81,-18.95"/>
<polygon fill="#63b8ff" stroke="#63b8ff" points="1445.85,-15.44 1435.55,-17.93 1445.15,-22.4 1445.85,-15.44"/>
</a>
</g>
</g>
<!-- Node9&#45;&gt;Node4 -->
<g id="edge19_Node000009_Node000004" class="edge">
<title>Node9&#45;&gt;Node4</title>
<g id="a_edge19_Node000009_Node000004"><a xlink:title=" ">
<path fill="none" stroke="#63b8ff" d="M2705.55,-55.87C2702.84,-55.55 2700.15,-55.26 2697.5,-55 2189.32,-4.97 2054.65,-70.19 1542,-18.85"/>
<polygon fill="#63b8ff" stroke="#63b8ff" points="1542.05,-15.33 1531.75,-17.81 1541.34,-22.3 1542.05,-15.33"/>
</a>
</g>
</g>
<!-- Node9&#45;&gt;Node5 -->
<g id="edge20_Node000009_Node000005" class="edge">
<title>Node9&#45;&gt;Node5</title>
<g id="a_edge20_Node000009_Node000005"><a xlink:title=" ">
<path fill="none" stroke="#63b8ff" d="M2705.55,-55.91C2702.84,-55.58 2700.15,-55.27 2697.5,-55 2313.38,-15.3 1849.62,-10.62 1677.31,-10.35"/>
<polygon fill="#63b8ff" stroke="#63b8ff" points="1677.12,-6.85 1667.12,-10.34 1677.11,-13.85 1677.12,-6.85"/>
</a>
</g>
</g>
<!-- Node10&#45;&gt;Node3 -->
<g id="edge22_Node000010_Node000003" class="edge">
<title>Node10&#45;&gt;Node3</title>
<g id="a_edge22_Node000010_Node000003"><a xlink:title=" ">
<path fill="none" stroke="#63b8ff" d="M2874.75,-56.05C2871.97,-55.66 2869.21,-55.3 2866.5,-55 2241.59,14.88 2075.42,-80.16 1445.79,-18.94"/>
<polygon fill="#63b8ff" stroke="#63b8ff" points="1445.84,-15.43 1435.55,-17.94 1445.16,-22.4 1445.84,-15.43"/>
</a>
</g>
</g>
<!-- Node10&#45;&gt;Node4 -->
<g id="edge23_Node000010_Node000004" class="edge">
<title>Node10&#45;&gt;Node4</title>
<g id="a_edge23_Node000010_Node000004"><a xlink:title=" ">
<path fill="none" stroke="#63b8ff" d="M2874.75,-56.06C2871.97,-55.66 2869.21,-55.31 2866.5,-55 2284.39,10.63 2129.43,-76.51 1541.74,-18.81"/>
<polygon fill="#63b8ff" stroke="#63b8ff" points="1542.04,-15.33 1531.75,-17.82 1541.35,-22.29 1542.04,-15.33"/>
</a>
</g>
</g>
<!-- Node10&#45;&gt;Node5 -->
<g id="edge24_Node000010_Node000005" class="edge">
<title>Node10&#45;&gt;Node5</title>
<g id="a_edge24_Node000010_Node000005"><a xlink:title=" ">
<path fill="none" stroke="#63b8ff" d="M2874.75,-56.09C2871.97,-55.68 2869.21,-55.32 2866.5,-55 2633.22,-27.73 1904.81,-14.88 1677.18,-11.46"/>
<polygon fill="#63b8ff" stroke="#63b8ff" points="1677.1,-7.96 1667.05,-11.31 1676.99,-14.96 1677.1,-7.96"/>
</a>
</g>
</g>
<!-- Node11&#45;&gt;Node3 -->
<g id="edge26_Node000011_Node000003" class="edge">
<title>Node11&#45;&gt;Node3</title>
<g id="a_edge26_Node000011_Node000003"><a xlink:title=" ">
<path fill="none" stroke="#63b8ff" d="M149.09,-56.06C152.26,-55.67 155.41,-55.31 158.5,-55 617.67,-8.67 1176.96,-8.76 1345.27,-9.99"/>
<polygon fill="#63b8ff" stroke="#63b8ff" points="1345.3,-13.49 1355.32,-10.06 1345.35,-6.49 1345.3,-13.49"/>
</a>
</g>
</g>
<!-- Node11&#45;&gt;Node4 -->
<g id="edge27_Node000011_Node000004" class="edge">
<title>Node11&#45;&gt;Node4</title>
<g id="a_edge27_Node000011_Node000004"><a xlink:title=" ">
<path fill="none" stroke="#63b8ff" d="M149.08,-56.02C152.26,-55.64 155.41,-55.3 158.5,-55 724.28,-0.19 873.92,-76.11 1443.16,-18.96"/>
<polygon fill="#63b8ff" stroke="#63b8ff" points="1443.68,-22.42 1453.27,-17.93 1442.97,-15.46 1443.68,-22.42"/>
</a>
</g>
</g>
<!-- Node11&#45;&gt;Node5 -->
<g id="edge28_Node000011_Node000005" class="edge">
<title>Node11&#45;&gt;Node5</title>
<g id="a_edge28_Node000011_Node000005"><a xlink:title=" ">
<path fill="none" stroke="#63b8ff" d="M149.08,-56.02C152.26,-55.64 155.41,-55.3 158.5,-55 766.84,3.33 926.1,-64.43 1539.95,-18.94"/>
<polygon fill="#63b8ff" stroke="#63b8ff" points="1540.22,-22.43 1549.93,-18.19 1539.7,-15.45 1540.22,-22.43"/>
</a>
</g>
</g>
<!-- Node12&#45;&gt;Node3 -->
<g id="edge30_Node000012_Node000003" class="edge">
<title>Node12&#45;&gt;Node3</title>
<g id="a_edge30_Node000012_Node000003"><a xlink:title=" ">
<path fill="none" stroke="#63b8ff" d="M293.63,-56.16C296.62,-55.73 299.59,-55.34 302.5,-55 508.57,-30.91 1159.08,-15.53 1345.26,-11.53"/>
<polygon fill="#63b8ff" stroke="#63b8ff" points="1345.4,-15.03 1355.32,-11.32 1345.25,-8.03 1345.4,-15.03"/>
</a>
</g>
</g>
<!-- Node12&#45;&gt;Node4 -->
<g id="edge31_Node000012_Node000004" class="edge">
<title>Node12&#45;&gt;Node4</title>
<g id="a_edge31_Node000012_Node000004"><a xlink:title=" ">
<path fill="none" stroke="#63b8ff" d="M293.63,-56.13C296.62,-55.71 299.59,-55.33 302.5,-55 803.81,1.27 937.64,-70.45 1443.16,-18.96"/>
<polygon fill="#63b8ff" stroke="#63b8ff" points="1443.68,-22.43 1453.27,-17.92 1442.97,-15.46 1443.68,-22.43"/>
</a>
</g>
</g>
<!-- Node12&#45;&gt;Node5 -->
<g id="edge32_Node000012_Node000005" class="edge">
<title>Node12&#45;&gt;Node5</title>
<g id="a_edge32_Node000012_Node000005"><a xlink:title=" ">
<path fill="none" stroke="#63b8ff" d="M293.63,-56.12C296.62,-55.7 299.59,-55.32 302.5,-55 846.25,5.36 989.91,-60.37 1539.75,-18.96"/>
<polygon fill="#63b8ff" stroke="#63b8ff" points="1540.23,-22.43 1549.93,-18.18 1539.69,-15.45 1540.23,-22.43"/>
</a>
</g>
</g>
<!-- Node13&#45;&gt;Node3 -->
<g id="edge34_Node000013_Node000003" class="edge">
<title>Node13&#45;&gt;Node3</title>
<g id="a_edge34_Node000013_Node000003"><a xlink:title=" ">
<path fill="none" stroke="#63b8ff" d="M431.25,-56.29C434.37,-55.81 437.47,-55.38 440.5,-55 784.39,-12.36 1202.53,-9.67 1345.1,-10.13"/>
<polygon fill="#63b8ff" stroke="#63b8ff" points="1345.27,-13.63 1355.28,-10.17 1345.3,-6.63 1345.27,-13.63"/>
</a>
</g>
</g>
<!-- Node13&#45;&gt;Node4 -->
<g id="edge35_Node000013_Node000004" class="edge">
<title>Node13&#45;&gt;Node4</title>
<g id="a_edge35_Node000013_Node000004"><a xlink:title=" ">
<path fill="none" stroke="#63b8ff" d="M431.24,-56.25C434.37,-55.78 437.47,-55.36 440.5,-55 880.55,-2.83 998.69,-65.09 1443.05,-18.98"/>
<polygon fill="#63b8ff" stroke="#63b8ff" points="1443.69,-22.43 1453.27,-17.91 1442.96,-15.47 1443.69,-22.43"/>
</a>
</g>
</g>
<!-- Node13&#45;&gt;Node5 -->
<g id="edge36_Node000013_Node000005" class="edge">
<title>Node13&#45;&gt;Node5</title>
<g id="a_edge36_Node000013_Node000005"><a xlink:title=" ">
<path fill="none" stroke="#63b8ff" d="M431.24,-56.24C434.36,-55.77 437.46,-55.36 440.5,-55 923.02,1.44 1051.11,-56.57 1539.79,-18.96"/>
<polygon fill="#63b8ff" stroke="#63b8ff" points="1540.23,-22.43 1549.93,-18.17 1539.69,-15.45 1540.23,-22.43"/>
</a>
</g>
</g>
<!-- Node14&#45;&gt;Node3 -->
<g id="edge38_Node000014_Node000003" class="edge">
<title>Node14&#45;&gt;Node3</title>
<g id="a_edge38_Node000014_Node000003"><a xlink:title=" ">
<path fill="none" stroke="#63b8ff" d="M571.88,-56.21C574.79,-55.76 577.67,-55.36 580.5,-55 868.33,-18.55 1217.07,-11.94 1345.18,-10.75"/>
<polygon fill="#63b8ff" stroke="#63b8ff" points="1345.49,-14.25 1355.46,-10.67 1345.43,-7.25 1345.49,-14.25"/>
</a>
</g>
</g>
<!-- Node14&#45;&gt;Node4 -->
<g id="edge39_Node000014_Node000004" class="edge">
<title>Node14&#45;&gt;Node4</title>
<g id="a_edge39_Node000014_Node000004"><a xlink:title=" ">
<path fill="none" stroke="#63b8ff" d="M571.87,-56.16C574.78,-55.73 577.67,-55.34 580.5,-55 958.83,-9.57 1060.69,-59.73 1443.31,-18.96"/>
<polygon fill="#63b8ff" stroke="#63b8ff" points="1443.7,-22.44 1453.27,-17.89 1442.95,-15.48 1443.7,-22.44"/>
</a>
</g>
</g>
<!-- Node14&#45;&gt;Node5 -->
<g id="edge40_Node000014_Node000005" class="edge">
<title>Node14&#45;&gt;Node5</title>
<g id="a_edge40_Node000014_Node000005"><a xlink:title=" ">
<path fill="none" stroke="#63b8ff" d="M571.87,-56.15C574.78,-55.72 577.67,-55.33 580.5,-55 1001.21,-5.36 1113.19,-52.76 1539.79,-18.96"/>
<polygon fill="#63b8ff" stroke="#63b8ff" points="1540.24,-22.44 1549.93,-18.15 1539.68,-15.46 1540.24,-22.44"/>
</a>
</g>
</g>
<!-- Node15&#45;&gt;Node3 -->
<g id="edge42_Node000015_Node000003" class="edge">
<title>Node15&#45;&gt;Node3</title>
<g id="a_edge42_Node000015_Node000003"><a xlink:title=" ">
<path fill="none" stroke="#63b8ff" d="M717.13,-56.32C720.29,-55.84 723.43,-55.4 726.5,-55 956.34,-25.43 1233.28,-14.94 1345.07,-11.74"/>
<polygon fill="#63b8ff" stroke="#63b8ff" points="1345.47,-15.23 1355.37,-11.45 1345.27,-8.23 1345.47,-15.23"/>
</a>
</g>
</g>
<!-- Node15&#45;&gt;Node4 -->
<g id="edge43_Node000015_Node000004" class="edge">
<title>Node15&#45;&gt;Node4</title>
<g id="a_edge43_Node000015_Node000004"><a xlink:title=" ">
<path fill="none" stroke="#63b8ff" d="M717.12,-56.26C720.29,-55.79 723.43,-55.37 726.5,-55 1040.47,-17.21 1125.28,-54.15 1443.31,-18.98"/>
<polygon fill="#63b8ff" stroke="#63b8ff" points="1443.72,-22.45 1453.27,-17.86 1442.94,-15.5 1443.72,-22.45"/>
</a>
</g>
</g>
<!-- Node15&#45;&gt;Node5 -->
<g id="edge44_Node000015_Node000005" class="edge">
<title>Node15&#45;&gt;Node5</title>
<g id="a_edge44_Node000015_Node000005"><a xlink:title=" ">
<path fill="none" stroke="#63b8ff" d="M717.12,-56.24C720.28,-55.78 723.42,-55.36 726.5,-55 1082.91,-13.17 1177.94,-48.83 1539.96,-18.96"/>
<polygon fill="#63b8ff" stroke="#63b8ff" points="1540.25,-22.45 1549.93,-18.12 1539.67,-15.47 1540.25,-22.45"/>
</a>
</g>
</g>
<!-- Node16&#45;&gt;Node3 -->
<g id="edge46_Node000016_Node000003" class="edge">
<title>Node16&#45;&gt;Node3</title>
<g id="a_edge46_Node000016_Node000003"><a xlink:title=" ">
<path fill="none" stroke="#63b8ff" d="M869.58,-56.28C872.59,-55.82 875.57,-55.39 878.5,-55 1048.93,-32.02 1252.66,-18.57 1345.26,-13.21"/>
<polygon fill="#63b8ff" stroke="#63b8ff" points="1345.68,-16.69 1355.46,-12.63 1345.28,-9.71 1345.68,-16.69"/>
</a>
</g>
</g>
<!-- Node16&#45;&gt;Node4 -->
<g id="edge47_Node000016_Node000004" class="edge">
<title>Node16&#45;&gt;Node4</title>
<g id="a_edge47_Node000016_Node000004"><a xlink:title=" ">
<path fill="none" stroke="#63b8ff" d="M869.57,-56.2C872.58,-55.76 875.57,-55.36 878.5,-55 1125.37,-24.52 1192.47,-48.38 1443.12,-19.02"/>
<polygon fill="#63b8ff" stroke="#63b8ff" points="1443.74,-22.47 1453.26,-17.82 1442.92,-15.52 1443.74,-22.47"/>
</a>
</g>
</g>
<!-- Node16&#45;&gt;Node5 -->
<g id="edge48_Node000016_Node000005" class="edge">
<title>Node16&#45;&gt;Node5</title>
<g id="a_edge48_Node000016_Node000005"><a xlink:title=" ">
<path fill="none" stroke="#63b8ff" d="M869.57,-56.17C872.58,-55.74 875.57,-55.35 878.5,-55 1167.81,-20.63 1245.29,-44.73 1539.8,-18.98"/>
<polygon fill="#63b8ff" stroke="#63b8ff" points="1540.27,-22.46 1549.92,-18.09 1539.65,-15.48 1540.27,-22.46"/>
</a>
</g>
</g>
<!-- Node17&#45;&gt;Node3 -->
<g id="edge50_Node000017_Node000003" class="edge">
<title>Node17&#45;&gt;Node3</title>
<g id="a_edge50_Node000017_Node000003"><a xlink:title=" ">
<path fill="none" stroke="#63b8ff" d="M1011.02,-56.57C1014.22,-56.02 1017.4,-55.49 1020.5,-55 1136.23,-36.75 1273.13,-22.29 1345.24,-15.23"/>
<polygon fill="#63b8ff" stroke="#63b8ff" points="1345.79,-18.69 1355.4,-14.24 1345.11,-11.73 1345.79,-18.69"/>
</a>
</g>
</g>
<!-- Node17&#45;&gt;Node4 -->
<g id="edge51_Node000017_Node000004" class="edge">
<title>Node17&#45;&gt;Node4</title>
<g id="a_edge51_Node000017_Node000004"><a xlink:title=" ">
<path fill="none" stroke="#63b8ff" d="M1011,-56.44C1014.21,-55.92 1017.39,-55.44 1020.5,-55 1204.58,-29.12 1255.25,-43.02 1443.32,-19.03"/>
<polygon fill="#63b8ff" stroke="#63b8ff" points="1443.78,-22.5 1453.25,-17.75 1442.89,-15.56 1443.78,-22.5"/>
</a>
</g>
</g>
<!-- Node17&#45;&gt;Node5 -->
<g id="edge52_Node000017_Node000005" class="edge">
<title>Node17&#45;&gt;Node5</title>
<g id="a_edge52_Node000017_Node000005"><a xlink:title=" ">
<path fill="none" stroke="#63b8ff" d="M1011.38,-56.32C1014.46,-55.84 1017.51,-55.4 1020.5,-55 1246.9,-24.96 1308.19,-40.91 1539.83,-19"/>
<polygon fill="#63b8ff" stroke="#63b8ff" points="1540.3,-22.47 1549.92,-18.03 1539.63,-15.5 1540.3,-22.47"/>
</a>
</g>
</g>
<!-- Node18&#45;&gt;Node3 -->
<g id="edge54_Node000018_Node000003" class="edge">
<title>Node18&#45;&gt;Node3</title>
<g id="a_edge54_Node000018_Node000003"><a xlink:title=" ">
<path fill="none" stroke="#63b8ff" d="M1157.55,-56.59C1213.55,-45.75 1293.75,-30.21 1345.24,-20.24"/>
<polygon fill="#63b8ff" stroke="#63b8ff" points="1345.98,-23.66 1355.13,-18.32 1344.65,-16.79 1345.98,-23.66"/>
</a>
</g>
</g>
<!-- Node18&#45;&gt;Node4 -->
<g id="edge55_Node000018_Node000004" class="edge">
<title>Node18&#45;&gt;Node4</title>
<g id="a_edge55_Node000018_Node000004"><a xlink:title=" ">
<path fill="none" stroke="#63b8ff" d="M1157.56,-56.49C1160.58,-55.97 1163.57,-55.47 1166.5,-55 1286.27,-35.78 1319.61,-37.75 1443.25,-19.12"/>
<polygon fill="#63b8ff" stroke="#63b8ff" points="1444.13,-22.53 1453.49,-17.56 1443.08,-15.61 1444.13,-22.53"/>
</a>
</g>
</g>
<!-- Node18&#45;&gt;Node5 -->
<g id="edge56_Node000018_Node000005" class="edge">
<title>Node18&#45;&gt;Node5</title>
<g id="a_edge56_Node000018_Node000005"><a xlink:title=" ">
<path fill="none" stroke="#63b8ff" d="M1157.54,-56.37C1160.56,-55.88 1163.56,-55.42 1166.5,-55 1328.56,-31.71 1372.81,-37.13 1539.78,-19.04"/>
<polygon fill="#63b8ff" stroke="#63b8ff" points="1540.35,-22.5 1549.91,-17.93 1539.59,-15.54 1540.35,-22.5"/>
</a>
</g>
</g>
<!-- Node19&#45;&gt;Node3 -->
<g id="edge58_Node000019_Node000003" class="edge">
<title>Node19&#45;&gt;Node3</title>
<g id="a_edge58_Node000019_Node000003"><a xlink:title=" ">
<path fill="none" stroke="#63b8ff" d="M1280.13,-60.49C1302.83,-50.66 1340.4,-34.38 1366.47,-23.08"/>
<polygon fill="#63b8ff" stroke="#63b8ff" points="1368.06,-26.2 1375.85,-19.02 1365.28,-19.78 1368.06,-26.2"/>
</a>
</g>
</g>
<!-- Node19&#45;&gt;Node4 -->
<g id="edge59_Node000019_Node000004" class="edge">
<title>Node19&#45;&gt;Node4</title>
<g id="a_edge59_Node000019_Node000004"><a xlink:title=" ">
<path fill="none" stroke="#63b8ff" d="M1294.23,-60.49C1335.13,-50.18 1404.12,-32.78 1448.98,-21.47"/>
<polygon fill="#63b8ff" stroke="#63b8ff" points="1449.88,-24.86 1458.72,-19.02 1448.17,-18.07 1449.88,-24.86"/>
</a>
</g>
</g>
<!-- Node19&#45;&gt;Node5 -->
<g id="edge60_Node000019_Node000005" class="edge">
<title>Node19&#45;&gt;Node5</title>
<g id="a_edge60_Node000019_Node000005"><a xlink:title=" ">
<path fill="none" stroke="#63b8ff" d="M1311.1,-60.49C1373.86,-49.94 1480.74,-31.98 1547.83,-20.7"/>
<polygon fill="#63b8ff" stroke="#63b8ff" points="1548.56,-24.13 1557.84,-19.02 1547.39,-17.22 1548.56,-24.13"/>
</a>
</g>
</g>
<!-- Node20&#45;&gt;Node3 -->
<g id="edge62_Node000020_Node000003" class="edge">
<title>Node20&#45;&gt;Node3</title>
<g id="a_edge62_Node000020_Node000003"><a xlink:title=" ">
<path fill="none" stroke="#63b8ff" d="M1420.51,-54.84C1415.97,-46.78 1410.23,-36.62 1405.4,-28.06"/>
<polygon fill="#63b8ff" stroke="#63b8ff" points="1408.41,-26.26 1400.44,-19.27 1402.31,-29.7 1408.41,-26.26"/>
</a>
</g>
</g>
<!-- Node20&#45;&gt;Node4 -->
<g id="edge63_Node000020_Node000004" class="edge">
<title>Node20&#45;&gt;Node4</title>
<g id="a_edge63_Node000020_Node000004"><a xlink:title=" ">
<path fill="none" stroke="#63b8ff" d="M1443.99,-54.84C1453.47,-46.17 1465.61,-35.08 1475.38,-26.15"/>
<polygon fill="#63b8ff" stroke="#63b8ff" points="1477.89,-28.6 1482.91,-19.27 1473.17,-23.43 1477.89,-28.6"/>
</a>
</g>
</g>
<!-- Node20&#45;&gt;Node5 -->
<g id="edge64_Node000020_Node000005" class="edge">
<title>Node20&#45;&gt;Node5</title>
<g id="a_edge64_Node000020_Node000005"><a xlink:title=" ">
<path fill="none" stroke="#63b8ff" d="M1471.61,-54.99C1502.41,-44.98 1543.37,-31.67 1572.43,-22.22"/>
<polygon fill="#63b8ff" stroke="#63b8ff" points="1573.75,-25.47 1582.18,-19.05 1571.59,-18.82 1573.75,-25.47"/>
</a>
</g>
</g>
<!-- Node21&#45;&gt;Node3 -->
<g id="edge66_Node000021_Node000003" class="edge">
<title>Node21&#45;&gt;Node3</title>
<g id="a_edge66_Node000021_Node000003"><a xlink:title=" ">
<path fill="none" stroke="#63b8ff" d="M1532.39,-54.99C1501.59,-44.98 1460.63,-31.67 1431.57,-22.22"/>
<polygon fill="#63b8ff" stroke="#63b8ff" points="1432.41,-18.82 1421.82,-19.05 1430.25,-25.47 1432.41,-18.82"/>
</a>
</g>
</g>
<!-- Node21&#45;&gt;Node4 -->
<g id="edge67_Node000021_Node000004" class="edge">
<title>Node21&#45;&gt;Node4</title>
<g id="a_edge67_Node000021_Node000004"><a xlink:title=" ">
<path fill="none" stroke="#63b8ff" d="M1555.41,-54.84C1542.62,-45.83 1526.1,-34.18 1513.2,-25.09"/>
<polygon fill="#63b8ff" stroke="#63b8ff" points="1515.13,-22.17 1504.94,-19.27 1511.09,-27.89 1515.13,-22.17"/>
</a>
</g>
</g>
<!-- Node21&#45;&gt;Node5 -->
<g id="edge68_Node000021_Node000005" class="edge">
<title>Node21&#45;&gt;Node5</title>
<g id="a_edge68_Node000021_Node000005"><a xlink:title=" ">
<path fill="none" stroke="#63b8ff" d="M1583.49,-54.84C1588.03,-46.78 1593.77,-36.62 1598.6,-28.06"/>
<polygon fill="#63b8ff" stroke="#63b8ff" points="1601.69,-29.7 1603.56,-19.27 1595.59,-26.26 1601.69,-29.7"/>
</a>
</g>
</g>
<!-- Node22&#45;&gt;Node3 -->
<g id="edge70_Node000022_Node000003" class="edge">
<title>Node22&#45;&gt;Node3</title>
<g id="a_edge70_Node000022_Node000003"><a xlink:title=" ">
<path fill="none" stroke="#63b8ff" d="M1691.9,-60.47C1634.38,-50.94 1538.33,-34.95 1445.72,-19.2"/>
<polygon fill="#63b8ff" stroke="#63b8ff" points="1446.05,-15.71 1435.61,-17.48 1444.88,-22.61 1446.05,-15.71"/>
</a>
</g>
</g>
<!-- Node22&#45;&gt;Node4 -->
<g id="edge71_Node000022_Node000004" class="edge">
<title>Node22&#45;&gt;Node4</title>
<g id="a_edge71_Node000022_Node000004"><a xlink:title=" ">
<path fill="none" stroke="#63b8ff" d="M1707,-60.49C1662.57,-50.14 1587.49,-32.64 1538.97,-21.33"/>
<polygon fill="#63b8ff" stroke="#63b8ff" points="1539.58,-17.88 1529.04,-19.02 1537.99,-24.7 1539.58,-17.88"/>
</a>
</g>
</g>
<!-- Node22&#45;&gt;Node5 -->
<g id="edge72_Node000022_Node000005" class="edge">
<title>Node22&#45;&gt;Node5</title>
<g id="a_edge72_Node000022_Node000005"><a xlink:title=" ">
<path fill="none" stroke="#63b8ff" d="M1723.87,-60.49C1701.17,-50.66 1663.6,-34.38 1637.53,-23.08"/>
<polygon fill="#63b8ff" stroke="#63b8ff" points="1638.72,-19.78 1628.15,-19.02 1635.94,-26.2 1638.72,-19.78"/>
</a>
</g>
</g>
<!-- Node23&#45;&gt;Node3 -->
<g id="edge74_Node000023_Node000003" class="edge">
<title>Node23&#45;&gt;Node3</title>
<g id="a_edge74_Node000023_Node000003"><a xlink:title=" ">
<path fill="none" stroke="#63b8ff" d="M1879.89,-60.48C1866.7,-58.53 1852.61,-56.57 1839.5,-55 1667.72,-34.4 1620.99,-41.79 1445.65,-19.05"/>
<polygon fill="#63b8ff" stroke="#63b8ff" points="1445.94,-15.55 1435.57,-17.72 1445.03,-22.49 1445.94,-15.55"/>
</a>
</g>
</g>
<!-- Node23&#45;&gt;Node4 -->
<g id="edge75_Node000023_Node000004" class="edge">
<title>Node23&#45;&gt;Node4</title>
<g id="a_edge75_Node000023_Node000004"><a xlink:title=" ">
<path fill="none" stroke="#63b8ff" d="M1877.87,-60.45C1865.26,-58.59 1851.93,-56.68 1839.5,-55 1707.29,-37.17 1673.49,-38.41 1541.5,-19 1541.4,-18.99 1541.3,-18.97 1541.2,-18.96"/>
<polygon fill="#63b8ff" stroke="#63b8ff" points="1541.94,-15.53 1531.52,-17.46 1540.87,-22.45 1541.94,-15.53"/>
</a>
</g>
</g>
<!-- Node23&#45;&gt;Node5 -->
<g id="edge76_Node000023_Node000005" class="edge">
<title>Node23&#45;&gt;Node5</title>
<g id="a_edge76_Node000023_Node000005"><a xlink:title=" ">
<path fill="none" stroke="#63b8ff" d="M1886.24,-60.49C1827.87,-49.99 1728.64,-32.12 1665.93,-20.84"/>
<polygon fill="#63b8ff" stroke="#63b8ff" points="1666.28,-17.34 1655.81,-19.02 1665.04,-24.23 1666.28,-17.34"/>
</a>
</g>
</g>
<!-- Node24&#45;&gt;Node3 -->
<g id="edge78_Node000024_Node000003" class="edge">
<title>Node24&#45;&gt;Node3</title>
<g id="a_edge78_Node000024_Node000003"><a xlink:title=" ">
<path fill="none" stroke="#63b8ff" d="M2036.71,-56.4C2033.6,-55.88 2030.52,-55.41 2027.5,-55 1773.54,-20.42 1704.09,-48.5 1445.62,-18.99"/>
<polygon fill="#63b8ff" stroke="#63b8ff" points="1445.9,-15.49 1435.56,-17.82 1445.09,-22.45 1445.9,-15.49"/>
</a>
</g>
</g>
<!-- Node24&#45;&gt;Node4 -->
<g id="edge79_Node000024_Node000004" class="edge">
<title>Node24&#45;&gt;Node4</title>
<g id="a_edge79_Node000024_Node000004"><a xlink:title=" ">
<path fill="none" stroke="#63b8ff" d="M2036.71,-56.44C2033.6,-55.92 2030.52,-55.43 2027.5,-55 1816.32,-24.92 1758.21,-44.91 1541.85,-18.89"/>
<polygon fill="#63b8ff" stroke="#63b8ff" points="1542.12,-15.4 1531.76,-17.66 1541.27,-22.35 1542.12,-15.4"/>
</a>
</g>
</g>
<!-- Node24&#45;&gt;Node5 -->
<g id="edge80_Node000024_Node000005" class="edge">
<title>Node24&#45;&gt;Node5</title>
<g id="a_edge80_Node000024_Node000005"><a xlink:title=" ">
<path fill="none" stroke="#63b8ff" d="M2036.69,-56.56C2033.59,-56 2030.51,-55.48 2027.5,-55 1904.74,-35.51 1760.36,-22.29 1677.13,-15.6"/>
<polygon fill="#63b8ff" stroke="#63b8ff" points="1677.29,-12.1 1667.04,-14.8 1676.73,-19.08 1677.29,-12.1"/>
</a>
</g>
</g>
</g>
</svg>
