<?xml version="1.0" encoding="UTF-8" standalone="no"?>
<!DOCTYPE svg PUBLIC "-//W3C//DTD SVG 1.1//EN"
 "http://www.w3.org/Graphics/SVG/1.1/DTD/svg11.dtd">
<!-- Generated by graphviz version 2.43.0 (0)
 -->
<!-- Title: src/engine/actors/Banana.h Pages: 1 -->
<svg width="525pt" height="302pt"
 viewBox="0.00 0.00 525.37 302.00" xmlns="http://www.w3.org/2000/svg" xmlns:xlink="http://www.w3.org/1999/xlink">
<g id="graph0" class="graph" transform="scale(1 1) rotate(0) translate(4 298)">
<title>src/engine/actors/Banana.h</title>
<!-- Node1 -->
<g id="Node000001" class="node">
<title>Node1</title>
<g id="a_Node000001"><a xlink:title=" ">
<polygon fill="#999999" stroke="#666666" points="156.87,-294 7.87,-294 7.87,-275 156.87,-275 156.87,-294"/>
<text text-anchor="middle" x="82.37" y="-282" font-family="Helvetica,sans-Serif" font-size="10.00">src/engine/actors/Banana.h</text>
</a>
</g>
</g>
<!-- Node2 -->
<g id="Node000002" class="node">
<title>Node2</title>
<g id="a_Node000002"><a xlink:title=" ">
<polygon fill="#e0e0e0" stroke="#999999" points="248.37,-74 168.37,-74 168.37,-55 248.37,-55 248.37,-74"/>
<text text-anchor="middle" x="208.37" y="-62" font-family="Helvetica,sans-Serif" font-size="10.00">libultraship.h</text>
</a>
</g>
</g>
<!-- Node1&#45;&gt;Node2 -->
<g id="edge1_Node000001_Node000002" class="edge">
<title>Node1&#45;&gt;Node2</title>
<g id="a_edge1_Node000001_Node000002"><a xlink:title=" ">
<path fill="none" stroke="#63b8ff" d="M72.33,-274.9C54.7,-259.06 18.79,-223.27 5.37,-184 -5.73,-151.53 1.47,-132.51 27.37,-110 63.53,-78.55 118.43,-68.6 158.29,-65.79"/>
<polygon fill="#63b8ff" stroke="#63b8ff" points="158.55,-69.28 168.33,-65.21 158.15,-62.3 158.55,-69.28"/>
</a>
</g>
</g>
<!-- Node3 -->
<g id="Node000003" class="node">
<title>Node3</title>
<g id="a_Node000003"><a xlink:href="Actor_8h.html" target="_top" xlink:title=" ">
<polygon fill="white" stroke="#666666" points="227.37,-239 141.37,-239 141.37,-220 227.37,-220 227.37,-239"/>
<text text-anchor="middle" x="184.37" y="-227" font-family="Helvetica,sans-Serif" font-size="10.00">engine/Actor.h</text>
</a>
</g>
</g>
<!-- Node1&#45;&gt;Node3 -->
<g id="edge2_Node000001_Node000003" class="edge">
<title>Node1&#45;&gt;Node3</title>
<g id="a_edge2_Node000001_Node000003"><a xlink:title=" ">
<path fill="none" stroke="#63b8ff" d="M98.75,-274.98C114.94,-266.57 139.93,-253.59 158.75,-243.81"/>
<polygon fill="#63b8ff" stroke="#63b8ff" points="160.42,-246.89 167.68,-239.17 157.19,-240.68 160.42,-246.89"/>
</a>
</g>
</g>
<!-- Node3&#45;&gt;Node2 -->
<g id="edge3_Node000003_Node000002" class="edge">
<title>Node3&#45;&gt;Node2</title>
<g id="a_edge3_Node000003_Node000002"><a xlink:title=" ">
<path fill="none" stroke="#63b8ff" d="M219.81,-219.99C238.62,-213.48 260.12,-202.38 271.37,-184 277.72,-173.6 287.29,-142.26 270.37,-110 263.28,-96.5 250.04,-86.14 237.61,-78.84"/>
<polygon fill="#63b8ff" stroke="#63b8ff" points="239.25,-75.75 228.8,-74.05 235.91,-81.9 239.25,-75.75"/>
</a>
</g>
</g>
<!-- Node4 -->
<g id="Node000004" class="node">
<title>Node4</title>
<g id="a_Node000004"><a xlink:href="CoreMath_8h.html" target="_top" xlink:title=" ">
<polygon fill="white" stroke="#666666" points="391.87,-129 318.87,-129 318.87,-110 391.87,-110 391.87,-129"/>
<text text-anchor="middle" x="355.37" y="-117" font-family="Helvetica,sans-Serif" font-size="10.00">CoreMath.h</text>
</a>
</g>
</g>
<!-- Node3&#45;&gt;Node4 -->
<g id="edge4_Node000003_Node000004" class="edge">
<title>Node3&#45;&gt;Node4</title>
<g id="a_edge4_Node000003_Node000004"><a xlink:title=" ">
<path fill="none" stroke="#63b8ff" d="M222.59,-219.98C247.52,-213.13 279.85,-201.67 304.37,-184 321.51,-171.64 336.03,-152.06 345.13,-137.91"/>
<polygon fill="#63b8ff" stroke="#63b8ff" points="348.27,-139.48 350.54,-129.13 342.31,-135.81 348.27,-139.48"/>
</a>
</g>
</g>
<!-- Node5 -->
<g id="Node000005" class="node">
<title>Node5</title>
<g id="a_Node000005"><a xlink:href="macros_8h.html" target="_top" xlink:title=" ">
<polygon fill="white" stroke="#666666" points="76.37,-184 14.37,-184 14.37,-165 76.37,-165 76.37,-184"/>
<text text-anchor="middle" x="45.37" y="-172" font-family="Helvetica,sans-Serif" font-size="10.00">macros.h</text>
</a>
</g>
</g>
<!-- Node3&#45;&gt;Node5 -->
<g id="edge6_Node000003_Node000005" class="edge">
<title>Node3&#45;&gt;Node5</title>
<g id="a_edge6_Node000003_Node000005"><a xlink:title=" ">
<path fill="none" stroke="#63b8ff" d="M162.03,-219.98C139.17,-211.27 103.41,-197.63 77.5,-187.75"/>
<polygon fill="#63b8ff" stroke="#63b8ff" points="78.7,-184.46 68.1,-184.17 76.2,-191 78.7,-184.46"/>
</a>
</g>
</g>
<!-- Node7 -->
<g id="Node000007" class="node">
<title>Node7</title>
<g id="a_Node000007"><a xlink:href="main_8h.html" target="_top" xlink:title=" ">
<polygon fill="white" stroke="#666666" points="262.37,-184 212.37,-184 212.37,-165 262.37,-165 262.37,-184"/>
<text text-anchor="middle" x="237.37" y="-172" font-family="Helvetica,sans-Serif" font-size="10.00">main.h</text>
</a>
</g>
</g>
<!-- Node3&#45;&gt;Node7 -->
<g id="edge9_Node000003_Node000007" class="edge">
<title>Node3&#45;&gt;Node7</title>
<g id="a_edge9_Node000003_Node000007"><a xlink:title=" ">
<path fill="none" stroke="#63b8ff" d="M193.12,-219.75C200.83,-212.03 212.27,-200.6 221.58,-191.28"/>
<polygon fill="#63b8ff" stroke="#63b8ff" points="224.18,-193.64 228.78,-184.09 219.23,-188.69 224.18,-193.64"/>
</a>
</g>
</g>
<!-- Node12 -->
<g id="Node000012" class="node">
<title>Node12</title>
<g id="a_Node000012"><a xlink:href="common__structs_8h.html" target="_top" xlink:title=" ">
<polygon fill="white" stroke="#666666" points="261.87,-129 154.87,-129 154.87,-110 261.87,-110 261.87,-129"/>
<text text-anchor="middle" x="208.37" y="-117" font-family="Helvetica,sans-Serif" font-size="10.00">common_structs.h</text>
</a>
</g>
</g>
<!-- Node3&#45;&gt;Node12 -->
<g id="edge20_Node000003_Node000012" class="edge">
<title>Node3&#45;&gt;Node12</title>
<g id="a_edge20_Node000003_Node000012"><a xlink:title=" ">
<path fill="none" stroke="#63b8ff" d="M186.33,-219.66C190.23,-202.09 199.04,-162.45 204.26,-138.95"/>
<polygon fill="#63b8ff" stroke="#63b8ff" points="207.69,-139.68 206.44,-129.16 200.86,-138.16 207.69,-139.68"/>
</a>
</g>
</g>
<!-- Node13 -->
<g id="Node000013" class="node">
<title>Node13</title>
<g id="a_Node000013"><a xlink:href="camera_8h.html" target="_top" xlink:title=" ">
<polygon fill="white" stroke="#666666" points="156.37,-184 94.37,-184 94.37,-165 156.37,-165 156.37,-184"/>
<text text-anchor="middle" x="125.37" y="-172" font-family="Helvetica,sans-Serif" font-size="10.00">camera.h</text>
</a>
</g>
</g>
<!-- Node3&#45;&gt;Node13 -->
<g id="edge17_Node000003_Node000013" class="edge">
<title>Node3&#45;&gt;Node13</title>
<g id="a_edge17_Node000003_Node000013"><a xlink:title=" ">
<path fill="none" stroke="#63b8ff" d="M174.89,-219.98C166.16,-212.15 153.02,-200.34 142.47,-190.86"/>
<polygon fill="#63b8ff" stroke="#63b8ff" points="144.8,-188.25 135.02,-184.17 140.12,-193.46 144.8,-188.25"/>
</a>
</g>
</g>
<!-- Node4&#45;&gt;Node2 -->
<g id="edge5_Node000004_Node000002" class="edge">
<title>Node4&#45;&gt;Node2</title>
<g id="a_edge5_Node000004_Node000002"><a xlink:title=" ">
<path fill="none" stroke="#63b8ff" d="M331.75,-109.98C307.46,-101.23 269.42,-87.51 241.99,-77.62"/>
<polygon fill="#63b8ff" stroke="#63b8ff" points="243.01,-74.27 232.41,-74.17 240.63,-80.85 243.01,-74.27"/>
</a>
</g>
</g>
<!-- Node5&#45;&gt;Node2 -->
<g id="edge8_Node000005_Node000002" class="edge">
<title>Node5&#45;&gt;Node2</title>
<g id="a_edge8_Node000005_Node000002"><a xlink:title=" ">
<path fill="none" stroke="#63b8ff" d="M40.65,-164.66C34.26,-151.34 25,-126 37.37,-110 52.1,-90.93 113.16,-78.51 158.13,-71.76"/>
<polygon fill="#63b8ff" stroke="#63b8ff" points="158.64,-75.22 168.03,-70.32 157.63,-68.29 158.64,-75.22"/>
</a>
</g>
</g>
<!-- Node6 -->
<g id="Node000006" class="node">
<title>Node6</title>
<g id="a_Node000006"><a xlink:href="math_8h.html" target="_top" xlink:title=" ">
<polygon fill="white" stroke="#666666" points="97.87,-129 46.87,-129 46.87,-110 97.87,-110 97.87,-129"/>
<text text-anchor="middle" x="72.37" y="-117" font-family="Helvetica,sans-Serif" font-size="10.00">math.h</text>
</a>
</g>
</g>
<!-- Node5&#45;&gt;Node6 -->
<g id="edge7_Node000005_Node000006" class="edge">
<title>Node5&#45;&gt;Node6</title>
<g id="a_edge7_Node000005_Node000006"><a xlink:title=" ">
<path fill="none" stroke="#63b8ff" d="M49.82,-164.75C53.48,-157.57 58.77,-147.18 63.31,-138.27"/>
<polygon fill="#63b8ff" stroke="#63b8ff" points="66.57,-139.59 67.99,-129.09 60.33,-136.41 66.57,-139.59"/>
</a>
</g>
</g>
<!-- Node8 -->
<g id="Node000008" class="node">
<title>Node8</title>
<g id="a_Node000008"><a xlink:href="mk64_8h.html" target="_top" xlink:title=" ">
<polygon fill="white" stroke="#666666" points="462.87,-129 409.87,-129 409.87,-110 462.87,-110 462.87,-129"/>
<text text-anchor="middle" x="436.37" y="-117" font-family="Helvetica,sans-Serif" font-size="10.00">mk64.h</text>
</a>
</g>
</g>
<!-- Node7&#45;&gt;Node8 -->
<g id="edge10_Node000007_Node000008" class="edge">
<title>Node7&#45;&gt;Node8</title>
<g id="a_edge10_Node000007_Node000008"><a xlink:title=" ">
<path fill="none" stroke="#63b8ff" d="M262.57,-166.79C297.3,-157.54 360.09,-140.81 399.93,-130.2"/>
<polygon fill="#63b8ff" stroke="#63b8ff" points="401.02,-133.54 409.78,-127.58 399.22,-126.77 401.02,-133.54"/>
</a>
</g>
</g>
<!-- Node7&#45;&gt;Node12 -->
<g id="edge15_Node000007_Node000012" class="edge">
<title>Node7&#45;&gt;Node12</title>
<g id="a_edge15_Node000007_Node000012"><a xlink:title=" ">
<path fill="none" stroke="#63b8ff" d="M232.58,-164.75C228.61,-157.49 222.84,-146.95 217.93,-137.98"/>
<polygon fill="#63b8ff" stroke="#63b8ff" points="220.94,-136.18 213.06,-129.09 214.79,-139.54 220.94,-136.18"/>
</a>
</g>
</g>
<!-- Node8&#45;&gt;Node2 -->
<g id="edge11_Node000008_Node000002" class="edge">
<title>Node8&#45;&gt;Node2</title>
<g id="a_edge11_Node000008_Node000002"><a xlink:title=" ">
<path fill="none" stroke="#63b8ff" d="M409.62,-111.97C406.83,-111.3 404.04,-110.63 401.37,-110 351.91,-98.29 295.23,-85.27 256.15,-76.36"/>
<polygon fill="#63b8ff" stroke="#63b8ff" points="256.64,-72.88 246.12,-74.07 255.09,-79.7 256.64,-72.88"/>
</a>
</g>
</g>
<!-- Node9 -->
<g id="Node000009" class="node">
<title>Node9</title>
<g id="a_Node000009"><a xlink:href="string_8h.html" target="_top" xlink:title=" ">
<polygon fill="white" stroke="#666666" points="420.87,-74 367.87,-74 367.87,-55 420.87,-55 420.87,-74"/>
<text text-anchor="middle" x="394.37" y="-62" font-family="Helvetica,sans-Serif" font-size="10.00">string.h</text>
</a>
</g>
</g>
<!-- Node8&#45;&gt;Node9 -->
<g id="edge12_Node000008_Node000009" class="edge">
<title>Node8&#45;&gt;Node9</title>
<g id="a_edge12_Node000008_Node000009"><a xlink:title=" ">
<path fill="none" stroke="#63b8ff" d="M429.43,-109.75C423.5,-102.26 414.79,-91.28 407.54,-82.13"/>
<polygon fill="#63b8ff" stroke="#63b8ff" points="410.13,-79.75 401.17,-74.09 404.64,-84.1 410.13,-79.75"/>
</a>
</g>
</g>
<!-- Node11 -->
<g id="Node000011" class="node">
<title>Node11</title>
<g id="a_Node000011"><a xlink:title=" ">
<polygon fill="#e0e0e0" stroke="#999999" points="517.37,-74 439.37,-74 439.37,-55 517.37,-55 517.37,-74"/>
<text text-anchor="middle" x="478.37" y="-62" font-family="Helvetica,sans-Serif" font-size="10.00">libultra/gbi.h</text>
</a>
</g>
</g>
<!-- Node8&#45;&gt;Node11 -->
<g id="edge14_Node000008_Node000011" class="edge">
<title>Node8&#45;&gt;Node11</title>
<g id="a_edge14_Node000008_Node000011"><a xlink:title=" ">
<path fill="none" stroke="#63b8ff" d="M443.3,-109.75C449.23,-102.26 457.94,-91.28 465.19,-82.13"/>
<polygon fill="#63b8ff" stroke="#63b8ff" points="468.09,-84.1 471.56,-74.09 462.6,-79.75 468.09,-84.1"/>
</a>
</g>
</g>
<!-- Node10 -->
<g id="Node000010" class="node">
<title>Node10</title>
<g id="a_Node000010"><a xlink:title=" ">
<polygon fill="#e0e0e0" stroke="#999999" points="439.37,-19 349.37,-19 349.37,0 439.37,0 439.37,-19"/>
<text text-anchor="middle" x="394.37" y="-7" font-family="Helvetica,sans-Serif" font-size="10.00">libultra/types.h</text>
</a>
</g>
</g>
<!-- Node9&#45;&gt;Node10 -->
<g id="edge13_Node000009_Node000010" class="edge">
<title>Node9&#45;&gt;Node10</title>
<g id="a_edge13_Node000009_Node000010"><a xlink:title=" ">
<path fill="none" stroke="#63b8ff" d="M394.37,-54.75C394.37,-47.8 394.37,-37.85 394.37,-29.13"/>
<polygon fill="#63b8ff" stroke="#63b8ff" points="397.87,-29.09 394.37,-19.09 390.87,-29.09 397.87,-29.09"/>
</a>
</g>
</g>
<!-- Node12&#45;&gt;Node2 -->
<g id="edge16_Node000012_Node000002" class="edge">
<title>Node12&#45;&gt;Node2</title>
<g id="a_edge16_Node000012_Node000002"><a xlink:title=" ">
<path fill="none" stroke="#63b8ff" d="M208.37,-109.75C208.37,-102.8 208.37,-92.85 208.37,-84.13"/>
<polygon fill="#63b8ff" stroke="#63b8ff" points="211.87,-84.09 208.37,-74.09 204.87,-84.09 211.87,-84.09"/>
</a>
</g>
</g>
<!-- Node13&#45;&gt;Node2 -->
<g id="edge18_Node000013_Node000002" class="edge">
<title>Node13&#45;&gt;Node2</title>
<g id="a_edge18_Node000013_Node000002"><a xlink:title=" ">
<path fill="none" stroke="#63b8ff" d="M126.3,-164.91C128.09,-151.92 132.96,-126.99 145.37,-110 154.77,-97.12 169.06,-86.59 181.65,-79.02"/>
<polygon fill="#63b8ff" stroke="#63b8ff" points="183.46,-82.01 190.43,-74.03 180,-75.93 183.46,-82.01"/>
</a>
</g>
</g>
<!-- Node13&#45;&gt;Node12 -->
<g id="edge19_Node000013_Node000012" class="edge">
<title>Node13&#45;&gt;Node12</title>
<g id="a_edge19_Node000013_Node000012"><a xlink:title=" ">
<path fill="none" stroke="#63b8ff" d="M138.7,-164.98C151.45,-156.84 170.92,-144.41 186.04,-134.76"/>
<polygon fill="#63b8ff" stroke="#63b8ff" points="188.24,-137.5 194.79,-129.17 184.48,-131.6 188.24,-137.5"/>
</a>
</g>
</g>
</g>
</svg>
