<?xml version="1.0" encoding="UTF-8" standalone="no"?>
<!DOCTYPE svg PUBLIC "-//W3C//DTD SVG 1.1//EN"
 "http://www.w3.org/Graphics/SVG/1.1/DTD/svg11.dtd">
<!-- Generated by graphviz version 2.43.0 (0)
 -->
<!-- Title: courses/big_donut/course_offsets.c Pages: 1 -->
<svg width="497pt" height="258pt"
 viewBox="0.00 0.00 496.50 258.00" xmlns="http://www.w3.org/2000/svg" xmlns:xlink="http://www.w3.org/1999/xlink">

<svg id="main" version="1.1" xmlns="http://www.w3.org/2000/svg" xmlns:xlink="http://www.w3.org/1999/xlink" xml:space="preserve">

<style type="text/css"><![CDATA[
.node, .edge {opacity: 0.7;}
.node.selected, .edge.selected {opacity: 1;}
.edge:hover path { stroke: red; }
.edge:hover polygon { stroke: red; fill: red; }
]]></style>
<script type="application/ecmascript" xlink:href="svg.min.js"/>
<svg id="graph" class="graph">
<g id="graph0" class="graph" transform="scale(1 1) rotate(0) translate(4 254)">
<title>courses/big_donut/course_offsets.c</title>
<!-- Node1 -->
<g id="Node000001" class="node">
<title>Node1</title>
<g id="a_Node000001"><a xlink:title=" ">
<polygon fill="#999999" stroke="#666666" points="185,-250 45,-250 45,-220 185,-220 185,-250"/>
<text text-anchor="start" x="53" y="-238" font-family="Helvetica,sans-Serif" font-size="10.00">courses/big_donut/course</text>
<text text-anchor="middle" x="115" y="-227" font-family="Helvetica,sans-Serif" font-size="10.00">_offsets.c</text>
</a>
</g>
</g>
<!-- Node2 -->
<g id="Node000002" class="node">
<title>Node2</title>
<g id="a_Node000002"><a xlink:title=" ">
<polygon fill="#e0e0e0" stroke="#999999" points="90,-129 0,-129 0,-110 90,-110 90,-129"/>
<text text-anchor="middle" x="45" y="-117" font-family="Helvetica,sans-Serif" font-size="10.00">libultra/types.h</text>
</a>
</g>
</g>
<!-- Node1&#45;&gt;Node2 -->
<g id="edge1_Node000001_Node000002" class="edge">
<title>Node1&#45;&gt;Node2</title>
<g id="a_edge1_Node000001_Node000002"><a xlink:title=" ">
<path fill="none" stroke="#63b8ff" d="M106.13,-219.63C93.32,-198.84 69.63,-160.44 55.81,-138.02"/>
<polygon fill="#63b8ff" stroke="#63b8ff" points="58.61,-135.9 50.38,-129.23 52.65,-139.58 58.61,-135.9"/>
</a>
</g>
</g>
<!-- Node3 -->
<g id="Node000003" class="node">
<title>Node3</title>
<g id="a_Node000003"><a xlink:href="course__offsets_8h.html" target="_top" xlink:title=" ">
<polygon fill="white" stroke="#666666" points="217,-184 121,-184 121,-165 217,-165 217,-184"/>
<text text-anchor="middle" x="169" y="-172" font-family="Helvetica,sans-Serif" font-size="10.00">course_offsets.h</text>
</a>
</g>
</g>
<!-- Node1&#45;&gt;Node3 -->
<g id="edge2_Node000001_Node000003" class="edge">
<title>Node1&#45;&gt;Node3</title>
<g id="a_edge2_Node000001_Node000003"><a xlink:title=" ">
<path fill="none" stroke="#63b8ff" d="M128.07,-219.84C135.91,-211.35 145.91,-200.52 154.06,-191.69"/>
<polygon fill="#63b8ff" stroke="#63b8ff" points="156.7,-193.99 160.91,-184.27 151.55,-189.24 156.7,-193.99"/>
</a>
</g>
</g>
<!-- Node3&#45;&gt;Node2 -->
<g id="edge4_Node000003_Node000002" class="edge">
<title>Node3&#45;&gt;Node2</title>
<g id="a_edge4_Node000003_Node000002"><a xlink:title=" ">
<path fill="none" stroke="#63b8ff" d="M149.08,-164.98C128.95,-156.38 97.62,-142.99 74.59,-133.15"/>
<polygon fill="#63b8ff" stroke="#63b8ff" points="75.86,-129.88 65.29,-129.17 73.1,-136.32 75.86,-129.88"/>
</a>
</g>
</g>
<!-- Node4 -->
<g id="Node000004" class="node">
<title>Node4</title>
<g id="a_Node000004"><a xlink:title=" ">
<polygon fill="#e0e0e0" stroke="#999999" points="258,-19 178,-19 178,0 258,0 258,-19"/>
<text text-anchor="middle" x="218" y="-7" font-family="Helvetica,sans-Serif" font-size="10.00">libultraship.h</text>
</a>
</g>
</g>
<!-- Node3&#45;&gt;Node4 -->
<g id="edge3_Node000003_Node000004" class="edge">
<title>Node3&#45;&gt;Node4</title>
<g id="a_edge3_Node000003_Node000004"><a xlink:title=" ">
<path fill="none" stroke="#63b8ff" d="M159.45,-164.77C147.58,-152.81 129.72,-130.47 137,-110 149.34,-75.29 179.54,-43.9 199.37,-26.03"/>
<polygon fill="#63b8ff" stroke="#63b8ff" points="201.93,-28.44 207.16,-19.23 197.32,-23.17 201.93,-28.44"/>
</a>
</g>
</g>
<!-- Node5 -->
<g id="Node000005" class="node">
<title>Node5</title>
<g id="a_Node000005"><a xlink:title=" ">
<polygon fill="#e0e0e0" stroke="#999999" points="224,-129 146,-129 146,-110 224,-110 224,-129"/>
<text text-anchor="middle" x="185" y="-117" font-family="Helvetica,sans-Serif" font-size="10.00">libultra/gbi.h</text>
</a>
</g>
</g>
<!-- Node3&#45;&gt;Node5 -->
<g id="edge5_Node000003_Node000005" class="edge">
<title>Node3&#45;&gt;Node5</title>
<g id="a_edge5_Node000003_Node000005"><a xlink:title=" ">
<path fill="none" stroke="#63b8ff" d="M171.64,-164.75C173.76,-157.72 176.81,-147.62 179.46,-138.84"/>
<polygon fill="#63b8ff" stroke="#63b8ff" points="182.87,-139.67 182.41,-129.09 176.17,-137.65 182.87,-139.67"/>
</a>
</g>
</g>
<!-- Node6 -->
<g id="Node000006" class="node">
<title>Node6</title>
<g id="a_Node000006"><a xlink:href="other__textures_8h.html" target="_top" xlink:title=" ">
<polygon fill="white" stroke="#666666" points="373.5,-129 242.5,-129 242.5,-110 373.5,-110 373.5,-129"/>
<text text-anchor="middle" x="308" y="-117" font-family="Helvetica,sans-Serif" font-size="10.00">assets/other_textures.h</text>
</a>
</g>
</g>
<!-- Node3&#45;&gt;Node6 -->
<g id="edge6_Node000003_Node000006" class="edge">
<title>Node3&#45;&gt;Node6</title>
<g id="a_edge6_Node000003_Node000006"><a xlink:title=" ">
<path fill="none" stroke="#63b8ff" d="M191.33,-164.98C214.2,-156.27 249.96,-142.63 275.86,-132.75"/>
<polygon fill="#63b8ff" stroke="#63b8ff" points="277.16,-136 285.26,-129.17 274.67,-129.46 277.16,-136"/>
</a>
</g>
</g>
<!-- Node8 -->
<g id="Node000008" class="node">
<title>Node8</title>
<g id="a_Node000008"><a xlink:href="animation_8h.html" target="_top" xlink:title=" ">
<polygon fill="white" stroke="#666666" points="470.5,-129 395.5,-129 395.5,-110 470.5,-110 470.5,-129"/>
<text text-anchor="middle" x="433" y="-117" font-family="Helvetica,sans-Serif" font-size="10.00">animation.h</text>
</a>
</g>
</g>
<!-- Node3&#45;&gt;Node8 -->
<g id="edge9_Node000003_Node000008" class="edge">
<title>Node3&#45;&gt;Node8</title>
<g id="a_edge9_Node000003_Node000008"><a xlink:title=" ">
<path fill="none" stroke="#63b8ff" d="M211.42,-164.98C259.01,-155.43 336.01,-139.97 385.56,-130.02"/>
<polygon fill="#63b8ff" stroke="#63b8ff" points="386.28,-133.45 395.39,-128.05 384.9,-126.59 386.28,-133.45"/>
</a>
</g>
</g>
<!-- Node6&#45;&gt;Node4 -->
<g id="edge7_Node000006_Node000004" class="edge">
<title>Node6&#45;&gt;Node4</title>
<g id="a_edge7_Node000006_Node000004"><a xlink:title=" ">
<path fill="none" stroke="#63b8ff" d="M287.1,-110C271.49,-102.64 250.72,-90.56 238,-74 227.99,-60.97 222.93,-42.82 220.41,-29.26"/>
<polygon fill="#63b8ff" stroke="#63b8ff" points="223.83,-28.51 218.84,-19.17 216.92,-29.59 223.83,-28.51"/>
</a>
</g>
</g>
<!-- Node7 -->
<g id="Node000007" class="node">
<title>Node7</title>
<g id="a_Node000007"><a xlink:href="align__asset__macro_8h.html" target="_top" xlink:title=" ">
<polygon fill="white" stroke="#666666" points="363.5,-74 246.5,-74 246.5,-55 363.5,-55 363.5,-74"/>
<text text-anchor="middle" x="305" y="-62" font-family="Helvetica,sans-Serif" font-size="10.00">align_asset_macro.h</text>
</a>
</g>
</g>
<!-- Node6&#45;&gt;Node7 -->
<g id="edge8_Node000006_Node000007" class="edge">
<title>Node6&#45;&gt;Node7</title>
<g id="a_edge8_Node000006_Node000007"><a xlink:title=" ">
<path fill="none" stroke="#63b8ff" d="M307.5,-109.75C307.11,-102.8 306.55,-92.85 306.05,-84.13"/>
<polygon fill="#63b8ff" stroke="#63b8ff" points="309.55,-83.88 305.49,-74.09 302.56,-84.27 309.55,-83.88"/>
</a>
</g>
</g>
<!-- Node9 -->
<g id="Node000009" class="node">
<title>Node9</title>
<g id="a_Node000009"><a xlink:href="common__structs_8h.html" target="_top" xlink:title=" ">
<polygon fill="white" stroke="#666666" points="488.5,-74 381.5,-74 381.5,-55 488.5,-55 488.5,-74"/>
<text text-anchor="middle" x="435" y="-62" font-family="Helvetica,sans-Serif" font-size="10.00">common_structs.h</text>
</a>
</g>
</g>
<!-- Node8&#45;&gt;Node9 -->
<g id="edge10_Node000008_Node000009" class="edge">
<title>Node8&#45;&gt;Node9</title>
<g id="a_edge10_Node000008_Node000009"><a xlink:title=" ">
<path fill="none" stroke="#63b8ff" d="M433.33,-109.75C433.59,-102.8 433.97,-92.85 434.3,-84.13"/>
<polygon fill="#63b8ff" stroke="#63b8ff" points="437.8,-84.21 434.68,-74.09 430.8,-83.95 437.8,-84.21"/>
</a>
</g>
</g>
<!-- Node9&#45;&gt;Node4 -->
<g id="edge11_Node000009_Node000004" class="edge">
<title>Node9&#45;&gt;Node4</title>
<g id="a_edge11_Node000009_Node000004"><a xlink:title=" ">
<path fill="none" stroke="#63b8ff" d="M400.14,-54.98C362.91,-45.89 303.8,-31.46 263.07,-21.51"/>
<polygon fill="#63b8ff" stroke="#63b8ff" points="263.68,-18.05 253.14,-19.08 262.02,-24.85 263.68,-18.05"/>
</a>
</g>
</g>
</g>
</svg>
</svg>

<style type='text/css'>
<![CDATA[
[data-mouse-over-selected='false'] { opacity: 0.7; }
[data-mouse-over-selected='true']  { opacity: 1.0; }
]]>
</style>
<script type="application/ecmascript"><![CDATA[
document.addEventListener('DOMContentLoaded', (event) => {
  highlightEdges();
  highlightAdjacentNodes();
});
]]></script>
</svg>
