<?xml version="1.0" encoding="UTF-8" standalone="no"?>
<!DOCTYPE svg PUBLIC "-//W3C//DTD SVG 1.1//EN"
 "http://www.w3.org/Graphics/SVG/1.1/DTD/svg11.dtd">
<!-- Generated by graphviz version 2.43.0 (0)
 -->
<!-- Title: func_802B3E7C Pages: 1 -->
<svg width="1172pt" height="284pt"
 viewBox="0.00 0.00 1172.00 284.00" xmlns="http://www.w3.org/2000/svg" xmlns:xlink="http://www.w3.org/1999/xlink">
<g id="graph0" class="graph" transform="scale(1 1) rotate(0) translate(4 280)">
<title>func_802B3E7C</title>
<!-- Node1 -->
<g id="Node000001" class="node">
<title>Node1</title>
<g id="a_Node000001"><a xlink:title=" ">
<polygon fill="#999999" stroke="#666666" points="92,-125 0,-125 0,-106 92,-106 92,-125"/>
<text text-anchor="middle" x="46" y="-113" font-family="Helvetica,sans-Serif" font-size="10.00">func_802B3E7C</text>
</a>
</g>
</g>
<!-- Node2 -->
<g id="Node000002" class="node">
<title>Node2</title>
<g id="a_Node000002"><a xlink:href="collision_8c.html#a79293dbdae52d290fdaf8dde9d5244ca" target="_top" xlink:title=" ">
<polygon fill="white" stroke="#666666" points="253,-217 128,-217 128,-198 253,-198 253,-217"/>
<text text-anchor="middle" x="190.5" y="-205" font-family="Helvetica,sans-Serif" font-size="10.00">actor_terrain_collision</text>
</a>
</g>
</g>
<!-- Node1&#45;&gt;Node2 -->
<g id="edge1_Node000001_Node000002" class="edge">
<title>Node1&#45;&gt;Node2</title>
<g id="a_edge1_Node000001_Node000002"><a xlink:title=" ">
<path fill="none" stroke="#63b8ff" d="M61.98,-125.17C86.85,-141.23 136.82,-173.49 166.29,-192.51"/>
<polygon fill="#63b8ff" stroke="#63b8ff" points="164.42,-195.47 174.72,-197.96 168.22,-189.59 164.42,-195.47"/>
</a>
</g>
</g>
<!-- Node6 -->
<g id="Node000006" class="node">
<title>Node6</title>
<g id="a_Node000006"><a xlink:href="actors_8c.html#a53268aa601911d56424ff08fb3395bcb" target="_top" xlink:title=" ">
<polygon fill="white" stroke="#666666" points="420,-153.5 301,-153.5 301,-123.5 420,-123.5 420,-153.5"/>
<text text-anchor="start" x="309" y="-141.5" font-family="Helvetica,sans-Serif" font-size="10.00">destroy_destructable</text>
<text text-anchor="middle" x="360.5" y="-130.5" font-family="Helvetica,sans-Serif" font-size="10.00">_actor</text>
</a>
</g>
</g>
<!-- Node1&#45;&gt;Node6 -->
<g id="edge5_Node000001_Node000006" class="edge">
<title>Node1&#45;&gt;Node6</title>
<g id="a_edge5_Node000001_Node000006"><a xlink:title=" ">
<path fill="none" stroke="#63b8ff" d="M82.62,-125.01C96.66,-128.33 112.98,-131.69 128,-133.5 182.36,-140.06 244.4,-141.06 290.57,-140.55"/>
<polygon fill="#63b8ff" stroke="#63b8ff" points="290.81,-144.05 300.76,-140.41 290.71,-137.05 290.81,-144.05"/>
</a>
</g>
</g>
<!-- Node26 -->
<g id="Node000026" class="node">
<title>Node26</title>
<g id="a_Node000026"><a xlink:href="blue__and__red__shells_2update_8inc_8c.html#a334de9136224947ca20e7d31fb009a82" target="_top" xlink:title=" ">
<polygon fill="white" stroke="#666666" points="236.5,-125 144.5,-125 144.5,-106 236.5,-106 236.5,-125"/>
<text text-anchor="middle" x="190.5" y="-113" font-family="Helvetica,sans-Serif" font-size="10.00">func_802B4104</text>
</a>
</g>
</g>
<!-- Node1&#45;&gt;Node26 -->
<g id="edge28_Node000001_Node000026" class="edge">
<title>Node1&#45;&gt;Node26</title>
<g id="a_edge28_Node000001_Node000026"><a xlink:title=" ">
<path fill="none" stroke="#63b8ff" d="M92.09,-115.5C105.34,-115.5 120,-115.5 133.84,-115.5"/>
<polygon fill="#63b8ff" stroke="#63b8ff" points="134.22,-119 144.22,-115.5 134.22,-112 134.22,-119"/>
</a>
</g>
</g>
<!-- Node29 -->
<g id="Node000029" class="node">
<title>Node29</title>
<g id="a_Node000029"><a xlink:href="actors__extended_8c.html#a78e98c146f1f4dd6e3608016486172a4" target="_top" xlink:title=" ">
<polygon fill="white" stroke="#666666" points="236.5,-88 144.5,-88 144.5,-69 236.5,-69 236.5,-88"/>
<text text-anchor="middle" x="190.5" y="-76" font-family="Helvetica,sans-Serif" font-size="10.00">func_802B4E30</text>
</a>
</g>
</g>
<!-- Node1&#45;&gt;Node29 -->
<g id="edge33_Node000001_Node000029" class="edge">
<title>Node1&#45;&gt;Node29</title>
<g id="a_edge33_Node000001_Node000029"><a xlink:title=" ">
<path fill="none" stroke="#63b8ff" d="M83.7,-105.97C101.67,-101.3 123.52,-95.63 142.69,-90.65"/>
<polygon fill="#63b8ff" stroke="#63b8ff" points="143.63,-94.03 152.43,-88.12 141.87,-87.25 143.63,-94.03"/>
</a>
</g>
</g>
<!-- Node30 -->
<g id="Node000030" class="node">
<title>Node30</title>
<g id="a_Node000030"><a xlink:href="math_8h.html#a37bde043e94a6f074c78f10518fb5d99" target="_top" xlink:title=" ">
<polygon fill="white" stroke="#666666" points="210,-51 171,-51 171,-32 210,-32 210,-51"/>
<text text-anchor="middle" x="190.5" y="-39" font-family="Helvetica,sans-Serif" font-size="10.00">sqrtf</text>
</a>
</g>
</g>
<!-- Node1&#45;&gt;Node30 -->
<g id="edge34_Node000001_Node000030" class="edge">
<title>Node1&#45;&gt;Node30</title>
<g id="a_edge34_Node000001_Node000030"><a xlink:title=" ">
<path fill="none" stroke="#63b8ff" d="M58.34,-105.88C73.38,-93.57 101.15,-72.3 128,-59.5 138.43,-54.53 150.51,-50.63 161.19,-47.75"/>
<polygon fill="#63b8ff" stroke="#63b8ff" points="162.07,-51.14 170.91,-45.3 160.35,-44.35 162.07,-51.14"/>
</a>
</g>
</g>
<!-- Node3 -->
<g id="Node000003" class="node">
<title>Node3</title>
<g id="a_Node000003"><a xlink:href="collision_8c.html#a6ea8b20f38e63c1b1157923085c8e306" target="_top" xlink:title=" ">
<polygon fill="white" stroke="#666666" points="432,-201.5 289,-201.5 289,-171.5 432,-171.5 432,-201.5"/>
<text text-anchor="start" x="297" y="-189.5" font-family="Helvetica,sans-Serif" font-size="10.00">is_colliding_with_drivable</text>
<text text-anchor="middle" x="360.5" y="-178.5" font-family="Helvetica,sans-Serif" font-size="10.00">_surface</text>
</a>
</g>
</g>
<!-- Node2&#45;&gt;Node3 -->
<g id="edge2_Node000002_Node000003" class="edge">
<title>Node2&#45;&gt;Node3</title>
<g id="a_edge2_Node000002_Node000003"><a xlink:title=" ">
<path fill="none" stroke="#63b8ff" d="M253.1,-199.8C261.45,-198.76 270.11,-197.67 278.73,-196.6"/>
<polygon fill="#63b8ff" stroke="#63b8ff" points="279.32,-200.05 288.81,-195.34 278.45,-193.1 279.32,-200.05"/>
</a>
</g>
</g>
<!-- Node4 -->
<g id="Node000004" class="node">
<title>Node4</title>
<g id="a_Node000004"><a xlink:href="collision_8c.html#a94970a4a6ca911f74e59114decd74557" target="_top" xlink:title=" ">
<polygon fill="white" stroke="#666666" points="425,-276 296,-276 296,-257 425,-257 425,-276"/>
<text text-anchor="middle" x="360.5" y="-264" font-family="Helvetica,sans-Serif" font-size="10.00">is_colliding_with_wall1</text>
</a>
</g>
</g>
<!-- Node2&#45;&gt;Node4 -->
<g id="edge3_Node000002_Node000004" class="edge">
<title>Node2&#45;&gt;Node4</title>
<g id="a_edge3_Node000002_Node000004"><a xlink:title=" ">
<path fill="none" stroke="#63b8ff" d="M211.7,-217.03C231.19,-225.98 261.67,-239.32 289,-248.5 295.05,-250.53 301.46,-252.46 307.85,-254.25"/>
<polygon fill="#63b8ff" stroke="#63b8ff" points="307.25,-257.72 317.82,-256.95 309.08,-250.96 307.25,-257.72"/>
</a>
</g>
</g>
<!-- Node5 -->
<g id="Node000005" class="node">
<title>Node5</title>
<g id="a_Node000005"><a xlink:href="collision_8c.html#a23443870e0d3a6797de707a89ded7ef0" target="_top" xlink:title=" ">
<polygon fill="white" stroke="#666666" points="425,-239 296,-239 296,-220 425,-220 425,-239"/>
<text text-anchor="middle" x="360.5" y="-227" font-family="Helvetica,sans-Serif" font-size="10.00">is_colliding_with_wall2</text>
</a>
</g>
</g>
<!-- Node2&#45;&gt;Node5 -->
<g id="edge4_Node000002_Node000005" class="edge">
<title>Node2&#45;&gt;Node5</title>
<g id="a_edge4_Node000002_Node000005"><a xlink:title=" ">
<path fill="none" stroke="#63b8ff" d="M253.1,-215.57C263.79,-216.97 274.99,-218.43 285.95,-219.87"/>
<polygon fill="#63b8ff" stroke="#63b8ff" points="285.56,-223.35 295.93,-221.18 286.47,-216.41 285.56,-223.35"/>
</a>
</g>
</g>
<!-- Node7 -->
<g id="Node000007" class="node">
<title>Node7</title>
<g id="a_Node000007"><a xlink:href="Game_8cpp.html#a04c2e1c30af14b6e8354d7a9be00e39c" target="_top" xlink:title=" ">
<polygon fill="white" stroke="#666666" points="598,-170 488,-170 488,-151 598,-151 598,-170"/>
<text text-anchor="middle" x="543" y="-158" font-family="Helvetica,sans-Serif" font-size="10.00">CM_FindActorIndex</text>
</a>
</g>
</g>
<!-- Node6&#45;&gt;Node7 -->
<g id="edge6_Node000006_Node000007" class="edge">
<title>Node6&#45;&gt;Node7</title>
<g id="a_edge6_Node000006_Node000007"><a xlink:title=" ">
<path fill="none" stroke="#63b8ff" d="M420.1,-145.64C438.6,-147.9 459.13,-150.4 477.99,-152.7"/>
<polygon fill="#63b8ff" stroke="#63b8ff" points="477.62,-156.18 487.97,-153.91 478.47,-149.23 477.62,-156.18"/>
</a>
</g>
</g>
<!-- Node8 -->
<g id="Node000008" class="node">
<title>Node8</title>
<g id="a_Node000008"><a xlink:href="code__80005FD0_8c.html#ad301b978cdd3c4cc190b10be050d51d8" target="_top" xlink:title=" ">
<polygon fill="white" stroke="#666666" points="616,-132.5 470,-132.5 470,-102.5 616,-102.5 616,-132.5"/>
<text text-anchor="start" x="478" y="-120.5" font-family="Helvetica,sans-Serif" font-size="10.00">delete_actor_in_unexpired</text>
<text text-anchor="middle" x="543" y="-109.5" font-family="Helvetica,sans-Serif" font-size="10.00">_actor_list</text>
</a>
</g>
</g>
<!-- Node6&#45;&gt;Node8 -->
<g id="edge7_Node000006_Node000008" class="edge">
<title>Node6&#45;&gt;Node8</title>
<g id="a_edge7_Node000006_Node000008"><a xlink:title=" ">
<path fill="none" stroke="#63b8ff" d="M420.1,-131.68C432.74,-130.21 446.32,-128.63 459.66,-127.08"/>
<polygon fill="#63b8ff" stroke="#63b8ff" points="460.28,-130.53 469.8,-125.9 459.47,-123.58 460.28,-130.53"/>
</a>
</g>
</g>
<!-- Node9 -->
<g id="Node000009" class="node">
<title>Node9</title>
<g id="a_Node000009"><a xlink:href="actors__extended_8c.html#ae4a15c57c04e2152938b23b9d2e2d328" target="_top" xlink:title=" ">
<polygon fill="white" stroke="#666666" points="618,-84.5 468,-84.5 468,-54.5 618,-54.5 618,-84.5"/>
<text text-anchor="start" x="476" y="-72.5" font-family="Helvetica,sans-Serif" font-size="10.00">destroy_banana_in_banana</text>
<text text-anchor="middle" x="543" y="-61.5" font-family="Helvetica,sans-Serif" font-size="10.00">_bunch</text>
</a>
</g>
</g>
<!-- Node6&#45;&gt;Node9 -->
<g id="edge8_Node000006_Node000009" class="edge">
<title>Node6&#45;&gt;Node9</title>
<g id="a_edge8_Node000006_Node000009"><a xlink:title=" ">
<path fill="none" stroke="#63b8ff" d="M395.25,-123.36C416.05,-114.25 443.36,-102.68 468,-93.5 473.14,-91.58 478.51,-89.67 483.92,-87.81"/>
<polygon fill="#63b8ff" stroke="#63b8ff" points="485.28,-91.05 493.63,-84.52 483.03,-84.41 485.28,-91.05"/>
</a>
</g>
</g>
<!-- Node17 -->
<g id="Node000017" class="node">
<title>Node17</title>
<g id="a_Node000017"><a xlink:href="external_8c.html#a73831bcbe259500206651a0b4702be9f" target="_top" xlink:title=" ">
<polygon fill="white" stroke="#666666" points="589,-256 497,-256 497,-237 589,-237 589,-256"/>
<text text-anchor="middle" x="543" y="-244" font-family="Helvetica,sans-Serif" font-size="10.00">func_800C9EF4</text>
</a>
</g>
</g>
<!-- Node6&#45;&gt;Node17 -->
<g id="edge19_Node000006_Node000017" class="edge">
<title>Node6&#45;&gt;Node17</title>
<g id="a_edge19_Node000006_Node000017"><a xlink:title=" ">
<path fill="none" stroke="#63b8ff" d="M418.55,-153.65C423.36,-156.17 427.93,-159.1 432,-162.5 457.33,-183.69 441.87,-207.3 468,-227.5 473.57,-231.81 480.01,-235.14 486.72,-237.73"/>
<polygon fill="#63b8ff" stroke="#63b8ff" points="486.09,-241.2 496.68,-241 488.27,-234.55 486.09,-241.2"/>
</a>
</g>
</g>
<!-- Node25 -->
<g id="Node000025" class="node">
<title>Node25</title>
<g id="a_Node000025"><a xlink:href="actors__extended_8c.html#a1edd6e4f2545082e3782c4ce50933c7c" target="_top" xlink:title=" ">
<polygon fill="white" stroke="#666666" points="601,-218.5 485,-218.5 485,-188.5 601,-188.5 601,-218.5"/>
<text text-anchor="start" x="493" y="-206.5" font-family="Helvetica,sans-Serif" font-size="10.00">triple_shell_actor</text>
<text text-anchor="middle" x="543" y="-195.5" font-family="Helvetica,sans-Serif" font-size="10.00">_collide_with_player</text>
</a>
</g>
</g>
<!-- Node6&#45;&gt;Node25 -->
<g id="edge27_Node000006_Node000025" class="edge">
<title>Node6&#45;&gt;Node25</title>
<g id="a_edge27_Node000006_Node000025"><a xlink:title=" ">
<path fill="none" stroke="#63b8ff" d="M407.6,-153.53C415.78,-156.38 424.17,-159.44 432,-162.5 448.3,-168.88 451.69,-172.14 468,-178.5 473.58,-180.68 479.45,-182.85 485.32,-184.95"/>
<polygon fill="#63b8ff" stroke="#63b8ff" points="484.59,-188.4 495.18,-188.41 486.91,-181.8 484.59,-188.4"/>
</a>
</g>
</g>
<!-- Node10 -->
<g id="Node000010" class="node">
<title>Node10</title>
<g id="a_Node000010"><a xlink:href="external_8c.html#a2be9efc97a92e19d02aaee90d676acc1" target="_top" xlink:title=" ">
<polygon fill="white" stroke="#666666" points="746,-39 654,-39 654,-20 746,-20 746,-39"/>
<text text-anchor="middle" x="700" y="-27" font-family="Helvetica,sans-Serif" font-size="10.00">func_800C9060</text>
</a>
</g>
</g>
<!-- Node9&#45;&gt;Node10 -->
<g id="edge9_Node000009_Node000010" class="edge">
<title>Node9&#45;&gt;Node10</title>
<g id="a_edge9_Node000009_Node000010"><a xlink:title=" ">
<path fill="none" stroke="#63b8ff" d="M602.16,-54.49C618.65,-50.24 636.38,-45.66 652.12,-41.6"/>
<polygon fill="#63b8ff" stroke="#63b8ff" points="653.32,-44.9 662.13,-39.01 651.57,-38.12 653.32,-44.9"/>
</a>
</g>
</g>
<!-- Node12 -->
<g id="Node000012" class="node">
<title>Node12</title>
<g id="a_Node000012"><a xlink:href="actors__extended_8c.html#ab349562338ca47f2b524137864704d0e" target="_top" xlink:title=" ">
<polygon fill="white" stroke="#666666" points="746,-77 654,-77 654,-58 746,-58 746,-77"/>
<text text-anchor="middle" x="700" y="-65" font-family="Helvetica,sans-Serif" font-size="10.00">func_802B0464</text>
</a>
</g>
</g>
<!-- Node9&#45;&gt;Node12 -->
<g id="edge11_Node000009_Node000012" class="edge">
<title>Node9&#45;&gt;Node12</title>
<g id="a_edge11_Node000009_Node000012"><a xlink:title=" ">
<path fill="none" stroke="#63b8ff" d="M618.32,-68.54C626.84,-68.43 635.42,-68.32 643.63,-68.21"/>
<polygon fill="#63b8ff" stroke="#63b8ff" points="643.85,-71.71 653.81,-68.08 643.76,-64.71 643.85,-71.71"/>
</a>
</g>
</g>
<!-- Node16 -->
<g id="Node000016" class="node">
<title>Node16</title>
<g id="a_Node000016"><a xlink:href="actors__extended_8c.html#a2f342036a9e04bb583aa7cf9c08edae9" target="_top" xlink:title=" ">
<polygon fill="white" stroke="#666666" points="746,-132 654,-132 654,-113 746,-113 746,-132"/>
<text text-anchor="middle" x="700" y="-120" font-family="Helvetica,sans-Serif" font-size="10.00">func_802B04E8</text>
</a>
</g>
</g>
<!-- Node9&#45;&gt;Node16 -->
<g id="edge16_Node000009_Node000016" class="edge">
<title>Node9&#45;&gt;Node16</title>
<g id="a_edge16_Node000009_Node000016"><a xlink:title=" ">
<path fill="none" stroke="#63b8ff" d="M591.05,-84.52C600.01,-87.45 609.31,-90.54 618,-93.5 632.79,-98.54 649.02,-104.31 663.04,-109.36"/>
<polygon fill="#63b8ff" stroke="#63b8ff" points="662.21,-112.78 672.81,-112.9 664.59,-106.2 662.21,-112.78"/>
</a>
</g>
</g>
<!-- Node11 -->
<g id="Node000011" class="node">
<title>Node11</title>
<g id="a_Node000011"><a xlink:href="external_8c.html#a475cff796211891556f52877cd8e9b9e" target="_top" xlink:title=" ">
<polygon fill="white" stroke="#666666" points="888,-19 816,-19 816,0 888,0 888,-19"/>
<text text-anchor="middle" x="852" y="-7" font-family="Helvetica,sans-Serif" font-size="10.00">play_sound</text>
</a>
</g>
</g>
<!-- Node10&#45;&gt;Node11 -->
<g id="edge10_Node000010_Node000011" class="edge">
<title>Node10&#45;&gt;Node11</title>
<g id="a_edge10_Node000010_Node000011"><a xlink:title=" ">
<path fill="none" stroke="#63b8ff" d="M746,-23.5C764.79,-20.99 786.58,-18.09 805.43,-15.58"/>
<polygon fill="#63b8ff" stroke="#63b8ff" points="806.11,-19.02 815.56,-14.23 805.18,-12.08 806.11,-19.02"/>
</a>
</g>
</g>
<!-- Node12&#45;&gt;Node12 -->
<g id="edge15_Node000012_Node000012" class="edge">
<title>Node12&#45;&gt;Node12</title>
<g id="a_edge15_Node000012_Node000012"><a xlink:title=" ">
<path fill="none" stroke="#63b8ff" d="M676.57,-77.08C665.18,-85.73 672.98,-95 700,-95 717.73,-95 727.19,-91.01 728.37,-85.82"/>
<polygon fill="#63b8ff" stroke="#63b8ff" points="731.4,-84.06 723.43,-77.08 725.31,-87.51 731.4,-84.06"/>
</a>
</g>
</g>
<!-- Node13 -->
<g id="Node000013" class="node">
<title>Node13</title>
<g id="a_Node000013"><a xlink:href="actors__extended_8c.html#a093f702b462b6657ba7ab789941ef800" target="_top" xlink:title=" ">
<polygon fill="white" stroke="#666666" points="898,-104 806,-104 806,-85 898,-85 898,-104"/>
<text text-anchor="middle" x="852" y="-92" font-family="Helvetica,sans-Serif" font-size="10.00">func_802B039C</text>
</a>
</g>
</g>
<!-- Node12&#45;&gt;Node13 -->
<g id="edge12_Node000012_Node000013" class="edge">
<title>Node12&#45;&gt;Node13</title>
<g id="a_edge12_Node000012_Node000013"><a xlink:title=" ">
<path fill="none" stroke="#63b8ff" d="M746,-75.6C761.66,-78.42 779.39,-81.61 795.77,-84.56"/>
<polygon fill="#63b8ff" stroke="#63b8ff" points="795.31,-88.03 805.77,-86.36 796.55,-81.14 795.31,-88.03"/>
</a>
</g>
</g>
<!-- Node14 -->
<g id="Node000014" class="node">
<title>Node14</title>
<g id="a_Node000014"><a xlink:href="math__util_8c.html#a151b63b8adf9af7e4054b3b84bd226dc" target="_top" xlink:title=" ">
<polygon fill="white" stroke="#666666" points="1040.5,-104 968.5,-104 968.5,-85 1040.5,-85 1040.5,-104"/>
<text text-anchor="middle" x="1004.5" y="-92" font-family="Helvetica,sans-Serif" font-size="10.00">random_int</text>
</a>
</g>
</g>
<!-- Node13&#45;&gt;Node14 -->
<g id="edge13_Node000013_Node000014" class="edge">
<title>Node13&#45;&gt;Node14</title>
<g id="a_edge13_Node000013_Node000014"><a xlink:title=" ">
<path fill="none" stroke="#63b8ff" d="M898.15,-94.5C917.15,-94.5 939.21,-94.5 958.21,-94.5"/>
<polygon fill="#63b8ff" stroke="#63b8ff" points="958.42,-98 968.42,-94.5 958.42,-91 958.42,-98"/>
</a>
</g>
</g>
<!-- Node15 -->
<g id="Node000015" class="node">
<title>Node15</title>
<g id="a_Node000015"><a xlink:href="math__util_8c.html#a062850863585005ad1d0a75d9ff70693" target="_top" xlink:title=" ">
<polygon fill="white" stroke="#666666" points="1164,-104 1087,-104 1087,-85 1164,-85 1164,-104"/>
<text text-anchor="middle" x="1125.5" y="-92" font-family="Helvetica,sans-Serif" font-size="10.00">random_u16</text>
</a>
</g>
</g>
<!-- Node14&#45;&gt;Node15 -->
<g id="edge14_Node000014_Node000015" class="edge">
<title>Node14&#45;&gt;Node15</title>
<g id="a_edge14_Node000014_Node000015"><a xlink:title=" ">
<path fill="none" stroke="#63b8ff" d="M1040.56,-94.5C1051.8,-94.5 1064.45,-94.5 1076.46,-94.5"/>
<polygon fill="#63b8ff" stroke="#63b8ff" points="1076.79,-98 1086.79,-94.5 1076.79,-91 1076.79,-98"/>
</a>
</g>
</g>
<!-- Node16&#45;&gt;Node13 -->
<g id="edge17_Node000016_Node000013" class="edge">
<title>Node16&#45;&gt;Node13</title>
<g id="a_edge17_Node000016_Node000013"><a xlink:title=" ">
<path fill="none" stroke="#63b8ff" d="M746,-114.1C761.66,-111.18 779.39,-107.87 795.77,-104.81"/>
<polygon fill="#63b8ff" stroke="#63b8ff" points="796.58,-108.22 805.77,-102.94 795.3,-101.34 796.58,-108.22"/>
</a>
</g>
</g>
<!-- Node16&#45;&gt;Node16 -->
<g id="edge18_Node000016_Node000016" class="edge">
<title>Node16&#45;&gt;Node16</title>
<g id="a_edge18_Node000016_Node000016"><a xlink:title=" ">
<path fill="none" stroke="#63b8ff" d="M676.57,-132.08C665.18,-140.73 672.98,-150 700,-150 717.73,-150 727.19,-146.01 728.37,-140.82"/>
<polygon fill="#63b8ff" stroke="#63b8ff" points="731.4,-139.06 723.43,-132.08 725.31,-142.51 731.4,-139.06"/>
</a>
</g>
</g>
<!-- Node18 -->
<g id="Node000018" class="node">
<title>Node18</title>
<g id="a_Node000018"><a xlink:href="external_8c.html#aeb87c527482a244173df36a1f3d4f446" target="_top" xlink:title=" ">
<polygon fill="white" stroke="#666666" points="746,-274 654,-274 654,-255 746,-255 746,-274"/>
<text text-anchor="middle" x="700" y="-262" font-family="Helvetica,sans-Serif" font-size="10.00">func_800C21E8</text>
</a>
</g>
</g>
<!-- Node17&#45;&gt;Node18 -->
<g id="edge20_Node000017_Node000018" class="edge">
<title>Node17&#45;&gt;Node18</title>
<g id="a_edge20_Node000017_Node000018"><a xlink:title=" ">
<path fill="none" stroke="#63b8ff" d="M589.25,-251.75C606.36,-253.74 626.02,-256.03 643.94,-258.11"/>
<polygon fill="#63b8ff" stroke="#63b8ff" points="643.63,-261.59 653.96,-259.27 644.43,-254.64 643.63,-261.59"/>
</a>
</g>
</g>
<!-- Node19 -->
<g id="Node000019" class="node">
<title>Node19</title>
<g id="a_Node000019"><a xlink:href="external_8c.html#a028d40421b90c38f68ebfd5acc626f2e" target="_top" xlink:title=" ">
<polygon fill="white" stroke="#666666" points="746,-237 654,-237 654,-218 746,-218 746,-237"/>
<text text-anchor="middle" x="700" y="-225" font-family="Helvetica,sans-Serif" font-size="10.00">func_800C5578</text>
</a>
</g>
</g>
<!-- Node17&#45;&gt;Node19 -->
<g id="edge21_Node000017_Node000019" class="edge">
<title>Node17&#45;&gt;Node19</title>
<g id="a_edge21_Node000017_Node000019"><a xlink:title=" ">
<path fill="none" stroke="#63b8ff" d="M589.25,-240.95C606.36,-238.86 626.02,-236.45 643.94,-234.25"/>
<polygon fill="#63b8ff" stroke="#63b8ff" points="644.46,-237.71 653.96,-233.02 643.61,-230.76 644.46,-237.71"/>
</a>
</g>
</g>
<!-- Node20 -->
<g id="Node000020" class="node">
<title>Node20</title>
<g id="a_Node000020"><a xlink:href="external_8c.html#ac0fb767de7e14a03f1bcfa53f0abd23b" target="_top" xlink:title=" ">
<polygon fill="white" stroke="#666666" points="922,-200 782,-200 782,-181 922,-181 922,-200"/>
<text text-anchor="middle" x="852" y="-188" font-family="Helvetica,sans-Serif" font-size="10.00">delete_sound_from_bank</text>
</a>
</g>
</g>
<!-- Node19&#45;&gt;Node20 -->
<g id="edge22_Node000019_Node000020" class="edge">
<title>Node19&#45;&gt;Node20</title>
<g id="a_edge22_Node000019_Node000020"><a xlink:title=" ">
<path fill="none" stroke="#63b8ff" d="M739.63,-217.97C758.8,-213.24 782.16,-207.48 802.52,-202.46"/>
<polygon fill="#63b8ff" stroke="#63b8ff" points="803.37,-205.85 812.24,-200.06 801.69,-199.06 803.37,-205.85"/>
</a>
</g>
</g>
<!-- Node22 -->
<g id="Node000022" class="node">
<title>Node22</title>
<g id="a_Node000022"><a xlink:href="external_8c.html#ab83bd36e63f0f1baddcb2482b5ad31b0" target="_top" xlink:title=" ">
<polygon fill="white" stroke="#666666" points="898.5,-274 805.5,-274 805.5,-255 898.5,-255 898.5,-274"/>
<text text-anchor="middle" x="852" y="-262" font-family="Helvetica,sans-Serif" font-size="10.00">func_800C41CC</text>
</a>
</g>
</g>
<!-- Node19&#45;&gt;Node22 -->
<g id="edge24_Node000019_Node000022" class="edge">
<title>Node19&#45;&gt;Node22</title>
<g id="a_edge24_Node000019_Node000022"><a xlink:title=" ">
<path fill="none" stroke="#63b8ff" d="M739.63,-237.03C758.8,-241.76 782.16,-247.52 802.52,-252.54"/>
<polygon fill="#63b8ff" stroke="#63b8ff" points="801.69,-255.94 812.24,-254.94 803.37,-249.15 801.69,-255.94"/>
</a>
</g>
</g>
<!-- Node23 -->
<g id="Node000023" class="node">
<title>Node23</title>
<g id="a_Node000023"><a xlink:href="port__eu_8c.html#aa89dfaecca46c6d071f08c1898d1f7c9" target="_top" xlink:title=" ">
<polygon fill="white" stroke="#666666" points="898.5,-237 805.5,-237 805.5,-218 898.5,-218 898.5,-237"/>
<text text-anchor="middle" x="852" y="-225" font-family="Helvetica,sans-Serif" font-size="10.00">func_800CBBE8</text>
</a>
</g>
</g>
<!-- Node19&#45;&gt;Node23 -->
<g id="edge25_Node000019_Node000023" class="edge">
<title>Node19&#45;&gt;Node23</title>
<g id="a_edge25_Node000019_Node000023"><a xlink:title=" ">
<path fill="none" stroke="#63b8ff" d="M746,-227.5C761.37,-227.5 778.74,-227.5 794.86,-227.5"/>
<polygon fill="#63b8ff" stroke="#63b8ff" points="795.25,-231 805.25,-227.5 795.25,-224 795.25,-231"/>
</a>
</g>
</g>
<!-- Node21 -->
<g id="Node000021" class="node">
<title>Node21</title>
<g id="a_Node000021"><a xlink:href="external_8c.html#a358ac55e8ab5262dcae8037334be06d7" target="_top" xlink:title=" ">
<polygon fill="white" stroke="#666666" points="1050.5,-200 958.5,-200 958.5,-181 1050.5,-181 1050.5,-200"/>
<text text-anchor="middle" x="1004.5" y="-188" font-family="Helvetica,sans-Serif" font-size="10.00">func_800C40F0</text>
</a>
</g>
</g>
<!-- Node20&#45;&gt;Node21 -->
<g id="edge23_Node000020_Node000021" class="edge">
<title>Node20&#45;&gt;Node21</title>
<g id="a_edge23_Node000020_Node000021"><a xlink:title=" ">
<path fill="none" stroke="#63b8ff" d="M922.08,-190.5C930.87,-190.5 939.78,-190.5 948.31,-190.5"/>
<polygon fill="#63b8ff" stroke="#63b8ff" points="948.5,-194 958.5,-190.5 948.5,-187 948.5,-194"/>
</a>
</g>
</g>
<!-- Node24 -->
<g id="Node000024" class="node">
<title>Node24</title>
<g id="a_Node000024"><a xlink:href="port__eu_8c.html#af361a20d2e08f30c53a237ca481ff734" target="_top" xlink:title=" ">
<polygon fill="white" stroke="#666666" points="1051,-237 958,-237 958,-218 1051,-218 1051,-237"/>
<text text-anchor="middle" x="1004.5" y="-225" font-family="Helvetica,sans-Serif" font-size="10.00">func_800CBB48</text>
</a>
</g>
</g>
<!-- Node23&#45;&gt;Node24 -->
<g id="edge26_Node000023_Node000024" class="edge">
<title>Node23&#45;&gt;Node24</title>
<g id="a_edge26_Node000023_Node000024"><a xlink:title=" ">
<path fill="none" stroke="#63b8ff" d="M898.56,-227.5C913.96,-227.5 931.34,-227.5 947.46,-227.5"/>
<polygon fill="#63b8ff" stroke="#63b8ff" points="947.83,-231 957.83,-227.5 947.83,-224 947.83,-231"/>
</a>
</g>
</g>
<!-- Node26&#45;&gt;Node6 -->
<g id="edge29_Node000026_Node000006" class="edge">
<title>Node26&#45;&gt;Node6</title>
<g id="a_edge29_Node000026_Node000006"><a xlink:title=" ">
<path fill="none" stroke="#63b8ff" d="M236.52,-121.66C253.17,-123.94 272.44,-126.58 290.72,-129.08"/>
<polygon fill="#63b8ff" stroke="#63b8ff" points="290.36,-132.57 300.75,-130.46 291.31,-125.63 290.36,-132.57"/>
</a>
</g>
</g>
<!-- Node27 -->
<g id="Node000027" class="node">
<title>Node27</title>
<g id="a_Node000027"><a xlink:href="external_8c.html#acb60983213d09ee795e80ca3c8b5975e" target="_top" xlink:title=" ">
<polygon fill="white" stroke="#666666" points="406.5,-36 314.5,-36 314.5,-17 406.5,-17 406.5,-36"/>
<text text-anchor="middle" x="360.5" y="-24" font-family="Helvetica,sans-Serif" font-size="10.00">func_800C98B8</text>
</a>
</g>
</g>
<!-- Node26&#45;&gt;Node27 -->
<g id="edge30_Node000026_Node000027" class="edge">
<title>Node26&#45;&gt;Node27</title>
<g id="a_edge30_Node000026_Node000027"><a xlink:title=" ">
<path fill="none" stroke="#63b8ff" d="M228.56,-105.9C236.78,-103.27 245.32,-100.12 253,-96.5 285.05,-81.39 318.67,-57.8 339.36,-42.24"/>
<polygon fill="#63b8ff" stroke="#63b8ff" points="341.56,-44.96 347.39,-36.12 337.32,-39.4 341.56,-44.96"/>
</a>
</g>
</g>
<!-- Node27&#45;&gt;Node11 -->
<g id="edge32_Node000027_Node000011" class="edge">
<title>Node27&#45;&gt;Node11</title>
<g id="a_edge32_Node000027_Node000011"><a xlink:title=" ">
<path fill="none" stroke="#63b8ff" d="M404.79,-16.99C424.04,-13.22 447.05,-9.35 468,-7.5 589.68,3.27 733.96,-2.45 805.74,-6.54"/>
<polygon fill="#63b8ff" stroke="#63b8ff" points="805.61,-10.03 815.79,-7.12 806.02,-3.05 805.61,-10.03"/>
</a>
</g>
</g>
<!-- Node28 -->
<g id="Node000028" class="node">
<title>Node28</title>
<g id="a_Node000028"><a xlink:href="external_8c.html#a747de0be4005b4b29150d5c068564b7d" target="_top" xlink:title=" ">
<polygon fill="white" stroke="#666666" points="589,-36 497,-36 497,-17 589,-17 589,-36"/>
<text text-anchor="middle" x="543" y="-24" font-family="Helvetica,sans-Serif" font-size="10.00">func_800C1C88</text>
</a>
</g>
</g>
<!-- Node27&#45;&gt;Node28 -->
<g id="edge31_Node000027_Node000028" class="edge">
<title>Node27&#45;&gt;Node28</title>
<g id="a_edge31_Node000027_Node000028"><a xlink:title=" ">
<path fill="none" stroke="#63b8ff" d="M406.58,-26.5C430.81,-26.5 460.89,-26.5 486.54,-26.5"/>
<polygon fill="#63b8ff" stroke="#63b8ff" points="486.87,-30 496.87,-26.5 486.87,-23 486.87,-30"/>
</a>
</g>
</g>
</g>
</svg>
