<?xml version="1.0" encoding="UTF-8" standalone="no"?>
<!DOCTYPE svg PUBLIC "-//W3C//DTD SVG 1.1//EN"
 "http://www.w3.org/Graphics/SVG/1.1/DTD/svg11.dtd">
<!-- Generated by graphviz version 2.43.0 (0)
 -->
<!-- Title: include/assets/bowsers_castle_vertices.h Pages: 1 -->
<svg width="519pt" height="170pt"
 viewBox="0.00 0.00 518.50 170.00" xmlns="http://www.w3.org/2000/svg" xmlns:xlink="http://www.w3.org/1999/xlink">
<g id="graph0" class="graph" transform="scale(1 1) rotate(0) translate(4 166)">
<title>include/assets/bowsers_castle_vertices.h</title>
<!-- Node1 -->
<g id="Node000001" class="node">
<title>Node1</title>
<g id="a_Node000001"><a xlink:title=" ">
<polygon fill="#999999" stroke="#666666" points="329.5,-162 199.5,-162 199.5,-132 329.5,-132 329.5,-162"/>
<text text-anchor="start" x="207.5" y="-150" font-family="Helvetica,sans-Serif" font-size="10.00">include/assets/bowsers</text>
<text text-anchor="middle" x="264.5" y="-139" font-family="Helvetica,sans-Serif" font-size="10.00">_castle_vertices.h</text>
</a>
</g>
</g>
<!-- Node2 -->
<g id="Node000002" class="node">
<title>Node2</title>
<g id="a_Node000002"><a xlink:href="all__course__model_8h.html" target="_top" xlink:title=" ">
<polygon fill="white" stroke="#666666" points="252,-96 145,-96 145,-66 252,-66 252,-96"/>
<text text-anchor="start" x="153" y="-84" font-family="Helvetica,sans-Serif" font-size="10.00">courses/all_course</text>
<text text-anchor="middle" x="198.5" y="-73" font-family="Helvetica,sans-Serif" font-size="10.00">_model.h</text>
</a>
</g>
</g>
<!-- Node1&#45;&gt;Node2 -->
<g id="edge1_Node000001_Node000002" class="edge">
<title>Node1&#45;&gt;Node2</title>
<g id="a_edge1_Node000001_Node000002"><a xlink:title=" ">
<path fill="none" stroke="#63b8ff" d="M242.48,-124.65C232.81,-115.27 221.73,-104.53 213.11,-96.16"/>
<polygon fill="#63b8ff" stroke="#63b8ff" points="240.24,-127.35 249.85,-131.8 245.11,-122.32 240.24,-127.35"/>
</a>
</g>
</g>
<!-- Node5 -->
<g id="Node000005" class="node">
<title>Node5</title>
<g id="a_Node000005"><a xlink:href="BowsersCastle_8h.html" target="_top" xlink:title=" ">
<polygon fill="white" stroke="#666666" points="384,-96 277,-96 277,-66 384,-66 384,-96"/>
<text text-anchor="start" x="285" y="-84" font-family="Helvetica,sans-Serif" font-size="10.00">src/engine/courses</text>
<text text-anchor="middle" x="330.5" y="-73" font-family="Helvetica,sans-Serif" font-size="10.00">/BowsersCastle.h</text>
</a>
</g>
</g>
<!-- Node1&#45;&gt;Node5 -->
<g id="edge4_Node000001_Node000005" class="edge">
<title>Node1&#45;&gt;Node5</title>
<g id="a_edge4_Node000001_Node000005"><a xlink:title=" ">
<path fill="none" stroke="#63b8ff" d="M286.52,-124.65C296.19,-115.27 307.27,-104.53 315.89,-96.16"/>
<polygon fill="#63b8ff" stroke="#63b8ff" points="283.89,-122.32 279.15,-131.8 288.76,-127.35 283.89,-122.32"/>
</a>
</g>
</g>
<!-- Node3 -->
<g id="Node000003" class="node">
<title>Node3</title>
<g id="a_Node000003"><a xlink:href="courseTable_8c.html" target="_top" xlink:title=" ">
<polygon fill="white" stroke="#666666" points="123,-24.5 0,-24.5 0,-5.5 123,-5.5 123,-24.5"/>
<text text-anchor="middle" x="61.5" y="-12.5" font-family="Helvetica,sans-Serif" font-size="10.00">courses/courseTable.c</text>
</a>
</g>
</g>
<!-- Node2&#45;&gt;Node3 -->
<g id="edge2_Node000002_Node000003" class="edge">
<title>Node2&#45;&gt;Node3</title>
<g id="a_edge2_Node000002_Node000003"><a xlink:title=" ">
<path fill="none" stroke="#63b8ff" d="M159.16,-61.62C133.01,-49.41 99.9,-33.94 79.73,-24.52"/>
<polygon fill="#63b8ff" stroke="#63b8ff" points="157.89,-64.89 168.43,-65.95 160.86,-58.55 157.89,-64.89"/>
</a>
</g>
</g>
<!-- Node4 -->
<g id="Node000004" class="node">
<title>Node4</title>
<g id="a_Node000004"><a xlink:href="memory_8c.html" target="_top" xlink:title=" ">
<polygon fill="white" stroke="#666666" points="256,-24.5 141,-24.5 141,-5.5 256,-5.5 256,-24.5"/>
<text text-anchor="middle" x="198.5" y="-12.5" font-family="Helvetica,sans-Serif" font-size="10.00">src/racing/memory.c</text>
</a>
</g>
</g>
<!-- Node2&#45;&gt;Node4 -->
<g id="edge3_Node000002_Node000004" class="edge">
<title>Node2&#45;&gt;Node4</title>
<g id="a_edge3_Node000002_Node000004"><a xlink:title=" ">
<path fill="none" stroke="#63b8ff" d="M198.5,-55.6C198.5,-44.8 198.5,-32.78 198.5,-24.84"/>
<polygon fill="#63b8ff" stroke="#63b8ff" points="195,-55.8 198.5,-65.8 202,-55.8 195,-55.8"/>
</a>
</g>
</g>
<!-- Node6 -->
<g id="Node000006" class="node">
<title>Node6</title>
<g id="a_Node000006"><a xlink:href="BowsersCastle_8cpp.html" target="_top" xlink:title=" ">
<polygon fill="white" stroke="#666666" points="386.5,-30 274.5,-30 274.5,0 386.5,0 386.5,-30"/>
<text text-anchor="start" x="282.5" y="-18" font-family="Helvetica,sans-Serif" font-size="10.00">src/engine/courses</text>
<text text-anchor="middle" x="330.5" y="-7" font-family="Helvetica,sans-Serif" font-size="10.00">/BowsersCastle.cpp</text>
</a>
</g>
</g>
<!-- Node5&#45;&gt;Node6 -->
<g id="edge5_Node000005_Node000006" class="edge">
<title>Node5&#45;&gt;Node6</title>
<g id="a_edge5_Node000005_Node000006"><a xlink:title=" ">
<path fill="none" stroke="#63b8ff" d="M330.5,-55.54C330.5,-46.96 330.5,-37.61 330.5,-30.16"/>
<polygon fill="#63b8ff" stroke="#63b8ff" points="327,-55.8 330.5,-65.8 334,-55.8 327,-55.8"/>
</a>
</g>
</g>
<!-- Node7 -->
<g id="Node000007" class="node">
<title>Node7</title>
<g id="a_Node000007"><a xlink:href="Game_8cpp.html" target="_top" xlink:title=" ">
<polygon fill="white" stroke="#666666" points="510.5,-24.5 404.5,-24.5 404.5,-5.5 510.5,-5.5 510.5,-24.5"/>
<text text-anchor="middle" x="457.5" y="-12.5" font-family="Helvetica,sans-Serif" font-size="10.00">src/port/Game.cpp</text>
</a>
</g>
</g>
<!-- Node5&#45;&gt;Node7 -->
<g id="edge6_Node000005_Node000007" class="edge">
<title>Node5&#45;&gt;Node7</title>
<g id="a_edge6_Node000005_Node000007"><a xlink:title=" ">
<path fill="none" stroke="#63b8ff" d="M367.61,-61.3C391.75,-49.14 422.06,-33.86 440.6,-24.52"/>
<polygon fill="#63b8ff" stroke="#63b8ff" points="365.73,-58.33 358.37,-65.95 368.88,-64.58 365.73,-58.33"/>
</a>
</g>
</g>
</g>
</svg>
