<?xml version="1.0" encoding="UTF-8" standalone="no"?>
<!DOCTYPE svg PUBLIC "-//W3C//DTD SVG 1.1//EN"
 "http://www.w3.org/Graphics/SVG/1.1/DTD/svg11.dtd">
<!-- Generated by graphviz version 2.43.0 (0)
 -->
<!-- Title: ACar Pages: 1 -->
<svg width="1094pt" height="363pt"
 viewBox="0.00 0.00 1093.87 363.00" xmlns="http://www.w3.org/2000/svg" xmlns:xlink="http://www.w3.org/1999/xlink">
<g id="graph0" class="graph" transform="scale(1 1) rotate(0) translate(4 359)">
<title>ACar</title>
<!-- Node1 -->
<g id="Node000001" class="node">
<title>Node1</title>
<g id="a_Node000001"><a xlink:title=" ">
<polygon fill="#999999" stroke="#666666" points="808.87,-19 768.87,-19 768.87,0 808.87,0 808.87,-19"/>
<text text-anchor="middle" x="788.87" y="-7" font-family="Helvetica,sans-Serif" font-size="10.00">ACar</text>
</a>
</g>
</g>
<!-- Node2 -->
<g id="Node000002" class="node">
<title>Node2</title>
<g id="a_Node000002"><a xlink:href="classAActor.html" target="_top" xlink:title=" ">
<polygon fill="white" stroke="#666666" points="504.37,-103 455.37,-103 455.37,-84 504.37,-84 504.37,-103"/>
<text text-anchor="middle" x="479.87" y="-91" font-family="Helvetica,sans-Serif" font-size="10.00">AActor</text>
</a>
</g>
</g>
<!-- Node2&#45;&gt;Node1 -->
<g id="edge1_Node000001_Node000002" class="edge">
<title>Node2&#45;&gt;Node1</title>
<g id="a_edge1_Node000001_Node000002"><a xlink:title=" ">
<path fill="none" stroke="#63b8ff" d="M514.08,-83.42C578.62,-66.3 716.52,-29.7 768.49,-15.91"/>
<polygon fill="#63b8ff" stroke="#63b8ff" points="513.15,-80.05 504.38,-86 514.94,-86.81 513.15,-80.05"/>
</a>
</g>
</g>
<!-- Node3 -->
<g id="Node000003" class="node">
<title>Node3</title>
<g id="a_Node000003"><a xlink:title=" ">
<polygon fill="white" stroke="#666666" points="163.87,-232.5 129.87,-232.5 129.87,-213.5 163.87,-213.5 163.87,-232.5"/>
<text text-anchor="middle" x="146.87" y="-220.5" font-family="Helvetica,sans-Serif" font-size="10.00">s16</text>
</a>
</g>
</g>
<!-- Node3&#45;&gt;Node1 -->
<g id="edge17_Node000001_Node000003" class="edge">
<title>Node3&#45;&gt;Node1</title>
<g id="a_edge17_Node000001_Node000003"><a xlink:title=" ">
<path fill="none" stroke="#9a32cd" stroke-dasharray="5,2" d="M144,-203.44C141.86,-182.36 142,-148.27 160.87,-128 246.38,-36.17 671.27,-14.88 768.87,-11.17"/>
<polygon fill="#9a32cd" stroke="#9a32cd" points="140.53,-203.92 145.28,-213.39 147.47,-203.03 140.53,-203.92"/>
</a>
</g>
<text text-anchor="middle" x="283.87" y="-102" font-family="Helvetica,sans-Serif" font-size="10.00" fill="grey"> ActorIndex</text>
<text text-anchor="middle" x="283.87" y="-91" font-family="Helvetica,sans-Serif" font-size="10.00" fill="grey">Rotation</text>
<text text-anchor="middle" x="283.87" y="-80" font-family="Helvetica,sans-Serif" font-size="10.00" fill="grey">SomeType</text>
</g>
<!-- Node3&#45;&gt;Node2 -->
<g id="edge2_Node000002_Node000003" class="edge">
<title>Node3&#45;&gt;Node2</title>
<g id="a_edge2_Node000002_Node000003"><a xlink:title=" ">
<path fill="none" stroke="#9a32cd" stroke-dasharray="5,2" d="M154.2,-203.65C155.45,-200.45 156.71,-197.13 157.87,-194 168.67,-164.87 156.59,-147.38 180.87,-128 222.93,-94.44 390.91,-93.2 454.93,-93.99"/>
<polygon fill="#9a32cd" stroke="#9a32cd" points="150.85,-202.62 150.43,-213.21 157.36,-205.19 150.85,-202.62"/>
</a>
</g>
<text text-anchor="middle" x="199.37" y="-180.5" font-family="Helvetica,sans-Serif" font-size="10.00" fill="grey"> Flags</text>
<text text-anchor="middle" x="199.37" y="-169.5" font-family="Helvetica,sans-Serif" font-size="10.00" fill="grey">State</text>
<text text-anchor="middle" x="199.37" y="-158.5" font-family="Helvetica,sans-Serif" font-size="10.00" fill="grey">Type</text>
<text text-anchor="middle" x="199.37" y="-147.5" font-family="Helvetica,sans-Serif" font-size="10.00" fill="grey">Unk_04</text>
<text text-anchor="middle" x="199.37" y="-136.5" font-family="Helvetica,sans-Serif" font-size="10.00" fill="grey">Unk_16</text>
</g>
<!-- Node4 -->
<g id="Node000004" class="node">
<title>Node4</title>
<g id="a_Node000004"><a xlink:title=" ">
<polygon fill="white" stroke="#666666" points="215.87,-355 183.87,-355 183.87,-336 215.87,-336 215.87,-355"/>
<text text-anchor="middle" x="199.87" y="-343" font-family="Helvetica,sans-Serif" font-size="10.00">f32</text>
</a>
</g>
</g>
<!-- Node4&#45;&gt;Node1 -->
<g id="edge16_Node000001_Node000004" class="edge">
<title>Node4&#45;&gt;Node1</title>
<g id="a_edge16_Node000001_Node000004"><a xlink:title=" ">
<path fill="none" stroke="#9a32cd" stroke-dasharray="5,2" d="M174.78,-332.52C111.18,-300.57 -47.04,-210.16 13.87,-128 60.35,-65.32 106.92,-98.71 181.87,-77 246.09,-58.4 260.91,-47.86 326.87,-37 495.72,-9.19 703.43,-9.31 768.44,-10.14"/>
<polygon fill="#9a32cd" stroke="#9a32cd" points="173.26,-335.68 183.78,-336.97 176.37,-329.4 173.26,-335.68"/>
</a>
</g>
<text text-anchor="middle" x="76.87" y="-186" font-family="Helvetica,sans-Serif" font-size="10.00" fill="grey"> Position</text>
<text text-anchor="middle" x="76.87" y="-175" font-family="Helvetica,sans-Serif" font-size="10.00" fill="grey">SomeArg3</text>
<text text-anchor="middle" x="76.87" y="-164" font-family="Helvetica,sans-Serif" font-size="10.00" fill="grey">SomeArg4</text>
<text text-anchor="middle" x="76.87" y="-153" font-family="Helvetica,sans-Serif" font-size="10.00" fill="grey">SomeMultiplierTheSequel</text>
<text text-anchor="middle" x="76.87" y="-142" font-family="Helvetica,sans-Serif" font-size="10.00" fill="grey">Speed</text>
<text text-anchor="middle" x="76.87" y="-131" font-family="Helvetica,sans-Serif" font-size="10.00" fill="grey">Velocity</text>
</g>
<!-- Node4&#45;&gt;Node2 -->
<g id="edge3_Node000002_Node000004" class="edge">
<title>Node4&#45;&gt;Node2</title>
<g id="a_edge3_Node000002_Node000004"><a xlink:title=" ">
<path fill="none" stroke="#9a32cd" stroke-dasharray="5,2" d="M196.27,-325.63C192.12,-298.52 188.27,-247.86 208.87,-212 260.36,-122.41 398.69,-101.06 455.26,-96.03"/>
<polygon fill="#9a32cd" stroke="#9a32cd" points="192.86,-326.43 198,-335.7 199.76,-325.25 192.86,-326.43"/>
</a>
</g>
<text text-anchor="middle" x="252.87" y="-226" font-family="Helvetica,sans-Serif" font-size="10.00" fill="grey"> BoundingBoxSize</text>
<text text-anchor="middle" x="252.87" y="-215" font-family="Helvetica,sans-Serif" font-size="10.00" fill="grey">Unk_08</text>
</g>
<!-- Node7 -->
<g id="Node000007" class="node">
<title>Node7</title>
<g id="a_Node000007"><a xlink:href="structCollision.html" target="_top" xlink:title=" ">
<polygon fill="white" stroke="#666666" points="558.37,-232.5 499.37,-232.5 499.37,-213.5 558.37,-213.5 558.37,-232.5"/>
<text text-anchor="middle" x="528.87" y="-220.5" font-family="Helvetica,sans-Serif" font-size="10.00">Collision</text>
</a>
</g>
</g>
<!-- Node4&#45;&gt;Node7 -->
<g id="edge8_Node000007_Node000004" class="edge">
<title>Node4&#45;&gt;Node7</title>
<g id="a_edge8_Node000007_Node000004"><a xlink:title=" ">
<path fill="none" stroke="#9a32cd" stroke-dasharray="5,2" d="M225.66,-335.06C287.84,-312.28 445.34,-254.59 505.25,-232.65"/>
<polygon fill="#9a32cd" stroke="#9a32cd" points="224.38,-331.8 216.19,-338.52 226.78,-338.37 224.38,-331.8"/>
</a>
</g>
<text text-anchor="middle" x="493.87" y="-304.5" font-family="Helvetica,sans-Serif" font-size="10.00" fill="grey"> orientationVector</text>
<text text-anchor="middle" x="493.87" y="-293.5" font-family="Helvetica,sans-Serif" font-size="10.00" fill="grey">surfaceDistance</text>
<text text-anchor="middle" x="493.87" y="-282.5" font-family="Helvetica,sans-Serif" font-size="10.00" fill="grey">unk48</text>
<text text-anchor="middle" x="493.87" y="-271.5" font-family="Helvetica,sans-Serif" font-size="10.00" fill="grey">unk54</text>
<text text-anchor="middle" x="493.87" y="-260.5" font-family="Helvetica,sans-Serif" font-size="10.00" fill="grey">unk6C</text>
</g>
<!-- Node5 -->
<g id="Node000005" class="node">
<title>Node5</title>
<g id="a_Node000005"><a xlink:title=" ">
<polygon fill="white" stroke="#666666" points="481.37,-232.5 434.37,-232.5 434.37,-213.5 481.37,-213.5 481.37,-232.5"/>
<text text-anchor="middle" x="457.87" y="-220.5" font-family="Helvetica,sans-Serif" font-size="10.00">s16[3]</text>
</a>
</g>
</g>
<!-- Node5&#45;&gt;Node2 -->
<g id="edge4_Node000002_Node000005" class="edge">
<title>Node5&#45;&gt;Node2</title>
<g id="a_edge4_Node000002_Node000005"><a xlink:title=" ">
<path fill="none" stroke="#9a32cd" stroke-dasharray="5,2" d="M460.57,-203.44C463.39,-184.44 468.07,-154.1 472.87,-128 474.45,-119.47 476.5,-109.77 477.98,-103.01"/>
<polygon fill="#9a32cd" stroke="#9a32cd" points="457.09,-203.02 459.1,-213.42 464.02,-204.04 457.09,-203.02"/>
</a>
</g>
<text text-anchor="middle" x="482.87" y="-158.5" font-family="Helvetica,sans-Serif" font-size="10.00" fill="grey"> Rot</text>
</g>
<!-- Node6 -->
<g id="Node000006" class="node">
<title>Node6</title>
<g id="a_Node000006"><a xlink:title=" ">
<polygon fill="white" stroke="#666666" points="693.87,-232.5 647.87,-232.5 647.87,-213.5 693.87,-213.5 693.87,-232.5"/>
<text text-anchor="middle" x="670.87" y="-220.5" font-family="Helvetica,sans-Serif" font-size="10.00">f32[3]</text>
</a>
</g>
</g>
<!-- Node6&#45;&gt;Node2 -->
<g id="edge5_Node000002_Node000006" class="edge">
<title>Node6&#45;&gt;Node2</title>
<g id="a_edge5_Node000002_Node000006"><a xlink:title=" ">
<path fill="none" stroke="#9a32cd" stroke-dasharray="5,2" d="M658.09,-204.65C655.85,-201.22 653.67,-197.57 651.87,-194 637.92,-166.25 652.06,-148.68 628.87,-128 610.72,-111.81 542.04,-101.62 504.59,-97.14"/>
<polygon fill="#9a32cd" stroke="#9a32cd" points="655.33,-206.82 663.91,-213.04 661.08,-202.83 655.33,-206.82"/>
</a>
</g>
<text text-anchor="middle" x="671.87" y="-164" font-family="Helvetica,sans-Serif" font-size="10.00" fill="grey"> Pos</text>
<text text-anchor="middle" x="671.87" y="-153" font-family="Helvetica,sans-Serif" font-size="10.00" fill="grey">Velocity</text>
</g>
<!-- Node7&#45;&gt;Node2 -->
<g id="edge6_Node000002_Node000007" class="edge">
<title>Node7&#45;&gt;Node2</title>
<g id="a_edge6_Node000002_Node000007"><a xlink:title=" ">
<path fill="none" stroke="#9a32cd" stroke-dasharray="5,2" d="M522.01,-204C514.78,-185.07 503.06,-154.43 492.87,-128 489.6,-119.5 485.83,-109.8 483.2,-103.03"/>
<polygon fill="#9a32cd" stroke="#9a32cd" points="518.78,-205.35 525.61,-213.44 525.32,-202.85 518.78,-205.35"/>
</a>
</g>
<text text-anchor="middle" x="535.37" y="-158.5" font-family="Helvetica,sans-Serif" font-size="10.00" fill="grey"> Unk30</text>
</g>
<!-- Node8 -->
<g id="Node000008" class="node">
<title>Node8</title>
<g id="a_Node000008"><a xlink:title=" ">
<polygon fill="white" stroke="#666666" points="772.37,-355 737.37,-355 737.37,-336 772.37,-336 772.37,-355"/>
<text text-anchor="middle" x="754.87" y="-343" font-family="Helvetica,sans-Serif" font-size="10.00">u16</text>
</a>
</g>
</g>
<!-- Node8&#45;&gt;Node1 -->
<g id="edge19_Node000001_Node000008" class="edge">
<title>Node8&#45;&gt;Node1</title>
<g id="a_edge19_Node000001_Node000008"><a xlink:title=" ">
<path fill="none" stroke="#9a32cd" stroke-dasharray="5,2" d="M781.21,-331.63C786.25,-327.94 790.87,-323.41 793.87,-318 838.73,-237.09 800.1,-202.5 801.87,-110 802.16,-95.34 803.14,-91.61 801.87,-77 800.31,-59.02 798.42,-54.7 794.87,-37 793.69,-31.08 792.19,-24.45 790.98,-19.31"/>
<polygon fill="#9a32cd" stroke="#9a32cd" points="779.17,-328.78 772.57,-337.07 782.9,-334.7 779.17,-328.78"/>
</a>
</g>
<text text-anchor="middle" x="847.87" y="-158.5" font-family="Helvetica,sans-Serif" font-size="10.00" fill="grey"> WaypointIndex</text>
</g>
<!-- Node8&#45;&gt;Node7 -->
<g id="edge7_Node000007_Node000008" class="edge">
<title>Node8&#45;&gt;Node7</title>
<g id="a_edge7_Node000007_Node000008"><a xlink:title=" ">
<path fill="none" stroke="#9a32cd" stroke-dasharray="5,2" d="M736.36,-329.58C710.8,-309.59 662.66,-274.08 616.87,-252 606.48,-246.99 579.93,-238.75 558.7,-232.51"/>
<polygon fill="#9a32cd" stroke="#9a32cd" points="734.41,-332.5 744.42,-335.96 738.75,-327.01 734.41,-332.5"/>
</a>
</g>
<text text-anchor="middle" x="754.87" y="-310" font-family="Helvetica,sans-Serif" font-size="10.00" fill="grey"> meshIndexYX</text>
<text text-anchor="middle" x="754.87" y="-299" font-family="Helvetica,sans-Serif" font-size="10.00" fill="grey">meshIndexZX</text>
<text text-anchor="middle" x="754.87" y="-288" font-family="Helvetica,sans-Serif" font-size="10.00" fill="grey">meshIndexZY</text>
<text text-anchor="middle" x="754.87" y="-277" font-family="Helvetica,sans-Serif" font-size="10.00" fill="grey">unk30</text>
<text text-anchor="middle" x="754.87" y="-266" font-family="Helvetica,sans-Serif" font-size="10.00" fill="grey">unk32</text>
<text text-anchor="middle" x="754.87" y="-255" font-family="Helvetica,sans-Serif" font-size="10.00" fill="grey">unk34</text>
</g>
<!-- Node9 -->
<g id="Node000009" class="node">
<title>Node9</title>
<g id="a_Node000009"><a xlink:title=" ">
<polygon fill="white" stroke="#666666" points="355.87,-232.5 305.87,-232.5 305.87,-213.5 355.87,-213.5 355.87,-232.5"/>
<text text-anchor="middle" x="330.87" y="-220.5" font-family="Helvetica,sans-Serif" font-size="10.00">uint8_t</text>
</a>
</g>
</g>
<!-- Node9&#45;&gt;Node2 -->
<g id="edge9_Node000002_Node000009" class="edge">
<title>Node9&#45;&gt;Node2</title>
<g id="a_edge9_Node000002_Node000009"><a xlink:title=" ">
<path fill="none" stroke="#9a32cd" stroke-dasharray="5,2" d="M333.75,-203.32C337.98,-182.12 347.91,-147.92 369.87,-128 393.54,-106.54 430.59,-98.82 455.05,-96.05"/>
<polygon fill="#9a32cd" stroke="#9a32cd" points="330.27,-202.87 331.98,-213.33 337.17,-204.09 330.27,-202.87"/>
</a>
</g>
<text text-anchor="middle" x="382.37" y="-158.5" font-family="Helvetica,sans-Serif" font-size="10.00" fill="grey"> uuid</text>
</g>
<!-- Node10 -->
<g id="Node000010" class="node">
<title>Node10</title>
<g id="a_Node000010"><a xlink:title=" ">
<polygon fill="white" stroke="#666666" points="787.37,-232.5 712.37,-232.5 712.37,-213.5 787.37,-213.5 787.37,-232.5"/>
<text text-anchor="middle" x="749.87" y="-220.5" font-family="Helvetica,sans-Serif" font-size="10.00">const char *</text>
</a>
</g>
</g>
<!-- Node10&#45;&gt;Node1 -->
<g id="edge14_Node000001_Node000010" class="edge">
<title>Node10&#45;&gt;Node1</title>
<g id="a_edge14_Node000001_Node000010"><a xlink:title=" ">
<path fill="none" stroke="#9a32cd" stroke-dasharray="5,2" d="M753.13,-203.33C757.96,-175.7 767.38,-122.31 775.87,-77 779.77,-56.19 784.62,-31.77 787.15,-19.1"/>
<polygon fill="#9a32cd" stroke="#9a32cd" points="749.62,-203.04 751.35,-213.49 756.52,-204.24 749.62,-203.04"/>
</a>
</g>
<text text-anchor="middle" x="788.87" y="-91" font-family="Helvetica,sans-Serif" font-size="10.00" fill="grey"> Type</text>
</g>
<!-- Node10&#45;&gt;Node2 -->
<g id="edge10_Node000002_Node000010" class="edge">
<title>Node10&#45;&gt;Node2</title>
<g id="a_edge10_Node000002_Node000010"><a xlink:title=" ">
<path fill="none" stroke="#9a32cd" stroke-dasharray="5,2" d="M727.41,-207.14C722.79,-203.29 718.3,-198.84 714.87,-194 696.94,-168.64 715.71,-147.92 691.87,-128 663.85,-104.58 554.47,-97.39 504.73,-95.3"/>
<polygon fill="#9a32cd" stroke="#9a32cd" points="725.57,-210.13 735.65,-213.39 729.8,-204.56 725.57,-210.13"/>
</a>
</g>
<text text-anchor="middle" x="731.37" y="-158.5" font-family="Helvetica,sans-Serif" font-size="10.00" fill="grey"> Name</text>
</g>
<!-- Node11 -->
<g id="Node000011" class="node">
<title>Node11</title>
<g id="a_Node000011"><a xlink:href="structFVector.html" target="_top" xlink:title=" ">
<polygon fill="white" stroke="#666666" points="629.37,-232.5 576.37,-232.5 576.37,-213.5 629.37,-213.5 629.37,-232.5"/>
<text text-anchor="middle" x="602.87" y="-220.5" font-family="Helvetica,sans-Serif" font-size="10.00">FVector</text>
</a>
</g>
</g>
<!-- Node11&#45;&gt;Node2 -->
<g id="edge11_Node000002_Node000011" class="edge">
<title>Node11&#45;&gt;Node2</title>
<g id="a_edge11_Node000002_Node000011"><a xlink:title=" ">
<path fill="none" stroke="#9a32cd" stroke-dasharray="5,2" d="M598.01,-203.41C591.7,-182.58 578.8,-148.97 556.87,-128 542.33,-114.1 521.1,-105.45 504.6,-100.43"/>
<polygon fill="#9a32cd" stroke="#9a32cd" points="594.71,-204.59 600.79,-213.26 601.44,-202.69 594.71,-204.59"/>
</a>
</g>
<text text-anchor="middle" x="610.87" y="-158.5" font-family="Helvetica,sans-Serif" font-size="10.00" fill="grey"> Scale</text>
</g>
<!-- Node12 -->
<g id="Node000012" class="node">
<title>Node12</title>
<g id="a_Node000012"><a xlink:title=" ">
<polygon fill="white" stroke="#666666" points="621.87,-355 583.87,-355 583.87,-336 621.87,-336 621.87,-355"/>
<text text-anchor="middle" x="602.87" y="-343" font-family="Helvetica,sans-Serif" font-size="10.00">float</text>
</a>
</g>
</g>
<!-- Node12&#45;&gt;Node11 -->
<g id="edge12_Node000011_Node000012" class="edge">
<title>Node12&#45;&gt;Node11</title>
<g id="a_edge12_Node000011_Node000012"><a xlink:title=" ">
<path fill="none" stroke="#9a32cd" stroke-dasharray="5,2" d="M602.87,-325.57C602.87,-299.03 602.87,-251.88 602.87,-232.59"/>
<polygon fill="#9a32cd" stroke="#9a32cd" points="599.38,-325.83 602.87,-335.83 606.38,-325.83 599.38,-325.83"/>
</a>
</g>
<text text-anchor="middle" x="607.87" y="-293.5" font-family="Helvetica,sans-Serif" font-size="10.00" fill="grey"> x</text>
<text text-anchor="middle" x="607.87" y="-282.5" font-family="Helvetica,sans-Serif" font-size="10.00" fill="grey">y</text>
<text text-anchor="middle" x="607.87" y="-271.5" font-family="Helvetica,sans-Serif" font-size="10.00" fill="grey">z</text>
</g>
<!-- Node13 -->
<g id="Node000013" class="node">
<title>Node13</title>
<g id="a_Node000013"><a xlink:title=" ">
<polygon fill="white" stroke="#666666" points="415.87,-232.5 373.87,-232.5 373.87,-213.5 415.87,-213.5 415.87,-232.5"/>
<text text-anchor="middle" x="394.87" y="-220.5" font-family="Helvetica,sans-Serif" font-size="10.00">Gfx *</text>
</a>
</g>
</g>
<!-- Node13&#45;&gt;Node2 -->
<g id="edge13_Node000002_Node000013" class="edge">
<title>Node13&#45;&gt;Node2</title>
<g id="a_edge13_Node000002_Node000013"><a xlink:title=" ">
<path fill="none" stroke="#9a32cd" stroke-dasharray="5,2" d="M396.95,-203.09C400.03,-182.69 407.45,-150.17 424.87,-128 433.58,-116.93 447.04,-108.64 458.47,-103.08"/>
<polygon fill="#9a32cd" stroke="#9a32cd" points="393.44,-202.91 395.63,-213.28 400.39,-203.81 393.44,-202.91"/>
</a>
</g>
<text text-anchor="middle" x="441.87" y="-158.5" font-family="Helvetica,sans-Serif" font-size="10.00" fill="grey"> Model</text>
</g>
<!-- Node14 -->
<g id="Node000014" class="node">
<title>Node14</title>
<g id="a_Node000014"><a xlink:title=" ">
<polygon fill="white" stroke="#666666" points="889.37,-103 844.37,-103 844.37,-84 889.37,-84 889.37,-103"/>
<text text-anchor="middle" x="866.87" y="-91" font-family="Helvetica,sans-Serif" font-size="10.00">size_t</text>
</a>
</g>
</g>
<!-- Node14&#45;&gt;Node1 -->
<g id="edge15_Node000001_Node000014" class="edge">
<title>Node14&#45;&gt;Node1</title>
<g id="a_edge15_Node000001_Node000014"><a xlink:title=" ">
<path fill="none" stroke="#9a32cd" stroke-dasharray="5,2" d="M857.72,-75.02C851.05,-63.36 841.21,-48.18 829.87,-37 822.75,-29.98 813.49,-23.8 805.56,-19.18"/>
<polygon fill="#9a32cd" stroke="#9a32cd" points="854.67,-76.73 862.55,-83.82 860.81,-73.37 854.67,-76.73"/>
</a>
</g>
<text text-anchor="middle" x="863.37" y="-51" font-family="Helvetica,sans-Serif" font-size="10.00" fill="grey"> Index</text>
<text text-anchor="middle" x="863.37" y="-40" font-family="Helvetica,sans-Serif" font-size="10.00" fill="grey">_count</text>
</g>
<!-- Node15 -->
<g id="Node000015" class="node">
<title>Node15</title>
<g id="a_Node000015"><a xlink:title=" ">
<polygon fill="white" stroke="#666666" points="936.37,-103 907.37,-103 907.37,-84 936.37,-84 936.37,-103"/>
<text text-anchor="middle" x="921.87" y="-91" font-family="Helvetica,sans-Serif" font-size="10.00">s8</text>
</a>
</g>
</g>
<!-- Node15&#45;&gt;Node1 -->
<g id="edge18_Node000001_Node000015" class="edge">
<title>Node15&#45;&gt;Node1</title>
<g id="a_edge18_Node000001_Node000015"><a xlink:title=" ">
<path fill="none" stroke="#9a32cd" stroke-dasharray="5,2" d="M913.81,-74.67C907.38,-62.36 897.23,-46.56 883.87,-37 861.46,-20.95 829.66,-14.61 809.15,-12.11"/>
<polygon fill="#9a32cd" stroke="#9a32cd" points="910.81,-76.5 918.34,-83.96 917.11,-73.44 910.81,-76.5"/>
</a>
</g>
<text text-anchor="middle" x="955.87" y="-51" font-family="Helvetica,sans-Serif" font-size="10.00" fill="grey"> SomeFlags</text>
<text text-anchor="middle" x="955.87" y="-40" font-family="Helvetica,sans-Serif" font-size="10.00" fill="grey">SomeFlagsTheSequel</text>
</g>
<!-- Node16 -->
<g id="Node000016" class="node">
<title>Node16</title>
<g id="a_Node000016"><a xlink:title=" ">
<polygon fill="white" stroke="#666666" points="1068.37,-103 1033.37,-103 1033.37,-84 1068.37,-84 1068.37,-103"/>
<text text-anchor="middle" x="1050.87" y="-91" font-family="Helvetica,sans-Serif" font-size="10.00">u32</text>
</a>
</g>
</g>
<!-- Node16&#45;&gt;Node1 -->
<g id="edge20_Node000001_Node000016" class="edge">
<title>Node16&#45;&gt;Node1</title>
<g id="a_edge20_Node000001_Node000016"><a xlink:title=" ">
<path fill="none" stroke="#9a32cd" stroke-dasharray="5,2" d="M1043.42,-74.4C1037.21,-61.73 1027.07,-45.59 1012.87,-37 978.78,-16.37 857.35,-11.79 808.97,-10.78"/>
<polygon fill="#9a32cd" stroke="#9a32cd" points="1040.27,-75.93 1047.57,-83.61 1046.66,-73.05 1040.27,-75.93"/>
</a>
</g>
<text text-anchor="middle" x="1059.87" y="-45.5" font-family="Helvetica,sans-Serif" font-size="10.00" fill="grey"> SoundBits</text>
</g>
</g>
</svg>
