<?xml version="1.0" encoding="UTF-8" standalone="no"?>
<!DOCTYPE svg PUBLIC "-//W3C//DTD SVG 1.1//EN"
 "http://www.w3.org/Graphics/SVG/1.1/DTD/svg11.dtd">
<!-- Generated by graphviz version 2.43.0 (0)
 -->
<!-- Title: PlayerBombKart::func_800563DC Pages: 1 -->
<svg width="1173pt" height="288pt"
 viewBox="0.00 0.00 1173.00 288.00" xmlns="http://www.w3.org/2000/svg" xmlns:xlink="http://www.w3.org/1999/xlink">
<g id="graph0" class="graph" transform="scale(1 1) rotate(0) translate(4 284)">
<title>PlayerBombKart::func_800563DC</title>
<!-- Node1 -->
<g id="Node000001" class="node">
<title>Node1</title>
<g id="a_Node000001"><a xlink:title=" ">
<polygon fill="#999999" stroke="#666666" points="123,-136.5 0,-136.5 0,-106.5 123,-106.5 123,-136.5"/>
<text text-anchor="start" x="8" y="-124.5" font-family="Helvetica,sans-Serif" font-size="10.00">PlayerBombKart::func</text>
<text text-anchor="middle" x="61.5" y="-113.5" font-family="Helvetica,sans-Serif" font-size="10.00">_800563DC</text>
</a>
</g>
</g>
<!-- Node2 -->
<g id="Node000002" class="node">
<title>Node2</title>
<g id="a_Node000002"><a xlink:href="render__objects_8c.html#a8a48ecaa397efcff0fd4aab89b040c59" target="_top" xlink:title=" ">
<polygon fill="white" stroke="#666666" points="291,-229.5 159,-229.5 159,-199.5 291,-199.5 291,-229.5"/>
<text text-anchor="start" x="167" y="-217.5" font-family="Helvetica,sans-Serif" font-size="10.00">draw_rectangle_texture</text>
<text text-anchor="middle" x="225" y="-206.5" font-family="Helvetica,sans-Serif" font-size="10.00">_overlap</text>
</a>
</g>
</g>
<!-- Node1&#45;&gt;Node2 -->
<g id="edge1_Node000001_Node000002" class="edge">
<title>Node1&#45;&gt;Node2</title>
<g id="a_edge1_Node000001_Node000002"><a xlink:title=" ">
<path fill="none" stroke="#63b8ff" d="M88.27,-136.53C107.69,-147.84 134.98,-163.7 159,-177.5 168.56,-182.99 178.92,-188.91 188.51,-194.37"/>
<polygon fill="#63b8ff" stroke="#63b8ff" points="186.98,-197.53 197.41,-199.43 190.44,-191.44 186.98,-197.53"/>
</a>
</g>
</g>
<!-- Node3 -->
<g id="Node000003" class="node">
<title>Node3</title>
<g id="a_Node000003"><a xlink:href="GBIMiddleware_8cpp.html#a4ecc44e3c6f1ca5a6b4a20c41d3bd2d2" target="_top" xlink:title=" ">
<polygon fill="white" stroke="#666666" points="455,-280 366,-280 366,-261 455,-261 455,-280"/>
<text text-anchor="middle" x="410.5" y="-268" font-family="Helvetica,sans-Serif" font-size="10.00">gSPDisplayList</text>
</a>
</g>
</g>
<!-- Node1&#45;&gt;Node3 -->
<g id="edge29_Node000001_Node000003" class="edge">
<title>Node1&#45;&gt;Node3</title>
<g id="a_edge29_Node000001_Node000003"><a xlink:title=" ">
<path fill="none" stroke="#63b8ff" d="M70.13,-136.82C83.93,-162.7 115.66,-214.59 159,-238.5 220.18,-272.25 302.27,-276.38 355.53,-274.69"/>
<polygon fill="#63b8ff" stroke="#63b8ff" points="355.93,-278.18 365.78,-274.28 355.65,-271.18 355.93,-278.18"/>
</a>
</g>
</g>
<!-- Node8 -->
<g id="Node000008" class="node">
<title>Node8</title>
<g id="a_Node000008"><a xlink:href="math__util__2_8c.html#a99d173c040cb4a9d0184df2605d71e32" target="_top" xlink:title=" ">
<polygon fill="white" stroke="#666666" points="271,-93 179,-93 179,-74 271,-74 271,-93"/>
<text text-anchor="middle" x="225" y="-81" font-family="Helvetica,sans-Serif" font-size="10.00">func_800418AC</text>
</a>
</g>
</g>
<!-- Node1&#45;&gt;Node8 -->
<g id="edge8_Node000001_Node000008" class="edge">
<title>Node1&#45;&gt;Node8</title>
<g id="a_edge8_Node000001_Node000008"><a xlink:title=" ">
<path fill="none" stroke="#63b8ff" d="M123.1,-107.24C139.54,-103.37 157.18,-99.22 173.04,-95.49"/>
<polygon fill="#63b8ff" stroke="#63b8ff" points="174.24,-98.8 183.17,-93.11 172.63,-91.99 174.24,-98.8"/>
</a>
</g>
</g>
<!-- Node11 -->
<g id="Node000011" class="node">
<title>Node11</title>
<g id="a_Node000011"><a xlink:href="render__objects_8c.html#a852c220b9eb9af78cce8e5b866dba9b2" target="_top" xlink:title=" ">
<polygon fill="white" stroke="#666666" points="271,-56 179,-56 179,-37 271,-37 271,-56"/>
<text text-anchor="middle" x="225" y="-44" font-family="Helvetica,sans-Serif" font-size="10.00">func_8004B310</text>
</a>
</g>
</g>
<!-- Node1&#45;&gt;Node11 -->
<g id="edge11_Node000001_Node000011" class="edge">
<title>Node1&#45;&gt;Node11</title>
<g id="a_edge11_Node000001_Node000011"><a xlink:title=" ">
<path fill="none" stroke="#63b8ff" d="M84.24,-106.4C103.24,-93.76 131.96,-75.99 159,-64.5 163.66,-62.52 168.61,-60.69 173.6,-59.03"/>
<polygon fill="#63b8ff" stroke="#63b8ff" points="174.71,-62.35 183.21,-56.02 172.62,-55.66 174.71,-62.35"/>
</a>
</g>
</g>
<!-- Node12 -->
<g id="Node000012" class="node">
<title>Node12</title>
<g id="a_Node000012"><a xlink:href="render__objects_8c.html#a9ea20c14c263ed864d8e02d082b6b18b" target="_top" xlink:title=" ">
<polygon fill="white" stroke="#666666" points="271,-19 179,-19 179,0 271,0 271,-19"/>
<text text-anchor="middle" x="225" y="-7" font-family="Helvetica,sans-Serif" font-size="10.00">func_8004B414</text>
</a>
</g>
</g>
<!-- Node1&#45;&gt;Node12 -->
<g id="edge12_Node000001_Node000012" class="edge">
<title>Node1&#45;&gt;Node12</title>
<g id="a_edge12_Node000001_Node000012"><a xlink:title=" ">
<path fill="none" stroke="#63b8ff" d="M73.86,-106.41C90.35,-85.58 122.9,-48.23 159,-27.5 162.24,-25.64 165.68,-23.97 169.21,-22.46"/>
<polygon fill="#63b8ff" stroke="#63b8ff" points="170.64,-25.66 178.75,-18.85 168.16,-19.12 170.64,-25.66"/>
</a>
</g>
</g>
<!-- Node13 -->
<g id="Node000013" class="node">
<title>Node13</title>
<g id="a_Node000013"><a xlink:href="render__objects_8c.html#a4f12cf578f0abd9e0aaa3f9adc4fe324" target="_top" xlink:title=" ">
<polygon fill="white" stroke="#666666" points="270.5,-169 179.5,-169 179.5,-150 270.5,-150 270.5,-169"/>
<text text-anchor="middle" x="225" y="-157" font-family="Helvetica,sans-Serif" font-size="10.00">func_800562E4</text>
</a>
</g>
</g>
<!-- Node1&#45;&gt;Node13 -->
<g id="edge13_Node000001_Node000013" class="edge">
<title>Node1&#45;&gt;Node13</title>
<g id="a_edge13_Node000001_Node000013"><a xlink:title=" ">
<path fill="none" stroke="#63b8ff" d="M123.1,-135.76C139.54,-139.63 157.18,-143.78 173.04,-147.51"/>
<polygon fill="#63b8ff" stroke="#63b8ff" points="172.63,-151.01 183.17,-149.89 174.24,-144.2 172.63,-151.01"/>
</a>
</g>
</g>
<!-- Node16 -->
<g id="Node000016" class="node">
<title>Node16</title>
<g id="a_Node000016"><a xlink:href="math__util__2_8c.html#a2eff0e02deb703653ee3230fbc02eb14" target="_top" xlink:title="set the matrix to a transformation matrix">
<polygon fill="white" stroke="#666666" points="494,-95 327,-95 327,-76 494,-76 494,-95"/>
<text text-anchor="middle" x="410.5" y="-83" font-family="Helvetica,sans-Serif" font-size="10.00">rsp_set_matrix_transformation</text>
</a>
</g>
</g>
<!-- Node1&#45;&gt;Node16 -->
<g id="edge30_Node000001_Node000016" class="edge">
<title>Node1&#45;&gt;Node16</title>
<g id="a_edge30_Node000001_Node000016"><a xlink:title=" ">
<path fill="none" stroke="#63b8ff" d="M123.19,-116.97C169.29,-113.34 234.21,-107.82 291,-101.5 304.61,-99.99 319.08,-98.19 333.06,-96.36"/>
<polygon fill="#63b8ff" stroke="#63b8ff" points="333.68,-99.81 343.13,-95.02 332.76,-92.87 333.68,-99.81"/>
</a>
</g>
</g>
<!-- Node2&#45;&gt;Node3 -->
<g id="edge2_Node000002_Node000003" class="edge">
<title>Node2&#45;&gt;Node3</title>
<g id="a_edge2_Node000002_Node000003"><a xlink:title=" ">
<path fill="none" stroke="#63b8ff" d="M262.03,-229.51C281.11,-237.09 305.08,-246.02 327,-252.5 336.29,-255.24 346.27,-257.77 355.98,-260.01"/>
<polygon fill="#63b8ff" stroke="#63b8ff" points="355.43,-263.47 365.95,-262.23 356.96,-256.64 355.43,-263.47"/>
</a>
</g>
</g>
<!-- Node6 -->
<g id="Node000006" class="node">
<title>Node6</title>
<g id="a_Node000006"><a xlink:href="GBIMiddleware_8cpp.html#aeef79449a27a710d73576e4a4f7f7f99" target="_top" xlink:title=" ">
<polygon fill="white" stroke="#666666" points="443.5,-206 377.5,-206 377.5,-187 443.5,-187 443.5,-206"/>
<text text-anchor="middle" x="410.5" y="-194" font-family="Helvetica,sans-Serif" font-size="10.00">gSPVertex</text>
</a>
</g>
</g>
<!-- Node2&#45;&gt;Node6 -->
<g id="edge5_Node000002_Node000006" class="edge">
<title>Node2&#45;&gt;Node6</title>
<g id="a_edge5_Node000002_Node000006"><a xlink:title=" ">
<path fill="none" stroke="#63b8ff" d="M291.21,-208.1C316.47,-205.63 344.66,-202.86 367.18,-200.65"/>
<polygon fill="#63b8ff" stroke="#63b8ff" points="367.81,-204.11 377.43,-199.65 367.13,-197.14 367.81,-204.11"/>
</a>
</g>
</g>
<!-- Node7 -->
<g id="Node000007" class="node">
<title>Node7</title>
<g id="a_Node000007"><a xlink:href="render__objects_8c.html#a8a3e9d3da5a6ac97b84b553fdc5d7d59" target="_top" xlink:title=" ">
<polygon fill="white" stroke="#666666" points="459.5,-243 361.5,-243 361.5,-224 459.5,-224 459.5,-243"/>
<text text-anchor="middle" x="410.5" y="-231" font-family="Helvetica,sans-Serif" font-size="10.00">rsp_load_texture</text>
</a>
</g>
</g>
<!-- Node2&#45;&gt;Node7 -->
<g id="edge7_Node000002_Node000007" class="edge">
<title>Node2&#45;&gt;Node7</title>
<g id="a_edge7_Node000002_Node000007"><a xlink:title=" ">
<path fill="none" stroke="#63b8ff" d="M291.21,-221.25C310.77,-223.28 332.09,-225.49 351.18,-227.46"/>
<polygon fill="#63b8ff" stroke="#63b8ff" points="350.92,-230.95 361.23,-228.5 351.64,-223.99 350.92,-230.95"/>
</a>
</g>
</g>
<!-- Node4 -->
<g id="Node000004" class="node">
<title>Node4</title>
<g id="a_Node000004"><a xlink:href="Engine_8cpp.html#a223c8bc63f228dc11177515e38eff2db" target="_top" xlink:title=" ">
<polygon fill="white" stroke="#666666" points="692.5,-234 543.5,-234 543.5,-215 692.5,-215 692.5,-234"/>
<text text-anchor="middle" x="618" y="-222" font-family="Helvetica,sans-Serif" font-size="10.00">GameEngine_OTRSigCheck</text>
</a>
</g>
</g>
<!-- Node3&#45;&gt;Node4 -->
<g id="edge3_Node000003_Node000004" class="edge">
<title>Node3&#45;&gt;Node4</title>
<g id="a_edge3_Node000003_Node000004"><a xlink:title=" ">
<path fill="none" stroke="#63b8ff" d="M455.19,-261.04C467.72,-258.31 481.41,-255.31 494,-252.5 517.54,-247.25 543.59,-241.34 565.64,-236.3"/>
<polygon fill="#63b8ff" stroke="#63b8ff" points="566.49,-239.7 575.46,-234.05 564.93,-232.87 566.49,-239.7"/>
</a>
</g>
</g>
<!-- Node5 -->
<g id="Node000005" class="node">
<title>Node5</title>
<g id="a_Node000005"><a xlink:href="string_8c.html#a008e171a518fe0e0352f31b245e03875" target="_top" xlink:title=" ">
<polygon fill="white" stroke="#666666" points="797.5,-234 753.5,-234 753.5,-215 797.5,-215 797.5,-234"/>
<text text-anchor="middle" x="775.5" y="-222" font-family="Helvetica,sans-Serif" font-size="10.00">strlen</text>
</a>
</g>
</g>
<!-- Node4&#45;&gt;Node5 -->
<g id="edge4_Node000004_Node000005" class="edge">
<title>Node4&#45;&gt;Node5</title>
<g id="a_edge4_Node000004_Node000005"><a xlink:title=" ">
<path fill="none" stroke="#63b8ff" d="M692.65,-224.5C710.29,-224.5 728.21,-224.5 742.77,-224.5"/>
<polygon fill="#63b8ff" stroke="#63b8ff" points="743.19,-228 753.19,-224.5 743.19,-221 743.19,-228"/>
</a>
</g>
</g>
<!-- Node6&#45;&gt;Node4 -->
<g id="edge6_Node000006_Node000004" class="edge">
<title>Node6&#45;&gt;Node4</title>
<g id="a_edge6_Node000006_Node000004"><a xlink:title=" ">
<path fill="none" stroke="#63b8ff" d="M443.61,-200.88C468.57,-204.28 504.31,-209.15 536.87,-213.58"/>
<polygon fill="#63b8ff" stroke="#63b8ff" points="536.47,-217.06 546.85,-214.94 537.42,-210.12 536.47,-217.06"/>
</a>
</g>
</g>
<!-- Node9 -->
<g id="Node000009" class="node">
<title>Node9</title>
<g id="a_Node000009"><a xlink:href="math__util_8c.html#aaa39a297477f56051975259f4bddd829" target="_top" xlink:title=" ">
<polygon fill="white" stroke="#666666" points="435.5,-58 385.5,-58 385.5,-39 435.5,-39 435.5,-58"/>
<text text-anchor="middle" x="410.5" y="-46" font-family="Helvetica,sans-Serif" font-size="10.00">atan2s</text>
</a>
</g>
</g>
<!-- Node8&#45;&gt;Node9 -->
<g id="edge9_Node000008_Node000009" class="edge">
<title>Node8&#45;&gt;Node9</title>
<g id="a_edge9_Node000008_Node000009"><a xlink:title=" ">
<path fill="none" stroke="#63b8ff" d="M271.36,-74.85C303.5,-68.72 345.94,-60.62 375.26,-55.03"/>
<polygon fill="#63b8ff" stroke="#63b8ff" points="376.26,-58.4 385.42,-53.09 374.94,-51.53 376.26,-58.4"/>
</a>
</g>
</g>
<!-- Node10 -->
<g id="Node000010" class="node">
<title>Node10</title>
<g id="a_Node000010"><a xlink:href="math__util_8c.html#a0273b0ea0783a06996c28669a7438ed9" target="_top" xlink:title=" ">
<polygon fill="white" stroke="#666666" points="659,-58 577,-58 577,-39 659,-39 659,-58"/>
<text text-anchor="middle" x="618" y="-46" font-family="Helvetica,sans-Serif" font-size="10.00">atan2_lookup</text>
</a>
</g>
</g>
<!-- Node9&#45;&gt;Node10 -->
<g id="edge10_Node000009_Node000010" class="edge">
<title>Node9&#45;&gt;Node10</title>
<g id="a_edge10_Node000009_Node000010"><a xlink:title=" ">
<path fill="none" stroke="#63b8ff" d="M435.88,-48.5C467.93,-48.5 525.03,-48.5 566.56,-48.5"/>
<polygon fill="#63b8ff" stroke="#63b8ff" points="566.77,-52 576.77,-48.5 566.77,-45 566.77,-52"/>
</a>
</g>
</g>
<!-- Node13&#45;&gt;Node3 -->
<g id="edge16_Node000013_Node000003" class="edge">
<title>Node13&#45;&gt;Node3</title>
<g id="a_edge16_Node000013_Node000003"><a xlink:title=" ">
<path fill="none" stroke="#63b8ff" d="M255.12,-169.02C267.22,-174.02 280.8,-181.09 291,-190.5 314.43,-212.1 301.25,-233.73 327,-252.5 335.44,-258.65 345.57,-262.77 355.8,-265.52"/>
<polygon fill="#63b8ff" stroke="#63b8ff" points="355.05,-268.94 365.58,-267.75 356.61,-262.11 355.05,-268.94"/>
</a>
</g>
</g>
<!-- Node13&#45;&gt;Node6 -->
<g id="edge17_Node000013_Node000006" class="edge">
<title>Node13&#45;&gt;Node6</title>
<g id="a_edge17_Node000013_Node000006"><a xlink:title=" ">
<path fill="none" stroke="#63b8ff" d="M270.89,-168.55C300.28,-174.48 338.44,-182.17 367.27,-187.99"/>
<polygon fill="#63b8ff" stroke="#63b8ff" points="366.95,-191.49 377.44,-190.04 368.33,-184.63 366.95,-191.49"/>
</a>
</g>
</g>
<!-- Node14 -->
<g id="Node000014" class="node">
<title>Node14</title>
<g id="a_Node000014"><a xlink:href="render__objects_8c.html#a01f1c93f475b407a8e57888c6a6dd45b" target="_top" xlink:title=" ">
<polygon fill="white" stroke="#666666" points="456.5,-132 364.5,-132 364.5,-113 456.5,-113 456.5,-132"/>
<text text-anchor="middle" x="410.5" y="-120" font-family="Helvetica,sans-Serif" font-size="10.00">func_80044BF8</text>
</a>
</g>
</g>
<!-- Node13&#45;&gt;Node14 -->
<g id="edge14_Node000013_Node000014" class="edge">
<title>Node13&#45;&gt;Node14</title>
<g id="a_edge14_Node000013_Node000014"><a xlink:title=" ">
<path fill="none" stroke="#63b8ff" d="M270.89,-150.45C296.1,-145.36 327.77,-138.98 354.47,-133.6"/>
<polygon fill="#63b8ff" stroke="#63b8ff" points="355.33,-136.99 364.44,-131.59 353.94,-130.13 355.33,-136.99"/>
</a>
</g>
</g>
<!-- Node15 -->
<g id="Node000015" class="node">
<title>Node15</title>
<g id="a_Node000015"><a xlink:href="render__objects_8c.html#a816f6d2e246056f98e788f34a8bd091a" target="_top" xlink:title=" ">
<polygon fill="white" stroke="#666666" points="456.5,-169 364.5,-169 364.5,-150 456.5,-150 456.5,-169"/>
<text text-anchor="middle" x="410.5" y="-157" font-family="Helvetica,sans-Serif" font-size="10.00">func_8004B138</text>
</a>
</g>
</g>
<!-- Node13&#45;&gt;Node15 -->
<g id="edge15_Node000013_Node000015" class="edge">
<title>Node13&#45;&gt;Node15</title>
<g id="a_edge15_Node000013_Node000015"><a xlink:title=" ">
<path fill="none" stroke="#63b8ff" d="M270.89,-159.5C295.99,-159.5 327.49,-159.5 354.12,-159.5"/>
<polygon fill="#63b8ff" stroke="#63b8ff" points="354.44,-163 364.44,-159.5 354.44,-156 354.44,-163"/>
</a>
</g>
</g>
<!-- Node13&#45;&gt;Node16 -->
<g id="edge18_Node000013_Node000016" class="edge">
<title>Node13&#45;&gt;Node16</title>
<g id="a_edge18_Node000013_Node000016"><a xlink:title=" ">
<path fill="none" stroke="#63b8ff" d="M259.16,-149.94C269.72,-146.2 281.2,-141.38 291,-135.5 309.36,-124.49 307.92,-113.21 327,-103.5 330.75,-101.59 334.69,-99.89 338.74,-98.36"/>
<polygon fill="#63b8ff" stroke="#63b8ff" points="339.98,-101.64 348.34,-95.12 337.74,-95 339.98,-101.64"/>
</a>
</g>
</g>
<!-- Node17 -->
<g id="Node000017" class="node">
<title>Node17</title>
<g id="a_Node000017"><a xlink:href="Matrix_8cpp.html#a329d78c031733cf22ff7518f5d38fd74" target="_top" xlink:title=" ">
<polygon fill="white" stroke="#666666" points="661,-142 575,-142 575,-123 661,-123 661,-142"/>
<text text-anchor="middle" x="618" y="-130" font-family="Helvetica,sans-Serif" font-size="10.00">AddHudMatrix</text>
</a>
</g>
</g>
<!-- Node16&#45;&gt;Node17 -->
<g id="edge19_Node000016_Node000017" class="edge">
<title>Node16&#45;&gt;Node17</title>
<g id="a_edge19_Node000016_Node000017"><a xlink:title=" ">
<path fill="none" stroke="#63b8ff" d="M456.06,-95.08C468.36,-97.76 481.71,-100.71 494,-103.5 518.21,-109 545.06,-115.3 567.47,-120.62"/>
<polygon fill="#63b8ff" stroke="#63b8ff" points="566.89,-124.08 577.43,-122.99 568.51,-117.27 566.89,-124.08"/>
</a>
</g>
</g>
<!-- Node22 -->
<g id="Node000022" class="node">
<title>Node22</title>
<g id="a_Node000022"><a xlink:href="math__util__2_8c.html#ae71383a9d7f97bcb240b23f68068ab30" target="_top" xlink:title=" ">
<polygon fill="white" stroke="#666666" points="706,-95 530,-95 530,-76 706,-76 706,-95"/>
<text text-anchor="middle" x="618" y="-83" font-family="Helvetica,sans-Serif" font-size="10.00">mtxf_set_matrix_transformation</text>
</a>
</g>
</g>
<!-- Node16&#45;&gt;Node22 -->
<g id="edge24_Node000016_Node000022" class="edge">
<title>Node16&#45;&gt;Node22</title>
<g id="a_edge24_Node000016_Node000022"><a xlink:title=" ">
<path fill="none" stroke="#63b8ff" d="M494.2,-85.5C502.61,-85.5 511.22,-85.5 519.77,-85.5"/>
<polygon fill="#63b8ff" stroke="#63b8ff" points="519.77,-89 529.77,-85.5 519.77,-82 519.77,-89"/>
</a>
</g>
</g>
<!-- Node18 -->
<g id="Node000018" class="node">
<title>Node18</title>
<g id="a_Node000018"><a xlink:href="Matrix_8cpp.html#aaa0983157188edefc6259671ccda6746" target="_top" xlink:title=" ">
<polygon fill="white" stroke="#666666" points="809,-160 742,-160 742,-141 809,-141 809,-160"/>
<text text-anchor="middle" x="775.5" y="-148" font-family="Helvetica,sans-Serif" font-size="10.00">AddMatrix</text>
</a>
</g>
</g>
<!-- Node17&#45;&gt;Node18 -->
<g id="edge20_Node000017_Node000018" class="edge">
<title>Node17&#45;&gt;Node18</title>
<g id="a_edge20_Node000017_Node000018"><a xlink:title=" ">
<path fill="none" stroke="#63b8ff" d="M661.08,-137.37C682.98,-139.91 709.69,-143 731.69,-145.55"/>
<polygon fill="#63b8ff" stroke="#63b8ff" points="731.42,-149.04 741.76,-146.71 732.22,-142.08 731.42,-149.04"/>
</a>
</g>
</g>
<!-- Node19 -->
<g id="Node000019" class="node">
<title>Node19</title>
<g id="a_Node000019"><a xlink:href="FrameInterpolation_8cpp.html#a8cf1f2d6fabc6925aa71a9515341b4aa" target="_top" xlink:title=" ">
<polygon fill="white" stroke="#666666" points="1003,-165.5 863,-165.5 863,-135.5 1003,-135.5 1003,-165.5"/>
<text text-anchor="start" x="871" y="-153.5" font-family="Helvetica,sans-Serif" font-size="10.00">FrameInterpolation</text>
<text text-anchor="middle" x="933" y="-142.5" font-family="Helvetica,sans-Serif" font-size="10.00">_RecordMatrixMtxFToMtx</text>
</a>
</g>
</g>
<!-- Node18&#45;&gt;Node19 -->
<g id="edge21_Node000018_Node000019" class="edge">
<title>Node18&#45;&gt;Node19</title>
<g id="a_edge21_Node000018_Node000019"><a xlink:title=" ">
<path fill="none" stroke="#63b8ff" d="M809.1,-150.5C821.96,-150.5 837.33,-150.5 852.79,-150.5"/>
<polygon fill="#63b8ff" stroke="#63b8ff" points="852.93,-154 862.93,-150.5 852.93,-147 852.93,-154"/>
</a>
</g>
</g>
<!-- Node21 -->
<g id="Node000021" class="node">
<title>Node21</title>
<g id="a_Node000021"><a xlink:href="guMtxF2L_8c.html#a40ab2d64c609839ff1e0ef0de2d0dcc4" target="_top" xlink:title=" ">
<polygon fill="white" stroke="#666666" points="965.5,-117 900.5,-117 900.5,-98 965.5,-98 965.5,-117"/>
<text text-anchor="middle" x="933" y="-105" font-family="Helvetica,sans-Serif" font-size="10.00">guMtxF2L</text>
</a>
</g>
</g>
<!-- Node18&#45;&gt;Node21 -->
<g id="edge23_Node000018_Node000021" class="edge">
<title>Node18&#45;&gt;Node21</title>
<g id="a_edge23_Node000018_Node000021"><a xlink:title=" ">
<path fill="none" stroke="#63b8ff" d="M801.32,-140.98C814.22,-136.24 830.33,-130.66 845,-126.5 859.6,-122.36 875.8,-118.61 890.22,-115.54"/>
<polygon fill="#63b8ff" stroke="#63b8ff" points="891.28,-118.9 900.36,-113.44 889.86,-112.05 891.28,-118.9"/>
</a>
</g>
</g>
<!-- Node20 -->
<g id="Node000020" class="node">
<title>Node20</title>
<g id="a_Node000020"><a xlink:href="FrameInterpolation_8cpp.html#a02c7ac5342a4d376edee38f312b480bf" target="_top" xlink:title=" ">
<polygon fill="white" stroke="#666666" points="1165,-104 1057,-104 1057,-85 1165,-85 1165,-104"/>
<text text-anchor="middle" x="1111" y="-92" font-family="Helvetica,sans-Serif" font-size="10.00">check_if_recording</text>
</a>
</g>
</g>
<!-- Node19&#45;&gt;Node20 -->
<g id="edge22_Node000019_Node000020" class="edge">
<title>Node19&#45;&gt;Node20</title>
<g id="a_edge22_Node000019_Node000020"><a xlink:title=" ">
<path fill="none" stroke="#63b8ff" d="M987.97,-135.49C998.94,-132.3 1010.37,-128.88 1021,-125.5 1038.56,-119.92 1057.9,-113.25 1074.05,-107.53"/>
<polygon fill="#63b8ff" stroke="#63b8ff" points="1075.4,-110.76 1083.65,-104.11 1073.05,-104.17 1075.4,-110.76"/>
</a>
</g>
</g>
<!-- Node23 -->
<g id="Node000023" class="node">
<title>Node23</title>
<g id="a_Node000023"><a xlink:href="math__util_8c.html#ae69cbf5c8d4b3b0dba2d7b4d4673689f" target="_top" xlink:title=" ">
<polygon fill="white" stroke="#666666" points="794.5,-86 756.5,-86 756.5,-67 794.5,-67 794.5,-86"/>
<text text-anchor="middle" x="775.5" y="-74" font-family="Helvetica,sans-Serif" font-size="10.00">coss</text>
</a>
</g>
</g>
<!-- Node22&#45;&gt;Node23 -->
<g id="edge25_Node000022_Node000023" class="edge">
<title>Node22&#45;&gt;Node23</title>
<g id="a_edge25_Node000022_Node000023"><a xlink:title=" ">
<path fill="none" stroke="#63b8ff" d="M706.3,-80.45C720.67,-79.62 734.6,-78.81 746.09,-78.14"/>
<polygon fill="#63b8ff" stroke="#63b8ff" points="746.5,-81.63 756.29,-77.55 746.1,-74.64 746.5,-81.63"/>
</a>
</g>
</g>
<!-- Node24 -->
<g id="Node000024" class="node">
<title>Node24</title>
<g id="a_Node000024"><a xlink:href="FrameInterpolation_8cpp.html#af749df1a96bee5c78287b1845455ae2d" target="_top" xlink:title=" ">
<polygon fill="white" stroke="#666666" points="1021,-66.5 845,-66.5 845,-36.5 1021,-36.5 1021,-66.5"/>
<text text-anchor="start" x="853" y="-54.5" font-family="Helvetica,sans-Serif" font-size="10.00">FrameInterpolation</text>
<text text-anchor="middle" x="933" y="-43.5" font-family="Helvetica,sans-Serif" font-size="10.00">_RecordSetMatrixTransformation</text>
</a>
</g>
</g>
<!-- Node22&#45;&gt;Node24 -->
<g id="edge26_Node000022_Node000024" class="edge">
<title>Node22&#45;&gt;Node24</title>
<g id="a_edge26_Node000022_Node000024"><a xlink:title=" ">
<path fill="none" stroke="#63b8ff" d="M663.76,-75.99C677.35,-73.04 692.3,-69.71 706,-66.5 722.06,-62.74 725.66,-59.77 742,-57.5 771.82,-53.35 804.53,-51.4 834.26,-50.6"/>
<polygon fill="#63b8ff" stroke="#63b8ff" points="834.73,-54.09 844.65,-50.36 834.57,-47.09 834.73,-54.09"/>
</a>
</g>
</g>
<!-- Node25 -->
<g id="Node000025" class="node">
<title>Node25</title>
<g id="a_Node000025"><a xlink:href="math__util_8c.html#a19ed3bd78fd2d3e2bd0a29f6caf48545" target="_top" xlink:title=" ">
<polygon fill="white" stroke="#666666" points="793.5,-123 757.5,-123 757.5,-104 793.5,-104 793.5,-123"/>
<text text-anchor="middle" x="775.5" y="-111" font-family="Helvetica,sans-Serif" font-size="10.00">sins</text>
</a>
</g>
</g>
<!-- Node22&#45;&gt;Node25 -->
<g id="edge28_Node000022_Node000025" class="edge">
<title>Node22&#45;&gt;Node25</title>
<g id="a_edge28_Node000022_Node000025"><a xlink:title=" ">
<path fill="none" stroke="#63b8ff" d="M672.08,-95.06C697.4,-99.62 726.62,-104.88 747.35,-108.61"/>
<polygon fill="#63b8ff" stroke="#63b8ff" points="746.89,-112.09 757.36,-110.41 748.14,-105.2 746.89,-112.09"/>
</a>
</g>
</g>
<!-- Node24&#45;&gt;Node20 -->
<g id="edge27_Node000024_Node000020" class="edge">
<title>Node24&#45;&gt;Node20</title>
<g id="a_edge27_Node000024_Node000020"><a xlink:title=" ">
<path fill="none" stroke="#63b8ff" d="M995.56,-66.54C1017.01,-71.78 1040.78,-77.59 1061.07,-82.54"/>
<polygon fill="#63b8ff" stroke="#63b8ff" points="1060.48,-86 1071.03,-84.98 1062.14,-79.2 1060.48,-86"/>
</a>
</g>
</g>
</g>
</svg>
