<?xml version="1.0" encoding="UTF-8" standalone="no"?>
<!DOCTYPE svg PUBLIC "-//W3C//DTD SVG 1.1//EN"
 "http://www.w3.org/Graphics/SVG/1.1/DTD/svg11.dtd">
<!-- Generated by graphviz version 2.43.0 (0)
 -->
<!-- Title: OLakitu::func_8007A910 Pages: 1 -->
<svg width="1434pt" height="805pt"
 viewBox="0.00 0.00 1434.00 805.00" xmlns="http://www.w3.org/2000/svg" xmlns:xlink="http://www.w3.org/1999/xlink">
<g id="graph0" class="graph" transform="scale(1 1) rotate(0) translate(4 801)">
<title>OLakitu::func_8007A910</title>
<!-- Node1 -->
<g id="Node000001" class="node">
<title>Node1</title>
<g id="a_Node000001"><a xlink:title=" ">
<polygon fill="#999999" stroke="#666666" points="135,-107 0,-107 0,-88 135,-88 135,-107"/>
<text text-anchor="middle" x="67.5" y="-95" font-family="Helvetica,sans-Serif" font-size="10.00">OLakitu::func_8007A910</text>
</a>
</g>
</g>
<!-- Node2 -->
<g id="Node000002" class="node">
<title>Node2</title>
<g id="a_Node000002"><a xlink:href="classOLakitu.html#a36c83733ab0a1c33f0c0585837aef630" target="_top" xlink:title=" ">
<polygon fill="white" stroke="#666666" points="306,-145 172,-145 172,-126 306,-126 306,-145"/>
<text text-anchor="middle" x="239" y="-133" font-family="Helvetica,sans-Serif" font-size="10.00">OLakitu::func_80079860</text>
</a>
</g>
</g>
<!-- Node1&#45;&gt;Node2 -->
<g id="edge1_Node000001_Node000002" class="edge">
<title>Node1&#45;&gt;Node2</title>
<g id="a_edge1_Node000001_Node000002"><a xlink:title=" ">
<path fill="none" stroke="#63b8ff" d="M111.27,-107.09C133.84,-112.15 161.72,-118.4 185.58,-123.75"/>
<polygon fill="#63b8ff" stroke="#63b8ff" points="185.01,-127.21 195.54,-125.98 186.54,-120.38 185.01,-127.21"/>
</a>
</g>
</g>
<!-- Node49 -->
<g id="Node000049" class="node">
<title>Node49</title>
<g id="a_Node000049"><a xlink:href="classOLakitu.html#a610ed084402b95badbd34ca8e8dead71" target="_top" xlink:title=" ">
<polygon fill="white" stroke="#666666" points="307,-89 171,-89 171,-70 307,-70 307,-89"/>
<text text-anchor="middle" x="239" y="-77" font-family="Helvetica,sans-Serif" font-size="10.00">OLakitu::func_8007A88C</text>
</a>
</g>
</g>
<!-- Node1&#45;&gt;Node49 -->
<g id="edge51_Node000001_Node000049" class="edge">
<title>Node1&#45;&gt;Node49</title>
<g id="a_edge51_Node000001_Node000049"><a xlink:title=" ">
<path fill="none" stroke="#63b8ff" d="M135,-90.44C143.47,-89.54 152.19,-88.61 160.81,-87.7"/>
<polygon fill="#63b8ff" stroke="#63b8ff" points="161.28,-91.17 170.85,-86.63 160.54,-84.21 161.28,-91.17"/>
</a>
</g>
</g>
<!-- Node3 -->
<g id="Node000003" class="node">
<title>Node3</title>
<g id="a_Node000003"><a xlink:href="update__objects_8c.html#ab7e91b1ebcbec57dfed6e185a2f67580" target="_top" xlink:title=" ">
<polygon fill="white" stroke="#666666" points="456.5,-145 365.5,-145 365.5,-126 456.5,-126 456.5,-145"/>
<text text-anchor="middle" x="411" y="-133" font-family="Helvetica,sans-Serif" font-size="10.00">func_80072354</text>
</a>
</g>
</g>
<!-- Node2&#45;&gt;Node3 -->
<g id="edge2_Node000002_Node000003" class="edge">
<title>Node2&#45;&gt;Node3</title>
<g id="a_edge2_Node000002_Node000003"><a xlink:title=" ">
<path fill="none" stroke="#63b8ff" d="M306.21,-135.5C322.5,-135.5 339.76,-135.5 355.43,-135.5"/>
<polygon fill="#63b8ff" stroke="#63b8ff" points="355.47,-139 365.47,-135.5 355.47,-132 355.47,-139"/>
</a>
</g>
</g>
<!-- Node4 -->
<g id="Node000004" class="node">
<title>Node4</title>
<g id="a_Node000004"><a xlink:href="classOLakitu.html#ae76d444a529be6c5991529e5d0ba6f15" target="_top" xlink:title=" ">
<polygon fill="white" stroke="#666666" points="479,-108 343,-108 343,-89 479,-89 479,-108"/>
<text text-anchor="middle" x="411" y="-96" font-family="Helvetica,sans-Serif" font-size="10.00">OLakitu::func_800797AC</text>
</a>
</g>
</g>
<!-- Node2&#45;&gt;Node4 -->
<g id="edge3_Node000002_Node000004" class="edge">
<title>Node2&#45;&gt;Node4</title>
<g id="a_edge3_Node000002_Node000004"><a xlink:title=" ">
<path fill="none" stroke="#63b8ff" d="M283.78,-125.97C305.8,-121.18 332.7,-115.32 356,-110.25"/>
<polygon fill="#63b8ff" stroke="#63b8ff" points="357.05,-113.61 366.07,-108.06 355.56,-106.77 357.05,-113.61"/>
</a>
</g>
</g>
<!-- Node9 -->
<g id="Node000009" class="node">
<title>Node9</title>
<g id="a_Node000009"><a xlink:href="effects_8c.html#a17332237b5c2a4249328a35071e23bf7" target="_top" xlink:title=" ">
<polygon fill="white" stroke="#666666" points="456.5,-230 365.5,-230 365.5,-211 456.5,-211 456.5,-230"/>
<text text-anchor="middle" x="411" y="-218" font-family="Helvetica,sans-Serif" font-size="10.00">func_80090778</text>
</a>
</g>
</g>
<!-- Node2&#45;&gt;Node9 -->
<g id="edge8_Node000002_Node000009" class="edge">
<title>Node2&#45;&gt;Node9</title>
<g id="a_edge8_Node000002_Node000009"><a xlink:title=" ">
<path fill="none" stroke="#63b8ff" d="M256.94,-145.01C277.2,-156.28 312.24,-175.42 343,-190.5 354.33,-196.05 366.92,-201.8 378.09,-206.76"/>
<polygon fill="#63b8ff" stroke="#63b8ff" points="376.92,-210.06 387.49,-210.88 379.74,-203.66 376.92,-210.06"/>
</a>
</g>
</g>
<!-- Node48 -->
<g id="Node000048" class="node">
<title>Node48</title>
<g id="a_Node000048"><a xlink:href="collision_8c.html#a0371e15af0413f7e110eb91a9995bcb7" target="_top" xlink:title=" ">
<polygon fill="white" stroke="#666666" points="458,-182 364,-182 364,-163 458,-163 458,-182"/>
<text text-anchor="middle" x="411" y="-170" font-family="Helvetica,sans-Serif" font-size="10.00">func_802ABDF4</text>
</a>
</g>
</g>
<!-- Node2&#45;&gt;Node48 -->
<g id="edge50_Node000002_Node000048" class="edge">
<title>Node2&#45;&gt;Node48</title>
<g id="a_edge50_Node000002_Node000048"><a xlink:title=" ">
<path fill="none" stroke="#63b8ff" d="M283.78,-145.03C305.8,-149.82 332.7,-155.68 356,-160.75"/>
<polygon fill="#63b8ff" stroke="#63b8ff" points="355.56,-164.23 366.07,-162.94 357.05,-157.39 355.56,-164.23"/>
</a>
</g>
</g>
<!-- Node5 -->
<g id="Node000005" class="node">
<title>Node5</title>
<g id="a_Node000005"><a xlink:href="Game_8cpp.html#a3416a195a0c7be6ec3783bbf4842dc3e" target="_top" xlink:title=" ">
<polygon fill="white" stroke="#666666" points="623.5,-144 541.5,-144 541.5,-125 623.5,-125 623.5,-144"/>
<text text-anchor="middle" x="582.5" y="-132" font-family="Helvetica,sans-Serif" font-size="10.00">CM_GetProps</text>
</a>
</g>
</g>
<!-- Node4&#45;&gt;Node5 -->
<g id="edge4_Node000004_Node000005" class="edge">
<title>Node4&#45;&gt;Node5</title>
<g id="a_edge4_Node000004_Node000005"><a xlink:title=" ">
<path fill="none" stroke="#63b8ff" d="M456.98,-108.05C479.89,-112.92 507.82,-118.85 531.42,-123.86"/>
<polygon fill="#63b8ff" stroke="#63b8ff" points="530.73,-127.29 541.24,-125.95 532.18,-120.45 530.73,-127.29"/>
</a>
</g>
</g>
<!-- Node6 -->
<g id="Node000006" class="node">
<title>Node6</title>
<g id="a_Node000006"><a xlink:href="update__objects_8c.html#a2c88cc32dff07c6af5fe74d00b9fa279" target="_top" xlink:title=" ">
<polygon fill="white" stroke="#666666" points="628.5,-107 536.5,-107 536.5,-88 628.5,-88 628.5,-107"/>
<text text-anchor="middle" x="582.5" y="-95" font-family="Helvetica,sans-Serif" font-size="10.00">func_800722A4</text>
</a>
</g>
</g>
<!-- Node4&#45;&gt;Node6 -->
<g id="edge5_Node000004_Node000006" class="edge">
<title>Node4&#45;&gt;Node6</title>
<g id="a_edge5_Node000004_Node000006"><a xlink:title=" ">
<path fill="none" stroke="#63b8ff" d="M479.48,-98.1C495.01,-98.01 511.34,-97.91 526.28,-97.83"/>
<polygon fill="#63b8ff" stroke="#63b8ff" points="526.39,-101.33 536.37,-97.77 526.35,-94.33 526.39,-101.33"/>
</a>
</g>
</g>
<!-- Node7 -->
<g id="Node000007" class="node">
<title>Node7</title>
<g id="a_Node000007"><a xlink:href="update__objects_8c.html#abdebd086b5ff081f83af3d9205f39cd3" target="_top" xlink:title=" ">
<polygon fill="white" stroke="#666666" points="616.5,-70 548.5,-70 548.5,-51 616.5,-51 616.5,-70"/>
<text text-anchor="middle" x="582.5" y="-58" font-family="Helvetica,sans-Serif" font-size="10.00">init_object</text>
</a>
</g>
</g>
<!-- Node4&#45;&gt;Node7 -->
<g id="edge6_Node000004_Node000007" class="edge">
<title>Node4&#45;&gt;Node7</title>
<g id="a_edge6_Node000004_Node000007"><a xlink:title=" ">
<path fill="none" stroke="#63b8ff" d="M454.77,-88.91C480.4,-83.17 512.88,-75.88 538.54,-70.13"/>
<polygon fill="#63b8ff" stroke="#63b8ff" points="539.37,-73.53 548.37,-67.93 537.84,-66.7 539.37,-73.53"/>
</a>
</g>
</g>
<!-- Node8 -->
<g id="Node000008" class="node">
<title>Node8</title>
<g id="a_Node000008"><a xlink:href="update__objects_8c.html#af20e3f3c403dd4fbea56e358997e515a" target="_top" xlink:title=" ">
<polygon fill="white" stroke="#666666" points="829,-70 701,-70 701,-51 829,-51 829,-70"/>
<text text-anchor="middle" x="765" y="-58" font-family="Helvetica,sans-Serif" font-size="10.00">set_object_timer_state</text>
</a>
</g>
</g>
<!-- Node7&#45;&gt;Node8 -->
<g id="edge7_Node000007_Node000008" class="edge">
<title>Node7&#45;&gt;Node8</title>
<g id="a_edge7_Node000007_Node000008"><a xlink:title=" ">
<path fill="none" stroke="#63b8ff" d="M616.61,-60.5C637.36,-60.5 664.97,-60.5 690.67,-60.5"/>
<polygon fill="#63b8ff" stroke="#63b8ff" points="690.79,-64 700.79,-60.5 690.79,-57 690.79,-64"/>
</a>
</g>
</g>
<!-- Node10 -->
<g id="Node000010" class="node">
<title>Node10</title>
<g id="a_Node000010"><a xlink:href="effects_8c.html#aeda67f98b2369b1c3952d9e4eb30b4d1" target="_top" xlink:title=" ">
<polygon fill="white" stroke="#666666" points="620.5,-467 544.5,-467 544.5,-448 620.5,-448 620.5,-467"/>
<text text-anchor="middle" x="582.5" y="-455" font-family="Helvetica,sans-Serif" font-size="10.00">clean_effect</text>
</a>
</g>
</g>
<!-- Node9&#45;&gt;Node10 -->
<g id="edge9_Node000009_Node000010" class="edge">
<title>Node9&#45;&gt;Node10</title>
<g id="a_edge9_Node000009_Node000010"><a xlink:title=" ">
<path fill="none" stroke="#63b8ff" d="M418.85,-230.08C444.46,-265.89 534.77,-392.15 568.59,-439.44"/>
<polygon fill="#63b8ff" stroke="#63b8ff" points="565.9,-441.7 574.56,-447.8 571.59,-437.63 565.9,-441.7"/>
</a>
</g>
</g>
<!-- Node29 -->
<g id="Node000029" class="node">
<title>Node29</title>
<g id="a_Node000029"><a xlink:href="effects_8c.html#ae1bacd987d7f12fc5960f838a7dbe137" target="_top" xlink:title=" ">
<polygon fill="white" stroke="#666666" points="628.5,-230 536.5,-230 536.5,-211 628.5,-211 628.5,-230"/>
<text text-anchor="middle" x="582.5" y="-218" font-family="Helvetica,sans-Serif" font-size="10.00">func_8008F86C</text>
</a>
</g>
</g>
<!-- Node9&#45;&gt;Node29 -->
<g id="edge28_Node000009_Node000029" class="edge">
<title>Node9&#45;&gt;Node29</title>
<g id="a_edge28_Node000009_Node000029"><a xlink:title=" ">
<path fill="none" stroke="#63b8ff" d="M456.53,-220.5C477.88,-220.5 503.67,-220.5 526.25,-220.5"/>
<polygon fill="#63b8ff" stroke="#63b8ff" points="526.38,-224 536.38,-220.5 526.38,-217 526.38,-224"/>
</a>
</g>
</g>
<!-- Node45 -->
<g id="Node000045" class="node">
<title>Node45</title>
<g id="a_Node000045"><a xlink:href="player__controller_8c.html#aafeb0470c7da44e1440ffa4848f7d500" target="_top" xlink:title=" ">
<polygon fill="white" stroke="#666666" points="642,-192.5 523,-192.5 523,-162.5 642,-162.5 642,-192.5"/>
<text text-anchor="start" x="531" y="-180.5" font-family="Helvetica,sans-Serif" font-size="10.00">get_player_index_for</text>
<text text-anchor="middle" x="582.5" y="-169.5" font-family="Helvetica,sans-Serif" font-size="10.00">_player</text>
</a>
</g>
</g>
<!-- Node9&#45;&gt;Node45 -->
<g id="edge47_Node000009_Node000045" class="edge">
<title>Node9&#45;&gt;Node45</title>
<g id="a_edge47_Node000009_Node000045"><a xlink:title=" ">
<path fill="none" stroke="#63b8ff" d="M449.62,-210.96C468.22,-206.24 491.28,-200.39 512.88,-194.91"/>
<polygon fill="#63b8ff" stroke="#63b8ff" points="513.85,-198.27 522.68,-192.42 512.12,-191.49 513.85,-198.27"/>
</a>
</g>
</g>
<!-- Node46 -->
<g id="Node000046" class="node">
<title>Node46</title>
<g id="a_Node000046"><a xlink:href="effects_8c.html#a07ab364789868cafd49e8510b238d453" target="_top" xlink:title=" ">
<polygon fill="white" stroke="#666666" points="650,-650 515,-650 515,-631 650,-631 650,-650"/>
<text text-anchor="middle" x="582.5" y="-638" font-family="Helvetica,sans-Serif" font-size="10.00">remove_lightning_effect</text>
</a>
</g>
</g>
<!-- Node9&#45;&gt;Node46 -->
<g id="edge48_Node000009_Node000046" class="edge">
<title>Node9&#45;&gt;Node46</title>
<g id="a_edge48_Node000009_Node000046"><a xlink:title=" ">
<path fill="none" stroke="#63b8ff" d="M415.86,-230.06C437.51,-283.71 543.99,-547.56 573.76,-621.31"/>
<polygon fill="#63b8ff" stroke="#63b8ff" points="570.58,-622.81 577.57,-630.77 577.08,-620.19 570.58,-622.81"/>
</a>
</g>
</g>
<!-- Node11 -->
<g id="Node000011" class="node">
<title>Node11</title>
<g id="a_Node000011"><a xlink:href="effects_8c.html#ad164a912d7ef76f24e7b5cfb9169c16f" target="_top" xlink:title=" ">
<polygon fill="white" stroke="#666666" points="811.5,-467 718.5,-467 718.5,-448 811.5,-448 811.5,-467"/>
<text text-anchor="middle" x="765" y="-455" font-family="Helvetica,sans-Serif" font-size="10.00">func_8008C6D0</text>
</a>
</g>
</g>
<!-- Node10&#45;&gt;Node11 -->
<g id="edge10_Node000010_Node000011" class="edge">
<title>Node10&#45;&gt;Node11</title>
<g id="a_edge10_Node000010_Node000011"><a xlink:title=" ">
<path fill="none" stroke="#63b8ff" d="M620.9,-457.5C646.1,-457.5 679.78,-457.5 708.14,-457.5"/>
<polygon fill="#63b8ff" stroke="#63b8ff" points="708.32,-461 718.32,-457.5 708.32,-454 708.32,-461"/>
</a>
</g>
</g>
<!-- Node12 -->
<g id="Node000012" class="node">
<title>Node12</title>
<g id="a_Node000012"><a xlink:href="effects_8c.html#a105203221e314be241a95e006b62ef80" target="_top" xlink:title=" ">
<polygon fill="white" stroke="#666666" points="811,-430 719,-430 719,-411 811,-411 811,-430"/>
<text text-anchor="middle" x="765" y="-418" font-family="Helvetica,sans-Serif" font-size="10.00">func_8008C8C4</text>
</a>
</g>
</g>
<!-- Node10&#45;&gt;Node12 -->
<g id="edge11_Node000010_Node000012" class="edge">
<title>Node10&#45;&gt;Node12</title>
<g id="a_edge11_Node000010_Node000012"><a xlink:title=" ">
<path fill="none" stroke="#63b8ff" d="M620.9,-449.83C646.39,-444.61 680.58,-437.6 709.14,-431.75"/>
<polygon fill="#63b8ff" stroke="#63b8ff" points="709.89,-435.16 718.98,-429.73 708.48,-428.31 709.89,-435.16"/>
</a>
</g>
</g>
<!-- Node13 -->
<g id="Node000013" class="node">
<title>Node13</title>
<g id="a_Node000013"><a xlink:href="effects_8c.html#acab450a6af6eca812ad3987a292a5165" target="_top" xlink:title=" ">
<polygon fill="white" stroke="#666666" points="811,-393 719,-393 719,-374 811,-374 811,-393"/>
<text text-anchor="middle" x="765" y="-381" font-family="Helvetica,sans-Serif" font-size="10.00">func_8008D0E4</text>
</a>
</g>
</g>
<!-- Node10&#45;&gt;Node13 -->
<g id="edge12_Node000010_Node000013" class="edge">
<title>Node10&#45;&gt;Node13</title>
<g id="a_edge12_Node000010_Node000013"><a xlink:title=" ">
<path fill="none" stroke="#63b8ff" d="M598.16,-447.8C617.52,-435.41 653.02,-414.04 686,-401.5 693.31,-398.72 701.17,-396.29 708.99,-394.2"/>
<polygon fill="#63b8ff" stroke="#63b8ff" points="709.98,-397.56 718.83,-391.72 708.27,-390.77 709.98,-397.56"/>
</a>
</g>
</g>
<!-- Node14 -->
<g id="Node000014" class="node">
<title>Node14</title>
<g id="a_Node000014"><a xlink:href="effects_8c.html#a663cb8df8b606cf00e361977c9d6d834" target="_top" xlink:title=" ">
<polygon fill="white" stroke="#666666" points="811.5,-356 718.5,-356 718.5,-337 811.5,-337 811.5,-356"/>
<text text-anchor="middle" x="765" y="-344" font-family="Helvetica,sans-Serif" font-size="10.00">func_8008D3B0</text>
</a>
</g>
</g>
<!-- Node10&#45;&gt;Node14 -->
<g id="edge13_Node000010_Node000014" class="edge">
<title>Node10&#45;&gt;Node14</title>
<g id="a_edge13_Node000010_Node000014"><a xlink:title=" ">
<path fill="none" stroke="#63b8ff" d="M591.11,-447.87C606.74,-428.81 644.48,-386.21 686,-364.5 693.01,-360.83 700.77,-357.91 708.58,-355.57"/>
<polygon fill="#63b8ff" stroke="#63b8ff" points="709.72,-358.89 718.47,-352.92 707.9,-352.13 709.72,-358.89"/>
</a>
</g>
</g>
<!-- Node15 -->
<g id="Node000015" class="node">
<title>Node15</title>
<g id="a_Node000015"><a xlink:href="effects_8c.html#a5f19eaaa048055d292d02c717e635786" target="_top" xlink:title=" ">
<polygon fill="white" stroke="#666666" points="811,-319 719,-319 719,-300 811,-300 811,-319"/>
<text text-anchor="middle" x="765" y="-307" font-family="Helvetica,sans-Serif" font-size="10.00">func_8008D760</text>
</a>
</g>
</g>
<!-- Node10&#45;&gt;Node15 -->
<g id="edge14_Node000010_Node000015" class="edge">
<title>Node10&#45;&gt;Node15</title>
<g id="a_edge14_Node000010_Node000015"><a xlink:title=" ">
<path fill="none" stroke="#63b8ff" d="M588.16,-447.83C600.44,-423.43 636.24,-359.04 686,-327.5 692.93,-323.11 700.8,-319.79 708.83,-317.27"/>
<polygon fill="#63b8ff" stroke="#63b8ff" points="709.91,-320.61 718.63,-314.59 708.06,-313.85 709.91,-320.61"/>
</a>
</g>
</g>
<!-- Node16 -->
<g id="Node000016" class="node">
<title>Node16</title>
<g id="a_Node000016"><a xlink:href="effects_8c.html#a4ea2da0616ee3c475e4be217dc0bc71f" target="_top" xlink:title=" ">
<polygon fill="white" stroke="#666666" points="811.5,-282 718.5,-282 718.5,-263 811.5,-263 811.5,-282"/>
<text text-anchor="middle" x="765" y="-270" font-family="Helvetica,sans-Serif" font-size="10.00">func_8008D97C</text>
</a>
</g>
</g>
<!-- Node10&#45;&gt;Node16 -->
<g id="edge15_Node000010_Node000016" class="edge">
<title>Node10&#45;&gt;Node16</title>
<g id="a_edge15_Node000010_Node000016"><a xlink:title=" ">
<path fill="none" stroke="#63b8ff" d="M586.49,-447.72C595.88,-418.68 627.73,-332.41 686,-290.5 692.66,-285.71 700.39,-282.17 708.35,-279.57"/>
<polygon fill="#63b8ff" stroke="#63b8ff" points="709.43,-282.9 718.11,-276.82 707.54,-276.16 709.43,-282.9"/>
</a>
</g>
</g>
<!-- Node17 -->
<g id="Node000017" class="node">
<title>Node17</title>
<g id="a_Node000017"><a xlink:href="effects_8c.html#a4a437d6caeeaa794bcce43ec60c097e9" target="_top" xlink:title=" ">
<polygon fill="white" stroke="#666666" points="810.5,-245 719.5,-245 719.5,-226 810.5,-226 810.5,-245"/>
<text text-anchor="middle" x="765" y="-233" font-family="Helvetica,sans-Serif" font-size="10.00">func_8008E884</text>
</a>
</g>
</g>
<!-- Node10&#45;&gt;Node17 -->
<g id="edge16_Node000010_Node000017" class="edge">
<title>Node10&#45;&gt;Node17</title>
<g id="a_edge16_Node000010_Node000017"><a xlink:title=" ">
<path fill="none" stroke="#63b8ff" d="M585.29,-447.99C591.99,-415.26 618.68,-306.4 686,-253.5 692.91,-248.07 701.16,-244.23 709.67,-241.52"/>
<polygon fill="#63b8ff" stroke="#63b8ff" points="710.59,-244.89 719.33,-238.91 708.77,-238.13 710.59,-244.89"/>
</a>
</g>
</g>
<!-- Node18 -->
<g id="Node000018" class="node">
<title>Node18</title>
<g id="a_Node000018"><a xlink:href="effects_8c.html#ae02351b6bbb678b552ec8864b47fc56c" target="_top" xlink:title=" ">
<polygon fill="white" stroke="#666666" points="810.5,-760 719.5,-760 719.5,-741 810.5,-741 810.5,-760"/>
<text text-anchor="middle" x="765" y="-748" font-family="Helvetica,sans-Serif" font-size="10.00">func_8008F3E0</text>
</a>
</g>
</g>
<!-- Node10&#45;&gt;Node18 -->
<g id="edge17_Node000010_Node000018" class="edge">
<title>Node10&#45;&gt;Node18</title>
<g id="a_edge17_Node000010_Node000018"><a xlink:title=" ">
<path fill="none" stroke="#63b8ff" d="M587.62,-467.08C598.42,-492.31 628.2,-562.73 650,-622.5 667.62,-670.83 648.04,-697.79 686,-732.5 692.63,-738.56 700.89,-742.71 709.53,-745.53"/>
<polygon fill="#63b8ff" stroke="#63b8ff" points="708.82,-748.96 719.38,-748.17 710.63,-742.2 708.82,-748.96"/>
</a>
</g>
</g>
<!-- Node19 -->
<g id="Node000019" class="node">
<title>Node19</title>
<g id="a_Node000019"><a xlink:href="effects_8c.html#afcf39ca15166fb7561402462930cd979" target="_top" xlink:title=" ">
<polygon fill="white" stroke="#666666" points="811,-723 719,-723 719,-704 811,-704 811,-723"/>
<text text-anchor="middle" x="765" y="-711" font-family="Helvetica,sans-Serif" font-size="10.00">func_8008F5A4</text>
</a>
</g>
</g>
<!-- Node10&#45;&gt;Node19 -->
<g id="edge18_Node000010_Node000019" class="edge">
<title>Node10&#45;&gt;Node19</title>
<g id="a_edge18_Node000010_Node000019"><a xlink:title=" ">
<path fill="none" stroke="#63b8ff" d="M587.33,-467.06C604.79,-510.48 676.31,-687.41 686,-695.5 692.6,-701 700.55,-704.9 708.83,-707.64"/>
<polygon fill="#63b8ff" stroke="#63b8ff" points="708.06,-711.06 718.63,-710.36 709.93,-704.32 708.06,-711.06"/>
</a>
</g>
</g>
<!-- Node24 -->
<g id="Node000024" class="node">
<title>Node24</title>
<g id="a_Node000024"><a xlink:href="effects_8c.html#ab6d84742231847170dd64267f0519cdf" target="_top" xlink:title=" ">
<polygon fill="white" stroke="#666666" points="811.5,-686 718.5,-686 718.5,-667 811.5,-667 811.5,-686"/>
<text text-anchor="middle" x="765" y="-674" font-family="Helvetica,sans-Serif" font-size="10.00">func_8008FEDC</text>
</a>
</g>
</g>
<!-- Node10&#45;&gt;Node24 -->
<g id="edge23_Node000010_Node000024" class="edge">
<title>Node10&#45;&gt;Node24</title>
<g id="a_edge23_Node000010_Node000024"><a xlink:title=" ">
<path fill="none" stroke="#63b8ff" d="M585.44,-467.33C592.44,-500.12 619.62,-606.66 686,-658.5 692.54,-663.61 700.28,-667.31 708.29,-669.99"/>
<polygon fill="#63b8ff" stroke="#63b8ff" points="707.57,-673.42 718.14,-672.77 709.47,-666.69 707.57,-673.42"/>
</a>
</g>
</g>
<!-- Node25 -->
<g id="Node000025" class="node">
<title>Node25</title>
<g id="a_Node000025"><a xlink:href="effects_8c.html#a5b9e2c886a5267f2cca1190984277a38" target="_top" xlink:title=" ">
<polygon fill="white" stroke="#666666" points="824.5,-649 705.5,-649 705.5,-630 824.5,-630 824.5,-649"/>
<text text-anchor="middle" x="765" y="-637" font-family="Helvetica,sans-Serif" font-size="10.00">remove_boost_effect</text>
</a>
</g>
</g>
<!-- Node10&#45;&gt;Node25 -->
<g id="edge24_Node000010_Node000025" class="edge">
<title>Node10&#45;&gt;Node25</title>
<g id="a_edge24_Node000010_Node000025"><a xlink:title=" ">
<path fill="none" stroke="#63b8ff" d="M586.58,-467.02C596.25,-495.28 628.77,-579.28 686,-620.5 689.06,-622.71 692.35,-624.66 695.79,-626.39"/>
<polygon fill="#63b8ff" stroke="#63b8ff" points="694.58,-629.68 705.15,-630.45 697.37,-623.26 694.58,-629.68"/>
</a>
</g>
</g>
<!-- Node26 -->
<g id="Node000026" class="node">
<title>Node26</title>
<g id="a_Node000026"><a xlink:href="effects_8c.html#a4768d56263e476d3bac47ee01bac3dc8" target="_top" xlink:title=" ">
<polygon fill="white" stroke="#666666" points="844,-611.5 686,-611.5 686,-581.5 844,-581.5 844,-611.5"/>
<text text-anchor="start" x="694" y="-599.5" font-family="Helvetica,sans-Serif" font-size="10.00">remove_boost_ramp_asphalt</text>
<text text-anchor="middle" x="765" y="-588.5" font-family="Helvetica,sans-Serif" font-size="10.00">_effect</text>
</a>
</g>
</g>
<!-- Node10&#45;&gt;Node26 -->
<g id="edge25_Node000010_Node000026" class="edge">
<title>Node10&#45;&gt;Node26</title>
<g id="a_edge25_Node000010_Node000026"><a xlink:title=" ">
<path fill="none" stroke="#63b8ff" d="M589.4,-467.12C603.37,-489.13 640.76,-543.46 686,-572.5 688.6,-574.17 691.32,-575.73 694.13,-577.18"/>
<polygon fill="#63b8ff" stroke="#63b8ff" points="692.78,-580.41 703.32,-581.48 695.74,-574.07 692.78,-580.41"/>
</a>
</g>
</g>
<!-- Node27 -->
<g id="Node000027" class="node">
<title>Node27</title>
<g id="a_Node000027"><a xlink:href="effects_8c.html#aafe14c45e9b91bb1d409ef2f2bfe5c53" target="_top" xlink:title=" ">
<polygon fill="white" stroke="#666666" points="839.5,-563.5 690.5,-563.5 690.5,-533.5 839.5,-533.5 839.5,-563.5"/>
<text text-anchor="start" x="698.5" y="-551.5" font-family="Helvetica,sans-Serif" font-size="10.00">remove_boost_ramp_wood</text>
<text text-anchor="middle" x="765" y="-540.5" font-family="Helvetica,sans-Serif" font-size="10.00">_effect</text>
</a>
</g>
</g>
<!-- Node10&#45;&gt;Node27 -->
<g id="edge26_Node000010_Node000027" class="edge">
<title>Node10&#45;&gt;Node27</title>
<g id="a_edge26_Node000010_Node000027"><a xlink:title=" ">
<path fill="none" stroke="#63b8ff" d="M595.77,-467.17C614.35,-481.43 651.16,-508.15 686,-524.5 690.08,-526.41 694.35,-528.22 698.7,-529.92"/>
<polygon fill="#63b8ff" stroke="#63b8ff" points="697.71,-533.29 708.3,-533.47 700.13,-526.72 697.71,-533.29"/>
</a>
</g>
</g>
<!-- Node28 -->
<g id="Node000028" class="node">
<title>Node28</title>
<g id="a_Node000028"><a xlink:href="effects_8c.html#a0d5728af3b320b88b01fadef778fcbff" target="_top" xlink:title=" ">
<polygon fill="white" stroke="#666666" points="823.5,-515.5 706.5,-515.5 706.5,-485.5 823.5,-485.5 823.5,-515.5"/>
<text text-anchor="start" x="714.5" y="-503.5" font-family="Helvetica,sans-Serif" font-size="10.00">remove_hit_by_item</text>
<text text-anchor="middle" x="765" y="-492.5" font-family="Helvetica,sans-Serif" font-size="10.00">_effect</text>
</a>
</g>
</g>
<!-- Node10&#45;&gt;Node28 -->
<g id="edge27_Node000010_Node000028" class="edge">
<title>Node10&#45;&gt;Node28</title>
<g id="a_edge27_Node000010_Node000028"><a xlink:title=" ">
<path fill="none" stroke="#63b8ff" d="M620.9,-466.41C642.69,-471.6 670.82,-478.3 696.37,-484.39"/>
<polygon fill="#63b8ff" stroke="#63b8ff" points="695.84,-487.86 706.38,-486.77 697.47,-481.05 695.84,-487.86"/>
</a>
</g>
</g>
<!-- Node20 -->
<g id="Node000020" class="node">
<title>Node20</title>
<g id="a_Node000020"><a xlink:href="code__80057C60_8c.html#ae28b6eb556910087cea23f0cb7a322bd" target="_top" xlink:title=" ">
<polygon fill="white" stroke="#666666" points="992,-520 880,-520 880,-501 992,-501 992,-520"/>
<text text-anchor="middle" x="936" y="-508" font-family="Helvetica,sans-Serif" font-size="10.00">pop_player_balloon</text>
</a>
</g>
</g>
<!-- Node19&#45;&gt;Node20 -->
<g id="edge19_Node000019_Node000020" class="edge">
<title>Node19&#45;&gt;Node20</title>
<g id="a_edge19_Node000019_Node000020"><a xlink:title=" ">
<path fill="none" stroke="#63b8ff" d="M811.12,-710.05C822.76,-707.39 834.63,-702.92 844,-695.5 898.38,-652.4 922.58,-568.48 931.13,-530.29"/>
<polygon fill="#63b8ff" stroke="#63b8ff" points="934.58,-530.9 933.22,-520.4 927.73,-529.46 934.58,-530.9"/>
</a>
</g>
</g>
<!-- Node21 -->
<g id="Node000021" class="node">
<title>Node21</title>
<g id="a_Node000021"><a xlink:href="effects_8c.html#a1c7552c4a370cc015c2726e40f1fdb06" target="_top" xlink:title=" ">
<polygon fill="white" stroke="#666666" points="1121,-520 1028,-520 1028,-501 1121,-501 1121,-520"/>
<text text-anchor="middle" x="1074.5" y="-508" font-family="Helvetica,sans-Serif" font-size="10.00">func_8008FD4C</text>
</a>
</g>
</g>
<!-- Node20&#45;&gt;Node21 -->
<g id="edge20_Node000020_Node000021" class="edge">
<title>Node20&#45;&gt;Node21</title>
<g id="a_edge20_Node000020_Node000021"><a xlink:title=" ">
<path fill="none" stroke="#63b8ff" d="M992.13,-510.5C1000.54,-510.5 1009.24,-510.5 1017.67,-510.5"/>
<polygon fill="#63b8ff" stroke="#63b8ff" points="1017.79,-514 1027.79,-510.5 1017.79,-507 1017.79,-514"/>
</a>
</g>
</g>
<!-- Node22 -->
<g id="Node000022" class="node">
<title>Node22</title>
<g id="a_Node000022"><a xlink:href="external_8c.html#a2be9efc97a92e19d02aaee90d676acc1" target="_top" xlink:title=" ">
<polygon fill="white" stroke="#666666" points="1120.5,-423 1028.5,-423 1028.5,-404 1120.5,-404 1120.5,-423"/>
<text text-anchor="middle" x="1074.5" y="-411" font-family="Helvetica,sans-Serif" font-size="10.00">func_800C9060</text>
</a>
</g>
</g>
<!-- Node20&#45;&gt;Node22 -->
<g id="edge21_Node000020_Node000022" class="edge">
<title>Node20&#45;&gt;Node22</title>
<g id="a_edge21_Node000020_Node000022"><a xlink:title=" ">
<path fill="none" stroke="#63b8ff" d="M950.59,-500.84C974.2,-484.07 1022.99,-449.39 1051.49,-429.14"/>
<polygon fill="#63b8ff" stroke="#63b8ff" points="1053.84,-431.76 1059.97,-423.12 1049.79,-426.06 1053.84,-431.76"/>
</a>
</g>
</g>
<!-- Node23 -->
<g id="Node000023" class="node">
<title>Node23</title>
<g id="a_Node000023"><a xlink:href="external_8c.html#a475cff796211891556f52877cd8e9b9e" target="_top" xlink:title=" ">
<polygon fill="white" stroke="#666666" points="1263,-363 1191,-363 1191,-344 1263,-344 1263,-363"/>
<text text-anchor="middle" x="1227" y="-351" font-family="Helvetica,sans-Serif" font-size="10.00">play_sound</text>
</a>
</g>
</g>
<!-- Node22&#45;&gt;Node23 -->
<g id="edge22_Node000022_Node000023" class="edge">
<title>Node22&#45;&gt;Node23</title>
<g id="a_edge22_Node000022_Node000023"><a xlink:title=" ">
<path fill="none" stroke="#63b8ff" d="M1099.35,-403.99C1124.41,-394 1164.04,-378.2 1192.29,-366.94"/>
<polygon fill="#63b8ff" stroke="#63b8ff" points="1193.77,-370.12 1201.77,-363.16 1191.18,-363.61 1193.77,-370.12"/>
</a>
</g>
</g>
<!-- Node30 -->
<g id="Node000030" class="node">
<title>Node30</title>
<g id="a_Node000030"><a xlink:href="external_8c.html#ac32b332e8b9a73af543741393186060d" target="_top" xlink:title=" ">
<polygon fill="white" stroke="#666666" points="811,-150 719,-150 719,-131 811,-131 811,-150"/>
<text text-anchor="middle" x="765" y="-138" font-family="Helvetica,sans-Serif" font-size="10.00">func_800CA730</text>
</a>
</g>
</g>
<!-- Node29&#45;&gt;Node30 -->
<g id="edge29_Node000029_Node000030" class="edge">
<title>Node29&#45;&gt;Node30</title>
<g id="a_edge29_Node000029_Node000030"><a xlink:title=" ">
<path fill="none" stroke="#63b8ff" d="M623.5,-210.97C632.39,-208.33 641.64,-205.17 650,-201.5 667.17,-193.97 669.6,-188.59 686,-179.5 701.75,-170.77 719.7,-161.73 734.41,-154.56"/>
<polygon fill="#63b8ff" stroke="#63b8ff" points="736.08,-157.64 743.55,-150.14 733.03,-151.34 736.08,-157.64"/>
</a>
</g>
</g>
<!-- Node43 -->
<g id="Node000043" class="node">
<title>Node43</title>
<g id="a_Node000043"><a xlink:href="external_8c.html#a3138069310bbed5109964d607d51811f" target="_top" xlink:title=" ">
<polygon fill="white" stroke="#666666" points="812.5,-208 717.5,-208 717.5,-189 812.5,-189 812.5,-208"/>
<text text-anchor="middle" x="765" y="-196" font-family="Helvetica,sans-Serif" font-size="10.00">func_800CAACC</text>
</a>
</g>
</g>
<!-- Node29&#45;&gt;Node43 -->
<g id="edge44_Node000029_Node000043" class="edge">
<title>Node29&#45;&gt;Node43</title>
<g id="a_edge44_Node000029_Node000043"><a xlink:title=" ">
<path fill="none" stroke="#63b8ff" d="M628.58,-215.01C652.35,-212.11 681.75,-208.52 707.08,-205.44"/>
<polygon fill="#63b8ff" stroke="#63b8ff" points="707.79,-208.88 717.29,-204.19 706.94,-201.93 707.79,-208.88"/>
</a>
</g>
</g>
<!-- Node30&#45;&gt;Node23 -->
<g id="edge43_Node000030_Node000023" class="edge">
<title>Node30&#45;&gt;Node23</title>
<g id="a_edge43_Node000030_Node000023"><a xlink:title=" ">
<path fill="none" stroke="#63b8ff" d="M789.58,-150.01C805.63,-157.02 826.96,-167.4 844,-179.5 862.19,-192.42 861.29,-202.33 880,-214.5 979.05,-278.92 1112.75,-322.14 1181.33,-341.64"/>
<polygon fill="#63b8ff" stroke="#63b8ff" points="1180.39,-345.01 1190.97,-344.35 1182.28,-338.27 1180.39,-345.01"/>
</a>
</g>
</g>
<!-- Node31 -->
<g id="Node000031" class="node">
<title>Node31</title>
<g id="a_Node000031"><a xlink:href="external_8c.html#ac48b7cbfcaa7737f892877ead85e4ba7" target="_top" xlink:title=" ">
<polygon fill="white" stroke="#666666" points="1120.5,-38 1028.5,-38 1028.5,-19 1120.5,-19 1120.5,-38"/>
<text text-anchor="middle" x="1074.5" y="-26" font-family="Helvetica,sans-Serif" font-size="10.00">func_800C3448</text>
</a>
</g>
</g>
<!-- Node30&#45;&gt;Node31 -->
<g id="edge30_Node000030_Node000031" class="edge">
<title>Node30&#45;&gt;Node31</title>
<g id="a_edge30_Node000030_Node000031"><a xlink:title=" ">
<path fill="none" stroke="#63b8ff" d="M777.47,-130.88C797.13,-114.91 839.1,-83.06 880,-66.5 924.66,-48.41 978.7,-38.73 1018.31,-33.67"/>
<polygon fill="#63b8ff" stroke="#63b8ff" points="1018.81,-37.14 1028.31,-32.45 1017.96,-30.19 1018.81,-37.14"/>
</a>
</g>
</g>
<!-- Node32 -->
<g id="Node000032" class="node">
<title>Node32</title>
<g id="a_Node000032"><a xlink:href="external_8c.html#ab2ecda68e1fb6f957aafd4c5742e2f63" target="_top" xlink:title=" ">
<polygon fill="white" stroke="#666666" points="982,-206 890,-206 890,-187 982,-187 982,-206"/>
<text text-anchor="middle" x="936" y="-194" font-family="Helvetica,sans-Serif" font-size="10.00">func_800C3508</text>
</a>
</g>
</g>
<!-- Node30&#45;&gt;Node32 -->
<g id="edge31_Node000030_Node000032" class="edge">
<title>Node30&#45;&gt;Node32</title>
<g id="a_edge31_Node000030_Node000032"><a xlink:title=" ">
<path fill="none" stroke="#63b8ff" d="M795.05,-150.13C823.15,-159.44 865.91,-173.6 896.76,-183.83"/>
<polygon fill="#63b8ff" stroke="#63b8ff" points="895.73,-187.18 906.33,-187 897.94,-180.53 895.73,-187.18"/>
</a>
</g>
</g>
<!-- Node33 -->
<g id="Node000033" class="node">
<title>Node33</title>
<g id="a_Node000033"><a xlink:href="external_8c.html#a2aea7abf056e029f247b18edb62aa218" target="_top" xlink:title=" ">
<polygon fill="white" stroke="#666666" points="982,-169 890,-169 890,-150 982,-150 982,-169"/>
<text text-anchor="middle" x="936" y="-157" font-family="Helvetica,sans-Serif" font-size="10.00">func_800C357C</text>
</a>
</g>
</g>
<!-- Node30&#45;&gt;Node33 -->
<g id="edge32_Node000030_Node000033" class="edge">
<title>Node30&#45;&gt;Node33</title>
<g id="a_edge32_Node000030_Node000033"><a xlink:title=" ">
<path fill="none" stroke="#63b8ff" d="M811.29,-145.59C832.4,-147.97 857.71,-150.81 879.92,-153.31"/>
<polygon fill="#63b8ff" stroke="#63b8ff" points="879.55,-156.79 889.88,-154.43 880.33,-149.83 879.55,-156.79"/>
</a>
</g>
</g>
<!-- Node34 -->
<g id="Node000034" class="node">
<title>Node34</title>
<g id="a_Node000034"><a xlink:href="external_8c.html#aea29af4ab009f59caa57f45987b0ea86" target="_top" xlink:title=" ">
<polygon fill="white" stroke="#666666" points="982,-132 890,-132 890,-113 982,-113 982,-132"/>
<text text-anchor="middle" x="936" y="-120" font-family="Helvetica,sans-Serif" font-size="10.00">func_800C3608</text>
</a>
</g>
</g>
<!-- Node30&#45;&gt;Node34 -->
<g id="edge33_Node000030_Node000034" class="edge">
<title>Node30&#45;&gt;Node34</title>
<g id="a_edge33_Node000030_Node000034"><a xlink:title=" ">
<path fill="none" stroke="#63b8ff" d="M811.29,-135.68C832.4,-133.43 857.71,-130.73 879.92,-128.37"/>
<polygon fill="#63b8ff" stroke="#63b8ff" points="880.31,-131.85 889.88,-127.31 879.56,-124.88 880.31,-131.85"/>
</a>
</g>
</g>
<!-- Node35 -->
<g id="Node000035" class="node">
<title>Node35</title>
<g id="a_Node000035"><a xlink:href="external_8c.html#ad377fc55133176f069744a4bcb5e0364" target="_top" xlink:title=" ">
<polygon fill="white" stroke="#666666" points="982,-95 890,-95 890,-76 982,-76 982,-95"/>
<text text-anchor="middle" x="936" y="-83" font-family="Helvetica,sans-Serif" font-size="10.00">func_800C9018</text>
</a>
</g>
</g>
<!-- Node30&#45;&gt;Node35 -->
<g id="edge34_Node000030_Node000035" class="edge">
<title>Node30&#45;&gt;Node35</title>
<g id="a_edge34_Node000030_Node000035"><a xlink:title=" ">
<path fill="none" stroke="#63b8ff" d="M795.44,-130.92C823.34,-121.84 865.44,-108.14 896.1,-98.16"/>
<polygon fill="#63b8ff" stroke="#63b8ff" points="897.19,-101.49 905.62,-95.06 895.02,-94.83 897.19,-101.49"/>
</a>
</g>
</g>
<!-- Node42 -->
<g id="Node000042" class="node">
<title>Node42</title>
<g id="a_Node000042"><a xlink:href="external_8c.html#a6584dbe6b07d52e25d5ca892468153a5" target="_top" xlink:title=" ">
<polygon fill="white" stroke="#666666" points="980.5,-19 891.5,-19 891.5,0 980.5,0 980.5,-19"/>
<text text-anchor="middle" x="936" y="-7" font-family="Helvetica,sans-Serif" font-size="10.00">play_sequence</text>
</a>
</g>
</g>
<!-- Node30&#45;&gt;Node42 -->
<g id="edge41_Node000030_Node000042" class="edge">
<title>Node30&#45;&gt;Node42</title>
<g id="a_edge41_Node000030_Node000042"><a xlink:title=" ">
<path fill="none" stroke="#63b8ff" d="M780.02,-130.83C796.26,-119.31 823.42,-99.02 844,-78.5 862.14,-60.42 859.67,-49.08 880,-33.5 885.1,-29.59 890.94,-26.17 896.86,-23.24"/>
<polygon fill="#63b8ff" stroke="#63b8ff" points="898.49,-26.34 906.14,-19.01 895.59,-19.97 898.49,-26.34"/>
</a>
</g>
</g>
<!-- Node36 -->
<g id="Node000036" class="node">
<title>Node36</title>
<g id="a_Node000036"><a xlink:href="external_8c.html#a028d40421b90c38f68ebfd5acc626f2e" target="_top" xlink:title=" ">
<polygon fill="white" stroke="#666666" points="1120.5,-150 1028.5,-150 1028.5,-131 1120.5,-131 1120.5,-150"/>
<text text-anchor="middle" x="1074.5" y="-138" font-family="Helvetica,sans-Serif" font-size="10.00">func_800C5578</text>
</a>
</g>
</g>
<!-- Node35&#45;&gt;Node36 -->
<g id="edge35_Node000035_Node000036" class="edge">
<title>Node35&#45;&gt;Node36</title>
<g id="a_edge35_Node000035_Node000036"><a xlink:title=" ">
<path fill="none" stroke="#63b8ff" d="M968.05,-95C975.92,-97.59 984.32,-100.51 992,-103.5 1009.87,-110.46 1029.45,-119.3 1044.93,-126.6"/>
<polygon fill="#63b8ff" stroke="#63b8ff" points="1043.46,-129.78 1054,-130.91 1046.47,-123.46 1043.46,-129.78"/>
</a>
</g>
</g>
<!-- Node37 -->
<g id="Node000037" class="node">
<title>Node37</title>
<g id="a_Node000037"><a xlink:href="external_8c.html#ac0fb767de7e14a03f1bcfa53f0abd23b" target="_top" xlink:title=" ">
<polygon fill="white" stroke="#666666" points="1297,-113 1157,-113 1157,-94 1297,-94 1297,-113"/>
<text text-anchor="middle" x="1227" y="-101" font-family="Helvetica,sans-Serif" font-size="10.00">delete_sound_from_bank</text>
</a>
</g>
</g>
<!-- Node36&#45;&gt;Node37 -->
<g id="edge36_Node000036_Node000037" class="edge">
<title>Node36&#45;&gt;Node37</title>
<g id="a_edge36_Node000036_Node000037"><a xlink:title=" ">
<path fill="none" stroke="#63b8ff" d="M1114.26,-130.97C1133.49,-126.24 1156.93,-120.48 1177.36,-115.46"/>
<polygon fill="#63b8ff" stroke="#63b8ff" points="1178.24,-118.85 1187.11,-113.06 1176.57,-112.05 1178.24,-118.85"/>
</a>
</g>
</g>
<!-- Node39 -->
<g id="Node000039" class="node">
<title>Node39</title>
<g id="a_Node000039"><a xlink:href="external_8c.html#ab83bd36e63f0f1baddcb2482b5ad31b0" target="_top" xlink:title=" ">
<polygon fill="white" stroke="#666666" points="1273.5,-187 1180.5,-187 1180.5,-168 1273.5,-168 1273.5,-187"/>
<text text-anchor="middle" x="1227" y="-175" font-family="Helvetica,sans-Serif" font-size="10.00">func_800C41CC</text>
</a>
</g>
</g>
<!-- Node36&#45;&gt;Node39 -->
<g id="edge38_Node000036_Node000039" class="edge">
<title>Node36&#45;&gt;Node39</title>
<g id="a_edge38_Node000036_Node000039"><a xlink:title=" ">
<path fill="none" stroke="#63b8ff" d="M1114.26,-150.03C1133.49,-154.76 1156.93,-160.52 1177.36,-165.54"/>
<polygon fill="#63b8ff" stroke="#63b8ff" points="1176.57,-168.95 1187.11,-167.94 1178.24,-162.15 1176.57,-168.95"/>
</a>
</g>
</g>
<!-- Node40 -->
<g id="Node000040" class="node">
<title>Node40</title>
<g id="a_Node000040"><a xlink:href="port__eu_8c.html#aa89dfaecca46c6d071f08c1898d1f7c9" target="_top" xlink:title=" ">
<polygon fill="white" stroke="#666666" points="1273.5,-150 1180.5,-150 1180.5,-131 1273.5,-131 1273.5,-150"/>
<text text-anchor="middle" x="1227" y="-138" font-family="Helvetica,sans-Serif" font-size="10.00">func_800CBBE8</text>
</a>
</g>
</g>
<!-- Node36&#45;&gt;Node40 -->
<g id="edge39_Node000036_Node000040" class="edge">
<title>Node36&#45;&gt;Node40</title>
<g id="a_edge39_Node000036_Node000040"><a xlink:title=" ">
<path fill="none" stroke="#63b8ff" d="M1120.65,-140.5C1136.14,-140.5 1153.66,-140.5 1169.9,-140.5"/>
<polygon fill="#63b8ff" stroke="#63b8ff" points="1170.36,-144 1180.36,-140.5 1170.36,-137 1170.36,-144"/>
</a>
</g>
</g>
<!-- Node38 -->
<g id="Node000038" class="node">
<title>Node38</title>
<g id="a_Node000038"><a xlink:href="external_8c.html#a358ac55e8ab5262dcae8037334be06d7" target="_top" xlink:title=" ">
<polygon fill="white" stroke="#666666" points="1425.5,-113 1333.5,-113 1333.5,-94 1425.5,-94 1425.5,-113"/>
<text text-anchor="middle" x="1379.5" y="-101" font-family="Helvetica,sans-Serif" font-size="10.00">func_800C40F0</text>
</a>
</g>
</g>
<!-- Node37&#45;&gt;Node38 -->
<g id="edge37_Node000037_Node000038" class="edge">
<title>Node37&#45;&gt;Node38</title>
<g id="a_edge37_Node000037_Node000038"><a xlink:title=" ">
<path fill="none" stroke="#63b8ff" d="M1297.08,-103.5C1305.87,-103.5 1314.78,-103.5 1323.31,-103.5"/>
<polygon fill="#63b8ff" stroke="#63b8ff" points="1323.5,-107 1333.5,-103.5 1323.5,-100 1323.5,-107"/>
</a>
</g>
</g>
<!-- Node41 -->
<g id="Node000041" class="node">
<title>Node41</title>
<g id="a_Node000041"><a xlink:href="port__eu_8c.html#af361a20d2e08f30c53a237ca481ff734" target="_top" xlink:title=" ">
<polygon fill="white" stroke="#666666" points="1426,-150 1333,-150 1333,-131 1426,-131 1426,-150"/>
<text text-anchor="middle" x="1379.5" y="-138" font-family="Helvetica,sans-Serif" font-size="10.00">func_800CBB48</text>
</a>
</g>
</g>
<!-- Node40&#45;&gt;Node41 -->
<g id="edge40_Node000040_Node000041" class="edge">
<title>Node40&#45;&gt;Node41</title>
<g id="a_edge40_Node000040_Node000041"><a xlink:title=" ">
<path fill="none" stroke="#63b8ff" d="M1273.56,-140.5C1288.96,-140.5 1306.34,-140.5 1322.46,-140.5"/>
<polygon fill="#63b8ff" stroke="#63b8ff" points="1322.83,-144 1332.83,-140.5 1322.83,-137 1322.83,-144"/>
</a>
</g>
</g>
<!-- Node42&#45;&gt;Node31 -->
<g id="edge42_Node000042_Node000031" class="edge">
<title>Node42&#45;&gt;Node31</title>
<g id="a_edge42_Node000042_Node000031"><a xlink:title=" ">
<path fill="none" stroke="#63b8ff" d="M980.56,-15.56C992.63,-17.24 1005.89,-19.09 1018.51,-20.85"/>
<polygon fill="#63b8ff" stroke="#63b8ff" points="1018.08,-24.32 1028.47,-22.23 1019.05,-17.39 1018.08,-24.32"/>
</a>
</g>
</g>
<!-- Node43&#45;&gt;Node36 -->
<g id="edge46_Node000043_Node000036" class="edge">
<title>Node43&#45;&gt;Node36</title>
<g id="a_edge46_Node000043_Node000036"><a xlink:title=" ">
<path fill="none" stroke="#63b8ff" d="M812.84,-206.47C869.27,-215.28 960.44,-226.69 992,-214.5 1021.11,-203.26 1046.24,-176.25 1060.63,-158.16"/>
<polygon fill="#63b8ff" stroke="#63b8ff" points="1063.49,-160.18 1066.8,-150.11 1057.94,-155.92 1063.49,-160.18"/>
</a>
</g>
</g>
<!-- Node44 -->
<g id="Node000044" class="node">
<title>Node44</title>
<g id="a_Node000044"><a xlink:href="external_8c.html#aeb87c527482a244173df36a1f3d4f446" target="_top" xlink:title=" ">
<polygon fill="white" stroke="#666666" points="982,-320 890,-320 890,-301 982,-301 982,-320"/>
<text text-anchor="middle" x="936" y="-308" font-family="Helvetica,sans-Serif" font-size="10.00">func_800C21E8</text>
</a>
</g>
</g>
<!-- Node43&#45;&gt;Node44 -->
<g id="edge45_Node000043_Node000044" class="edge">
<title>Node43&#45;&gt;Node44</title>
<g id="a_edge45_Node000043_Node000044"><a xlink:title=" ">
<path fill="none" stroke="#63b8ff" d="M812.65,-202.44C823.77,-205.14 835.01,-209.5 844,-216.5 871.61,-237.99 854.49,-262.56 880,-286.5 884.08,-290.33 888.88,-293.61 893.9,-296.4"/>
<polygon fill="#63b8ff" stroke="#63b8ff" points="892.57,-299.65 903.09,-300.92 895.66,-293.37 892.57,-299.65"/>
</a>
</g>
</g>
<!-- Node47 -->
<g id="Node000047" class="node">
<title>Node47</title>
<g id="a_Node000047"><a xlink:href="render__player_8c.html#a35eebbf671cc37666be29a2a9b6f3c8c" target="_top" xlink:title=" ">
<polygon fill="white" stroke="#666666" points="820,-797 710,-797 710,-778 820,-778 820,-797"/>
<text text-anchor="middle" x="765" y="-785" font-family="Helvetica,sans-Serif" font-size="10.00">move_f32_towards</text>
</a>
</g>
</g>
<!-- Node46&#45;&gt;Node47 -->
<g id="edge49_Node000046_Node000047" class="edge">
<title>Node46&#45;&gt;Node47</title>
<g id="a_edge49_Node000046_Node000047"><a xlink:title=" ">
<path fill="none" stroke="#63b8ff" d="M588.18,-650.09C600.51,-674.31 636.41,-738.2 686,-769.5 690.37,-772.26 695.11,-774.59 700.03,-776.57"/>
<polygon fill="#63b8ff" stroke="#63b8ff" points="699.06,-779.94 709.65,-779.96 701.38,-773.34 699.06,-779.94"/>
</a>
</g>
</g>
<!-- Node49&#45;&gt;Node7 -->
<g id="edge52_Node000049_Node000007" class="edge">
<title>Node49&#45;&gt;Node7</title>
<g id="a_edge52_Node000049_Node000007"><a xlink:title=" ">
<path fill="none" stroke="#63b8ff" d="M307.06,-75.77C375.45,-71.96 479.56,-66.17 537.92,-62.92"/>
<polygon fill="#63b8ff" stroke="#63b8ff" points="538.48,-66.4 548.27,-62.35 538.09,-59.41 538.48,-66.4"/>
</a>
</g>
</g>
</g>
</svg>
