<?xml version="1.0" encoding="UTF-8" standalone="no"?>
<!DOCTYPE svg PUBLIC "-//W3C//DTD SVG 1.1//EN"
 "http://www.w3.org/Graphics/SVG/1.1/DTD/svg11.dtd">
<!-- Generated by graphviz version 2.43.0 (0)
 -->
<!-- Title: Harbour::LoadTextures Pages: 1 -->
<svg width="816pt" height="374pt"
 viewBox="0.00 0.00 816.00 374.35" xmlns="http://www.w3.org/2000/svg" xmlns:xlink="http://www.w3.org/1999/xlink">
<g id="graph0" class="graph" transform="scale(1 1) rotate(0) translate(4 370.35)">
<title>Harbour::LoadTextures</title>
<!-- Node1 -->
<g id="Node000001" class="node">
<title>Node1</title>
<g id="a_Node000001"><a xlink:title=" ">
<polygon fill="#999999" stroke="#666666" points="126,-308.65 0,-308.65 0,-289.65 126,-289.65 126,-308.65"/>
<text text-anchor="middle" x="63" y="-296.65" font-family="Helvetica,sans-Serif" font-size="10.00">Harbour::LoadTextures</text>
</a>
</g>
</g>
<!-- Node2 -->
<g id="Node000002" class="node">
<title>Node2</title>
<g id="a_Node000002"><a xlink:href="memory_8c.html#a56dd580b5f9113b83709d1f11181e6a7" target="_top" xlink:title=" ">
<polygon fill="white" stroke="#666666" points="246,-308.65 162,-308.65 162,-289.65 246,-289.65 246,-308.65"/>
<text text-anchor="middle" x="204" y="-296.65" font-family="Helvetica,sans-Serif" font-size="10.00">dma_textures</text>
</a>
</g>
</g>
<!-- Node1&#45;&gt;Node2 -->
<g id="edge1_Node000001_Node000002" class="edge">
<title>Node1&#45;&gt;Node2</title>
<g id="a_edge1_Node000001_Node000002"><a xlink:title=" ">
<path fill="none" stroke="#63b8ff" d="M126.18,-299.15C134.62,-299.15 143.2,-299.15 151.42,-299.15"/>
<polygon fill="#63b8ff" stroke="#63b8ff" points="151.61,-302.65 161.61,-299.15 151.61,-295.65 151.61,-302.65"/>
</a>
</g>
</g>
<!-- Node3 -->
<g id="Node000003" class="node">
<title>Node3</title>
<g id="a_Node000003"><a xlink:href="memory_8c.html#a08672f1381d39b459aa779748bf40143" target="_top" xlink:title="Allocates memory and adjusts gFreeMemorySize.">
<polygon fill="white" stroke="#666666" points="384,-364.65 282,-364.65 282,-345.65 384,-345.65 384,-364.65"/>
<text text-anchor="middle" x="333" y="-352.65" font-family="Helvetica,sans-Serif" font-size="10.00">allocate_memory</text>
</a>
</g>
</g>
<!-- Node2&#45;&gt;Node3 -->
<g id="edge2_Node000002_Node000003" class="edge">
<title>Node2&#45;&gt;Node3</title>
<g id="a_edge2_Node000002_Node000003"><a xlink:title=" ">
<path fill="none" stroke="#63b8ff" d="M223.09,-308.8C238.52,-316.86 261.42,-328.4 282,-337.15 285.92,-338.82 290.04,-340.47 294.18,-342.05"/>
<polygon fill="#63b8ff" stroke="#63b8ff" points="293.16,-345.41 303.75,-345.61 295.6,-338.85 293.16,-345.41"/>
</a>
</g>
</g>
<!-- Node4 -->
<g id="Node000004" class="node">
<title>Node4</title>
<g id="a_Node000004"><a xlink:href="stubs_8c.html#ae4722e596a88d66404ccaaf6ea181b41" target="_top" xlink:title=" ">
<polygon fill="white" stroke="#666666" points="371.5,-327.65 294.5,-327.65 294.5,-308.65 371.5,-308.65 371.5,-327.65"/>
<text text-anchor="middle" x="333" y="-315.65" font-family="Helvetica,sans-Serif" font-size="10.00">mio0decode</text>
</a>
</g>
</g>
<!-- Node2&#45;&gt;Node4 -->
<g id="edge3_Node000002_Node000004" class="edge">
<title>Node2&#45;&gt;Node4</title>
<g id="a_edge3_Node000002_Node000004"><a xlink:title=" ">
<path fill="none" stroke="#63b8ff" d="M246.23,-305.32C258.34,-307.13 271.69,-309.13 284.17,-311"/>
<polygon fill="#63b8ff" stroke="#63b8ff" points="284,-314.51 294.41,-312.53 285.04,-307.59 284,-314.51"/>
</a>
</g>
</g>
<!-- Node5 -->
<g id="Node000005" class="node">
<title>Node5</title>
<g id="a_Node000005"><a xlink:href="osPiStartDma_8c.html#ae288a36d96a4db6977d95327e246ec12" target="_top" xlink:title=" ">
<polygon fill="white" stroke="#666666" points="374.5,-242.65 291.5,-242.65 291.5,-223.65 374.5,-223.65 374.5,-242.65"/>
<text text-anchor="middle" x="333" y="-230.65" font-family="Helvetica,sans-Serif" font-size="10.00">osPiStartDma</text>
</a>
</g>
</g>
<!-- Node2&#45;&gt;Node5 -->
<g id="edge4_Node000002_Node000005" class="edge">
<title>Node2&#45;&gt;Node5</title>
<g id="a_edge4_Node000002_Node000005"><a xlink:title=" ">
<path fill="none" stroke="#63b8ff" d="M223.47,-289.55C244.72,-278.51 279.85,-260.25 304.37,-247.51"/>
<polygon fill="#63b8ff" stroke="#63b8ff" points="306.25,-250.48 313.51,-242.76 303.02,-244.27 306.25,-250.48"/>
</a>
</g>
</g>
<!-- Node16 -->
<g id="Node000016" class="node">
<title>Node16</title>
<g id="a_Node000016"><a xlink:href="osRecvMesg_8c.html#aa254dc33e373f235a99e17f7717493dc" target="_top" xlink:title=" ">
<polygon fill="white" stroke="#666666" points="513,-298.65 435,-298.65 435,-279.65 513,-279.65 513,-298.65"/>
<text text-anchor="middle" x="474" y="-286.65" font-family="Helvetica,sans-Serif" font-size="10.00">osRecvMesg</text>
</a>
</g>
</g>
<!-- Node2&#45;&gt;Node16 -->
<g id="edge24_Node000002_Node000016" class="edge">
<title>Node2&#45;&gt;Node16</title>
<g id="a_edge24_Node000002_Node000016"><a xlink:title=" ">
<path fill="none" stroke="#63b8ff" d="M246.29,-297.61C294.37,-295.82 373.67,-292.86 424.6,-290.96"/>
<polygon fill="#63b8ff" stroke="#63b8ff" points="424.84,-294.45 434.71,-290.58 424.58,-287.46 424.84,-294.45"/>
</a>
</g>
</g>
<!-- Node6 -->
<g id="Node000006" class="node">
<title>Node6</title>
<g id="a_Node000006"><a xlink:href="osJamMesg_8c.html#ac69f7738a5120910a2f6202d27fb44f4" target="_top" xlink:title=" ">
<polygon fill="white" stroke="#666666" points="510.5,-224.65 437.5,-224.65 437.5,-205.65 510.5,-205.65 510.5,-224.65"/>
<text text-anchor="middle" x="474" y="-212.65" font-family="Helvetica,sans-Serif" font-size="10.00">osJamMesg</text>
</a>
</g>
</g>
<!-- Node5&#45;&gt;Node6 -->
<g id="edge5_Node000005_Node000006" class="edge">
<title>Node5&#45;&gt;Node6</title>
<g id="a_edge5_Node000005_Node000006"><a xlink:title=" ">
<path fill="none" stroke="#63b8ff" d="M374.58,-227.9C391.04,-225.77 410.13,-223.29 427.09,-221.1"/>
<polygon fill="#63b8ff" stroke="#63b8ff" points="427.87,-224.53 437.33,-219.77 426.97,-217.58 427.87,-224.53"/>
</a>
</g>
</g>
<!-- Node14 -->
<g id="Node000014" class="node">
<title>Node14</title>
<g id="a_Node000014"><a xlink:href="osPiGetCmdQueue_8c.html#a758cb1b861d52fc7655d52ac7144ac88" target="_top" xlink:title=" ">
<polygon fill="white" stroke="#666666" points="528,-261.65 420,-261.65 420,-242.65 528,-242.65 528,-261.65"/>
<text text-anchor="middle" x="474" y="-249.65" font-family="Helvetica,sans-Serif" font-size="10.00">osPiGetCmdQueue</text>
</a>
</g>
</g>
<!-- Node5&#45;&gt;Node14 -->
<g id="edge17_Node000005_Node000014" class="edge">
<title>Node5&#45;&gt;Node14</title>
<g id="a_edge17_Node000005_Node000014"><a xlink:title=" ">
<path fill="none" stroke="#63b8ff" d="M374.58,-238.7C385.66,-240.21 397.93,-241.89 409.95,-243.53"/>
<polygon fill="#63b8ff" stroke="#63b8ff" points="409.57,-247.01 419.95,-244.9 410.52,-240.08 409.57,-247.01"/>
</a>
</g>
</g>
<!-- Node15 -->
<g id="Node000015" class="node">
<title>Node15</title>
<g id="a_Node000015"><a xlink:href="osSendMesg_8c.html#a413bd1b0a16c54dcc9e59c48b3d7f142" target="_top" xlink:title=" ">
<polygon fill="white" stroke="#666666" points="513,-187.65 435,-187.65 435,-168.65 513,-168.65 513,-187.65"/>
<text text-anchor="middle" x="474" y="-175.65" font-family="Helvetica,sans-Serif" font-size="10.00">osSendMesg</text>
</a>
</g>
</g>
<!-- Node5&#45;&gt;Node15 -->
<g id="edge18_Node000005_Node000015" class="edge">
<title>Node5&#45;&gt;Node15</title>
<g id="a_edge18_Node000005_Node000015"><a xlink:title=" ">
<path fill="none" stroke="#63b8ff" d="M355.01,-223.56C372.31,-215.8 397.55,-204.78 420,-196.15 424.47,-194.43 429.18,-192.71 433.88,-191.05"/>
<polygon fill="#63b8ff" stroke="#63b8ff" points="435.12,-194.32 443.42,-187.74 432.82,-187.71 435.12,-194.32"/>
</a>
</g>
</g>
<!-- Node7 -->
<g id="Node000007" class="node">
<title>Node7</title>
<g id="a_Node000007"><a xlink:href="libultra__internal_8h.html#a8ad9db8aa6bfc4437abdd0363b663b16" target="_top" xlink:title=" ">
<polygon fill="white" stroke="#666666" points="790.5,-357.65 702.5,-357.65 702.5,-338.65 790.5,-338.65 790.5,-357.65"/>
<text text-anchor="middle" x="746.5" y="-345.65" font-family="Helvetica,sans-Serif" font-size="10.00">__osDisableInt</text>
</a>
</g>
</g>
<!-- Node6&#45;&gt;Node7 -->
<g id="edge6_Node000006_Node000007" class="edge">
<title>Node6&#45;&gt;Node7</title>
<g id="a_edge6_Node000006_Node000007"><a xlink:title=" ">
<path fill="none" stroke="#63b8ff" d="M510.7,-222.19C517.09,-224.78 523.22,-228.32 528,-233.15 564.17,-269.73 522.77,-312.39 564,-343.15 603.51,-372.63 662.48,-367.96 702.39,-359.86"/>
<polygon fill="#63b8ff" stroke="#63b8ff" points="703.33,-363.24 712.35,-357.69 701.84,-356.4 703.33,-363.24"/>
</a>
</g>
</g>
<!-- Node8 -->
<g id="Node000008" class="node">
<title>Node8</title>
<g id="a_Node000008"><a xlink:href="libultra__internal_8h.html#afe9c3abc4ca93d9fe18a87d9f108d5cb" target="_top" xlink:title=" ">
<polygon fill="white" stroke="#666666" points="808,-74.65 685,-74.65 685,-55.65 808,-55.65 808,-74.65"/>
<text text-anchor="middle" x="746.5" y="-62.65" font-family="Helvetica,sans-Serif" font-size="10.00">__osEnqueueAndYield</text>
</a>
</g>
</g>
<!-- Node6&#45;&gt;Node8 -->
<g id="edge7_Node000006_Node000008" class="edge">
<title>Node6&#45;&gt;Node8</title>
<g id="a_edge7_Node000006_Node000008"><a xlink:title=" ">
<path fill="none" stroke="#63b8ff" d="M510.57,-206.43C516.82,-203.82 522.94,-200.46 528,-196.15 553.16,-174.76 538.89,-152.6 564,-131.15 596.77,-103.17 642.37,-86.65 679.67,-77.13"/>
<polygon fill="#63b8ff" stroke="#63b8ff" points="680.57,-80.52 689.46,-74.75 678.92,-73.71 680.57,-80.52"/>
</a>
</g>
</g>
<!-- Node9 -->
<g id="Node000009" class="node">
<title>Node9</title>
<g id="a_Node000009"><a xlink:href="libultra__internal_8h.html#aaadded63bebce6cfdda5ecda193fc9ea" target="_top" xlink:title=" ">
<polygon fill="white" stroke="#666666" points="791.5,-281.65 701.5,-281.65 701.5,-262.65 791.5,-262.65 791.5,-281.65"/>
<text text-anchor="middle" x="746.5" y="-269.65" font-family="Helvetica,sans-Serif" font-size="10.00">__osPopThread</text>
</a>
</g>
</g>
<!-- Node6&#45;&gt;Node9 -->
<g id="edge8_Node000006_Node000009" class="edge">
<title>Node6&#45;&gt;Node9</title>
<g id="a_edge8_Node000006_Node000009"><a xlink:title=" ">
<path fill="none" stroke="#63b8ff" d="M510.17,-224.71C516.32,-227.04 522.51,-229.84 528,-233.15 546.85,-244.51 543.66,-258.74 564,-267.15 604.2,-283.78 653.82,-283.93 691,-280.54"/>
<polygon fill="#63b8ff" stroke="#63b8ff" points="691.55,-284 701.15,-279.5 690.84,-277.04 691.55,-284"/>
</a>
</g>
</g>
<!-- Node10 -->
<g id="Node000010" class="node">
<title>Node10</title>
<g id="a_Node000010"><a xlink:href="libultra__internal_8h.html#aecafa57b85fd739d6033705808194def" target="_top" xlink:title=" ">
<polygon fill="white" stroke="#666666" points="791,-130.65 702,-130.65 702,-111.65 791,-111.65 791,-130.65"/>
<text text-anchor="middle" x="746.5" y="-118.65" font-family="Helvetica,sans-Serif" font-size="10.00">__osRestoreInt</text>
</a>
</g>
</g>
<!-- Node6&#45;&gt;Node10 -->
<g id="edge9_Node000006_Node000010" class="edge">
<title>Node6&#45;&gt;Node10</title>
<g id="a_edge9_Node000006_Node000010"><a xlink:title=" ">
<path fill="none" stroke="#63b8ff" d="M508.16,-205.56C514.96,-202.97 521.89,-199.84 528,-196.15 546.58,-184.94 544.79,-173.26 564,-163.15 603.89,-142.15 654.15,-131.56 691.67,-126.28"/>
<polygon fill="#63b8ff" stroke="#63b8ff" points="692.43,-129.71 701.89,-124.93 691.51,-122.77 692.43,-129.71"/>
</a>
</g>
</g>
<!-- Node11 -->
<g id="Node000011" class="node">
<title>Node11</title>
<g id="a_Node000011"><a xlink:href="osStartThread_8c.html#a3b144e814933e16a2fbf2642ad098ed3" target="_top" xlink:title=" ">
<polygon fill="white" stroke="#666666" points="649,-224.65 564,-224.65 564,-205.65 649,-205.65 649,-224.65"/>
<text text-anchor="middle" x="606.5" y="-212.65" font-family="Helvetica,sans-Serif" font-size="10.00">osStartThread</text>
</a>
</g>
</g>
<!-- Node6&#45;&gt;Node11 -->
<g id="edge10_Node000006_Node000011" class="edge">
<title>Node6&#45;&gt;Node11</title>
<g id="a_edge10_Node000006_Node000011"><a xlink:title=" ">
<path fill="none" stroke="#63b8ff" d="M510.66,-215.15C523.9,-215.15 539.2,-215.15 553.59,-215.15"/>
<polygon fill="#63b8ff" stroke="#63b8ff" points="553.87,-218.65 563.87,-215.15 553.87,-211.65 553.87,-218.65"/>
</a>
</g>
</g>
<!-- Node11&#45;&gt;Node7 -->
<g id="edge11_Node000011_Node000007" class="edge">
<title>Node11&#45;&gt;Node7</title>
<g id="a_edge11_Node000011_Node000007"><a xlink:title=" ">
<path fill="none" stroke="#63b8ff" d="M617.47,-225.05C632.16,-239.62 660.54,-267.65 685,-291.15 699.2,-304.8 715.46,-320.1 727.54,-331.41"/>
<polygon fill="#63b8ff" stroke="#63b8ff" points="725.47,-334.26 735.16,-338.53 730.25,-329.15 725.47,-334.26"/>
</a>
</g>
</g>
<!-- Node11&#45;&gt;Node8 -->
<g id="edge13_Node000011_Node000008" class="edge">
<title>Node11&#45;&gt;Node8</title>
<g id="a_edge13_Node000011_Node000008"><a xlink:title=" ">
<path fill="none" stroke="#63b8ff" d="M613.92,-205.56C631.69,-179.04 680.49,-106.43 685,-102.15 694.19,-93.43 705.76,-85.75 716.32,-79.67"/>
<polygon fill="#63b8ff" stroke="#63b8ff" points="718.17,-82.65 725.25,-74.76 714.8,-76.51 718.17,-82.65"/>
</a>
</g>
</g>
<!-- Node11&#45;&gt;Node9 -->
<g id="edge15_Node000011_Node000009" class="edge">
<title>Node11&#45;&gt;Node9</title>
<g id="a_edge15_Node000011_Node000009"><a xlink:title=" ">
<path fill="none" stroke="#63b8ff" d="M630.6,-224.69C653.09,-233.98 687.48,-248.19 712.78,-258.64"/>
<polygon fill="#63b8ff" stroke="#63b8ff" points="711.75,-262 722.33,-262.58 714.42,-255.53 711.75,-262"/>
</a>
</g>
</g>
<!-- Node11&#45;&gt;Node10 -->
<g id="edge16_Node000011_Node000010" class="edge">
<title>Node11&#45;&gt;Node10</title>
<g id="a_edge16_Node000011_Node000010"><a xlink:title=" ">
<path fill="none" stroke="#63b8ff" d="M625.77,-205.64C633.19,-201.51 641.71,-196.41 649,-191.15 666.35,-178.62 667.88,-172 685,-159.15 696.01,-150.89 708.83,-142.66 719.84,-135.97"/>
<polygon fill="#63b8ff" stroke="#63b8ff" points="721.78,-138.89 728.57,-130.76 718.19,-132.88 721.78,-138.89"/>
</a>
</g>
</g>
<!-- Node12 -->
<g id="Node000012" class="node">
<title>Node12</title>
<g id="a_Node000012"><a xlink:href="libultra__internal_8h.html#a650b788ebd5efde9c8cbccc1ee832445" target="_top" xlink:title=" ">
<polygon fill="white" stroke="#666666" points="804,-187.65 689,-187.65 689,-168.65 804,-168.65 804,-187.65"/>
<text text-anchor="middle" x="746.5" y="-175.65" font-family="Helvetica,sans-Serif" font-size="10.00">__osDispatchThread</text>
</a>
</g>
</g>
<!-- Node11&#45;&gt;Node12 -->
<g id="edge12_Node000011_Node000012" class="edge">
<title>Node11&#45;&gt;Node12</title>
<g id="a_edge12_Node000011_Node000012"><a xlink:title=" ">
<path fill="none" stroke="#63b8ff" d="M643.04,-205.62C660.37,-200.98 681.41,-195.33 699.91,-190.37"/>
<polygon fill="#63b8ff" stroke="#63b8ff" points="700.85,-193.75 709.6,-187.78 699.04,-186.99 700.85,-193.75"/>
</a>
</g>
</g>
<!-- Node13 -->
<g id="Node000013" class="node">
<title>Node13</title>
<g id="a_Node000013"><a xlink:href="libultra__internal_8h.html#ac9d6cfd19de5565e74f1d74a14e9092d" target="_top" xlink:title=" ">
<polygon fill="white" stroke="#666666" points="803.5,-224.65 689.5,-224.65 689.5,-205.65 803.5,-205.65 803.5,-224.65"/>
<text text-anchor="middle" x="746.5" y="-212.65" font-family="Helvetica,sans-Serif" font-size="10.00">__osEnqueueThread</text>
</a>
</g>
</g>
<!-- Node11&#45;&gt;Node13 -->
<g id="edge14_Node000011_Node000013" class="edge">
<title>Node11&#45;&gt;Node13</title>
<g id="a_edge14_Node000011_Node000013"><a xlink:title=" ">
<path fill="none" stroke="#63b8ff" d="M649.28,-215.15C658.74,-215.15 669.01,-215.15 679.21,-215.15"/>
<polygon fill="#63b8ff" stroke="#63b8ff" points="679.34,-218.65 689.34,-215.15 679.34,-211.65 679.34,-218.65"/>
</a>
</g>
</g>
<!-- Node15&#45;&gt;Node7 -->
<g id="edge19_Node000015_Node000007" class="edge">
<title>Node15&#45;&gt;Node7</title>
<g id="a_edge19_Node000015_Node000007"><a xlink:title=" ">
<path fill="none" stroke="#63b8ff" d="M513.06,-187.17C518.43,-189.52 523.61,-192.46 528,-196.15 553.57,-217.66 539.71,-239.21 564,-262.15 602.91,-298.91 660.41,-322.5 700.22,-335.51"/>
<polygon fill="#63b8ff" stroke="#63b8ff" points="699.34,-338.9 709.93,-338.59 701.46,-332.23 699.34,-338.9"/>
</a>
</g>
</g>
<!-- Node15&#45;&gt;Node8 -->
<g id="edge20_Node000015_Node000008" class="edge">
<title>Node15&#45;&gt;Node8</title>
<g id="a_edge20_Node000015_Node000008"><a xlink:title=" ">
<path fill="none" stroke="#63b8ff" d="M476.61,-168.65C482.23,-138.86 504,-47.16 564,-11.15 617.27,20.82 690.8,-23.84 725.65,-49.41"/>
<polygon fill="#63b8ff" stroke="#63b8ff" points="723.55,-52.21 733.64,-55.45 727.77,-46.63 723.55,-52.21"/>
</a>
</g>
</g>
<!-- Node15&#45;&gt;Node9 -->
<g id="edge21_Node000015_Node000009" class="edge">
<title>Node15&#45;&gt;Node9</title>
<g id="a_edge21_Node000015_Node000009"><a xlink:title=" ">
<path fill="none" stroke="#63b8ff" d="M510.84,-187.74C516.8,-190.05 522.74,-192.83 528,-196.15 547.4,-208.4 543.92,-222.04 564,-233.15 603.18,-254.83 653.29,-264.47 690.93,-268.74"/>
<polygon fill="#63b8ff" stroke="#63b8ff" points="690.89,-272.26 701.2,-269.81 691.61,-265.3 690.89,-272.26"/>
</a>
</g>
</g>
<!-- Node15&#45;&gt;Node10 -->
<g id="edge22_Node000015_Node000010" class="edge">
<title>Node15&#45;&gt;Node10</title>
<g id="a_edge22_Node000015_Node000010"><a xlink:title=" ">
<path fill="none" stroke="#63b8ff" d="M480.61,-168.57C492.8,-148.82 523.87,-104.03 564,-87.15 616.13,-65.22 682.6,-89.66 718.9,-106.98"/>
<polygon fill="#63b8ff" stroke="#63b8ff" points="717.78,-110.33 728.3,-111.63 720.89,-104.06 717.78,-110.33"/>
</a>
</g>
</g>
<!-- Node15&#45;&gt;Node11 -->
<g id="edge23_Node000015_Node000011" class="edge">
<title>Node15&#45;&gt;Node11</title>
<g id="a_edge23_Node000015_Node000011"><a xlink:title=" ">
<path fill="none" stroke="#63b8ff" d="M508.61,-187.68C524.77,-192.26 544.35,-197.81 561.66,-202.72"/>
<polygon fill="#63b8ff" stroke="#63b8ff" points="560.98,-206.17 571.55,-205.53 562.89,-199.43 560.98,-206.17"/>
</a>
</g>
</g>
<!-- Node16&#45;&gt;Node7 -->
<g id="edge25_Node000016_Node000007" class="edge">
<title>Node16&#45;&gt;Node7</title>
<g id="a_edge25_Node000016_Node000007"><a xlink:title=" ">
<path fill="none" stroke="#63b8ff" d="M498.82,-298.78C516.54,-305.61 541.46,-314.54 564,-320.15 606.38,-330.71 655.37,-337.98 691.76,-342.47"/>
<polygon fill="#63b8ff" stroke="#63b8ff" points="691.81,-346 702.15,-343.71 692.64,-339.05 691.81,-346"/>
</a>
</g>
</g>
<!-- Node16&#45;&gt;Node8 -->
<g id="edge26_Node000016_Node000008" class="edge">
<title>Node16&#45;&gt;Node8</title>
<g id="a_edge26_Node000016_Node000008"><a xlink:title=" ">
<path fill="none" stroke="#63b8ff" d="M513.24,-280.38C518.72,-277.8 523.88,-274.46 528,-270.15 565.58,-230.81 526.32,-192.4 564,-153.15 591.74,-124.25 612.76,-140.22 649,-123.15 656.39,-119.67 695.33,-95.97 721.43,-79.97"/>
<polygon fill="#63b8ff" stroke="#63b8ff" points="723.36,-82.89 730.05,-74.67 719.7,-76.92 723.36,-82.89"/>
</a>
</g>
</g>
<!-- Node16&#45;&gt;Node9 -->
<g id="edge27_Node000016_Node000009" class="edge">
<title>Node16&#45;&gt;Node9</title>
<g id="a_edge27_Node000016_Node000009"><a xlink:title=" ">
<path fill="none" stroke="#63b8ff" d="M513.22,-298.26C548.61,-305.37 602.62,-312.86 649,-305.15 671.65,-301.39 696.12,-292.97 714.75,-285.57"/>
<polygon fill="#63b8ff" stroke="#63b8ff" points="716.25,-288.74 724.18,-281.72 713.6,-282.26 716.25,-288.74"/>
</a>
</g>
</g>
<!-- Node16&#45;&gt;Node10 -->
<g id="edge28_Node000016_Node000010" class="edge">
<title>Node16&#45;&gt;Node10</title>
<g id="a_edge28_Node000016_Node000010"><a xlink:title=" ">
<path fill="none" stroke="#63b8ff" d="M513.23,-279.56C518.58,-277.09 523.71,-274 528,-270.15 555.23,-245.73 537.36,-221.21 564,-196.15 585.21,-176.19 658.95,-149.47 705.66,-133.9"/>
<polygon fill="#63b8ff" stroke="#63b8ff" points="706.79,-137.21 715.18,-130.75 704.59,-130.57 706.79,-137.21"/>
</a>
</g>
</g>
<!-- Node16&#45;&gt;Node11 -->
<g id="edge29_Node000016_Node000011" class="edge">
<title>Node16&#45;&gt;Node11</title>
<g id="a_edge29_Node000016_Node000011"><a xlink:title=" ">
<path fill="none" stroke="#63b8ff" d="M506.15,-279.58C513.48,-276.9 521.15,-273.72 528,-270.15 549.03,-259.18 570.89,-243.19 586.01,-231.27"/>
<polygon fill="#63b8ff" stroke="#63b8ff" points="588.46,-233.78 594.07,-224.79 584.08,-228.32 588.46,-233.78"/>
</a>
</g>
</g>
</g>
</svg>
