<?xml version="1.0" encoding="UTF-8" standalone="no"?>
<!DOCTYPE svg PUBLIC "-//W3C//DTD SVG 1.1//EN"
 "http://www.w3.org/Graphics/SVG/1.1/DTD/svg11.dtd">
<!-- Generated by graphviz version 2.43.0 (0)
 -->
<!-- Title: YoshiValley::CreditsSpawnActors Pages: 1 -->
<!--zoomable 342 -->

<svg id="main" version="1.1" xmlns="http://www.w3.org/2000/svg" xmlns:xlink="http://www.w3.org/1999/xlink" xml:space="preserve" onload="init(evt)">

<style type="text/css"><![CDATA[
.node, .edge {opacity: 0.7;}
.node.selected, .edge.selected {opacity: 1;}
.edge:hover path { stroke: red; }
.edge:hover polygon { stroke: red; fill: red; }
]]></style>

<defs>
  <circle id="rim" cx="0" cy="0" r="7"/>
  <circle id="rim2" cx="0" cy="0" r="3.5"/>
  <g id="zoomPlus">
    <use xlink:href="#rim" fill="#404040"><set attributeName="fill" to="#808080" begin="zoomplus.mouseover" end="zoomplus.mouseout"/></use>
    <path d="M-4,0h8M0,-4v8" fill="none" stroke="white" stroke-width="1.5" pointer-events="none"/>
  </g>
  <g id="zoomMin">
    <use xlink:href="#rim" fill="#404040"><set attributeName="fill" to="#808080" begin="zoomminus.mouseover" end="zoomminus.mouseout"/></use>
    <path d="M-4,0h8" fill="none" stroke="white" stroke-width="1.5" pointer-events="none"/>
  </g>
  <g id="arrowUp" transform="translate(30 24)">
    <use xlink:href="#rim"/>
    <path pointer-events="none" fill="none" stroke="white" stroke-width="1.5" d="M0,-3.0v7 M-2.5,-0.5L0,-3.0L2.5,-0.5"/>
  </g>
  <g id="arrowRight" transform="rotate(90) translate(36 -43)">
    <use xlink:href="#rim"/>
    <path pointer-events="none" fill="none" stroke="white" stroke-width="1.5" d="M0,-3.0v7 M-2.5,-0.5L0,-3.0L2.5,-0.5"/>
  </g>
  <g id="arrowDown" transform="rotate(180) translate(-30 -48)">
    <use xlink:href="#rim"/>
    <path pointer-events="none" fill="none" stroke="white" stroke-width="1.5" d="M0,-3.0v7 M-2.5,-0.5L0,-3.0L2.5,-0.5"/>
  </g>
  <g id="arrowLeft" transform="rotate(270) translate(-36 17)">
    <use xlink:href="#rim"/>
    <path pointer-events="none" fill="none" stroke="white" stroke-width="1.5" d="M0,-3.0v7 M-2.5,-0.5L0,-3.0L2.5,-0.5"/>
  </g>
  <g id="resetDef">
    <use xlink:href="#rim2" fill="#404040"><set attributeName="fill" to="#808080" begin="reset.mouseover" end="reset.mouseout"/></use>
  </g>
</defs>
<script type="application/ecmascript">
var viewWidth = 1593;
var viewHeight = 342;
var sectionId = 'dynsection-4';
</script>
<script type="application/ecmascript" xlink:href="svg.min.js"/>
<svg id="graph" class="graph">
<g id="viewport">
<title>YoshiValley::CreditsSpawnActors</title>
<!-- Node1 -->
<g id="Node000001" class="node">
<title>Node1</title>
<g id="a_Node000001"><a xlink:title=" ">
<polygon fill="#999999" stroke="#666666" points="143,-37.88 0,-37.88 0,-7.88 143,-7.88 143,-37.88"/>
<text text-anchor="start" x="8" y="-25.88" font-family="Helvetica,sans-Serif" font-size="10.00">YoshiValley::CreditsSpawn</text>
<text text-anchor="middle" x="71.5" y="-14.88" font-family="Helvetica,sans-Serif" font-size="10.00">Actors</text>
</a>
</g>
</g>
<!-- Node2 -->
<g id="Node000002" class="node">
<title>Node2</title>
<g id="a_Node000002"><a xlink:href="actors_8c.html#a91fb2e4e37e7c72fea918fe2c1bb4eaf" target="_top" xlink:title=" ">
<polygon fill="white" stroke="#666666" points="319,-88.38 179,-88.38 179,-69.38 319,-69.38 319,-88.38"/>
<text text-anchor="middle" x="249" y="-76.38" font-family="Helvetica,sans-Serif" font-size="10.00">add_actor_to_empty_slot</text>
</a>
</g>
</g>
<!-- Node1&#45;&gt;Node2 -->
<g id="edge1_Node000001_Node000002" class="edge">
<title>Node1&#45;&gt;Node2</title>
<g id="a_edge1_Node000001_Node000002"><a xlink:title=" ">
<path fill="none" stroke="#63b8ff" d="M119.53,-37.89C147.35,-46.76 182.19,-57.88 208.56,-66.3"/>
<polygon fill="#63b8ff" stroke="#63b8ff" points="207.63,-69.67 218.22,-69.38 209.76,-63 207.63,-69.67"/>
</a>
</g>
</g>
<!-- Node22 -->
<g id="Node000022" class="node">
<title>Node22</title>
<g id="a_Node000022"><a xlink:href="math__util_8c.html#a79fd07a0971ec96a3ff0801963a2fa7f" target="_top" xlink:title=" ">
<polygon fill="white" stroke="#666666" points="789,-69.38 725,-69.38 725,-50.38 789,-50.38 789,-69.38"/>
<text text-anchor="middle" x="757" y="-57.38" font-family="Helvetica,sans-Serif" font-size="10.00">vec3f_set</text>
</a>
</g>
</g>
<!-- Node1&#45;&gt;Node22 -->
<g id="edge28_Node000001_Node000022" class="edge">
<title>Node1&#45;&gt;Node22</title>
<g id="a_edge28_Node000001_Node000022"><a xlink:title=" ">
<path fill="none" stroke="#63b8ff" d="M143.19,-13.71C222.98,-4.76 356.56,6.06 471,-4.88 558.84,-13.28 659.85,-35.92 714.92,-49.39"/>
<polygon fill="#63b8ff" stroke="#63b8ff" points="714.11,-52.79 724.66,-51.79 715.79,-46 714.11,-52.79"/>
</a>
</g>
</g>
<!-- Node3 -->
<g id="Node000003" class="node">
<title>Node3</title>
<g id="a_Node000003"><a xlink:href="actors_8c.html#a39c023177b5a7686cdd1fc65b8b953e1" target="_top" xlink:title=" ">
<polygon fill="white" stroke="#666666" points="444,-181.38 382,-181.38 382,-162.38 444,-162.38 444,-181.38"/>
<text text-anchor="middle" x="413" y="-169.38" font-family="Helvetica,sans-Serif" font-size="10.00">actor_init</text>
</a>
</g>
</g>
<!-- Node2&#45;&gt;Node3 -->
<g id="edge2_Node000002_Node000003" class="edge">
<title>Node2&#45;&gt;Node3</title>
<g id="a_edge2_Node000002_Node000003"><a xlink:title=" ">
<path fill="none" stroke="#63b8ff" d="M260.9,-88.46C279.18,-104.11 317.72,-135.27 355,-153.88 360.35,-156.55 366.19,-158.93 372.01,-161.02"/>
<polygon fill="#63b8ff" stroke="#63b8ff" points="371.13,-164.42 381.72,-164.25 373.34,-157.77 371.13,-164.42"/>
</a>
</g>
</g>
<!-- Node25 -->
<g id="Node000025" class="node">
<title>Node25</title>
<g id="a_Node000025"><a xlink:href="Game_8cpp.html#a42f23077aaa52cb3ea5c7803b7dd6816" target="_top" xlink:title=" ">
<polygon fill="white" stroke="#666666" points="466,-144.38 360,-144.38 360,-125.38 466,-125.38 466,-144.38"/>
<text text-anchor="middle" x="413" y="-132.38" font-family="Helvetica,sans-Serif" font-size="10.00">CM_AddBaseActor</text>
</a>
</g>
</g>
<!-- Node2&#45;&gt;Node25 -->
<g id="edge24_Node000002_Node000025" class="edge">
<title>Node2&#45;&gt;Node25</title>
<g id="a_edge24_Node000002_Node000025"><a xlink:title=" ">
<path fill="none" stroke="#63b8ff" d="M275.36,-88.39C296.56,-96.26 327.64,-107.61 355,-116.88 360.22,-118.65 365.73,-120.46 371.18,-122.22"/>
<polygon fill="#63b8ff" stroke="#63b8ff" points="370.27,-125.6 380.86,-125.3 372.4,-118.93 370.27,-125.6"/>
</a>
</g>
</g>
<!-- Node26 -->
<g id="Node000026" class="node">
<title>Node26</title>
<g id="a_Node000026"><a xlink:href="Game_8cpp.html#aab23ecf7032de4618ff75c395d8fccf1" target="_top" xlink:title=" ">
<polygon fill="white" stroke="#666666" points="471,-107.38 355,-107.38 355,-88.38 471,-88.38 471,-107.38"/>
<text text-anchor="middle" x="413" y="-95.38" font-family="Helvetica,sans-Serif" font-size="10.00">CM_AddEditorObject</text>
</a>
</g>
</g>
<!-- Node2&#45;&gt;Node26 -->
<g id="edge25_Node000002_Node000026" class="edge">
<title>Node2&#45;&gt;Node26</title>
<g id="a_edge25_Node000002_Node000026"><a xlink:title=" ">
<path fill="none" stroke="#63b8ff" d="M319.17,-86.99C327.61,-87.98 336.22,-88.99 344.63,-89.98"/>
<polygon fill="#63b8ff" stroke="#63b8ff" points="344.43,-93.48 354.77,-91.17 345.24,-86.53 344.43,-93.48"/>
</a>
</g>
</g>
<!-- Node27 -->
<g id="Node000027" class="node">
<title>Node27</title>
<g id="a_Node000027"><a xlink:href="Game_8cpp.html#a0841ffe9a66e95aca42438b9d8ffc3d3" target="_top" xlink:title=" ">
<polygon fill="white" stroke="#666666" points="463.5,-70.38 362.5,-70.38 362.5,-51.38 463.5,-51.38 463.5,-70.38"/>
<text text-anchor="middle" x="413" y="-58.38" font-family="Helvetica,sans-Serif" font-size="10.00">CM_GetActorSize</text>
</a>
</g>
</g>
<!-- Node2&#45;&gt;Node27 -->
<g id="edge26_Node000002_Node000027" class="edge">
<title>Node2&#45;&gt;Node27</title>
<g id="a_edge26_Node000002_Node000027"><a xlink:title=" ">
<path fill="none" stroke="#63b8ff" d="M319.17,-71.19C330.12,-69.98 341.36,-68.73 352.08,-67.54"/>
<polygon fill="#63b8ff" stroke="#63b8ff" points="352.61,-71 362.16,-66.42 351.84,-64.04 352.61,-71"/>
</a>
</g>
</g>
<!-- Node28 -->
<g id="Node000028" class="node">
<title>Node28</title>
<g id="a_Node000028"><a xlink:href="actors_8c.html#a3d238d4f049ffbc555cb8a4dc93c9975" target="_top" xlink:title=" ">
<polygon fill="white" stroke="#666666" points="460.5,-33.38 365.5,-33.38 365.5,-14.38 460.5,-14.38 460.5,-33.38"/>
<text text-anchor="middle" x="413" y="-21.38" font-family="Helvetica,sans-Serif" font-size="10.00">get_actor_name</text>
</a>
</g>
</g>
<!-- Node2&#45;&gt;Node28 -->
<g id="edge27_Node000002_Node000028" class="edge">
<title>Node2&#45;&gt;Node28</title>
<g id="a_edge27_Node000002_Node000028"><a xlink:title=" ">
<path fill="none" stroke="#63b8ff" d="M277.61,-69.34C298.78,-62.05 328.71,-51.77 355,-42.88 361.03,-40.84 367.43,-38.69 373.67,-36.61"/>
<polygon fill="#63b8ff" stroke="#63b8ff" points="374.9,-39.89 383.28,-33.4 372.69,-33.25 374.9,-39.89"/>
</a>
</g>
</g>
<!-- Node4 -->
<g id="Node000004" class="node">
<title>Node4</title>
<g id="a_Node000004"><a xlink:href="collision_8c.html#a37aa55b3768d001533ad75e7f1b8388a" target="_top" xlink:title=" ">
<polygon fill="white" stroke="#666666" points="648,-282.38 507,-282.38 507,-263.38 648,-263.38 648,-282.38"/>
<text text-anchor="middle" x="577.5" y="-270.38" font-family="Helvetica,sans-Serif" font-size="10.00">check_bounding_collision</text>
</a>
</g>
</g>
<!-- Node3&#45;&gt;Node4 -->
<g id="edge3_Node000003_Node000004" class="edge">
<title>Node3&#45;&gt;Node4</title>
<g id="a_edge3_Node000003_Node000004"><a xlink:title=" ">
<path fill="none" stroke="#63b8ff" d="M429.29,-181.38C457.6,-198.98 518.38,-236.76 552.32,-257.85"/>
<polygon fill="#63b8ff" stroke="#63b8ff" points="550.79,-261.02 561.13,-263.33 554.49,-255.08 550.79,-261.02"/>
</a>
</g>
</g>
<!-- Node8 -->
<g id="Node000008" class="node">
<title>Node8</title>
<g id="a_Node000008"><a xlink:href="actors_8c.html#a1a9bccb586242555a9123ebd4ab70f2a" target="_top" xlink:title=" ">
<polygon fill="white" stroke="#666666" points="643.5,-207.88 511.5,-207.88 511.5,-177.88 643.5,-177.88 643.5,-207.88"/>
<text text-anchor="start" x="519.5" y="-195.88" font-family="Helvetica,sans-Serif" font-size="10.00">cleanup_red_and_green</text>
<text text-anchor="middle" x="577.5" y="-184.88" font-family="Helvetica,sans-Serif" font-size="10.00">_shells</text>
</a>
</g>
</g>
<!-- Node3&#45;&gt;Node8 -->
<g id="edge7_Node000003_Node000008" class="edge">
<title>Node3&#45;&gt;Node8</title>
<g id="a_edge7_Node000003_Node000008"><a xlink:title=" ">
<path fill="none" stroke="#63b8ff" d="M444.18,-175.78C460.36,-177.87 481.07,-180.55 501.29,-183.16"/>
<polygon fill="#63b8ff" stroke="#63b8ff" points="501.1,-186.67 511.47,-184.48 502,-179.72 501.1,-186.67"/>
</a>
</g>
</g>
<!-- Node21 -->
<g id="Node000021" class="node">
<title>Node21</title>
<g id="a_Node000021"><a xlink:href="collision_8c.html#ad72fef3ffe32191d73b1822f512ebf3f" target="_top" xlink:title=" ">
<polygon fill="white" stroke="#666666" points="625,-159.38 530,-159.38 530,-140.38 625,-140.38 625,-159.38"/>
<text text-anchor="middle" x="577.5" y="-147.38" font-family="Helvetica,sans-Serif" font-size="10.00">func_802AAAAC</text>
</a>
</g>
</g>
<!-- Node3&#45;&gt;Node21 -->
<g id="edge20_Node000003_Node000021" class="edge">
<title>Node3&#45;&gt;Node21</title>
<g id="a_edge20_Node000003_Node000021"><a xlink:title=" ">
<path fill="none" stroke="#63b8ff" d="M444.18,-167.79C465.41,-164.92 494.47,-160.99 519.94,-157.54"/>
<polygon fill="#63b8ff" stroke="#63b8ff" points="520.43,-161 529.87,-156.19 519.49,-154.07 520.43,-161"/>
</a>
</g>
</g>
<!-- Node23 -->
<g id="Node000023" class="node">
<title>Node23</title>
<g id="a_Node000023"><a xlink:href="math__util_8c.html#af7b470ed76fce07b8042a47c96e5690b" target="_top" xlink:title=" ">
<polygon fill="white" stroke="#666666" points="631,-122.38 524,-122.38 524,-103.38 631,-103.38 631,-122.38"/>
<text text-anchor="middle" x="577.5" y="-110.38" font-family="Helvetica,sans-Serif" font-size="10.00">vec3f_copy_return</text>
</a>
</g>
</g>
<!-- Node3&#45;&gt;Node23 -->
<g id="edge22_Node000003_Node000023" class="edge">
<title>Node3&#45;&gt;Node23</title>
<g id="a_edge22_Node000003_Node000023"><a xlink:title=" ">
<path fill="none" stroke="#63b8ff" d="M444.1,-163.87C452.93,-161.12 462.5,-157.75 471,-153.88 488.07,-146.11 489.79,-139.32 507,-131.88 512.44,-129.53 518.25,-127.4 524.11,-125.48"/>
<polygon fill="#63b8ff" stroke="#63b8ff" points="525.41,-128.75 533.95,-122.47 523.36,-122.05 525.41,-128.75"/>
</a>
</g>
</g>
<!-- Node24 -->
<g id="Node000024" class="node">
<title>Node24</title>
<g id="a_Node000024"><a xlink:href="math__util_8c.html#a0e270ee67600c8c9c2f140c647d008a1" target="_top" xlink:title=" ">
<polygon fill="white" stroke="#666666" points="614.5,-85.38 540.5,-85.38 540.5,-66.38 614.5,-66.38 614.5,-85.38"/>
<text text-anchor="middle" x="577.5" y="-73.38" font-family="Helvetica,sans-Serif" font-size="10.00">vec3s_copy</text>
</a>
</g>
</g>
<!-- Node3&#45;&gt;Node24 -->
<g id="edge23_Node000003_Node000024" class="edge">
<title>Node3&#45;&gt;Node24</title>
<g id="a_edge23_Node000003_Node000024"><a xlink:title=" ">
<path fill="none" stroke="#63b8ff" d="M444.07,-166.69C453.39,-164 463.24,-159.96 471,-153.88 495.18,-134.94 482.45,-113.35 507,-94.88 513.9,-89.69 522.13,-85.92 530.47,-83.18"/>
<polygon fill="#63b8ff" stroke="#63b8ff" points="531.57,-86.5 540.24,-80.41 529.66,-79.77 531.57,-86.5"/>
</a>
</g>
</g>
<!-- Node5 -->
<g id="Node000005" class="node">
<title>Node5</title>
<g id="a_Node000005"><a xlink:href="collision_8c.html#ac312bf382cb40752f6b790a99e7cdcb6" target="_top" xlink:title=" ">
<polygon fill="white" stroke="#666666" points="811,-334.38 703,-334.38 703,-315.38 811,-315.38 811,-334.38"/>
<text text-anchor="middle" x="757" y="-322.38" font-family="Helvetica,sans-Serif" font-size="10.00">check_collision_yx</text>
</a>
</g>
</g>
<!-- Node4&#45;&gt;Node5 -->
<g id="edge4_Node000004_Node000005" class="edge">
<title>Node4&#45;&gt;Node5</title>
<g id="a_edge4_Node000004_Node000005"><a xlink:title=" ">
<path fill="none" stroke="#63b8ff" d="M606.55,-282.49C627.72,-289.6 657.54,-299.32 684,-306.88 691.07,-308.9 698.56,-310.91 705.94,-312.82"/>
<polygon fill="#63b8ff" stroke="#63b8ff" points="705.33,-316.28 715.89,-315.36 707.06,-309.5 705.33,-316.28"/>
</a>
</g>
</g>
<!-- Node6 -->
<g id="Node000006" class="node">
<title>Node6</title>
<g id="a_Node000006"><a xlink:href="collision_8c.html#a4b48832a90e984536a0635a016ec4f28" target="_top" xlink:title=" ">
<polygon fill="white" stroke="#666666" points="810.5,-297.38 703.5,-297.38 703.5,-278.38 810.5,-278.38 810.5,-297.38"/>
<text text-anchor="middle" x="757" y="-285.38" font-family="Helvetica,sans-Serif" font-size="10.00">check_collision_zx</text>
</a>
</g>
</g>
<!-- Node4&#45;&gt;Node6 -->
<g id="edge5_Node000004_Node000006" class="edge">
<title>Node4&#45;&gt;Node6</title>
<g id="a_edge5_Node000004_Node000006"><a xlink:title=" ">
<path fill="none" stroke="#63b8ff" d="M648.14,-278.77C662.91,-280.01 678.43,-281.32 692.94,-282.55"/>
<polygon fill="#63b8ff" stroke="#63b8ff" points="693.04,-286.07 703.3,-283.43 693.63,-279.1 693.04,-286.07"/>
</a>
</g>
</g>
<!-- Node7 -->
<g id="Node000007" class="node">
<title>Node7</title>
<g id="a_Node000007"><a xlink:href="collision_8c.html#a21fef964ab48191a1c0341954ef27a40" target="_top" xlink:title=" ">
<polygon fill="white" stroke="#666666" points="810.5,-260.38 703.5,-260.38 703.5,-241.38 810.5,-241.38 810.5,-260.38"/>
<text text-anchor="middle" x="757" y="-248.38" font-family="Helvetica,sans-Serif" font-size="10.00">check_collision_zy</text>
</a>
</g>
</g>
<!-- Node4&#45;&gt;Node7 -->
<g id="edge6_Node000004_Node000007" class="edge">
<title>Node4&#45;&gt;Node7</title>
<g id="a_edge6_Node000004_Node000007"><a xlink:title=" ">
<path fill="none" stroke="#63b8ff" d="M648.14,-264.25C663.06,-262.4 678.73,-260.46 693.36,-258.64"/>
<polygon fill="#63b8ff" stroke="#63b8ff" points="693.81,-262.12 703.3,-257.41 692.95,-255.17 693.81,-262.12"/>
</a>
</g>
</g>
<!-- Node9 -->
<g id="Node000009" class="node">
<title>Node9</title>
<g id="a_Node000009"><a xlink:href="Game_8cpp.html#a693de7d8b89fe291aafea86bc64a0a2e" target="_top" xlink:title=" ">
<polygon fill="white" stroke="#666666" points="797,-223.38 717,-223.38 717,-204.38 797,-204.38 797,-223.38"/>
<text text-anchor="middle" x="757" y="-211.38" font-family="Helvetica,sans-Serif" font-size="10.00">CM_GetActor</text>
</a>
</g>
</g>
<!-- Node8&#45;&gt;Node9 -->
<g id="edge8_Node000008_Node000009" class="edge">
<title>Node8&#45;&gt;Node9</title>
<g id="a_edge8_Node000008_Node000009"><a xlink:title=" ">
<path fill="none" stroke="#63b8ff" d="M643.59,-200.58C664.47,-203.05 687.24,-205.75 706.79,-208.06"/>
<polygon fill="#63b8ff" stroke="#63b8ff" points="706.65,-211.57 716.99,-209.26 707.47,-204.61 706.65,-211.57"/>
</a>
</g>
</g>
<!-- Node10 -->
<g id="Node000010" class="node">
<title>Node10</title>
<g id="a_Node000010"><a xlink:href="code__80005FD0_8c.html#ad301b978cdd3c4cc190b10be050d51d8" target="_top" xlink:title=" ">
<polygon fill="white" stroke="#666666" points="830,-185.88 684,-185.88 684,-155.88 830,-155.88 830,-185.88"/>
<text text-anchor="start" x="692" y="-173.88" font-family="Helvetica,sans-Serif" font-size="10.00">delete_actor_in_unexpired</text>
<text text-anchor="middle" x="757" y="-162.88" font-family="Helvetica,sans-Serif" font-size="10.00">_actor_list</text>
</a>
</g>
</g>
<!-- Node8&#45;&gt;Node10 -->
<g id="edge9_Node000008_Node000010" class="edge">
<title>Node8&#45;&gt;Node10</title>
<g id="a_edge9_Node000008_Node000010"><a xlink:title=" ">
<path fill="none" stroke="#63b8ff" d="M643.59,-184.81C653.38,-183.6 663.59,-182.33 673.69,-181.08"/>
<polygon fill="#63b8ff" stroke="#63b8ff" points="674.24,-184.54 683.73,-179.84 673.38,-177.59 674.24,-184.54"/>
</a>
</g>
</g>
<!-- Node11 -->
<g id="Node000011" class="node">
<title>Node11</title>
<g id="a_Node000011"><a xlink:href="actors_8c.html#a694ec6ef7548b8618aeb35c038d3a9b9" target="_top" xlink:title=" ">
<polygon fill="white" stroke="#666666" points="798.5,-137.38 715.5,-137.38 715.5,-118.38 798.5,-118.38 798.5,-137.38"/>
<text text-anchor="middle" x="757" y="-125.38" font-family="Helvetica,sans-Serif" font-size="10.00">destroy_actor</text>
</a>
</g>
</g>
<!-- Node8&#45;&gt;Node11 -->
<g id="edge10_Node000008_Node000011" class="edge">
<title>Node8&#45;&gt;Node11</title>
<g id="a_edge10_Node000008_Node000011"><a xlink:title=" ">
<path fill="none" stroke="#63b8ff" d="M626.52,-177.82C633.82,-175.1 641.19,-172.09 648,-168.88 664.96,-160.88 666.75,-154.24 684,-146.88 690.79,-143.99 698.12,-141.44 705.43,-139.22"/>
<polygon fill="#63b8ff" stroke="#63b8ff" points="706.66,-142.51 715.32,-136.41 704.74,-135.78 706.66,-142.51"/>
</a>
</g>
</g>
<!-- Node12 -->
<g id="Node000012" class="node">
<title>Node12</title>
<g id="a_Node000012"><a xlink:href="actors_8c.html#a12dc3ccac4c7d8569eadac0af4fd6f9f" target="_top" xlink:title=" ">
<polygon fill="white" stroke="#666666" points="1024,-137.38 866,-137.38 866,-118.38 1024,-118.38 1024,-137.38"/>
<text text-anchor="middle" x="945" y="-125.38" font-family="Helvetica,sans-Serif" font-size="10.00">play_sound_before_despawn</text>
</a>
</g>
</g>
<!-- Node11&#45;&gt;Node12 -->
<g id="edge11_Node000011_Node000012" class="edge">
<title>Node11&#45;&gt;Node12</title>
<g id="a_edge11_Node000011_Node000012"><a xlink:title=" ">
<path fill="none" stroke="#63b8ff" d="M798.82,-127.88C815.65,-127.88 835.86,-127.88 855.77,-127.88"/>
<polygon fill="#63b8ff" stroke="#63b8ff" points="855.82,-131.38 865.82,-127.88 855.82,-124.38 855.82,-131.38"/>
</a>
</g>
</g>
<!-- Node13 -->
<g id="Node000013" class="node">
<title>Node13</title>
<g id="a_Node000013"><a xlink:href="external_8c.html#ae72057869772019e4464c87d4e16c682" target="_top" xlink:title=" ">
<polygon fill="white" stroke="#666666" points="1152,-137.38 1060,-137.38 1060,-118.38 1152,-118.38 1152,-137.38"/>
<text text-anchor="middle" x="1106" y="-125.38" font-family="Helvetica,sans-Serif" font-size="10.00">func_800C99E0</text>
</a>
</g>
</g>
<!-- Node12&#45;&gt;Node13 -->
<g id="edge12_Node000012_Node000013" class="edge">
<title>Node12&#45;&gt;Node13</title>
<g id="a_edge12_Node000012_Node000013"><a xlink:title=" ">
<path fill="none" stroke="#63b8ff" d="M1024.1,-127.88C1032.72,-127.88 1041.35,-127.88 1049.61,-127.88"/>
<polygon fill="#63b8ff" stroke="#63b8ff" points="1049.83,-131.38 1059.83,-127.88 1049.83,-124.38 1049.83,-131.38"/>
</a>
</g>
</g>
<!-- Node14 -->
<g id="Node000014" class="node">
<title>Node14</title>
<g id="a_Node000014"><a xlink:href="external_8c.html#aeb87c527482a244173df36a1f3d4f446" target="_top" xlink:title=" ">
<polygon fill="white" stroke="#666666" points="1280,-156.38 1188,-156.38 1188,-137.38 1280,-137.38 1280,-156.38"/>
<text text-anchor="middle" x="1234" y="-144.38" font-family="Helvetica,sans-Serif" font-size="10.00">func_800C21E8</text>
</a>
</g>
</g>
<!-- Node13&#45;&gt;Node14 -->
<g id="edge13_Node000013_Node000014" class="edge">
<title>Node13&#45;&gt;Node14</title>
<g id="a_edge13_Node000013_Node000014"><a xlink:title=" ">
<path fill="none" stroke="#63b8ff" d="M1152.13,-134.69C1160.46,-135.94 1169.23,-137.26 1177.81,-138.56"/>
<polygon fill="#63b8ff" stroke="#63b8ff" points="1177.35,-142.03 1187.76,-140.06 1178.39,-135.11 1177.35,-142.03"/>
</a>
</g>
</g>
<!-- Node15 -->
<g id="Node000015" class="node">
<title>Node15</title>
<g id="a_Node000015"><a xlink:href="external_8c.html#a028d40421b90c38f68ebfd5acc626f2e" target="_top" xlink:title=" ">
<polygon fill="white" stroke="#666666" points="1280,-119.38 1188,-119.38 1188,-100.38 1280,-100.38 1280,-119.38"/>
<text text-anchor="middle" x="1234" y="-107.38" font-family="Helvetica,sans-Serif" font-size="10.00">func_800C5578</text>
</a>
</g>
</g>
<!-- Node13&#45;&gt;Node15 -->
<g id="edge14_Node000013_Node000015" class="edge">
<title>Node13&#45;&gt;Node15</title>
<g id="a_edge14_Node000013_Node000015"><a xlink:title=" ">
<path fill="none" stroke="#63b8ff" d="M1152.13,-121.43C1160.46,-120.24 1169.23,-118.99 1177.81,-117.76"/>
<polygon fill="#63b8ff" stroke="#63b8ff" points="1178.35,-121.22 1187.76,-116.34 1177.36,-114.29 1178.35,-121.22"/>
</a>
</g>
</g>
<!-- Node16 -->
<g id="Node000016" class="node">
<title>Node16</title>
<g id="a_Node000016"><a xlink:href="external_8c.html#ac0fb767de7e14a03f1bcfa53f0abd23b" target="_top" xlink:title=" ">
<polygon fill="white" stroke="#666666" points="1456,-156.38 1316,-156.38 1316,-137.38 1456,-137.38 1456,-156.38"/>
<text text-anchor="middle" x="1386" y="-144.38" font-family="Helvetica,sans-Serif" font-size="10.00">delete_sound_from_bank</text>
</a>
</g>
</g>
<!-- Node15&#45;&gt;Node16 -->
<g id="edge15_Node000015_Node000016" class="edge">
<title>Node15&#45;&gt;Node16</title>
<g id="a_edge15_Node000015_Node000016"><a xlink:title=" ">
<path fill="none" stroke="#63b8ff" d="M1273.63,-119.41C1292.8,-124.14 1316.16,-129.9 1336.52,-134.92"/>
<polygon fill="#63b8ff" stroke="#63b8ff" points="1335.69,-138.32 1346.24,-137.32 1337.37,-131.53 1335.69,-138.32"/>
</a>
</g>
</g>
<!-- Node18 -->
<g id="Node000018" class="node">
<title>Node18</title>
<g id="a_Node000018"><a xlink:href="external_8c.html#ab83bd36e63f0f1baddcb2482b5ad31b0" target="_top" xlink:title=" ">
<polygon fill="white" stroke="#666666" points="1432.5,-119.38 1339.5,-119.38 1339.5,-100.38 1432.5,-100.38 1432.5,-119.38"/>
<text text-anchor="middle" x="1386" y="-107.38" font-family="Helvetica,sans-Serif" font-size="10.00">func_800C41CC</text>
</a>
</g>
</g>
<!-- Node15&#45;&gt;Node18 -->
<g id="edge17_Node000015_Node000018" class="edge">
<title>Node15&#45;&gt;Node18</title>
<g id="a_edge17_Node000015_Node000018"><a xlink:title=" ">
<path fill="none" stroke="#63b8ff" d="M1280,-109.88C1295.37,-109.88 1312.74,-109.88 1328.86,-109.88"/>
<polygon fill="#63b8ff" stroke="#63b8ff" points="1329.25,-113.38 1339.25,-109.88 1329.25,-106.38 1329.25,-113.38"/>
</a>
</g>
</g>
<!-- Node19 -->
<g id="Node000019" class="node">
<title>Node19</title>
<g id="a_Node000019"><a xlink:href="port__eu_8c.html#aa89dfaecca46c6d071f08c1898d1f7c9" target="_top" xlink:title=" ">
<polygon fill="white" stroke="#666666" points="1432.5,-82.38 1339.5,-82.38 1339.5,-63.38 1432.5,-63.38 1432.5,-82.38"/>
<text text-anchor="middle" x="1386" y="-70.38" font-family="Helvetica,sans-Serif" font-size="10.00">func_800CBBE8</text>
</a>
</g>
</g>
<!-- Node15&#45;&gt;Node19 -->
<g id="edge18_Node000015_Node000019" class="edge">
<title>Node15&#45;&gt;Node19</title>
<g id="a_edge18_Node000015_Node000019"><a xlink:title=" ">
<path fill="none" stroke="#63b8ff" d="M1273.63,-100.35C1292.8,-95.62 1316.16,-89.86 1336.52,-84.84"/>
<polygon fill="#63b8ff" stroke="#63b8ff" points="1337.37,-88.23 1346.24,-82.44 1335.69,-81.44 1337.37,-88.23"/>
</a>
</g>
</g>
<!-- Node17 -->
<g id="Node000017" class="node">
<title>Node17</title>
<g id="a_Node000017"><a xlink:href="external_8c.html#a358ac55e8ab5262dcae8037334be06d7" target="_top" xlink:title=" ">
<polygon fill="white" stroke="#666666" points="1584.5,-156.38 1492.5,-156.38 1492.5,-137.38 1584.5,-137.38 1584.5,-156.38"/>
<text text-anchor="middle" x="1538.5" y="-144.38" font-family="Helvetica,sans-Serif" font-size="10.00">func_800C40F0</text>
</a>
</g>
</g>
<!-- Node16&#45;&gt;Node17 -->
<g id="edge16_Node000016_Node000017" class="edge">
<title>Node16&#45;&gt;Node17</title>
<g id="a_edge16_Node000016_Node000017"><a xlink:title=" ">
<path fill="none" stroke="#63b8ff" d="M1456.08,-146.88C1464.87,-146.88 1473.78,-146.88 1482.31,-146.88"/>
<polygon fill="#63b8ff" stroke="#63b8ff" points="1482.5,-150.38 1492.5,-146.88 1482.5,-143.38 1482.5,-150.38"/>
</a>
</g>
</g>
<!-- Node20 -->
<g id="Node000020" class="node">
<title>Node20</title>
<g id="a_Node000020"><a xlink:href="port__eu_8c.html#af361a20d2e08f30c53a237ca481ff734" target="_top" xlink:title=" ">
<polygon fill="white" stroke="#666666" points="1585,-82.38 1492,-82.38 1492,-63.38 1585,-63.38 1585,-82.38"/>
<text text-anchor="middle" x="1538.5" y="-70.38" font-family="Helvetica,sans-Serif" font-size="10.00">func_800CBB48</text>
</a>
</g>
</g>
<!-- Node19&#45;&gt;Node20 -->
<g id="edge19_Node000019_Node000020" class="edge">
<title>Node19&#45;&gt;Node20</title>
<g id="a_edge19_Node000019_Node000020"><a xlink:title=" ">
<path fill="none" stroke="#63b8ff" d="M1432.56,-72.88C1447.96,-72.88 1465.34,-72.88 1481.46,-72.88"/>
<polygon fill="#63b8ff" stroke="#63b8ff" points="1481.83,-76.38 1491.83,-72.88 1481.83,-69.38 1481.83,-76.38"/>
</a>
</g>
</g>
<!-- Node21&#45;&gt;Node22 -->
<g id="edge21_Node000021_Node000022" class="edge">
<title>Node21&#45;&gt;Node22</title>
<g id="a_edge21_Node000021_Node000022"><a xlink:title=" ">
<path fill="none" stroke="#63b8ff" d="M624.48,-140.3C632.48,-137.98 640.6,-135.19 648,-131.88 657.09,-127.81 705.09,-95.05 733.96,-75.15"/>
<polygon fill="#63b8ff" stroke="#63b8ff" points="736,-77.99 742.23,-69.43 732.02,-72.23 736,-77.99"/>
</a>
</g>
</g>
</g>
</svg>

<g id="navigator" transform="translate(0 0)" fill="#404254">
  <rect fill="#f2f5e9" fill-opacity="0.5" stroke="#606060" stroke-width=".5" x="0" y="0" width="60" height="60"/>
  <use id="zoomplus" xlink:href="#zoomPlus" x="17" y="9" onmousedown="handleZoom(evt,'in')"/>
  <use id="zoomminus" xlink:href="#zoomMin" x="42" y="9" onmousedown="handleZoom(evt,'out')"/>
  <use id="reset" xlink:href="#resetDef" x="30" y="36" onmousedown="handleReset()"/>
   <use id="arrowup" xlink:href="#arrowUp" x="0" y="0" onmousedown="handlePan(0,-1)"/>
  <use id="arrowright" xlink:href="#arrowRight" x="0" y="0" onmousedown="handlePan(1,0)"/>
  <use id="arrowdown" xlink:href="#arrowDown" x="0" y="0" onmousedown="handlePan(0,1)"/>
  <use id="arrowleft" xlink:href="#arrowLeft" x="0" y="0" onmousedown="handlePan(-1,0)"/>
</g>
<svg viewBox="0 0 15 15" width="100%" height="30px" preserveAspectRatio="xMaxYMin meet">
 <g id="arrow_out" transform="scale(0.3 0.3)">
  <a xlink:href="classYoshiValley_a9ffd75b8a30ef4ca05f961ecf59ed0ee_cgraph_org.svg" target="_base">
   <rect id="button" ry="5" rx="5" y="6" x="6" height="38" width="38"
        fill="#f2f5e9" fill-opacity="0.5" stroke="#606060" stroke-width="1.0"/>
   <path id="arrow"
     d="M 11.500037,31.436501 C 11.940474,20.09759 22.043105,11.32322 32.158766,21.979434 L 37.068811,17.246167 C 37.068811,17.246167 37.088388,32 37.088388,32 L 22.160133,31.978069 C 22.160133,31.978069 26.997745,27.140456 26.997745,27.140456 C 18.528582,18.264221 13.291696,25.230495 11.500037,31.436501 z"
     style="fill:#404040;"/>
  </a>
 </g>
</svg>

<style type='text/css'>
<![CDATA[
[data-mouse-over-selected='false'] { opacity: 0.7; }
[data-mouse-over-selected='true']  { opacity: 1.0; }
]]>
</style>
<script type="application/ecmascript"><![CDATA[
document.addEventListener('DOMContentLoaded', (event) => {
  highlightEdges();
  highlightAdjacentNodes();
});
]]></script>
</svg>
