<?xml version="1.0" encoding="UTF-8" standalone="no"?>
<!DOCTYPE svg PUBLIC "-//W3C//DTD SVG 1.1//EN"
 "http://www.w3.org/Graphics/SVG/1.1/DTD/svg11.dtd">
<!-- Generated by graphviz version 2.43.0 (0)
 -->
<!-- Title: SherbetLand::RenderCredits Pages: 1 -->
<svg width="550pt" height="27pt"
 viewBox="0.00 0.00 550.00 27.00" xmlns="http://www.w3.org/2000/svg" xmlns:xlink="http://www.w3.org/1999/xlink">
<g id="graph0" class="graph" transform="scale(1 1) rotate(0) translate(4 23)">
<title>SherbetLand::RenderCredits</title>
<!-- Node1 -->
<g id="Node000001" class="node">
<title>Node1</title>
<g id="a_Node000001"><a xlink:title=" ">
<polygon fill="#999999" stroke="#666666" points="152,-19 0,-19 0,0 152,0 152,-19"/>
<text text-anchor="middle" x="76" y="-7" font-family="Helvetica,sans-Serif" font-size="10.00">SherbetLand::RenderCredits</text>
</a>
</g>
</g>
<!-- Node2 -->
<g id="Node000002" class="node">
<title>Node2</title>
<g id="a_Node000002"><a xlink:href="GBIMiddleware_8cpp.html#a4ecc44e3c6f1ca5a6b4a20c41d3bd2d2" target="_top" xlink:title=" ">
<polygon fill="white" stroke="#666666" points="277,-19 188,-19 188,0 277,0 277,-19"/>
<text text-anchor="middle" x="232.5" y="-7" font-family="Helvetica,sans-Serif" font-size="10.00">gSPDisplayList</text>
</a>
</g>
</g>
<!-- Node1&#45;&gt;Node2 -->
<g id="edge1_Node000001_Node000002" class="edge">
<title>Node1&#45;&gt;Node2</title>
<g id="a_edge1_Node000001_Node000002"><a xlink:title=" ">
<path fill="none" stroke="#63b8ff" d="M152.44,-9.5C160.95,-9.5 169.49,-9.5 177.64,-9.5"/>
<polygon fill="#63b8ff" stroke="#63b8ff" points="177.74,-13 187.74,-9.5 177.74,-6 177.74,-13"/>
</a>
</g>
</g>
<!-- Node3 -->
<g id="Node000003" class="node">
<title>Node3</title>
<g id="a_Node000003"><a xlink:href="Engine_8cpp.html#a223c8bc63f228dc11177515e38eff2db" target="_top" xlink:title=" ">
<polygon fill="white" stroke="#666666" points="462,-19 313,-19 313,0 462,0 462,-19"/>
<text text-anchor="middle" x="387.5" y="-7" font-family="Helvetica,sans-Serif" font-size="10.00">GameEngine_OTRSigCheck</text>
</a>
</g>
</g>
<!-- Node2&#45;&gt;Node3 -->
<g id="edge2_Node000002_Node000003" class="edge">
<title>Node2&#45;&gt;Node3</title>
<g id="a_edge2_Node000002_Node000003"><a xlink:title=" ">
<path fill="none" stroke="#63b8ff" d="M277.34,-9.5C285.34,-9.5 293.92,-9.5 302.64,-9.5"/>
<polygon fill="#63b8ff" stroke="#63b8ff" points="302.89,-13 312.89,-9.5 302.89,-6 302.89,-13"/>
</a>
</g>
</g>
<!-- Node4 -->
<g id="Node000004" class="node">
<title>Node4</title>
<g id="a_Node000004"><a xlink:href="string_8c.html#a008e171a518fe0e0352f31b245e03875" target="_top" xlink:title=" ">
<polygon fill="white" stroke="#666666" points="542,-19 498,-19 498,0 542,0 542,-19"/>
<text text-anchor="middle" x="520" y="-7" font-family="Helvetica,sans-Serif" font-size="10.00">strlen</text>
</a>
</g>
</g>
<!-- Node3&#45;&gt;Node4 -->
<g id="edge3_Node000003_Node000004" class="edge">
<title>Node3&#45;&gt;Node4</title>
<g id="a_edge3_Node000003_Node000004"><a xlink:title=" ">
<path fill="none" stroke="#63b8ff" d="M462.14,-9.5C471.12,-9.5 479.89,-9.5 487.75,-9.5"/>
<polygon fill="#63b8ff" stroke="#63b8ff" points="487.83,-13 497.83,-9.5 487.83,-6 487.83,-13"/>
</a>
</g>
</g>
</g>
</svg>
