<?xml version="1.0" encoding="UTF-8" standalone="no"?>
<!DOCTYPE svg PUBLIC "-//W3C//DTD SVG 1.1//EN"
 "http://www.w3.org/Graphics/SVG/1.1/DTD/svg11.dtd">
<!-- Generated by graphviz version 2.43.0 (0)
 -->
<!-- Title: OLakitu::func_80079860 Pages: 1 -->
<!--zoomable 764 -->

<svg id="main" version="1.1" xmlns="http://www.w3.org/2000/svg" xmlns:xlink="http://www.w3.org/1999/xlink" xml:space="preserve" onload="init(evt)">

<style type="text/css"><![CDATA[
.node, .edge {opacity: 0.7;}
.node.selected, .edge.selected {opacity: 1;}
.edge:hover path { stroke: red; }
.edge:hover polygon { stroke: red; fill: red; }
]]></style>

<defs>
  <circle id="rim" cx="0" cy="0" r="7"/>
  <circle id="rim2" cx="0" cy="0" r="3.5"/>
  <g id="zoomPlus">
    <use xlink:href="#rim" fill="#404040"><set attributeName="fill" to="#808080" begin="zoomplus.mouseover" end="zoomplus.mouseout"/></use>
    <path d="M-4,0h8M0,-4v8" fill="none" stroke="white" stroke-width="1.5" pointer-events="none"/>
  </g>
  <g id="zoomMin">
    <use xlink:href="#rim" fill="#404040"><set attributeName="fill" to="#808080" begin="zoomminus.mouseover" end="zoomminus.mouseout"/></use>
    <path d="M-4,0h8" fill="none" stroke="white" stroke-width="1.5" pointer-events="none"/>
  </g>
  <g id="arrowUp" transform="translate(30 24)">
    <use xlink:href="#rim"/>
    <path pointer-events="none" fill="none" stroke="white" stroke-width="1.5" d="M0,-3.0v7 M-2.5,-0.5L0,-3.0L2.5,-0.5"/>
  </g>
  <g id="arrowRight" transform="rotate(90) translate(36 -43)">
    <use xlink:href="#rim"/>
    <path pointer-events="none" fill="none" stroke="white" stroke-width="1.5" d="M0,-3.0v7 M-2.5,-0.5L0,-3.0L2.5,-0.5"/>
  </g>
  <g id="arrowDown" transform="rotate(180) translate(-30 -48)">
    <use xlink:href="#rim"/>
    <path pointer-events="none" fill="none" stroke="white" stroke-width="1.5" d="M0,-3.0v7 M-2.5,-0.5L0,-3.0L2.5,-0.5"/>
  </g>
  <g id="arrowLeft" transform="rotate(270) translate(-36 17)">
    <use xlink:href="#rim"/>
    <path pointer-events="none" fill="none" stroke="white" stroke-width="1.5" d="M0,-3.0v7 M-2.5,-0.5L0,-3.0L2.5,-0.5"/>
  </g>
  <g id="resetDef">
    <use xlink:href="#rim2" fill="#404040"><set attributeName="fill" to="#808080" begin="reset.mouseover" end="reset.mouseout"/></use>
  </g>
</defs>
<script type="application/ecmascript">
var viewWidth = 1241;
var viewHeight = 764;
var sectionId = 'dynsection-13';
</script>
<script type="application/ecmascript" xlink:href="svg.min.js"/>
<svg id="graph" class="graph">
<g id="viewport">
<title>OLakitu::func_80079860</title>
<!-- Node1 -->
<g id="Node000001" class="node">
<title>Node1</title>
<g id="a_Node000001"><a xlink:title=" ">
<polygon fill="#999999" stroke="#666666" points="134,-443 0,-443 0,-424 134,-424 134,-443"/>
<text text-anchor="middle" x="67" y="-431" font-family="Helvetica,sans-Serif" font-size="10.00">OLakitu::func_80079860</text>
</a>
</g>
</g>
<!-- Node2 -->
<g id="Node000002" class="node">
<title>Node2</title>
<g id="a_Node000002"><a xlink:href="update__objects_8c.html#ab7e91b1ebcbec57dfed6e185a2f67580" target="_top" xlink:title=" ">
<polygon fill="white" stroke="#666666" points="283.5,-515 192.5,-515 192.5,-496 283.5,-496 283.5,-515"/>
<text text-anchor="middle" x="238" y="-503" font-family="Helvetica,sans-Serif" font-size="10.00">func_80072354</text>
</a>
</g>
</g>
<!-- Node1&#45;&gt;Node2 -->
<g id="edge1_Node000001_Node000002" class="edge">
<title>Node1&#45;&gt;Node2</title>
<g id="a_edge1_Node000001_Node000002"><a xlink:title=" ">
<path fill="none" stroke="#63b8ff" d="M83.38,-443.05C102.91,-454.85 137.93,-474.89 170,-487.5 175.11,-489.51 180.53,-491.38 185.99,-493.09"/>
<polygon fill="#63b8ff" stroke="#63b8ff" points="185.2,-496.5 195.78,-495.99 187.19,-489.79 185.2,-496.5"/>
</a>
</g>
</g>
<!-- Node3 -->
<g id="Node000003" class="node">
<title>Node3</title>
<g id="a_Node000003"><a xlink:href="classOLakitu.html#ae76d444a529be6c5991529e5d0ba6f15" target="_top" xlink:title=" ">
<polygon fill="white" stroke="#666666" points="306,-478 170,-478 170,-459 306,-459 306,-478"/>
<text text-anchor="middle" x="238" y="-466" font-family="Helvetica,sans-Serif" font-size="10.00">OLakitu::func_800797AC</text>
</a>
</g>
</g>
<!-- Node1&#45;&gt;Node3 -->
<g id="edge2_Node000001_Node000003" class="edge">
<title>Node1&#45;&gt;Node3</title>
<g id="a_edge2_Node000001_Node000003"><a xlink:title=" ">
<path fill="none" stroke="#63b8ff" d="M114.18,-443.06C134.77,-447.33 159.2,-452.39 180.83,-456.87"/>
<polygon fill="#63b8ff" stroke="#63b8ff" points="180.37,-460.35 190.88,-458.95 181.79,-453.49 180.37,-460.35"/>
</a>
</g>
</g>
<!-- Node8 -->
<g id="Node000008" class="node">
<title>Node8</title>
<g id="a_Node000008"><a xlink:href="effects_8c.html#a17332237b5c2a4249328a35071e23bf7" target="_top" xlink:title=" ">
<polygon fill="white" stroke="#666666" points="283.5,-375 192.5,-375 192.5,-356 283.5,-356 283.5,-375"/>
<text text-anchor="middle" x="238" y="-363" font-family="Helvetica,sans-Serif" font-size="10.00">func_80090778</text>
</a>
</g>
</g>
<!-- Node1&#45;&gt;Node8 -->
<g id="edge7_Node000001_Node000008" class="edge">
<title>Node1&#45;&gt;Node8</title>
<g id="a_edge7_Node000001_Node000008"><a xlink:title=" ">
<path fill="none" stroke="#63b8ff" d="M91.86,-423.9C121.04,-412.16 170.64,-392.2 203.61,-378.94"/>
<polygon fill="#63b8ff" stroke="#63b8ff" points="205.3,-382.03 213.27,-375.05 202.68,-375.54 205.3,-382.03"/>
</a>
</g>
</g>
<!-- Node47 -->
<g id="Node000047" class="node">
<title>Node47</title>
<g id="a_Node000047"><a xlink:href="collision_8c.html#a0371e15af0413f7e110eb91a9995bcb7" target="_top" xlink:title=" ">
<polygon fill="white" stroke="#666666" points="285,-338 191,-338 191,-319 285,-319 285,-338"/>
<text text-anchor="middle" x="238" y="-326" font-family="Helvetica,sans-Serif" font-size="10.00">func_802ABDF4</text>
</a>
</g>
</g>
<!-- Node1&#45;&gt;Node47 -->
<g id="edge49_Node000001_Node000047" class="edge">
<title>Node1&#45;&gt;Node47</title>
<g id="a_edge49_Node000001_Node000047"><a xlink:title=" ">
<path fill="none" stroke="#63b8ff" d="M76.57,-423.98C92.99,-406.31 130.73,-368.37 170,-347.5 174.25,-345.24 178.79,-343.23 183.44,-341.44"/>
<polygon fill="#63b8ff" stroke="#63b8ff" points="184.78,-344.67 193.06,-338.06 182.47,-338.07 184.78,-344.67"/>
</a>
</g>
</g>
<!-- Node4 -->
<g id="Node000004" class="node">
<title>Node4</title>
<g id="a_Node000004"><a xlink:href="Game_8cpp.html#a3416a195a0c7be6ec3783bbf4842dc3e" target="_top" xlink:title=" ">
<polygon fill="white" stroke="#666666" points="450.5,-552 368.5,-552 368.5,-533 450.5,-533 450.5,-552"/>
<text text-anchor="middle" x="409.5" y="-540" font-family="Helvetica,sans-Serif" font-size="10.00">CM_GetProps</text>
</a>
</g>
</g>
<!-- Node3&#45;&gt;Node4 -->
<g id="edge3_Node000003_Node000004" class="edge">
<title>Node3&#45;&gt;Node4</title>
<g id="a_edge3_Node000003_Node000004"><a xlink:title=" ">
<path fill="none" stroke="#63b8ff" d="M285.02,-478.08C292.31,-480.57 299.56,-483.66 306,-487.5 325.71,-499.25 322.22,-512.87 342,-524.5 347.15,-527.53 352.83,-530.06 358.62,-532.18"/>
<polygon fill="#63b8ff" stroke="#63b8ff" points="357.83,-535.6 368.42,-535.36 359.99,-528.94 357.83,-535.6"/>
</a>
</g>
</g>
<!-- Node5 -->
<g id="Node000005" class="node">
<title>Node5</title>
<g id="a_Node000005"><a xlink:href="update__objects_8c.html#a2c88cc32dff07c6af5fe74d00b9fa279" target="_top" xlink:title=" ">
<polygon fill="white" stroke="#666666" points="455.5,-515 363.5,-515 363.5,-496 455.5,-496 455.5,-515"/>
<text text-anchor="middle" x="409.5" y="-503" font-family="Helvetica,sans-Serif" font-size="10.00">func_800722A4</text>
</a>
</g>
</g>
<!-- Node3&#45;&gt;Node5 -->
<g id="edge4_Node000003_Node000005" class="edge">
<title>Node3&#45;&gt;Node5</title>
<g id="a_edge4_Node000003_Node000005"><a xlink:title=" ">
<path fill="none" stroke="#63b8ff" d="M282.65,-478.03C304.61,-482.82 331.43,-488.68 354.65,-493.75"/>
<polygon fill="#63b8ff" stroke="#63b8ff" points="354.19,-497.23 364.7,-495.94 355.68,-490.39 354.19,-497.23"/>
</a>
</g>
</g>
<!-- Node6 -->
<g id="Node000006" class="node">
<title>Node6</title>
<g id="a_Node000006"><a xlink:href="update__objects_8c.html#abdebd086b5ff081f83af3d9205f39cd3" target="_top" xlink:title=" ">
<polygon fill="white" stroke="#666666" points="443.5,-478 375.5,-478 375.5,-459 443.5,-459 443.5,-478"/>
<text text-anchor="middle" x="409.5" y="-466" font-family="Helvetica,sans-Serif" font-size="10.00">init_object</text>
</a>
</g>
</g>
<!-- Node3&#45;&gt;Node6 -->
<g id="edge5_Node000003_Node000006" class="edge">
<title>Node3&#45;&gt;Node6</title>
<g id="a_edge5_Node000003_Node000006"><a xlink:title=" ">
<path fill="none" stroke="#63b8ff" d="M306.48,-468.5C326.23,-468.5 347.3,-468.5 365.13,-468.5"/>
<polygon fill="#63b8ff" stroke="#63b8ff" points="365.21,-472 375.21,-468.5 365.21,-465 365.21,-472"/>
</a>
</g>
</g>
<!-- Node7 -->
<g id="Node000007" class="node">
<title>Node7</title>
<g id="a_Node000007"><a xlink:href="update__objects_8c.html#af20e3f3c403dd4fbea56e358997e515a" target="_top" xlink:title=" ">
<polygon fill="white" stroke="#666666" points="656,-756 528,-756 528,-737 656,-737 656,-756"/>
<text text-anchor="middle" x="592" y="-744" font-family="Helvetica,sans-Serif" font-size="10.00">set_object_timer_state</text>
</a>
</g>
</g>
<!-- Node6&#45;&gt;Node7 -->
<g id="edge6_Node000006_Node000007" class="edge">
<title>Node6&#45;&gt;Node7</title>
<g id="a_edge6_Node000006_Node000007"><a xlink:title=" ">
<path fill="none" stroke="#63b8ff" d="M443.59,-470.57C455.76,-473.03 468.6,-477.93 477,-487.5 548.44,-568.89 439.49,-648.97 513,-728.5 514.82,-730.46 516.8,-732.24 518.92,-733.83"/>
<polygon fill="#63b8ff" stroke="#63b8ff" points="517.3,-736.94 527.66,-739.15 520.94,-730.96 517.3,-736.94"/>
</a>
</g>
</g>
<!-- Node9 -->
<g id="Node000009" class="node">
<title>Node9</title>
<g id="a_Node000009"><a xlink:href="effects_8c.html#aeda67f98b2369b1c3952d9e4eb30b4d1" target="_top" xlink:title=" ">
<polygon fill="white" stroke="#666666" points="447.5,-441 371.5,-441 371.5,-422 447.5,-422 447.5,-441"/>
<text text-anchor="middle" x="409.5" y="-429" font-family="Helvetica,sans-Serif" font-size="10.00">clean_effect</text>
</a>
</g>
</g>
<!-- Node8&#45;&gt;Node9 -->
<g id="edge8_Node000008_Node000009" class="edge">
<title>Node8&#45;&gt;Node9</title>
<g id="a_edge8_Node000008_Node000009"><a xlink:title=" ">
<path fill="none" stroke="#63b8ff" d="M263.65,-375.1C292.85,-386.47 341.68,-405.48 374.47,-418.25"/>
<polygon fill="#63b8ff" stroke="#63b8ff" points="373.51,-421.63 384.1,-422 376.05,-415.11 373.51,-421.63"/>
</a>
</g>
</g>
<!-- Node28 -->
<g id="Node000028" class="node">
<title>Node28</title>
<g id="a_Node000028"><a xlink:href="effects_8c.html#ae1bacd987d7f12fc5960f838a7dbe137" target="_top" xlink:title=" ">
<polygon fill="white" stroke="#666666" points="455.5,-341 363.5,-341 363.5,-322 455.5,-322 455.5,-341"/>
<text text-anchor="middle" x="409.5" y="-329" font-family="Helvetica,sans-Serif" font-size="10.00">func_8008F86C</text>
</a>
</g>
</g>
<!-- Node8&#45;&gt;Node28 -->
<g id="edge27_Node000008_Node000028" class="edge">
<title>Node8&#45;&gt;Node28</title>
<g id="a_edge27_Node000008_Node000028"><a xlink:title=" ">
<path fill="none" stroke="#63b8ff" d="M283.53,-356.57C304.98,-352.27 330.9,-347.07 353.56,-342.52"/>
<polygon fill="#63b8ff" stroke="#63b8ff" points="354.26,-345.95 363.38,-340.55 352.89,-339.09 354.26,-345.95"/>
</a>
</g>
</g>
<!-- Node44 -->
<g id="Node000044" class="node">
<title>Node44</title>
<g id="a_Node000044"><a xlink:href="player__controller_8c.html#aafeb0470c7da44e1440ffa4848f7d500" target="_top" xlink:title=" ">
<polygon fill="white" stroke="#666666" points="469,-303.5 350,-303.5 350,-273.5 469,-273.5 469,-303.5"/>
<text text-anchor="start" x="358" y="-291.5" font-family="Helvetica,sans-Serif" font-size="10.00">get_player_index_for</text>
<text text-anchor="middle" x="409.5" y="-280.5" font-family="Helvetica,sans-Serif" font-size="10.00">_player</text>
</a>
</g>
</g>
<!-- Node8&#45;&gt;Node44 -->
<g id="edge46_Node000008_Node000044" class="edge">
<title>Node8&#45;&gt;Node44</title>
<g id="a_edge46_Node000008_Node000044"><a xlink:title=" ">
<path fill="none" stroke="#63b8ff" d="M283.82,-356.77C291.48,-354.36 299.17,-351.32 306,-347.5 325.21,-336.76 323.33,-325.16 342,-313.5 345.17,-311.52 348.52,-309.66 351.96,-307.92"/>
<polygon fill="#63b8ff" stroke="#63b8ff" points="353.66,-310.99 361.23,-303.58 350.69,-304.65 353.66,-310.99"/>
</a>
</g>
</g>
<!-- Node45 -->
<g id="Node000045" class="node">
<title>Node45</title>
<g id="a_Node000045"><a xlink:href="effects_8c.html#a07ab364789868cafd49e8510b238d453" target="_top" xlink:title=" ">
<polygon fill="white" stroke="#666666" points="477,-130 342,-130 342,-111 477,-111 477,-130"/>
<text text-anchor="middle" x="409.5" y="-118" font-family="Helvetica,sans-Serif" font-size="10.00">remove_lightning_effect</text>
</a>
</g>
</g>
<!-- Node8&#45;&gt;Node45 -->
<g id="edge47_Node000008_Node000045" class="edge">
<title>Node8&#45;&gt;Node45</title>
<g id="a_edge47_Node000008_Node000045"><a xlink:title=" ">
<path fill="none" stroke="#63b8ff" d="M283.6,-359.53C291.72,-356.85 299.62,-353.01 306,-347.5 336.44,-321.23 325.57,-301.2 342,-264.5 362.15,-219.48 386.66,-166.97 399.56,-139.48"/>
<polygon fill="#63b8ff" stroke="#63b8ff" points="402.82,-140.78 403.91,-130.24 396.48,-137.8 402.82,-140.78"/>
</a>
</g>
</g>
<!-- Node10 -->
<g id="Node000010" class="node">
<title>Node10</title>
<g id="a_Node000010"><a xlink:href="effects_8c.html#ad164a912d7ef76f24e7b5cfb9169c16f" target="_top" xlink:title=" ">
<polygon fill="white" stroke="#666666" points="638.5,-719 545.5,-719 545.5,-700 638.5,-700 638.5,-719"/>
<text text-anchor="middle" x="592" y="-707" font-family="Helvetica,sans-Serif" font-size="10.00">func_8008C6D0</text>
</a>
</g>
</g>
<!-- Node9&#45;&gt;Node10 -->
<g id="edge9_Node000009_Node000010" class="edge">
<title>Node9&#45;&gt;Node10</title>
<g id="a_edge9_Node000009_Node000010"><a xlink:title=" ">
<path fill="none" stroke="#63b8ff" d="M447.74,-434.51C458.61,-437.2 469.55,-442.02 477,-450.5 548.44,-531.89 439.49,-611.97 513,-691.5 519.1,-698.1 527.1,-702.51 535.64,-705.42"/>
<polygon fill="#63b8ff" stroke="#63b8ff" points="534.88,-708.84 545.45,-708.11 536.73,-702.09 534.88,-708.84"/>
</a>
</g>
</g>
<!-- Node11 -->
<g id="Node000011" class="node">
<title>Node11</title>
<g id="a_Node000011"><a xlink:href="effects_8c.html#a105203221e314be241a95e006b62ef80" target="_top" xlink:title=" ">
<polygon fill="white" stroke="#666666" points="638,-682 546,-682 546,-663 638,-663 638,-682"/>
<text text-anchor="middle" x="592" y="-670" font-family="Helvetica,sans-Serif" font-size="10.00">func_8008C8C4</text>
</a>
</g>
</g>
<!-- Node9&#45;&gt;Node11 -->
<g id="edge10_Node000009_Node000011" class="edge">
<title>Node9&#45;&gt;Node11</title>
<g id="a_edge10_Node000009_Node000011"><a xlink:title=" ">
<path fill="none" stroke="#63b8ff" d="M447.61,-434.62C458.47,-437.33 469.44,-442.12 477,-450.5 538.64,-518.89 449.62,-587.72 513,-654.5 519.19,-661.02 527.22,-665.39 535.78,-668.29"/>
<polygon fill="#63b8ff" stroke="#63b8ff" points="535.03,-671.71 545.6,-670.97 536.87,-664.96 535.03,-671.71"/>
</a>
</g>
</g>
<!-- Node12 -->
<g id="Node000012" class="node">
<title>Node12</title>
<g id="a_Node000012"><a xlink:href="effects_8c.html#acab450a6af6eca812ad3987a292a5165" target="_top" xlink:title=" ">
<polygon fill="white" stroke="#666666" points="638,-645 546,-645 546,-626 638,-626 638,-645"/>
<text text-anchor="middle" x="592" y="-633" font-family="Helvetica,sans-Serif" font-size="10.00">func_8008D0E4</text>
</a>
</g>
</g>
<!-- Node9&#45;&gt;Node12 -->
<g id="edge11_Node000009_Node000012" class="edge">
<title>Node9&#45;&gt;Node12</title>
<g id="a_edge11_Node000009_Node000012"><a xlink:title=" ">
<path fill="none" stroke="#63b8ff" d="M447.77,-434.88C458.51,-437.61 469.37,-442.35 477,-450.5 528.89,-505.93 459.7,-563.42 513,-617.5 519.31,-623.9 527.41,-628.22 535.99,-631.09"/>
<polygon fill="#63b8ff" stroke="#63b8ff" points="535.24,-634.52 545.81,-633.76 537.08,-627.76 535.24,-634.52"/>
</a>
</g>
</g>
<!-- Node13 -->
<g id="Node000013" class="node">
<title>Node13</title>
<g id="a_Node000013"><a xlink:href="effects_8c.html#a663cb8df8b606cf00e361977c9d6d834" target="_top" xlink:title=" ">
<polygon fill="white" stroke="#666666" points="638.5,-608 545.5,-608 545.5,-589 638.5,-589 638.5,-608"/>
<text text-anchor="middle" x="592" y="-596" font-family="Helvetica,sans-Serif" font-size="10.00">func_8008D3B0</text>
</a>
</g>
</g>
<!-- Node9&#45;&gt;Node13 -->
<g id="edge12_Node000009_Node000013" class="edge">
<title>Node9&#45;&gt;Node13</title>
<g id="a_edge12_Node000009_Node000013"><a xlink:title=" ">
<path fill="none" stroke="#63b8ff" d="M447.83,-435.25C458.44,-438 469.22,-442.66 477,-450.5 519.22,-493.06 469.7,-539.04 513,-580.5 519.28,-586.51 527.14,-590.66 535.44,-593.5"/>
<polygon fill="#63b8ff" stroke="#63b8ff" points="534.75,-596.94 545.32,-596.26 536.63,-590.19 534.75,-596.94"/>
</a>
</g>
</g>
<!-- Node14 -->
<g id="Node000014" class="node">
<title>Node14</title>
<g id="a_Node000014"><a xlink:href="effects_8c.html#a5f19eaaa048055d292d02c717e635786" target="_top" xlink:title=" ">
<polygon fill="white" stroke="#666666" points="638,-571 546,-571 546,-552 638,-552 638,-571"/>
<text text-anchor="middle" x="592" y="-559" font-family="Helvetica,sans-Serif" font-size="10.00">func_8008D760</text>
</a>
</g>
</g>
<!-- Node9&#45;&gt;Node14 -->
<g id="edge13_Node000009_Node000014" class="edge">
<title>Node9&#45;&gt;Node14</title>
<g id="a_edge13_Node000009_Node000014"><a xlink:title=" ">
<path fill="none" stroke="#63b8ff" d="M447.71,-435.82C458.19,-438.6 468.93,-443.13 477,-450.5 509.73,-480.38 479.51,-514.47 513,-543.5 519.57,-549.19 527.58,-553.18 535.94,-555.95"/>
<polygon fill="#63b8ff" stroke="#63b8ff" points="535.28,-559.4 545.85,-558.68 537.14,-552.65 535.28,-559.4"/>
</a>
</g>
</g>
<!-- Node15 -->
<g id="Node000015" class="node">
<title>Node15</title>
<g id="a_Node000015"><a xlink:href="effects_8c.html#a4ea2da0616ee3c475e4be217dc0bc71f" target="_top" xlink:title=" ">
<polygon fill="white" stroke="#666666" points="638.5,-534 545.5,-534 545.5,-515 638.5,-515 638.5,-534"/>
<text text-anchor="middle" x="592" y="-522" font-family="Helvetica,sans-Serif" font-size="10.00">func_8008D97C</text>
</a>
</g>
</g>
<!-- Node9&#45;&gt;Node15 -->
<g id="edge14_Node000009_Node000015" class="edge">
<title>Node9&#45;&gt;Node15</title>
<g id="a_edge14_Node000009_Node000015"><a xlink:title=" ">
<path fill="none" stroke="#63b8ff" d="M447.52,-437.07C457.77,-439.89 468.42,-444.13 477,-450.5 500.75,-468.14 488.8,-489.47 513,-506.5 519.71,-511.22 527.47,-514.72 535.44,-517.31"/>
<polygon fill="#63b8ff" stroke="#63b8ff" points="534.63,-520.72 545.21,-520.04 536.52,-513.98 534.63,-520.72"/>
</a>
</g>
</g>
<!-- Node16 -->
<g id="Node000016" class="node">
<title>Node16</title>
<g id="a_Node000016"><a xlink:href="effects_8c.html#a4a437d6caeeaa794bcce43ec60c097e9" target="_top" xlink:title=" ">
<polygon fill="white" stroke="#666666" points="637.5,-497 546.5,-497 546.5,-478 637.5,-478 637.5,-497"/>
<text text-anchor="middle" x="592" y="-485" font-family="Helvetica,sans-Serif" font-size="10.00">func_8008E884</text>
</a>
</g>
</g>
<!-- Node9&#45;&gt;Node16 -->
<g id="edge15_Node000009_Node000016" class="edge">
<title>Node9&#45;&gt;Node16</title>
<g id="a_edge15_Node000009_Node000016"><a xlink:title=" ">
<path fill="none" stroke="#63b8ff" d="M447.54,-440.61C457.26,-443.4 467.64,-446.74 477,-450.5 493.79,-457.24 496.04,-463.19 513,-469.5 520.42,-472.26 528.4,-474.68 536.32,-476.78"/>
<polygon fill="#63b8ff" stroke="#63b8ff" points="535.73,-480.24 546.28,-479.27 537.42,-473.45 535.73,-480.24"/>
</a>
</g>
</g>
<!-- Node17 -->
<g id="Node000017" class="node">
<title>Node17</title>
<g id="a_Node000017"><a xlink:href="effects_8c.html#ae02351b6bbb678b552ec8864b47fc56c" target="_top" xlink:title=" ">
<polygon fill="white" stroke="#666666" points="637.5,-460 546.5,-460 546.5,-441 637.5,-441 637.5,-460"/>
<text text-anchor="middle" x="592" y="-448" font-family="Helvetica,sans-Serif" font-size="10.00">func_8008F3E0</text>
</a>
</g>
</g>
<!-- Node9&#45;&gt;Node17 -->
<g id="edge16_Node000009_Node000017" class="edge">
<title>Node9&#45;&gt;Node17</title>
<g id="a_edge16_Node000009_Node000017"><a xlink:title=" ">
<path fill="none" stroke="#63b8ff" d="M447.9,-435.44C473.37,-438.12 507.52,-441.71 536.07,-444.72"/>
<polygon fill="#63b8ff" stroke="#63b8ff" points="536,-448.23 546.31,-445.8 536.73,-441.27 536,-448.23"/>
</a>
</g>
</g>
<!-- Node18 -->
<g id="Node000018" class="node">
<title>Node18</title>
<g id="a_Node000018"><a xlink:href="effects_8c.html#afcf39ca15166fb7561402462930cd979" target="_top" xlink:title=" ">
<polygon fill="white" stroke="#666666" points="638,-423 546,-423 546,-404 638,-404 638,-423"/>
<text text-anchor="middle" x="592" y="-411" font-family="Helvetica,sans-Serif" font-size="10.00">func_8008F5A4</text>
</a>
</g>
</g>
<!-- Node9&#45;&gt;Node18 -->
<g id="edge17_Node000009_Node000018" class="edge">
<title>Node9&#45;&gt;Node18</title>
<g id="a_edge17_Node000009_Node000018"><a xlink:title=" ">
<path fill="none" stroke="#63b8ff" d="M447.9,-427.77C473.28,-425.24 507.28,-421.85 535.76,-419.01"/>
<polygon fill="#63b8ff" stroke="#63b8ff" points="536.38,-422.46 545.98,-417.99 535.69,-415.5 536.38,-422.46"/>
</a>
</g>
</g>
<!-- Node23 -->
<g id="Node000023" class="node">
<title>Node23</title>
<g id="a_Node000023"><a xlink:href="effects_8c.html#ab6d84742231847170dd64267f0519cdf" target="_top" xlink:title=" ">
<polygon fill="white" stroke="#666666" points="638.5,-386 545.5,-386 545.5,-367 638.5,-367 638.5,-386"/>
<text text-anchor="middle" x="592" y="-374" font-family="Helvetica,sans-Serif" font-size="10.00">func_8008FEDC</text>
</a>
</g>
</g>
<!-- Node9&#45;&gt;Node23 -->
<g id="edge22_Node000009_Node000023" class="edge">
<title>Node9&#45;&gt;Node23</title>
<g id="a_edge22_Node000009_Node000023"><a xlink:title=" ">
<path fill="none" stroke="#63b8ff" d="M435.55,-421.92C456.16,-414.23 486.24,-403.44 513,-395.5 521.16,-393.08 529.87,-390.73 538.4,-388.56"/>
<polygon fill="#63b8ff" stroke="#63b8ff" points="539.43,-391.91 548.29,-386.1 537.74,-385.12 539.43,-391.91"/>
</a>
</g>
</g>
<!-- Node24 -->
<g id="Node000024" class="node">
<title>Node24</title>
<g id="a_Node000024"><a xlink:href="effects_8c.html#a5b9e2c886a5267f2cca1190984277a38" target="_top" xlink:title=" ">
<polygon fill="white" stroke="#666666" points="651.5,-349 532.5,-349 532.5,-330 651.5,-330 651.5,-349"/>
<text text-anchor="middle" x="592" y="-337" font-family="Helvetica,sans-Serif" font-size="10.00">remove_boost_effect</text>
</a>
</g>
</g>
<!-- Node9&#45;&gt;Node24 -->
<g id="edge23_Node000009_Node000024" class="edge">
<title>Node9&#45;&gt;Node24</title>
<g id="a_edge23_Node000009_Node000024"><a xlink:title=" ">
<path fill="none" stroke="#63b8ff" d="M421.01,-421.9C438.68,-406.28 476.05,-375.4 513,-358.5 518.36,-356.05 524.08,-353.89 529.89,-351.99"/>
<polygon fill="#63b8ff" stroke="#63b8ff" points="531.14,-355.27 539.7,-349.04 529.12,-348.57 531.14,-355.27"/>
</a>
</g>
</g>
<!-- Node25 -->
<g id="Node000025" class="node">
<title>Node25</title>
<g id="a_Node000025"><a xlink:href="effects_8c.html#a4768d56263e476d3bac47ee01bac3dc8" target="_top" xlink:title=" ">
<polygon fill="white" stroke="#666666" points="671,-311.5 513,-311.5 513,-281.5 671,-281.5 671,-311.5"/>
<text text-anchor="start" x="521" y="-299.5" font-family="Helvetica,sans-Serif" font-size="10.00">remove_boost_ramp_asphalt</text>
<text text-anchor="middle" x="592" y="-288.5" font-family="Helvetica,sans-Serif" font-size="10.00">_effect</text>
</a>
</g>
</g>
<!-- Node9&#45;&gt;Node25 -->
<g id="edge24_Node000009_Node000025" class="edge">
<title>Node9&#45;&gt;Node25</title>
<g id="a_edge24_Node000009_Node000025"><a xlink:title=" ">
<path fill="none" stroke="#63b8ff" d="M418.39,-421.85C438.27,-397.75 490.41,-335.83 513,-321.5 516.19,-319.48 519.56,-317.6 523.03,-315.87"/>
<polygon fill="#63b8ff" stroke="#63b8ff" points="524.76,-318.93 532.43,-311.61 521.87,-312.55 524.76,-318.93"/>
</a>
</g>
</g>
<!-- Node26 -->
<g id="Node000026" class="node">
<title>Node26</title>
<g id="a_Node000026"><a xlink:href="effects_8c.html#aafe14c45e9b91bb1d409ef2f2bfe5c53" target="_top" xlink:title=" ">
<polygon fill="white" stroke="#666666" points="666.5,-263.5 517.5,-263.5 517.5,-233.5 666.5,-233.5 666.5,-263.5"/>
<text text-anchor="start" x="525.5" y="-251.5" font-family="Helvetica,sans-Serif" font-size="10.00">remove_boost_ramp_wood</text>
<text text-anchor="middle" x="592" y="-240.5" font-family="Helvetica,sans-Serif" font-size="10.00">_effect</text>
</a>
</g>
</g>
<!-- Node9&#45;&gt;Node26 -->
<g id="edge25_Node000009_Node000026" class="edge">
<title>Node9&#45;&gt;Node26</title>
<g id="a_edge25_Node000009_Node000026"><a xlink:title=" ">
<path fill="none" stroke="#63b8ff" d="M420,-421.66C433.8,-407.02 459.61,-378.25 477,-350.5 497.28,-318.15 484.26,-297.63 513,-272.5 514.36,-271.31 515.77,-270.19 517.23,-269.11"/>
<polygon fill="#63b8ff" stroke="#63b8ff" points="519.47,-271.84 526.08,-263.57 515.75,-265.91 519.47,-271.84"/>
</a>
</g>
</g>
<!-- Node27 -->
<g id="Node000027" class="node">
<title>Node27</title>
<g id="a_Node000027"><a xlink:href="effects_8c.html#a0d5728af3b320b88b01fadef778fcbff" target="_top" xlink:title=" ">
<polygon fill="white" stroke="#666666" points="650.5,-215.5 533.5,-215.5 533.5,-185.5 650.5,-185.5 650.5,-215.5"/>
<text text-anchor="start" x="541.5" y="-203.5" font-family="Helvetica,sans-Serif" font-size="10.00">remove_hit_by_item</text>
<text text-anchor="middle" x="592" y="-192.5" font-family="Helvetica,sans-Serif" font-size="10.00">_effect</text>
</a>
</g>
</g>
<!-- Node9&#45;&gt;Node27 -->
<g id="edge26_Node000009_Node000027" class="edge">
<title>Node9&#45;&gt;Node27</title>
<g id="a_edge26_Node000009_Node000027"><a xlink:title=" ">
<path fill="none" stroke="#63b8ff" d="M420.58,-421.99C435.09,-407.77 461.79,-379.51 477,-350.5 504.04,-298.92 472.24,-266.1 513,-224.5 516.27,-221.17 519.99,-218.29 523.99,-215.82"/>
<polygon fill="#63b8ff" stroke="#63b8ff" points="525.91,-218.76 533.13,-211 522.65,-212.57 525.91,-218.76"/>
</a>
</g>
</g>
<!-- Node19 -->
<g id="Node000019" class="node">
<title>Node19</title>
<g id="a_Node000019"><a xlink:href="code__80057C60_8c.html#a0a55fae21abd30d3c618adef1a9f3ccd" target="_top" xlink:title=" ">
<polygon fill="white" stroke="#666666" points="799,-421 707,-421 707,-402 799,-402 799,-421"/>
<text text-anchor="middle" x="753" y="-409" font-family="Helvetica,sans-Serif" font-size="10.00">func_8006B8B4</text>
</a>
</g>
</g>
<!-- Node18&#45;&gt;Node19 -->
<g id="edge18_Node000018_Node000019" class="edge">
<title>Node18&#45;&gt;Node19</title>
<g id="a_edge18_Node000018_Node000019"><a xlink:title=" ">
<path fill="none" stroke="#63b8ff" d="M638.14,-412.93C656.35,-412.7 677.54,-412.44 696.67,-412.2"/>
<polygon fill="#63b8ff" stroke="#63b8ff" points="696.79,-415.69 706.75,-412.07 696.71,-408.7 696.79,-415.69"/>
</a>
</g>
</g>
<!-- Node20 -->
<g id="Node000020" class="node">
<title>Node20</title>
<g id="a_Node000020"><a xlink:href="effects_8c.html#a1c7552c4a370cc015c2726e40f1fdb06" target="_top" xlink:title=" ">
<polygon fill="white" stroke="#666666" points="928,-421 835,-421 835,-402 928,-402 928,-421"/>
<text text-anchor="middle" x="881.5" y="-409" font-family="Helvetica,sans-Serif" font-size="10.00">func_8008FD4C</text>
</a>
</g>
</g>
<!-- Node19&#45;&gt;Node20 -->
<g id="edge19_Node000019_Node000020" class="edge">
<title>Node19&#45;&gt;Node20</title>
<g id="a_edge19_Node000019_Node000020"><a xlink:title=" ">
<path fill="none" stroke="#63b8ff" d="M799.31,-411.5C807.48,-411.5 816.08,-411.5 824.5,-411.5"/>
<polygon fill="#63b8ff" stroke="#63b8ff" points="824.65,-415 834.65,-411.5 824.65,-408 824.65,-415"/>
</a>
</g>
</g>
<!-- Node21 -->
<g id="Node000021" class="node">
<title>Node21</title>
<g id="a_Node000021"><a xlink:href="external_8c.html#a2be9efc97a92e19d02aaee90d676acc1" target="_top" xlink:title=" ">
<polygon fill="white" stroke="#666666" points="927.5,-380 835.5,-380 835.5,-361 927.5,-361 927.5,-380"/>
<text text-anchor="middle" x="881.5" y="-368" font-family="Helvetica,sans-Serif" font-size="10.00">func_800C9060</text>
</a>
</g>
</g>
<!-- Node19&#45;&gt;Node21 -->
<g id="edge20_Node000019_Node000021" class="edge">
<title>Node19&#45;&gt;Node21</title>
<g id="a_edge20_Node000019_Node000021"><a xlink:title=" ">
<path fill="none" stroke="#63b8ff" d="M783.34,-401.99C800.54,-396.42 822.49,-389.3 841.17,-383.25"/>
<polygon fill="#63b8ff" stroke="#63b8ff" points="842.45,-386.51 850.88,-380.1 840.29,-379.85 842.45,-386.51"/>
</a>
</g>
</g>
<!-- Node22 -->
<g id="Node000022" class="node">
<title>Node22</title>
<g id="a_Node000022"><a xlink:href="external_8c.html#a475cff796211891556f52877cd8e9b9e" target="_top" xlink:title=" ">
<polygon fill="white" stroke="#666666" points="1070,-353 998,-353 998,-334 1070,-334 1070,-353"/>
<text text-anchor="middle" x="1034" y="-341" font-family="Helvetica,sans-Serif" font-size="10.00">play_sound</text>
</a>
</g>
</g>
<!-- Node21&#45;&gt;Node22 -->
<g id="edge21_Node000021_Node000022" class="edge">
<title>Node21&#45;&gt;Node22</title>
<g id="a_edge21_Node000021_Node000022"><a xlink:title=" ">
<path fill="none" stroke="#63b8ff" d="M927.65,-362.4C946.74,-358.98 968.91,-355 987.98,-351.58"/>
<polygon fill="#63b8ff" stroke="#63b8ff" points="988.7,-355 997.92,-349.79 987.46,-348.11 988.7,-355"/>
</a>
</g>
</g>
<!-- Node29 -->
<g id="Node000029" class="node">
<title>Node29</title>
<g id="a_Node000029"><a xlink:href="external_8c.html#ac32b332e8b9a73af543741393186060d" target="_top" xlink:title=" ">
<polygon fill="white" stroke="#666666" points="638,-167 546,-167 546,-148 638,-148 638,-167"/>
<text text-anchor="middle" x="592" y="-155" font-family="Helvetica,sans-Serif" font-size="10.00">func_800CA730</text>
</a>
</g>
</g>
<!-- Node28&#45;&gt;Node29 -->
<g id="edge28_Node000028_Node000029" class="edge">
<title>Node28&#45;&gt;Node29</title>
<g id="a_edge28_Node000028_Node000029"><a xlink:title=" ">
<path fill="none" stroke="#63b8ff" d="M455.83,-325.37C463.69,-322.52 471.2,-318.42 477,-312.5 520.78,-267.86 468.35,-220.27 513,-176.5 519.36,-170.26 527.41,-165.95 535.91,-163"/>
<polygon fill="#63b8ff" stroke="#63b8ff" points="536.98,-166.34 545.63,-160.21 535.05,-159.61 536.98,-166.34"/>
</a>
</g>
</g>
<!-- Node42 -->
<g id="Node000042" class="node">
<title>Node42</title>
<g id="a_Node000042"><a xlink:href="external_8c.html#a3138069310bbed5109964d607d51811f" target="_top" xlink:title=" ">
<polygon fill="white" stroke="#666666" points="639.5,-92 544.5,-92 544.5,-73 639.5,-73 639.5,-92"/>
<text text-anchor="middle" x="592" y="-80" font-family="Helvetica,sans-Serif" font-size="10.00">func_800CAACC</text>
</a>
</g>
</g>
<!-- Node28&#45;&gt;Node42 -->
<g id="edge43_Node000028_Node000042" class="edge">
<title>Node28&#45;&gt;Node42</title>
<g id="a_edge43_Node000028_Node000042"><a xlink:title=" ">
<path fill="none" stroke="#63b8ff" d="M455.74,-325.73C463.71,-322.87 471.28,-318.66 477,-312.5 530.47,-254.97 470.46,-205.52 513,-139.5 524.81,-121.18 544.72,-106.77 561.47,-97.03"/>
<polygon fill="#63b8ff" stroke="#63b8ff" points="563.33,-100 570.38,-92.1 559.94,-93.88 563.33,-100"/>
</a>
</g>
</g>
<!-- Node29&#45;&gt;Node22 -->
<g id="edge42_Node000029_Node000022" class="edge">
<title>Node29&#45;&gt;Node22</title>
<g id="a_edge42_Node000029_Node000022"><a xlink:title=" ">
<path fill="none" stroke="#63b8ff" d="M638.25,-160.87C650.03,-163.66 661.94,-168.44 671,-176.5 705.35,-207.07 672.23,-243.41 707,-273.5 786.93,-342.69 918.72,-348.78 987.71,-346.6"/>
<polygon fill="#63b8ff" stroke="#63b8ff" points="987.96,-350.09 997.82,-346.2 987.69,-343.09 987.96,-350.09"/>
</a>
</g>
</g>
<!-- Node30 -->
<g id="Node000030" class="node">
<title>Node30</title>
<g id="a_Node000030"><a xlink:href="external_8c.html#ac48b7cbfcaa7737f892877ead85e4ba7" target="_top" xlink:title=" ">
<polygon fill="white" stroke="#666666" points="927.5,-141 835.5,-141 835.5,-122 927.5,-122 927.5,-141"/>
<text text-anchor="middle" x="881.5" y="-129" font-family="Helvetica,sans-Serif" font-size="10.00">func_800C3448</text>
</a>
</g>
</g>
<!-- Node29&#45;&gt;Node30 -->
<g id="edge29_Node000029_Node000030" class="edge">
<title>Node29&#45;&gt;Node30</title>
<g id="a_edge29_Node000029_Node000030"><a xlink:title=" ">
<path fill="none" stroke="#63b8ff" d="M638.21,-161.49C649.86,-164.3 661.71,-168.93 671,-176.5 699.98,-200.11 675.42,-232.51 707,-252.5 741.55,-274.37 762.9,-271.71 799,-252.5 839.64,-230.87 863.66,-178.95 874.17,-150.66"/>
<polygon fill="#63b8ff" stroke="#63b8ff" points="877.52,-151.68 877.54,-141.09 870.92,-149.36 877.52,-151.68"/>
</a>
</g>
</g>
<!-- Node31 -->
<g id="Node000031" class="node">
<title>Node31</title>
<g id="a_Node000031"><a xlink:href="external_8c.html#ab2ecda68e1fb6f957aafd4c5742e2f63" target="_top" xlink:title=" ">
<polygon fill="white" stroke="#666666" points="799,-243 707,-243 707,-224 799,-224 799,-243"/>
<text text-anchor="middle" x="753" y="-231" font-family="Helvetica,sans-Serif" font-size="10.00">func_800C3508</text>
</a>
</g>
</g>
<!-- Node29&#45;&gt;Node31 -->
<g id="edge30_Node000029_Node000031" class="edge">
<title>Node29&#45;&gt;Node31</title>
<g id="a_edge30_Node000029_Node000031"><a xlink:title=" ">
<path fill="none" stroke="#63b8ff" d="M638.06,-163.76C649.33,-166.57 661.03,-170.63 671,-176.5 691.33,-188.47 687.57,-202.12 707,-215.5 708.91,-216.82 710.94,-218.06 713.03,-219.23"/>
<polygon fill="#63b8ff" stroke="#63b8ff" points="711.95,-222.6 722.46,-223.88 715.04,-216.32 711.95,-222.6"/>
</a>
</g>
</g>
<!-- Node32 -->
<g id="Node000032" class="node">
<title>Node32</title>
<g id="a_Node000032"><a xlink:href="external_8c.html#a2aea7abf056e029f247b18edb62aa218" target="_top" xlink:title=" ">
<polygon fill="white" stroke="#666666" points="799,-206 707,-206 707,-187 799,-187 799,-206"/>
<text text-anchor="middle" x="753" y="-194" font-family="Helvetica,sans-Serif" font-size="10.00">func_800C357C</text>
</a>
</g>
</g>
<!-- Node29&#45;&gt;Node32 -->
<g id="edge31_Node000029_Node000032" class="edge">
<title>Node29&#45;&gt;Node32</title>
<g id="a_edge31_Node000029_Node000032"><a xlink:title=" ">
<path fill="none" stroke="#63b8ff" d="M632.29,-167.04C644.67,-170.06 658.41,-173.41 671,-176.5 681.45,-179.06 692.65,-181.82 703.29,-184.45"/>
<polygon fill="#63b8ff" stroke="#63b8ff" points="702.73,-187.91 713.28,-186.91 704.41,-181.12 702.73,-187.91"/>
</a>
</g>
</g>
<!-- Node33 -->
<g id="Node000033" class="node">
<title>Node33</title>
<g id="a_Node000033"><a xlink:href="external_8c.html#aea29af4ab009f59caa57f45987b0ea86" target="_top" xlink:title=" ">
<polygon fill="white" stroke="#666666" points="799,-169 707,-169 707,-150 799,-150 799,-169"/>
<text text-anchor="middle" x="753" y="-157" font-family="Helvetica,sans-Serif" font-size="10.00">func_800C3608</text>
</a>
</g>
</g>
<!-- Node29&#45;&gt;Node33 -->
<g id="edge32_Node000029_Node000033" class="edge">
<title>Node29&#45;&gt;Node33</title>
<g id="a_edge32_Node000029_Node000033"><a xlink:title=" ">
<path fill="none" stroke="#63b8ff" d="M638.14,-158.07C656.35,-158.3 677.54,-158.56 696.67,-158.8"/>
<polygon fill="#63b8ff" stroke="#63b8ff" points="696.71,-162.3 706.75,-158.93 696.79,-155.31 696.71,-162.3"/>
</a>
</g>
</g>
<!-- Node34 -->
<g id="Node000034" class="node">
<title>Node34</title>
<g id="a_Node000034"><a xlink:href="external_8c.html#ad377fc55133176f069744a4bcb5e0364" target="_top" xlink:title=" ">
<polygon fill="white" stroke="#666666" points="799,-95 707,-95 707,-76 799,-76 799,-95"/>
<text text-anchor="middle" x="753" y="-83" font-family="Helvetica,sans-Serif" font-size="10.00">func_800C9018</text>
</a>
</g>
</g>
<!-- Node29&#45;&gt;Node34 -->
<g id="edge33_Node000029_Node000034" class="edge">
<title>Node29&#45;&gt;Node34</title>
<g id="a_edge33_Node000029_Node000034"><a xlink:title=" ">
<path fill="none" stroke="#63b8ff" d="M613.08,-147.9C635.78,-137.11 673.88,-119.19 707,-104.5 711.12,-102.67 715.48,-100.78 719.78,-98.94"/>
<polygon fill="#63b8ff" stroke="#63b8ff" points="721.2,-102.14 729.04,-95.01 718.47,-95.69 721.2,-102.14"/>
</a>
</g>
</g>
<!-- Node41 -->
<g id="Node000041" class="node">
<title>Node41</title>
<g id="a_Node000041"><a xlink:href="external_8c.html#a6584dbe6b07d52e25d5ca892468153a5" target="_top" xlink:title=" ">
<polygon fill="white" stroke="#666666" points="797.5,-132 708.5,-132 708.5,-113 797.5,-113 797.5,-132"/>
<text text-anchor="middle" x="753" y="-120" font-family="Helvetica,sans-Serif" font-size="10.00">play_sequence</text>
</a>
</g>
</g>
<!-- Node29&#45;&gt;Node41 -->
<g id="edge40_Node000029_Node000041" class="edge">
<title>Node29&#45;&gt;Node41</title>
<g id="a_edge40_Node000029_Node000041"><a xlink:title=" ">
<path fill="none" stroke="#63b8ff" d="M636.45,-147.94C655.64,-143.71 678.39,-138.7 698.6,-134.25"/>
<polygon fill="#63b8ff" stroke="#63b8ff" points="699.59,-137.62 708.61,-132.05 698.09,-130.78 699.59,-137.62"/>
</a>
</g>
</g>
<!-- Node35 -->
<g id="Node000035" class="node">
<title>Node35</title>
<g id="a_Node000035"><a xlink:href="external_8c.html#a028d40421b90c38f68ebfd5acc626f2e" target="_top" xlink:title=" ">
<polygon fill="white" stroke="#666666" points="927.5,-85 835.5,-85 835.5,-66 927.5,-66 927.5,-85"/>
<text text-anchor="middle" x="881.5" y="-73" font-family="Helvetica,sans-Serif" font-size="10.00">func_800C5578</text>
</a>
</g>
</g>
<!-- Node34&#45;&gt;Node35 -->
<g id="edge34_Node000034_Node000035" class="edge">
<title>Node34&#45;&gt;Node35</title>
<g id="a_edge34_Node000034_Node000035"><a xlink:title=" ">
<path fill="none" stroke="#63b8ff" d="M799.31,-81.92C807.67,-81.26 816.48,-80.56 825.1,-79.88"/>
<polygon fill="#63b8ff" stroke="#63b8ff" points="825.39,-83.37 835.08,-79.09 824.83,-76.39 825.39,-83.37"/>
</a>
</g>
</g>
<!-- Node36 -->
<g id="Node000036" class="node">
<title>Node36</title>
<g id="a_Node000036"><a xlink:href="external_8c.html#ac0fb767de7e14a03f1bcfa53f0abd23b" target="_top" xlink:title=" ">
<polygon fill="white" stroke="#666666" points="1104,-122 964,-122 964,-103 1104,-103 1104,-122"/>
<text text-anchor="middle" x="1034" y="-110" font-family="Helvetica,sans-Serif" font-size="10.00">delete_sound_from_bank</text>
</a>
</g>
</g>
<!-- Node35&#45;&gt;Node36 -->
<g id="edge35_Node000035_Node000036" class="edge">
<title>Node35&#45;&gt;Node36</title>
<g id="a_edge35_Node000035_Node000036"><a xlink:title=" ">
<path fill="none" stroke="#63b8ff" d="M921.26,-85.03C940.49,-89.76 963.93,-95.52 984.36,-100.54"/>
<polygon fill="#63b8ff" stroke="#63b8ff" points="983.57,-103.95 994.11,-102.94 985.24,-97.15 983.57,-103.95"/>
</a>
</g>
</g>
<!-- Node38 -->
<g id="Node000038" class="node">
<title>Node38</title>
<g id="a_Node000038"><a xlink:href="external_8c.html#ab83bd36e63f0f1baddcb2482b5ad31b0" target="_top" xlink:title=" ">
<polygon fill="white" stroke="#666666" points="1080.5,-85 987.5,-85 987.5,-66 1080.5,-66 1080.5,-85"/>
<text text-anchor="middle" x="1034" y="-73" font-family="Helvetica,sans-Serif" font-size="10.00">func_800C41CC</text>
</a>
</g>
</g>
<!-- Node35&#45;&gt;Node38 -->
<g id="edge37_Node000035_Node000038" class="edge">
<title>Node35&#45;&gt;Node38</title>
<g id="a_edge37_Node000035_Node000038"><a xlink:title=" ">
<path fill="none" stroke="#63b8ff" d="M927.65,-75.5C943.14,-75.5 960.66,-75.5 976.9,-75.5"/>
<polygon fill="#63b8ff" stroke="#63b8ff" points="977.36,-79 987.36,-75.5 977.36,-72 977.36,-79"/>
</a>
</g>
</g>
<!-- Node39 -->
<g id="Node000039" class="node">
<title>Node39</title>
<g id="a_Node000039"><a xlink:href="port__eu_8c.html#aa89dfaecca46c6d071f08c1898d1f7c9" target="_top" xlink:title=" ">
<polygon fill="white" stroke="#666666" points="1080.5,-48 987.5,-48 987.5,-29 1080.5,-29 1080.5,-48"/>
<text text-anchor="middle" x="1034" y="-36" font-family="Helvetica,sans-Serif" font-size="10.00">func_800CBBE8</text>
</a>
</g>
</g>
<!-- Node35&#45;&gt;Node39 -->
<g id="edge38_Node000035_Node000039" class="edge">
<title>Node35&#45;&gt;Node39</title>
<g id="a_edge38_Node000035_Node000039"><a xlink:title=" ">
<path fill="none" stroke="#63b8ff" d="M921.26,-65.97C940.49,-61.24 963.93,-55.48 984.36,-50.46"/>
<polygon fill="#63b8ff" stroke="#63b8ff" points="985.24,-53.85 994.11,-48.06 983.57,-47.05 985.24,-53.85"/>
</a>
</g>
</g>
<!-- Node37 -->
<g id="Node000037" class="node">
<title>Node37</title>
<g id="a_Node000037"><a xlink:href="external_8c.html#a358ac55e8ab5262dcae8037334be06d7" target="_top" xlink:title=" ">
<polygon fill="white" stroke="#666666" points="1232.5,-122 1140.5,-122 1140.5,-103 1232.5,-103 1232.5,-122"/>
<text text-anchor="middle" x="1186.5" y="-110" font-family="Helvetica,sans-Serif" font-size="10.00">func_800C40F0</text>
</a>
</g>
</g>
<!-- Node36&#45;&gt;Node37 -->
<g id="edge36_Node000036_Node000037" class="edge">
<title>Node36&#45;&gt;Node37</title>
<g id="a_edge36_Node000036_Node000037"><a xlink:title=" ">
<path fill="none" stroke="#63b8ff" d="M1104.08,-112.5C1112.87,-112.5 1121.78,-112.5 1130.31,-112.5"/>
<polygon fill="#63b8ff" stroke="#63b8ff" points="1130.5,-116 1140.5,-112.5 1130.5,-109 1130.5,-116"/>
</a>
</g>
</g>
<!-- Node40 -->
<g id="Node000040" class="node">
<title>Node40</title>
<g id="a_Node000040"><a xlink:href="port__eu_8c.html#af361a20d2e08f30c53a237ca481ff734" target="_top" xlink:title=" ">
<polygon fill="white" stroke="#666666" points="1233,-48 1140,-48 1140,-29 1233,-29 1233,-48"/>
<text text-anchor="middle" x="1186.5" y="-36" font-family="Helvetica,sans-Serif" font-size="10.00">func_800CBB48</text>
</a>
</g>
</g>
<!-- Node39&#45;&gt;Node40 -->
<g id="edge39_Node000039_Node000040" class="edge">
<title>Node39&#45;&gt;Node40</title>
<g id="a_edge39_Node000039_Node000040"><a xlink:title=" ">
<path fill="none" stroke="#63b8ff" d="M1080.56,-38.5C1095.96,-38.5 1113.34,-38.5 1129.46,-38.5"/>
<polygon fill="#63b8ff" stroke="#63b8ff" points="1129.83,-42 1139.83,-38.5 1129.83,-35 1129.83,-42"/>
</a>
</g>
</g>
<!-- Node41&#45;&gt;Node30 -->
<g id="edge41_Node000041_Node000030" class="edge">
<title>Node41&#45;&gt;Node30</title>
<g id="a_edge41_Node000041_Node000030"><a xlink:title=" ">
<path fill="none" stroke="#63b8ff" d="M797.53,-125.6C806.36,-126.23 815.76,-126.89 824.94,-127.55"/>
<polygon fill="#63b8ff" stroke="#63b8ff" points="824.94,-131.06 835.16,-128.27 825.44,-124.07 824.94,-131.06"/>
</a>
</g>
</g>
<!-- Node42&#45;&gt;Node35 -->
<g id="edge45_Node000042_Node000035" class="edge">
<title>Node42&#45;&gt;Node35</title>
<g id="a_edge45_Node000042_Node000035"><a xlink:title=" ">
<path fill="none" stroke="#63b8ff" d="M639.71,-74.45C660.28,-71.29 684.77,-68.05 707,-66.5 747.79,-63.65 758.17,-64.25 799,-66.5 807.48,-66.97 816.43,-67.7 825.18,-68.56"/>
<polygon fill="#63b8ff" stroke="#63b8ff" points="825,-72.06 835.31,-69.61 825.72,-65.1 825,-72.06"/>
</a>
</g>
</g>
<!-- Node43 -->
<g id="Node000043" class="node">
<title>Node43</title>
<g id="a_Node000043"><a xlink:href="external_8c.html#aeb87c527482a244173df36a1f3d4f446" target="_top" xlink:title=" ">
<polygon fill="white" stroke="#666666" points="799,-19 707,-19 707,0 799,0 799,-19"/>
<text text-anchor="middle" x="753" y="-7" font-family="Helvetica,sans-Serif" font-size="10.00">func_800C21E8</text>
</a>
</g>
</g>
<!-- Node42&#45;&gt;Node43 -->
<g id="edge44_Node000042_Node000043" class="edge">
<title>Node42&#45;&gt;Node43</title>
<g id="a_edge44_Node000042_Node000043"><a xlink:title=" ">
<path fill="none" stroke="#63b8ff" d="M639.61,-74.81C650.26,-72.07 661.29,-68.39 671,-63.5 689.6,-54.13 689.72,-45.13 707,-33.5 711.99,-30.14 717.5,-26.88 722.9,-23.89"/>
<polygon fill="#63b8ff" stroke="#63b8ff" points="724.59,-26.96 731.78,-19.17 721.3,-20.78 724.59,-26.96"/>
</a>
</g>
</g>
<!-- Node46 -->
<g id="Node000046" class="node">
<title>Node46</title>
<g id="a_Node000046"><a xlink:href="render__player_8c.html#a35eebbf671cc37666be29a2a9b6f3c8c" target="_top" xlink:title=" ">
<polygon fill="white" stroke="#666666" points="647,-55 537,-55 537,-36 647,-36 647,-55"/>
<text text-anchor="middle" x="592" y="-43" font-family="Helvetica,sans-Serif" font-size="10.00">move_f32_towards</text>
</a>
</g>
</g>
<!-- Node45&#45;&gt;Node46 -->
<g id="edge48_Node000045_Node000046" class="edge">
<title>Node45&#45;&gt;Node46</title>
<g id="a_edge48_Node000045_Node000046"><a xlink:title=" ">
<path fill="none" stroke="#63b8ff" d="M424.8,-110.83C444.06,-98.23 479.74,-76.29 513,-63.5 518.48,-61.39 524.28,-59.49 530.15,-57.78"/>
<polygon fill="#63b8ff" stroke="#63b8ff" points="531.3,-61.09 540.03,-55.09 529.46,-54.34 531.3,-61.09"/>
</a>
</g>
</g>
</g>
</svg>

<g id="navigator" transform="translate(0 0)" fill="#404254">
  <rect fill="#f2f5e9" fill-opacity="0.5" stroke="#606060" stroke-width=".5" x="0" y="0" width="60" height="60"/>
  <use id="zoomplus" xlink:href="#zoomPlus" x="17" y="9" onmousedown="handleZoom(evt,'in')"/>
  <use id="zoomminus" xlink:href="#zoomMin" x="42" y="9" onmousedown="handleZoom(evt,'out')"/>
  <use id="reset" xlink:href="#resetDef" x="30" y="36" onmousedown="handleReset()"/>
   <use id="arrowup" xlink:href="#arrowUp" x="0" y="0" onmousedown="handlePan(0,-1)"/>
  <use id="arrowright" xlink:href="#arrowRight" x="0" y="0" onmousedown="handlePan(1,0)"/>
  <use id="arrowdown" xlink:href="#arrowDown" x="0" y="0" onmousedown="handlePan(0,1)"/>
  <use id="arrowleft" xlink:href="#arrowLeft" x="0" y="0" onmousedown="handlePan(-1,0)"/>
</g>
<svg viewBox="0 0 15 15" width="100%" height="30px" preserveAspectRatio="xMaxYMin meet">
 <g id="arrow_out" transform="scale(0.3 0.3)">
  <a xlink:href="classOLakitu_a36c83733ab0a1c33f0c0585837aef630_cgraph_org.svg" target="_base">
   <rect id="button" ry="5" rx="5" y="6" x="6" height="38" width="38"
        fill="#f2f5e9" fill-opacity="0.5" stroke="#606060" stroke-width="1.0"/>
   <path id="arrow"
     d="M 11.500037,31.436501 C 11.940474,20.09759 22.043105,11.32322 32.158766,21.979434 L 37.068811,17.246167 C 37.068811,17.246167 37.088388,32 37.088388,32 L 22.160133,31.978069 C 22.160133,31.978069 26.997745,27.140456 26.997745,27.140456 C 18.528582,18.264221 13.291696,25.230495 11.500037,31.436501 z"
     style="fill:#404040;"/>
  </a>
 </g>
</svg>

<style type='text/css'>
<![CDATA[
[data-mouse-over-selected='false'] { opacity: 0.7; }
[data-mouse-over-selected='true']  { opacity: 1.0; }
]]>
</style>
<script type="application/ecmascript"><![CDATA[
document.addEventListener('DOMContentLoaded', (event) => {
  highlightEdges();
  highlightAdjacentNodes();
});
]]></script>
</svg>
