<?xml version="1.0" encoding="UTF-8" standalone="no"?>
<!DOCTYPE svg PUBLIC "-//W3C//DTD SVG 1.1//EN"
 "http://www.w3.org/Graphics/SVG/1.1/DTD/svg11.dtd">
<!-- Generated by graphviz version 2.43.0 (0)
 -->
<!-- Title: GameUI::PortMenu::AddEnhancements Pages: 1 -->
<svg width="593pt" height="298pt"
 viewBox="0.00 0.00 593.00 298.00" xmlns="http://www.w3.org/2000/svg" xmlns:xlink="http://www.w3.org/1999/xlink">
<g id="graph0" class="graph" transform="scale(1 1) rotate(0) translate(4 294)">
<title>GameUI::PortMenu::AddEnhancements</title>
<!-- Node1 -->
<g id="Node000001" class="node">
<title>Node1</title>
<g id="a_Node000001"><a xlink:title=" ">
<polygon fill="#999999" stroke="#666666" points="206,-148 0,-148 0,-129 206,-129 206,-148"/>
<text text-anchor="middle" x="103" y="-136" font-family="Helvetica,sans-Serif" font-size="10.00">GameUI::PortMenu::AddEnhancements</text>
</a>
</g>
</g>
<!-- Node2 -->
<g id="Node000002" class="node">
<title>Node2</title>
<g id="a_Node000002"><a xlink:href="classShip_1_1Menu.html#ab11c570db7278bb11d2106d1b3584830" target="_top" xlink:title=" ">
<polygon fill="white" stroke="#666666" points="401,-290 253,-290 253,-271 401,-271 401,-290"/>
<text text-anchor="middle" x="327" y="-278" font-family="Helvetica,sans-Serif" font-size="10.00">Ship::Menu::AddMenuEntry</text>
</a>
</g>
</g>
<!-- Node1&#45;&gt;Node2 -->
<g id="edge1_Node000001_Node000002" class="edge">
<title>Node1&#45;&gt;Node2</title>
<g id="a_edge1_Node000001_Node000002"><a xlink:title=" ">
<path fill="none" stroke="#63b8ff" d="M111.85,-148.3C131.24,-171.82 184.07,-231.69 242,-261.5 246.62,-263.88 251.53,-265.96 256.57,-267.78"/>
<polygon fill="#63b8ff" stroke="#63b8ff" points="255.78,-271.2 266.38,-270.98 257.95,-264.55 255.78,-271.2"/>
</a>
</g>
</g>
<!-- Node3 -->
<g id="Node000003" class="node">
<title>Node3</title>
<g id="a_Node000003"><a xlink:href="classGameUI_1_1PortMenu.html#a13c853deed0530fa8e1810ffe6fef9a5" target="_top" xlink:title=" ">
<polygon fill="white" stroke="#666666" points="412,-252.5 242,-252.5 242,-222.5 412,-222.5 412,-252.5"/>
<text text-anchor="start" x="250" y="-240.5" font-family="Helvetica,sans-Serif" font-size="10.00">GameUI::PortMenu::AddSidebar</text>
<text text-anchor="middle" x="327" y="-229.5" font-family="Helvetica,sans-Serif" font-size="10.00">Entry</text>
</a>
</g>
</g>
<!-- Node1&#45;&gt;Node3 -->
<g id="edge2_Node000001_Node000003" class="edge">
<title>Node1&#45;&gt;Node3</title>
<g id="a_edge2_Node000001_Node000003"><a xlink:title=" ">
<path fill="none" stroke="#63b8ff" d="M119.18,-148.2C144.03,-163.74 195.31,-194.41 242,-213.5 247,-215.54 252.24,-217.48 257.55,-219.31"/>
<polygon fill="#63b8ff" stroke="#63b8ff" points="256.55,-222.67 267.15,-222.47 258.74,-216.02 256.55,-222.67"/>
</a>
</g>
</g>
<!-- Node4 -->
<g id="Node000004" class="node">
<title>Node4</title>
<g id="a_Node000004"><a xlink:href="classGameUI_1_1PortMenu.html#a35ff589db0705776ae252a50fa1cee7d" target="_top" xlink:title=" ">
<polygon fill="white" stroke="#666666" points="411,-204 243,-204 243,-185 411,-185 411,-204"/>
<text text-anchor="middle" x="327" y="-192" font-family="Helvetica,sans-Serif" font-size="10.00">GameUI::PortMenu::AddWidget</text>
</a>
</g>
</g>
<!-- Node1&#45;&gt;Node4 -->
<g id="edge3_Node000001_Node000004" class="edge">
<title>Node1&#45;&gt;Node4</title>
<g id="a_edge3_Node000001_Node000004"><a xlink:title=" ">
<path fill="none" stroke="#63b8ff" d="M136.48,-148.01C164.36,-156.04 205.67,-167.61 242,-176.5 250.83,-178.66 260.22,-180.81 269.4,-182.84"/>
<polygon fill="#63b8ff" stroke="#63b8ff" points="268.72,-186.27 279.24,-184.98 270.21,-179.43 268.72,-186.27"/>
</a>
</g>
</g>
<!-- Node5 -->
<g id="Node000005" class="node">
<title>Node5</title>
<g id="a_Node000005"><a xlink:href="structWidgetInfo.html#a63678e013cb28e918508e58d8c6f2aec" target="_top" xlink:title=" ">
<polygon fill="white" stroke="#666666" points="386,-167 268,-167 268,-148 386,-148 386,-167"/>
<text text-anchor="middle" x="327" y="-155" font-family="Helvetica,sans-Serif" font-size="10.00">WidgetInfo::Callback</text>
</a>
</g>
</g>
<!-- Node1&#45;&gt;Node5 -->
<g id="edge4_Node000001_Node000005" class="edge">
<title>Node1&#45;&gt;Node5</title>
<g id="a_edge4_Node000001_Node000005"><a xlink:title=" ">
<path fill="none" stroke="#63b8ff" d="M206.23,-147.25C223.76,-148.75 241.58,-150.27 257.93,-151.67"/>
<polygon fill="#63b8ff" stroke="#63b8ff" points="257.64,-155.16 267.91,-152.53 258.24,-148.19 257.64,-155.16"/>
</a>
</g>
</g>
<!-- Node6 -->
<g id="Node000006" class="node">
<title>Node6</title>
<g id="a_Node000006"><a xlink:href="structWidgetInfo.html#a90231c4f7b3b153e6ede3f853748db3a" target="_top" xlink:title=" ">
<polygon fill="white" stroke="#666666" points="376,-130 278,-130 278,-111 376,-111 376,-130"/>
<text text-anchor="middle" x="327" y="-118" font-family="Helvetica,sans-Serif" font-size="10.00">WidgetInfo::CVar</text>
</a>
</g>
</g>
<!-- Node1&#45;&gt;Node6 -->
<g id="edge5_Node000001_Node000006" class="edge">
<title>Node1&#45;&gt;Node6</title>
<g id="a_edge5_Node000001_Node000006"><a xlink:title=" ">
<path fill="none" stroke="#63b8ff" d="M206.23,-130.21C227.35,-128.5 248.9,-126.75 267.79,-125.22"/>
<polygon fill="#63b8ff" stroke="#63b8ff" points="268.31,-128.69 277.99,-124.39 267.74,-121.71 268.31,-128.69"/>
</a>
</g>
</g>
<!-- Node7 -->
<g id="Node000007" class="node">
<title>Node7</title>
<g id="a_Node000007"><a xlink:href="structWidgetInfo.html#a8fb193d773f8f491d161798ec34a3569" target="_top" xlink:title=" ">
<polygon fill="white" stroke="#666666" points="383.5,-93 270.5,-93 270.5,-74 383.5,-74 383.5,-93"/>
<text text-anchor="middle" x="327" y="-81" font-family="Helvetica,sans-Serif" font-size="10.00">WidgetInfo::Options</text>
</a>
</g>
</g>
<!-- Node1&#45;&gt;Node7 -->
<g id="edge6_Node000001_Node000007" class="edge">
<title>Node1&#45;&gt;Node7</title>
<g id="a_edge6_Node000001_Node000007"><a xlink:title=" ">
<path fill="none" stroke="#63b8ff" d="M139.37,-128.93C167.2,-121.49 207,-111.02 242,-102.5 251.81,-100.11 262.28,-97.66 272.39,-95.35"/>
<polygon fill="#63b8ff" stroke="#63b8ff" points="273.36,-98.72 282.34,-93.09 271.81,-91.89 273.36,-98.72"/>
</a>
</g>
</g>
<!-- Node8 -->
<g id="Node000008" class="node">
<title>Node8</title>
<g id="a_Node000008"><a xlink:href="structWidgetInfo.html#aa5a2f8ac208a9a4bb743df31284b9823" target="_top" xlink:title=" ">
<polygon fill="white" stroke="#666666" points="384,-56 270,-56 270,-37 384,-37 384,-56"/>
<text text-anchor="middle" x="327" y="-44" font-family="Helvetica,sans-Serif" font-size="10.00">WidgetInfo::PreFunc</text>
</a>
</g>
</g>
<!-- Node1&#45;&gt;Node8 -->
<g id="edge7_Node000001_Node000008" class="edge">
<title>Node1&#45;&gt;Node8</title>
<g id="a_edge7_Node000001_Node000008"><a xlink:title=" ">
<path fill="none" stroke="#63b8ff" d="M119.11,-128.79C143.85,-113.28 194.98,-82.91 242,-65.5 249.02,-62.9 256.51,-60.59 264.01,-58.56"/>
<polygon fill="#63b8ff" stroke="#63b8ff" points="265.02,-61.91 273.84,-56.05 263.29,-55.13 265.02,-61.91"/>
</a>
</g>
</g>
<!-- Node9 -->
<g id="Node000009" class="node">
<title>Node9</title>
<g id="a_Node000009"><a xlink:href="namespaceUIWidgets.html#a4d98c5aaae7bc50d0349332872902b84" target="_top" xlink:title=" ">
<polygon fill="white" stroke="#666666" points="379.5,-19 274.5,-19 274.5,0 379.5,0 379.5,-19"/>
<text text-anchor="middle" x="327" y="-7" font-family="Helvetica,sans-Serif" font-size="10.00">UIWidgets::Tooltip</text>
</a>
</g>
</g>
<!-- Node1&#45;&gt;Node9 -->
<g id="edge8_Node000001_Node000009" class="edge">
<title>Node1&#45;&gt;Node9</title>
<g id="a_edge8_Node000001_Node000009"><a xlink:title=" ">
<path fill="none" stroke="#63b8ff" d="M112.99,-128.82C133.61,-107.24 186.76,-55.03 242,-28.5 249.01,-25.13 256.64,-22.35 264.35,-20.05"/>
<polygon fill="#63b8ff" stroke="#63b8ff" points="265.39,-23.4 274.12,-17.39 263.55,-16.64 265.39,-23.4"/>
</a>
</g>
</g>
<!-- Node10 -->
<g id="Node000010" class="node">
<title>Node10</title>
<g id="a_Node000010"><a xlink:href="namespaceUIWidgets.html#a01b8f77a826ec1dcc1ee8c9a21c219d6" target="_top" xlink:title=" ">
<polygon fill="white" stroke="#666666" points="585,-19 448,-19 448,0 585,0 585,-19"/>
<text text-anchor="middle" x="516.5" y="-7" font-family="Helvetica,sans-Serif" font-size="10.00">UIWidgets::WrappedText</text>
</a>
</g>
</g>
<!-- Node9&#45;&gt;Node10 -->
<g id="edge9_Node000009_Node000010" class="edge">
<title>Node9&#45;&gt;Node10</title>
<g id="a_edge9_Node000009_Node000010"><a xlink:title=" ">
<path fill="none" stroke="#63b8ff" d="M379.73,-9.5C397.64,-9.5 418.13,-9.5 437.66,-9.5"/>
<polygon fill="#63b8ff" stroke="#63b8ff" points="437.77,-13 447.77,-9.5 437.77,-6 437.77,-13"/>
</a>
</g>
</g>
</g>
</svg>
