<?xml version="1.0" encoding="UTF-8" standalone="no"?>
<!DOCTYPE svg PUBLIC "-//W3C//DTD SVG 1.1//EN"
 "http://www.w3.org/Graphics/SVG/1.1/DTD/svg11.dtd">
<!-- Generated by graphviz version 2.43.0 (0)
 -->
<!-- Title: ABanana Pages: 1 -->
<!--zoomable 327 -->

<svg id="main" version="1.1" xmlns="http://www.w3.org/2000/svg" xmlns:xlink="http://www.w3.org/1999/xlink" xml:space="preserve" onload="init(evt)">

<style type="text/css"><![CDATA[
.node, .edge {opacity: 0.7;}
.node.selected, .edge.selected {opacity: 1;}
.edge:hover path { stroke: red; }
.edge:hover polygon { stroke: red; fill: red; }
]]></style>

<defs>
  <circle id="rim" cx="0" cy="0" r="7"/>
  <circle id="rim2" cx="0" cy="0" r="3.5"/>
  <g id="zoomPlus">
    <use xlink:href="#rim" fill="#404040"><set attributeName="fill" to="#808080" begin="zoomplus.mouseover" end="zoomplus.mouseout"/></use>
    <path d="M-4,0h8M0,-4v8" fill="none" stroke="white" stroke-width="1.5" pointer-events="none"/>
  </g>
  <g id="zoomMin">
    <use xlink:href="#rim" fill="#404040"><set attributeName="fill" to="#808080" begin="zoomminus.mouseover" end="zoomminus.mouseout"/></use>
    <path d="M-4,0h8" fill="none" stroke="white" stroke-width="1.5" pointer-events="none"/>
  </g>
  <g id="arrowUp" transform="translate(30 24)">
    <use xlink:href="#rim"/>
    <path pointer-events="none" fill="none" stroke="white" stroke-width="1.5" d="M0,-3.0v7 M-2.5,-0.5L0,-3.0L2.5,-0.5"/>
  </g>
  <g id="arrowRight" transform="rotate(90) translate(36 -43)">
    <use xlink:href="#rim"/>
    <path pointer-events="none" fill="none" stroke="white" stroke-width="1.5" d="M0,-3.0v7 M-2.5,-0.5L0,-3.0L2.5,-0.5"/>
  </g>
  <g id="arrowDown" transform="rotate(180) translate(-30 -48)">
    <use xlink:href="#rim"/>
    <path pointer-events="none" fill="none" stroke="white" stroke-width="1.5" d="M0,-3.0v7 M-2.5,-0.5L0,-3.0L2.5,-0.5"/>
  </g>
  <g id="arrowLeft" transform="rotate(270) translate(-36 17)">
    <use xlink:href="#rim"/>
    <path pointer-events="none" fill="none" stroke="white" stroke-width="1.5" d="M0,-3.0v7 M-2.5,-0.5L0,-3.0L2.5,-0.5"/>
  </g>
  <g id="resetDef">
    <use xlink:href="#rim2" fill="#404040"><set attributeName="fill" to="#808080" begin="reset.mouseover" end="reset.mouseout"/></use>
  </g>
</defs>
<script type="application/ecmascript">
var viewWidth = 671;
var viewHeight = 327;
var sectionId = 'dynsection-1';
</script>
<script type="application/ecmascript" xlink:href="svg.min.js"/>
<svg id="graph" class="graph">
<g id="viewport">
<title>ABanana</title>
<!-- Node1 -->
<g id="Node000001" class="node">
<title>Node1</title>
<g id="a_Node000001"><a xlink:title=" ">
<polygon fill="#999999" stroke="#666666" points="407,-19 347,-19 347,0 407,0 407,-19"/>
<text text-anchor="middle" x="377" y="-7" font-family="Helvetica,sans-Serif" font-size="10.00">ABanana</text>
</a>
</g>
</g>
<!-- Node2 -->
<g id="Node000002" class="node">
<title>Node2</title>
<g id="a_Node000002"><a xlink:href="classAActor.html" target="_top" xlink:title=" ">
<polygon fill="white" stroke="#666666" points="366.5,-85 317.5,-85 317.5,-66 366.5,-66 366.5,-85"/>
<text text-anchor="middle" x="342" y="-73" font-family="Helvetica,sans-Serif" font-size="10.00">AActor</text>
</a>
</g>
</g>
<!-- Node2&#45;&gt;Node1 -->
<g id="edge1_Node000001_Node000002" class="edge">
<title>Node2&#45;&gt;Node1</title>
<g id="a_edge1_Node000001_Node000002"><a xlink:title=" ">
<path fill="none" stroke="#63b8ff" d="M351.54,-57.05C358.21,-44.86 366.83,-29.11 372.13,-19.41"/>
<polygon fill="#63b8ff" stroke="#63b8ff" points="348.45,-55.42 346.72,-65.87 354.59,-58.77 348.45,-55.42"/>
</a>
</g>
</g>
<!-- Node3 -->
<g id="Node000003" class="node">
<title>Node3</title>
<g id="a_Node000003"><a xlink:title=" ">
<polygon fill="white" stroke="#666666" points="34,-196.5 0,-196.5 0,-177.5 34,-177.5 34,-196.5"/>
<text text-anchor="middle" x="17" y="-184.5" font-family="Helvetica,sans-Serif" font-size="10.00">s16</text>
</a>
</g>
</g>
<!-- Node3&#45;&gt;Node2 -->
<g id="edge2_Node000002_Node000003" class="edge">
<title>Node3&#45;&gt;Node2</title>
<g id="a_edge2_Node000002_Node000003"><a xlink:title=" ">
<path fill="none" stroke="#9a32cd" stroke-dasharray="5,2" d="M11.14,-167.57C6.44,-148.77 2.96,-120 19,-103 39.37,-81.42 245.59,-77.41 317.46,-76.67"/>
<polygon fill="#9a32cd" stroke="#9a32cd" points="7.82,-168.67 13.92,-177.33 14.55,-166.76 7.82,-168.67"/>
</a>
</g>
<text text-anchor="middle" x="37.5" y="-150" font-family="Helvetica,sans-Serif" font-size="10.00" fill="grey"> Flags</text>
<text text-anchor="middle" x="37.5" y="-139" font-family="Helvetica,sans-Serif" font-size="10.00" fill="grey">State</text>
<text text-anchor="middle" x="37.5" y="-128" font-family="Helvetica,sans-Serif" font-size="10.00" fill="grey">Type</text>
<text text-anchor="middle" x="37.5" y="-117" font-family="Helvetica,sans-Serif" font-size="10.00" fill="grey">Unk_04</text>
<text text-anchor="middle" x="37.5" y="-106" font-family="Helvetica,sans-Serif" font-size="10.00" fill="grey">Unk_16</text>
</g>
<!-- Node4 -->
<g id="Node000004" class="node">
<title>Node4</title>
<g id="a_Node000004"><a xlink:title=" ">
<polygon fill="white" stroke="#666666" points="103,-319 71,-319 71,-300 103,-300 103,-319"/>
<text text-anchor="middle" x="87" y="-307" font-family="Helvetica,sans-Serif" font-size="10.00">f32</text>
</a>
</g>
</g>
<!-- Node4&#45;&gt;Node2 -->
<g id="edge3_Node000002_Node000004" class="edge">
<title>Node4&#45;&gt;Node2</title>
<g id="a_edge3_Node000002_Node000004"><a xlink:title=" ">
<path fill="none" stroke="#9a32cd" stroke-dasharray="5,2" d="M79.88,-290.31C70.56,-263.3 57.75,-211.91 79,-176 128.85,-91.77 261.94,-78.44 317.31,-76.62"/>
<polygon fill="#9a32cd" stroke="#9a32cd" points="76.7,-291.81 83.44,-299.99 83.27,-289.39 76.7,-291.81"/>
</a>
</g>
<text text-anchor="middle" x="123" y="-190" font-family="Helvetica,sans-Serif" font-size="10.00" fill="grey"> BoundingBoxSize</text>
<text text-anchor="middle" x="123" y="-179" font-family="Helvetica,sans-Serif" font-size="10.00" fill="grey">Unk_08</text>
</g>
<!-- Node7 -->
<g id="Node000007" class="node">
<title>Node7</title>
<g id="a_Node000007"><a xlink:href="structCollision.html" target="_top" xlink:title=" ">
<polygon fill="white" stroke="#666666" points="235.5,-196.5 176.5,-196.5 176.5,-177.5 235.5,-177.5 235.5,-196.5"/>
<text text-anchor="middle" x="206" y="-184.5" font-family="Helvetica,sans-Serif" font-size="10.00">Collision</text>
</a>
</g>
</g>
<!-- Node4&#45;&gt;Node7 -->
<g id="edge8_Node000007_Node000004" class="edge">
<title>Node4&#45;&gt;Node7</title>
<g id="a_edge8_Node000007_Node000004"><a xlink:title=" ">
<path fill="none" stroke="#9a32cd" stroke-dasharray="5,2" d="M87.89,-289.64C89.88,-268.86 96.2,-235.76 116,-216 120.43,-211.58 151.71,-202.44 176.17,-195.8"/>
<polygon fill="#9a32cd" stroke="#9a32cd" points="84.39,-289.53 87.17,-299.76 91.37,-290.03 84.39,-289.53"/>
</a>
</g>
<text text-anchor="middle" x="160" y="-268.5" font-family="Helvetica,sans-Serif" font-size="10.00" fill="grey"> orientationVector</text>
<text text-anchor="middle" x="160" y="-257.5" font-family="Helvetica,sans-Serif" font-size="10.00" fill="grey">surfaceDistance</text>
<text text-anchor="middle" x="160" y="-246.5" font-family="Helvetica,sans-Serif" font-size="10.00" fill="grey">unk48</text>
<text text-anchor="middle" x="160" y="-235.5" font-family="Helvetica,sans-Serif" font-size="10.00" fill="grey">unk54</text>
<text text-anchor="middle" x="160" y="-224.5" font-family="Helvetica,sans-Serif" font-size="10.00" fill="grey">unk6C</text>
</g>
<!-- Node5 -->
<g id="Node000005" class="node">
<title>Node5</title>
<g id="a_Node000005"><a xlink:title=" ">
<polygon fill="white" stroke="#666666" points="300.5,-196.5 253.5,-196.5 253.5,-177.5 300.5,-177.5 300.5,-196.5"/>
<text text-anchor="middle" x="277" y="-184.5" font-family="Helvetica,sans-Serif" font-size="10.00">s16[3]</text>
</a>
</g>
</g>
<!-- Node5&#45;&gt;Node2 -->
<g id="edge4_Node000002_Node000005" class="edge">
<title>Node5&#45;&gt;Node2</title>
<g id="a_edge4_Node000002_Node000005"><a xlink:title=" ">
<path fill="none" stroke="#9a32cd" stroke-dasharray="5,2" d="M284.24,-167.84C291.55,-150.47 303.78,-123.91 318,-103 322.33,-96.64 328.1,-90.22 332.89,-85.3"/>
<polygon fill="#9a32cd" stroke="#9a32cd" points="280.9,-166.75 280.35,-177.33 287.38,-169.4 280.9,-166.75"/>
</a>
</g>
<text text-anchor="middle" x="328" y="-128" font-family="Helvetica,sans-Serif" font-size="10.00" fill="grey"> Rot</text>
</g>
<!-- Node6 -->
<g id="Node000006" class="node">
<title>Node6</title>
<g id="a_Node000006"><a xlink:title=" ">
<polygon fill="white" stroke="#666666" points="365,-196.5 319,-196.5 319,-177.5 365,-177.5 365,-196.5"/>
<text text-anchor="middle" x="342" y="-184.5" font-family="Helvetica,sans-Serif" font-size="10.00">f32[3]</text>
</a>
</g>
</g>
<!-- Node6&#45;&gt;Node2 -->
<g id="edge5_Node000002_Node000006" class="edge">
<title>Node6&#45;&gt;Node2</title>
<g id="a_edge5_Node000002_Node000006"><a xlink:title=" ">
<path fill="none" stroke="#9a32cd" stroke-dasharray="5,2" d="M342,-167.11C342,-143.08 342,-102.61 342,-85.05"/>
<polygon fill="#9a32cd" stroke="#9a32cd" points="338.5,-167.41 342,-177.41 345.5,-167.41 338.5,-167.41"/>
</a>
</g>
<text text-anchor="middle" x="362" y="-133.5" font-family="Helvetica,sans-Serif" font-size="10.00" fill="grey"> Pos</text>
<text text-anchor="middle" x="362" y="-122.5" font-family="Helvetica,sans-Serif" font-size="10.00" fill="grey">Velocity</text>
</g>
<!-- Node7&#45;&gt;Node2 -->
<g id="edge6_Node000002_Node000007" class="edge">
<title>Node7&#45;&gt;Node2</title>
<g id="a_edge6_Node000002_Node000007"><a xlink:title=" ">
<path fill="none" stroke="#9a32cd" stroke-dasharray="5,2" d="M211.12,-167.44C217.29,-148.53 229.47,-119.67 250,-103 269.23,-87.39 297.24,-80.97 317.3,-78.34"/>
<polygon fill="#9a32cd" stroke="#9a32cd" points="207.7,-166.68 208.17,-177.26 214.4,-168.69 207.7,-166.68"/>
</a>
</g>
<text text-anchor="middle" x="267.5" y="-128" font-family="Helvetica,sans-Serif" font-size="10.00" fill="grey"> Unk30</text>
</g>
<!-- Node8 -->
<g id="Node000008" class="node">
<title>Node8</title>
<g id="a_Node000008"><a xlink:title=" ">
<polygon fill="white" stroke="#666666" points="231.5,-319 196.5,-319 196.5,-300 231.5,-300 231.5,-319"/>
<text text-anchor="middle" x="214" y="-307" font-family="Helvetica,sans-Serif" font-size="10.00">u16</text>
</a>
</g>
</g>
<!-- Node8&#45;&gt;Node7 -->
<g id="edge7_Node000007_Node000008" class="edge">
<title>Node8&#45;&gt;Node7</title>
<g id="a_edge7_Node000007_Node000008"><a xlink:title=" ">
<path fill="none" stroke="#9a32cd" stroke-dasharray="5,2" d="M212.74,-289.57C210.98,-263.03 207.85,-215.88 206.57,-196.59"/>
<polygon fill="#9a32cd" stroke="#9a32cd" points="209.27,-290.09 213.42,-299.83 216.25,-289.62 209.27,-290.09"/>
</a>
</g>
<text text-anchor="middle" x="248" y="-274" font-family="Helvetica,sans-Serif" font-size="10.00" fill="grey"> meshIndexYX</text>
<text text-anchor="middle" x="248" y="-263" font-family="Helvetica,sans-Serif" font-size="10.00" fill="grey">meshIndexZX</text>
<text text-anchor="middle" x="248" y="-252" font-family="Helvetica,sans-Serif" font-size="10.00" fill="grey">meshIndexZY</text>
<text text-anchor="middle" x="248" y="-241" font-family="Helvetica,sans-Serif" font-size="10.00" fill="grey">unk30</text>
<text text-anchor="middle" x="248" y="-230" font-family="Helvetica,sans-Serif" font-size="10.00" fill="grey">unk32</text>
<text text-anchor="middle" x="248" y="-219" font-family="Helvetica,sans-Serif" font-size="10.00" fill="grey">unk34</text>
</g>
<!-- Node9 -->
<g id="Node000009" class="node">
<title>Node9</title>
<g id="a_Node000009"><a xlink:title=" ">
<polygon fill="white" stroke="#666666" points="433,-196.5 383,-196.5 383,-177.5 433,-177.5 433,-196.5"/>
<text text-anchor="middle" x="408" y="-184.5" font-family="Helvetica,sans-Serif" font-size="10.00">uint8_t</text>
</a>
</g>
</g>
<!-- Node9&#45;&gt;Node2 -->
<g id="edge9_Node000002_Node000009" class="edge">
<title>Node9&#45;&gt;Node2</title>
<g id="a_edge9_Node000002_Node000009"><a xlink:title=" ">
<path fill="none" stroke="#9a32cd" stroke-dasharray="5,2" d="M407.02,-167.19C405.22,-149.12 400.16,-121.87 386,-103 380.22,-95.3 371.48,-89.38 363.32,-85.11"/>
<polygon fill="#9a32cd" stroke="#9a32cd" points="403.54,-167.61 407.78,-177.32 410.52,-167.09 403.54,-167.61"/>
</a>
</g>
<text text-anchor="middle" x="417.5" y="-128" font-family="Helvetica,sans-Serif" font-size="10.00" fill="grey"> uuid</text>
</g>
<!-- Node10 -->
<g id="Node000010" class="node">
<title>Node10</title>
<g id="a_Node000010"><a xlink:title=" ">
<polygon fill="white" stroke="#666666" points="526.5,-196.5 451.5,-196.5 451.5,-177.5 526.5,-177.5 526.5,-196.5"/>
<text text-anchor="middle" x="489" y="-184.5" font-family="Helvetica,sans-Serif" font-size="10.00">const char *</text>
</a>
</g>
</g>
<!-- Node10&#45;&gt;Node2 -->
<g id="edge10_Node000002_Node000010" class="edge">
<title>Node10&#45;&gt;Node2</title>
<g id="a_edge10_Node000002_Node000010"><a xlink:title=" ">
<path fill="none" stroke="#9a32cd" stroke-dasharray="5,2" d="M481.6,-167.94C472.94,-149.01 456.81,-119.74 434,-103 428.47,-98.94 391.85,-89.11 366.51,-82.63"/>
<polygon fill="#9a32cd" stroke="#9a32cd" points="478.45,-169.46 485.64,-177.24 484.87,-166.68 478.45,-169.46"/>
</a>
</g>
<text text-anchor="middle" x="491.5" y="-128" font-family="Helvetica,sans-Serif" font-size="10.00" fill="grey"> Name</text>
</g>
<!-- Node11 -->
<g id="Node000011" class="node">
<title>Node11</title>
<g id="a_Node000011"><a xlink:href="structFVector.html" target="_top" xlink:title=" ">
<polygon fill="white" stroke="#666666" points="597.5,-196.5 544.5,-196.5 544.5,-177.5 597.5,-177.5 597.5,-196.5"/>
<text text-anchor="middle" x="571" y="-184.5" font-family="Helvetica,sans-Serif" font-size="10.00">FVector</text>
</a>
</g>
</g>
<!-- Node11&#45;&gt;Node2 -->
<g id="edge11_Node000002_Node000011" class="edge">
<title>Node11&#45;&gt;Node2</title>
<g id="a_edge11_Node000002_Node000011"><a xlink:title=" ">
<path fill="none" stroke="#9a32cd" stroke-dasharray="5,2" d="M563.59,-168.1C554.51,-148.6 537.16,-118.16 512,-103 459.77,-71.54 435.89,-96.41 376,-85 373.01,-84.43 369.89,-83.76 366.81,-83.05"/>
<polygon fill="#9a32cd" stroke="#9a32cd" points="560.46,-169.66 567.69,-177.41 566.86,-166.84 560.46,-169.66"/>
</a>
</g>
<text text-anchor="middle" x="573" y="-128" font-family="Helvetica,sans-Serif" font-size="10.00" fill="grey"> Scale</text>
</g>
<!-- Node12 -->
<g id="Node000012" class="node">
<title>Node12</title>
<g id="a_Node000012"><a xlink:title=" ">
<polygon fill="white" stroke="#666666" points="590,-319 552,-319 552,-300 590,-300 590,-319"/>
<text text-anchor="middle" x="571" y="-307" font-family="Helvetica,sans-Serif" font-size="10.00">float</text>
</a>
</g>
</g>
<!-- Node12&#45;&gt;Node11 -->
<g id="edge12_Node000011_Node000012" class="edge">
<title>Node12&#45;&gt;Node11</title>
<g id="a_edge12_Node000011_Node000012"><a xlink:title=" ">
<path fill="none" stroke="#9a32cd" stroke-dasharray="5,2" d="M571,-289.57C571,-263.03 571,-215.88 571,-196.59"/>
<polygon fill="#9a32cd" stroke="#9a32cd" points="567.5,-289.83 571,-299.83 574.5,-289.83 567.5,-289.83"/>
</a>
</g>
<text text-anchor="middle" x="576" y="-257.5" font-family="Helvetica,sans-Serif" font-size="10.00" fill="grey"> x</text>
<text text-anchor="middle" x="576" y="-246.5" font-family="Helvetica,sans-Serif" font-size="10.00" fill="grey">y</text>
<text text-anchor="middle" x="576" y="-235.5" font-family="Helvetica,sans-Serif" font-size="10.00" fill="grey">z</text>
</g>
<!-- Node13 -->
<g id="Node000013" class="node">
<title>Node13</title>
<g id="a_Node000013"><a xlink:title=" ">
<polygon fill="white" stroke="#666666" points="658,-196.5 616,-196.5 616,-177.5 658,-177.5 658,-196.5"/>
<text text-anchor="middle" x="637" y="-184.5" font-family="Helvetica,sans-Serif" font-size="10.00">Gfx *</text>
</a>
</g>
</g>
<!-- Node13&#45;&gt;Node2 -->
<g id="edge13_Node000002_Node000013" class="edge">
<title>Node13&#45;&gt;Node2</title>
<g id="a_edge13_Node000002_Node000013"><a xlink:title=" ">
<path fill="none" stroke="#9a32cd" stroke-dasharray="5,2" d="M632.53,-167.46C626.73,-147.85 614.59,-117.75 592,-103 551.67,-76.66 423.52,-92.87 376,-85 373,-84.5 369.87,-83.88 366.79,-83.19"/>
<polygon fill="#9a32cd" stroke="#9a32cd" points="629.21,-168.6 635.18,-177.35 635.97,-166.79 629.21,-168.6"/>
</a>
</g>
<text text-anchor="middle" x="646" y="-128" font-family="Helvetica,sans-Serif" font-size="10.00" fill="grey"> Model</text>
</g>
<!-- Node14 -->
<g id="Node000014" class="node">
<title>Node14</title>
<g id="a_Node000014"><a xlink:title=" ">
<polygon fill="white" stroke="#666666" points="441,-85 385,-85 385,-66 441,-66 441,-85"/>
<text text-anchor="middle" x="413" y="-73" font-family="Helvetica,sans-Serif" font-size="10.00">uint16_t</text>
</a>
</g>
</g>
<!-- Node14&#45;&gt;Node1 -->
<g id="edge14_Node000001_Node000014" class="edge">
<title>Node14&#45;&gt;Node1</title>
<g id="a_edge14_Node000001_Node000014"><a xlink:title=" ">
<path fill="none" stroke="#9a32cd" stroke-dasharray="5,2" d="M403.18,-57.05C396.33,-44.86 387.47,-29.11 382.01,-19.41"/>
<polygon fill="#9a32cd" stroke="#9a32cd" points="400.19,-58.87 408.14,-65.87 406.29,-55.44 400.19,-58.87"/>
</a>
</g>
<text text-anchor="middle" x="418.5" y="-40" font-family="Helvetica,sans-Serif" font-size="10.00" fill="grey"> PlayerId</text>
</g>
</g>
</svg>

<g id="navigator" transform="translate(0 0)" fill="#404254">
  <rect fill="#f2f5e9" fill-opacity="0.5" stroke="#606060" stroke-width=".5" x="0" y="0" width="60" height="60"/>
  <use id="zoomplus" xlink:href="#zoomPlus" x="17" y="9" onmousedown="handleZoom(evt,'in')"/>
  <use id="zoomminus" xlink:href="#zoomMin" x="42" y="9" onmousedown="handleZoom(evt,'out')"/>
  <use id="reset" xlink:href="#resetDef" x="30" y="36" onmousedown="handleReset()"/>
   <use id="arrowup" xlink:href="#arrowUp" x="0" y="0" onmousedown="handlePan(0,-1)"/>
  <use id="arrowright" xlink:href="#arrowRight" x="0" y="0" onmousedown="handlePan(1,0)"/>
  <use id="arrowdown" xlink:href="#arrowDown" x="0" y="0" onmousedown="handlePan(0,1)"/>
  <use id="arrowleft" xlink:href="#arrowLeft" x="0" y="0" onmousedown="handlePan(-1,0)"/>
</g>
<svg viewBox="0 0 15 15" width="100%" height="30px" preserveAspectRatio="xMaxYMin meet">
 <g id="arrow_out" transform="scale(0.3 0.3)">
  <a xlink:href="classABanana__coll__graph_org.svg" target="_base">
   <rect id="button" ry="5" rx="5" y="6" x="6" height="38" width="38"
        fill="#f2f5e9" fill-opacity="0.5" stroke="#606060" stroke-width="1.0"/>
   <path id="arrow"
     d="M 11.500037,31.436501 C 11.940474,20.09759 22.043105,11.32322 32.158766,21.979434 L 37.068811,17.246167 C 37.068811,17.246167 37.088388,32 37.088388,32 L 22.160133,31.978069 C 22.160133,31.978069 26.997745,27.140456 26.997745,27.140456 C 18.528582,18.264221 13.291696,25.230495 11.500037,31.436501 z"
     style="fill:#404040;"/>
  </a>
 </g>
</svg>

<style type='text/css'>
<![CDATA[
[data-mouse-over-selected='false'] { opacity: 0.7; }
[data-mouse-over-selected='true']  { opacity: 1.0; }
]]>
</style>
<script type="application/ecmascript"><![CDATA[
document.addEventListener('DOMContentLoaded', (event) => {
  highlightEdges();
  highlightAdjacentNodes();
});
]]></script>
</svg>
