<?xml version="1.0" encoding="UTF-8" standalone="no"?>
<!DOCTYPE svg PUBLIC "-//W3C//DTD SVG 1.1//EN"
 "http://www.w3.org/Graphics/SVG/1.1/DTD/svg11.dtd">
<!-- Generated by graphviz version 2.43.0 (0)
 -->
<!-- Title: BowsersCastle::BowsersCastle Pages: 1 -->
<svg width="634pt" height="94pt"
 viewBox="0.00 0.00 634.00 93.50" xmlns="http://www.w3.org/2000/svg" xmlns:xlink="http://www.w3.org/1999/xlink">
<g id="graph0" class="graph" transform="scale(1 1) rotate(0) translate(4 89.5)">
<title>BowsersCastle::BowsersCastle</title>
<!-- Node1 -->
<g id="Node000001" class="node">
<title>Node1</title>
<g id="a_Node000001"><a xlink:title=" ">
<polygon fill="#999999" stroke="#666666" points="167,-40 0,-40 0,-21 167,-21 167,-40"/>
<text text-anchor="middle" x="83.5" y="-28" font-family="Helvetica,sans-Serif" font-size="10.00">BowsersCastle::BowsersCastle</text>
</a>
</g>
</g>
<!-- Node2 -->
<g id="Node000002" class="node">
<title>Node2</title>
<g id="a_Node000002"><a xlink:href="memory_8c.html#afcad15cde6603a7c29ee6c9133da317b" target="_top" xlink:title=" ">
<polygon fill="white" stroke="#666666" points="361,-67.5 203,-67.5 203,-37.5 361,-37.5 361,-67.5"/>
<text text-anchor="start" x="211" y="-55.5" font-family="Helvetica,sans-Serif" font-size="10.00">replace_segmented_textures</text>
<text text-anchor="middle" x="282" y="-44.5" font-family="Helvetica,sans-Serif" font-size="10.00">_with_o2r_textures</text>
</a>
</g>
</g>
<!-- Node1&#45;&gt;Node2 -->
<g id="edge1_Node000001_Node000002" class="edge">
<title>Node1&#45;&gt;Node2</title>
<g id="a_edge1_Node000001_Node000002"><a xlink:title=" ">
<path fill="none" stroke="#63b8ff" d="M167.26,-39.77C175.62,-40.7 184.12,-41.65 192.53,-42.59"/>
<polygon fill="#63b8ff" stroke="#63b8ff" points="192.39,-46.1 202.72,-43.74 193.17,-39.14 192.39,-46.1"/>
</a>
</g>
</g>
<!-- Node6 -->
<g id="Node000006" class="node">
<title>Node6</title>
<g id="a_Node000006"><a xlink:href="Course_8cpp.html#ab8fe8a85340279ffa324d3c475c49e29" target="_top" xlink:title=" ">
<polygon fill="white" stroke="#666666" points="328,-19 236,-19 236,0 328,0 328,-19"/>
<text text-anchor="middle" x="282" y="-7" font-family="Helvetica,sans-Serif" font-size="10.00">ResizeMinimap</text>
</a>
</g>
</g>
<!-- Node1&#45;&gt;Node6 -->
<g id="edge6_Node000001_Node000006" class="edge">
<title>Node1&#45;&gt;Node6</title>
<g id="a_edge6_Node000001_Node000006"><a xlink:title=" ">
<path fill="none" stroke="#63b8ff" d="M167.26,-21.65C187,-19.55 207.58,-17.35 225.73,-15.41"/>
<polygon fill="#63b8ff" stroke="#63b8ff" points="226.26,-18.87 235.83,-14.33 225.51,-11.91 226.26,-18.87"/>
</a>
</g>
</g>
<!-- Node2&#45;&gt;Node2 -->
<g id="edge5_Node000002_Node000002" class="edge">
<title>Node2&#45;&gt;Node2</title>
<g id="a_edge5_Node000002_Node000002"><a xlink:title=" ">
<path fill="none" stroke="#63b8ff" d="M248.95,-67.78C241.61,-76.91 252.62,-85.5 282,-85.5 299.44,-85.5 310.41,-82.47 314.91,-78.1"/>
<polygon fill="#63b8ff" stroke="#63b8ff" points="318.41,-77.82 315.05,-67.78 311.41,-77.73 318.41,-77.82"/>
</a>
</g>
</g>
<!-- Node3 -->
<g id="Node000003" class="node">
<title>Node3</title>
<g id="a_Node000003"><a xlink:href="Engine_8cpp.html#a223c8bc63f228dc11177515e38eff2db" target="_top" xlink:title=" ">
<polygon fill="white" stroke="#666666" points="546,-80 397,-80 397,-61 546,-61 546,-80"/>
<text text-anchor="middle" x="471.5" y="-68" font-family="Helvetica,sans-Serif" font-size="10.00">GameEngine_OTRSigCheck</text>
</a>
</g>
</g>
<!-- Node2&#45;&gt;Node3 -->
<g id="edge2_Node000002_Node000003" class="edge">
<title>Node2&#45;&gt;Node3</title>
<g id="a_edge2_Node000002_Node000003"><a xlink:title=" ">
<path fill="none" stroke="#63b8ff" d="M361.16,-60C369.68,-60.82 378.38,-61.66 386.96,-62.48"/>
<polygon fill="#63b8ff" stroke="#63b8ff" points="386.68,-65.97 396.97,-63.44 387.35,-59 386.68,-65.97"/>
</a>
</g>
</g>
<!-- Node5 -->
<g id="Node000005" class="node">
<title>Node5</title>
<g id="a_Node000005"><a xlink:href="memory_8c.html#a4d05c87787ed9f7836213fabd5902ad8" target="_top" xlink:title=" ">
<polygon fill="white" stroke="#666666" points="511,-43 432,-43 432,-24 511,-24 511,-43"/>
<text text-anchor="middle" x="471.5" y="-31" font-family="Helvetica,sans-Serif" font-size="10.00">get_texture2</text>
</a>
</g>
</g>
<!-- Node2&#45;&gt;Node5 -->
<g id="edge4_Node000002_Node000005" class="edge">
<title>Node2&#45;&gt;Node5</title>
<g id="a_edge4_Node000002_Node000005"><a xlink:title=" ">
<path fill="none" stroke="#63b8ff" d="M361.16,-44.58C381.76,-42.49 403.4,-40.3 421.94,-38.42"/>
<polygon fill="#63b8ff" stroke="#63b8ff" points="422.29,-41.9 431.89,-37.41 421.59,-34.94 422.29,-41.9"/>
</a>
</g>
</g>
<!-- Node4 -->
<g id="Node000004" class="node">
<title>Node4</title>
<g id="a_Node000004"><a xlink:href="string_8c.html#a008e171a518fe0e0352f31b245e03875" target="_top" xlink:title=" ">
<polygon fill="white" stroke="#666666" points="626,-80 582,-80 582,-61 626,-61 626,-80"/>
<text text-anchor="middle" x="604" y="-68" font-family="Helvetica,sans-Serif" font-size="10.00">strlen</text>
</a>
</g>
</g>
<!-- Node3&#45;&gt;Node4 -->
<g id="edge3_Node000003_Node000004" class="edge">
<title>Node3&#45;&gt;Node4</title>
<g id="a_edge3_Node000003_Node000004"><a xlink:title=" ">
<path fill="none" stroke="#63b8ff" d="M546.14,-70.5C555.12,-70.5 563.89,-70.5 571.75,-70.5"/>
<polygon fill="#63b8ff" stroke="#63b8ff" points="571.83,-74 581.83,-70.5 571.83,-67 571.83,-74"/>
</a>
</g>
</g>
</g>
</svg>
