<?xml version="1.0" encoding="UTF-8" standalone="no"?>
<!DOCTYPE svg PUBLIC "-//W3C//DTD SVG 1.1//EN"
 "http://www.w3.org/Graphics/SVG/1.1/DTD/svg11.dtd">
<!-- Generated by graphviz version 2.43.0 (0)
 -->
<!-- Title: KoopaTroopaBeach::KoopaTroopaBeach Pages: 1 -->
<svg width="644pt" height="94pt"
 viewBox="0.00 0.00 644.00 93.50" xmlns="http://www.w3.org/2000/svg" xmlns:xlink="http://www.w3.org/1999/xlink">
<g id="graph0" class="graph" transform="scale(1 1) rotate(0) translate(4 89.5)">
<title>KoopaTroopaBeach::KoopaTroopaBeach</title>
<!-- Node1 -->
<g id="Node000001" class="node">
<title>Node1</title>
<g id="a_Node000001"><a xlink:title=" ">
<polygon fill="#999999" stroke="#666666" points="177,-45.5 0,-45.5 0,-15.5 177,-15.5 177,-45.5"/>
<text text-anchor="start" x="8" y="-33.5" font-family="Helvetica,sans-Serif" font-size="10.00">KoopaTroopaBeach::KoopaTroopa</text>
<text text-anchor="middle" x="88.5" y="-22.5" font-family="Helvetica,sans-Serif" font-size="10.00">Beach</text>
</a>
</g>
</g>
<!-- Node2 -->
<g id="Node000002" class="node">
<title>Node2</title>
<g id="a_Node000002"><a xlink:href="memory_8c.html#afcad15cde6603a7c29ee6c9133da317b" target="_top" xlink:title=" ">
<polygon fill="white" stroke="#666666" points="371,-67.5 213,-67.5 213,-37.5 371,-37.5 371,-67.5"/>
<text text-anchor="start" x="221" y="-55.5" font-family="Helvetica,sans-Serif" font-size="10.00">replace_segmented_textures</text>
<text text-anchor="middle" x="292" y="-44.5" font-family="Helvetica,sans-Serif" font-size="10.00">_with_o2r_textures</text>
</a>
</g>
</g>
<!-- Node1&#45;&gt;Node2 -->
<g id="edge1_Node000001_Node000002" class="edge">
<title>Node1&#45;&gt;Node2</title>
<g id="a_edge1_Node000001_Node000002"><a xlink:title=" ">
<path fill="none" stroke="#63b8ff" d="M177,-40.05C185.55,-40.99 194.23,-41.93 202.79,-42.87"/>
<polygon fill="#63b8ff" stroke="#63b8ff" points="202.44,-46.35 212.76,-43.96 203.2,-39.39 202.44,-46.35"/>
</a>
</g>
</g>
<!-- Node6 -->
<g id="Node000006" class="node">
<title>Node6</title>
<g id="a_Node000006"><a xlink:href="Course_8cpp.html#ab8fe8a85340279ffa324d3c475c49e29" target="_top" xlink:title=" ">
<polygon fill="white" stroke="#666666" points="338,-19 246,-19 246,0 338,0 338,-19"/>
<text text-anchor="middle" x="292" y="-7" font-family="Helvetica,sans-Serif" font-size="10.00">ResizeMinimap</text>
</a>
</g>
</g>
<!-- Node1&#45;&gt;Node6 -->
<g id="edge6_Node000001_Node000006" class="edge">
<title>Node1&#45;&gt;Node6</title>
<g id="a_edge6_Node000001_Node000006"><a xlink:title=" ">
<path fill="none" stroke="#63b8ff" d="M177,-21.38C196.98,-19.3 217.67,-17.14 235.85,-15.25"/>
<polygon fill="#63b8ff" stroke="#63b8ff" points="236.37,-18.71 245.95,-14.19 235.64,-11.75 236.37,-18.71"/>
</a>
</g>
</g>
<!-- Node2&#45;&gt;Node2 -->
<g id="edge5_Node000002_Node000002" class="edge">
<title>Node2&#45;&gt;Node2</title>
<g id="a_edge5_Node000002_Node000002"><a xlink:title=" ">
<path fill="none" stroke="#63b8ff" d="M258.95,-67.78C251.61,-76.91 262.62,-85.5 292,-85.5 309.44,-85.5 320.41,-82.47 324.91,-78.1"/>
<polygon fill="#63b8ff" stroke="#63b8ff" points="328.41,-77.82 325.05,-67.78 321.41,-77.73 328.41,-77.82"/>
</a>
</g>
</g>
<!-- Node3 -->
<g id="Node000003" class="node">
<title>Node3</title>
<g id="a_Node000003"><a xlink:href="Engine_8cpp.html#a223c8bc63f228dc11177515e38eff2db" target="_top" xlink:title=" ">
<polygon fill="white" stroke="#666666" points="556,-80 407,-80 407,-61 556,-61 556,-80"/>
<text text-anchor="middle" x="481.5" y="-68" font-family="Helvetica,sans-Serif" font-size="10.00">GameEngine_OTRSigCheck</text>
</a>
</g>
</g>
<!-- Node2&#45;&gt;Node3 -->
<g id="edge2_Node000002_Node000003" class="edge">
<title>Node2&#45;&gt;Node3</title>
<g id="a_edge2_Node000002_Node000003"><a xlink:title=" ">
<path fill="none" stroke="#63b8ff" d="M371.16,-60C379.68,-60.82 388.38,-61.66 396.96,-62.48"/>
<polygon fill="#63b8ff" stroke="#63b8ff" points="396.68,-65.97 406.97,-63.44 397.35,-59 396.68,-65.97"/>
</a>
</g>
</g>
<!-- Node5 -->
<g id="Node000005" class="node">
<title>Node5</title>
<g id="a_Node000005"><a xlink:href="memory_8c.html#a4d05c87787ed9f7836213fabd5902ad8" target="_top" xlink:title=" ">
<polygon fill="white" stroke="#666666" points="521,-43 442,-43 442,-24 521,-24 521,-43"/>
<text text-anchor="middle" x="481.5" y="-31" font-family="Helvetica,sans-Serif" font-size="10.00">get_texture2</text>
</a>
</g>
</g>
<!-- Node2&#45;&gt;Node5 -->
<g id="edge4_Node000002_Node000005" class="edge">
<title>Node2&#45;&gt;Node5</title>
<g id="a_edge4_Node000002_Node000005"><a xlink:title=" ">
<path fill="none" stroke="#63b8ff" d="M371.16,-44.58C391.76,-42.49 413.4,-40.3 431.94,-38.42"/>
<polygon fill="#63b8ff" stroke="#63b8ff" points="432.29,-41.9 441.89,-37.41 431.59,-34.94 432.29,-41.9"/>
</a>
</g>
</g>
<!-- Node4 -->
<g id="Node000004" class="node">
<title>Node4</title>
<g id="a_Node000004"><a xlink:href="string_8c.html#a008e171a518fe0e0352f31b245e03875" target="_top" xlink:title=" ">
<polygon fill="white" stroke="#666666" points="636,-80 592,-80 592,-61 636,-61 636,-80"/>
<text text-anchor="middle" x="614" y="-68" font-family="Helvetica,sans-Serif" font-size="10.00">strlen</text>
</a>
</g>
</g>
<!-- Node3&#45;&gt;Node4 -->
<g id="edge3_Node000003_Node000004" class="edge">
<title>Node3&#45;&gt;Node4</title>
<g id="a_edge3_Node000003_Node000004"><a xlink:title=" ">
<path fill="none" stroke="#63b8ff" d="M556.14,-70.5C565.12,-70.5 573.89,-70.5 581.75,-70.5"/>
<polygon fill="#63b8ff" stroke="#63b8ff" points="581.83,-74 591.83,-70.5 581.83,-67 581.83,-74"/>
</a>
</g>
</g>
</g>
</svg>
