<?xml version="1.0" encoding="UTF-8" standalone="no"?>
<!DOCTYPE svg PUBLIC "-//W3C//DTD SVG 1.1//EN"
 "http://www.w3.org/Graphics/SVG/1.1/DTD/svg11.dtd">
<!-- Generated by graphviz version 2.43.0 (0)
 -->
<!-- Title: Editor::LightObject::Tick Pages: 1 -->
<svg width="361pt" height="64pt"
 viewBox="0.00 0.00 361.00 64.00" xmlns="http://www.w3.org/2000/svg" xmlns:xlink="http://www.w3.org/1999/xlink">
<g id="graph0" class="graph" transform="scale(1 1) rotate(0) translate(4 60)">
<title>Editor::LightObject::Tick</title>
<!-- Node1 -->
<g id="Node000001" class="node">
<title>Node1</title>
<g id="a_Node000001"><a xlink:title=" ">
<polygon fill="#999999" stroke="#666666" points="107,-42.5 0,-42.5 0,-12.5 107,-12.5 107,-42.5"/>
<text text-anchor="start" x="8" y="-30.5" font-family="Helvetica,sans-Serif" font-size="10.00">Editor::LightObject</text>
<text text-anchor="middle" x="53.5" y="-19.5" font-family="Helvetica,sans-Serif" font-size="10.00">::Tick</text>
</a>
</g>
</g>
<!-- Node2 -->
<g id="Node000002" class="node">
<title>Node2</title>
<g id="a_Node000002"><a xlink:href="EditorMath_8cpp.html#aec421cbbf2e9bd9129630e44e420cd3b" target="_top" xlink:title=" ">
<polygon fill="white" stroke="#666666" points="280,-37 143,-37 143,-18 280,-18 280,-37"/>
<text text-anchor="middle" x="211.5" y="-25" font-family="Helvetica,sans-Serif" font-size="10.00">SetDirectionFromRotator</text>
</a>
</g>
</g>
<!-- Node1&#45;&gt;Node2 -->
<g id="edge1_Node000001_Node000002" class="edge">
<title>Node1&#45;&gt;Node2</title>
<g id="a_edge1_Node000001_Node000002"><a xlink:title=" ">
<path fill="none" stroke="#63b8ff" d="M107.31,-27.5C115.51,-27.5 124.12,-27.5 132.73,-27.5"/>
<polygon fill="#63b8ff" stroke="#63b8ff" points="132.81,-31 142.81,-27.5 132.81,-24 132.81,-31"/>
</a>
</g>
</g>
<!-- Node3 -->
<g id="Node000003" class="node">
<title>Node3</title>
<g id="a_Node000003"><a xlink:href="cosf_8c.html#a7b126b2344591e649c21c9ab0b8adb40" target="_top" xlink:title=" ">
<polygon fill="white" stroke="#666666" points="353,-56 316,-56 316,-37 353,-37 353,-56"/>
<text text-anchor="middle" x="334.5" y="-44" font-family="Helvetica,sans-Serif" font-size="10.00">cosf</text>
</a>
</g>
</g>
<!-- Node2&#45;&gt;Node3 -->
<g id="edge2_Node000002_Node000003" class="edge">
<title>Node2&#45;&gt;Node3</title>
<g id="a_edge2_Node000002_Node000003"><a xlink:title=" ">
<path fill="none" stroke="#63b8ff" d="M273.35,-37.06C284.64,-38.83 295.91,-40.6 305.6,-42.12"/>
<polygon fill="#63b8ff" stroke="#63b8ff" points="305.35,-45.62 315.77,-43.72 306.44,-38.71 305.35,-45.62"/>
</a>
</g>
</g>
<!-- Node4 -->
<g id="Node000004" class="node">
<title>Node4</title>
<g id="a_Node000004"><a xlink:href="sinf_8c.html#a8a7dc2a88e109f4e15b661247665709a" target="_top" xlink:title=" ">
<polygon fill="white" stroke="#666666" points="352,-19 317,-19 317,0 352,0 352,-19"/>
<text text-anchor="middle" x="334.5" y="-7" font-family="Helvetica,sans-Serif" font-size="10.00">sinf</text>
</a>
</g>
</g>
<!-- Node2&#45;&gt;Node4 -->
<g id="edge3_Node000002_Node000004" class="edge">
<title>Node2&#45;&gt;Node4</title>
<g id="a_edge3_Node000002_Node000004"><a xlink:title=" ">
<path fill="none" stroke="#63b8ff" d="M276.54,-17.97C287.3,-16.37 297.91,-14.79 307,-13.44"/>
<polygon fill="#63b8ff" stroke="#63b8ff" points="307.51,-16.9 316.89,-11.97 306.48,-9.98 307.51,-16.9"/>
</a>
</g>
</g>
</g>
</svg>
