<?xml version="1.0" encoding="UTF-8" standalone="no"?>
<!DOCTYPE svg PUBLIC "-//W3C//DTD SVG 1.1//EN"
 "http://www.w3.org/Graphics/SVG/1.1/DTD/svg11.dtd">
<!-- Generated by graphviz version 2.43.0 (0)
 -->
<!-- Title: KalimariDesert::KalimariDesert Pages: 1 -->
<svg width="604pt" height="94pt"
 viewBox="0.00 0.00 604.00 93.50" xmlns="http://www.w3.org/2000/svg" xmlns:xlink="http://www.w3.org/1999/xlink">
<g id="graph0" class="graph" transform="scale(1 1) rotate(0) translate(4 89.5)">
<title>KalimariDesert::KalimariDesert</title>
<!-- Node1 -->
<g id="Node000001" class="node">
<title>Node1</title>
<g id="a_Node000001"><a xlink:title=" ">
<polygon fill="#999999" stroke="#666666" points="137,-45.5 0,-45.5 0,-15.5 137,-15.5 137,-45.5"/>
<text text-anchor="start" x="8" y="-33.5" font-family="Helvetica,sans-Serif" font-size="10.00">KalimariDesert::Kalimari</text>
<text text-anchor="middle" x="68.5" y="-22.5" font-family="Helvetica,sans-Serif" font-size="10.00">Desert</text>
</a>
</g>
</g>
<!-- Node2 -->
<g id="Node000002" class="node">
<title>Node2</title>
<g id="a_Node000002"><a xlink:href="memory_8c.html#afcad15cde6603a7c29ee6c9133da317b" target="_top" xlink:title=" ">
<polygon fill="white" stroke="#666666" points="331,-67.5 173,-67.5 173,-37.5 331,-37.5 331,-67.5"/>
<text text-anchor="start" x="181" y="-55.5" font-family="Helvetica,sans-Serif" font-size="10.00">replace_segmented_textures</text>
<text text-anchor="middle" x="252" y="-44.5" font-family="Helvetica,sans-Serif" font-size="10.00">_with_o2r_textures</text>
</a>
</g>
</g>
<!-- Node1&#45;&gt;Node2 -->
<g id="edge1_Node000001_Node000002" class="edge">
<title>Node1&#45;&gt;Node2</title>
<g id="a_edge1_Node000001_Node000002"><a xlink:title=" ">
<path fill="none" stroke="#63b8ff" d="M137.08,-38.69C145.49,-39.71 154.17,-40.76 162.83,-41.81"/>
<polygon fill="#63b8ff" stroke="#63b8ff" points="162.61,-45.31 172.96,-43.04 163.45,-38.36 162.61,-45.31"/>
</a>
</g>
</g>
<!-- Node6 -->
<g id="Node000006" class="node">
<title>Node6</title>
<g id="a_Node000006"><a xlink:href="Course_8cpp.html#ab8fe8a85340279ffa324d3c475c49e29" target="_top" xlink:title=" ">
<polygon fill="white" stroke="#666666" points="298,-19 206,-19 206,0 298,0 298,-19"/>
<text text-anchor="middle" x="252" y="-7" font-family="Helvetica,sans-Serif" font-size="10.00">ResizeMinimap</text>
</a>
</g>
</g>
<!-- Node1&#45;&gt;Node6 -->
<g id="edge6_Node000001_Node000006" class="edge">
<title>Node1&#45;&gt;Node6</title>
<g id="a_edge6_Node000001_Node000006"><a xlink:title=" ">
<path fill="none" stroke="#63b8ff" d="M137.08,-22.68C156.47,-20.44 177.37,-18.02 195.91,-15.87"/>
<polygon fill="#63b8ff" stroke="#63b8ff" points="196.41,-19.34 205.95,-14.71 195.61,-12.39 196.41,-19.34"/>
</a>
</g>
</g>
<!-- Node2&#45;&gt;Node2 -->
<g id="edge5_Node000002_Node000002" class="edge">
<title>Node2&#45;&gt;Node2</title>
<g id="a_edge5_Node000002_Node000002"><a xlink:title=" ">
<path fill="none" stroke="#63b8ff" d="M220.01,-67.78C212.9,-76.91 223.56,-85.5 252,-85.5 268.88,-85.5 279.5,-82.47 283.86,-78.1"/>
<polygon fill="#63b8ff" stroke="#63b8ff" points="287.36,-77.82 283.99,-67.78 280.36,-77.73 287.36,-77.82"/>
</a>
</g>
</g>
<!-- Node3 -->
<g id="Node000003" class="node">
<title>Node3</title>
<g id="a_Node000003"><a xlink:href="Engine_8cpp.html#a223c8bc63f228dc11177515e38eff2db" target="_top" xlink:title=" ">
<polygon fill="white" stroke="#666666" points="516,-80 367,-80 367,-61 516,-61 516,-80"/>
<text text-anchor="middle" x="441.5" y="-68" font-family="Helvetica,sans-Serif" font-size="10.00">GameEngine_OTRSigCheck</text>
</a>
</g>
</g>
<!-- Node2&#45;&gt;Node3 -->
<g id="edge2_Node000002_Node000003" class="edge">
<title>Node2&#45;&gt;Node3</title>
<g id="a_edge2_Node000002_Node000003"><a xlink:title=" ">
<path fill="none" stroke="#63b8ff" d="M331.16,-60C339.68,-60.82 348.38,-61.66 356.96,-62.48"/>
<polygon fill="#63b8ff" stroke="#63b8ff" points="356.68,-65.97 366.97,-63.44 357.35,-59 356.68,-65.97"/>
</a>
</g>
</g>
<!-- Node5 -->
<g id="Node000005" class="node">
<title>Node5</title>
<g id="a_Node000005"><a xlink:href="memory_8c.html#a4d05c87787ed9f7836213fabd5902ad8" target="_top" xlink:title=" ">
<polygon fill="white" stroke="#666666" points="481,-43 402,-43 402,-24 481,-24 481,-43"/>
<text text-anchor="middle" x="441.5" y="-31" font-family="Helvetica,sans-Serif" font-size="10.00">get_texture2</text>
</a>
</g>
</g>
<!-- Node2&#45;&gt;Node5 -->
<g id="edge4_Node000002_Node000005" class="edge">
<title>Node2&#45;&gt;Node5</title>
<g id="a_edge4_Node000002_Node000005"><a xlink:title=" ">
<path fill="none" stroke="#63b8ff" d="M331.16,-44.58C351.76,-42.49 373.4,-40.3 391.94,-38.42"/>
<polygon fill="#63b8ff" stroke="#63b8ff" points="392.29,-41.9 401.89,-37.41 391.59,-34.94 392.29,-41.9"/>
</a>
</g>
</g>
<!-- Node4 -->
<g id="Node000004" class="node">
<title>Node4</title>
<g id="a_Node000004"><a xlink:href="string_8c.html#a008e171a518fe0e0352f31b245e03875" target="_top" xlink:title=" ">
<polygon fill="white" stroke="#666666" points="596,-80 552,-80 552,-61 596,-61 596,-80"/>
<text text-anchor="middle" x="574" y="-68" font-family="Helvetica,sans-Serif" font-size="10.00">strlen</text>
</a>
</g>
</g>
<!-- Node3&#45;&gt;Node4 -->
<g id="edge3_Node000003_Node000004" class="edge">
<title>Node3&#45;&gt;Node4</title>
<g id="a_edge3_Node000003_Node000004"><a xlink:title=" ">
<path fill="none" stroke="#63b8ff" d="M516.14,-70.5C525.12,-70.5 533.89,-70.5 541.75,-70.5"/>
<polygon fill="#63b8ff" stroke="#63b8ff" points="541.83,-74 551.83,-70.5 541.83,-67 541.83,-74"/>
</a>
</g>
</g>
</g>
</svg>
