<?xml version="1.0" encoding="UTF-8" standalone="no"?>
<!DOCTYPE svg PUBLIC "-//W3C//DTD SVG 1.1//EN"
 "http://www.w3.org/Graphics/SVG/1.1/DTD/svg11.dtd">
<!-- Generated by graphviz version 2.43.0 (0)
 -->
<!-- Title: OGrandPrixBalloons Pages: 1 -->
<svg width="1285pt" height="643pt"
 viewBox="0.00 0.00 1284.85 643.00" xmlns="http://www.w3.org/2000/svg" xmlns:xlink="http://www.w3.org/1999/xlink">
<g id="graph0" class="graph" transform="scale(1 1) rotate(0) translate(4 639)">
<title>OGrandPrixBalloons</title>
<!-- Node1 -->
<g id="Node000001" class="node">
<title>Node1</title>
<g id="a_Node000001"><a xlink:title=" ">
<polygon fill="#999999" stroke="#666666" points="1166.35,-19 1052.35,-19 1052.35,0 1166.35,0 1166.35,-19"/>
<text text-anchor="middle" x="1109.35" y="-7" font-family="Helvetica,sans-Serif" font-size="10.00">OGrandPrixBalloons</text>
</a>
</g>
</g>
<!-- Node2 -->
<g id="Node000002" class="node">
<title>Node2</title>
<g id="a_Node000002"><a xlink:href="classOObject.html" target="_top" xlink:title=" ">
<polygon fill="white" stroke="#666666" points="903.35,-118 847.35,-118 847.35,-99 903.35,-99 903.35,-118"/>
<text text-anchor="middle" x="875.35" y="-106" font-family="Helvetica,sans-Serif" font-size="10.00">OObject</text>
</a>
</g>
</g>
<!-- Node2&#45;&gt;Node1 -->
<g id="edge1_Node000001_Node000002" class="edge">
<title>Node2&#45;&gt;Node1</title>
<g id="a_edge1_Node000001_Node000002"><a xlink:title=" ">
<path fill="none" stroke="#63b8ff" d="M901.52,-94.31C931.66,-79.39 982.9,-54.84 1028.35,-37 1045.42,-30.3 1064.96,-23.87 1080.57,-19.02"/>
<polygon fill="#63b8ff" stroke="#63b8ff" points="899.89,-91.21 892.5,-98.8 903.01,-97.48 899.89,-91.21"/>
</a>
</g>
</g>
<!-- Node3 -->
<g id="Node000003" class="node">
<title>Node3</title>
<g id="a_Node000003"><a xlink:title=" ">
<polygon fill="white" stroke="#666666" points="799.35,-206 749.35,-206 749.35,-187 799.35,-187 799.35,-206"/>
<text text-anchor="middle" x="774.35" y="-194" font-family="Helvetica,sans-Serif" font-size="10.00">uint8_t</text>
</a>
</g>
</g>
<!-- Node3&#45;&gt;Node2 -->
<g id="edge2_Node000002_Node000003" class="edge">
<title>Node3&#45;&gt;Node2</title>
<g id="a_edge2_Node000002_Node000003"><a xlink:title=" ">
<path fill="none" stroke="#9a32cd" stroke-dasharray="5,2" d="M776.94,-176.75C779.68,-163.71 785.22,-146.79 796.35,-136 810.05,-122.7 830.63,-116.07 847.34,-112.77"/>
<polygon fill="#9a32cd" stroke="#9a32cd" points="773.43,-176.51 775.19,-186.96 780.33,-177.69 773.43,-176.51"/>
</a>
</g>
<text text-anchor="middle" x="808.85" y="-150" font-family="Helvetica,sans-Serif" font-size="10.00" fill="grey"> uuid</text>
</g>
<!-- Node4 -->
<g id="Node000004" class="node">
<title>Node4</title>
<g id="a_Node000004"><a xlink:href="structObject.html" target="_top" xlink:title=" ">
<polygon fill="white" stroke="#666666" points="480.35,-206 432.35,-206 432.35,-187 480.35,-187 480.35,-206"/>
<text text-anchor="middle" x="456.35" y="-194" font-family="Helvetica,sans-Serif" font-size="10.00">Object</text>
</a>
</g>
</g>
<!-- Node4&#45;&gt;Node2 -->
<g id="edge3_Node000002_Node000004" class="edge">
<title>Node4&#45;&gt;Node2</title>
<g id="a_edge3_Node000002_Node000004"><a xlink:title=" ">
<path fill="none" stroke="#9a32cd" stroke-dasharray="5,2" d="M490.5,-188.49C571.23,-171.92 772.63,-130.58 847.09,-115.3"/>
<polygon fill="#9a32cd" stroke="#9a32cd" points="489.47,-185.13 480.38,-190.57 490.88,-191.99 489.47,-185.13"/>
</a>
</g>
<text text-anchor="middle" x="745.35" y="-150" font-family="Helvetica,sans-Serif" font-size="10.00" fill="grey"> o</text>
</g>
<!-- Node5 -->
<g id="Node000005" class="node">
<title>Node5</title>
<g id="a_Node000005"><a xlink:title=" ">
<polygon fill="white" stroke="#666666" points="526.35,-382 494.35,-382 494.35,-363 526.35,-363 526.35,-382"/>
<text text-anchor="middle" x="510.35" y="-370" font-family="Helvetica,sans-Serif" font-size="10.00">f32</text>
</a>
</g>
</g>
<!-- Node5&#45;&gt;Node4 -->
<g id="edge4_Node000004_Node000005" class="edge">
<title>Node5&#45;&gt;Node4</title>
<g id="a_edge4_Node000004_Node000005"><a xlink:title=" ">
<path fill="none" stroke="#9a32cd" stroke-dasharray="5,2" d="M509.21,-352.66C506.84,-317.99 500.57,-245.68 488.35,-224 484.24,-216.71 477.28,-210.59 470.9,-206.07"/>
<polygon fill="#9a32cd" stroke="#9a32cd" points="505.73,-353.09 509.86,-362.84 512.71,-352.64 505.73,-353.09"/>
</a>
</g>
<text text-anchor="middle" x="543.85" y="-320.5" font-family="Helvetica,sans-Serif" font-size="10.00" fill="grey"> offset</text>
<text text-anchor="middle" x="543.85" y="-309.5" font-family="Helvetica,sans-Serif" font-size="10.00" fill="grey">origin_pos</text>
<text text-anchor="middle" x="543.85" y="-298.5" font-family="Helvetica,sans-Serif" font-size="10.00" fill="grey">pos</text>
<text text-anchor="middle" x="543.85" y="-287.5" font-family="Helvetica,sans-Serif" font-size="10.00" fill="grey">sizeScaling</text>
<text text-anchor="middle" x="543.85" y="-276.5" font-family="Helvetica,sans-Serif" font-size="10.00" fill="grey">surfaceHeight</text>
<text text-anchor="middle" x="543.85" y="-265.5" font-family="Helvetica,sans-Serif" font-size="10.00" fill="grey">unk_01C</text>
<text text-anchor="middle" x="543.85" y="-254.5" font-family="Helvetica,sans-Serif" font-size="10.00" fill="grey">unk_034</text>
<text text-anchor="middle" x="543.85" y="-243.5" font-family="Helvetica,sans-Serif" font-size="10.00" fill="grey">velocity</text>
</g>
<!-- Node6 -->
<g id="Node000006" class="node">
<title>Node6</title>
<g id="a_Node000006"><a xlink:title=" ">
<polygon fill="white" stroke="#666666" points="943.35,-382 909.35,-382 909.35,-363 943.35,-363 943.35,-382"/>
<text text-anchor="middle" x="926.35" y="-370" font-family="Helvetica,sans-Serif" font-size="10.00">s32</text>
</a>
</g>
</g>
<!-- Node6&#45;&gt;Node1 -->
<g id="edge22_Node000001_Node000006" class="edge">
<title>Node6&#45;&gt;Node1</title>
<g id="a_edge22_Node000001_Node000006"><a xlink:title=" ">
<path fill="none" stroke="#9a32cd" stroke-dasharray="5,2" d="M942.46,-355.67C970.19,-327.69 1027.33,-266.69 1062.35,-206 1083.22,-169.82 1085.25,-158.53 1095.35,-118 1104.31,-82.02 1107.77,-37.76 1108.89,-19.27"/>
<polygon fill="#9a32cd" stroke="#9a32cd" points="939.76,-353.42 935.16,-362.96 944.71,-358.37 939.76,-353.42"/>
</a>
</g>
<text text-anchor="middle" x="1103.35" y="-150" font-family="Helvetica,sans-Serif" font-size="10.00" fill="grey"> _idx</text>
</g>
<!-- Node6&#45;&gt;Node2 -->
<g id="edge20_Node000002_Node000006" class="edge">
<title>Node6&#45;&gt;Node2</title>
<g id="a_edge20_Node000002_Node000006"><a xlink:title=" ">
<path fill="none" stroke="#9a32cd" stroke-dasharray="5,2" d="M925.87,-352.7C924.86,-324.48 921.76,-269.61 912.35,-224 903.98,-183.49 886.42,-137.15 878.9,-118.23"/>
<polygon fill="#9a32cd" stroke="#9a32cd" points="922.37,-352.87 926.18,-362.76 929.37,-352.65 922.37,-352.87"/>
</a>
</g>
<text text-anchor="middle" x="941.35" y="-194" font-family="Helvetica,sans-Serif" font-size="10.00" fill="grey"> _objectIndex</text>
</g>
<!-- Node6&#45;&gt;Node4 -->
<g id="edge5_Node000004_Node000006" class="edge">
<title>Node6&#45;&gt;Node4</title>
<g id="a_edge5_Node000004_Node000006"><a xlink:title=" ">
<path fill="none" stroke="#9a32cd" stroke-dasharray="5,2" d="M899.54,-364.01C888.94,-359.89 877.4,-353.78 869.35,-345 830.67,-302.83 871.01,-258.49 825.35,-224 797.89,-203.27 557.94,-198.68 480.4,-197.73"/>
<polygon fill="#9a32cd" stroke="#9a32cd" points="898.67,-367.41 909.26,-367.37 900.96,-360.79 898.67,-367.41"/>
</a>
</g>
<text text-anchor="middle" x="890.85" y="-309.5" font-family="Helvetica,sans-Serif" font-size="10.00" fill="grey"> status</text>
<text text-anchor="middle" x="890.85" y="-298.5" font-family="Helvetica,sans-Serif" font-size="10.00" fill="grey">timer</text>
<text text-anchor="middle" x="890.85" y="-287.5" font-family="Helvetica,sans-Serif" font-size="10.00" fill="grey">unk_048</text>
<text text-anchor="middle" x="890.85" y="-276.5" font-family="Helvetica,sans-Serif" font-size="10.00" fill="grey">unk_04C</text>
<text text-anchor="middle" x="890.85" y="-265.5" font-family="Helvetica,sans-Serif" font-size="10.00" fill="grey">unk_058</text>
<text text-anchor="middle" x="890.85" y="-254.5" font-family="Helvetica,sans-Serif" font-size="10.00" fill="grey">unk_05C</text>
</g>
<!-- Node7 -->
<g id="Node000007" class="node">
<title>Node7</title>
<g id="a_Node000007"><a xlink:title=" ">
<polygon fill="white" stroke="#666666" points="813.35,-382 775.35,-382 775.35,-363 813.35,-363 813.35,-382"/>
<text text-anchor="middle" x="794.35" y="-370" font-family="Helvetica,sans-Serif" font-size="10.00">char</text>
</a>
</g>
</g>
<!-- Node7&#45;&gt;Node2 -->
<g id="edge18_Node000002_Node000007" class="edge">
<title>Node7&#45;&gt;Node2</title>
<g id="a_edge18_Node000002_Node000007"><a xlink:title=" ">
<path fill="none" stroke="#9a32cd" stroke-dasharray="5,2" d="M813.18,-355.85C816.28,-352.54 819.18,-348.87 821.35,-345 822.07,-343.7 863.78,-160.35 873.39,-118.11"/>
<polygon fill="#9a32cd" stroke="#9a32cd" points="810.68,-353.4 805.85,-362.83 815.51,-358.47 810.68,-353.4"/>
</a>
</g>
<text text-anchor="middle" x="874.85" y="-194" font-family="Helvetica,sans-Serif" font-size="10.00" fill="grey"> Name</text>
</g>
<!-- Node7&#45;&gt;Node4 -->
<g id="edge6_Node000004_Node000007" class="edge">
<title>Node7&#45;&gt;Node4</title>
<g id="a_edge6_Node000004_Node000007"><a xlink:title=" ">
<path fill="none" stroke="#9a32cd" stroke-dasharray="5,2" d="M766.54,-357.36C761.87,-353.89 757.52,-349.77 754.35,-345 724.04,-299.42 771.79,-260.89 731.35,-224 713.01,-207.27 544.52,-200.27 480.7,-198.2"/>
<polygon fill="#9a32cd" stroke="#9a32cd" points="764.81,-360.41 775.11,-362.92 768.62,-354.54 764.81,-360.41"/>
</a>
</g>
<text text-anchor="middle" x="787.85" y="-293" font-family="Helvetica,sans-Serif" font-size="10.00" fill="grey"> activeTLUT</text>
<text text-anchor="middle" x="787.85" y="-282" font-family="Helvetica,sans-Serif" font-size="10.00" fill="grey">activeTexture</text>
<text text-anchor="middle" x="787.85" y="-271" font-family="Helvetica,sans-Serif" font-size="10.00" fill="grey">textureList</text>
</g>
<!-- Node8 -->
<g id="Node000008" class="node">
<title>Node8</title>
<g id="a_Node000008"><a xlink:title=" ">
<polygon fill="white" stroke="#666666" points="616.85,-382 587.85,-382 587.85,-363 616.85,-363 616.85,-382"/>
<text text-anchor="middle" x="602.35" y="-370" font-family="Helvetica,sans-Serif" font-size="10.00">u8</text>
</a>
</g>
</g>
<!-- Node8&#45;&gt;Node4 -->
<g id="edge7_Node000004_Node000008" class="edge">
<title>Node8&#45;&gt;Node4</title>
<g id="a_edge7_Node000004_Node000008"><a xlink:title=" ">
<path fill="none" stroke="#9a32cd" stroke-dasharray="5,2" d="M602.11,-352.5C601.28,-316.92 597.47,-242.23 580.35,-224 566.97,-209.76 512.53,-202.53 480.4,-199.43"/>
<polygon fill="#9a32cd" stroke="#9a32cd" points="598.62,-352.99 602.3,-362.92 605.62,-352.86 598.62,-352.99"/>
</a>
</g>
<text text-anchor="middle" x="637.85" y="-337" font-family="Helvetica,sans-Serif" font-size="10.00" fill="grey"> textureHeight</text>
<text text-anchor="middle" x="637.85" y="-326" font-family="Helvetica,sans-Serif" font-size="10.00" fill="grey">textureWidth</text>
<text text-anchor="middle" x="637.85" y="-315" font-family="Helvetica,sans-Serif" font-size="10.00" fill="grey">tlutList</text>
<text text-anchor="middle" x="637.85" y="-304" font-family="Helvetica,sans-Serif" font-size="10.00" fill="grey">unk_0D5</text>
<text text-anchor="middle" x="637.85" y="-293" font-family="Helvetica,sans-Serif" font-size="10.00" fill="grey">unk_0D6</text>
<text text-anchor="middle" x="637.85" y="-282" font-family="Helvetica,sans-Serif" font-size="10.00" fill="grey">unk_0D7</text>
<text text-anchor="middle" x="637.85" y="-271" font-family="Helvetica,sans-Serif" font-size="10.00" fill="grey">unk_0D8</text>
<text text-anchor="middle" x="637.85" y="-260" font-family="Helvetica,sans-Serif" font-size="10.00" fill="grey">unk_0DB</text>
<text text-anchor="middle" x="637.85" y="-249" font-family="Helvetica,sans-Serif" font-size="10.00" fill="grey">unk_0DC</text>
<text text-anchor="middle" x="637.85" y="-238" font-family="Helvetica,sans-Serif" font-size="10.00" fill="grey">unk_0DD</text>
<text text-anchor="middle" x="637.85" y="-227" font-family="Helvetica,sans-Serif" font-size="10.00" fill="grey">...</text>
</g>
<!-- Node9 -->
<g id="Node000009" class="node">
<title>Node9</title>
<g id="a_Node000009"><a xlink:title=" ">
<polygon fill="white" stroke="#666666" points="713.35,-382 679.35,-382 679.35,-363 713.35,-363 713.35,-382"/>
<text text-anchor="middle" x="696.35" y="-370" font-family="Helvetica,sans-Serif" font-size="10.00">Gfx</text>
</a>
</g>
</g>
<!-- Node9&#45;&gt;Node4 -->
<g id="edge8_Node000004_Node000009" class="edge">
<title>Node9&#45;&gt;Node4</title>
<g id="a_edge8_Node000004_Node000009"><a xlink:title=" ">
<path fill="none" stroke="#9a32cd" stroke-dasharray="5,2" d="M696.27,-352.82C695.7,-317.19 692.34,-241.52 674.35,-224 647.3,-197.67 531.68,-196.22 480.68,-196.91"/>
<polygon fill="#9a32cd" stroke="#9a32cd" points="692.77,-352.89 696.37,-362.86 699.77,-352.82 692.77,-352.89"/>
</a>
</g>
<text text-anchor="middle" x="713.35" y="-282" font-family="Helvetica,sans-Serif" font-size="10.00" fill="grey"> model</text>
</g>
<!-- Node10 -->
<g id="Node000010" class="node">
<title>Node10</title>
<g id="a_Node000010"><a xlink:title=" ">
<polygon fill="white" stroke="#666666" points="36.85,-382 3.85,-382 3.85,-363 36.85,-363 36.85,-382"/>
<text text-anchor="middle" x="20.35" y="-370" font-family="Helvetica,sans-Serif" font-size="10.00">Vtx</text>
</a>
</g>
</g>
<!-- Node10&#45;&gt;Node4 -->
<g id="edge9_Node000004_Node000010" class="edge">
<title>Node10&#45;&gt;Node4</title>
<g id="a_edge9_Node000004_Node000010"><a xlink:title=" ">
<path fill="none" stroke="#9a32cd" stroke-dasharray="5,2" d="M13.34,-353.15C2.79,-322.07 -12.62,-259.03 20.35,-224 48.67,-193.9 344.92,-195.85 432.25,-197.09"/>
<polygon fill="#9a32cd" stroke="#9a32cd" points="10.1,-354.49 16.78,-362.72 16.69,-352.12 10.1,-354.49"/>
</a>
</g>
<text text-anchor="middle" x="37.85" y="-282" font-family="Helvetica,sans-Serif" font-size="10.00" fill="grey"> vertex</text>
</g>
<!-- Node11 -->
<g id="Node000011" class="node">
<title>Node11</title>
<g id="a_Node000011"><a xlink:title=" ">
<polygon fill="white" stroke="#666666" points="92.85,-382 63.85,-382 63.85,-363 92.85,-363 92.85,-382"/>
<text text-anchor="middle" x="78.35" y="-370" font-family="Helvetica,sans-Serif" font-size="10.00">s8</text>
</a>
</g>
</g>
<!-- Node11&#45;&gt;Node4 -->
<g id="edge10_Node000004_Node000011" class="edge">
<title>Node11&#45;&gt;Node4</title>
<g id="a_edge10_Node000004_Node000011"><a xlink:title=" ">
<path fill="none" stroke="#9a32cd" stroke-dasharray="5,2" d="M71.52,-353.16C61.28,-322.1 46.43,-259.08 79.35,-224 103.48,-198.28 352.99,-197.07 432.29,-197.34"/>
<polygon fill="#9a32cd" stroke="#9a32cd" points="68.26,-354.44 74.87,-362.72 74.87,-352.13 68.26,-354.44"/>
</a>
</g>
<text text-anchor="middle" x="119.35" y="-337" font-family="Helvetica,sans-Serif" font-size="10.00" fill="grey"> isTimerActive</text>
<text text-anchor="middle" x="119.35" y="-326" font-family="Helvetica,sans-Serif" font-size="10.00" fill="grey">textureListIndex</text>
<text text-anchor="middle" x="119.35" y="-315" font-family="Helvetica,sans-Serif" font-size="10.00" fill="grey">unk_078</text>
<text text-anchor="middle" x="119.35" y="-304" font-family="Helvetica,sans-Serif" font-size="10.00" fill="grey">unk_0CA</text>
<text text-anchor="middle" x="119.35" y="-293" font-family="Helvetica,sans-Serif" font-size="10.00" fill="grey">unk_0CC</text>
<text text-anchor="middle" x="119.35" y="-282" font-family="Helvetica,sans-Serif" font-size="10.00" fill="grey">unk_0CD</text>
<text text-anchor="middle" x="119.35" y="-271" font-family="Helvetica,sans-Serif" font-size="10.00" fill="grey">unk_0CE</text>
<text text-anchor="middle" x="119.35" y="-260" font-family="Helvetica,sans-Serif" font-size="10.00" fill="grey">unk_0CF</text>
<text text-anchor="middle" x="119.35" y="-249" font-family="Helvetica,sans-Serif" font-size="10.00" fill="grey">unk_0D0</text>
<text text-anchor="middle" x="119.35" y="-238" font-family="Helvetica,sans-Serif" font-size="10.00" fill="grey">unk_0D1</text>
<text text-anchor="middle" x="119.35" y="-227" font-family="Helvetica,sans-Serif" font-size="10.00" fill="grey">...</text>
</g>
<!-- Node12 -->
<g id="Node000012" class="node">
<title>Node12</title>
<g id="a_Node000012"><a xlink:href="structSplineControlPoint.html" target="_top" xlink:title=" ">
<polygon fill="white" stroke="#666666" points="238.85,-558 131.85,-558 131.85,-539 238.85,-539 238.85,-558"/>
<text text-anchor="middle" x="185.35" y="-546" font-family="Helvetica,sans-Serif" font-size="10.00">SplineControlPoint</text>
</a>
</g>
</g>
<!-- Node12&#45;&gt;Node4 -->
<g id="edge11_Node000004_Node000012" class="edge">
<title>Node12&#45;&gt;Node4</title>
<g id="a_edge11_Node000004_Node000012"><a xlink:title=" ">
<path fill="none" stroke="#9a32cd" stroke-dasharray="5,2" d="M181.07,-528.8C174.15,-494.77 163.08,-420.9 182.35,-363 206.7,-289.79 220.23,-263.77 286.35,-224 310.47,-209.49 391.24,-201.98 432.15,-199.03"/>
<polygon fill="#9a32cd" stroke="#9a32cd" points="177.68,-529.7 183.21,-538.73 184.53,-528.22 177.68,-529.7"/>
</a>
</g>
<text text-anchor="middle" x="215.85" y="-370" font-family="Helvetica,sans-Serif" font-size="10.00" fill="grey"> controlPoints</text>
</g>
<!-- Node14 -->
<g id="Node000014" class="node">
<title>Node14</title>
<g id="a_Node000014"><a xlink:href="structSplineData.html" target="_top" xlink:title=" ">
<polygon fill="white" stroke="#666666" points="328.35,-382 258.35,-382 258.35,-363 328.35,-363 328.35,-382"/>
<text text-anchor="middle" x="293.35" y="-370" font-family="Helvetica,sans-Serif" font-size="10.00">SplineData</text>
</a>
</g>
</g>
<!-- Node12&#45;&gt;Node14 -->
<g id="edge15_Node000014_Node000012" class="edge">
<title>Node12&#45;&gt;Node14</title>
<g id="a_edge15_Node000014_Node000012"><a xlink:title=" ">
<path fill="none" stroke="#9a32cd" stroke-dasharray="5,2" d="M185.73,-528.63C186.82,-493.29 191.05,-418.96 207.35,-400 214.17,-392.06 237.41,-385.17 258.02,-380.41"/>
<polygon fill="#9a32cd" stroke="#9a32cd" points="182.22,-528.9 185.46,-538.99 189.22,-529.08 182.22,-528.9"/>
</a>
</g>
<text text-anchor="middle" x="240.85" y="-458" font-family="Helvetica,sans-Serif" font-size="10.00" fill="grey"> controlPoints</text>
</g>
<!-- Node13 -->
<g id="Node000013" class="node">
<title>Node13</title>
<g id="a_Node000013"><a xlink:title=" ">
<polygon fill="white" stroke="#666666" points="292.35,-635 258.35,-635 258.35,-616 292.35,-616 292.35,-635"/>
<text text-anchor="middle" x="275.35" y="-623" font-family="Helvetica,sans-Serif" font-size="10.00">s16</text>
</a>
</g>
</g>
<!-- Node13&#45;&gt;Node4 -->
<g id="edge16_Node000004_Node000013" class="edge">
<title>Node13&#45;&gt;Node4</title>
<g id="a_edge16_Node000004_Node000013"><a xlink:title=" ">
<path fill="none" stroke="#9a32cd" stroke-dasharray="5,2" d="M301.93,-615.44C326.37,-605.53 361.2,-587.07 377.35,-558 449.44,-428.2 298.13,-344.88 384.35,-224 395.17,-208.82 415.69,-202.32 432.06,-199.54"/>
<polygon fill="#9a32cd" stroke="#9a32cd" points="300.58,-612.2 292.49,-619.05 303.08,-618.74 300.58,-612.2"/>
</a>
</g>
<text text-anchor="middle" x="425.35" y="-513" font-family="Helvetica,sans-Serif" font-size="10.00" fill="grey"> primAlpha</text>
<text text-anchor="middle" x="425.35" y="-502" font-family="Helvetica,sans-Serif" font-size="10.00" fill="grey">state</text>
<text text-anchor="middle" x="425.35" y="-491" font-family="Helvetica,sans-Serif" font-size="10.00" fill="grey">type</text>
<text text-anchor="middle" x="425.35" y="-480" font-family="Helvetica,sans-Serif" font-size="10.00" fill="grey">unk_084</text>
<text text-anchor="middle" x="425.35" y="-469" font-family="Helvetica,sans-Serif" font-size="10.00" fill="grey">unk_09C</text>
<text text-anchor="middle" x="425.35" y="-458" font-family="Helvetica,sans-Serif" font-size="10.00" fill="grey">unk_09E</text>
<text text-anchor="middle" x="425.35" y="-447" font-family="Helvetica,sans-Serif" font-size="10.00" fill="grey">unk_0A2</text>
<text text-anchor="middle" x="425.35" y="-436" font-family="Helvetica,sans-Serif" font-size="10.00" fill="grey">unk_0A8</text>
<text text-anchor="middle" x="425.35" y="-425" font-family="Helvetica,sans-Serif" font-size="10.00" fill="grey">unk_0AA</text>
<text text-anchor="middle" x="425.35" y="-414" font-family="Helvetica,sans-Serif" font-size="10.00" fill="grey">unk_0AC</text>
<text text-anchor="middle" x="425.35" y="-403" font-family="Helvetica,sans-Serif" font-size="10.00" fill="grey">...</text>
</g>
<!-- Node13&#45;&gt;Node12 -->
<g id="edge12_Node000012_Node000013" class="edge">
<title>Node13&#45;&gt;Node12</title>
<g id="a_edge12_Node000012_Node000013"><a xlink:title=" ">
<path fill="none" stroke="#9a32cd" stroke-dasharray="5,2" d="M248.83,-614.53C239.55,-610.29 229.45,-604.74 221.35,-598 207.48,-586.46 196,-568.53 189.95,-558.01"/>
<polygon fill="#9a32cd" stroke="#9a32cd" points="247.5,-617.77 258.07,-618.48 250.25,-611.33 247.5,-617.77"/>
</a>
</g>
<text text-anchor="middle" x="241.35" y="-590" font-family="Helvetica,sans-Serif" font-size="10.00" fill="grey"> pos</text>
<text text-anchor="middle" x="241.35" y="-579" font-family="Helvetica,sans-Serif" font-size="10.00" fill="grey">velocity</text>
</g>
<!-- Node13&#45;&gt;Node14 -->
<g id="edge14_Node000014_Node000013" class="edge">
<title>Node13&#45;&gt;Node14</title>
<g id="a_edge14_Node000014_Node000013"><a xlink:title=" ">
<path fill="none" stroke="#9a32cd" stroke-dasharray="5,2" d="M276.69,-605.73C280.31,-555.23 290.16,-417.86 292.73,-382.1"/>
<polygon fill="#9a32cd" stroke="#9a32cd" points="273.19,-605.64 275.97,-615.86 280.17,-606.14 273.19,-605.64"/>
</a>
</g>
<text text-anchor="middle" x="327.85" y="-546" font-family="Helvetica,sans-Serif" font-size="10.00" fill="grey"> numControlPoints</text>
</g>
<!-- Node14&#45;&gt;Node4 -->
<g id="edge13_Node000004_Node000014" class="edge">
<title>Node14&#45;&gt;Node4</title>
<g id="a_edge13_Node000004_Node000014"><a xlink:title=" ">
<path fill="none" stroke="#9a32cd" stroke-dasharray="5,2" d="M291.02,-352.67C288.28,-321.34 287.85,-258.53 322.35,-224 337.47,-208.86 397.88,-201.89 432.2,-199.1"/>
<polygon fill="#9a32cd" stroke="#9a32cd" points="287.54,-353.1 292.07,-362.68 294.5,-352.37 287.54,-353.1"/>
</a>
</g>
<text text-anchor="middle" x="338.85" y="-282" font-family="Helvetica,sans-Serif" font-size="10.00" fill="grey"> spline</text>
</g>
<!-- Node15 -->
<g id="Node000015" class="node">
<title>Node15</title>
<g id="a_Node000015"><a xlink:title=" ">
<polygon fill="white" stroke="#666666" points="432.85,-382 397.85,-382 397.85,-363 432.85,-363 432.85,-382"/>
<text text-anchor="middle" x="415.35" y="-370" font-family="Helvetica,sans-Serif" font-size="10.00">u16</text>
</a>
</g>
</g>
<!-- Node15&#45;&gt;Node4 -->
<g id="edge17_Node000004_Node000015" class="edge">
<title>Node15&#45;&gt;Node4</title>
<g id="a_edge17_Node000004_Node000015"><a xlink:title=" ">
<path fill="none" stroke="#9a32cd" stroke-dasharray="5,2" d="M406.14,-353.89C404.98,-350.99 403.99,-347.96 403.35,-345 392,-292.43 375.07,-269.75 403.35,-224 409.73,-213.67 421.49,-207.24 432.31,-203.3"/>
<polygon fill="#9a32cd" stroke="#9a32cd" points="402.98,-355.4 410.37,-362.99 409.33,-352.45 402.98,-355.4"/>
</a>
</g>
<text text-anchor="middle" x="445.85" y="-320.5" font-family="Helvetica,sans-Serif" font-size="10.00" fill="grey"> animationTimer</text>
<text text-anchor="middle" x="445.85" y="-309.5" font-family="Helvetica,sans-Serif" font-size="10.00" fill="grey">boundingBoxSize</text>
<text text-anchor="middle" x="445.85" y="-298.5" font-family="Helvetica,sans-Serif" font-size="10.00" fill="grey">direction_angle</text>
<text text-anchor="middle" x="445.85" y="-287.5" font-family="Helvetica,sans-Serif" font-size="10.00" fill="grey">orientation</text>
<text text-anchor="middle" x="445.85" y="-276.5" font-family="Helvetica,sans-Serif" font-size="10.00" fill="grey">unk_09A</text>
<text text-anchor="middle" x="445.85" y="-265.5" font-family="Helvetica,sans-Serif" font-size="10.00" fill="grey">unk_0B8</text>
<text text-anchor="middle" x="445.85" y="-254.5" font-family="Helvetica,sans-Serif" font-size="10.00" fill="grey">unk_0C4</text>
<text text-anchor="middle" x="445.85" y="-243.5" font-family="Helvetica,sans-Serif" font-size="10.00" fill="grey">unk_0C6</text>
</g>
<!-- Node16 -->
<g id="Node000016" class="node">
<title>Node16</title>
<g id="a_Node000016"><a xlink:title=" ">
<polygon fill="white" stroke="#666666" points="1053.35,-206 1015.35,-206 1015.35,-187 1053.35,-187 1053.35,-206"/>
<text text-anchor="middle" x="1034.35" y="-194" font-family="Helvetica,sans-Serif" font-size="10.00">bool</text>
</a>
</g>
</g>
<!-- Node16&#45;&gt;Node1 -->
<g id="edge25_Node000001_Node000016" class="edge">
<title>Node16&#45;&gt;Node1</title>
<g id="a_edge25_Node000001_Node000016"><a xlink:title=" ">
<path fill="none" stroke="#9a32cd" stroke-dasharray="5,2" d="M1036.81,-176.84C1039.84,-157.01 1045.91,-124.99 1056.35,-99 1068.89,-67.76 1091.59,-34.67 1102.77,-19.3"/>
<polygon fill="#9a32cd" stroke="#9a32cd" points="1033.32,-176.58 1035.37,-186.97 1040.25,-177.56 1033.32,-176.58"/>
</a>
</g>
<text text-anchor="middle" x="1075.85" y="-106" font-family="Helvetica,sans-Serif" font-size="10.00" fill="grey"> _active</text>
</g>
<!-- Node16&#45;&gt;Node2 -->
<g id="edge19_Node000002_Node000016" class="edge">
<title>Node16&#45;&gt;Node2</title>
<g id="a_edge19_Node000002_Node000016"><a xlink:title=" ">
<path fill="none" stroke="#9a32cd" stroke-dasharray="5,2" d="M1005.31,-189.47C982.04,-184.23 951.64,-176.35 941.35,-169 926.79,-158.61 931.34,-148.28 918.35,-136 910.83,-128.89 901.1,-122.71 892.8,-118.1"/>
<polygon fill="#9a32cd" stroke="#9a32cd" points="1004.57,-192.89 1015.08,-191.61 1006.07,-186.05 1004.57,-192.89"/>
</a>
</g>
<text text-anchor="middle" x="984.85" y="-150" font-family="Helvetica,sans-Serif" font-size="10.00" fill="grey"> bPendingDestroy</text>
</g>
<!-- Node17 -->
<g id="Node000017" class="node">
<title>Node17</title>
<g id="a_Node000017"><a xlink:title=" ">
<polygon fill="white" stroke="#666666" points="1182.85,-118 1137.85,-118 1137.85,-99 1182.85,-99 1182.85,-118"/>
<text text-anchor="middle" x="1160.35" y="-106" font-family="Helvetica,sans-Serif" font-size="10.00">size_t</text>
</a>
</g>
</g>
<!-- Node17&#45;&gt;Node1 -->
<g id="edge21_Node000001_Node000017" class="edge">
<title>Node17&#45;&gt;Node1</title>
<g id="a_edge21_Node000001_Node000017"><a xlink:title=" ">
<path fill="none" stroke="#9a32cd" stroke-dasharray="5,2" d="M1151,-89.66C1143.53,-75.4 1132.78,-54.91 1123.35,-37 1120.24,-31.11 1116.74,-24.48 1114.02,-19.33"/>
<polygon fill="#9a32cd" stroke="#9a32cd" points="1148.06,-91.58 1155.8,-98.81 1154.26,-88.33 1148.06,-91.58"/>
</a>
</g>
<text text-anchor="middle" x="1184.35" y="-73" font-family="Helvetica,sans-Serif" font-size="10.00" fill="grey"> _count</text>
<text text-anchor="middle" x="1184.35" y="-62" font-family="Helvetica,sans-Serif" font-size="10.00" fill="grey">_numBalloons</text>
<text text-anchor="middle" x="1184.35" y="-51" font-family="Helvetica,sans-Serif" font-size="10.00" fill="grey">_numBalloons2</text>
<text text-anchor="middle" x="1184.35" y="-40" font-family="Helvetica,sans-Serif" font-size="10.00" fill="grey">_numBalloons3</text>
</g>
<!-- Node18 -->
<g id="Node000018" class="node">
<title>Node18</title>
<g id="a_Node000018"><a xlink:href="structFVector.html" target="_top" xlink:title=" ">
<polygon fill="white" stroke="#666666" points="1276.85,-118 1223.85,-118 1223.85,-99 1276.85,-99 1276.85,-118"/>
<text text-anchor="middle" x="1250.35" y="-106" font-family="Helvetica,sans-Serif" font-size="10.00">FVector</text>
</a>
</g>
</g>
<!-- Node18&#45;&gt;Node1 -->
<g id="edge23_Node000001_Node000018" class="edge">
<title>Node18&#45;&gt;Node1</title>
<g id="a_edge23_Node000001_Node000018"><a xlink:title=" ">
<path fill="none" stroke="#9a32cd" stroke-dasharray="5,2" d="M1248.88,-88.33C1246.62,-72.32 1240.89,-50.08 1226.35,-37 1217.17,-28.75 1191.42,-22.46 1166.41,-18.08"/>
<polygon fill="#9a32cd" stroke="#9a32cd" points="1245.44,-89.09 1249.99,-98.66 1252.4,-88.35 1245.44,-89.09"/>
</a>
</g>
<text text-anchor="middle" x="1257.85" y="-56.5" font-family="Helvetica,sans-Serif" font-size="10.00" fill="grey"> Pos</text>
</g>
<!-- Node19 -->
<g id="Node000019" class="node">
<title>Node19</title>
<g id="a_Node000019"><a xlink:title=" ">
<polygon fill="white" stroke="#666666" points="1269.35,-206 1231.35,-206 1231.35,-187 1269.35,-187 1269.35,-206"/>
<text text-anchor="middle" x="1250.35" y="-194" font-family="Helvetica,sans-Serif" font-size="10.00">float</text>
</a>
</g>
</g>
<!-- Node19&#45;&gt;Node18 -->
<g id="edge24_Node000018_Node000019" class="edge">
<title>Node19&#45;&gt;Node18</title>
<g id="a_edge24_Node000018_Node000019"><a xlink:title=" ">
<path fill="none" stroke="#9a32cd" stroke-dasharray="5,2" d="M1250.35,-176.91C1250.35,-158.67 1250.35,-131.65 1250.35,-118.03"/>
<polygon fill="#9a32cd" stroke="#9a32cd" points="1246.85,-176.94 1250.35,-186.94 1253.85,-176.94 1246.85,-176.94"/>
</a>
</g>
<text text-anchor="middle" x="1255.35" y="-161" font-family="Helvetica,sans-Serif" font-size="10.00" fill="grey"> x</text>
<text text-anchor="middle" x="1255.35" y="-150" font-family="Helvetica,sans-Serif" font-size="10.00" fill="grey">y</text>
<text text-anchor="middle" x="1255.35" y="-139" font-family="Helvetica,sans-Serif" font-size="10.00" fill="grey">z</text>
</g>
</g>
</svg>
