<?xml version="1.0" encoding="UTF-8" standalone="no"?>
<!DOCTYPE svg PUBLIC "-//W3C//DTD SVG 1.1//EN"
 "http://www.w3.org/Graphics/SVG/1.1/DTD/svg11.dtd">
<!-- Generated by graphviz version 2.43.0 (0)
 -->
<!-- Title: Editor::ContentBrowserWindow::FindTracks Pages: 1 -->
<svg width="517pt" height="70pt"
 viewBox="0.00 0.00 517.00 69.50" xmlns="http://www.w3.org/2000/svg" xmlns:xlink="http://www.w3.org/1999/xlink">
<g id="graph0" class="graph" transform="scale(1 1) rotate(0) translate(4 65.5)">
<title>Editor::ContentBrowserWindow::FindTracks</title>
<!-- Node1 -->
<g id="Node000001" class="node">
<title>Node1</title>
<g id="a_Node000001"><a xlink:title=" ">
<polygon fill="#999999" stroke="#666666" points="168,-42.5 0,-42.5 0,-12.5 168,-12.5 168,-42.5"/>
<text text-anchor="start" x="8" y="-30.5" font-family="Helvetica,sans-Serif" font-size="10.00">Editor::ContentBrowserWindow</text>
<text text-anchor="middle" x="84" y="-19.5" font-family="Helvetica,sans-Serif" font-size="10.00">::FindTracks</text>
</a>
</g>
</g>
<!-- Node2 -->
<g id="Node000002" class="node">
<title>Node2</title>
<g id="a_Node000002"><a xlink:href="namespaceEditor.html#a916fdd9cf148244bc96185b3bebcd5d1" target="_top" xlink:title=" ">
<polygon fill="white" stroke="#666666" points="313,-56 212,-56 212,-37 313,-37 313,-56"/>
<text text-anchor="middle" x="262.5" y="-44" font-family="Helvetica,sans-Serif" font-size="10.00">Editor::LoadLevel</text>
</a>
</g>
</g>
<!-- Node1&#45;&gt;Node2 -->
<g id="edge1_Node000001_Node000002" class="edge">
<title>Node1&#45;&gt;Node2</title>
<g id="a_edge1_Node000001_Node000002"><a xlink:title=" ">
<path fill="none" stroke="#63b8ff" d="M168.08,-36.44C179.46,-37.67 190.96,-38.91 201.82,-40.08"/>
<polygon fill="#63b8ff" stroke="#63b8ff" points="201.68,-43.58 212,-41.17 202.43,-36.62 201.68,-43.58"/>
</a>
</g>
</g>
<!-- Node4 -->
<g id="Node000004" class="node">
<title>Node4</title>
<g id="a_Node000004"><a xlink:href="namespaceEditor.html#a6dbe8877c6ca208acd93d3a6840ccf2a" target="_top" xlink:title=" ">
<polygon fill="white" stroke="#666666" points="321,-19 204,-19 204,0 321,0 321,-19"/>
<text text-anchor="middle" x="262.5" y="-7" font-family="Helvetica,sans-Serif" font-size="10.00">Editor::LoadMinimap</text>
</a>
</g>
</g>
<!-- Node1&#45;&gt;Node4 -->
<g id="edge3_Node000001_Node000004" class="edge">
<title>Node1&#45;&gt;Node4</title>
<g id="a_edge3_Node000001_Node000004"><a xlink:title=" ">
<path fill="none" stroke="#63b8ff" d="M168.08,-19.03C176.66,-18.15 185.31,-17.27 193.7,-16.41"/>
<polygon fill="#63b8ff" stroke="#63b8ff" points="194.18,-19.88 203.77,-15.39 193.47,-12.92 194.18,-19.88"/>
</a>
</g>
</g>
<!-- Node3 -->
<g id="Node000003" class="node">
<title>Node3</title>
<g id="a_Node000003"><a xlink:href="namespaceEditor.html#a5682c68f8c058161eac4f98905aa0c86" target="_top" xlink:title=" ">
<polygon fill="white" stroke="#666666" points="509,-61.5 357,-61.5 357,-31.5 509,-31.5 509,-61.5"/>
<text text-anchor="start" x="365" y="-49.5" font-family="Helvetica,sans-Serif" font-size="10.00">Editor::Load_AddStaticMesh</text>
<text text-anchor="middle" x="433" y="-38.5" font-family="Helvetica,sans-Serif" font-size="10.00">Actor</text>
</a>
</g>
</g>
<!-- Node2&#45;&gt;Node3 -->
<g id="edge2_Node000002_Node000003" class="edge">
<title>Node2&#45;&gt;Node3</title>
<g id="a_edge2_Node000002_Node000003"><a xlink:title=" ">
<path fill="none" stroke="#63b8ff" d="M313.14,-46.5C323.73,-46.5 335.2,-46.5 346.7,-46.5"/>
<polygon fill="#63b8ff" stroke="#63b8ff" points="346.78,-50 356.78,-46.5 346.78,-43 346.78,-50"/>
</a>
</g>
</g>
</g>
</svg>
