<?xml version="1.0" encoding="UTF-8" standalone="no"?>
<!DOCTYPE svg PUBLIC "-//W3C//DTD SVG 1.1//EN"
 "http://www.w3.org/Graphics/SVG/1.1/DTD/svg11.dtd">
<!-- Generated by graphviz version 2.43.0 (0)
 -->
<!-- Title: KoopaTroopaBeach::SomeCollisionThing Pages: 1 -->
<!--zoomable 572 -->

<svg id="main" version="1.1" xmlns="http://www.w3.org/2000/svg" xmlns:xlink="http://www.w3.org/1999/xlink" xml:space="preserve" onload="init(evt)">

<style type="text/css"><![CDATA[
.node, .edge {opacity: 0.7;}
.node.selected, .edge.selected {opacity: 1;}
.edge:hover path { stroke: red; }
.edge:hover polygon { stroke: red; fill: red; }
]]></style>

<defs>
  <circle id="rim" cx="0" cy="0" r="7"/>
  <circle id="rim2" cx="0" cy="0" r="3.5"/>
  <g id="zoomPlus">
    <use xlink:href="#rim" fill="#404040"><set attributeName="fill" to="#808080" begin="zoomplus.mouseover" end="zoomplus.mouseout"/></use>
    <path d="M-4,0h8M0,-4v8" fill="none" stroke="white" stroke-width="1.5" pointer-events="none"/>
  </g>
  <g id="zoomMin">
    <use xlink:href="#rim" fill="#404040"><set attributeName="fill" to="#808080" begin="zoomminus.mouseover" end="zoomminus.mouseout"/></use>
    <path d="M-4,0h8" fill="none" stroke="white" stroke-width="1.5" pointer-events="none"/>
  </g>
  <g id="arrowUp" transform="translate(30 24)">
    <use xlink:href="#rim"/>
    <path pointer-events="none" fill="none" stroke="white" stroke-width="1.5" d="M0,-3.0v7 M-2.5,-0.5L0,-3.0L2.5,-0.5"/>
  </g>
  <g id="arrowRight" transform="rotate(90) translate(36 -43)">
    <use xlink:href="#rim"/>
    <path pointer-events="none" fill="none" stroke="white" stroke-width="1.5" d="M0,-3.0v7 M-2.5,-0.5L0,-3.0L2.5,-0.5"/>
  </g>
  <g id="arrowDown" transform="rotate(180) translate(-30 -48)">
    <use xlink:href="#rim"/>
    <path pointer-events="none" fill="none" stroke="white" stroke-width="1.5" d="M0,-3.0v7 M-2.5,-0.5L0,-3.0L2.5,-0.5"/>
  </g>
  <g id="arrowLeft" transform="rotate(270) translate(-36 17)">
    <use xlink:href="#rim"/>
    <path pointer-events="none" fill="none" stroke="white" stroke-width="1.5" d="M0,-3.0v7 M-2.5,-0.5L0,-3.0L2.5,-0.5"/>
  </g>
  <g id="resetDef">
    <use xlink:href="#rim2" fill="#404040"><set attributeName="fill" to="#808080" begin="reset.mouseover" end="reset.mouseout"/></use>
  </g>
</defs>
<script type="application/ecmascript">
var viewWidth = 1355;
var viewHeight = 572;
var sectionId = 'dynsection-9';
</script>
<script type="application/ecmascript" xlink:href="svg.min.js"/>
<svg id="graph" class="graph">
<g id="viewport">
<title>KoopaTroopaBeach::SomeCollisionThing</title>
<!-- Node1 -->
<g id="Node000001" class="node">
<title>Node1</title>
<g id="a_Node000001"><a xlink:title=" ">
<polygon fill="#999999" stroke="#666666" points="185,-305.5 0,-305.5 0,-275.5 185,-275.5 185,-305.5"/>
<text text-anchor="start" x="8" y="-293.5" font-family="Helvetica,sans-Serif" font-size="10.00">KoopaTroopaBeach::SomeCollision</text>
<text text-anchor="middle" x="92.5" y="-282.5" font-family="Helvetica,sans-Serif" font-size="10.00">Thing</text>
</a>
</g>
</g>
<!-- Node2 -->
<g id="Node000002" class="node">
<title>Node2</title>
<g id="a_Node000002"><a xlink:href="code__8003DC40_8c.html#a8b75605ee8cee0dd3be6138ab62e7122" target="_top" xlink:title=" ">
<polygon fill="white" stroke="#666666" points="313,-300 221,-300 221,-281 313,-281 313,-300"/>
<text text-anchor="middle" x="267" y="-288" font-family="Helvetica,sans-Serif" font-size="10.00">func_8003E37C</text>
</a>
</g>
</g>
<!-- Node1&#45;&gt;Node2 -->
<g id="edge1_Node000001_Node000002" class="edge">
<title>Node1&#45;&gt;Node2</title>
<g id="a_edge1_Node000001_Node000002"><a xlink:title=" ">
<path fill="none" stroke="#63b8ff" d="M185.05,-290.5C193.78,-290.5 202.44,-290.5 210.67,-290.5"/>
<polygon fill="#63b8ff" stroke="#63b8ff" points="210.83,-294 220.83,-290.5 210.83,-287 210.83,-294"/>
</a>
</g>
</g>
<!-- Node3 -->
<g id="Node000003" class="node">
<title>Node3</title>
<g id="a_Node000003"><a xlink:href="player__controller_8c.html#aaba04d0928ff8eaf7ef6c6cea1b93d7d" target="_top" xlink:title=" ">
<polygon fill="white" stroke="#666666" points="471,-356 379,-356 379,-337 471,-337 471,-356"/>
<text text-anchor="middle" x="425" y="-344" font-family="Helvetica,sans-Serif" font-size="10.00">func_8002A5F4</text>
</a>
</g>
</g>
<!-- Node2&#45;&gt;Node3 -->
<g id="edge2_Node000002_Node000003" class="edge">
<title>Node2&#45;&gt;Node3</title>
<g id="a_edge2_Node000002_Node000003"><a xlink:title=" ">
<path fill="none" stroke="#63b8ff" d="M285.58,-300.02C301.7,-308.44 326.43,-320.59 349,-328.5 355.37,-330.73 362.13,-332.78 368.9,-334.64"/>
<polygon fill="#63b8ff" stroke="#63b8ff" points="368.19,-338.07 378.75,-337.21 369.96,-331.3 368.19,-338.07"/>
</a>
</g>
</g>
<!-- Node4 -->
<g id="Node000004" class="node">
<title>Node4</title>
<g id="a_Node000004"><a xlink:href="math__util_8c.html#ad5bb0138c68b50f119d3cb7966f522b7" target="_top" xlink:title=" ">
<polygon fill="white" stroke="#666666" points="501,-319 349,-319 349,-300 501,-300 501,-319"/>
<text text-anchor="middle" x="425" y="-307" font-family="Helvetica,sans-Serif" font-size="10.00">mtxf_translate_vec3f_mat3</text>
</a>
</g>
</g>
<!-- Node2&#45;&gt;Node4 -->
<g id="edge3_Node000002_Node000004" class="edge">
<title>Node2&#45;&gt;Node4</title>
<g id="a_edge3_Node000002_Node000004"><a xlink:title=" ">
<path fill="none" stroke="#63b8ff" d="M313.12,-296C321.23,-296.98 329.92,-298.04 338.73,-299.11"/>
<polygon fill="#63b8ff" stroke="#63b8ff" points="338.36,-302.59 348.71,-300.33 339.2,-295.65 338.36,-302.59"/>
</a>
</g>
</g>
<!-- Node5 -->
<g id="Node000005" class="node">
<title>Node5</title>
<g id="a_Node000005"><a xlink:href="player__controller_8c.html#a179bafe2f3564cef92bacebc2b770bf1" target="_top" xlink:title=" ">
<polygon fill="white" stroke="#666666" points="477,-282 373,-282 373,-263 477,-263 477,-282"/>
<text text-anchor="middle" x="425" y="-270" font-family="Helvetica,sans-Serif" font-size="10.00">player_decelerate</text>
</a>
</g>
</g>
<!-- Node2&#45;&gt;Node5 -->
<g id="edge4_Node000002_Node000005" class="edge">
<title>Node2&#45;&gt;Node5</title>
<g id="a_edge4_Node000002_Node000005"><a xlink:title=" ">
<path fill="none" stroke="#63b8ff" d="M313.12,-285.29C328.62,-283.51 346.24,-281.47 362.8,-279.56"/>
<polygon fill="#63b8ff" stroke="#63b8ff" points="363.41,-283.01 372.95,-278.39 362.61,-276.06 363.41,-283.01"/>
</a>
</g>
</g>
<!-- Node22 -->
<g id="Node000022" class="node">
<title>Node22</title>
<g id="a_Node000022"><a xlink:href="effects_8c.html#a5b9e2c886a5267f2cca1190984277a38" target="_top" xlink:title=" ">
<polygon fill="white" stroke="#666666" points="942.5,-19 823.5,-19 823.5,0 942.5,0 942.5,-19"/>
<text text-anchor="middle" x="883" y="-7" font-family="Helvetica,sans-Serif" font-size="10.00">remove_boost_effect</text>
</a>
</g>
</g>
<!-- Node2&#45;&gt;Node22 -->
<g id="edge28_Node000002_Node000022" class="edge">
<title>Node2&#45;&gt;Node22</title>
<g id="a_edge28_Node000002_Node000022"><a xlink:title=" ">
<path fill="none" stroke="#63b8ff" d="M284.54,-280.75C348.98,-243.15 590.18,-105.77 804,-28.5 811.02,-25.96 818.51,-23.66 825.98,-21.6"/>
<polygon fill="#63b8ff" stroke="#63b8ff" points="826.95,-24.96 835.73,-19.03 825.17,-18.19 826.95,-24.96"/>
</a>
</g>
</g>
<!-- Node6 -->
<g id="Node000006" class="node">
<title>Node6</title>
<g id="a_Node000006"><a xlink:href="effects_8c.html#ae77e5662a7ef9f09c2e2150a36883d04" target="_top" xlink:title=" ">
<polygon fill="white" stroke="#666666" points="642,-282 551,-282 551,-263 642,-263 642,-282"/>
<text text-anchor="middle" x="596.5" y="-270" font-family="Helvetica,sans-Serif" font-size="10.00">func_8008F104</text>
</a>
</g>
</g>
<!-- Node5&#45;&gt;Node6 -->
<g id="edge5_Node000005_Node000006" class="edge">
<title>Node5&#45;&gt;Node6</title>
<g id="a_edge5_Node000005_Node000006"><a xlink:title=" ">
<path fill="none" stroke="#63b8ff" d="M477.32,-272.5C497.4,-272.5 520.48,-272.5 540.87,-272.5"/>
<polygon fill="#63b8ff" stroke="#63b8ff" points="540.96,-276 550.96,-272.5 540.96,-269 540.96,-276"/>
</a>
</g>
</g>
<!-- Node27 -->
<g id="Node000027" class="node">
<title>Node27</title>
<g id="a_Node000027"><a xlink:href="player__controller_8c.html#aafeb0470c7da44e1440ffa4848f7d500" target="_top" xlink:title=" ">
<polygon fill="white" stroke="#666666" points="656,-330.5 537,-330.5 537,-300.5 656,-300.5 656,-330.5"/>
<text text-anchor="start" x="545" y="-318.5" font-family="Helvetica,sans-Serif" font-size="10.00">get_player_index_for</text>
<text text-anchor="middle" x="596.5" y="-307.5" font-family="Helvetica,sans-Serif" font-size="10.00">_player</text>
</a>
</g>
</g>
<!-- Node5&#45;&gt;Node27 -->
<g id="edge27_Node000005_Node000027" class="edge">
<title>Node5&#45;&gt;Node27</title>
<g id="a_edge27_Node000005_Node000027"><a xlink:title=" ">
<path fill="none" stroke="#63b8ff" d="M463.77,-282.06C475.68,-285.08 488.89,-288.43 501,-291.5 509.4,-293.63 518.23,-295.87 526.97,-298.09"/>
<polygon fill="#63b8ff" stroke="#63b8ff" points="526.22,-301.51 536.77,-300.58 527.94,-294.73 526.22,-301.51"/>
</a>
</g>
</g>
<!-- Node7 -->
<g id="Node000007" class="node">
<title>Node7</title>
<g id="a_Node000007"><a xlink:href="effects_8c.html#aeda67f98b2369b1c3952d9e4eb30b4d1" target="_top" xlink:title=" ">
<polygon fill="white" stroke="#666666" points="768,-282 692,-282 692,-263 768,-263 768,-282"/>
<text text-anchor="middle" x="730" y="-270" font-family="Helvetica,sans-Serif" font-size="10.00">clean_effect</text>
</a>
</g>
</g>
<!-- Node6&#45;&gt;Node7 -->
<g id="edge6_Node000006_Node000007" class="edge">
<title>Node6&#45;&gt;Node7</title>
<g id="a_edge6_Node000006_Node000007"><a xlink:title=" ">
<path fill="none" stroke="#63b8ff" d="M642.02,-272.5C654.84,-272.5 668.86,-272.5 681.83,-272.5"/>
<polygon fill="#63b8ff" stroke="#63b8ff" points="681.97,-276 691.97,-272.5 681.97,-269 681.97,-276"/>
</a>
</g>
</g>
<!-- Node26 -->
<g id="Node000026" class="node">
<title>Node26</title>
<g id="a_Node000026"><a xlink:href="external_8c.html#a337fc3ab94ebb3293a85908229303ac8" target="_top" xlink:title=" ">
<polygon fill="white" stroke="#666666" points="1100,-533 1008,-533 1008,-514 1100,-514 1100,-533"/>
<text text-anchor="middle" x="1054" y="-521" font-family="Helvetica,sans-Serif" font-size="10.00">func_800C90F4</text>
</a>
</g>
</g>
<!-- Node6&#45;&gt;Node26 -->
<g id="edge25_Node000006_Node000026" class="edge">
<title>Node6&#45;&gt;Node26</title>
<g id="a_edge25_Node000006_Node000026"><a xlink:title=" ">
<path fill="none" stroke="#63b8ff" d="M639.69,-282.05C645.53,-284.52 651.17,-287.62 656,-291.5 757.25,-372.86 691.27,-478.97 804,-543.5 873.19,-583.11 971.41,-555.52 1021.29,-536.81"/>
<polygon fill="#63b8ff" stroke="#63b8ff" points="1022.82,-539.97 1030.89,-533.1 1020.3,-533.45 1022.82,-539.97"/>
</a>
</g>
</g>
<!-- Node8 -->
<g id="Node000008" class="node">
<title>Node8</title>
<g id="a_Node000008"><a xlink:href="effects_8c.html#ad164a912d7ef76f24e7b5cfb9169c16f" target="_top" xlink:title=" ">
<polygon fill="white" stroke="#666666" points="929.5,-486 836.5,-486 836.5,-467 929.5,-467 929.5,-486"/>
<text text-anchor="middle" x="883" y="-474" font-family="Helvetica,sans-Serif" font-size="10.00">func_8008C6D0</text>
</a>
</g>
</g>
<!-- Node7&#45;&gt;Node8 -->
<g id="edge7_Node000007_Node000008" class="edge">
<title>Node7&#45;&gt;Node8</title>
<g id="a_edge7_Node000007_Node000008"><a xlink:title=" ">
<path fill="none" stroke="#63b8ff" d="M731.75,-282.4C734.67,-313.52 748.05,-410.24 804,-458.5 810.5,-464.11 818.42,-468.06 826.67,-470.83"/>
<polygon fill="#63b8ff" stroke="#63b8ff" points="825.89,-474.24 836.47,-473.56 827.77,-467.5 825.89,-474.24"/>
</a>
</g>
</g>
<!-- Node9 -->
<g id="Node000009" class="node">
<title>Node9</title>
<g id="a_Node000009"><a xlink:href="effects_8c.html#a105203221e314be241a95e006b62ef80" target="_top" xlink:title=" ">
<polygon fill="white" stroke="#666666" points="929,-449 837,-449 837,-430 929,-430 929,-449"/>
<text text-anchor="middle" x="883" y="-437" font-family="Helvetica,sans-Serif" font-size="10.00">func_8008C8C4</text>
</a>
</g>
</g>
<!-- Node7&#45;&gt;Node9 -->
<g id="edge8_Node000007_Node000009" class="edge">
<title>Node7&#45;&gt;Node9</title>
<g id="a_edge8_Node000007_Node000009"><a xlink:title=" ">
<path fill="none" stroke="#63b8ff" d="M732.79,-282.32C738.21,-309.17 757.07,-384.25 804,-421.5 810.73,-426.84 818.75,-430.65 827.06,-433.36"/>
<polygon fill="#63b8ff" stroke="#63b8ff" points="826.31,-436.78 836.88,-436.06 828.16,-430.03 826.31,-436.78"/>
</a>
</g>
</g>
<!-- Node10 -->
<g id="Node000010" class="node">
<title>Node10</title>
<g id="a_Node000010"><a xlink:href="effects_8c.html#acab450a6af6eca812ad3987a292a5165" target="_top" xlink:title=" ">
<polygon fill="white" stroke="#666666" points="929,-412 837,-412 837,-393 929,-393 929,-412"/>
<text text-anchor="middle" x="883" y="-400" font-family="Helvetica,sans-Serif" font-size="10.00">func_8008D0E4</text>
</a>
</g>
</g>
<!-- Node7&#45;&gt;Node10 -->
<g id="edge9_Node000007_Node000010" class="edge">
<title>Node7&#45;&gt;Node10</title>
<g id="a_edge9_Node000007_Node000010"><a xlink:title=" ">
<path fill="none" stroke="#63b8ff" d="M734.37,-282.09C742.57,-303.97 765.76,-357.78 804,-384.5 810.8,-389.25 818.68,-392.77 826.75,-395.37"/>
<polygon fill="#63b8ff" stroke="#63b8ff" points="826.07,-398.81 836.64,-398.1 827.93,-392.06 826.07,-398.81"/>
</a>
</g>
</g>
<!-- Node11 -->
<g id="Node000011" class="node">
<title>Node11</title>
<g id="a_Node000011"><a xlink:href="effects_8c.html#a663cb8df8b606cf00e361977c9d6d834" target="_top" xlink:title=" ">
<polygon fill="white" stroke="#666666" points="929.5,-375 836.5,-375 836.5,-356 929.5,-356 929.5,-375"/>
<text text-anchor="middle" x="883" y="-363" font-family="Helvetica,sans-Serif" font-size="10.00">func_8008D3B0</text>
</a>
</g>
</g>
<!-- Node7&#45;&gt;Node11 -->
<g id="edge10_Node000007_Node000011" class="edge">
<title>Node7&#45;&gt;Node11</title>
<g id="a_edge10_Node000007_Node000011"><a xlink:title=" ">
<path fill="none" stroke="#63b8ff" d="M737.42,-282.02C748.82,-298.15 774.23,-330.74 804,-347.5 810.9,-351.38 818.59,-354.43 826.37,-356.82"/>
<polygon fill="#63b8ff" stroke="#63b8ff" points="825.67,-360.26 836.24,-359.51 827.51,-353.5 825.67,-360.26"/>
</a>
</g>
</g>
<!-- Node12 -->
<g id="Node000012" class="node">
<title>Node12</title>
<g id="a_Node000012"><a xlink:href="effects_8c.html#a5f19eaaa048055d292d02c717e635786" target="_top" xlink:title=" ">
<polygon fill="white" stroke="#666666" points="929,-338 837,-338 837,-319 929,-319 929,-338"/>
<text text-anchor="middle" x="883" y="-326" font-family="Helvetica,sans-Serif" font-size="10.00">func_8008D760</text>
</a>
</g>
</g>
<!-- Node7&#45;&gt;Node12 -->
<g id="edge11_Node000007_Node000012" class="edge">
<title>Node7&#45;&gt;Node12</title>
<g id="a_edge11_Node000007_Node000012"><a xlink:title=" ">
<path fill="none" stroke="#63b8ff" d="M746.7,-282.16C761.13,-290.68 783.36,-302.89 804,-310.5 811.33,-313.21 819.21,-315.59 827.04,-317.67"/>
<polygon fill="#63b8ff" stroke="#63b8ff" points="826.33,-321.1 836.88,-320.13 828.03,-314.31 826.33,-321.1"/>
</a>
</g>
</g>
<!-- Node13 -->
<g id="Node000013" class="node">
<title>Node13</title>
<g id="a_Node000013"><a xlink:href="effects_8c.html#a4ea2da0616ee3c475e4be217dc0bc71f" target="_top" xlink:title=" ">
<polygon fill="white" stroke="#666666" points="929.5,-301 836.5,-301 836.5,-282 929.5,-282 929.5,-301"/>
<text text-anchor="middle" x="883" y="-289" font-family="Helvetica,sans-Serif" font-size="10.00">func_8008D97C</text>
</a>
</g>
</g>
<!-- Node7&#45;&gt;Node13 -->
<g id="edge12_Node000007_Node000013" class="edge">
<title>Node7&#45;&gt;Node13</title>
<g id="a_edge12_Node000007_Node000013"><a xlink:title=" ">
<path fill="none" stroke="#63b8ff" d="M768.33,-277.2C785.88,-279.41 807.16,-282.08 826.55,-284.52"/>
<polygon fill="#63b8ff" stroke="#63b8ff" points="826.13,-288 836.48,-285.77 827,-281.05 826.13,-288"/>
</a>
</g>
</g>
<!-- Node14 -->
<g id="Node000014" class="node">
<title>Node14</title>
<g id="a_Node000014"><a xlink:href="effects_8c.html#a4a437d6caeeaa794bcce43ec60c097e9" target="_top" xlink:title=" ">
<polygon fill="white" stroke="#666666" points="928.5,-264 837.5,-264 837.5,-245 928.5,-245 928.5,-264"/>
<text text-anchor="middle" x="883" y="-252" font-family="Helvetica,sans-Serif" font-size="10.00">func_8008E884</text>
</a>
</g>
</g>
<!-- Node7&#45;&gt;Node14 -->
<g id="edge13_Node000007_Node000014" class="edge">
<title>Node7&#45;&gt;Node14</title>
<g id="a_edge13_Node000007_Node000014"><a xlink:title=" ">
<path fill="none" stroke="#63b8ff" d="M768.33,-268.05C786.1,-265.93 807.71,-263.36 827.29,-261.02"/>
<polygon fill="#63b8ff" stroke="#63b8ff" points="827.8,-264.49 837.31,-259.83 826.97,-257.54 827.8,-264.49"/>
</a>
</g>
</g>
<!-- Node15 -->
<g id="Node000015" class="node">
<title>Node15</title>
<g id="a_Node000015"><a xlink:href="effects_8c.html#ae02351b6bbb678b552ec8864b47fc56c" target="_top" xlink:title=" ">
<polygon fill="white" stroke="#666666" points="928.5,-227 837.5,-227 837.5,-208 928.5,-208 928.5,-227"/>
<text text-anchor="middle" x="883" y="-215" font-family="Helvetica,sans-Serif" font-size="10.00">func_8008F3E0</text>
</a>
</g>
</g>
<!-- Node7&#45;&gt;Node15 -->
<g id="edge14_Node000007_Node000015" class="edge">
<title>Node7&#45;&gt;Node15</title>
<g id="a_edge14_Node000007_Node000015"><a xlink:title=" ">
<path fill="none" stroke="#63b8ff" d="M747.65,-262.98C762.15,-255 783.95,-243.79 804,-236.5 811.54,-233.76 819.64,-231.29 827.66,-229.11"/>
<polygon fill="#63b8ff" stroke="#63b8ff" points="828.56,-232.49 837.36,-226.59 826.8,-225.72 828.56,-232.49"/>
</a>
</g>
</g>
<!-- Node16 -->
<g id="Node000016" class="node">
<title>Node16</title>
<g id="a_Node000016"><a xlink:href="effects_8c.html#afcf39ca15166fb7561402462930cd979" target="_top" xlink:title=" ">
<polygon fill="white" stroke="#666666" points="929,-190 837,-190 837,-171 929,-171 929,-190"/>
<text text-anchor="middle" x="883" y="-178" font-family="Helvetica,sans-Serif" font-size="10.00">func_8008F5A4</text>
</a>
</g>
</g>
<!-- Node7&#45;&gt;Node16 -->
<g id="edge15_Node000007_Node000016" class="edge">
<title>Node7&#45;&gt;Node16</title>
<g id="a_edge15_Node000007_Node000016"><a xlink:title=" ">
<path fill="none" stroke="#63b8ff" d="M737.63,-262.86C749.17,-246.86 774.54,-214.96 804,-198.5 811.07,-194.55 818.97,-191.46 826.95,-189.05"/>
<polygon fill="#63b8ff" stroke="#63b8ff" points="827.92,-192.42 836.67,-186.44 826.1,-185.66 827.92,-192.42"/>
</a>
</g>
</g>
<!-- Node21 -->
<g id="Node000021" class="node">
<title>Node21</title>
<g id="a_Node000021"><a xlink:href="effects_8c.html#ab6d84742231847170dd64267f0519cdf" target="_top" xlink:title=" ">
<polygon fill="white" stroke="#666666" points="929.5,-153 836.5,-153 836.5,-134 929.5,-134 929.5,-153"/>
<text text-anchor="middle" x="883" y="-141" font-family="Helvetica,sans-Serif" font-size="10.00">func_8008FEDC</text>
</a>
</g>
</g>
<!-- Node7&#45;&gt;Node21 -->
<g id="edge20_Node000007_Node000021" class="edge">
<title>Node7&#45;&gt;Node21</title>
<g id="a_edge20_Node000007_Node000021"><a xlink:title=" ">
<path fill="none" stroke="#63b8ff" d="M734.39,-263C742.65,-241.31 765.95,-187.98 804,-161.5 810.73,-156.82 818.5,-153.34 826.48,-150.75"/>
<polygon fill="#63b8ff" stroke="#63b8ff" points="827.56,-154.08 836.25,-148.02 825.68,-147.34 827.56,-154.08"/>
</a>
</g>
</g>
<!-- Node7&#45;&gt;Node22 -->
<g id="edge21_Node000007_Node000022" class="edge">
<title>Node7&#45;&gt;Node22</title>
<g id="a_edge21_Node000007_Node000022"><a xlink:title=" ">
<path fill="none" stroke="#63b8ff" d="M733.85,-262.73C747.06,-217.5 801.75,-30.64 804,-28.5 806.98,-25.67 810.32,-23.23 813.88,-21.15"/>
<polygon fill="#63b8ff" stroke="#63b8ff" points="815.68,-24.16 823.14,-16.64 812.62,-17.87 815.68,-24.16"/>
</a>
</g>
</g>
<!-- Node23 -->
<g id="Node000023" class="node">
<title>Node23</title>
<g id="a_Node000023"><a xlink:href="effects_8c.html#a4768d56263e476d3bac47ee01bac3dc8" target="_top" xlink:title=" ">
<polygon fill="white" stroke="#666666" points="962,-115.5 804,-115.5 804,-85.5 962,-85.5 962,-115.5"/>
<text text-anchor="start" x="812" y="-103.5" font-family="Helvetica,sans-Serif" font-size="10.00">remove_boost_ramp_asphalt</text>
<text text-anchor="middle" x="883" y="-92.5" font-family="Helvetica,sans-Serif" font-size="10.00">_effect</text>
</a>
</g>
</g>
<!-- Node7&#45;&gt;Node23 -->
<g id="edge22_Node000007_Node000023" class="edge">
<title>Node7&#45;&gt;Node23</title>
<g id="a_edge22_Node000007_Node000023"><a xlink:title=" ">
<path fill="none" stroke="#63b8ff" d="M732.95,-262.92C738.8,-236.69 758.63,-163.14 804,-124.5 805.37,-123.33 806.8,-122.22 808.28,-121.16"/>
<polygon fill="#63b8ff" stroke="#63b8ff" points="810.5,-123.9 817.18,-115.68 806.83,-117.94 810.5,-123.9"/>
</a>
</g>
</g>
<!-- Node24 -->
<g id="Node000024" class="node">
<title>Node24</title>
<g id="a_Node000024"><a xlink:href="effects_8c.html#aafe14c45e9b91bb1d409ef2f2bfe5c53" target="_top" xlink:title=" ">
<polygon fill="white" stroke="#666666" points="957.5,-67.5 808.5,-67.5 808.5,-37.5 957.5,-37.5 957.5,-67.5"/>
<text text-anchor="start" x="816.5" y="-55.5" font-family="Helvetica,sans-Serif" font-size="10.00">remove_boost_ramp_wood</text>
<text text-anchor="middle" x="883" y="-44.5" font-family="Helvetica,sans-Serif" font-size="10.00">_effect</text>
</a>
</g>
</g>
<!-- Node7&#45;&gt;Node24 -->
<g id="edge23_Node000007_Node000024" class="edge">
<title>Node7&#45;&gt;Node24</title>
<g id="a_edge23_Node000007_Node000024"><a xlink:title=" ">
<path fill="none" stroke="#63b8ff" d="M733.45,-262.62C742.52,-226.7 775.21,-103.66 804,-76.5 805.13,-75.44 806.3,-74.42 807.51,-73.45"/>
<polygon fill="#63b8ff" stroke="#63b8ff" points="809.73,-76.18 816.04,-67.67 805.8,-70.38 809.73,-76.18"/>
</a>
</g>
</g>
<!-- Node25 -->
<g id="Node000025" class="node">
<title>Node25</title>
<g id="a_Node000025"><a xlink:href="effects_8c.html#a0d5728af3b320b88b01fadef778fcbff" target="_top" xlink:title=" ">
<polygon fill="white" stroke="#666666" points="941.5,-534.5 824.5,-534.5 824.5,-504.5 941.5,-504.5 941.5,-534.5"/>
<text text-anchor="start" x="832.5" y="-522.5" font-family="Helvetica,sans-Serif" font-size="10.00">remove_hit_by_item</text>
<text text-anchor="middle" x="883" y="-511.5" font-family="Helvetica,sans-Serif" font-size="10.00">_effect</text>
</a>
</g>
</g>
<!-- Node7&#45;&gt;Node25 -->
<g id="edge24_Node000007_Node000025" class="edge">
<title>Node7&#45;&gt;Node25</title>
<g id="a_edge24_Node000007_Node000025"><a xlink:title=" ">
<path fill="none" stroke="#63b8ff" d="M731.18,-282.14C732.33,-316.4 740.94,-433.55 804,-495.5 807.33,-498.77 811.1,-501.6 815.13,-504.04"/>
<polygon fill="#63b8ff" stroke="#63b8ff" points="813.83,-507.31 824.32,-508.8 817.05,-501.09 813.83,-507.31"/>
</a>
</g>
</g>
<!-- Node17 -->
<g id="Node000017" class="node">
<title>Node17</title>
<g id="a_Node000017"><a xlink:href="code__80057C60_8c.html#ae28b6eb556910087cea23f0cb7a322bd" target="_top" xlink:title=" ">
<polygon fill="white" stroke="#666666" points="1110,-343 998,-343 998,-324 1110,-324 1110,-343"/>
<text text-anchor="middle" x="1054" y="-331" font-family="Helvetica,sans-Serif" font-size="10.00">pop_player_balloon</text>
</a>
</g>
</g>
<!-- Node16&#45;&gt;Node17 -->
<g id="edge16_Node000016_Node000017" class="edge">
<title>Node16&#45;&gt;Node17</title>
<g id="a_edge16_Node000016_Node000017"><a xlink:title=" ">
<path fill="none" stroke="#63b8ff" d="M929.29,-185C940.67,-187.68 952.38,-191.89 962,-198.5 1004.73,-227.88 1032.95,-284.49 1045.52,-314.2"/>
<polygon fill="#63b8ff" stroke="#63b8ff" points="1042.42,-315.89 1049.43,-323.84 1048.91,-313.26 1042.42,-315.89"/>
</a>
</g>
</g>
<!-- Node18 -->
<g id="Node000018" class="node">
<title>Node18</title>
<g id="a_Node000018"><a xlink:href="effects_8c.html#a1c7552c4a370cc015c2726e40f1fdb06" target="_top" xlink:title=" ">
<polygon fill="white" stroke="#666666" points="1239,-380 1146,-380 1146,-361 1239,-361 1239,-380"/>
<text text-anchor="middle" x="1192.5" y="-368" font-family="Helvetica,sans-Serif" font-size="10.00">func_8008FD4C</text>
</a>
</g>
</g>
<!-- Node17&#45;&gt;Node18 -->
<g id="edge17_Node000017_Node000018" class="edge">
<title>Node17&#45;&gt;Node18</title>
<g id="a_edge17_Node000017_Node000018"><a xlink:title=" ">
<path fill="none" stroke="#63b8ff" d="M1090.15,-343.03C1107.21,-347.65 1127.92,-353.27 1146.15,-358.21"/>
<polygon fill="#63b8ff" stroke="#63b8ff" points="1145.43,-361.64 1155.99,-360.88 1147.26,-354.88 1145.43,-361.64"/>
</a>
</g>
</g>
<!-- Node19 -->
<g id="Node000019" class="node">
<title>Node19</title>
<g id="a_Node000019"><a xlink:href="external_8c.html#a2be9efc97a92e19d02aaee90d676acc1" target="_top" xlink:title=" ">
<polygon fill="white" stroke="#666666" points="1238.5,-343 1146.5,-343 1146.5,-324 1238.5,-324 1238.5,-343"/>
<text text-anchor="middle" x="1192.5" y="-331" font-family="Helvetica,sans-Serif" font-size="10.00">func_800C9060</text>
</a>
</g>
</g>
<!-- Node17&#45;&gt;Node19 -->
<g id="edge18_Node000017_Node000019" class="edge">
<title>Node17&#45;&gt;Node19</title>
<g id="a_edge18_Node000017_Node000019"><a xlink:title=" ">
<path fill="none" stroke="#63b8ff" d="M1110.13,-333.5C1118.65,-333.5 1127.45,-333.5 1135.98,-333.5"/>
<polygon fill="#63b8ff" stroke="#63b8ff" points="1136.21,-337 1146.21,-333.5 1136.21,-330 1136.21,-337"/>
</a>
</g>
</g>
<!-- Node20 -->
<g id="Node000020" class="node">
<title>Node20</title>
<g id="a_Node000020"><a xlink:href="external_8c.html#a475cff796211891556f52877cd8e9b9e" target="_top" xlink:title=" ">
<polygon fill="white" stroke="#666666" points="1347,-380 1275,-380 1275,-361 1347,-361 1347,-380"/>
<text text-anchor="middle" x="1311" y="-368" font-family="Helvetica,sans-Serif" font-size="10.00">play_sound</text>
</a>
</g>
</g>
<!-- Node19&#45;&gt;Node20 -->
<g id="edge19_Node000019_Node000020" class="edge">
<title>Node19&#45;&gt;Node20</title>
<g id="a_edge19_Node000019_Node000020"><a xlink:title=" ">
<path fill="none" stroke="#63b8ff" d="M1223.5,-343.03C1237.66,-347.52 1254.75,-352.95 1270,-357.8"/>
<polygon fill="#63b8ff" stroke="#63b8ff" points="1269.1,-361.18 1279.7,-360.88 1271.22,-354.51 1269.1,-361.18"/>
</a>
</g>
</g>
<!-- Node26&#45;&gt;Node20 -->
<g id="edge26_Node000026_Node000020" class="edge">
<title>Node26&#45;&gt;Node20</title>
<g id="a_edge26_Node000026_Node000020"><a xlink:title=" ">
<path fill="none" stroke="#63b8ff" d="M1070.95,-513.93C1114.06,-488.06 1233.15,-416.61 1285.16,-385.41"/>
<polygon fill="#63b8ff" stroke="#63b8ff" points="1287.28,-388.21 1294.05,-380.07 1283.68,-382.21 1287.28,-388.21"/>
</a>
</g>
</g>
</g>
</svg>

<g id="navigator" transform="translate(0 0)" fill="#404254">
  <rect fill="#f2f5e9" fill-opacity="0.5" stroke="#606060" stroke-width=".5" x="0" y="0" width="60" height="60"/>
  <use id="zoomplus" xlink:href="#zoomPlus" x="17" y="9" onmousedown="handleZoom(evt,'in')"/>
  <use id="zoomminus" xlink:href="#zoomMin" x="42" y="9" onmousedown="handleZoom(evt,'out')"/>
  <use id="reset" xlink:href="#resetDef" x="30" y="36" onmousedown="handleReset()"/>
   <use id="arrowup" xlink:href="#arrowUp" x="0" y="0" onmousedown="handlePan(0,-1)"/>
  <use id="arrowright" xlink:href="#arrowRight" x="0" y="0" onmousedown="handlePan(1,0)"/>
  <use id="arrowdown" xlink:href="#arrowDown" x="0" y="0" onmousedown="handlePan(0,1)"/>
  <use id="arrowleft" xlink:href="#arrowLeft" x="0" y="0" onmousedown="handlePan(-1,0)"/>
</g>
<svg viewBox="0 0 15 15" width="100%" height="30px" preserveAspectRatio="xMaxYMin meet">
 <g id="arrow_out" transform="scale(0.3 0.3)">
  <a xlink:href="classKoopaTroopaBeach_a7ca6e564b45390c31b76e364a0ee6ff4_cgraph_org.svg" target="_base">
   <rect id="button" ry="5" rx="5" y="6" x="6" height="38" width="38"
        fill="#f2f5e9" fill-opacity="0.5" stroke="#606060" stroke-width="1.0"/>
   <path id="arrow"
     d="M 11.500037,31.436501 C 11.940474,20.09759 22.043105,11.32322 32.158766,21.979434 L 37.068811,17.246167 C 37.068811,17.246167 37.088388,32 37.088388,32 L 22.160133,31.978069 C 22.160133,31.978069 26.997745,27.140456 26.997745,27.140456 C 18.528582,18.264221 13.291696,25.230495 11.500037,31.436501 z"
     style="fill:#404040;"/>
  </a>
 </g>
</svg>

<style type='text/css'>
<![CDATA[
[data-mouse-over-selected='false'] { opacity: 0.7; }
[data-mouse-over-selected='true']  { opacity: 1.0; }
]]>
</style>
<script type="application/ecmascript"><![CDATA[
document.addEventListener('DOMContentLoaded', (event) => {
  highlightEdges();
  highlightAdjacentNodes();
});
]]></script>
</svg>
