<?xml version="1.0" encoding="UTF-8" standalone="no"?>
<!DOCTYPE svg PUBLIC "-//W3C//DTD SVG 1.1//EN"
 "http://www.w3.org/Graphics/SVG/1.1/DTD/svg11.dtd">
<!-- Generated by graphviz version 2.43.0 (0)
 -->
<!-- Title: Editor::Gizmo::Draw Pages: 1 -->
<svg width="768pt" height="212pt"
 viewBox="0.00 0.00 768.00 212.00" xmlns="http://www.w3.org/2000/svg" xmlns:xlink="http://www.w3.org/1999/xlink">
<g id="graph0" class="graph" transform="scale(1 1) rotate(0) translate(4 208)">
<title>Editor::Gizmo::Draw</title>
<!-- Node1 -->
<g id="Node000001" class="node">
<title>Node1</title>
<g id="a_Node000001"><a xlink:title=" ">
<polygon fill="#999999" stroke="#666666" points="114,-93 0,-93 0,-74 114,-74 114,-93"/>
<text text-anchor="middle" x="57" y="-81" font-family="Helvetica,sans-Serif" font-size="10.00">Editor::Gizmo::Draw</text>
</a>
</g>
</g>
<!-- Node2 -->
<g id="Node000002" class="node">
<title>Node2</title>
<g id="a_Node000002"><a xlink:href="classEditor_1_1Gizmo.html#a6a82cd6884a53f04665fa6244495e3a3" target="_top" xlink:title=" ">
<polygon fill="white" stroke="#666666" points="304,-93 150,-93 150,-74 304,-74 304,-93"/>
<text text-anchor="middle" x="227" y="-81" font-family="Helvetica,sans-Serif" font-size="10.00">Editor::Gizmo::DrawHandles</text>
</a>
</g>
</g>
<!-- Node1&#45;&gt;Node2 -->
<g id="edge1_Node000001_Node000002" class="edge">
<title>Node1&#45;&gt;Node2</title>
<g id="a_edge1_Node000001_Node000002"><a xlink:title=" ">
<path fill="none" stroke="#63b8ff" d="M114.41,-83.5C122.56,-83.5 131.11,-83.5 139.68,-83.5"/>
<polygon fill="#63b8ff" stroke="#63b8ff" points="139.74,-87 149.74,-83.5 139.74,-80 139.74,-87"/>
</a>
</g>
</g>
<!-- Node3 -->
<g id="Node000003" class="node">
<title>Node3</title>
<g id="a_Node000003"><a xlink:href="Matrix_8cpp.html#a63625de4c7f9e2e9cd5b04eed49acfcb" target="_top" xlink:title=" ">
<polygon fill="white" stroke="#666666" points="495,-167 340,-167 340,-148 495,-148 495,-167"/>
<text text-anchor="middle" x="417.5" y="-155" font-family="Helvetica,sans-Serif" font-size="10.00">ApplyMatrixTransformations</text>
</a>
</g>
</g>
<!-- Node2&#45;&gt;Node3 -->
<g id="edge2_Node000002_Node000003" class="edge">
<title>Node2&#45;&gt;Node3</title>
<g id="a_edge2_Node000002_Node000003"><a xlink:title=" ">
<path fill="none" stroke="#63b8ff" d="M244.16,-93.09C265.47,-105.38 304.43,-126.62 340,-139.5 345.89,-141.63 352.13,-143.58 358.41,-145.34"/>
<polygon fill="#63b8ff" stroke="#63b8ff" points="357.69,-148.77 368.25,-147.95 359.48,-142 357.69,-148.77"/>
</a>
</g>
</g>
<!-- Node6 -->
<g id="Node000006" class="node">
<title>Node6</title>
<g id="a_Node000006"><a xlink:href="EditorMath_8cpp.html#a36bc6050f7e632a94460f767706e9042" target="_top" xlink:title=" ">
<polygon fill="white" stroke="#666666" points="468,-130 367,-130 367,-111 468,-111 468,-130"/>
<text text-anchor="middle" x="417.5" y="-118" font-family="Helvetica,sans-Serif" font-size="10.00">Editor_AddMatrix</text>
</a>
</g>
</g>
<!-- Node2&#45;&gt;Node6 -->
<g id="edge5_Node000002_Node000006" class="edge">
<title>Node2&#45;&gt;Node6</title>
<g id="a_edge5_Node000002_Node000006"><a xlink:title=" ">
<path fill="none" stroke="#63b8ff" d="M276.54,-93.03C301.29,-97.89 331.59,-103.83 357.66,-108.95"/>
<polygon fill="#63b8ff" stroke="#63b8ff" points="357.31,-112.45 367.79,-110.94 358.66,-105.58 357.31,-112.45"/>
</a>
</g>
</g>
<!-- Node8 -->
<g id="Node000008" class="node">
<title>Node8</title>
<g id="a_Node000008"><a xlink:href="EditorMath_8cpp.html#a43e4c5ec2396f2fe6c491865170c303e" target="_top" xlink:title=" ">
<polygon fill="white" stroke="#666666" points="477,-93 358,-93 358,-74 477,-74 477,-93"/>
<text text-anchor="middle" x="417.5" y="-81" font-family="Helvetica,sans-Serif" font-size="10.00">Editor_MatrixIdentity</text>
</a>
</g>
</g>
<!-- Node2&#45;&gt;Node8 -->
<g id="edge7_Node000002_Node000008" class="edge">
<title>Node2&#45;&gt;Node8</title>
<g id="a_edge7_Node000002_Node000008"><a xlink:title=" ">
<path fill="none" stroke="#63b8ff" d="M304.13,-83.5C318.52,-83.5 333.49,-83.5 347.64,-83.5"/>
<polygon fill="#63b8ff" stroke="#63b8ff" points="347.78,-87 357.78,-83.5 347.78,-80 347.78,-87"/>
</a>
</g>
</g>
<!-- Node9 -->
<g id="Node000009" class="node">
<title>Node9</title>
<g id="a_Node000009"><a xlink:href="GBIMiddleware_8cpp.html#a4ecc44e3c6f1ca5a6b4a20c41d3bd2d2" target="_top" xlink:title=" ">
<polygon fill="white" stroke="#666666" points="462,-56 373,-56 373,-37 462,-37 462,-56"/>
<text text-anchor="middle" x="417.5" y="-44" font-family="Helvetica,sans-Serif" font-size="10.00">gSPDisplayList</text>
</a>
</g>
</g>
<!-- Node2&#45;&gt;Node9 -->
<g id="edge8_Node000002_Node000009" class="edge">
<title>Node2&#45;&gt;Node9</title>
<g id="a_edge8_Node000002_Node000009"><a xlink:title=" ">
<path fill="none" stroke="#63b8ff" d="M276.54,-73.97C302.95,-68.79 335.67,-62.37 362.84,-57.03"/>
<polygon fill="#63b8ff" stroke="#63b8ff" points="363.81,-60.41 372.95,-55.05 362.46,-53.54 363.81,-60.41"/>
</a>
</g>
</g>
<!-- Node12 -->
<g id="Node000012" class="node">
<title>Node12</title>
<g id="a_Node000012"><a xlink:href="EditorMath_8cpp.html#aac7aa1dff387eaece311af48b90df417" target="_top" xlink:title=" ">
<polygon fill="white" stroke="#666666" points="486,-19 349,-19 349,0 486,0 486,-19"/>
<text text-anchor="middle" x="417.5" y="-7" font-family="Helvetica,sans-Serif" font-size="10.00">SetRotatorFromDirection</text>
</a>
</g>
</g>
<!-- Node2&#45;&gt;Node12 -->
<g id="edge11_Node000002_Node000012" class="edge">
<title>Node2&#45;&gt;Node12</title>
<g id="a_edge11_Node000002_Node000012"><a xlink:title=" ">
<path fill="none" stroke="#63b8ff" d="M244.58,-73.96C266.02,-61.95 304.8,-41.35 340,-28.5 346.81,-26.02 354.07,-23.75 361.31,-21.71"/>
<polygon fill="#63b8ff" stroke="#63b8ff" points="362.37,-25.05 371.12,-19.08 360.55,-18.29 362.37,-25.05"/>
</a>
</g>
</g>
<!-- Node4 -->
<g id="Node000004" class="node">
<title>Node4</title>
<g id="a_Node000004"><a xlink:href="math__util_8c.html#ae69cbf5c8d4b3b0dba2d7b4d4673689f" target="_top" xlink:title=" ">
<polygon fill="white" stroke="#666666" points="624.5,-204 586.5,-204 586.5,-185 624.5,-185 624.5,-204"/>
<text text-anchor="middle" x="605.5" y="-192" font-family="Helvetica,sans-Serif" font-size="10.00">coss</text>
</a>
</g>
</g>
<!-- Node3&#45;&gt;Node4 -->
<g id="edge3_Node000003_Node000004" class="edge">
<title>Node3&#45;&gt;Node4</title>
<g id="a_edge3_Node000003_Node000004"><a xlink:title=" ">
<path fill="none" stroke="#63b8ff" d="M466.4,-167.03C501.29,-173.97 547.37,-183.13 576.47,-188.92"/>
<polygon fill="#63b8ff" stroke="#63b8ff" points="575.88,-192.38 586.37,-190.89 577.25,-185.51 575.88,-192.38"/>
</a>
</g>
</g>
<!-- Node5 -->
<g id="Node000005" class="node">
<title>Node5</title>
<g id="a_Node000005"><a xlink:href="math__util_8c.html#a19ed3bd78fd2d3e2bd0a29f6caf48545" target="_top" xlink:title=" ">
<polygon fill="white" stroke="#666666" points="623.5,-167 587.5,-167 587.5,-148 623.5,-148 623.5,-167"/>
<text text-anchor="middle" x="605.5" y="-155" font-family="Helvetica,sans-Serif" font-size="10.00">sins</text>
</a>
</g>
</g>
<!-- Node3&#45;&gt;Node5 -->
<g id="edge4_Node000003_Node000005" class="edge">
<title>Node3&#45;&gt;Node5</title>
<g id="a_edge4_Node000003_Node000005"><a xlink:title=" ">
<path fill="none" stroke="#63b8ff" d="M495.23,-157.5C524.33,-157.5 555.63,-157.5 577.24,-157.5"/>
<polygon fill="#63b8ff" stroke="#63b8ff" points="577.31,-161 587.31,-157.5 577.31,-154 577.31,-161"/>
</a>
</g>
</g>
<!-- Node7 -->
<g id="Node000007" class="node">
<title>Node7</title>
<g id="a_Node000007"><a xlink:href="guMtxF2L_8c.html#a40ab2d64c609839ff1e0ef0de2d0dcc4" target="_top" xlink:title=" ">
<polygon fill="white" stroke="#666666" points="638,-130 573,-130 573,-111 638,-111 638,-130"/>
<text text-anchor="middle" x="605.5" y="-118" font-family="Helvetica,sans-Serif" font-size="10.00">guMtxF2L</text>
</a>
</g>
</g>
<!-- Node6&#45;&gt;Node7 -->
<g id="edge6_Node000006_Node000007" class="edge">
<title>Node6&#45;&gt;Node7</title>
<g id="a_edge6_Node000006_Node000007"><a xlink:title=" ">
<path fill="none" stroke="#63b8ff" d="M468.34,-120.5C497.83,-120.5 534.75,-120.5 562.7,-120.5"/>
<polygon fill="#63b8ff" stroke="#63b8ff" points="562.94,-124 572.94,-120.5 562.94,-117 562.94,-124"/>
</a>
</g>
</g>
<!-- Node10 -->
<g id="Node000010" class="node">
<title>Node10</title>
<g id="a_Node000010"><a xlink:href="Engine_8cpp.html#a223c8bc63f228dc11177515e38eff2db" target="_top" xlink:title=" ">
<polygon fill="white" stroke="#666666" points="680,-56 531,-56 531,-37 680,-37 680,-56"/>
<text text-anchor="middle" x="605.5" y="-44" font-family="Helvetica,sans-Serif" font-size="10.00">GameEngine_OTRSigCheck</text>
</a>
</g>
</g>
<!-- Node9&#45;&gt;Node10 -->
<g id="edge9_Node000009_Node000010" class="edge">
<title>Node9&#45;&gt;Node10</title>
<g id="a_edge9_Node000009_Node000010"><a xlink:title=" ">
<path fill="none" stroke="#63b8ff" d="M462.11,-46.5C479.65,-46.5 500.5,-46.5 520.76,-46.5"/>
<polygon fill="#63b8ff" stroke="#63b8ff" points="520.96,-50 530.96,-46.5 520.96,-43 520.96,-50"/>
</a>
</g>
</g>
<!-- Node11 -->
<g id="Node000011" class="node">
<title>Node11</title>
<g id="a_Node000011"><a xlink:href="string_8c.html#a008e171a518fe0e0352f31b245e03875" target="_top" xlink:title=" ">
<polygon fill="white" stroke="#666666" points="760,-56 716,-56 716,-37 760,-37 760,-56"/>
<text text-anchor="middle" x="738" y="-44" font-family="Helvetica,sans-Serif" font-size="10.00">strlen</text>
</a>
</g>
</g>
<!-- Node10&#45;&gt;Node11 -->
<g id="edge10_Node000010_Node000011" class="edge">
<title>Node10&#45;&gt;Node11</title>
<g id="a_edge10_Node000010_Node000011"><a xlink:title=" ">
<path fill="none" stroke="#63b8ff" d="M680.14,-46.5C689.12,-46.5 697.89,-46.5 705.75,-46.5"/>
<polygon fill="#63b8ff" stroke="#63b8ff" points="705.83,-50 715.83,-46.5 705.83,-43 705.83,-50"/>
</a>
</g>
</g>
</g>
</svg>
