<?xml version="1.0" encoding="UTF-8" standalone="no"?>
<!DOCTYPE svg PUBLIC "-//W3C//DTD SVG 1.1//EN"
 "http://www.w3.org/Graphics/SVG/1.1/DTD/svg11.dtd">
<!-- Generated by graphviz version 2.43.0 (0)
 -->
<!-- Title: BowsersCastle::Render Pages: 1 -->
<svg width="735pt" height="176pt"
 viewBox="0.00 0.00 735.00 176.00" xmlns="http://www.w3.org/2000/svg" xmlns:xlink="http://www.w3.org/1999/xlink">
<g id="graph0" class="graph" transform="scale(1 1) rotate(0) translate(4 172)">
<title>BowsersCastle::Render</title>
<!-- Node1 -->
<g id="Node000001" class="node">
<title>Node1</title>
<g id="a_Node000001"><a xlink:title=" ">
<polygon fill="#999999" stroke="#666666" points="129,-111 0,-111 0,-92 129,-92 129,-111"/>
<text text-anchor="middle" x="64.5" y="-99" font-family="Helvetica,sans-Serif" font-size="10.00">BowsersCastle::Render</text>
</a>
</g>
</g>
<!-- Node2 -->
<g id="Node000002" class="node">
<title>Node2</title>
<g id="a_Node000002"><a xlink:href="render__courses_8c.html#a9a9119b96bf015cf8b5a168485f67e3f" target="_top" xlink:title=" ">
<polygon fill="white" stroke="#666666" points="283,-168 191,-168 191,-149 283,-149 283,-168"/>
<text text-anchor="middle" x="237" y="-156" font-family="Helvetica,sans-Serif" font-size="10.00">func_80290C20</text>
</a>
</g>
</g>
<!-- Node1&#45;&gt;Node2 -->
<g id="edge1_Node000001_Node000002" class="edge">
<title>Node1&#45;&gt;Node2</title>
<g id="a_edge1_Node000001_Node000002"><a xlink:title=" ">
<path fill="none" stroke="#63b8ff" d="M94.04,-111.04C122.44,-120.53 166.21,-135.17 197.63,-145.67"/>
<polygon fill="#63b8ff" stroke="#63b8ff" points="196.78,-149.08 207.37,-148.93 198.99,-142.44 196.78,-149.08"/>
</a>
</g>
</g>
<!-- Node3 -->
<g id="Node000003" class="node">
<title>Node3</title>
<g id="a_Node000003"><a xlink:href="GBIMiddleware_8cpp.html#a4ecc44e3c6f1ca5a6b4a20c41d3bd2d2" target="_top" xlink:title=" ">
<polygon fill="white" stroke="#666666" points="448,-130 359,-130 359,-111 448,-111 448,-130"/>
<text text-anchor="middle" x="403.5" y="-118" font-family="Helvetica,sans-Serif" font-size="10.00">gSPDisplayList</text>
</a>
</g>
</g>
<!-- Node1&#45;&gt;Node3 -->
<g id="edge2_Node000001_Node000003" class="edge">
<title>Node1&#45;&gt;Node3</title>
<g id="a_edge2_Node000001_Node000003"><a xlink:title=" ">
<path fill="none" stroke="#63b8ff" d="M129.28,-105.1C192.65,-108.67 288.74,-114.09 348.46,-117.45"/>
<polygon fill="#63b8ff" stroke="#63b8ff" points="348.63,-120.97 358.81,-118.04 349.02,-113.98 348.63,-120.97"/>
</a>
</g>
</g>
<!-- Node6 -->
<g id="Node000006" class="node">
<title>Node6</title>
<g id="a_Node000006"><a xlink:href="render__courses_8c.html#a0c6536cf72cff97ccc3ed5c85967817e" target="_top" xlink:title=" ">
<polygon fill="white" stroke="#666666" points="306.5,-92 167.5,-92 167.5,-73 306.5,-73 306.5,-92"/>
<text text-anchor="middle" x="237" y="-80" font-family="Helvetica,sans-Serif" font-size="10.00">render_course_segments</text>
</a>
</g>
</g>
<!-- Node1&#45;&gt;Node6 -->
<g id="edge5_Node000001_Node000006" class="edge">
<title>Node1&#45;&gt;Node6</title>
<g id="a_edge5_Node000001_Node000006"><a xlink:title=" ">
<path fill="none" stroke="#63b8ff" d="M129.47,-94.37C138.56,-93.36 148,-92.31 157.33,-91.27"/>
<polygon fill="#63b8ff" stroke="#63b8ff" points="157.84,-94.73 167.39,-90.15 157.06,-87.77 157.84,-94.73"/>
</a>
</g>
</g>
<!-- Node10 -->
<g id="Node000010" class="node">
<title>Node10</title>
<g id="a_Node000010"><a xlink:href="memory_8c.html#a8f7f3165d1a5092720aa26d9502bb678" target="_top" xlink:title=" ">
<polygon fill="white" stroke="#666666" points="309,-55 165,-55 165,-36 309,-36 309,-55"/>
<text text-anchor="middle" x="237" y="-43" font-family="Helvetica,sans-Serif" font-size="10.00">segmented_gfx_to_virtual</text>
</a>
</g>
</g>
<!-- Node1&#45;&gt;Node10 -->
<g id="edge10_Node000001_Node000010" class="edge">
<title>Node1&#45;&gt;Node10</title>
<g id="a_edge10_Node000001_Node000010"><a xlink:title=" ">
<path fill="none" stroke="#63b8ff" d="M89.41,-91.89C109.42,-84.01 138.84,-72.84 165,-64.5 172.27,-62.18 180.02,-59.91 187.62,-57.79"/>
<polygon fill="#63b8ff" stroke="#63b8ff" points="188.76,-61.11 197.49,-55.1 186.92,-54.35 188.76,-61.11"/>
</a>
</g>
</g>
<!-- Node4 -->
<g id="Node000004" class="node">
<title>Node4</title>
<g id="a_Node000004"><a xlink:href="Engine_8cpp.html#a223c8bc63f228dc11177515e38eff2db" target="_top" xlink:title=" ">
<polygon fill="white" stroke="#666666" points="647,-130 498,-130 498,-111 647,-111 647,-130"/>
<text text-anchor="middle" x="572.5" y="-118" font-family="Helvetica,sans-Serif" font-size="10.00">GameEngine_OTRSigCheck</text>
</a>
</g>
</g>
<!-- Node3&#45;&gt;Node4 -->
<g id="edge3_Node000003_Node000004" class="edge">
<title>Node3&#45;&gt;Node4</title>
<g id="a_edge3_Node000003_Node000004"><a xlink:title=" ">
<path fill="none" stroke="#63b8ff" d="M448.38,-120.5C460.47,-120.5 474,-120.5 487.55,-120.5"/>
<polygon fill="#63b8ff" stroke="#63b8ff" points="487.89,-124 497.89,-120.5 487.89,-117 487.89,-124"/>
</a>
</g>
</g>
<!-- Node5 -->
<g id="Node000005" class="node">
<title>Node5</title>
<g id="a_Node000005"><a xlink:href="string_8c.html#a008e171a518fe0e0352f31b245e03875" target="_top" xlink:title=" ">
<polygon fill="white" stroke="#666666" points="727,-130 683,-130 683,-111 727,-111 727,-130"/>
<text text-anchor="middle" x="705" y="-118" font-family="Helvetica,sans-Serif" font-size="10.00">strlen</text>
</a>
</g>
</g>
<!-- Node4&#45;&gt;Node5 -->
<g id="edge4_Node000004_Node000005" class="edge">
<title>Node4&#45;&gt;Node5</title>
<g id="a_edge4_Node000004_Node000005"><a xlink:title=" ">
<path fill="none" stroke="#63b8ff" d="M647.14,-120.5C656.12,-120.5 664.89,-120.5 672.75,-120.5"/>
<polygon fill="#63b8ff" stroke="#63b8ff" points="672.83,-124 682.83,-120.5 672.83,-117 672.83,-124"/>
</a>
</g>
</g>
<!-- Node6&#45;&gt;Node3 -->
<g id="edge7_Node000006_Node000003" class="edge">
<title>Node6&#45;&gt;Node3</title>
<g id="a_edge7_Node000006_Node000003"><a xlink:title=" ">
<path fill="none" stroke="#63b8ff" d="M279.51,-92.09C301.32,-97.13 328.23,-103.34 351.32,-108.68"/>
<polygon fill="#63b8ff" stroke="#63b8ff" points="350.76,-112.14 361.29,-110.98 352.33,-105.32 350.76,-112.14"/>
</a>
</g>
</g>
<!-- Node7 -->
<g id="Node000007" class="node">
<title>Node7</title>
<g id="a_Node000007"><a xlink:href="collision_8c.html#a053809031f467d0a6747788211e0ec69" target="_top" xlink:title=" ">
<polygon fill="white" stroke="#666666" points="462,-93 345,-93 345,-74 462,-74 462,-93"/>
<text text-anchor="middle" x="403.5" y="-81" font-family="Helvetica,sans-Serif" font-size="10.00">get_track_section_id</text>
</a>
</g>
</g>
<!-- Node6&#45;&gt;Node7 -->
<g id="edge6_Node000006_Node000007" class="edge">
<title>Node6&#45;&gt;Node7</title>
<g id="a_edge6_Node000006_Node000007"><a xlink:title=" ">
<path fill="none" stroke="#63b8ff" d="M306.81,-82.92C316.02,-82.97 325.46,-83.03 334.66,-83.09"/>
<polygon fill="#63b8ff" stroke="#63b8ff" points="334.89,-86.59 344.91,-83.15 334.93,-79.59 334.89,-86.59"/>
</a>
</g>
</g>
<!-- Node8 -->
<g id="Node000008" class="node">
<title>Node8</title>
<g id="a_Node000008"><a xlink:href="Game_8cpp.html#a8ebd6a4d970e4333ab5a9dd66c3d9c48" target="_top" xlink:title=" ">
<polygon fill="white" stroke="#666666" points="452,-56 355,-56 355,-37 452,-37 452,-56"/>
<text text-anchor="middle" x="403.5" y="-44" font-family="Helvetica,sans-Serif" font-size="10.00">IsBowsersCastle</text>
</a>
</g>
</g>
<!-- Node6&#45;&gt;Node8 -->
<g id="edge8_Node000006_Node000008" class="edge">
<title>Node6&#45;&gt;Node8</title>
<g id="a_edge8_Node000006_Node000008"><a xlink:title=" ">
<path fill="none" stroke="#63b8ff" d="M281.65,-72.95C302.37,-68.41 327.31,-62.95 349.14,-58.18"/>
<polygon fill="#63b8ff" stroke="#63b8ff" points="349.91,-61.59 358.93,-56.03 348.41,-54.75 349.91,-61.59"/>
</a>
</g>
</g>
<!-- Node9 -->
<g id="Node000009" class="node">
<title>Node9</title>
<g id="a_Node000009"><a xlink:href="Game_8cpp.html#a9f5c2ace915f66e850628695f297b1ff" target="_top" xlink:title=" ">
<polygon fill="white" stroke="#666666" points="454,-19 353,-19 353,0 454,0 454,-19"/>
<text text-anchor="middle" x="403.5" y="-7" font-family="Helvetica,sans-Serif" font-size="10.00">IsChocoMountain</text>
</a>
</g>
</g>
<!-- Node6&#45;&gt;Node9 -->
<g id="edge9_Node000006_Node000009" class="edge">
<title>Node6&#45;&gt;Node9</title>
<g id="a_edge9_Node000006_Node000009"><a xlink:title=" ">
<path fill="none" stroke="#63b8ff" d="M289.7,-72.9C296.42,-70.66 303.03,-67.89 309,-64.5 328.67,-53.32 325.74,-40.37 345,-28.5 348.38,-26.42 352.01,-24.54 355.75,-22.84"/>
<polygon fill="#63b8ff" stroke="#63b8ff" points="357.22,-26.02 365.17,-19.01 354.58,-19.54 357.22,-26.02"/>
</a>
</g>
</g>
</g>
</svg>
