<?xml version="1.0" encoding="UTF-8" standalone="no"?>
<!DOCTYPE svg PUBLIC "-//W3C//DTD SVG 1.1//EN"
 "http://www.w3.org/Graphics/SVG/1.1/DTD/svg11.dtd">
<!-- Generated by graphviz version 2.43.0 (0)
 -->
<!-- Title: Ship::Menu::DrawElement Pages: 1 -->
<svg width="1347pt" height="859pt"
 viewBox="0.00 0.00 1347.00 858.50" xmlns="http://www.w3.org/2000/svg" xmlns:xlink="http://www.w3.org/1999/xlink">
<g id="graph0" class="graph" transform="scale(1 1) rotate(0) translate(4 854.5)">
<title>Ship::Menu::DrawElement</title>
<!-- Node1 -->
<g id="Node000001" class="node">
<title>Node1</title>
<g id="a_Node000001"><a xlink:title=" ">
<polygon fill="#999999" stroke="#666666" points="143,-432 0,-432 0,-413 143,-413 143,-432"/>
<text text-anchor="middle" x="71.5" y="-420" font-family="Helvetica,sans-Serif" font-size="10.00">Ship::Menu::DrawElement</text>
</a>
</g>
</g>
<!-- Node2 -->
<g id="Node000002" class="node">
<title>Node2</title>
<g id="a_Node000002"><a xlink:href="namespaceUIWidgets.html#aff1b4b5ec89aa4afa79223288c55a91e" target="_top" xlink:title=" ">
<polygon fill="white" stroke="#666666" points="1118,-670 1013,-670 1013,-651 1118,-651 1118,-670"/>
<text text-anchor="middle" x="1065.5" y="-658" font-family="Helvetica,sans-Serif" font-size="10.00">UIWidgets::Button</text>
</a>
</g>
</g>
<!-- Node1&#45;&gt;Node2 -->
<g id="edge1_Node000001_Node000002" class="edge">
<title>Node1&#45;&gt;Node2</title>
<g id="a_edge1_Node000001_Node000002"><a xlink:title=" ">
<path fill="none" stroke="#63b8ff" d="M78.11,-432.24C109.44,-485.24 268.61,-736.5 470,-736.5 470,-736.5 470,-736.5 679.5,-736.5 808.46,-736.5 957.19,-694.95 1025.96,-673.3"/>
<polygon fill="#63b8ff" stroke="#63b8ff" points="1027.44,-676.5 1035.9,-670.13 1025.31,-669.83 1027.44,-676.5"/>
</a>
</g>
</g>
<!-- Node3 -->
<g id="Node000003" class="node">
<title>Node3</title>
<g id="a_Node000003"><a xlink:href="namespaceUIWidgets.html#a2af1f9ddf2209195e9ad4c2edefdec19" target="_top" xlink:title=" ">
<polygon fill="white" stroke="#666666" points="1336.5,-784 1188.5,-784 1188.5,-765 1336.5,-765 1336.5,-784"/>
<text text-anchor="middle" x="1262.5" y="-772" font-family="Helvetica,sans-Serif" font-size="10.00">UIWidgets::PopStyleButton</text>
</a>
</g>
</g>
<!-- Node1&#45;&gt;Node3 -->
<g id="edge55_Node000001_Node000003" class="edge">
<title>Node1&#45;&gt;Node3</title>
<g id="a_edge55_Node000001_Node000003"><a xlink:title=" ">
<path fill="none" stroke="#63b8ff" d="M72.94,-432.21C75.37,-474.48 90.51,-644.5 179,-738.5 273.99,-839.41 331.42,-850.5 470,-850.5 470,-850.5 470,-850.5 874,-850.5 997.54,-850.5 1030.11,-847.29 1150,-817.5 1178.59,-810.4 1209.77,-797.94 1231.86,-788.26"/>
<polygon fill="#63b8ff" stroke="#63b8ff" points="1233.33,-791.44 1241.04,-784.17 1230.48,-785.05 1233.33,-791.44"/>
</a>
</g>
</g>
<!-- Node4 -->
<g id="Node000004" class="node">
<title>Node4</title>
<g id="a_Node000004"><a xlink:href="namespaceUIWidgets.html#a7bf63e353090d99c90ff183fff2b582f" target="_top" xlink:title=" ">
<polygon fill="white" stroke="#666666" points="1339,-708 1186,-708 1186,-689 1339,-689 1339,-708"/>
<text text-anchor="middle" x="1262.5" y="-696" font-family="Helvetica,sans-Serif" font-size="10.00">UIWidgets::PushStyleButton</text>
</a>
</g>
</g>
<!-- Node1&#45;&gt;Node4 -->
<g id="edge59_Node000001_Node000004" class="edge">
<title>Node1&#45;&gt;Node4</title>
<g id="a_edge59_Node000001_Node000004"><a xlink:title=" ">
<path fill="none" stroke="#63b8ff" d="M74.57,-432.17C82.38,-466.62 113.04,-585.04 179,-655.5 279.43,-762.79 323.04,-812.5 470,-812.5 470,-812.5 470,-812.5 679.5,-812.5 888.4,-812.5 1131.75,-740.89 1223.72,-711.18"/>
<polygon fill="#63b8ff" stroke="#63b8ff" points="1225,-714.45 1233.42,-708.02 1222.83,-707.79 1225,-714.45"/>
</a>
</g>
</g>
<!-- Node7 -->
<g id="Node000007" class="node">
<title>Node7</title>
<g id="a_Node000007"><a xlink:href="classShip_1_1Menu.html#a93c1cecb59051f4d9b31f1cab0b577f4" target="_top" xlink:title=" ">
<polygon fill="white" stroke="#666666" points="350,-432 179,-432 179,-413 350,-413 350,-432"/>
<text text-anchor="middle" x="264.5" y="-420" font-family="Helvetica,sans-Serif" font-size="10.00">Ship::Menu::DrawSearchResults</text>
</a>
</g>
</g>
<!-- Node1&#45;&gt;Node7 -->
<g id="edge6_Node000001_Node000007" class="edge">
<title>Node1&#45;&gt;Node7</title>
<g id="a_edge6_Node000001_Node000007"><a xlink:title=" ">
<path fill="none" stroke="#63b8ff" d="M143.08,-422.5C151.48,-422.5 160.16,-422.5 168.83,-422.5"/>
<polygon fill="#63b8ff" stroke="#63b8ff" points="168.98,-426 178.98,-422.5 168.98,-419 168.98,-426"/>
</a>
</g>
</g>
<!-- Node8 -->
<g id="Node000008" class="node">
<title>Node8</title>
<g id="a_Node000008"><a xlink:href="classShip_1_1Menu.html#a260af6187999b8381769c55c122dc2ee" target="_top" xlink:title=" ">
<polygon fill="white" stroke="#666666" points="547,-432 395,-432 395,-413 547,-413 547,-432"/>
<text text-anchor="middle" x="471" y="-420" font-family="Helvetica,sans-Serif" font-size="10.00">Ship::Menu::MenuDrawItem</text>
</a>
</g>
</g>
<!-- Node1&#45;&gt;Node8 -->
<g id="edge50_Node000001_Node000008" class="edge">
<title>Node1&#45;&gt;Node8</title>
<g id="a_edge50_Node000001_Node000008"><a xlink:title=" ">
<path fill="none" stroke="#63b8ff" d="M115.79,-432.01C135.04,-435.78 158.05,-439.65 179,-441.5 254.7,-448.2 274.23,-447.46 350,-441.5 370.06,-439.92 391.82,-436.88 411.24,-433.69"/>
<polygon fill="#63b8ff" stroke="#63b8ff" points="411.89,-437.13 421.16,-432.01 410.72,-430.23 411.89,-437.13"/>
</a>
</g>
</g>
<!-- Node30 -->
<g id="Node000030" class="node">
<title>Node30</title>
<g id="a_Node000030"><a xlink:href="structMenuInit.html#a54de6672f1a266b1a0c2975b80510839" target="_top" xlink:title=" ">
<polygon fill="white" stroke="#666666" points="337.5,-395 191.5,-395 191.5,-376 337.5,-376 337.5,-395"/>
<text text-anchor="middle" x="264.5" y="-383" font-family="Helvetica,sans-Serif" font-size="10.00">MenuInit::GetUpdateFuncs</text>
</a>
</g>
</g>
<!-- Node1&#45;&gt;Node30 -->
<g id="edge49_Node000001_Node000030" class="edge">
<title>Node1&#45;&gt;Node30</title>
<g id="a_edge49_Node000001_Node000030"><a xlink:title=" ">
<path fill="none" stroke="#63b8ff" d="M121.69,-412.97C146.88,-408.09 177.74,-402.11 204.23,-396.98"/>
<polygon fill="#63b8ff" stroke="#63b8ff" points="205,-400.4 214.15,-395.06 203.66,-393.53 205,-400.4"/>
</a>
</g>
</g>
<!-- Node31 -->
<g id="Node000031" class="node">
<title>Node31</title>
<g id="a_Node000031"><a xlink:href="namespaceShip.html#aba08caf4233c23c01fbfd2853ee9a6d1" target="_top" xlink:title=" ">
<polygon fill="white" stroke="#666666" points="555,-172 387,-172 387,-153 555,-153 555,-172"/>
<text text-anchor="middle" x="471" y="-160" font-family="Helvetica,sans-Serif" font-size="10.00">Ship::ModernMenuHeaderEntry</text>
</a>
</g>
</g>
<!-- Node1&#45;&gt;Node31 -->
<g id="edge51_Node000001_Node000031" class="edge">
<title>Node1&#45;&gt;Node31</title>
<g id="a_edge51_Node000001_Node000031"><a xlink:title=" ">
<path fill="none" stroke="#63b8ff" d="M78.92,-412.84C94.07,-390.67 134.13,-335.42 179,-301.5 260.06,-240.22 372.45,-195.96 431,-175.39"/>
<polygon fill="#63b8ff" stroke="#63b8ff" points="432.31,-178.65 440.61,-172.06 430.01,-172.03 432.31,-178.65"/>
</a>
</g>
</g>
<!-- Node32 -->
<g id="Node000032" class="node">
<title>Node32</title>
<g id="a_Node000032"><a xlink:href="namespaceShip.html#a63dcf986e97fa1416fb6532800dbc391" target="_top" xlink:title=" ">
<polygon fill="white" stroke="#666666" points="556,-275 386,-275 386,-256 556,-256 556,-275"/>
<text text-anchor="middle" x="471" y="-263" font-family="Helvetica,sans-Serif" font-size="10.00">Ship::ModernMenuSidebarEntry</text>
</a>
</g>
</g>
<!-- Node1&#45;&gt;Node32 -->
<g id="edge53_Node000001_Node000032" class="edge">
<title>Node1&#45;&gt;Node32</title>
<g id="a_edge53_Node000001_Node000032"><a xlink:title=" ">
<path fill="none" stroke="#63b8ff" d="M89.12,-412.99C109.78,-401.39 146.32,-381.58 179,-367.5 265.73,-330.12 371.11,-295.82 428.25,-278.11"/>
<polygon fill="#63b8ff" stroke="#63b8ff" points="429.49,-281.39 438.01,-275.1 427.42,-274.7 429.49,-281.39"/>
</a>
</g>
</g>
<!-- Node33 -->
<g id="Node000033" class="node">
<title>Node33</title>
<g id="a_Node000033"><a xlink:href="classShip_1_1Menu.html#ae0cf43a65719c392abe2e673a0c677ba" target="_top" xlink:title=" ">
<polygon fill="white" stroke="#666666" points="335.5,-167 193.5,-167 193.5,-148 335.5,-148 335.5,-167"/>
<text text-anchor="middle" x="264.5" y="-155" font-family="Helvetica,sans-Serif" font-size="10.00">Ship::Menu::ProcessReset</text>
</a>
</g>
</g>
<!-- Node1&#45;&gt;Node33 -->
<g id="edge56_Node000001_Node000033" class="edge">
<title>Node1&#45;&gt;Node33</title>
<g id="a_edge56_Node000001_Node000033"><a xlink:title=" ">
<path fill="none" stroke="#63b8ff" d="M77.37,-412.88C91.39,-385.6 133.72,-305.84 179,-246.5 199.74,-219.33 227.67,-191.26 245.63,-174.09"/>
<polygon fill="#63b8ff" stroke="#63b8ff" points="248.26,-176.42 253.12,-167.01 243.45,-171.33 248.26,-176.42"/>
</a>
</g>
</g>
<!-- Node2&#45;&gt;Node3 -->
<g id="edge2_Node000002_Node000003" class="edge">
<title>Node2&#45;&gt;Node3</title>
<g id="a_edge2_Node000002_Node000003"><a xlink:title=" ">
<path fill="none" stroke="#63b8ff" d="M1082.79,-670.02C1116.84,-689.93 1195.76,-736.07 1236.37,-759.81"/>
<polygon fill="#63b8ff" stroke="#63b8ff" points="1234.72,-762.9 1245.12,-764.92 1238.25,-756.85 1234.72,-762.9"/>
</a>
</g>
</g>
<!-- Node2&#45;&gt;Node4 -->
<g id="edge3_Node000002_Node000004" class="edge">
<title>Node2&#45;&gt;Node4</title>
<g id="a_edge3_Node000002_Node000004"><a xlink:title=" ">
<path fill="none" stroke="#63b8ff" d="M1115.46,-670.04C1141.88,-675.19 1174.69,-681.58 1202.52,-687.01"/>
<polygon fill="#63b8ff" stroke="#63b8ff" points="1202.04,-690.48 1212.52,-688.96 1203.38,-683.61 1202.04,-690.48"/>
</a>
</g>
</g>
<!-- Node5 -->
<g id="Node000005" class="node">
<title>Node5</title>
<g id="a_Node000005"><a xlink:href="ShipUtils_8cpp.html#a31d87083f0db90738310ec533f7e9d17" target="_top" xlink:title=" ">
<polygon fill="white" stroke="#666666" points="1321.5,-532 1203.5,-532 1203.5,-513 1321.5,-513 1321.5,-532"/>
<text text-anchor="middle" x="1262.5" y="-520" font-family="Helvetica,sans-Serif" font-size="10.00">Ship_IsCStringEmpty</text>
</a>
</g>
</g>
<!-- Node2&#45;&gt;Node5 -->
<g id="edge4_Node000002_Node000005" class="edge">
<title>Node2&#45;&gt;Node5</title>
<g id="a_edge4_Node000002_Node000005"><a xlink:title=" ">
<path fill="none" stroke="#63b8ff" d="M1115.5,-650.97C1127.3,-647.46 1139.51,-642.76 1150,-636.5 1192.55,-611.1 1230.12,-565.48 1248.86,-540.34"/>
<polygon fill="#63b8ff" stroke="#63b8ff" points="1251.82,-542.22 1254.89,-532.08 1246.17,-538.09 1251.82,-542.22"/>
</a>
</g>
</g>
<!-- Node6 -->
<g id="Node000006" class="node">
<title>Node6</title>
<g id="a_Node000006"><a xlink:href="namespaceUIWidgets.html#a01b8f77a826ec1dcc1ee8c9a21c219d6" target="_top" xlink:title=" ">
<polygon fill="white" stroke="#666666" points="1331,-356 1194,-356 1194,-337 1331,-337 1331,-356"/>
<text text-anchor="middle" x="1262.5" y="-344" font-family="Helvetica,sans-Serif" font-size="10.00">UIWidgets::WrappedText</text>
</a>
</g>
</g>
<!-- Node2&#45;&gt;Node6 -->
<g id="edge5_Node000002_Node000006" class="edge">
<title>Node2&#45;&gt;Node6</title>
<g id="a_edge5_Node000002_Node000006"><a xlink:title=" ">
<path fill="none" stroke="#63b8ff" d="M1084.86,-650.99C1103.58,-640.44 1132.32,-621.8 1150,-598.5 1177.04,-562.86 1168.34,-545.6 1186,-504.5 1207.9,-453.53 1236.94,-394.94 1251.81,-365.49"/>
<polygon fill="#63b8ff" stroke="#63b8ff" points="1255.05,-366.86 1256.45,-356.36 1248.81,-363.69 1255.05,-366.86"/>
</a>
</g>
</g>
<!-- Node7&#45;&gt;Node8 -->
<g id="edge7_Node000007_Node000008" class="edge">
<title>Node7&#45;&gt;Node8</title>
<g id="a_edge7_Node000007_Node000008"><a xlink:title=" ">
<path fill="none" stroke="#63b8ff" d="M350.15,-415.84C361.51,-415.72 373.17,-415.72 384.54,-415.83"/>
<polygon fill="#63b8ff" stroke="#63b8ff" points="384.84,-419.34 394.88,-415.97 384.93,-412.34 384.84,-419.34"/>
</a>
</g>
</g>
<!-- Node8&#45;&gt;Node2 -->
<g id="edge8_Node000008_Node000002" class="edge">
<title>Node8&#45;&gt;Node2</title>
<g id="a_edge8_Node000008_Node000002"><a xlink:title=" ">
<path fill="none" stroke="#63b8ff" d="M478.5,-432.3C494.63,-455.81 539.08,-515.58 592,-544.5 662.33,-582.94 867.8,-596.94 945,-618.5 974.28,-626.68 1006.79,-638.27 1030.5,-647.21"/>
<polygon fill="#63b8ff" stroke="#63b8ff" points="1029.49,-650.57 1040.08,-650.86 1031.98,-644.03 1029.49,-650.57"/>
</a>
</g>
</g>
<!-- Node8&#45;&gt;Node3 -->
<g id="edge38_Node000008_Node000003" class="edge">
<title>Node8&#45;&gt;Node3</title>
<g id="a_edge38_Node000008_Node000003"><a xlink:title=" ">
<path fill="none" stroke="#63b8ff" d="M472.62,-432.09C475.85,-473.7 494.66,-639.77 592,-712.5 781.22,-853.88 1089.61,-810.49 1210.55,-786.1"/>
<polygon fill="#63b8ff" stroke="#63b8ff" points="1211.55,-789.47 1220.64,-784.02 1210.14,-782.61 1211.55,-789.47"/>
</a>
</g>
</g>
<!-- Node8&#45;&gt;Node4 -->
<g id="edge40_Node000008_Node000004" class="edge">
<title>Node8&#45;&gt;Node4</title>
<g id="a_edge40_Node000008_Node000004"><a xlink:title=" ">
<path fill="none" stroke="#63b8ff" d="M473.02,-432.25C477.7,-471.63 501.04,-619.76 592,-679.5 685.56,-740.95 1017.04,-720.72 1175.68,-706.91"/>
<polygon fill="#63b8ff" stroke="#63b8ff" points="1176.22,-710.38 1185.88,-706.01 1175.61,-703.4 1176.22,-710.38"/>
</a>
</g>
</g>
<!-- Node8&#45;&gt;Node6 -->
<g id="edge48_Node000008_Node000006" class="edge">
<title>Node8&#45;&gt;Node6</title>
<g id="a_edge48_Node000008_Node000006"><a xlink:title=" ">
<path fill="none" stroke="#63b8ff" d="M480.38,-412.74C498.36,-392.64 543.03,-347.11 592,-330.5 814.35,-255.07 1102.52,-308.6 1214.3,-334.57"/>
<polygon fill="#63b8ff" stroke="#63b8ff" points="1213.71,-338.03 1224.24,-336.92 1215.31,-331.22 1213.71,-338.03"/>
</a>
</g>
</g>
<!-- Node8&#45;&gt;Node7 -->
<g id="edge37_Node000008_Node000007" class="edge">
<title>Node8&#45;&gt;Node7</title>
<g id="a_edge37_Node000008_Node000007"><a xlink:title=" ">
<path fill="none" stroke="#63b8ff" d="M394.88,-429.03C383.63,-429.22 371.9,-429.28 360.3,-429.23"/>
<polygon fill="#63b8ff" stroke="#63b8ff" points="360.18,-425.73 350.15,-429.16 360.13,-432.73 360.18,-425.73"/>
</a>
</g>
</g>
<!-- Node9 -->
<g id="Node000009" class="node">
<title>Node9</title>
<g id="a_Node000009"><a xlink:href="namespaceUIWidgets.html#a28268b432c9b36af9e83d12b8b28bb35" target="_top" xlink:title=" ">
<polygon fill="white" stroke="#666666" points="933.5,-242 812.5,-242 812.5,-223 933.5,-223 933.5,-242"/>
<text text-anchor="middle" x="873" y="-230" font-family="Helvetica,sans-Serif" font-size="10.00">UIWidgets::Checkbox</text>
</a>
</g>
</g>
<!-- Node8&#45;&gt;Node9 -->
<g id="edge9_Node000008_Node000009" class="edge">
<title>Node8&#45;&gt;Node9</title>
<g id="a_edge9_Node000008_Node000009"><a xlink:title=" ">
<path fill="none" stroke="#63b8ff" d="M478.21,-412.79C494.04,-388.89 538.44,-326.97 592,-296.5 611.13,-285.62 737.08,-259.3 813.39,-244.02"/>
<polygon fill="#63b8ff" stroke="#63b8ff" points="814.23,-247.42 823.35,-242.03 812.86,-240.55 814.23,-247.42"/>
</a>
</g>
</g>
<!-- Node14 -->
<g id="Node000014" class="node">
<title>Node14</title>
<g id="a_Node000014"><a xlink:href="namespaceUIWidgets.html#ab602d66bd389006842f8da46eabf9064" target="_top" xlink:title=" ">
<polygon fill="white" stroke="#666666" points="741,-432 616,-432 616,-413 741,-413 741,-432"/>
<text text-anchor="middle" x="678.5" y="-420" font-family="Helvetica,sans-Serif" font-size="10.00">UIWidgets::Combobox</text>
</a>
</g>
</g>
<!-- Node8&#45;&gt;Node14 -->
<g id="edge16_Node000008_Node000014" class="edge">
<title>Node8&#45;&gt;Node14</title>
<g id="a_edge16_Node000008_Node000014"><a xlink:title=" ">
<path fill="none" stroke="#63b8ff" d="M547.06,-422.5C566.21,-422.5 586.74,-422.5 605.72,-422.5"/>
<polygon fill="#63b8ff" stroke="#63b8ff" points="605.78,-426 615.78,-422.5 605.78,-419 605.78,-426"/>
</a>
</g>
</g>
<!-- Node15 -->
<g id="Node000015" class="node">
<title>Node15</title>
<g id="a_Node000015"><a xlink:href="namespaceUIWidgets.html#a00594a753bd5ce2c3f4f48f22aac4927" target="_top" xlink:title=" ">
<polygon fill="white" stroke="#666666" points="750,-244 607,-244 607,-225 750,-225 750,-244"/>
<text text-anchor="middle" x="678.5" y="-232" font-family="Helvetica,sans-Serif" font-size="10.00">UIWidgets::CVarCheckbox</text>
</a>
</g>
</g>
<!-- Node8&#45;&gt;Node15 -->
<g id="edge17_Node000008_Node000015" class="edge">
<title>Node8&#45;&gt;Node15</title>
<g id="a_edge17_Node000008_Node000015"><a xlink:title=" ">
<path fill="none" stroke="#63b8ff" d="M476.33,-412.61C489.37,-384.03 531.12,-300.72 592,-258.5 598.41,-254.05 605.63,-250.42 613.09,-247.47"/>
<polygon fill="#63b8ff" stroke="#63b8ff" points="614.38,-250.72 622.62,-244.07 612.03,-244.13 614.38,-250.72"/>
</a>
</g>
</g>
<!-- Node16 -->
<g id="Node000016" class="node">
<title>Node16</title>
<g id="a_Node000016"><a xlink:href="namespaceUIWidgets.html#af437875c420b0efc91e3c8b435977b3d" target="_top" xlink:title=" ">
<polygon fill="white" stroke="#666666" points="752.5,-395 604.5,-395 604.5,-376 752.5,-376 752.5,-395"/>
<text text-anchor="middle" x="678.5" y="-383" font-family="Helvetica,sans-Serif" font-size="10.00">UIWidgets::CVarCombobox</text>
</a>
</g>
</g>
<!-- Node8&#45;&gt;Node16 -->
<g id="edge19_Node000008_Node000016" class="edge">
<title>Node8&#45;&gt;Node16</title>
<g id="a_edge19_Node000008_Node000016"><a xlink:title=" ">
<path fill="none" stroke="#63b8ff" d="M524.92,-412.97C552.26,-408.05 585.81,-402.01 614.48,-396.85"/>
<polygon fill="#63b8ff" stroke="#63b8ff" points="615.18,-400.28 624.4,-395.06 613.94,-393.39 615.18,-400.28"/>
</a>
</g>
</g>
<!-- Node17 -->
<g id="Node000017" class="node">
<title>Node17</title>
<g id="a_Node000017"><a xlink:href="namespaceUIWidgets.html#a707b643070c52c19ea01918db52526f3" target="_top" xlink:title=" ">
<polygon fill="white" stroke="#666666" points="752.5,-358 604.5,-358 604.5,-339 752.5,-339 752.5,-358"/>
<text text-anchor="middle" x="678.5" y="-346" font-family="Helvetica,sans-Serif" font-size="10.00">UIWidgets::CVarSliderFloat</text>
</a>
</g>
</g>
<!-- Node8&#45;&gt;Node17 -->
<g id="edge20_Node000008_Node000017" class="edge">
<title>Node8&#45;&gt;Node17</title>
<g id="a_edge20_Node000008_Node000017"><a xlink:title=" ">
<path fill="none" stroke="#63b8ff" d="M489.81,-412.89C512.83,-400.81 554.42,-380.13 592,-367.5 599.87,-364.85 608.28,-362.47 616.63,-360.36"/>
<polygon fill="#63b8ff" stroke="#63b8ff" points="617.48,-363.76 626.38,-358.01 615.84,-356.95 617.48,-363.76"/>
</a>
</g>
</g>
<!-- Node18 -->
<g id="Node000018" class="node">
<title>Node18</title>
<g id="a_Node000018"><a xlink:href="namespaceUIWidgets.html#ab0e1dc2ac8062d0124cef3260da95506" target="_top" xlink:title=" ">
<polygon fill="white" stroke="#666666" points="935.5,-470 810.5,-470 810.5,-451 935.5,-451 935.5,-470"/>
<text text-anchor="middle" x="873" y="-458" font-family="Helvetica,sans-Serif" font-size="10.00">UIWidgets::SliderFloat</text>
</a>
</g>
</g>
<!-- Node8&#45;&gt;Node18 -->
<g id="edge43_Node000008_Node000018" class="edge">
<title>Node8&#45;&gt;Node18</title>
<g id="a_edge43_Node000008_Node000018"><a xlink:title=" ">
<path fill="none" stroke="#63b8ff" d="M525.62,-432.04C546.31,-435.44 570.2,-439.04 592,-441.5 662.53,-449.46 743.47,-454.51 800.12,-457.39"/>
<polygon fill="#63b8ff" stroke="#63b8ff" points="800.25,-460.9 810.41,-457.9 800.59,-453.91 800.25,-460.9"/>
</a>
</g>
</g>
<!-- Node23 -->
<g id="Node000023" class="node">
<title>Node23</title>
<g id="a_Node000023"><a xlink:href="namespaceUIWidgets.html#aaddc51b941be51b819be66b4c62ebc5d" target="_top" xlink:title=" ">
<polygon fill="white" stroke="#666666" points="746.5,-508 610.5,-508 610.5,-489 746.5,-489 746.5,-508"/>
<text text-anchor="middle" x="678.5" y="-496" font-family="Helvetica,sans-Serif" font-size="10.00">UIWidgets::CVarSliderInt</text>
</a>
</g>
</g>
<!-- Node8&#45;&gt;Node23 -->
<g id="edge29_Node000008_Node000023" class="edge">
<title>Node8&#45;&gt;Node23</title>
<g id="a_edge29_Node000008_Node000023"><a xlink:title=" ">
<path fill="none" stroke="#63b8ff" d="M492.05,-432.18C515.61,-443.33 556.06,-461.73 592,-474.5 604.04,-478.78 617.24,-482.8 629.59,-486.28"/>
<polygon fill="#63b8ff" stroke="#63b8ff" points="628.7,-489.67 639.27,-488.96 630.57,-482.92 628.7,-489.67"/>
</a>
</g>
</g>
<!-- Node24 -->
<g id="Node000024" class="node">
<title>Node24</title>
<g id="a_Node000024"><a xlink:href="namespaceUIWidgets.html#a2eebccc487beff83c49f24c18987e684" target="_top" xlink:title=" ">
<polygon fill="white" stroke="#666666" points="929.5,-546 816.5,-546 816.5,-527 929.5,-527 929.5,-546"/>
<text text-anchor="middle" x="873" y="-534" font-family="Helvetica,sans-Serif" font-size="10.00">UIWidgets::SliderInt</text>
</a>
</g>
</g>
<!-- Node8&#45;&gt;Node24 -->
<g id="edge44_Node000008_Node000024" class="edge">
<title>Node8&#45;&gt;Node24</title>
<g id="a_edge44_Node000008_Node000024"><a xlink:title=" ">
<path fill="none" stroke="#63b8ff" d="M480.4,-432.31C498.43,-452.55 543.17,-498.63 592,-517.5 661.46,-544.34 747.77,-545.9 806.06,-542.81"/>
<polygon fill="#63b8ff" stroke="#63b8ff" points="806.47,-546.29 816.25,-542.2 806.06,-539.3 806.47,-546.29"/>
</a>
</g>
</g>
<!-- Node25 -->
<g id="Node000025" class="node">
<title>Node25</title>
<g id="a_Node000025"><a xlink:href="namespaceUIWidgets.html#ac285e460c7ff8522bccc16c5c5589da1" target="_top" xlink:title=" ">
<polygon fill="white" stroke="#666666" points="762.5,-207 594.5,-207 594.5,-188 762.5,-188 762.5,-207"/>
<text text-anchor="middle" x="678.5" y="-195" font-family="Helvetica,sans-Serif" font-size="10.00">UIWidgets::PopStyleCombobox</text>
</a>
</g>
</g>
<!-- Node8&#45;&gt;Node25 -->
<g id="edge39_Node000008_Node000025" class="edge">
<title>Node8&#45;&gt;Node25</title>
<g id="a_edge39_Node000008_Node000025"><a xlink:title=" ">
<path fill="none" stroke="#63b8ff" d="M478.11,-412.91C492.25,-390.63 528.14,-333.51 556,-284.5 572.9,-254.77 564.8,-237.23 592,-216.5 594.46,-214.62 597.07,-212.93 599.79,-211.39"/>
<polygon fill="#63b8ff" stroke="#63b8ff" points="601.33,-214.53 608.8,-207.02 598.27,-208.24 601.33,-214.53"/>
</a>
</g>
</g>
<!-- Node26 -->
<g id="Node000026" class="node">
<title>Node26</title>
<g id="a_Node000026"><a xlink:href="namespaceUIWidgets.html#aae30218cc1c82fcad712520d28e0e6e4" target="_top" xlink:title=" ">
<polygon fill="white" stroke="#666666" points="765,-170 592,-170 592,-151 765,-151 765,-170"/>
<text text-anchor="middle" x="678.5" y="-158" font-family="Helvetica,sans-Serif" font-size="10.00">UIWidgets::PushStyleCombobox</text>
</a>
</g>
</g>
<!-- Node8&#45;&gt;Node26 -->
<g id="edge41_Node000008_Node000026" class="edge">
<title>Node8&#45;&gt;Node26</title>
<g id="a_edge41_Node000008_Node000026"><a xlink:title=" ">
<path fill="none" stroke="#63b8ff" d="M478.88,-412.87C494.31,-390.95 532.18,-335.29 556,-284.5 576.95,-239.84 555.22,-212.38 592,-179.5 593.7,-177.98 595.5,-176.57 597.38,-175.26"/>
<polygon fill="#63b8ff" stroke="#63b8ff" points="599.18,-178.26 606.05,-170.19 595.65,-172.22 599.18,-178.26"/>
</a>
</g>
</g>
<!-- Node27 -->
<g id="Node000027" class="node">
<title>Node27</title>
<g id="a_Node000027"><a xlink:href="structWidgetInfo.html#a31d40206a297372d1527c53c82f61c2b" target="_top" xlink:title=" ">
<polygon fill="white" stroke="#666666" points="751.5,-133 605.5,-133 605.5,-114 751.5,-114 751.5,-133"/>
<text text-anchor="middle" x="678.5" y="-121" font-family="Helvetica,sans-Serif" font-size="10.00">WidgetInfo::ResetDisables</text>
</a>
</g>
</g>
<!-- Node8&#45;&gt;Node27 -->
<g id="edge42_Node000008_Node000027" class="edge">
<title>Node8&#45;&gt;Node27</title>
<g id="a_edge42_Node000008_Node000027"><a xlink:title=" ">
<path fill="none" stroke="#63b8ff" d="M479.42,-412.68C495.62,-390.81 534.39,-335.96 556,-284.5 581.21,-224.47 545.29,-187.85 592,-142.5 593.47,-141.07 595.03,-139.74 596.65,-138.5"/>
<polygon fill="#63b8ff" stroke="#63b8ff" points="598.72,-141.33 605.3,-133.03 594.98,-135.42 598.72,-141.33"/>
</a>
</g>
</g>
<!-- Node28 -->
<g id="Node000028" class="node">
<title>Node28</title>
<g id="a_Node000028"><a xlink:href="classShip_1_1Menu.html#a7329d35f375df068b761b04f4ef390c5" target="_top" xlink:title=" ">
<polygon fill="white" stroke="#666666" points="754,-670.5 603,-670.5 603,-640.5 754,-640.5 754,-670.5"/>
<text text-anchor="start" x="611" y="-658.5" font-family="Helvetica,sans-Serif" font-size="10.00">Ship::Menu::UpdateWindow</text>
<text text-anchor="middle" x="678.5" y="-647.5" font-family="Helvetica,sans-Serif" font-size="10.00">BackendObjects</text>
</a>
</g>
</g>
<!-- Node8&#45;&gt;Node28 -->
<g id="edge45_Node000008_Node000028" class="edge">
<title>Node8&#45;&gt;Node28</title>
<g id="a_edge45_Node000008_Node000028"><a xlink:title=" ">
<path fill="none" stroke="#63b8ff" d="M474.98,-432.23C485.41,-464.75 523.48,-570.74 592,-626.5 596.33,-630.02 601.11,-633.13 606.14,-635.86"/>
<polygon fill="#63b8ff" stroke="#63b8ff" points="604.87,-639.14 615.39,-640.4 607.95,-632.85 604.87,-639.14"/>
</a>
</g>
</g>
<!-- Node29 -->
<g id="Node000029" class="node">
<title>Node29</title>
<g id="a_Node000029"><a xlink:href="namespaceUIWidgets.html#a2e6551e3cad6ecb45d3994d609743801" target="_top" xlink:title=" ">
<polygon fill="white" stroke="#666666" points="945,-646 801,-646 801,-627 945,-627 945,-646"/>
<text text-anchor="middle" x="873" y="-634" font-family="Helvetica,sans-Serif" font-size="10.00">UIWidgets::WindowButton</text>
</a>
</g>
</g>
<!-- Node8&#45;&gt;Node29 -->
<g id="edge46_Node000008_Node000029" class="edge">
<title>Node8&#45;&gt;Node29</title>
<g id="a_edge46_Node000008_Node000029"><a xlink:title=" ">
<path fill="none" stroke="#63b8ff" d="M475.92,-432.41C488.09,-461.78 528.32,-548.81 592,-588.5 624.41,-608.7 720.1,-622.03 790.63,-629.4"/>
<polygon fill="#63b8ff" stroke="#63b8ff" points="790.54,-632.91 800.84,-630.45 791.25,-625.95 790.54,-632.91"/>
</a>
</g>
</g>
<!-- Node9&#45;&gt;Node5 -->
<g id="edge14_Node000009_Node000005" class="edge">
<title>Node9&#45;&gt;Node5</title>
<g id="a_edge14_Node000009_Node000005"><a xlink:title=" ">
<path fill="none" stroke="#63b8ff" d="M905.44,-242.03C959.9,-259.69 1073.28,-301.73 1150,-366.5 1197.74,-406.8 1235.41,-471.86 1252.12,-503.71"/>
<polygon fill="#63b8ff" stroke="#63b8ff" points="1249.11,-505.52 1256.79,-512.81 1255.34,-502.32 1249.11,-505.52"/>
</a>
</g>
</g>
<!-- Node9&#45;&gt;Node6 -->
<g id="edge15_Node000009_Node000006" class="edge">
<title>Node9&#45;&gt;Node6</title>
<g id="a_edge15_Node000009_Node000006"><a xlink:title=" ">
<path fill="none" stroke="#63b8ff" d="M933.66,-227.86C991.18,-225.63 1079.62,-228.15 1150,-256.5 1189.93,-272.58 1226.82,-308.04 1246.54,-329.34"/>
<polygon fill="#63b8ff" stroke="#63b8ff" points="1244.15,-331.91 1253.45,-336.99 1249.34,-327.22 1244.15,-331.91"/>
</a>
</g>
</g>
<!-- Node10 -->
<g id="Node000010" class="node">
<title>Node10</title>
<g id="a_Node000010"><a xlink:href="namespaceUIWidgets.html#a3afde5e39ce67a2370ecef5ffb427636" target="_top" xlink:title=" ">
<polygon fill="white" stroke="#666666" points="1147.5,-204 983.5,-204 983.5,-185 1147.5,-185 1147.5,-204"/>
<text text-anchor="middle" x="1065.5" y="-192" font-family="Helvetica,sans-Serif" font-size="10.00">UIWidgets::PopStyleCheckbox</text>
</a>
</g>
</g>
<!-- Node9&#45;&gt;Node10 -->
<g id="edge10_Node000009_Node000010" class="edge">
<title>Node9&#45;&gt;Node10</title>
<g id="a_edge10_Node000009_Node000010"><a xlink:title=" ">
<path fill="none" stroke="#63b8ff" d="M922.07,-222.91C947.78,-217.78 979.61,-211.43 1006.66,-206.04"/>
<polygon fill="#63b8ff" stroke="#63b8ff" points="1007.65,-209.41 1016.77,-204.02 1006.28,-202.54 1007.65,-209.41"/>
</a>
</g>
</g>
<!-- Node11 -->
<g id="Node000011" class="node">
<title>Node11</title>
<g id="a_Node000011"><a xlink:href="namespaceUIWidgets.html#a330697ff7208bc380bcfe8640b864718" target="_top" xlink:title=" ">
<polygon fill="white" stroke="#666666" points="1150,-167 981,-167 981,-148 1150,-148 1150,-167"/>
<text text-anchor="middle" x="1065.5" y="-155" font-family="Helvetica,sans-Serif" font-size="10.00">UIWidgets::PushStyleCheckbox</text>
</a>
</g>
</g>
<!-- Node9&#45;&gt;Node11 -->
<g id="edge11_Node000009_Node000011" class="edge">
<title>Node9&#45;&gt;Node11</title>
<g id="a_edge11_Node000009_Node000011"><a xlink:title=" ">
<path fill="none" stroke="#63b8ff" d="M889.36,-222.83C909.64,-210.45 946.77,-189.11 981,-176.5 987.98,-173.93 995.43,-171.63 1002.89,-169.61"/>
<polygon fill="#63b8ff" stroke="#63b8ff" points="1003.85,-172.98 1012.67,-167.1 1002.11,-166.2 1003.85,-172.98"/>
</a>
</g>
</g>
<!-- Node12 -->
<g id="Node000012" class="node">
<title>Node12</title>
<g id="a_Node000012"><a xlink:href="namespaceUIWidgets.html#ae0f4f1b0659f0e53e3077a5acb0c6b05" target="_top" xlink:title=" ">
<polygon fill="white" stroke="#666666" points="1129.5,-95 1001.5,-95 1001.5,-76 1129.5,-76 1129.5,-95"/>
<text text-anchor="middle" x="1065.5" y="-83" font-family="Helvetica,sans-Serif" font-size="10.00">UIWidgets::RenderText</text>
</a>
</g>
</g>
<!-- Node9&#45;&gt;Node12 -->
<g id="edge12_Node000009_Node000012" class="edge">
<title>Node9&#45;&gt;Node12</title>
<g id="a_edge12_Node000009_Node000012"><a xlink:title=" ">
<path fill="none" stroke="#63b8ff" d="M884.22,-222.75C902.79,-205.22 943.63,-167.61 981,-139.5 999.98,-125.23 1022.66,-110.71 1039.6,-100.32"/>
<polygon fill="#63b8ff" stroke="#63b8ff" points="1041.62,-103.19 1048.35,-95.01 1037.99,-97.2 1041.62,-103.19"/>
</a>
</g>
</g>
<!-- Node13 -->
<g id="Node000013" class="node">
<title>Node13</title>
<g id="a_Node000013"><a xlink:href="string_8c.html#a008e171a518fe0e0352f31b245e03875" target="_top" xlink:title=" ">
<polygon fill="white" stroke="#666666" points="1284.5,-95 1240.5,-95 1240.5,-76 1284.5,-76 1284.5,-95"/>
<text text-anchor="middle" x="1262.5" y="-83" font-family="Helvetica,sans-Serif" font-size="10.00">strlen</text>
</a>
</g>
</g>
<!-- Node12&#45;&gt;Node13 -->
<g id="edge13_Node000012_Node000013" class="edge">
<title>Node12&#45;&gt;Node13</title>
<g id="a_edge13_Node000012_Node000013"><a xlink:title=" ">
<path fill="none" stroke="#63b8ff" d="M1129.54,-85.5C1163.14,-85.5 1203,-85.5 1230.05,-85.5"/>
<polygon fill="#63b8ff" stroke="#63b8ff" points="1230.1,-89 1240.1,-85.5 1230.1,-82 1230.1,-89"/>
</a>
</g>
</g>
<!-- Node15&#45;&gt;Node9 -->
<g id="edge18_Node000015_Node000009" class="edge">
<title>Node15&#45;&gt;Node9</title>
<g id="a_edge18_Node000015_Node000009"><a xlink:title=" ">
<path fill="none" stroke="#63b8ff" d="M750.09,-233.77C767.06,-233.59 785.18,-233.4 802.12,-233.23"/>
<polygon fill="#63b8ff" stroke="#63b8ff" points="802.53,-236.72 812.49,-233.12 802.46,-229.72 802.53,-236.72"/>
</a>
</g>
</g>
<!-- Node17&#45;&gt;Node18 -->
<g id="edge21_Node000017_Node000018" class="edge">
<title>Node17&#45;&gt;Node18</title>
<g id="a_edge21_Node000017_Node000018"><a xlink:title=" ">
<path fill="none" stroke="#63b8ff" d="M740.14,-358.02C748.73,-360.49 757.26,-363.6 765,-367.5 802.83,-386.58 838.17,-422.05 857.26,-443.24"/>
<polygon fill="#63b8ff" stroke="#63b8ff" points="854.73,-445.67 863.97,-450.86 859.98,-441.04 854.73,-445.67"/>
</a>
</g>
</g>
<!-- Node18&#45;&gt;Node2 -->
<g id="edge22_Node000018_Node000002" class="edge">
<title>Node18&#45;&gt;Node2</title>
<g id="a_edge22_Node000018_Node000002"><a xlink:title=" ">
<path fill="none" stroke="#63b8ff" d="M887.61,-470.13C902.51,-481 926.72,-499.64 945,-518.5 963.31,-537.39 964.31,-545.16 981,-565.5 1003.94,-593.44 1031.91,-624.74 1048.95,-643.51"/>
<polygon fill="#63b8ff" stroke="#63b8ff" points="1046.43,-645.94 1055.75,-650.98 1051.6,-641.23 1046.43,-645.94"/>
</a>
</g>
</g>
<!-- Node18&#45;&gt;Node5 -->
<g id="edge26_Node000018_Node000005" class="edge">
<title>Node18&#45;&gt;Node5</title>
<g id="a_edge26_Node000018_Node000005"><a xlink:title=" ">
<path fill="none" stroke="#63b8ff" d="M905.97,-450.95C958.38,-436.93 1065.2,-415.23 1150,-442.5 1188.64,-454.93 1225.24,-486.25 1245.39,-505.81"/>
<polygon fill="#63b8ff" stroke="#63b8ff" points="1242.96,-508.33 1252.52,-512.91 1247.9,-503.37 1242.96,-508.33"/>
</a>
</g>
</g>
<!-- Node18&#45;&gt;Node6 -->
<g id="edge28_Node000018_Node000006" class="edge">
<title>Node18&#45;&gt;Node6</title>
<g id="a_edge28_Node000018_Node000006"><a xlink:title=" ">
<path fill="none" stroke="#63b8ff" d="M881.27,-450.82C896.92,-430.83 936.06,-385.29 981,-366.5 1045.48,-339.54 1125.56,-336.48 1183.63,-339.02"/>
<polygon fill="#63b8ff" stroke="#63b8ff" points="1183.68,-342.52 1193.84,-339.53 1184.03,-335.53 1183.68,-342.52"/>
</a>
</g>
</g>
<!-- Node19 -->
<g id="Node000019" class="node">
<title>Node19</title>
<g id="a_Node000019"><a xlink:href="namespaceUIWidgets.html#a3493c246b651d9839fecfd680030ef6c" target="_top" xlink:title=" ">
<polygon fill="white" stroke="#666666" points="1130,-394 1001,-394 1001,-375 1130,-375 1130,-394"/>
<text text-anchor="middle" x="1065.5" y="-382" font-family="Helvetica,sans-Serif" font-size="10.00">UIWidgets::ClampFloat</text>
</a>
</g>
</g>
<!-- Node18&#45;&gt;Node19 -->
<g id="edge23_Node000018_Node000019" class="edge">
<title>Node18&#45;&gt;Node19</title>
<g id="a_edge23_Node000018_Node000019"><a xlink:title=" ">
<path fill="none" stroke="#63b8ff" d="M891.38,-450.89C912.22,-439.66 948.41,-421 981,-408.5 992.33,-404.15 1004.79,-400.17 1016.55,-396.75"/>
<polygon fill="#63b8ff" stroke="#63b8ff" points="1017.55,-400.1 1026.22,-394.01 1015.64,-393.37 1017.55,-400.1"/>
</a>
</g>
</g>
<!-- Node20 -->
<g id="Node000020" class="node">
<title>Node20</title>
<g id="a_Node000020"><a xlink:href="namespaceUIWidgets.html#ab3668add920a14f28ddc7b864ad9a998" target="_top" xlink:title=" ">
<polygon fill="white" stroke="#666666" points="1137,-470 994,-470 994,-451 1137,-451 1137,-470"/>
<text text-anchor="middle" x="1065.5" y="-458" font-family="Helvetica,sans-Serif" font-size="10.00">UIWidgets::PopStyleSlider</text>
</a>
</g>
</g>
<!-- Node18&#45;&gt;Node20 -->
<g id="edge24_Node000018_Node000020" class="edge">
<title>Node18&#45;&gt;Node20</title>
<g id="a_edge24_Node000018_Node000020"><a xlink:title=" ">
<path fill="none" stroke="#63b8ff" d="M935.59,-460.5C950.84,-460.5 967.4,-460.5 983.43,-460.5"/>
<polygon fill="#63b8ff" stroke="#63b8ff" points="983.86,-464 993.86,-460.5 983.86,-457 983.86,-464"/>
</a>
</g>
</g>
<!-- Node21 -->
<g id="Node000021" class="node">
<title>Node21</title>
<g id="a_Node000021"><a xlink:href="namespaceUIWidgets.html#a560e4ab7577da33003569105d9ec736f" target="_top" xlink:title=" ">
<polygon fill="white" stroke="#666666" points="1140,-556 991,-556 991,-537 1140,-537 1140,-556"/>
<text text-anchor="middle" x="1065.5" y="-544" font-family="Helvetica,sans-Serif" font-size="10.00">UIWidgets::PushStyleSlider</text>
</a>
</g>
</g>
<!-- Node18&#45;&gt;Node21 -->
<g id="edge25_Node000018_Node000021" class="edge">
<title>Node18&#45;&gt;Node21</title>
<g id="a_edge25_Node000018_Node000021"><a xlink:title=" ">
<path fill="none" stroke="#63b8ff" d="M886.1,-470C905.18,-484.53 943.93,-512.19 981,-527.5 987.19,-530.05 993.78,-532.3 1000.44,-534.26"/>
<polygon fill="#63b8ff" stroke="#63b8ff" points="999.65,-537.67 1010.22,-536.94 1001.5,-530.92 999.65,-537.67"/>
</a>
</g>
</g>
<!-- Node22 -->
<g id="Node000022" class="node">
<title>Node22</title>
<g id="a_Node000022"><a xlink:href="structUIWidgets_1_1ButtonOptions.html#a13696251aa297ab0e7e7490ef8d77bbf" target="_top" xlink:title=" ">
<polygon fill="white" stroke="#666666" points="1137,-518.5 994,-518.5 994,-488.5 1137,-488.5 1137,-518.5"/>
<text text-anchor="start" x="1002" y="-506.5" font-family="Helvetica,sans-Serif" font-size="10.00">UIWidgets::ButtonOptions</text>
<text text-anchor="middle" x="1065.5" y="-495.5" font-family="Helvetica,sans-Serif" font-size="10.00">::Size</text>
</a>
</g>
</g>
<!-- Node18&#45;&gt;Node22 -->
<g id="edge27_Node000018_Node000022" class="edge">
<title>Node18&#45;&gt;Node22</title>
<g id="a_edge27_Node000018_Node000022"><a xlink:title=" ">
<path fill="none" stroke="#63b8ff" d="M916.28,-470.04C937.38,-474.81 963.56,-480.72 988.02,-486.24"/>
<polygon fill="#63b8ff" stroke="#63b8ff" points="987.49,-489.71 998.02,-488.49 989.03,-482.88 987.49,-489.71"/>
</a>
</g>
</g>
<!-- Node23&#45;&gt;Node24 -->
<g id="edge30_Node000023_Node000024" class="edge">
<title>Node23&#45;&gt;Node24</title>
<g id="a_edge30_Node000023_Node000024"><a xlink:title=" ">
<path fill="none" stroke="#63b8ff" d="M728.08,-508.09C754.16,-513.24 786.51,-519.62 813.92,-525.03"/>
<polygon fill="#63b8ff" stroke="#63b8ff" points="813.28,-528.48 823.77,-526.98 814.64,-521.61 813.28,-528.48"/>
</a>
</g>
</g>
<!-- Node24&#45;&gt;Node2 -->
<g id="edge31_Node000024_Node000002" class="edge">
<title>Node24&#45;&gt;Node2</title>
<g id="a_edge31_Node000024_Node000002"><a xlink:title=" ">
<path fill="none" stroke="#63b8ff" d="M920.09,-546.08C929.08,-549.52 937.9,-554.19 945,-560.5 972.92,-585.35 952.51,-612.3 981,-636.5 987.53,-642.04 995.27,-646.31 1003.36,-649.59"/>
<polygon fill="#63b8ff" stroke="#63b8ff" points="1002.38,-652.96 1012.97,-653.01 1004.72,-646.36 1002.38,-652.96"/>
</a>
</g>
</g>
<!-- Node24&#45;&gt;Node5 -->
<g id="edge34_Node000024_Node000005" class="edge">
<title>Node24&#45;&gt;Node5</title>
<g id="a_edge34_Node000024_Node000005"><a xlink:title=" ">
<path fill="none" stroke="#63b8ff" d="M913.51,-546.09C924.21,-549.67 935.46,-554.4 945,-560.5 964.6,-573.04 959.63,-589.31 981,-598.5 1050,-628.18 1078.22,-620.64 1150,-598.5 1187.58,-586.91 1223.82,-557.84 1244.32,-539.2"/>
<polygon fill="#63b8ff" stroke="#63b8ff" points="1246.93,-541.54 1251.86,-532.16 1242.16,-536.43 1246.93,-541.54"/>
</a>
</g>
</g>
<!-- Node24&#45;&gt;Node6 -->
<g id="edge36_Node000024_Node000006" class="edge">
<title>Node24&#45;&gt;Node6</title>
<g id="a_edge36_Node000024_Node000006"><a xlink:title=" ">
<path fill="none" stroke="#63b8ff" d="M901.3,-546.05C922.68,-553 953.34,-561.82 981,-565.5 1055.45,-575.41 1085.96,-604.76 1150,-565.5 1159.51,-559.67 1227.85,-417.31 1252.59,-365.3"/>
<polygon fill="#63b8ff" stroke="#63b8ff" points="1255.8,-366.7 1256.92,-356.17 1249.47,-363.7 1255.8,-366.7"/>
</a>
</g>
</g>
<!-- Node24&#45;&gt;Node20 -->
<g id="edge32_Node000024_Node000020" class="edge">
<title>Node24&#45;&gt;Node20</title>
<g id="a_edge32_Node000024_Node000020"><a xlink:title=" ">
<path fill="none" stroke="#63b8ff" d="M888.99,-526.85C909.16,-514.27 946.48,-492.36 981,-479.5 987.97,-476.9 995.41,-474.59 1002.87,-472.56"/>
<polygon fill="#63b8ff" stroke="#63b8ff" points="1003.83,-475.93 1012.65,-470.05 1002.09,-469.15 1003.83,-475.93"/>
</a>
</g>
</g>
<!-- Node24&#45;&gt;Node21 -->
<g id="edge33_Node000024_Node000021" class="edge">
<title>Node24&#45;&gt;Node21</title>
<g id="a_edge33_Node000024_Node000021"><a xlink:title=" ">
<path fill="none" stroke="#63b8ff" d="M929.61,-539.42C945.59,-540.26 963.37,-541.19 980.65,-542.1"/>
<polygon fill="#63b8ff" stroke="#63b8ff" points="980.57,-545.6 990.74,-542.63 980.94,-538.61 980.57,-545.6"/>
</a>
</g>
</g>
<!-- Node24&#45;&gt;Node22 -->
<g id="edge35_Node000024_Node000022" class="edge">
<title>Node24&#45;&gt;Node22</title>
<g id="a_edge35_Node000024_Node000022"><a xlink:title=" ">
<path fill="none" stroke="#63b8ff" d="M928.84,-527C945.99,-524.03 965.28,-520.69 983.81,-517.48"/>
<polygon fill="#63b8ff" stroke="#63b8ff" points="984.46,-520.92 993.71,-515.76 983.26,-514.02 984.46,-520.92"/>
</a>
</g>
</g>
<!-- Node29&#45;&gt;Node2 -->
<g id="edge47_Node000029_Node000002" class="edge">
<title>Node29&#45;&gt;Node2</title>
<g id="a_edge47_Node000029_Node000002"><a xlink:title=" ">
<path fill="none" stroke="#63b8ff" d="M945.21,-645.47C964.2,-647.86 984.56,-650.43 1002.98,-652.75"/>
<polygon fill="#63b8ff" stroke="#63b8ff" points="1002.64,-656.23 1013,-654.01 1003.51,-649.29 1002.64,-656.23"/>
</a>
</g>
</g>
<!-- Node31&#45;&gt;Node12 -->
<g id="edge52_Node000031_Node000012" class="edge">
<title>Node31&#45;&gt;Node12</title>
<g id="a_edge52_Node000031_Node000012"><a xlink:title=" ">
<path fill="none" stroke="#63b8ff" d="M480.4,-152.84C498.44,-132.96 543.18,-87.92 592,-71.5 740.9,-21.43 931.3,-54.06 1017.89,-73.72"/>
<polygon fill="#63b8ff" stroke="#63b8ff" points="1017.15,-77.14 1027.68,-75.98 1018.73,-70.32 1017.15,-77.14"/>
</a>
</g>
</g>
<!-- Node32&#45;&gt;Node12 -->
<g id="edge54_Node000032_Node000012" class="edge">
<title>Node32&#45;&gt;Node12</title>
<g id="a_edge54_Node000032_Node000012"><a xlink:title=" ">
<path fill="none" stroke="#63b8ff" d="M483.89,-255.97C501.45,-241.4 534.57,-212.07 556,-181.5 577.68,-150.57 560.54,-125.42 592,-104.5 655.37,-62.36 874.79,-71.29 990.98,-79.42"/>
<polygon fill="#63b8ff" stroke="#63b8ff" points="990.99,-82.93 1001.21,-80.16 991.49,-75.95 990.99,-82.93"/>
</a>
</g>
</g>
<!-- Node34 -->
<g id="Node000034" class="node">
<title>Node34</title>
<g id="a_Node000034"><a xlink:href="Game_8cpp.html#aeea6e29785f2f2cdd48874c08e5c02a1" target="_top" xlink:title=" ">
<polygon fill="white" stroke="#666666" points="523,-36 419,-36 419,-17 523,-17 523,-36"/>
<text text-anchor="middle" x="471" y="-24" font-family="Helvetica,sans-Serif" font-size="10.00">SetMarioRaceway</text>
</a>
</g>
</g>
<!-- Node33&#45;&gt;Node34 -->
<g id="edge57_Node000033_Node000034" class="edge">
<title>Node33&#45;&gt;Node34</title>
<g id="a_edge57_Node000033_Node000034"><a xlink:title=" ">
<path fill="none" stroke="#63b8ff" d="M280.54,-147.87C315.77,-125.3 403.88,-68.85 446.37,-41.64"/>
<polygon fill="#63b8ff" stroke="#63b8ff" points="448.41,-44.49 454.94,-36.15 444.63,-38.59 448.41,-44.49"/>
</a>
</g>
</g>
<!-- Node35 -->
<g id="Node000035" class="node">
<title>Node35</title>
<g id="a_Node000035"><a xlink:href="Game_8cpp.html#a24c17fb197ea8720e0544c07db4e25dc" target="_top" xlink:title=" ">
<polygon fill="white" stroke="#666666" points="722.5,-19 634.5,-19 634.5,0 722.5,0 722.5,-19"/>
<text text-anchor="middle" x="678.5" y="-7" font-family="Helvetica,sans-Serif" font-size="10.00">SetCourseById</text>
</a>
</g>
</g>
<!-- Node34&#45;&gt;Node35 -->
<g id="edge58_Node000034_Node000035" class="edge">
<title>Node34&#45;&gt;Node35</title>
<g id="a_edge58_Node000034_Node000035"><a xlink:title=" ">
<path fill="none" stroke="#63b8ff" d="M523.06,-22.28C553.82,-19.73 592.93,-16.5 624.1,-13.92"/>
<polygon fill="#63b8ff" stroke="#63b8ff" points="624.66,-17.38 634.34,-13.07 624.09,-10.41 624.66,-17.38"/>
</a>
</g>
</g>
</g>
</svg>
