<?xml version="1.0" encoding="UTF-8" standalone="no"?>
<!DOCTYPE svg PUBLIC "-//W3C//DTD SVG 1.1//EN"
 "http://www.w3.org/Graphics/SVG/1.1/DTD/svg11.dtd">
<!-- Generated by graphviz version 2.43.0 (0)
 -->
<!-- Title: DKJungle::Render Pages: 1 -->
<svg width="707pt" height="232pt"
 viewBox="0.00 0.00 707.00 232.00" xmlns="http://www.w3.org/2000/svg" xmlns:xlink="http://www.w3.org/1999/xlink">
<g id="graph0" class="graph" transform="scale(1 1) rotate(0) translate(4 228)">
<title>DKJungle::Render</title>
<!-- Node1 -->
<g id="Node000001" class="node">
<title>Node1</title>
<g id="a_Node000001"><a xlink:title=" ">
<polygon fill="#999999" stroke="#666666" points="101,-148 0,-148 0,-129 101,-129 101,-148"/>
<text text-anchor="middle" x="50.5" y="-136" font-family="Helvetica,sans-Serif" font-size="10.00">DKJungle::Render</text>
</a>
</g>
</g>
<!-- Node2 -->
<g id="Node000002" class="node">
<title>Node2</title>
<g id="a_Node000002"><a xlink:href="render__courses_8c.html#a9a9119b96bf015cf8b5a168485f67e3f" target="_top" xlink:title=" ">
<polygon fill="white" stroke="#666666" points="255,-224 163,-224 163,-205 255,-205 255,-224"/>
<text text-anchor="middle" x="209" y="-212" font-family="Helvetica,sans-Serif" font-size="10.00">func_80290C20</text>
</a>
</g>
</g>
<!-- Node1&#45;&gt;Node2 -->
<g id="edge1_Node000001_Node000002" class="edge">
<title>Node1&#45;&gt;Node2</title>
<g id="a_edge1_Node000001_Node000002"><a xlink:title=" ">
<path fill="none" stroke="#63b8ff" d="M65.19,-148.14C81.65,-159.41 110.39,-178.1 137,-190.5 145.93,-194.66 155.78,-198.46 165.24,-201.75"/>
<polygon fill="#63b8ff" stroke="#63b8ff" points="164.3,-205.12 174.89,-204.98 166.52,-198.49 164.3,-205.12"/>
</a>
</g>
</g>
<!-- Node3 -->
<g id="Node000003" class="node">
<title>Node3</title>
<g id="a_Node000003"><a xlink:href="GBIMiddleware_8cpp.html#a4ecc44e3c6f1ca5a6b4a20c41d3bd2d2" target="_top" xlink:title=" ">
<polygon fill="white" stroke="#666666" points="420,-204 331,-204 331,-185 420,-185 420,-204"/>
<text text-anchor="middle" x="375.5" y="-192" font-family="Helvetica,sans-Serif" font-size="10.00">gSPDisplayList</text>
</a>
</g>
</g>
<!-- Node1&#45;&gt;Node3 -->
<g id="edge2_Node000001_Node000003" class="edge">
<title>Node1&#45;&gt;Node3</title>
<g id="a_edge2_Node000001_Node000003"><a xlink:title=" ">
<path fill="none" stroke="#63b8ff" d="M91.84,-148.02C106.07,-151.23 122.21,-154.71 137,-157.5 199.78,-169.35 272.42,-180.26 320.67,-187.12"/>
<polygon fill="#63b8ff" stroke="#63b8ff" points="320.19,-190.59 330.58,-188.52 321.17,-183.65 320.19,-190.59"/>
</a>
</g>
</g>
<!-- Node6 -->
<g id="Node000006" class="node">
<title>Node6</title>
<g id="a_Node000006"><a xlink:href="render__courses_8c.html#a0c6536cf72cff97ccc3ed5c85967817e" target="_top" xlink:title=" ">
<polygon fill="white" stroke="#666666" points="278.5,-148 139.5,-148 139.5,-129 278.5,-129 278.5,-148"/>
<text text-anchor="middle" x="209" y="-136" font-family="Helvetica,sans-Serif" font-size="10.00">render_course_segments</text>
</a>
</g>
</g>
<!-- Node1&#45;&gt;Node6 -->
<g id="edge5_Node000001_Node000006" class="edge">
<title>Node1&#45;&gt;Node6</title>
<g id="a_edge5_Node000001_Node000006"><a xlink:title=" ">
<path fill="none" stroke="#63b8ff" d="M101.02,-138.5C110.06,-138.5 119.69,-138.5 129.33,-138.5"/>
<polygon fill="#63b8ff" stroke="#63b8ff" points="129.36,-142 139.36,-138.5 129.36,-135 129.36,-142"/>
</a>
</g>
</g>
<!-- Node10 -->
<g id="Node000010" class="node">
<title>Node10</title>
<g id="a_Node000010"><a xlink:href="memory_8c.html#a8f7f3165d1a5092720aa26d9502bb678" target="_top" xlink:title=" ">
<polygon fill="white" stroke="#666666" points="281,-111 137,-111 137,-92 281,-92 281,-111"/>
<text text-anchor="middle" x="209" y="-99" font-family="Helvetica,sans-Serif" font-size="10.00">segmented_gfx_to_virtual</text>
</a>
</g>
</g>
<!-- Node1&#45;&gt;Node10 -->
<g id="edge10_Node000001_Node000010" class="edge">
<title>Node1&#45;&gt;Node10</title>
<g id="a_edge10_Node000001_Node000010"><a xlink:title=" ">
<path fill="none" stroke="#63b8ff" d="M91.8,-128.97C111.9,-124.22 136.39,-118.43 157.71,-113.39"/>
<polygon fill="#63b8ff" stroke="#63b8ff" points="158.64,-116.77 167.56,-111.06 157.03,-109.96 158.64,-116.77"/>
</a>
</g>
</g>
<!-- Node11 -->
<g id="Node000011" class="node">
<title>Node11</title>
<g id="a_Node000011"><a xlink:href="math__util_8c.html#ae3e380239986384fef7c10e23eced83f" target="_top" xlink:title=" ">
<polygon fill="white" stroke="#666666" points="277.5,-56 140.5,-56 140.5,-37 277.5,-37 277.5,-56"/>
<text text-anchor="middle" x="209" y="-44" font-family="Helvetica,sans-Serif" font-size="10.00">set_track_light_direction</text>
</a>
</g>
</g>
<!-- Node1&#45;&gt;Node11 -->
<g id="edge11_Node000001_Node000011" class="edge">
<title>Node1&#45;&gt;Node11</title>
<g id="a_edge11_Node000001_Node000011"><a xlink:title=" ">
<path fill="none" stroke="#63b8ff" d="M65.47,-128.95C82.21,-117.65 111.2,-98.48 137,-83.5 150.74,-75.53 166.35,-67.3 179.44,-60.63"/>
<polygon fill="#63b8ff" stroke="#63b8ff" points="181.11,-63.71 188.46,-56.08 177.95,-57.46 181.11,-63.71"/>
</a>
</g>
</g>
<!-- Node4 -->
<g id="Node000004" class="node">
<title>Node4</title>
<g id="a_Node000004"><a xlink:href="Engine_8cpp.html#a223c8bc63f228dc11177515e38eff2db" target="_top" xlink:title=" ">
<polygon fill="white" stroke="#666666" points="619,-204 470,-204 470,-185 619,-185 619,-204"/>
<text text-anchor="middle" x="544.5" y="-192" font-family="Helvetica,sans-Serif" font-size="10.00">GameEngine_OTRSigCheck</text>
</a>
</g>
</g>
<!-- Node3&#45;&gt;Node4 -->
<g id="edge3_Node000003_Node000004" class="edge">
<title>Node3&#45;&gt;Node4</title>
<g id="a_edge3_Node000003_Node000004"><a xlink:title=" ">
<path fill="none" stroke="#63b8ff" d="M420.38,-194.5C432.47,-194.5 446,-194.5 459.55,-194.5"/>
<polygon fill="#63b8ff" stroke="#63b8ff" points="459.89,-198 469.89,-194.5 459.89,-191 459.89,-198"/>
</a>
</g>
</g>
<!-- Node5 -->
<g id="Node000005" class="node">
<title>Node5</title>
<g id="a_Node000005"><a xlink:href="string_8c.html#a008e171a518fe0e0352f31b245e03875" target="_top" xlink:title=" ">
<polygon fill="white" stroke="#666666" points="699,-204 655,-204 655,-185 699,-185 699,-204"/>
<text text-anchor="middle" x="677" y="-192" font-family="Helvetica,sans-Serif" font-size="10.00">strlen</text>
</a>
</g>
</g>
<!-- Node4&#45;&gt;Node5 -->
<g id="edge4_Node000004_Node000005" class="edge">
<title>Node4&#45;&gt;Node5</title>
<g id="a_edge4_Node000004_Node000005"><a xlink:title=" ">
<path fill="none" stroke="#63b8ff" d="M619.14,-194.5C628.12,-194.5 636.89,-194.5 644.75,-194.5"/>
<polygon fill="#63b8ff" stroke="#63b8ff" points="644.83,-198 654.83,-194.5 644.83,-191 644.83,-198"/>
</a>
</g>
</g>
<!-- Node6&#45;&gt;Node3 -->
<g id="edge7_Node000006_Node000003" class="edge">
<title>Node6&#45;&gt;Node3</title>
<g id="a_edge7_Node000006_Node000003"><a xlink:title=" ">
<path fill="none" stroke="#63b8ff" d="M239.12,-148.02C252,-152.31 267.3,-157.52 281,-162.5 297.14,-168.36 300.8,-170.82 317,-176.5 322.18,-178.32 327.66,-180.15 333.09,-181.9"/>
<polygon fill="#63b8ff" stroke="#63b8ff" points="332.15,-185.28 342.74,-184.98 334.27,-178.61 332.15,-185.28"/>
</a>
</g>
</g>
<!-- Node7 -->
<g id="Node000007" class="node">
<title>Node7</title>
<g id="a_Node000007"><a xlink:href="collision_8c.html#a053809031f467d0a6747788211e0ec69" target="_top" xlink:title=" ">
<polygon fill="white" stroke="#666666" points="434,-167 317,-167 317,-148 434,-148 434,-167"/>
<text text-anchor="middle" x="375.5" y="-155" font-family="Helvetica,sans-Serif" font-size="10.00">get_track_section_id</text>
</a>
</g>
</g>
<!-- Node6&#45;&gt;Node7 -->
<g id="edge6_Node000006_Node000007" class="edge">
<title>Node6&#45;&gt;Node7</title>
<g id="a_edge6_Node000006_Node000007"><a xlink:title=" ">
<path fill="none" stroke="#63b8ff" d="M278.81,-146.45C288.12,-147.52 297.67,-148.63 306.95,-149.7"/>
<polygon fill="#63b8ff" stroke="#63b8ff" points="306.57,-153.18 316.91,-150.85 307.38,-146.22 306.57,-153.18"/>
</a>
</g>
</g>
<!-- Node8 -->
<g id="Node000008" class="node">
<title>Node8</title>
<g id="a_Node000008"><a xlink:href="Game_8cpp.html#a8ebd6a4d970e4333ab5a9dd66c3d9c48" target="_top" xlink:title=" ">
<polygon fill="white" stroke="#666666" points="424,-130 327,-130 327,-111 424,-111 424,-130"/>
<text text-anchor="middle" x="375.5" y="-118" font-family="Helvetica,sans-Serif" font-size="10.00">IsBowsersCastle</text>
</a>
</g>
</g>
<!-- Node6&#45;&gt;Node8 -->
<g id="edge8_Node000006_Node000008" class="edge">
<title>Node6&#45;&gt;Node8</title>
<g id="a_edge8_Node000006_Node000008"><a xlink:title=" ">
<path fill="none" stroke="#63b8ff" d="M278.81,-130.97C291.47,-129.59 304.56,-128.15 316.84,-126.81"/>
<polygon fill="#63b8ff" stroke="#63b8ff" points="317.39,-130.27 326.95,-125.7 316.63,-123.31 317.39,-130.27"/>
</a>
</g>
</g>
<!-- Node9 -->
<g id="Node000009" class="node">
<title>Node9</title>
<g id="a_Node000009"><a xlink:href="Game_8cpp.html#a9f5c2ace915f66e850628695f297b1ff" target="_top" xlink:title=" ">
<polygon fill="white" stroke="#666666" points="426,-93 325,-93 325,-74 426,-74 426,-93"/>
<text text-anchor="middle" x="375.5" y="-81" font-family="Helvetica,sans-Serif" font-size="10.00">IsChocoMountain</text>
</a>
</g>
</g>
<!-- Node6&#45;&gt;Node9 -->
<g id="edge9_Node000006_Node000009" class="edge">
<title>Node6&#45;&gt;Node9</title>
<g id="a_edge9_Node000006_Node000009"><a xlink:title=" ">
<path fill="none" stroke="#63b8ff" d="M254.01,-128.92C263.05,-126.51 272.42,-123.69 281,-120.5 297.77,-114.27 300.46,-109.32 317,-102.5 322.16,-100.37 327.66,-98.3 333.13,-96.37"/>
<polygon fill="#63b8ff" stroke="#63b8ff" points="334.53,-99.59 342.87,-93.04 332.27,-92.97 334.53,-99.59"/>
</a>
</g>
</g>
<!-- Node12 -->
<g id="Node000012" class="node">
<title>Node12</title>
<g id="a_Node000012"><a xlink:href="math__util_8c.html#ae69cbf5c8d4b3b0dba2d7b4d4673689f" target="_top" xlink:title=" ">
<polygon fill="white" stroke="#666666" points="394.5,-56 356.5,-56 356.5,-37 394.5,-37 394.5,-56"/>
<text text-anchor="middle" x="375.5" y="-44" font-family="Helvetica,sans-Serif" font-size="10.00">coss</text>
</a>
</g>
</g>
<!-- Node11&#45;&gt;Node12 -->
<g id="edge12_Node000011_Node000012" class="edge">
<title>Node11&#45;&gt;Node12</title>
<g id="a_edge12_Node000011_Node000012"><a xlink:title=" ">
<path fill="none" stroke="#63b8ff" d="M277.86,-46.5C301.68,-46.5 327.17,-46.5 345.98,-46.5"/>
<polygon fill="#63b8ff" stroke="#63b8ff" points="346.23,-50 356.23,-46.5 346.23,-43 346.23,-50"/>
</a>
</g>
</g>
<!-- Node13 -->
<g id="Node000013" class="node">
<title>Node13</title>
<g id="a_Node000013"><a xlink:href="math__util_8c.html#a19ed3bd78fd2d3e2bd0a29f6caf48545" target="_top" xlink:title=" ">
<polygon fill="white" stroke="#666666" points="393.5,-19 357.5,-19 357.5,0 393.5,0 393.5,-19"/>
<text text-anchor="middle" x="375.5" y="-7" font-family="Helvetica,sans-Serif" font-size="10.00">sins</text>
</a>
</g>
</g>
<!-- Node11&#45;&gt;Node13 -->
<g id="edge13_Node000011_Node000013" class="edge">
<title>Node11&#45;&gt;Node13</title>
<g id="a_edge13_Node000011_Node000013"><a xlink:title=" ">
<path fill="none" stroke="#63b8ff" d="M252.36,-36.97C282.32,-30.23 321.58,-21.4 347.4,-15.6"/>
<polygon fill="#63b8ff" stroke="#63b8ff" points="348.26,-18.99 357.25,-13.38 346.72,-12.16 348.26,-18.99"/>
</a>
</g>
</g>
</g>
</svg>
