<?xml version="1.0" encoding="UTF-8" standalone="no"?>
<!DOCTYPE svg PUBLIC "-//W3C//DTD SVG 1.1//EN"
 "http://www.w3.org/Graphics/SVG/1.1/DTD/svg11.dtd">
<!-- Generated by graphviz version 2.43.0 (0)
 -->
<!-- Title: AStarship Pages: 1 -->
<svg width="666pt" height="317pt"
 viewBox="0.00 0.00 666.27 317.00" xmlns="http://www.w3.org/2000/svg" xmlns:xlink="http://www.w3.org/1999/xlink">
<g id="graph0" class="graph" transform="scale(1 1) rotate(0) translate(4 313)">
<title>AStarship</title>
<!-- Node1 -->
<g id="Node000001" class="node">
<title>Node1</title>
<g id="a_Node000001"><a xlink:title=" ">
<polygon fill="#999999" stroke="#666666" points="568.27,-19 505.27,-19 505.27,0 568.27,0 568.27,-19"/>
<text text-anchor="middle" x="536.77" y="-7" font-family="Helvetica,sans-Serif" font-size="10.00">AStarship</text>
</a>
</g>
</g>
<!-- Node2 -->
<g id="Node000002" class="node">
<title>Node2</title>
<g id="a_Node000002"><a xlink:href="classAActor.html" target="_top" xlink:title=" ">
<polygon fill="white" stroke="#666666" points="406.27,-75 357.27,-75 357.27,-56 406.27,-56 406.27,-75"/>
<text text-anchor="middle" x="381.77" y="-63" font-family="Helvetica,sans-Serif" font-size="10.00">AActor</text>
</a>
</g>
</g>
<!-- Node2&#45;&gt;Node1 -->
<g id="edge1_Node000001_Node000002" class="edge">
<title>Node2&#45;&gt;Node1</title>
<g id="a_edge1_Node000001_Node000002"><a xlink:title=" ">
<path fill="none" stroke="#63b8ff" d="M416.1,-52.54C445.27,-42.38 486.41,-28.05 512.32,-19.02"/>
<polygon fill="#63b8ff" stroke="#63b8ff" points="414.62,-49.35 406.33,-55.94 416.92,-55.96 414.62,-49.35"/>
</a>
</g>
</g>
<!-- Node3 -->
<g id="Node000003" class="node">
<title>Node3</title>
<g id="a_Node000003"><a xlink:title=" ">
<polygon fill="white" stroke="#666666" points="511.77,-186.5 477.77,-186.5 477.77,-167.5 511.77,-167.5 511.77,-186.5"/>
<text text-anchor="middle" x="494.77" y="-174.5" font-family="Helvetica,sans-Serif" font-size="10.00">s16</text>
</a>
</g>
</g>
<!-- Node3&#45;&gt;Node2 -->
<g id="edge2_Node000002_Node000003" class="edge">
<title>Node3&#45;&gt;Node2</title>
<g id="a_edge2_Node000002_Node000003"><a xlink:title=" ">
<path fill="none" stroke="#9a32cd" stroke-dasharray="5,2" d="M488.6,-157.85C481.45,-139.27 467.98,-110.68 447.77,-93 436.06,-82.76 419.89,-76.18 406.48,-72.14"/>
<polygon fill="#9a32cd" stroke="#9a32cd" points="485.39,-159.26 492.09,-167.47 491.97,-156.88 485.39,-159.26"/>
</a>
</g>
<text text-anchor="middle" x="502.27" y="-140" font-family="Helvetica,sans-Serif" font-size="10.00" fill="grey"> Flags</text>
<text text-anchor="middle" x="502.27" y="-129" font-family="Helvetica,sans-Serif" font-size="10.00" fill="grey">State</text>
<text text-anchor="middle" x="502.27" y="-118" font-family="Helvetica,sans-Serif" font-size="10.00" fill="grey">Type</text>
<text text-anchor="middle" x="502.27" y="-107" font-family="Helvetica,sans-Serif" font-size="10.00" fill="grey">Unk_04</text>
<text text-anchor="middle" x="502.27" y="-96" font-family="Helvetica,sans-Serif" font-size="10.00" fill="grey">Unk_16</text>
</g>
<!-- Node4 -->
<g id="Node000004" class="node">
<title>Node4</title>
<g id="a_Node000004"><a xlink:title=" ">
<polygon fill="white" stroke="#666666" points="35.77,-309 3.77,-309 3.77,-290 35.77,-290 35.77,-309"/>
<text text-anchor="middle" x="19.77" y="-297" font-family="Helvetica,sans-Serif" font-size="10.00">f32</text>
</a>
</g>
</g>
<!-- Node4&#45;&gt;Node2 -->
<g id="edge3_Node000002_Node000004" class="edge">
<title>Node4&#45;&gt;Node2</title>
<g id="a_edge3_Node000002_Node000004"><a xlink:title=" ">
<path fill="none" stroke="#9a32cd" stroke-dasharray="5,2" d="M12.69,-280.34C3.43,-253.36 -9.31,-202.01 11.77,-166 45.24,-108.81 78.68,-113.27 141.77,-93 217.6,-68.64 313.07,-65.84 357.26,-66.02"/>
<polygon fill="#9a32cd" stroke="#9a32cd" points="9.51,-281.81 16.23,-290 16.08,-279.41 9.51,-281.81"/>
</a>
</g>
<text text-anchor="middle" x="55.77" y="-180" font-family="Helvetica,sans-Serif" font-size="10.00" fill="grey"> BoundingBoxSize</text>
<text text-anchor="middle" x="55.77" y="-169" font-family="Helvetica,sans-Serif" font-size="10.00" fill="grey">Unk_08</text>
</g>
<!-- Node7 -->
<g id="Node000007" class="node">
<title>Node7</title>
<g id="a_Node000007"><a xlink:href="structCollision.html" target="_top" xlink:title=" ">
<polygon fill="white" stroke="#666666" points="168.27,-186.5 109.27,-186.5 109.27,-167.5 168.27,-167.5 168.27,-186.5"/>
<text text-anchor="middle" x="138.77" y="-174.5" font-family="Helvetica,sans-Serif" font-size="10.00">Collision</text>
</a>
</g>
</g>
<!-- Node4&#45;&gt;Node7 -->
<g id="edge8_Node000007_Node000004" class="edge">
<title>Node4&#45;&gt;Node7</title>
<g id="a_edge8_Node000007_Node000004"><a xlink:title=" ">
<path fill="none" stroke="#9a32cd" stroke-dasharray="5,2" d="M20.66,-279.64C22.65,-258.86 28.97,-225.76 48.77,-206 53.2,-201.58 84.48,-192.44 108.94,-185.8"/>
<polygon fill="#9a32cd" stroke="#9a32cd" points="17.16,-279.53 19.94,-289.76 24.14,-280.03 17.16,-279.53"/>
</a>
</g>
<text text-anchor="middle" x="92.77" y="-258.5" font-family="Helvetica,sans-Serif" font-size="10.00" fill="grey"> orientationVector</text>
<text text-anchor="middle" x="92.77" y="-247.5" font-family="Helvetica,sans-Serif" font-size="10.00" fill="grey">surfaceDistance</text>
<text text-anchor="middle" x="92.77" y="-236.5" font-family="Helvetica,sans-Serif" font-size="10.00" fill="grey">unk48</text>
<text text-anchor="middle" x="92.77" y="-225.5" font-family="Helvetica,sans-Serif" font-size="10.00" fill="grey">unk54</text>
<text text-anchor="middle" x="92.77" y="-214.5" font-family="Helvetica,sans-Serif" font-size="10.00" fill="grey">unk6C</text>
</g>
<!-- Node5 -->
<g id="Node000005" class="node">
<title>Node5</title>
<g id="a_Node000005"><a xlink:title=" ">
<polygon fill="white" stroke="#666666" points="233.27,-186.5 186.27,-186.5 186.27,-167.5 233.27,-167.5 233.27,-186.5"/>
<text text-anchor="middle" x="209.77" y="-174.5" font-family="Helvetica,sans-Serif" font-size="10.00">s16[3]</text>
</a>
</g>
</g>
<!-- Node5&#45;&gt;Node2 -->
<g id="edge4_Node000002_Node000005" class="edge">
<title>Node5&#45;&gt;Node2</title>
<g id="a_edge4_Node000002_Node000005"><a xlink:title=" ">
<path fill="none" stroke="#9a32cd" stroke-dasharray="5,2" d="M214.24,-157.69C219.9,-138.52 231.57,-109.04 252.77,-93 283.31,-69.89 329.11,-65.68 357.13,-65.53"/>
<polygon fill="#9a32cd" stroke="#9a32cd" points="210.85,-156.79 211.63,-167.36 217.61,-158.62 210.85,-156.79"/>
</a>
</g>
<text text-anchor="middle" x="262.77" y="-118" font-family="Helvetica,sans-Serif" font-size="10.00" fill="grey"> Rot</text>
</g>
<!-- Node6 -->
<g id="Node000006" class="node">
<title>Node6</title>
<g id="a_Node000006"><a xlink:title=" ">
<polygon fill="white" stroke="#666666" points="297.77,-186.5 251.77,-186.5 251.77,-167.5 297.77,-167.5 297.77,-186.5"/>
<text text-anchor="middle" x="274.77" y="-174.5" font-family="Helvetica,sans-Serif" font-size="10.00">f32[3]</text>
</a>
</g>
</g>
<!-- Node6&#45;&gt;Node2 -->
<g id="edge5_Node000002_Node000006" class="edge">
<title>Node6&#45;&gt;Node2</title>
<g id="a_edge5_Node000002_Node000006"><a xlink:title=" ">
<path fill="none" stroke="#9a32cd" stroke-dasharray="5,2" d="M275.81,-157.22C277.83,-138.55 283.72,-110.26 300.77,-93 315.64,-77.94 339.17,-71.44 357.05,-68.63"/>
<polygon fill="#9a32cd" stroke="#9a32cd" points="272.3,-157.17 274.98,-167.42 279.28,-157.74 272.3,-157.17"/>
</a>
</g>
<text text-anchor="middle" x="320.77" y="-123.5" font-family="Helvetica,sans-Serif" font-size="10.00" fill="grey"> Pos</text>
<text text-anchor="middle" x="320.77" y="-112.5" font-family="Helvetica,sans-Serif" font-size="10.00" fill="grey">Velocity</text>
</g>
<!-- Node7&#45;&gt;Node2 -->
<g id="edge6_Node000002_Node000007" class="edge">
<title>Node7&#45;&gt;Node2</title>
<g id="a_edge6_Node000002_Node000007"><a xlink:title=" ">
<path fill="none" stroke="#9a32cd" stroke-dasharray="5,2" d="M142.33,-157.44C147.09,-138.05 157.53,-108.35 178.77,-93 206.79,-72.76 309.41,-67.98 357.1,-66.85"/>
<polygon fill="#9a32cd" stroke="#9a32cd" points="138.85,-156.97 140.14,-167.49 145.69,-158.46 138.85,-156.97"/>
</a>
</g>
<text text-anchor="middle" x="196.27" y="-118" font-family="Helvetica,sans-Serif" font-size="10.00" fill="grey"> Unk30</text>
</g>
<!-- Node8 -->
<g id="Node000008" class="node">
<title>Node8</title>
<g id="a_Node000008"><a xlink:title=" ">
<polygon fill="white" stroke="#666666" points="164.27,-309 129.27,-309 129.27,-290 164.27,-290 164.27,-309"/>
<text text-anchor="middle" x="146.77" y="-297" font-family="Helvetica,sans-Serif" font-size="10.00">u16</text>
</a>
</g>
</g>
<!-- Node8&#45;&gt;Node7 -->
<g id="edge7_Node000007_Node000008" class="edge">
<title>Node8&#45;&gt;Node7</title>
<g id="a_edge7_Node000007_Node000008"><a xlink:title=" ">
<path fill="none" stroke="#9a32cd" stroke-dasharray="5,2" d="M145.51,-279.57C143.75,-253.03 140.62,-205.88 139.34,-186.59"/>
<polygon fill="#9a32cd" stroke="#9a32cd" points="142.04,-280.09 146.19,-289.83 149.02,-279.62 142.04,-280.09"/>
</a>
</g>
<text text-anchor="middle" x="180.77" y="-264" font-family="Helvetica,sans-Serif" font-size="10.00" fill="grey"> meshIndexYX</text>
<text text-anchor="middle" x="180.77" y="-253" font-family="Helvetica,sans-Serif" font-size="10.00" fill="grey">meshIndexZX</text>
<text text-anchor="middle" x="180.77" y="-242" font-family="Helvetica,sans-Serif" font-size="10.00" fill="grey">meshIndexZY</text>
<text text-anchor="middle" x="180.77" y="-231" font-family="Helvetica,sans-Serif" font-size="10.00" fill="grey">unk30</text>
<text text-anchor="middle" x="180.77" y="-220" font-family="Helvetica,sans-Serif" font-size="10.00" fill="grey">unk32</text>
<text text-anchor="middle" x="180.77" y="-209" font-family="Helvetica,sans-Serif" font-size="10.00" fill="grey">unk34</text>
</g>
<!-- Node9 -->
<g id="Node000009" class="node">
<title>Node9</title>
<g id="a_Node000009"><a xlink:title=" ">
<polygon fill="white" stroke="#666666" points="365.77,-186.5 315.77,-186.5 315.77,-167.5 365.77,-167.5 365.77,-186.5"/>
<text text-anchor="middle" x="340.77" y="-174.5" font-family="Helvetica,sans-Serif" font-size="10.00">uint8_t</text>
</a>
</g>
</g>
<!-- Node9&#45;&gt;Node2 -->
<g id="edge9_Node000002_Node000009" class="edge">
<title>Node9&#45;&gt;Node2</title>
<g id="a_edge9_Node000002_Node000009"><a xlink:title=" ">
<path fill="none" stroke="#9a32cd" stroke-dasharray="5,2" d="M343.69,-157.48C346.86,-140.21 352.86,-114.02 362.77,-93 365.76,-86.65 370.31,-80.23 374.21,-75.31"/>
<polygon fill="#9a32cd" stroke="#9a32cd" points="340.23,-156.96 341.99,-167.4 347.13,-158.13 340.23,-156.96"/>
</a>
</g>
<text text-anchor="middle" x="375.27" y="-118" font-family="Helvetica,sans-Serif" font-size="10.00" fill="grey"> uuid</text>
</g>
<!-- Node10 -->
<g id="Node000010" class="node">
<title>Node10</title>
<g id="a_Node000010"><a xlink:title=" ">
<polygon fill="white" stroke="#666666" points="459.27,-186.5 384.27,-186.5 384.27,-167.5 459.27,-167.5 459.27,-186.5"/>
<text text-anchor="middle" x="421.77" y="-174.5" font-family="Helvetica,sans-Serif" font-size="10.00">const char *</text>
</a>
</g>
</g>
<!-- Node10&#45;&gt;Node2 -->
<g id="edge10_Node000002_Node000010" class="edge">
<title>Node10&#45;&gt;Node2</title>
<g id="a_edge10_Node000002_Node000010"><a xlink:title=" ">
<path fill="none" stroke="#9a32cd" stroke-dasharray="5,2" d="M415.11,-157.76C406.36,-133.82 391.37,-92.77 384.89,-75.05"/>
<polygon fill="#9a32cd" stroke="#9a32cd" points="411.91,-159.22 418.63,-167.41 418.49,-156.81 411.91,-159.22"/>
</a>
</g>
<text text-anchor="middle" x="427.27" y="-118" font-family="Helvetica,sans-Serif" font-size="10.00" fill="grey"> Name</text>
</g>
<!-- Node11 -->
<g id="Node000011" class="node">
<title>Node11</title>
<g id="a_Node000011"><a xlink:href="structFVector.html" target="_top" xlink:title=" ">
<polygon fill="white" stroke="#666666" points="658.27,-186.5 605.27,-186.5 605.27,-167.5 658.27,-167.5 658.27,-186.5"/>
<text text-anchor="middle" x="631.77" y="-174.5" font-family="Helvetica,sans-Serif" font-size="10.00">FVector</text>
</a>
</g>
</g>
<!-- Node11&#45;&gt;Node1 -->
<g id="edge14_Node000001_Node000011" class="edge">
<title>Node11&#45;&gt;Node1</title>
<g id="a_edge14_Node000001_Node000011"><a xlink:title=" ">
<path fill="none" stroke="#9a32cd" stroke-dasharray="5,2" d="M636.05,-157.22C639.06,-139.75 641.09,-113.43 631.77,-93 615.73,-57.82 576.45,-31.85 553.74,-19.17"/>
<polygon fill="#9a32cd" stroke="#9a32cd" points="632.57,-156.77 634.03,-167.26 639.43,-158.14 632.57,-156.77"/>
</a>
</g>
<text text-anchor="middle" x="637.77" y="-63" font-family="Helvetica,sans-Serif" font-size="10.00" fill="grey"> Spawn</text>
</g>
<!-- Node11&#45;&gt;Node2 -->
<g id="edge11_Node000002_Node000011" class="edge">
<title>Node11&#45;&gt;Node2</title>
<g id="a_edge11_Node000002_Node000011"><a xlink:title=" ">
<path fill="none" stroke="#9a32cd" stroke-dasharray="5,2" d="M612.84,-160.65C608.84,-156.81 604.89,-152.49 601.77,-148 586.64,-126.25 599.79,-109.12 578.77,-93 552.28,-72.68 453.28,-67.94 406.53,-66.83"/>
<polygon fill="#9a32cd" stroke="#9a32cd" points="610.59,-163.33 620.39,-167.37 615.25,-158.11 610.59,-163.33"/>
</a>
</g>
<text text-anchor="middle" x="616.77" y="-118" font-family="Helvetica,sans-Serif" font-size="10.00" fill="grey"> Scale</text>
</g>
<!-- Node12 -->
<g id="Node000012" class="node">
<title>Node12</title>
<g id="a_Node000012"><a xlink:title=" ">
<polygon fill="white" stroke="#666666" points="650.77,-309 612.77,-309 612.77,-290 650.77,-290 650.77,-309"/>
<text text-anchor="middle" x="631.77" y="-297" font-family="Helvetica,sans-Serif" font-size="10.00">float</text>
</a>
</g>
</g>
<!-- Node12&#45;&gt;Node11 -->
<g id="edge12_Node000011_Node000012" class="edge">
<title>Node12&#45;&gt;Node11</title>
<g id="a_edge12_Node000011_Node000012"><a xlink:title=" ">
<path fill="none" stroke="#9a32cd" stroke-dasharray="5,2" d="M631.77,-279.57C631.77,-253.03 631.77,-205.88 631.77,-186.59"/>
<polygon fill="#9a32cd" stroke="#9a32cd" points="628.27,-279.83 631.77,-289.83 635.27,-279.83 628.27,-279.83"/>
</a>
</g>
<text text-anchor="middle" x="636.77" y="-247.5" font-family="Helvetica,sans-Serif" font-size="10.00" fill="grey"> x</text>
<text text-anchor="middle" x="636.77" y="-236.5" font-family="Helvetica,sans-Serif" font-size="10.00" fill="grey">y</text>
<text text-anchor="middle" x="636.77" y="-225.5" font-family="Helvetica,sans-Serif" font-size="10.00" fill="grey">z</text>
</g>
<!-- Node13 -->
<g id="Node000013" class="node">
<title>Node13</title>
<g id="a_Node000013"><a xlink:title=" ">
<polygon fill="white" stroke="#666666" points="571.77,-186.5 529.77,-186.5 529.77,-167.5 571.77,-167.5 571.77,-186.5"/>
<text text-anchor="middle" x="550.77" y="-174.5" font-family="Helvetica,sans-Serif" font-size="10.00">Gfx *</text>
</a>
</g>
</g>
<!-- Node13&#45;&gt;Node2 -->
<g id="edge13_Node000002_Node000013" class="edge">
<title>Node13&#45;&gt;Node2</title>
<g id="a_edge13_Node000002_Node000013"><a xlink:title=" ">
<path fill="none" stroke="#9a32cd" stroke-dasharray="5,2" d="M546.58,-157.48C541.29,-135.73 531.67,-101.52 521.77,-93 504.8,-78.39 441.84,-71.19 406.41,-68.23"/>
<polygon fill="#9a32cd" stroke="#9a32cd" points="543.18,-158.32 548.87,-167.25 550,-156.72 543.18,-158.32"/>
</a>
</g>
<text text-anchor="middle" x="559.77" y="-118" font-family="Helvetica,sans-Serif" font-size="10.00" fill="grey"> Model</text>
</g>
</g>
</svg>
