<?xml version="1.0" encoding="UTF-8" standalone="no"?>
<!DOCTYPE svg PUBLIC "-//W3C//DTD SVG 1.1//EN"
 "http://www.w3.org/Graphics/SVG/1.1/DTD/svg11.dtd">
<!-- Generated by graphviz version 2.43.0 (0)
 -->
<!-- Title: KoopaTroopaBeach::BeginPlay Pages: 1 -->
<!--zoomable 641 -->

<svg id="main" version="1.1" xmlns="http://www.w3.org/2000/svg" xmlns:xlink="http://www.w3.org/1999/xlink" xml:space="preserve" onload="init(evt)">

<style type="text/css"><![CDATA[
.node, .edge {opacity: 0.7;}
.node.selected, .edge.selected {opacity: 1;}
.edge:hover path { stroke: red; }
.edge:hover polygon { stroke: red; fill: red; }
]]></style>

<defs>
  <circle id="rim" cx="0" cy="0" r="7"/>
  <circle id="rim2" cx="0" cy="0" r="3.5"/>
  <g id="zoomPlus">
    <use xlink:href="#rim" fill="#404040"><set attributeName="fill" to="#808080" begin="zoomplus.mouseover" end="zoomplus.mouseout"/></use>
    <path d="M-4,0h8M0,-4v8" fill="none" stroke="white" stroke-width="1.5" pointer-events="none"/>
  </g>
  <g id="zoomMin">
    <use xlink:href="#rim" fill="#404040"><set attributeName="fill" to="#808080" begin="zoomminus.mouseover" end="zoomminus.mouseout"/></use>
    <path d="M-4,0h8" fill="none" stroke="white" stroke-width="1.5" pointer-events="none"/>
  </g>
  <g id="arrowUp" transform="translate(30 24)">
    <use xlink:href="#rim"/>
    <path pointer-events="none" fill="none" stroke="white" stroke-width="1.5" d="M0,-3.0v7 M-2.5,-0.5L0,-3.0L2.5,-0.5"/>
  </g>
  <g id="arrowRight" transform="rotate(90) translate(36 -43)">
    <use xlink:href="#rim"/>
    <path pointer-events="none" fill="none" stroke="white" stroke-width="1.5" d="M0,-3.0v7 M-2.5,-0.5L0,-3.0L2.5,-0.5"/>
  </g>
  <g id="arrowDown" transform="rotate(180) translate(-30 -48)">
    <use xlink:href="#rim"/>
    <path pointer-events="none" fill="none" stroke="white" stroke-width="1.5" d="M0,-3.0v7 M-2.5,-0.5L0,-3.0L2.5,-0.5"/>
  </g>
  <g id="arrowLeft" transform="rotate(270) translate(-36 17)">
    <use xlink:href="#rim"/>
    <path pointer-events="none" fill="none" stroke="white" stroke-width="1.5" d="M0,-3.0v7 M-2.5,-0.5L0,-3.0L2.5,-0.5"/>
  </g>
  <g id="resetDef">
    <use xlink:href="#rim2" fill="#404040"><set attributeName="fill" to="#808080" begin="reset.mouseover" end="reset.mouseout"/></use>
  </g>
</defs>
<script type="application/ecmascript">
var viewWidth = 1799;
var viewHeight = 641;
var sectionId = 'dynsection-3';
</script>
<script type="application/ecmascript" xlink:href="svg.min.js"/>
<svg id="graph" class="graph">
<g id="viewport">
<title>KoopaTroopaBeach::BeginPlay</title>
<!-- Node1 -->
<g id="Node000001" class="node">
<title>Node1</title>
<g id="a_Node000001"><a xlink:title=" ">
<polygon fill="#999999" stroke="#666666" points="164,-397 0,-397 0,-378 164,-378 164,-397"/>
<text text-anchor="middle" x="82" y="-385" font-family="Helvetica,sans-Serif" font-size="10.00">KoopaTroopaBeach::BeginPlay</text>
</a>
</g>
</g>
<!-- Node2 -->
<g id="Node000002" class="node">
<title>Node2</title>
<g id="a_Node000002"><a xlink:href="actors_8c.html#a5998eaf5bee060a664f203f5d0a8ae95" target="_top" xlink:title=" ">
<polygon fill="white" stroke="#666666" points="318,-402.5 209,-402.5 209,-372.5 318,-372.5 318,-402.5"/>
<text text-anchor="start" x="217" y="-390.5" font-family="Helvetica,sans-Serif" font-size="10.00">init_actor_hot_air</text>
<text text-anchor="middle" x="263.5" y="-379.5" font-family="Helvetica,sans-Serif" font-size="10.00">_balloon_item_box</text>
</a>
</g>
</g>
<!-- Node1&#45;&gt;Node2 -->
<g id="edge1_Node000001_Node000002" class="edge">
<title>Node1&#45;&gt;Node2</title>
<g id="a_edge1_Node000001_Node000002"><a xlink:title=" ">
<path fill="none" stroke="#63b8ff" d="M164.09,-387.5C175.68,-387.5 187.47,-387.5 198.67,-387.5"/>
<polygon fill="#63b8ff" stroke="#63b8ff" points="198.77,-391 208.77,-387.5 198.77,-384 198.77,-391"/>
</a>
</g>
</g>
<!-- Node31 -->
<g id="Node000031" class="node">
<title>Node31</title>
<g id="a_Node000031"><a xlink:href="actors_8c.html#ac586c2534258d0f108e15fd88751b760" target="_top" xlink:title=" ">
<polygon fill="white" stroke="#666666" points="327,-531 200,-531 200,-512 327,-512 327,-531"/>
<text text-anchor="middle" x="263.5" y="-519" font-family="Helvetica,sans-Serif" font-size="10.00">spawn_all_item_boxes</text>
</a>
</g>
</g>
<!-- Node1&#45;&gt;Node31 -->
<g id="edge32_Node000001_Node000031" class="edge">
<title>Node1&#45;&gt;Node31</title>
<g id="a_edge32_Node000001_Node000031"><a xlink:title=" ">
<path fill="none" stroke="#63b8ff" d="M95.91,-397.14C126.57,-420.03 204,-477.83 241.5,-505.83"/>
<polygon fill="#63b8ff" stroke="#63b8ff" points="239.6,-508.77 249.71,-511.95 243.79,-503.16 239.6,-508.77"/>
</a>
</g>
</g>
<!-- Node36 -->
<g id="Node000036" class="node">
<title>Node36</title>
<g id="a_Node000036"><a xlink:href="actors_8c.html#a64785058c93cd477d4f1f3fd1eee38fe" target="_top" xlink:title=" ">
<polygon fill="white" stroke="#666666" points="317.5,-211 209.5,-211 209.5,-192 317.5,-192 317.5,-211"/>
<text text-anchor="middle" x="263.5" y="-199" font-family="Helvetica,sans-Serif" font-size="10.00">spawn_palm_trees</text>
</a>
</g>
</g>
<!-- Node1&#45;&gt;Node36 -->
<g id="edge40_Node000001_Node000036" class="edge">
<title>Node1&#45;&gt;Node36</title>
<g id="a_edge40_Node000001_Node000036"><a xlink:title=" ">
<path fill="none" stroke="#63b8ff" d="M92.4,-377.76C121.36,-347.75 209.48,-256.44 246.18,-218.41"/>
<polygon fill="#63b8ff" stroke="#63b8ff" points="248.77,-220.77 253.2,-211.14 243.73,-215.91 248.77,-220.77"/>
</a>
</g>
</g>
<!-- Node3 -->
<g id="Node000003" class="node">
<title>Node3</title>
<g id="a_Node000003"><a xlink:href="actors_8c.html#a91fb2e4e37e7c72fea918fe2c1bb4eaf" target="_top" xlink:title=" ">
<polygon fill="white" stroke="#666666" points="503,-341 363,-341 363,-322 503,-322 503,-341"/>
<text text-anchor="middle" x="433" y="-329" font-family="Helvetica,sans-Serif" font-size="10.00">add_actor_to_empty_slot</text>
</a>
</g>
</g>
<!-- Node2&#45;&gt;Node3 -->
<g id="edge2_Node000002_Node000003" class="edge">
<title>Node2&#45;&gt;Node3</title>
<g id="a_edge2_Node000002_Node000003"><a xlink:title=" ">
<path fill="none" stroke="#63b8ff" d="M309.39,-372.49C335.82,-363.66 368.89,-352.6 394.03,-344.2"/>
<polygon fill="#63b8ff" stroke="#63b8ff" points="395.21,-347.49 403.58,-341 392.99,-340.85 395.21,-347.49"/>
</a>
</g>
</g>
<!-- Node10 -->
<g id="Node000010" class="node">
<title>Node10</title>
<g id="a_Node000010"><a xlink:href="Game_8cpp.html#a693de7d8b89fe291aafea86bc64a0a2e" target="_top" xlink:title=" ">
<polygon fill="white" stroke="#666666" points="1003,-307 923,-307 923,-288 1003,-288 1003,-307"/>
<text text-anchor="middle" x="963" y="-295" font-family="Helvetica,sans-Serif" font-size="10.00">CM_GetActor</text>
</a>
</g>
</g>
<!-- Node2&#45;&gt;Node10 -->
<g id="edge29_Node000002_Node000010" class="edge">
<title>Node2&#45;&gt;Node10</title>
<g id="a_edge29_Node000002_Node000010"><a xlink:title=" ">
<path fill="none" stroke="#63b8ff" d="M318.1,-397.67C397.3,-410.97 549.93,-429.97 677,-406.5 776.14,-388.19 885.38,-336.86 934.92,-311.73"/>
<polygon fill="#63b8ff" stroke="#63b8ff" points="936.71,-314.75 944.01,-307.07 933.51,-308.52 936.71,-314.75"/>
</a>
</g>
</g>
<!-- Node23 -->
<g id="Node000023" class="node">
<title>Node23</title>
<g id="a_Node000023"><a xlink:href="math__util_8c.html#a79fd07a0971ec96a3ff0801963a2fa7f" target="_top" xlink:title=" ">
<polygon fill="white" stroke="#666666" points="995,-454 931,-454 931,-435 995,-435 995,-454"/>
<text text-anchor="middle" x="963" y="-442" font-family="Helvetica,sans-Serif" font-size="10.00">vec3f_set</text>
</a>
</g>
</g>
<!-- Node2&#45;&gt;Node23 -->
<g id="edge30_Node000002_Node000023" class="edge">
<title>Node2&#45;&gt;Node23</title>
<g id="a_edge30_Node000002_Node000023"><a xlink:title=" ">
<path fill="none" stroke="#63b8ff" d="M285.96,-402.67C305.14,-415.26 334.52,-432.23 363,-439.5 566.68,-491.51 822.16,-464.5 920.65,-450.84"/>
<polygon fill="#63b8ff" stroke="#63b8ff" points="921.38,-454.27 930.79,-449.4 920.39,-447.34 921.38,-454.27"/>
</a>
</g>
</g>
<!-- Node30 -->
<g id="Node000030" class="node">
<title>Node30</title>
<g id="a_Node000030"><a xlink:href="math__util_8c.html#a9092c945c52b3a3481228b2724991e3c" target="_top" xlink:title=" ">
<polygon fill="white" stroke="#666666" points="465.5,-286 400.5,-286 400.5,-267 465.5,-267 465.5,-286"/>
<text text-anchor="middle" x="433" y="-274" font-family="Helvetica,sans-Serif" font-size="10.00">vec3s_set</text>
</a>
</g>
</g>
<!-- Node2&#45;&gt;Node30 -->
<g id="edge31_Node000002_Node000030" class="edge">
<title>Node2&#45;&gt;Node30</title>
<g id="a_edge31_Node000002_Node000030"><a xlink:title=" ">
<path fill="none" stroke="#63b8ff" d="M282.34,-372.43C301.58,-356.55 333.43,-331.28 363,-312.5 375.54,-304.53 390.04,-296.77 402.5,-290.5"/>
<polygon fill="#63b8ff" stroke="#63b8ff" points="404.15,-293.59 411.57,-286.02 401.05,-287.32 404.15,-293.59"/>
</a>
</g>
</g>
<!-- Node4 -->
<g id="Node000004" class="node">
<title>Node4</title>
<g id="a_Node000004"><a xlink:href="actors_8c.html#a39c023177b5a7686cdd1fc65b8b953e1" target="_top" xlink:title=" ">
<polygon fill="white" stroke="#666666" points="639,-249 577,-249 577,-230 639,-230 639,-249"/>
<text text-anchor="middle" x="608" y="-237" font-family="Helvetica,sans-Serif" font-size="10.00">actor_init</text>
</a>
</g>
</g>
<!-- Node3&#45;&gt;Node4 -->
<g id="edge3_Node000003_Node000004" class="edge">
<title>Node3&#45;&gt;Node4</title>
<g id="a_edge3_Node000003_Node000004"><a xlink:title=" ">
<path fill="none" stroke="#63b8ff" d="M455.85,-321.92C469.96,-315.23 488.34,-305.54 503,-294.5 521.33,-280.69 519.19,-269.08 539,-257.5 547.53,-252.51 557.46,-248.88 567.05,-246.25"/>
<polygon fill="#63b8ff" stroke="#63b8ff" points="567.97,-249.62 576.85,-243.84 566.31,-242.83 567.97,-249.62"/>
</a>
</g>
</g>
<!-- Node26 -->
<g id="Node000026" class="node">
<title>Node26</title>
<g id="a_Node000026"><a xlink:href="Game_8cpp.html#a42f23077aaa52cb3ea5c7803b7dd6816" target="_top" xlink:title=" ">
<polygon fill="white" stroke="#666666" points="661,-360 555,-360 555,-341 661,-341 661,-360"/>
<text text-anchor="middle" x="608" y="-348" font-family="Helvetica,sans-Serif" font-size="10.00">CM_AddBaseActor</text>
</a>
</g>
</g>
<!-- Node3&#45;&gt;Node26 -->
<g id="edge25_Node000003_Node000026" class="edge">
<title>Node3&#45;&gt;Node26</title>
<g id="a_edge25_Node000003_Node000026"><a xlink:title=" ">
<path fill="none" stroke="#63b8ff" d="M503.37,-339.12C517.08,-340.62 531.38,-342.2 544.84,-343.67"/>
<polygon fill="#63b8ff" stroke="#63b8ff" points="544.61,-347.17 554.93,-344.78 545.37,-340.21 544.61,-347.17"/>
</a>
</g>
</g>
<!-- Node27 -->
<g id="Node000027" class="node">
<title>Node27</title>
<g id="a_Node000027"><a xlink:href="Game_8cpp.html#aab23ecf7032de4618ff75c395d8fccf1" target="_top" xlink:title=" ">
<polygon fill="white" stroke="#666666" points="666,-323 550,-323 550,-304 666,-304 666,-323"/>
<text text-anchor="middle" x="608" y="-311" font-family="Helvetica,sans-Serif" font-size="10.00">CM_AddEditorObject</text>
</a>
</g>
</g>
<!-- Node3&#45;&gt;Node27 -->
<g id="edge26_Node000003_Node000027" class="edge">
<title>Node3&#45;&gt;Node27</title>
<g id="a_edge26_Node000003_Node000027"><a xlink:title=" ">
<path fill="none" stroke="#63b8ff" d="M503.37,-324.28C515.29,-323.04 527.67,-321.75 539.54,-320.52"/>
<polygon fill="#63b8ff" stroke="#63b8ff" points="540.24,-323.97 549.82,-319.45 539.51,-317 540.24,-323.97"/>
</a>
</g>
</g>
<!-- Node28 -->
<g id="Node000028" class="node">
<title>Node28</title>
<g id="a_Node000028"><a xlink:href="Game_8cpp.html#a0841ffe9a66e95aca42438b9d8ffc3d3" target="_top" xlink:title=" ">
<polygon fill="white" stroke="#666666" points="658.5,-286 557.5,-286 557.5,-267 658.5,-267 658.5,-286"/>
<text text-anchor="middle" x="608" y="-274" font-family="Helvetica,sans-Serif" font-size="10.00">CM_GetActorSize</text>
</a>
</g>
</g>
<!-- Node3&#45;&gt;Node28 -->
<g id="edge27_Node000003_Node000028" class="edge">
<title>Node3&#45;&gt;Node28</title>
<g id="a_edge27_Node000003_Node000028"><a xlink:title=" ">
<path fill="none" stroke="#63b8ff" d="M459.27,-321.95C480.42,-314.12 511.48,-302.98 539,-294.5 545.43,-292.52 552.24,-290.56 558.97,-288.7"/>
<polygon fill="#63b8ff" stroke="#63b8ff" points="559.99,-292.05 568.72,-286.06 558.16,-285.29 559.99,-292.05"/>
</a>
</g>
</g>
<!-- Node29 -->
<g id="Node000029" class="node">
<title>Node29</title>
<g id="a_Node000029"><a xlink:href="actors_8c.html#a3d238d4f049ffbc555cb8a4dc93c9975" target="_top" xlink:title=" ">
<polygon fill="white" stroke="#666666" points="655.5,-397 560.5,-397 560.5,-378 655.5,-378 655.5,-397"/>
<text text-anchor="middle" x="608" y="-385" font-family="Helvetica,sans-Serif" font-size="10.00">get_actor_name</text>
</a>
</g>
</g>
<!-- Node3&#45;&gt;Node29 -->
<g id="edge28_Node000003_Node000029" class="edge">
<title>Node3&#45;&gt;Node29</title>
<g id="a_edge28_Node000003_Node000029"><a xlink:title=" ">
<path fill="none" stroke="#63b8ff" d="M459.73,-341.1C480.89,-348.87 511.72,-359.89 539,-368.5 546.23,-370.78 553.94,-373.07 561.48,-375.23"/>
<polygon fill="#63b8ff" stroke="#63b8ff" points="560.65,-378.63 571.22,-377.98 562.55,-371.9 560.65,-378.63"/>
</a>
</g>
</g>
<!-- Node5 -->
<g id="Node000005" class="node">
<title>Node5</title>
<g id="a_Node000005"><a xlink:href="collision_8c.html#a37aa55b3768d001533ad75e7f1b8388a" target="_top" xlink:title=" ">
<polygon fill="white" stroke="#666666" points="854,-87 713,-87 713,-68 854,-68 854,-87"/>
<text text-anchor="middle" x="783.5" y="-75" font-family="Helvetica,sans-Serif" font-size="10.00">check_bounding_collision</text>
</a>
</g>
</g>
<!-- Node4&#45;&gt;Node5 -->
<g id="edge4_Node000004_Node000005" class="edge">
<title>Node4&#45;&gt;Node5</title>
<g id="a_edge4_Node000004_Node000005"><a xlink:title=" ">
<path fill="none" stroke="#63b8ff" d="M615.39,-229.97C635.89,-199.49 699.49,-105.83 713,-96.5 715.92,-94.48 719.04,-92.68 722.29,-91.07"/>
<polygon fill="#63b8ff" stroke="#63b8ff" points="723.91,-94.18 731.71,-87.02 721.15,-87.75 723.91,-94.18"/>
</a>
</g>
</g>
<!-- Node9 -->
<g id="Node000009" class="node">
<title>Node9</title>
<g id="a_Node000009"><a xlink:href="actors_8c.html#a1a9bccb586242555a9123ebd4ab70f2a" target="_top" xlink:title=" ">
<polygon fill="white" stroke="#666666" points="849.5,-135.5 717.5,-135.5 717.5,-105.5 849.5,-105.5 849.5,-135.5"/>
<text text-anchor="start" x="725.5" y="-123.5" font-family="Helvetica,sans-Serif" font-size="10.00">cleanup_red_and_green</text>
<text text-anchor="middle" x="783.5" y="-112.5" font-family="Helvetica,sans-Serif" font-size="10.00">_shells</text>
</a>
</g>
</g>
<!-- Node4&#45;&gt;Node9 -->
<g id="edge8_Node000004_Node000009" class="edge">
<title>Node4&#45;&gt;Node9</title>
<g id="a_edge8_Node000004_Node000009"><a xlink:title=" ">
<path fill="none" stroke="#63b8ff" d="M622.9,-229.96C650.75,-210.87 713.92,-167.54 751.9,-141.49"/>
<polygon fill="#63b8ff" stroke="#63b8ff" points="754.25,-144.12 760.52,-135.57 750.3,-138.34 754.25,-144.12"/>
</a>
</g>
</g>
<!-- Node22 -->
<g id="Node000022" class="node">
<title>Node22</title>
<g id="a_Node000022"><a xlink:href="collision_8c.html#ad72fef3ffe32191d73b1822f512ebf3f" target="_top" xlink:title=" ">
<polygon fill="white" stroke="#666666" points="831,-435 736,-435 736,-416 831,-416 831,-435"/>
<text text-anchor="middle" x="783.5" y="-423" font-family="Helvetica,sans-Serif" font-size="10.00">func_802AAAAC</text>
</a>
</g>
</g>
<!-- Node4&#45;&gt;Node22 -->
<g id="edge21_Node000004_Node000022" class="edge">
<title>Node4&#45;&gt;Node22</title>
<g id="a_edge21_Node000004_Node000022"><a xlink:title=" ">
<path fill="none" stroke="#63b8ff" d="M639.23,-242.55C651.85,-245.01 666.08,-249.47 677,-257.5 704.43,-277.69 752.45,-366.96 772.87,-406.52"/>
<polygon fill="#63b8ff" stroke="#63b8ff" points="769.87,-408.34 777.54,-415.64 776.1,-405.15 769.87,-408.34"/>
</a>
</g>
</g>
<!-- Node24 -->
<g id="Node000024" class="node">
<title>Node24</title>
<g id="a_Node000024"><a xlink:href="math__util_8c.html#af7b470ed76fce07b8042a47c96e5690b" target="_top" xlink:title=" ">
<polygon fill="white" stroke="#666666" points="837,-249 730,-249 730,-230 837,-230 837,-249"/>
<text text-anchor="middle" x="783.5" y="-237" font-family="Helvetica,sans-Serif" font-size="10.00">vec3f_copy_return</text>
</a>
</g>
</g>
<!-- Node4&#45;&gt;Node24 -->
<g id="edge23_Node000004_Node000024" class="edge">
<title>Node4&#45;&gt;Node24</title>
<g id="a_edge23_Node000004_Node000024"><a xlink:title=" ">
<path fill="none" stroke="#63b8ff" d="M639.22,-239.5C661.35,-239.5 692.16,-239.5 719.55,-239.5"/>
<polygon fill="#63b8ff" stroke="#63b8ff" points="719.85,-243 729.85,-239.5 719.85,-236 719.85,-243"/>
</a>
</g>
</g>
<!-- Node25 -->
<g id="Node000025" class="node">
<title>Node25</title>
<g id="a_Node000025"><a xlink:href="math__util_8c.html#a0e270ee67600c8c9c2f140c647d008a1" target="_top" xlink:title=" ">
<polygon fill="white" stroke="#666666" points="820.5,-286 746.5,-286 746.5,-267 820.5,-267 820.5,-286"/>
<text text-anchor="middle" x="783.5" y="-274" font-family="Helvetica,sans-Serif" font-size="10.00">vec3s_copy</text>
</a>
</g>
</g>
<!-- Node4&#45;&gt;Node25 -->
<g id="edge24_Node000004_Node000025" class="edge">
<title>Node4&#45;&gt;Node25</title>
<g id="a_edge24_Node000004_Node000025"><a xlink:title=" ">
<path fill="none" stroke="#63b8ff" d="M639.22,-245.94C666,-251.66 705.51,-260.08 736.26,-266.64"/>
<polygon fill="#63b8ff" stroke="#63b8ff" points="735.81,-270.12 746.32,-268.78 737.27,-263.28 735.81,-270.12"/>
</a>
</g>
</g>
<!-- Node6 -->
<g id="Node000006" class="node">
<title>Node6</title>
<g id="a_Node000006"><a xlink:href="collision_8c.html#ac312bf382cb40752f6b790a99e7cdcb6" target="_top" xlink:title=" ">
<polygon fill="white" stroke="#666666" points="1017,-56 909,-56 909,-37 1017,-37 1017,-56"/>
<text text-anchor="middle" x="963" y="-44" font-family="Helvetica,sans-Serif" font-size="10.00">check_collision_yx</text>
</a>
</g>
</g>
<!-- Node5&#45;&gt;Node6 -->
<g id="edge5_Node000005_Node000006" class="edge">
<title>Node5&#45;&gt;Node6</title>
<g id="a_edge5_Node000005_Node000006"><a xlink:title=" ">
<path fill="none" stroke="#63b8ff" d="M839.2,-67.95C858.11,-64.64 879.45,-60.92 898.98,-57.51"/>
<polygon fill="#63b8ff" stroke="#63b8ff" points="899.75,-60.93 909,-55.76 898.54,-54.03 899.75,-60.93"/>
</a>
</g>
</g>
<!-- Node7 -->
<g id="Node000007" class="node">
<title>Node7</title>
<g id="a_Node000007"><a xlink:href="collision_8c.html#a4b48832a90e984536a0635a016ec4f28" target="_top" xlink:title=" ">
<polygon fill="white" stroke="#666666" points="1016.5,-19 909.5,-19 909.5,0 1016.5,0 1016.5,-19"/>
<text text-anchor="middle" x="963" y="-7" font-family="Helvetica,sans-Serif" font-size="10.00">check_collision_zx</text>
</a>
</g>
</g>
<!-- Node5&#45;&gt;Node7 -->
<g id="edge6_Node000005_Node000007" class="edge">
<title>Node5&#45;&gt;Node7</title>
<g id="a_edge6_Node000005_Node000007"><a xlink:title=" ">
<path fill="none" stroke="#63b8ff" d="M830.85,-67.93C838.81,-65.42 846.82,-62.32 854,-58.5 872.64,-48.58 871.25,-37.21 890,-27.5 893.57,-25.65 897.33,-23.99 901.19,-22.49"/>
<polygon fill="#63b8ff" stroke="#63b8ff" points="902.65,-25.69 910.94,-19.1 900.35,-19.08 902.65,-25.69"/>
</a>
</g>
</g>
<!-- Node8 -->
<g id="Node000008" class="node">
<title>Node8</title>
<g id="a_Node000008"><a xlink:href="collision_8c.html#a21fef964ab48191a1c0341954ef27a40" target="_top" xlink:title=" ">
<polygon fill="white" stroke="#666666" points="1016.5,-93 909.5,-93 909.5,-74 1016.5,-74 1016.5,-93"/>
<text text-anchor="middle" x="963" y="-81" font-family="Helvetica,sans-Serif" font-size="10.00">check_collision_zy</text>
</a>
</g>
</g>
<!-- Node5&#45;&gt;Node8 -->
<g id="edge7_Node000005_Node000008" class="edge">
<title>Node5&#45;&gt;Node8</title>
<g id="a_edge7_Node000005_Node000008"><a xlink:title=" ">
<path fill="none" stroke="#63b8ff" d="M854.14,-79.85C868.91,-80.35 884.43,-80.88 898.94,-81.37"/>
<polygon fill="#63b8ff" stroke="#63b8ff" points="899.19,-84.88 909.3,-81.72 899.42,-77.88 899.19,-84.88"/>
</a>
</g>
</g>
<!-- Node9&#45;&gt;Node10 -->
<g id="edge9_Node000009_Node000010" class="edge">
<title>Node9&#45;&gt;Node10</title>
<g id="a_edge9_Node000009_Node000010"><a xlink:title=" ">
<path fill="none" stroke="#63b8ff" d="M830.6,-135.54C838.84,-139.37 847.02,-143.99 854,-149.5 878.2,-168.59 927.64,-243.58 950.25,-278.9"/>
<polygon fill="#63b8ff" stroke="#63b8ff" points="947.55,-281.18 955.87,-287.74 953.46,-277.42 947.55,-281.18"/>
</a>
</g>
</g>
<!-- Node11 -->
<g id="Node000011" class="node">
<title>Node11</title>
<g id="a_Node000011"><a xlink:href="code__80005FD0_8c.html#ad301b978cdd3c4cc190b10be050d51d8" target="_top" xlink:title=" ">
<polygon fill="white" stroke="#666666" points="1036,-178.5 890,-178.5 890,-148.5 1036,-148.5 1036,-178.5"/>
<text text-anchor="start" x="898" y="-166.5" font-family="Helvetica,sans-Serif" font-size="10.00">delete_actor_in_unexpired</text>
<text text-anchor="middle" x="963" y="-155.5" font-family="Helvetica,sans-Serif" font-size="10.00">_actor_list</text>
</a>
</g>
</g>
<!-- Node9&#45;&gt;Node11 -->
<g id="edge10_Node000009_Node000011" class="edge">
<title>Node9&#45;&gt;Node11</title>
<g id="a_edge10_Node000009_Node000011"><a xlink:title=" ">
<path fill="none" stroke="#63b8ff" d="M846.58,-135.54C860.63,-138.94 875.67,-142.59 890.09,-146.08"/>
<polygon fill="#63b8ff" stroke="#63b8ff" points="889.41,-149.52 899.95,-148.47 891.06,-142.71 889.41,-149.52"/>
</a>
</g>
</g>
<!-- Node12 -->
<g id="Node000012" class="node">
<title>Node12</title>
<g id="a_Node000012"><a xlink:href="actors_8c.html#a694ec6ef7548b8618aeb35c038d3a9b9" target="_top" xlink:title=" ">
<polygon fill="white" stroke="#666666" points="1004.5,-130 921.5,-130 921.5,-111 1004.5,-111 1004.5,-130"/>
<text text-anchor="middle" x="963" y="-118" font-family="Helvetica,sans-Serif" font-size="10.00">destroy_actor</text>
</a>
</g>
</g>
<!-- Node9&#45;&gt;Node12 -->
<g id="edge11_Node000009_Node000012" class="edge">
<title>Node9&#45;&gt;Node12</title>
<g id="a_edge11_Node000009_Node000012"><a xlink:title=" ">
<path fill="none" stroke="#63b8ff" d="M849.59,-120.5C869.97,-120.5 892.14,-120.5 911.37,-120.5"/>
<polygon fill="#63b8ff" stroke="#63b8ff" points="911.43,-124 921.43,-120.5 911.43,-117 911.43,-124"/>
</a>
</g>
</g>
<!-- Node13 -->
<g id="Node000013" class="node">
<title>Node13</title>
<g id="a_Node000013"><a xlink:href="actors_8c.html#a12dc3ccac4c7d8569eadac0af4fd6f9f" target="_top" xlink:title=" ">
<polygon fill="white" stroke="#666666" points="1230,-130 1072,-130 1072,-111 1230,-111 1230,-130"/>
<text text-anchor="middle" x="1151" y="-118" font-family="Helvetica,sans-Serif" font-size="10.00">play_sound_before_despawn</text>
</a>
</g>
</g>
<!-- Node12&#45;&gt;Node13 -->
<g id="edge12_Node000012_Node000013" class="edge">
<title>Node12&#45;&gt;Node13</title>
<g id="a_edge12_Node000012_Node000013"><a xlink:title=" ">
<path fill="none" stroke="#63b8ff" d="M1004.82,-120.5C1021.65,-120.5 1041.86,-120.5 1061.77,-120.5"/>
<polygon fill="#63b8ff" stroke="#63b8ff" points="1061.82,-124 1071.82,-120.5 1061.82,-117 1061.82,-124"/>
</a>
</g>
</g>
<!-- Node14 -->
<g id="Node000014" class="node">
<title>Node14</title>
<g id="a_Node000014"><a xlink:href="external_8c.html#ae72057869772019e4464c87d4e16c682" target="_top" xlink:title=" ">
<polygon fill="white" stroke="#666666" points="1358,-130 1266,-130 1266,-111 1358,-111 1358,-130"/>
<text text-anchor="middle" x="1312" y="-118" font-family="Helvetica,sans-Serif" font-size="10.00">func_800C99E0</text>
</a>
</g>
</g>
<!-- Node13&#45;&gt;Node14 -->
<g id="edge13_Node000013_Node000014" class="edge">
<title>Node13&#45;&gt;Node14</title>
<g id="a_edge13_Node000013_Node000014"><a xlink:title=" ">
<path fill="none" stroke="#63b8ff" d="M1230.1,-120.5C1238.72,-120.5 1247.35,-120.5 1255.61,-120.5"/>
<polygon fill="#63b8ff" stroke="#63b8ff" points="1255.83,-124 1265.83,-120.5 1255.83,-117 1255.83,-124"/>
</a>
</g>
</g>
<!-- Node15 -->
<g id="Node000015" class="node">
<title>Node15</title>
<g id="a_Node000015"><a xlink:href="external_8c.html#aeb87c527482a244173df36a1f3d4f446" target="_top" xlink:title=" ">
<polygon fill="white" stroke="#666666" points="1486,-149 1394,-149 1394,-130 1486,-130 1486,-149"/>
<text text-anchor="middle" x="1440" y="-137" font-family="Helvetica,sans-Serif" font-size="10.00">func_800C21E8</text>
</a>
</g>
</g>
<!-- Node14&#45;&gt;Node15 -->
<g id="edge14_Node000014_Node000015" class="edge">
<title>Node14&#45;&gt;Node15</title>
<g id="a_edge14_Node000014_Node000015"><a xlink:title=" ">
<path fill="none" stroke="#63b8ff" d="M1358.13,-127.31C1366.46,-128.56 1375.23,-129.88 1383.81,-131.18"/>
<polygon fill="#63b8ff" stroke="#63b8ff" points="1383.35,-134.65 1393.76,-132.68 1384.39,-127.73 1383.35,-134.65"/>
</a>
</g>
</g>
<!-- Node16 -->
<g id="Node000016" class="node">
<title>Node16</title>
<g id="a_Node000016"><a xlink:href="external_8c.html#a028d40421b90c38f68ebfd5acc626f2e" target="_top" xlink:title=" ">
<polygon fill="white" stroke="#666666" points="1486,-112 1394,-112 1394,-93 1486,-93 1486,-112"/>
<text text-anchor="middle" x="1440" y="-100" font-family="Helvetica,sans-Serif" font-size="10.00">func_800C5578</text>
</a>
</g>
</g>
<!-- Node14&#45;&gt;Node16 -->
<g id="edge15_Node000014_Node000016" class="edge">
<title>Node14&#45;&gt;Node16</title>
<g id="a_edge15_Node000014_Node000016"><a xlink:title=" ">
<path fill="none" stroke="#63b8ff" d="M1358.13,-114.05C1366.46,-112.86 1375.23,-111.61 1383.81,-110.38"/>
<polygon fill="#63b8ff" stroke="#63b8ff" points="1384.35,-113.84 1393.76,-108.96 1383.36,-106.91 1384.35,-113.84"/>
</a>
</g>
</g>
<!-- Node17 -->
<g id="Node000017" class="node">
<title>Node17</title>
<g id="a_Node000017"><a xlink:href="external_8c.html#ac0fb767de7e14a03f1bcfa53f0abd23b" target="_top" xlink:title=" ">
<polygon fill="white" stroke="#666666" points="1662,-149 1522,-149 1522,-130 1662,-130 1662,-149"/>
<text text-anchor="middle" x="1592" y="-137" font-family="Helvetica,sans-Serif" font-size="10.00">delete_sound_from_bank</text>
</a>
</g>
</g>
<!-- Node16&#45;&gt;Node17 -->
<g id="edge16_Node000016_Node000017" class="edge">
<title>Node16&#45;&gt;Node17</title>
<g id="a_edge16_Node000016_Node000017"><a xlink:title=" ">
<path fill="none" stroke="#63b8ff" d="M1479.63,-112.03C1498.8,-116.76 1522.16,-122.52 1542.52,-127.54"/>
<polygon fill="#63b8ff" stroke="#63b8ff" points="1541.69,-130.94 1552.24,-129.94 1543.37,-124.15 1541.69,-130.94"/>
</a>
</g>
</g>
<!-- Node19 -->
<g id="Node000019" class="node">
<title>Node19</title>
<g id="a_Node000019"><a xlink:href="external_8c.html#ab83bd36e63f0f1baddcb2482b5ad31b0" target="_top" xlink:title=" ">
<polygon fill="white" stroke="#666666" points="1638.5,-112 1545.5,-112 1545.5,-93 1638.5,-93 1638.5,-112"/>
<text text-anchor="middle" x="1592" y="-100" font-family="Helvetica,sans-Serif" font-size="10.00">func_800C41CC</text>
</a>
</g>
</g>
<!-- Node16&#45;&gt;Node19 -->
<g id="edge18_Node000016_Node000019" class="edge">
<title>Node16&#45;&gt;Node19</title>
<g id="a_edge18_Node000016_Node000019"><a xlink:title=" ">
<path fill="none" stroke="#63b8ff" d="M1486,-102.5C1501.37,-102.5 1518.74,-102.5 1534.86,-102.5"/>
<polygon fill="#63b8ff" stroke="#63b8ff" points="1535.25,-106 1545.25,-102.5 1535.25,-99 1535.25,-106"/>
</a>
</g>
</g>
<!-- Node20 -->
<g id="Node000020" class="node">
<title>Node20</title>
<g id="a_Node000020"><a xlink:href="port__eu_8c.html#aa89dfaecca46c6d071f08c1898d1f7c9" target="_top" xlink:title=" ">
<polygon fill="white" stroke="#666666" points="1638.5,-75 1545.5,-75 1545.5,-56 1638.5,-56 1638.5,-75"/>
<text text-anchor="middle" x="1592" y="-63" font-family="Helvetica,sans-Serif" font-size="10.00">func_800CBBE8</text>
</a>
</g>
</g>
<!-- Node16&#45;&gt;Node20 -->
<g id="edge19_Node000016_Node000020" class="edge">
<title>Node16&#45;&gt;Node20</title>
<g id="a_edge19_Node000016_Node000020"><a xlink:title=" ">
<path fill="none" stroke="#63b8ff" d="M1479.63,-92.97C1498.8,-88.24 1522.16,-82.48 1542.52,-77.46"/>
<polygon fill="#63b8ff" stroke="#63b8ff" points="1543.37,-80.85 1552.24,-75.06 1541.69,-74.06 1543.37,-80.85"/>
</a>
</g>
</g>
<!-- Node18 -->
<g id="Node000018" class="node">
<title>Node18</title>
<g id="a_Node000018"><a xlink:href="external_8c.html#a358ac55e8ab5262dcae8037334be06d7" target="_top" xlink:title=" ">
<polygon fill="white" stroke="#666666" points="1790.5,-149 1698.5,-149 1698.5,-130 1790.5,-130 1790.5,-149"/>
<text text-anchor="middle" x="1744.5" y="-137" font-family="Helvetica,sans-Serif" font-size="10.00">func_800C40F0</text>
</a>
</g>
</g>
<!-- Node17&#45;&gt;Node18 -->
<g id="edge17_Node000017_Node000018" class="edge">
<title>Node17&#45;&gt;Node18</title>
<g id="a_edge17_Node000017_Node000018"><a xlink:title=" ">
<path fill="none" stroke="#63b8ff" d="M1662.08,-139.5C1670.87,-139.5 1679.78,-139.5 1688.31,-139.5"/>
<polygon fill="#63b8ff" stroke="#63b8ff" points="1688.5,-143 1698.5,-139.5 1688.5,-136 1688.5,-143"/>
</a>
</g>
</g>
<!-- Node21 -->
<g id="Node000021" class="node">
<title>Node21</title>
<g id="a_Node000021"><a xlink:href="port__eu_8c.html#af361a20d2e08f30c53a237ca481ff734" target="_top" xlink:title=" ">
<polygon fill="white" stroke="#666666" points="1791,-75 1698,-75 1698,-56 1791,-56 1791,-75"/>
<text text-anchor="middle" x="1744.5" y="-63" font-family="Helvetica,sans-Serif" font-size="10.00">func_800CBB48</text>
</a>
</g>
</g>
<!-- Node20&#45;&gt;Node21 -->
<g id="edge20_Node000020_Node000021" class="edge">
<title>Node20&#45;&gt;Node21</title>
<g id="a_edge20_Node000020_Node000021"><a xlink:title=" ">
<path fill="none" stroke="#63b8ff" d="M1638.56,-65.5C1653.96,-65.5 1671.34,-65.5 1687.46,-65.5"/>
<polygon fill="#63b8ff" stroke="#63b8ff" points="1687.83,-69 1697.83,-65.5 1687.83,-62 1687.83,-69"/>
</a>
</g>
</g>
<!-- Node22&#45;&gt;Node23 -->
<g id="edge22_Node000022_Node000023" class="edge">
<title>Node22&#45;&gt;Node23</title>
<g id="a_edge22_Node000022_Node000023"><a xlink:title=" ">
<path fill="none" stroke="#63b8ff" d="M831.14,-430.49C858.88,-433.46 893.78,-437.2 920.56,-440.06"/>
<polygon fill="#63b8ff" stroke="#63b8ff" points="920.44,-443.57 930.76,-441.16 921.19,-436.61 920.44,-443.57"/>
</a>
</g>
</g>
<!-- Node31&#45;&gt;Node3 -->
<g id="edge33_Node000031_Node000003" class="edge">
<title>Node31&#45;&gt;Node3</title>
<g id="a_edge33_Node000031_Node000003"><a xlink:title=" ">
<path fill="none" stroke="#63b8ff" d="M273.04,-511.82C299.69,-481.59 381.63,-388.64 416.28,-349.34"/>
<polygon fill="#63b8ff" stroke="#63b8ff" points="419.29,-351.21 423.28,-341.39 414.04,-346.58 419.29,-351.21"/>
</a>
</g>
</g>
<!-- Node31&#45;&gt;Node10 -->
<g id="edge34_Node000031_Node000010" class="edge">
<title>Node31&#45;&gt;Node10</title>
<g id="a_edge34_Node000031_Node000010"><a xlink:title=" ">
<path fill="none" stroke="#63b8ff" d="M327.01,-519.48C459.95,-514.2 765.8,-496.6 854,-444.5 905.42,-414.13 939.69,-348.73 954.17,-316.39"/>
<polygon fill="#63b8ff" stroke="#63b8ff" points="957.42,-317.71 958.18,-307.14 950.99,-314.93 957.42,-317.71"/>
</a>
</g>
</g>
<!-- Node31&#45;&gt;Node23 -->
<g id="edge39_Node000031_Node000023" class="edge">
<title>Node31&#45;&gt;Node23</title>
<g id="a_edge39_Node000031_Node000023"><a xlink:title=" ">
<path fill="none" stroke="#63b8ff" d="M272.81,-531.09C288.43,-548.33 324.12,-584.11 363,-598.5 493.92,-646.95 541.32,-639.34 677,-606.5 787.72,-579.7 899.53,-495.78 943.04,-460.44"/>
<polygon fill="#63b8ff" stroke="#63b8ff" points="945.31,-463.1 950.81,-454.05 940.86,-457.7 945.31,-463.1"/>
</a>
</g>
</g>
<!-- Node32 -->
<g id="Node000032" class="node">
<title>Node32</title>
<g id="a_Node000032"><a xlink:href="math__util_8c.html#a062850863585005ad1d0a75d9ff70693" target="_top" xlink:title=" ">
<polygon fill="white" stroke="#666666" points="471.5,-589 394.5,-589 394.5,-570 471.5,-570 471.5,-589"/>
<text text-anchor="middle" x="433" y="-577" font-family="Helvetica,sans-Serif" font-size="10.00">random_u16</text>
</a>
</g>
</g>
<!-- Node31&#45;&gt;Node32 -->
<g id="edge35_Node000031_Node000032" class="edge">
<title>Node31&#45;&gt;Node32</title>
<g id="a_edge35_Node000031_Node000032"><a xlink:title=" ">
<path fill="none" stroke="#63b8ff" d="M285.72,-531.06C305.47,-539.73 335.85,-552.49 363,-561.5 369.95,-563.81 377.37,-566.01 384.67,-568.03"/>
<polygon fill="#63b8ff" stroke="#63b8ff" points="383.93,-571.45 394.5,-570.67 385.75,-564.69 383.93,-571.45"/>
</a>
</g>
</g>
<!-- Node33 -->
<g id="Node000033" class="node">
<title>Node33</title>
<g id="a_Node000033"><a xlink:href="collision_8c.html#ad95e9ed2051529d5edee26109fa07427" target="_top" xlink:title=" ">
<polygon fill="white" stroke="#666666" points="501.5,-552 364.5,-552 364.5,-533 501.5,-533 501.5,-552"/>
<text text-anchor="middle" x="433" y="-540" font-family="Helvetica,sans-Serif" font-size="10.00">spawn_actor_on_surface</text>
</a>
</g>
</g>
<!-- Node31&#45;&gt;Node33 -->
<g id="edge36_Node000031_Node000033" class="edge">
<title>Node31&#45;&gt;Node33</title>
<g id="a_edge36_Node000031_Node000033"><a xlink:title=" ">
<path fill="none" stroke="#63b8ff" d="M327.35,-529.38C336.12,-530.48 345.21,-531.62 354.21,-532.75"/>
<polygon fill="#63b8ff" stroke="#63b8ff" points="353.96,-536.24 364.31,-534.01 354.83,-529.3 353.96,-536.24"/>
</a>
</g>
</g>
<!-- Node34 -->
<g id="Node000034" class="node">
<title>Node34</title>
<g id="a_Node000034"><a xlink:href="collision_8c.html#a6527a2135a10909cdf9a1fd731be5628" target="_top" xlink:title=" ">
<polygon fill="white" stroke="#666666" points="677,-597 539,-597 539,-578 677,-578 677,-597"/>
<text text-anchor="middle" x="608" y="-585" font-family="Helvetica,sans-Serif" font-size="10.00">calculate_surface_height</text>
</a>
</g>
</g>
<!-- Node33&#45;&gt;Node34 -->
<g id="edge37_Node000033_Node000034" class="edge">
<title>Node33&#45;&gt;Node34</title>
<g id="a_edge37_Node000033_Node000034"><a xlink:title=" ">
<path fill="none" stroke="#63b8ff" d="M470.69,-552.04C496.84,-558.84 532.2,-568.04 560.35,-575.37"/>
<polygon fill="#63b8ff" stroke="#63b8ff" points="559.8,-578.84 570.36,-577.97 561.57,-572.07 559.8,-578.84"/>
</a>
</g>
</g>
<!-- Node35 -->
<g id="Node000035" class="node">
<title>Node35</title>
<g id="a_Node000035"><a xlink:href="collision_8c.html#a0fe340ccfe1d926a592ea9a0c84d7574" target="_top" xlink:title=" ">
<polygon fill="white" stroke="#666666" points="674,-559.5 542,-559.5 542,-529.5 674,-529.5 674,-559.5"/>
<text text-anchor="start" x="550" y="-547.5" font-family="Helvetica,sans-Serif" font-size="10.00">check_horizontally</text>
<text text-anchor="middle" x="608" y="-536.5" font-family="Helvetica,sans-Serif" font-size="10.00">_colliding_with_triangle</text>
</a>
</g>
</g>
<!-- Node33&#45;&gt;Node35 -->
<g id="edge38_Node000033_Node000035" class="edge">
<title>Node33&#45;&gt;Node35</title>
<g id="a_edge38_Node000033_Node000035"><a xlink:title=" ">
<path fill="none" stroke="#63b8ff" d="M501.88,-543.28C511.64,-543.4 521.74,-543.51 531.64,-543.63"/>
<polygon fill="#63b8ff" stroke="#63b8ff" points="531.82,-547.13 541.86,-543.75 531.91,-540.13 531.82,-547.13"/>
</a>
</g>
</g>
<!-- Node36&#45;&gt;Node3 -->
<g id="edge41_Node000036_Node000003" class="edge">
<title>Node36&#45;&gt;Node3</title>
<g id="a_edge41_Node000036_Node000003"><a xlink:title=" ">
<path fill="none" stroke="#63b8ff" d="M273.02,-211.08C289.28,-228.99 326.37,-268.1 363,-294.5 374.95,-303.11 389.15,-311.06 401.55,-317.37"/>
<polygon fill="#63b8ff" stroke="#63b8ff" points="400.1,-320.56 410.62,-321.86 403.21,-314.28 400.1,-320.56"/>
</a>
</g>
</g>
<!-- Node36&#45;&gt;Node5 -->
<g id="edge42_Node000036_Node000005" class="edge">
<title>Node36&#45;&gt;Node5</title>
<g id="a_edge42_Node000036_Node000005"><a xlink:title=" ">
<path fill="none" stroke="#63b8ff" d="M278.82,-191.94C297.41,-180.01 331.21,-159.93 363,-149.5 497.07,-105.49 538.45,-129.24 677,-102.5 696.34,-98.77 717.49,-93.91 735.74,-89.47"/>
<polygon fill="#63b8ff" stroke="#63b8ff" points="736.68,-92.85 745.56,-87.06 735.01,-86.05 736.68,-92.85"/>
</a>
</g>
</g>
<!-- Node36&#45;&gt;Node10 -->
<g id="edge43_Node000036_Node000010" class="edge">
<title>Node36&#45;&gt;Node10</title>
<g id="a_edge43_Node000036_Node000010"><a xlink:title=" ">
<path fill="none" stroke="#63b8ff" d="M296.54,-191.98C388,-166.58 656.47,-104.62 854,-187.5 898.4,-206.13 933.73,-252.9 950.81,-279.06"/>
<polygon fill="#63b8ff" stroke="#63b8ff" points="947.96,-281.09 956.27,-287.67 953.88,-277.35 947.96,-281.09"/>
</a>
</g>
</g>
<!-- Node36&#45;&gt;Node23 -->
<g id="edge48_Node000036_Node000023" class="edge">
<title>Node36&#45;&gt;Node23</title>
<g id="a_edge48_Node000036_Node000023"><a xlink:title=" ">
<path fill="none" stroke="#63b8ff" d="M317.54,-195.97C445.93,-183.71 769.12,-159.85 854,-220.5 890.74,-246.75 870.95,-274.57 890,-315.5 908.92,-356.14 935.57,-401.43 950.57,-426.06"/>
<polygon fill="#63b8ff" stroke="#63b8ff" points="947.67,-428.03 955.89,-434.73 953.64,-424.37 947.67,-428.03"/>
</a>
</g>
</g>
<!-- Node36&#45;&gt;Node30 -->
<g id="edge49_Node000036_Node000030" class="edge">
<title>Node36&#45;&gt;Node30</title>
<g id="a_edge49_Node000036_Node000030"><a xlink:title=" ">
<path fill="none" stroke="#63b8ff" d="M286.05,-211.15C315.33,-224.26 367.82,-247.76 401.23,-262.72"/>
<polygon fill="#63b8ff" stroke="#63b8ff" points="399.97,-265.99 410.53,-266.89 402.83,-259.6 399.97,-265.99"/>
</a>
</g>
</g>
<!-- Node37 -->
<g id="Node000037" class="node">
<title>Node37</title>
<g id="a_Node000037"><a xlink:href="actors_8c.html#a09d879c67b2c1430dd8ba2d5c9c136e1" target="_top" xlink:title=" ">
<polygon fill="white" stroke="#666666" points="479,-94 387,-94 387,-75 479,-75 479,-94"/>
<text text-anchor="middle" x="433" y="-82" font-family="Helvetica,sans-Serif" font-size="10.00">func_802976EC</text>
</a>
</g>
</g>
<!-- Node36&#45;&gt;Node37 -->
<g id="edge44_Node000036_Node000037" class="edge">
<title>Node36&#45;&gt;Node37</title>
<g id="a_edge44_Node000036_Node000037"><a xlink:title=" ">
<path fill="none" stroke="#63b8ff" d="M272.51,-191.97C288.2,-173.84 324.77,-134.1 363,-110.5 371.08,-105.51 380.27,-101.23 389.25,-97.67"/>
<polygon fill="#63b8ff" stroke="#63b8ff" points="390.7,-100.86 398.85,-94.08 388.25,-94.3 390.7,-100.86"/>
</a>
</g>
</g>
<!-- Node38 -->
<g id="Node000038" class="node">
<title>Node38</title>
<g id="a_Node000038"><a xlink:href="math__util_8c.html#aaa39a297477f56051975259f4bddd829" target="_top" xlink:title=" ">
<polygon fill="white" stroke="#666666" points="633,-55 583,-55 583,-36 633,-36 633,-55"/>
<text text-anchor="middle" x="608" y="-43" font-family="Helvetica,sans-Serif" font-size="10.00">atan2s</text>
</a>
</g>
</g>
<!-- Node37&#45;&gt;Node38 -->
<g id="edge45_Node000037_Node000038" class="edge">
<title>Node37&#45;&gt;Node38</title>
<g id="a_edge45_Node000037_Node000038"><a xlink:title=" ">
<path fill="none" stroke="#63b8ff" d="M476.32,-74.96C505.95,-68.28 545.02,-59.47 572.71,-53.23"/>
<polygon fill="#63b8ff" stroke="#63b8ff" points="573.73,-56.59 582.71,-50.98 572.19,-49.76 573.73,-56.59"/>
</a>
</g>
</g>
<!-- Node40 -->
<g id="Node000040" class="node">
<title>Node40</title>
<g id="a_Node000040"><a xlink:href="actors_8c.html#a6fd7dc3bc34357287535b6f06ab7d85c" target="_top" xlink:title=" ">
<polygon fill="white" stroke="#666666" points="654,-94 562,-94 562,-75 654,-75 654,-94"/>
<text text-anchor="middle" x="608" y="-82" font-family="Helvetica,sans-Serif" font-size="10.00">func_802976D8</text>
</a>
</g>
</g>
<!-- Node37&#45;&gt;Node40 -->
<g id="edge47_Node000037_Node000040" class="edge">
<title>Node37&#45;&gt;Node40</title>
<g id="a_edge47_Node000037_Node000040"><a xlink:title=" ">
<path fill="none" stroke="#63b8ff" d="M479,-84.5C501.24,-84.5 528.28,-84.5 551.76,-84.5"/>
<polygon fill="#63b8ff" stroke="#63b8ff" points="551.92,-88 561.92,-84.5 551.92,-81 551.92,-88"/>
</a>
</g>
</g>
<!-- Node39 -->
<g id="Node000039" class="node">
<title>Node39</title>
<g id="a_Node000039"><a xlink:href="math__util_8c.html#a0273b0ea0783a06996c28669a7438ed9" target="_top" xlink:title=" ">
<polygon fill="white" stroke="#666666" points="824.5,-50 742.5,-50 742.5,-31 824.5,-31 824.5,-50"/>
<text text-anchor="middle" x="783.5" y="-38" font-family="Helvetica,sans-Serif" font-size="10.00">atan2_lookup</text>
</a>
</g>
</g>
<!-- Node38&#45;&gt;Node39 -->
<g id="edge46_Node000038_Node000039" class="edge">
<title>Node38&#45;&gt;Node39</title>
<g id="a_edge46_Node000038_Node000039"><a xlink:title=" ">
<path fill="none" stroke="#63b8ff" d="M633.12,-44.8C658.58,-44.07 699.45,-42.89 732,-41.96"/>
<polygon fill="#63b8ff" stroke="#63b8ff" points="732.36,-45.45 742.25,-41.66 732.16,-38.45 732.36,-45.45"/>
</a>
</g>
</g>
</g>
</svg>

<g id="navigator" transform="translate(0 0)" fill="#404254">
  <rect fill="#f2f5e9" fill-opacity="0.5" stroke="#606060" stroke-width=".5" x="0" y="0" width="60" height="60"/>
  <use id="zoomplus" xlink:href="#zoomPlus" x="17" y="9" onmousedown="handleZoom(evt,'in')"/>
  <use id="zoomminus" xlink:href="#zoomMin" x="42" y="9" onmousedown="handleZoom(evt,'out')"/>
  <use id="reset" xlink:href="#resetDef" x="30" y="36" onmousedown="handleReset()"/>
   <use id="arrowup" xlink:href="#arrowUp" x="0" y="0" onmousedown="handlePan(0,-1)"/>
  <use id="arrowright" xlink:href="#arrowRight" x="0" y="0" onmousedown="handlePan(1,0)"/>
  <use id="arrowdown" xlink:href="#arrowDown" x="0" y="0" onmousedown="handlePan(0,1)"/>
  <use id="arrowleft" xlink:href="#arrowLeft" x="0" y="0" onmousedown="handlePan(-1,0)"/>
</g>
<svg viewBox="0 0 15 15" width="100%" height="30px" preserveAspectRatio="xMaxYMin meet">
 <g id="arrow_out" transform="scale(0.3 0.3)">
  <a xlink:href="classKoopaTroopaBeach_a9080e865d29d960d60c9d86d9370ea1a_cgraph_org.svg" target="_base">
   <rect id="button" ry="5" rx="5" y="6" x="6" height="38" width="38"
        fill="#f2f5e9" fill-opacity="0.5" stroke="#606060" stroke-width="1.0"/>
   <path id="arrow"
     d="M 11.500037,31.436501 C 11.940474,20.09759 22.043105,11.32322 32.158766,21.979434 L 37.068811,17.246167 C 37.068811,17.246167 37.088388,32 37.088388,32 L 22.160133,31.978069 C 22.160133,31.978069 26.997745,27.140456 26.997745,27.140456 C 18.528582,18.264221 13.291696,25.230495 11.500037,31.436501 z"
     style="fill:#404040;"/>
  </a>
 </g>
</svg>

<style type='text/css'>
<![CDATA[
[data-mouse-over-selected='false'] { opacity: 0.7; }
[data-mouse-over-selected='true']  { opacity: 1.0; }
]]>
</style>
<script type="application/ecmascript"><![CDATA[
document.addEventListener('DOMContentLoaded', (event) => {
  highlightEdges();
  highlightAdjacentNodes();
});
]]></script>
</svg>
