<?xml version="1.0" encoding="UTF-8" standalone="no"?>
<!DOCTYPE svg PUBLIC "-//W3C//DTD SVG 1.1//EN"
 "http://www.w3.org/Graphics/SVG/1.1/DTD/svg11.dtd">
<!-- Generated by graphviz version 2.43.0 (0)
 -->
<!-- Title: SherbetLand::Load Pages: 1 -->
<!--zoomable 251 -->

<svg id="main" version="1.1" xmlns="http://www.w3.org/2000/svg" xmlns:xlink="http://www.w3.org/1999/xlink" xml:space="preserve" onload="init(evt)">

<style type="text/css"><![CDATA[
.node, .edge {opacity: 0.7;}
.node.selected, .edge.selected {opacity: 1;}
.edge:hover path { stroke: red; }
.edge:hover polygon { stroke: red; fill: red; }
]]></style>

<defs>
  <circle id="rim" cx="0" cy="0" r="7"/>
  <circle id="rim2" cx="0" cy="0" r="3.5"/>
  <g id="zoomPlus">
    <use xlink:href="#rim" fill="#404040"><set attributeName="fill" to="#808080" begin="zoomplus.mouseover" end="zoomplus.mouseout"/></use>
    <path d="M-4,0h8M0,-4v8" fill="none" stroke="white" stroke-width="1.5" pointer-events="none"/>
  </g>
  <g id="zoomMin">
    <use xlink:href="#rim" fill="#404040"><set attributeName="fill" to="#808080" begin="zoomminus.mouseover" end="zoomminus.mouseout"/></use>
    <path d="M-4,0h8" fill="none" stroke="white" stroke-width="1.5" pointer-events="none"/>
  </g>
  <g id="arrowUp" transform="translate(30 24)">
    <use xlink:href="#rim"/>
    <path pointer-events="none" fill="none" stroke="white" stroke-width="1.5" d="M0,-3.0v7 M-2.5,-0.5L0,-3.0L2.5,-0.5"/>
  </g>
  <g id="arrowRight" transform="rotate(90) translate(36 -43)">
    <use xlink:href="#rim"/>
    <path pointer-events="none" fill="none" stroke="white" stroke-width="1.5" d="M0,-3.0v7 M-2.5,-0.5L0,-3.0L2.5,-0.5"/>
  </g>
  <g id="arrowDown" transform="rotate(180) translate(-30 -48)">
    <use xlink:href="#rim"/>
    <path pointer-events="none" fill="none" stroke="white" stroke-width="1.5" d="M0,-3.0v7 M-2.5,-0.5L0,-3.0L2.5,-0.5"/>
  </g>
  <g id="arrowLeft" transform="rotate(270) translate(-36 17)">
    <use xlink:href="#rim"/>
    <path pointer-events="none" fill="none" stroke="white" stroke-width="1.5" d="M0,-3.0v7 M-2.5,-0.5L0,-3.0L2.5,-0.5"/>
  </g>
  <g id="resetDef">
    <use xlink:href="#rim2" fill="#404040"><set attributeName="fill" to="#808080" begin="reset.mouseover" end="reset.mouseout"/></use>
  </g>
</defs>
<script type="application/ecmascript">
var viewWidth = 880;
var viewHeight = 251;
var sectionId = 'dynsection-7';
</script>
<script type="application/ecmascript" xlink:href="svg.min.js"/>
<svg id="graph" class="graph">
<g id="viewport">
<title>SherbetLand::Load</title>
<!-- Node1 -->
<g id="Node000001" class="node">
<title>Node1</title>
<g id="a_Node000001"><a xlink:title=" ">
<polygon fill="#999999" stroke="#666666" points="107,-169 0,-169 0,-150 107,-150 107,-169"/>
<text text-anchor="middle" x="53.5" y="-157" font-family="Helvetica,sans-Serif" font-size="10.00">SherbetLand::Load</text>
</a>
</g>
</g>
<!-- Node2 -->
<g id="Node000002" class="node">
<title>Node2</title>
<g id="a_Node000002"><a xlink:href="collision_8c.html#a7fe1ddc7a4c312ab8f9519229963450b" target="_top" xlink:title=" ">
<polygon fill="white" stroke="#666666" points="285,-225 145,-225 145,-206 285,-206 285,-225"/>
<text text-anchor="middle" x="215" y="-213" font-family="Helvetica,sans-Serif" font-size="10.00">find_vtx_and_set_colours</text>
</a>
</g>
</g>
<!-- Node1&#45;&gt;Node2 -->
<g id="edge1_Node000001_Node000002" class="edge">
<title>Node1&#45;&gt;Node2</title>
<g id="a_edge1_Node000001_Node000002"><a xlink:title=" ">
<path fill="none" stroke="#63b8ff" d="M74.18,-169.01C91.89,-177.32 118.77,-189.28 143,-197.5 149.01,-199.54 155.37,-201.46 161.72,-203.24"/>
<polygon fill="#63b8ff" stroke="#63b8ff" points="161.07,-206.69 171.63,-205.92 162.89,-199.94 161.07,-206.69"/>
</a>
</g>
</g>
<!-- Node4 -->
<g id="Node000004" class="node">
<title>Node4</title>
<g id="a_Node000004"><a xlink:href="render__courses_8c.html#ab02cdf6684f984a12e7388fe973bc89a" target="_top" xlink:title=" ">
<polygon fill="white" stroke="#666666" points="261,-188 169,-188 169,-169 261,-169 261,-188"/>
<text text-anchor="middle" x="215" y="-176" font-family="Helvetica,sans-Serif" font-size="10.00">func_80295C6C</text>
</a>
</g>
</g>
<!-- Node1&#45;&gt;Node4 -->
<g id="edge4_Node000001_Node000004" class="edge">
<title>Node1&#45;&gt;Node4</title>
<g id="a_edge4_Node000001_Node000004"><a xlink:title=" ">
<path fill="none" stroke="#63b8ff" d="M107.17,-165.77C123.7,-167.74 141.99,-169.92 158.7,-171.91"/>
<polygon fill="#63b8ff" stroke="#63b8ff" points="158.53,-175.42 168.87,-173.12 159.35,-168.47 158.53,-175.42"/>
</a>
</g>
</g>
<!-- Node8 -->
<g id="Node000008" class="node">
<title>Node8</title>
<g id="a_Node000008"><a xlink:href="render__courses_8c.html#a206a552c1a565c9737d6749aeee3e07b" target="_top" xlink:title=" ">
<polygon fill="white" stroke="#666666" points="286,-151 144,-151 144,-132 286,-132 286,-151"/>
<text text-anchor="middle" x="215" y="-139" font-family="Helvetica,sans-Serif" font-size="10.00">parse_course_displaylists</text>
</a>
</g>
</g>
<!-- Node1&#45;&gt;Node8 -->
<g id="edge8_Node000001_Node000008" class="edge">
<title>Node1&#45;&gt;Node8</title>
<g id="a_edge8_Node000001_Node000008"><a xlink:title=" ">
<path fill="none" stroke="#63b8ff" d="M107.17,-153.56C115.67,-152.6 124.64,-151.58 133.63,-150.57"/>
<polygon fill="#63b8ff" stroke="#63b8ff" points="134.2,-154.03 143.75,-149.43 133.42,-147.07 134.2,-154.03"/>
</a>
</g>
</g>
<!-- Node18 -->
<g id="Node000018" class="node">
<title>Node18</title>
<g id="a_Node000018"><a xlink:href="memory_8c.html#a8f7f3165d1a5092720aa26d9502bb678" target="_top" xlink:title=" ">
<polygon fill="white" stroke="#666666" points="287,-114 143,-114 143,-95 287,-95 287,-114"/>
<text text-anchor="middle" x="215" y="-102" font-family="Helvetica,sans-Serif" font-size="10.00">segmented_gfx_to_virtual</text>
</a>
</g>
</g>
<!-- Node1&#45;&gt;Node18 -->
<g id="edge21_Node000001_Node000018" class="edge">
<title>Node1&#45;&gt;Node18</title>
<g id="a_edge21_Node000001_Node000018"><a xlink:title=" ">
<path fill="none" stroke="#63b8ff" d="M76.04,-149.86C93.78,-142.12 119.73,-131.31 143,-123.5 150.07,-121.13 157.6,-118.85 165.03,-116.74"/>
<polygon fill="#63b8ff" stroke="#63b8ff" points="165.97,-120.12 174.68,-114.09 164.11,-113.37 165.97,-120.12"/>
</a>
</g>
</g>
<!-- Node2&#45;&gt;Node2 -->
<g id="edge2_Node000002_Node000002" class="edge">
<title>Node2&#45;&gt;Node2</title>
<g id="a_edge2_Node000002_Node000002"><a xlink:title=" ">
<path fill="none" stroke="#63b8ff" d="M190.34,-225.08C178.34,-233.73 186.56,-243 215,-243 233.66,-243 243.62,-239.01 244.87,-233.82"/>
<polygon fill="#63b8ff" stroke="#63b8ff" points="247.79,-231.88 239.66,-225.08 241.77,-235.47 247.79,-231.88"/>
</a>
</g>
</g>
<!-- Node3 -->
<g id="Node000003" class="node">
<title>Node3</title>
<g id="a_Node000003"><a xlink:href="collision_8c.html#ae34213badc2dd781cab43c88b1e3fdce" target="_top" xlink:title=" ">
<polygon fill="white" stroke="#666666" points="446.5,-225 337.5,-225 337.5,-206 446.5,-206 446.5,-225"/>
<text text-anchor="middle" x="392" y="-213" font-family="Helvetica,sans-Serif" font-size="10.00">set_vertex_colours</text>
</a>
</g>
</g>
<!-- Node2&#45;&gt;Node3 -->
<g id="edge3_Node000002_Node000003" class="edge">
<title>Node2&#45;&gt;Node3</title>
<g id="a_edge3_Node000002_Node000003"><a xlink:title=" ">
<path fill="none" stroke="#63b8ff" d="M285.16,-215.5C299.02,-215.5 313.52,-215.5 327.18,-215.5"/>
<polygon fill="#63b8ff" stroke="#63b8ff" points="327.45,-219 337.45,-215.5 327.45,-212 327.45,-219"/>
</a>
</g>
</g>
<!-- Node5 -->
<g id="Node000005" class="node">
<title>Node5</title>
<g id="a_Node000005"><a xlink:href="collision_8c.html#aa1116ededb9ebc0ee976259f02fe2a4e" target="_top" xlink:title=" ">
<polygon fill="white" stroke="#666666" points="457,-188 327,-188 327,-169 457,-169 457,-188"/>
<text text-anchor="middle" x="392" y="-176" font-family="Helvetica,sans-Serif" font-size="10.00">generate_collision_grid</text>
</a>
</g>
</g>
<!-- Node4&#45;&gt;Node5 -->
<g id="edge5_Node000004_Node000005" class="edge">
<title>Node4&#45;&gt;Node5</title>
<g id="a_edge5_Node000004_Node000005"><a xlink:title=" ">
<path fill="none" stroke="#63b8ff" d="M261.07,-178.5C278.06,-178.5 297.88,-178.5 316.84,-178.5"/>
<polygon fill="#63b8ff" stroke="#63b8ff" points="316.96,-182 326.96,-178.5 316.96,-175 316.96,-182"/>
</a>
</g>
</g>
<!-- Node6 -->
<g id="Node000006" class="node">
<title>Node6</title>
<g id="a_Node000006"><a xlink:href="collision_8c.html#a4e4ec74302aec60828a8d271390f7631" target="_top" xlink:title=" ">
<polygon fill="white" stroke="#666666" points="633,-215.5 502,-215.5 502,-185.5 633,-185.5 633,-215.5"/>
<text text-anchor="start" x="510" y="-203.5" font-family="Helvetica,sans-Serif" font-size="10.00">is_triangle_intersecting</text>
<text text-anchor="middle" x="567.5" y="-192.5" font-family="Helvetica,sans-Serif" font-size="10.00">_bounding_box</text>
</a>
</g>
</g>
<!-- Node5&#45;&gt;Node6 -->
<g id="edge6_Node000005_Node000006" class="edge">
<title>Node5&#45;&gt;Node6</title>
<g id="a_edge6_Node000005_Node000006"><a xlink:title=" ">
<path fill="none" stroke="#63b8ff" d="M457.11,-186.63C468.39,-188.06 480.21,-189.56 491.74,-191.02"/>
<polygon fill="#63b8ff" stroke="#63b8ff" points="491.42,-194.51 501.78,-192.29 492.3,-187.56 491.42,-194.51"/>
</a>
</g>
</g>
<!-- Node7 -->
<g id="Node000007" class="node">
<title>Node7</title>
<g id="a_Node000007"><a xlink:href="collision_8c.html#a7ef4f800cb44ad39ca233d0c76ce039a" target="_top" xlink:title=" ">
<polygon fill="white" stroke="#666666" points="791,-215.5 680,-215.5 680,-185.5 791,-185.5 791,-215.5"/>
<text text-anchor="start" x="688" y="-203.5" font-family="Helvetica,sans-Serif" font-size="10.00">is_line_intersecting</text>
<text text-anchor="middle" x="735.5" y="-192.5" font-family="Helvetica,sans-Serif" font-size="10.00">_rectangle</text>
</a>
</g>
</g>
<!-- Node6&#45;&gt;Node7 -->
<g id="edge7_Node000006_Node000007" class="edge">
<title>Node6&#45;&gt;Node7</title>
<g id="a_edge7_Node000006_Node000007"><a xlink:title=" ">
<path fill="none" stroke="#63b8ff" d="M633.16,-200.5C645.12,-200.5 657.63,-200.5 669.61,-200.5"/>
<polygon fill="#63b8ff" stroke="#63b8ff" points="669.97,-204 679.97,-200.5 669.97,-197 669.97,-204"/>
</a>
</g>
</g>
<!-- Node9 -->
<g id="Node000009" class="node">
<title>Node9</title>
<g id="a_Node000009"><a xlink:href="collision_8c.html#a3081198f925be148fc9f05897a3bddd3" target="_top" xlink:title=" ">
<polygon fill="white" stroke="#666666" points="461,-111 323,-111 323,-92 461,-92 461,-111"/>
<text text-anchor="middle" x="392" y="-99" font-family="Helvetica,sans-Serif" font-size="10.00">generate_collision_mesh</text>
</a>
</g>
</g>
<!-- Node8&#45;&gt;Node9 -->
<g id="edge9_Node000008_Node000009" class="edge">
<title>Node8&#45;&gt;Node9</title>
<g id="a_edge9_Node000008_Node000009"><a xlink:title=" ">
<path fill="none" stroke="#63b8ff" d="M257.92,-131.92C282.38,-126.33 313.43,-119.23 339.39,-113.3"/>
<polygon fill="#63b8ff" stroke="#63b8ff" points="340.46,-116.64 349.43,-111 338.9,-109.82 340.46,-116.64"/>
</a>
</g>
</g>
<!-- Node9&#45;&gt;Node9 -->
<g id="edge10_Node000009_Node000009" class="edge">
<title>Node9&#45;&gt;Node9</title>
<g id="a_edge10_Node000009_Node000009"><a xlink:title=" ">
<path fill="none" stroke="#63b8ff" d="M365.18,-111.08C352.13,-119.73 361.07,-129 392,-129 412.78,-129 423.63,-124.82 424.56,-119.45"/>
<polygon fill="#63b8ff" stroke="#63b8ff" points="427.36,-117.35 418.82,-111.08 421.59,-121.31 427.36,-117.35"/>
</a>
</g>
</g>
<!-- Node10 -->
<g id="Node000010" class="node">
<title>Node10</title>
<g id="a_Node000010"><a xlink:href="collision_8c.html#a2419eefe1cdba5b280babacc4a15fc6c" target="_top" xlink:title=" ">
<polygon fill="white" stroke="#666666" points="603,-167 532,-167 532,-148 603,-148 603,-167"/>
<text text-anchor="middle" x="567.5" y="-155" font-family="Helvetica,sans-Serif" font-size="10.00">is_cull_box</text>
</a>
</g>
</g>
<!-- Node9&#45;&gt;Node10 -->
<g id="edge11_Node000009_Node000010" class="edge">
<title>Node9&#45;&gt;Node10</title>
<g id="a_edge11_Node000009_Node000010"><a xlink:title=" ">
<path fill="none" stroke="#63b8ff" d="M417.15,-111.08C438.08,-119.2 469.29,-130.87 497,-139.5 504.95,-141.98 513.49,-144.39 521.76,-146.6"/>
<polygon fill="#63b8ff" stroke="#63b8ff" points="521.11,-150.04 531.67,-149.18 522.88,-143.27 521.11,-150.04"/>
</a>
</g>
</g>
<!-- Node12 -->
<g id="Node000012" class="node">
<title>Node12</title>
<g id="a_Node000012"><a xlink:href="collision_8c.html#a30eb531df39ba558cd733e1d1cd6aaa0" target="_top" xlink:title=" ">
<polygon fill="white" stroke="#666666" points="610.5,-130 524.5,-130 524.5,-111 610.5,-111 610.5,-130"/>
<text text-anchor="middle" x="567.5" y="-118" font-family="Helvetica,sans-Serif" font-size="10.00">set_vtx_buffer</text>
</a>
</g>
</g>
<!-- Node9&#45;&gt;Node12 -->
<g id="edge13_Node000009_Node000012" class="edge">
<title>Node9&#45;&gt;Node12</title>
<g id="a_edge13_Node000009_Node000012"><a xlink:title=" ">
<path fill="none" stroke="#63b8ff" d="M461.07,-108.95C478.76,-110.89 497.54,-112.95 514.27,-114.78"/>
<polygon fill="#63b8ff" stroke="#63b8ff" points="514.07,-118.28 524.39,-115.89 514.83,-111.32 514.07,-118.28"/>
</a>
</g>
</g>
<!-- Node13 -->
<g id="Node000013" class="node">
<title>Node13</title>
<g id="a_Node000013"><a xlink:href="collision_8c.html#a593833ca3f04f0c7d8f5dcabe6430115" target="_top" xlink:title=" ">
<polygon fill="white" stroke="#666666" points="638,-93 497,-93 497,-74 638,-74 638,-93"/>
<text text-anchor="middle" x="567.5" y="-81" font-family="Helvetica,sans-Serif" font-size="10.00">set_vtx_from_quadrangle</text>
</a>
</g>
</g>
<!-- Node9&#45;&gt;Node13 -->
<g id="edge14_Node000009_Node000013" class="edge">
<title>Node9&#45;&gt;Node13</title>
<g id="a_edge14_Node000009_Node000013"><a xlink:title=" ">
<path fill="none" stroke="#63b8ff" d="M461.07,-94.44C469.53,-93.56 478.24,-92.66 486.86,-91.76"/>
<polygon fill="#63b8ff" stroke="#63b8ff" points="487.33,-95.23 496.91,-90.72 486.6,-88.27 487.33,-95.23"/>
</a>
</g>
</g>
<!-- Node16 -->
<g id="Node000016" class="node">
<title>Node16</title>
<g id="a_Node000016"><a xlink:href="collision_8c.html#ac558a6e1314f154bbf53aaf15396ea1e" target="_top" xlink:title=" ">
<polygon fill="white" stroke="#666666" points="619,-56 516,-56 516,-37 619,-37 619,-56"/>
<text text-anchor="middle" x="567.5" y="-44" font-family="Helvetica,sans-Serif" font-size="10.00">set_vtx_from_tri2</text>
</a>
</g>
</g>
<!-- Node9&#45;&gt;Node16 -->
<g id="edge17_Node000009_Node000016" class="edge">
<title>Node9&#45;&gt;Node16</title>
<g id="a_edge17_Node000009_Node000016"><a xlink:title=" ">
<path fill="none" stroke="#63b8ff" d="M418.91,-91.99C439.86,-84.44 470.17,-73.8 497,-65.5 504.48,-63.19 512.45,-60.87 520.24,-58.69"/>
<polygon fill="#63b8ff" stroke="#63b8ff" points="521.23,-62.04 529.94,-56.01 519.37,-55.3 521.23,-62.04"/>
</a>
</g>
</g>
<!-- Node17 -->
<g id="Node000017" class="node">
<title>Node17</title>
<g id="a_Node000017"><a xlink:href="collision_8c.html#a335dc7fed8a2540ca0a5b0a466545845" target="_top" xlink:title=" ">
<polygon fill="white" stroke="#666666" points="629.5,-19 505.5,-19 505.5,0 629.5,0 629.5,-19"/>
<text text-anchor="middle" x="567.5" y="-7" font-family="Helvetica,sans-Serif" font-size="10.00">set_vtx_from_triangle</text>
</a>
</g>
</g>
<!-- Node9&#45;&gt;Node17 -->
<g id="edge19_Node000009_Node000017" class="edge">
<title>Node9&#45;&gt;Node17</title>
<g id="a_edge19_Node000009_Node000017"><a xlink:title=" ">
<path fill="none" stroke="#63b8ff" d="M403.69,-91.83C421.67,-76.08 459.64,-44.9 497,-27.5 501.29,-25.5 505.84,-23.7 510.48,-22.08"/>
<polygon fill="#63b8ff" stroke="#63b8ff" points="511.61,-25.39 520.06,-19 509.47,-18.73 511.61,-25.39"/>
</a>
</g>
</g>
<!-- Node11 -->
<g id="Node000011" class="node">
<title>Node11</title>
<g id="a_Node000011"><a xlink:href="string_8c.html#a008e171a518fe0e0352f31b245e03875" target="_top" xlink:title=" ">
<polygon fill="white" stroke="#666666" points="757.5,-167 713.5,-167 713.5,-148 757.5,-148 757.5,-167"/>
<text text-anchor="middle" x="735.5" y="-155" font-family="Helvetica,sans-Serif" font-size="10.00">strlen</text>
</a>
</g>
</g>
<!-- Node10&#45;&gt;Node11 -->
<g id="edge12_Node000010_Node000011" class="edge">
<title>Node10&#45;&gt;Node11</title>
<g id="a_edge12_Node000010_Node000011"><a xlink:title=" ">
<path fill="none" stroke="#63b8ff" d="M603.3,-157.5C632.8,-157.5 674.75,-157.5 703.21,-157.5"/>
<polygon fill="#63b8ff" stroke="#63b8ff" points="703.4,-161 713.4,-157.5 703.4,-154 703.4,-161"/>
</a>
</g>
</g>
<!-- Node14 -->
<g id="Node000014" class="node">
<title>Node14</title>
<g id="a_Node000014"><a xlink:href="collision_8c.html#a8c516edee107b39b30bb3a4d3c54534a" target="_top" xlink:title=" ">
<polygon fill="white" stroke="#666666" points="797,-56 674,-56 674,-37 797,-37 797,-56"/>
<text text-anchor="middle" x="735.5" y="-44" font-family="Helvetica,sans-Serif" font-size="10.00">add_collision_triangle</text>
</a>
</g>
</g>
<!-- Node13&#45;&gt;Node14 -->
<g id="edge15_Node000013_Node000014" class="edge">
<title>Node13&#45;&gt;Node14</title>
<g id="a_edge15_Node000013_Node000014"><a xlink:title=" ">
<path fill="none" stroke="#63b8ff" d="M611.25,-73.97C632.76,-69.18 659.02,-63.32 681.77,-58.25"/>
<polygon fill="#63b8ff" stroke="#63b8ff" points="682.61,-61.65 691.61,-56.06 681.09,-54.82 682.61,-61.65"/>
</a>
</g>
</g>
<!-- Node15 -->
<g id="Node000015" class="node">
<title>Node15</title>
<g id="a_Node000015"><a xlink:href="math_8h.html#a37bde043e94a6f074c78f10518fb5d99" target="_top" xlink:title=" ">
<polygon fill="white" stroke="#666666" points="872,-56 833,-56 833,-37 872,-37 872,-56"/>
<text text-anchor="middle" x="852.5" y="-44" font-family="Helvetica,sans-Serif" font-size="10.00">sqrtf</text>
</a>
</g>
</g>
<!-- Node14&#45;&gt;Node15 -->
<g id="edge16_Node000014_Node000015" class="edge">
<title>Node14&#45;&gt;Node15</title>
<g id="a_edge16_Node000014_Node000015"><a xlink:title=" ">
<path fill="none" stroke="#63b8ff" d="M797.03,-46.5C805.96,-46.5 814.79,-46.5 822.66,-46.5"/>
<polygon fill="#63b8ff" stroke="#63b8ff" points="822.71,-50 832.71,-46.5 822.71,-43 822.71,-50"/>
</a>
</g>
</g>
<!-- Node16&#45;&gt;Node14 -->
<g id="edge18_Node000016_Node000014" class="edge">
<title>Node16&#45;&gt;Node14</title>
<g id="a_edge18_Node000016_Node000014"><a xlink:title=" ">
<path fill="none" stroke="#63b8ff" d="M619.21,-46.5C633.23,-46.5 648.71,-46.5 663.65,-46.5"/>
<polygon fill="#63b8ff" stroke="#63b8ff" points="663.88,-50 673.88,-46.5 663.88,-43 663.88,-50"/>
</a>
</g>
</g>
<!-- Node17&#45;&gt;Node14 -->
<g id="edge20_Node000017_Node000014" class="edge">
<title>Node17&#45;&gt;Node14</title>
<g id="a_edge20_Node000017_Node000014"><a xlink:title=" ">
<path fill="none" stroke="#63b8ff" d="M611.25,-19.03C632.76,-23.82 659.02,-29.68 681.77,-34.75"/>
<polygon fill="#63b8ff" stroke="#63b8ff" points="681.09,-38.18 691.61,-36.94 682.61,-31.35 681.09,-38.18"/>
</a>
</g>
</g>
</g>
</svg>

<g id="navigator" transform="translate(0 0)" fill="#404254">
  <rect fill="#f2f5e9" fill-opacity="0.5" stroke="#606060" stroke-width=".5" x="0" y="0" width="60" height="60"/>
  <use id="zoomplus" xlink:href="#zoomPlus" x="17" y="9" onmousedown="handleZoom(evt,'in')"/>
  <use id="zoomminus" xlink:href="#zoomMin" x="42" y="9" onmousedown="handleZoom(evt,'out')"/>
  <use id="reset" xlink:href="#resetDef" x="30" y="36" onmousedown="handleReset()"/>
   <use id="arrowup" xlink:href="#arrowUp" x="0" y="0" onmousedown="handlePan(0,-1)"/>
  <use id="arrowright" xlink:href="#arrowRight" x="0" y="0" onmousedown="handlePan(1,0)"/>
  <use id="arrowdown" xlink:href="#arrowDown" x="0" y="0" onmousedown="handlePan(0,1)"/>
  <use id="arrowleft" xlink:href="#arrowLeft" x="0" y="0" onmousedown="handlePan(-1,0)"/>
</g>
<svg viewBox="0 0 15 15" width="100%" height="30px" preserveAspectRatio="xMaxYMin meet">
 <g id="arrow_out" transform="scale(0.3 0.3)">
  <a xlink:href="classSherbetLand_a8a4f997aca9cf49e4f1859051d1706e0_cgraph_org.svg" target="_base">
   <rect id="button" ry="5" rx="5" y="6" x="6" height="38" width="38"
        fill="#f2f5e9" fill-opacity="0.5" stroke="#606060" stroke-width="1.0"/>
   <path id="arrow"
     d="M 11.500037,31.436501 C 11.940474,20.09759 22.043105,11.32322 32.158766,21.979434 L 37.068811,17.246167 C 37.068811,17.246167 37.088388,32 37.088388,32 L 22.160133,31.978069 C 22.160133,31.978069 26.997745,27.140456 26.997745,27.140456 C 18.528582,18.264221 13.291696,25.230495 11.500037,31.436501 z"
     style="fill:#404040;"/>
  </a>
 </g>
</svg>

<style type='text/css'>
<![CDATA[
[data-mouse-over-selected='false'] { opacity: 0.7; }
[data-mouse-over-selected='true']  { opacity: 1.0; }
]]>
</style>
<script type="application/ecmascript"><![CDATA[
document.addEventListener('DOMContentLoaded', (event) => {
  highlightEdges();
  highlightAdjacentNodes();
});
]]></script>
</svg>
