<?xml version="1.0" encoding="UTF-8" standalone="no"?>
<!DOCTYPE svg PUBLIC "-//W3C//DTD SVG 1.1//EN"
 "http://www.w3.org/Graphics/SVG/1.1/DTD/svg11.dtd">
<!-- Generated by graphviz version 2.43.0 (0)
 -->
<!-- Title: BansheeBoardwalk::CreditsSpawnActors Pages: 1 -->
<svg width="484pt" height="82pt"
 viewBox="0.00 0.00 484.00 82.00" xmlns="http://www.w3.org/2000/svg" xmlns:xlink="http://www.w3.org/1999/xlink">

<svg id="main" version="1.1" xmlns="http://www.w3.org/2000/svg" xmlns:xlink="http://www.w3.org/1999/xlink" xml:space="preserve">

<style type="text/css"><![CDATA[
.node, .edge {opacity: 0.7;}
.node.selected, .edge.selected {opacity: 1;}
.edge:hover path { stroke: red; }
.edge:hover polygon { stroke: red; fill: red; }
]]></style>
<script type="application/ecmascript" xlink:href="svg.min.js"/>
<svg id="graph" class="graph">
<g id="graph0" class="graph" transform="scale(1 1) rotate(0) translate(4 78)">
<title>BansheeBoardwalk::CreditsSpawnActors</title>
<!-- Node1 -->
<g id="Node000001" class="node">
<title>Node1</title>
<g id="a_Node000001"><a xlink:title=" ">
<polygon fill="#999999" stroke="#666666" points="151,-42.5 0,-42.5 0,-12.5 151,-12.5 151,-42.5"/>
<text text-anchor="start" x="8" y="-30.5" font-family="Helvetica,sans-Serif" font-size="10.00">BansheeBoardwalk::Credits</text>
<text text-anchor="middle" x="75.5" y="-19.5" font-family="Helvetica,sans-Serif" font-size="10.00">SpawnActors</text>
</a>
</g>
</g>
<!-- Node2 -->
<g id="Node000002" class="node">
<title>Node2</title>
<g id="a_Node000002"><a xlink:href="collision_8c.html#a7fe1ddc7a4c312ab8f9519229963450b" target="_top" xlink:title=" ">
<polygon fill="white" stroke="#666666" points="329,-56 189,-56 189,-37 329,-37 329,-56"/>
<text text-anchor="middle" x="259" y="-44" font-family="Helvetica,sans-Serif" font-size="10.00">find_vtx_and_set_colours</text>
</a>
</g>
</g>
<!-- Node1&#45;&gt;Node2 -->
<g id="edge1_Node000001_Node000002" class="edge">
<title>Node1&#45;&gt;Node2</title>
<g id="a_edge1_Node000001_Node000002"><a xlink:title=" ">
<path fill="none" stroke="#63b8ff" d="M151.11,-35.31C160.3,-36.27 169.72,-37.26 178.97,-38.23"/>
<polygon fill="#63b8ff" stroke="#63b8ff" points="178.62,-41.71 188.93,-39.27 179.35,-34.75 178.62,-41.71"/>
</a>
</g>
</g>
<!-- Node4 -->
<g id="Node000004" class="node">
<title>Node4</title>
<g id="a_Node000004"><a xlink:href="memory_8c.html#a8f7f3165d1a5092720aa26d9502bb678" target="_top" xlink:title=" ">
<polygon fill="white" stroke="#666666" points="331,-19 187,-19 187,0 331,0 331,-19"/>
<text text-anchor="middle" x="259" y="-7" font-family="Helvetica,sans-Serif" font-size="10.00">segmented_gfx_to_virtual</text>
</a>
</g>
</g>
<!-- Node1&#45;&gt;Node4 -->
<g id="edge4_Node000001_Node000004" class="edge">
<title>Node1&#45;&gt;Node4</title>
<g id="a_edge4_Node000001_Node000004"><a xlink:title=" ">
<path fill="none" stroke="#63b8ff" d="M151.11,-20.1C159.61,-19.26 168.31,-18.39 176.89,-17.54"/>
<polygon fill="#63b8ff" stroke="#63b8ff" points="177.29,-21.02 186.9,-16.55 176.6,-14.06 177.29,-21.02"/>
</a>
</g>
</g>
<!-- Node2&#45;&gt;Node2 -->
<g id="edge2_Node000002_Node000002" class="edge">
<title>Node2&#45;&gt;Node2</title>
<g id="a_edge2_Node000002_Node000002"><a xlink:title=" ">
<path fill="none" stroke="#63b8ff" d="M234.03,-56.08C221.88,-64.73 230.21,-74 259,-74 277.9,-74 287.98,-70.01 289.24,-64.82"/>
<polygon fill="#63b8ff" stroke="#63b8ff" points="292.13,-62.84 283.97,-56.08 286.14,-66.45 292.13,-62.84"/>
</a>
</g>
</g>
<!-- Node3 -->
<g id="Node000003" class="node">
<title>Node3</title>
<g id="a_Node000003"><a xlink:href="collision_8c.html#ae34213badc2dd781cab43c88b1e3fdce" target="_top" xlink:title=" ">
<polygon fill="white" stroke="#666666" points="476,-56 367,-56 367,-37 476,-37 476,-56"/>
<text text-anchor="middle" x="421.5" y="-44" font-family="Helvetica,sans-Serif" font-size="10.00">set_vertex_colours</text>
</a>
</g>
</g>
<!-- Node2&#45;&gt;Node3 -->
<g id="edge3_Node000002_Node000003" class="edge">
<title>Node2&#45;&gt;Node3</title>
<g id="a_edge3_Node000002_Node000003"><a xlink:title=" ">
<path fill="none" stroke="#63b8ff" d="M329.46,-46.5C338.57,-46.5 347.87,-46.5 356.88,-46.5"/>
<polygon fill="#63b8ff" stroke="#63b8ff" points="356.9,-50 366.9,-46.5 356.9,-43 356.9,-50"/>
</a>
</g>
</g>
</g>
</svg>
</svg>

<style type='text/css'>
<![CDATA[
[data-mouse-over-selected='false'] { opacity: 0.7; }
[data-mouse-over-selected='true']  { opacity: 1.0; }
]]>
</style>
<script type="application/ecmascript"><![CDATA[
document.addEventListener('DOMContentLoaded', (event) => {
  highlightEdges();
  highlightAdjacentNodes();
});
]]></script>
</svg>
