<?xml version="1.0" encoding="UTF-8" standalone="no"?>
<!DOCTYPE svg PUBLIC "-//W3C//DTD SVG 1.1//EN"
 "http://www.w3.org/Graphics/SVG/1.1/DTD/svg11.dtd">
<!-- Generated by graphviz version 2.43.0 (0)
 -->
<!-- Title: ATruck::ATruck Pages: 1 -->
<!--zoomable 424 -->

<svg id="main" version="1.1" xmlns="http://www.w3.org/2000/svg" xmlns:xlink="http://www.w3.org/1999/xlink" xml:space="preserve" onload="init(evt)">

<style type="text/css"><![CDATA[
.node, .edge {opacity: 0.7;}
.node.selected, .edge.selected {opacity: 1;}
.edge:hover path { stroke: red; }
.edge:hover polygon { stroke: red; fill: red; }
]]></style>

<defs>
  <circle id="rim" cx="0" cy="0" r="7"/>
  <circle id="rim2" cx="0" cy="0" r="3.5"/>
  <g id="zoomPlus">
    <use xlink:href="#rim" fill="#404040"><set attributeName="fill" to="#808080" begin="zoomplus.mouseover" end="zoomplus.mouseout"/></use>
    <path d="M-4,0h8M0,-4v8" fill="none" stroke="white" stroke-width="1.5" pointer-events="none"/>
  </g>
  <g id="zoomMin">
    <use xlink:href="#rim" fill="#404040"><set attributeName="fill" to="#808080" begin="zoomminus.mouseover" end="zoomminus.mouseout"/></use>
    <path d="M-4,0h8" fill="none" stroke="white" stroke-width="1.5" pointer-events="none"/>
  </g>
  <g id="arrowUp" transform="translate(30 24)">
    <use xlink:href="#rim"/>
    <path pointer-events="none" fill="none" stroke="white" stroke-width="1.5" d="M0,-3.0v7 M-2.5,-0.5L0,-3.0L2.5,-0.5"/>
  </g>
  <g id="arrowRight" transform="rotate(90) translate(36 -43)">
    <use xlink:href="#rim"/>
    <path pointer-events="none" fill="none" stroke="white" stroke-width="1.5" d="M0,-3.0v7 M-2.5,-0.5L0,-3.0L2.5,-0.5"/>
  </g>
  <g id="arrowDown" transform="rotate(180) translate(-30 -48)">
    <use xlink:href="#rim"/>
    <path pointer-events="none" fill="none" stroke="white" stroke-width="1.5" d="M0,-3.0v7 M-2.5,-0.5L0,-3.0L2.5,-0.5"/>
  </g>
  <g id="arrowLeft" transform="rotate(270) translate(-36 17)">
    <use xlink:href="#rim"/>
    <path pointer-events="none" fill="none" stroke="white" stroke-width="1.5" d="M0,-3.0v7 M-2.5,-0.5L0,-3.0L2.5,-0.5"/>
  </g>
  <g id="resetDef">
    <use xlink:href="#rim2" fill="#404040"><set attributeName="fill" to="#808080" begin="reset.mouseover" end="reset.mouseout"/></use>
  </g>
</defs>
<script type="application/ecmascript">
var viewWidth = 1554;
var viewHeight = 424;
var sectionId = 'dynsection-2';
</script>
<script type="application/ecmascript" xlink:href="svg.min.js"/>
<svg id="graph" class="graph">
<g id="viewport">
<title>ATruck::ATruck</title>
<!-- Node1 -->
<g id="Node000001" class="node">
<title>Node1</title>
<g id="a_Node000001"><a xlink:title=" ">
<polygon fill="#999999" stroke="#666666" points="86,-98.5 0,-98.5 0,-79.5 86,-79.5 86,-98.5"/>
<text text-anchor="middle" x="43" y="-86.5" font-family="Helvetica,sans-Serif" font-size="10.00">ATruck::ATruck</text>
</a>
</g>
</g>
<!-- Node2 -->
<g id="Node000002" class="node">
<title>Node2</title>
<g id="a_Node000002"><a xlink:href="actors_8c.html#a91fb2e4e37e7c72fea918fe2c1bb4eaf" target="_top" xlink:title=" ">
<polygon fill="white" stroke="#666666" points="262,-264.5 122,-264.5 122,-245.5 262,-245.5 262,-264.5"/>
<text text-anchor="middle" x="192" y="-252.5" font-family="Helvetica,sans-Serif" font-size="10.00">add_actor_to_empty_slot</text>
</a>
</g>
</g>
<!-- Node1&#45;&gt;Node2 -->
<g id="edge1_Node000001_Node000002" class="edge">
<title>Node1&#45;&gt;Node2</title>
<g id="a_edge1_Node000001_Node000002"><a xlink:title=" ">
<path fill="none" stroke="#63b8ff" d="M52.76,-98.89C76.92,-126.17 144.76,-202.78 175.51,-237.5"/>
<polygon fill="#63b8ff" stroke="#63b8ff" points="173.22,-240.21 182.47,-245.37 178.47,-235.57 173.22,-240.21"/>
</a>
</g>
</g>
<!-- Node29 -->
<g id="Node000029" class="node">
<title>Node29</title>
<g id="a_Node000029"><a xlink:href="code__80005FD0_8c.html#a45fa364fbae557a3d2025ebdc0846cd2" target="_top" xlink:title=" ">
<polygon fill="white" stroke="#666666" points="403,-98.5 309,-98.5 309,-79.5 403,-79.5 403,-98.5"/>
<text text-anchor="middle" x="356" y="-86.5" font-family="Helvetica,sans-Serif" font-size="10.00">func_8000D6D0</text>
</a>
</g>
</g>
<!-- Node1&#45;&gt;Node29 -->
<g id="edge28_Node000001_Node000029" class="edge">
<title>Node1&#45;&gt;Node29</title>
<g id="a_edge28_Node000001_Node000029"><a xlink:title=" ">
<path fill="none" stroke="#63b8ff" d="M77.88,-98.58C91.47,-101.96 107.36,-105.33 122,-107 183.82,-114.04 200.06,-112.94 262,-107 275.83,-105.67 290.66,-103.26 304.32,-100.63"/>
<polygon fill="#63b8ff" stroke="#63b8ff" points="305.39,-103.98 314.5,-98.58 304.01,-97.12 305.39,-103.98"/>
</a>
</g>
</g>
<!-- Node43 -->
<g id="Node000043" class="node">
<title>Node43</title>
<g id="a_Node000043"><a xlink:href="code__80005FD0_8c.html#a124bae511133f507498b19842362feeb" target="_top" xlink:title=" ">
<polygon fill="white" stroke="#666666" points="402,-61.5 310,-61.5 310,-42.5 402,-42.5 402,-61.5"/>
<text text-anchor="middle" x="356" y="-49.5" font-family="Helvetica,sans-Serif" font-size="10.00">func_8000D940</text>
</a>
</g>
</g>
<!-- Node1&#45;&gt;Node43 -->
<g id="edge43_Node000001_Node000043" class="edge">
<title>Node1&#45;&gt;Node43</title>
<g id="a_edge43_Node000001_Node000043"><a xlink:title=" ">
<path fill="none" stroke="#63b8ff" d="M77.93,-79.47C91.53,-75.98 107.41,-72.32 122,-70 182.28,-60.39 252.19,-55.86 299.59,-53.76"/>
<polygon fill="#63b8ff" stroke="#63b8ff" points="299.8,-57.25 309.64,-53.33 299.5,-50.26 299.8,-57.25"/>
</a>
</g>
</g>
<!-- Node44 -->
<g id="Node000044" class="node">
<title>Node44</title>
<g id="a_Node000044"><a xlink:href="math__util_8c.html#a151b63b8adf9af7e4054b3b84bd226dc" target="_top" xlink:title=" ">
<polygon fill="white" stroke="#666666" points="228,-22.5 156,-22.5 156,-3.5 228,-3.5 228,-22.5"/>
<text text-anchor="middle" x="192" y="-10.5" font-family="Helvetica,sans-Serif" font-size="10.00">random_int</text>
</a>
</g>
</g>
<!-- Node1&#45;&gt;Node44 -->
<g id="edge48_Node000001_Node000044" class="edge">
<title>Node1&#45;&gt;Node44</title>
<g id="a_edge48_Node000001_Node000044"><a xlink:title=" ">
<path fill="none" stroke="#63b8ff" d="M56.37,-79.31C71.27,-67.98 97.37,-49.24 122,-37 130.34,-32.85 139.57,-29.11 148.5,-25.88"/>
<polygon fill="#63b8ff" stroke="#63b8ff" points="149.71,-29.17 158.01,-22.58 147.42,-22.55 149.71,-29.17"/>
</a>
</g>
</g>
<!-- Node46 -->
<g id="Node000046" class="node">
<title>Node46</title>
<g id="a_Node000046"><a xlink:href="code__80005FD0_8c.html#ac8070bcd41974c70ea8b6d4218b1ebef" target="_top" xlink:title=" ">
<polygon fill="white" stroke="#666666" points="258.5,-98.5 125.5,-98.5 125.5,-79.5 258.5,-79.5 258.5,-98.5"/>
<text text-anchor="middle" x="192" y="-86.5" font-family="Helvetica,sans-Serif" font-size="10.00">spawn_vehicle_on_road</text>
</a>
</g>
</g>
<!-- Node1&#45;&gt;Node46 -->
<g id="edge50_Node000001_Node000046" class="edge">
<title>Node1&#45;&gt;Node46</title>
<g id="a_edge50_Node000001_Node000046"><a xlink:title=" ">
<path fill="none" stroke="#63b8ff" d="M86.12,-89C95.29,-89 105.25,-89 115.27,-89"/>
<polygon fill="#63b8ff" stroke="#63b8ff" points="115.28,-92.5 125.28,-89 115.28,-85.5 115.28,-92.5"/>
</a>
</g>
</g>
<!-- Node3 -->
<g id="Node000003" class="node">
<title>Node3</title>
<g id="a_Node000003"><a xlink:href="actors_8c.html#a39c023177b5a7686cdd1fc65b8b953e1" target="_top" xlink:title=" ">
<polygon fill="white" stroke="#666666" points="387,-246.5 325,-246.5 325,-227.5 387,-227.5 387,-246.5"/>
<text text-anchor="middle" x="356" y="-234.5" font-family="Helvetica,sans-Serif" font-size="10.00">actor_init</text>
</a>
</g>
</g>
<!-- Node2&#45;&gt;Node3 -->
<g id="edge2_Node000002_Node000003" class="edge">
<title>Node2&#45;&gt;Node3</title>
<g id="a_edge2_Node000002_Node000003"><a xlink:title=" ">
<path fill="none" stroke="#63b8ff" d="M262.17,-247.31C280.09,-245.32 298.8,-243.24 314.69,-241.48"/>
<polygon fill="#63b8ff" stroke="#63b8ff" points="315.13,-244.95 324.68,-240.37 314.36,-237.99 315.13,-244.95"/>
</a>
</g>
</g>
<!-- Node25 -->
<g id="Node000025" class="node">
<title>Node25</title>
<g id="a_Node000025"><a xlink:href="Game_8cpp.html#a42f23077aaa52cb3ea5c7803b7dd6816" target="_top" xlink:title=" ">
<polygon fill="white" stroke="#666666" points="409,-209.5 303,-209.5 303,-190.5 409,-190.5 409,-209.5"/>
<text text-anchor="middle" x="356" y="-197.5" font-family="Helvetica,sans-Serif" font-size="10.00">CM_AddBaseActor</text>
</a>
</g>
</g>
<!-- Node2&#45;&gt;Node25 -->
<g id="edge24_Node000002_Node000025" class="edge">
<title>Node2&#45;&gt;Node25</title>
<g id="a_edge24_Node000002_Node000025"><a xlink:title=" ">
<path fill="none" stroke="#63b8ff" d="M219.24,-245.48C240.43,-237.86 271.05,-227 298,-218 303.29,-216.23 308.87,-214.41 314.39,-212.64"/>
<polygon fill="#63b8ff" stroke="#63b8ff" points="315.71,-215.9 324.17,-209.53 313.58,-209.23 315.71,-215.9"/>
</a>
</g>
</g>
<!-- Node26 -->
<g id="Node000026" class="node">
<title>Node26</title>
<g id="a_Node000026"><a xlink:href="Game_8cpp.html#aab23ecf7032de4618ff75c395d8fccf1" target="_top" xlink:title=" ">
<polygon fill="white" stroke="#666666" points="414,-357.5 298,-357.5 298,-338.5 414,-338.5 414,-357.5"/>
<text text-anchor="middle" x="356" y="-345.5" font-family="Helvetica,sans-Serif" font-size="10.00">CM_AddEditorObject</text>
</a>
</g>
</g>
<!-- Node2&#45;&gt;Node26 -->
<g id="edge25_Node000002_Node000026" class="edge">
<title>Node2&#45;&gt;Node26</title>
<g id="a_edge25_Node000002_Node000026"><a xlink:title=" ">
<path fill="none" stroke="#63b8ff" d="M203.9,-264.58C222.18,-280.23 260.72,-311.39 298,-330 301.55,-331.77 305.32,-333.42 309.15,-334.94"/>
<polygon fill="#63b8ff" stroke="#63b8ff" points="308.15,-338.3 318.75,-338.44 310.55,-331.72 308.15,-338.3"/>
</a>
</g>
</g>
<!-- Node27 -->
<g id="Node000027" class="node">
<title>Node27</title>
<g id="a_Node000027"><a xlink:href="Game_8cpp.html#a0841ffe9a66e95aca42438b9d8ffc3d3" target="_top" xlink:title=" ">
<polygon fill="white" stroke="#666666" points="406.5,-320.5 305.5,-320.5 305.5,-301.5 406.5,-301.5 406.5,-320.5"/>
<text text-anchor="middle" x="356" y="-308.5" font-family="Helvetica,sans-Serif" font-size="10.00">CM_GetActorSize</text>
</a>
</g>
</g>
<!-- Node2&#45;&gt;Node27 -->
<g id="edge26_Node000002_Node000027" class="edge">
<title>Node2&#45;&gt;Node27</title>
<g id="a_edge26_Node000002_Node000027"><a xlink:title=" ">
<path fill="none" stroke="#63b8ff" d="M218.36,-264.51C239.56,-272.38 270.64,-283.73 298,-293 303.22,-294.77 308.73,-296.58 314.18,-298.34"/>
<polygon fill="#63b8ff" stroke="#63b8ff" points="313.27,-301.72 323.86,-301.42 315.4,-295.05 313.27,-301.72"/>
</a>
</g>
</g>
<!-- Node28 -->
<g id="Node000028" class="node">
<title>Node28</title>
<g id="a_Node000028"><a xlink:href="actors_8c.html#a3d238d4f049ffbc555cb8a4dc93c9975" target="_top" xlink:title=" ">
<polygon fill="white" stroke="#666666" points="403.5,-283.5 308.5,-283.5 308.5,-264.5 403.5,-264.5 403.5,-283.5"/>
<text text-anchor="middle" x="356" y="-271.5" font-family="Helvetica,sans-Serif" font-size="10.00">get_actor_name</text>
</a>
</g>
</g>
<!-- Node2&#45;&gt;Node28 -->
<g id="edge27_Node000002_Node000028" class="edge">
<title>Node2&#45;&gt;Node28</title>
<g id="a_edge27_Node000002_Node000028"><a xlink:title=" ">
<path fill="none" stroke="#63b8ff" d="M262.17,-263.11C274.15,-264.52 286.47,-265.96 298.07,-267.32"/>
<polygon fill="#63b8ff" stroke="#63b8ff" points="297.71,-270.8 308.05,-268.49 298.53,-263.85 297.71,-270.8"/>
</a>
</g>
</g>
<!-- Node4 -->
<g id="Node000004" class="node">
<title>Node4</title>
<g id="a_Node000004"><a xlink:href="collision_8c.html#a37aa55b3768d001533ad75e7f1b8388a" target="_top" xlink:title=" ">
<polygon fill="white" stroke="#666666" points="956.5,-171.5 815.5,-171.5 815.5,-152.5 956.5,-152.5 956.5,-171.5"/>
<text text-anchor="middle" x="886" y="-159.5" font-family="Helvetica,sans-Serif" font-size="10.00">check_bounding_collision</text>
</a>
</g>
</g>
<!-- Node3&#45;&gt;Node4 -->
<g id="edge3_Node000003_Node000004" class="edge">
<title>Node3&#45;&gt;Node4</title>
<g id="a_edge3_Node000003_Node000004"><a xlink:title=" ">
<path fill="none" stroke="#63b8ff" d="M387.17,-227.83C395.92,-224.93 405.42,-221.55 414,-218 430.53,-211.15 432.79,-204.86 450,-200 514.67,-181.73 698.38,-170.54 805.25,-165.39"/>
<polygon fill="#63b8ff" stroke="#63b8ff" points="805.52,-168.88 815.34,-164.91 805.19,-161.89 805.52,-168.88"/>
</a>
</g>
</g>
<!-- Node8 -->
<g id="Node000008" class="node">
<title>Node8</title>
<g id="a_Node000008"><a xlink:href="actors_8c.html#a1a9bccb586242555a9123ebd4ab70f2a" target="_top" xlink:title=" ">
<polygon fill="white" stroke="#666666" points="585.5,-369 453.5,-369 453.5,-339 585.5,-339 585.5,-369"/>
<text text-anchor="start" x="461.5" y="-357" font-family="Helvetica,sans-Serif" font-size="10.00">cleanup_red_and_green</text>
<text text-anchor="middle" x="519.5" y="-346" font-family="Helvetica,sans-Serif" font-size="10.00">_shells</text>
</a>
</g>
</g>
<!-- Node3&#45;&gt;Node8 -->
<g id="edge7_Node000003_Node000008" class="edge">
<title>Node3&#45;&gt;Node8</title>
<g id="a_edge7_Node000003_Node000008"><a xlink:title=" ">
<path fill="none" stroke="#63b8ff" d="M387.29,-242.97C396.52,-245.82 406.26,-249.98 414,-256 437.36,-274.16 428.86,-291.3 450,-312 458.4,-320.23 468.7,-327.59 478.73,-333.77"/>
<polygon fill="#63b8ff" stroke="#63b8ff" points="477.03,-336.83 487.43,-338.88 480.58,-330.79 477.03,-336.83"/>
</a>
</g>
</g>
<!-- Node21 -->
<g id="Node000021" class="node">
<title>Node21</title>
<g id="a_Node000021"><a xlink:href="collision_8c.html#ad72fef3ffe32191d73b1822f512ebf3f" target="_top" xlink:title=" ">
<polygon fill="white" stroke="#666666" points="567,-302.5 472,-302.5 472,-283.5 567,-283.5 567,-302.5"/>
<text text-anchor="middle" x="519.5" y="-290.5" font-family="Helvetica,sans-Serif" font-size="10.00">func_802AAAAC</text>
</a>
</g>
</g>
<!-- Node3&#45;&gt;Node21 -->
<g id="edge20_Node000003_Node000021" class="edge">
<title>Node3&#45;&gt;Node21</title>
<g id="a_edge20_Node000003_Node000021"><a xlink:title=" ">
<path fill="none" stroke="#63b8ff" d="M387.22,-246.05C395.97,-248.95 405.46,-252.35 414,-256 430.64,-263.11 433.14,-268.44 450,-275 455.16,-277.01 460.62,-278.87 466.11,-280.56"/>
<polygon fill="#63b8ff" stroke="#63b8ff" points="465.41,-284.01 475.99,-283.45 467.37,-277.29 465.41,-284.01"/>
</a>
</g>
</g>
<!-- Node23 -->
<g id="Node000023" class="node">
<title>Node23</title>
<g id="a_Node000023"><a xlink:href="math__util_8c.html#af7b470ed76fce07b8042a47c96e5690b" target="_top" xlink:title=" ">
<polygon fill="white" stroke="#666666" points="573,-265.5 466,-265.5 466,-246.5 573,-246.5 573,-265.5"/>
<text text-anchor="middle" x="519.5" y="-253.5" font-family="Helvetica,sans-Serif" font-size="10.00">vec3f_copy_return</text>
</a>
</g>
</g>
<!-- Node3&#45;&gt;Node23 -->
<g id="edge22_Node000003_Node000023" class="edge">
<title>Node3&#45;&gt;Node23</title>
<g id="a_edge22_Node000003_Node000023"><a xlink:title=" ">
<path fill="none" stroke="#63b8ff" d="M387.38,-240.57C406.56,-242.83 432.06,-245.83 455.46,-248.58"/>
<polygon fill="#63b8ff" stroke="#63b8ff" points="455.35,-252.09 465.69,-249.79 456.17,-245.14 455.35,-252.09"/>
</a>
</g>
</g>
<!-- Node24 -->
<g id="Node000024" class="node">
<title>Node24</title>
<g id="a_Node000024"><a xlink:href="math__util_8c.html#a0e270ee67600c8c9c2f140c647d008a1" target="_top" xlink:title=" ">
<polygon fill="white" stroke="#666666" points="556.5,-228.5 482.5,-228.5 482.5,-209.5 556.5,-209.5 556.5,-228.5"/>
<text text-anchor="middle" x="519.5" y="-216.5" font-family="Helvetica,sans-Serif" font-size="10.00">vec3s_copy</text>
</a>
</g>
</g>
<!-- Node3&#45;&gt;Node24 -->
<g id="edge23_Node000003_Node000024" class="edge">
<title>Node3&#45;&gt;Node24</title>
<g id="a_edge23_Node000003_Node000024"><a xlink:title=" ">
<path fill="none" stroke="#63b8ff" d="M387.38,-233.61C411.28,-230.95 444.98,-227.19 472.24,-224.16"/>
<polygon fill="#63b8ff" stroke="#63b8ff" points="472.78,-227.62 482.33,-223.03 472,-220.66 472.78,-227.62"/>
</a>
</g>
</g>
<!-- Node5 -->
<g id="Node000005" class="node">
<title>Node5</title>
<g id="a_Node000005"><a xlink:href="collision_8c.html#ac312bf382cb40752f6b790a99e7cdcb6" target="_top" xlink:title=" ">
<polygon fill="white" stroke="#666666" points="1111,-134.5 1003,-134.5 1003,-115.5 1111,-115.5 1111,-134.5"/>
<text text-anchor="middle" x="1057" y="-122.5" font-family="Helvetica,sans-Serif" font-size="10.00">check_collision_yx</text>
</a>
</g>
</g>
<!-- Node4&#45;&gt;Node5 -->
<g id="edge4_Node000004_Node000005" class="edge">
<title>Node4&#45;&gt;Node5</title>
<g id="a_edge4_Node000004_Node000005"><a xlink:title=" ">
<path fill="none" stroke="#63b8ff" d="M930.52,-152.47C952.42,-147.68 979.15,-141.82 1002.31,-136.75"/>
<polygon fill="#63b8ff" stroke="#63b8ff" points="1003.31,-140.12 1012.33,-134.56 1001.82,-133.28 1003.31,-140.12"/>
</a>
</g>
</g>
<!-- Node6 -->
<g id="Node000006" class="node">
<title>Node6</title>
<g id="a_Node000006"><a xlink:href="collision_8c.html#a4b48832a90e984536a0635a016ec4f28" target="_top" xlink:title=" ">
<polygon fill="white" stroke="#666666" points="1110.5,-208.5 1003.5,-208.5 1003.5,-189.5 1110.5,-189.5 1110.5,-208.5"/>
<text text-anchor="middle" x="1057" y="-196.5" font-family="Helvetica,sans-Serif" font-size="10.00">check_collision_zx</text>
</a>
</g>
</g>
<!-- Node4&#45;&gt;Node6 -->
<g id="edge5_Node000004_Node000006" class="edge">
<title>Node4&#45;&gt;Node6</title>
<g id="a_edge5_Node000004_Node000006"><a xlink:title=" ">
<path fill="none" stroke="#63b8ff" d="M930.52,-171.53C952.42,-176.32 979.15,-182.18 1002.31,-187.25"/>
<polygon fill="#63b8ff" stroke="#63b8ff" points="1001.82,-190.72 1012.33,-189.44 1003.31,-183.88 1001.82,-190.72"/>
</a>
</g>
</g>
<!-- Node7 -->
<g id="Node000007" class="node">
<title>Node7</title>
<g id="a_Node000007"><a xlink:href="collision_8c.html#a21fef964ab48191a1c0341954ef27a40" target="_top" xlink:title=" ">
<polygon fill="white" stroke="#666666" points="1110.5,-171.5 1003.5,-171.5 1003.5,-152.5 1110.5,-152.5 1110.5,-171.5"/>
<text text-anchor="middle" x="1057" y="-159.5" font-family="Helvetica,sans-Serif" font-size="10.00">check_collision_zy</text>
</a>
</g>
</g>
<!-- Node4&#45;&gt;Node7 -->
<g id="edge6_Node000004_Node000007" class="edge">
<title>Node4&#45;&gt;Node7</title>
<g id="a_edge6_Node000004_Node000007"><a xlink:title=" ">
<path fill="none" stroke="#63b8ff" d="M956.71,-162C968.81,-162 981.32,-162 993.22,-162"/>
<polygon fill="#63b8ff" stroke="#63b8ff" points="993.49,-165.5 1003.49,-162 993.49,-158.5 993.49,-165.5"/>
</a>
</g>
</g>
<!-- Node9 -->
<g id="Node000009" class="node">
<title>Node9</title>
<g id="a_Node000009"><a xlink:href="Game_8cpp.html#a693de7d8b89fe291aafea86bc64a0a2e" target="_top" xlink:title=" ">
<polygon fill="white" stroke="#666666" points="738,-415.5 658,-415.5 658,-396.5 738,-396.5 738,-415.5"/>
<text text-anchor="middle" x="698" y="-403.5" font-family="Helvetica,sans-Serif" font-size="10.00">CM_GetActor</text>
</a>
</g>
</g>
<!-- Node8&#45;&gt;Node9 -->
<g id="edge8_Node000008_Node000009" class="edge">
<title>Node8&#45;&gt;Node9</title>
<g id="a_edge8_Node000008_Node000009"><a xlink:title=" ">
<path fill="none" stroke="#63b8ff" d="M566.4,-369.02C584.58,-374.83 605.72,-381.42 625,-387 632.95,-389.3 641.42,-391.64 649.65,-393.85"/>
<polygon fill="#63b8ff" stroke="#63b8ff" points="648.97,-397.29 659.54,-396.48 650.77,-390.53 648.97,-397.29"/>
</a>
</g>
</g>
<!-- Node10 -->
<g id="Node000010" class="node">
<title>Node10</title>
<g id="a_Node000010"><a xlink:href="code__80005FD0_8c.html#ad301b978cdd3c4cc190b10be050d51d8" target="_top" xlink:title=" ">
<polygon fill="white" stroke="#666666" points="771,-378 625,-378 625,-348 771,-348 771,-378"/>
<text text-anchor="start" x="633" y="-366" font-family="Helvetica,sans-Serif" font-size="10.00">delete_actor_in_unexpired</text>
<text text-anchor="middle" x="698" y="-355" font-family="Helvetica,sans-Serif" font-size="10.00">_actor_list</text>
</a>
</g>
</g>
<!-- Node8&#45;&gt;Node10 -->
<g id="edge9_Node000008_Node000010" class="edge">
<title>Node8&#45;&gt;Node10</title>
<g id="a_edge9_Node000008_Node000010"><a xlink:title=" ">
<path fill="none" stroke="#63b8ff" d="M585.72,-357.33C595.2,-357.81 605.05,-358.31 614.81,-358.81"/>
<polygon fill="#63b8ff" stroke="#63b8ff" points="614.75,-362.31 624.92,-359.32 615.11,-355.32 614.75,-362.31"/>
</a>
</g>
</g>
<!-- Node11 -->
<g id="Node000011" class="node">
<title>Node11</title>
<g id="a_Node000011"><a xlink:href="actors_8c.html#a694ec6ef7548b8618aeb35c038d3a9b9" target="_top" xlink:title=" ">
<polygon fill="white" stroke="#666666" points="739.5,-329.5 656.5,-329.5 656.5,-310.5 739.5,-310.5 739.5,-329.5"/>
<text text-anchor="middle" x="698" y="-317.5" font-family="Helvetica,sans-Serif" font-size="10.00">destroy_actor</text>
</a>
</g>
</g>
<!-- Node8&#45;&gt;Node11 -->
<g id="edge10_Node000008_Node000011" class="edge">
<title>Node8&#45;&gt;Node11</title>
<g id="a_edge10_Node000008_Node000011"><a xlink:title=" ">
<path fill="none" stroke="#63b8ff" d="M585.72,-341.44C605.78,-337.57 627.55,-333.38 646.47,-329.73"/>
<polygon fill="#63b8ff" stroke="#63b8ff" points="647.21,-333.16 656.37,-327.83 645.88,-326.28 647.21,-333.16"/>
</a>
</g>
</g>
<!-- Node12 -->
<g id="Node000012" class="node">
<title>Node12</title>
<g id="a_Node000012"><a xlink:href="actors_8c.html#a12dc3ccac4c7d8569eadac0af4fd6f9f" target="_top" xlink:title=" ">
<polygon fill="white" stroke="#666666" points="965,-329.5 807,-329.5 807,-310.5 965,-310.5 965,-329.5"/>
<text text-anchor="middle" x="886" y="-317.5" font-family="Helvetica,sans-Serif" font-size="10.00">play_sound_before_despawn</text>
</a>
</g>
</g>
<!-- Node11&#45;&gt;Node12 -->
<g id="edge11_Node000011_Node000012" class="edge">
<title>Node11&#45;&gt;Node12</title>
<g id="a_edge11_Node000011_Node000012"><a xlink:title=" ">
<path fill="none" stroke="#63b8ff" d="M739.82,-320C756.65,-320 776.86,-320 796.77,-320"/>
<polygon fill="#63b8ff" stroke="#63b8ff" points="796.82,-323.5 806.82,-320 796.82,-316.5 796.82,-323.5"/>
</a>
</g>
</g>
<!-- Node13 -->
<g id="Node000013" class="node">
<title>Node13</title>
<g id="a_Node000013"><a xlink:href="external_8c.html#ae72057869772019e4464c87d4e16c682" target="_top" xlink:title=" ">
<polygon fill="white" stroke="#666666" points="1103,-329.5 1011,-329.5 1011,-310.5 1103,-310.5 1103,-329.5"/>
<text text-anchor="middle" x="1057" y="-317.5" font-family="Helvetica,sans-Serif" font-size="10.00">func_800C99E0</text>
</a>
</g>
</g>
<!-- Node12&#45;&gt;Node13 -->
<g id="edge12_Node000012_Node000013" class="edge">
<title>Node12&#45;&gt;Node13</title>
<g id="a_edge12_Node000012_Node000013"><a xlink:title=" ">
<path fill="none" stroke="#63b8ff" d="M965.07,-320C977.12,-320 989.35,-320 1000.76,-320"/>
<polygon fill="#63b8ff" stroke="#63b8ff" points="1000.99,-323.5 1010.99,-320 1000.99,-316.5 1000.99,-323.5"/>
</a>
</g>
</g>
<!-- Node14 -->
<g id="Node000014" class="node">
<title>Node14</title>
<g id="a_Node000014"><a xlink:href="external_8c.html#aeb87c527482a244173df36a1f3d4f446" target="_top" xlink:title=" ">
<polygon fill="white" stroke="#666666" points="1241,-348.5 1149,-348.5 1149,-329.5 1241,-329.5 1241,-348.5"/>
<text text-anchor="middle" x="1195" y="-336.5" font-family="Helvetica,sans-Serif" font-size="10.00">func_800C21E8</text>
</a>
</g>
</g>
<!-- Node13&#45;&gt;Node14 -->
<g id="edge13_Node000013_Node000014" class="edge">
<title>Node13&#45;&gt;Node14</title>
<g id="a_edge13_Node000013_Node000014"><a xlink:title=" ">
<path fill="none" stroke="#63b8ff" d="M1103.29,-326.33C1114.64,-327.91 1126.95,-329.63 1138.73,-331.28"/>
<polygon fill="#63b8ff" stroke="#63b8ff" points="1138.52,-334.78 1148.91,-332.7 1139.49,-327.85 1138.52,-334.78"/>
</a>
</g>
</g>
<!-- Node15 -->
<g id="Node000015" class="node">
<title>Node15</title>
<g id="a_Node000015"><a xlink:href="external_8c.html#a028d40421b90c38f68ebfd5acc626f2e" target="_top" xlink:title=" ">
<polygon fill="white" stroke="#666666" points="1241,-311.5 1149,-311.5 1149,-292.5 1241,-292.5 1241,-311.5"/>
<text text-anchor="middle" x="1195" y="-299.5" font-family="Helvetica,sans-Serif" font-size="10.00">func_800C5578</text>
</a>
</g>
</g>
<!-- Node13&#45;&gt;Node15 -->
<g id="edge14_Node000013_Node000015" class="edge">
<title>Node13&#45;&gt;Node15</title>
<g id="a_edge14_Node000013_Node000015"><a xlink:title=" ">
<path fill="none" stroke="#63b8ff" d="M1103.29,-314.01C1114.64,-312.5 1126.95,-310.87 1138.73,-309.31"/>
<polygon fill="#63b8ff" stroke="#63b8ff" points="1139.46,-312.75 1148.91,-307.97 1138.54,-305.81 1139.46,-312.75"/>
</a>
</g>
</g>
<!-- Node16 -->
<g id="Node000016" class="node">
<title>Node16</title>
<g id="a_Node000016"><a xlink:href="external_8c.html#ac0fb767de7e14a03f1bcfa53f0abd23b" target="_top" xlink:title=" ">
<polygon fill="white" stroke="#666666" points="1417,-348.5 1277,-348.5 1277,-329.5 1417,-329.5 1417,-348.5"/>
<text text-anchor="middle" x="1347" y="-336.5" font-family="Helvetica,sans-Serif" font-size="10.00">delete_sound_from_bank</text>
</a>
</g>
</g>
<!-- Node15&#45;&gt;Node16 -->
<g id="edge15_Node000015_Node000016" class="edge">
<title>Node15&#45;&gt;Node16</title>
<g id="a_edge15_Node000015_Node000016"><a xlink:title=" ">
<path fill="none" stroke="#63b8ff" d="M1234.63,-311.53C1253.8,-316.26 1277.16,-322.02 1297.52,-327.04"/>
<polygon fill="#63b8ff" stroke="#63b8ff" points="1296.69,-330.44 1307.24,-329.44 1298.37,-323.65 1296.69,-330.44"/>
</a>
</g>
</g>
<!-- Node18 -->
<g id="Node000018" class="node">
<title>Node18</title>
<g id="a_Node000018"><a xlink:href="external_8c.html#ab83bd36e63f0f1baddcb2482b5ad31b0" target="_top" xlink:title=" ">
<polygon fill="white" stroke="#666666" points="1393.5,-311.5 1300.5,-311.5 1300.5,-292.5 1393.5,-292.5 1393.5,-311.5"/>
<text text-anchor="middle" x="1347" y="-299.5" font-family="Helvetica,sans-Serif" font-size="10.00">func_800C41CC</text>
</a>
</g>
</g>
<!-- Node15&#45;&gt;Node18 -->
<g id="edge17_Node000015_Node000018" class="edge">
<title>Node15&#45;&gt;Node18</title>
<g id="a_edge17_Node000015_Node000018"><a xlink:title=" ">
<path fill="none" stroke="#63b8ff" d="M1241,-302C1256.37,-302 1273.74,-302 1289.86,-302"/>
<polygon fill="#63b8ff" stroke="#63b8ff" points="1290.25,-305.5 1300.25,-302 1290.25,-298.5 1290.25,-305.5"/>
</a>
</g>
</g>
<!-- Node19 -->
<g id="Node000019" class="node">
<title>Node19</title>
<g id="a_Node000019"><a xlink:href="port__eu_8c.html#aa89dfaecca46c6d071f08c1898d1f7c9" target="_top" xlink:title=" ">
<polygon fill="white" stroke="#666666" points="1393.5,-274.5 1300.5,-274.5 1300.5,-255.5 1393.5,-255.5 1393.5,-274.5"/>
<text text-anchor="middle" x="1347" y="-262.5" font-family="Helvetica,sans-Serif" font-size="10.00">func_800CBBE8</text>
</a>
</g>
</g>
<!-- Node15&#45;&gt;Node19 -->
<g id="edge18_Node000015_Node000019" class="edge">
<title>Node15&#45;&gt;Node19</title>
<g id="a_edge18_Node000015_Node000019"><a xlink:title=" ">
<path fill="none" stroke="#63b8ff" d="M1234.63,-292.47C1253.8,-287.74 1277.16,-281.98 1297.52,-276.96"/>
<polygon fill="#63b8ff" stroke="#63b8ff" points="1298.37,-280.35 1307.24,-274.56 1296.69,-273.56 1298.37,-280.35"/>
</a>
</g>
</g>
<!-- Node17 -->
<g id="Node000017" class="node">
<title>Node17</title>
<g id="a_Node000017"><a xlink:href="external_8c.html#a358ac55e8ab5262dcae8037334be06d7" target="_top" xlink:title=" ">
<polygon fill="white" stroke="#666666" points="1545.5,-348.5 1453.5,-348.5 1453.5,-329.5 1545.5,-329.5 1545.5,-348.5"/>
<text text-anchor="middle" x="1499.5" y="-336.5" font-family="Helvetica,sans-Serif" font-size="10.00">func_800C40F0</text>
</a>
</g>
</g>
<!-- Node16&#45;&gt;Node17 -->
<g id="edge16_Node000016_Node000017" class="edge">
<title>Node16&#45;&gt;Node17</title>
<g id="a_edge16_Node000016_Node000017"><a xlink:title=" ">
<path fill="none" stroke="#63b8ff" d="M1417.08,-339C1425.87,-339 1434.78,-339 1443.31,-339"/>
<polygon fill="#63b8ff" stroke="#63b8ff" points="1443.5,-342.5 1453.5,-339 1443.5,-335.5 1443.5,-342.5"/>
</a>
</g>
</g>
<!-- Node20 -->
<g id="Node000020" class="node">
<title>Node20</title>
<g id="a_Node000020"><a xlink:href="port__eu_8c.html#af361a20d2e08f30c53a237ca481ff734" target="_top" xlink:title=" ">
<polygon fill="white" stroke="#666666" points="1546,-274.5 1453,-274.5 1453,-255.5 1546,-255.5 1546,-274.5"/>
<text text-anchor="middle" x="1499.5" y="-262.5" font-family="Helvetica,sans-Serif" font-size="10.00">func_800CBB48</text>
</a>
</g>
</g>
<!-- Node19&#45;&gt;Node20 -->
<g id="edge19_Node000019_Node000020" class="edge">
<title>Node19&#45;&gt;Node20</title>
<g id="a_edge19_Node000019_Node000020"><a xlink:title=" ">
<path fill="none" stroke="#63b8ff" d="M1393.56,-265C1408.96,-265 1426.34,-265 1442.46,-265"/>
<polygon fill="#63b8ff" stroke="#63b8ff" points="1442.83,-268.5 1452.83,-265 1442.83,-261.5 1442.83,-268.5"/>
</a>
</g>
</g>
<!-- Node22 -->
<g id="Node000022" class="node">
<title>Node22</title>
<g id="a_Node000022"><a xlink:href="math__util_8c.html#a79fd07a0971ec96a3ff0801963a2fa7f" target="_top" xlink:title=" ">
<polygon fill="white" stroke="#666666" points="730,-292.5 666,-292.5 666,-273.5 730,-273.5 730,-292.5"/>
<text text-anchor="middle" x="698" y="-280.5" font-family="Helvetica,sans-Serif" font-size="10.00">vec3f_set</text>
</a>
</g>
</g>
<!-- Node21&#45;&gt;Node22 -->
<g id="edge21_Node000021_Node000022" class="edge">
<title>Node21&#45;&gt;Node22</title>
<g id="a_edge21_Node000021_Node000022"><a xlink:title=" ">
<path fill="none" stroke="#63b8ff" d="M567.34,-290.35C594.83,-288.79 629.27,-286.84 655.74,-285.34"/>
<polygon fill="#63b8ff" stroke="#63b8ff" points="656.04,-288.83 665.83,-284.77 655.65,-281.84 656.04,-288.83"/>
</a>
</g>
</g>
<!-- Node30 -->
<g id="Node000030" class="node">
<title>Node30</title>
<g id="a_Node000030"><a xlink:href="code__80005FD0_8c.html#aff1ba4b22fc22c38fcf28007ccaaa752" target="_top" xlink:title=" ">
<polygon fill="white" stroke="#666666" points="566,-135.5 473,-135.5 473,-116.5 566,-116.5 566,-135.5"/>
<text text-anchor="middle" x="519.5" y="-123.5" font-family="Helvetica,sans-Serif" font-size="10.00">func_8000D2B4</text>
</a>
</g>
</g>
<!-- Node29&#45;&gt;Node30 -->
<g id="edge29_Node000029_Node000030" class="edge">
<title>Node29&#45;&gt;Node30</title>
<g id="a_edge29_Node000029_Node000030"><a xlink:title=" ">
<path fill="none" stroke="#63b8ff" d="M398.59,-98.53C419.42,-103.3 444.84,-109.12 466.9,-114.18"/>
<polygon fill="#63b8ff" stroke="#63b8ff" points="466.24,-117.62 476.77,-116.44 467.8,-110.79 466.24,-117.62"/>
</a>
</g>
</g>
<!-- Node37 -->
<g id="Node000037" class="node">
<title>Node37</title>
<g id="a_Node000037"><a xlink:href="code__80005FD0_8c.html#a79cd9c001e0a06c9cab23fe2cf070abf" target="_top" xlink:title=" ">
<polygon fill="white" stroke="#666666" points="589,-24.5 450,-24.5 450,-5.5 589,-5.5 589,-24.5"/>
<text text-anchor="middle" x="519.5" y="-12.5" font-family="Helvetica,sans-Serif" font-size="10.00">get_angle_between_path</text>
</a>
</g>
</g>
<!-- Node29&#45;&gt;Node37 -->
<g id="edge37_Node000029_Node000037" class="edge">
<title>Node29&#45;&gt;Node37</title>
<g id="a_edge37_Node000029_Node000037"><a xlink:title=" ">
<path fill="none" stroke="#63b8ff" d="M394.35,-79.41C401.15,-76.88 407.99,-73.77 414,-70 433.43,-57.8 430.18,-44.56 450,-33 453.01,-31.24 456.2,-29.65 459.48,-28.22"/>
<polygon fill="#63b8ff" stroke="#63b8ff" points="460.87,-31.44 468.93,-24.56 458.34,-24.91 460.87,-31.44"/>
</a>
</g>
</g>
<!-- Node41 -->
<g id="Node000041" class="node">
<title>Node41</title>
<g id="a_Node000041"><a xlink:href="code__80005FD0_8c.html#a83974499a323e99b007956bf9c0e25ff" target="_top" xlink:title=" ">
<polygon fill="white" stroke="#666666" points="589,-98.5 450,-98.5 450,-79.5 589,-79.5 589,-98.5"/>
<text text-anchor="middle" x="519.5" y="-86.5" font-family="Helvetica,sans-Serif" font-size="10.00">set_track_offset_position</text>
</a>
</g>
</g>
<!-- Node29&#45;&gt;Node41 -->
<g id="edge41_Node000029_Node000041" class="edge">
<title>Node29&#45;&gt;Node41</title>
<g id="a_edge41_Node000029_Node000041"><a xlink:title=" ">
<path fill="none" stroke="#63b8ff" d="M403.28,-89C414.75,-89 427.37,-89 439.92,-89"/>
<polygon fill="#63b8ff" stroke="#63b8ff" points="439.94,-92.5 449.94,-89 439.94,-85.5 439.94,-92.5"/>
</a>
</g>
</g>
<!-- Node42 -->
<g id="Node000042" class="node">
<title>Node42</title>
<g id="a_Node000042"><a xlink:href="math_8h.html#a37bde043e94a6f074c78f10518fb5d99" target="_top" xlink:title=" ">
<polygon fill="white" stroke="#666666" points="539,-61.5 500,-61.5 500,-42.5 539,-42.5 539,-61.5"/>
<text text-anchor="middle" x="519.5" y="-49.5" font-family="Helvetica,sans-Serif" font-size="10.00">sqrtf</text>
</a>
</g>
</g>
<!-- Node29&#45;&gt;Node42 -->
<g id="edge42_Node000029_Node000042" class="edge">
<title>Node29&#45;&gt;Node42</title>
<g id="a_edge42_Node000029_Node000042"><a xlink:title=" ">
<path fill="none" stroke="#63b8ff" d="M398.59,-79.47C427.21,-72.91 464.5,-64.37 489.84,-58.57"/>
<polygon fill="#63b8ff" stroke="#63b8ff" points="490.94,-61.9 499.91,-56.26 489.38,-55.08 490.94,-61.9"/>
</a>
</g>
</g>
<!-- Node31 -->
<g id="Node000031" class="node">
<title>Node31</title>
<g id="a_Node000031"><a xlink:href="code__80005FD0_8c.html#a52b991f7bfc8a37a05bbb3ede096fb6a" target="_top" xlink:title=" ">
<polygon fill="white" stroke="#666666" points="768,-152.5 628,-152.5 628,-133.5 768,-133.5 768,-152.5"/>
<text text-anchor="middle" x="698" y="-140.5" font-family="Helvetica,sans-Serif" font-size="10.00">adjust_path_at_start_line</text>
</a>
</g>
</g>
<!-- Node30&#45;&gt;Node31 -->
<g id="edge30_Node000030_Node000031" class="edge">
<title>Node30&#45;&gt;Node31</title>
<g id="a_edge30_Node000030_Node000031"><a xlink:title=" ">
<path fill="none" stroke="#63b8ff" d="M566.41,-130.42C582.04,-131.93 599.98,-133.66 617.47,-135.34"/>
<polygon fill="#63b8ff" stroke="#63b8ff" points="617.4,-138.85 627.69,-136.32 618.07,-131.88 617.4,-138.85"/>
</a>
</g>
</g>
<!-- Node32 -->
<g id="Node000032" class="node">
<title>Node32</title>
<g id="a_Node000032"><a xlink:href="code__80005FD0_8c.html#aae3d2d6e27d79a30dfe68c64e771b5b1" target="_top" xlink:title=" ">
<polygon fill="white" stroke="#666666" points="744.5,-115.5 651.5,-115.5 651.5,-96.5 744.5,-96.5 744.5,-115.5"/>
<text text-anchor="middle" x="698" y="-103.5" font-family="Helvetica,sans-Serif" font-size="10.00">func_8000D24C</text>
</a>
</g>
</g>
<!-- Node30&#45;&gt;Node32 -->
<g id="edge31_Node000030_Node000032" class="edge">
<title>Node30&#45;&gt;Node32</title>
<g id="a_edge31_Node000030_Node000032"><a xlink:title=" ">
<path fill="none" stroke="#63b8ff" d="M566.41,-120.8C589.29,-118.2 617.15,-115.05 641.25,-112.32"/>
<polygon fill="#63b8ff" stroke="#63b8ff" points="641.78,-115.78 651.32,-111.18 640.99,-108.82 641.78,-115.78"/>
</a>
</g>
</g>
<!-- Node36 -->
<g id="Node000036" class="node">
<title>Node36</title>
<g id="a_Node000036"><a xlink:href="code__80005FD0_8c.html#a041b53794d8d64878d2cf5e0dea65b80" target="_top" xlink:title=" ">
<polygon fill="white" stroke="#666666" points="753,-78.5 643,-78.5 643,-59.5 753,-59.5 753,-78.5"/>
<text text-anchor="middle" x="698" y="-66.5" font-family="Helvetica,sans-Serif" font-size="10.00">update_path_index</text>
</a>
</g>
</g>
<!-- Node30&#45;&gt;Node36 -->
<g id="edge36_Node000030_Node000036" class="edge">
<title>Node30&#45;&gt;Node36</title>
<g id="a_edge36_Node000030_Node000036"><a xlink:title=" ">
<path fill="none" stroke="#63b8ff" d="M561.24,-116.41C570.51,-113.76 580.21,-110.6 589,-107 605.94,-100.06 607.98,-93.72 625,-87 630.17,-84.96 635.64,-83.1 641.16,-81.41"/>
<polygon fill="#63b8ff" stroke="#63b8ff" points="642.46,-84.68 651.11,-78.56 640.53,-77.95 642.46,-84.68"/>
</a>
</g>
</g>
<!-- Node32&#45;&gt;Node4 -->
<g id="edge32_Node000032_Node000004" class="edge">
<title>Node32&#45;&gt;Node4</title>
<g id="a_edge32_Node000032_Node000004"><a xlink:title=" ">
<path fill="none" stroke="#63b8ff" d="M739.51,-115.55C749.82,-118.14 760.86,-121.05 771,-124 797.05,-131.59 826.06,-141.28 848.3,-148.97"/>
<polygon fill="#63b8ff" stroke="#63b8ff" points="847.41,-152.37 858,-152.35 849.71,-145.76 847.41,-152.37"/>
</a>
</g>
</g>
<!-- Node33 -->
<g id="Node000033" class="node">
<title>Node33</title>
<g id="a_Node000033"><a xlink:href="code__80005FD0_8c.html#a64865cf2565ef9f4215c5fa73b04233f" target="_top" xlink:title=" ">
<polygon fill="white" stroke="#666666" points="951.5,-89 820.5,-89 820.5,-59 951.5,-59 951.5,-89"/>
<text text-anchor="start" x="828.5" y="-77" font-family="Helvetica,sans-Serif" font-size="10.00">find_closest_path_point</text>
<text text-anchor="middle" x="886" y="-66" font-family="Helvetica,sans-Serif" font-size="10.00">_track_section</text>
</a>
</g>
</g>
<!-- Node32&#45;&gt;Node33 -->
<g id="edge33_Node000032_Node000033" class="edge">
<title>Node32&#45;&gt;Node33</title>
<g id="a_edge33_Node000032_Node000033"><a xlink:title=" ">
<path fill="none" stroke="#63b8ff" d="M744.5,-98.17C764.27,-94.77 787.96,-90.69 810.2,-86.87"/>
<polygon fill="#63b8ff" stroke="#63b8ff" points="811.04,-90.28 820.3,-85.13 809.85,-83.38 811.04,-90.28"/>
</a>
</g>
</g>
<!-- Node35 -->
<g id="Node000035" class="node">
<title>Node35</title>
<g id="a_Node000035"><a xlink:href="collision_8c.html#a053809031f467d0a6747788211e0ec69" target="_top" xlink:title=" ">
<polygon fill="white" stroke="#666666" points="944.5,-126.5 827.5,-126.5 827.5,-107.5 944.5,-107.5 944.5,-126.5"/>
<text text-anchor="middle" x="886" y="-114.5" font-family="Helvetica,sans-Serif" font-size="10.00">get_track_section_id</text>
</a>
</g>
</g>
<!-- Node32&#45;&gt;Node35 -->
<g id="edge35_Node000032_Node000035" class="edge">
<title>Node32&#45;&gt;Node35</title>
<g id="a_edge35_Node000032_Node000035"><a xlink:title=" ">
<path fill="none" stroke="#63b8ff" d="M744.5,-108.69C766.33,-109.98 792.94,-111.56 817.1,-112.98"/>
<polygon fill="#63b8ff" stroke="#63b8ff" points="817.1,-116.49 827.29,-113.59 817.51,-109.5 817.1,-116.49"/>
</a>
</g>
</g>
<!-- Node34 -->
<g id="Node000034" class="node">
<title>Node34</title>
<g id="a_Node000034"><a xlink:href="Game_8cpp.html#aab0dcf46f6e6e4516bf79ea3f519c765" target="_top" xlink:title=" ">
<polygon fill="white" stroke="#666666" points="1113,-83.5 1001,-83.5 1001,-64.5 1113,-64.5 1113,-83.5"/>
<text text-anchor="middle" x="1057" y="-71.5" font-family="Helvetica,sans-Serif" font-size="10.00">IsPodiumCeremony</text>
</a>
</g>
</g>
<!-- Node33&#45;&gt;Node34 -->
<g id="edge34_Node000033_Node000034" class="edge">
<title>Node33&#45;&gt;Node34</title>
<g id="a_edge34_Node000033_Node000034"><a xlink:title=" ">
<path fill="none" stroke="#63b8ff" d="M951.86,-74C964.64,-74 978.05,-74 990.84,-74"/>
<polygon fill="#63b8ff" stroke="#63b8ff" points="990.94,-77.5 1000.94,-74 990.94,-70.5 990.94,-77.5"/>
</a>
</g>
</g>
<!-- Node38 -->
<g id="Node000038" class="node">
<title>Node38</title>
<g id="a_Node000038"><a xlink:href="math__util_8c.html#a84cf9d4ec33146a64c230ed4cec56632" target="_top" xlink:title=" ">
<polygon fill="white" stroke="#666666" points="765.5,-30 630.5,-30 630.5,0 765.5,0 765.5,-30"/>
<text text-anchor="start" x="638.5" y="-18" font-family="Helvetica,sans-Serif" font-size="10.00">get_angle_between_two</text>
<text text-anchor="middle" x="698" y="-7" font-family="Helvetica,sans-Serif" font-size="10.00">_vectors</text>
</a>
</g>
</g>
<!-- Node37&#45;&gt;Node38 -->
<g id="edge38_Node000037_Node000038" class="edge">
<title>Node37&#45;&gt;Node38</title>
<g id="a_edge38_Node000037_Node000038"><a xlink:title=" ">
<path fill="none" stroke="#63b8ff" d="M589.24,-15C599.41,-15 609.93,-15 620.25,-15"/>
<polygon fill="#63b8ff" stroke="#63b8ff" points="620.47,-18.5 630.47,-15 620.47,-11.5 620.47,-18.5"/>
</a>
</g>
</g>
<!-- Node39 -->
<g id="Node000039" class="node">
<title>Node39</title>
<g id="a_Node000039"><a xlink:href="math__util_8c.html#aaa39a297477f56051975259f4bddd829" target="_top" xlink:title=" ">
<polygon fill="white" stroke="#666666" points="911,-24.5 861,-24.5 861,-5.5 911,-5.5 911,-24.5"/>
<text text-anchor="middle" x="886" y="-12.5" font-family="Helvetica,sans-Serif" font-size="10.00">atan2s</text>
</a>
</g>
</g>
<!-- Node38&#45;&gt;Node39 -->
<g id="edge39_Node000038_Node000039" class="edge">
<title>Node38&#45;&gt;Node39</title>
<g id="a_edge39_Node000038_Node000039"><a xlink:title=" ">
<path fill="none" stroke="#63b8ff" d="M765.62,-15C794.37,-15 826.78,-15 850.57,-15"/>
<polygon fill="#63b8ff" stroke="#63b8ff" points="850.85,-18.5 860.85,-15 850.85,-11.5 850.85,-18.5"/>
</a>
</g>
</g>
<!-- Node40 -->
<g id="Node000040" class="node">
<title>Node40</title>
<g id="a_Node000040"><a xlink:href="math__util_8c.html#a0273b0ea0783a06996c28669a7438ed9" target="_top" xlink:title=" ">
<polygon fill="white" stroke="#666666" points="1098,-24.5 1016,-24.5 1016,-5.5 1098,-5.5 1098,-24.5"/>
<text text-anchor="middle" x="1057" y="-12.5" font-family="Helvetica,sans-Serif" font-size="10.00">atan2_lookup</text>
</a>
</g>
</g>
<!-- Node39&#45;&gt;Node40 -->
<g id="edge40_Node000039_Node000040" class="edge">
<title>Node39&#45;&gt;Node40</title>
<g id="a_edge40_Node000039_Node000040"><a xlink:title=" ">
<path fill="none" stroke="#63b8ff" d="M911.21,-15C935.73,-15 974.38,-15 1005.58,-15"/>
<polygon fill="#63b8ff" stroke="#63b8ff" points="1005.84,-18.5 1015.84,-15 1005.84,-11.5 1005.84,-18.5"/>
</a>
</g>
</g>
<!-- Node43&#45;&gt;Node30 -->
<g id="edge44_Node000043_Node000030" class="edge">
<title>Node43&#45;&gt;Node30</title>
<g id="a_edge44_Node000043_Node000030"><a xlink:title=" ">
<path fill="none" stroke="#63b8ff" d="M396.15,-61.53C402.36,-63.83 408.52,-66.62 414,-70 433.53,-82.04 430.26,-95.31 450,-107 454.16,-109.47 458.65,-111.62 463.28,-113.5"/>
<polygon fill="#63b8ff" stroke="#63b8ff" points="462.3,-116.87 472.89,-117 464.69,-110.29 462.3,-116.87"/>
</a>
</g>
</g>
<!-- Node43&#45;&gt;Node37 -->
<g id="edge45_Node000043_Node000037" class="edge">
<title>Node43&#45;&gt;Node37</title>
<g id="a_edge45_Node000043_Node000037"><a xlink:title=" ">
<path fill="none" stroke="#63b8ff" d="M398.59,-42.47C419.42,-37.7 444.84,-31.88 466.9,-26.82"/>
<polygon fill="#63b8ff" stroke="#63b8ff" points="467.8,-30.21 476.77,-24.56 466.24,-23.38 467.8,-30.21"/>
</a>
</g>
</g>
<!-- Node43&#45;&gt;Node41 -->
<g id="edge46_Node000043_Node000041" class="edge">
<title>Node43&#45;&gt;Node41</title>
<g id="a_edge46_Node000043_Node000041"><a xlink:title=" ">
<path fill="none" stroke="#63b8ff" d="M398.59,-61.53C419.42,-66.3 444.84,-72.12 466.9,-77.18"/>
<polygon fill="#63b8ff" stroke="#63b8ff" points="466.24,-80.62 476.77,-79.44 467.8,-73.79 466.24,-80.62"/>
</a>
</g>
</g>
<!-- Node43&#45;&gt;Node42 -->
<g id="edge47_Node000043_Node000042" class="edge">
<title>Node43&#45;&gt;Node42</title>
<g id="a_edge47_Node000043_Node000042"><a xlink:title=" ">
<path fill="none" stroke="#63b8ff" d="M402.42,-52C430.41,-52 465.46,-52 489.68,-52"/>
<polygon fill="#63b8ff" stroke="#63b8ff" points="489.99,-55.5 499.98,-52 489.98,-48.5 489.99,-55.5"/>
</a>
</g>
</g>
<!-- Node45 -->
<g id="Node000045" class="node">
<title>Node45</title>
<g id="a_Node000045"><a xlink:href="math__util_8c.html#a062850863585005ad1d0a75d9ff70693" target="_top" xlink:title=" ">
<polygon fill="white" stroke="#666666" points="394.5,-22.5 317.5,-22.5 317.5,-3.5 394.5,-3.5 394.5,-22.5"/>
<text text-anchor="middle" x="356" y="-10.5" font-family="Helvetica,sans-Serif" font-size="10.00">random_u16</text>
</a>
</g>
</g>
<!-- Node44&#45;&gt;Node45 -->
<g id="edge49_Node000044_Node000045" class="edge">
<title>Node44&#45;&gt;Node45</title>
<g id="a_edge49_Node000044_Node000045"><a xlink:title=" ">
<path fill="none" stroke="#63b8ff" d="M228.15,-13C251.3,-13 281.89,-13 307.23,-13"/>
<polygon fill="#63b8ff" stroke="#63b8ff" points="307.38,-16.5 317.38,-13 307.38,-9.5 307.38,-16.5"/>
</a>
</g>
</g>
<!-- Node46&#45;&gt;Node29 -->
<g id="edge51_Node000046_Node000029" class="edge">
<title>Node46&#45;&gt;Node29</title>
<g id="a_edge51_Node000046_Node000029"><a xlink:title=" ">
<path fill="none" stroke="#63b8ff" d="M258.89,-89C272.02,-89 285.71,-89 298.49,-89"/>
<polygon fill="#63b8ff" stroke="#63b8ff" points="298.52,-92.5 308.52,-89 298.52,-85.5 298.52,-92.5"/>
</a>
</g>
</g>
<!-- Node46&#45;&gt;Node43 -->
<g id="edge52_Node000046_Node000043" class="edge">
<title>Node46&#45;&gt;Node43</title>
<g id="a_edge52_Node000046_Node000043"><a xlink:title=" ">
<path fill="none" stroke="#63b8ff" d="M234.72,-79.47C255.61,-74.7 281.11,-68.88 303.24,-63.82"/>
<polygon fill="#63b8ff" stroke="#63b8ff" points="304.17,-67.2 313.14,-61.56 302.61,-60.37 304.17,-67.2"/>
</a>
</g>
</g>
</g>
</svg>

<g id="navigator" transform="translate(0 0)" fill="#404254">
  <rect fill="#f2f5e9" fill-opacity="0.5" stroke="#606060" stroke-width=".5" x="0" y="0" width="60" height="60"/>
  <use id="zoomplus" xlink:href="#zoomPlus" x="17" y="9" onmousedown="handleZoom(evt,'in')"/>
  <use id="zoomminus" xlink:href="#zoomMin" x="42" y="9" onmousedown="handleZoom(evt,'out')"/>
  <use id="reset" xlink:href="#resetDef" x="30" y="36" onmousedown="handleReset()"/>
   <use id="arrowup" xlink:href="#arrowUp" x="0" y="0" onmousedown="handlePan(0,-1)"/>
  <use id="arrowright" xlink:href="#arrowRight" x="0" y="0" onmousedown="handlePan(1,0)"/>
  <use id="arrowdown" xlink:href="#arrowDown" x="0" y="0" onmousedown="handlePan(0,1)"/>
  <use id="arrowleft" xlink:href="#arrowLeft" x="0" y="0" onmousedown="handlePan(-1,0)"/>
</g>
<svg viewBox="0 0 15 15" width="100%" height="30px" preserveAspectRatio="xMaxYMin meet">
 <g id="arrow_out" transform="scale(0.3 0.3)">
  <a xlink:href="classATruck_ad0c35adc2cbc53ad8ba417172e61093a_cgraph_org.svg" target="_base">
   <rect id="button" ry="5" rx="5" y="6" x="6" height="38" width="38"
        fill="#f2f5e9" fill-opacity="0.5" stroke="#606060" stroke-width="1.0"/>
   <path id="arrow"
     d="M 11.500037,31.436501 C 11.940474,20.09759 22.043105,11.32322 32.158766,21.979434 L 37.068811,17.246167 C 37.068811,17.246167 37.088388,32 37.088388,32 L 22.160133,31.978069 C 22.160133,31.978069 26.997745,27.140456 26.997745,27.140456 C 18.528582,18.264221 13.291696,25.230495 11.500037,31.436501 z"
     style="fill:#404040;"/>
  </a>
 </g>
</svg>

<style type='text/css'>
<![CDATA[
[data-mouse-over-selected='false'] { opacity: 0.7; }
[data-mouse-over-selected='true']  { opacity: 1.0; }
]]>
</style>
<script type="application/ecmascript"><![CDATA[
document.addEventListener('DOMContentLoaded', (event) => {
  highlightEdges();
  highlightAdjacentNodes();
});
]]></script>
</svg>
