<?xml version="1.0" encoding="UTF-8" standalone="no"?>
<!DOCTYPE svg PUBLIC "-//W3C//DTD SVG 1.1//EN"
 "http://www.w3.org/Graphics/SVG/1.1/DTD/svg11.dtd">
<!-- Generated by graphviz version 2.43.0 (0)
 -->
<!-- Title: OBoos Pages: 1 -->
<!--zoomable 632 -->

<svg id="main" version="1.1" xmlns="http://www.w3.org/2000/svg" xmlns:xlink="http://www.w3.org/1999/xlink" xml:space="preserve" onload="init(evt)">

<style type="text/css"><![CDATA[
.node, .edge {opacity: 0.7;}
.node.selected, .edge.selected {opacity: 1;}
.edge:hover path { stroke: red; }
.edge:hover polygon { stroke: red; fill: red; }
]]></style>

<defs>
  <circle id="rim" cx="0" cy="0" r="7"/>
  <circle id="rim2" cx="0" cy="0" r="3.5"/>
  <g id="zoomPlus">
    <use xlink:href="#rim" fill="#404040"><set attributeName="fill" to="#808080" begin="zoomplus.mouseover" end="zoomplus.mouseout"/></use>
    <path d="M-4,0h8M0,-4v8" fill="none" stroke="white" stroke-width="1.5" pointer-events="none"/>
  </g>
  <g id="zoomMin">
    <use xlink:href="#rim" fill="#404040"><set attributeName="fill" to="#808080" begin="zoomminus.mouseover" end="zoomminus.mouseout"/></use>
    <path d="M-4,0h8" fill="none" stroke="white" stroke-width="1.5" pointer-events="none"/>
  </g>
  <g id="arrowUp" transform="translate(30 24)">
    <use xlink:href="#rim"/>
    <path pointer-events="none" fill="none" stroke="white" stroke-width="1.5" d="M0,-3.0v7 M-2.5,-0.5L0,-3.0L2.5,-0.5"/>
  </g>
  <g id="arrowRight" transform="rotate(90) translate(36 -43)">
    <use xlink:href="#rim"/>
    <path pointer-events="none" fill="none" stroke="white" stroke-width="1.5" d="M0,-3.0v7 M-2.5,-0.5L0,-3.0L2.5,-0.5"/>
  </g>
  <g id="arrowDown" transform="rotate(180) translate(-30 -48)">
    <use xlink:href="#rim"/>
    <path pointer-events="none" fill="none" stroke="white" stroke-width="1.5" d="M0,-3.0v7 M-2.5,-0.5L0,-3.0L2.5,-0.5"/>
  </g>
  <g id="arrowLeft" transform="rotate(270) translate(-36 17)">
    <use xlink:href="#rim"/>
    <path pointer-events="none" fill="none" stroke="white" stroke-width="1.5" d="M0,-3.0v7 M-2.5,-0.5L0,-3.0L2.5,-0.5"/>
  </g>
  <g id="resetDef">
    <use xlink:href="#rim2" fill="#404040"><set attributeName="fill" to="#808080" begin="reset.mouseover" end="reset.mouseout"/></use>
  </g>
</defs>
<script type="application/ecmascript">
var viewWidth = 1302;
var viewHeight = 632;
var sectionId = 'dynsection-1';
</script>
<script type="application/ecmascript" xlink:href="svg.min.js"/>
<svg id="graph" class="graph">
<g id="viewport">
<title>OBoos</title>
<!-- Node1 -->
<g id="Node000001" class="node">
<title>Node1</title>
<g id="a_Node000001"><a xlink:title=" ">
<polygon fill="#999999" stroke="#666666" points="1018.14,-19 970.14,-19 970.14,0 1018.14,0 1018.14,-19"/>
<text text-anchor="middle" x="994.14" y="-7" font-family="Helvetica,sans-Serif" font-size="10.00">OBoos</text>
</a>
</g>
</g>
<!-- Node2 -->
<g id="Node000002" class="node">
<title>Node2</title>
<g id="a_Node000002"><a xlink:href="classOObject.html" target="_top" xlink:title=" ">
<polygon fill="white" stroke="#666666" points="683.14,-107 627.14,-107 627.14,-88 683.14,-88 683.14,-107"/>
<text text-anchor="middle" x="655.14" y="-95" font-family="Helvetica,sans-Serif" font-size="10.00">OObject</text>
</a>
</g>
</g>
<!-- Node2&#45;&gt;Node1 -->
<g id="edge1_Node000001_Node000002" class="edge">
<title>Node2&#45;&gt;Node1</title>
<g id="a_edge1_Node000001_Node000002"><a xlink:title=" ">
<path fill="none" stroke="#63b8ff" d="M693.16,-86.65C739.09,-74.77 818.73,-54.24 887.14,-37 915.53,-29.84 948.21,-21.78 969.9,-16.44"/>
<polygon fill="#63b8ff" stroke="#63b8ff" points="692.14,-83.3 683.33,-89.19 693.89,-90.07 692.14,-83.3"/>
</a>
</g>
</g>
<!-- Node3 -->
<g id="Node000003" class="node">
<title>Node3</title>
<g id="a_Node000003"><a xlink:title=" ">
<polygon fill="white" stroke="#666666" points="95.14,-195 45.14,-195 45.14,-176 95.14,-176 95.14,-195"/>
<text text-anchor="middle" x="70.14" y="-183" font-family="Helvetica,sans-Serif" font-size="10.00">uint8_t</text>
</a>
</g>
</g>
<!-- Node3&#45;&gt;Node2 -->
<g id="edge2_Node000002_Node000003" class="edge">
<title>Node3&#45;&gt;Node2</title>
<g id="a_edge2_Node000002_Node000003"><a xlink:title=" ">
<path fill="none" stroke="#9a32cd" stroke-dasharray="5,2" d="M71.75,-165.61C74,-151.96 79.37,-134.35 92.14,-125 113.9,-109.07 515.86,-100.92 626.92,-98.97"/>
<polygon fill="#9a32cd" stroke="#9a32cd" points="68.24,-165.52 70.5,-175.87 75.19,-166.36 68.24,-165.52"/>
</a>
</g>
<text text-anchor="middle" x="104.64" y="-139" font-family="Helvetica,sans-Serif" font-size="10.00" fill="grey"> uuid</text>
</g>
<!-- Node4 -->
<g id="Node000004" class="node">
<title>Node4</title>
<g id="a_Node000004"><a xlink:href="structObject.html" target="_top" xlink:title=" ">
<polygon fill="white" stroke="#666666" points="525.14,-195 477.14,-195 477.14,-176 525.14,-176 525.14,-195"/>
<text text-anchor="middle" x="501.14" y="-183" font-family="Helvetica,sans-Serif" font-size="10.00">Object</text>
</a>
</g>
</g>
<!-- Node4&#45;&gt;Node2 -->
<g id="edge3_Node000002_Node000004" class="edge">
<title>Node4&#45;&gt;Node2</title>
<g id="a_edge3_Node000002_Node000004"><a xlink:title=" ">
<path fill="none" stroke="#9a32cd" stroke-dasharray="5,2" d="M525.22,-171.05C557.28,-153.15 613.05,-122 639.87,-107.03"/>
<polygon fill="#9a32cd" stroke="#9a32cd" points="523.49,-168.01 516.47,-175.94 526.91,-174.12 523.49,-168.01"/>
</a>
</g>
<text text-anchor="middle" x="611.14" y="-139" font-family="Helvetica,sans-Serif" font-size="10.00" fill="grey"> o</text>
</g>
<!-- Node5 -->
<g id="Node000005" class="node">
<title>Node5</title>
<g id="a_Node000005"><a xlink:title=" ">
<polygon fill="white" stroke="#666666" points="773.14,-371 741.14,-371 741.14,-352 773.14,-352 773.14,-371"/>
<text text-anchor="middle" x="757.14" y="-359" font-family="Helvetica,sans-Serif" font-size="10.00">f32</text>
</a>
</g>
</g>
<!-- Node5&#45;&gt;Node4 -->
<g id="edge4_Node000004_Node000005" class="edge">
<title>Node5&#45;&gt;Node4</title>
<g id="a_edge4_Node000004_Node000005"><a xlink:title=" ">
<path fill="none" stroke="#9a32cd" stroke-dasharray="5,2" d="M731.83,-350.5C724.45,-346.42 717.06,-340.99 712.14,-334 680.64,-289.23 728.76,-250.77 689.14,-213 666.06,-191 570.46,-187.12 525.16,-186.53"/>
<polygon fill="#9a32cd" stroke="#9a32cd" points="730.46,-353.72 740.99,-354.95 733.52,-347.43 730.46,-353.72"/>
</a>
</g>
<text text-anchor="middle" x="746.64" y="-309.5" font-family="Helvetica,sans-Serif" font-size="10.00" fill="grey"> offset</text>
<text text-anchor="middle" x="746.64" y="-298.5" font-family="Helvetica,sans-Serif" font-size="10.00" fill="grey">origin_pos</text>
<text text-anchor="middle" x="746.64" y="-287.5" font-family="Helvetica,sans-Serif" font-size="10.00" fill="grey">pos</text>
<text text-anchor="middle" x="746.64" y="-276.5" font-family="Helvetica,sans-Serif" font-size="10.00" fill="grey">sizeScaling</text>
<text text-anchor="middle" x="746.64" y="-265.5" font-family="Helvetica,sans-Serif" font-size="10.00" fill="grey">surfaceHeight</text>
<text text-anchor="middle" x="746.64" y="-254.5" font-family="Helvetica,sans-Serif" font-size="10.00" fill="grey">unk_01C</text>
<text text-anchor="middle" x="746.64" y="-243.5" font-family="Helvetica,sans-Serif" font-size="10.00" fill="grey">unk_034</text>
<text text-anchor="middle" x="746.64" y="-232.5" font-family="Helvetica,sans-Serif" font-size="10.00" fill="grey">velocity</text>
</g>
<!-- Node6 -->
<g id="Node000006" class="node">
<title>Node6</title>
<g id="a_Node000006"><a xlink:title=" ">
<polygon fill="white" stroke="#666666" points="103.14,-371 69.14,-371 69.14,-352 103.14,-352 103.14,-371"/>
<text text-anchor="middle" x="86.14" y="-359" font-family="Helvetica,sans-Serif" font-size="10.00">s32</text>
</a>
</g>
</g>
<!-- Node6&#45;&gt;Node1 -->
<g id="edge26_Node000001_Node000006" class="edge">
<title>Node6&#45;&gt;Node1</title>
<g id="a_edge26_Node000001_Node000006"><a xlink:title=" ">
<path fill="none" stroke="#9a32cd" stroke-dasharray="5,2" d="M72.54,-343.9C39.8,-301.88 -36.57,-190.02 21.14,-125 86.34,-51.54 826.12,-17.42 969.98,-11.46"/>
<polygon fill="#9a32cd" stroke="#9a32cd" points="70,-346.34 78.97,-351.98 75.48,-341.98 70,-346.34"/>
</a>
</g>
<text text-anchor="middle" x="45.64" y="-139" font-family="Helvetica,sans-Serif" font-size="10.00" fill="grey"> _playerId</text>
</g>
<!-- Node6&#45;&gt;Node2 -->
<g id="edge20_Node000002_Node000006" class="edge">
<title>Node6&#45;&gt;Node2</title>
<g id="a_edge20_Node000002_Node000006"><a xlink:title=" ">
<path fill="none" stroke="#9a32cd" stroke-dasharray="5,2" d="M81.65,-341.95C75.36,-311.03 68.02,-248.82 100.14,-213 171.73,-133.16 523.86,-106.27 626.82,-100.04"/>
<polygon fill="#9a32cd" stroke="#9a32cd" points="78.26,-342.82 83.84,-351.82 85.09,-341.3 78.26,-342.82"/>
</a>
</g>
<text text-anchor="middle" x="192.14" y="-183" font-family="Helvetica,sans-Serif" font-size="10.00" fill="grey"> _objectIndex</text>
</g>
<!-- Node6&#45;&gt;Node4 -->
<g id="edge5_Node000004_Node000006" class="edge">
<title>Node6&#45;&gt;Node4</title>
<g id="a_edge5_Node000004_Node000006"><a xlink:title=" ">
<path fill="none" stroke="#9a32cd" stroke-dasharray="5,2" d="M94.24,-342.44C95.31,-339.65 96.32,-336.77 97.14,-334 112.6,-281.57 78.41,-249.45 119.14,-213 145.77,-189.17 397.11,-186.68 476.93,-186.49"/>
<polygon fill="#9a32cd" stroke="#9a32cd" points="90.93,-341.26 90.29,-351.84 97.39,-343.97 90.93,-341.26"/>
</a>
</g>
<text text-anchor="middle" x="140.64" y="-298.5" font-family="Helvetica,sans-Serif" font-size="10.00" fill="grey"> status</text>
<text text-anchor="middle" x="140.64" y="-287.5" font-family="Helvetica,sans-Serif" font-size="10.00" fill="grey">timer</text>
<text text-anchor="middle" x="140.64" y="-276.5" font-family="Helvetica,sans-Serif" font-size="10.00" fill="grey">unk_048</text>
<text text-anchor="middle" x="140.64" y="-265.5" font-family="Helvetica,sans-Serif" font-size="10.00" fill="grey">unk_04C</text>
<text text-anchor="middle" x="140.64" y="-254.5" font-family="Helvetica,sans-Serif" font-size="10.00" fill="grey">unk_058</text>
<text text-anchor="middle" x="140.64" y="-243.5" font-family="Helvetica,sans-Serif" font-size="10.00" fill="grey">unk_05C</text>
</g>
<!-- Node7 -->
<g id="Node000007" class="node">
<title>Node7</title>
<g id="a_Node000007"><a xlink:title=" ">
<polygon fill="white" stroke="#666666" points="866.14,-371 828.14,-371 828.14,-352 866.14,-352 866.14,-371"/>
<text text-anchor="middle" x="847.14" y="-359" font-family="Helvetica,sans-Serif" font-size="10.00">char</text>
</a>
</g>
</g>
<!-- Node7&#45;&gt;Node2 -->
<g id="edge18_Node000002_Node000007" class="edge">
<title>Node7&#45;&gt;Node2</title>
<g id="a_edge18_Node000002_Node000007"><a xlink:title=" ">
<path fill="none" stroke="#9a32cd" stroke-dasharray="5,2" d="M865.01,-344.36C867.51,-341.19 869.72,-337.69 871.14,-334 890.49,-283.82 902.82,-256.46 871.14,-213 855.74,-191.87 838.94,-205.82 815.14,-195 756.67,-168.41 692.94,-125.22 667.05,-107.02"/>
<polygon fill="#9a32cd" stroke="#9a32cd" points="862.25,-342.19 858,-351.89 867.37,-346.96 862.25,-342.19"/>
</a>
</g>
<text text-anchor="middle" x="831.64" y="-183" font-family="Helvetica,sans-Serif" font-size="10.00" fill="grey"> Name</text>
</g>
<!-- Node7&#45;&gt;Node4 -->
<g id="edge6_Node000004_Node000007" class="edge">
<title>Node7&#45;&gt;Node4</title>
<g id="a_edge6_Node000004_Node000007"><a xlink:title=" ">
<path fill="none" stroke="#9a32cd" stroke-dasharray="5,2" d="M818.89,-347.78C813.26,-344.07 807.93,-339.5 804.14,-334 773.09,-288.92 821.61,-249.86 781.14,-213 762.41,-195.95 590.09,-189.13 525.47,-187.16"/>
<polygon fill="#9a32cd" stroke="#9a32cd" points="817.39,-350.95 827.8,-352.91 820.88,-344.89 817.39,-350.95"/>
</a>
</g>
<text text-anchor="middle" x="837.64" y="-282" font-family="Helvetica,sans-Serif" font-size="10.00" fill="grey"> activeTLUT</text>
<text text-anchor="middle" x="837.64" y="-271" font-family="Helvetica,sans-Serif" font-size="10.00" fill="grey">activeTexture</text>
<text text-anchor="middle" x="837.64" y="-260" font-family="Helvetica,sans-Serif" font-size="10.00" fill="grey">textureList</text>
</g>
<!-- Node8 -->
<g id="Node000008" class="node">
<title>Node8</title>
<g id="a_Node000008"><a xlink:title=" ">
<polygon fill="white" stroke="#666666" points="199.64,-371 170.64,-371 170.64,-352 199.64,-352 199.64,-371"/>
<text text-anchor="middle" x="185.14" y="-359" font-family="Helvetica,sans-Serif" font-size="10.00">u8</text>
</a>
</g>
</g>
<!-- Node8&#45;&gt;Node4 -->
<g id="edge7_Node000004_Node000008" class="edge">
<title>Node8&#45;&gt;Node4</title>
<g id="a_edge7_Node000004_Node000008"><a xlink:title=" ">
<path fill="none" stroke="#9a32cd" stroke-dasharray="5,2" d="M178.37,-342.21C168.2,-311.22 153.46,-248.3 186.14,-213 205.78,-191.78 406.57,-187.54 476.94,-186.7"/>
<polygon fill="#9a32cd" stroke="#9a32cd" points="175.09,-343.45 181.69,-351.75 181.71,-341.15 175.09,-343.45"/>
</a>
</g>
<text text-anchor="middle" x="221.64" y="-326" font-family="Helvetica,sans-Serif" font-size="10.00" fill="grey"> textureHeight</text>
<text text-anchor="middle" x="221.64" y="-315" font-family="Helvetica,sans-Serif" font-size="10.00" fill="grey">textureWidth</text>
<text text-anchor="middle" x="221.64" y="-304" font-family="Helvetica,sans-Serif" font-size="10.00" fill="grey">tlutList</text>
<text text-anchor="middle" x="221.64" y="-293" font-family="Helvetica,sans-Serif" font-size="10.00" fill="grey">unk_0D5</text>
<text text-anchor="middle" x="221.64" y="-282" font-family="Helvetica,sans-Serif" font-size="10.00" fill="grey">unk_0D6</text>
<text text-anchor="middle" x="221.64" y="-271" font-family="Helvetica,sans-Serif" font-size="10.00" fill="grey">unk_0D7</text>
<text text-anchor="middle" x="221.64" y="-260" font-family="Helvetica,sans-Serif" font-size="10.00" fill="grey">unk_0D8</text>
<text text-anchor="middle" x="221.64" y="-249" font-family="Helvetica,sans-Serif" font-size="10.00" fill="grey">unk_0DB</text>
<text text-anchor="middle" x="221.64" y="-238" font-family="Helvetica,sans-Serif" font-size="10.00" fill="grey">unk_0DC</text>
<text text-anchor="middle" x="221.64" y="-227" font-family="Helvetica,sans-Serif" font-size="10.00" fill="grey">unk_0DD</text>
<text text-anchor="middle" x="221.64" y="-216" font-family="Helvetica,sans-Serif" font-size="10.00" fill="grey">...</text>
</g>
<!-- Node9 -->
<g id="Node000009" class="node">
<title>Node9</title>
<g id="a_Node000009"><a xlink:title=" ">
<polygon fill="white" stroke="#666666" points="296.14,-371 262.14,-371 262.14,-352 296.14,-352 296.14,-371"/>
<text text-anchor="middle" x="279.14" y="-359" font-family="Helvetica,sans-Serif" font-size="10.00">Gfx</text>
</a>
</g>
</g>
<!-- Node9&#45;&gt;Node4 -->
<g id="edge8_Node000004_Node000009" class="edge">
<title>Node9&#45;&gt;Node4</title>
<g id="a_edge8_Node000004_Node000009"><a xlink:title=" ">
<path fill="none" stroke="#9a32cd" stroke-dasharray="5,2" d="M272.65,-342.31C262.94,-311.47 248.98,-248.78 281.14,-213 294.06,-198.62 422.32,-190.49 476.83,-187.65"/>
<polygon fill="#9a32cd" stroke="#9a32cd" points="269.33,-343.43 275.83,-351.8 275.97,-341.2 269.33,-343.43"/>
</a>
</g>
<text text-anchor="middle" x="298.14" y="-271" font-family="Helvetica,sans-Serif" font-size="10.00" fill="grey"> model</text>
</g>
<!-- Node10 -->
<g id="Node000010" class="node">
<title>Node10</title>
<g id="a_Node000010"><a xlink:title=" ">
<polygon fill="white" stroke="#666666" points="352.64,-371 319.64,-371 319.64,-352 352.64,-352 352.64,-371"/>
<text text-anchor="middle" x="336.14" y="-359" font-family="Helvetica,sans-Serif" font-size="10.00">Vtx</text>
</a>
</g>
</g>
<!-- Node10&#45;&gt;Node4 -->
<g id="edge9_Node000004_Node000010" class="edge">
<title>Node10&#45;&gt;Node4</title>
<g id="a_edge9_Node000004_Node000010"><a xlink:title=" ">
<path fill="none" stroke="#9a32cd" stroke-dasharray="5,2" d="M329.69,-342.05C320.22,-311.28 306.86,-249.27 338.14,-213 355.83,-192.48 436.25,-187.82 477.13,-186.78"/>
<polygon fill="#9a32cd" stroke="#9a32cd" points="326.47,-343.46 332.91,-351.87 333.12,-341.28 326.47,-343.46"/>
</a>
</g>
<text text-anchor="middle" x="355.64" y="-271" font-family="Helvetica,sans-Serif" font-size="10.00" fill="grey"> vertex</text>
</g>
<!-- Node11 -->
<g id="Node000011" class="node">
<title>Node11</title>
<g id="a_Node000011"><a xlink:title=" ">
<polygon fill="white" stroke="#666666" points="408.64,-371 379.64,-371 379.64,-352 408.64,-352 408.64,-371"/>
<text text-anchor="middle" x="394.14" y="-359" font-family="Helvetica,sans-Serif" font-size="10.00">s8</text>
</a>
</g>
</g>
<!-- Node11&#45;&gt;Node4 -->
<g id="edge10_Node000004_Node000011" class="edge">
<title>Node11&#45;&gt;Node4</title>
<g id="a_edge10_Node000004_Node000011"><a xlink:title=" ">
<path fill="none" stroke="#9a32cd" stroke-dasharray="5,2" d="M387.74,-341.91C378.53,-311.43 365.68,-250.47 395.14,-213 405.11,-200.32 448.58,-192.8 476.66,-189.17"/>
<polygon fill="#9a32cd" stroke="#9a32cd" points="384.49,-343.22 390.88,-351.66 391.15,-341.07 384.49,-343.22"/>
</a>
</g>
<text text-anchor="middle" x="435.14" y="-326" font-family="Helvetica,sans-Serif" font-size="10.00" fill="grey"> isTimerActive</text>
<text text-anchor="middle" x="435.14" y="-315" font-family="Helvetica,sans-Serif" font-size="10.00" fill="grey">textureListIndex</text>
<text text-anchor="middle" x="435.14" y="-304" font-family="Helvetica,sans-Serif" font-size="10.00" fill="grey">unk_078</text>
<text text-anchor="middle" x="435.14" y="-293" font-family="Helvetica,sans-Serif" font-size="10.00" fill="grey">unk_0CA</text>
<text text-anchor="middle" x="435.14" y="-282" font-family="Helvetica,sans-Serif" font-size="10.00" fill="grey">unk_0CC</text>
<text text-anchor="middle" x="435.14" y="-271" font-family="Helvetica,sans-Serif" font-size="10.00" fill="grey">unk_0CD</text>
<text text-anchor="middle" x="435.14" y="-260" font-family="Helvetica,sans-Serif" font-size="10.00" fill="grey">unk_0CE</text>
<text text-anchor="middle" x="435.14" y="-249" font-family="Helvetica,sans-Serif" font-size="10.00" fill="grey">unk_0CF</text>
<text text-anchor="middle" x="435.14" y="-238" font-family="Helvetica,sans-Serif" font-size="10.00" fill="grey">unk_0D0</text>
<text text-anchor="middle" x="435.14" y="-227" font-family="Helvetica,sans-Serif" font-size="10.00" fill="grey">unk_0D1</text>
<text text-anchor="middle" x="435.14" y="-216" font-family="Helvetica,sans-Serif" font-size="10.00" fill="grey">...</text>
</g>
<!-- Node12 -->
<g id="Node000012" class="node">
<title>Node12</title>
<g id="a_Node000012"><a xlink:href="structSplineControlPoint.html" target="_top" xlink:title=" ">
<polygon fill="white" stroke="#666666" points="595.64,-547 488.64,-547 488.64,-528 595.64,-528 595.64,-547"/>
<text text-anchor="middle" x="542.14" y="-535" font-family="Helvetica,sans-Serif" font-size="10.00">SplineControlPoint</text>
</a>
</g>
</g>
<!-- Node12&#45;&gt;Node4 -->
<g id="edge11_Node000004_Node000012" class="edge">
<title>Node12&#45;&gt;Node4</title>
<g id="a_edge11_Node000004_Node000012"><a xlink:title=" ">
<path fill="none" stroke="#9a32cd" stroke-dasharray="5,2" d="M539.22,-517.69C538.84,-515.11 538.47,-512.49 538.14,-510 521.57,-385.03 505.79,-232.31 502,-195.01"/>
<polygon fill="#9a32cd" stroke="#9a32cd" points="535.77,-518.31 540.73,-527.68 542.69,-517.27 535.77,-518.31"/>
</a>
</g>
<text text-anchor="middle" x="554.64" y="-359" font-family="Helvetica,sans-Serif" font-size="10.00" fill="grey"> controlPoints</text>
</g>
<!-- Node14 -->
<g id="Node000014" class="node">
<title>Node14</title>
<g id="a_Node000014"><a xlink:href="structSplineData.html" target="_top" xlink:title=" ">
<polygon fill="white" stroke="#666666" points="669.14,-371 599.14,-371 599.14,-352 669.14,-352 669.14,-371"/>
<text text-anchor="middle" x="634.14" y="-359" font-family="Helvetica,sans-Serif" font-size="10.00">SplineData</text>
</a>
</g>
</g>
<!-- Node12&#45;&gt;Node14 -->
<g id="edge15_Node000014_Node000012" class="edge">
<title>Node12&#45;&gt;Node14</title>
<g id="a_edge15_Node000014_Node000012"><a xlink:title=" ">
<path fill="none" stroke="#9a32cd" stroke-dasharray="5,2" d="M541.61,-517.23C541.03,-481.85 541.77,-408.39 557.14,-389 562.67,-382.02 581.41,-375.49 599.02,-370.66"/>
<polygon fill="#9a32cd" stroke="#9a32cd" points="538.12,-517.71 541.84,-527.63 545.12,-517.56 538.12,-517.71"/>
</a>
</g>
<text text-anchor="middle" x="590.64" y="-447" font-family="Helvetica,sans-Serif" font-size="10.00" fill="grey"> controlPoints</text>
</g>
<!-- Node13 -->
<g id="Node000013" class="node">
<title>Node13</title>
<g id="a_Node000013"><a xlink:title=" ">
<polygon fill="white" stroke="#666666" points="559.14,-624 525.14,-624 525.14,-605 559.14,-605 559.14,-624"/>
<text text-anchor="middle" x="542.14" y="-612" font-family="Helvetica,sans-Serif" font-size="10.00">s16</text>
</a>
</g>
</g>
<!-- Node13&#45;&gt;Node4 -->
<g id="edge16_Node000004_Node000013" class="edge">
<title>Node13&#45;&gt;Node4</title>
<g id="a_edge16_Node000004_Node000013"><a xlink:title=" ">
<path fill="none" stroke="#9a32cd" stroke-dasharray="5,2" d="M523.79,-598.05C509.89,-585.52 491.19,-566.74 479.14,-547 470.06,-532.12 469.07,-527.18 466.14,-510 457.1,-456.99 461.54,-442.58 466.14,-389 466.99,-379.09 492.92,-232.79 499.59,-195.23"/>
<polygon fill="#9a32cd" stroke="#9a32cd" points="521.5,-600.71 531.33,-604.67 526.12,-595.45 521.5,-600.71"/>
</a>
</g>
<text text-anchor="middle" x="493.14" y="-502" font-family="Helvetica,sans-Serif" font-size="10.00" fill="grey"> primAlpha</text>
<text text-anchor="middle" x="493.14" y="-491" font-family="Helvetica,sans-Serif" font-size="10.00" fill="grey">state</text>
<text text-anchor="middle" x="493.14" y="-480" font-family="Helvetica,sans-Serif" font-size="10.00" fill="grey">type</text>
<text text-anchor="middle" x="493.14" y="-469" font-family="Helvetica,sans-Serif" font-size="10.00" fill="grey">unk_084</text>
<text text-anchor="middle" x="493.14" y="-458" font-family="Helvetica,sans-Serif" font-size="10.00" fill="grey">unk_09C</text>
<text text-anchor="middle" x="493.14" y="-447" font-family="Helvetica,sans-Serif" font-size="10.00" fill="grey">unk_09E</text>
<text text-anchor="middle" x="493.14" y="-436" font-family="Helvetica,sans-Serif" font-size="10.00" fill="grey">unk_0A2</text>
<text text-anchor="middle" x="493.14" y="-425" font-family="Helvetica,sans-Serif" font-size="10.00" fill="grey">unk_0A8</text>
<text text-anchor="middle" x="493.14" y="-414" font-family="Helvetica,sans-Serif" font-size="10.00" fill="grey">unk_0AA</text>
<text text-anchor="middle" x="493.14" y="-403" font-family="Helvetica,sans-Serif" font-size="10.00" fill="grey">unk_0AC</text>
<text text-anchor="middle" x="493.14" y="-392" font-family="Helvetica,sans-Serif" font-size="10.00" fill="grey">...</text>
</g>
<!-- Node13&#45;&gt;Node12 -->
<g id="edge12_Node000012_Node000013" class="edge">
<title>Node13&#45;&gt;Node12</title>
<g id="a_edge12_Node000012_Node000013"><a xlink:title=" ">
<path fill="none" stroke="#9a32cd" stroke-dasharray="5,2" d="M542.14,-594.52C542.14,-579.24 542.14,-558.48 542.14,-547"/>
<polygon fill="#9a32cd" stroke="#9a32cd" points="538.64,-594.9 542.14,-604.9 545.64,-594.9 538.64,-594.9"/>
</a>
</g>
<text text-anchor="middle" x="562.14" y="-579" font-family="Helvetica,sans-Serif" font-size="10.00" fill="grey"> pos</text>
<text text-anchor="middle" x="562.14" y="-568" font-family="Helvetica,sans-Serif" font-size="10.00" fill="grey">velocity</text>
</g>
<!-- Node13&#45;&gt;Node14 -->
<g id="edge14_Node000014_Node000013" class="edge">
<title>Node13&#45;&gt;Node14</title>
<g id="a_edge14_Node000014_Node000013"><a xlink:title=" ">
<path fill="none" stroke="#9a32cd" stroke-dasharray="5,2" d="M568.33,-601.06C574.7,-597.18 581.11,-592.47 586.14,-587 611.97,-558.91 614.22,-546.85 624.14,-510 637.96,-458.7 635.97,-393.92 634.7,-371"/>
<polygon fill="#9a32cd" stroke="#9a32cd" points="566.25,-598.21 559.2,-606.12 569.64,-604.33 566.25,-598.21"/>
</a>
</g>
<text text-anchor="middle" x="664.64" y="-535" font-family="Helvetica,sans-Serif" font-size="10.00" fill="grey"> numControlPoints</text>
</g>
<!-- Node14&#45;&gt;Node4 -->
<g id="edge13_Node000004_Node000014" class="edge">
<title>Node14&#45;&gt;Node4</title>
<g id="a_edge13_Node000004_Node000014"><a xlink:title=" ">
<path fill="none" stroke="#9a32cd" stroke-dasharray="5,2" d="M589.16,-351.1C571.49,-346.52 554.03,-340.58 548.14,-334 511.64,-293.2 549.54,-262 525.14,-213 521.82,-206.33 516.34,-200.09 511.45,-195.34"/>
<polygon fill="#9a32cd" stroke="#9a32cd" points="588.37,-354.51 598.92,-353.5 590.04,-347.71 588.37,-354.51"/>
</a>
</g>
<text text-anchor="middle" x="564.64" y="-271" font-family="Helvetica,sans-Serif" font-size="10.00" fill="grey"> spline</text>
</g>
<!-- Node15 -->
<g id="Node000015" class="node">
<title>Node15</title>
<g id="a_Node000015"><a xlink:title=" ">
<polygon fill="white" stroke="#666666" points="722.64,-371 687.64,-371 687.64,-352 722.64,-352 722.64,-371"/>
<text text-anchor="middle" x="705.14" y="-359" font-family="Helvetica,sans-Serif" font-size="10.00">u16</text>
</a>
</g>
</g>
<!-- Node15&#45;&gt;Node4 -->
<g id="edge17_Node000004_Node000015" class="edge">
<title>Node15&#45;&gt;Node4</title>
<g id="a_edge17_Node000004_Node000015"><a xlink:title=" ">
<path fill="none" stroke="#9a32cd" stroke-dasharray="5,2" d="M677.62,-352.36C642.53,-345.21 625.55,-356.52 604.14,-334 566.43,-294.32 617.21,-254.18 581.14,-213 567.16,-197.04 543.35,-190.66 525.33,-188.13"/>
<polygon fill="#9a32cd" stroke="#9a32cd" points="676.93,-355.79 687.47,-354.75 678.58,-348.99 676.93,-355.79"/>
</a>
</g>
<text text-anchor="middle" x="646.64" y="-309.5" font-family="Helvetica,sans-Serif" font-size="10.00" fill="grey"> animationTimer</text>
<text text-anchor="middle" x="646.64" y="-298.5" font-family="Helvetica,sans-Serif" font-size="10.00" fill="grey">boundingBoxSize</text>
<text text-anchor="middle" x="646.64" y="-287.5" font-family="Helvetica,sans-Serif" font-size="10.00" fill="grey">direction_angle</text>
<text text-anchor="middle" x="646.64" y="-276.5" font-family="Helvetica,sans-Serif" font-size="10.00" fill="grey">orientation</text>
<text text-anchor="middle" x="646.64" y="-265.5" font-family="Helvetica,sans-Serif" font-size="10.00" fill="grey">unk_09A</text>
<text text-anchor="middle" x="646.64" y="-254.5" font-family="Helvetica,sans-Serif" font-size="10.00" fill="grey">unk_0B8</text>
<text text-anchor="middle" x="646.64" y="-243.5" font-family="Helvetica,sans-Serif" font-size="10.00" fill="grey">unk_0C4</text>
<text text-anchor="middle" x="646.64" y="-232.5" font-family="Helvetica,sans-Serif" font-size="10.00" fill="grey">unk_0C6</text>
</g>
<!-- Node16 -->
<g id="Node000016" class="node">
<title>Node16</title>
<g id="a_Node000016"><a xlink:title=" ">
<polygon fill="white" stroke="#666666" points="895.14,-195 857.14,-195 857.14,-176 895.14,-176 895.14,-195"/>
<text text-anchor="middle" x="876.14" y="-183" font-family="Helvetica,sans-Serif" font-size="10.00">bool</text>
</a>
</g>
</g>
<!-- Node16&#45;&gt;Node1 -->
<g id="edge25_Node000001_Node000016" class="edge">
<title>Node16&#45;&gt;Node1</title>
<g id="a_edge25_Node000001_Node000016"><a xlink:title=" ">
<path fill="none" stroke="#9a32cd" stroke-dasharray="5,2" d="M883.9,-166.33C885.02,-163.55 886.14,-160.71 887.14,-158 898.54,-127.3 892.43,-115.54 910.14,-88 929.35,-58.13 962.77,-32.14 981.13,-19.21"/>
<polygon fill="#9a32cd" stroke="#9a32cd" points="880.59,-165.16 879.98,-175.73 887.05,-167.85 880.59,-165.16"/>
</a>
</g>
<text text-anchor="middle" x="934.14" y="-95" font-family="Helvetica,sans-Serif" font-size="10.00" fill="grey"> _isActive</text>
</g>
<!-- Node16&#45;&gt;Node2 -->
<g id="edge19_Node000002_Node000016" class="edge">
<title>Node16&#45;&gt;Node2</title>
<g id="a_edge19_Node000002_Node000016"><a xlink:title=" ">
<path fill="none" stroke="#9a32cd" stroke-dasharray="5,2" d="M847.19,-178.93C832.06,-174.96 813.89,-168.43 800.14,-158 785.9,-147.2 792.02,-134.92 777.14,-125 748.92,-106.18 709.61,-100.47 683.31,-98.87"/>
<polygon fill="#9a32cd" stroke="#9a32cd" points="846.54,-182.38 857.08,-181.29 848.16,-175.57 846.54,-182.38"/>
</a>
</g>
<text text-anchor="middle" x="843.64" y="-139" font-family="Helvetica,sans-Serif" font-size="10.00" fill="grey"> bPendingDestroy</text>
</g>
<!-- Node17 -->
<g id="Node000017" class="node">
<title>Node17</title>
<g id="a_Node000017"><a xlink:href="structFVector.html" target="_top" xlink:title=" ">
<polygon fill="white" stroke="#666666" points="1020.64,-107 967.64,-107 967.64,-88 1020.64,-88 1020.64,-107"/>
<text text-anchor="middle" x="994.14" y="-95" font-family="Helvetica,sans-Serif" font-size="10.00">FVector</text>
</a>
</g>
</g>
<!-- Node17&#45;&gt;Node1 -->
<g id="edge21_Node000001_Node000017" class="edge">
<title>Node17&#45;&gt;Node1</title>
<g id="a_edge21_Node000001_Node000017"><a xlink:title=" ">
<path fill="none" stroke="#9a32cd" stroke-dasharray="5,2" d="M994.14,-77.91C994.14,-59.67 994.14,-32.65 994.14,-19.03"/>
<polygon fill="#9a32cd" stroke="#9a32cd" points="990.64,-77.94 994.14,-87.94 997.64,-77.94 990.64,-77.94"/>
</a>
</g>
<text text-anchor="middle" x="1007.14" y="-51" font-family="Helvetica,sans-Serif" font-size="10.00" fill="grey"> _pos</text>
</g>
<!-- Node18 -->
<g id="Node000018" class="node">
<title>Node18</title>
<g id="a_Node000018"><a xlink:title=" ">
<polygon fill="white" stroke="#666666" points="1013.14,-195 975.14,-195 975.14,-176 1013.14,-176 1013.14,-195"/>
<text text-anchor="middle" x="994.14" y="-183" font-family="Helvetica,sans-Serif" font-size="10.00">float</text>
</a>
</g>
</g>
<!-- Node18&#45;&gt;Node17 -->
<g id="edge22_Node000017_Node000018" class="edge">
<title>Node18&#45;&gt;Node17</title>
<g id="a_edge22_Node000017_Node000018"><a xlink:title=" ">
<path fill="none" stroke="#9a32cd" stroke-dasharray="5,2" d="M994.14,-165.91C994.14,-147.67 994.14,-120.65 994.14,-107.03"/>
<polygon fill="#9a32cd" stroke="#9a32cd" points="990.64,-165.94 994.14,-175.94 997.64,-165.94 990.64,-165.94"/>
</a>
</g>
<text text-anchor="middle" x="999.14" y="-150" font-family="Helvetica,sans-Serif" font-size="10.00" fill="grey"> x</text>
<text text-anchor="middle" x="999.14" y="-139" font-family="Helvetica,sans-Serif" font-size="10.00" fill="grey">y</text>
<text text-anchor="middle" x="999.14" y="-128" font-family="Helvetica,sans-Serif" font-size="10.00" fill="grey">z</text>
</g>
<!-- Node19 -->
<g id="Node000019" class="node">
<title>Node19</title>
<g id="a_Node000019"><a xlink:title=" ">
<polygon fill="white" stroke="#666666" points="1083.64,-107 1038.64,-107 1038.64,-88 1083.64,-88 1083.64,-107"/>
<text text-anchor="middle" x="1061.14" y="-95" font-family="Helvetica,sans-Serif" font-size="10.00">size_t</text>
</a>
</g>
</g>
<!-- Node19&#45;&gt;Node1 -->
<g id="edge23_Node000001_Node000019" class="edge">
<title>Node19&#45;&gt;Node1</title>
<g id="a_edge23_Node000001_Node000019"><a xlink:title=" ">
<path fill="none" stroke="#9a32cd" stroke-dasharray="5,2" d="M1052.07,-79.05C1045.23,-66.69 1035.17,-50.05 1024.14,-37 1018.58,-30.42 1011.37,-24 1005.41,-19.12"/>
<polygon fill="#9a32cd" stroke="#9a32cd" points="1049.01,-80.74 1056.82,-87.9 1055.18,-77.43 1049.01,-80.74"/>
</a>
</g>
<text text-anchor="middle" x="1073.14" y="-62" font-family="Helvetica,sans-Serif" font-size="10.00" fill="grey"> _count</text>
<text text-anchor="middle" x="1073.14" y="-51" font-family="Helvetica,sans-Serif" font-size="10.00" fill="grey">_idx</text>
<text text-anchor="middle" x="1073.14" y="-40" font-family="Helvetica,sans-Serif" font-size="10.00" fill="grey">_numBoos</text>
</g>
<!-- Node20 -->
<g id="Node000020" class="node">
<title>Node20</title>
<g id="a_Node000020"><a xlink:title=" ">
<polygon fill="white" stroke="#666666" points="1188.64,-107 1101.64,-107 1101.64,-88 1188.64,-88 1188.64,-107"/>
<text text-anchor="middle" x="1145.14" y="-95" font-family="Helvetica,sans-Serif" font-size="10.00">vector&lt; s32 &gt;</text>
</a>
</g>
</g>
<!-- Node20&#45;&gt;Node1 -->
<g id="edge24_Node000001_Node000020" class="edge">
<title>Node20&#45;&gt;Node1</title>
<g id="a_edge24_Node000001_Node000020"><a xlink:title=" ">
<path fill="none" stroke="#9a32cd" stroke-dasharray="5,2" d="M1136.85,-78.47C1129.77,-65.04 1118.3,-47.31 1103.14,-37 1077.54,-19.58 1041.69,-13.58 1018.2,-11.53"/>
<polygon fill="#9a32cd" stroke="#9a32cd" points="1133.85,-80.28 1141.41,-87.7 1140.13,-77.19 1133.85,-80.28"/>
</a>
</g>
<text text-anchor="middle" x="1153.64" y="-51" font-family="Helvetica,sans-Serif" font-size="10.00" fill="grey"> _indices</text>
</g>
<!-- Node21 -->
<g id="Node000021" class="node">
<title>Node21</title>
<g id="a_Node000021"><a xlink:href="structIPathSpan.html" target="_top" xlink:title=" ">
<polygon fill="white" stroke="#666666" points="1271.64,-107 1206.64,-107 1206.64,-88 1271.64,-88 1271.64,-107"/>
<text text-anchor="middle" x="1239.14" y="-95" font-family="Helvetica,sans-Serif" font-size="10.00">IPathSpan</text>
</a>
</g>
</g>
<!-- Node21&#45;&gt;Node1 -->
<g id="edge27_Node000001_Node000021" class="edge">
<title>Node21&#45;&gt;Node1</title>
<g id="a_edge27_Node000001_Node000021"><a xlink:title=" ">
<path fill="none" stroke="#9a32cd" stroke-dasharray="5,2" d="M1227.13,-79.65C1216.27,-65.78 1198.96,-46.86 1179.14,-37 1151.33,-23.16 1061.6,-15.2 1018.16,-12.06"/>
<polygon fill="#9a32cd" stroke="#9a32cd" points="1224.51,-81.98 1233.31,-87.88 1230.11,-77.78 1224.51,-81.98"/>
</a>
</g>
<text text-anchor="middle" x="1256.64" y="-62" font-family="Helvetica,sans-Serif" font-size="10.00" fill="grey"> _active</text>
<text text-anchor="middle" x="1256.64" y="-51" font-family="Helvetica,sans-Serif" font-size="10.00" fill="grey">_leftBoundary</text>
<text text-anchor="middle" x="1256.64" y="-40" font-family="Helvetica,sans-Serif" font-size="10.00" fill="grey">_rightBoundary</text>
</g>
<!-- Node22 -->
<g id="Node000022" class="node">
<title>Node22</title>
<g id="a_Node000022"><a xlink:title=" ">
<polygon fill="white" stroke="#666666" points="1253.64,-195 1224.64,-195 1224.64,-176 1253.64,-176 1253.64,-195"/>
<text text-anchor="middle" x="1239.14" y="-183" font-family="Helvetica,sans-Serif" font-size="10.00">int</text>
</a>
</g>
</g>
<!-- Node22&#45;&gt;Node21 -->
<g id="edge28_Node000021_Node000022" class="edge">
<title>Node22&#45;&gt;Node21</title>
<g id="a_edge28_Node000021_Node000022"><a xlink:title=" ">
<path fill="none" stroke="#9a32cd" stroke-dasharray="5,2" d="M1239.14,-165.91C1239.14,-147.67 1239.14,-120.65 1239.14,-107.03"/>
<polygon fill="#9a32cd" stroke="#9a32cd" points="1235.64,-165.94 1239.14,-175.94 1242.64,-165.94 1235.64,-165.94"/>
</a>
</g>
<text text-anchor="middle" x="1251.14" y="-144.5" font-family="Helvetica,sans-Serif" font-size="10.00" fill="grey"> End</text>
<text text-anchor="middle" x="1251.14" y="-133.5" font-family="Helvetica,sans-Serif" font-size="10.00" fill="grey">Start</text>
</g>
</g>
</svg>

<g id="navigator" transform="translate(0 0)" fill="#404254">
  <rect fill="#f2f5e9" fill-opacity="0.5" stroke="#606060" stroke-width=".5" x="0" y="0" width="60" height="60"/>
  <use id="zoomplus" xlink:href="#zoomPlus" x="17" y="9" onmousedown="handleZoom(evt,'in')"/>
  <use id="zoomminus" xlink:href="#zoomMin" x="42" y="9" onmousedown="handleZoom(evt,'out')"/>
  <use id="reset" xlink:href="#resetDef" x="30" y="36" onmousedown="handleReset()"/>
   <use id="arrowup" xlink:href="#arrowUp" x="0" y="0" onmousedown="handlePan(0,-1)"/>
  <use id="arrowright" xlink:href="#arrowRight" x="0" y="0" onmousedown="handlePan(1,0)"/>
  <use id="arrowdown" xlink:href="#arrowDown" x="0" y="0" onmousedown="handlePan(0,1)"/>
  <use id="arrowleft" xlink:href="#arrowLeft" x="0" y="0" onmousedown="handlePan(-1,0)"/>
</g>
<svg viewBox="0 0 15 15" width="100%" height="30px" preserveAspectRatio="xMaxYMin meet">
 <g id="arrow_out" transform="scale(0.3 0.3)">
  <a xlink:href="classOBoos__coll__graph_org.svg" target="_base">
   <rect id="button" ry="5" rx="5" y="6" x="6" height="38" width="38"
        fill="#f2f5e9" fill-opacity="0.5" stroke="#606060" stroke-width="1.0"/>
   <path id="arrow"
     d="M 11.500037,31.436501 C 11.940474,20.09759 22.043105,11.32322 32.158766,21.979434 L 37.068811,17.246167 C 37.068811,17.246167 37.088388,32 37.088388,32 L 22.160133,31.978069 C 22.160133,31.978069 26.997745,27.140456 26.997745,27.140456 C 18.528582,18.264221 13.291696,25.230495 11.500037,31.436501 z"
     style="fill:#404040;"/>
  </a>
 </g>
</svg>

<style type='text/css'>
<![CDATA[
[data-mouse-over-selected='false'] { opacity: 0.7; }
[data-mouse-over-selected='true']  { opacity: 1.0; }
]]>
</style>
<script type="application/ecmascript"><![CDATA[
document.addEventListener('DOMContentLoaded', (event) => {
  highlightEdges();
  highlightAdjacentNodes();
});
]]></script>
</svg>
