<?xml version="1.0" encoding="UTF-8" standalone="no"?>
<!DOCTYPE svg PUBLIC "-//W3C//DTD SVG 1.1//EN"
 "http://www.w3.org/Graphics/SVG/1.1/DTD/svg11.dtd">
<!-- Generated by graphviz version 2.43.0 (0)
 -->
<!-- Title: OLakitu::func_800729EC Pages: 1 -->
<!--zoomable 267 -->

<svg id="main" version="1.1" xmlns="http://www.w3.org/2000/svg" xmlns:xlink="http://www.w3.org/1999/xlink" xml:space="preserve" onload="init(evt)">

<style type="text/css"><![CDATA[
.node, .edge {opacity: 0.7;}
.node.selected, .edge.selected {opacity: 1;}
.edge:hover path { stroke: red; }
.edge:hover polygon { stroke: red; fill: red; }
]]></style>

<defs>
  <circle id="rim" cx="0" cy="0" r="7"/>
  <circle id="rim2" cx="0" cy="0" r="3.5"/>
  <g id="zoomPlus">
    <use xlink:href="#rim" fill="#404040"><set attributeName="fill" to="#808080" begin="zoomplus.mouseover" end="zoomplus.mouseout"/></use>
    <path d="M-4,0h8M0,-4v8" fill="none" stroke="white" stroke-width="1.5" pointer-events="none"/>
  </g>
  <g id="zoomMin">
    <use xlink:href="#rim" fill="#404040"><set attributeName="fill" to="#808080" begin="zoomminus.mouseover" end="zoomminus.mouseout"/></use>
    <path d="M-4,0h8" fill="none" stroke="white" stroke-width="1.5" pointer-events="none"/>
  </g>
  <g id="arrowUp" transform="translate(30 24)">
    <use xlink:href="#rim"/>
    <path pointer-events="none" fill="none" stroke="white" stroke-width="1.5" d="M0,-3.0v7 M-2.5,-0.5L0,-3.0L2.5,-0.5"/>
  </g>
  <g id="arrowRight" transform="rotate(90) translate(36 -43)">
    <use xlink:href="#rim"/>
    <path pointer-events="none" fill="none" stroke="white" stroke-width="1.5" d="M0,-3.0v7 M-2.5,-0.5L0,-3.0L2.5,-0.5"/>
  </g>
  <g id="arrowDown" transform="rotate(180) translate(-30 -48)">
    <use xlink:href="#rim"/>
    <path pointer-events="none" fill="none" stroke="white" stroke-width="1.5" d="M0,-3.0v7 M-2.5,-0.5L0,-3.0L2.5,-0.5"/>
  </g>
  <g id="arrowLeft" transform="rotate(270) translate(-36 17)">
    <use xlink:href="#rim"/>
    <path pointer-events="none" fill="none" stroke="white" stroke-width="1.5" d="M0,-3.0v7 M-2.5,-0.5L0,-3.0L2.5,-0.5"/>
  </g>
  <g id="resetDef">
    <use xlink:href="#rim2" fill="#404040"><set attributeName="fill" to="#808080" begin="reset.mouseover" end="reset.mouseout"/></use>
  </g>
</defs>
<script type="application/ecmascript">
var viewWidth = 1044;
var viewHeight = 267;
var sectionId = 'dynsection-5';
</script>
<script type="application/ecmascript" xlink:href="svg.min.js"/>
<svg id="graph" class="graph">
<g id="viewport">
<title>OLakitu::func_800729EC</title>
<!-- Node1 -->
<g id="Node000001" class="node">
<title>Node1</title>
<g id="a_Node000001"><a xlink:title=" ">
<polygon fill="#999999" stroke="#666666" points="135,-203 0,-203 0,-184 135,-184 135,-203"/>
<text text-anchor="middle" x="67.5" y="-191" font-family="Helvetica,sans-Serif" font-size="10.00">OLakitu::func_800729EC</text>
</a>
</g>
</g>
<!-- Node2 -->
<g id="Node000002" class="node">
<title>Node2</title>
<g id="a_Node000002"><a xlink:href="code__80057C60_8c.html#a11d4b7686d42d84fd6b6f302e60cf8a3" target="_top" xlink:title=" ">
<polygon fill="white" stroke="#666666" points="269,-259 177,-259 177,-240 269,-240 269,-259"/>
<text text-anchor="middle" x="223" y="-247" font-family="Helvetica,sans-Serif" font-size="10.00">func_8005AB20</text>
</a>
</g>
</g>
<!-- Node1&#45;&gt;Node2 -->
<g id="edge1_Node000001_Node000002" class="edge">
<title>Node1&#45;&gt;Node2</title>
<g id="a_edge1_Node000001_Node000002"><a xlink:title=" ">
<path fill="none" stroke="#63b8ff" d="M94.15,-203.14C114.86,-210.89 144.77,-222.01 171,-231.5 175.56,-233.15 180.36,-234.87 185.11,-236.56"/>
<polygon fill="#63b8ff" stroke="#63b8ff" points="184.12,-239.92 194.71,-239.96 186.45,-233.32 184.12,-239.92"/>
</a>
</g>
</g>
<!-- Node4 -->
<g id="Node000004" class="node">
<title>Node4</title>
<g id="a_Node000004"><a xlink:href="Game_8cpp.html#ab05bb065469940f40a5023c58a8f9e7f" target="_top" xlink:title=" ">
<polygon fill="white" stroke="#666666" points="263,-222 183,-222 183,-203 263,-203 263,-222"/>
<text text-anchor="middle" x="223" y="-210" font-family="Helvetica,sans-Serif" font-size="10.00">IsYoshiValley</text>
</a>
</g>
</g>
<!-- Node1&#45;&gt;Node4 -->
<g id="edge3_Node000001_Node000004" class="edge">
<title>Node1&#45;&gt;Node4</title>
<g id="a_edge3_Node000001_Node000004"><a xlink:title=" ">
<path fill="none" stroke="#63b8ff" d="M135.38,-201.78C147.88,-203.33 160.73,-204.92 172.58,-206.38"/>
<polygon fill="#63b8ff" stroke="#63b8ff" points="172.35,-209.88 182.71,-207.64 173.21,-202.93 172.35,-209.88"/>
</a>
</g>
</g>
<!-- Node5 -->
<g id="Node000005" class="node">
<title>Node5</title>
<g id="a_Node000005"><a xlink:href="update__objects_8c.html#a8bfc5f5c7034d61b534e14f325b6e399" target="_top" xlink:title=" ">
<polygon fill="white" stroke="#666666" points="275,-185 171,-185 171,-166 275,-166 275,-185"/>
<text text-anchor="middle" x="223" y="-173" font-family="Helvetica,sans-Serif" font-size="10.00">object_next_state</text>
</a>
</g>
</g>
<!-- Node1&#45;&gt;Node5 -->
<g id="edge4_Node000001_Node000005" class="edge">
<title>Node1&#45;&gt;Node5</title>
<g id="a_edge4_Node000001_Node000005"><a xlink:title=" ">
<path fill="none" stroke="#63b8ff" d="M135.38,-185.66C143.77,-184.67 152.31,-183.67 160.61,-182.7"/>
<polygon fill="#63b8ff" stroke="#63b8ff" points="161.05,-186.17 170.58,-181.53 160.24,-179.22 161.05,-186.17"/>
</a>
</g>
</g>
<!-- Node8 -->
<g id="Node000008" class="node">
<title>Node8</title>
<g id="a_Node000008"><a xlink:href="race__logic_8c.html#a1b2815c62b11e33e3c74d7fd65af5edc" target="_top" xlink:title=" ">
<polygon fill="white" stroke="#666666" points="255.5,-148 190.5,-148 190.5,-129 255.5,-129 255.5,-148"/>
<text text-anchor="middle" x="223" y="-136" font-family="Helvetica,sans-Serif" font-size="10.00">start_race</text>
</a>
</g>
</g>
<!-- Node1&#45;&gt;Node8 -->
<g id="edge7_Node000001_Node000008" class="edge">
<title>Node1&#45;&gt;Node8</title>
<g id="a_edge7_Node000001_Node000008"><a xlink:title=" ">
<path fill="none" stroke="#63b8ff" d="M95.03,-183.87C115.71,-176.37 145.16,-165.72 171,-156.5 175.57,-154.87 180.37,-153.16 185.12,-151.48"/>
<polygon fill="#63b8ff" stroke="#63b8ff" points="186.46,-154.72 194.73,-148.09 184.13,-148.12 186.46,-154.72"/>
</a>
</g>
</g>
<!-- Node3 -->
<g id="Node000003" class="node">
<title>Node3</title>
<g id="a_Node000003"><a xlink:href="code__80057C60_8c.html#ac0da3ee21ce0af10594fcf31552570c6" target="_top" xlink:title=" ">
<polygon fill="white" stroke="#666666" points="421.5,-259 328.5,-259 328.5,-240 421.5,-240 421.5,-259"/>
<text text-anchor="middle" x="375" y="-247" font-family="Helvetica,sans-Serif" font-size="10.00">func_8005AA6C</text>
</a>
</g>
</g>
<!-- Node2&#45;&gt;Node3 -->
<g id="edge2_Node000002_Node000003" class="edge">
<title>Node2&#45;&gt;Node3</title>
<g id="a_edge2_Node000002_Node000003"><a xlink:title=" ">
<path fill="none" stroke="#63b8ff" d="M269,-249.5C284.37,-249.5 301.74,-249.5 317.86,-249.5"/>
<polygon fill="#63b8ff" stroke="#63b8ff" points="318.25,-253 328.25,-249.5 318.25,-246 318.25,-253"/>
</a>
</g>
</g>
<!-- Node6 -->
<g id="Node000006" class="node">
<title>Node6</title>
<g id="a_Node000006"><a xlink:href="update__objects_8c.html#a3953241e15c6372ac8944ba842148a9a" target="_top" xlink:title=" ">
<polygon fill="white" stroke="#666666" points="424.5,-222 325.5,-222 325.5,-203 424.5,-203 424.5,-222"/>
<text text-anchor="middle" x="375" y="-210" font-family="Helvetica,sans-Serif" font-size="10.00">clear_object_flag</text>
</a>
</g>
</g>
<!-- Node5&#45;&gt;Node6 -->
<g id="edge5_Node000005_Node000006" class="edge">
<title>Node5&#45;&gt;Node6</title>
<g id="a_edge5_Node000005_Node000006"><a xlink:title=" ">
<path fill="none" stroke="#63b8ff" d="M262.63,-185.03C281.8,-189.76 305.16,-195.52 325.52,-200.54"/>
<polygon fill="#63b8ff" stroke="#63b8ff" points="324.69,-203.94 335.24,-202.94 326.37,-197.15 324.69,-203.94"/>
</a>
</g>
</g>
<!-- Node7 -->
<g id="Node000007" class="node">
<title>Node7</title>
<g id="a_Node000007"><a xlink:href="update__objects_8c.html#af20e3f3c403dd4fbea56e358997e515a" target="_top" xlink:title=" ">
<polygon fill="white" stroke="#666666" points="439,-185 311,-185 311,-166 439,-166 439,-185"/>
<text text-anchor="middle" x="375" y="-173" font-family="Helvetica,sans-Serif" font-size="10.00">set_object_timer_state</text>
</a>
</g>
</g>
<!-- Node5&#45;&gt;Node7 -->
<g id="edge6_Node000005_Node000007" class="edge">
<title>Node5&#45;&gt;Node7</title>
<g id="a_edge6_Node000005_Node000007"><a xlink:title=" ">
<path fill="none" stroke="#63b8ff" d="M275.2,-175.5C283.44,-175.5 292.1,-175.5 300.73,-175.5"/>
<polygon fill="#63b8ff" stroke="#63b8ff" points="300.82,-179 310.82,-175.5 300.82,-172 300.82,-179"/>
</a>
</g>
</g>
<!-- Node9 -->
<g id="Node000009" class="node">
<title>Node9</title>
<g id="a_Node000009"><a xlink:href="race__logic_8c.html#a81fc82f45c9f9fcbf0d71fd2e0d6853c" target="_top" xlink:title=" ">
<polygon fill="white" stroke="#666666" points="421,-148 329,-148 329,-129 421,-129 421,-148"/>
<text text-anchor="middle" x="375" y="-136" font-family="Helvetica,sans-Serif" font-size="10.00">func_8028EC98</text>
</a>
</g>
</g>
<!-- Node8&#45;&gt;Node9 -->
<g id="edge8_Node000008_Node000009" class="edge">
<title>Node8&#45;&gt;Node9</title>
<g id="a_edge8_Node000008_Node000009"><a xlink:title=" ">
<path fill="none" stroke="#63b8ff" d="M255.81,-138.5C274.07,-138.5 297.5,-138.5 318.68,-138.5"/>
<polygon fill="#63b8ff" stroke="#63b8ff" points="318.86,-142 328.86,-138.5 318.86,-135 318.86,-142"/>
</a>
</g>
</g>
<!-- Node10 -->
<g id="Node000010" class="node">
<title>Node10</title>
<g id="a_Node000010"><a xlink:href="Game_8cpp.html#a3416a195a0c7be6ec3783bbf4842dc3e" target="_top" xlink:title=" ">
<polygon fill="white" stroke="#666666" points="562,-185 480,-185 480,-166 562,-166 562,-185"/>
<text text-anchor="middle" x="521" y="-173" font-family="Helvetica,sans-Serif" font-size="10.00">CM_GetProps</text>
</a>
</g>
</g>
<!-- Node9&#45;&gt;Node10 -->
<g id="edge9_Node000009_Node000010" class="edge">
<title>Node9&#45;&gt;Node10</title>
<g id="a_edge9_Node000009_Node000010"><a xlink:title=" ">
<path fill="none" stroke="#63b8ff" d="M413.08,-148.03C431.25,-152.7 453.33,-158.37 472.7,-163.35"/>
<polygon fill="#63b8ff" stroke="#63b8ff" points="471.99,-166.78 482.54,-165.88 473.73,-160 471.99,-166.78"/>
</a>
</g>
</g>
<!-- Node11 -->
<g id="Node000011" class="node">
<title>Node11</title>
<g id="a_Node000011"><a xlink:href="code__800029B0_8c.html#a7f2e9212dffa5894377677511e9aea7a" target="_top" xlink:title=" ">
<polygon fill="white" stroke="#666666" points="567,-148 475,-148 475,-129 567,-129 567,-148"/>
<text text-anchor="middle" x="521" y="-136" font-family="Helvetica,sans-Serif" font-size="10.00">func_800029B0</text>
</a>
</g>
</g>
<!-- Node9&#45;&gt;Node11 -->
<g id="edge10_Node000009_Node000011" class="edge">
<title>Node9&#45;&gt;Node11</title>
<g id="a_edge10_Node000009_Node000011"><a xlink:title=" ">
<path fill="none" stroke="#63b8ff" d="M421.17,-138.5C434.97,-138.5 450.31,-138.5 464.71,-138.5"/>
<polygon fill="#63b8ff" stroke="#63b8ff" points="464.99,-142 474.99,-138.5 464.99,-135 464.99,-142"/>
</a>
</g>
</g>
<!-- Node15 -->
<g id="Node000015" class="node">
<title>Node15</title>
<g id="a_Node000015"><a xlink:href="external_8c.html#a6584dbe6b07d52e25d5ca892468153a5" target="_top" xlink:title=" ">
<polygon fill="white" stroke="#666666" points="565.5,-93 476.5,-93 476.5,-74 565.5,-74 565.5,-93"/>
<text text-anchor="middle" x="521" y="-81" font-family="Helvetica,sans-Serif" font-size="10.00">play_sequence</text>
</a>
</g>
</g>
<!-- Node9&#45;&gt;Node15 -->
<g id="edge14_Node000009_Node000015" class="edge">
<title>Node9&#45;&gt;Node15</title>
<g id="a_edge14_Node000009_Node000015"><a xlink:title=" ">
<path fill="none" stroke="#63b8ff" d="M401.08,-128.92C424.38,-120.02 459.27,-106.69 485.25,-96.77"/>
<polygon fill="#63b8ff" stroke="#63b8ff" points="486.63,-99.99 494.72,-93.16 484.13,-93.45 486.63,-99.99"/>
</a>
</g>
</g>
<!-- Node12 -->
<g id="Node000012" class="node">
<title>Node12</title>
<g id="a_Node000012"><a xlink:href="code__800029B0_8c.html#ad2261513ccdc1dde9259588945f5e55f" target="_top" xlink:title=" ">
<polygon fill="white" stroke="#666666" points="730,-167 603,-167 603,-148 730,-148 730,-167"/>
<text text-anchor="middle" x="666.5" y="-155" font-family="Helvetica,sans-Serif" font-size="10.00">update_music_volume</text>
</a>
</g>
</g>
<!-- Node11&#45;&gt;Node12 -->
<g id="edge11_Node000011_Node000012" class="edge">
<title>Node11&#45;&gt;Node12</title>
<g id="a_edge11_Node000011_Node000012"><a xlink:title=" ">
<path fill="none" stroke="#63b8ff" d="M567.01,-144.46C575.25,-145.55 584.04,-146.71 592.85,-147.88"/>
<polygon fill="#63b8ff" stroke="#63b8ff" points="592.4,-151.35 602.78,-149.2 593.32,-144.41 592.4,-151.35"/>
</a>
</g>
</g>
<!-- Node13 -->
<g id="Node000013" class="node">
<title>Node13</title>
<g id="a_Node000013"><a xlink:href="external_8c.html#aa8b1f479006839bf391cce389c5bbbb8" target="_top" xlink:title=" ">
<polygon fill="white" stroke="#666666" points="908,-167 766,-167 766,-148 908,-148 908,-167"/>
<text text-anchor="middle" x="837" y="-155" font-family="Helvetica,sans-Serif" font-size="10.00">audio_set_player_volume</text>
</a>
</g>
</g>
<!-- Node12&#45;&gt;Node13 -->
<g id="edge12_Node000012_Node000013" class="edge">
<title>Node12&#45;&gt;Node13</title>
<g id="a_edge12_Node000012_Node000013"><a xlink:title=" ">
<path fill="none" stroke="#63b8ff" d="M730.24,-157.5C738.58,-157.5 747.22,-157.5 755.81,-157.5"/>
<polygon fill="#63b8ff" stroke="#63b8ff" points="755.84,-161 765.84,-157.5 755.84,-154 755.84,-161"/>
</a>
</g>
</g>
<!-- Node14 -->
<g id="Node000014" class="node">
<title>Node14</title>
<g id="a_Node000014"><a xlink:href="external_8c.html#ad79a8b3dfe27cebca94c2d9e2cc54d2b" target="_top" xlink:title=" ">
<polygon fill="white" stroke="#666666" points="1036,-167 944,-167 944,-148 1036,-148 1036,-167"/>
<text text-anchor="middle" x="990" y="-155" font-family="Helvetica,sans-Serif" font-size="10.00">func_800C36C4</text>
</a>
</g>
</g>
<!-- Node13&#45;&gt;Node14 -->
<g id="edge13_Node000013_Node000014" class="edge">
<title>Node13&#45;&gt;Node14</title>
<g id="a_edge13_Node000013_Node000014"><a xlink:title=" ">
<path fill="none" stroke="#63b8ff" d="M908.2,-157.5C916.85,-157.5 925.59,-157.5 933.97,-157.5"/>
<polygon fill="#63b8ff" stroke="#63b8ff" points="933.98,-161 943.98,-157.5 933.98,-154 933.98,-161"/>
</a>
</g>
</g>
<!-- Node16 -->
<g id="Node000016" class="node">
<title>Node16</title>
<g id="a_Node000016"><a xlink:href="external_8c.html#ac48b7cbfcaa7737f892877ead85e4ba7" target="_top" xlink:title=" ">
<polygon fill="white" stroke="#666666" points="712.5,-130 620.5,-130 620.5,-111 712.5,-111 712.5,-130"/>
<text text-anchor="middle" x="666.5" y="-118" font-family="Helvetica,sans-Serif" font-size="10.00">func_800C3448</text>
</a>
</g>
</g>
<!-- Node15&#45;&gt;Node16 -->
<g id="edge15_Node000015_Node000016" class="edge">
<title>Node15&#45;&gt;Node16</title>
<g id="a_edge15_Node000015_Node000016"><a xlink:title=" ">
<path fill="none" stroke="#63b8ff" d="M558.95,-93.03C577.06,-97.7 599.06,-103.37 618.36,-108.35"/>
<polygon fill="#63b8ff" stroke="#63b8ff" points="617.61,-111.77 628.17,-110.88 619.36,-104.99 617.61,-111.77"/>
</a>
</g>
</g>
<!-- Node17 -->
<g id="Node000017" class="node">
<title>Node17</title>
<g id="a_Node000017"><a xlink:href="HMAS_8cpp.html#a943f713ceca4307e6e1bb48253c6ad6c" target="_top" xlink:title=" ">
<polygon fill="white" stroke="#666666" points="727.5,-93 605.5,-93 605.5,-74 727.5,-74 727.5,-93"/>
<text text-anchor="middle" x="666.5" y="-81" font-family="Helvetica,sans-Serif" font-size="10.00">HMAS_IsIDRegistered</text>
</a>
</g>
</g>
<!-- Node15&#45;&gt;Node17 -->
<g id="edge16_Node000015_Node000017" class="edge">
<title>Node15&#45;&gt;Node17</title>
<g id="a_edge16_Node000015_Node000017"><a xlink:title=" ">
<path fill="none" stroke="#63b8ff" d="M565.83,-83.5C575.07,-83.5 585.04,-83.5 594.98,-83.5"/>
<polygon fill="#63b8ff" stroke="#63b8ff" points="595.29,-87 605.29,-83.5 595.29,-80 595.29,-87"/>
</a>
</g>
</g>
<!-- Node18 -->
<g id="Node000018" class="node">
<title>Node18</title>
<g id="a_Node000018"><a xlink:href="HMAS_8cpp.html#a704c0426d4f7027c277b28346062dff3" target="_top" xlink:title=" ">
<polygon fill="white" stroke="#666666" points="702.5,-56 630.5,-56 630.5,-37 702.5,-37 702.5,-56"/>
<text text-anchor="middle" x="666.5" y="-44" font-family="Helvetica,sans-Serif" font-size="10.00">HMAS_Play</text>
</a>
</g>
</g>
<!-- Node15&#45;&gt;Node18 -->
<g id="edge17_Node000015_Node000018" class="edge">
<title>Node15&#45;&gt;Node18</title>
<g id="a_edge17_Node000015_Node000018"><a xlink:title=" ">
<path fill="none" stroke="#63b8ff" d="M558.95,-73.97C577.71,-69.14 600.65,-63.22 620.43,-58.12"/>
<polygon fill="#63b8ff" stroke="#63b8ff" points="621.35,-61.5 630.15,-55.61 619.6,-54.72 621.35,-61.5"/>
</a>
</g>
</g>
<!-- Node19 -->
<g id="Node000019" class="node">
<title>Node19</title>
<g id="a_Node000019"><a xlink:href="HMAS_8cpp.html#aa651a0e94efa3ddb0a63e1b4233c0aab" target="_top" xlink:title=" ">
<polygon fill="white" stroke="#666666" points="703,-19 630,-19 630,0 703,0 703,-19"/>
<text text-anchor="middle" x="666.5" y="-7" font-family="Helvetica,sans-Serif" font-size="10.00">HMAS_Stop</text>
</a>
</g>
</g>
<!-- Node15&#45;&gt;Node19 -->
<g id="edge18_Node000015_Node000019" class="edge">
<title>Node15&#45;&gt;Node19</title>
<g id="a_edge18_Node000015_Node000019"><a xlink:title=" ">
<path fill="none" stroke="#63b8ff" d="M533.33,-73.87C548.36,-61.53 576.12,-40.24 603,-27.5 608.36,-24.96 614.15,-22.7 619.97,-20.72"/>
<polygon fill="#63b8ff" stroke="#63b8ff" points="621.24,-23.99 629.73,-17.65 619.14,-17.32 621.24,-23.99"/>
</a>
</g>
</g>
</g>
</svg>

<g id="navigator" transform="translate(0 0)" fill="#404254">
  <rect fill="#f2f5e9" fill-opacity="0.5" stroke="#606060" stroke-width=".5" x="0" y="0" width="60" height="60"/>
  <use id="zoomplus" xlink:href="#zoomPlus" x="17" y="9" onmousedown="handleZoom(evt,'in')"/>
  <use id="zoomminus" xlink:href="#zoomMin" x="42" y="9" onmousedown="handleZoom(evt,'out')"/>
  <use id="reset" xlink:href="#resetDef" x="30" y="36" onmousedown="handleReset()"/>
   <use id="arrowup" xlink:href="#arrowUp" x="0" y="0" onmousedown="handlePan(0,-1)"/>
  <use id="arrowright" xlink:href="#arrowRight" x="0" y="0" onmousedown="handlePan(1,0)"/>
  <use id="arrowdown" xlink:href="#arrowDown" x="0" y="0" onmousedown="handlePan(0,1)"/>
  <use id="arrowleft" xlink:href="#arrowLeft" x="0" y="0" onmousedown="handlePan(-1,0)"/>
</g>
<svg viewBox="0 0 15 15" width="100%" height="30px" preserveAspectRatio="xMaxYMin meet">
 <g id="arrow_out" transform="scale(0.3 0.3)">
  <a xlink:href="classOLakitu_acc3aecddc1afcd4c1e1f2f0bd3a7cb72_cgraph_org.svg" target="_base">
   <rect id="button" ry="5" rx="5" y="6" x="6" height="38" width="38"
        fill="#f2f5e9" fill-opacity="0.5" stroke="#606060" stroke-width="1.0"/>
   <path id="arrow"
     d="M 11.500037,31.436501 C 11.940474,20.09759 22.043105,11.32322 32.158766,21.979434 L 37.068811,17.246167 C 37.068811,17.246167 37.088388,32 37.088388,32 L 22.160133,31.978069 C 22.160133,31.978069 26.997745,27.140456 26.997745,27.140456 C 18.528582,18.264221 13.291696,25.230495 11.500037,31.436501 z"
     style="fill:#404040;"/>
  </a>
 </g>
</svg>

<style type='text/css'>
<![CDATA[
[data-mouse-over-selected='false'] { opacity: 0.7; }
[data-mouse-over-selected='true']  { opacity: 1.0; }
]]>
</style>
<script type="application/ecmascript"><![CDATA[
document.addEventListener('DOMContentLoaded', (event) => {
  highlightEdges();
  highlightAdjacentNodes();
});
]]></script>
</svg>
