<?xml version="1.0" encoding="UTF-8" standalone="no"?>
<!DOCTYPE svg PUBLIC "-//W3C//DTD SVG 1.1//EN"
 "http://www.w3.org/Graphics/SVG/1.1/DTD/svg11.dtd">
<!-- Generated by graphviz version 2.43.0 (0)
 -->
<!-- Title: OLakitu::update_object_lakitu_fishing Pages: 1 -->
<svg width="1078pt" height="1130pt"
 viewBox="0.00 0.00 1078.00 1130.18" xmlns="http://www.w3.org/2000/svg" xmlns:xlink="http://www.w3.org/1999/xlink">
<g id="graph0" class="graph" transform="scale(1 1) rotate(0) translate(4 1126.18)">
<title>OLakitu::update_object_lakitu_fishing</title>
<!-- Node1 -->
<g id="Node000001" class="node">
<title>Node1</title>
<g id="a_Node000001"><a xlink:title=" ">
<polygon fill="#999999" stroke="#666666" points="129,-681.5 0,-681.5 0,-651.5 129,-651.5 129,-681.5"/>
<text text-anchor="start" x="8" y="-669.5" font-family="Helvetica,sans-Serif" font-size="10.00">OLakitu::update_object</text>
<text text-anchor="middle" x="64.5" y="-658.5" font-family="Helvetica,sans-Serif" font-size="10.00">_lakitu_fishing</text>
</a>
</g>
</g>
<!-- Node2 -->
<g id="Node000002" class="node">
<title>Node2</title>
<g id="a_Node000002"><a xlink:href="update__objects_8c.html#aaece45bd6baf5aaf797c872a6e105604" target="_top" xlink:title=" ">
<polygon fill="white" stroke="#666666" points="619,-1092 527,-1092 527,-1073 619,-1073 619,-1092"/>
<text text-anchor="middle" x="573" y="-1080" font-family="Helvetica,sans-Serif" font-size="10.00">func_800722CC</text>
</a>
</g>
</g>
<!-- Node1&#45;&gt;Node2 -->
<g id="edge1_Node000001_Node000002" class="edge">
<title>Node1&#45;&gt;Node2</title>
<g id="a_edge1_Node000001_Node000002"><a xlink:title=" ">
<path fill="none" stroke="#63b8ff" d="M67.02,-681.54C74.01,-747.6 105.33,-1011.11 165,-1063.5 269.38,-1155.14 453.07,-1117.38 533.01,-1094.81"/>
<polygon fill="#63b8ff" stroke="#63b8ff" points="534.05,-1098.15 542.68,-1092.01 532.1,-1091.43 534.05,-1098.15"/>
</a>
</g>
</g>
<!-- Node3 -->
<g id="Node000003" class="node">
<title>Node3</title>
<g id="a_Node000003"><a xlink:href="update__objects_8c.html#a5978ef1e35515c275f92eb79b8601d77" target="_top" xlink:title=" ">
<polygon fill="white" stroke="#666666" points="278.5,-528 187.5,-528 187.5,-509 278.5,-509 278.5,-528"/>
<text text-anchor="middle" x="233" y="-516" font-family="Helvetica,sans-Serif" font-size="10.00">func_80072428</text>
</a>
</g>
</g>
<!-- Node1&#45;&gt;Node3 -->
<g id="edge2_Node000001_Node000003" class="edge">
<title>Node1&#45;&gt;Node3</title>
<g id="a_edge2_Node000001_Node000003"><a xlink:title=" ">
<path fill="none" stroke="#63b8ff" d="M81.07,-651.36C100.41,-632.69 134.59,-600.15 165,-573.5 180.41,-560 198.39,-545.3 211.83,-534.49"/>
<polygon fill="#63b8ff" stroke="#63b8ff" points="214.32,-536.99 219.95,-528.01 209.95,-531.52 214.32,-536.99"/>
</a>
</g>
</g>
<!-- Node7 -->
<g id="Node000007" class="node">
<title>Node7</title>
<g id="a_Node000007"><a xlink:href="update__objects_8c.html#aeb63467994b1ba00fc0dfe6abc2b65cb" target="_top" xlink:title=" ">
<polygon fill="white" stroke="#666666" points="279,-414 187,-414 187,-395 279,-395 279,-414"/>
<text text-anchor="middle" x="233" y="-402" font-family="Helvetica,sans-Serif" font-size="10.00">func_800730BC</text>
</a>
</g>
</g>
<!-- Node1&#45;&gt;Node7 -->
<g id="edge6_Node000001_Node000007" class="edge">
<title>Node1&#45;&gt;Node7</title>
<g id="a_edge6_Node000001_Node000007"><a xlink:title=" ">
<path fill="none" stroke="#63b8ff" d="M70.83,-651.41C83.58,-616.6 118.27,-528.89 165,-466.5 178.14,-448.96 196.64,-432.28 210.87,-420.64"/>
<polygon fill="#63b8ff" stroke="#63b8ff" points="213.45,-423.06 219.09,-414.09 209.09,-417.58 213.45,-423.06"/>
</a>
</g>
</g>
<!-- Node9 -->
<g id="Node000009" class="node">
<title>Node9</title>
<g id="a_Node000009"><a xlink:href="update__objects_8c.html#a8bfc5f5c7034d61b534e14f325b6e399" target="_top" xlink:title=" ">
<polygon fill="white" stroke="#666666" points="457,-490 353,-490 353,-471 457,-471 457,-490"/>
<text text-anchor="middle" x="405" y="-478" font-family="Helvetica,sans-Serif" font-size="10.00">object_next_state</text>
</a>
</g>
</g>
<!-- Node1&#45;&gt;Node9 -->
<g id="edge61_Node000001_Node000009" class="edge">
<title>Node1&#45;&gt;Node9</title>
<g id="a_edge61_Node000001_Node000009"><a xlink:title=" ">
<path fill="none" stroke="#63b8ff" d="M69.51,-651.25C79.32,-617.36 107.96,-536.03 165,-500.5 218.18,-467.37 291.41,-466.28 342.75,-471"/>
<polygon fill="#63b8ff" stroke="#63b8ff" points="342.41,-474.49 352.72,-472.02 343.12,-467.52 342.41,-474.49"/>
</a>
</g>
</g>
<!-- Node10 -->
<g id="Node000010" class="node">
<title>Node10</title>
<g id="a_Node000010"><a xlink:href="update__objects_8c.html#afe64f2394ee0deab6370b77609500bda" target="_top" xlink:title=" ">
<polygon fill="white" stroke="#666666" points="450,-290 360,-290 360,-271 450,-271 450,-290"/>
<text text-anchor="middle" x="405" y="-278" font-family="Helvetica,sans-Serif" font-size="10.00">set_object_flag</text>
</a>
</g>
</g>
<!-- Node1&#45;&gt;Node10 -->
<g id="edge62_Node000001_Node000010" class="edge">
<title>Node1&#45;&gt;Node10</title>
<g id="a_edge62_Node000001_Node000010"><a xlink:title=" ">
<path fill="none" stroke="#63b8ff" d="M66.22,-651.5C69.29,-604.94 85.11,-461.57 165,-386.5 210.82,-343.44 246.14,-378.23 301,-347.5 319.94,-336.89 319.16,-326.86 337,-314.5 347.89,-306.96 360.69,-300.05 372.16,-294.46"/>
<polygon fill="#63b8ff" stroke="#63b8ff" points="373.87,-297.52 381.42,-290.08 370.88,-291.19 373.87,-297.52"/>
</a>
</g>
</g>
<!-- Node11 -->
<g id="Node000011" class="node">
<title>Node11</title>
<g id="a_Node000011"><a xlink:href="update__objects_8c.html#ae85938416e5ea9f8f73c75b574092f30" target="_top" xlink:title=" ">
<polygon fill="white" stroke="#666666" points="278.5,-676 187.5,-676 187.5,-657 278.5,-657 278.5,-676"/>
<text text-anchor="middle" x="233" y="-664" font-family="Helvetica,sans-Serif" font-size="10.00">func_80073654</text>
</a>
</g>
</g>
<!-- Node1&#45;&gt;Node11 -->
<g id="edge14_Node000001_Node000011" class="edge">
<title>Node1&#45;&gt;Node11</title>
<g id="a_edge14_Node000001_Node000011"><a xlink:title=" ">
<path fill="none" stroke="#63b8ff" d="M129.4,-666.5C145.12,-666.5 161.82,-666.5 177.07,-666.5"/>
<polygon fill="#63b8ff" stroke="#63b8ff" points="177.37,-670 187.37,-666.5 177.37,-663 177.37,-670"/>
</a>
</g>
</g>
<!-- Node12 -->
<g id="Node000012" class="node">
<title>Node12</title>
<g id="a_Node000012"><a xlink:href="update__objects_8c.html#a75b557e879b556e596088376a24763f7" target="_top" xlink:title=" ">
<polygon fill="white" stroke="#666666" points="278.5,-859 187.5,-859 187.5,-840 278.5,-840 278.5,-859"/>
<text text-anchor="middle" x="233" y="-847" font-family="Helvetica,sans-Serif" font-size="10.00">func_800736E0</text>
</a>
</g>
</g>
<!-- Node1&#45;&gt;Node12 -->
<g id="edge16_Node000001_Node000012" class="edge">
<title>Node1&#45;&gt;Node12</title>
<g id="a_edge16_Node000001_Node000012"><a xlink:title=" ">
<path fill="none" stroke="#63b8ff" d="M76.83,-681.57C94.68,-705.02 130.85,-751.29 165,-787.5 180.31,-803.73 199.04,-820.86 212.8,-832.99"/>
<polygon fill="#63b8ff" stroke="#63b8ff" points="210.82,-835.91 220.66,-839.85 215.42,-830.63 210.82,-835.91"/>
</a>
</g>
</g>
<!-- Node13 -->
<g id="Node000013" class="node">
<title>Node13</title>
<g id="a_Node000013"><a xlink:href="update__objects_8c.html#ac42ed5b7975250918d712ff4ea1d3514" target="_top" xlink:title=" ">
<polygon fill="white" stroke="#666666" points="450.5,-714 359.5,-714 359.5,-695 450.5,-695 450.5,-714"/>
<text text-anchor="middle" x="405" y="-702" font-family="Helvetica,sans-Serif" font-size="10.00">func_80073720</text>
</a>
</g>
</g>
<!-- Node1&#45;&gt;Node13 -->
<g id="edge18_Node000001_Node000013" class="edge">
<title>Node1&#45;&gt;Node13</title>
<g id="a_edge18_Node000001_Node000013"><a xlink:title=" ">
<path fill="none" stroke="#63b8ff" d="M129.03,-679.7C140.94,-681.87 153.32,-683.93 165,-685.5 227.83,-693.97 300.51,-699.09 349.07,-701.84"/>
<polygon fill="#63b8ff" stroke="#63b8ff" points="349.18,-705.35 359.36,-702.41 349.56,-698.37 349.18,-705.35"/>
</a>
</g>
</g>
<!-- Node14 -->
<g id="Node000014" class="node">
<title>Node14</title>
<g id="a_Node000014"><a xlink:href="classOLakitu.html#a80d2f5fc25b130eb0386fb226e839f6e" target="_top" xlink:title=" ">
<polygon fill="white" stroke="#666666" points="300.5,-1054 165.5,-1054 165.5,-1035 300.5,-1035 300.5,-1054"/>
<text text-anchor="middle" x="233" y="-1042" font-family="Helvetica,sans-Serif" font-size="10.00">OLakitu::func_8007993C</text>
</a>
</g>
</g>
<!-- Node1&#45;&gt;Node14 -->
<g id="edge20_Node000001_Node000014" class="edge">
<title>Node1&#45;&gt;Node14</title>
<g id="a_edge20_Node000001_Node000014"><a xlink:title=" ">
<path fill="none" stroke="#63b8ff" d="M65.15,-681.59C64.72,-735.27 70.53,-919.18 165,-1020.5 168.59,-1024.35 172.85,-1027.59 177.45,-1030.31"/>
<polygon fill="#63b8ff" stroke="#63b8ff" points="176.12,-1033.56 186.63,-1034.92 179.26,-1027.3 176.12,-1033.56"/>
</a>
</g>
</g>
<!-- Node16 -->
<g id="Node000016" class="node">
<title>Node16</title>
<g id="a_Node000016"><a xlink:href="classOLakitu.html#aaa2cce2aa9a8a61fe057f231cd0ca984" target="_top" xlink:title=" ">
<polygon fill="white" stroke="#666666" points="301,-601 165,-601 165,-582 301,-582 301,-601"/>
<text text-anchor="middle" x="233" y="-589" font-family="Helvetica,sans-Serif" font-size="10.00">OLakitu::func_80079A5C</text>
</a>
</g>
</g>
<!-- Node1&#45;&gt;Node16 -->
<g id="edge23_Node000001_Node000016" class="edge">
<title>Node1&#45;&gt;Node16</title>
<g id="a_edge23_Node000001_Node000016"><a xlink:title=" ">
<path fill="none" stroke="#63b8ff" d="M99.19,-651.32C129.07,-637.86 172.35,-618.37 201.29,-605.33"/>
<polygon fill="#63b8ff" stroke="#63b8ff" points="202.84,-608.48 210.52,-601.18 199.96,-602.09 202.84,-608.48"/>
</a>
</g>
</g>
<!-- Node20 -->
<g id="Node000020" class="node">
<title>Node20</title>
<g id="a_Node000020"><a xlink:href="code__80086E70_8c.html#a7abe2cf99895b2c65aabbcf5fc465b67" target="_top" xlink:title=" ">
<polygon fill="white" stroke="#666666" points="279,-918 187,-918 187,-899 279,-899 279,-918"/>
<text text-anchor="middle" x="233" y="-906" font-family="Helvetica,sans-Serif" font-size="10.00">func_80086EAC</text>
</a>
</g>
</g>
<!-- Node1&#45;&gt;Node20 -->
<g id="edge29_Node000001_Node000020" class="edge">
<title>Node1&#45;&gt;Node20</title>
<g id="a_edge29_Node000001_Node000020"><a xlink:title=" ">
<path fill="none" stroke="#63b8ff" d="M69.69,-681.66C80.31,-717.79 111.32,-810.31 165,-868.5 174.81,-879.13 188.09,-887.85 200.24,-894.41"/>
<polygon fill="#63b8ff" stroke="#63b8ff" points="198.74,-897.57 209.24,-899 201.92,-891.34 198.74,-897.57"/>
</a>
</g>
</g>
<!-- Node21 -->
<g id="Node000021" class="node">
<title>Node21</title>
<g id="a_Node000021"><a xlink:href="code__80086E70_8c.html#a8e51cb92b1182f52f501900ce4761c0b" target="_top" xlink:title=" ">
<polygon fill="white" stroke="#666666" points="278,-338 188,-338 188,-319 278,-319 278,-338"/>
<text text-anchor="middle" x="233" y="-326" font-family="Helvetica,sans-Serif" font-size="10.00">func_80086FA4</text>
</a>
</g>
</g>
<!-- Node1&#45;&gt;Node21 -->
<g id="edge31_Node000001_Node000021" class="edge">
<title>Node1&#45;&gt;Node21</title>
<g id="a_edge31_Node000001_Node000021"><a xlink:title=" ">
<path fill="none" stroke="#63b8ff" d="M65.79,-651.38C67.55,-601.59 79.89,-440.83 165,-352.5 168.91,-348.44 173.56,-345.07 178.55,-342.26"/>
<polygon fill="#63b8ff" stroke="#63b8ff" points="180.33,-345.29 187.83,-337.8 177.3,-338.98 180.33,-345.29"/>
</a>
</g>
</g>
<!-- Node22 -->
<g id="Node000022" class="node">
<title>Node22</title>
<g id="a_Node000022"><a xlink:href="effects_8c.html#a80884e9db018960df253546f0c9718e5" target="_top" xlink:title=" ">
<polygon fill="white" stroke="#666666" points="278.5,-149 187.5,-149 187.5,-130 278.5,-130 278.5,-149"/>
<text text-anchor="middle" x="233" y="-137" font-family="Helvetica,sans-Serif" font-size="10.00">func_80090868</text>
</a>
</g>
</g>
<!-- Node1&#45;&gt;Node22 -->
<g id="edge32_Node000001_Node000022" class="edge">
<title>Node1&#45;&gt;Node22</title>
<g id="a_edge32_Node000001_Node000022"><a xlink:title=" ">
<path fill="none" stroke="#63b8ff" d="M69.14,-651.41C81.17,-602 121.41,-440.73 165,-310.5 183.82,-254.27 210.66,-189.49 223.93,-158.26"/>
<polygon fill="#63b8ff" stroke="#63b8ff" points="227.17,-159.59 227.88,-149.02 220.73,-156.84 227.17,-159.59"/>
</a>
</g>
</g>
<!-- Node31 -->
<g id="Node000031" class="node">
<title>Node31</title>
<g id="a_Node000031"><a xlink:href="external_8c.html#ad377fc55133176f069744a4bcb5e0364" target="_top" xlink:title=" ">
<polygon fill="white" stroke="#666666" points="619,-1016 527,-1016 527,-997 619,-997 619,-1016"/>
<text text-anchor="middle" x="573" y="-1004" font-family="Helvetica,sans-Serif" font-size="10.00">func_800C9018</text>
</a>
</g>
</g>
<!-- Node1&#45;&gt;Node31 -->
<g id="edge41_Node000001_Node000031" class="edge">
<title>Node1&#45;&gt;Node31</title>
<g id="a_edge41_Node000001_Node000031"><a xlink:title=" ">
<path fill="none" stroke="#63b8ff" d="M66.87,-681.56C71.7,-725.74 91.8,-856.36 165,-927.5 260.24,-1020.05 429.6,-1020.23 516.78,-1013.11"/>
<polygon fill="#63b8ff" stroke="#63b8ff" points="517.33,-1016.58 526.99,-1012.22 516.72,-1009.61 517.33,-1016.58"/>
</a>
</g>
</g>
<!-- Node38 -->
<g id="Node000038" class="node">
<title>Node38</title>
<g id="a_Node000038"><a xlink:href="classOLakitu.html#ae289dfcb3c3015fe450ec5184b459989" target="_top" xlink:title=" ">
<polygon fill="white" stroke="#666666" points="297.5,-778.5 168.5,-778.5 168.5,-748.5 297.5,-748.5 297.5,-778.5"/>
<text text-anchor="start" x="176.5" y="-766.5" font-family="Helvetica,sans-Serif" font-size="10.00">OLakitu::init_obj_lakitu</text>
<text text-anchor="middle" x="233" y="-755.5" font-family="Helvetica,sans-Serif" font-size="10.00">_red_flag_fishing</text>
</a>
</g>
</g>
<!-- Node1&#45;&gt;Node38 -->
<g id="edge48_Node000001_Node000038" class="edge">
<title>Node1&#45;&gt;Node38</title>
<g id="a_edge48_Node000001_Node000038"><a xlink:title=" ">
<path fill="none" stroke="#63b8ff" d="M91.52,-681.66C119.99,-698.24 165.76,-724.91 197.28,-743.27"/>
<polygon fill="#63b8ff" stroke="#63b8ff" points="195.76,-746.44 206.17,-748.45 199.29,-740.39 195.76,-746.44"/>
</a>
</g>
</g>
<!-- Node4 -->
<g id="Node000004" class="node">
<title>Node4</title>
<g id="a_Node000004"><a xlink:href="code__80086E70_8c.html#acd186a6f592769b3e3db3da72fcf765f" target="_top" xlink:title=" ">
<polygon fill="white" stroke="#666666" points="450.5,-527 359.5,-527 359.5,-508 450.5,-508 450.5,-527"/>
<text text-anchor="middle" x="405" y="-515" font-family="Helvetica,sans-Serif" font-size="10.00">func_80086F60</text>
</a>
</g>
</g>
<!-- Node3&#45;&gt;Node4 -->
<g id="edge3_Node000003_Node000004" class="edge">
<title>Node3&#45;&gt;Node4</title>
<g id="a_edge3_Node000003_Node000004"><a xlink:title=" ">
<path fill="none" stroke="#63b8ff" d="M278.67,-518.24C300.25,-518.11 326.35,-517.96 349.13,-517.82"/>
<polygon fill="#63b8ff" stroke="#63b8ff" points="349.36,-521.32 359.34,-517.76 349.32,-514.32 349.36,-521.32"/>
</a>
</g>
</g>
<!-- Node6 -->
<g id="Node000006" class="node">
<title>Node6</title>
<g id="a_Node000006"><a xlink:href="update__objects_8c.html#af20e3f3c403dd4fbea56e358997e515a" target="_top" xlink:title=" ">
<polygon fill="white" stroke="#666666" points="637,-452 509,-452 509,-433 637,-433 637,-452"/>
<text text-anchor="middle" x="573" y="-440" font-family="Helvetica,sans-Serif" font-size="10.00">set_object_timer_state</text>
</a>
</g>
</g>
<!-- Node3&#45;&gt;Node6 -->
<g id="edge5_Node000003_Node000006" class="edge">
<title>Node3&#45;&gt;Node6</title>
<g id="a_edge5_Node000003_Node000006"><a xlink:title=" ">
<path fill="none" stroke="#63b8ff" d="M247.19,-508.97C266.06,-495.92 302.3,-472.91 337,-462.5 389.62,-446.72 451.62,-441.98 498.73,-441.05"/>
<polygon fill="#63b8ff" stroke="#63b8ff" points="498.9,-444.55 508.85,-440.91 498.8,-437.55 498.9,-444.55"/>
</a>
</g>
</g>
<!-- Node5 -->
<g id="Node000005" class="node">
<title>Node5</title>
<g id="a_Node000005"><a xlink:href="update__objects_8c.html#a3953241e15c6372ac8944ba842148a9a" target="_top" xlink:title=" ">
<polygon fill="white" stroke="#666666" points="622.5,-695 523.5,-695 523.5,-676 622.5,-676 622.5,-695"/>
<text text-anchor="middle" x="573" y="-683" font-family="Helvetica,sans-Serif" font-size="10.00">clear_object_flag</text>
</a>
</g>
</g>
<!-- Node4&#45;&gt;Node5 -->
<g id="edge4_Node000004_Node000005" class="edge">
<title>Node4&#45;&gt;Node5</title>
<g id="a_edge4_Node000004_Node000005"><a xlink:title=" ">
<path fill="none" stroke="#63b8ff" d="M450.58,-525.35C458.52,-528.04 466.36,-531.65 473,-536.5 519.89,-570.71 551.07,-634.37 564.5,-666.26"/>
<polygon fill="#63b8ff" stroke="#63b8ff" points="561.36,-667.82 568.37,-675.77 567.84,-665.18 561.36,-667.82"/>
</a>
</g>
</g>
<!-- Node7&#45;&gt;Node5 -->
<g id="edge7_Node000007_Node000005" class="edge">
<title>Node7&#45;&gt;Node5</title>
<g id="a_edge7_Node000007_Node000005"><a xlink:title=" ">
<path fill="none" stroke="#63b8ff" d="M279.32,-404.04C331.7,-405.86 417.77,-416.4 473,-462.5 537.92,-516.68 561.79,-621.96 569.16,-665.7"/>
<polygon fill="#63b8ff" stroke="#63b8ff" points="565.71,-666.32 570.72,-675.65 572.62,-665.23 565.71,-666.32"/>
</a>
</g>
</g>
<!-- Node7&#45;&gt;Node6 -->
<g id="edge13_Node000007_Node000006" class="edge">
<title>Node7&#45;&gt;Node6</title>
<g id="a_edge13_Node000007_Node000006"><a xlink:title=" ">
<path fill="none" stroke="#63b8ff" d="M271.52,-394.97C281.62,-391.39 292.18,-386.65 301,-380.5 321.45,-366.24 314.42,-348.05 337,-337.5 391.77,-311.92 417.5,-313.55 473,-337.5 514,-355.19 545.9,-399.14 561.49,-424.22"/>
<polygon fill="#63b8ff" stroke="#63b8ff" points="558.51,-426.04 566.66,-432.81 564.5,-422.43 558.51,-426.04"/>
</a>
</g>
</g>
<!-- Node8 -->
<g id="Node000008" class="node">
<title>Node8</title>
<g id="a_Node000008"><a xlink:href="update__objects_8c.html#a2301a51a93a60f0382cdc7002e14f95a" target="_top" xlink:title=" ">
<polygon fill="white" stroke="#666666" points="473,-376.5 337,-376.5 337,-346.5 473,-346.5 473,-376.5"/>
<text text-anchor="start" x="345" y="-364.5" font-family="Helvetica,sans-Serif" font-size="10.00">is_obj_index_flag_status</text>
<text text-anchor="middle" x="405" y="-353.5" font-family="Helvetica,sans-Serif" font-size="10.00">_inactive</text>
</a>
</g>
</g>
<!-- Node7&#45;&gt;Node8 -->
<g id="edge8_Node000007_Node000008" class="edge">
<title>Node7&#45;&gt;Node8</title>
<g id="a_edge8_Node000007_Node000008"><a xlink:title=" ">
<path fill="none" stroke="#63b8ff" d="M271.73,-394.96C290.31,-390.26 313.3,-384.44 334.88,-378.98"/>
<polygon fill="#63b8ff" stroke="#63b8ff" points="335.84,-382.35 344.67,-376.51 334.12,-375.57 335.84,-382.35"/>
</a>
</g>
</g>
<!-- Node7&#45;&gt;Node9 -->
<g id="edge9_Node000007_Node000009" class="edge">
<title>Node7&#45;&gt;Node9</title>
<g id="a_edge9_Node000007_Node000009"><a xlink:title=" ">
<path fill="none" stroke="#63b8ff" d="M255.53,-414.13C285.29,-427.43 339.18,-451.52 373.19,-466.73"/>
<polygon fill="#63b8ff" stroke="#63b8ff" points="372.09,-470.07 382.64,-470.95 374.94,-463.68 372.09,-470.07"/>
</a>
</g>
</g>
<!-- Node7&#45;&gt;Node10 -->
<g id="edge12_Node000007_Node000010" class="edge">
<title>Node7&#45;&gt;Node10</title>
<g id="a_edge12_Node000007_Node000010"><a xlink:title=" ">
<path fill="none" stroke="#63b8ff" d="M276.47,-394.94C285.31,-391.48 294.04,-386.81 301,-380.5 328.7,-355.4 309.3,-329.6 337,-304.5 341.46,-300.46 346.64,-297.09 352.12,-294.28"/>
<polygon fill="#63b8ff" stroke="#63b8ff" points="353.84,-297.34 361.53,-290.06 350.97,-290.96 353.84,-297.34"/>
</a>
</g>
</g>
<!-- Node9&#45;&gt;Node5 -->
<g id="edge10_Node000009_Node000005" class="edge">
<title>Node9&#45;&gt;Node5</title>
<g id="a_edge10_Node000009_Node000005"><a xlink:title=" ">
<path fill="none" stroke="#63b8ff" d="M456.85,-490.09C462.66,-492.54 468.2,-495.63 473,-499.5 528.19,-544.04 556.56,-627.79 567.09,-665.82"/>
<polygon fill="#63b8ff" stroke="#63b8ff" points="563.75,-666.89 569.69,-675.66 570.52,-665.1 563.75,-666.89"/>
</a>
</g>
</g>
<!-- Node9&#45;&gt;Node6 -->
<g id="edge11_Node000009_Node000006" class="edge">
<title>Node9&#45;&gt;Node6</title>
<g id="a_edge11_Node000009_Node000006"><a xlink:title=" ">
<path fill="none" stroke="#63b8ff" d="M447.89,-470.91C469.89,-465.87 497.05,-459.66 520.35,-454.32"/>
<polygon fill="#63b8ff" stroke="#63b8ff" points="521.45,-457.66 530.41,-452.02 519.88,-450.84 521.45,-457.66"/>
</a>
</g>
</g>
<!-- Node11&#45;&gt;Node5 -->
<g id="edge15_Node000011_Node000005" class="edge">
<title>Node11&#45;&gt;Node5</title>
<g id="a_edge15_Node000011_Node000005"><a xlink:title=" ">
<path fill="none" stroke="#63b8ff" d="M278.54,-669C338.69,-672.38 446.04,-678.42 512.89,-682.18"/>
<polygon fill="#63b8ff" stroke="#63b8ff" points="513.08,-685.69 523.26,-682.76 513.47,-678.7 513.08,-685.69"/>
</a>
</g>
</g>
<!-- Node12&#45;&gt;Node5 -->
<g id="edge17_Node000012_Node000005" class="edge">
<title>Node12&#45;&gt;Node5</title>
<g id="a_edge17_Node000012_Node000005"><a xlink:title=" ">
<path fill="none" stroke="#63b8ff" d="M254.03,-859.06C297.47,-878.29 402.13,-916.28 473,-873.5 504.8,-854.31 547.84,-748.96 564.75,-704.89"/>
<polygon fill="#63b8ff" stroke="#63b8ff" points="568.1,-705.92 568.38,-695.32 561.56,-703.43 568.1,-705.92"/>
</a>
</g>
</g>
<!-- Node13&#45;&gt;Node5 -->
<g id="edge19_Node000013_Node000005" class="edge">
<title>Node13&#45;&gt;Node5</title>
<g id="a_edge19_Node000013_Node000005"><a xlink:title=" ">
<path fill="none" stroke="#63b8ff" d="M450.92,-699.36C470.06,-697.17 492.65,-694.58 513.1,-692.24"/>
<polygon fill="#63b8ff" stroke="#63b8ff" points="513.72,-695.69 523.25,-691.08 512.92,-688.74 513.72,-695.69"/>
</a>
</g>
</g>
<!-- Node14&#45;&gt;Node2 -->
<g id="edge22_Node000014_Node000002" class="edge">
<title>Node14&#45;&gt;Node2</title>
<g id="a_edge22_Node000014_Node000002"><a xlink:title=" ">
<path fill="none" stroke="#63b8ff" d="M279.99,-1054.02C297.74,-1057.42 318.25,-1061.02 337,-1063.5 398.24,-1071.6 468.95,-1076.76 516.68,-1079.62"/>
<polygon fill="#63b8ff" stroke="#63b8ff" points="516.62,-1083.12 526.8,-1080.21 517.03,-1076.13 516.62,-1083.12"/>
</a>
</g>
</g>
<!-- Node15 -->
<g id="Node000015" class="node">
<title>Node15</title>
<g id="a_Node000015"><a xlink:href="update__objects_8c.html#a2c88cc32dff07c6af5fe74d00b9fa279" target="_top" xlink:title=" ">
<polygon fill="white" stroke="#666666" points="451,-1054 359,-1054 359,-1035 451,-1035 451,-1054"/>
<text text-anchor="middle" x="405" y="-1042" font-family="Helvetica,sans-Serif" font-size="10.00">func_800722A4</text>
</a>
</g>
</g>
<!-- Node14&#45;&gt;Node15 -->
<g id="edge21_Node000014_Node000015" class="edge">
<title>Node14&#45;&gt;Node15</title>
<g id="a_edge21_Node000014_Node000015"><a xlink:title=" ">
<path fill="none" stroke="#63b8ff" d="M300.7,-1044.5C316.57,-1044.5 333.34,-1044.5 348.64,-1044.5"/>
<polygon fill="#63b8ff" stroke="#63b8ff" points="348.97,-1048 358.97,-1044.5 348.97,-1041 348.97,-1048"/>
</a>
</g>
</g>
<!-- Node16&#45;&gt;Node4 -->
<g id="edge26_Node000016_Node000004" class="edge">
<title>Node16&#45;&gt;Node4</title>
<g id="a_edge26_Node000016_Node000004"><a xlink:title=" ">
<path fill="none" stroke="#63b8ff" d="M249.55,-581.83C269.28,-569.89 304.66,-549.54 337,-536.5 342.81,-534.16 349.02,-531.98 355.22,-530"/>
<polygon fill="#63b8ff" stroke="#63b8ff" points="356.35,-533.32 364.91,-527.06 354.32,-526.62 356.35,-533.32"/>
</a>
</g>
</g>
<!-- Node17 -->
<g id="Node000017" class="node">
<title>Node17</title>
<g id="a_Node000017"><a xlink:href="math__util__2_8c.html#a99e6304891f46564f00965ce860d1c29" target="_top" xlink:title=" ">
<polygon fill="white" stroke="#666666" points="472,-601 338,-601 338,-582 472,-582 472,-601"/>
<text text-anchor="middle" x="405" y="-589" font-family="Helvetica,sans-Serif" font-size="10.00">f32_step_down_towards</text>
</a>
</g>
</g>
<!-- Node16&#45;&gt;Node17 -->
<g id="edge24_Node000016_Node000017" class="edge">
<title>Node16&#45;&gt;Node17</title>
<g id="a_edge24_Node000016_Node000017"><a xlink:title=" ">
<path fill="none" stroke="#63b8ff" d="M301.19,-591.5C309.86,-591.5 318.79,-591.5 327.6,-591.5"/>
<polygon fill="#63b8ff" stroke="#63b8ff" points="327.86,-595 337.86,-591.5 327.86,-588 327.86,-595"/>
</a>
</g>
</g>
<!-- Node18 -->
<g id="Node000018" class="node">
<title>Node18</title>
<g id="a_Node000018"><a xlink:href="math__util__2_8c.html#a561fab07d3a0b3c0be1ea5643179abb5" target="_top" xlink:title=" ">
<polygon fill="white" stroke="#666666" points="465,-638 345,-638 345,-619 465,-619 465,-638"/>
<text text-anchor="middle" x="405" y="-626" font-family="Helvetica,sans-Serif" font-size="10.00">f32_step_up_towards</text>
</a>
</g>
</g>
<!-- Node16&#45;&gt;Node18 -->
<g id="edge25_Node000016_Node000018" class="edge">
<title>Node16&#45;&gt;Node18</title>
<g id="a_edge25_Node000016_Node000018"><a xlink:title=" ">
<path fill="none" stroke="#63b8ff" d="M277.78,-601.03C299.8,-605.82 326.7,-611.68 350,-616.75"/>
<polygon fill="#63b8ff" stroke="#63b8ff" points="349.56,-620.23 360.07,-618.94 351.05,-613.39 349.56,-620.23"/>
</a>
</g>
</g>
<!-- Node19 -->
<g id="Node000019" class="node">
<title>Node19</title>
<g id="a_Node000019"><a xlink:href="code__80086E70_8c.html#a6eea48094f49bb346ce1170842d955b2" target="_top" xlink:title=" ">
<polygon fill="white" stroke="#666666" points="451,-564 359,-564 359,-545 451,-545 451,-564"/>
<text text-anchor="middle" x="405" y="-552" font-family="Helvetica,sans-Serif" font-size="10.00">func_80086FD4</text>
</a>
</g>
</g>
<!-- Node16&#45;&gt;Node19 -->
<g id="edge27_Node000016_Node000019" class="edge">
<title>Node16&#45;&gt;Node19</title>
<g id="a_edge27_Node000016_Node000019"><a xlink:title=" ">
<path fill="none" stroke="#63b8ff" d="M277.78,-581.97C299.8,-577.18 326.7,-571.32 350,-566.25"/>
<polygon fill="#63b8ff" stroke="#63b8ff" points="351.05,-569.61 360.07,-564.06 349.56,-562.77 351.05,-569.61"/>
</a>
</g>
</g>
<!-- Node19&#45;&gt;Node5 -->
<g id="edge28_Node000019_Node000005" class="edge">
<title>Node19&#45;&gt;Node5</title>
<g id="a_edge28_Node000019_Node000005"><a xlink:title=" ">
<path fill="none" stroke="#63b8ff" d="M451.13,-563.46C458.76,-566.03 466.35,-569.31 473,-573.5 511.95,-598.01 544.45,-642.31 560.74,-667.22"/>
<polygon fill="#63b8ff" stroke="#63b8ff" points="557.84,-669.18 566.17,-675.73 563.74,-665.42 557.84,-669.18"/>
</a>
</g>
</g>
<!-- Node20&#45;&gt;Node5 -->
<g id="edge30_Node000020_Node000005" class="edge">
<title>Node20&#45;&gt;Node5</title>
<g id="a_edge30_Node000020_Node000005"><a xlink:title=" ">
<path fill="none" stroke="#63b8ff" d="M273.82,-918.08C324.65,-927.9 413.15,-936.67 473,-896.5 490.37,-884.84 544.29,-754.3 564.37,-704.58"/>
<polygon fill="#63b8ff" stroke="#63b8ff" points="567.73,-705.6 568.21,-695.01 561.23,-702.99 567.73,-705.6"/>
</a>
</g>
</g>
<!-- Node23 -->
<g id="Node000023" class="node">
<title>Node23</title>
<g id="a_Node000023"><a xlink:href="effects_8c.html#a3442a1fae6bd562a7502af8343bd06ba" target="_top" xlink:title=" ">
<polygon fill="white" stroke="#666666" points="450.5,-19 359.5,-19 359.5,0 450.5,0 450.5,-19"/>
<text text-anchor="middle" x="405" y="-7" font-family="Helvetica,sans-Serif" font-size="10.00">func_8008FF08</text>
</a>
</g>
</g>
<!-- Node22&#45;&gt;Node23 -->
<g id="edge33_Node000022_Node000023" class="edge">
<title>Node22&#45;&gt;Node23</title>
<g id="a_edge33_Node000022_Node000023"><a xlink:title=" ">
<path fill="none" stroke="#63b8ff" d="M240.14,-129.7C254.37,-107.84 291.82,-54.88 337,-27.5 340.93,-25.12 345.18,-23.05 349.56,-21.25"/>
<polygon fill="#63b8ff" stroke="#63b8ff" points="351.09,-24.41 359.3,-17.72 348.7,-17.83 351.09,-24.41"/>
</a>
</g>
</g>
<!-- Node25 -->
<g id="Node000025" class="node">
<title>Node25</title>
<g id="a_Node000025"><a xlink:href="player__controller_8c.html#aafeb0470c7da44e1440ffa4848f7d500" target="_top" xlink:title=" ">
<polygon fill="white" stroke="#666666" points="464.5,-252.5 345.5,-252.5 345.5,-222.5 464.5,-222.5 464.5,-252.5"/>
<text text-anchor="start" x="353.5" y="-240.5" font-family="Helvetica,sans-Serif" font-size="10.00">get_player_index_for</text>
<text text-anchor="middle" x="405" y="-229.5" font-family="Helvetica,sans-Serif" font-size="10.00">_player</text>
</a>
</g>
</g>
<!-- Node22&#45;&gt;Node25 -->
<g id="edge35_Node000022_Node000025" class="edge">
<title>Node22&#45;&gt;Node25</title>
<g id="a_edge35_Node000022_Node000025"><a xlink:title=" ">
<path fill="none" stroke="#63b8ff" d="M245.05,-149.05C263.21,-164.35 300.93,-194.56 337,-213.5 340.31,-215.24 343.78,-216.9 347.32,-218.48"/>
<polygon fill="#63b8ff" stroke="#63b8ff" points="346.21,-221.82 356.79,-222.47 348.93,-215.37 346.21,-221.82"/>
</a>
</g>
</g>
<!-- Node26 -->
<g id="Node000026" class="node">
<title>Node26</title>
<g id="a_Node000026"><a xlink:href="Game_8cpp.html#ac015fe2f0caa481693b5a07997bf69b6" target="_top" xlink:title=" ">
<polygon fill="white" stroke="#666666" points="440,-204 370,-204 370,-185 440,-185 440,-204"/>
<text text-anchor="middle" x="405" y="-192" font-family="Helvetica,sans-Serif" font-size="10.00">IsBigDonut</text>
</a>
</g>
</g>
<!-- Node22&#45;&gt;Node26 -->
<g id="edge36_Node000022_Node000026" class="edge">
<title>Node22&#45;&gt;Node26</title>
<g id="a_edge36_Node000022_Node000026"><a xlink:title=" ">
<path fill="none" stroke="#63b8ff" d="M258.78,-149.05C279.52,-156.89 309.98,-168.03 337,-176.5 344.35,-178.8 352.21,-181.08 359.87,-183.2"/>
<polygon fill="#63b8ff" stroke="#63b8ff" points="359.19,-186.64 369.76,-185.88 361.02,-179.89 359.19,-186.64"/>
</a>
</g>
</g>
<!-- Node27 -->
<g id="Node000027" class="node">
<title>Node27</title>
<g id="a_Node000027"><a xlink:href="Game_8cpp.html#a8ebd6a4d970e4333ab5a9dd66c3d9c48" target="_top" xlink:title=" ">
<polygon fill="white" stroke="#666666" points="453.5,-167 356.5,-167 356.5,-148 453.5,-148 453.5,-167"/>
<text text-anchor="middle" x="405" y="-155" font-family="Helvetica,sans-Serif" font-size="10.00">IsBowsersCastle</text>
</a>
</g>
</g>
<!-- Node22&#45;&gt;Node27 -->
<g id="edge37_Node000022_Node000027" class="edge">
<title>Node22&#45;&gt;Node27</title>
<g id="a_edge37_Node000022_Node000027"><a xlink:title=" ">
<path fill="none" stroke="#63b8ff" d="M278.67,-144.23C299.3,-146.41 324.07,-149.04 346.12,-151.37"/>
<polygon fill="#63b8ff" stroke="#63b8ff" points="346.05,-154.88 356.36,-152.46 346.78,-147.92 346.05,-154.88"/>
</a>
</g>
</g>
<!-- Node28 -->
<g id="Node000028" class="node">
<title>Node28</title>
<g id="a_Node000028"><a xlink:href="Game_8cpp.html#a5c843dc61d3b9ca430e4926c4b8018ef" target="_top" xlink:title=" ">
<polygon fill="white" stroke="#666666" points="451,-130 359,-130 359,-111 451,-111 451,-130"/>
<text text-anchor="middle" x="405" y="-118" font-family="Helvetica,sans-Serif" font-size="10.00">IsRainbowRoad</text>
</a>
</g>
</g>
<!-- Node22&#45;&gt;Node28 -->
<g id="edge38_Node000022_Node000028" class="edge">
<title>Node22&#45;&gt;Node28</title>
<g id="a_edge38_Node000022_Node000028"><a xlink:title=" ">
<path fill="none" stroke="#63b8ff" d="M278.67,-134.51C300.08,-132.11 325.94,-129.22 348.59,-126.69"/>
<polygon fill="#63b8ff" stroke="#63b8ff" points="349.2,-130.15 358.75,-125.56 348.42,-123.19 349.2,-130.15"/>
</a>
</g>
</g>
<!-- Node29 -->
<g id="Node000029" class="node">
<title>Node29</title>
<g id="a_Node000029"><a xlink:href="Game_8cpp.html#a50e0248e5c26af68912796d9397e6599" target="_top" xlink:title=" ">
<polygon fill="white" stroke="#666666" points="448,-93 362,-93 362,-74 448,-74 448,-93"/>
<text text-anchor="middle" x="405" y="-81" font-family="Helvetica,sans-Serif" font-size="10.00">IsSherbetLand</text>
</a>
</g>
</g>
<!-- Node22&#45;&gt;Node29 -->
<g id="edge39_Node000022_Node000029" class="edge">
<title>Node22&#45;&gt;Node29</title>
<g id="a_edge39_Node000022_Node000029"><a xlink:title=" ">
<path fill="none" stroke="#63b8ff" d="M257.93,-129.97C278.67,-121.88 309.57,-110.22 337,-101.5 343.1,-99.56 349.56,-97.65 355.96,-95.84"/>
<polygon fill="#63b8ff" stroke="#63b8ff" points="357.2,-99.13 365.91,-93.09 355.34,-92.38 357.2,-99.13"/>
</a>
</g>
</g>
<!-- Node30 -->
<g id="Node000030" class="node">
<title>Node30</title>
<g id="a_Node000030"><a xlink:href="Game_8cpp.html#a9fedd7b107c6b6e24e773784787a105c" target="_top" xlink:title=" ">
<polygon fill="white" stroke="#666666" points="444,-56 366,-56 366,-37 444,-37 444,-56"/>
<text text-anchor="middle" x="405" y="-44" font-family="Helvetica,sans-Serif" font-size="10.00">IsSkyscraper</text>
</a>
</g>
</g>
<!-- Node22&#45;&gt;Node30 -->
<g id="edge40_Node000022_Node000030" class="edge">
<title>Node22&#45;&gt;Node30</title>
<g id="a_edge40_Node000022_Node000030"><a xlink:title=" ">
<path fill="none" stroke="#63b8ff" d="M244.28,-129.98C261.92,-114.14 299.68,-82.34 337,-64.5 343.06,-61.6 349.66,-59.11 356.27,-56.99"/>
<polygon fill="#63b8ff" stroke="#63b8ff" points="357.32,-60.33 365.92,-54.14 355.34,-53.62 357.32,-60.33"/>
</a>
</g>
</g>
<!-- Node24 -->
<g id="Node000024" class="node">
<title>Node24</title>
<g id="a_Node000024"><a xlink:href="effects_8c.html#a7e9518ba542378bf7248d848a2391138" target="_top" xlink:title=" ">
<polygon fill="white" stroke="#666666" points="617.5,-19 528.5,-19 528.5,0 617.5,0 617.5,-19"/>
<text text-anchor="middle" x="573" y="-7" font-family="Helvetica,sans-Serif" font-size="10.00">CM_Waypoints</text>
</a>
</g>
</g>
<!-- Node23&#45;&gt;Node24 -->
<g id="edge34_Node000023_Node000024" class="edge">
<title>Node23&#45;&gt;Node24</title>
<g id="a_edge34_Node000023_Node000024"><a xlink:title=" ">
<path fill="none" stroke="#63b8ff" d="M450.92,-9.5C471.73,-9.5 496.61,-9.5 518.39,-9.5"/>
<polygon fill="#63b8ff" stroke="#63b8ff" points="518.48,-13 528.48,-9.5 518.48,-6 518.48,-13"/>
</a>
</g>
</g>
<!-- Node32 -->
<g id="Node000032" class="node">
<title>Node32</title>
<g id="a_Node000032"><a xlink:href="external_8c.html#a028d40421b90c38f68ebfd5acc626f2e" target="_top" xlink:title=" ">
<polygon fill="white" stroke="#666666" points="765,-1016 673,-1016 673,-997 765,-997 765,-1016"/>
<text text-anchor="middle" x="719" y="-1004" font-family="Helvetica,sans-Serif" font-size="10.00">func_800C5578</text>
</a>
</g>
</g>
<!-- Node31&#45;&gt;Node32 -->
<g id="edge42_Node000031_Node000032" class="edge">
<title>Node31&#45;&gt;Node32</title>
<g id="a_edge42_Node000031_Node000032"><a xlink:title=" ">
<path fill="none" stroke="#63b8ff" d="M619.17,-1006.5C632.97,-1006.5 648.31,-1006.5 662.71,-1006.5"/>
<polygon fill="#63b8ff" stroke="#63b8ff" points="662.99,-1010 672.99,-1006.5 662.99,-1003 662.99,-1010"/>
</a>
</g>
</g>
<!-- Node33 -->
<g id="Node000033" class="node">
<title>Node33</title>
<g id="a_Node000033"><a xlink:href="external_8c.html#ac0fb767de7e14a03f1bcfa53f0abd23b" target="_top" xlink:title=" ">
<polygon fill="white" stroke="#666666" points="941,-1053 801,-1053 801,-1034 941,-1034 941,-1053"/>
<text text-anchor="middle" x="871" y="-1041" font-family="Helvetica,sans-Serif" font-size="10.00">delete_sound_from_bank</text>
</a>
</g>
</g>
<!-- Node32&#45;&gt;Node33 -->
<g id="edge43_Node000032_Node000033" class="edge">
<title>Node32&#45;&gt;Node33</title>
<g id="a_edge43_Node000032_Node000033"><a xlink:title=" ">
<path fill="none" stroke="#63b8ff" d="M758.63,-1016.03C777.8,-1020.76 801.16,-1026.52 821.52,-1031.54"/>
<polygon fill="#63b8ff" stroke="#63b8ff" points="820.69,-1034.94 831.24,-1033.94 822.37,-1028.15 820.69,-1034.94"/>
</a>
</g>
</g>
<!-- Node35 -->
<g id="Node000035" class="node">
<title>Node35</title>
<g id="a_Node000035"><a xlink:href="external_8c.html#ab83bd36e63f0f1baddcb2482b5ad31b0" target="_top" xlink:title=" ">
<polygon fill="white" stroke="#666666" points="917.5,-1016 824.5,-1016 824.5,-997 917.5,-997 917.5,-1016"/>
<text text-anchor="middle" x="871" y="-1004" font-family="Helvetica,sans-Serif" font-size="10.00">func_800C41CC</text>
</a>
</g>
</g>
<!-- Node32&#45;&gt;Node35 -->
<g id="edge45_Node000032_Node000035" class="edge">
<title>Node32&#45;&gt;Node35</title>
<g id="a_edge45_Node000032_Node000035"><a xlink:title=" ">
<path fill="none" stroke="#63b8ff" d="M765,-1006.5C780.37,-1006.5 797.74,-1006.5 813.86,-1006.5"/>
<polygon fill="#63b8ff" stroke="#63b8ff" points="814.25,-1010 824.25,-1006.5 814.25,-1003 814.25,-1010"/>
</a>
</g>
</g>
<!-- Node36 -->
<g id="Node000036" class="node">
<title>Node36</title>
<g id="a_Node000036"><a xlink:href="port__eu_8c.html#aa89dfaecca46c6d071f08c1898d1f7c9" target="_top" xlink:title=" ">
<polygon fill="white" stroke="#666666" points="917.5,-979 824.5,-979 824.5,-960 917.5,-960 917.5,-979"/>
<text text-anchor="middle" x="871" y="-967" font-family="Helvetica,sans-Serif" font-size="10.00">func_800CBBE8</text>
</a>
</g>
</g>
<!-- Node32&#45;&gt;Node36 -->
<g id="edge46_Node000032_Node000036" class="edge">
<title>Node32&#45;&gt;Node36</title>
<g id="a_edge46_Node000032_Node000036"><a xlink:title=" ">
<path fill="none" stroke="#63b8ff" d="M758.63,-996.97C777.8,-992.24 801.16,-986.48 821.52,-981.46"/>
<polygon fill="#63b8ff" stroke="#63b8ff" points="822.37,-984.85 831.24,-979.06 820.69,-978.06 822.37,-984.85"/>
</a>
</g>
</g>
<!-- Node34 -->
<g id="Node000034" class="node">
<title>Node34</title>
<g id="a_Node000034"><a xlink:href="external_8c.html#a358ac55e8ab5262dcae8037334be06d7" target="_top" xlink:title=" ">
<polygon fill="white" stroke="#666666" points="1069.5,-1053 977.5,-1053 977.5,-1034 1069.5,-1034 1069.5,-1053"/>
<text text-anchor="middle" x="1023.5" y="-1041" font-family="Helvetica,sans-Serif" font-size="10.00">func_800C40F0</text>
</a>
</g>
</g>
<!-- Node33&#45;&gt;Node34 -->
<g id="edge44_Node000033_Node000034" class="edge">
<title>Node33&#45;&gt;Node34</title>
<g id="a_edge44_Node000033_Node000034"><a xlink:title=" ">
<path fill="none" stroke="#63b8ff" d="M941.08,-1043.5C949.87,-1043.5 958.78,-1043.5 967.31,-1043.5"/>
<polygon fill="#63b8ff" stroke="#63b8ff" points="967.5,-1047 977.5,-1043.5 967.5,-1040 967.5,-1047"/>
</a>
</g>
</g>
<!-- Node37 -->
<g id="Node000037" class="node">
<title>Node37</title>
<g id="a_Node000037"><a xlink:href="port__eu_8c.html#af361a20d2e08f30c53a237ca481ff734" target="_top" xlink:title=" ">
<polygon fill="white" stroke="#666666" points="1070,-979 977,-979 977,-960 1070,-960 1070,-979"/>
<text text-anchor="middle" x="1023.5" y="-967" font-family="Helvetica,sans-Serif" font-size="10.00">func_800CBB48</text>
</a>
</g>
</g>
<!-- Node36&#45;&gt;Node37 -->
<g id="edge47_Node000036_Node000037" class="edge">
<title>Node36&#45;&gt;Node37</title>
<g id="a_edge47_Node000036_Node000037"><a xlink:title=" ">
<path fill="none" stroke="#63b8ff" d="M917.56,-969.5C932.96,-969.5 950.34,-969.5 966.46,-969.5"/>
<polygon fill="#63b8ff" stroke="#63b8ff" points="966.83,-973 976.83,-969.5 966.83,-966 966.83,-973"/>
</a>
</g>
</g>
<!-- Node38&#45;&gt;Node5 -->
<g id="edge49_Node000038_Node000005" class="edge">
<title>Node38&#45;&gt;Node5</title>
<g id="a_edge49_Node000038_Node000005"><a xlink:title=" ">
<path fill="none" stroke="#63b8ff" d="M297.65,-756.38C346.24,-750.1 414.55,-739.43 473,-723.5 496.55,-717.08 522.27,-707.11 541.58,-699"/>
<polygon fill="#63b8ff" stroke="#63b8ff" points="542.96,-702.22 550.79,-695.07 540.21,-695.78 542.96,-702.22"/>
</a>
</g>
</g>
<!-- Node38&#45;&gt;Node9 -->
<g id="edge60_Node000038_Node000009" class="edge">
<title>Node38&#45;&gt;Node9</title>
<g id="a_edge60_Node000038_Node000009"><a xlink:title=" ">
<path fill="none" stroke="#63b8ff" d="M251.43,-748.29C266.93,-733.75 288.95,-710.41 301,-685.5 337.66,-609.7 280.05,-561.52 337,-499.5 339.07,-497.25 341.39,-495.25 343.88,-493.49"/>
<polygon fill="#63b8ff" stroke="#63b8ff" points="345.97,-496.32 352.93,-488.34 342.51,-490.24 345.97,-496.32"/>
</a>
</g>
</g>
<!-- Node38&#45;&gt;Node13 -->
<g id="edge50_Node000038_Node000013" class="edge">
<title>Node38&#45;&gt;Node13</title>
<g id="a_edge50_Node000038_Node000013"><a xlink:title=" ">
<path fill="none" stroke="#63b8ff" d="M277.34,-748.46C304.99,-738.86 340.46,-726.55 366.82,-717.4"/>
<polygon fill="#63b8ff" stroke="#63b8ff" points="368.15,-720.65 376.45,-714.06 365.85,-714.03 368.15,-720.65"/>
</a>
</g>
</g>
<!-- Node39 -->
<g id="Node000039" class="node">
<title>Node39</title>
<g id="a_Node000039"><a xlink:href="classOLakitu.html#a0cac83a1d61e692dbbaa42b846db238d" target="_top" xlink:title=" ">
<polygon fill="white" stroke="#666666" points="472,-978 338,-978 338,-959 472,-959 472,-978"/>
<text text-anchor="middle" x="405" y="-966" font-family="Helvetica,sans-Serif" font-size="10.00">OLakitu::func_800791F0</text>
</a>
</g>
</g>
<!-- Node38&#45;&gt;Node39 -->
<g id="edge51_Node000038_Node000039" class="edge">
<title>Node38&#45;&gt;Node39</title>
<g id="a_edge51_Node000038_Node000039"><a xlink:title=" ">
<path fill="none" stroke="#63b8ff" d="M250.05,-778.6C264.02,-792.02 284.55,-812.42 301,-831.5 336.1,-872.23 372.97,-923.72 391.62,-950.48"/>
<polygon fill="#63b8ff" stroke="#63b8ff" points="388.85,-952.64 397.42,-958.86 394.6,-948.65 388.85,-952.64"/>
</a>
</g>
</g>
<!-- Node41 -->
<g id="Node000041" class="node">
<title>Node41</title>
<g id="a_Node000041"><a xlink:href="code__80086E70_8c.html#ad844d2fe27c3f0bb5979715fae72559a" target="_top" xlink:title=" ">
<polygon fill="white" stroke="#666666" points="450.5,-790 359.5,-790 359.5,-771 450.5,-771 450.5,-790"/>
<text text-anchor="middle" x="405" y="-778" font-family="Helvetica,sans-Serif" font-size="10.00">func_80086E70</text>
</a>
</g>
</g>
<!-- Node38&#45;&gt;Node41 -->
<g id="edge55_Node000038_Node000041" class="edge">
<title>Node38&#45;&gt;Node41</title>
<g id="a_edge55_Node000038_Node000041"><a xlink:title=" ">
<path fill="none" stroke="#63b8ff" d="M297.79,-769.88C314.79,-771.58 333.01,-773.4 349.48,-775.05"/>
<polygon fill="#63b8ff" stroke="#63b8ff" points="349.17,-778.53 359.47,-776.05 349.87,-771.57 349.17,-778.53"/>
</a>
</g>
</g>
<!-- Node42 -->
<g id="Node000042" class="node">
<title>Node42</title>
<g id="a_Node000042"><a xlink:href="external_8c.html#aeec25112a50d31b3f33d06325ab2ec7d" target="_top" xlink:title=" ">
<polygon fill="white" stroke="#666666" points="451,-864 359,-864 359,-845 451,-845 451,-864"/>
<text text-anchor="middle" x="405" y="-852" font-family="Helvetica,sans-Serif" font-size="10.00">func_800C8F80</text>
</a>
</g>
</g>
<!-- Node38&#45;&gt;Node42 -->
<g id="edge57_Node000038_Node000042" class="edge">
<title>Node38&#45;&gt;Node42</title>
<g id="a_edge57_Node000038_Node000042"><a xlink:title=" ">
<path fill="none" stroke="#63b8ff" d="M251.39,-778.78C270.94,-795.23 304.27,-821.11 337,-836.5 341.1,-838.43 345.43,-840.17 349.85,-841.76"/>
<polygon fill="#63b8ff" stroke="#63b8ff" points="349,-845.16 359.6,-844.95 351.19,-838.51 349,-845.16"/>
</a>
</g>
</g>
<!-- Node44 -->
<g id="Node000044" class="node">
<title>Node44</title>
<g id="a_Node000044"><a xlink:href="update__objects_8c.html#add0bf98084e3359319c40487d800d428" target="_top" xlink:title=" ">
<polygon fill="white" stroke="#666666" points="459,-827 351,-827 351,-808 459,-808 459,-827"/>
<text text-anchor="middle" x="405" y="-815" font-family="Helvetica,sans-Serif" font-size="10.00">init_texture_object</text>
</a>
</g>
</g>
<!-- Node38&#45;&gt;Node44 -->
<g id="edge59_Node000038_Node000044" class="edge">
<title>Node38&#45;&gt;Node44</title>
<g id="a_edge59_Node000038_Node000044"><a xlink:title=" ">
<path fill="none" stroke="#63b8ff" d="M274.87,-778.56C293.68,-785.3 316.37,-793.13 337,-799.5 343.42,-801.48 350.22,-803.45 356.93,-805.33"/>
<polygon fill="#63b8ff" stroke="#63b8ff" points="356.08,-808.72 366.65,-807.99 357.93,-801.97 356.08,-808.72"/>
</a>
</g>
</g>
<!-- Node39&#45;&gt;Node2 -->
<g id="edge53_Node000039_Node000002" class="edge">
<title>Node39&#45;&gt;Node2</title>
<g id="a_edge53_Node000039_Node000002"><a xlink:title=" ">
<path fill="none" stroke="#63b8ff" d="M419.87,-978.02C448.48,-997.67 514.3,-1042.87 549.24,-1066.87"/>
<polygon fill="#63b8ff" stroke="#63b8ff" points="547.6,-1069.99 557.82,-1072.76 551.56,-1064.22 547.6,-1069.99"/>
</a>
</g>
</g>
<!-- Node39&#45;&gt;Node31 -->
<g id="edge54_Node000039_Node000031" class="edge">
<title>Node39&#45;&gt;Node31</title>
<g id="a_edge54_Node000039_Node000031"><a xlink:title=" ">
<path fill="none" stroke="#63b8ff" d="M447.89,-978.09C469.89,-983.13 497.05,-989.34 520.35,-994.68"/>
<polygon fill="#63b8ff" stroke="#63b8ff" points="519.88,-998.16 530.41,-996.98 521.45,-991.34 519.88,-998.16"/>
</a>
</g>
</g>
<!-- Node40 -->
<g id="Node000040" class="node">
<title>Node40</title>
<g id="a_Node000040"><a xlink:href="Game_8cpp.html#a3416a195a0c7be6ec3783bbf4842dc3e" target="_top" xlink:title=" ">
<polygon fill="white" stroke="#666666" points="614,-978 532,-978 532,-959 614,-959 614,-978"/>
<text text-anchor="middle" x="573" y="-966" font-family="Helvetica,sans-Serif" font-size="10.00">CM_GetProps</text>
</a>
</g>
</g>
<!-- Node39&#45;&gt;Node40 -->
<g id="edge52_Node000039_Node000040" class="edge">
<title>Node39&#45;&gt;Node40</title>
<g id="a_edge52_Node000039_Node000040"><a xlink:title=" ">
<path fill="none" stroke="#63b8ff" d="M472.08,-968.5C488.7,-968.5 506.26,-968.5 521.94,-968.5"/>
<polygon fill="#63b8ff" stroke="#63b8ff" points="521.95,-972 531.95,-968.5 521.95,-965 521.95,-972"/>
</a>
</g>
</g>
<!-- Node41&#45;&gt;Node5 -->
<g id="edge56_Node000041_Node000005" class="edge">
<title>Node41&#45;&gt;Node5</title>
<g id="a_edge56_Node000041_Node000005"><a xlink:title=" ">
<path fill="none" stroke="#63b8ff" d="M438.47,-770.9C449.69,-767.06 462.17,-762.18 473,-756.5 502.72,-740.91 533.64,-717.36 552.85,-701.72"/>
<polygon fill="#63b8ff" stroke="#63b8ff" points="555.33,-704.21 560.8,-695.14 550.86,-698.82 555.33,-704.21"/>
</a>
</g>
</g>
<!-- Node43 -->
<g id="Node000043" class="node">
<title>Node43</title>
<g id="a_Node000043"><a xlink:href="external_8c.html#a475cff796211891556f52877cd8e9b9e" target="_top" xlink:title=" ">
<polygon fill="white" stroke="#666666" points="609,-864 537,-864 537,-845 609,-845 609,-864"/>
<text text-anchor="middle" x="573" y="-852" font-family="Helvetica,sans-Serif" font-size="10.00">play_sound</text>
</a>
</g>
</g>
<!-- Node42&#45;&gt;Node43 -->
<g id="edge58_Node000042_Node000043" class="edge">
<title>Node42&#45;&gt;Node43</title>
<g id="a_edge58_Node000042_Node000043"><a xlink:title=" ">
<path fill="none" stroke="#63b8ff" d="M451.36,-854.5C474.86,-854.5 503.46,-854.5 526.92,-854.5"/>
<polygon fill="#63b8ff" stroke="#63b8ff" points="526.96,-858 536.96,-854.5 526.96,-851 526.96,-858"/>
</a>
</g>
</g>
</g>
</svg>
