<?xml version="1.0" encoding="UTF-8" standalone="no"?>
<!DOCTYPE svg PUBLIC "-//W3C//DTD SVG 1.1//EN"
 "http://www.w3.org/Graphics/SVG/1.1/DTD/svg11.dtd">
<!-- Generated by graphviz version 2.43.0 (0)
 -->
<!-- Title: OMoleGroup Pages: 1 -->
<!--zoomable 599 -->

<svg id="main" version="1.1" xmlns="http://www.w3.org/2000/svg" xmlns:xlink="http://www.w3.org/1999/xlink" xml:space="preserve" onload="init(evt)">

<style type="text/css"><![CDATA[
.node, .edge {opacity: 0.7;}
.node.selected, .edge.selected {opacity: 1;}
.edge:hover path { stroke: red; }
.edge:hover polygon { stroke: red; fill: red; }
]]></style>

<defs>
  <circle id="rim" cx="0" cy="0" r="7"/>
  <circle id="rim2" cx="0" cy="0" r="3.5"/>
  <g id="zoomPlus">
    <use xlink:href="#rim" fill="#404040"><set attributeName="fill" to="#808080" begin="zoomplus.mouseover" end="zoomplus.mouseout"/></use>
    <path d="M-4,0h8M0,-4v8" fill="none" stroke="white" stroke-width="1.5" pointer-events="none"/>
  </g>
  <g id="zoomMin">
    <use xlink:href="#rim" fill="#404040"><set attributeName="fill" to="#808080" begin="zoomminus.mouseover" end="zoomminus.mouseout"/></use>
    <path d="M-4,0h8" fill="none" stroke="white" stroke-width="1.5" pointer-events="none"/>
  </g>
  <g id="arrowUp" transform="translate(30 24)">
    <use xlink:href="#rim"/>
    <path pointer-events="none" fill="none" stroke="white" stroke-width="1.5" d="M0,-3.0v7 M-2.5,-0.5L0,-3.0L2.5,-0.5"/>
  </g>
  <g id="arrowRight" transform="rotate(90) translate(36 -43)">
    <use xlink:href="#rim"/>
    <path pointer-events="none" fill="none" stroke="white" stroke-width="1.5" d="M0,-3.0v7 M-2.5,-0.5L0,-3.0L2.5,-0.5"/>
  </g>
  <g id="arrowDown" transform="rotate(180) translate(-30 -48)">
    <use xlink:href="#rim"/>
    <path pointer-events="none" fill="none" stroke="white" stroke-width="1.5" d="M0,-3.0v7 M-2.5,-0.5L0,-3.0L2.5,-0.5"/>
  </g>
  <g id="arrowLeft" transform="rotate(270) translate(-36 17)">
    <use xlink:href="#rim"/>
    <path pointer-events="none" fill="none" stroke="white" stroke-width="1.5" d="M0,-3.0v7 M-2.5,-0.5L0,-3.0L2.5,-0.5"/>
  </g>
  <g id="resetDef">
    <use xlink:href="#rim2" fill="#404040"><set attributeName="fill" to="#808080" begin="reset.mouseover" end="reset.mouseout"/></use>
  </g>
</defs>
<script type="application/ecmascript">
var viewWidth = 993;
var viewHeight = 599;
var sectionId = 'dynsection-1';
</script>
<script type="application/ecmascript" xlink:href="svg.min.js"/>
<svg id="graph" class="graph">
<g id="viewport">
<title>OMoleGroup</title>
<!-- Node1 -->
<g id="Node000001" class="node">
<title>Node1</title>
<g id="a_Node000001"><a xlink:title=" ">
<polygon fill="#999999" stroke="#666666" points="246.5,-19 169.5,-19 169.5,0 246.5,0 246.5,-19"/>
<text text-anchor="middle" x="208" y="-7" font-family="Helvetica,sans-Serif" font-size="10.00">OMoleGroup</text>
</a>
</g>
</g>
<!-- Node2 -->
<g id="Node000002" class="node">
<title>Node2</title>
<g id="a_Node000002"><a xlink:href="classOObject.html" target="_top" xlink:title=" ">
<polygon fill="white" stroke="#666666" points="183,-90.5 127,-90.5 127,-71.5 183,-71.5 183,-90.5"/>
<text text-anchor="middle" x="155" y="-78.5" font-family="Helvetica,sans-Serif" font-size="10.00">OObject</text>
</a>
</g>
</g>
<!-- Node2&#45;&gt;Node1 -->
<g id="edge1_Node000001_Node000002" class="edge">
<title>Node2&#45;&gt;Node1</title>
<g id="a_edge1_Node000001_Node000002"><a xlink:title=" ">
<path fill="none" stroke="#63b8ff" d="M167.78,-63.24C178.4,-49.31 193.08,-30.07 201.45,-19.09"/>
<polygon fill="#63b8ff" stroke="#63b8ff" points="164.78,-61.4 161.5,-71.48 170.35,-65.65 164.78,-61.4"/>
</a>
</g>
</g>
<!-- Node3 -->
<g id="Node000003" class="node">
<title>Node3</title>
<g id="a_Node000003"><a xlink:title=" ">
<polygon fill="white" stroke="#666666" points="50,-162 0,-162 0,-143 50,-143 50,-162"/>
<text text-anchor="middle" x="25" y="-150" font-family="Helvetica,sans-Serif" font-size="10.00">uint8_t</text>
</a>
</g>
</g>
<!-- Node3&#45;&gt;Node2 -->
<g id="edge2_Node000002_Node000003" class="edge">
<title>Node3&#45;&gt;Node2</title>
<g id="a_edge2_Node000002_Node000003"><a xlink:title=" ">
<path fill="none" stroke="#9a32cd" stroke-dasharray="5,2" d="M32.17,-133.33C35.71,-126.42 40.61,-119 47,-114 70.1,-95.92 103.21,-88.04 126.67,-84.62"/>
<polygon fill="#9a32cd" stroke="#9a32cd" points="28.83,-132.22 27.95,-142.78 35.23,-135.07 28.83,-132.22"/>
</a>
</g>
<text text-anchor="middle" x="59.5" y="-117" font-family="Helvetica,sans-Serif" font-size="10.00" fill="grey"> uuid</text>
</g>
<!-- Node4 -->
<g id="Node000004" class="node">
<title>Node4</title>
<g id="a_Node000004"><a xlink:href="structObject.html" target="_top" xlink:title=" ">
<polygon fill="white" stroke="#666666" points="521,-162 473,-162 473,-143 521,-143 521,-162"/>
<text text-anchor="middle" x="497" y="-150" font-family="Helvetica,sans-Serif" font-size="10.00">Object</text>
</a>
</g>
</g>
<!-- Node4&#45;&gt;Node2 -->
<g id="edge3_Node000002_Node000004" class="edge">
<title>Node4&#45;&gt;Node2</title>
<g id="a_edge3_Node000002_Node000004"><a xlink:title=" ">
<path fill="none" stroke="#9a32cd" stroke-dasharray="5,2" d="M462.7,-147.33C405.77,-139.95 288.46,-122.79 192,-96 186.57,-94.49 180.83,-92.52 175.52,-90.52"/>
<polygon fill="#9a32cd" stroke="#9a32cd" points="462.58,-150.84 472.94,-148.64 463.46,-143.9 462.58,-150.84"/>
</a>
</g>
<text text-anchor="middle" x="321" y="-117" font-family="Helvetica,sans-Serif" font-size="10.00" fill="grey"> o</text>
</g>
<!-- Node5 -->
<g id="Node000005" class="node">
<title>Node5</title>
<g id="a_Node000005"><a xlink:title=" ">
<polygon fill="white" stroke="#666666" points="774,-338 742,-338 742,-319 774,-319 774,-338"/>
<text text-anchor="middle" x="758" y="-326" font-family="Helvetica,sans-Serif" font-size="10.00">f32</text>
</a>
</g>
</g>
<!-- Node5&#45;&gt;Node4 -->
<g id="edge4_Node000004_Node000005" class="edge">
<title>Node5&#45;&gt;Node4</title>
<g id="a_edge4_Node000004_Node000005"><a xlink:title=" ">
<path fill="none" stroke="#9a32cd" stroke-dasharray="5,2" d="M757.97,-308.77C757.49,-273.05 754.29,-197.21 736,-180 702.53,-148.51 575.29,-169.76 530,-162 527.08,-161.5 524.05,-160.87 521.05,-160.18"/>
<polygon fill="#9a32cd" stroke="#9a32cd" points="754.47,-308.86 758.05,-318.83 761.47,-308.8 754.47,-308.86"/>
</a>
</g>
<text text-anchor="middle" x="791.5" y="-276.5" font-family="Helvetica,sans-Serif" font-size="10.00" fill="grey"> offset</text>
<text text-anchor="middle" x="791.5" y="-265.5" font-family="Helvetica,sans-Serif" font-size="10.00" fill="grey">origin_pos</text>
<text text-anchor="middle" x="791.5" y="-254.5" font-family="Helvetica,sans-Serif" font-size="10.00" fill="grey">pos</text>
<text text-anchor="middle" x="791.5" y="-243.5" font-family="Helvetica,sans-Serif" font-size="10.00" fill="grey">sizeScaling</text>
<text text-anchor="middle" x="791.5" y="-232.5" font-family="Helvetica,sans-Serif" font-size="10.00" fill="grey">surfaceHeight</text>
<text text-anchor="middle" x="791.5" y="-221.5" font-family="Helvetica,sans-Serif" font-size="10.00" fill="grey">unk_01C</text>
<text text-anchor="middle" x="791.5" y="-210.5" font-family="Helvetica,sans-Serif" font-size="10.00" fill="grey">unk_034</text>
<text text-anchor="middle" x="791.5" y="-199.5" font-family="Helvetica,sans-Serif" font-size="10.00" fill="grey">velocity</text>
</g>
<!-- Node6 -->
<g id="Node000006" class="node">
<title>Node6</title>
<g id="a_Node000006"><a xlink:title=" ">
<polygon fill="white" stroke="#666666" points="398,-338 364,-338 364,-319 398,-319 398,-338"/>
<text text-anchor="middle" x="381" y="-326" font-family="Helvetica,sans-Serif" font-size="10.00">s32</text>
</a>
</g>
</g>
<!-- Node6&#45;&gt;Node2 -->
<g id="edge20_Node000002_Node000006" class="edge">
<title>Node6&#45;&gt;Node2</title>
<g id="a_edge20_Node000002_Node000006"><a xlink:title=" ">
<path fill="none" stroke="#9a32cd" stroke-dasharray="5,2" d="M353.78,-319.61C300.14,-312.84 196.08,-328.97 169,-301 110.97,-241.05 141.98,-123.4 152.16,-90.64"/>
<polygon fill="#9a32cd" stroke="#9a32cd" points="353.36,-323.09 363.8,-321.29 354.52,-316.19 353.36,-323.09"/>
</a>
</g>
<text text-anchor="middle" x="173" y="-150" font-family="Helvetica,sans-Serif" font-size="10.00" fill="grey"> _objectIndex</text>
</g>
<!-- Node6&#45;&gt;Node4 -->
<g id="edge5_Node000004_Node000006" class="edge">
<title>Node6&#45;&gt;Node4</title>
<g id="a_edge5_Node000004_Node000006"><a xlink:title=" ">
<path fill="none" stroke="#9a32cd" stroke-dasharray="5,2" d="M405.91,-313.06C410.16,-309.6 414.13,-305.56 417,-301 446.17,-254.68 406.36,-223.19 440,-180 448.11,-169.58 461.29,-163.09 472.93,-159.14"/>
<polygon fill="#9a32cd" stroke="#9a32cd" points="403.7,-310.34 397.59,-318.99 407.76,-316.04 403.7,-310.34"/>
</a>
</g>
<text text-anchor="middle" x="461.5" y="-265.5" font-family="Helvetica,sans-Serif" font-size="10.00" fill="grey"> status</text>
<text text-anchor="middle" x="461.5" y="-254.5" font-family="Helvetica,sans-Serif" font-size="10.00" fill="grey">timer</text>
<text text-anchor="middle" x="461.5" y="-243.5" font-family="Helvetica,sans-Serif" font-size="10.00" fill="grey">unk_048</text>
<text text-anchor="middle" x="461.5" y="-232.5" font-family="Helvetica,sans-Serif" font-size="10.00" fill="grey">unk_04C</text>
<text text-anchor="middle" x="461.5" y="-221.5" font-family="Helvetica,sans-Serif" font-size="10.00" fill="grey">unk_058</text>
<text text-anchor="middle" x="461.5" y="-210.5" font-family="Helvetica,sans-Serif" font-size="10.00" fill="grey">unk_05C</text>
</g>
<!-- Node7 -->
<g id="Node000007" class="node">
<title>Node7</title>
<g id="a_Node000007"><a xlink:title=" ">
<polygon fill="white" stroke="#666666" points="156,-338 118,-338 118,-319 156,-319 156,-338"/>
<text text-anchor="middle" x="137" y="-326" font-family="Helvetica,sans-Serif" font-size="10.00">char</text>
</a>
</g>
</g>
<!-- Node7&#45;&gt;Node2 -->
<g id="edge18_Node000002_Node000007" class="edge">
<title>Node7&#45;&gt;Node2</title>
<g id="a_edge18_Node000002_Node000007"><a xlink:title=" ">
<path fill="none" stroke="#9a32cd" stroke-dasharray="5,2" d="M127.03,-309.72C109.61,-276.15 77.49,-201.59 100,-143 108.59,-120.64 129.59,-101.36 143.02,-90.74"/>
<polygon fill="#9a32cd" stroke="#9a32cd" points="124.08,-311.6 131.9,-318.75 130.24,-308.29 124.08,-311.6"/>
</a>
</g>
<text text-anchor="middle" x="116.5" y="-150" font-family="Helvetica,sans-Serif" font-size="10.00" fill="grey"> Name</text>
</g>
<!-- Node7&#45;&gt;Node4 -->
<g id="edge6_Node000004_Node000007" class="edge">
<title>Node7&#45;&gt;Node4</title>
<g id="a_edge6_Node000004_Node000007"><a xlink:title=" ">
<path fill="none" stroke="#9a32cd" stroke-dasharray="5,2" d="M137.65,-308.37C139.89,-276.07 149.48,-211.19 190,-180 212.26,-162.87 404.58,-156.01 472.98,-154.1"/>
<polygon fill="#9a32cd" stroke="#9a32cd" points="134.14,-308.51 137.12,-318.68 141.13,-308.87 134.14,-308.51"/>
</a>
</g>
<text text-anchor="middle" x="223.5" y="-249" font-family="Helvetica,sans-Serif" font-size="10.00" fill="grey"> activeTLUT</text>
<text text-anchor="middle" x="223.5" y="-238" font-family="Helvetica,sans-Serif" font-size="10.00" fill="grey">activeTexture</text>
<text text-anchor="middle" x="223.5" y="-227" font-family="Helvetica,sans-Serif" font-size="10.00" fill="grey">textureList</text>
</g>
<!-- Node8 -->
<g id="Node000008" class="node">
<title>Node8</title>
<g id="a_Node000008"><a xlink:title=" ">
<polygon fill="white" stroke="#666666" points="864.5,-338 835.5,-338 835.5,-319 864.5,-319 864.5,-338"/>
<text text-anchor="middle" x="850" y="-326" font-family="Helvetica,sans-Serif" font-size="10.00">u8</text>
</a>
</g>
</g>
<!-- Node8&#45;&gt;Node4 -->
<g id="edge7_Node000004_Node000008" class="edge">
<title>Node8&#45;&gt;Node4</title>
<g id="a_edge7_Node000004_Node000008"><a xlink:title=" ">
<path fill="none" stroke="#9a32cd" stroke-dasharray="5,2" d="M850.01,-308.72C849.6,-272.93 846.52,-196.96 828,-180 803.54,-157.6 562.77,-167.16 530,-162 527.08,-161.54 524.04,-160.94 521.04,-160.26"/>
<polygon fill="#9a32cd" stroke="#9a32cd" points="846.51,-308.83 850.07,-318.81 853.51,-308.79 846.51,-308.83"/>
</a>
</g>
<text text-anchor="middle" x="884.5" y="-293" font-family="Helvetica,sans-Serif" font-size="10.00" fill="grey"> textureHeight</text>
<text text-anchor="middle" x="884.5" y="-282" font-family="Helvetica,sans-Serif" font-size="10.00" fill="grey">textureWidth</text>
<text text-anchor="middle" x="884.5" y="-271" font-family="Helvetica,sans-Serif" font-size="10.00" fill="grey">tlutList</text>
<text text-anchor="middle" x="884.5" y="-260" font-family="Helvetica,sans-Serif" font-size="10.00" fill="grey">unk_0D5</text>
<text text-anchor="middle" x="884.5" y="-249" font-family="Helvetica,sans-Serif" font-size="10.00" fill="grey">unk_0D6</text>
<text text-anchor="middle" x="884.5" y="-238" font-family="Helvetica,sans-Serif" font-size="10.00" fill="grey">unk_0D7</text>
<text text-anchor="middle" x="884.5" y="-227" font-family="Helvetica,sans-Serif" font-size="10.00" fill="grey">unk_0D8</text>
<text text-anchor="middle" x="884.5" y="-216" font-family="Helvetica,sans-Serif" font-size="10.00" fill="grey">unk_0DB</text>
<text text-anchor="middle" x="884.5" y="-205" font-family="Helvetica,sans-Serif" font-size="10.00" fill="grey">unk_0DC</text>
<text text-anchor="middle" x="884.5" y="-194" font-family="Helvetica,sans-Serif" font-size="10.00" fill="grey">unk_0DD</text>
<text text-anchor="middle" x="884.5" y="-183" font-family="Helvetica,sans-Serif" font-size="10.00" fill="grey">...</text>
</g>
<!-- Node9 -->
<g id="Node000009" class="node">
<title>Node9</title>
<g id="a_Node000009"><a xlink:title=" ">
<polygon fill="white" stroke="#666666" points="961,-338 927,-338 927,-319 961,-319 961,-338"/>
<text text-anchor="middle" x="944" y="-326" font-family="Helvetica,sans-Serif" font-size="10.00">Gfx</text>
</a>
</g>
</g>
<!-- Node9&#45;&gt;Node4 -->
<g id="edge8_Node000004_Node000009" class="edge">
<title>Node9&#45;&gt;Node4</title>
<g id="a_edge8_Node000004_Node000009"><a xlink:title=" ">
<path fill="none" stroke="#9a32cd" stroke-dasharray="5,2" d="M947.82,-308.67C953.06,-276.82 958.12,-212.6 922,-180 889.63,-150.78 573.12,-168.47 530,-162 527.07,-161.56 524.03,-160.97 521.03,-160.3"/>
<polygon fill="#9a32cd" stroke="#9a32cd" points="944.32,-308.36 945.96,-318.82 951.21,-309.62 944.32,-308.36"/>
</a>
</g>
<text text-anchor="middle" x="968" y="-238" font-family="Helvetica,sans-Serif" font-size="10.00" fill="grey"> model</text>
</g>
<!-- Node10 -->
<g id="Node000010" class="node">
<title>Node10</title>
<g id="a_Node000010"><a xlink:title=" ">
<polygon fill="white" stroke="#666666" points="294.5,-338 261.5,-338 261.5,-319 294.5,-319 294.5,-338"/>
<text text-anchor="middle" x="278" y="-326" font-family="Helvetica,sans-Serif" font-size="10.00">Vtx</text>
</a>
</g>
</g>
<!-- Node10&#45;&gt;Node4 -->
<g id="edge9_Node000004_Node000010" class="edge">
<title>Node10&#45;&gt;Node4</title>
<g id="a_edge9_Node000004_Node000010"><a xlink:title=" ">
<path fill="none" stroke="#9a32cd" stroke-dasharray="5,2" d="M271.85,-308.85C262.91,-277.79 250.66,-215.36 283,-180 308.01,-152.65 422.35,-151.75 472.87,-152.75"/>
<polygon fill="#9a32cd" stroke="#9a32cd" points="268.62,-310.25 274.91,-318.77 275.31,-308.18 268.62,-310.25"/>
</a>
</g>
<text text-anchor="middle" x="300.5" y="-238" font-family="Helvetica,sans-Serif" font-size="10.00" fill="grey"> vertex</text>
</g>
<!-- Node11 -->
<g id="Node000011" class="node">
<title>Node11</title>
<g id="a_Node000011"><a xlink:title=" ">
<polygon fill="white" stroke="#666666" points="345.5,-338 316.5,-338 316.5,-319 345.5,-319 345.5,-338"/>
<text text-anchor="middle" x="331" y="-326" font-family="Helvetica,sans-Serif" font-size="10.00">s8</text>
</a>
</g>
</g>
<!-- Node11&#45;&gt;Node4 -->
<g id="edge10_Node000004_Node000011" class="edge">
<title>Node11&#45;&gt;Node4</title>
<g id="a_edge10_Node000004_Node000011"><a xlink:title=" ">
<path fill="none" stroke="#9a32cd" stroke-dasharray="5,2" d="M328.44,-309.05C323.99,-273.82 316.77,-198.81 333,-180 350.81,-159.37 431.71,-154.76 472.84,-153.76"/>
<polygon fill="#9a32cd" stroke="#9a32cd" points="324.97,-309.51 329.75,-318.97 331.91,-308.59 324.97,-309.51"/>
</a>
</g>
<text text-anchor="middle" x="373" y="-293" font-family="Helvetica,sans-Serif" font-size="10.00" fill="grey"> isTimerActive</text>
<text text-anchor="middle" x="373" y="-282" font-family="Helvetica,sans-Serif" font-size="10.00" fill="grey">textureListIndex</text>
<text text-anchor="middle" x="373" y="-271" font-family="Helvetica,sans-Serif" font-size="10.00" fill="grey">unk_078</text>
<text text-anchor="middle" x="373" y="-260" font-family="Helvetica,sans-Serif" font-size="10.00" fill="grey">unk_0CA</text>
<text text-anchor="middle" x="373" y="-249" font-family="Helvetica,sans-Serif" font-size="10.00" fill="grey">unk_0CC</text>
<text text-anchor="middle" x="373" y="-238" font-family="Helvetica,sans-Serif" font-size="10.00" fill="grey">unk_0CD</text>
<text text-anchor="middle" x="373" y="-227" font-family="Helvetica,sans-Serif" font-size="10.00" fill="grey">unk_0CE</text>
<text text-anchor="middle" x="373" y="-216" font-family="Helvetica,sans-Serif" font-size="10.00" fill="grey">unk_0CF</text>
<text text-anchor="middle" x="373" y="-205" font-family="Helvetica,sans-Serif" font-size="10.00" fill="grey">unk_0D0</text>
<text text-anchor="middle" x="373" y="-194" font-family="Helvetica,sans-Serif" font-size="10.00" fill="grey">unk_0D1</text>
<text text-anchor="middle" x="373" y="-183" font-family="Helvetica,sans-Serif" font-size="10.00" fill="grey">...</text>
</g>
<!-- Node12 -->
<g id="Node000012" class="node">
<title>Node12</title>
<g id="a_Node000012"><a xlink:href="structSplineControlPoint.html" target="_top" xlink:title=" ">
<polygon fill="white" stroke="#666666" points="499.5,-514 392.5,-514 392.5,-495 499.5,-495 499.5,-514"/>
<text text-anchor="middle" x="446" y="-502" font-family="Helvetica,sans-Serif" font-size="10.00">SplineControlPoint</text>
</a>
</g>
</g>
<!-- Node12&#45;&gt;Node4 -->
<g id="edge11_Node000004_Node000012" class="edge">
<title>Node12&#45;&gt;Node4</title>
<g id="a_edge11_Node000004_Node000012"><a xlink:title=" ">
<path fill="none" stroke="#9a32cd" stroke-dasharray="5,2" d="M445.55,-484.8C444.84,-454.14 443.48,-391.26 443,-338 442.92,-329.56 438.41,-326.09 443,-319 453.59,-302.63 471.65,-316.85 483,-301 514.29,-257.29 503.82,-186.64 498.92,-162.17"/>
<polygon fill="#9a32cd" stroke="#9a32cd" points="442.05,-484.97 445.79,-494.89 449.05,-484.81 442.05,-484.97"/>
</a>
</g>
<text text-anchor="middle" x="476.5" y="-326" font-family="Helvetica,sans-Serif" font-size="10.00" fill="grey"> controlPoints</text>
</g>
<!-- Node14 -->
<g id="Node000014" class="node">
<title>Node14</title>
<g id="a_Node000014"><a xlink:href="structSplineData.html" target="_top" xlink:title=" ">
<polygon fill="white" stroke="#666666" points="589,-338 519,-338 519,-319 589,-319 589,-338"/>
<text text-anchor="middle" x="554" y="-326" font-family="Helvetica,sans-Serif" font-size="10.00">SplineData</text>
</a>
</g>
</g>
<!-- Node12&#45;&gt;Node14 -->
<g id="edge15_Node000014_Node000012" class="edge">
<title>Node12&#45;&gt;Node14</title>
<g id="a_edge15_Node000014_Node000012"><a xlink:title=" ">
<path fill="none" stroke="#9a32cd" stroke-dasharray="5,2" d="M446.38,-484.63C447.47,-449.29 451.7,-374.96 468,-356 474.82,-348.06 498.07,-341.17 518.67,-336.41"/>
<polygon fill="#9a32cd" stroke="#9a32cd" points="442.87,-484.9 446.12,-494.99 449.87,-485.08 442.87,-484.9"/>
</a>
</g>
<text text-anchor="middle" x="501.5" y="-414" font-family="Helvetica,sans-Serif" font-size="10.00" fill="grey"> controlPoints</text>
</g>
<!-- Node13 -->
<g id="Node000013" class="node">
<title>Node13</title>
<g id="a_Node000013"><a xlink:title=" ">
<polygon fill="white" stroke="#666666" points="553,-591 519,-591 519,-572 553,-572 553,-591"/>
<text text-anchor="middle" x="536" y="-579" font-family="Helvetica,sans-Serif" font-size="10.00">s16</text>
</a>
</g>
</g>
<!-- Node13&#45;&gt;Node4 -->
<g id="edge16_Node000004_Node000013" class="edge">
<title>Node13&#45;&gt;Node4</title>
<g id="a_edge16_Node000004_Node000013"><a xlink:title=" ">
<path fill="none" stroke="#9a32cd" stroke-dasharray="5,2" d="M562.47,-571.44C586.78,-561.53 621.33,-543.08 637,-514 641.01,-506.57 637.7,-503.42 637,-495 631.09,-424.26 630.85,-233.32 584,-180 581.85,-177.55 546.33,-167.25 521.35,-160.24"/>
<polygon fill="#9a32cd" stroke="#9a32cd" points="561.15,-568.19 553.08,-575.05 563.67,-574.72 561.15,-568.19"/>
</a>
</g>
<text text-anchor="middle" x="662" y="-469" font-family="Helvetica,sans-Serif" font-size="10.00" fill="grey"> primAlpha</text>
<text text-anchor="middle" x="662" y="-458" font-family="Helvetica,sans-Serif" font-size="10.00" fill="grey">state</text>
<text text-anchor="middle" x="662" y="-447" font-family="Helvetica,sans-Serif" font-size="10.00" fill="grey">type</text>
<text text-anchor="middle" x="662" y="-436" font-family="Helvetica,sans-Serif" font-size="10.00" fill="grey">unk_084</text>
<text text-anchor="middle" x="662" y="-425" font-family="Helvetica,sans-Serif" font-size="10.00" fill="grey">unk_09C</text>
<text text-anchor="middle" x="662" y="-414" font-family="Helvetica,sans-Serif" font-size="10.00" fill="grey">unk_09E</text>
<text text-anchor="middle" x="662" y="-403" font-family="Helvetica,sans-Serif" font-size="10.00" fill="grey">unk_0A2</text>
<text text-anchor="middle" x="662" y="-392" font-family="Helvetica,sans-Serif" font-size="10.00" fill="grey">unk_0A8</text>
<text text-anchor="middle" x="662" y="-381" font-family="Helvetica,sans-Serif" font-size="10.00" fill="grey">unk_0AA</text>
<text text-anchor="middle" x="662" y="-370" font-family="Helvetica,sans-Serif" font-size="10.00" fill="grey">unk_0AC</text>
<text text-anchor="middle" x="662" y="-359" font-family="Helvetica,sans-Serif" font-size="10.00" fill="grey">...</text>
</g>
<!-- Node13&#45;&gt;Node12 -->
<g id="edge12_Node000012_Node000013" class="edge">
<title>Node13&#45;&gt;Node12</title>
<g id="a_edge12_Node000012_Node000013"><a xlink:title=" ">
<path fill="none" stroke="#9a32cd" stroke-dasharray="5,2" d="M509.48,-570.53C500.21,-566.29 490.1,-560.74 482,-554 468.14,-542.46 456.65,-524.53 450.61,-514.01"/>
<polygon fill="#9a32cd" stroke="#9a32cd" points="508.15,-573.77 518.72,-574.48 510.9,-567.33 508.15,-573.77"/>
</a>
</g>
<text text-anchor="middle" x="502" y="-546" font-family="Helvetica,sans-Serif" font-size="10.00" fill="grey"> pos</text>
<text text-anchor="middle" x="502" y="-535" font-family="Helvetica,sans-Serif" font-size="10.00" fill="grey">velocity</text>
</g>
<!-- Node13&#45;&gt;Node14 -->
<g id="edge14_Node000014_Node000013" class="edge">
<title>Node13&#45;&gt;Node14</title>
<g id="a_edge14_Node000014_Node000013"><a xlink:title=" ">
<path fill="none" stroke="#9a32cd" stroke-dasharray="5,2" d="M537.35,-561.73C540.97,-511.23 550.82,-373.86 553.38,-338.1"/>
<polygon fill="#9a32cd" stroke="#9a32cd" points="533.84,-561.64 536.62,-571.86 540.83,-562.14 533.84,-561.64"/>
</a>
</g>
<text text-anchor="middle" x="587.5" y="-502" font-family="Helvetica,sans-Serif" font-size="10.00" fill="grey"> numControlPoints</text>
</g>
<!-- Node14&#45;&gt;Node4 -->
<g id="edge13_Node000004_Node000014" class="edge">
<title>Node14&#45;&gt;Node4</title>
<g id="a_edge13_Node000004_Node000014"><a xlink:title=" ">
<path fill="none" stroke="#9a32cd" stroke-dasharray="5,2" d="M549.86,-308.9C543.26,-280.52 529.22,-224.98 511,-180 508.5,-173.83 505,-167.2 502.12,-162.12"/>
<polygon fill="#9a32cd" stroke="#9a32cd" points="546.52,-310.01 552.16,-318.98 553.35,-308.45 546.52,-310.01"/>
</a>
</g>
<text text-anchor="middle" x="563.5" y="-238" font-family="Helvetica,sans-Serif" font-size="10.00" fill="grey"> spline</text>
</g>
<!-- Node15 -->
<g id="Node000015" class="node">
<title>Node15</title>
<g id="a_Node000015"><a xlink:title=" ">
<polygon fill="white" stroke="#666666" points="680.5,-338 645.5,-338 645.5,-319 680.5,-319 680.5,-338"/>
<text text-anchor="middle" x="663" y="-326" font-family="Helvetica,sans-Serif" font-size="10.00">u16</text>
</a>
</g>
</g>
<!-- Node15&#45;&gt;Node4 -->
<g id="edge17_Node000004_Node000015" class="edge">
<title>Node15&#45;&gt;Node4</title>
<g id="a_edge17_Node000004_Node000015"><a xlink:title=" ">
<path fill="none" stroke="#9a32cd" stroke-dasharray="5,2" d="M654.28,-309.77C653.06,-306.88 651.91,-303.89 651,-301 634.48,-248.81 666.83,-218.59 628,-180 596.59,-148.78 573.25,-171.53 530,-162 527.11,-161.36 524.09,-160.65 521.1,-159.92"/>
<polygon fill="#9a32cd" stroke="#9a32cd" points="651.11,-311.25 658.46,-318.87 657.47,-308.32 651.11,-311.25"/>
</a>
</g>
<text text-anchor="middle" x="693.5" y="-276.5" font-family="Helvetica,sans-Serif" font-size="10.00" fill="grey"> animationTimer</text>
<text text-anchor="middle" x="693.5" y="-265.5" font-family="Helvetica,sans-Serif" font-size="10.00" fill="grey">boundingBoxSize</text>
<text text-anchor="middle" x="693.5" y="-254.5" font-family="Helvetica,sans-Serif" font-size="10.00" fill="grey">direction_angle</text>
<text text-anchor="middle" x="693.5" y="-243.5" font-family="Helvetica,sans-Serif" font-size="10.00" fill="grey">orientation</text>
<text text-anchor="middle" x="693.5" y="-232.5" font-family="Helvetica,sans-Serif" font-size="10.00" fill="grey">unk_09A</text>
<text text-anchor="middle" x="693.5" y="-221.5" font-family="Helvetica,sans-Serif" font-size="10.00" fill="grey">unk_0B8</text>
<text text-anchor="middle" x="693.5" y="-210.5" font-family="Helvetica,sans-Serif" font-size="10.00" fill="grey">unk_0C4</text>
<text text-anchor="middle" x="693.5" y="-199.5" font-family="Helvetica,sans-Serif" font-size="10.00" fill="grey">unk_0C6</text>
</g>
<!-- Node16 -->
<g id="Node000016" class="node">
<title>Node16</title>
<g id="a_Node000016"><a xlink:title=" ">
<polygon fill="white" stroke="#666666" points="577,-162 539,-162 539,-143 577,-143 577,-162"/>
<text text-anchor="middle" x="558" y="-150" font-family="Helvetica,sans-Serif" font-size="10.00">bool</text>
</a>
</g>
</g>
<!-- Node16&#45;&gt;Node2 -->
<g id="edge19_Node000002_Node000016" class="edge">
<title>Node16&#45;&gt;Node2</title>
<g id="a_edge19_Node000002_Node000016"><a xlink:title=" ">
<path fill="none" stroke="#9a32cd" stroke-dasharray="5,2" d="M528.91,-143.05C440.61,-123.63 415.85,-125.82 330,-114 268.73,-105.56 252,-111.05 192,-96 186.4,-94.6 180.5,-92.61 175.09,-90.57"/>
<polygon fill="#9a32cd" stroke="#9a32cd" points="528.3,-146.5 538.82,-145.26 529.82,-139.67 528.3,-146.5"/>
</a>
</g>
<text text-anchor="middle" x="466.5" y="-117" font-family="Helvetica,sans-Serif" font-size="10.00" fill="grey"> bPendingDestroy</text>
</g>
<!-- Node17 -->
<g id="Node000017" class="node">
<title>Node17</title>
<g id="a_Node000017"><a xlink:title=" ">
<polygon fill="white" stroke="#666666" points="320.5,-96 201.5,-96 201.5,-66 320.5,-66 320.5,-96"/>
<text text-anchor="start" x="209.5" y="-84" font-family="Helvetica,sans-Serif" font-size="10.00">vector&lt; OMoleGroup</text>
<text text-anchor="middle" x="261" y="-73" font-family="Helvetica,sans-Serif" font-size="10.00">::MoleEntry &gt;</text>
</a>
</g>
</g>
<!-- Node17&#45;&gt;Node1 -->
<g id="edge21_Node000001_Node000017" class="edge">
<title>Node17&#45;&gt;Node1</title>
<g id="a_edge21_Node000001_Node000017"><a xlink:title=" ">
<path fill="none" stroke="#9a32cd" stroke-dasharray="5,2" d="M244.09,-57.83C234.11,-44.74 222.03,-28.9 214.69,-19.27"/>
<polygon fill="#9a32cd" stroke="#9a32cd" points="241.43,-60.11 250.27,-65.94 246.99,-55.86 241.43,-60.11"/>
</a>
</g>
<text text-anchor="middle" x="255.5" y="-40" font-family="Helvetica,sans-Serif" font-size="10.00" fill="grey"> _moles</text>
</g>
</g>
</svg>

<g id="navigator" transform="translate(0 0)" fill="#404254">
  <rect fill="#f2f5e9" fill-opacity="0.5" stroke="#606060" stroke-width=".5" x="0" y="0" width="60" height="60"/>
  <use id="zoomplus" xlink:href="#zoomPlus" x="17" y="9" onmousedown="handleZoom(evt,'in')"/>
  <use id="zoomminus" xlink:href="#zoomMin" x="42" y="9" onmousedown="handleZoom(evt,'out')"/>
  <use id="reset" xlink:href="#resetDef" x="30" y="36" onmousedown="handleReset()"/>
   <use id="arrowup" xlink:href="#arrowUp" x="0" y="0" onmousedown="handlePan(0,-1)"/>
  <use id="arrowright" xlink:href="#arrowRight" x="0" y="0" onmousedown="handlePan(1,0)"/>
  <use id="arrowdown" xlink:href="#arrowDown" x="0" y="0" onmousedown="handlePan(0,1)"/>
  <use id="arrowleft" xlink:href="#arrowLeft" x="0" y="0" onmousedown="handlePan(-1,0)"/>
</g>
<svg viewBox="0 0 15 15" width="100%" height="30px" preserveAspectRatio="xMaxYMin meet">
 <g id="arrow_out" transform="scale(0.3 0.3)">
  <a xlink:href="classOMoleGroup__coll__graph_org.svg" target="_base">
   <rect id="button" ry="5" rx="5" y="6" x="6" height="38" width="38"
        fill="#f2f5e9" fill-opacity="0.5" stroke="#606060" stroke-width="1.0"/>
   <path id="arrow"
     d="M 11.500037,31.436501 C 11.940474,20.09759 22.043105,11.32322 32.158766,21.979434 L 37.068811,17.246167 C 37.068811,17.246167 37.088388,32 37.088388,32 L 22.160133,31.978069 C 22.160133,31.978069 26.997745,27.140456 26.997745,27.140456 C 18.528582,18.264221 13.291696,25.230495 11.500037,31.436501 z"
     style="fill:#404040;"/>
  </a>
 </g>
</svg>

<style type='text/css'>
<![CDATA[
[data-mouse-over-selected='false'] { opacity: 0.7; }
[data-mouse-over-selected='true']  { opacity: 1.0; }
]]>
</style>
<script type="application/ecmascript"><![CDATA[
document.addEventListener('DOMContentLoaded', (event) => {
  highlightEdges();
  highlightAdjacentNodes();
});
]]></script>
</svg>
