<?xml version="1.0" encoding="UTF-8" standalone="no"?>
<!DOCTYPE svg PUBLIC "-//W3C//DTD SVG 1.1//EN"
 "http://www.w3.org/Graphics/SVG/1.1/DTD/svg11.dtd">
<!-- Generated by graphviz version 2.43.0 (0)
 -->
<!-- Title: RainbowRoad::RenderCourseObjects Pages: 1 -->
<!--zoomable 336 -->

<svg id="main" version="1.1" xmlns="http://www.w3.org/2000/svg" xmlns:xlink="http://www.w3.org/1999/xlink" xml:space="preserve" onload="init(evt)">

<style type="text/css"><![CDATA[
.node, .edge {opacity: 0.7;}
.node.selected, .edge.selected {opacity: 1;}
.edge:hover path { stroke: red; }
.edge:hover polygon { stroke: red; fill: red; }
]]></style>

<defs>
  <circle id="rim" cx="0" cy="0" r="7"/>
  <circle id="rim2" cx="0" cy="0" r="3.5"/>
  <g id="zoomPlus">
    <use xlink:href="#rim" fill="#404040"><set attributeName="fill" to="#808080" begin="zoomplus.mouseover" end="zoomplus.mouseout"/></use>
    <path d="M-4,0h8M0,-4v8" fill="none" stroke="white" stroke-width="1.5" pointer-events="none"/>
  </g>
  <g id="zoomMin">
    <use xlink:href="#rim" fill="#404040"><set attributeName="fill" to="#808080" begin="zoomminus.mouseover" end="zoomminus.mouseout"/></use>
    <path d="M-4,0h8" fill="none" stroke="white" stroke-width="1.5" pointer-events="none"/>
  </g>
  <g id="arrowUp" transform="translate(30 24)">
    <use xlink:href="#rim"/>
    <path pointer-events="none" fill="none" stroke="white" stroke-width="1.5" d="M0,-3.0v7 M-2.5,-0.5L0,-3.0L2.5,-0.5"/>
  </g>
  <g id="arrowRight" transform="rotate(90) translate(36 -43)">
    <use xlink:href="#rim"/>
    <path pointer-events="none" fill="none" stroke="white" stroke-width="1.5" d="M0,-3.0v7 M-2.5,-0.5L0,-3.0L2.5,-0.5"/>
  </g>
  <g id="arrowDown" transform="rotate(180) translate(-30 -48)">
    <use xlink:href="#rim"/>
    <path pointer-events="none" fill="none" stroke="white" stroke-width="1.5" d="M0,-3.0v7 M-2.5,-0.5L0,-3.0L2.5,-0.5"/>
  </g>
  <g id="arrowLeft" transform="rotate(270) translate(-36 17)">
    <use xlink:href="#rim"/>
    <path pointer-events="none" fill="none" stroke="white" stroke-width="1.5" d="M0,-3.0v7 M-2.5,-0.5L0,-3.0L2.5,-0.5"/>
  </g>
  <g id="resetDef">
    <use xlink:href="#rim2" fill="#404040"><set attributeName="fill" to="#808080" begin="reset.mouseover" end="reset.mouseout"/></use>
  </g>
</defs>
<script type="application/ecmascript">
var viewWidth = 1443;
var viewHeight = 336;
var sectionId = 'dynsection-9';
</script>
<script type="application/ecmascript" xlink:href="svg.min.js"/>
<svg id="graph" class="graph">
<g id="viewport">
<title>RainbowRoad::RenderCourseObjects</title>
<!-- Node1 -->
<g id="Node000001" class="node">
<title>Node1</title>
<g id="a_Node000001"><a xlink:title=" ">
<polygon fill="#999999" stroke="#666666" points="158,-214.5 0,-214.5 0,-184.5 158,-184.5 158,-214.5"/>
<text text-anchor="start" x="8" y="-202.5" font-family="Helvetica,sans-Serif" font-size="10.00">RainbowRoad::RenderCourse</text>
<text text-anchor="middle" x="79" y="-191.5" font-family="Helvetica,sans-Serif" font-size="10.00">Objects</text>
</a>
</g>
</g>
<!-- Node2 -->
<g id="Node000002" class="node">
<title>Node2</title>
<g id="a_Node000002"><a xlink:href="render__objects_8c.html#a01136bcb8f763bd80f4cb9296988d0ad" target="_top" xlink:title=" ">
<polygon fill="white" stroke="#666666" points="307,-209 194,-209 194,-190 307,-190 307,-209"/>
<text text-anchor="middle" x="250.5" y="-197" font-family="Helvetica,sans-Serif" font-size="10.00">render_object_neon</text>
</a>
</g>
</g>
<!-- Node1&#45;&gt;Node2 -->
<g id="edge1_Node000001_Node000002" class="edge">
<title>Node1&#45;&gt;Node2</title>
<g id="a_edge1_Node000001_Node000002"><a xlink:title=" ">
<path fill="none" stroke="#63b8ff" d="M158.3,-199.5C166.81,-199.5 175.41,-199.5 183.75,-199.5"/>
<polygon fill="#63b8ff" stroke="#63b8ff" points="183.77,-203 193.77,-199.5 183.77,-196 183.77,-203"/>
</a>
</g>
</g>
<!-- Node3 -->
<g id="Node000003" class="node">
<title>Node3</title>
<g id="a_Node000003"><a xlink:href="code__80086E70_8c.html#a39472d3dfdac7a16645e8ebd6f53f1b6" target="_top" xlink:title=" ">
<polygon fill="white" stroke="#666666" points="661.5,-193.5 535.5,-193.5 535.5,-163.5 661.5,-163.5 661.5,-193.5"/>
<text text-anchor="start" x="543.5" y="-181.5" font-family="Helvetica,sans-Serif" font-size="10.00">angle_between_object</text>
<text text-anchor="middle" x="598.5" y="-170.5" font-family="Helvetica,sans-Serif" font-size="10.00">_camera</text>
</a>
</g>
</g>
<!-- Node2&#45;&gt;Node3 -->
<g id="edge2_Node000002_Node000003" class="edge">
<title>Node2&#45;&gt;Node3</title>
<g id="a_edge2_Node000002_Node000003"><a xlink:title=" ">
<path fill="none" stroke="#63b8ff" d="M307.09,-196.13C366.29,-192.53 460.23,-186.83 525.16,-182.89"/>
<polygon fill="#63b8ff" stroke="#63b8ff" points="525.55,-186.37 535.32,-182.27 525.13,-179.39 525.55,-186.37"/>
</a>
</g>
</g>
<!-- Node6 -->
<g id="Node000006" class="node">
<title>Node6</title>
<g id="a_Node000006"><a xlink:href="render__objects_8c.html#a8c64fbe4bff7ffa49273321d6f1b03be" target="_top" xlink:title=" ">
<polygon fill="white" stroke="#666666" points="467.5,-95 354.5,-95 354.5,-76 467.5,-76 467.5,-95"/>
<text text-anchor="middle" x="411" y="-83" font-family="Helvetica,sans-Serif" font-size="10.00">draw_2d_texture_at</text>
</a>
</g>
</g>
<!-- Node2&#45;&gt;Node6 -->
<g id="edge5_Node000002_Node000006" class="edge">
<title>Node2&#45;&gt;Node6</title>
<g id="a_edge5_Node000002_Node000006"><a xlink:title=" ">
<path fill="none" stroke="#63b8ff" d="M259.34,-189.74C274.05,-171.99 307.51,-134.15 343,-111.5 350.72,-106.57 359.52,-102.34 368.14,-98.8"/>
<polygon fill="#63b8ff" stroke="#63b8ff" points="369.67,-101.96 377.74,-95.1 367.15,-95.43 369.67,-101.96"/>
</a>
</g>
</g>
<!-- Node23 -->
<g id="Node000023" class="node">
<title>Node23</title>
<g id="a_Node000023"><a xlink:href="FrameInterpolation_8cpp.html#a3a036bc9d533e28a4e9697cd20dccf3e" target="_top" xlink:title=" ">
<polygon fill="white" stroke="#666666" points="1258,-327.5 1148,-327.5 1148,-297.5 1258,-297.5 1258,-327.5"/>
<text text-anchor="start" x="1156" y="-315.5" font-family="Helvetica,sans-Serif" font-size="10.00">FrameInterpolation</text>
<text text-anchor="middle" x="1203" y="-304.5" font-family="Helvetica,sans-Serif" font-size="10.00">_RecordCloseChild</text>
</a>
</g>
</g>
<!-- Node2&#45;&gt;Node23 -->
<g id="edge25_Node000002_Node000023" class="edge">
<title>Node2&#45;&gt;Node23</title>
<g id="a_edge25_Node000002_Node000023"><a xlink:title=" ">
<path fill="none" stroke="#63b8ff" d="M257.36,-209.15C270.08,-229.09 302.34,-274.52 343,-293.5 445.78,-341.47 484.07,-312.5 597.5,-312.5 597.5,-312.5 597.5,-312.5 807,-312.5 923.49,-312.5 1059.31,-312.5 1137.51,-312.5"/>
<polygon fill="#63b8ff" stroke="#63b8ff" points="1137.69,-316 1147.69,-312.5 1137.69,-309 1137.69,-316"/>
</a>
</g>
</g>
<!-- Node24 -->
<g id="Node000024" class="node">
<title>Node24</title>
<g id="a_Node000024"><a xlink:href="FrameInterpolation_8cpp.html#a0eda726b74eac815af4e874014e2727c" target="_top" xlink:title=" ">
<polygon fill="white" stroke="#666666" points="466,-284.5 356,-284.5 356,-254.5 466,-254.5 466,-284.5"/>
<text text-anchor="start" x="364" y="-272.5" font-family="Helvetica,sans-Serif" font-size="10.00">FrameInterpolation</text>
<text text-anchor="middle" x="411" y="-261.5" font-family="Helvetica,sans-Serif" font-size="10.00">_RecordOpenChild</text>
</a>
</g>
</g>
<!-- Node2&#45;&gt;Node24 -->
<g id="edge27_Node000002_Node000024" class="edge">
<title>Node2&#45;&gt;Node24</title>
<g id="a_edge27_Node000002_Node000024"><a xlink:title=" ">
<path fill="none" stroke="#63b8ff" d="M269.08,-209.14C287.28,-218.94 316.69,-234.22 343,-245.5 347.14,-247.27 351.45,-249.03 355.81,-250.73"/>
<polygon fill="#63b8ff" stroke="#63b8ff" points="354.78,-254.09 365.38,-254.37 357.28,-247.54 354.78,-254.09"/>
</a>
</g>
</g>
<!-- Node25 -->
<g id="Node000025" class="node">
<title>Node25</title>
<g id="a_Node000025"><a xlink:href="update__objects_8c.html#a2301a51a93a60f0382cdc7002e14f95a" target="_top" xlink:title=" ">
<polygon fill="white" stroke="#666666" points="479,-150.5 343,-150.5 343,-120.5 479,-120.5 479,-150.5"/>
<text text-anchor="start" x="351" y="-138.5" font-family="Helvetica,sans-Serif" font-size="10.00">is_obj_index_flag_status</text>
<text text-anchor="middle" x="411" y="-127.5" font-family="Helvetica,sans-Serif" font-size="10.00">_inactive</text>
</a>
</g>
</g>
<!-- Node2&#45;&gt;Node25 -->
<g id="edge29_Node000002_Node000025" class="edge">
<title>Node2&#45;&gt;Node25</title>
<g id="a_edge29_Node000002_Node000025"><a xlink:title=" ">
<path fill="none" stroke="#63b8ff" d="M275.23,-189.92C298.43,-180.55 334.38,-166.03 363.32,-154.35"/>
<polygon fill="#63b8ff" stroke="#63b8ff" points="364.88,-157.49 372.84,-150.5 362.26,-151 364.88,-157.49"/>
</a>
</g>
</g>
<!-- Node26 -->
<g id="Node000026" class="node">
<title>Node26</title>
<g id="a_Node000026"><a xlink:href="code__80086E70_8c.html#abe4dd4c208100b3bca1036d0a14074f2" target="_top" xlink:title=" ">
<polygon fill="white" stroke="#666666" points="468.5,-236.5 353.5,-236.5 353.5,-206.5 468.5,-206.5 468.5,-236.5"/>
<text text-anchor="start" x="361.5" y="-224.5" font-family="Helvetica,sans-Serif" font-size="10.00">is_object_visible_on</text>
<text text-anchor="middle" x="411" y="-213.5" font-family="Helvetica,sans-Serif" font-size="10.00">_camera</text>
</a>
</g>
</g>
<!-- Node2&#45;&gt;Node26 -->
<g id="edge30_Node000002_Node000026" class="edge">
<title>Node2&#45;&gt;Node26</title>
<g id="a_edge30_Node000002_Node000026"><a xlink:title=" ">
<path fill="none" stroke="#63b8ff" d="M307.38,-207.26C319.01,-208.87 331.37,-210.59 343.35,-212.25"/>
<polygon fill="#63b8ff" stroke="#63b8ff" points="342.9,-215.72 353.29,-213.63 343.86,-208.79 342.9,-215.72"/>
</a>
</g>
</g>
<!-- Node4 -->
<g id="Node000004" class="node">
<title>Node4</title>
<g id="a_Node000004"><a xlink:href="math__util_8c.html#aaa39a297477f56051975259f4bddd829" target="_top" xlink:title=" ">
<polygon fill="white" stroke="#666666" points="831,-231 781,-231 781,-212 831,-212 831,-231"/>
<text text-anchor="middle" x="806" y="-219" font-family="Helvetica,sans-Serif" font-size="10.00">atan2s</text>
</a>
</g>
</g>
<!-- Node3&#45;&gt;Node4 -->
<g id="edge3_Node000003_Node000004" class="edge">
<title>Node3&#45;&gt;Node4</title>
<g id="a_edge3_Node000003_Node000004"><a xlink:title=" ">
<path fill="none" stroke="#63b8ff" d="M661.71,-191.52C697.64,-199.04 741.45,-208.2 771.09,-214.41"/>
<polygon fill="#63b8ff" stroke="#63b8ff" points="770.45,-217.85 780.95,-216.47 771.88,-210.99 770.45,-217.85"/>
</a>
</g>
</g>
<!-- Node5 -->
<g id="Node000005" class="node">
<title>Node5</title>
<g id="a_Node000005"><a xlink:href="math__util_8c.html#a0273b0ea0783a06996c28669a7438ed9" target="_top" xlink:title=" ">
<polygon fill="white" stroke="#666666" points="1045.5,-241 963.5,-241 963.5,-222 1045.5,-222 1045.5,-241"/>
<text text-anchor="middle" x="1004.5" y="-229" font-family="Helvetica,sans-Serif" font-size="10.00">atan2_lookup</text>
</a>
</g>
</g>
<!-- Node4&#45;&gt;Node5 -->
<g id="edge4_Node000004_Node000005" class="edge">
<title>Node4&#45;&gt;Node5</title>
<g id="a_edge4_Node000004_Node000005"><a xlink:title=" ">
<path fill="none" stroke="#63b8ff" d="M831.09,-222.73C861.29,-224.26 913.84,-226.94 953,-228.93"/>
<polygon fill="#63b8ff" stroke="#63b8ff" points="952.99,-232.43 963.16,-229.45 953.35,-225.44 952.99,-232.43"/>
</a>
</g>
</g>
<!-- Node7 -->
<g id="Node000007" class="node">
<title>Node7</title>
<g id="a_Node000007"><a xlink:href="render__objects_8c.html#a8a48ecaa397efcff0fd4aab89b040c59" target="_top" xlink:title=" ">
<polygon fill="white" stroke="#666666" points="664.5,-86.5 532.5,-86.5 532.5,-56.5 664.5,-56.5 664.5,-86.5"/>
<text text-anchor="start" x="540.5" y="-74.5" font-family="Helvetica,sans-Serif" font-size="10.00">draw_rectangle_texture</text>
<text text-anchor="middle" x="598.5" y="-63.5" font-family="Helvetica,sans-Serif" font-size="10.00">_overlap</text>
</a>
</g>
</g>
<!-- Node6&#45;&gt;Node7 -->
<g id="edge6_Node000006_Node000007" class="edge">
<title>Node6&#45;&gt;Node7</title>
<g id="a_edge6_Node000006_Node000007"><a xlink:title=" ">
<path fill="none" stroke="#63b8ff" d="M467.66,-81.3C484.85,-80 504.09,-78.55 522.38,-77.17"/>
<polygon fill="#63b8ff" stroke="#63b8ff" points="522.71,-80.65 532.42,-76.41 522.18,-73.67 522.71,-80.65"/>
</a>
</g>
</g>
<!-- Node8 -->
<g id="Node000008" class="node">
<title>Node8</title>
<g id="a_Node000008"><a xlink:href="GBIMiddleware_8cpp.html#a4ecc44e3c6f1ca5a6b4a20c41d3bd2d2" target="_top" xlink:title=" ">
<polygon fill="white" stroke="#666666" points="850.5,-19 761.5,-19 761.5,0 850.5,0 850.5,-19"/>
<text text-anchor="middle" x="806" y="-7" font-family="Helvetica,sans-Serif" font-size="10.00">gSPDisplayList</text>
</a>
</g>
</g>
<!-- Node6&#45;&gt;Node8 -->
<g id="edge13_Node000006_Node000008" class="edge">
<title>Node6&#45;&gt;Node8</title>
<g id="a_edge13_Node000006_Node000008"><a xlink:title=" ">
<path fill="none" stroke="#63b8ff" d="M433.66,-75.89C454.2,-67.17 486.13,-54.62 515,-47.5 595.92,-27.54 692.3,-17.55 751.04,-12.96"/>
<polygon fill="#63b8ff" stroke="#63b8ff" points="751.5,-16.43 761.2,-12.19 750.97,-9.45 751.5,-16.43"/>
</a>
</g>
</g>
<!-- Node13 -->
<g id="Node000013" class="node">
<title>Node13</title>
<g id="a_Node000013"><a xlink:href="math__util__2_8c.html#a2eff0e02deb703653ee3230fbc02eb14" target="_top" xlink:title="set the matrix to a transformation matrix">
<polygon fill="white" stroke="#666666" points="682,-130 515,-130 515,-111 682,-111 682,-130"/>
<text text-anchor="middle" x="598.5" y="-118" font-family="Helvetica,sans-Serif" font-size="10.00">rsp_set_matrix_transformation</text>
</a>
</g>
</g>
<!-- Node6&#45;&gt;Node13 -->
<g id="edge14_Node000006_Node000013" class="edge">
<title>Node6&#45;&gt;Node13</title>
<g id="a_edge14_Node000006_Node000013"><a xlink:title=" ">
<path fill="none" stroke="#63b8ff" d="M462.69,-95.06C485.59,-99.39 512.83,-104.53 536.82,-109.05"/>
<polygon fill="#63b8ff" stroke="#63b8ff" points="536.4,-112.53 546.87,-110.95 537.69,-105.65 536.4,-112.53"/>
</a>
</g>
</g>
<!-- Node7&#45;&gt;Node8 -->
<g id="edge7_Node000007_Node000008" class="edge">
<title>Node7&#45;&gt;Node8</title>
<g id="a_edge7_Node000007_Node000008"><a xlink:title=" ">
<path fill="none" stroke="#63b8ff" d="M635.59,-56.47C658.83,-47.21 689.84,-35.59 718,-27.5 728.67,-24.43 740.21,-21.67 751.3,-19.28"/>
<polygon fill="#63b8ff" stroke="#63b8ff" points="752.24,-22.66 761.32,-17.19 750.81,-15.81 752.24,-22.66"/>
</a>
</g>
</g>
<!-- Node11 -->
<g id="Node000011" class="node">
<title>Node11</title>
<g id="a_Node000011"><a xlink:href="GBIMiddleware_8cpp.html#aeef79449a27a710d73576e4a4f7f7f99" target="_top" xlink:title=" ">
<polygon fill="white" stroke="#666666" points="839,-56 773,-56 773,-37 839,-37 839,-56"/>
<text text-anchor="middle" x="806" y="-44" font-family="Helvetica,sans-Serif" font-size="10.00">gSPVertex</text>
</a>
</g>
</g>
<!-- Node7&#45;&gt;Node11 -->
<g id="edge10_Node000007_Node000011" class="edge">
<title>Node7&#45;&gt;Node11</title>
<g id="a_edge10_Node000007_Node000011"><a xlink:title=" ">
<path fill="none" stroke="#63b8ff" d="M664.52,-63.59C696.67,-59.68 734.55,-55.07 762.86,-51.63"/>
<polygon fill="#63b8ff" stroke="#63b8ff" points="763.33,-55.1 772.83,-50.41 762.48,-48.15 763.33,-55.1"/>
</a>
</g>
</g>
<!-- Node12 -->
<g id="Node000012" class="node">
<title>Node12</title>
<g id="a_Node000012"><a xlink:href="render__objects_8c.html#a8a3e9d3da5a6ac97b84b553fdc5d7d59" target="_top" xlink:title=" ">
<polygon fill="white" stroke="#666666" points="855,-93 757,-93 757,-74 855,-74 855,-93"/>
<text text-anchor="middle" x="806" y="-81" font-family="Helvetica,sans-Serif" font-size="10.00">rsp_load_texture</text>
</a>
</g>
</g>
<!-- Node7&#45;&gt;Node12 -->
<g id="edge12_Node000007_Node000012" class="edge">
<title>Node7&#45;&gt;Node12</title>
<g id="a_edge12_Node000007_Node000012"><a xlink:title=" ">
<path fill="none" stroke="#63b8ff" d="M664.52,-75.3C690.77,-76.83 720.84,-78.59 746.4,-80.08"/>
<polygon fill="#63b8ff" stroke="#63b8ff" points="746.5,-83.59 756.69,-80.68 746.91,-76.6 746.5,-83.59"/>
</a>
</g>
</g>
<!-- Node9 -->
<g id="Node000009" class="node">
<title>Node9</title>
<g id="a_Node000009"><a xlink:href="Engine_8cpp.html#a223c8bc63f228dc11177515e38eff2db" target="_top" xlink:title=" ">
<polygon fill="white" stroke="#666666" points="1079,-34 930,-34 930,-15 1079,-15 1079,-34"/>
<text text-anchor="middle" x="1004.5" y="-22" font-family="Helvetica,sans-Serif" font-size="10.00">GameEngine_OTRSigCheck</text>
</a>
</g>
</g>
<!-- Node8&#45;&gt;Node9 -->
<g id="edge8_Node000008_Node000009" class="edge">
<title>Node8&#45;&gt;Node9</title>
<g id="a_edge8_Node000008_Node000009"><a xlink:title=" ">
<path fill="none" stroke="#63b8ff" d="M850.61,-12.83C870.99,-14.38 895.97,-16.29 919.78,-18.11"/>
<polygon fill="#63b8ff" stroke="#63b8ff" points="919.67,-21.61 929.9,-18.88 920.2,-14.63 919.67,-21.61"/>
</a>
</g>
</g>
<!-- Node10 -->
<g id="Node000010" class="node">
<title>Node10</title>
<g id="a_Node000010"><a xlink:href="string_8c.html#a008e171a518fe0e0352f31b245e03875" target="_top" xlink:title=" ">
<polygon fill="white" stroke="#666666" points="1225,-34 1181,-34 1181,-15 1225,-15 1225,-34"/>
<text text-anchor="middle" x="1203" y="-22" font-family="Helvetica,sans-Serif" font-size="10.00">strlen</text>
</a>
</g>
</g>
<!-- Node9&#45;&gt;Node10 -->
<g id="edge9_Node000009_Node000010" class="edge">
<title>Node9&#45;&gt;Node10</title>
<g id="a_edge9_Node000009_Node000010"><a xlink:title=" ">
<path fill="none" stroke="#63b8ff" d="M1079.23,-24.5C1110.91,-24.5 1146.23,-24.5 1170.82,-24.5"/>
<polygon fill="#63b8ff" stroke="#63b8ff" points="1170.99,-28 1180.99,-24.5 1170.99,-21 1170.99,-28"/>
</a>
</g>
</g>
<!-- Node11&#45;&gt;Node9 -->
<g id="edge11_Node000011_Node000009" class="edge">
<title>Node11&#45;&gt;Node9</title>
<g id="a_edge11_Node000011_Node000009"><a xlink:title=" ">
<path fill="none" stroke="#63b8ff" d="M839.01,-42.92C860.99,-40.45 891.26,-37.07 919.85,-33.87"/>
<polygon fill="#63b8ff" stroke="#63b8ff" points="920.32,-37.33 929.87,-32.74 919.54,-30.38 920.32,-37.33"/>
</a>
</g>
</g>
<!-- Node14 -->
<g id="Node000014" class="node">
<title>Node14</title>
<g id="a_Node000014"><a xlink:href="Matrix_8cpp.html#a329d78c031733cf22ff7518f5d38fd74" target="_top" xlink:title=" ">
<polygon fill="white" stroke="#666666" points="849,-130 763,-130 763,-111 849,-111 849,-130"/>
<text text-anchor="middle" x="806" y="-118" font-family="Helvetica,sans-Serif" font-size="10.00">AddHudMatrix</text>
</a>
</g>
</g>
<!-- Node13&#45;&gt;Node14 -->
<g id="edge15_Node000013_Node000014" class="edge">
<title>Node13&#45;&gt;Node14</title>
<g id="a_edge15_Node000013_Node000014"><a xlink:title=" ">
<path fill="none" stroke="#63b8ff" d="M682.2,-120.5C705.97,-120.5 731.23,-120.5 752.62,-120.5"/>
<polygon fill="#63b8ff" stroke="#63b8ff" points="752.78,-124 762.78,-120.5 752.78,-117 752.78,-124"/>
</a>
</g>
</g>
<!-- Node19 -->
<g id="Node000019" class="node">
<title>Node19</title>
<g id="a_Node000019"><a xlink:href="math__util__2_8c.html#ae71383a9d7f97bcb240b23f68068ab30" target="_top" xlink:title=" ">
<polygon fill="white" stroke="#666666" points="894,-167 718,-167 718,-148 894,-148 894,-167"/>
<text text-anchor="middle" x="806" y="-155" font-family="Helvetica,sans-Serif" font-size="10.00">mtxf_set_matrix_transformation</text>
</a>
</g>
</g>
<!-- Node13&#45;&gt;Node19 -->
<g id="edge20_Node000013_Node000019" class="edge">
<title>Node13&#45;&gt;Node19</title>
<g id="a_edge20_Node000013_Node000019"><a xlink:title=" ">
<path fill="none" stroke="#63b8ff" d="M652.42,-130.03C679.76,-134.95 713.31,-140.99 741.98,-146.15"/>
<polygon fill="#63b8ff" stroke="#63b8ff" points="741.44,-149.61 751.9,-147.94 742.68,-142.72 741.44,-149.61"/>
</a>
</g>
</g>
<!-- Node15 -->
<g id="Node000015" class="node">
<title>Node15</title>
<g id="a_Node000015"><a xlink:href="Matrix_8cpp.html#aaa0983157188edefc6259671ccda6746" target="_top" xlink:title=" ">
<polygon fill="white" stroke="#666666" points="1038,-91 971,-91 971,-72 1038,-72 1038,-91"/>
<text text-anchor="middle" x="1004.5" y="-79" font-family="Helvetica,sans-Serif" font-size="10.00">AddMatrix</text>
</a>
</g>
</g>
<!-- Node14&#45;&gt;Node15 -->
<g id="edge16_Node000014_Node000015" class="edge">
<title>Node14&#45;&gt;Node15</title>
<g id="a_edge16_Node000014_Node000015"><a xlink:title=" ">
<path fill="none" stroke="#63b8ff" d="M849.15,-112.13C882.16,-105.58 927.88,-96.51 960.98,-89.94"/>
<polygon fill="#63b8ff" stroke="#63b8ff" points="961.69,-93.37 970.82,-87.99 960.33,-86.5 961.69,-93.37"/>
</a>
</g>
</g>
<!-- Node16 -->
<g id="Node000016" class="node">
<title>Node16</title>
<g id="a_Node000016"><a xlink:href="FrameInterpolation_8cpp.html#a8cf1f2d6fabc6925aa71a9515341b4aa" target="_top" xlink:title=" ">
<polygon fill="white" stroke="#666666" points="1273,-96.5 1133,-96.5 1133,-66.5 1273,-66.5 1273,-96.5"/>
<text text-anchor="start" x="1141" y="-84.5" font-family="Helvetica,sans-Serif" font-size="10.00">FrameInterpolation</text>
<text text-anchor="middle" x="1203" y="-73.5" font-family="Helvetica,sans-Serif" font-size="10.00">_RecordMatrixMtxFToMtx</text>
</a>
</g>
</g>
<!-- Node15&#45;&gt;Node16 -->
<g id="edge17_Node000015_Node000016" class="edge">
<title>Node15&#45;&gt;Node16</title>
<g id="a_edge17_Node000015_Node000016"><a xlink:title=" ">
<path fill="none" stroke="#63b8ff" d="M1038.39,-81.5C1061.36,-81.5 1093.04,-81.5 1122.42,-81.5"/>
<polygon fill="#63b8ff" stroke="#63b8ff" points="1122.7,-85 1132.7,-81.5 1122.7,-78 1122.7,-85"/>
</a>
</g>
</g>
<!-- Node18 -->
<g id="Node000018" class="node">
<title>Node18</title>
<g id="a_Node000018"><a xlink:href="guMtxF2L_8c.html#a40ab2d64c609839ff1e0ef0de2d0dcc4" target="_top" xlink:title=" ">
<polygon fill="white" stroke="#666666" points="1235.5,-134 1170.5,-134 1170.5,-115 1235.5,-115 1235.5,-134"/>
<text text-anchor="middle" x="1203" y="-122" font-family="Helvetica,sans-Serif" font-size="10.00">guMtxF2L</text>
</a>
</g>
</g>
<!-- Node15&#45;&gt;Node18 -->
<g id="edge19_Node000015_Node000018" class="edge">
<title>Node15&#45;&gt;Node18</title>
<g id="a_edge19_Node000015_Node000018"><a xlink:title=" ">
<path fill="none" stroke="#63b8ff" d="M1038.08,-88.65C1059.86,-93.42 1089.14,-99.84 1115,-105.5 1129.71,-108.72 1145.81,-112.24 1160.12,-115.36"/>
<polygon fill="#63b8ff" stroke="#63b8ff" points="1159.66,-118.84 1170.18,-117.56 1161.16,-112 1159.66,-118.84"/>
</a>
</g>
</g>
<!-- Node17 -->
<g id="Node000017" class="node">
<title>Node17</title>
<g id="a_Node000017"><a xlink:href="FrameInterpolation_8cpp.html#a02c7ac5342a4d376edee38f312b480bf" target="_top" xlink:title=" ">
<polygon fill="white" stroke="#666666" points="1435,-253 1327,-253 1327,-234 1435,-234 1435,-253"/>
<text text-anchor="middle" x="1381" y="-241" font-family="Helvetica,sans-Serif" font-size="10.00">check_if_recording</text>
</a>
</g>
</g>
<!-- Node16&#45;&gt;Node17 -->
<g id="edge18_Node000016_Node000017" class="edge">
<title>Node16&#45;&gt;Node17</title>
<g id="a_edge18_Node000016_Node000017"><a xlink:title=" ">
<path fill="none" stroke="#63b8ff" d="M1273.18,-95.41C1279.51,-98.19 1285.57,-101.51 1291,-105.5 1333.34,-136.6 1360.84,-194.43 1372.93,-224.4"/>
<polygon fill="#63b8ff" stroke="#63b8ff" points="1369.67,-225.69 1376.56,-233.74 1376.2,-223.15 1369.67,-225.69"/>
</a>
</g>
</g>
<!-- Node20 -->
<g id="Node000020" class="node">
<title>Node20</title>
<g id="a_Node000020"><a xlink:href="math__util_8c.html#ae69cbf5c8d4b3b0dba2d7b4d4673689f" target="_top" xlink:title=" ">
<polygon fill="white" stroke="#666666" points="1023.5,-167 985.5,-167 985.5,-148 1023.5,-148 1023.5,-167"/>
<text text-anchor="middle" x="1004.5" y="-155" font-family="Helvetica,sans-Serif" font-size="10.00">coss</text>
</a>
</g>
</g>
<!-- Node19&#45;&gt;Node20 -->
<g id="edge21_Node000019_Node000020" class="edge">
<title>Node19&#45;&gt;Node20</title>
<g id="a_edge21_Node000019_Node000020"><a xlink:title=" ">
<path fill="none" stroke="#63b8ff" d="M894.05,-157.5C923.24,-157.5 953.78,-157.5 975.16,-157.5"/>
<polygon fill="#63b8ff" stroke="#63b8ff" points="975.44,-161 985.44,-157.5 975.44,-154 975.44,-161"/>
</a>
</g>
</g>
<!-- Node21 -->
<g id="Node000021" class="node">
<title>Node21</title>
<g id="a_Node000021"><a xlink:href="FrameInterpolation_8cpp.html#af749df1a96bee5c78287b1845455ae2d" target="_top" xlink:title=" ">
<polygon fill="white" stroke="#666666" points="1291,-207.5 1115,-207.5 1115,-177.5 1291,-177.5 1291,-207.5"/>
<text text-anchor="start" x="1123" y="-195.5" font-family="Helvetica,sans-Serif" font-size="10.00">FrameInterpolation</text>
<text text-anchor="middle" x="1203" y="-184.5" font-family="Helvetica,sans-Serif" font-size="10.00">_RecordSetMatrixTransformation</text>
</a>
</g>
</g>
<!-- Node19&#45;&gt;Node21 -->
<g id="edge22_Node000019_Node000021" class="edge">
<title>Node19&#45;&gt;Node21</title>
<g id="a_edge22_Node000019_Node000021"><a xlink:title=" ">
<path fill="none" stroke="#63b8ff" d="M846.65,-147.98C900.03,-136.7 997.69,-121.44 1079,-138.5 1110.23,-145.05 1143.22,-160.03 1167.16,-172.55"/>
<polygon fill="#63b8ff" stroke="#63b8ff" points="1165.72,-175.75 1176.19,-177.38 1169.02,-169.58 1165.72,-175.75"/>
</a>
</g>
</g>
<!-- Node22 -->
<g id="Node000022" class="node">
<title>Node22</title>
<g id="a_Node000022"><a xlink:href="math__util_8c.html#a19ed3bd78fd2d3e2bd0a29f6caf48545" target="_top" xlink:title=" ">
<polygon fill="white" stroke="#666666" points="1022.5,-204 986.5,-204 986.5,-185 1022.5,-185 1022.5,-204"/>
<text text-anchor="middle" x="1004.5" y="-192" font-family="Helvetica,sans-Serif" font-size="10.00">sins</text>
</a>
</g>
</g>
<!-- Node19&#45;&gt;Node22 -->
<g id="edge24_Node000019_Node000022" class="edge">
<title>Node19&#45;&gt;Node22</title>
<g id="a_edge24_Node000019_Node000022"><a xlink:title=" ">
<path fill="none" stroke="#63b8ff" d="M857.6,-167.03C895.44,-174.15 945.73,-183.62 976.29,-189.38"/>
<polygon fill="#63b8ff" stroke="#63b8ff" points="975.75,-192.84 986.23,-191.25 977.05,-185.96 975.75,-192.84"/>
</a>
</g>
</g>
<!-- Node21&#45;&gt;Node17 -->
<g id="edge23_Node000021_Node000017" class="edge">
<title>Node21&#45;&gt;Node17</title>
<g id="a_edge23_Node000021_Node000017"><a xlink:title=" ">
<path fill="none" stroke="#63b8ff" d="M1255.85,-207.53C1281.79,-215.04 1312.79,-224.02 1337.33,-231.13"/>
<polygon fill="#63b8ff" stroke="#63b8ff" points="1336.49,-234.54 1347.07,-233.96 1338.44,-227.81 1336.49,-234.54"/>
</a>
</g>
</g>
<!-- Node23&#45;&gt;Node17 -->
<g id="edge26_Node000023_Node000017" class="edge">
<title>Node23&#45;&gt;Node17</title>
<g id="a_edge26_Node000023_Node000017"><a xlink:title=" ">
<path fill="none" stroke="#63b8ff" d="M1252.17,-297.4C1264.89,-293.16 1278.54,-288.36 1291,-283.5 1311.18,-275.62 1333.41,-265.63 1350.61,-257.61"/>
<polygon fill="#63b8ff" stroke="#63b8ff" points="1352.54,-260.57 1360.1,-253.14 1349.56,-254.23 1352.54,-260.57"/>
</a>
</g>
</g>
<!-- Node24&#45;&gt;Node17 -->
<g id="edge28_Node000024_Node000017" class="edge">
<title>Node24&#45;&gt;Node17</title>
<g id="a_edge28_Node000024_Node000017"><a xlink:title=" ">
<path fill="none" stroke="#63b8ff" d="M466.03,-269.5C541.79,-269.5 683.89,-269.5 805,-269.5 805,-269.5 805,-269.5 1005.5,-269.5 1115.05,-269.5 1242.2,-258.29 1316.6,-250.59"/>
<polygon fill="#63b8ff" stroke="#63b8ff" points="1317.16,-254.05 1326.75,-249.53 1316.44,-247.09 1317.16,-254.05"/>
</a>
</g>
</g>
<!-- Node27 -->
<g id="Node000027" class="node">
<title>Node27</title>
<g id="a_Node000027"><a xlink:href="math__util__2_8c.html#a13e56d0f66165ef2bfef5122f7de73b6" target="_top" xlink:title=" ">
<polygon fill="white" stroke="#666666" points="663,-231 534,-231 534,-212 663,-212 663,-231"/>
<text text-anchor="middle" x="598.5" y="-219" font-family="Helvetica,sans-Serif" font-size="10.00">get_angle_between_xy</text>
</a>
</g>
</g>
<!-- Node26&#45;&gt;Node27 -->
<g id="edge31_Node000026_Node000027" class="edge">
<title>Node26&#45;&gt;Node27</title>
<g id="a_edge31_Node000026_Node000027"><a xlink:title=" ">
<path fill="none" stroke="#63b8ff" d="M468.66,-221.5C486.01,-221.5 505.36,-221.5 523.68,-221.5"/>
<polygon fill="#63b8ff" stroke="#63b8ff" points="523.73,-225 533.73,-221.5 523.73,-218 523.73,-225"/>
</a>
</g>
</g>
<!-- Node27&#45;&gt;Node4 -->
<g id="edge32_Node000027_Node000004" class="edge">
<title>Node27&#45;&gt;Node4</title>
<g id="a_edge32_Node000027_Node000004"><a xlink:title=" ">
<path fill="none" stroke="#63b8ff" d="M663.11,-221.5C698.6,-221.5 741.41,-221.5 770.66,-221.5"/>
<polygon fill="#63b8ff" stroke="#63b8ff" points="770.78,-225 780.78,-221.5 770.78,-218 770.78,-225"/>
</a>
</g>
</g>
</g>
</svg>

<g id="navigator" transform="translate(0 0)" fill="#404254">
  <rect fill="#f2f5e9" fill-opacity="0.5" stroke="#606060" stroke-width=".5" x="0" y="0" width="60" height="60"/>
  <use id="zoomplus" xlink:href="#zoomPlus" x="17" y="9" onmousedown="handleZoom(evt,'in')"/>
  <use id="zoomminus" xlink:href="#zoomMin" x="42" y="9" onmousedown="handleZoom(evt,'out')"/>
  <use id="reset" xlink:href="#resetDef" x="30" y="36" onmousedown="handleReset()"/>
   <use id="arrowup" xlink:href="#arrowUp" x="0" y="0" onmousedown="handlePan(0,-1)"/>
  <use id="arrowright" xlink:href="#arrowRight" x="0" y="0" onmousedown="handlePan(1,0)"/>
  <use id="arrowdown" xlink:href="#arrowDown" x="0" y="0" onmousedown="handlePan(0,1)"/>
  <use id="arrowleft" xlink:href="#arrowLeft" x="0" y="0" onmousedown="handlePan(-1,0)"/>
</g>
<svg viewBox="0 0 15 15" width="100%" height="30px" preserveAspectRatio="xMaxYMin meet">
 <g id="arrow_out" transform="scale(0.3 0.3)">
  <a xlink:href="classRainbowRoad_a5fc44ee8b3a8845f845a74c72fd57a9d_cgraph_org.svg" target="_base">
   <rect id="button" ry="5" rx="5" y="6" x="6" height="38" width="38"
        fill="#f2f5e9" fill-opacity="0.5" stroke="#606060" stroke-width="1.0"/>
   <path id="arrow"
     d="M 11.500037,31.436501 C 11.940474,20.09759 22.043105,11.32322 32.158766,21.979434 L 37.068811,17.246167 C 37.068811,17.246167 37.088388,32 37.088388,32 L 22.160133,31.978069 C 22.160133,31.978069 26.997745,27.140456 26.997745,27.140456 C 18.528582,18.264221 13.291696,25.230495 11.500037,31.436501 z"
     style="fill:#404040;"/>
  </a>
 </g>
</svg>

<style type='text/css'>
<![CDATA[
[data-mouse-over-selected='false'] { opacity: 0.7; }
[data-mouse-over-selected='true']  { opacity: 1.0; }
]]>
</style>
<script type="application/ecmascript"><![CDATA[
document.addEventListener('DOMContentLoaded', (event) => {
  highlightEdges();
  highlightAdjacentNodes();
});
]]></script>
</svg>
