<?xml version="1.0" encoding="UTF-8" standalone="no"?>
<!DOCTYPE svg PUBLIC "-//W3C//DTD SVG 1.1//EN"
 "http://www.w3.org/Graphics/SVG/1.1/DTD/svg11.dtd">
<!-- Generated by graphviz version 2.43.0 (0)
 -->
<!-- Title: Editor::TrackPropertiesWindow::DrawElement Pages: 1 -->
<svg width="733pt" height="251pt"
 viewBox="0.00 0.00 733.00 250.50" xmlns="http://www.w3.org/2000/svg" xmlns:xlink="http://www.w3.org/1999/xlink">
<g id="graph0" class="graph" transform="scale(1 1) rotate(0) translate(4 246.5)">
<title>Editor::TrackPropertiesWindow::DrawElement</title>
<!-- Node1 -->
<g id="Node000001" class="node">
<title>Node1</title>
<g id="a_Node000001"><a xlink:title=" ">
<polygon fill="#999999" stroke="#666666" points="165,-181.5 0,-181.5 0,-151.5 165,-151.5 165,-181.5"/>
<text text-anchor="start" x="8" y="-169.5" font-family="Helvetica,sans-Serif" font-size="10.00">Editor::TrackPropertiesWindow</text>
<text text-anchor="middle" x="82.5" y="-158.5" font-family="Helvetica,sans-Serif" font-size="10.00">::DrawElement</text>
</a>
</g>
</g>
<!-- Node2 -->
<g id="Node000002" class="node">
<title>Node2</title>
<g id="a_Node000002"><a xlink:href="classEditor_1_1TrackPropertiesWindow.html#a9c0a882cebba2e32a9fb41db0018d689" target="_top" xlink:title=" ">
<polygon fill="white" stroke="#666666" points="366,-203.5 201,-203.5 201,-173.5 366,-173.5 366,-203.5"/>
<text text-anchor="start" x="209" y="-191.5" font-family="Helvetica,sans-Serif" font-size="10.00">Editor::TrackPropertiesWindow</text>
<text text-anchor="middle" x="283.5" y="-180.5" font-family="Helvetica,sans-Serif" font-size="10.00">::DrawLight</text>
</a>
</g>
</g>
<!-- Node1&#45;&gt;Node2 -->
<g id="edge1_Node000001_Node000002" class="edge">
<title>Node1&#45;&gt;Node2</title>
<g id="a_edge1_Node000001_Node000002"><a xlink:title=" ">
<path fill="none" stroke="#63b8ff" d="M165.02,-175.51C173.5,-176.45 182.17,-177.41 190.76,-178.36"/>
<polygon fill="#63b8ff" stroke="#63b8ff" points="190.47,-181.85 200.79,-179.47 191.23,-174.89 190.47,-181.85"/>
</a>
</g>
</g>
<!-- Node3 -->
<g id="Node000003" class="node">
<title>Node3</title>
<g id="a_Node000003"><a xlink:href="classEditor_1_1TrackPropertiesWindow.html#a8b63bc062fc5bd60bd103e24a109d02d" target="_top" xlink:title=" ">
<polygon fill="white" stroke="#666666" points="567,-242.5 402,-242.5 402,-212.5 567,-212.5 567,-242.5"/>
<text text-anchor="start" x="410" y="-230.5" font-family="Helvetica,sans-Serif" font-size="10.00">Editor::TrackPropertiesWindow</text>
<text text-anchor="middle" x="484.5" y="-219.5" font-family="Helvetica,sans-Serif" font-size="10.00">::FloatToRGB8</text>
</a>
</g>
</g>
<!-- Node1&#45;&gt;Node3 -->
<g id="edge11_Node000001_Node000003" class="edge">
<title>Node1&#45;&gt;Node3</title>
<g id="a_edge11_Node000001_Node000003"><a xlink:title=" ">
<path fill="none" stroke="#63b8ff" d="M114.07,-181.6C137.31,-192.3 170.38,-205.87 201,-212.5 263.7,-226.07 335.96,-229.7 391.71,-229.99"/>
<polygon fill="#63b8ff" stroke="#63b8ff" points="391.91,-233.49 401.92,-230.01 391.92,-226.49 391.91,-233.49"/>
</a>
</g>
</g>
<!-- Node4 -->
<g id="Node000004" class="node">
<title>Node4</title>
<g id="a_Node000004"><a xlink:href="classEditor_1_1TrackPropertiesWindow.html#a7fd6e90871f5e991d3cca9ec8e757123" target="_top" xlink:title=" ">
<polygon fill="white" stroke="#666666" points="567,-186.5 402,-186.5 402,-156.5 567,-156.5 567,-186.5"/>
<text text-anchor="start" x="410" y="-174.5" font-family="Helvetica,sans-Serif" font-size="10.00">Editor::TrackPropertiesWindow</text>
<text text-anchor="middle" x="484.5" y="-163.5" font-family="Helvetica,sans-Serif" font-size="10.00">::RGB8ToFloat</text>
</a>
</g>
</g>
<!-- Node1&#45;&gt;Node4 -->
<g id="edge12_Node000001_Node000004" class="edge">
<title>Node1&#45;&gt;Node4</title>
<g id="a_edge12_Node000001_Node000004"><a xlink:title=" ">
<path fill="none" stroke="#63b8ff" d="M165.11,-164.33C221.54,-163.23 298.35,-162.49 366,-164.5 374.37,-164.75 383.07,-165.1 391.78,-165.51"/>
<polygon fill="#63b8ff" stroke="#63b8ff" points="391.83,-169.01 401.99,-166.01 392.17,-162.02 391.83,-169.01"/>
</a>
</g>
</g>
<!-- Node5 -->
<g id="Node000005" class="node">
<title>Node5</title>
<g id="a_Node000005"><a xlink:href="classEditor_1_1TrackPropertiesWindow.html#a1e9ff69fe776ad12bc72f4c7bac8539a" target="_top" xlink:title=" ">
<polygon fill="white" stroke="#666666" points="366,-117.5 201,-117.5 201,-87.5 366,-87.5 366,-117.5"/>
<text text-anchor="start" x="209" y="-105.5" font-family="Helvetica,sans-Serif" font-size="10.00">Editor::TrackPropertiesWindow</text>
<text text-anchor="middle" x="283.5" y="-94.5" font-family="Helvetica,sans-Serif" font-size="10.00">::DrawMusic</text>
</a>
</g>
</g>
<!-- Node1&#45;&gt;Node5 -->
<g id="edge4_Node000001_Node000005" class="edge">
<title>Node1&#45;&gt;Node5</title>
<g id="a_edge4_Node000001_Node000005"><a xlink:title=" ">
<path fill="none" stroke="#63b8ff" d="M130.16,-151.49C158.87,-142.26 195.86,-130.37 226.19,-120.61"/>
<polygon fill="#63b8ff" stroke="#63b8ff" points="227.34,-123.92 235.79,-117.52 225.2,-117.25 227.34,-123.92"/>
</a>
</g>
</g>
<!-- Node2&#45;&gt;Node3 -->
<g id="edge2_Node000002_Node000003" class="edge">
<title>Node2&#45;&gt;Node3</title>
<g id="a_edge2_Node000002_Node000003"><a xlink:title=" ">
<path fill="none" stroke="#63b8ff" d="M361.15,-203.52C372.87,-205.82 385.04,-208.2 396.95,-210.54"/>
<polygon fill="#63b8ff" stroke="#63b8ff" points="396.4,-214 406.89,-212.49 397.75,-207.13 396.4,-214"/>
</a>
</g>
</g>
<!-- Node2&#45;&gt;Node4 -->
<g id="edge3_Node000002_Node000004" class="edge">
<title>Node2&#45;&gt;Node4</title>
<g id="a_edge3_Node000002_Node000004"><a xlink:title=" ">
<path fill="none" stroke="#63b8ff" d="M366.02,-181.54C374.5,-180.81 383.17,-180.07 391.76,-179.34"/>
<polygon fill="#63b8ff" stroke="#63b8ff" points="392.12,-182.82 401.79,-178.48 391.53,-175.84 392.12,-182.82"/>
</a>
</g>
</g>
<!-- Node6 -->
<g id="Node000006" class="node">
<title>Node6</title>
<g id="a_Node000006"><a xlink:href="classEditor_1_1TrackPropertiesWindow.html#aa28b9e2a87228cc4f182ccc54790cc70" target="_top" xlink:title=" ">
<polygon fill="white" stroke="#666666" points="567,-122.5 402,-122.5 402,-92.5 567,-92.5 567,-122.5"/>
<text text-anchor="start" x="410" y="-110.5" font-family="Helvetica,sans-Serif" font-size="10.00">Editor::TrackPropertiesWindow</text>
<text text-anchor="middle" x="484.5" y="-99.5" font-family="Helvetica,sans-Serif" font-size="10.00">::MusicSeqToString</text>
</a>
</g>
</g>
<!-- Node5&#45;&gt;Node6 -->
<g id="edge5_Node000005_Node000006" class="edge">
<title>Node5&#45;&gt;Node6</title>
<g id="a_edge5_Node000005_Node000006"><a xlink:title=" ">
<path fill="none" stroke="#63b8ff" d="M366.02,-104.55C374.5,-104.76 383.17,-104.98 391.76,-105.19"/>
<polygon fill="#63b8ff" stroke="#63b8ff" points="391.7,-108.69 401.79,-105.45 391.88,-101.7 391.7,-108.69"/>
</a>
</g>
</g>
<!-- Node7 -->
<g id="Node000007" class="node">
<title>Node7</title>
<g id="a_Node000007"><a xlink:href="external_8c.html#a6584dbe6b07d52e25d5ca892468153a5" target="_top" xlink:title=" ">
<polygon fill="white" stroke="#666666" points="529,-74 440,-74 440,-55 529,-55 529,-74"/>
<text text-anchor="middle" x="484.5" y="-62" font-family="Helvetica,sans-Serif" font-size="10.00">play_sequence</text>
</a>
</g>
</g>
<!-- Node5&#45;&gt;Node7 -->
<g id="edge6_Node000005_Node000007" class="edge">
<title>Node5&#45;&gt;Node7</title>
<g id="a_edge6_Node000005_Node000007"><a xlink:title=" ">
<path fill="none" stroke="#63b8ff" d="M363.15,-87.48C385.46,-83.22 409.22,-78.68 429.7,-74.77"/>
<polygon fill="#63b8ff" stroke="#63b8ff" points="430.6,-78.16 439.77,-72.85 429.29,-71.29 430.6,-78.16"/>
</a>
</g>
</g>
<!-- Node8 -->
<g id="Node000008" class="node">
<title>Node8</title>
<g id="a_Node000008"><a xlink:href="external_8c.html#ac48b7cbfcaa7737f892877ead85e4ba7" target="_top" xlink:title=" ">
<polygon fill="white" stroke="#666666" points="710,-130 618,-130 618,-111 710,-111 710,-130"/>
<text text-anchor="middle" x="664" y="-118" font-family="Helvetica,sans-Serif" font-size="10.00">func_800C3448</text>
</a>
</g>
</g>
<!-- Node7&#45;&gt;Node8 -->
<g id="edge7_Node000007_Node000008" class="edge">
<title>Node7&#45;&gt;Node8</title>
<g id="a_edge7_Node000007_Node000008"><a xlink:title=" ">
<path fill="none" stroke="#63b8ff" d="M529.25,-72.53C541.65,-75.39 555.02,-79.03 567,-83.5 583.95,-89.83 586.26,-95.65 603,-102.5 607.54,-104.36 612.35,-106.12 617.18,-107.77"/>
<polygon fill="#63b8ff" stroke="#63b8ff" points="616.48,-111.22 627.07,-110.96 618.63,-104.56 616.48,-111.22"/>
</a>
</g>
</g>
<!-- Node9 -->
<g id="Node000009" class="node">
<title>Node9</title>
<g id="a_Node000009"><a xlink:href="HMAS_8cpp.html#a943f713ceca4307e6e1bb48253c6ad6c" target="_top" xlink:title=" ">
<polygon fill="white" stroke="#666666" points="725,-93 603,-93 603,-74 725,-74 725,-93"/>
<text text-anchor="middle" x="664" y="-81" font-family="Helvetica,sans-Serif" font-size="10.00">HMAS_IsIDRegistered</text>
</a>
</g>
</g>
<!-- Node7&#45;&gt;Node9 -->
<g id="edge8_Node000007_Node000009" class="edge">
<title>Node7&#45;&gt;Node9</title>
<g id="a_edge8_Node000007_Node000009"><a xlink:title=" ">
<path fill="none" stroke="#63b8ff" d="M529.38,-69.2C548.52,-71.25 571.44,-73.7 592.85,-75.99"/>
<polygon fill="#63b8ff" stroke="#63b8ff" points="592.58,-79.48 602.89,-77.07 593.32,-72.52 592.58,-79.48"/>
</a>
</g>
</g>
<!-- Node10 -->
<g id="Node000010" class="node">
<title>Node10</title>
<g id="a_Node000010"><a xlink:href="HMAS_8cpp.html#a704c0426d4f7027c277b28346062dff3" target="_top" xlink:title=" ">
<polygon fill="white" stroke="#666666" points="700,-56 628,-56 628,-37 700,-37 700,-56"/>
<text text-anchor="middle" x="664" y="-44" font-family="Helvetica,sans-Serif" font-size="10.00">HMAS_Play</text>
</a>
</g>
</g>
<!-- Node7&#45;&gt;Node10 -->
<g id="edge9_Node000007_Node000010" class="edge">
<title>Node7&#45;&gt;Node10</title>
<g id="a_edge9_Node000007_Node000010"><a xlink:title=" ">
<path fill="none" stroke="#63b8ff" d="M529.38,-60.05C556.32,-57.32 590.76,-53.83 617.92,-51.07"/>
<polygon fill="#63b8ff" stroke="#63b8ff" points="618.35,-54.55 627.94,-50.05 617.64,-47.58 618.35,-54.55"/>
</a>
</g>
</g>
<!-- Node11 -->
<g id="Node000011" class="node">
<title>Node11</title>
<g id="a_Node000011"><a xlink:href="HMAS_8cpp.html#aa651a0e94efa3ddb0a63e1b4233c0aab" target="_top" xlink:title=" ">
<polygon fill="white" stroke="#666666" points="700.5,-19 627.5,-19 627.5,0 700.5,0 700.5,-19"/>
<text text-anchor="middle" x="664" y="-7" font-family="Helvetica,sans-Serif" font-size="10.00">HMAS_Stop</text>
</a>
</g>
</g>
<!-- Node7&#45;&gt;Node11 -->
<g id="edge10_Node000007_Node000011" class="edge">
<title>Node7&#45;&gt;Node11</title>
<g id="a_edge10_Node000007_Node000011"><a xlink:title=" ">
<path fill="none" stroke="#63b8ff" d="M515.41,-54.96C539.13,-47.42 573.15,-36.68 603,-27.5 608.79,-25.72 614.91,-23.86 620.93,-22.04"/>
<polygon fill="#63b8ff" stroke="#63b8ff" points="622.34,-25.27 630.9,-19.04 620.32,-18.57 622.34,-25.27"/>
</a>
</g>
</g>
</g>
</svg>
