<?xml version="1.0" encoding="UTF-8" standalone="no"?>
<!DOCTYPE svg PUBLIC "-//W3C//DTD SVG 1.1//EN"
 "http://www.w3.org/Graphics/SVG/1.1/DTD/svg11.dtd">
<!-- Generated by graphviz version 2.43.0 (0)
 -->
<!-- Title: pfd::settings::flags Pages: 1 -->
<svg width="791pt" height="292pt"
 viewBox="0.00 0.00 791.00 291.60" xmlns="http://www.w3.org/2000/svg" xmlns:xlink="http://www.w3.org/1999/xlink">
<g id="graph0" class="graph" transform="scale(1 1) rotate(0) translate(4 287.6)">
<title>pfd::settings::flags</title>
<!-- Node1 -->
<g id="Node000001" class="node">
<title>Node1</title>
<g id="a_Node000001"><a xlink:title=" ">
<polygon fill="#999999" stroke="#666666" points="783,-141.99 676,-141.99 676,-122.99 783,-122.99 783,-141.99"/>
<text text-anchor="middle" x="729.5" y="-129.99" font-family="Helvetica,sans-Serif" font-size="10.00">pfd::settings::flags</text>
</a>
</g>
</g>
<!-- Node1&#45;&gt;Node1 -->
<g id="edge12_Node000001_Node000001" class="edge">
<title>Node1&#45;&gt;Node1</title>
<g id="a_edge12_Node000001_Node000001"><a xlink:title=" ">
<path fill="none" stroke="#63b8ff" d="M758.62,-150.81C757.4,-156 747.7,-159.99 729.5,-159.99 701.77,-159.99 693.76,-150.73 705.46,-142.07"/>
<polygon fill="#63b8ff" stroke="#63b8ff" points="761.59,-148.96 753.54,-142.07 755.54,-152.48 761.59,-148.96"/>
</a>
</g>
</g>
<!-- Node2 -->
<g id="Node000002" class="node">
<title>Node2</title>
<g id="a_Node000002"><a xlink:href="classpfd_1_1settings.html#a54fb5598e7501ac38d17e3629190b2fe" target="_top" xlink:title=" ">
<polygon fill="white" stroke="#666666" points="468.5,-282.99 340.5,-282.99 340.5,-263.99 468.5,-263.99 468.5,-282.99"/>
<text text-anchor="middle" x="404.5" y="-270.99" font-family="Helvetica,sans-Serif" font-size="10.00">pfd::settings::available</text>
</a>
</g>
</g>
<!-- Node1&#45;&gt;Node2 -->
<g id="edge1_Node000001_Node000002" class="edge">
<title>Node1&#45;&gt;Node2</title>
<g id="a_edge1_Node000001_Node000002"><a xlink:title=" ">
<path fill="none" stroke="#63b8ff" d="M720.77,-151.85C708.4,-179.97 681.26,-231.3 640,-254.49 587.75,-283.86 518.34,-285.8 468.62,-282.11"/>
<polygon fill="#63b8ff" stroke="#63b8ff" points="724.13,-152.89 724.79,-142.31 717.68,-150.17 724.13,-152.89"/>
</a>
</g>
</g>
<!-- Node3 -->
<g id="Node000003" class="node">
<title>Node3</title>
<g id="a_Node000003"><a xlink:href="classpfd_1_1internal_1_1dialog.html#aadaf6cb30620c85f4b97993e3c819188" target="_top" xlink:title=" ">
<polygon fill="white" stroke="#666666" points="629.5,-169.49 517.5,-169.49 517.5,-139.49 629.5,-139.49 629.5,-169.49"/>
<text text-anchor="start" x="525.5" y="-157.49" font-family="Helvetica,sans-Serif" font-size="10.00">pfd::internal::dialog</text>
<text text-anchor="middle" x="573.5" y="-146.49" font-family="Helvetica,sans-Serif" font-size="10.00">::desktop_helper</text>
</a>
</g>
</g>
<!-- Node1&#45;&gt;Node3 -->
<g id="edge2_Node000001_Node000003" class="edge">
<title>Node1&#45;&gt;Node3</title>
<g id="a_edge2_Node000001_Node000003"><a xlink:title=" ">
<path fill="none" stroke="#63b8ff" d="M665.99,-141.42C653.98,-143.14 641.48,-144.92 629.72,-146.6"/>
<polygon fill="#63b8ff" stroke="#63b8ff" points="666.53,-144.88 675.93,-140 665.54,-137.95 666.53,-144.88"/>
</a>
</g>
</g>
<!-- Node4 -->
<g id="Node000004" class="node">
<title>Node4</title>
<g id="a_Node000004"><a xlink:href="classpfd_1_1internal_1_1file__dialog.html#a16f53945e61d23aa9b7fc373701dd13f" target="_top" xlink:title=" ">
<polygon fill="white" stroke="#666666" points="458.5,-133.49 350.5,-133.49 350.5,-103.49 458.5,-103.49 458.5,-133.49"/>
<text text-anchor="start" x="358.5" y="-121.49" font-family="Helvetica,sans-Serif" font-size="10.00">pfd::internal::file</text>
<text text-anchor="middle" x="404.5" y="-110.49" font-family="Helvetica,sans-Serif" font-size="10.00">_dialog::file_dialog</text>
</a>
</g>
</g>
<!-- Node1&#45;&gt;Node4 -->
<g id="edge11_Node000001_Node000004" class="edge">
<title>Node1&#45;&gt;Node4</title>
<g id="a_edge11_Node000001_Node000004"><a xlink:title=" ">
<path fill="none" stroke="#63b8ff" d="M706.51,-147.74C689.29,-158.7 664.27,-172.56 640,-178.49 582.58,-192.52 561.93,-200.33 507,-178.49 486.55,-170.36 489.56,-156.32 471,-144.49 464.6,-140.42 457.46,-136.79 450.31,-133.63"/>
<polygon fill="#63b8ff" stroke="#63b8ff" points="708.79,-150.43 715.22,-142.01 704.94,-144.58 708.79,-150.43"/>
</a>
</g>
</g>
<!-- Node10 -->
<g id="Node000010" class="node">
<title>Node10</title>
<g id="a_Node000010"><a xlink:href="classpfd_1_1message.html#a38e0ce9a58c006011708a4968be17833" target="_top" xlink:title=" ">
<polygon fill="white" stroke="#666666" points="471,-83.99 338,-83.99 338,-64.99 471,-64.99 471,-83.99"/>
<text text-anchor="middle" x="404.5" y="-71.99" font-family="Helvetica,sans-Serif" font-size="10.00">pfd::message::message</text>
</a>
</g>
</g>
<!-- Node1&#45;&gt;Node10 -->
<g id="edge21_Node000001_Node000010" class="edge">
<title>Node1&#45;&gt;Node10</title>
<g id="a_edge21_Node000001_Node000010"><a xlink:title=" ">
<path fill="none" stroke="#63b8ff" d="M702.6,-118.32C685.38,-109.6 661.97,-99.06 640,-93.49 584.17,-79.36 518.7,-75.03 471.15,-73.99"/>
<polygon fill="#63b8ff" stroke="#63b8ff" points="701,-121.43 711.48,-122.93 704.23,-115.22 701,-121.43"/>
</a>
</g>
</g>
<!-- Node11 -->
<g id="Node000011" class="node">
<title>Node11</title>
<g id="a_Node000011"><a xlink:href="classpfd_1_1notify.html#a64f87055f567ed5720a357b6844eccb7" target="_top" xlink:title=" ">
<polygon fill="white" stroke="#666666" points="454,-46.99 355,-46.99 355,-27.99 454,-27.99 454,-46.99"/>
<text text-anchor="middle" x="404.5" y="-34.99" font-family="Helvetica,sans-Serif" font-size="10.00">pfd::notify::notify</text>
</a>
</g>
</g>
<!-- Node1&#45;&gt;Node11 -->
<g id="edge22_Node000001_Node000011" class="edge">
<title>Node1&#45;&gt;Node11</title>
<g id="a_edge22_Node000001_Node000011"><a xlink:title=" ">
<path fill="none" stroke="#63b8ff" d="M720.72,-113.64C708.29,-86.34 681.07,-36.82 640,-16.49 569.3,18.5 471.92,-11.21 428.27,-27.95"/>
<polygon fill="#63b8ff" stroke="#63b8ff" points="717.56,-115.15 724.76,-122.92 723.98,-112.35 717.56,-115.15"/>
</a>
</g>
</g>
<!-- Node12 -->
<g id="Node000012" class="node">
<title>Node12</title>
<g id="a_Node000012"><a xlink:href="classpfd_1_1settings.html#aa79fb10eee785f1acd8d1ff34e226c89" target="_top" xlink:title=" ">
<polygon fill="white" stroke="#666666" points="640,-120.99 507,-120.99 507,-101.99 640,-101.99 640,-120.99"/>
<text text-anchor="middle" x="573.5" y="-108.99" font-family="Helvetica,sans-Serif" font-size="10.00">pfd::settings::is_kdialog</text>
</a>
</g>
</g>
<!-- Node1&#45;&gt;Node12 -->
<g id="edge13_Node000001_Node000012" class="edge">
<title>Node1&#45;&gt;Node12</title>
<g id="a_edge13_Node000001_Node000012"><a xlink:title=" ">
<path fill="none" stroke="#63b8ff" d="M665.78,-123.94C657.34,-122.79 648.67,-121.61 640.18,-120.45"/>
<polygon fill="#63b8ff" stroke="#63b8ff" points="665.55,-127.44 675.93,-125.32 666.5,-120.5 665.55,-127.44"/>
</a>
</g>
</g>
<!-- Node13 -->
<g id="Node000013" class="node">
<title>Node13</title>
<g id="a_Node000013"><a xlink:href="classpfd_1_1settings.html#a08e4a5b150186d77158a974cc8c2d4a2" target="_top" xlink:title=" ">
<polygon fill="white" stroke="#666666" points="637,-44.99 510,-44.99 510,-25.99 637,-25.99 637,-44.99"/>
<text text-anchor="middle" x="573.5" y="-32.99" font-family="Helvetica,sans-Serif" font-size="10.00">pfd::settings::is_zenity</text>
</a>
</g>
</g>
<!-- Node1&#45;&gt;Node13 -->
<g id="edge17_Node000001_Node000013" class="edge">
<title>Node1&#45;&gt;Node13</title>
<g id="a_edge17_Node000001_Node000013"><a xlink:title=" ">
<path fill="none" stroke="#63b8ff" d="M711.56,-115.51C694.66,-99.32 667.32,-75.15 640,-59.49 629.81,-53.65 617.94,-48.79 607.12,-45.01"/>
<polygon fill="#63b8ff" stroke="#63b8ff" points="709.38,-118.26 718.98,-122.74 714.27,-113.25 709.38,-118.26"/>
</a>
</g>
</g>
<!-- Node14 -->
<g id="Node000014" class="node">
<title>Node14</title>
<g id="a_Node000014"><a xlink:href="classpfd_1_1settings.html#a7190e52d512b1321acb78731a8cddf42" target="_top" xlink:title=" ">
<polygon fill="white" stroke="#666666" points="634.5,-244.99 512.5,-244.99 512.5,-225.99 634.5,-225.99 634.5,-244.99"/>
<text text-anchor="middle" x="573.5" y="-232.99" font-family="Helvetica,sans-Serif" font-size="10.00">pfd::settings::settings</text>
</a>
</g>
</g>
<!-- Node1&#45;&gt;Node14 -->
<g id="edge23_Node000001_Node000014" class="edge">
<title>Node1&#45;&gt;Node14</title>
<g id="a_edge23_Node000001_Node000014"><a xlink:title=" ">
<path fill="none" stroke="#63b8ff" d="M712.91,-149.83C696.31,-167.41 668.54,-194.38 640,-211.49 630.13,-217.41 618.57,-222.24 607.92,-225.97"/>
<polygon fill="#63b8ff" stroke="#63b8ff" points="715.89,-151.76 720.11,-142.04 710.75,-147 715.89,-151.76"/>
</a>
</g>
</g>
<!-- Node3&#45;&gt;Node4 -->
<g id="edge3_Node000003_Node000004" class="edge">
<title>Node3&#45;&gt;Node4</title>
<g id="a_edge3_Node000003_Node000004"><a xlink:title=" ">
<path fill="none" stroke="#63b8ff" d="M507.43,-140.47C491.26,-136.98 474.12,-133.28 458.6,-129.94"/>
<polygon fill="#63b8ff" stroke="#63b8ff" points="506.84,-143.92 517.36,-142.6 508.32,-137.08 506.84,-143.92"/>
</a>
</g>
</g>
<!-- Node3&#45;&gt;Node10 -->
<g id="edge9_Node000003_Node000010" class="edge">
<title>Node3&#45;&gt;Node10</title>
<g id="a_edge9_Node000003_Node000010"><a xlink:title=" ">
<path fill="none" stroke="#63b8ff" d="M514.62,-134.92C512,-133.53 509.44,-132.05 507,-130.49 487.93,-118.31 490.4,-106.14 471,-94.49 463.87,-90.21 455.73,-86.77 447.69,-84.04"/>
<polygon fill="#63b8ff" stroke="#63b8ff" points="513.25,-138.15 523.78,-139.37 516.31,-131.85 513.25,-138.15"/>
</a>
</g>
</g>
<!-- Node3&#45;&gt;Node11 -->
<g id="edge10_Node000003_Node000011" class="edge">
<title>Node3&#45;&gt;Node11</title>
<g id="a_edge10_Node000003_Node000011"><a xlink:title=" ">
<path fill="none" stroke="#63b8ff" d="M511.07,-133.84C509.66,-132.78 508.3,-131.66 507,-130.49 479.86,-105.98 498.97,-80.06 471,-56.49 466.02,-52.3 460.16,-49.03 454.02,-46.48"/>
<polygon fill="#63b8ff" stroke="#63b8ff" points="509.32,-136.88 519.62,-139.37 513.12,-131 509.32,-136.88"/>
</a>
</g>
</g>
<!-- Node5 -->
<g id="Node000005" class="node">
<title>Node5</title>
<g id="a_Node000005"><a xlink:href="classpfd_1_1open__file.html#a6bb56d3681f50dee4294ddaf69e6ec82" target="_top" xlink:title=" ">
<polygon fill="white" stroke="#666666" points="302,-164.99 169,-164.99 169,-145.99 302,-145.99 302,-164.99"/>
<text text-anchor="middle" x="235.5" y="-152.99" font-family="Helvetica,sans-Serif" font-size="10.00">pfd::open_file::open_file</text>
</a>
</g>
</g>
<!-- Node4&#45;&gt;Node5 -->
<g id="edge4_Node000004_Node000005" class="edge">
<title>Node4&#45;&gt;Node5</title>
<g id="a_edge4_Node000004_Node000005"><a xlink:title=" ">
<path fill="none" stroke="#63b8ff" d="M340.39,-132.47C320.09,-136.97 298.07,-141.85 279.55,-145.95"/>
<polygon fill="#63b8ff" stroke="#63b8ff" points="341.19,-135.88 350.2,-130.3 339.68,-129.05 341.19,-135.88"/>
</a>
</g>
</g>
<!-- Node7 -->
<g id="Node000007" class="node">
<title>Node7</title>
<g id="a_Node000007"><a xlink:href="classpfd_1_1save__file.html#a5405ec39e88121a9ebeae60ba26b4af1" target="_top" xlink:title=" ">
<polygon fill="white" stroke="#666666" points="301,-127.99 170,-127.99 170,-108.99 301,-108.99 301,-127.99"/>
<text text-anchor="middle" x="235.5" y="-115.99" font-family="Helvetica,sans-Serif" font-size="10.00">pfd::save_file::save_file</text>
</a>
</g>
</g>
<!-- Node4&#45;&gt;Node7 -->
<g id="edge6_Node000004_Node000007" class="edge">
<title>Node4&#45;&gt;Node7</title>
<g id="a_edge6_Node000004_Node000007"><a xlink:title=" ">
<path fill="none" stroke="#63b8ff" d="M340.16,-118.49C327.44,-118.49 314.05,-118.49 301.28,-118.49"/>
<polygon fill="#63b8ff" stroke="#63b8ff" points="340.2,-121.99 350.2,-118.49 340.2,-114.99 340.2,-121.99"/>
</a>
</g>
</g>
<!-- Node9 -->
<g id="Node000009" class="node">
<title>Node9</title>
<g id="a_Node000009"><a xlink:href="classpfd_1_1select__folder.html#ac6611de7b07e4366ffd2442d22ae1924" target="_top" xlink:title=" ">
<polygon fill="white" stroke="#666666" points="286,-90.49 185,-90.49 185,-60.49 286,-60.49 286,-90.49"/>
<text text-anchor="start" x="193" y="-78.49" font-family="Helvetica,sans-Serif" font-size="10.00">pfd::select_folder</text>
<text text-anchor="middle" x="235.5" y="-67.49" font-family="Helvetica,sans-Serif" font-size="10.00">::select_folder</text>
</a>
</g>
</g>
<!-- Node4&#45;&gt;Node9 -->
<g id="edge8_Node000004_Node000009" class="edge">
<title>Node4&#45;&gt;Node9</title>
<g id="a_edge8_Node000004_Node000009"><a xlink:title=" ">
<path fill="none" stroke="#63b8ff" d="M340.4,-102.24C322.46,-97.63 303.19,-92.66 286.17,-88.28"/>
<polygon fill="#63b8ff" stroke="#63b8ff" points="339.64,-105.66 350.2,-104.77 341.39,-98.89 339.64,-105.66"/>
</a>
</g>
</g>
<!-- Node6 -->
<g id="Node000006" class="node">
<title>Node6</title>
<g id="a_Node000006"><a xlink:href="classpfd_1_1open__file.html#a47ceb23b5ed1e875318fd3d4ab6aff71" target="_top" xlink:title=" ">
<polygon fill="white" stroke="#666666" points="133,-164.99 0,-164.99 0,-145.99 133,-145.99 133,-164.99"/>
<text text-anchor="middle" x="66.5" y="-152.99" font-family="Helvetica,sans-Serif" font-size="10.00">pfd::open_file::open_file</text>
</a>
</g>
</g>
<!-- Node5&#45;&gt;Node6 -->
<g id="edge5_Node000005_Node000006" class="edge">
<title>Node5&#45;&gt;Node6</title>
<g id="a_edge5_Node000005_Node000006"><a xlink:title=" ">
<path fill="none" stroke="#63b8ff" d="M158.93,-155.49C150.32,-155.49 141.58,-155.49 133.11,-155.49"/>
<polygon fill="#63b8ff" stroke="#63b8ff" points="158.98,-158.99 168.98,-155.49 158.98,-151.99 158.98,-158.99"/>
</a>
</g>
</g>
<!-- Node8 -->
<g id="Node000008" class="node">
<title>Node8</title>
<g id="a_Node000008"><a xlink:href="classpfd_1_1save__file.html#a3e75a83822e14ddcf7cd95e397db400f" target="_top" xlink:title=" ">
<polygon fill="white" stroke="#666666" points="132,-127.99 1,-127.99 1,-108.99 132,-108.99 132,-127.99"/>
<text text-anchor="middle" x="66.5" y="-115.99" font-family="Helvetica,sans-Serif" font-size="10.00">pfd::save_file::save_file</text>
</a>
</g>
</g>
<!-- Node7&#45;&gt;Node8 -->
<g id="edge7_Node000007_Node000008" class="edge">
<title>Node7&#45;&gt;Node8</title>
<g id="a_edge7_Node000007_Node000008"><a xlink:title=" ">
<path fill="none" stroke="#63b8ff" d="M159.66,-118.49C150.49,-118.49 141.18,-118.49 132.17,-118.49"/>
<polygon fill="#63b8ff" stroke="#63b8ff" points="159.93,-121.99 169.93,-118.49 159.93,-114.99 159.93,-121.99"/>
</a>
</g>
</g>
<!-- Node12&#45;&gt;Node4 -->
<g id="edge14_Node000012_Node000004" class="edge">
<title>Node12&#45;&gt;Node4</title>
<g id="a_edge14_Node000012_Node000004"><a xlink:title=" ">
<path fill="none" stroke="#63b8ff" d="M496.76,-114.67C483.92,-115.21 470.83,-115.75 458.73,-116.26"/>
<polygon fill="#63b8ff" stroke="#63b8ff" points="497.13,-118.15 506.98,-114.24 496.84,-111.16 497.13,-118.15"/>
</a>
</g>
</g>
<!-- Node12&#45;&gt;Node10 -->
<g id="edge15_Node000012_Node000010" class="edge">
<title>Node12&#45;&gt;Node10</title>
<g id="a_edge15_Node000012_Node000010"><a xlink:title=" ">
<path fill="none" stroke="#63b8ff" d="M519.6,-99.77C496.73,-94.71 470.31,-88.85 448.65,-84.05"/>
<polygon fill="#63b8ff" stroke="#63b8ff" points="518.97,-103.22 529.49,-101.96 520.49,-96.38 518.97,-103.22"/>
</a>
</g>
</g>
<!-- Node12&#45;&gt;Node11 -->
<g id="edge16_Node000012_Node000011" class="edge">
<title>Node12&#45;&gt;Node11</title>
<g id="a_edge16_Node000012_Node000011"><a xlink:title=" ">
<path fill="none" stroke="#63b8ff" d="M548.4,-96.52C528.27,-84.49 498.53,-67.79 471,-56.49 462.35,-52.94 452.8,-49.77 443.73,-47.09"/>
<polygon fill="#63b8ff" stroke="#63b8ff" points="546.82,-99.65 557.19,-101.84 550.45,-93.67 546.82,-99.65"/>
</a>
</g>
</g>
<!-- Node13&#45;&gt;Node4 -->
<g id="edge18_Node000013_Node000004" class="edge">
<title>Node13&#45;&gt;Node4</title>
<g id="a_edge18_Node000013_Node000004"><a xlink:title=" ">
<path fill="none" stroke="#63b8ff" d="M548.87,-50.39C528.65,-62.79 498.52,-80.47 471,-93.49 463.63,-96.98 455.63,-100.35 447.83,-103.44"/>
<polygon fill="#63b8ff" stroke="#63b8ff" points="550.76,-53.33 557.42,-45.09 547.07,-47.38 550.76,-53.33"/>
</a>
</g>
</g>
<!-- Node13&#45;&gt;Node10 -->
<g id="edge19_Node000013_Node000010" class="edge">
<title>Node13&#45;&gt;Node10</title>
<g id="a_edge19_Node000013_Node000010"><a xlink:title=" ">
<path fill="none" stroke="#63b8ff" d="M521.91,-47.31C497.67,-52.97 469.03,-59.66 446.22,-64.98"/>
<polygon fill="#63b8ff" stroke="#63b8ff" points="522.71,-50.72 531.65,-45.03 521.11,-43.9 522.71,-50.72"/>
</a>
</g>
</g>
<!-- Node13&#45;&gt;Node11 -->
<g id="edge20_Node000013_Node000011" class="edge">
<title>Node13&#45;&gt;Node11</title>
<g id="a_edge20_Node000013_Node000011"><a xlink:title=" ">
<path fill="none" stroke="#63b8ff" d="M499.79,-36.36C484.36,-36.55 468.43,-36.74 454.16,-36.91"/>
<polygon fill="#63b8ff" stroke="#63b8ff" points="499.88,-39.86 509.84,-36.24 499.8,-32.86 499.88,-39.86"/>
</a>
</g>
</g>
<!-- Node14&#45;&gt;Node2 -->
<g id="edge24_Node000014_Node000002" class="edge">
<title>Node14&#45;&gt;Node2</title>
<g id="a_edge24_Node000014_Node000002"><a xlink:title=" ">
<path fill="none" stroke="#63b8ff" d="M520.54,-247.32C496.99,-252.67 469.53,-258.92 447.34,-263.97"/>
<polygon fill="#63b8ff" stroke="#63b8ff" points="521.38,-250.71 530.36,-245.08 519.83,-243.89 521.38,-250.71"/>
</a>
</g>
</g>
<!-- Node15 -->
<g id="Node000015" class="node">
<title>Node15</title>
<g id="a_Node000015"><a xlink:href="classpfd_1_1settings.html#a9b611d06856910f0d8c358dd0eadfcee" target="_top" xlink:title=" ">
<polygon fill="white" stroke="#666666" points="458,-245.99 351,-245.99 351,-226.99 458,-226.99 458,-245.99"/>
<text text-anchor="middle" x="404.5" y="-233.99" font-family="Helvetica,sans-Serif" font-size="10.00">pfd::settings::flags</text>
</a>
</g>
</g>
<!-- Node14&#45;&gt;Node15 -->
<g id="edge25_Node000014_Node000015" class="edge">
<title>Node14&#45;&gt;Node15</title>
<g id="a_edge25_Node000014_Node000015"><a xlink:title=" ">
<path fill="none" stroke="#63b8ff" d="M502.14,-235.91C487.44,-236 472.17,-236.09 458.24,-236.18"/>
<polygon fill="#63b8ff" stroke="#63b8ff" points="502.23,-239.41 512.21,-235.85 502.19,-232.41 502.23,-239.41"/>
</a>
</g>
</g>
<!-- Node16 -->
<g id="Node000016" class="node">
<title>Node16</title>
<g id="a_Node000016"><a xlink:href="classpfd_1_1settings.html#a60023ab0ac98008d2c52a568e9ee540f" target="_top" xlink:title=" ">
<polygon fill="white" stroke="#666666" points="462.5,-208.99 346.5,-208.99 346.5,-189.99 462.5,-189.99 462.5,-208.99"/>
<text text-anchor="middle" x="404.5" y="-196.99" font-family="Helvetica,sans-Serif" font-size="10.00">pfd::settings::rescan</text>
</a>
</g>
</g>
<!-- Node14&#45;&gt;Node16 -->
<g id="edge26_Node000014_Node000016" class="edge">
<title>Node14&#45;&gt;Node16</title>
<g id="a_edge26_Node000014_Node000016"><a xlink:title=" ">
<path fill="none" stroke="#63b8ff" d="M518.25,-223.8C496.07,-219.02 470.75,-213.56 449.73,-209.03"/>
<polygon fill="#63b8ff" stroke="#63b8ff" points="517.67,-227.25 528.19,-225.94 519.15,-220.41 517.67,-227.25"/>
</a>
</g>
</g>
<!-- Node17 -->
<g id="Node000017" class="node">
<title>Node17</title>
<g id="a_Node000017"><a xlink:href="classpfd_1_1settings.html#a0ed32e8ed039106028474eb9f0a0a7bc" target="_top" xlink:title=" ">
<polygon fill="white" stroke="#666666" points="465.5,-171.99 343.5,-171.99 343.5,-152.99 465.5,-152.99 465.5,-171.99"/>
<text text-anchor="middle" x="404.5" y="-159.99" font-family="Helvetica,sans-Serif" font-size="10.00">pfd::settings::verbose</text>
</a>
</g>
</g>
<!-- Node14&#45;&gt;Node17 -->
<g id="edge27_Node000014_Node000017" class="edge">
<title>Node14&#45;&gt;Node17</title>
<g id="a_edge27_Node000014_Node000017"><a xlink:title=" ">
<path fill="none" stroke="#63b8ff" d="M530.04,-222.36C522.16,-219.25 514.16,-215.62 507,-211.49 488.96,-201.09 489.39,-191.27 471,-181.49 463.89,-177.71 455.94,-174.6 448.09,-172.07"/>
<polygon fill="#63b8ff" stroke="#63b8ff" points="528.94,-225.69 539.53,-225.89 531.38,-219.12 528.94,-225.69"/>
</a>
</g>
</g>
</g>
</svg>
