<?xml version="1.0" encoding="UTF-8" standalone="no"?>
<!DOCTYPE svg PUBLIC "-//W3C//DTD SVG 1.1//EN"
 "http://www.w3.org/Graphics/SVG/1.1/DTD/svg11.dtd">
<!-- Generated by graphviz version 2.43.0 (0)
 -->
<!-- Title: RainbowRoad::BeginPlay Pages: 1 -->
<!--zoomable 469 -->

<svg id="main" version="1.1" xmlns="http://www.w3.org/2000/svg" xmlns:xlink="http://www.w3.org/1999/xlink" xml:space="preserve" onload="init(evt)">

<style type="text/css"><![CDATA[
.node, .edge {opacity: 0.7;}
.node.selected, .edge.selected {opacity: 1;}
.edge:hover path { stroke: red; }
.edge:hover polygon { stroke: red; fill: red; }
]]></style>

<defs>
  <circle id="rim" cx="0" cy="0" r="7"/>
  <circle id="rim2" cx="0" cy="0" r="3.5"/>
  <g id="zoomPlus">
    <use xlink:href="#rim" fill="#404040"><set attributeName="fill" to="#808080" begin="zoomplus.mouseover" end="zoomplus.mouseout"/></use>
    <path d="M-4,0h8M0,-4v8" fill="none" stroke="white" stroke-width="1.5" pointer-events="none"/>
  </g>
  <g id="zoomMin">
    <use xlink:href="#rim" fill="#404040"><set attributeName="fill" to="#808080" begin="zoomminus.mouseover" end="zoomminus.mouseout"/></use>
    <path d="M-4,0h8" fill="none" stroke="white" stroke-width="1.5" pointer-events="none"/>
  </g>
  <g id="arrowUp" transform="translate(30 24)">
    <use xlink:href="#rim"/>
    <path pointer-events="none" fill="none" stroke="white" stroke-width="1.5" d="M0,-3.0v7 M-2.5,-0.5L0,-3.0L2.5,-0.5"/>
  </g>
  <g id="arrowRight" transform="rotate(90) translate(36 -43)">
    <use xlink:href="#rim"/>
    <path pointer-events="none" fill="none" stroke="white" stroke-width="1.5" d="M0,-3.0v7 M-2.5,-0.5L0,-3.0L2.5,-0.5"/>
  </g>
  <g id="arrowDown" transform="rotate(180) translate(-30 -48)">
    <use xlink:href="#rim"/>
    <path pointer-events="none" fill="none" stroke="white" stroke-width="1.5" d="M0,-3.0v7 M-2.5,-0.5L0,-3.0L2.5,-0.5"/>
  </g>
  <g id="arrowLeft" transform="rotate(270) translate(-36 17)">
    <use xlink:href="#rim"/>
    <path pointer-events="none" fill="none" stroke="white" stroke-width="1.5" d="M0,-3.0v7 M-2.5,-0.5L0,-3.0L2.5,-0.5"/>
  </g>
  <g id="resetDef">
    <use xlink:href="#rim2" fill="#404040"><set attributeName="fill" to="#808080" begin="reset.mouseover" end="reset.mouseout"/></use>
  </g>
</defs>
<script type="application/ecmascript">
var viewWidth = 1773;
var viewHeight = 469;
var sectionId = 'dynsection-3';
</script>
<script type="application/ecmascript" xlink:href="svg.min.js"/>
<svg id="graph" class="graph">
<g id="viewport">
<title>RainbowRoad::BeginPlay</title>
<!-- Node1 -->
<g id="Node000001" class="node">
<title>Node1</title>
<g id="a_Node000001"><a xlink:title=" ">
<polygon fill="#999999" stroke="#666666" points="138,-121 0,-121 0,-102 138,-102 138,-121"/>
<text text-anchor="middle" x="69" y="-109" font-family="Helvetica,sans-Serif" font-size="10.00">RainbowRoad::BeginPlay</text>
</a>
</g>
</g>
<!-- Node2 -->
<g id="Node000002" class="node">
<title>Node2</title>
<g id="a_Node000002"><a xlink:href="actors_8c.html#ac586c2534258d0f108e15fd88751b760" target="_top" xlink:title=" ">
<polygon fill="white" stroke="#666666" points="301,-121 174,-121 174,-102 301,-102 301,-121"/>
<text text-anchor="middle" x="237.5" y="-109" font-family="Helvetica,sans-Serif" font-size="10.00">spawn_all_item_boxes</text>
</a>
</g>
</g>
<!-- Node1&#45;&gt;Node2 -->
<g id="edge1_Node000001_Node000002" class="edge">
<title>Node1&#45;&gt;Node2</title>
<g id="a_edge1_Node000001_Node000002"><a xlink:title=" ">
<path fill="none" stroke="#63b8ff" d="M138.2,-111.5C146.57,-111.5 155.14,-111.5 163.57,-111.5"/>
<polygon fill="#63b8ff" stroke="#63b8ff" points="163.76,-115 173.76,-111.5 163.76,-108 163.76,-115"/>
</a>
</g>
</g>
<!-- Node3 -->
<g id="Node000003" class="node">
<title>Node3</title>
<g id="a_Node000003"><a xlink:href="actors_8c.html#a91fb2e4e37e7c72fea918fe2c1bb4eaf" target="_top" xlink:title=" ">
<polygon fill="white" stroke="#666666" points="477,-214 337,-214 337,-195 477,-195 477,-214"/>
<text text-anchor="middle" x="407" y="-202" font-family="Helvetica,sans-Serif" font-size="10.00">add_actor_to_empty_slot</text>
</a>
</g>
</g>
<!-- Node2&#45;&gt;Node3 -->
<g id="edge2_Node000002_Node000003" class="edge">
<title>Node2&#45;&gt;Node3</title>
<g id="a_edge2_Node000002_Node000003"><a xlink:title=" ">
<path fill="none" stroke="#63b8ff" d="M255.79,-121.1C285.13,-137.39 344.84,-170.54 379.49,-189.78"/>
<polygon fill="#63b8ff" stroke="#63b8ff" points="378.11,-193.02 388.55,-194.81 381.5,-186.9 378.11,-193.02"/>
</a>
</g>
</g>
<!-- Node10 -->
<g id="Node000010" class="node">
<title>Node10</title>
<g id="a_Node000010"><a xlink:href="Game_8cpp.html#a693de7d8b89fe291aafea86bc64a0a2e" target="_top" xlink:title=" ">
<polygon fill="white" stroke="#666666" points="977,-350 897,-350 897,-331 977,-331 977,-350"/>
<text text-anchor="middle" x="937" y="-338" font-family="Helvetica,sans-Serif" font-size="10.00">CM_GetActor</text>
</a>
</g>
</g>
<!-- Node2&#45;&gt;Node10 -->
<g id="edge29_Node000002_Node000010" class="edge">
<title>Node2&#45;&gt;Node10</title>
<g id="a_edge29_Node000002_Node000010"><a xlink:title=" ">
<path fill="none" stroke="#63b8ff" d="M245.18,-121.25C259.83,-142.11 296.74,-191.75 337,-223.5 406.47,-278.29 427.77,-292.78 513,-316.5 644.06,-352.97 806.53,-349.27 886.62,-344.41"/>
<polygon fill="#63b8ff" stroke="#63b8ff" points="887.14,-347.88 896.9,-343.75 886.69,-340.9 887.14,-347.88"/>
</a>
</g>
</g>
<!-- Node23 -->
<g id="Node000023" class="node">
<title>Node23</title>
<g id="a_Node000023"><a xlink:href="math__util_8c.html#a79fd07a0971ec96a3ff0801963a2fa7f" target="_top" xlink:title=" ">
<polygon fill="white" stroke="#666666" points="969,-174 905,-174 905,-155 969,-155 969,-174"/>
<text text-anchor="middle" x="937" y="-162" font-family="Helvetica,sans-Serif" font-size="10.00">vec3f_set</text>
</a>
</g>
</g>
<!-- Node2&#45;&gt;Node23 -->
<g id="edge34_Node000002_Node000023" class="edge">
<title>Node2&#45;&gt;Node23</title>
<g id="a_edge34_Node000002_Node000023"><a xlink:title=" ">
<path fill="none" stroke="#63b8ff" d="M301.14,-112.97C382.05,-115.19 527.22,-120.28 651,-130.5 738.01,-137.68 839.42,-150.96 894.76,-158.62"/>
<polygon fill="#63b8ff" stroke="#63b8ff" points="894.48,-162.12 904.87,-160.03 895.45,-155.19 894.48,-162.12"/>
</a>
</g>
</g>
<!-- Node30 -->
<g id="Node000030" class="node">
<title>Node30</title>
<g id="a_Node000030"><a xlink:href="math__util_8c.html#a062850863585005ad1d0a75d9ff70693" target="_top" xlink:title=" ">
<polygon fill="white" stroke="#666666" points="445.5,-83 368.5,-83 368.5,-64 445.5,-64 445.5,-83"/>
<text text-anchor="middle" x="407" y="-71" font-family="Helvetica,sans-Serif" font-size="10.00">random_u16</text>
</a>
</g>
</g>
<!-- Node2&#45;&gt;Node30 -->
<g id="edge30_Node000002_Node000030" class="edge">
<title>Node2&#45;&gt;Node30</title>
<g id="a_edge30_Node000002_Node000030"><a xlink:title=" ">
<path fill="none" stroke="#63b8ff" d="M280.77,-101.91C304.45,-96.54 334.05,-89.82 358.52,-84.27"/>
<polygon fill="#63b8ff" stroke="#63b8ff" points="359.34,-87.67 368.32,-82.05 357.79,-80.85 359.34,-87.67"/>
</a>
</g>
</g>
<!-- Node31 -->
<g id="Node000031" class="node">
<title>Node31</title>
<g id="a_Node000031"><a xlink:href="collision_8c.html#ad95e9ed2051529d5edee26109fa07427" target="_top" xlink:title=" ">
<polygon fill="white" stroke="#666666" points="475.5,-46 338.5,-46 338.5,-27 475.5,-27 475.5,-46"/>
<text text-anchor="middle" x="407" y="-34" font-family="Helvetica,sans-Serif" font-size="10.00">spawn_actor_on_surface</text>
</a>
</g>
</g>
<!-- Node2&#45;&gt;Node31 -->
<g id="edge31_Node000002_Node000031" class="edge">
<title>Node2&#45;&gt;Node31</title>
<g id="a_edge31_Node000002_Node000031"><a xlink:title=" ">
<path fill="none" stroke="#63b8ff" d="M252.24,-101.94C270.73,-89.45 305.02,-67.64 337,-54.5 341.81,-52.52 346.91,-50.71 352.06,-49.06"/>
<polygon fill="#63b8ff" stroke="#63b8ff" points="353.41,-52.31 361.98,-46.08 351.4,-45.6 353.41,-52.31"/>
</a>
</g>
</g>
<!-- Node4 -->
<g id="Node000004" class="node">
<title>Node4</title>
<g id="a_Node000004"><a xlink:href="actors_8c.html#a39c023177b5a7686cdd1fc65b8b953e1" target="_top" xlink:title=" ">
<polygon fill="white" stroke="#666666" points="613,-307 551,-307 551,-288 613,-288 613,-307"/>
<text text-anchor="middle" x="582" y="-295" font-family="Helvetica,sans-Serif" font-size="10.00">actor_init</text>
</a>
</g>
</g>
<!-- Node3&#45;&gt;Node4 -->
<g id="edge3_Node000003_Node000004" class="edge">
<title>Node3&#45;&gt;Node4</title>
<g id="a_edge3_Node000003_Node000004"><a xlink:title=" ">
<path fill="none" stroke="#63b8ff" d="M418.51,-214.02C436.54,-229.87 475.09,-261.68 513,-279.5 521.68,-283.58 531.44,-286.86 540.8,-289.43"/>
<polygon fill="#63b8ff" stroke="#63b8ff" points="540.17,-292.88 550.73,-291.96 541.9,-286.1 540.17,-292.88"/>
</a>
</g>
</g>
<!-- Node26 -->
<g id="Node000026" class="node">
<title>Node26</title>
<g id="a_Node000026"><a xlink:href="Game_8cpp.html#a42f23077aaa52cb3ea5c7803b7dd6816" target="_top" xlink:title=" ">
<polygon fill="white" stroke="#666666" points="635,-270 529,-270 529,-251 635,-251 635,-270"/>
<text text-anchor="middle" x="582" y="-258" font-family="Helvetica,sans-Serif" font-size="10.00">CM_AddBaseActor</text>
</a>
</g>
</g>
<!-- Node3&#45;&gt;Node26 -->
<g id="edge25_Node000003_Node000026" class="edge">
<title>Node3&#45;&gt;Node26</title>
<g id="a_edge25_Node000003_Node000026"><a xlink:title=" ">
<path fill="none" stroke="#63b8ff" d="M432.4,-214.03C453.55,-222.11 485.06,-233.77 513,-242.5 519.42,-244.51 526.23,-246.48 532.96,-248.35"/>
<polygon fill="#63b8ff" stroke="#63b8ff" points="532.14,-251.76 542.71,-251 533.97,-245 532.14,-251.76"/>
</a>
</g>
</g>
<!-- Node27 -->
<g id="Node000027" class="node">
<title>Node27</title>
<g id="a_Node000027"><a xlink:href="Game_8cpp.html#aab23ecf7032de4618ff75c395d8fccf1" target="_top" xlink:title=" ">
<polygon fill="white" stroke="#666666" points="640,-233 524,-233 524,-214 640,-214 640,-233"/>
<text text-anchor="middle" x="582" y="-221" font-family="Helvetica,sans-Serif" font-size="10.00">CM_AddEditorObject</text>
</a>
</g>
</g>
<!-- Node3&#45;&gt;Node27 -->
<g id="edge26_Node000003_Node000027" class="edge">
<title>Node3&#45;&gt;Node27</title>
<g id="a_edge26_Node000003_Node000027"><a xlink:title=" ">
<path fill="none" stroke="#63b8ff" d="M477.37,-212.12C489.29,-213.43 501.67,-214.79 513.54,-216.09"/>
<polygon fill="#63b8ff" stroke="#63b8ff" points="513.5,-219.61 523.82,-217.22 514.26,-212.65 513.5,-219.61"/>
</a>
</g>
</g>
<!-- Node28 -->
<g id="Node000028" class="node">
<title>Node28</title>
<g id="a_Node000028"><a xlink:href="Game_8cpp.html#a0841ffe9a66e95aca42438b9d8ffc3d3" target="_top" xlink:title=" ">
<polygon fill="white" stroke="#666666" points="632.5,-196 531.5,-196 531.5,-177 632.5,-177 632.5,-196"/>
<text text-anchor="middle" x="582" y="-184" font-family="Helvetica,sans-Serif" font-size="10.00">CM_GetActorSize</text>
</a>
</g>
</g>
<!-- Node3&#45;&gt;Node28 -->
<g id="edge27_Node000003_Node000028" class="edge">
<title>Node3&#45;&gt;Node28</title>
<g id="a_edge27_Node000003_Node000028"><a xlink:title=" ">
<path fill="none" stroke="#63b8ff" d="M477.37,-197.28C491.89,-195.77 507.09,-194.19 521.23,-192.72"/>
<polygon fill="#63b8ff" stroke="#63b8ff" points="521.73,-196.19 531.31,-191.67 521,-189.22 521.73,-196.19"/>
</a>
</g>
</g>
<!-- Node29 -->
<g id="Node000029" class="node">
<title>Node29</title>
<g id="a_Node000029"><a xlink:href="actors_8c.html#a3d238d4f049ffbc555cb8a4dc93c9975" target="_top" xlink:title=" ">
<polygon fill="white" stroke="#666666" points="629.5,-159 534.5,-159 534.5,-140 629.5,-140 629.5,-159"/>
<text text-anchor="middle" x="582" y="-147" font-family="Helvetica,sans-Serif" font-size="10.00">get_actor_name</text>
</a>
</g>
</g>
<!-- Node3&#45;&gt;Node29 -->
<g id="edge28_Node000003_Node000029" class="edge">
<title>Node3&#45;&gt;Node29</title>
<g id="a_edge28_Node000003_Node000029"><a xlink:title=" ">
<path fill="none" stroke="#63b8ff" d="M433.27,-194.95C454.42,-187.12 485.48,-175.98 513,-167.5 519.43,-165.52 526.24,-163.56 532.97,-161.7"/>
<polygon fill="#63b8ff" stroke="#63b8ff" points="533.99,-165.05 542.72,-159.06 532.16,-158.29 533.99,-165.05"/>
</a>
</g>
</g>
<!-- Node5 -->
<g id="Node000005" class="node">
<title>Node5</title>
<g id="a_Node000005"><a xlink:href="collision_8c.html#a37aa55b3768d001533ad75e7f1b8388a" target="_top" xlink:title=" ">
<polygon fill="white" stroke="#666666" points="828,-406 687,-406 687,-387 828,-387 828,-406"/>
<text text-anchor="middle" x="757.5" y="-394" font-family="Helvetica,sans-Serif" font-size="10.00">check_bounding_collision</text>
</a>
</g>
</g>
<!-- Node4&#45;&gt;Node5 -->
<g id="edge4_Node000004_Node000005" class="edge">
<title>Node4&#45;&gt;Node5</title>
<g id="a_edge4_Node000004_Node000005"><a xlink:title=" ">
<path fill="none" stroke="#63b8ff" d="M599.95,-307.17C630.48,-324.59 694.86,-361.33 730.82,-381.85"/>
<polygon fill="#63b8ff" stroke="#63b8ff" points="729.31,-385.02 739.73,-386.93 732.78,-378.94 729.31,-385.02"/>
</a>
</g>
</g>
<!-- Node9 -->
<g id="Node000009" class="node">
<title>Node9</title>
<g id="a_Node000009"><a xlink:href="actors_8c.html#a1a9bccb586242555a9123ebd4ab70f2a" target="_top" xlink:title=" ">
<polygon fill="white" stroke="#666666" points="823.5,-312.5 691.5,-312.5 691.5,-282.5 823.5,-282.5 823.5,-312.5"/>
<text text-anchor="start" x="699.5" y="-300.5" font-family="Helvetica,sans-Serif" font-size="10.00">cleanup_red_and_green</text>
<text text-anchor="middle" x="757.5" y="-289.5" font-family="Helvetica,sans-Serif" font-size="10.00">_shells</text>
</a>
</g>
</g>
<!-- Node4&#45;&gt;Node9 -->
<g id="edge8_Node000004_Node000009" class="edge">
<title>Node4&#45;&gt;Node9</title>
<g id="a_edge8_Node000004_Node000009"><a xlink:title=" ">
<path fill="none" stroke="#63b8ff" d="M613.22,-297.5C632.08,-297.5 657.25,-297.5 681.23,-297.5"/>
<polygon fill="#63b8ff" stroke="#63b8ff" points="681.42,-301 691.42,-297.5 681.42,-294 681.42,-301"/>
</a>
</g>
</g>
<!-- Node22 -->
<g id="Node000022" class="node">
<title>Node22</title>
<g id="a_Node000022"><a xlink:href="collision_8c.html#ad72fef3ffe32191d73b1822f512ebf3f" target="_top" xlink:title=" ">
<polygon fill="white" stroke="#666666" points="805,-227 710,-227 710,-208 805,-208 805,-227"/>
<text text-anchor="middle" x="757.5" y="-215" font-family="Helvetica,sans-Serif" font-size="10.00">func_802AAAAC</text>
</a>
</g>
</g>
<!-- Node4&#45;&gt;Node22 -->
<g id="edge21_Node000004_Node000022" class="edge">
<title>Node4&#45;&gt;Node22</title>
<g id="a_edge21_Node000004_Node000022"><a xlink:title=" ">
<path fill="none" stroke="#63b8ff" d="M613.06,-293.65C625.51,-291.04 639.66,-286.71 651,-279.5 672.03,-266.13 666.02,-249.96 687,-236.5 691.13,-233.85 695.62,-231.57 700.27,-229.61"/>
<polygon fill="#63b8ff" stroke="#63b8ff" points="701.81,-232.77 709.96,-226 699.37,-226.21 701.81,-232.77"/>
</a>
</g>
</g>
<!-- Node24 -->
<g id="Node000024" class="node">
<title>Node24</title>
<g id="a_Node000024"><a xlink:href="math__util_8c.html#af7b470ed76fce07b8042a47c96e5690b" target="_top" xlink:title=" ">
<polygon fill="white" stroke="#666666" points="811,-190 704,-190 704,-171 811,-171 811,-190"/>
<text text-anchor="middle" x="757.5" y="-178" font-family="Helvetica,sans-Serif" font-size="10.00">vec3f_copy_return</text>
</a>
</g>
</g>
<!-- Node4&#45;&gt;Node24 -->
<g id="edge23_Node000004_Node000024" class="edge">
<title>Node4&#45;&gt;Node24</title>
<g id="a_edge23_Node000004_Node000024"><a xlink:title=" ">
<path fill="none" stroke="#63b8ff" d="M613.1,-295.28C625.99,-292.98 640.48,-288.43 651,-279.5 680.74,-254.28 657.37,-224.84 687,-199.5 689.39,-197.45 691.99,-195.62 694.73,-193.99"/>
<polygon fill="#63b8ff" stroke="#63b8ff" points="696.48,-197.02 703.86,-189.41 693.35,-190.77 696.48,-197.02"/>
</a>
</g>
</g>
<!-- Node25 -->
<g id="Node000025" class="node">
<title>Node25</title>
<g id="a_Node000025"><a xlink:href="math__util_8c.html#a0e270ee67600c8c9c2f140c647d008a1" target="_top" xlink:title=" ">
<polygon fill="white" stroke="#666666" points="794.5,-264 720.5,-264 720.5,-245 794.5,-245 794.5,-264"/>
<text text-anchor="middle" x="757.5" y="-252" font-family="Helvetica,sans-Serif" font-size="10.00">vec3s_copy</text>
</a>
</g>
</g>
<!-- Node4&#45;&gt;Node25 -->
<g id="edge24_Node000004_Node000025" class="edge">
<title>Node4&#45;&gt;Node25</title>
<g id="a_edge24_Node000004_Node000025"><a xlink:title=" ">
<path fill="none" stroke="#63b8ff" d="M613.22,-290.01C640,-283.37 679.51,-273.58 710.26,-265.96"/>
<polygon fill="#63b8ff" stroke="#63b8ff" points="711.46,-269.27 720.32,-263.47 709.77,-262.48 711.46,-269.27"/>
</a>
</g>
</g>
<!-- Node6 -->
<g id="Node000006" class="node">
<title>Node6</title>
<g id="a_Node000006"><a xlink:href="collision_8c.html#ac312bf382cb40752f6b790a99e7cdcb6" target="_top" xlink:title=" ">
<polygon fill="white" stroke="#666666" points="991,-387 883,-387 883,-368 991,-368 991,-387"/>
<text text-anchor="middle" x="937" y="-375" font-family="Helvetica,sans-Serif" font-size="10.00">check_collision_yx</text>
</a>
</g>
</g>
<!-- Node5&#45;&gt;Node6 -->
<g id="edge5_Node000005_Node000006" class="edge">
<title>Node5&#45;&gt;Node6</title>
<g id="a_edge5_Node000005_Node000006"><a xlink:title=" ">
<path fill="none" stroke="#63b8ff" d="M828.14,-389.05C842.76,-387.48 858.1,-385.84 872.48,-384.3"/>
<polygon fill="#63b8ff" stroke="#63b8ff" points="873.18,-387.74 882.75,-383.2 872.43,-380.78 873.18,-387.74"/>
</a>
</g>
</g>
<!-- Node7 -->
<g id="Node000007" class="node">
<title>Node7</title>
<g id="a_Node000007"><a xlink:href="collision_8c.html#a4b48832a90e984536a0635a016ec4f28" target="_top" xlink:title=" ">
<polygon fill="white" stroke="#666666" points="990.5,-461 883.5,-461 883.5,-442 990.5,-442 990.5,-461"/>
<text text-anchor="middle" x="937" y="-449" font-family="Helvetica,sans-Serif" font-size="10.00">check_collision_zx</text>
</a>
</g>
</g>
<!-- Node5&#45;&gt;Node7 -->
<g id="edge6_Node000005_Node000007" class="edge">
<title>Node5&#45;&gt;Node7</title>
<g id="a_edge6_Node000005_Node000007"><a xlink:title=" ">
<path fill="none" stroke="#63b8ff" d="M783.87,-406.14C805.1,-414.03 836.3,-425.2 864,-433.5 870.87,-435.56 878.16,-437.57 885.36,-439.47"/>
<polygon fill="#63b8ff" stroke="#63b8ff" points="884.52,-442.87 895.08,-441.97 886.26,-436.09 884.52,-442.87"/>
</a>
</g>
</g>
<!-- Node8 -->
<g id="Node000008" class="node">
<title>Node8</title>
<g id="a_Node000008"><a xlink:href="collision_8c.html#a21fef964ab48191a1c0341954ef27a40" target="_top" xlink:title=" ">
<polygon fill="white" stroke="#666666" points="990.5,-424 883.5,-424 883.5,-405 990.5,-405 990.5,-424"/>
<text text-anchor="middle" x="937" y="-412" font-family="Helvetica,sans-Serif" font-size="10.00">check_collision_zy</text>
</a>
</g>
</g>
<!-- Node5&#45;&gt;Node8 -->
<g id="edge7_Node000005_Node000008" class="edge">
<title>Node5&#45;&gt;Node8</title>
<g id="a_edge7_Node000005_Node000008"><a xlink:title=" ">
<path fill="none" stroke="#63b8ff" d="M828.14,-403.56C842.91,-405.06 858.43,-406.63 872.94,-408.1"/>
<polygon fill="#63b8ff" stroke="#63b8ff" points="873,-411.63 883.3,-409.16 873.7,-404.66 873,-411.63"/>
</a>
</g>
</g>
<!-- Node9&#45;&gt;Node10 -->
<g id="edge9_Node000009_Node000010" class="edge">
<title>Node9&#45;&gt;Node10</title>
<g id="a_edge9_Node000009_Node000010"><a xlink:title=" ">
<path fill="none" stroke="#63b8ff" d="M820.58,-312.54C842.4,-317.83 866.6,-323.69 887.17,-328.67"/>
<polygon fill="#63b8ff" stroke="#63b8ff" points="886.41,-332.09 896.96,-331.04 888.06,-325.29 886.41,-332.09"/>
</a>
</g>
</g>
<!-- Node11 -->
<g id="Node000011" class="node">
<title>Node11</title>
<g id="a_Node000011"><a xlink:href="code__80005FD0_8c.html#ad301b978cdd3c4cc190b10be050d51d8" target="_top" xlink:title=" ">
<polygon fill="white" stroke="#666666" points="1010,-312.5 864,-312.5 864,-282.5 1010,-282.5 1010,-312.5"/>
<text text-anchor="start" x="872" y="-300.5" font-family="Helvetica,sans-Serif" font-size="10.00">delete_actor_in_unexpired</text>
<text text-anchor="middle" x="937" y="-289.5" font-family="Helvetica,sans-Serif" font-size="10.00">_actor_list</text>
</a>
</g>
</g>
<!-- Node9&#45;&gt;Node11 -->
<g id="edge10_Node000009_Node000011" class="edge">
<title>Node9&#45;&gt;Node11</title>
<g id="a_edge10_Node000009_Node000011"><a xlink:title=" ">
<path fill="none" stroke="#63b8ff" d="M823.59,-297.5C833.38,-297.5 843.59,-297.5 853.69,-297.5"/>
<polygon fill="#63b8ff" stroke="#63b8ff" points="853.73,-301 863.73,-297.5 853.73,-294 853.73,-301"/>
</a>
</g>
</g>
<!-- Node12 -->
<g id="Node000012" class="node">
<title>Node12</title>
<g id="a_Node000012"><a xlink:href="actors_8c.html#a694ec6ef7548b8618aeb35c038d3a9b9" target="_top" xlink:title=" ">
<polygon fill="white" stroke="#666666" points="978.5,-264 895.5,-264 895.5,-245 978.5,-245 978.5,-264"/>
<text text-anchor="middle" x="937" y="-252" font-family="Helvetica,sans-Serif" font-size="10.00">destroy_actor</text>
</a>
</g>
</g>
<!-- Node9&#45;&gt;Node12 -->
<g id="edge11_Node000009_Node000012" class="edge">
<title>Node9&#45;&gt;Node12</title>
<g id="a_edge11_Node000009_Node000012"><a xlink:title=" ">
<path fill="none" stroke="#63b8ff" d="M820.58,-282.46C842.32,-277.2 866.41,-271.36 886.93,-266.39"/>
<polygon fill="#63b8ff" stroke="#63b8ff" points="887.8,-269.78 896.69,-264.02 886.15,-262.98 887.8,-269.78"/>
</a>
</g>
</g>
<!-- Node13 -->
<g id="Node000013" class="node">
<title>Node13</title>
<g id="a_Node000013"><a xlink:href="actors_8c.html#a12dc3ccac4c7d8569eadac0af4fd6f9f" target="_top" xlink:title=" ">
<polygon fill="white" stroke="#666666" points="1204,-264 1046,-264 1046,-245 1204,-245 1204,-264"/>
<text text-anchor="middle" x="1125" y="-252" font-family="Helvetica,sans-Serif" font-size="10.00">play_sound_before_despawn</text>
</a>
</g>
</g>
<!-- Node12&#45;&gt;Node13 -->
<g id="edge12_Node000012_Node000013" class="edge">
<title>Node12&#45;&gt;Node13</title>
<g id="a_edge12_Node000012_Node000013"><a xlink:title=" ">
<path fill="none" stroke="#63b8ff" d="M978.82,-254.5C995.65,-254.5 1015.86,-254.5 1035.77,-254.5"/>
<polygon fill="#63b8ff" stroke="#63b8ff" points="1035.82,-258 1045.82,-254.5 1035.82,-251 1035.82,-258"/>
</a>
</g>
</g>
<!-- Node14 -->
<g id="Node000014" class="node">
<title>Node14</title>
<g id="a_Node000014"><a xlink:href="external_8c.html#ae72057869772019e4464c87d4e16c682" target="_top" xlink:title=" ">
<polygon fill="white" stroke="#666666" points="1332,-264 1240,-264 1240,-245 1332,-245 1332,-264"/>
<text text-anchor="middle" x="1286" y="-252" font-family="Helvetica,sans-Serif" font-size="10.00">func_800C99E0</text>
</a>
</g>
</g>
<!-- Node13&#45;&gt;Node14 -->
<g id="edge13_Node000013_Node000014" class="edge">
<title>Node13&#45;&gt;Node14</title>
<g id="a_edge13_Node000013_Node000014"><a xlink:title=" ">
<path fill="none" stroke="#63b8ff" d="M1204.1,-254.5C1212.72,-254.5 1221.35,-254.5 1229.61,-254.5"/>
<polygon fill="#63b8ff" stroke="#63b8ff" points="1229.83,-258 1239.83,-254.5 1229.83,-251 1229.83,-258"/>
</a>
</g>
</g>
<!-- Node15 -->
<g id="Node000015" class="node">
<title>Node15</title>
<g id="a_Node000015"><a xlink:href="external_8c.html#aeb87c527482a244173df36a1f3d4f446" target="_top" xlink:title=" ">
<polygon fill="white" stroke="#666666" points="1460,-283 1368,-283 1368,-264 1460,-264 1460,-283"/>
<text text-anchor="middle" x="1414" y="-271" font-family="Helvetica,sans-Serif" font-size="10.00">func_800C21E8</text>
</a>
</g>
</g>
<!-- Node14&#45;&gt;Node15 -->
<g id="edge14_Node000014_Node000015" class="edge">
<title>Node14&#45;&gt;Node15</title>
<g id="a_edge14_Node000014_Node000015"><a xlink:title=" ">
<path fill="none" stroke="#63b8ff" d="M1332.13,-261.31C1340.46,-262.56 1349.23,-263.88 1357.81,-265.18"/>
<polygon fill="#63b8ff" stroke="#63b8ff" points="1357.35,-268.65 1367.76,-266.68 1358.39,-261.73 1357.35,-268.65"/>
</a>
</g>
</g>
<!-- Node16 -->
<g id="Node000016" class="node">
<title>Node16</title>
<g id="a_Node000016"><a xlink:href="external_8c.html#a028d40421b90c38f68ebfd5acc626f2e" target="_top" xlink:title=" ">
<polygon fill="white" stroke="#666666" points="1460,-246 1368,-246 1368,-227 1460,-227 1460,-246"/>
<text text-anchor="middle" x="1414" y="-234" font-family="Helvetica,sans-Serif" font-size="10.00">func_800C5578</text>
</a>
</g>
</g>
<!-- Node14&#45;&gt;Node16 -->
<g id="edge15_Node000014_Node000016" class="edge">
<title>Node14&#45;&gt;Node16</title>
<g id="a_edge15_Node000014_Node000016"><a xlink:title=" ">
<path fill="none" stroke="#63b8ff" d="M1332.13,-248.05C1340.46,-246.86 1349.23,-245.61 1357.81,-244.38"/>
<polygon fill="#63b8ff" stroke="#63b8ff" points="1358.35,-247.84 1367.76,-242.96 1357.36,-240.91 1358.35,-247.84"/>
</a>
</g>
</g>
<!-- Node17 -->
<g id="Node000017" class="node">
<title>Node17</title>
<g id="a_Node000017"><a xlink:href="external_8c.html#ac0fb767de7e14a03f1bcfa53f0abd23b" target="_top" xlink:title=" ">
<polygon fill="white" stroke="#666666" points="1636,-283 1496,-283 1496,-264 1636,-264 1636,-283"/>
<text text-anchor="middle" x="1566" y="-271" font-family="Helvetica,sans-Serif" font-size="10.00">delete_sound_from_bank</text>
</a>
</g>
</g>
<!-- Node16&#45;&gt;Node17 -->
<g id="edge16_Node000016_Node000017" class="edge">
<title>Node16&#45;&gt;Node17</title>
<g id="a_edge16_Node000016_Node000017"><a xlink:title=" ">
<path fill="none" stroke="#63b8ff" d="M1453.63,-246.03C1472.8,-250.76 1496.16,-256.52 1516.52,-261.54"/>
<polygon fill="#63b8ff" stroke="#63b8ff" points="1515.69,-264.94 1526.24,-263.94 1517.37,-258.15 1515.69,-264.94"/>
</a>
</g>
</g>
<!-- Node19 -->
<g id="Node000019" class="node">
<title>Node19</title>
<g id="a_Node000019"><a xlink:href="external_8c.html#ab83bd36e63f0f1baddcb2482b5ad31b0" target="_top" xlink:title=" ">
<polygon fill="white" stroke="#666666" points="1612.5,-246 1519.5,-246 1519.5,-227 1612.5,-227 1612.5,-246"/>
<text text-anchor="middle" x="1566" y="-234" font-family="Helvetica,sans-Serif" font-size="10.00">func_800C41CC</text>
</a>
</g>
</g>
<!-- Node16&#45;&gt;Node19 -->
<g id="edge18_Node000016_Node000019" class="edge">
<title>Node16&#45;&gt;Node19</title>
<g id="a_edge18_Node000016_Node000019"><a xlink:title=" ">
<path fill="none" stroke="#63b8ff" d="M1460,-236.5C1475.37,-236.5 1492.74,-236.5 1508.86,-236.5"/>
<polygon fill="#63b8ff" stroke="#63b8ff" points="1509.25,-240 1519.25,-236.5 1509.25,-233 1509.25,-240"/>
</a>
</g>
</g>
<!-- Node20 -->
<g id="Node000020" class="node">
<title>Node20</title>
<g id="a_Node000020"><a xlink:href="port__eu_8c.html#aa89dfaecca46c6d071f08c1898d1f7c9" target="_top" xlink:title=" ">
<polygon fill="white" stroke="#666666" points="1612.5,-209 1519.5,-209 1519.5,-190 1612.5,-190 1612.5,-209"/>
<text text-anchor="middle" x="1566" y="-197" font-family="Helvetica,sans-Serif" font-size="10.00">func_800CBBE8</text>
</a>
</g>
</g>
<!-- Node16&#45;&gt;Node20 -->
<g id="edge19_Node000016_Node000020" class="edge">
<title>Node16&#45;&gt;Node20</title>
<g id="a_edge19_Node000016_Node000020"><a xlink:title=" ">
<path fill="none" stroke="#63b8ff" d="M1453.63,-226.97C1472.8,-222.24 1496.16,-216.48 1516.52,-211.46"/>
<polygon fill="#63b8ff" stroke="#63b8ff" points="1517.37,-214.85 1526.24,-209.06 1515.69,-208.06 1517.37,-214.85"/>
</a>
</g>
</g>
<!-- Node18 -->
<g id="Node000018" class="node">
<title>Node18</title>
<g id="a_Node000018"><a xlink:href="external_8c.html#a358ac55e8ab5262dcae8037334be06d7" target="_top" xlink:title=" ">
<polygon fill="white" stroke="#666666" points="1764.5,-283 1672.5,-283 1672.5,-264 1764.5,-264 1764.5,-283"/>
<text text-anchor="middle" x="1718.5" y="-271" font-family="Helvetica,sans-Serif" font-size="10.00">func_800C40F0</text>
</a>
</g>
</g>
<!-- Node17&#45;&gt;Node18 -->
<g id="edge17_Node000017_Node000018" class="edge">
<title>Node17&#45;&gt;Node18</title>
<g id="a_edge17_Node000017_Node000018"><a xlink:title=" ">
<path fill="none" stroke="#63b8ff" d="M1636.08,-273.5C1644.87,-273.5 1653.78,-273.5 1662.31,-273.5"/>
<polygon fill="#63b8ff" stroke="#63b8ff" points="1662.5,-277 1672.5,-273.5 1662.5,-270 1662.5,-277"/>
</a>
</g>
</g>
<!-- Node21 -->
<g id="Node000021" class="node">
<title>Node21</title>
<g id="a_Node000021"><a xlink:href="port__eu_8c.html#af361a20d2e08f30c53a237ca481ff734" target="_top" xlink:title=" ">
<polygon fill="white" stroke="#666666" points="1765,-209 1672,-209 1672,-190 1765,-190 1765,-209"/>
<text text-anchor="middle" x="1718.5" y="-197" font-family="Helvetica,sans-Serif" font-size="10.00">func_800CBB48</text>
</a>
</g>
</g>
<!-- Node20&#45;&gt;Node21 -->
<g id="edge20_Node000020_Node000021" class="edge">
<title>Node20&#45;&gt;Node21</title>
<g id="a_edge20_Node000020_Node000021"><a xlink:title=" ">
<path fill="none" stroke="#63b8ff" d="M1612.56,-199.5C1627.96,-199.5 1645.34,-199.5 1661.46,-199.5"/>
<polygon fill="#63b8ff" stroke="#63b8ff" points="1661.83,-203 1671.83,-199.5 1661.83,-196 1661.83,-203"/>
</a>
</g>
</g>
<!-- Node22&#45;&gt;Node23 -->
<g id="edge22_Node000022_Node000023" class="edge">
<title>Node22&#45;&gt;Node23</title>
<g id="a_edge22_Node000022_Node000023"><a xlink:title=" ">
<path fill="none" stroke="#63b8ff" d="M797.21,-207.91C807.27,-205.3 818.07,-202.39 828,-199.5 851.58,-192.63 877.79,-184.16 898.49,-177.27"/>
<polygon fill="#63b8ff" stroke="#63b8ff" points="899.8,-180.52 908.17,-174.03 897.58,-173.88 899.8,-180.52"/>
</a>
</g>
</g>
<!-- Node32 -->
<g id="Node000032" class="node">
<title>Node32</title>
<g id="a_Node000032"><a xlink:href="collision_8c.html#a6527a2135a10909cdf9a1fd731be5628" target="_top" xlink:title=" ">
<polygon fill="white" stroke="#666666" points="651,-19 513,-19 513,0 651,0 651,-19"/>
<text text-anchor="middle" x="582" y="-7" font-family="Helvetica,sans-Serif" font-size="10.00">calculate_surface_height</text>
</a>
</g>
</g>
<!-- Node31&#45;&gt;Node32 -->
<g id="edge32_Node000031_Node000032" class="edge">
<title>Node31&#45;&gt;Node32</title>
<g id="a_edge32_Node000031_Node000032"><a xlink:title=" ">
<path fill="none" stroke="#63b8ff" d="M468.99,-26.98C482.17,-24.92 496.22,-22.73 509.75,-20.62"/>
<polygon fill="#63b8ff" stroke="#63b8ff" points="510.63,-24.02 519.97,-19.02 509.55,-17.11 510.63,-24.02"/>
</a>
</g>
</g>
<!-- Node33 -->
<g id="Node000033" class="node">
<title>Node33</title>
<g id="a_Node000033"><a xlink:href="collision_8c.html#a0fe340ccfe1d926a592ea9a0c84d7574" target="_top" xlink:title=" ">
<polygon fill="white" stroke="#666666" points="648,-67.5 516,-67.5 516,-37.5 648,-37.5 648,-67.5"/>
<text text-anchor="start" x="524" y="-55.5" font-family="Helvetica,sans-Serif" font-size="10.00">check_horizontally</text>
<text text-anchor="middle" x="582" y="-44.5" font-family="Helvetica,sans-Serif" font-size="10.00">_colliding_with_triangle</text>
</a>
</g>
</g>
<!-- Node31&#45;&gt;Node33 -->
<g id="edge33_Node000031_Node000033" class="edge">
<title>Node31&#45;&gt;Node33</title>
<g id="a_edge33_Node000031_Node000033"><a xlink:title=" ">
<path fill="none" stroke="#63b8ff" d="M475.88,-42.78C485.64,-43.68 495.74,-44.61 505.64,-45.53"/>
<polygon fill="#63b8ff" stroke="#63b8ff" points="505.58,-49.04 515.86,-46.48 506.23,-42.07 505.58,-49.04"/>
</a>
</g>
</g>
</g>
</svg>

<g id="navigator" transform="translate(0 0)" fill="#404254">
  <rect fill="#f2f5e9" fill-opacity="0.5" stroke="#606060" stroke-width=".5" x="0" y="0" width="60" height="60"/>
  <use id="zoomplus" xlink:href="#zoomPlus" x="17" y="9" onmousedown="handleZoom(evt,'in')"/>
  <use id="zoomminus" xlink:href="#zoomMin" x="42" y="9" onmousedown="handleZoom(evt,'out')"/>
  <use id="reset" xlink:href="#resetDef" x="30" y="36" onmousedown="handleReset()"/>
   <use id="arrowup" xlink:href="#arrowUp" x="0" y="0" onmousedown="handlePan(0,-1)"/>
  <use id="arrowright" xlink:href="#arrowRight" x="0" y="0" onmousedown="handlePan(1,0)"/>
  <use id="arrowdown" xlink:href="#arrowDown" x="0" y="0" onmousedown="handlePan(0,1)"/>
  <use id="arrowleft" xlink:href="#arrowLeft" x="0" y="0" onmousedown="handlePan(-1,0)"/>
</g>
<svg viewBox="0 0 15 15" width="100%" height="30px" preserveAspectRatio="xMaxYMin meet">
 <g id="arrow_out" transform="scale(0.3 0.3)">
  <a xlink:href="classRainbowRoad_adbdfd88223a14b4db65eda47b316b15b_cgraph_org.svg" target="_base">
   <rect id="button" ry="5" rx="5" y="6" x="6" height="38" width="38"
        fill="#f2f5e9" fill-opacity="0.5" stroke="#606060" stroke-width="1.0"/>
   <path id="arrow"
     d="M 11.500037,31.436501 C 11.940474,20.09759 22.043105,11.32322 32.158766,21.979434 L 37.068811,17.246167 C 37.068811,17.246167 37.088388,32 37.088388,32 L 22.160133,31.978069 C 22.160133,31.978069 26.997745,27.140456 26.997745,27.140456 C 18.528582,18.264221 13.291696,25.230495 11.500037,31.436501 z"
     style="fill:#404040;"/>
  </a>
 </g>
</svg>

<style type='text/css'>
<![CDATA[
[data-mouse-over-selected='false'] { opacity: 0.7; }
[data-mouse-over-selected='true']  { opacity: 1.0; }
]]>
</style>
<script type="application/ecmascript"><![CDATA[
document.addEventListener('DOMContentLoaded', (event) => {
  highlightEdges();
  highlightAdjacentNodes();
});
]]></script>
</svg>
