<?xml version="1.0" encoding="UTF-8" standalone="no"?>
<!DOCTYPE svg PUBLIC "-//W3C//DTD SVG 1.1//EN"
 "http://www.w3.org/Graphics/SVG/1.1/DTD/svg11.dtd">
<!-- Generated by graphviz version 2.43.0 (0)
 -->
<!-- Title: Editor::ObjectPicker::FindObject Pages: 1 -->
<svg width="414pt" height="64pt"
 viewBox="0.00 0.00 414.00 64.00" xmlns="http://www.w3.org/2000/svg" xmlns:xlink="http://www.w3.org/1999/xlink">
<g id="graph0" class="graph" transform="scale(1 1) rotate(0) translate(4 60)">
<title>Editor::ObjectPicker::FindObject</title>
<!-- Node1 -->
<g id="Node000001" class="node">
<title>Node1</title>
<g id="a_Node000001"><a xlink:title=" ">
<polygon fill="#999999" stroke="#666666" points="112,-42.5 0,-42.5 0,-12.5 112,-12.5 112,-42.5"/>
<text text-anchor="start" x="8" y="-30.5" font-family="Helvetica,sans-Serif" font-size="10.00">Editor::ObjectPicker</text>
<text text-anchor="middle" x="56" y="-19.5" font-family="Helvetica,sans-Serif" font-size="10.00">::FindObject</text>
</a>
</g>
</g>
<!-- Node2 -->
<g id="Node000002" class="node">
<title>Node2</title>
<g id="a_Node000002"><a xlink:href="EditorMath_8cpp.html#ab0a9de936aec5e7e47fe73d35962d9c5" target="_top" xlink:title=" ">
<polygon fill="white" stroke="#666666" points="332,-56 148,-56 148,-37 332,-37 332,-56"/>
<text text-anchor="middle" x="240" y="-44" font-family="Helvetica,sans-Serif" font-size="10.00">IntersectRayTriangleAndTransform</text>
</a>
</g>
</g>
<!-- Node1&#45;&gt;Node2 -->
<g id="edge1_Node000001_Node000002" class="edge">
<title>Node1&#45;&gt;Node2</title>
<g id="a_edge1_Node000001_Node000002"><a xlink:title=" ">
<path fill="none" stroke="#63b8ff" d="M112.1,-33.25C120.31,-34.11 128.98,-35.01 137.79,-35.93"/>
<polygon fill="#63b8ff" stroke="#63b8ff" points="137.45,-39.42 147.76,-36.98 138.18,-32.46 137.45,-39.42"/>
</a>
</g>
</g>
<!-- Node3 -->
<g id="Node000003" class="node">
<title>Node3</title>
<g id="a_Node000003"><a xlink:href="EditorMath_8cpp.html#a82e86dde49d8ab0f5459934034270713" target="_top" xlink:title=" ">
<polygon fill="white" stroke="#666666" points="306,-19 174,-19 174,0 306,0 306,-19"/>
<text text-anchor="middle" x="240" y="-7" font-family="Helvetica,sans-Serif" font-size="10.00">QueryCollisionRayActor</text>
</a>
</g>
</g>
<!-- Node1&#45;&gt;Node3 -->
<g id="edge2_Node000001_Node000003" class="edge">
<title>Node1&#45;&gt;Node3</title>
<g id="a_edge2_Node000001_Node000003"><a xlink:title=" ">
<path fill="none" stroke="#63b8ff" d="M112.1,-22.05C128.37,-20.44 146.46,-18.65 163.76,-16.94"/>
<polygon fill="#63b8ff" stroke="#63b8ff" points="164.24,-20.41 173.84,-15.94 163.55,-13.45 164.24,-20.41"/>
</a>
</g>
</g>
<!-- Node4 -->
<g id="Node000004" class="node">
<title>Node4</title>
<g id="a_Node000004"><a xlink:href="math__util_8h.html#a8fb5c0b9b43a108724b355136d29d2f9" target="_top" xlink:title=" ">
<polygon fill="white" stroke="#666666" points="406,-19 368,-19 368,0 406,0 406,-19"/>
<text text-anchor="middle" x="387" y="-7" font-family="Helvetica,sans-Serif" font-size="10.00">fabs</text>
</a>
</g>
</g>
<!-- Node3&#45;&gt;Node4 -->
<g id="edge3_Node000003_Node000004" class="edge">
<title>Node3&#45;&gt;Node4</title>
<g id="a_edge3_Node000003_Node000004"><a xlink:title=" ">
<path fill="none" stroke="#63b8ff" d="M306.29,-9.5C324.26,-9.5 342.83,-9.5 357.51,-9.5"/>
<polygon fill="#63b8ff" stroke="#63b8ff" points="357.92,-13 367.92,-9.5 357.92,-6 357.92,-13"/>
</a>
</g>
</g>
</g>
</svg>
