<?xml version="1.0" encoding="UTF-8" standalone="no"?>
<!DOCTYPE svg PUBLIC "-//W3C//DTD SVG 1.1//EN"
 "http://www.w3.org/Graphics/SVG/1.1/DTD/svg11.dtd">
<!-- Generated by graphviz version 2.43.0 (0)
 -->
<!-- Title: MooMooFarm::Render Pages: 1 -->
<svg width="729pt" height="212pt"
 viewBox="0.00 0.00 729.00 212.00" xmlns="http://www.w3.org/2000/svg" xmlns:xlink="http://www.w3.org/1999/xlink">
<g id="graph0" class="graph" transform="scale(1 1) rotate(0) translate(4 208)">
<title>MooMooFarm::Render</title>
<!-- Node1 -->
<g id="Node000001" class="node">
<title>Node1</title>
<g id="a_Node000001"><a xlink:title=" ">
<polygon fill="#999999" stroke="#666666" points="123,-129 0,-129 0,-110 123,-110 123,-129"/>
<text text-anchor="middle" x="61.5" y="-117" font-family="Helvetica,sans-Serif" font-size="10.00">MooMooFarm::Render</text>
</a>
</g>
</g>
<!-- Node2 -->
<g id="Node000002" class="node">
<title>Node2</title>
<g id="a_Node000002"><a xlink:href="GBIMiddleware_8cpp.html#a4ecc44e3c6f1ca5a6b4a20c41d3bd2d2" target="_top" xlink:title=" ">
<polygon fill="white" stroke="#666666" points="442,-204 353,-204 353,-185 442,-185 442,-204"/>
<text text-anchor="middle" x="397.5" y="-192" font-family="Helvetica,sans-Serif" font-size="10.00">gSPDisplayList</text>
</a>
</g>
</g>
<!-- Node1&#45;&gt;Node2 -->
<g id="edge1_Node000001_Node000002" class="edge">
<title>Node1&#45;&gt;Node2</title>
<g id="a_edge1_Node000001_Node000002"><a xlink:title=" ">
<path fill="none" stroke="#63b8ff" d="M83.13,-129.17C102.37,-137.81 132.06,-150.19 159,-157.5 221.04,-174.33 294.41,-184.3 343.01,-189.57"/>
<polygon fill="#63b8ff" stroke="#63b8ff" points="342.68,-193.06 353,-190.63 343.42,-186.1 342.68,-193.06"/>
</a>
</g>
</g>
<!-- Node5 -->
<g id="Node000005" class="node">
<title>Node5</title>
<g id="a_Node000005"><a xlink:href="render__courses_8c.html#a0c6536cf72cff97ccc3ed5c85967817e" target="_top" xlink:title=" ">
<polygon fill="white" stroke="#666666" points="300.5,-148 161.5,-148 161.5,-129 300.5,-129 300.5,-148"/>
<text text-anchor="middle" x="231" y="-136" font-family="Helvetica,sans-Serif" font-size="10.00">render_course_segments</text>
</a>
</g>
</g>
<!-- Node1&#45;&gt;Node5 -->
<g id="edge4_Node000001_Node000005" class="edge">
<title>Node1&#45;&gt;Node5</title>
<g id="a_edge4_Node000001_Node000005"><a xlink:title=" ">
<path fill="none" stroke="#63b8ff" d="M123.45,-126.41C132.51,-127.44 141.97,-128.51 151.33,-129.58"/>
<polygon fill="#63b8ff" stroke="#63b8ff" points="151.11,-133.07 161.44,-130.72 151.9,-126.12 151.11,-133.07"/>
</a>
</g>
</g>
<!-- Node9 -->
<g id="Node000009" class="node">
<title>Node9</title>
<g id="a_Node000009"><a xlink:href="memory_8c.html#a8f7f3165d1a5092720aa26d9502bb678" target="_top" xlink:title=" ">
<polygon fill="white" stroke="#666666" points="303,-111 159,-111 159,-92 303,-92 303,-111"/>
<text text-anchor="middle" x="231" y="-99" font-family="Helvetica,sans-Serif" font-size="10.00">segmented_gfx_to_virtual</text>
</a>
</g>
</g>
<!-- Node1&#45;&gt;Node9 -->
<g id="edge9_Node000001_Node000009" class="edge">
<title>Node1&#45;&gt;Node9</title>
<g id="a_edge9_Node000001_Node000009"><a xlink:title=" ">
<path fill="none" stroke="#63b8ff" d="M123.45,-112.95C131.71,-112.06 140.31,-111.14 148.86,-110.22"/>
<polygon fill="#63b8ff" stroke="#63b8ff" points="149.29,-113.69 158.86,-109.14 148.55,-106.73 149.29,-113.69"/>
</a>
</g>
</g>
<!-- Node10 -->
<g id="Node000010" class="node">
<title>Node10</title>
<g id="a_Node000010"><a xlink:href="math__util_8c.html#ae3e380239986384fef7c10e23eced83f" target="_top" xlink:title=" ">
<polygon fill="white" stroke="#666666" points="299.5,-56 162.5,-56 162.5,-37 299.5,-37 299.5,-56"/>
<text text-anchor="middle" x="231" y="-44" font-family="Helvetica,sans-Serif" font-size="10.00">set_track_light_direction</text>
</a>
</g>
</g>
<!-- Node1&#45;&gt;Node10 -->
<g id="edge10_Node000001_Node000010" class="edge">
<title>Node1&#45;&gt;Node10</title>
<g id="a_edge10_Node000001_Node000010"><a xlink:title=" ">
<path fill="none" stroke="#63b8ff" d="M84.4,-109.96C113.61,-97.22 165.52,-74.6 198.82,-60.09"/>
<polygon fill="#63b8ff" stroke="#63b8ff" points="200.33,-63.25 208.1,-56.05 197.53,-56.83 200.33,-63.25"/>
</a>
</g>
</g>
<!-- Node3 -->
<g id="Node000003" class="node">
<title>Node3</title>
<g id="a_Node000003"><a xlink:href="Engine_8cpp.html#a223c8bc63f228dc11177515e38eff2db" target="_top" xlink:title=" ">
<polygon fill="white" stroke="#666666" points="641,-204 492,-204 492,-185 641,-185 641,-204"/>
<text text-anchor="middle" x="566.5" y="-192" font-family="Helvetica,sans-Serif" font-size="10.00">GameEngine_OTRSigCheck</text>
</a>
</g>
</g>
<!-- Node2&#45;&gt;Node3 -->
<g id="edge2_Node000002_Node000003" class="edge">
<title>Node2&#45;&gt;Node3</title>
<g id="a_edge2_Node000002_Node000003"><a xlink:title=" ">
<path fill="none" stroke="#63b8ff" d="M442.38,-194.5C454.47,-194.5 468,-194.5 481.55,-194.5"/>
<polygon fill="#63b8ff" stroke="#63b8ff" points="481.89,-198 491.89,-194.5 481.89,-191 481.89,-198"/>
</a>
</g>
</g>
<!-- Node4 -->
<g id="Node000004" class="node">
<title>Node4</title>
<g id="a_Node000004"><a xlink:href="string_8c.html#a008e171a518fe0e0352f31b245e03875" target="_top" xlink:title=" ">
<polygon fill="white" stroke="#666666" points="721,-204 677,-204 677,-185 721,-185 721,-204"/>
<text text-anchor="middle" x="699" y="-192" font-family="Helvetica,sans-Serif" font-size="10.00">strlen</text>
</a>
</g>
</g>
<!-- Node3&#45;&gt;Node4 -->
<g id="edge3_Node000003_Node000004" class="edge">
<title>Node3&#45;&gt;Node4</title>
<g id="a_edge3_Node000003_Node000004"><a xlink:title=" ">
<path fill="none" stroke="#63b8ff" d="M641.14,-194.5C650.12,-194.5 658.89,-194.5 666.75,-194.5"/>
<polygon fill="#63b8ff" stroke="#63b8ff" points="666.83,-198 676.83,-194.5 666.83,-191 666.83,-198"/>
</a>
</g>
</g>
<!-- Node5&#45;&gt;Node2 -->
<g id="edge6_Node000005_Node000002" class="edge">
<title>Node5&#45;&gt;Node2</title>
<g id="a_edge6_Node000005_Node000002"><a xlink:title=" ">
<path fill="none" stroke="#63b8ff" d="M258.29,-148.15C279.89,-156 311.33,-167.26 339,-176.5 344.33,-178.28 349.96,-180.11 355.53,-181.88"/>
<polygon fill="#63b8ff" stroke="#63b8ff" points="354.81,-185.33 365.4,-185 356.91,-178.65 354.81,-185.33"/>
</a>
</g>
</g>
<!-- Node6 -->
<g id="Node000006" class="node">
<title>Node6</title>
<g id="a_Node000006"><a xlink:href="collision_8c.html#a053809031f467d0a6747788211e0ec69" target="_top" xlink:title=" ">
<polygon fill="white" stroke="#666666" points="456,-167 339,-167 339,-148 456,-148 456,-167"/>
<text text-anchor="middle" x="397.5" y="-155" font-family="Helvetica,sans-Serif" font-size="10.00">get_track_section_id</text>
</a>
</g>
</g>
<!-- Node5&#45;&gt;Node6 -->
<g id="edge5_Node000005_Node000006" class="edge">
<title>Node5&#45;&gt;Node6</title>
<g id="a_edge5_Node000005_Node000006"><a xlink:title=" ">
<path fill="none" stroke="#63b8ff" d="M300.81,-146.45C310.12,-147.52 319.67,-148.63 328.95,-149.7"/>
<polygon fill="#63b8ff" stroke="#63b8ff" points="328.57,-153.18 338.91,-150.85 329.38,-146.22 328.57,-153.18"/>
</a>
</g>
</g>
<!-- Node7 -->
<g id="Node000007" class="node">
<title>Node7</title>
<g id="a_Node000007"><a xlink:href="Game_8cpp.html#a8ebd6a4d970e4333ab5a9dd66c3d9c48" target="_top" xlink:title=" ">
<polygon fill="white" stroke="#666666" points="446,-130 349,-130 349,-111 446,-111 446,-130"/>
<text text-anchor="middle" x="397.5" y="-118" font-family="Helvetica,sans-Serif" font-size="10.00">IsBowsersCastle</text>
</a>
</g>
</g>
<!-- Node5&#45;&gt;Node7 -->
<g id="edge7_Node000005_Node000007" class="edge">
<title>Node5&#45;&gt;Node7</title>
<g id="a_edge7_Node000005_Node000007"><a xlink:title=" ">
<path fill="none" stroke="#63b8ff" d="M300.81,-130.97C313.47,-129.59 326.56,-128.15 338.84,-126.81"/>
<polygon fill="#63b8ff" stroke="#63b8ff" points="339.39,-130.27 348.95,-125.7 338.63,-123.31 339.39,-130.27"/>
</a>
</g>
</g>
<!-- Node8 -->
<g id="Node000008" class="node">
<title>Node8</title>
<g id="a_Node000008"><a xlink:href="Game_8cpp.html#a9f5c2ace915f66e850628695f297b1ff" target="_top" xlink:title=" ">
<polygon fill="white" stroke="#666666" points="448,-93 347,-93 347,-74 448,-74 448,-93"/>
<text text-anchor="middle" x="397.5" y="-81" font-family="Helvetica,sans-Serif" font-size="10.00">IsChocoMountain</text>
</a>
</g>
</g>
<!-- Node5&#45;&gt;Node8 -->
<g id="edge8_Node000005_Node000008" class="edge">
<title>Node5&#45;&gt;Node8</title>
<g id="a_edge8_Node000005_Node000008"><a xlink:title=" ">
<path fill="none" stroke="#63b8ff" d="M276.01,-128.92C285.05,-126.51 294.42,-123.69 303,-120.5 319.77,-114.27 322.46,-109.32 339,-102.5 344.16,-100.37 349.66,-98.3 355.13,-96.37"/>
<polygon fill="#63b8ff" stroke="#63b8ff" points="356.53,-99.59 364.87,-93.04 354.27,-92.97 356.53,-99.59"/>
</a>
</g>
</g>
<!-- Node11 -->
<g id="Node000011" class="node">
<title>Node11</title>
<g id="a_Node000011"><a xlink:href="math__util_8c.html#ae69cbf5c8d4b3b0dba2d7b4d4673689f" target="_top" xlink:title=" ">
<polygon fill="white" stroke="#666666" points="416.5,-56 378.5,-56 378.5,-37 416.5,-37 416.5,-56"/>
<text text-anchor="middle" x="397.5" y="-44" font-family="Helvetica,sans-Serif" font-size="10.00">coss</text>
</a>
</g>
</g>
<!-- Node10&#45;&gt;Node11 -->
<g id="edge11_Node000010_Node000011" class="edge">
<title>Node10&#45;&gt;Node11</title>
<g id="a_edge11_Node000010_Node000011"><a xlink:title=" ">
<path fill="none" stroke="#63b8ff" d="M299.86,-46.5C323.68,-46.5 349.17,-46.5 367.98,-46.5"/>
<polygon fill="#63b8ff" stroke="#63b8ff" points="368.23,-50 378.23,-46.5 368.23,-43 368.23,-50"/>
</a>
</g>
</g>
<!-- Node12 -->
<g id="Node000012" class="node">
<title>Node12</title>
<g id="a_Node000012"><a xlink:href="math__util_8c.html#a19ed3bd78fd2d3e2bd0a29f6caf48545" target="_top" xlink:title=" ">
<polygon fill="white" stroke="#666666" points="415.5,-19 379.5,-19 379.5,0 415.5,0 415.5,-19"/>
<text text-anchor="middle" x="397.5" y="-7" font-family="Helvetica,sans-Serif" font-size="10.00">sins</text>
</a>
</g>
</g>
<!-- Node10&#45;&gt;Node12 -->
<g id="edge12_Node000010_Node000012" class="edge">
<title>Node10&#45;&gt;Node12</title>
<g id="a_edge12_Node000010_Node000012"><a xlink:title=" ">
<path fill="none" stroke="#63b8ff" d="M274.36,-36.97C304.32,-30.23 343.58,-21.4 369.4,-15.6"/>
<polygon fill="#63b8ff" stroke="#63b8ff" points="370.26,-18.99 379.25,-13.38 368.72,-12.16 370.26,-18.99"/>
</a>
</g>
</g>
</g>
</svg>
