<?xml version="1.0" encoding="UTF-8" standalone="no"?>
<!DOCTYPE svg PUBLIC "-//W3C//DTD SVG 1.1//EN"
 "http://www.w3.org/Graphics/SVG/1.1/DTD/svg11.dtd">
<!-- Generated by graphviz version 2.43.0 (0)
 -->
<!-- Title: OLakitu::init_obj_lakitu_red_flag_fishing Pages: 1 -->
<!--zoomable 251 -->

<svg id="main" version="1.1" xmlns="http://www.w3.org/2000/svg" xmlns:xlink="http://www.w3.org/1999/xlink" xml:space="preserve" onload="init(evt)">

<style type="text/css"><![CDATA[
.node, .edge {opacity: 0.7;}
.node.selected, .edge.selected {opacity: 1;}
.edge:hover path { stroke: red; }
.edge:hover polygon { stroke: red; fill: red; }
]]></style>

<defs>
  <circle id="rim" cx="0" cy="0" r="7"/>
  <circle id="rim2" cx="0" cy="0" r="3.5"/>
  <g id="zoomPlus">
    <use xlink:href="#rim" fill="#404040"><set attributeName="fill" to="#808080" begin="zoomplus.mouseover" end="zoomplus.mouseout"/></use>
    <path d="M-4,0h8M0,-4v8" fill="none" stroke="white" stroke-width="1.5" pointer-events="none"/>
  </g>
  <g id="zoomMin">
    <use xlink:href="#rim" fill="#404040"><set attributeName="fill" to="#808080" begin="zoomminus.mouseover" end="zoomminus.mouseout"/></use>
    <path d="M-4,0h8" fill="none" stroke="white" stroke-width="1.5" pointer-events="none"/>
  </g>
  <g id="arrowUp" transform="translate(30 24)">
    <use xlink:href="#rim"/>
    <path pointer-events="none" fill="none" stroke="white" stroke-width="1.5" d="M0,-3.0v7 M-2.5,-0.5L0,-3.0L2.5,-0.5"/>
  </g>
  <g id="arrowRight" transform="rotate(90) translate(36 -43)">
    <use xlink:href="#rim"/>
    <path pointer-events="none" fill="none" stroke="white" stroke-width="1.5" d="M0,-3.0v7 M-2.5,-0.5L0,-3.0L2.5,-0.5"/>
  </g>
  <g id="arrowDown" transform="rotate(180) translate(-30 -48)">
    <use xlink:href="#rim"/>
    <path pointer-events="none" fill="none" stroke="white" stroke-width="1.5" d="M0,-3.0v7 M-2.5,-0.5L0,-3.0L2.5,-0.5"/>
  </g>
  <g id="arrowLeft" transform="rotate(270) translate(-36 17)">
    <use xlink:href="#rim"/>
    <path pointer-events="none" fill="none" stroke="white" stroke-width="1.5" d="M0,-3.0v7 M-2.5,-0.5L0,-3.0L2.5,-0.5"/>
  </g>
  <g id="resetDef">
    <use xlink:href="#rim2" fill="#404040"><set attributeName="fill" to="#808080" begin="reset.mouseover" end="reset.mouseout"/></use>
  </g>
</defs>
<script type="application/ecmascript">
var viewWidth = 904;
var viewHeight = 251;
var sectionId = 'dynsection-37';
</script>
<script type="application/ecmascript" xlink:href="svg.min.js"/>
<svg id="graph" class="graph">
<g id="viewport">
<title>OLakitu::init_obj_lakitu_red_flag_fishing</title>
<!-- Node1 -->
<g id="Node000001" class="node">
<title>Node1</title>
<g id="a_Node000001"><a xlink:title=" ">
<polygon fill="#999999" stroke="#666666" points="129,-135.5 0,-135.5 0,-105.5 129,-105.5 129,-135.5"/>
<text text-anchor="start" x="8" y="-123.5" font-family="Helvetica,sans-Serif" font-size="10.00">OLakitu::init_obj_lakitu</text>
<text text-anchor="middle" x="64.5" y="-112.5" font-family="Helvetica,sans-Serif" font-size="10.00">_red_flag_fishing</text>
</a>
</g>
</g>
<!-- Node2 -->
<g id="Node000002" class="node">
<title>Node2</title>
<g id="a_Node000002"><a xlink:href="update__objects_8c.html#a3953241e15c6372ac8944ba842148a9a" target="_top" xlink:title=" ">
<polygon fill="white" stroke="#666666" points="448.5,-204 349.5,-204 349.5,-185 448.5,-185 448.5,-204"/>
<text text-anchor="middle" x="399" y="-192" font-family="Helvetica,sans-Serif" font-size="10.00">clear_object_flag</text>
</a>
</g>
</g>
<!-- Node1&#45;&gt;Node2 -->
<g id="edge1_Node000001_Node000002" class="edge">
<title>Node1&#45;&gt;Node2</title>
<g id="a_edge1_Node000001_Node000002"><a xlink:title=" ">
<path fill="none" stroke="#63b8ff" d="M86.01,-135.6C105.33,-148.93 135.6,-167.57 165,-176.5 222.32,-193.91 291.04,-197.22 338.93,-196.91"/>
<polygon fill="#63b8ff" stroke="#63b8ff" points="339.17,-200.41 349.13,-196.79 339.09,-193.41 339.17,-200.41"/>
</a>
</g>
</g>
<!-- Node3 -->
<g id="Node000003" class="node">
<title>Node3</title>
<g id="a_Node000003"><a xlink:href="update__objects_8c.html#ac42ed5b7975250918d712ff4ea1d3514" target="_top" xlink:title=" ">
<polygon fill="white" stroke="#666666" points="277.5,-167 186.5,-167 186.5,-148 277.5,-148 277.5,-167"/>
<text text-anchor="middle" x="232" y="-155" font-family="Helvetica,sans-Serif" font-size="10.00">func_80073720</text>
</a>
</g>
</g>
<!-- Node1&#45;&gt;Node3 -->
<g id="edge2_Node000001_Node000003" class="edge">
<title>Node1&#45;&gt;Node3</title>
<g id="a_edge2_Node000001_Node000003"><a xlink:title=" ">
<path fill="none" stroke="#63b8ff" d="M129.01,-134.7C145.31,-138.34 162.67,-142.22 178.36,-145.73"/>
<polygon fill="#63b8ff" stroke="#63b8ff" points="177.87,-149.21 188.39,-147.97 179.4,-142.38 177.87,-149.21"/>
</a>
</g>
</g>
<!-- Node4 -->
<g id="Node000004" class="node">
<title>Node4</title>
<g id="a_Node000004"><a xlink:href="classOLakitu.html#a0cac83a1d61e692dbbaa42b846db238d" target="_top" xlink:title=" ">
<polygon fill="white" stroke="#666666" points="299,-93 165,-93 165,-74 299,-74 299,-93"/>
<text text-anchor="middle" x="232" y="-81" font-family="Helvetica,sans-Serif" font-size="10.00">OLakitu::func_800791F0</text>
</a>
</g>
</g>
<!-- Node1&#45;&gt;Node4 -->
<g id="edge4_Node000001_Node000004" class="edge">
<title>Node1&#45;&gt;Node4</title>
<g id="a_edge4_Node000001_Node000004"><a xlink:title=" ">
<path fill="none" stroke="#63b8ff" d="M129.01,-106.3C145.31,-102.66 162.67,-98.78 178.36,-95.27"/>
<polygon fill="#63b8ff" stroke="#63b8ff" points="179.4,-98.62 188.39,-93.03 177.87,-91.79 179.4,-98.62"/>
</a>
</g>
</g>
<!-- Node14 -->
<g id="Node000014" class="node">
<title>Node14</title>
<g id="a_Node000014"><a xlink:href="code__80086E70_8c.html#ad844d2fe27c3f0bb5979715fae72559a" target="_top" xlink:title=" ">
<polygon fill="white" stroke="#666666" points="277.5,-243 186.5,-243 186.5,-224 277.5,-224 277.5,-243"/>
<text text-anchor="middle" x="232" y="-231" font-family="Helvetica,sans-Serif" font-size="10.00">func_80086E70</text>
</a>
</g>
</g>
<!-- Node1&#45;&gt;Node14 -->
<g id="edge14_Node000001_Node000014" class="edge">
<title>Node1&#45;&gt;Node14</title>
<g id="a_edge14_Node000001_Node000014"><a xlink:title=" ">
<path fill="none" stroke="#63b8ff" d="M78.94,-135.67C96.87,-155.12 130.4,-188.79 165,-209.5 171.99,-213.68 179.83,-217.32 187.6,-220.41"/>
<polygon fill="#63b8ff" stroke="#63b8ff" points="186.38,-223.69 196.98,-223.9 188.83,-217.13 186.38,-223.69"/>
</a>
</g>
</g>
<!-- Node15 -->
<g id="Node000015" class="node">
<title>Node15</title>
<g id="a_Node000015"><a xlink:href="external_8c.html#aeec25112a50d31b3f33d06325ab2ec7d" target="_top" xlink:title=" ">
<polygon fill="white" stroke="#666666" points="278,-19 186,-19 186,0 278,0 278,-19"/>
<text text-anchor="middle" x="232" y="-7" font-family="Helvetica,sans-Serif" font-size="10.00">func_800C8F80</text>
</a>
</g>
</g>
<!-- Node1&#45;&gt;Node15 -->
<g id="edge16_Node000001_Node000015" class="edge">
<title>Node1&#45;&gt;Node15</title>
<g id="a_edge16_Node000001_Node000015"><a xlink:title=" ">
<path fill="none" stroke="#63b8ff" d="M77.64,-105.22C94.88,-84.54 128.45,-47.89 165,-27.5 168.52,-25.54 172.26,-23.78 176.11,-22.21"/>
<polygon fill="#63b8ff" stroke="#63b8ff" points="177.62,-25.38 185.82,-18.66 175.22,-18.8 177.62,-25.38"/>
</a>
</g>
</g>
<!-- Node17 -->
<g id="Node000017" class="node">
<title>Node17</title>
<g id="a_Node000017"><a xlink:href="update__objects_8c.html#add0bf98084e3359319c40487d800d428" target="_top" xlink:title=" ">
<polygon fill="white" stroke="#666666" points="286,-56 178,-56 178,-37 286,-37 286,-56"/>
<text text-anchor="middle" x="232" y="-44" font-family="Helvetica,sans-Serif" font-size="10.00">init_texture_object</text>
</a>
</g>
</g>
<!-- Node1&#45;&gt;Node17 -->
<g id="edge18_Node000001_Node000017" class="edge">
<title>Node1&#45;&gt;Node17</title>
<g id="a_edge18_Node000001_Node000017"><a xlink:title=" ">
<path fill="none" stroke="#63b8ff" d="M89.27,-105.36C108.97,-93.31 138.01,-76.68 165,-65.5 170.58,-63.19 176.53,-61.05 182.48,-59.11"/>
<polygon fill="#63b8ff" stroke="#63b8ff" points="183.94,-62.32 192.46,-56.02 181.87,-55.63 183.94,-62.32"/>
</a>
</g>
</g>
<!-- Node18 -->
<g id="Node000018" class="node">
<title>Node18</title>
<g id="a_Node000018"><a xlink:href="update__objects_8c.html#a8bfc5f5c7034d61b534e14f325b6e399" target="_top" xlink:title=" ">
<polygon fill="white" stroke="#666666" points="284,-130 180,-130 180,-111 284,-111 284,-130"/>
<text text-anchor="middle" x="232" y="-118" font-family="Helvetica,sans-Serif" font-size="10.00">object_next_state</text>
</a>
</g>
</g>
<!-- Node1&#45;&gt;Node18 -->
<g id="edge19_Node000001_Node000018" class="edge">
<title>Node1&#45;&gt;Node18</title>
<g id="a_edge19_Node000001_Node000018"><a xlink:title=" ">
<path fill="none" stroke="#63b8ff" d="M129.01,-120.5C142.45,-120.5 156.61,-120.5 169.95,-120.5"/>
<polygon fill="#63b8ff" stroke="#63b8ff" points="169.97,-124 179.97,-120.5 169.97,-117 169.97,-124"/>
</a>
</g>
</g>
<!-- Node3&#45;&gt;Node2 -->
<g id="edge3_Node000003_Node000002" class="edge">
<title>Node3&#45;&gt;Node2</title>
<g id="a_edge3_Node000003_Node000002"><a xlink:title=" ">
<path fill="none" stroke="#63b8ff" d="M275.49,-167.03C296.87,-171.82 322.97,-177.68 345.58,-182.75"/>
<polygon fill="#63b8ff" stroke="#63b8ff" points="344.84,-186.17 355.37,-184.94 346.37,-179.34 344.84,-186.17"/>
</a>
</g>
</g>
<!-- Node5 -->
<g id="Node000005" class="node">
<title>Node5</title>
<g id="a_Node000005"><a xlink:href="Game_8cpp.html#a3416a195a0c7be6ec3783bbf4842dc3e" target="_top" xlink:title=" ">
<polygon fill="white" stroke="#666666" points="440,-130 358,-130 358,-111 440,-111 440,-130"/>
<text text-anchor="middle" x="399" y="-118" font-family="Helvetica,sans-Serif" font-size="10.00">CM_GetProps</text>
</a>
</g>
</g>
<!-- Node4&#45;&gt;Node5 -->
<g id="edge5_Node000004_Node000005" class="edge">
<title>Node4&#45;&gt;Node5</title>
<g id="a_edge5_Node000004_Node000005"><a xlink:title=" ">
<path fill="none" stroke="#63b8ff" d="M275.49,-93.03C297.62,-97.99 324.81,-104.09 347.95,-109.28"/>
<polygon fill="#63b8ff" stroke="#63b8ff" points="347.4,-112.74 357.92,-111.51 348.93,-105.91 347.4,-112.74"/>
</a>
</g>
</g>
<!-- Node6 -->
<g id="Node000006" class="node">
<title>Node6</title>
<g id="a_Node000006"><a xlink:href="update__objects_8c.html#aaece45bd6baf5aaf797c872a6e105604" target="_top" xlink:title=" ">
<polygon fill="white" stroke="#666666" points="445,-93 353,-93 353,-74 445,-74 445,-93"/>
<text text-anchor="middle" x="399" y="-81" font-family="Helvetica,sans-Serif" font-size="10.00">func_800722CC</text>
</a>
</g>
</g>
<!-- Node4&#45;&gt;Node6 -->
<g id="edge6_Node000004_Node000006" class="edge">
<title>Node4&#45;&gt;Node6</title>
<g id="a_edge6_Node000004_Node000006"><a xlink:title=" ">
<path fill="none" stroke="#63b8ff" d="M299.16,-83.5C313.45,-83.5 328.42,-83.5 342.26,-83.5"/>
<polygon fill="#63b8ff" stroke="#63b8ff" points="342.6,-87 352.6,-83.5 342.6,-80 342.6,-87"/>
</a>
</g>
</g>
<!-- Node7 -->
<g id="Node000007" class="node">
<title>Node7</title>
<g id="a_Node000007"><a xlink:href="external_8c.html#ad377fc55133176f069744a4bcb5e0364" target="_top" xlink:title=" ">
<polygon fill="white" stroke="#666666" points="445,-56 353,-56 353,-37 445,-37 445,-56"/>
<text text-anchor="middle" x="399" y="-44" font-family="Helvetica,sans-Serif" font-size="10.00">func_800C9018</text>
</a>
</g>
</g>
<!-- Node4&#45;&gt;Node7 -->
<g id="edge7_Node000004_Node000007" class="edge">
<title>Node4&#45;&gt;Node7</title>
<g id="a_edge7_Node000004_Node000007"><a xlink:title=" ">
<path fill="none" stroke="#63b8ff" d="M275.49,-73.97C296.87,-69.18 322.97,-63.32 345.58,-58.25"/>
<polygon fill="#63b8ff" stroke="#63b8ff" points="346.37,-61.66 355.37,-56.06 344.84,-54.83 346.37,-61.66"/>
</a>
</g>
</g>
<!-- Node8 -->
<g id="Node000008" class="node">
<title>Node8</title>
<g id="a_Node000008"><a xlink:href="external_8c.html#a028d40421b90c38f68ebfd5acc626f2e" target="_top" xlink:title=" ">
<polygon fill="white" stroke="#666666" points="591,-56 499,-56 499,-37 591,-37 591,-56"/>
<text text-anchor="middle" x="545" y="-44" font-family="Helvetica,sans-Serif" font-size="10.00">func_800C5578</text>
</a>
</g>
</g>
<!-- Node7&#45;&gt;Node8 -->
<g id="edge8_Node000007_Node000008" class="edge">
<title>Node7&#45;&gt;Node8</title>
<g id="a_edge8_Node000007_Node000008"><a xlink:title=" ">
<path fill="none" stroke="#63b8ff" d="M445.17,-46.5C458.97,-46.5 474.31,-46.5 488.71,-46.5"/>
<polygon fill="#63b8ff" stroke="#63b8ff" points="488.99,-50 498.99,-46.5 488.99,-43 488.99,-50"/>
</a>
</g>
</g>
<!-- Node9 -->
<g id="Node000009" class="node">
<title>Node9</title>
<g id="a_Node000009"><a xlink:href="external_8c.html#ac0fb767de7e14a03f1bcfa53f0abd23b" target="_top" xlink:title=" ">
<polygon fill="white" stroke="#666666" points="767,-93 627,-93 627,-74 767,-74 767,-93"/>
<text text-anchor="middle" x="697" y="-81" font-family="Helvetica,sans-Serif" font-size="10.00">delete_sound_from_bank</text>
</a>
</g>
</g>
<!-- Node8&#45;&gt;Node9 -->
<g id="edge9_Node000008_Node000009" class="edge">
<title>Node8&#45;&gt;Node9</title>
<g id="a_edge9_Node000008_Node000009"><a xlink:title=" ">
<path fill="none" stroke="#63b8ff" d="M584.63,-56.03C603.8,-60.76 627.16,-66.52 647.52,-71.54"/>
<polygon fill="#63b8ff" stroke="#63b8ff" points="646.69,-74.94 657.24,-73.94 648.37,-68.15 646.69,-74.94"/>
</a>
</g>
</g>
<!-- Node11 -->
<g id="Node000011" class="node">
<title>Node11</title>
<g id="a_Node000011"><a xlink:href="external_8c.html#ab83bd36e63f0f1baddcb2482b5ad31b0" target="_top" xlink:title=" ">
<polygon fill="white" stroke="#666666" points="743.5,-56 650.5,-56 650.5,-37 743.5,-37 743.5,-56"/>
<text text-anchor="middle" x="697" y="-44" font-family="Helvetica,sans-Serif" font-size="10.00">func_800C41CC</text>
</a>
</g>
</g>
<!-- Node8&#45;&gt;Node11 -->
<g id="edge11_Node000008_Node000011" class="edge">
<title>Node8&#45;&gt;Node11</title>
<g id="a_edge11_Node000008_Node000011"><a xlink:title=" ">
<path fill="none" stroke="#63b8ff" d="M591,-46.5C606.37,-46.5 623.74,-46.5 639.86,-46.5"/>
<polygon fill="#63b8ff" stroke="#63b8ff" points="640.25,-50 650.25,-46.5 640.25,-43 640.25,-50"/>
</a>
</g>
</g>
<!-- Node12 -->
<g id="Node000012" class="node">
<title>Node12</title>
<g id="a_Node000012"><a xlink:href="port__eu_8c.html#aa89dfaecca46c6d071f08c1898d1f7c9" target="_top" xlink:title=" ">
<polygon fill="white" stroke="#666666" points="743.5,-19 650.5,-19 650.5,0 743.5,0 743.5,-19"/>
<text text-anchor="middle" x="697" y="-7" font-family="Helvetica,sans-Serif" font-size="10.00">func_800CBBE8</text>
</a>
</g>
</g>
<!-- Node8&#45;&gt;Node12 -->
<g id="edge12_Node000008_Node000012" class="edge">
<title>Node8&#45;&gt;Node12</title>
<g id="a_edge12_Node000008_Node000012"><a xlink:title=" ">
<path fill="none" stroke="#63b8ff" d="M584.63,-36.97C603.8,-32.24 627.16,-26.48 647.52,-21.46"/>
<polygon fill="#63b8ff" stroke="#63b8ff" points="648.37,-24.85 657.24,-19.06 646.69,-18.06 648.37,-24.85"/>
</a>
</g>
</g>
<!-- Node10 -->
<g id="Node000010" class="node">
<title>Node10</title>
<g id="a_Node000010"><a xlink:href="external_8c.html#a358ac55e8ab5262dcae8037334be06d7" target="_top" xlink:title=" ">
<polygon fill="white" stroke="#666666" points="895.5,-93 803.5,-93 803.5,-74 895.5,-74 895.5,-93"/>
<text text-anchor="middle" x="849.5" y="-81" font-family="Helvetica,sans-Serif" font-size="10.00">func_800C40F0</text>
</a>
</g>
</g>
<!-- Node9&#45;&gt;Node10 -->
<g id="edge10_Node000009_Node000010" class="edge">
<title>Node9&#45;&gt;Node10</title>
<g id="a_edge10_Node000009_Node000010"><a xlink:title=" ">
<path fill="none" stroke="#63b8ff" d="M767.08,-83.5C775.87,-83.5 784.78,-83.5 793.31,-83.5"/>
<polygon fill="#63b8ff" stroke="#63b8ff" points="793.5,-87 803.5,-83.5 793.5,-80 793.5,-87"/>
</a>
</g>
</g>
<!-- Node13 -->
<g id="Node000013" class="node">
<title>Node13</title>
<g id="a_Node000013"><a xlink:href="port__eu_8c.html#af361a20d2e08f30c53a237ca481ff734" target="_top" xlink:title=" ">
<polygon fill="white" stroke="#666666" points="896,-19 803,-19 803,0 896,0 896,-19"/>
<text text-anchor="middle" x="849.5" y="-7" font-family="Helvetica,sans-Serif" font-size="10.00">func_800CBB48</text>
</a>
</g>
</g>
<!-- Node12&#45;&gt;Node13 -->
<g id="edge13_Node000012_Node000013" class="edge">
<title>Node12&#45;&gt;Node13</title>
<g id="a_edge13_Node000012_Node000013"><a xlink:title=" ">
<path fill="none" stroke="#63b8ff" d="M743.56,-9.5C758.96,-9.5 776.34,-9.5 792.46,-9.5"/>
<polygon fill="#63b8ff" stroke="#63b8ff" points="792.83,-13 802.83,-9.5 792.83,-6 792.83,-13"/>
</a>
</g>
</g>
<!-- Node14&#45;&gt;Node2 -->
<g id="edge15_Node000014_Node000002" class="edge">
<title>Node14&#45;&gt;Node2</title>
<g id="a_edge15_Node000014_Node000002"><a xlink:title=" ">
<path fill="none" stroke="#63b8ff" d="M273.36,-223.96C295.82,-218.65 323.97,-212 347.83,-206.36"/>
<polygon fill="#63b8ff" stroke="#63b8ff" points="348.84,-209.72 357.77,-204.01 347.23,-202.9 348.84,-209.72"/>
</a>
</g>
</g>
<!-- Node16 -->
<g id="Node000016" class="node">
<title>Node16</title>
<g id="a_Node000016"><a xlink:href="external_8c.html#a475cff796211891556f52877cd8e9b9e" target="_top" xlink:title=" ">
<polygon fill="white" stroke="#666666" points="435,-19 363,-19 363,0 435,0 435,-19"/>
<text text-anchor="middle" x="399" y="-7" font-family="Helvetica,sans-Serif" font-size="10.00">play_sound</text>
</a>
</g>
</g>
<!-- Node15&#45;&gt;Node16 -->
<g id="edge17_Node000015_Node000016" class="edge">
<title>Node15&#45;&gt;Node16</title>
<g id="a_edge17_Node000015_Node000016"><a xlink:title=" ">
<path fill="none" stroke="#63b8ff" d="M278.09,-9.5C301.26,-9.5 329.42,-9.5 352.63,-9.5"/>
<polygon fill="#63b8ff" stroke="#63b8ff" points="352.91,-13 362.91,-9.5 352.91,-6 352.91,-13"/>
</a>
</g>
</g>
<!-- Node18&#45;&gt;Node2 -->
<g id="edge20_Node000018_Node000002" class="edge">
<title>Node18&#45;&gt;Node2</title>
<g id="a_edge20_Node000018_Node000002"><a xlink:title=" ">
<path fill="none" stroke="#63b8ff" d="M277.99,-130.03C285.29,-132.53 292.56,-135.64 299,-139.5 318.68,-151.29 315.31,-164.73 335,-176.5 337.83,-178.19 340.83,-179.73 343.92,-181.13"/>
<polygon fill="#63b8ff" stroke="#63b8ff" points="342.81,-184.46 353.4,-184.93 345.42,-177.96 342.81,-184.46"/>
</a>
</g>
</g>
<!-- Node19 -->
<g id="Node000019" class="node">
<title>Node19</title>
<g id="a_Node000019"><a xlink:href="update__objects_8c.html#af20e3f3c403dd4fbea56e358997e515a" target="_top" xlink:title=" ">
<polygon fill="white" stroke="#666666" points="463,-167 335,-167 335,-148 463,-148 463,-167"/>
<text text-anchor="middle" x="399" y="-155" font-family="Helvetica,sans-Serif" font-size="10.00">set_object_timer_state</text>
</a>
</g>
</g>
<!-- Node18&#45;&gt;Node19 -->
<g id="edge21_Node000018_Node000019" class="edge">
<title>Node18&#45;&gt;Node19</title>
<g id="a_edge21_Node000018_Node000019"><a xlink:title=" ">
<path fill="none" stroke="#63b8ff" d="M275.49,-130.03C296.87,-134.82 322.97,-140.68 345.58,-145.75"/>
<polygon fill="#63b8ff" stroke="#63b8ff" points="344.84,-149.17 355.37,-147.94 346.37,-142.34 344.84,-149.17"/>
</a>
</g>
</g>
</g>
</svg>

<g id="navigator" transform="translate(0 0)" fill="#404254">
  <rect fill="#f2f5e9" fill-opacity="0.5" stroke="#606060" stroke-width=".5" x="0" y="0" width="60" height="60"/>
  <use id="zoomplus" xlink:href="#zoomPlus" x="17" y="9" onmousedown="handleZoom(evt,'in')"/>
  <use id="zoomminus" xlink:href="#zoomMin" x="42" y="9" onmousedown="handleZoom(evt,'out')"/>
  <use id="reset" xlink:href="#resetDef" x="30" y="36" onmousedown="handleReset()"/>
   <use id="arrowup" xlink:href="#arrowUp" x="0" y="0" onmousedown="handlePan(0,-1)"/>
  <use id="arrowright" xlink:href="#arrowRight" x="0" y="0" onmousedown="handlePan(1,0)"/>
  <use id="arrowdown" xlink:href="#arrowDown" x="0" y="0" onmousedown="handlePan(0,1)"/>
  <use id="arrowleft" xlink:href="#arrowLeft" x="0" y="0" onmousedown="handlePan(-1,0)"/>
</g>
<svg viewBox="0 0 15 15" width="100%" height="30px" preserveAspectRatio="xMaxYMin meet">
 <g id="arrow_out" transform="scale(0.3 0.3)">
  <a xlink:href="classOLakitu_ae289dfcb3c3015fe450ec5184b459989_cgraph_org.svg" target="_base">
   <rect id="button" ry="5" rx="5" y="6" x="6" height="38" width="38"
        fill="#f2f5e9" fill-opacity="0.5" stroke="#606060" stroke-width="1.0"/>
   <path id="arrow"
     d="M 11.500037,31.436501 C 11.940474,20.09759 22.043105,11.32322 32.158766,21.979434 L 37.068811,17.246167 C 37.068811,17.246167 37.088388,32 37.088388,32 L 22.160133,31.978069 C 22.160133,31.978069 26.997745,27.140456 26.997745,27.140456 C 18.528582,18.264221 13.291696,25.230495 11.500037,31.436501 z"
     style="fill:#404040;"/>
  </a>
 </g>
</svg>

<style type='text/css'>
<![CDATA[
[data-mouse-over-selected='false'] { opacity: 0.7; }
[data-mouse-over-selected='true']  { opacity: 1.0; }
]]>
</style>
<script type="application/ecmascript"><![CDATA[
document.addEventListener('DOMContentLoaded', (event) => {
  highlightEdges();
  highlightAdjacentNodes();
});
]]></script>
</svg>
