<?xml version="1.0" encoding="UTF-8" standalone="no"?>
<!DOCTYPE svg PUBLIC "-//W3C//DTD SVG 1.1//EN"
 "http://www.w3.org/Graphics/SVG/1.1/DTD/svg11.dtd">
<!-- Generated by graphviz version 2.43.0 (0)
 -->
<!-- Title: WarioStadium::Jumbotron Pages: 1 -->
<svg width="582pt" height="64pt"
 viewBox="0.00 0.00 582.00 64.00" xmlns="http://www.w3.org/2000/svg" xmlns:xlink="http://www.w3.org/1999/xlink">
<g id="graph0" class="graph" transform="scale(1 1) rotate(0) translate(4 60)">
<title>WarioStadium::Jumbotron</title>
<!-- Node1 -->
<g id="Node000001" class="node">
<title>Node1</title>
<g id="a_Node000001"><a xlink:title=" ">
<polygon fill="#999999" stroke="#666666" points="141,-37 0,-37 0,-18 141,-18 141,-37"/>
<text text-anchor="middle" x="70.5" y="-25" font-family="Helvetica,sans-Serif" font-size="10.00">WarioStadium::Jumbotron</text>
</a>
</g>
</g>
<!-- Node2 -->
<g id="Node000002" class="node">
<title>Node2</title>
<g id="a_Node000002"><a xlink:href="GBIMiddleware_8cpp.html#aeef79449a27a710d73576e4a4f7f7f99" target="_top" xlink:title=" ">
<polygon fill="white" stroke="#666666" points="276,-56 210,-56 210,-37 276,-37 276,-56"/>
<text text-anchor="middle" x="243" y="-44" font-family="Helvetica,sans-Serif" font-size="10.00">gSPVertex</text>
</a>
</g>
</g>
<!-- Node1&#45;&gt;Node2 -->
<g id="edge1_Node000001_Node000002" class="edge">
<title>Node1&#45;&gt;Node2</title>
<g id="a_edge1_Node000001_Node000002"><a xlink:title=" ">
<path fill="none" stroke="#63b8ff" d="M141.34,-35.28C161.18,-37.49 182.16,-39.83 199.81,-41.8"/>
<polygon fill="#63b8ff" stroke="#63b8ff" points="199.45,-45.28 209.78,-42.91 200.23,-38.32 199.45,-45.28"/>
</a>
</g>
</g>
<!-- Node5 -->
<g id="Node000005" class="node">
<title>Node5</title>
<g id="a_Node000005"><a xlink:href="memory_8c.html#aac5b454d19f3b09d299a01b2c525b8d7" target="_top" xlink:title=" ">
<polygon fill="white" stroke="#666666" points="309,-19 177,-19 177,0 309,0 309,-19"/>
<text text-anchor="middle" x="243" y="-7" font-family="Helvetica,sans-Serif" font-size="10.00">segment_vtx_to_virtual</text>
</a>
</g>
</g>
<!-- Node1&#45;&gt;Node5 -->
<g id="edge4_Node000001_Node000005" class="edge">
<title>Node1&#45;&gt;Node5</title>
<g id="a_edge4_Node000001_Node000005"><a xlink:title=" ">
<path fill="none" stroke="#63b8ff" d="M141.34,-20.13C149.71,-19.24 158.28,-18.34 166.72,-17.45"/>
<polygon fill="#63b8ff" stroke="#63b8ff" points="167.36,-20.9 176.93,-16.37 166.62,-13.94 167.36,-20.9"/>
</a>
</g>
</g>
<!-- Node3 -->
<g id="Node000003" class="node">
<title>Node3</title>
<g id="a_Node000003"><a xlink:href="Engine_8cpp.html#a223c8bc63f228dc11177515e38eff2db" target="_top" xlink:title=" ">
<polygon fill="white" stroke="#666666" points="494,-56 345,-56 345,-37 494,-37 494,-56"/>
<text text-anchor="middle" x="419.5" y="-44" font-family="Helvetica,sans-Serif" font-size="10.00">GameEngine_OTRSigCheck</text>
</a>
</g>
</g>
<!-- Node2&#45;&gt;Node3 -->
<g id="edge2_Node000002_Node000003" class="edge">
<title>Node2&#45;&gt;Node3</title>
<g id="a_edge2_Node000002_Node000003"><a xlink:title=" ">
<path fill="none" stroke="#63b8ff" d="M276.01,-46.5C292.58,-46.5 313.67,-46.5 334.51,-46.5"/>
<polygon fill="#63b8ff" stroke="#63b8ff" points="334.7,-50 344.7,-46.5 334.7,-43 334.7,-50"/>
</a>
</g>
</g>
<!-- Node4 -->
<g id="Node000004" class="node">
<title>Node4</title>
<g id="a_Node000004"><a xlink:href="string_8c.html#a008e171a518fe0e0352f31b245e03875" target="_top" xlink:title=" ">
<polygon fill="white" stroke="#666666" points="574,-56 530,-56 530,-37 574,-37 574,-56"/>
<text text-anchor="middle" x="552" y="-44" font-family="Helvetica,sans-Serif" font-size="10.00">strlen</text>
</a>
</g>
</g>
<!-- Node3&#45;&gt;Node4 -->
<g id="edge3_Node000003_Node000004" class="edge">
<title>Node3&#45;&gt;Node4</title>
<g id="a_edge3_Node000003_Node000004"><a xlink:title=" ">
<path fill="none" stroke="#63b8ff" d="M494.14,-46.5C503.12,-46.5 511.89,-46.5 519.75,-46.5"/>
<polygon fill="#63b8ff" stroke="#63b8ff" points="519.83,-50 529.83,-46.5 519.83,-43 519.83,-50"/>
</a>
</g>
</g>
</g>
</svg>
