<?xml version="1.0" encoding="UTF-8" standalone="no"?>
<!DOCTYPE svg PUBLIC "-//W3C//DTD SVG 1.1//EN"
 "http://www.w3.org/Graphics/SVG/1.1/DTD/svg11.dtd">
<!-- Generated by graphviz version 2.43.0 (0)
 -->
<!-- Title: MK64::TrackSectionsO2RClass Pages: 1 -->
<svg width="350pt" height="104pt"
 viewBox="0.00 0.00 350.00 104.00" xmlns="http://www.w3.org/2000/svg" xmlns:xlink="http://www.w3.org/1999/xlink">
<g id="graph0" class="graph" transform="scale(1 1) rotate(0) translate(4 100)">
<title>MK64::TrackSectionsO2RClass</title>
<!-- Node1 -->
<g id="Node000001" class="node">
<title>Node1</title>
<g id="a_Node000001"><a xlink:title=" ">
<polygon fill="#999999" stroke="#666666" points="255.5,-19 91.5,-19 91.5,0 255.5,0 255.5,-19"/>
<text text-anchor="middle" x="173.5" y="-7" font-family="Helvetica,sans-Serif" font-size="10.00">MK64::TrackSectionsO2RClass</text>
</a>
</g>
</g>
<!-- Node2 -->
<g id="Node000002" class="node">
<title>Node2</title>
<g id="a_Node000002"><a xlink:title=" ">
<polygon fill="white" stroke="#666666" points="167,-96 0,-96 0,-66 167,-66 167,-96"/>
<text text-anchor="start" x="8" y="-84" font-family="Helvetica,sans-Serif" font-size="10.00">Ship::Resource&lt; TrackSections</text>
<text text-anchor="middle" x="83.5" y="-73" font-family="Helvetica,sans-Serif" font-size="10.00">O2R &gt;</text>
</a>
</g>
</g>
<!-- Node2&#45;&gt;Node1 -->
<g id="edge1_Node000001_Node000002" class="edge">
<title>Node2&#45;&gt;Node1</title>
<g id="a_edge1_Node000001_Node000002"><a xlink:title=" ">
<path fill="none" stroke="#63b8ff" d="M109.87,-59.64C127.35,-46.14 149.38,-29.12 162.41,-19.07"/>
<polygon fill="#63b8ff" stroke="#63b8ff" points="107.49,-57.05 101.71,-65.94 111.77,-62.59 107.49,-57.05"/>
</a>
</g>
</g>
<!-- Node3 -->
<g id="Node000003" class="node">
<title>Node3</title>
<g id="a_Node000003"><a xlink:title=" ">
<polygon fill="white" stroke="#666666" points="342,-90.5 185,-90.5 185,-71.5 342,-71.5 342,-90.5"/>
<text text-anchor="middle" x="263.5" y="-78.5" font-family="Helvetica,sans-Serif" font-size="10.00">vector&lt; TrackSectionsO2R &gt;</text>
</a>
</g>
</g>
<!-- Node3&#45;&gt;Node1 -->
<g id="edge2_Node000001_Node000003" class="edge">
<title>Node3&#45;&gt;Node1</title>
<g id="a_edge2_Node000001_Node000003"><a xlink:title=" ">
<path fill="none" stroke="#9a32cd" stroke-dasharray="5,2" d="M244.32,-65.19C226.16,-51.16 199.52,-30.59 184.63,-19.09"/>
<polygon fill="#9a32cd" stroke="#9a32cd" points="242.41,-68.14 252.46,-71.48 246.69,-62.6 242.41,-68.14"/>
</a>
</g>
<text text-anchor="middle" x="265.5" y="-40" font-family="Helvetica,sans-Serif" font-size="10.00" fill="grey"> TrackSectionsList</text>
</g>
</g>
</svg>
