<?xml version="1.0" encoding="UTF-8" standalone="no"?>
<!DOCTYPE svg PUBLIC "-//W3C//DTD SVG 1.1//EN"
 "http://www.w3.org/Graphics/SVG/1.1/DTD/svg11.dtd">
<!-- Generated by graphviz version 2.43.0 (0)
 -->
<!-- Title: FrappeSnowland::BeginPlay Pages: 1 -->
<svg width="1787pt" height="949pt"
 viewBox="0.00 0.00 1787.00 948.50" xmlns="http://www.w3.org/2000/svg" xmlns:xlink="http://www.w3.org/1999/xlink">
<g id="graph0" class="graph" transform="scale(1 1) rotate(0) translate(4 944.5)">
<title>FrappeSnowland::BeginPlay</title>
<!-- Node1 -->
<g id="Node000001" class="node">
<title>Node1</title>
<g id="a_Node000001"><a xlink:title=" ">
<polygon fill="#999999" stroke="#666666" points="152,-544 0,-544 0,-525 152,-525 152,-544"/>
<text text-anchor="middle" x="76" y="-532" font-family="Helvetica,sans-Serif" font-size="10.00">FrappeSnowland::BeginPlay</text>
</a>
</g>
</g>
<!-- Node2 -->
<g id="Node000002" class="node">
<title>Node2</title>
<g id="a_Node000002"><a xlink:href="actors_8c.html#ac586c2534258d0f108e15fd88751b760" target="_top" xlink:title=" ">
<polygon fill="white" stroke="#666666" points="315,-792 188,-792 188,-773 315,-773 315,-792"/>
<text text-anchor="middle" x="251.5" y="-780" font-family="Helvetica,sans-Serif" font-size="10.00">spawn_all_item_boxes</text>
</a>
</g>
</g>
<!-- Node1&#45;&gt;Node2 -->
<g id="edge1_Node000001_Node000002" class="edge">
<title>Node1&#45;&gt;Node2</title>
<g id="a_edge1_Node000001_Node000002"><a xlink:title=" ">
<path fill="none" stroke="#63b8ff" d="M83.8,-544.22C109.88,-581.49 203.7,-715.61 237.91,-764.5"/>
<polygon fill="#63b8ff" stroke="#63b8ff" points="235.15,-766.66 243.75,-772.85 240.88,-762.65 235.15,-766.66"/>
</a>
</g>
</g>
<!-- Node34 -->
<g id="Node000034" class="node">
<title>Node34</title>
<g id="a_Node000034"><a xlink:href="actors_8c.html#aa6c218ad25d2200bdbf85cbbd197d1cd" target="_top" xlink:title=" ">
<polygon fill="white" stroke="#666666" points="295,-336 208,-336 208,-317 295,-317 295,-336"/>
<text text-anchor="middle" x="251.5" y="-324" font-family="Helvetica,sans-Serif" font-size="10.00">spawn_foliage</text>
</a>
</g>
</g>
<!-- Node1&#45;&gt;Node34 -->
<g id="edge35_Node000001_Node000034" class="edge">
<title>Node1&#45;&gt;Node34</title>
<g id="a_edge35_Node000001_Node000034"><a xlink:title=" ">
<path fill="none" stroke="#63b8ff" d="M85.14,-524.75C112.34,-492.14 200.39,-386.57 235.68,-344.27"/>
<polygon fill="#63b8ff" stroke="#63b8ff" points="238.46,-346.4 242.18,-336.47 233.09,-341.91 238.46,-346.4"/>
</a>
</g>
</g>
<!-- Node3 -->
<g id="Node000003" class="node">
<title>Node3</title>
<g id="a_Node000003"><a xlink:href="actors_8c.html#a91fb2e4e37e7c72fea918fe2c1bb4eaf" target="_top" xlink:title=" ">
<polygon fill="white" stroke="#666666" points="491,-617 351,-617 351,-598 491,-598 491,-617"/>
<text text-anchor="middle" x="421" y="-605" font-family="Helvetica,sans-Serif" font-size="10.00">add_actor_to_empty_slot</text>
</a>
</g>
</g>
<!-- Node2&#45;&gt;Node3 -->
<g id="edge2_Node000002_Node000003" class="edge">
<title>Node2&#45;&gt;Node3</title>
<g id="a_edge2_Node000002_Node000003"><a xlink:title=" ">
<path fill="none" stroke="#63b8ff" d="M261.74,-772.84C288.91,-744.46 368.74,-661.06 403.51,-624.73"/>
<polygon fill="#63b8ff" stroke="#63b8ff" points="406.19,-626.99 410.58,-617.34 401.13,-622.15 406.19,-626.99"/>
</a>
</g>
</g>
<!-- Node10 -->
<g id="Node000010" class="node">
<title>Node10</title>
<g id="a_Node000010"><a xlink:href="Game_8cpp.html#a693de7d8b89fe291aafea86bc64a0a2e" target="_top" xlink:title=" ">
<polygon fill="white" stroke="#666666" points="991,-852 911,-852 911,-833 991,-833 991,-852"/>
<text text-anchor="middle" x="951" y="-840" font-family="Helvetica,sans-Serif" font-size="10.00">CM_GetActor</text>
</a>
</g>
</g>
<!-- Node2&#45;&gt;Node10 -->
<g id="edge29_Node000002_Node000010" class="edge">
<title>Node2&#45;&gt;Node10</title>
<g id="a_edge29_Node000002_Node000010"><a xlink:title=" ">
<path fill="none" stroke="#63b8ff" d="M273.09,-792.17C292.65,-800.83 323.14,-812.99 351,-818.5 551.87,-858.22 797.78,-851.06 900.86,-845.62"/>
<polygon fill="#63b8ff" stroke="#63b8ff" points="901.18,-849.11 910.97,-845.07 900.79,-842.12 901.18,-849.11"/>
</a>
</g>
</g>
<!-- Node23 -->
<g id="Node000023" class="node">
<title>Node23</title>
<g id="a_Node000023"><a xlink:href="math__util_8c.html#a79fd07a0971ec96a3ff0801963a2fa7f" target="_top" xlink:title=" ">
<polygon fill="white" stroke="#666666" points="983,-543 919,-543 919,-524 983,-524 983,-543"/>
<text text-anchor="middle" x="951" y="-531" font-family="Helvetica,sans-Serif" font-size="10.00">vec3f_set</text>
</a>
</g>
</g>
<!-- Node2&#45;&gt;Node23 -->
<g id="edge34_Node000002_Node000023" class="edge">
<title>Node2&#45;&gt;Node23</title>
<g id="a_edge34_Node000002_Node000023"><a xlink:title=" ">
<path fill="none" stroke="#63b8ff" d="M292.55,-792.04C368.24,-808.09 536.24,-834.26 665,-785.5 793.53,-736.83 901.41,-600.78 937.29,-551.56"/>
<polygon fill="#63b8ff" stroke="#63b8ff" points="940.33,-553.34 943.32,-543.17 934.64,-549.25 940.33,-553.34"/>
</a>
</g>
</g>
<!-- Node30 -->
<g id="Node000030" class="node">
<title>Node30</title>
<g id="a_Node000030"><a xlink:href="math__util_8c.html#a062850863585005ad1d0a75d9ff70693" target="_top" xlink:title=" ">
<polygon fill="white" stroke="#666666" points="459.5,-890 382.5,-890 382.5,-871 459.5,-871 459.5,-890"/>
<text text-anchor="middle" x="421" y="-878" font-family="Helvetica,sans-Serif" font-size="10.00">random_u16</text>
</a>
</g>
</g>
<!-- Node2&#45;&gt;Node30 -->
<g id="edge30_Node000002_Node000030" class="edge">
<title>Node2&#45;&gt;Node30</title>
<g id="a_edge30_Node000002_Node000030"><a xlink:title=" ">
<path fill="none" stroke="#63b8ff" d="M262.97,-792.13C280.19,-807.53 316.08,-837.89 351,-856.5 358.89,-860.7 367.66,-864.41 376.24,-867.58"/>
<polygon fill="#63b8ff" stroke="#63b8ff" points="375.18,-870.92 385.78,-870.92 377.5,-864.31 375.18,-870.92"/>
</a>
</g>
</g>
<!-- Node31 -->
<g id="Node000031" class="node">
<title>Node31</title>
<g id="a_Node000031"><a xlink:href="collision_8c.html#ad95e9ed2051529d5edee26109fa07427" target="_top" xlink:title=" ">
<polygon fill="white" stroke="#666666" points="489.5,-771 352.5,-771 352.5,-752 489.5,-752 489.5,-771"/>
<text text-anchor="middle" x="421" y="-759" font-family="Helvetica,sans-Serif" font-size="10.00">spawn_actor_on_surface</text>
</a>
</g>
</g>
<!-- Node2&#45;&gt;Node31 -->
<g id="edge31_Node000002_Node000031" class="edge">
<title>Node2&#45;&gt;Node31</title>
<g id="a_edge31_Node000002_Node000031"><a xlink:title=" ">
<path fill="none" stroke="#63b8ff" d="M315.35,-774.62C324.12,-773.52 333.21,-772.38 342.21,-771.25"/>
<polygon fill="#63b8ff" stroke="#63b8ff" points="342.83,-774.7 352.31,-769.99 341.96,-767.76 342.83,-774.7"/>
</a>
</g>
</g>
<!-- Node4 -->
<g id="Node000004" class="node">
<title>Node4</title>
<g id="a_Node000004"><a xlink:href="actors_8c.html#a39c023177b5a7686cdd1fc65b8b953e1" target="_top" xlink:title=" ">
<polygon fill="white" stroke="#666666" points="627,-543 565,-543 565,-524 627,-524 627,-543"/>
<text text-anchor="middle" x="596" y="-531" font-family="Helvetica,sans-Serif" font-size="10.00">actor_init</text>
</a>
</g>
</g>
<!-- Node3&#45;&gt;Node4 -->
<g id="edge3_Node000003_Node000004" class="edge">
<title>Node3&#45;&gt;Node4</title>
<g id="a_edge3_Node000003_Node000004"><a xlink:title=" ">
<path fill="none" stroke="#63b8ff" d="M437.87,-597.84C458.01,-585.89 494.1,-565.55 527,-552.5 535.87,-548.98 545.63,-545.85 554.93,-543.19"/>
<polygon fill="#63b8ff" stroke="#63b8ff" points="556.04,-546.51 564.76,-540.49 554.19,-539.76 556.04,-546.51"/>
</a>
</g>
</g>
<!-- Node26 -->
<g id="Node000026" class="node">
<title>Node26</title>
<g id="a_Node000026"><a xlink:href="Game_8cpp.html#a42f23077aaa52cb3ea5c7803b7dd6816" target="_top" xlink:title=" ">
<polygon fill="white" stroke="#666666" points="649,-580 543,-580 543,-561 649,-561 649,-580"/>
<text text-anchor="middle" x="596" y="-568" font-family="Helvetica,sans-Serif" font-size="10.00">CM_AddBaseActor</text>
</a>
</g>
</g>
<!-- Node3&#45;&gt;Node26 -->
<g id="edge25_Node000003_Node000026" class="edge">
<title>Node3&#45;&gt;Node26</title>
<g id="a_edge25_Node000003_Node000026"><a xlink:title=" ">
<path fill="none" stroke="#63b8ff" d="M466.55,-597.97C489.07,-593.16 516.58,-587.27 540.36,-582.19"/>
<polygon fill="#63b8ff" stroke="#63b8ff" points="541.25,-585.57 550.3,-580.06 539.79,-578.73 541.25,-585.57"/>
</a>
</g>
</g>
<!-- Node27 -->
<g id="Node000027" class="node">
<title>Node27</title>
<g id="a_Node000027"><a xlink:href="Game_8cpp.html#aab23ecf7032de4618ff75c395d8fccf1" target="_top" xlink:title=" ">
<polygon fill="white" stroke="#666666" points="654,-691 538,-691 538,-672 654,-672 654,-691"/>
<text text-anchor="middle" x="596" y="-679" font-family="Helvetica,sans-Serif" font-size="10.00">CM_AddEditorObject</text>
</a>
</g>
</g>
<!-- Node3&#45;&gt;Node27 -->
<g id="edge26_Node000003_Node000027" class="edge">
<title>Node3&#45;&gt;Node27</title>
<g id="a_edge26_Node000003_Node000027"><a xlink:title=" ">
<path fill="none" stroke="#63b8ff" d="M437.12,-617.01C457.06,-629.21 493.54,-650.35 527,-663.5 532.11,-665.51 537.53,-667.37 542.99,-669.07"/>
<polygon fill="#63b8ff" stroke="#63b8ff" points="542.21,-672.49 552.79,-671.95 544.19,-665.77 542.21,-672.49"/>
</a>
</g>
</g>
<!-- Node28 -->
<g id="Node000028" class="node">
<title>Node28</title>
<g id="a_Node000028"><a xlink:href="Game_8cpp.html#a0841ffe9a66e95aca42438b9d8ffc3d3" target="_top" xlink:title=" ">
<polygon fill="white" stroke="#666666" points="646.5,-654 545.5,-654 545.5,-635 646.5,-635 646.5,-654"/>
<text text-anchor="middle" x="596" y="-642" font-family="Helvetica,sans-Serif" font-size="10.00">CM_GetActorSize</text>
</a>
</g>
</g>
<!-- Node3&#45;&gt;Node28 -->
<g id="edge27_Node000003_Node000028" class="edge">
<title>Node3&#45;&gt;Node28</title>
<g id="a_edge27_Node000003_Node000028"><a xlink:title=" ">
<path fill="none" stroke="#63b8ff" d="M466.55,-617.03C489.07,-621.84 516.58,-627.73 540.36,-632.81"/>
<polygon fill="#63b8ff" stroke="#63b8ff" points="539.79,-636.27 550.3,-634.94 541.25,-629.43 539.79,-636.27"/>
</a>
</g>
</g>
<!-- Node29 -->
<g id="Node000029" class="node">
<title>Node29</title>
<g id="a_Node000029"><a xlink:href="actors_8c.html#a3d238d4f049ffbc555cb8a4dc93c9975" target="_top" xlink:title=" ">
<polygon fill="white" stroke="#666666" points="643.5,-617 548.5,-617 548.5,-598 643.5,-598 643.5,-617"/>
<text text-anchor="middle" x="596" y="-605" font-family="Helvetica,sans-Serif" font-size="10.00">get_actor_name</text>
</a>
</g>
</g>
<!-- Node3&#45;&gt;Node29 -->
<g id="edge28_Node000003_Node000029" class="edge">
<title>Node3&#45;&gt;Node29</title>
<g id="a_edge28_Node000003_Node000029"><a xlink:title=" ">
<path fill="none" stroke="#63b8ff" d="M491.37,-607.5C506.95,-607.5 523.3,-607.5 538.3,-607.5"/>
<polygon fill="#63b8ff" stroke="#63b8ff" points="538.43,-611 548.43,-607.5 538.43,-604 538.43,-611"/>
</a>
</g>
</g>
<!-- Node5 -->
<g id="Node000005" class="node">
<title>Node5</title>
<g id="a_Node000005"><a xlink:href="collision_8c.html#a37aa55b3768d001533ad75e7f1b8388a" target="_top" xlink:title=" ">
<polygon fill="white" stroke="#666666" points="842,-243 701,-243 701,-224 842,-224 842,-243"/>
<text text-anchor="middle" x="771.5" y="-231" font-family="Helvetica,sans-Serif" font-size="10.00">check_bounding_collision</text>
</a>
</g>
</g>
<!-- Node4&#45;&gt;Node5 -->
<g id="edge4_Node000004_Node000005" class="edge">
<title>Node4&#45;&gt;Node5</title>
<g id="a_edge4_Node000004_Node000005"><a xlink:title=" ">
<path fill="none" stroke="#63b8ff" d="M602.58,-523.86C627.25,-481.19 726.84,-308.99 759.83,-251.95"/>
<polygon fill="#63b8ff" stroke="#63b8ff" points="762.88,-253.67 764.86,-243.26 756.82,-250.16 762.88,-253.67"/>
</a>
</g>
</g>
<!-- Node9 -->
<g id="Node000009" class="node">
<title>Node9</title>
<g id="a_Node000009"><a xlink:href="actors_8c.html#a1a9bccb586242555a9123ebd4ab70f2a" target="_top" xlink:title=" ">
<polygon fill="white" stroke="#666666" points="837.5,-900.5 705.5,-900.5 705.5,-870.5 837.5,-870.5 837.5,-900.5"/>
<text text-anchor="start" x="713.5" y="-888.5" font-family="Helvetica,sans-Serif" font-size="10.00">cleanup_red_and_green</text>
<text text-anchor="middle" x="771.5" y="-877.5" font-family="Helvetica,sans-Serif" font-size="10.00">_shells</text>
</a>
</g>
</g>
<!-- Node4&#45;&gt;Node9 -->
<g id="edge8_Node000004_Node000009" class="edge">
<title>Node4&#45;&gt;Node9</title>
<g id="a_edge8_Node000004_Node000009"><a xlink:title=" ">
<path fill="none" stroke="#63b8ff" d="M627.28,-535.59C640.37,-537.96 654.95,-542.79 665,-552.5 688.02,-574.74 744.82,-786.77 764.03,-860.43"/>
<polygon fill="#63b8ff" stroke="#63b8ff" points="760.68,-861.46 766.58,-870.26 767.46,-859.7 760.68,-861.46"/>
</a>
</g>
</g>
<!-- Node22 -->
<g id="Node000022" class="node">
<title>Node22</title>
<g id="a_Node000022"><a xlink:href="collision_8c.html#ad72fef3ffe32191d73b1822f512ebf3f" target="_top" xlink:title=" ">
<polygon fill="white" stroke="#666666" points="819,-543 724,-543 724,-524 819,-524 819,-543"/>
<text text-anchor="middle" x="771.5" y="-531" font-family="Helvetica,sans-Serif" font-size="10.00">func_802AAAAC</text>
</a>
</g>
</g>
<!-- Node4&#45;&gt;Node22 -->
<g id="edge21_Node000004_Node000022" class="edge">
<title>Node4&#45;&gt;Node22</title>
<g id="a_edge21_Node000004_Node000022"><a xlink:title=" ">
<path fill="none" stroke="#63b8ff" d="M627.22,-533.5C651,-533.5 684.82,-533.5 713.62,-533.5"/>
<polygon fill="#63b8ff" stroke="#63b8ff" points="713.98,-537 723.98,-533.5 713.98,-530 713.98,-537"/>
</a>
</g>
</g>
<!-- Node24 -->
<g id="Node000024" class="node">
<title>Node24</title>
<g id="a_Node000024"><a xlink:href="math__util_8c.html#af7b470ed76fce07b8042a47c96e5690b" target="_top" xlink:title=" ">
<polygon fill="white" stroke="#666666" points="825,-617 718,-617 718,-598 825,-598 825,-617"/>
<text text-anchor="middle" x="771.5" y="-605" font-family="Helvetica,sans-Serif" font-size="10.00">vec3f_copy_return</text>
</a>
</g>
</g>
<!-- Node4&#45;&gt;Node24 -->
<g id="edge23_Node000004_Node000024" class="edge">
<title>Node4&#45;&gt;Node24</title>
<g id="a_edge23_Node000004_Node000024"><a xlink:title=" ">
<path fill="none" stroke="#63b8ff" d="M627.15,-538.35C639.48,-541.22 653.51,-545.68 665,-552.5 684.73,-564.21 681.16,-577.98 701,-589.5 704,-591.24 707.17,-592.82 710.44,-594.25"/>
<polygon fill="#63b8ff" stroke="#63b8ff" points="709.25,-597.54 719.84,-597.88 711.78,-591.01 709.25,-597.54"/>
</a>
</g>
</g>
<!-- Node25 -->
<g id="Node000025" class="node">
<title>Node25</title>
<g id="a_Node000025"><a xlink:href="math__util_8c.html#a0e270ee67600c8c9c2f140c647d008a1" target="_top" xlink:title=" ">
<polygon fill="white" stroke="#666666" points="808.5,-580 734.5,-580 734.5,-561 808.5,-561 808.5,-580"/>
<text text-anchor="middle" x="771.5" y="-568" font-family="Helvetica,sans-Serif" font-size="10.00">vec3s_copy</text>
</a>
</g>
</g>
<!-- Node4&#45;&gt;Node25 -->
<g id="edge24_Node000004_Node000025" class="edge">
<title>Node4&#45;&gt;Node25</title>
<g id="a_edge24_Node000004_Node000025"><a xlink:title=" ">
<path fill="none" stroke="#63b8ff" d="M627.22,-539.94C654,-545.66 693.51,-554.08 724.26,-560.64"/>
<polygon fill="#63b8ff" stroke="#63b8ff" points="723.81,-564.12 734.32,-562.78 725.27,-557.28 723.81,-564.12"/>
</a>
</g>
</g>
<!-- Node6 -->
<g id="Node000006" class="node">
<title>Node6</title>
<g id="a_Node000006"><a xlink:href="collision_8c.html#ac312bf382cb40752f6b790a99e7cdcb6" target="_top" xlink:title=" ">
<polygon fill="white" stroke="#666666" points="1005,-243 897,-243 897,-224 1005,-224 1005,-243"/>
<text text-anchor="middle" x="951" y="-231" font-family="Helvetica,sans-Serif" font-size="10.00">check_collision_yx</text>
</a>
</g>
</g>
<!-- Node5&#45;&gt;Node6 -->
<g id="edge5_Node000005_Node000006" class="edge">
<title>Node5&#45;&gt;Node6</title>
<g id="a_edge5_Node000005_Node000006"><a xlink:title=" ">
<path fill="none" stroke="#63b8ff" d="M842.14,-233.5C856.76,-233.5 872.1,-233.5 886.48,-233.5"/>
<polygon fill="#63b8ff" stroke="#63b8ff" points="886.75,-237 896.75,-233.5 886.75,-230 886.75,-237"/>
</a>
</g>
</g>
<!-- Node7 -->
<g id="Node000007" class="node">
<title>Node7</title>
<g id="a_Node000007"><a xlink:href="collision_8c.html#a4b48832a90e984536a0635a016ec4f28" target="_top" xlink:title=" ">
<polygon fill="white" stroke="#666666" points="1004.5,-206 897.5,-206 897.5,-187 1004.5,-187 1004.5,-206"/>
<text text-anchor="middle" x="951" y="-194" font-family="Helvetica,sans-Serif" font-size="10.00">check_collision_zx</text>
</a>
</g>
</g>
<!-- Node5&#45;&gt;Node7 -->
<g id="edge6_Node000005_Node000007" class="edge">
<title>Node5&#45;&gt;Node7</title>
<g id="a_edge6_Node000005_Node000007"><a xlink:title=" ">
<path fill="none" stroke="#63b8ff" d="M818.21,-223.97C841.41,-219.14 869.79,-213.22 894.27,-208.12"/>
<polygon fill="#63b8ff" stroke="#63b8ff" points="895.06,-211.53 904.14,-206.06 893.63,-204.67 895.06,-211.53"/>
</a>
</g>
</g>
<!-- Node8 -->
<g id="Node000008" class="node">
<title>Node8</title>
<g id="a_Node000008"><a xlink:href="collision_8c.html#a21fef964ab48191a1c0341954ef27a40" target="_top" xlink:title=" ">
<polygon fill="white" stroke="#666666" points="1004.5,-280 897.5,-280 897.5,-261 1004.5,-261 1004.5,-280"/>
<text text-anchor="middle" x="951" y="-268" font-family="Helvetica,sans-Serif" font-size="10.00">check_collision_zy</text>
</a>
</g>
</g>
<!-- Node5&#45;&gt;Node8 -->
<g id="edge7_Node000005_Node000008" class="edge">
<title>Node5&#45;&gt;Node8</title>
<g id="a_edge7_Node000005_Node000008"><a xlink:title=" ">
<path fill="none" stroke="#63b8ff" d="M818.21,-243.03C841.41,-247.86 869.79,-253.78 894.27,-258.88"/>
<polygon fill="#63b8ff" stroke="#63b8ff" points="893.63,-262.33 904.14,-260.94 895.06,-255.47 893.63,-262.33"/>
</a>
</g>
</g>
<!-- Node9&#45;&gt;Node10 -->
<g id="edge9_Node000009_Node000010" class="edge">
<title>Node9&#45;&gt;Node10</title>
<g id="a_edge9_Node000009_Node000010"><a xlink:title=" ">
<path fill="none" stroke="#63b8ff" d="M834.58,-870.46C856.4,-865.17 880.6,-859.31 901.17,-854.33"/>
<polygon fill="#63b8ff" stroke="#63b8ff" points="902.06,-857.71 910.96,-851.96 900.41,-850.91 902.06,-857.71"/>
</a>
</g>
</g>
<!-- Node11 -->
<g id="Node000011" class="node">
<title>Node11</title>
<g id="a_Node000011"><a xlink:href="code__80005FD0_8c.html#ad301b978cdd3c4cc190b10be050d51d8" target="_top" xlink:title=" ">
<polygon fill="white" stroke="#666666" points="1024,-940.5 878,-940.5 878,-910.5 1024,-910.5 1024,-940.5"/>
<text text-anchor="start" x="886" y="-928.5" font-family="Helvetica,sans-Serif" font-size="10.00">delete_actor_in_unexpired</text>
<text text-anchor="middle" x="951" y="-917.5" font-family="Helvetica,sans-Serif" font-size="10.00">_actor_list</text>
</a>
</g>
</g>
<!-- Node9&#45;&gt;Node11 -->
<g id="edge10_Node000009_Node000011" class="edge">
<title>Node9&#45;&gt;Node11</title>
<g id="a_edge10_Node000009_Node000011"><a xlink:title=" ">
<path fill="none" stroke="#63b8ff" d="M837.59,-900.17C849.26,-902.8 861.52,-905.56 873.48,-908.26"/>
<polygon fill="#63b8ff" stroke="#63b8ff" points="872.91,-911.72 883.43,-910.5 874.45,-904.89 872.91,-911.72"/>
</a>
</g>
</g>
<!-- Node12 -->
<g id="Node000012" class="node">
<title>Node12</title>
<g id="a_Node000012"><a xlink:href="actors_8c.html#a694ec6ef7548b8618aeb35c038d3a9b9" target="_top" xlink:title=" ">
<polygon fill="white" stroke="#666666" points="992.5,-892 909.5,-892 909.5,-873 992.5,-873 992.5,-892"/>
<text text-anchor="middle" x="951" y="-880" font-family="Helvetica,sans-Serif" font-size="10.00">destroy_actor</text>
</a>
</g>
</g>
<!-- Node9&#45;&gt;Node12 -->
<g id="edge11_Node000009_Node000012" class="edge">
<title>Node9&#45;&gt;Node12</title>
<g id="a_edge11_Node000009_Node000012"><a xlink:title=" ">
<path fill="none" stroke="#63b8ff" d="M837.59,-884.4C857.97,-884.06 880.14,-883.68 899.37,-883.36"/>
<polygon fill="#63b8ff" stroke="#63b8ff" points="899.49,-886.85 909.43,-883.19 899.37,-879.86 899.49,-886.85"/>
</a>
</g>
</g>
<!-- Node13 -->
<g id="Node000013" class="node">
<title>Node13</title>
<g id="a_Node000013"><a xlink:href="actors_8c.html#a12dc3ccac4c7d8569eadac0af4fd6f9f" target="_top" xlink:title=" ">
<polygon fill="white" stroke="#666666" points="1218,-892 1060,-892 1060,-873 1218,-873 1218,-892"/>
<text text-anchor="middle" x="1139" y="-880" font-family="Helvetica,sans-Serif" font-size="10.00">play_sound_before_despawn</text>
</a>
</g>
</g>
<!-- Node12&#45;&gt;Node13 -->
<g id="edge12_Node000012_Node000013" class="edge">
<title>Node12&#45;&gt;Node13</title>
<g id="a_edge12_Node000012_Node000013"><a xlink:title=" ">
<path fill="none" stroke="#63b8ff" d="M992.82,-882.5C1009.65,-882.5 1029.86,-882.5 1049.77,-882.5"/>
<polygon fill="#63b8ff" stroke="#63b8ff" points="1049.82,-886 1059.82,-882.5 1049.82,-879 1049.82,-886"/>
</a>
</g>
</g>
<!-- Node14 -->
<g id="Node000014" class="node">
<title>Node14</title>
<g id="a_Node000014"><a xlink:href="external_8c.html#ae72057869772019e4464c87d4e16c682" target="_top" xlink:title=" ">
<polygon fill="white" stroke="#666666" points="1346,-892 1254,-892 1254,-873 1346,-873 1346,-892"/>
<text text-anchor="middle" x="1300" y="-880" font-family="Helvetica,sans-Serif" font-size="10.00">func_800C99E0</text>
</a>
</g>
</g>
<!-- Node13&#45;&gt;Node14 -->
<g id="edge13_Node000013_Node000014" class="edge">
<title>Node13&#45;&gt;Node14</title>
<g id="a_edge13_Node000013_Node000014"><a xlink:title=" ">
<path fill="none" stroke="#63b8ff" d="M1218.1,-882.5C1226.72,-882.5 1235.35,-882.5 1243.61,-882.5"/>
<polygon fill="#63b8ff" stroke="#63b8ff" points="1243.83,-886 1253.83,-882.5 1243.83,-879 1243.83,-886"/>
</a>
</g>
</g>
<!-- Node15 -->
<g id="Node000015" class="node">
<title>Node15</title>
<g id="a_Node000015"><a xlink:href="external_8c.html#aeb87c527482a244173df36a1f3d4f446" target="_top" xlink:title=" ">
<polygon fill="white" stroke="#666666" points="1474,-911 1382,-911 1382,-892 1474,-892 1474,-911"/>
<text text-anchor="middle" x="1428" y="-899" font-family="Helvetica,sans-Serif" font-size="10.00">func_800C21E8</text>
</a>
</g>
</g>
<!-- Node14&#45;&gt;Node15 -->
<g id="edge14_Node000014_Node000015" class="edge">
<title>Node14&#45;&gt;Node15</title>
<g id="a_edge14_Node000014_Node000015"><a xlink:title=" ">
<path fill="none" stroke="#63b8ff" d="M1346.13,-889.31C1354.46,-890.56 1363.23,-891.88 1371.81,-893.18"/>
<polygon fill="#63b8ff" stroke="#63b8ff" points="1371.35,-896.65 1381.76,-894.68 1372.39,-889.73 1371.35,-896.65"/>
</a>
</g>
</g>
<!-- Node16 -->
<g id="Node000016" class="node">
<title>Node16</title>
<g id="a_Node000016"><a xlink:href="external_8c.html#a028d40421b90c38f68ebfd5acc626f2e" target="_top" xlink:title=" ">
<polygon fill="white" stroke="#666666" points="1474,-874 1382,-874 1382,-855 1474,-855 1474,-874"/>
<text text-anchor="middle" x="1428" y="-862" font-family="Helvetica,sans-Serif" font-size="10.00">func_800C5578</text>
</a>
</g>
</g>
<!-- Node14&#45;&gt;Node16 -->
<g id="edge15_Node000014_Node000016" class="edge">
<title>Node14&#45;&gt;Node16</title>
<g id="a_edge15_Node000014_Node000016"><a xlink:title=" ">
<path fill="none" stroke="#63b8ff" d="M1346.13,-876.05C1354.46,-874.86 1363.23,-873.61 1371.81,-872.38"/>
<polygon fill="#63b8ff" stroke="#63b8ff" points="1372.35,-875.84 1381.76,-870.96 1371.36,-868.91 1372.35,-875.84"/>
</a>
</g>
</g>
<!-- Node17 -->
<g id="Node000017" class="node">
<title>Node17</title>
<g id="a_Node000017"><a xlink:href="external_8c.html#ac0fb767de7e14a03f1bcfa53f0abd23b" target="_top" xlink:title=" ">
<polygon fill="white" stroke="#666666" points="1650,-911 1510,-911 1510,-892 1650,-892 1650,-911"/>
<text text-anchor="middle" x="1580" y="-899" font-family="Helvetica,sans-Serif" font-size="10.00">delete_sound_from_bank</text>
</a>
</g>
</g>
<!-- Node16&#45;&gt;Node17 -->
<g id="edge16_Node000016_Node000017" class="edge">
<title>Node16&#45;&gt;Node17</title>
<g id="a_edge16_Node000016_Node000017"><a xlink:title=" ">
<path fill="none" stroke="#63b8ff" d="M1467.63,-874.03C1486.8,-878.76 1510.16,-884.52 1530.52,-889.54"/>
<polygon fill="#63b8ff" stroke="#63b8ff" points="1529.69,-892.94 1540.24,-891.94 1531.37,-886.15 1529.69,-892.94"/>
</a>
</g>
</g>
<!-- Node19 -->
<g id="Node000019" class="node">
<title>Node19</title>
<g id="a_Node000019"><a xlink:href="external_8c.html#ab83bd36e63f0f1baddcb2482b5ad31b0" target="_top" xlink:title=" ">
<polygon fill="white" stroke="#666666" points="1626.5,-874 1533.5,-874 1533.5,-855 1626.5,-855 1626.5,-874"/>
<text text-anchor="middle" x="1580" y="-862" font-family="Helvetica,sans-Serif" font-size="10.00">func_800C41CC</text>
</a>
</g>
</g>
<!-- Node16&#45;&gt;Node19 -->
<g id="edge18_Node000016_Node000019" class="edge">
<title>Node16&#45;&gt;Node19</title>
<g id="a_edge18_Node000016_Node000019"><a xlink:title=" ">
<path fill="none" stroke="#63b8ff" d="M1474,-864.5C1489.37,-864.5 1506.74,-864.5 1522.86,-864.5"/>
<polygon fill="#63b8ff" stroke="#63b8ff" points="1523.25,-868 1533.25,-864.5 1523.25,-861 1523.25,-868"/>
</a>
</g>
</g>
<!-- Node20 -->
<g id="Node000020" class="node">
<title>Node20</title>
<g id="a_Node000020"><a xlink:href="port__eu_8c.html#aa89dfaecca46c6d071f08c1898d1f7c9" target="_top" xlink:title=" ">
<polygon fill="white" stroke="#666666" points="1626.5,-837 1533.5,-837 1533.5,-818 1626.5,-818 1626.5,-837"/>
<text text-anchor="middle" x="1580" y="-825" font-family="Helvetica,sans-Serif" font-size="10.00">func_800CBBE8</text>
</a>
</g>
</g>
<!-- Node16&#45;&gt;Node20 -->
<g id="edge19_Node000016_Node000020" class="edge">
<title>Node16&#45;&gt;Node20</title>
<g id="a_edge19_Node000016_Node000020"><a xlink:title=" ">
<path fill="none" stroke="#63b8ff" d="M1467.63,-854.97C1486.8,-850.24 1510.16,-844.48 1530.52,-839.46"/>
<polygon fill="#63b8ff" stroke="#63b8ff" points="1531.37,-842.85 1540.24,-837.06 1529.69,-836.06 1531.37,-842.85"/>
</a>
</g>
</g>
<!-- Node18 -->
<g id="Node000018" class="node">
<title>Node18</title>
<g id="a_Node000018"><a xlink:href="external_8c.html#a358ac55e8ab5262dcae8037334be06d7" target="_top" xlink:title=" ">
<polygon fill="white" stroke="#666666" points="1778.5,-911 1686.5,-911 1686.5,-892 1778.5,-892 1778.5,-911"/>
<text text-anchor="middle" x="1732.5" y="-899" font-family="Helvetica,sans-Serif" font-size="10.00">func_800C40F0</text>
</a>
</g>
</g>
<!-- Node17&#45;&gt;Node18 -->
<g id="edge17_Node000017_Node000018" class="edge">
<title>Node17&#45;&gt;Node18</title>
<g id="a_edge17_Node000017_Node000018"><a xlink:title=" ">
<path fill="none" stroke="#63b8ff" d="M1650.08,-901.5C1658.87,-901.5 1667.78,-901.5 1676.31,-901.5"/>
<polygon fill="#63b8ff" stroke="#63b8ff" points="1676.5,-905 1686.5,-901.5 1676.5,-898 1676.5,-905"/>
</a>
</g>
</g>
<!-- Node21 -->
<g id="Node000021" class="node">
<title>Node21</title>
<g id="a_Node000021"><a xlink:href="port__eu_8c.html#af361a20d2e08f30c53a237ca481ff734" target="_top" xlink:title=" ">
<polygon fill="white" stroke="#666666" points="1779,-837 1686,-837 1686,-818 1779,-818 1779,-837"/>
<text text-anchor="middle" x="1732.5" y="-825" font-family="Helvetica,sans-Serif" font-size="10.00">func_800CBB48</text>
</a>
</g>
</g>
<!-- Node20&#45;&gt;Node21 -->
<g id="edge20_Node000020_Node000021" class="edge">
<title>Node20&#45;&gt;Node21</title>
<g id="a_edge20_Node000020_Node000021"><a xlink:title=" ">
<path fill="none" stroke="#63b8ff" d="M1626.56,-827.5C1641.96,-827.5 1659.34,-827.5 1675.46,-827.5"/>
<polygon fill="#63b8ff" stroke="#63b8ff" points="1675.83,-831 1685.83,-827.5 1675.83,-824 1675.83,-831"/>
</a>
</g>
</g>
<!-- Node22&#45;&gt;Node23 -->
<g id="edge22_Node000022_Node000023" class="edge">
<title>Node22&#45;&gt;Node23</title>
<g id="a_edge22_Node000022_Node000023"><a xlink:title=" ">
<path fill="none" stroke="#63b8ff" d="M819.14,-533.5C846.88,-533.5 881.78,-533.5 908.56,-533.5"/>
<polygon fill="#63b8ff" stroke="#63b8ff" points="908.76,-537 918.76,-533.5 908.76,-530 908.76,-537"/>
</a>
</g>
</g>
<!-- Node32 -->
<g id="Node000032" class="node">
<title>Node32</title>
<g id="a_Node000032"><a xlink:href="collision_8c.html#a6527a2135a10909cdf9a1fd731be5628" target="_top" xlink:title=" ">
<polygon fill="white" stroke="#666666" points="665,-728 527,-728 527,-709 665,-709 665,-728"/>
<text text-anchor="middle" x="596" y="-716" font-family="Helvetica,sans-Serif" font-size="10.00">calculate_surface_height</text>
</a>
</g>
</g>
<!-- Node31&#45;&gt;Node32 -->
<g id="edge32_Node000031_Node000032" class="edge">
<title>Node31&#45;&gt;Node32</title>
<g id="a_edge32_Node000031_Node000032"><a xlink:title=" ">
<path fill="none" stroke="#63b8ff" d="M460.39,-751.96C485.93,-745.61 519.66,-737.23 546.97,-730.44"/>
<polygon fill="#63b8ff" stroke="#63b8ff" points="547.85,-733.83 556.71,-728.02 546.16,-727.03 547.85,-733.83"/>
</a>
</g>
</g>
<!-- Node33 -->
<g id="Node000033" class="node">
<title>Node33</title>
<g id="a_Node000033"><a xlink:href="collision_8c.html#a0fe340ccfe1d926a592ea9a0c84d7574" target="_top" xlink:title=" ">
<polygon fill="white" stroke="#666666" points="662,-776.5 530,-776.5 530,-746.5 662,-746.5 662,-776.5"/>
<text text-anchor="start" x="538" y="-764.5" font-family="Helvetica,sans-Serif" font-size="10.00">check_horizontally</text>
<text text-anchor="middle" x="596" y="-753.5" font-family="Helvetica,sans-Serif" font-size="10.00">_colliding_with_triangle</text>
</a>
</g>
</g>
<!-- Node31&#45;&gt;Node33 -->
<g id="edge33_Node000031_Node000033" class="edge">
<title>Node31&#45;&gt;Node33</title>
<g id="a_edge33_Node000031_Node000033"><a xlink:title=" ">
<path fill="none" stroke="#63b8ff" d="M489.88,-761.5C499.64,-761.5 509.74,-761.5 519.64,-761.5"/>
<polygon fill="#63b8ff" stroke="#63b8ff" points="519.86,-765 529.86,-761.5 519.86,-758 519.86,-765"/>
</a>
</g>
</g>
<!-- Node34&#45;&gt;Node3 -->
<g id="edge36_Node000034_Node000003" class="edge">
<title>Node34&#45;&gt;Node3</title>
<g id="a_edge36_Node000034_Node000003"><a xlink:title=" ">
<path fill="none" stroke="#63b8ff" d="M257.23,-336.25C270.79,-363.97 311.35,-445.36 351,-509.5 368.85,-538.38 391.98,-570.25 406.4,-589.58"/>
<polygon fill="#63b8ff" stroke="#63b8ff" points="403.74,-591.86 412.54,-597.75 409.33,-587.65 403.74,-591.86"/>
</a>
</g>
</g>
<!-- Node34&#45;&gt;Node5 -->
<g id="edge38_Node000034_Node000005" class="edge">
<title>Node34&#45;&gt;Node5</title>
<g id="a_edge38_Node000034_Node000005"><a xlink:title=" ">
<path fill="none" stroke="#63b8ff" d="M252.59,-316.92C253.55,-277.52 263.02,-127.25 351,-66.5 491.16,30.28 695.6,-157.53 754.23,-216.55"/>
<polygon fill="#63b8ff" stroke="#63b8ff" points="752.02,-219.29 761.52,-223.98 757.02,-214.39 752.02,-219.29"/>
</a>
</g>
</g>
<!-- Node34&#45;&gt;Node10 -->
<g id="edge39_Node000034_Node000010" class="edge">
<title>Node34&#45;&gt;Node10</title>
<g id="a_edge39_Node000034_Node000010"><a xlink:title=" ">
<path fill="none" stroke="#63b8ff" d="M256.75,-336.24C268.04,-360.77 301.31,-425.16 351,-453.5 398.76,-480.74 799.54,-480.55 842,-515.5 939.15,-595.47 949.56,-764.97 950.19,-822.74"/>
<polygon fill="#63b8ff" stroke="#63b8ff" points="946.69,-822.75 950.2,-832.74 953.69,-822.73 946.69,-822.75"/>
</a>
</g>
</g>
<!-- Node34&#45;&gt;Node23 -->
<g id="edge53_Node000034_Node000023" class="edge">
<title>Node34&#45;&gt;Node23</title>
<g id="a_edge53_Node000034_Node000023"><a xlink:title=" ">
<path fill="none" stroke="#63b8ff" d="M259.33,-336.19C273.72,-355.76 309.32,-399.82 351,-419.5 549.9,-513.42 631.05,-419.2 842,-481.5 872.08,-490.38 904.17,-506.83 925.48,-518.85"/>
<polygon fill="#63b8ff" stroke="#63b8ff" points="923.78,-521.91 934.19,-523.86 927.27,-515.84 923.78,-521.91"/>
</a>
</g>
</g>
<!-- Node34&#45;&gt;Node32 -->
<g id="edge37_Node000034_Node000032" class="edge">
<title>Node34&#45;&gt;Node32</title>
<g id="a_edge37_Node000034_Node000032"><a xlink:title=" ">
<path fill="none" stroke="#63b8ff" d="M252.88,-336.24C255.01,-377.13 268.49,-537.04 351,-626.5 394.13,-673.26 463.41,-696.4 517.15,-707.77"/>
<polygon fill="#63b8ff" stroke="#63b8ff" points="516.5,-711.21 527,-709.76 517.89,-704.35 516.5,-711.21"/>
</a>
</g>
</g>
<!-- Node35 -->
<g id="Node000035" class="node">
<title>Node35</title>
<g id="a_Node000035"><a xlink:href="actors_8c.html#a6fd7dc3bc34357287535b6f06ab7d85c" target="_top" xlink:title=" ">
<polygon fill="white" stroke="#666666" points="642,-391 550,-391 550,-372 642,-372 642,-391"/>
<text text-anchor="middle" x="596" y="-379" font-family="Helvetica,sans-Serif" font-size="10.00">func_802976D8</text>
</a>
</g>
</g>
<!-- Node34&#45;&gt;Node35 -->
<g id="edge40_Node000034_Node000035" class="edge">
<title>Node34&#45;&gt;Node35</title>
<g id="a_edge40_Node000034_Node000035"><a xlink:title=" ">
<path fill="none" stroke="#63b8ff" d="M261.08,-336.15C276.87,-353.1 312.45,-387.63 351,-400.5 420.23,-423.61 506.42,-407.15 555.63,-393.82"/>
<polygon fill="#63b8ff" stroke="#63b8ff" points="556.87,-397.11 565.55,-391.04 554.98,-390.37 556.87,-397.11"/>
</a>
</g>
</g>
<!-- Node36 -->
<g id="Node000036" class="node">
<title>Node36</title>
<g id="a_Node000036"><a xlink:href="actors_8c.html#a09d879c67b2c1430dd8ba2d5c9c136e1" target="_top" xlink:title=" ">
<polygon fill="white" stroke="#666666" points="467,-354 375,-354 375,-335 467,-335 467,-354"/>
<text text-anchor="middle" x="421" y="-342" font-family="Helvetica,sans-Serif" font-size="10.00">func_802976EC</text>
</a>
</g>
</g>
<!-- Node34&#45;&gt;Node36 -->
<g id="edge41_Node000034_Node000036" class="edge">
<title>Node34&#45;&gt;Node36</title>
<g id="a_edge41_Node000034_Node000036"><a xlink:title=" ">
<path fill="none" stroke="#63b8ff" d="M295.2,-331.09C316.3,-333.36 342.01,-336.12 364.61,-338.55"/>
<polygon fill="#63b8ff" stroke="#63b8ff" points="364.42,-342.05 374.74,-339.64 365.17,-335.09 364.42,-342.05"/>
</a>
</g>
</g>
<!-- Node39 -->
<g id="Node000039" class="node">
<title>Node39</title>
<g id="a_Node000039"><a xlink:href="Game_8cpp.html#a8ebd6a4d970e4333ab5a9dd66c3d9c48" target="_top" xlink:title=" ">
<polygon fill="white" stroke="#666666" points="469.5,-391 372.5,-391 372.5,-372 469.5,-372 469.5,-391"/>
<text text-anchor="middle" x="421" y="-379" font-family="Helvetica,sans-Serif" font-size="10.00">IsBowsersCastle</text>
</a>
</g>
</g>
<!-- Node34&#45;&gt;Node39 -->
<g id="edge45_Node000034_Node000039" class="edge">
<title>Node34&#45;&gt;Node39</title>
<g id="a_edge45_Node000034_Node000039"><a xlink:title=" ">
<path fill="none" stroke="#63b8ff" d="M275.74,-336.01C295.55,-343.93 324.88,-355.21 351,-363.5 357.34,-365.51 364.06,-367.47 370.72,-369.32"/>
<polygon fill="#63b8ff" stroke="#63b8ff" points="369.82,-372.7 380.39,-371.92 371.65,-365.94 369.82,-372.7"/>
</a>
</g>
</g>
<!-- Node40 -->
<g id="Node000040" class="node">
<title>Node40</title>
<g id="a_Node000040"><a xlink:href="Game_8cpp.html#af4bf996258124d6741c70e4fa918ef03" target="_top" xlink:title=" ">
<polygon fill="white" stroke="#666666" points="473.5,-317 368.5,-317 368.5,-298 473.5,-298 473.5,-317"/>
<text text-anchor="middle" x="421" y="-305" font-family="Helvetica,sans-Serif" font-size="10.00">IsFrappeSnowland</text>
</a>
</g>
</g>
<!-- Node34&#45;&gt;Node40 -->
<g id="edge46_Node000034_Node000040" class="edge">
<title>Node34&#45;&gt;Node40</title>
<g id="a_edge46_Node000034_Node000040"><a xlink:title=" ">
<path fill="none" stroke="#63b8ff" d="M295.2,-321.66C314.36,-319.48 337.32,-316.88 358.3,-314.5"/>
<polygon fill="#63b8ff" stroke="#63b8ff" points="358.87,-317.96 368.42,-313.35 358.08,-311 358.87,-317.96"/>
</a>
</g>
</g>
<!-- Node41 -->
<g id="Node000041" class="node">
<title>Node41</title>
<g id="a_Node000041"><a xlink:href="Game_8cpp.html#ad474b8b257813cceeae25ab5205273c4" target="_top" xlink:title=" ">
<polygon fill="white" stroke="#666666" points="470,-280 372,-280 372,-261 470,-261 470,-280"/>
<text text-anchor="middle" x="421" y="-268" font-family="Helvetica,sans-Serif" font-size="10.00">IsKalimariDesert</text>
</a>
</g>
</g>
<!-- Node34&#45;&gt;Node41 -->
<g id="edge47_Node000034_Node000041" class="edge">
<title>Node34&#45;&gt;Node41</title>
<g id="a_edge47_Node000034_Node000041"><a xlink:title=" ">
<path fill="none" stroke="#63b8ff" d="M276.17,-316.92C295.99,-309.06 325.11,-297.91 351,-289.5 358.15,-287.18 365.77,-284.89 373.25,-282.76"/>
<polygon fill="#63b8ff" stroke="#63b8ff" points="374.25,-286.11 382.93,-280.04 372.36,-279.37 374.25,-286.11"/>
</a>
</g>
</g>
<!-- Node42 -->
<g id="Node000042" class="node">
<title>Node42</title>
<g id="a_Node000042"><a xlink:href="Game_8cpp.html#a2d7429dca77188f881bf1c340271ea90" target="_top" xlink:title=" ">
<polygon fill="white" stroke="#666666" points="467,-243 375,-243 375,-224 467,-224 467,-243"/>
<text text-anchor="middle" x="421" y="-231" font-family="Helvetica,sans-Serif" font-size="10.00">IsLuigiRaceway</text>
</a>
</g>
</g>
<!-- Node34&#45;&gt;Node42 -->
<g id="edge48_Node000034_Node000042" class="edge">
<title>Node34&#45;&gt;Node42</title>
<g id="a_edge48_Node000034_Node000042"><a xlink:title=" ">
<path fill="none" stroke="#63b8ff" d="M262.56,-316.86C279.47,-301.15 315.29,-270.04 351,-252.5 355.69,-250.2 360.7,-248.14 365.8,-246.3"/>
<polygon fill="#63b8ff" stroke="#63b8ff" points="367.25,-249.51 375.65,-243.05 365.06,-242.86 367.25,-249.51"/>
</a>
</g>
</g>
<!-- Node43 -->
<g id="Node000043" class="node">
<title>Node43</title>
<g id="a_Node000043"><a xlink:href="Game_8cpp.html#a591286b8b2219a8889cda4cc5d3b8c79" target="_top" xlink:title=" ">
<polygon fill="white" stroke="#666666" points="469.5,-206 372.5,-206 372.5,-187 469.5,-187 469.5,-206"/>
<text text-anchor="middle" x="421" y="-194" font-family="Helvetica,sans-Serif" font-size="10.00">IsMarioRaceway</text>
</a>
</g>
</g>
<!-- Node34&#45;&gt;Node43 -->
<g id="edge49_Node000034_Node000043" class="edge">
<title>Node34&#45;&gt;Node43</title>
<g id="a_edge49_Node000034_Node000043"><a xlink:title=" ">
<path fill="none" stroke="#63b8ff" d="M258.3,-316.8C271.74,-295.16 307.26,-242.73 351,-215.5 354.78,-213.15 358.86,-211.08 363.07,-209.26"/>
<polygon fill="#63b8ff" stroke="#63b8ff" points="364.35,-212.52 372.45,-205.68 361.86,-205.98 364.35,-212.52"/>
</a>
</g>
</g>
<!-- Node44 -->
<g id="Node000044" class="node">
<title>Node44</title>
<g id="a_Node000044"><a xlink:href="Game_8cpp.html#a8a295fe1e3fdfa50223813feaca6d7d6" target="_top" xlink:title=" ">
<polygon fill="white" stroke="#666666" points="466.5,-169 375.5,-169 375.5,-150 466.5,-150 466.5,-169"/>
<text text-anchor="middle" x="421" y="-157" font-family="Helvetica,sans-Serif" font-size="10.00">IsMooMooFarm</text>
</a>
</g>
</g>
<!-- Node34&#45;&gt;Node44 -->
<g id="edge50_Node000034_Node000044" class="edge">
<title>Node34&#45;&gt;Node44</title>
<g id="a_edge50_Node000034_Node000044"><a xlink:title=" ">
<path fill="none" stroke="#63b8ff" d="M256.1,-316.81C266.47,-290.31 298.98,-216.12 351,-178.5 355.47,-175.27 360.46,-172.59 365.66,-170.36"/>
<polygon fill="#63b8ff" stroke="#63b8ff" points="367.02,-173.59 375.18,-166.83 364.58,-167.03 367.02,-173.59"/>
</a>
</g>
</g>
<!-- Node45 -->
<g id="Node000045" class="node">
<title>Node45</title>
<g id="a_Node000045"><a xlink:href="Game_8cpp.html#afb0bb7b7bc2b816a7a9fbedcc6c41ab7" target="_top" xlink:title=" ">
<polygon fill="white" stroke="#666666" points="469.5,-132 372.5,-132 372.5,-113 469.5,-113 469.5,-132"/>
<text text-anchor="middle" x="421" y="-120" font-family="Helvetica,sans-Serif" font-size="10.00">IsRoyalRaceway</text>
</a>
</g>
</g>
<!-- Node34&#45;&gt;Node45 -->
<g id="edge51_Node000034_Node000045" class="edge">
<title>Node34&#45;&gt;Node45</title>
<g id="a_edge51_Node000034_Node000045"><a xlink:title=" ">
<path fill="none" stroke="#63b8ff" d="M254.78,-316.69C262.49,-285.84 290.5,-189.94 351,-141.5 354.59,-138.63 358.58,-136.19 362.79,-134.12"/>
<polygon fill="#63b8ff" stroke="#63b8ff" points="364.39,-137.24 372.26,-130.14 361.68,-130.78 364.39,-137.24"/>
</a>
</g>
</g>
<!-- Node46 -->
<g id="Node000046" class="node">
<title>Node46</title>
<g id="a_Node000046"><a xlink:href="Game_8cpp.html#ab05bb065469940f40a5023c58a8f9e7f" target="_top" xlink:title=" ">
<polygon fill="white" stroke="#666666" points="461,-95 381,-95 381,-76 461,-76 461,-95"/>
<text text-anchor="middle" x="421" y="-83" font-family="Helvetica,sans-Serif" font-size="10.00">IsYoshiValley</text>
</a>
</g>
</g>
<!-- Node34&#45;&gt;Node46 -->
<g id="edge52_Node000034_Node000046" class="edge">
<title>Node34&#45;&gt;Node46</title>
<g id="a_edge52_Node000034_Node000046"><a xlink:title=" ">
<path fill="none" stroke="#63b8ff" d="M253.83,-316.77C259.1,-282.2 281.67,-164.21 351,-104.5 356.76,-99.54 363.71,-95.86 370.95,-93.14"/>
<polygon fill="#63b8ff" stroke="#63b8ff" points="372.44,-96.34 380.92,-89.99 370.33,-89.67 372.44,-96.34"/>
</a>
</g>
</g>
<!-- Node36&#45;&gt;Node35 -->
<g id="edge44_Node000036_Node000035" class="edge">
<title>Node36&#45;&gt;Node35</title>
<g id="a_edge44_Node000036_Node000035"><a xlink:title=" ">
<path fill="none" stroke="#63b8ff" d="M466.55,-354.03C489.07,-358.84 516.58,-364.73 540.36,-369.81"/>
<polygon fill="#63b8ff" stroke="#63b8ff" points="539.79,-373.27 550.3,-371.94 541.25,-366.43 539.79,-373.27"/>
</a>
</g>
</g>
<!-- Node37 -->
<g id="Node000037" class="node">
<title>Node37</title>
<g id="a_Node000037"><a xlink:href="math__util_8c.html#aaa39a297477f56051975259f4bddd829" target="_top" xlink:title=" ">
<polygon fill="white" stroke="#666666" points="621,-19 571,-19 571,0 621,0 621,-19"/>
<text text-anchor="middle" x="596" y="-7" font-family="Helvetica,sans-Serif" font-size="10.00">atan2s</text>
</a>
</g>
</g>
<!-- Node36&#45;&gt;Node37 -->
<g id="edge42_Node000036_Node000037" class="edge">
<title>Node36&#45;&gt;Node37</title>
<g id="a_edge42_Node000036_Node000037"><a xlink:title=" ">
<path fill="none" stroke="#63b8ff" d="M467.27,-339.55C475.97,-336.81 484.42,-332.69 491,-326.5 579.06,-243.72 592.66,-85.29 594.68,-29.52"/>
<polygon fill="#63b8ff" stroke="#63b8ff" points="598.19,-29.33 594.96,-19.24 591.19,-29.14 598.19,-29.33"/>
</a>
</g>
</g>
<!-- Node38 -->
<g id="Node000038" class="node">
<title>Node38</title>
<g id="a_Node000038"><a xlink:href="math__util_8c.html#a0273b0ea0783a06996c28669a7438ed9" target="_top" xlink:title=" ">
<polygon fill="white" stroke="#666666" points="812.5,-19 730.5,-19 730.5,0 812.5,0 812.5,-19"/>
<text text-anchor="middle" x="771.5" y="-7" font-family="Helvetica,sans-Serif" font-size="10.00">atan2_lookup</text>
</a>
</g>
</g>
<!-- Node37&#45;&gt;Node38 -->
<g id="edge43_Node000037_Node000038" class="edge">
<title>Node37&#45;&gt;Node38</title>
<g id="a_edge43_Node000037_Node000038"><a xlink:title=" ">
<path fill="none" stroke="#63b8ff" d="M621.12,-9.5C646.58,-9.5 687.45,-9.5 720,-9.5"/>
<polygon fill="#63b8ff" stroke="#63b8ff" points="720.25,-13 730.25,-9.5 720.25,-6 720.25,-13"/>
</a>
</g>
</g>
</g>
</svg>
