<?xml version="1.0" encoding="UTF-8" standalone="no"?>
<!DOCTYPE svg PUBLIC "-//W3C//DTD SVG 1.1//EN"
 "http://www.w3.org/Graphics/SVG/1.1/DTD/svg11.dtd">
<!-- Generated by graphviz version 2.43.0 (0)
 -->
<!-- Title: SherbetLand::BeginPlay Pages: 1 -->
<svg width="1767pt" height="469pt"
 viewBox="0.00 0.00 1767.00 469.00" xmlns="http://www.w3.org/2000/svg" xmlns:xlink="http://www.w3.org/1999/xlink">
<g id="graph0" class="graph" transform="scale(1 1) rotate(0) translate(4 465)">
<title>SherbetLand::BeginPlay</title>
<!-- Node1 -->
<g id="Node000001" class="node">
<title>Node1</title>
<g id="a_Node000001"><a xlink:title=" ">
<polygon fill="#999999" stroke="#666666" points="132,-121 0,-121 0,-102 132,-102 132,-121"/>
<text text-anchor="middle" x="66" y="-109" font-family="Helvetica,sans-Serif" font-size="10.00">SherbetLand::BeginPlay</text>
</a>
</g>
</g>
<!-- Node2 -->
<g id="Node000002" class="node">
<title>Node2</title>
<g id="a_Node000002"><a xlink:href="actors_8c.html#ac586c2534258d0f108e15fd88751b760" target="_top" xlink:title=" ">
<polygon fill="white" stroke="#666666" points="295,-121 168,-121 168,-102 295,-102 295,-121"/>
<text text-anchor="middle" x="231.5" y="-109" font-family="Helvetica,sans-Serif" font-size="10.00">spawn_all_item_boxes</text>
</a>
</g>
</g>
<!-- Node1&#45;&gt;Node2 -->
<g id="edge1_Node000001_Node000002" class="edge">
<title>Node1&#45;&gt;Node2</title>
<g id="a_edge1_Node000001_Node000002"><a xlink:title=" ">
<path fill="none" stroke="#63b8ff" d="M132.09,-111.5C140.45,-111.5 149.05,-111.5 157.52,-111.5"/>
<polygon fill="#63b8ff" stroke="#63b8ff" points="157.77,-115 167.77,-111.5 157.77,-108 157.77,-115"/>
</a>
</g>
</g>
<!-- Node3 -->
<g id="Node000003" class="node">
<title>Node3</title>
<g id="a_Node000003"><a xlink:href="actors_8c.html#a91fb2e4e37e7c72fea918fe2c1bb4eaf" target="_top" xlink:title=" ">
<polygon fill="white" stroke="#666666" points="471,-214 331,-214 331,-195 471,-195 471,-214"/>
<text text-anchor="middle" x="401" y="-202" font-family="Helvetica,sans-Serif" font-size="10.00">add_actor_to_empty_slot</text>
</a>
</g>
</g>
<!-- Node2&#45;&gt;Node3 -->
<g id="edge2_Node000002_Node000003" class="edge">
<title>Node2&#45;&gt;Node3</title>
<g id="a_edge2_Node000002_Node000003"><a xlink:title=" ">
<path fill="none" stroke="#63b8ff" d="M249.79,-121.1C279.13,-137.39 338.84,-170.54 373.49,-189.78"/>
<polygon fill="#63b8ff" stroke="#63b8ff" points="372.11,-193.02 382.55,-194.81 375.5,-186.9 372.11,-193.02"/>
</a>
</g>
</g>
<!-- Node10 -->
<g id="Node000010" class="node">
<title>Node10</title>
<g id="a_Node000010"><a xlink:href="Game_8cpp.html#a693de7d8b89fe291aafea86bc64a0a2e" target="_top" xlink:title=" ">
<polygon fill="white" stroke="#666666" points="971,-350 891,-350 891,-331 971,-331 971,-350"/>
<text text-anchor="middle" x="931" y="-338" font-family="Helvetica,sans-Serif" font-size="10.00">CM_GetActor</text>
</a>
</g>
</g>
<!-- Node2&#45;&gt;Node10 -->
<g id="edge29_Node000002_Node000010" class="edge">
<title>Node2&#45;&gt;Node10</title>
<g id="a_edge29_Node000002_Node000010"><a xlink:title=" ">
<path fill="none" stroke="#63b8ff" d="M239.18,-121.25C253.83,-142.11 290.74,-191.75 331,-223.5 400.47,-278.29 421.77,-292.78 507,-316.5 638.06,-352.97 800.53,-349.27 880.62,-344.41"/>
<polygon fill="#63b8ff" stroke="#63b8ff" points="881.14,-347.88 890.9,-343.75 880.69,-340.9 881.14,-347.88"/>
</a>
</g>
</g>
<!-- Node23 -->
<g id="Node000023" class="node">
<title>Node23</title>
<g id="a_Node000023"><a xlink:href="math__util_8c.html#a79fd07a0971ec96a3ff0801963a2fa7f" target="_top" xlink:title=" ">
<polygon fill="white" stroke="#666666" points="963,-174 899,-174 899,-155 963,-155 963,-174"/>
<text text-anchor="middle" x="931" y="-162" font-family="Helvetica,sans-Serif" font-size="10.00">vec3f_set</text>
</a>
</g>
</g>
<!-- Node2&#45;&gt;Node23 -->
<g id="edge34_Node000002_Node000023" class="edge">
<title>Node2&#45;&gt;Node23</title>
<g id="a_edge34_Node000002_Node000023"><a xlink:title=" ">
<path fill="none" stroke="#63b8ff" d="M295.14,-112.97C376.05,-115.19 521.22,-120.28 645,-130.5 732.01,-137.68 833.42,-150.96 888.76,-158.62"/>
<polygon fill="#63b8ff" stroke="#63b8ff" points="888.48,-162.12 898.87,-160.03 889.45,-155.19 888.48,-162.12"/>
</a>
</g>
</g>
<!-- Node30 -->
<g id="Node000030" class="node">
<title>Node30</title>
<g id="a_Node000030"><a xlink:href="math__util_8c.html#a062850863585005ad1d0a75d9ff70693" target="_top" xlink:title=" ">
<polygon fill="white" stroke="#666666" points="439.5,-83 362.5,-83 362.5,-64 439.5,-64 439.5,-83"/>
<text text-anchor="middle" x="401" y="-71" font-family="Helvetica,sans-Serif" font-size="10.00">random_u16</text>
</a>
</g>
</g>
<!-- Node2&#45;&gt;Node30 -->
<g id="edge30_Node000002_Node000030" class="edge">
<title>Node2&#45;&gt;Node30</title>
<g id="a_edge30_Node000002_Node000030"><a xlink:title=" ">
<path fill="none" stroke="#63b8ff" d="M274.77,-101.91C298.45,-96.54 328.05,-89.82 352.52,-84.27"/>
<polygon fill="#63b8ff" stroke="#63b8ff" points="353.34,-87.67 362.32,-82.05 351.79,-80.85 353.34,-87.67"/>
</a>
</g>
</g>
<!-- Node31 -->
<g id="Node000031" class="node">
<title>Node31</title>
<g id="a_Node000031"><a xlink:href="collision_8c.html#ad95e9ed2051529d5edee26109fa07427" target="_top" xlink:title=" ">
<polygon fill="white" stroke="#666666" points="469.5,-46 332.5,-46 332.5,-27 469.5,-27 469.5,-46"/>
<text text-anchor="middle" x="401" y="-34" font-family="Helvetica,sans-Serif" font-size="10.00">spawn_actor_on_surface</text>
</a>
</g>
</g>
<!-- Node2&#45;&gt;Node31 -->
<g id="edge31_Node000002_Node000031" class="edge">
<title>Node2&#45;&gt;Node31</title>
<g id="a_edge31_Node000002_Node000031"><a xlink:title=" ">
<path fill="none" stroke="#63b8ff" d="M246.24,-101.94C264.73,-89.45 299.02,-67.64 331,-54.5 335.81,-52.52 340.91,-50.71 346.06,-49.06"/>
<polygon fill="#63b8ff" stroke="#63b8ff" points="347.41,-52.31 355.98,-46.08 345.4,-45.6 347.41,-52.31"/>
</a>
</g>
</g>
<!-- Node4 -->
<g id="Node000004" class="node">
<title>Node4</title>
<g id="a_Node000004"><a xlink:href="actors_8c.html#a39c023177b5a7686cdd1fc65b8b953e1" target="_top" xlink:title=" ">
<polygon fill="white" stroke="#666666" points="607,-307 545,-307 545,-288 607,-288 607,-307"/>
<text text-anchor="middle" x="576" y="-295" font-family="Helvetica,sans-Serif" font-size="10.00">actor_init</text>
</a>
</g>
</g>
<!-- Node3&#45;&gt;Node4 -->
<g id="edge3_Node000003_Node000004" class="edge">
<title>Node3&#45;&gt;Node4</title>
<g id="a_edge3_Node000003_Node000004"><a xlink:title=" ">
<path fill="none" stroke="#63b8ff" d="M412.51,-214.02C430.54,-229.87 469.09,-261.68 507,-279.5 515.68,-283.58 525.44,-286.86 534.8,-289.43"/>
<polygon fill="#63b8ff" stroke="#63b8ff" points="534.17,-292.88 544.73,-291.96 535.9,-286.1 534.17,-292.88"/>
</a>
</g>
</g>
<!-- Node26 -->
<g id="Node000026" class="node">
<title>Node26</title>
<g id="a_Node000026"><a xlink:href="Game_8cpp.html#a42f23077aaa52cb3ea5c7803b7dd6816" target="_top" xlink:title=" ">
<polygon fill="white" stroke="#666666" points="629,-270 523,-270 523,-251 629,-251 629,-270"/>
<text text-anchor="middle" x="576" y="-258" font-family="Helvetica,sans-Serif" font-size="10.00">CM_AddBaseActor</text>
</a>
</g>
</g>
<!-- Node3&#45;&gt;Node26 -->
<g id="edge25_Node000003_Node000026" class="edge">
<title>Node3&#45;&gt;Node26</title>
<g id="a_edge25_Node000003_Node000026"><a xlink:title=" ">
<path fill="none" stroke="#63b8ff" d="M426.4,-214.03C447.55,-222.11 479.06,-233.77 507,-242.5 513.42,-244.51 520.23,-246.48 526.96,-248.35"/>
<polygon fill="#63b8ff" stroke="#63b8ff" points="526.14,-251.76 536.71,-251 527.97,-245 526.14,-251.76"/>
</a>
</g>
</g>
<!-- Node27 -->
<g id="Node000027" class="node">
<title>Node27</title>
<g id="a_Node000027"><a xlink:href="Game_8cpp.html#aab23ecf7032de4618ff75c395d8fccf1" target="_top" xlink:title=" ">
<polygon fill="white" stroke="#666666" points="634,-233 518,-233 518,-214 634,-214 634,-233"/>
<text text-anchor="middle" x="576" y="-221" font-family="Helvetica,sans-Serif" font-size="10.00">CM_AddEditorObject</text>
</a>
</g>
</g>
<!-- Node3&#45;&gt;Node27 -->
<g id="edge26_Node000003_Node000027" class="edge">
<title>Node3&#45;&gt;Node27</title>
<g id="a_edge26_Node000003_Node000027"><a xlink:title=" ">
<path fill="none" stroke="#63b8ff" d="M471.37,-212.12C483.29,-213.43 495.67,-214.79 507.54,-216.09"/>
<polygon fill="#63b8ff" stroke="#63b8ff" points="507.5,-219.61 517.82,-217.22 508.26,-212.65 507.5,-219.61"/>
</a>
</g>
</g>
<!-- Node28 -->
<g id="Node000028" class="node">
<title>Node28</title>
<g id="a_Node000028"><a xlink:href="Game_8cpp.html#a0841ffe9a66e95aca42438b9d8ffc3d3" target="_top" xlink:title=" ">
<polygon fill="white" stroke="#666666" points="626.5,-196 525.5,-196 525.5,-177 626.5,-177 626.5,-196"/>
<text text-anchor="middle" x="576" y="-184" font-family="Helvetica,sans-Serif" font-size="10.00">CM_GetActorSize</text>
</a>
</g>
</g>
<!-- Node3&#45;&gt;Node28 -->
<g id="edge27_Node000003_Node000028" class="edge">
<title>Node3&#45;&gt;Node28</title>
<g id="a_edge27_Node000003_Node000028"><a xlink:title=" ">
<path fill="none" stroke="#63b8ff" d="M471.37,-197.28C485.89,-195.77 501.09,-194.19 515.23,-192.72"/>
<polygon fill="#63b8ff" stroke="#63b8ff" points="515.73,-196.19 525.31,-191.67 515,-189.22 515.73,-196.19"/>
</a>
</g>
</g>
<!-- Node29 -->
<g id="Node000029" class="node">
<title>Node29</title>
<g id="a_Node000029"><a xlink:href="actors_8c.html#a3d238d4f049ffbc555cb8a4dc93c9975" target="_top" xlink:title=" ">
<polygon fill="white" stroke="#666666" points="623.5,-159 528.5,-159 528.5,-140 623.5,-140 623.5,-159"/>
<text text-anchor="middle" x="576" y="-147" font-family="Helvetica,sans-Serif" font-size="10.00">get_actor_name</text>
</a>
</g>
</g>
<!-- Node3&#45;&gt;Node29 -->
<g id="edge28_Node000003_Node000029" class="edge">
<title>Node3&#45;&gt;Node29</title>
<g id="a_edge28_Node000003_Node000029"><a xlink:title=" ">
<path fill="none" stroke="#63b8ff" d="M427.27,-194.95C448.42,-187.12 479.48,-175.98 507,-167.5 513.43,-165.52 520.24,-163.56 526.97,-161.7"/>
<polygon fill="#63b8ff" stroke="#63b8ff" points="527.99,-165.05 536.72,-159.06 526.16,-158.29 527.99,-165.05"/>
</a>
</g>
</g>
<!-- Node5 -->
<g id="Node000005" class="node">
<title>Node5</title>
<g id="a_Node000005"><a xlink:href="collision_8c.html#a37aa55b3768d001533ad75e7f1b8388a" target="_top" xlink:title=" ">
<polygon fill="white" stroke="#666666" points="822,-406 681,-406 681,-387 822,-387 822,-406"/>
<text text-anchor="middle" x="751.5" y="-394" font-family="Helvetica,sans-Serif" font-size="10.00">check_bounding_collision</text>
</a>
</g>
</g>
<!-- Node4&#45;&gt;Node5 -->
<g id="edge4_Node000004_Node000005" class="edge">
<title>Node4&#45;&gt;Node5</title>
<g id="a_edge4_Node000004_Node000005"><a xlink:title=" ">
<path fill="none" stroke="#63b8ff" d="M593.95,-307.17C624.48,-324.59 688.86,-361.33 724.82,-381.85"/>
<polygon fill="#63b8ff" stroke="#63b8ff" points="723.31,-385.02 733.73,-386.93 726.78,-378.94 723.31,-385.02"/>
</a>
</g>
</g>
<!-- Node9 -->
<g id="Node000009" class="node">
<title>Node9</title>
<g id="a_Node000009"><a xlink:href="actors_8c.html#a1a9bccb586242555a9123ebd4ab70f2a" target="_top" xlink:title=" ">
<polygon fill="white" stroke="#666666" points="817.5,-312.5 685.5,-312.5 685.5,-282.5 817.5,-282.5 817.5,-312.5"/>
<text text-anchor="start" x="693.5" y="-300.5" font-family="Helvetica,sans-Serif" font-size="10.00">cleanup_red_and_green</text>
<text text-anchor="middle" x="751.5" y="-289.5" font-family="Helvetica,sans-Serif" font-size="10.00">_shells</text>
</a>
</g>
</g>
<!-- Node4&#45;&gt;Node9 -->
<g id="edge8_Node000004_Node000009" class="edge">
<title>Node4&#45;&gt;Node9</title>
<g id="a_edge8_Node000004_Node000009"><a xlink:title=" ">
<path fill="none" stroke="#63b8ff" d="M607.22,-297.5C626.08,-297.5 651.25,-297.5 675.23,-297.5"/>
<polygon fill="#63b8ff" stroke="#63b8ff" points="675.42,-301 685.42,-297.5 675.42,-294 675.42,-301"/>
</a>
</g>
</g>
<!-- Node22 -->
<g id="Node000022" class="node">
<title>Node22</title>
<g id="a_Node000022"><a xlink:href="collision_8c.html#ad72fef3ffe32191d73b1822f512ebf3f" target="_top" xlink:title=" ">
<polygon fill="white" stroke="#666666" points="799,-227 704,-227 704,-208 799,-208 799,-227"/>
<text text-anchor="middle" x="751.5" y="-215" font-family="Helvetica,sans-Serif" font-size="10.00">func_802AAAAC</text>
</a>
</g>
</g>
<!-- Node4&#45;&gt;Node22 -->
<g id="edge21_Node000004_Node000022" class="edge">
<title>Node4&#45;&gt;Node22</title>
<g id="a_edge21_Node000004_Node000022"><a xlink:title=" ">
<path fill="none" stroke="#63b8ff" d="M607.06,-293.65C619.51,-291.04 633.66,-286.71 645,-279.5 666.03,-266.13 660.02,-249.96 681,-236.5 685.13,-233.85 689.62,-231.57 694.27,-229.61"/>
<polygon fill="#63b8ff" stroke="#63b8ff" points="695.81,-232.77 703.96,-226 693.37,-226.21 695.81,-232.77"/>
</a>
</g>
</g>
<!-- Node24 -->
<g id="Node000024" class="node">
<title>Node24</title>
<g id="a_Node000024"><a xlink:href="math__util_8c.html#af7b470ed76fce07b8042a47c96e5690b" target="_top" xlink:title=" ">
<polygon fill="white" stroke="#666666" points="805,-190 698,-190 698,-171 805,-171 805,-190"/>
<text text-anchor="middle" x="751.5" y="-178" font-family="Helvetica,sans-Serif" font-size="10.00">vec3f_copy_return</text>
</a>
</g>
</g>
<!-- Node4&#45;&gt;Node24 -->
<g id="edge23_Node000004_Node000024" class="edge">
<title>Node4&#45;&gt;Node24</title>
<g id="a_edge23_Node000004_Node000024"><a xlink:title=" ">
<path fill="none" stroke="#63b8ff" d="M607.1,-295.28C619.99,-292.98 634.48,-288.43 645,-279.5 674.74,-254.28 651.37,-224.84 681,-199.5 683.39,-197.45 685.99,-195.62 688.73,-193.99"/>
<polygon fill="#63b8ff" stroke="#63b8ff" points="690.48,-197.02 697.86,-189.41 687.35,-190.77 690.48,-197.02"/>
</a>
</g>
</g>
<!-- Node25 -->
<g id="Node000025" class="node">
<title>Node25</title>
<g id="a_Node000025"><a xlink:href="math__util_8c.html#a0e270ee67600c8c9c2f140c647d008a1" target="_top" xlink:title=" ">
<polygon fill="white" stroke="#666666" points="788.5,-264 714.5,-264 714.5,-245 788.5,-245 788.5,-264"/>
<text text-anchor="middle" x="751.5" y="-252" font-family="Helvetica,sans-Serif" font-size="10.00">vec3s_copy</text>
</a>
</g>
</g>
<!-- Node4&#45;&gt;Node25 -->
<g id="edge24_Node000004_Node000025" class="edge">
<title>Node4&#45;&gt;Node25</title>
<g id="a_edge24_Node000004_Node000025"><a xlink:title=" ">
<path fill="none" stroke="#63b8ff" d="M607.22,-290.01C634,-283.37 673.51,-273.58 704.26,-265.96"/>
<polygon fill="#63b8ff" stroke="#63b8ff" points="705.46,-269.27 714.32,-263.47 703.77,-262.48 705.46,-269.27"/>
</a>
</g>
</g>
<!-- Node6 -->
<g id="Node000006" class="node">
<title>Node6</title>
<g id="a_Node000006"><a xlink:href="collision_8c.html#ac312bf382cb40752f6b790a99e7cdcb6" target="_top" xlink:title=" ">
<polygon fill="white" stroke="#666666" points="985,-387 877,-387 877,-368 985,-368 985,-387"/>
<text text-anchor="middle" x="931" y="-375" font-family="Helvetica,sans-Serif" font-size="10.00">check_collision_yx</text>
</a>
</g>
</g>
<!-- Node5&#45;&gt;Node6 -->
<g id="edge5_Node000005_Node000006" class="edge">
<title>Node5&#45;&gt;Node6</title>
<g id="a_edge5_Node000005_Node000006"><a xlink:title=" ">
<path fill="none" stroke="#63b8ff" d="M822.14,-389.05C836.76,-387.48 852.1,-385.84 866.48,-384.3"/>
<polygon fill="#63b8ff" stroke="#63b8ff" points="867.18,-387.74 876.75,-383.2 866.43,-380.78 867.18,-387.74"/>
</a>
</g>
</g>
<!-- Node7 -->
<g id="Node000007" class="node">
<title>Node7</title>
<g id="a_Node000007"><a xlink:href="collision_8c.html#a4b48832a90e984536a0635a016ec4f28" target="_top" xlink:title=" ">
<polygon fill="white" stroke="#666666" points="984.5,-461 877.5,-461 877.5,-442 984.5,-442 984.5,-461"/>
<text text-anchor="middle" x="931" y="-449" font-family="Helvetica,sans-Serif" font-size="10.00">check_collision_zx</text>
</a>
</g>
</g>
<!-- Node5&#45;&gt;Node7 -->
<g id="edge6_Node000005_Node000007" class="edge">
<title>Node5&#45;&gt;Node7</title>
<g id="a_edge6_Node000005_Node000007"><a xlink:title=" ">
<path fill="none" stroke="#63b8ff" d="M777.87,-406.14C799.1,-414.03 830.3,-425.2 858,-433.5 864.87,-435.56 872.16,-437.57 879.36,-439.47"/>
<polygon fill="#63b8ff" stroke="#63b8ff" points="878.52,-442.87 889.08,-441.97 880.26,-436.09 878.52,-442.87"/>
</a>
</g>
</g>
<!-- Node8 -->
<g id="Node000008" class="node">
<title>Node8</title>
<g id="a_Node000008"><a xlink:href="collision_8c.html#a21fef964ab48191a1c0341954ef27a40" target="_top" xlink:title=" ">
<polygon fill="white" stroke="#666666" points="984.5,-424 877.5,-424 877.5,-405 984.5,-405 984.5,-424"/>
<text text-anchor="middle" x="931" y="-412" font-family="Helvetica,sans-Serif" font-size="10.00">check_collision_zy</text>
</a>
</g>
</g>
<!-- Node5&#45;&gt;Node8 -->
<g id="edge7_Node000005_Node000008" class="edge">
<title>Node5&#45;&gt;Node8</title>
<g id="a_edge7_Node000005_Node000008"><a xlink:title=" ">
<path fill="none" stroke="#63b8ff" d="M822.14,-403.56C836.91,-405.06 852.43,-406.63 866.94,-408.1"/>
<polygon fill="#63b8ff" stroke="#63b8ff" points="867,-411.63 877.3,-409.16 867.7,-404.66 867,-411.63"/>
</a>
</g>
</g>
<!-- Node9&#45;&gt;Node10 -->
<g id="edge9_Node000009_Node000010" class="edge">
<title>Node9&#45;&gt;Node10</title>
<g id="a_edge9_Node000009_Node000010"><a xlink:title=" ">
<path fill="none" stroke="#63b8ff" d="M814.58,-312.54C836.4,-317.83 860.6,-323.69 881.17,-328.67"/>
<polygon fill="#63b8ff" stroke="#63b8ff" points="880.41,-332.09 890.96,-331.04 882.06,-325.29 880.41,-332.09"/>
</a>
</g>
</g>
<!-- Node11 -->
<g id="Node000011" class="node">
<title>Node11</title>
<g id="a_Node000011"><a xlink:href="code__80005FD0_8c.html#ad301b978cdd3c4cc190b10be050d51d8" target="_top" xlink:title=" ">
<polygon fill="white" stroke="#666666" points="1004,-312.5 858,-312.5 858,-282.5 1004,-282.5 1004,-312.5"/>
<text text-anchor="start" x="866" y="-300.5" font-family="Helvetica,sans-Serif" font-size="10.00">delete_actor_in_unexpired</text>
<text text-anchor="middle" x="931" y="-289.5" font-family="Helvetica,sans-Serif" font-size="10.00">_actor_list</text>
</a>
</g>
</g>
<!-- Node9&#45;&gt;Node11 -->
<g id="edge10_Node000009_Node000011" class="edge">
<title>Node9&#45;&gt;Node11</title>
<g id="a_edge10_Node000009_Node000011"><a xlink:title=" ">
<path fill="none" stroke="#63b8ff" d="M817.59,-297.5C827.38,-297.5 837.59,-297.5 847.69,-297.5"/>
<polygon fill="#63b8ff" stroke="#63b8ff" points="847.73,-301 857.73,-297.5 847.73,-294 847.73,-301"/>
</a>
</g>
</g>
<!-- Node12 -->
<g id="Node000012" class="node">
<title>Node12</title>
<g id="a_Node000012"><a xlink:href="actors_8c.html#a694ec6ef7548b8618aeb35c038d3a9b9" target="_top" xlink:title=" ">
<polygon fill="white" stroke="#666666" points="972.5,-264 889.5,-264 889.5,-245 972.5,-245 972.5,-264"/>
<text text-anchor="middle" x="931" y="-252" font-family="Helvetica,sans-Serif" font-size="10.00">destroy_actor</text>
</a>
</g>
</g>
<!-- Node9&#45;&gt;Node12 -->
<g id="edge11_Node000009_Node000012" class="edge">
<title>Node9&#45;&gt;Node12</title>
<g id="a_edge11_Node000009_Node000012"><a xlink:title=" ">
<path fill="none" stroke="#63b8ff" d="M814.58,-282.46C836.32,-277.2 860.41,-271.36 880.93,-266.39"/>
<polygon fill="#63b8ff" stroke="#63b8ff" points="881.8,-269.78 890.69,-264.02 880.15,-262.98 881.8,-269.78"/>
</a>
</g>
</g>
<!-- Node13 -->
<g id="Node000013" class="node">
<title>Node13</title>
<g id="a_Node000013"><a xlink:href="actors_8c.html#a12dc3ccac4c7d8569eadac0af4fd6f9f" target="_top" xlink:title=" ">
<polygon fill="white" stroke="#666666" points="1198,-264 1040,-264 1040,-245 1198,-245 1198,-264"/>
<text text-anchor="middle" x="1119" y="-252" font-family="Helvetica,sans-Serif" font-size="10.00">play_sound_before_despawn</text>
</a>
</g>
</g>
<!-- Node12&#45;&gt;Node13 -->
<g id="edge12_Node000012_Node000013" class="edge">
<title>Node12&#45;&gt;Node13</title>
<g id="a_edge12_Node000012_Node000013"><a xlink:title=" ">
<path fill="none" stroke="#63b8ff" d="M972.82,-254.5C989.65,-254.5 1009.86,-254.5 1029.77,-254.5"/>
<polygon fill="#63b8ff" stroke="#63b8ff" points="1029.82,-258 1039.82,-254.5 1029.82,-251 1029.82,-258"/>
</a>
</g>
</g>
<!-- Node14 -->
<g id="Node000014" class="node">
<title>Node14</title>
<g id="a_Node000014"><a xlink:href="external_8c.html#ae72057869772019e4464c87d4e16c682" target="_top" xlink:title=" ">
<polygon fill="white" stroke="#666666" points="1326,-264 1234,-264 1234,-245 1326,-245 1326,-264"/>
<text text-anchor="middle" x="1280" y="-252" font-family="Helvetica,sans-Serif" font-size="10.00">func_800C99E0</text>
</a>
</g>
</g>
<!-- Node13&#45;&gt;Node14 -->
<g id="edge13_Node000013_Node000014" class="edge">
<title>Node13&#45;&gt;Node14</title>
<g id="a_edge13_Node000013_Node000014"><a xlink:title=" ">
<path fill="none" stroke="#63b8ff" d="M1198.1,-254.5C1206.72,-254.5 1215.35,-254.5 1223.61,-254.5"/>
<polygon fill="#63b8ff" stroke="#63b8ff" points="1223.83,-258 1233.83,-254.5 1223.83,-251 1223.83,-258"/>
</a>
</g>
</g>
<!-- Node15 -->
<g id="Node000015" class="node">
<title>Node15</title>
<g id="a_Node000015"><a xlink:href="external_8c.html#aeb87c527482a244173df36a1f3d4f446" target="_top" xlink:title=" ">
<polygon fill="white" stroke="#666666" points="1454,-283 1362,-283 1362,-264 1454,-264 1454,-283"/>
<text text-anchor="middle" x="1408" y="-271" font-family="Helvetica,sans-Serif" font-size="10.00">func_800C21E8</text>
</a>
</g>
</g>
<!-- Node14&#45;&gt;Node15 -->
<g id="edge14_Node000014_Node000015" class="edge">
<title>Node14&#45;&gt;Node15</title>
<g id="a_edge14_Node000014_Node000015"><a xlink:title=" ">
<path fill="none" stroke="#63b8ff" d="M1326.13,-261.31C1334.46,-262.56 1343.23,-263.88 1351.81,-265.18"/>
<polygon fill="#63b8ff" stroke="#63b8ff" points="1351.35,-268.65 1361.76,-266.68 1352.39,-261.73 1351.35,-268.65"/>
</a>
</g>
</g>
<!-- Node16 -->
<g id="Node000016" class="node">
<title>Node16</title>
<g id="a_Node000016"><a xlink:href="external_8c.html#a028d40421b90c38f68ebfd5acc626f2e" target="_top" xlink:title=" ">
<polygon fill="white" stroke="#666666" points="1454,-246 1362,-246 1362,-227 1454,-227 1454,-246"/>
<text text-anchor="middle" x="1408" y="-234" font-family="Helvetica,sans-Serif" font-size="10.00">func_800C5578</text>
</a>
</g>
</g>
<!-- Node14&#45;&gt;Node16 -->
<g id="edge15_Node000014_Node000016" class="edge">
<title>Node14&#45;&gt;Node16</title>
<g id="a_edge15_Node000014_Node000016"><a xlink:title=" ">
<path fill="none" stroke="#63b8ff" d="M1326.13,-248.05C1334.46,-246.86 1343.23,-245.61 1351.81,-244.38"/>
<polygon fill="#63b8ff" stroke="#63b8ff" points="1352.35,-247.84 1361.76,-242.96 1351.36,-240.91 1352.35,-247.84"/>
</a>
</g>
</g>
<!-- Node17 -->
<g id="Node000017" class="node">
<title>Node17</title>
<g id="a_Node000017"><a xlink:href="external_8c.html#ac0fb767de7e14a03f1bcfa53f0abd23b" target="_top" xlink:title=" ">
<polygon fill="white" stroke="#666666" points="1630,-283 1490,-283 1490,-264 1630,-264 1630,-283"/>
<text text-anchor="middle" x="1560" y="-271" font-family="Helvetica,sans-Serif" font-size="10.00">delete_sound_from_bank</text>
</a>
</g>
</g>
<!-- Node16&#45;&gt;Node17 -->
<g id="edge16_Node000016_Node000017" class="edge">
<title>Node16&#45;&gt;Node17</title>
<g id="a_edge16_Node000016_Node000017"><a xlink:title=" ">
<path fill="none" stroke="#63b8ff" d="M1447.63,-246.03C1466.8,-250.76 1490.16,-256.52 1510.52,-261.54"/>
<polygon fill="#63b8ff" stroke="#63b8ff" points="1509.69,-264.94 1520.24,-263.94 1511.37,-258.15 1509.69,-264.94"/>
</a>
</g>
</g>
<!-- Node19 -->
<g id="Node000019" class="node">
<title>Node19</title>
<g id="a_Node000019"><a xlink:href="external_8c.html#ab83bd36e63f0f1baddcb2482b5ad31b0" target="_top" xlink:title=" ">
<polygon fill="white" stroke="#666666" points="1606.5,-246 1513.5,-246 1513.5,-227 1606.5,-227 1606.5,-246"/>
<text text-anchor="middle" x="1560" y="-234" font-family="Helvetica,sans-Serif" font-size="10.00">func_800C41CC</text>
</a>
</g>
</g>
<!-- Node16&#45;&gt;Node19 -->
<g id="edge18_Node000016_Node000019" class="edge">
<title>Node16&#45;&gt;Node19</title>
<g id="a_edge18_Node000016_Node000019"><a xlink:title=" ">
<path fill="none" stroke="#63b8ff" d="M1454,-236.5C1469.37,-236.5 1486.74,-236.5 1502.86,-236.5"/>
<polygon fill="#63b8ff" stroke="#63b8ff" points="1503.25,-240 1513.25,-236.5 1503.25,-233 1503.25,-240"/>
</a>
</g>
</g>
<!-- Node20 -->
<g id="Node000020" class="node">
<title>Node20</title>
<g id="a_Node000020"><a xlink:href="port__eu_8c.html#aa89dfaecca46c6d071f08c1898d1f7c9" target="_top" xlink:title=" ">
<polygon fill="white" stroke="#666666" points="1606.5,-209 1513.5,-209 1513.5,-190 1606.5,-190 1606.5,-209"/>
<text text-anchor="middle" x="1560" y="-197" font-family="Helvetica,sans-Serif" font-size="10.00">func_800CBBE8</text>
</a>
</g>
</g>
<!-- Node16&#45;&gt;Node20 -->
<g id="edge19_Node000016_Node000020" class="edge">
<title>Node16&#45;&gt;Node20</title>
<g id="a_edge19_Node000016_Node000020"><a xlink:title=" ">
<path fill="none" stroke="#63b8ff" d="M1447.63,-226.97C1466.8,-222.24 1490.16,-216.48 1510.52,-211.46"/>
<polygon fill="#63b8ff" stroke="#63b8ff" points="1511.37,-214.85 1520.24,-209.06 1509.69,-208.06 1511.37,-214.85"/>
</a>
</g>
</g>
<!-- Node18 -->
<g id="Node000018" class="node">
<title>Node18</title>
<g id="a_Node000018"><a xlink:href="external_8c.html#a358ac55e8ab5262dcae8037334be06d7" target="_top" xlink:title=" ">
<polygon fill="white" stroke="#666666" points="1758.5,-283 1666.5,-283 1666.5,-264 1758.5,-264 1758.5,-283"/>
<text text-anchor="middle" x="1712.5" y="-271" font-family="Helvetica,sans-Serif" font-size="10.00">func_800C40F0</text>
</a>
</g>
</g>
<!-- Node17&#45;&gt;Node18 -->
<g id="edge17_Node000017_Node000018" class="edge">
<title>Node17&#45;&gt;Node18</title>
<g id="a_edge17_Node000017_Node000018"><a xlink:title=" ">
<path fill="none" stroke="#63b8ff" d="M1630.08,-273.5C1638.87,-273.5 1647.78,-273.5 1656.31,-273.5"/>
<polygon fill="#63b8ff" stroke="#63b8ff" points="1656.5,-277 1666.5,-273.5 1656.5,-270 1656.5,-277"/>
</a>
</g>
</g>
<!-- Node21 -->
<g id="Node000021" class="node">
<title>Node21</title>
<g id="a_Node000021"><a xlink:href="port__eu_8c.html#af361a20d2e08f30c53a237ca481ff734" target="_top" xlink:title=" ">
<polygon fill="white" stroke="#666666" points="1759,-209 1666,-209 1666,-190 1759,-190 1759,-209"/>
<text text-anchor="middle" x="1712.5" y="-197" font-family="Helvetica,sans-Serif" font-size="10.00">func_800CBB48</text>
</a>
</g>
</g>
<!-- Node20&#45;&gt;Node21 -->
<g id="edge20_Node000020_Node000021" class="edge">
<title>Node20&#45;&gt;Node21</title>
<g id="a_edge20_Node000020_Node000021"><a xlink:title=" ">
<path fill="none" stroke="#63b8ff" d="M1606.56,-199.5C1621.96,-199.5 1639.34,-199.5 1655.46,-199.5"/>
<polygon fill="#63b8ff" stroke="#63b8ff" points="1655.83,-203 1665.83,-199.5 1655.83,-196 1655.83,-203"/>
</a>
</g>
</g>
<!-- Node22&#45;&gt;Node23 -->
<g id="edge22_Node000022_Node000023" class="edge">
<title>Node22&#45;&gt;Node23</title>
<g id="a_edge22_Node000022_Node000023"><a xlink:title=" ">
<path fill="none" stroke="#63b8ff" d="M791.21,-207.91C801.27,-205.3 812.07,-202.39 822,-199.5 845.58,-192.63 871.79,-184.16 892.49,-177.27"/>
<polygon fill="#63b8ff" stroke="#63b8ff" points="893.8,-180.52 902.17,-174.03 891.58,-173.88 893.8,-180.52"/>
</a>
</g>
</g>
<!-- Node32 -->
<g id="Node000032" class="node">
<title>Node32</title>
<g id="a_Node000032"><a xlink:href="collision_8c.html#a6527a2135a10909cdf9a1fd731be5628" target="_top" xlink:title=" ">
<polygon fill="white" stroke="#666666" points="645,-19 507,-19 507,0 645,0 645,-19"/>
<text text-anchor="middle" x="576" y="-7" font-family="Helvetica,sans-Serif" font-size="10.00">calculate_surface_height</text>
</a>
</g>
</g>
<!-- Node31&#45;&gt;Node32 -->
<g id="edge32_Node000031_Node000032" class="edge">
<title>Node31&#45;&gt;Node32</title>
<g id="a_edge32_Node000031_Node000032"><a xlink:title=" ">
<path fill="none" stroke="#63b8ff" d="M462.99,-26.98C476.17,-24.92 490.22,-22.73 503.75,-20.62"/>
<polygon fill="#63b8ff" stroke="#63b8ff" points="504.63,-24.02 513.97,-19.02 503.55,-17.11 504.63,-24.02"/>
</a>
</g>
</g>
<!-- Node33 -->
<g id="Node000033" class="node">
<title>Node33</title>
<g id="a_Node000033"><a xlink:href="collision_8c.html#a0fe340ccfe1d926a592ea9a0c84d7574" target="_top" xlink:title=" ">
<polygon fill="white" stroke="#666666" points="642,-67.5 510,-67.5 510,-37.5 642,-37.5 642,-67.5"/>
<text text-anchor="start" x="518" y="-55.5" font-family="Helvetica,sans-Serif" font-size="10.00">check_horizontally</text>
<text text-anchor="middle" x="576" y="-44.5" font-family="Helvetica,sans-Serif" font-size="10.00">_colliding_with_triangle</text>
</a>
</g>
</g>
<!-- Node31&#45;&gt;Node33 -->
<g id="edge33_Node000031_Node000033" class="edge">
<title>Node31&#45;&gt;Node33</title>
<g id="a_edge33_Node000031_Node000033"><a xlink:title=" ">
<path fill="none" stroke="#63b8ff" d="M469.88,-42.78C479.64,-43.68 489.74,-44.61 499.64,-45.53"/>
<polygon fill="#63b8ff" stroke="#63b8ff" points="499.58,-49.04 509.86,-46.48 500.23,-42.07 499.58,-49.04"/>
</a>
</g>
</g>
</g>
</svg>
