<?xml version="1.0" encoding="UTF-8" standalone="no"?>
<!DOCTYPE svg PUBLIC "-//W3C//DTD SVG 1.1//EN"
 "http://www.w3.org/Graphics/SVG/1.1/DTD/svg11.dtd">
<!-- Generated by graphviz version 2.43.0 (0)
 -->
<!-- Title: GameUI::PortMenu::DrawElement Pages: 1 -->
<!--zoomable 897 -->

<svg id="main" version="1.1" xmlns="http://www.w3.org/2000/svg" xmlns:xlink="http://www.w3.org/1999/xlink" xml:space="preserve" onload="init(evt)">

<style type="text/css"><![CDATA[
.node, .edge {opacity: 0.7;}
.node.selected, .edge.selected {opacity: 1;}
.edge:hover path { stroke: red; }
.edge:hover polygon { stroke: red; fill: red; }
]]></style>

<defs>
  <circle id="rim" cx="0" cy="0" r="7"/>
  <circle id="rim2" cx="0" cy="0" r="3.5"/>
  <g id="zoomPlus">
    <use xlink:href="#rim" fill="#404040"><set attributeName="fill" to="#808080" begin="zoomplus.mouseover" end="zoomplus.mouseout"/></use>
    <path d="M-4,0h8M0,-4v8" fill="none" stroke="white" stroke-width="1.5" pointer-events="none"/>
  </g>
  <g id="zoomMin">
    <use xlink:href="#rim" fill="#404040"><set attributeName="fill" to="#808080" begin="zoomminus.mouseover" end="zoomminus.mouseout"/></use>
    <path d="M-4,0h8" fill="none" stroke="white" stroke-width="1.5" pointer-events="none"/>
  </g>
  <g id="arrowUp" transform="translate(30 24)">
    <use xlink:href="#rim"/>
    <path pointer-events="none" fill="none" stroke="white" stroke-width="1.5" d="M0,-3.0v7 M-2.5,-0.5L0,-3.0L2.5,-0.5"/>
  </g>
  <g id="arrowRight" transform="rotate(90) translate(36 -43)">
    <use xlink:href="#rim"/>
    <path pointer-events="none" fill="none" stroke="white" stroke-width="1.5" d="M0,-3.0v7 M-2.5,-0.5L0,-3.0L2.5,-0.5"/>
  </g>
  <g id="arrowDown" transform="rotate(180) translate(-30 -48)">
    <use xlink:href="#rim"/>
    <path pointer-events="none" fill="none" stroke="white" stroke-width="1.5" d="M0,-3.0v7 M-2.5,-0.5L0,-3.0L2.5,-0.5"/>
  </g>
  <g id="arrowLeft" transform="rotate(270) translate(-36 17)">
    <use xlink:href="#rim"/>
    <path pointer-events="none" fill="none" stroke="white" stroke-width="1.5" d="M0,-3.0v7 M-2.5,-0.5L0,-3.0L2.5,-0.5"/>
  </g>
  <g id="resetDef">
    <use xlink:href="#rim2" fill="#404040"><set attributeName="fill" to="#808080" begin="reset.mouseover" end="reset.mouseout"/></use>
  </g>
</defs>
<script type="application/ecmascript">
var viewWidth = 1564;
var viewHeight = 897;
var sectionId = 'dynsection-12';
</script>
<script type="application/ecmascript" xlink:href="svg.min.js"/>
<svg id="graph" class="graph">
<g id="viewport">
<title>GameUI::PortMenu::DrawElement</title>
<!-- Node1 -->
<g id="Node000001" class="node">
<title>Node1</title>
<g id="a_Node000001"><a xlink:title=" ">
<polygon fill="#999999" stroke="#666666" points="181,-170 0,-170 0,-151 181,-151 181,-170"/>
<text text-anchor="middle" x="90.5" y="-158" font-family="Helvetica,sans-Serif" font-size="10.00">GameUI::PortMenu::DrawElement</text>
</a>
</g>
</g>
<!-- Node2 -->
<g id="Node000002" class="node">
<title>Node2</title>
<g id="a_Node000002"><a xlink:href="classShip_1_1Menu.html#ae85312deebd68ce051243164a1831fae" target="_top" xlink:title=" ">
<polygon fill="white" stroke="#666666" points="360,-170 217,-170 217,-151 360,-151 360,-170"/>
<text text-anchor="middle" x="288.5" y="-158" font-family="Helvetica,sans-Serif" font-size="10.00">Ship::Menu::DrawElement</text>
</a>
</g>
</g>
<!-- Node1&#45;&gt;Node2 -->
<g id="edge1_Node000001_Node000002" class="edge">
<title>Node1&#45;&gt;Node2</title>
<g id="a_edge1_Node000001_Node000002"><a xlink:title=" ">
<path fill="none" stroke="#63b8ff" d="M181.18,-160.5C189.71,-160.5 198.32,-160.5 206.76,-160.5"/>
<polygon fill="#63b8ff" stroke="#63b8ff" points="206.94,-164 216.94,-160.5 206.94,-157 206.94,-164"/>
</a>
</g>
</g>
<!-- Node3 -->
<g id="Node000003" class="node">
<title>Node3</title>
<g id="a_Node000003"><a xlink:href="namespaceUIWidgets.html#aff1b4b5ec89aa4afa79223288c55a91e" target="_top" xlink:title=" ">
<polygon fill="white" stroke="#666666" points="1335,-473 1230,-473 1230,-454 1335,-454 1335,-473"/>
<text text-anchor="middle" x="1282.5" y="-461" font-family="Helvetica,sans-Serif" font-size="10.00">UIWidgets::Button</text>
</a>
</g>
</g>
<!-- Node2&#45;&gt;Node3 -->
<g id="edge2_Node000002_Node000003" class="edge">
<title>Node2&#45;&gt;Node3</title>
<g id="a_edge2_Node000002_Node000003"><a xlink:title=" ">
<path fill="none" stroke="#63b8ff" d="M360.22,-169.81C535.32,-192.92 975.45,-251.32 982,-255.5 1006.94,-271.41 996.76,-290.9 1018,-311.5 1084.98,-376.44 1116.7,-373.74 1198,-419.5 1216.26,-429.78 1237.12,-440.77 1253.42,-449.2"/>
<polygon fill="#63b8ff" stroke="#63b8ff" points="1251.94,-452.37 1262.44,-453.84 1255.15,-446.15 1251.94,-452.37"/>
</a>
</g>
</g>
<!-- Node4 -->
<g id="Node000004" class="node">
<title>Node4</title>
<g id="a_Node000004"><a xlink:href="namespaceUIWidgets.html#a2af1f9ddf2209195e9ad4c2edefdec19" target="_top" xlink:title=" ">
<polygon fill="white" stroke="#666666" points="1553.5,-860 1405.5,-860 1405.5,-841 1553.5,-841 1553.5,-860"/>
<text text-anchor="middle" x="1479.5" y="-848" font-family="Helvetica,sans-Serif" font-size="10.00">UIWidgets::PopStyleButton</text>
</a>
</g>
</g>
<!-- Node2&#45;&gt;Node4 -->
<g id="edge56_Node000002_Node000004" class="edge">
<title>Node2&#45;&gt;Node4</title>
<g id="a_edge56_Node000002_Node000004"><a xlink:title=" ">
<path fill="none" stroke="#63b8ff" d="M290,-170.24C295.03,-256.63 343.56,-888.5 687,-888.5 687,-888.5 687,-888.5 1091,-888.5 1213.96,-888.5 1244.91,-884.07 1367,-869.5 1383.87,-867.49 1402.08,-864.66 1418.79,-861.81"/>
<polygon fill="#63b8ff" stroke="#63b8ff" points="1419.73,-865.2 1428.98,-860.03 1418.53,-858.3 1419.73,-865.2"/>
</a>
</g>
</g>
<!-- Node5 -->
<g id="Node000005" class="node">
<title>Node5</title>
<g id="a_Node000005"><a xlink:href="namespaceUIWidgets.html#a7bf63e353090d99c90ff183fff2b582f" target="_top" xlink:title=" ">
<polygon fill="white" stroke="#666666" points="1556,-246 1403,-246 1403,-227 1556,-227 1556,-246"/>
<text text-anchor="middle" x="1479.5" y="-234" font-family="Helvetica,sans-Serif" font-size="10.00">UIWidgets::PushStyleButton</text>
</a>
</g>
</g>
<!-- Node2&#45;&gt;Node5 -->
<g id="edge58_Node000002_Node000005" class="edge">
<title>Node2&#45;&gt;Node5</title>
<g id="a_edge58_Node000002_Node000005"><a xlink:title=" ">
<path fill="none" stroke="#63b8ff" d="M360.23,-160.5C439.72,-160.5 572.62,-160.5 687,-160.5 687,-160.5 687,-160.5 1091,-160.5 1213.93,-160.5 1248.61,-145.43 1367,-178.5 1400.1,-187.75 1434.68,-207.57 1456.38,-221.45"/>
<polygon fill="#63b8ff" stroke="#63b8ff" points="1454.57,-224.45 1464.86,-226.99 1458.4,-218.59 1454.57,-224.45"/>
</a>
</g>
</g>
<!-- Node8 -->
<g id="Node000008" class="node">
<title>Node8</title>
<g id="a_Node000008"><a xlink:href="classShip_1_1Menu.html#a93c1cecb59051f4d9b31f1cab0b577f4" target="_top" xlink:title=" ">
<polygon fill="white" stroke="#666666" points="567,-511 396,-511 396,-492 567,-492 567,-511"/>
<text text-anchor="middle" x="481.5" y="-499" font-family="Helvetica,sans-Serif" font-size="10.00">Ship::Menu::DrawSearchResults</text>
</a>
</g>
</g>
<!-- Node2&#45;&gt;Node8 -->
<g id="edge7_Node000002_Node000008" class="edge">
<title>Node2&#45;&gt;Node8</title>
<g id="a_edge7_Node000002_Node000008"><a xlink:title=" ">
<path fill="none" stroke="#63b8ff" d="M294.35,-170.4C309,-200.15 354.34,-291.21 396,-364.5 420.6,-407.77 451.88,-457.15 468.63,-483.19"/>
<polygon fill="#63b8ff" stroke="#63b8ff" points="465.74,-485.17 474.1,-491.68 471.62,-481.38 465.74,-485.17"/>
</a>
</g>
</g>
<!-- Node9 -->
<g id="Node000009" class="node">
<title>Node9</title>
<g id="a_Node000009"><a xlink:href="classShip_1_1Menu.html#a260af6187999b8381769c55c122dc2ee" target="_top" xlink:title=" ">
<polygon fill="white" stroke="#666666" points="764,-511 612,-511 612,-492 764,-492 764,-511"/>
<text text-anchor="middle" x="688" y="-499" font-family="Helvetica,sans-Serif" font-size="10.00">Ship::Menu::MenuDrawItem</text>
</a>
</g>
</g>
<!-- Node2&#45;&gt;Node9 -->
<g id="edge51_Node000002_Node000009" class="edge">
<title>Node2&#45;&gt;Node9</title>
<g id="a_edge51_Node000002_Node000009"><a xlink:title=" ">
<path fill="none" stroke="#63b8ff" d="M300.97,-170.34C356.62,-218.08 598.74,-425.78 668.27,-485.43"/>
<polygon fill="#63b8ff" stroke="#63b8ff" points="666,-488.09 675.87,-491.95 670.55,-482.78 666,-488.09"/>
</a>
</g>
</g>
<!-- Node31 -->
<g id="Node000031" class="node">
<title>Node31</title>
<g id="a_Node000031"><a xlink:href="structMenuInit.html#a54de6672f1a266b1a0c2975b80510839" target="_top" xlink:title=" ">
<polygon fill="white" stroke="#666666" points="554.5,-56 408.5,-56 408.5,-37 554.5,-37 554.5,-56"/>
<text text-anchor="middle" x="481.5" y="-44" font-family="Helvetica,sans-Serif" font-size="10.00">MenuInit::GetUpdateFuncs</text>
</a>
</g>
</g>
<!-- Node2&#45;&gt;Node31 -->
<g id="edge50_Node000002_Node000031" class="edge">
<title>Node2&#45;&gt;Node31</title>
<g id="a_edge50_Node000002_Node000031"><a xlink:title=" ">
<path fill="none" stroke="#63b8ff" d="M298.18,-150.82C315.17,-132.46 354.76,-92.45 396,-70.5 404.59,-65.93 414.15,-62.14 423.67,-59.04"/>
<polygon fill="#63b8ff" stroke="#63b8ff" points="424.97,-62.3 433.52,-56.04 422.93,-55.6 424.97,-62.3"/>
</a>
</g>
</g>
<!-- Node32 -->
<g id="Node000032" class="node">
<title>Node32</title>
<g id="a_Node000032"><a xlink:href="namespaceShip.html#aba08caf4233c23c01fbfd2853ee9a6d1" target="_top" xlink:title=" ">
<polygon fill="white" stroke="#666666" points="772,-94 604,-94 604,-75 772,-75 772,-94"/>
<text text-anchor="middle" x="688" y="-82" font-family="Helvetica,sans-Serif" font-size="10.00">Ship::ModernMenuHeaderEntry</text>
</a>
</g>
</g>
<!-- Node2&#45;&gt;Node32 -->
<g id="edge52_Node000002_Node000032" class="edge">
<title>Node2&#45;&gt;Node32</title>
<g id="a_edge52_Node000002_Node000032"><a xlink:title=" ">
<path fill="none" stroke="#63b8ff" d="M317.24,-150.98C338.57,-143.96 368.88,-134.59 396,-128.5 461.49,-113.79 536.39,-102.59 593.8,-95.17"/>
<polygon fill="#63b8ff" stroke="#63b8ff" points="594.47,-98.61 603.95,-93.88 593.59,-91.67 594.47,-98.61"/>
</a>
</g>
</g>
<!-- Node33 -->
<g id="Node000033" class="node">
<title>Node33</title>
<g id="a_Node000033"><a xlink:href="namespaceShip.html#a63dcf986e97fa1416fb6532800dbc391" target="_top" xlink:title=" ">
<polygon fill="white" stroke="#666666" points="773,-132 603,-132 603,-113 773,-113 773,-132"/>
<text text-anchor="middle" x="688" y="-120" font-family="Helvetica,sans-Serif" font-size="10.00">Ship::ModernMenuSidebarEntry</text>
</a>
</g>
</g>
<!-- Node2&#45;&gt;Node33 -->
<g id="edge54_Node000002_Node000033" class="edge">
<title>Node2&#45;&gt;Node33</title>
<g id="a_edge54_Node000002_Node000033"><a xlink:title=" ">
<path fill="none" stroke="#63b8ff" d="M358.19,-150.97C370.75,-149.37 383.76,-147.81 396,-146.5 461.62,-139.49 535.75,-133.4 592.77,-129.11"/>
<polygon fill="#63b8ff" stroke="#63b8ff" points="593.14,-132.59 602.85,-128.36 592.62,-125.61 593.14,-132.59"/>
</a>
</g>
</g>
<!-- Node34 -->
<g id="Node000034" class="node">
<title>Node34</title>
<g id="a_Node000034"><a xlink:href="classShip_1_1Menu.html#ae0cf43a65719c392abe2e673a0c677ba" target="_top" xlink:title=" ">
<polygon fill="white" stroke="#666666" points="552.5,-19 410.5,-19 410.5,0 552.5,0 552.5,-19"/>
<text text-anchor="middle" x="481.5" y="-7" font-family="Helvetica,sans-Serif" font-size="10.00">Ship::Menu::ProcessReset</text>
</a>
</g>
</g>
<!-- Node2&#45;&gt;Node34 -->
<g id="edge57_Node000002_Node000034" class="edge">
<title>Node2&#45;&gt;Node34</title>
<g id="a_edge57_Node000002_Node000034"><a xlink:title=" ">
<path fill="none" stroke="#63b8ff" d="M294.17,-150.92C306.78,-126.12 344.14,-59.49 396,-27.5 398.66,-25.86 401.44,-24.37 404.32,-23.01"/>
<polygon fill="#63b8ff" stroke="#63b8ff" points="405.84,-26.17 413.75,-19.11 403.17,-19.7 405.84,-26.17"/>
</a>
</g>
</g>
<!-- Node3&#45;&gt;Node4 -->
<g id="edge3_Node000003_Node000004" class="edge">
<title>Node3&#45;&gt;Node4</title>
<g id="a_edge3_Node000003_Node000004"><a xlink:title=" ">
<path fill="none" stroke="#63b8ff" d="M1294.07,-473.21C1311.35,-489.56 1345.85,-524.28 1367,-559.5 1423.86,-654.16 1460.93,-782.85 1473.62,-831.14"/>
<polygon fill="#63b8ff" stroke="#63b8ff" points="1470.25,-832.1 1476.14,-840.91 1477.03,-830.35 1470.25,-832.1"/>
</a>
</g>
</g>
<!-- Node3&#45;&gt;Node5 -->
<g id="edge4_Node000003_Node000005" class="edge">
<title>Node3&#45;&gt;Node5</title>
<g id="a_edge4_Node000003_Node000005"><a xlink:title=" ">
<path fill="none" stroke="#63b8ff" d="M1291.88,-453.75C1321.94,-418.75 1424.66,-299.17 1463.48,-253.99"/>
<polygon fill="#63b8ff" stroke="#63b8ff" points="1466.29,-256.08 1470.15,-246.22 1460.98,-251.52 1466.29,-256.08"/>
</a>
</g>
</g>
<!-- Node6 -->
<g id="Node000006" class="node">
<title>Node6</title>
<g id="a_Node000006"><a xlink:href="ShipUtils_8cpp.html#a31d87083f0db90738310ec533f7e9d17" target="_top" xlink:title=" ">
<polygon fill="white" stroke="#666666" points="1538.5,-530 1420.5,-530 1420.5,-511 1538.5,-511 1538.5,-530"/>
<text text-anchor="middle" x="1479.5" y="-518" font-family="Helvetica,sans-Serif" font-size="10.00">Ship_IsCStringEmpty</text>
</a>
</g>
</g>
<!-- Node3&#45;&gt;Node6 -->
<g id="edge5_Node000003_Node000006" class="edge">
<title>Node3&#45;&gt;Node6</title>
<g id="a_edge5_Node000003_Node000006"><a xlink:title=" ">
<path fill="none" stroke="#63b8ff" d="M1316.14,-473.04C1349.04,-482.66 1399.98,-497.55 1436.01,-508.08"/>
<polygon fill="#63b8ff" stroke="#63b8ff" points="1435.17,-511.48 1445.75,-510.93 1437.14,-504.76 1435.17,-511.48"/>
</a>
</g>
</g>
<!-- Node7 -->
<g id="Node000007" class="node">
<title>Node7</title>
<g id="a_Node000007"><a xlink:href="namespaceUIWidgets.html#a01b8f77a826ec1dcc1ee8c9a21c219d6" target="_top" xlink:title=" ">
<polygon fill="white" stroke="#666666" points="1548,-473 1411,-473 1411,-454 1548,-454 1548,-473"/>
<text text-anchor="middle" x="1479.5" y="-461" font-family="Helvetica,sans-Serif" font-size="10.00">UIWidgets::WrappedText</text>
</a>
</g>
</g>
<!-- Node3&#45;&gt;Node7 -->
<g id="edge6_Node000003_Node000007" class="edge">
<title>Node3&#45;&gt;Node7</title>
<g id="a_edge6_Node000003_Node000007"><a xlink:title=" ">
<path fill="none" stroke="#63b8ff" d="M1335.24,-463.5C1355.21,-463.5 1378.49,-463.5 1400.41,-463.5"/>
<polygon fill="#63b8ff" stroke="#63b8ff" points="1400.7,-467 1410.7,-463.5 1400.7,-460 1400.7,-467"/>
</a>
</g>
</g>
<!-- Node8&#45;&gt;Node9 -->
<g id="edge8_Node000008_Node000009" class="edge">
<title>Node8&#45;&gt;Node9</title>
<g id="a_edge8_Node000008_Node000009"><a xlink:title=" ">
<path fill="none" stroke="#63b8ff" d="M567.15,-494.84C578.51,-494.72 590.17,-494.72 601.54,-494.83"/>
<polygon fill="#63b8ff" stroke="#63b8ff" points="601.84,-498.34 611.88,-494.97 601.93,-491.34 601.84,-498.34"/>
</a>
</g>
</g>
<!-- Node9&#45;&gt;Node3 -->
<g id="edge9_Node000009_Node000003" class="edge">
<title>Node9&#45;&gt;Node3</title>
<g id="a_edge9_Node000009_Node000003"><a xlink:title=" ">
<path fill="none" stroke="#63b8ff" d="M715.79,-491.85C739.87,-483.57 776.36,-471.97 809,-465.5 963.16,-434.92 1005.32,-432.12 1162,-444.5 1181.97,-446.08 1203.65,-449.12 1222.99,-452.31"/>
<polygon fill="#63b8ff" stroke="#63b8ff" points="1222.42,-455.76 1232.87,-453.99 1223.6,-448.86 1222.42,-455.76"/>
</a>
</g>
</g>
<!-- Node9&#45;&gt;Node4 -->
<g id="edge39_Node000009_Node000004" class="edge">
<title>Node9&#45;&gt;Node4</title>
<g id="a_edge39_Node000009_Node000004"><a xlink:title=" ">
<path fill="none" stroke="#63b8ff" d="M688.96,-511.01C689.33,-556.28 697.53,-751.04 809,-831.5 855.4,-864.99 1226.32,-858.21 1395.23,-853.29"/>
<polygon fill="#63b8ff" stroke="#63b8ff" points="1395.43,-856.78 1405.33,-852.99 1395.23,-849.79 1395.43,-856.78"/>
</a>
</g>
</g>
<!-- Node9&#45;&gt;Node5 -->
<g id="edge41_Node000009_Node000005" class="edge">
<title>Node9&#45;&gt;Node5</title>
<g id="a_edge41_Node000009_Node000005"><a xlink:title=" ">
<path fill="none" stroke="#63b8ff" d="M690.2,-491.9C695.55,-453.75 720.94,-312.28 809,-255.5 1011.81,-124.74 1325.75,-193.49 1437.39,-224.22"/>
<polygon fill="#63b8ff" stroke="#63b8ff" points="1436.67,-227.65 1447.24,-226.98 1438.55,-220.91 1436.67,-227.65"/>
</a>
</g>
</g>
<!-- Node9&#45;&gt;Node7 -->
<g id="edge49_Node000009_Node000007" class="edge">
<title>Node9&#45;&gt;Node7</title>
<g id="a_edge49_Node000009_Node000007"><a xlink:title=" ">
<path fill="none" stroke="#63b8ff" d="M701.41,-491.89C722.24,-476.41 766.19,-446.6 809,-435.5 1034.49,-377 1316.86,-427.15 1429.16,-451.77"/>
<polygon fill="#63b8ff" stroke="#63b8ff" points="1428.65,-455.24 1439.17,-454 1430.17,-448.41 1428.65,-455.24"/>
</a>
</g>
</g>
<!-- Node9&#45;&gt;Node8 -->
<g id="edge38_Node000009_Node000008" class="edge">
<title>Node9&#45;&gt;Node8</title>
<g id="a_edge38_Node000009_Node000008"><a xlink:title=" ">
<path fill="none" stroke="#63b8ff" d="M611.88,-508.03C600.63,-508.22 588.9,-508.28 577.3,-508.23"/>
<polygon fill="#63b8ff" stroke="#63b8ff" points="577.18,-504.73 567.15,-508.16 577.13,-511.73 577.18,-504.73"/>
</a>
</g>
</g>
<!-- Node10 -->
<g id="Node000010" class="node">
<title>Node10</title>
<g id="a_Node000010"><a xlink:href="namespaceUIWidgets.html#a28268b432c9b36af9e83d12b8b28bb35" target="_top" xlink:title=" ">
<polygon fill="white" stroke="#666666" points="1150.5,-303 1029.5,-303 1029.5,-284 1150.5,-284 1150.5,-303"/>
<text text-anchor="middle" x="1090" y="-291" font-family="Helvetica,sans-Serif" font-size="10.00">UIWidgets::Checkbox</text>
</a>
</g>
</g>
<!-- Node9&#45;&gt;Node10 -->
<g id="edge10_Node000009_Node000010" class="edge">
<title>Node9&#45;&gt;Node10</title>
<g id="a_edge10_Node000009_Node000010"><a xlink:title=" ">
<path fill="none" stroke="#63b8ff" d="M695.22,-491.71C711.06,-467.62 755.49,-405.09 809,-373.5 877.32,-333.16 905.9,-351.94 982,-329.5 1005.75,-322.5 1032.11,-313.64 1052.73,-306.46"/>
<polygon fill="#63b8ff" stroke="#63b8ff" points="1054.07,-309.7 1062.35,-303.09 1051.76,-303.09 1054.07,-309.7"/>
</a>
</g>
</g>
<!-- Node15 -->
<g id="Node000015" class="node">
<title>Node15</title>
<g id="a_Node000015"><a xlink:href="namespaceUIWidgets.html#ab602d66bd389006842f8da46eabf9064" target="_top" xlink:title=" ">
<polygon fill="white" stroke="#666666" points="958,-284 833,-284 833,-265 958,-265 958,-284"/>
<text text-anchor="middle" x="895.5" y="-272" font-family="Helvetica,sans-Serif" font-size="10.00">UIWidgets::Combobox</text>
</a>
</g>
</g>
<!-- Node9&#45;&gt;Node15 -->
<g id="edge17_Node000009_Node000015" class="edge">
<title>Node9&#45;&gt;Node15</title>
<g id="a_edge17_Node000009_Node000015"><a xlink:title=" ">
<path fill="none" stroke="#63b8ff" d="M691.52,-491.68C700.73,-457.9 735.9,-345.64 809,-292.5 813.45,-289.27 818.35,-286.59 823.49,-284.37"/>
<polygon fill="#63b8ff" stroke="#63b8ff" points="824.79,-287.62 832.95,-280.86 822.36,-281.06 824.79,-287.62"/>
</a>
</g>
</g>
<!-- Node16 -->
<g id="Node000016" class="node">
<title>Node16</title>
<g id="a_Node000016"><a xlink:href="namespaceUIWidgets.html#a00594a753bd5ce2c3f4f48f22aac4927" target="_top" xlink:title=" ">
<polygon fill="white" stroke="#666666" points="967,-321 824,-321 824,-302 967,-302 967,-321"/>
<text text-anchor="middle" x="895.5" y="-309" font-family="Helvetica,sans-Serif" font-size="10.00">UIWidgets::CVarCheckbox</text>
</a>
</g>
</g>
<!-- Node9&#45;&gt;Node16 -->
<g id="edge18_Node000009_Node000016" class="edge">
<title>Node9&#45;&gt;Node16</title>
<g id="a_edge18_Node000009_Node000016"><a xlink:title=" ">
<path fill="none" stroke="#63b8ff" d="M693.12,-491.9C705.85,-463.37 747.47,-378.44 809,-335.5 815.4,-331.03 822.61,-327.39 830.07,-324.43"/>
<polygon fill="#63b8ff" stroke="#63b8ff" points="831.35,-327.69 839.59,-321.03 829,-321.1 831.35,-327.69"/>
</a>
</g>
</g>
<!-- Node17 -->
<g id="Node000017" class="node">
<title>Node17</title>
<g id="a_Node000017"><a xlink:href="namespaceUIWidgets.html#af437875c420b0efc91e3c8b435977b3d" target="_top" xlink:title=" ">
<polygon fill="white" stroke="#666666" points="969.5,-822 821.5,-822 821.5,-803 969.5,-803 969.5,-822"/>
<text text-anchor="middle" x="895.5" y="-810" font-family="Helvetica,sans-Serif" font-size="10.00">UIWidgets::CVarCombobox</text>
</a>
</g>
</g>
<!-- Node9&#45;&gt;Node17 -->
<g id="edge20_Node000009_Node000017" class="edge">
<title>Node9&#45;&gt;Node17</title>
<g id="a_edge20_Node000009_Node000017"><a xlink:title=" ">
<path fill="none" stroke="#63b8ff" d="M689.8,-511.22C693.76,-552.67 715.05,-716.2 809,-794.5 810.36,-795.64 811.78,-796.7 813.24,-797.71"/>
<polygon fill="#63b8ff" stroke="#63b8ff" points="811.65,-800.84 822.06,-802.82 815.16,-794.78 811.65,-800.84"/>
</a>
</g>
</g>
<!-- Node18 -->
<g id="Node000018" class="node">
<title>Node18</title>
<g id="a_Node000018"><a xlink:href="namespaceUIWidgets.html#a707b643070c52c19ea01918db52526f3" target="_top" xlink:title=" ">
<polygon fill="white" stroke="#666666" points="969.5,-587 821.5,-587 821.5,-568 969.5,-568 969.5,-587"/>
<text text-anchor="middle" x="895.5" y="-575" font-family="Helvetica,sans-Serif" font-size="10.00">UIWidgets::CVarSliderFloat</text>
</a>
</g>
</g>
<!-- Node9&#45;&gt;Node18 -->
<g id="edge21_Node000009_Node000018" class="edge">
<title>Node9&#45;&gt;Node18</title>
<g id="a_edge21_Node000009_Node000018"><a xlink:title=" ">
<path fill="none" stroke="#63b8ff" d="M709.05,-511.18C732.61,-522.33 773.06,-540.73 809,-553.5 821.04,-557.78 834.24,-561.8 846.59,-565.28"/>
<polygon fill="#63b8ff" stroke="#63b8ff" points="845.7,-568.67 856.27,-567.96 847.57,-561.92 845.7,-568.67"/>
</a>
</g>
</g>
<!-- Node19 -->
<g id="Node000019" class="node">
<title>Node19</title>
<g id="a_Node000019"><a xlink:href="namespaceUIWidgets.html#ab0e1dc2ac8062d0124cef3260da95506" target="_top" xlink:title=" ">
<polygon fill="white" stroke="#666666" points="1152.5,-625 1027.5,-625 1027.5,-606 1152.5,-606 1152.5,-625"/>
<text text-anchor="middle" x="1090" y="-613" font-family="Helvetica,sans-Serif" font-size="10.00">UIWidgets::SliderFloat</text>
</a>
</g>
</g>
<!-- Node9&#45;&gt;Node19 -->
<g id="edge44_Node000009_Node000019" class="edge">
<title>Node9&#45;&gt;Node19</title>
<g id="a_edge44_Node000009_Node000019"><a xlink:title=" ">
<path fill="none" stroke="#63b8ff" d="M697.4,-511.31C715.43,-531.55 760.17,-577.63 809,-596.5 876.21,-622.47 959.19,-624.77 1017.31,-622.09"/>
<polygon fill="#63b8ff" stroke="#63b8ff" points="1017.7,-625.58 1027.5,-621.56 1017.33,-618.59 1017.7,-625.58"/>
</a>
</g>
</g>
<!-- Node24 -->
<g id="Node000024" class="node">
<title>Node24</title>
<g id="a_Node000024"><a xlink:href="namespaceUIWidgets.html#aaddc51b941be51b819be66b4c62ebc5d" target="_top" xlink:title=" ">
<polygon fill="white" stroke="#666666" points="963.5,-511 827.5,-511 827.5,-492 963.5,-492 963.5,-511"/>
<text text-anchor="middle" x="895.5" y="-499" font-family="Helvetica,sans-Serif" font-size="10.00">UIWidgets::CVarSliderInt</text>
</a>
</g>
</g>
<!-- Node9&#45;&gt;Node24 -->
<g id="edge30_Node000009_Node000024" class="edge">
<title>Node9&#45;&gt;Node24</title>
<g id="a_edge30_Node000009_Node000024"><a xlink:title=" ">
<path fill="none" stroke="#63b8ff" d="M764.06,-501.5C781.41,-501.5 799.9,-501.5 817.33,-501.5"/>
<polygon fill="#63b8ff" stroke="#63b8ff" points="817.46,-505 827.46,-501.5 817.46,-498 817.46,-505"/>
</a>
</g>
</g>
<!-- Node25 -->
<g id="Node000025" class="node">
<title>Node25</title>
<g id="a_Node000025"><a xlink:href="namespaceUIWidgets.html#a2eebccc487beff83c49f24c18987e684" target="_top" xlink:title=" ">
<polygon fill="white" stroke="#666666" points="1146.5,-549 1033.5,-549 1033.5,-530 1146.5,-530 1146.5,-549"/>
<text text-anchor="middle" x="1090" y="-537" font-family="Helvetica,sans-Serif" font-size="10.00">UIWidgets::SliderInt</text>
</a>
</g>
</g>
<!-- Node9&#45;&gt;Node25 -->
<g id="edge45_Node000009_Node000025" class="edge">
<title>Node9&#45;&gt;Node25</title>
<g id="a_edge45_Node000009_Node000025"><a xlink:title=" ">
<path fill="none" stroke="#63b8ff" d="M742.62,-511.04C763.31,-514.44 787.2,-518.04 809,-520.5 882.04,-528.74 966.23,-533.87 1023.07,-536.69"/>
<polygon fill="#63b8ff" stroke="#63b8ff" points="1023.19,-540.2 1033.35,-537.19 1023.53,-533.21 1023.19,-540.2"/>
</a>
</g>
</g>
<!-- Node26 -->
<g id="Node000026" class="node">
<title>Node26</title>
<g id="a_Node000026"><a xlink:href="namespaceUIWidgets.html#ac285e460c7ff8522bccc16c5c5589da1" target="_top" xlink:title=" ">
<polygon fill="white" stroke="#666666" points="979.5,-785 811.5,-785 811.5,-766 979.5,-766 979.5,-785"/>
<text text-anchor="middle" x="895.5" y="-773" font-family="Helvetica,sans-Serif" font-size="10.00">UIWidgets::PopStyleCombobox</text>
</a>
</g>
</g>
<!-- Node9&#45;&gt;Node26 -->
<g id="edge40_Node000009_Node000026" class="edge">
<title>Node9&#45;&gt;Node26</title>
<g id="a_edge40_Node000009_Node000026"><a xlink:title=" ">
<path fill="none" stroke="#63b8ff" d="M690.39,-511.03C696.44,-548.94 724.16,-690.29 809,-757.5 810.61,-758.77 812.28,-759.96 814.01,-761.07"/>
<polygon fill="#63b8ff" stroke="#63b8ff" points="812.62,-764.3 823.08,-765.98 815.95,-758.14 812.62,-764.3"/>
</a>
</g>
</g>
<!-- Node27 -->
<g id="Node000027" class="node">
<title>Node27</title>
<g id="a_Node000027"><a xlink:href="namespaceUIWidgets.html#aae30218cc1c82fcad712520d28e0e6e4" target="_top" xlink:title=" ">
<polygon fill="white" stroke="#666666" points="982,-748 809,-748 809,-729 982,-729 982,-748"/>
<text text-anchor="middle" x="895.5" y="-736" font-family="Helvetica,sans-Serif" font-size="10.00">UIWidgets::PushStyleCombobox</text>
</a>
</g>
</g>
<!-- Node9&#45;&gt;Node27 -->
<g id="edge42_Node000009_Node000027" class="edge">
<title>Node9&#45;&gt;Node27</title>
<g id="a_edge42_Node000009_Node000027"><a xlink:title=" ">
<path fill="none" stroke="#63b8ff" d="M691.25,-511.3C699.76,-546.06 733.46,-664.43 809,-720.5 810.83,-721.86 812.74,-723.12 814.72,-724.29"/>
<polygon fill="#63b8ff" stroke="#63b8ff" points="813.23,-727.46 823.74,-728.86 816.4,-721.22 813.23,-727.46"/>
</a>
</g>
</g>
<!-- Node28 -->
<g id="Node000028" class="node">
<title>Node28</title>
<g id="a_Node000028"><a xlink:href="structWidgetInfo.html#a31d40206a297372d1527c53c82f61c2b" target="_top" xlink:title=" ">
<polygon fill="white" stroke="#666666" points="968.5,-711 822.5,-711 822.5,-692 968.5,-692 968.5,-711"/>
<text text-anchor="middle" x="895.5" y="-699" font-family="Helvetica,sans-Serif" font-size="10.00">WidgetInfo::ResetDisables</text>
</a>
</g>
</g>
<!-- Node9&#45;&gt;Node28 -->
<g id="edge43_Node000009_Node000028" class="edge">
<title>Node9&#45;&gt;Node28</title>
<g id="a_edge43_Node000009_Node000028"><a xlink:title=" ">
<path fill="none" stroke="#63b8ff" d="M692.42,-511.26C703.69,-541.92 742.81,-637.02 809,-682.5 811.91,-684.5 814.99,-686.29 818.19,-687.9"/>
<polygon fill="#63b8ff" stroke="#63b8ff" points="816.93,-691.16 827.49,-691.95 819.72,-684.75 816.93,-691.16"/>
</a>
</g>
</g>
<!-- Node29 -->
<g id="Node000029" class="node">
<title>Node29</title>
<g id="a_Node000029"><a xlink:href="classShip_1_1Menu.html#a7329d35f375df068b761b04f4ef390c5" target="_top" xlink:title=" ">
<polygon fill="white" stroke="#666666" points="971,-673.5 820,-673.5 820,-643.5 971,-643.5 971,-673.5"/>
<text text-anchor="start" x="828" y="-661.5" font-family="Helvetica,sans-Serif" font-size="10.00">Ship::Menu::UpdateWindow</text>
<text text-anchor="middle" x="895.5" y="-650.5" font-family="Helvetica,sans-Serif" font-size="10.00">BackendObjects</text>
</a>
</g>
</g>
<!-- Node9&#45;&gt;Node29 -->
<g id="edge46_Node000009_Node000029" class="edge">
<title>Node9&#45;&gt;Node29</title>
<g id="a_edge46_Node000009_Node000029"><a xlink:title=" ">
<path fill="none" stroke="#63b8ff" d="M695.38,-511.03C711.58,-534.55 756.76,-595.85 809,-629.5 814.75,-633.21 821.03,-636.49 827.49,-639.39"/>
<polygon fill="#63b8ff" stroke="#63b8ff" points="826.46,-642.76 837.04,-643.37 829.16,-636.3 826.46,-642.76"/>
</a>
</g>
</g>
<!-- Node30 -->
<g id="Node000030" class="node">
<title>Node30</title>
<g id="a_Node000030"><a xlink:href="namespaceUIWidgets.html#a2e6551e3cad6ecb45d3994d609743801" target="_top" xlink:title=" ">
<polygon fill="white" stroke="#666666" points="1162,-473 1018,-473 1018,-454 1162,-454 1162,-473"/>
<text text-anchor="middle" x="1090" y="-461" font-family="Helvetica,sans-Serif" font-size="10.00">UIWidgets::WindowButton</text>
</a>
</g>
</g>
<!-- Node9&#45;&gt;Node30 -->
<g id="edge47_Node000009_Node000030" class="edge">
<title>Node9&#45;&gt;Node30</title>
<g id="a_edge47_Node000009_Node000030"><a xlink:title=" ">
<path fill="none" stroke="#63b8ff" d="M742.62,-491.96C763.31,-488.56 787.2,-484.96 809,-482.5 875.66,-474.98 951.61,-470.05 1007.57,-467.1"/>
<polygon fill="#63b8ff" stroke="#63b8ff" points="1007.97,-470.59 1017.78,-466.58 1007.61,-463.6 1007.97,-470.59"/>
</a>
</g>
</g>
<!-- Node10&#45;&gt;Node6 -->
<g id="edge15_Node000010_Node000006" class="edge">
<title>Node10&#45;&gt;Node6</title>
<g id="a_edge15_Node000010_Node000006"><a xlink:title=" ">
<path fill="none" stroke="#63b8ff" d="M1132.84,-303.02C1142.97,-306.53 1153.36,-311.24 1162,-317.5 1183.6,-333.14 1177.3,-348.68 1198,-365.5 1262.35,-417.78 1299.43,-396.45 1367,-444.5 1385.7,-457.8 1384.57,-467.84 1403,-481.5 1416.19,-491.28 1432.19,-499.93 1446.05,-506.58"/>
<polygon fill="#63b8ff" stroke="#63b8ff" points="1444.71,-509.81 1455.25,-510.86 1447.66,-503.47 1444.71,-509.81"/>
</a>
</g>
</g>
<!-- Node10&#45;&gt;Node7 -->
<g id="edge16_Node000010_Node000007" class="edge">
<title>Node10&#45;&gt;Node7</title>
<g id="a_edge16_Node000010_Node000007"><a xlink:title=" ">
<path fill="none" stroke="#63b8ff" d="M1119.11,-303.01C1149.47,-313.28 1194.07,-328.33 1198,-329.5 1272.38,-351.67 1297.69,-338.56 1367,-373.5 1404.85,-392.58 1441.71,-426.13 1462.13,-446.44"/>
<polygon fill="#63b8ff" stroke="#63b8ff" points="1459.84,-449.1 1469.36,-453.76 1464.82,-444.18 1459.84,-449.1"/>
</a>
</g>
</g>
<!-- Node11 -->
<g id="Node000011" class="node">
<title>Node11</title>
<g id="a_Node000011"><a xlink:href="namespaceUIWidgets.html#a3afde5e39ce67a2370ecef5ffb427636" target="_top" xlink:title=" ">
<polygon fill="white" stroke="#666666" points="1364.5,-284 1200.5,-284 1200.5,-265 1364.5,-265 1364.5,-284"/>
<text text-anchor="middle" x="1282.5" y="-272" font-family="Helvetica,sans-Serif" font-size="10.00">UIWidgets::PopStyleCheckbox</text>
</a>
</g>
</g>
<!-- Node10&#45;&gt;Node11 -->
<g id="edge11_Node000010_Node000011" class="edge">
<title>Node10&#45;&gt;Node11</title>
<g id="a_edge11_Node000010_Node000011"><a xlink:title=" ">
<path fill="none" stroke="#63b8ff" d="M1150.75,-287.54C1163.27,-286.29 1176.75,-284.95 1190.12,-283.61"/>
<polygon fill="#63b8ff" stroke="#63b8ff" points="1190.71,-287.07 1200.31,-282.6 1190.02,-280.11 1190.71,-287.07"/>
</a>
</g>
</g>
<!-- Node12 -->
<g id="Node000012" class="node">
<title>Node12</title>
<g id="a_Node000012"><a xlink:href="namespaceUIWidgets.html#a330697ff7208bc380bcfe8640b864718" target="_top" xlink:title=" ">
<polygon fill="white" stroke="#666666" points="1367,-321 1198,-321 1198,-302 1367,-302 1367,-321"/>
<text text-anchor="middle" x="1282.5" y="-309" font-family="Helvetica,sans-Serif" font-size="10.00">UIWidgets::PushStyleCheckbox</text>
</a>
</g>
</g>
<!-- Node10&#45;&gt;Node12 -->
<g id="edge12_Node000010_Node000012" class="edge">
<title>Node10&#45;&gt;Node12</title>
<g id="a_edge12_Node000010_Node000012"><a xlink:title=" ">
<path fill="none" stroke="#63b8ff" d="M1150.75,-299.15C1162.55,-300.26 1175.19,-301.46 1187.8,-302.65"/>
<polygon fill="#63b8ff" stroke="#63b8ff" points="1187.6,-306.14 1197.88,-303.6 1188.26,-299.17 1187.6,-306.14"/>
</a>
</g>
</g>
<!-- Node13 -->
<g id="Node000013" class="node">
<title>Node13</title>
<g id="a_Node000013"><a xlink:href="namespaceUIWidgets.html#ae0f4f1b0659f0e53e3077a5acb0c6b05" target="_top" xlink:title=" ">
<polygon fill="white" stroke="#666666" points="1346.5,-132 1218.5,-132 1218.5,-113 1346.5,-113 1346.5,-132"/>
<text text-anchor="middle" x="1282.5" y="-120" font-family="Helvetica,sans-Serif" font-size="10.00">UIWidgets::RenderText</text>
</a>
</g>
</g>
<!-- Node10&#45;&gt;Node13 -->
<g id="edge13_Node000010_Node000013" class="edge">
<title>Node10&#45;&gt;Node13</title>
<g id="a_edge13_Node000010_Node000013"><a xlink:title=" ">
<path fill="none" stroke="#63b8ff" d="M1101.79,-283.82C1133.09,-255.72 1224.2,-173.94 1263.31,-138.83"/>
<polygon fill="#63b8ff" stroke="#63b8ff" points="1265.73,-141.36 1270.83,-132.08 1261.05,-136.15 1265.73,-141.36"/>
</a>
</g>
</g>
<!-- Node14 -->
<g id="Node000014" class="node">
<title>Node14</title>
<g id="a_Node000014"><a xlink:href="string_8c.html#a008e171a518fe0e0352f31b245e03875" target="_top" xlink:title=" ">
<polygon fill="white" stroke="#666666" points="1501.5,-132 1457.5,-132 1457.5,-113 1501.5,-113 1501.5,-132"/>
<text text-anchor="middle" x="1479.5" y="-120" font-family="Helvetica,sans-Serif" font-size="10.00">strlen</text>
</a>
</g>
</g>
<!-- Node13&#45;&gt;Node14 -->
<g id="edge14_Node000013_Node000014" class="edge">
<title>Node13&#45;&gt;Node14</title>
<g id="a_edge14_Node000013_Node000014"><a xlink:title=" ">
<path fill="none" stroke="#63b8ff" d="M1346.54,-122.5C1380.14,-122.5 1420,-122.5 1447.05,-122.5"/>
<polygon fill="#63b8ff" stroke="#63b8ff" points="1447.1,-126 1457.1,-122.5 1447.1,-119 1447.1,-126"/>
</a>
</g>
</g>
<!-- Node16&#45;&gt;Node10 -->
<g id="edge19_Node000016_Node000010" class="edge">
<title>Node16&#45;&gt;Node10</title>
<g id="a_edge19_Node000016_Node000010"><a xlink:title=" ">
<path fill="none" stroke="#63b8ff" d="M967.09,-304.9C984.06,-303.31 1002.18,-301.62 1019.12,-300.03"/>
<polygon fill="#63b8ff" stroke="#63b8ff" points="1019.86,-303.48 1029.49,-299.06 1019.21,-296.51 1019.86,-303.48"/>
</a>
</g>
</g>
<!-- Node18&#45;&gt;Node19 -->
<g id="edge22_Node000018_Node000019" class="edge">
<title>Node18&#45;&gt;Node19</title>
<g id="a_edge22_Node000018_Node000019"><a xlink:title=" ">
<path fill="none" stroke="#63b8ff" d="M945.08,-587.09C971.16,-592.24 1003.51,-598.62 1030.92,-604.03"/>
<polygon fill="#63b8ff" stroke="#63b8ff" points="1030.28,-607.48 1040.77,-605.98 1031.64,-600.61 1030.28,-607.48"/>
</a>
</g>
</g>
<!-- Node19&#45;&gt;Node3 -->
<g id="edge23_Node000019_Node000003" class="edge">
<title>Node19&#45;&gt;Node3</title>
<g id="a_edge23_Node000019_Node000003"><a xlink:title=" ">
<path fill="none" stroke="#63b8ff" d="M1102.92,-605.99C1134.72,-580.61 1221.88,-511.07 1261.47,-479.48"/>
<polygon fill="#63b8ff" stroke="#63b8ff" points="1263.95,-481.98 1269.59,-473 1259.59,-476.51 1263.95,-481.98"/>
</a>
</g>
</g>
<!-- Node19&#45;&gt;Node6 -->
<g id="edge27_Node000019_Node000006" class="edge">
<title>Node19&#45;&gt;Node6</title>
<g id="a_edge27_Node000019_Node000006"><a xlink:title=" ">
<path fill="none" stroke="#63b8ff" d="M1097.58,-625.31C1112.46,-646.5 1151.11,-696.13 1198,-714.5 1267.94,-741.89 1301.99,-752.12 1367,-714.5 1433.53,-676 1463.82,-581.13 1474.15,-540.02"/>
<polygon fill="#63b8ff" stroke="#63b8ff" points="1477.59,-540.69 1476.5,-530.15 1470.78,-539.07 1477.59,-540.69"/>
</a>
</g>
</g>
<!-- Node19&#45;&gt;Node7 -->
<g id="edge29_Node000019_Node000007" class="edge">
<title>Node19&#45;&gt;Node7</title>
<g id="a_edge29_Node000019_Node000007"><a xlink:title=" ">
<path fill="none" stroke="#63b8ff" d="M1101.86,-625.12C1120.16,-640.6 1158.94,-670.42 1198,-681.5 1270.26,-701.99 1308.89,-729.09 1367,-681.5 1429.78,-630.09 1354.13,-567.29 1403,-502.5 1411.42,-491.33 1423.97,-483.09 1436.42,-477.13"/>
<polygon fill="#63b8ff" stroke="#63b8ff" points="1438.09,-480.22 1445.86,-473.01 1435.29,-473.8 1438.09,-480.22"/>
</a>
</g>
</g>
<!-- Node20 -->
<g id="Node000020" class="node">
<title>Node20</title>
<g id="a_Node000020"><a xlink:href="namespaceUIWidgets.html#a3493c246b651d9839fecfd680030ef6c" target="_top" xlink:title=" ">
<polygon fill="white" stroke="#666666" points="1347,-786 1218,-786 1218,-767 1347,-767 1347,-786"/>
<text text-anchor="middle" x="1282.5" y="-774" font-family="Helvetica,sans-Serif" font-size="10.00">UIWidgets::ClampFloat</text>
</a>
</g>
</g>
<!-- Node19&#45;&gt;Node20 -->
<g id="edge24_Node000019_Node000020" class="edge">
<title>Node19&#45;&gt;Node20</title>
<g id="a_edge24_Node000019_Node000020"><a xlink:title=" ">
<path fill="none" stroke="#63b8ff" d="M1095.75,-625.16C1108.59,-650.2 1146.47,-717.71 1198,-752.5 1204.67,-757 1212.18,-760.67 1219.89,-763.65"/>
<polygon fill="#63b8ff" stroke="#63b8ff" points="1218.77,-766.97 1229.36,-766.97 1221.08,-760.36 1218.77,-766.97"/>
</a>
</g>
</g>
<!-- Node21 -->
<g id="Node000021" class="node">
<title>Node21</title>
<g id="a_Node000021"><a xlink:href="namespaceUIWidgets.html#ab3668add920a14f28ddc7b864ad9a998" target="_top" xlink:title=" ">
<polygon fill="white" stroke="#666666" points="1354,-624 1211,-624 1211,-605 1354,-605 1354,-624"/>
<text text-anchor="middle" x="1282.5" y="-612" font-family="Helvetica,sans-Serif" font-size="10.00">UIWidgets::PopStyleSlider</text>
</a>
</g>
</g>
<!-- Node19&#45;&gt;Node21 -->
<g id="edge25_Node000019_Node000021" class="edge">
<title>Node19&#45;&gt;Node21</title>
<g id="a_edge25_Node000019_Node000021"><a xlink:title=" ">
<path fill="none" stroke="#63b8ff" d="M1152.59,-615.18C1167.84,-615.1 1184.4,-615.01 1200.43,-614.93"/>
<polygon fill="#63b8ff" stroke="#63b8ff" points="1200.88,-618.42 1210.86,-614.87 1200.84,-611.42 1200.88,-618.42"/>
</a>
</g>
</g>
<!-- Node22 -->
<g id="Node000022" class="node">
<title>Node22</title>
<g id="a_Node000022"><a xlink:href="namespaceUIWidgets.html#a560e4ab7577da33003569105d9ec736f" target="_top" xlink:title=" ">
<polygon fill="white" stroke="#666666" points="1357,-587 1208,-587 1208,-568 1357,-568 1357,-587"/>
<text text-anchor="middle" x="1282.5" y="-575" font-family="Helvetica,sans-Serif" font-size="10.00">UIWidgets::PushStyleSlider</text>
</a>
</g>
</g>
<!-- Node19&#45;&gt;Node22 -->
<g id="edge26_Node000019_Node000022" class="edge">
<title>Node19&#45;&gt;Node22</title>
<g id="a_edge26_Node000019_Node000022"><a xlink:title=" ">
<path fill="none" stroke="#63b8ff" d="M1139.07,-605.91C1164.78,-600.78 1196.61,-594.43 1223.66,-589.04"/>
<polygon fill="#63b8ff" stroke="#63b8ff" points="1224.65,-592.41 1233.77,-587.02 1223.28,-585.54 1224.65,-592.41"/>
</a>
</g>
</g>
<!-- Node23 -->
<g id="Node000023" class="node">
<title>Node23</title>
<g id="a_Node000023"><a xlink:href="structUIWidgets_1_1ButtonOptions.html#a13696251aa297ab0e7e7490ef8d77bbf" target="_top" xlink:title=" ">
<polygon fill="white" stroke="#666666" points="1354,-672.5 1211,-672.5 1211,-642.5 1354,-642.5 1354,-672.5"/>
<text text-anchor="start" x="1219" y="-660.5" font-family="Helvetica,sans-Serif" font-size="10.00">UIWidgets::ButtonOptions</text>
<text text-anchor="middle" x="1282.5" y="-649.5" font-family="Helvetica,sans-Serif" font-size="10.00">::Size</text>
</a>
</g>
</g>
<!-- Node19&#45;&gt;Node23 -->
<g id="edge28_Node000019_Node000023" class="edge">
<title>Node19&#45;&gt;Node23</title>
<g id="a_edge28_Node000019_Node000023"><a xlink:title=" ">
<path fill="none" stroke="#63b8ff" d="M1134.23,-625.03C1154.69,-629.54 1179.77,-635.07 1203.39,-640.28"/>
<polygon fill="#63b8ff" stroke="#63b8ff" points="1202.89,-643.75 1213.41,-642.49 1204.4,-636.92 1202.89,-643.75"/>
</a>
</g>
</g>
<!-- Node24&#45;&gt;Node25 -->
<g id="edge31_Node000024_Node000025" class="edge">
<title>Node24&#45;&gt;Node25</title>
<g id="a_edge31_Node000024_Node000025"><a xlink:title=" ">
<path fill="none" stroke="#63b8ff" d="M945.08,-511.09C971.16,-516.24 1003.51,-522.62 1030.92,-528.03"/>
<polygon fill="#63b8ff" stroke="#63b8ff" points="1030.28,-531.48 1040.77,-529.98 1031.64,-524.61 1030.28,-531.48"/>
</a>
</g>
</g>
<!-- Node25&#45;&gt;Node3 -->
<g id="edge32_Node000025_Node000003" class="edge">
<title>Node25&#45;&gt;Node3</title>
<g id="a_edge32_Node000025_Node000003"><a xlink:title=" ">
<path fill="none" stroke="#63b8ff" d="M1108.38,-529.89C1129.22,-518.66 1165.41,-500 1198,-487.5 1209.33,-483.15 1221.79,-479.17 1233.55,-475.75"/>
<polygon fill="#63b8ff" stroke="#63b8ff" points="1234.55,-479.1 1243.22,-473.01 1232.64,-472.37 1234.55,-479.1"/>
</a>
</g>
</g>
<!-- Node25&#45;&gt;Node6 -->
<g id="edge35_Node000025_Node000006" class="edge">
<title>Node25&#45;&gt;Node6</title>
<g id="a_edge35_Node000025_Node000006"><a xlink:title=" ">
<path fill="none" stroke="#63b8ff" d="M1146.52,-536.78C1215.97,-533.37 1334.88,-527.54 1409.94,-523.86"/>
<polygon fill="#63b8ff" stroke="#63b8ff" points="1410.42,-527.34 1420.23,-523.36 1410.07,-520.35 1410.42,-527.34"/>
</a>
</g>
</g>
<!-- Node25&#45;&gt;Node7 -->
<g id="edge37_Node000025_Node000007" class="edge">
<title>Node25&#45;&gt;Node7</title>
<g id="a_edge37_Node000025_Node000007"><a xlink:title=" ">
<path fill="none" stroke="#63b8ff" d="M1139.68,-529.95C1210.98,-515.97 1343.6,-489.96 1420.07,-474.96"/>
<polygon fill="#63b8ff" stroke="#63b8ff" points="1420.87,-478.37 1430.01,-473.01 1419.53,-471.5 1420.87,-478.37"/>
</a>
</g>
</g>
<!-- Node25&#45;&gt;Node21 -->
<g id="edge33_Node000025_Node000021" class="edge">
<title>Node25&#45;&gt;Node21</title>
<g id="a_edge33_Node000025_Node000021"><a xlink:title=" ">
<path fill="none" stroke="#63b8ff" d="M1105.97,-549.21C1126.11,-561.85 1163.41,-583.84 1198,-596.5 1203.94,-598.67 1210.22,-600.62 1216.56,-602.36"/>
<polygon fill="#63b8ff" stroke="#63b8ff" points="1215.98,-605.83 1226.53,-604.93 1217.72,-599.05 1215.98,-605.83"/>
</a>
</g>
</g>
<!-- Node25&#45;&gt;Node22 -->
<g id="edge34_Node000025_Node000022" class="edge">
<title>Node25&#45;&gt;Node22</title>
<g id="a_edge34_Node000025_Node000022"><a xlink:title=" ">
<path fill="none" stroke="#63b8ff" d="M1139.07,-549.09C1164.78,-554.22 1196.61,-560.57 1223.66,-565.96"/>
<polygon fill="#63b8ff" stroke="#63b8ff" points="1223.28,-569.46 1233.77,-567.98 1224.65,-562.59 1223.28,-569.46"/>
</a>
</g>
</g>
<!-- Node25&#45;&gt;Node23 -->
<g id="edge36_Node000025_Node000023" class="edge">
<title>Node25&#45;&gt;Node23</title>
<g id="a_edge36_Node000025_Node000023"><a xlink:title=" ">
<path fill="none" stroke="#63b8ff" d="M1103.63,-549.19C1118.08,-560.42 1142.28,-579.67 1162,-597.5 1178.78,-612.68 1178.51,-622.01 1198,-633.5 1201.01,-635.28 1204.17,-636.93 1207.41,-638.46"/>
<polygon fill="#63b8ff" stroke="#63b8ff" points="1206.18,-641.74 1216.75,-642.49 1208.95,-635.32 1206.18,-641.74"/>
</a>
</g>
</g>
<!-- Node30&#45;&gt;Node3 -->
<g id="edge48_Node000030_Node000003" class="edge">
<title>Node30&#45;&gt;Node3</title>
<g id="a_edge48_Node000030_Node000003"><a xlink:title=" ">
<path fill="none" stroke="#63b8ff" d="M1162.21,-463.5C1181.2,-463.5 1201.56,-463.5 1219.98,-463.5"/>
<polygon fill="#63b8ff" stroke="#63b8ff" points="1220,-467 1230,-463.5 1220,-460 1220,-467"/>
</a>
</g>
</g>
<!-- Node32&#45;&gt;Node13 -->
<g id="edge53_Node000032_Node000013" class="edge">
<title>Node32&#45;&gt;Node13</title>
<g id="a_edge53_Node000032_Node000013"><a xlink:title=" ">
<path fill="none" stroke="#63b8ff" d="M772.01,-89.82C888.13,-97.27 1097.25,-110.68 1208.02,-117.79"/>
<polygon fill="#63b8ff" stroke="#63b8ff" points="1207.9,-121.29 1218.1,-118.43 1208.35,-114.3 1207.9,-121.29"/>
</a>
</g>
</g>
<!-- Node33&#45;&gt;Node13 -->
<g id="edge55_Node000033_Node000013" class="edge">
<title>Node33&#45;&gt;Node13</title>
<g id="a_edge55_Node000033_Node000013"><a xlink:title=" ">
<path fill="none" stroke="#63b8ff" d="M773.26,-122.5C889.75,-122.5 1098.08,-122.5 1208.36,-122.5"/>
<polygon fill="#63b8ff" stroke="#63b8ff" points="1208.4,-126 1218.4,-122.5 1208.4,-119 1208.4,-126"/>
</a>
</g>
</g>
</g>
</svg>

<g id="navigator" transform="translate(0 0)" fill="#404254">
  <rect fill="#f2f5e9" fill-opacity="0.5" stroke="#606060" stroke-width=".5" x="0" y="0" width="60" height="60"/>
  <use id="zoomplus" xlink:href="#zoomPlus" x="17" y="9" onmousedown="handleZoom(evt,'in')"/>
  <use id="zoomminus" xlink:href="#zoomMin" x="42" y="9" onmousedown="handleZoom(evt,'out')"/>
  <use id="reset" xlink:href="#resetDef" x="30" y="36" onmousedown="handleReset()"/>
   <use id="arrowup" xlink:href="#arrowUp" x="0" y="0" onmousedown="handlePan(0,-1)"/>
  <use id="arrowright" xlink:href="#arrowRight" x="0" y="0" onmousedown="handlePan(1,0)"/>
  <use id="arrowdown" xlink:href="#arrowDown" x="0" y="0" onmousedown="handlePan(0,1)"/>
  <use id="arrowleft" xlink:href="#arrowLeft" x="0" y="0" onmousedown="handlePan(-1,0)"/>
</g>
<svg viewBox="0 0 15 15" width="100%" height="30px" preserveAspectRatio="xMaxYMin meet">
 <g id="arrow_out" transform="scale(0.3 0.3)">
  <a xlink:href="classGameUI_1_1PortMenu_a99e204a4bf92bc4e563547d8d5f2013a_cgraph_org.svg" target="_base">
   <rect id="button" ry="5" rx="5" y="6" x="6" height="38" width="38"
        fill="#f2f5e9" fill-opacity="0.5" stroke="#606060" stroke-width="1.0"/>
   <path id="arrow"
     d="M 11.500037,31.436501 C 11.940474,20.09759 22.043105,11.32322 32.158766,21.979434 L 37.068811,17.246167 C 37.068811,17.246167 37.088388,32 37.088388,32 L 22.160133,31.978069 C 22.160133,31.978069 26.997745,27.140456 26.997745,27.140456 C 18.528582,18.264221 13.291696,25.230495 11.500037,31.436501 z"
     style="fill:#404040;"/>
  </a>
 </g>
</svg>

<style type='text/css'>
<![CDATA[
[data-mouse-over-selected='false'] { opacity: 0.7; }
[data-mouse-over-selected='true']  { opacity: 1.0; }
]]>
</style>
<script type="application/ecmascript"><![CDATA[
document.addEventListener('DOMContentLoaded', (event) => {
  highlightEdges();
  highlightAdjacentNodes();
});
]]></script>
</svg>
