<?xml version="1.0" encoding="UTF-8" standalone="no"?>
<!DOCTYPE svg PUBLIC "-//W3C//DTD SVG 1.1//EN"
 "http://www.w3.org/Graphics/SVG/1.1/DTD/svg11.dtd">
<!-- Generated by graphviz version 2.43.0 (0)
 -->
<!-- Title: Cup Pages: 1 -->
<svg width="402pt" height="93pt"
 viewBox="0.00 0.00 402.00 93.00" xmlns="http://www.w3.org/2000/svg" xmlns:xlink="http://www.w3.org/1999/xlink">
<g id="graph0" class="graph" transform="scale(1 1) rotate(0) translate(4 89)">
<title>Cup</title>
<!-- Node1 -->
<g id="Node000001" class="node">
<title>Node1</title>
<g id="a_Node000001"><a xlink:title=" ">
<polygon fill="#999999" stroke="#666666" points="180.5,-19 145.5,-19 145.5,0 180.5,0 180.5,-19"/>
<text text-anchor="middle" x="163" y="-7" font-family="Helvetica,sans-Serif" font-size="10.00">Cup</text>
</a>
</g>
</g>
<!-- Node2 -->
<g id="Node000002" class="node">
<title>Node2</title>
<g id="a_Node000002"><a xlink:title=" ">
<polygon fill="white" stroke="#666666" points="44,-85 0,-85 0,-66 44,-66 44,-85"/>
<text text-anchor="middle" x="22" y="-73" font-family="Helvetica,sans-Serif" font-size="10.00">string</text>
</a>
</g>
</g>
<!-- Node2&#45;&gt;Node1 -->
<g id="edge1_Node000001_Node000002" class="edge">
<title>Node2&#45;&gt;Node1</title>
<g id="a_edge1_Node000001_Node000002"><a xlink:title=" ">
<path fill="none" stroke="#9a32cd" stroke-dasharray="5,2" d="M48.44,-61.38C63.47,-54.03 82.69,-44.79 100,-37 115.15,-30.18 132.57,-22.89 145.25,-17.69"/>
<polygon fill="#9a32cd" stroke="#9a32cd" points="46.66,-58.36 39.23,-65.91 49.75,-64.64 46.66,-58.36"/>
</a>
</g>
<text text-anchor="middle" x="106.5" y="-40" font-family="Helvetica,sans-Serif" font-size="10.00" fill="grey"> Id</text>
</g>
<!-- Node3 -->
<g id="Node000003" class="node">
<title>Node3</title>
<g id="a_Node000003"><a xlink:title=" ">
<polygon fill="white" stroke="#666666" points="137.5,-85 62.5,-85 62.5,-66 137.5,-66 137.5,-85"/>
<text text-anchor="middle" x="100" y="-73" font-family="Helvetica,sans-Serif" font-size="10.00">const char *</text>
</a>
</g>
</g>
<!-- Node3&#45;&gt;Node1 -->
<g id="edge2_Node000001_Node000003" class="edge">
<title>Node3&#45;&gt;Node1</title>
<g id="a_edge2_Node000001_Node000003"><a xlink:title=" ">
<path fill="none" stroke="#9a32cd" stroke-dasharray="5,2" d="M110.4,-56.9C114.76,-50.27 120.17,-42.92 126,-37 132.76,-30.13 141.48,-23.79 148.76,-19.04"/>
<polygon fill="#9a32cd" stroke="#9a32cd" points="107.15,-55.5 104.83,-65.83 113.09,-59.2 107.15,-55.5"/>
</a>
</g>
<text text-anchor="middle" x="142.5" y="-40" font-family="Helvetica,sans-Serif" font-size="10.00" fill="grey"> Name</text>
</g>
<!-- Node4 -->
<g id="Node000004" class="node">
<title>Node4</title>
<g id="a_Node000004"><a xlink:title=" ">
<polygon fill="white" stroke="#666666" points="184.5,-85 155.5,-85 155.5,-66 184.5,-66 184.5,-85"/>
<text text-anchor="middle" x="170" y="-73" font-family="Helvetica,sans-Serif" font-size="10.00">u8</text>
</a>
</g>
</g>
<!-- Node4&#45;&gt;Node1 -->
<g id="edge3_Node000001_Node000004" class="edge">
<title>Node4&#45;&gt;Node1</title>
<g id="a_edge3_Node000001_Node000004"><a xlink:title=" ">
<path fill="none" stroke="#9a32cd" stroke-dasharray="5,2" d="M165.28,-55.76C164.77,-53.17 164.32,-50.53 164,-48 162.77,-38.18 162.65,-26.8 162.75,-19.18"/>
<polygon fill="#9a32cd" stroke="#9a32cd" points="161.92,-56.78 167.56,-65.74 168.75,-55.21 161.92,-56.78"/>
</a>
</g>
<text text-anchor="middle" x="191.5" y="-40" font-family="Helvetica,sans-Serif" font-size="10.00" fill="grey"> Thumbnail</text>
</g>
<!-- Node5 -->
<g id="Node000005" class="node">
<title>Node5</title>
<g id="a_Node000005"><a xlink:title=" ">
<polygon fill="white" stroke="#666666" points="263.5,-85 218.5,-85 218.5,-66 263.5,-66 263.5,-85"/>
<text text-anchor="middle" x="241" y="-73" font-family="Helvetica,sans-Serif" font-size="10.00">size_t</text>
</a>
</g>
</g>
<!-- Node5&#45;&gt;Node1 -->
<g id="edge4_Node000001_Node000005" class="edge">
<title>Node5&#45;&gt;Node1</title>
<g id="a_edge4_Node000001_Node000005"><a xlink:title=" ">
<path fill="none" stroke="#9a32cd" stroke-dasharray="5,2" d="M233.29,-56.56C229.7,-49.78 224.91,-42.41 219,-37 208.05,-26.98 192.63,-20.06 180.75,-15.81"/>
<polygon fill="#9a32cd" stroke="#9a32cd" points="230.21,-58.23 237.66,-65.76 236.53,-55.23 230.21,-58.23"/>
</a>
</g>
<text text-anchor="middle" x="265" y="-40" font-family="Helvetica,sans-Serif" font-size="10.00" fill="grey"> CursorPosition</text>
</g>
<!-- Node6 -->
<g id="Node000006" class="node">
<title>Node6</title>
<g id="a_Node000006"><a xlink:title=" ">
<polygon fill="white" stroke="#666666" points="394,-85 282,-85 282,-66 394,-66 394,-85"/>
<text text-anchor="middle" x="338" y="-73" font-family="Helvetica,sans-Serif" font-size="10.00">vector&lt; Course * &gt;</text>
</a>
</g>
</g>
<!-- Node6&#45;&gt;Node1 -->
<g id="edge5_Node000001_Node000006" class="edge">
<title>Node6&#45;&gt;Node1</title>
<g id="a_edge5_Node000001_Node000006"><a xlink:title=" ">
<path fill="none" stroke="#9a32cd" stroke-dasharray="5,2" d="M327.17,-57.17C321.71,-49.84 314.44,-41.88 306,-37 265.55,-13.64 208.88,-10.2 180.56,-10.09"/>
<polygon fill="#9a32cd" stroke="#9a32cd" points="324.56,-59.56 333.08,-65.85 330.34,-55.61 324.56,-59.56"/>
</a>
</g>
<text text-anchor="middle" x="340.5" y="-40" font-family="Helvetica,sans-Serif" font-size="10.00" fill="grey"> Courses</text>
</g>
</g>
</svg>
