<?xml version="1.0" encoding="UTF-8" standalone="no"?>
<!DOCTYPE svg PUBLIC "-//W3C//DTD SVG 1.1//EN"
 "http://www.w3.org/Graphics/SVG/1.1/DTD/svg11.dtd">
<!-- Generated by graphviz version 2.43.0 (0)
 -->
<!-- Title: TestCourse::BeginPlay Pages: 1 -->
<!--zoomable 569 -->

<svg id="main" version="1.1" xmlns="http://www.w3.org/2000/svg" xmlns:xlink="http://www.w3.org/1999/xlink" xml:space="preserve" onload="init(evt)">

<style type="text/css"><![CDATA[
.node, .edge {opacity: 0.7;}
.node.selected, .edge.selected {opacity: 1;}
.edge:hover path { stroke: red; }
.edge:hover polygon { stroke: red; fill: red; }
]]></style>

<defs>
  <circle id="rim" cx="0" cy="0" r="7"/>
  <circle id="rim2" cx="0" cy="0" r="3.5"/>
  <g id="zoomPlus">
    <use xlink:href="#rim" fill="#404040"><set attributeName="fill" to="#808080" begin="zoomplus.mouseover" end="zoomplus.mouseout"/></use>
    <path d="M-4,0h8M0,-4v8" fill="none" stroke="white" stroke-width="1.5" pointer-events="none"/>
  </g>
  <g id="zoomMin">
    <use xlink:href="#rim" fill="#404040"><set attributeName="fill" to="#808080" begin="zoomminus.mouseover" end="zoomminus.mouseout"/></use>
    <path d="M-4,0h8" fill="none" stroke="white" stroke-width="1.5" pointer-events="none"/>
  </g>
  <g id="arrowUp" transform="translate(30 24)">
    <use xlink:href="#rim"/>
    <path pointer-events="none" fill="none" stroke="white" stroke-width="1.5" d="M0,-3.0v7 M-2.5,-0.5L0,-3.0L2.5,-0.5"/>
  </g>
  <g id="arrowRight" transform="rotate(90) translate(36 -43)">
    <use xlink:href="#rim"/>
    <path pointer-events="none" fill="none" stroke="white" stroke-width="1.5" d="M0,-3.0v7 M-2.5,-0.5L0,-3.0L2.5,-0.5"/>
  </g>
  <g id="arrowDown" transform="rotate(180) translate(-30 -48)">
    <use xlink:href="#rim"/>
    <path pointer-events="none" fill="none" stroke="white" stroke-width="1.5" d="M0,-3.0v7 M-2.5,-0.5L0,-3.0L2.5,-0.5"/>
  </g>
  <g id="arrowLeft" transform="rotate(270) translate(-36 17)">
    <use xlink:href="#rim"/>
    <path pointer-events="none" fill="none" stroke="white" stroke-width="1.5" d="M0,-3.0v7 M-2.5,-0.5L0,-3.0L2.5,-0.5"/>
  </g>
  <g id="resetDef">
    <use xlink:href="#rim2" fill="#404040"><set attributeName="fill" to="#808080" begin="reset.mouseover" end="reset.mouseout"/></use>
  </g>
</defs>
<script type="application/ecmascript">
var viewWidth = 1760;
var viewHeight = 569;
var sectionId = 'dynsection-3';
</script>
<script type="application/ecmascript" xlink:href="svg.min.js"/>
<svg id="graph" class="graph">
<g id="viewport">
<title>TestCourse::BeginPlay</title>
<!-- Node1 -->
<g id="Node000001" class="node">
<title>Node1</title>
<g id="a_Node000001"><a xlink:title=" ">
<polygon fill="#999999" stroke="#666666" points="125,-235.5 0,-235.5 0,-216.5 125,-216.5 125,-235.5"/>
<text text-anchor="middle" x="62.5" y="-223.5" font-family="Helvetica,sans-Serif" font-size="10.00">TestCourse::BeginPlay</text>
</a>
</g>
</g>
<!-- Node2 -->
<g id="Node000002" class="node">
<title>Node2</title>
<g id="a_Node000002"><a xlink:href="actors_8c.html#a91fb2e4e37e7c72fea918fe2c1bb4eaf" target="_top" xlink:title=" ">
<polygon fill="white" stroke="#666666" points="464,-235.5 324,-235.5 324,-216.5 464,-216.5 464,-235.5"/>
<text text-anchor="middle" x="394" y="-223.5" font-family="Helvetica,sans-Serif" font-size="10.00">add_actor_to_empty_slot</text>
</a>
</g>
</g>
<!-- Node1&#45;&gt;Node2 -->
<g id="edge1_Node000001_Node000002" class="edge">
<title>Node1&#45;&gt;Node2</title>
<g id="a_edge1_Node000001_Node000002"><a xlink:title=" ">
<path fill="none" stroke="#63b8ff" d="M125.09,-226C178.33,-226 255.63,-226 313.52,-226"/>
<polygon fill="#63b8ff" stroke="#63b8ff" points="313.73,-229.5 323.73,-226 313.73,-222.5 313.73,-229.5"/>
</a>
</g>
</g>
<!-- Node22 -->
<g id="Node000022" class="node">
<title>Node22</title>
<g id="a_Node000022"><a xlink:href="math__util_8c.html#a79fd07a0971ec96a3ff0801963a2fa7f" target="_top" xlink:title=" ">
<polygon fill="white" stroke="#666666" points="956,-104.5 892,-104.5 892,-85.5 956,-85.5 956,-104.5"/>
<text text-anchor="middle" x="924" y="-92.5" font-family="Helvetica,sans-Serif" font-size="10.00">vec3f_set</text>
</a>
</g>
</g>
<!-- Node1&#45;&gt;Node22 -->
<g id="edge42_Node000001_Node000022" class="edge">
<title>Node1&#45;&gt;Node22</title>
<g id="a_edge42_Node000001_Node000022"><a xlink:title=" ">
<path fill="none" stroke="#63b8ff" d="M68.57,-216.15C81.22,-192.42 116.38,-131.35 161,-95 247.38,-24.63 281.58,0 393,0 393,0 393,0 570,0 693.54,0 833.31,-54.93 893.19,-81.25"/>
<polygon fill="#63b8ff" stroke="#63b8ff" points="891.88,-84.5 902.44,-85.37 894.72,-78.1 891.88,-84.5"/>
</a>
</g>
</g>
<!-- Node29 -->
<g id="Node000029" class="node">
<title>Node29</title>
<g id="a_Node000029"><a xlink:href="collision_8c.html#ad95e9ed2051529d5edee26109fa07427" target="_top" xlink:title=" ">
<polygon fill="white" stroke="#666666" points="462.5,-373.5 325.5,-373.5 325.5,-354.5 462.5,-354.5 462.5,-373.5"/>
<text text-anchor="middle" x="394" y="-361.5" font-family="Helvetica,sans-Serif" font-size="10.00">spawn_actor_on_surface</text>
</a>
</g>
</g>
<!-- Node1&#45;&gt;Node29 -->
<g id="edge28_Node000001_Node000029" class="edge">
<title>Node1&#45;&gt;Node29</title>
<g id="a_edge28_Node000001_Node000029"><a xlink:title=" ">
<path fill="none" stroke="#63b8ff" d="M86.41,-235.59C143.88,-259.66 294.31,-322.67 360.71,-350.47"/>
<polygon fill="#63b8ff" stroke="#63b8ff" points="359.67,-353.83 370.24,-354.47 362.37,-347.38 359.67,-353.83"/>
</a>
</g>
</g>
<!-- Node32 -->
<g id="Node000032" class="node">
<title>Node32</title>
<g id="a_Node000032"><a xlink:href="actors_8c.html#ac586c2534258d0f108e15fd88751b760" target="_top" xlink:title=" ">
<polygon fill="white" stroke="#666666" points="288,-402.5 161,-402.5 161,-383.5 288,-383.5 288,-402.5"/>
<text text-anchor="middle" x="224.5" y="-390.5" font-family="Helvetica,sans-Serif" font-size="10.00">spawn_all_item_boxes</text>
</a>
</g>
</g>
<!-- Node1&#45;&gt;Node32 -->
<g id="edge31_Node000001_Node000032" class="edge">
<title>Node1&#45;&gt;Node32</title>
<g id="a_edge31_Node000001_Node000032"><a xlink:title=" ">
<path fill="none" stroke="#63b8ff" d="M69.77,-235.71C84.16,-257.55 121.38,-311.57 161,-349 172.45,-359.82 186.73,-370.07 198.74,-377.95"/>
<polygon fill="#63b8ff" stroke="#63b8ff" points="197.09,-381.05 207.4,-383.48 200.86,-375.15 197.09,-381.05"/>
</a>
</g>
</g>
<!-- Node34 -->
<g id="Node000034" class="node">
<title>Node34</title>
<g id="a_Node000034"><a xlink:href="falling__rock_2update_8inc_8c.html#ad18c14dd8d45f1315a6ed69f8ba9cdd3" target="_top" xlink:title=" ">
<polygon fill="white" stroke="#666666" points="282.5,-123.5 166.5,-123.5 166.5,-104.5 282.5,-104.5 282.5,-123.5"/>
<text text-anchor="middle" x="224.5" y="-111.5" font-family="Helvetica,sans-Serif" font-size="10.00">spawn_falling_rocks</text>
</a>
</g>
</g>
<!-- Node1&#45;&gt;Node34 -->
<g id="edge37_Node000001_Node000034" class="edge">
<title>Node1&#45;&gt;Node34</title>
<g id="a_edge37_Node000001_Node000034"><a xlink:title=" ">
<path fill="none" stroke="#63b8ff" d="M77.14,-216.45C104.89,-197.03 168.11,-152.77 201.66,-129.29"/>
<polygon fill="#63b8ff" stroke="#63b8ff" points="203.71,-132.13 209.89,-123.52 199.69,-126.39 203.71,-132.13"/>
</a>
</g>
</g>
<!-- Node3 -->
<g id="Node000003" class="node">
<title>Node3</title>
<g id="a_Node000003"><a xlink:href="actors_8c.html#a39c023177b5a7686cdd1fc65b8b953e1" target="_top" xlink:title=" ">
<polygon fill="white" stroke="#666666" points="600,-309.5 538,-309.5 538,-290.5 600,-290.5 600,-309.5"/>
<text text-anchor="middle" x="569" y="-297.5" font-family="Helvetica,sans-Serif" font-size="10.00">actor_init</text>
</a>
</g>
</g>
<!-- Node2&#45;&gt;Node3 -->
<g id="edge2_Node000002_Node000003" class="edge">
<title>Node2&#45;&gt;Node3</title>
<g id="a_edge2_Node000002_Node000003"><a xlink:title=" ">
<path fill="none" stroke="#63b8ff" d="M410.87,-235.66C431.01,-247.61 467.1,-267.95 500,-281 508.87,-284.52 518.63,-287.65 527.93,-290.31"/>
<polygon fill="#63b8ff" stroke="#63b8ff" points="527.19,-293.74 537.76,-293.01 529.04,-286.99 527.19,-293.74"/>
</a>
</g>
</g>
<!-- Node25 -->
<g id="Node000025" class="node">
<title>Node25</title>
<g id="a_Node000025"><a xlink:href="Game_8cpp.html#a42f23077aaa52cb3ea5c7803b7dd6816" target="_top" xlink:title=" ">
<polygon fill="white" stroke="#666666" points="622,-198.5 516,-198.5 516,-179.5 622,-179.5 622,-198.5"/>
<text text-anchor="middle" x="569" y="-186.5" font-family="Helvetica,sans-Serif" font-size="10.00">CM_AddBaseActor</text>
</a>
</g>
</g>
<!-- Node2&#45;&gt;Node25 -->
<g id="edge24_Node000002_Node000025" class="edge">
<title>Node2&#45;&gt;Node25</title>
<g id="a_edge24_Node000002_Node000025"><a xlink:title=" ">
<path fill="none" stroke="#63b8ff" d="M439.55,-216.47C462.07,-211.66 489.58,-205.77 513.36,-200.69"/>
<polygon fill="#63b8ff" stroke="#63b8ff" points="514.25,-204.07 523.3,-198.56 512.79,-197.23 514.25,-204.07"/>
</a>
</g>
</g>
<!-- Node26 -->
<g id="Node000026" class="node">
<title>Node26</title>
<g id="a_Node000026"><a xlink:href="Game_8cpp.html#aab23ecf7032de4618ff75c395d8fccf1" target="_top" xlink:title=" ">
<polygon fill="white" stroke="#666666" points="627,-161.5 511,-161.5 511,-142.5 627,-142.5 627,-161.5"/>
<text text-anchor="middle" x="569" y="-149.5" font-family="Helvetica,sans-Serif" font-size="10.00">CM_AddEditorObject</text>
</a>
</g>
</g>
<!-- Node2&#45;&gt;Node26 -->
<g id="edge25_Node000002_Node000026" class="edge">
<title>Node2&#45;&gt;Node26</title>
<g id="a_edge25_Node000002_Node000026"><a xlink:title=" ">
<path fill="none" stroke="#63b8ff" d="M410.12,-216.49C430.06,-204.29 466.54,-183.15 500,-170 505.11,-167.99 510.53,-166.13 515.99,-164.43"/>
<polygon fill="#63b8ff" stroke="#63b8ff" points="517.19,-167.73 525.79,-161.55 515.21,-161.01 517.19,-167.73"/>
</a>
</g>
</g>
<!-- Node27 -->
<g id="Node000027" class="node">
<title>Node27</title>
<g id="a_Node000027"><a xlink:href="Game_8cpp.html#a0841ffe9a66e95aca42438b9d8ffc3d3" target="_top" xlink:title=" ">
<polygon fill="white" stroke="#666666" points="619.5,-272.5 518.5,-272.5 518.5,-253.5 619.5,-253.5 619.5,-272.5"/>
<text text-anchor="middle" x="569" y="-260.5" font-family="Helvetica,sans-Serif" font-size="10.00">CM_GetActorSize</text>
</a>
</g>
</g>
<!-- Node2&#45;&gt;Node27 -->
<g id="edge26_Node000002_Node000027" class="edge">
<title>Node2&#45;&gt;Node27</title>
<g id="a_edge26_Node000002_Node000027"><a xlink:title=" ">
<path fill="none" stroke="#63b8ff" d="M439.55,-235.53C462.07,-240.34 489.58,-246.23 513.36,-251.31"/>
<polygon fill="#63b8ff" stroke="#63b8ff" points="512.79,-254.77 523.3,-253.44 514.25,-247.93 512.79,-254.77"/>
</a>
</g>
</g>
<!-- Node28 -->
<g id="Node000028" class="node">
<title>Node28</title>
<g id="a_Node000028"><a xlink:href="actors_8c.html#a3d238d4f049ffbc555cb8a4dc93c9975" target="_top" xlink:title=" ">
<polygon fill="white" stroke="#666666" points="616.5,-235.5 521.5,-235.5 521.5,-216.5 616.5,-216.5 616.5,-235.5"/>
<text text-anchor="middle" x="569" y="-223.5" font-family="Helvetica,sans-Serif" font-size="10.00">get_actor_name</text>
</a>
</g>
</g>
<!-- Node2&#45;&gt;Node28 -->
<g id="edge27_Node000002_Node000028" class="edge">
<title>Node2&#45;&gt;Node28</title>
<g id="a_edge27_Node000002_Node000028"><a xlink:title=" ">
<path fill="none" stroke="#63b8ff" d="M464.37,-226C479.95,-226 496.3,-226 511.3,-226"/>
<polygon fill="#63b8ff" stroke="#63b8ff" points="511.43,-229.5 521.43,-226 511.43,-222.5 511.43,-229.5"/>
</a>
</g>
</g>
<!-- Node4 -->
<g id="Node000004" class="node">
<title>Node4</title>
<g id="a_Node000004"><a xlink:href="collision_8c.html#a37aa55b3768d001533ad75e7f1b8388a" target="_top" xlink:title=" ">
<polygon fill="white" stroke="#666666" points="815,-437.5 674,-437.5 674,-418.5 815,-418.5 815,-437.5"/>
<text text-anchor="middle" x="744.5" y="-425.5" font-family="Helvetica,sans-Serif" font-size="10.00">check_bounding_collision</text>
</a>
</g>
</g>
<!-- Node3&#45;&gt;Node4 -->
<g id="edge3_Node000003_Node000004" class="edge">
<title>Node3&#45;&gt;Node4</title>
<g id="a_edge3_Node000003_Node000004"><a xlink:title=" ">
<path fill="none" stroke="#63b8ff" d="M600.16,-304.84C612.49,-307.7 626.52,-312.16 638,-319 677.93,-342.78 712.94,-385.56 730.84,-409.86"/>
<polygon fill="#63b8ff" stroke="#63b8ff" points="728.15,-412.11 736.84,-418.18 733.83,-408.02 728.15,-412.11"/>
</a>
</g>
</g>
<!-- Node8 -->
<g id="Node000008" class="node">
<title>Node8</title>
<g id="a_Node000008"><a xlink:href="actors_8c.html#a1a9bccb586242555a9123ebd4ab70f2a" target="_top" xlink:title=" ">
<polygon fill="white" stroke="#666666" points="810.5,-496 678.5,-496 678.5,-466 810.5,-466 810.5,-496"/>
<text text-anchor="start" x="686.5" y="-484" font-family="Helvetica,sans-Serif" font-size="10.00">cleanup_red_and_green</text>
<text text-anchor="middle" x="744.5" y="-473" font-family="Helvetica,sans-Serif" font-size="10.00">_shells</text>
</a>
</g>
</g>
<!-- Node3&#45;&gt;Node8 -->
<g id="edge7_Node000003_Node000008" class="edge">
<title>Node3&#45;&gt;Node8</title>
<g id="a_edge7_Node000003_Node000008"><a xlink:title=" ">
<path fill="none" stroke="#63b8ff" d="M600.08,-301.88C613.29,-304.2 628.02,-309.04 638,-319 679.82,-360.75 636.16,-401.61 674,-447 678.39,-452.27 683.8,-456.79 689.64,-460.65"/>
<polygon fill="#63b8ff" stroke="#63b8ff" points="688.04,-463.77 698.44,-465.84 691.6,-457.74 688.04,-463.77"/>
</a>
</g>
</g>
<!-- Node21 -->
<g id="Node000021" class="node">
<title>Node21</title>
<g id="a_Node000021"><a xlink:href="collision_8c.html#ad72fef3ffe32191d73b1822f512ebf3f" target="_top" xlink:title=" ">
<polygon fill="white" stroke="#666666" points="792,-123.5 697,-123.5 697,-104.5 792,-104.5 792,-123.5"/>
<text text-anchor="middle" x="744.5" y="-111.5" font-family="Helvetica,sans-Serif" font-size="10.00">func_802AAAAC</text>
</a>
</g>
</g>
<!-- Node3&#45;&gt;Node21 -->
<g id="edge20_Node000003_Node000021" class="edge">
<title>Node3&#45;&gt;Node21</title>
<g id="a_edge20_Node000003_Node000021"><a xlink:title=" ">
<path fill="none" stroke="#63b8ff" d="M600.23,-296.44C612.85,-293.78 627.09,-289.12 638,-281 690.6,-241.84 723.48,-168.01 736.76,-133.15"/>
<polygon fill="#63b8ff" stroke="#63b8ff" points="740.08,-134.25 740.25,-123.66 733.51,-131.84 740.08,-134.25"/>
</a>
</g>
</g>
<!-- Node23 -->
<g id="Node000023" class="node">
<title>Node23</title>
<g id="a_Node000023"><a xlink:href="math__util_8c.html#af7b470ed76fce07b8042a47c96e5690b" target="_top" xlink:title=" ">
<polygon fill="white" stroke="#666666" points="798,-327.5 691,-327.5 691,-308.5 798,-308.5 798,-327.5"/>
<text text-anchor="middle" x="744.5" y="-315.5" font-family="Helvetica,sans-Serif" font-size="10.00">vec3f_copy_return</text>
</a>
</g>
</g>
<!-- Node3&#45;&gt;Node23 -->
<g id="edge22_Node000003_Node000023" class="edge">
<title>Node3&#45;&gt;Node23</title>
<g id="a_edge22_Node000003_Node000023"><a xlink:title=" ">
<path fill="none" stroke="#63b8ff" d="M600.22,-303.14C622.35,-305.43 653.16,-308.63 680.55,-311.47"/>
<polygon fill="#63b8ff" stroke="#63b8ff" points="680.54,-314.99 690.85,-312.54 681.26,-308.02 680.54,-314.99"/>
</a>
</g>
</g>
<!-- Node24 -->
<g id="Node000024" class="node">
<title>Node24</title>
<g id="a_Node000024"><a xlink:href="math__util_8c.html#a0e270ee67600c8c9c2f140c647d008a1" target="_top" xlink:title=" ">
<polygon fill="white" stroke="#666666" points="781.5,-290.5 707.5,-290.5 707.5,-271.5 781.5,-271.5 781.5,-290.5"/>
<text text-anchor="middle" x="744.5" y="-278.5" font-family="Helvetica,sans-Serif" font-size="10.00">vec3s_copy</text>
</a>
</g>
</g>
<!-- Node3&#45;&gt;Node24 -->
<g id="edge23_Node000003_Node000024" class="edge">
<title>Node3&#45;&gt;Node24</title>
<g id="a_edge23_Node000003_Node000024"><a xlink:title=" ">
<path fill="none" stroke="#63b8ff" d="M600.22,-296.69C627,-293.76 666.51,-289.43 697.26,-286.06"/>
<polygon fill="#63b8ff" stroke="#63b8ff" points="697.76,-289.53 707.32,-284.96 697,-282.57 697.76,-289.53"/>
</a>
</g>
</g>
<!-- Node5 -->
<g id="Node000005" class="node">
<title>Node5</title>
<g id="a_Node000005"><a xlink:href="collision_8c.html#ac312bf382cb40752f6b790a99e7cdcb6" target="_top" xlink:title=" ">
<polygon fill="white" stroke="#666666" points="978,-363.5 870,-363.5 870,-344.5 978,-344.5 978,-363.5"/>
<text text-anchor="middle" x="924" y="-351.5" font-family="Helvetica,sans-Serif" font-size="10.00">check_collision_yx</text>
</a>
</g>
</g>
<!-- Node4&#45;&gt;Node5 -->
<g id="edge4_Node000004_Node000005" class="edge">
<title>Node4&#45;&gt;Node5</title>
<g id="a_edge4_Node000004_Node000005"><a xlink:title=" ">
<path fill="none" stroke="#63b8ff" d="M781.69,-418.49C792.78,-414.8 804.75,-410 815,-404 833.47,-393.19 832.07,-382 851,-372 854.55,-370.12 858.31,-368.44 862.16,-366.92"/>
<polygon fill="#63b8ff" stroke="#63b8ff" points="863.62,-370.12 871.89,-363.5 861.3,-363.52 863.62,-370.12"/>
</a>
</g>
</g>
<!-- Node6 -->
<g id="Node000006" class="node">
<title>Node6</title>
<g id="a_Node000006"><a xlink:href="collision_8c.html#a4b48832a90e984536a0635a016ec4f28" target="_top" xlink:title=" ">
<polygon fill="white" stroke="#666666" points="977.5,-437.5 870.5,-437.5 870.5,-418.5 977.5,-418.5 977.5,-437.5"/>
<text text-anchor="middle" x="924" y="-425.5" font-family="Helvetica,sans-Serif" font-size="10.00">check_collision_zx</text>
</a>
</g>
</g>
<!-- Node4&#45;&gt;Node6 -->
<g id="edge5_Node000004_Node000006" class="edge">
<title>Node4&#45;&gt;Node6</title>
<g id="a_edge5_Node000004_Node000006"><a xlink:title=" ">
<path fill="none" stroke="#63b8ff" d="M815.14,-428C829.91,-428 845.43,-428 859.94,-428"/>
<polygon fill="#63b8ff" stroke="#63b8ff" points="860.3,-431.5 870.3,-428 860.3,-424.5 860.3,-431.5"/>
</a>
</g>
</g>
<!-- Node7 -->
<g id="Node000007" class="node">
<title>Node7</title>
<g id="a_Node000007"><a xlink:href="collision_8c.html#a21fef964ab48191a1c0341954ef27a40" target="_top" xlink:title=" ">
<polygon fill="white" stroke="#666666" points="977.5,-400.5 870.5,-400.5 870.5,-381.5 977.5,-381.5 977.5,-400.5"/>
<text text-anchor="middle" x="924" y="-388.5" font-family="Helvetica,sans-Serif" font-size="10.00">check_collision_zy</text>
</a>
</g>
</g>
<!-- Node4&#45;&gt;Node7 -->
<g id="edge6_Node000004_Node000007" class="edge">
<title>Node4&#45;&gt;Node7</title>
<g id="a_edge6_Node000004_Node000007"><a xlink:title=" ">
<path fill="none" stroke="#63b8ff" d="M791.21,-418.47C814.41,-413.64 842.79,-407.72 867.27,-402.62"/>
<polygon fill="#63b8ff" stroke="#63b8ff" points="868.06,-406.03 877.14,-400.56 866.63,-399.17 868.06,-406.03"/>
</a>
</g>
</g>
<!-- Node9 -->
<g id="Node000009" class="node">
<title>Node9</title>
<g id="a_Node000009"><a xlink:href="Game_8cpp.html#a693de7d8b89fe291aafea86bc64a0a2e" target="_top" xlink:title=" ">
<polygon fill="white" stroke="#666666" points="964,-560.5 884,-560.5 884,-541.5 964,-541.5 964,-560.5"/>
<text text-anchor="middle" x="924" y="-548.5" font-family="Helvetica,sans-Serif" font-size="10.00">CM_GetActor</text>
</a>
</g>
</g>
<!-- Node8&#45;&gt;Node9 -->
<g id="edge8_Node000008_Node000009" class="edge">
<title>Node8&#45;&gt;Node9</title>
<g id="a_edge8_Node000008_Node000009"><a xlink:title=" ">
<path fill="none" stroke="#63b8ff" d="M773.07,-496.14C793.99,-507.18 823.71,-521.91 851,-532 858.33,-534.71 866.22,-537.2 873.99,-539.42"/>
<polygon fill="#63b8ff" stroke="#63b8ff" points="873.14,-542.82 883.71,-542.09 875,-536.07 873.14,-542.82"/>
</a>
</g>
</g>
<!-- Node10 -->
<g id="Node000010" class="node">
<title>Node10</title>
<g id="a_Node000010"><a xlink:href="code__80005FD0_8c.html#ad301b978cdd3c4cc190b10be050d51d8" target="_top" xlink:title=" ">
<polygon fill="white" stroke="#666666" points="997,-523 851,-523 851,-493 997,-493 997,-523"/>
<text text-anchor="start" x="859" y="-511" font-family="Helvetica,sans-Serif" font-size="10.00">delete_actor_in_unexpired</text>
<text text-anchor="middle" x="924" y="-500" font-family="Helvetica,sans-Serif" font-size="10.00">_actor_list</text>
</a>
</g>
</g>
<!-- Node8&#45;&gt;Node10 -->
<g id="edge9_Node000008_Node000010" class="edge">
<title>Node8&#45;&gt;Node10</title>
<g id="a_edge9_Node000008_Node000010"><a xlink:title=" ">
<path fill="none" stroke="#63b8ff" d="M810.59,-490.9C820.38,-492.39 830.59,-493.94 840.69,-495.48"/>
<polygon fill="#63b8ff" stroke="#63b8ff" points="840.32,-498.96 850.73,-497.01 841.37,-492.04 840.32,-498.96"/>
</a>
</g>
</g>
<!-- Node11 -->
<g id="Node000011" class="node">
<title>Node11</title>
<g id="a_Node000011"><a xlink:href="actors_8c.html#a694ec6ef7548b8618aeb35c038d3a9b9" target="_top" xlink:title=" ">
<polygon fill="white" stroke="#666666" points="965.5,-474.5 882.5,-474.5 882.5,-455.5 965.5,-455.5 965.5,-474.5"/>
<text text-anchor="middle" x="924" y="-462.5" font-family="Helvetica,sans-Serif" font-size="10.00">destroy_actor</text>
</a>
</g>
</g>
<!-- Node8&#45;&gt;Node11 -->
<g id="edge10_Node000008_Node000011" class="edge">
<title>Node8&#45;&gt;Node11</title>
<g id="a_edge10_Node000008_Node000011"><a xlink:title=" ">
<path fill="none" stroke="#63b8ff" d="M810.59,-475.13C830.97,-473.3 853.14,-471.3 872.37,-469.56"/>
<polygon fill="#63b8ff" stroke="#63b8ff" points="872.78,-473.04 882.43,-468.66 872.15,-466.07 872.78,-473.04"/>
</a>
</g>
</g>
<!-- Node12 -->
<g id="Node000012" class="node">
<title>Node12</title>
<g id="a_Node000012"><a xlink:href="actors_8c.html#a12dc3ccac4c7d8569eadac0af4fd6f9f" target="_top" xlink:title=" ">
<polygon fill="white" stroke="#666666" points="1191,-474.5 1033,-474.5 1033,-455.5 1191,-455.5 1191,-474.5"/>
<text text-anchor="middle" x="1112" y="-462.5" font-family="Helvetica,sans-Serif" font-size="10.00">play_sound_before_despawn</text>
</a>
</g>
</g>
<!-- Node11&#45;&gt;Node12 -->
<g id="edge11_Node000011_Node000012" class="edge">
<title>Node11&#45;&gt;Node12</title>
<g id="a_edge11_Node000011_Node000012"><a xlink:title=" ">
<path fill="none" stroke="#63b8ff" d="M965.82,-465C982.65,-465 1002.86,-465 1022.77,-465"/>
<polygon fill="#63b8ff" stroke="#63b8ff" points="1022.82,-468.5 1032.82,-465 1022.82,-461.5 1022.82,-468.5"/>
</a>
</g>
</g>
<!-- Node13 -->
<g id="Node000013" class="node">
<title>Node13</title>
<g id="a_Node000013"><a xlink:href="external_8c.html#ae72057869772019e4464c87d4e16c682" target="_top" xlink:title=" ">
<polygon fill="white" stroke="#666666" points="1319,-474.5 1227,-474.5 1227,-455.5 1319,-455.5 1319,-474.5"/>
<text text-anchor="middle" x="1273" y="-462.5" font-family="Helvetica,sans-Serif" font-size="10.00">func_800C99E0</text>
</a>
</g>
</g>
<!-- Node12&#45;&gt;Node13 -->
<g id="edge12_Node000012_Node000013" class="edge">
<title>Node12&#45;&gt;Node13</title>
<g id="a_edge12_Node000012_Node000013"><a xlink:title=" ">
<path fill="none" stroke="#63b8ff" d="M1191.1,-465C1199.72,-465 1208.35,-465 1216.61,-465"/>
<polygon fill="#63b8ff" stroke="#63b8ff" points="1216.83,-468.5 1226.83,-465 1216.83,-461.5 1216.83,-468.5"/>
</a>
</g>
</g>
<!-- Node14 -->
<g id="Node000014" class="node">
<title>Node14</title>
<g id="a_Node000014"><a xlink:href="external_8c.html#aeb87c527482a244173df36a1f3d4f446" target="_top" xlink:title=" ">
<polygon fill="white" stroke="#666666" points="1447,-493.5 1355,-493.5 1355,-474.5 1447,-474.5 1447,-493.5"/>
<text text-anchor="middle" x="1401" y="-481.5" font-family="Helvetica,sans-Serif" font-size="10.00">func_800C21E8</text>
</a>
</g>
</g>
<!-- Node13&#45;&gt;Node14 -->
<g id="edge13_Node000013_Node000014" class="edge">
<title>Node13&#45;&gt;Node14</title>
<g id="a_edge13_Node000013_Node000014"><a xlink:title=" ">
<path fill="none" stroke="#63b8ff" d="M1319.13,-471.81C1327.46,-473.06 1336.23,-474.38 1344.81,-475.68"/>
<polygon fill="#63b8ff" stroke="#63b8ff" points="1344.35,-479.15 1354.76,-477.18 1345.39,-472.23 1344.35,-479.15"/>
</a>
</g>
</g>
<!-- Node15 -->
<g id="Node000015" class="node">
<title>Node15</title>
<g id="a_Node000015"><a xlink:href="external_8c.html#a028d40421b90c38f68ebfd5acc626f2e" target="_top" xlink:title=" ">
<polygon fill="white" stroke="#666666" points="1447,-456.5 1355,-456.5 1355,-437.5 1447,-437.5 1447,-456.5"/>
<text text-anchor="middle" x="1401" y="-444.5" font-family="Helvetica,sans-Serif" font-size="10.00">func_800C5578</text>
</a>
</g>
</g>
<!-- Node13&#45;&gt;Node15 -->
<g id="edge14_Node000013_Node000015" class="edge">
<title>Node13&#45;&gt;Node15</title>
<g id="a_edge14_Node000013_Node000015"><a xlink:title=" ">
<path fill="none" stroke="#63b8ff" d="M1319.13,-458.55C1327.46,-457.36 1336.23,-456.11 1344.81,-454.88"/>
<polygon fill="#63b8ff" stroke="#63b8ff" points="1345.35,-458.34 1354.76,-453.46 1344.36,-451.41 1345.35,-458.34"/>
</a>
</g>
</g>
<!-- Node16 -->
<g id="Node000016" class="node">
<title>Node16</title>
<g id="a_Node000016"><a xlink:href="external_8c.html#ac0fb767de7e14a03f1bcfa53f0abd23b" target="_top" xlink:title=" ">
<polygon fill="white" stroke="#666666" points="1623,-493.5 1483,-493.5 1483,-474.5 1623,-474.5 1623,-493.5"/>
<text text-anchor="middle" x="1553" y="-481.5" font-family="Helvetica,sans-Serif" font-size="10.00">delete_sound_from_bank</text>
</a>
</g>
</g>
<!-- Node15&#45;&gt;Node16 -->
<g id="edge15_Node000015_Node000016" class="edge">
<title>Node15&#45;&gt;Node16</title>
<g id="a_edge15_Node000015_Node000016"><a xlink:title=" ">
<path fill="none" stroke="#63b8ff" d="M1440.63,-456.53C1459.8,-461.26 1483.16,-467.02 1503.52,-472.04"/>
<polygon fill="#63b8ff" stroke="#63b8ff" points="1502.69,-475.44 1513.24,-474.44 1504.37,-468.65 1502.69,-475.44"/>
</a>
</g>
</g>
<!-- Node18 -->
<g id="Node000018" class="node">
<title>Node18</title>
<g id="a_Node000018"><a xlink:href="external_8c.html#ab83bd36e63f0f1baddcb2482b5ad31b0" target="_top" xlink:title=" ">
<polygon fill="white" stroke="#666666" points="1599.5,-456.5 1506.5,-456.5 1506.5,-437.5 1599.5,-437.5 1599.5,-456.5"/>
<text text-anchor="middle" x="1553" y="-444.5" font-family="Helvetica,sans-Serif" font-size="10.00">func_800C41CC</text>
</a>
</g>
</g>
<!-- Node15&#45;&gt;Node18 -->
<g id="edge17_Node000015_Node000018" class="edge">
<title>Node15&#45;&gt;Node18</title>
<g id="a_edge17_Node000015_Node000018"><a xlink:title=" ">
<path fill="none" stroke="#63b8ff" d="M1447,-447C1462.37,-447 1479.74,-447 1495.86,-447"/>
<polygon fill="#63b8ff" stroke="#63b8ff" points="1496.25,-450.5 1506.25,-447 1496.25,-443.5 1496.25,-450.5"/>
</a>
</g>
</g>
<!-- Node19 -->
<g id="Node000019" class="node">
<title>Node19</title>
<g id="a_Node000019"><a xlink:href="port__eu_8c.html#aa89dfaecca46c6d071f08c1898d1f7c9" target="_top" xlink:title=" ">
<polygon fill="white" stroke="#666666" points="1599.5,-419.5 1506.5,-419.5 1506.5,-400.5 1599.5,-400.5 1599.5,-419.5"/>
<text text-anchor="middle" x="1553" y="-407.5" font-family="Helvetica,sans-Serif" font-size="10.00">func_800CBBE8</text>
</a>
</g>
</g>
<!-- Node15&#45;&gt;Node19 -->
<g id="edge18_Node000015_Node000019" class="edge">
<title>Node15&#45;&gt;Node19</title>
<g id="a_edge18_Node000015_Node000019"><a xlink:title=" ">
<path fill="none" stroke="#63b8ff" d="M1440.63,-437.47C1459.8,-432.74 1483.16,-426.98 1503.52,-421.96"/>
<polygon fill="#63b8ff" stroke="#63b8ff" points="1504.37,-425.35 1513.24,-419.56 1502.69,-418.56 1504.37,-425.35"/>
</a>
</g>
</g>
<!-- Node17 -->
<g id="Node000017" class="node">
<title>Node17</title>
<g id="a_Node000017"><a xlink:href="external_8c.html#a358ac55e8ab5262dcae8037334be06d7" target="_top" xlink:title=" ">
<polygon fill="white" stroke="#666666" points="1751.5,-493.5 1659.5,-493.5 1659.5,-474.5 1751.5,-474.5 1751.5,-493.5"/>
<text text-anchor="middle" x="1705.5" y="-481.5" font-family="Helvetica,sans-Serif" font-size="10.00">func_800C40F0</text>
</a>
</g>
</g>
<!-- Node16&#45;&gt;Node17 -->
<g id="edge16_Node000016_Node000017" class="edge">
<title>Node16&#45;&gt;Node17</title>
<g id="a_edge16_Node000016_Node000017"><a xlink:title=" ">
<path fill="none" stroke="#63b8ff" d="M1623.08,-484C1631.87,-484 1640.78,-484 1649.31,-484"/>
<polygon fill="#63b8ff" stroke="#63b8ff" points="1649.5,-487.5 1659.5,-484 1649.5,-480.5 1649.5,-487.5"/>
</a>
</g>
</g>
<!-- Node20 -->
<g id="Node000020" class="node">
<title>Node20</title>
<g id="a_Node000020"><a xlink:href="port__eu_8c.html#af361a20d2e08f30c53a237ca481ff734" target="_top" xlink:title=" ">
<polygon fill="white" stroke="#666666" points="1752,-419.5 1659,-419.5 1659,-400.5 1752,-400.5 1752,-419.5"/>
<text text-anchor="middle" x="1705.5" y="-407.5" font-family="Helvetica,sans-Serif" font-size="10.00">func_800CBB48</text>
</a>
</g>
</g>
<!-- Node19&#45;&gt;Node20 -->
<g id="edge19_Node000019_Node000020" class="edge">
<title>Node19&#45;&gt;Node20</title>
<g id="a_edge19_Node000019_Node000020"><a xlink:title=" ">
<path fill="none" stroke="#63b8ff" d="M1599.56,-410C1614.96,-410 1632.34,-410 1648.46,-410"/>
<polygon fill="#63b8ff" stroke="#63b8ff" points="1648.83,-413.5 1658.83,-410 1648.83,-406.5 1648.83,-413.5"/>
</a>
</g>
</g>
<!-- Node21&#45;&gt;Node22 -->
<g id="edge21_Node000021_Node000022" class="edge">
<title>Node21&#45;&gt;Node22</title>
<g id="a_edge21_Node000021_Node000022"><a xlink:title=" ">
<path fill="none" stroke="#63b8ff" d="M792.14,-109.01C819.88,-106.04 854.78,-102.3 881.56,-99.44"/>
<polygon fill="#63b8ff" stroke="#63b8ff" points="882.19,-102.89 891.76,-98.34 881.44,-95.93 882.19,-102.89"/>
</a>
</g>
</g>
<!-- Node30 -->
<g id="Node000030" class="node">
<title>Node30</title>
<g id="a_Node000030"><a xlink:href="collision_8c.html#a6527a2135a10909cdf9a1fd731be5628" target="_top" xlink:title=" ">
<polygon fill="white" stroke="#666666" points="638,-395.5 500,-395.5 500,-376.5 638,-376.5 638,-395.5"/>
<text text-anchor="middle" x="569" y="-383.5" font-family="Helvetica,sans-Serif" font-size="10.00">calculate_surface_height</text>
</a>
</g>
</g>
<!-- Node29&#45;&gt;Node30 -->
<g id="edge29_Node000029_Node000030" class="edge">
<title>Node29&#45;&gt;Node30</title>
<g id="a_edge29_Node000029_Node000030"><a xlink:title=" ">
<path fill="none" stroke="#63b8ff" d="M462.88,-372.63C471.68,-373.75 480.75,-374.91 489.71,-376.04"/>
<polygon fill="#63b8ff" stroke="#63b8ff" points="489.39,-379.53 499.75,-377.32 490.27,-372.59 489.39,-379.53"/>
</a>
</g>
</g>
<!-- Node31 -->
<g id="Node000031" class="node">
<title>Node31</title>
<g id="a_Node000031"><a xlink:href="collision_8c.html#a0fe340ccfe1d926a592ea9a0c84d7574" target="_top" xlink:title=" ">
<polygon fill="white" stroke="#666666" points="635,-358 503,-358 503,-328 635,-328 635,-358"/>
<text text-anchor="start" x="511" y="-346" font-family="Helvetica,sans-Serif" font-size="10.00">check_horizontally</text>
<text text-anchor="middle" x="569" y="-335" font-family="Helvetica,sans-Serif" font-size="10.00">_colliding_with_triangle</text>
</a>
</g>
</g>
<!-- Node29&#45;&gt;Node31 -->
<g id="edge30_Node000029_Node000031" class="edge">
<title>Node29&#45;&gt;Node31</title>
<g id="a_edge30_Node000029_Node000031"><a xlink:title=" ">
<path fill="none" stroke="#63b8ff" d="M462.88,-355.76C472.64,-354.58 482.74,-353.35 492.64,-352.15"/>
<polygon fill="#63b8ff" stroke="#63b8ff" points="493.36,-355.59 502.86,-350.91 492.52,-348.64 493.36,-355.59"/>
</a>
</g>
</g>
<!-- Node32&#45;&gt;Node2 -->
<g id="edge32_Node000032_Node000002" class="edge">
<title>Node32&#45;&gt;Node2</title>
<g id="a_edge32_Node000032_Node000002"><a xlink:title=" ">
<path fill="none" stroke="#63b8ff" d="M235.48,-383.05C263.12,-355.49 340.97,-277.88 375.79,-243.16"/>
<polygon fill="#63b8ff" stroke="#63b8ff" points="378.68,-245.22 383.29,-235.69 373.73,-240.27 378.68,-245.22"/>
</a>
</g>
</g>
<!-- Node32&#45;&gt;Node9 -->
<g id="edge33_Node000032_Node000009" class="edge">
<title>Node32&#45;&gt;Node9</title>
<g id="a_edge33_Node000032_Node000009"><a xlink:title=" ">
<path fill="none" stroke="#63b8ff" d="M232.9,-402.77C247.78,-421.62 283.43,-462.75 324,-481 512.97,-566.01 767.76,-561.42 873.66,-554.95"/>
<polygon fill="#63b8ff" stroke="#63b8ff" points="873.98,-558.44 883.74,-554.31 873.53,-551.46 873.98,-558.44"/>
</a>
</g>
</g>
<!-- Node32&#45;&gt;Node22 -->
<g id="edge36_Node000032_Node000022" class="edge">
<title>Node32&#45;&gt;Node22</title>
<g id="a_edge36_Node000032_Node000022"><a xlink:title=" ">
<path fill="none" stroke="#63b8ff" d="M288.17,-396.23C343.79,-398.92 427.28,-402.54 500,-404 643.2,-406.87 711,-434.48 815,-336 881.91,-272.64 910.32,-160.24 919.45,-114.84"/>
<polygon fill="#63b8ff" stroke="#63b8ff" points="922.93,-115.29 921.36,-104.81 916.05,-113.98 922.93,-115.29"/>
</a>
</g>
</g>
<!-- Node32&#45;&gt;Node29 -->
<g id="edge35_Node000032_Node000029" class="edge">
<title>Node32&#45;&gt;Node29</title>
<g id="a_edge35_Node000032_Node000029"><a xlink:title=" ">
<path fill="none" stroke="#63b8ff" d="M280.81,-383.42C295.9,-380.81 312.38,-377.96 327.95,-375.26"/>
<polygon fill="#63b8ff" stroke="#63b8ff" points="328.78,-378.67 338.03,-373.52 327.58,-371.77 328.78,-378.67"/>
</a>
</g>
</g>
<!-- Node33 -->
<g id="Node000033" class="node">
<title>Node33</title>
<g id="a_Node000033"><a xlink:href="math__util_8c.html#a062850863585005ad1d0a75d9ff70693" target="_top" xlink:title=" ">
<polygon fill="white" stroke="#666666" points="432.5,-471.5 355.5,-471.5 355.5,-452.5 432.5,-452.5 432.5,-471.5"/>
<text text-anchor="middle" x="394" y="-459.5" font-family="Helvetica,sans-Serif" font-size="10.00">random_u16</text>
</a>
</g>
</g>
<!-- Node32&#45;&gt;Node33 -->
<g id="edge34_Node000032_Node000033" class="edge">
<title>Node32&#45;&gt;Node33</title>
<g id="a_edge34_Node000032_Node000033"><a xlink:title=" ">
<path fill="none" stroke="#63b8ff" d="M244.89,-402.51C264.59,-412.02 296.08,-426.8 324,-438 333.62,-441.86 344.14,-445.7 353.99,-449.15"/>
<polygon fill="#63b8ff" stroke="#63b8ff" points="352.97,-452.5 363.57,-452.44 355.25,-445.88 352.97,-452.5"/>
</a>
</g>
</g>
<!-- Node34&#45;&gt;Node2 -->
<g id="edge38_Node000034_Node000002" class="edge">
<title>Node34&#45;&gt;Node2</title>
<g id="a_edge38_Node000034_Node000002"><a xlink:title=" ">
<path fill="none" stroke="#63b8ff" d="M239.78,-123.55C268.83,-142.97 335.02,-187.23 370.13,-210.71"/>
<polygon fill="#63b8ff" stroke="#63b8ff" points="368.5,-213.83 378.76,-216.48 372.39,-208.01 368.5,-213.83"/>
</a>
</g>
</g>
<!-- Node34&#45;&gt;Node21 -->
<g id="edge39_Node000034_Node000021" class="edge">
<title>Node34&#45;&gt;Node21</title>
<g id="a_edge39_Node000034_Node000021"><a xlink:title=" ">
<path fill="none" stroke="#63b8ff" d="M282.91,-114C382.77,-114 587.25,-114 686.68,-114"/>
<polygon fill="#63b8ff" stroke="#63b8ff" points="686.84,-117.5 696.84,-114 686.84,-110.5 686.84,-117.5"/>
</a>
</g>
</g>
<!-- Node34&#45;&gt;Node22 -->
<g id="edge40_Node000034_Node000022" class="edge">
<title>Node34&#45;&gt;Node22</title>
<g id="a_edge40_Node000034_Node000022"><a xlink:title=" ">
<path fill="none" stroke="#63b8ff" d="M282.82,-110.79C368.08,-106.2 533.36,-97.98 674,-95 747.08,-93.45 832.25,-93.95 881.66,-94.47"/>
<polygon fill="#63b8ff" stroke="#63b8ff" points="881.9,-97.97 891.94,-94.58 881.98,-90.97 881.9,-97.97"/>
</a>
</g>
</g>
<!-- Node35 -->
<g id="Node000035" class="node">
<title>Node35</title>
<g id="a_Node000035"><a xlink:href="math__util_8c.html#a9092c945c52b3a3481228b2724991e3c" target="_top" xlink:title=" ">
<polygon fill="white" stroke="#666666" points="426.5,-47.5 361.5,-47.5 361.5,-28.5 426.5,-28.5 426.5,-47.5"/>
<text text-anchor="middle" x="394" y="-35.5" font-family="Helvetica,sans-Serif" font-size="10.00">vec3s_set</text>
</a>
</g>
</g>
<!-- Node34&#45;&gt;Node35 -->
<g id="edge41_Node000034_Node000035" class="edge">
<title>Node34&#45;&gt;Node35</title>
<g id="a_edge41_Node000034_Node000035"><a xlink:title=" ">
<path fill="none" stroke="#63b8ff" d="M241.85,-104.38C261.1,-93.3 294.21,-74.96 324,-62 333.15,-58.02 343.19,-54.22 352.72,-50.87"/>
<polygon fill="#63b8ff" stroke="#63b8ff" points="354.07,-54.1 362.39,-47.54 351.8,-47.48 354.07,-54.1"/>
</a>
</g>
</g>
</g>
</svg>

<g id="navigator" transform="translate(0 0)" fill="#404254">
  <rect fill="#f2f5e9" fill-opacity="0.5" stroke="#606060" stroke-width=".5" x="0" y="0" width="60" height="60"/>
  <use id="zoomplus" xlink:href="#zoomPlus" x="17" y="9" onmousedown="handleZoom(evt,'in')"/>
  <use id="zoomminus" xlink:href="#zoomMin" x="42" y="9" onmousedown="handleZoom(evt,'out')"/>
  <use id="reset" xlink:href="#resetDef" x="30" y="36" onmousedown="handleReset()"/>
   <use id="arrowup" xlink:href="#arrowUp" x="0" y="0" onmousedown="handlePan(0,-1)"/>
  <use id="arrowright" xlink:href="#arrowRight" x="0" y="0" onmousedown="handlePan(1,0)"/>
  <use id="arrowdown" xlink:href="#arrowDown" x="0" y="0" onmousedown="handlePan(0,1)"/>
  <use id="arrowleft" xlink:href="#arrowLeft" x="0" y="0" onmousedown="handlePan(-1,0)"/>
</g>
<svg viewBox="0 0 15 15" width="100%" height="30px" preserveAspectRatio="xMaxYMin meet">
 <g id="arrow_out" transform="scale(0.3 0.3)">
  <a xlink:href="classTestCourse_a2e9ee67b0384ba842b8eca8697bac6f0_cgraph_org.svg" target="_base">
   <rect id="button" ry="5" rx="5" y="6" x="6" height="38" width="38"
        fill="#f2f5e9" fill-opacity="0.5" stroke="#606060" stroke-width="1.0"/>
   <path id="arrow"
     d="M 11.500037,31.436501 C 11.940474,20.09759 22.043105,11.32322 32.158766,21.979434 L 37.068811,17.246167 C 37.068811,17.246167 37.088388,32 37.088388,32 L 22.160133,31.978069 C 22.160133,31.978069 26.997745,27.140456 26.997745,27.140456 C 18.528582,18.264221 13.291696,25.230495 11.500037,31.436501 z"
     style="fill:#404040;"/>
  </a>
 </g>
</svg>

<style type='text/css'>
<![CDATA[
[data-mouse-over-selected='false'] { opacity: 0.7; }
[data-mouse-over-selected='true']  { opacity: 1.0; }
]]>
</style>
<script type="application/ecmascript"><![CDATA[
document.addEventListener('DOMContentLoaded', (event) => {
  highlightEdges();
  highlightAdjacentNodes();
});
]]></script>
</svg>
