<?xml version="1.0" encoding="UTF-8" standalone="no"?>
<!DOCTYPE svg PUBLIC "-//W3C//DTD SVG 1.1//EN"
 "http://www.w3.org/Graphics/SVG/1.1/DTD/svg11.dtd">
<!-- Generated by graphviz version 2.43.0 (0)
 -->
<!-- Title: PodiumCeremony::Load Pages: 1 -->
<!--zoomable 224 -->

<svg id="main" version="1.1" xmlns="http://www.w3.org/2000/svg" xmlns:xlink="http://www.w3.org/1999/xlink" xml:space="preserve" onload="init(evt)">

<style type="text/css"><![CDATA[
.node, .edge {opacity: 0.7;}
.node.selected, .edge.selected {opacity: 1;}
.edge:hover path { stroke: red; }
.edge:hover polygon { stroke: red; fill: red; }
]]></style>

<defs>
  <circle id="rim" cx="0" cy="0" r="7"/>
  <circle id="rim2" cx="0" cy="0" r="3.5"/>
  <g id="zoomPlus">
    <use xlink:href="#rim" fill="#404040"><set attributeName="fill" to="#808080" begin="zoomplus.mouseover" end="zoomplus.mouseout"/></use>
    <path d="M-4,0h8M0,-4v8" fill="none" stroke="white" stroke-width="1.5" pointer-events="none"/>
  </g>
  <g id="zoomMin">
    <use xlink:href="#rim" fill="#404040"><set attributeName="fill" to="#808080" begin="zoomminus.mouseover" end="zoomminus.mouseout"/></use>
    <path d="M-4,0h8" fill="none" stroke="white" stroke-width="1.5" pointer-events="none"/>
  </g>
  <g id="arrowUp" transform="translate(30 24)">
    <use xlink:href="#rim"/>
    <path pointer-events="none" fill="none" stroke="white" stroke-width="1.5" d="M0,-3.0v7 M-2.5,-0.5L0,-3.0L2.5,-0.5"/>
  </g>
  <g id="arrowRight" transform="rotate(90) translate(36 -43)">
    <use xlink:href="#rim"/>
    <path pointer-events="none" fill="none" stroke="white" stroke-width="1.5" d="M0,-3.0v7 M-2.5,-0.5L0,-3.0L2.5,-0.5"/>
  </g>
  <g id="arrowDown" transform="rotate(180) translate(-30 -48)">
    <use xlink:href="#rim"/>
    <path pointer-events="none" fill="none" stroke="white" stroke-width="1.5" d="M0,-3.0v7 M-2.5,-0.5L0,-3.0L2.5,-0.5"/>
  </g>
  <g id="arrowLeft" transform="rotate(270) translate(-36 17)">
    <use xlink:href="#rim"/>
    <path pointer-events="none" fill="none" stroke="white" stroke-width="1.5" d="M0,-3.0v7 M-2.5,-0.5L0,-3.0L2.5,-0.5"/>
  </g>
  <g id="resetDef">
    <use xlink:href="#rim2" fill="#404040"><set attributeName="fill" to="#808080" begin="reset.mouseover" end="reset.mouseout"/></use>
  </g>
</defs>
<script type="application/ecmascript">
var viewWidth = 903;
var viewHeight = 224;
var sectionId = 'dynsection-4';
</script>
<script type="application/ecmascript" xlink:href="svg.min.js"/>
<svg id="graph" class="graph">
<g id="viewport">
<title>PodiumCeremony::Load</title>
<!-- Node1 -->
<g id="Node000001" class="node">
<title>Node1</title>
<g id="a_Node000001"><a xlink:title=" ">
<polygon fill="#999999" stroke="#666666" points="132,-138 0,-138 0,-119 132,-119 132,-138"/>
<text text-anchor="middle" x="66" y="-126" font-family="Helvetica,sans-Serif" font-size="10.00">PodiumCeremony::Load</text>
</a>
</g>
</g>
<!-- Node2 -->
<g id="Node000002" class="node">
<title>Node2</title>
<g id="a_Node000002"><a xlink:href="render__courses_8c.html#ab02cdf6684f984a12e7388fe973bc89a" target="_top" xlink:title=" ">
<polygon fill="white" stroke="#666666" points="285,-161 193,-161 193,-142 285,-142 285,-161"/>
<text text-anchor="middle" x="239" y="-149" font-family="Helvetica,sans-Serif" font-size="10.00">func_80295C6C</text>
</a>
</g>
</g>
<!-- Node1&#45;&gt;Node2 -->
<g id="edge1_Node000001_Node000002" class="edge">
<title>Node1&#45;&gt;Node2</title>
<g id="a_edge1_Node000001_Node000002"><a xlink:title=" ">
<path fill="none" stroke="#63b8ff" d="M132.14,-137.26C148.78,-139.5 166.52,-141.89 182.63,-144.05"/>
<polygon fill="#63b8ff" stroke="#63b8ff" points="182.57,-147.58 192.95,-145.44 183.5,-140.64 182.57,-147.58"/>
</a>
</g>
</g>
<!-- Node6 -->
<g id="Node000006" class="node">
<title>Node6</title>
<g id="a_Node000006"><a xlink:href="render__courses_8c.html#a206a552c1a565c9737d6749aeee3e07b" target="_top" xlink:title=" ">
<polygon fill="white" stroke="#666666" points="310,-120 168,-120 168,-101 310,-101 310,-120"/>
<text text-anchor="middle" x="239" y="-108" font-family="Helvetica,sans-Serif" font-size="10.00">parse_course_displaylists</text>
</a>
</g>
</g>
<!-- Node1&#45;&gt;Node6 -->
<g id="edge5_Node000001_Node000006" class="edge">
<title>Node1&#45;&gt;Node6</title>
<g id="a_edge5_Node000001_Node000006"><a xlink:title=" ">
<path fill="none" stroke="#63b8ff" d="M132.14,-121.64C140.55,-120.76 149.24,-119.84 157.86,-118.94"/>
<polygon fill="#63b8ff" stroke="#63b8ff" points="158.34,-122.4 167.92,-117.88 157.61,-115.44 158.34,-122.4"/>
</a>
</g>
</g>
<!-- Node3 -->
<g id="Node000003" class="node">
<title>Node3</title>
<g id="a_Node000003"><a xlink:href="collision_8c.html#aa1116ededb9ebc0ee976259f02fe2a4e" target="_top" xlink:title=" ">
<polygon fill="white" stroke="#666666" points="480,-188 350,-188 350,-169 480,-169 480,-188"/>
<text text-anchor="middle" x="415" y="-176" font-family="Helvetica,sans-Serif" font-size="10.00">generate_collision_grid</text>
</a>
</g>
</g>
<!-- Node2&#45;&gt;Node3 -->
<g id="edge2_Node000002_Node000003" class="edge">
<title>Node2&#45;&gt;Node3</title>
<g id="a_edge2_Node000002_Node000003"><a xlink:title=" ">
<path fill="none" stroke="#63b8ff" d="M285.26,-158.52C302.75,-161.24 323.2,-164.41 342.57,-167.42"/>
<polygon fill="#63b8ff" stroke="#63b8ff" points="342.17,-170.9 352.59,-168.97 343.24,-163.98 342.17,-170.9"/>
</a>
</g>
</g>
<!-- Node4 -->
<g id="Node000004" class="node">
<title>Node4</title>
<g id="a_Node000004"><a xlink:href="collision_8c.html#a4e4ec74302aec60828a8d271390f7631" target="_top" xlink:title=" ">
<polygon fill="white" stroke="#666666" points="656,-215.5 525,-215.5 525,-185.5 656,-185.5 656,-215.5"/>
<text text-anchor="start" x="533" y="-203.5" font-family="Helvetica,sans-Serif" font-size="10.00">is_triangle_intersecting</text>
<text text-anchor="middle" x="590.5" y="-192.5" font-family="Helvetica,sans-Serif" font-size="10.00">_bounding_box</text>
</a>
</g>
</g>
<!-- Node3&#45;&gt;Node4 -->
<g id="edge3_Node000003_Node000004" class="edge">
<title>Node3&#45;&gt;Node4</title>
<g id="a_edge3_Node000003_Node000004"><a xlink:title=" ">
<path fill="none" stroke="#63b8ff" d="M480.11,-186.63C491.39,-188.06 503.21,-189.56 514.74,-191.02"/>
<polygon fill="#63b8ff" stroke="#63b8ff" points="514.42,-194.51 524.78,-192.29 515.3,-187.56 514.42,-194.51"/>
</a>
</g>
</g>
<!-- Node5 -->
<g id="Node000005" class="node">
<title>Node5</title>
<g id="a_Node000005"><a xlink:href="collision_8c.html#a7ef4f800cb44ad39ca233d0c76ce039a" target="_top" xlink:title=" ">
<polygon fill="white" stroke="#666666" points="814,-215.5 703,-215.5 703,-185.5 814,-185.5 814,-215.5"/>
<text text-anchor="start" x="711" y="-203.5" font-family="Helvetica,sans-Serif" font-size="10.00">is_line_intersecting</text>
<text text-anchor="middle" x="758.5" y="-192.5" font-family="Helvetica,sans-Serif" font-size="10.00">_rectangle</text>
</a>
</g>
</g>
<!-- Node4&#45;&gt;Node5 -->
<g id="edge4_Node000004_Node000005" class="edge">
<title>Node4&#45;&gt;Node5</title>
<g id="a_edge4_Node000004_Node000005"><a xlink:title=" ">
<path fill="none" stroke="#63b8ff" d="M656.16,-200.5C668.12,-200.5 680.63,-200.5 692.61,-200.5"/>
<polygon fill="#63b8ff" stroke="#63b8ff" points="692.97,-204 702.97,-200.5 692.97,-197 692.97,-204"/>
</a>
</g>
</g>
<!-- Node7 -->
<g id="Node000007" class="node">
<title>Node7</title>
<g id="a_Node000007"><a xlink:href="collision_8c.html#a3081198f925be148fc9f05897a3bddd3" target="_top" xlink:title=" ">
<polygon fill="white" stroke="#666666" points="484,-111 346,-111 346,-92 484,-92 484,-111"/>
<text text-anchor="middle" x="415" y="-99" font-family="Helvetica,sans-Serif" font-size="10.00">generate_collision_mesh</text>
</a>
</g>
</g>
<!-- Node6&#45;&gt;Node7 -->
<g id="edge6_Node000006_Node000007" class="edge">
<title>Node6&#45;&gt;Node7</title>
<g id="a_edge6_Node000006_Node000007"><a xlink:title=" ">
<path fill="none" stroke="#63b8ff" d="M310.02,-106.88C318.5,-106.44 327.21,-105.99 335.81,-105.54"/>
<polygon fill="#63b8ff" stroke="#63b8ff" points="336.01,-109.04 345.82,-105.03 335.65,-102.05 336.01,-109.04"/>
</a>
</g>
</g>
<!-- Node7&#45;&gt;Node7 -->
<g id="edge7_Node000007_Node000007" class="edge">
<title>Node7&#45;&gt;Node7</title>
<g id="a_edge7_Node000007_Node000007"><a xlink:title=" ">
<path fill="none" stroke="#63b8ff" d="M388.18,-111.08C375.13,-119.73 384.07,-129 415,-129 435.78,-129 446.63,-124.82 447.56,-119.45"/>
<polygon fill="#63b8ff" stroke="#63b8ff" points="450.36,-117.35 441.82,-111.08 444.59,-121.31 450.36,-117.35"/>
</a>
</g>
</g>
<!-- Node8 -->
<g id="Node000008" class="node">
<title>Node8</title>
<g id="a_Node000008"><a xlink:href="collision_8c.html#a2419eefe1cdba5b280babacc4a15fc6c" target="_top" xlink:title=" ">
<polygon fill="white" stroke="#666666" points="626,-167 555,-167 555,-148 626,-148 626,-167"/>
<text text-anchor="middle" x="590.5" y="-155" font-family="Helvetica,sans-Serif" font-size="10.00">is_cull_box</text>
</a>
</g>
</g>
<!-- Node7&#45;&gt;Node8 -->
<g id="edge8_Node000007_Node000008" class="edge">
<title>Node7&#45;&gt;Node8</title>
<g id="a_edge8_Node000007_Node000008"><a xlink:title=" ">
<path fill="none" stroke="#63b8ff" d="M440.15,-111.08C461.08,-119.2 492.29,-130.87 520,-139.5 527.95,-141.98 536.49,-144.39 544.76,-146.6"/>
<polygon fill="#63b8ff" stroke="#63b8ff" points="544.11,-150.04 554.67,-149.18 545.88,-143.27 544.11,-150.04"/>
</a>
</g>
</g>
<!-- Node10 -->
<g id="Node000010" class="node">
<title>Node10</title>
<g id="a_Node000010"><a xlink:href="collision_8c.html#a30eb531df39ba558cd733e1d1cd6aaa0" target="_top" xlink:title=" ">
<polygon fill="white" stroke="#666666" points="633.5,-130 547.5,-130 547.5,-111 633.5,-111 633.5,-130"/>
<text text-anchor="middle" x="590.5" y="-118" font-family="Helvetica,sans-Serif" font-size="10.00">set_vtx_buffer</text>
</a>
</g>
</g>
<!-- Node7&#45;&gt;Node10 -->
<g id="edge10_Node000007_Node000010" class="edge">
<title>Node7&#45;&gt;Node10</title>
<g id="a_edge10_Node000007_Node000010"><a xlink:title=" ">
<path fill="none" stroke="#63b8ff" d="M484.07,-108.95C501.76,-110.89 520.54,-112.95 537.27,-114.78"/>
<polygon fill="#63b8ff" stroke="#63b8ff" points="537.07,-118.28 547.39,-115.89 537.83,-111.32 537.07,-118.28"/>
</a>
</g>
</g>
<!-- Node11 -->
<g id="Node000011" class="node">
<title>Node11</title>
<g id="a_Node000011"><a xlink:href="collision_8c.html#a593833ca3f04f0c7d8f5dcabe6430115" target="_top" xlink:title=" ">
<polygon fill="white" stroke="#666666" points="661,-93 520,-93 520,-74 661,-74 661,-93"/>
<text text-anchor="middle" x="590.5" y="-81" font-family="Helvetica,sans-Serif" font-size="10.00">set_vtx_from_quadrangle</text>
</a>
</g>
</g>
<!-- Node7&#45;&gt;Node11 -->
<g id="edge11_Node000007_Node000011" class="edge">
<title>Node7&#45;&gt;Node11</title>
<g id="a_edge11_Node000007_Node000011"><a xlink:title=" ">
<path fill="none" stroke="#63b8ff" d="M484.07,-94.44C492.53,-93.56 501.24,-92.66 509.86,-91.76"/>
<polygon fill="#63b8ff" stroke="#63b8ff" points="510.33,-95.23 519.91,-90.72 509.6,-88.27 510.33,-95.23"/>
</a>
</g>
</g>
<!-- Node14 -->
<g id="Node000014" class="node">
<title>Node14</title>
<g id="a_Node000014"><a xlink:href="collision_8c.html#ac558a6e1314f154bbf53aaf15396ea1e" target="_top" xlink:title=" ">
<polygon fill="white" stroke="#666666" points="642,-56 539,-56 539,-37 642,-37 642,-56"/>
<text text-anchor="middle" x="590.5" y="-44" font-family="Helvetica,sans-Serif" font-size="10.00">set_vtx_from_tri2</text>
</a>
</g>
</g>
<!-- Node7&#45;&gt;Node14 -->
<g id="edge14_Node000007_Node000014" class="edge">
<title>Node7&#45;&gt;Node14</title>
<g id="a_edge14_Node000007_Node000014"><a xlink:title=" ">
<path fill="none" stroke="#63b8ff" d="M441.91,-91.99C462.86,-84.44 493.17,-73.8 520,-65.5 527.48,-63.19 535.45,-60.87 543.24,-58.69"/>
<polygon fill="#63b8ff" stroke="#63b8ff" points="544.23,-62.04 552.94,-56.01 542.37,-55.3 544.23,-62.04"/>
</a>
</g>
</g>
<!-- Node15 -->
<g id="Node000015" class="node">
<title>Node15</title>
<g id="a_Node000015"><a xlink:href="collision_8c.html#a335dc7fed8a2540ca0a5b0a466545845" target="_top" xlink:title=" ">
<polygon fill="white" stroke="#666666" points="652.5,-19 528.5,-19 528.5,0 652.5,0 652.5,-19"/>
<text text-anchor="middle" x="590.5" y="-7" font-family="Helvetica,sans-Serif" font-size="10.00">set_vtx_from_triangle</text>
</a>
</g>
</g>
<!-- Node7&#45;&gt;Node15 -->
<g id="edge16_Node000007_Node000015" class="edge">
<title>Node7&#45;&gt;Node15</title>
<g id="a_edge16_Node000007_Node000015"><a xlink:title=" ">
<path fill="none" stroke="#63b8ff" d="M426.69,-91.83C444.67,-76.08 482.64,-44.9 520,-27.5 524.29,-25.5 528.84,-23.7 533.48,-22.08"/>
<polygon fill="#63b8ff" stroke="#63b8ff" points="534.61,-25.39 543.06,-19 532.47,-18.73 534.61,-25.39"/>
</a>
</g>
</g>
<!-- Node9 -->
<g id="Node000009" class="node">
<title>Node9</title>
<g id="a_Node000009"><a xlink:href="string_8c.html#a008e171a518fe0e0352f31b245e03875" target="_top" xlink:title=" ">
<polygon fill="white" stroke="#666666" points="780.5,-167 736.5,-167 736.5,-148 780.5,-148 780.5,-167"/>
<text text-anchor="middle" x="758.5" y="-155" font-family="Helvetica,sans-Serif" font-size="10.00">strlen</text>
</a>
</g>
</g>
<!-- Node8&#45;&gt;Node9 -->
<g id="edge9_Node000008_Node000009" class="edge">
<title>Node8&#45;&gt;Node9</title>
<g id="a_edge9_Node000008_Node000009"><a xlink:title=" ">
<path fill="none" stroke="#63b8ff" d="M626.3,-157.5C655.8,-157.5 697.75,-157.5 726.21,-157.5"/>
<polygon fill="#63b8ff" stroke="#63b8ff" points="726.4,-161 736.4,-157.5 726.4,-154 726.4,-161"/>
</a>
</g>
</g>
<!-- Node12 -->
<g id="Node000012" class="node">
<title>Node12</title>
<g id="a_Node000012"><a xlink:href="collision_8c.html#a8c516edee107b39b30bb3a4d3c54534a" target="_top" xlink:title=" ">
<polygon fill="white" stroke="#666666" points="820,-56 697,-56 697,-37 820,-37 820,-56"/>
<text text-anchor="middle" x="758.5" y="-44" font-family="Helvetica,sans-Serif" font-size="10.00">add_collision_triangle</text>
</a>
</g>
</g>
<!-- Node11&#45;&gt;Node12 -->
<g id="edge12_Node000011_Node000012" class="edge">
<title>Node11&#45;&gt;Node12</title>
<g id="a_edge12_Node000011_Node000012"><a xlink:title=" ">
<path fill="none" stroke="#63b8ff" d="M634.25,-73.97C655.76,-69.18 682.02,-63.32 704.77,-58.25"/>
<polygon fill="#63b8ff" stroke="#63b8ff" points="705.61,-61.65 714.61,-56.06 704.09,-54.82 705.61,-61.65"/>
</a>
</g>
</g>
<!-- Node13 -->
<g id="Node000013" class="node">
<title>Node13</title>
<g id="a_Node000013"><a xlink:href="math_8h.html#a37bde043e94a6f074c78f10518fb5d99" target="_top" xlink:title=" ">
<polygon fill="white" stroke="#666666" points="895,-56 856,-56 856,-37 895,-37 895,-56"/>
<text text-anchor="middle" x="875.5" y="-44" font-family="Helvetica,sans-Serif" font-size="10.00">sqrtf</text>
</a>
</g>
</g>
<!-- Node12&#45;&gt;Node13 -->
<g id="edge13_Node000012_Node000013" class="edge">
<title>Node12&#45;&gt;Node13</title>
<g id="a_edge13_Node000012_Node000013"><a xlink:title=" ">
<path fill="none" stroke="#63b8ff" d="M820.03,-46.5C828.96,-46.5 837.79,-46.5 845.66,-46.5"/>
<polygon fill="#63b8ff" stroke="#63b8ff" points="845.71,-50 855.71,-46.5 845.71,-43 845.71,-50"/>
</a>
</g>
</g>
<!-- Node14&#45;&gt;Node12 -->
<g id="edge15_Node000014_Node000012" class="edge">
<title>Node14&#45;&gt;Node12</title>
<g id="a_edge15_Node000014_Node000012"><a xlink:title=" ">
<path fill="none" stroke="#63b8ff" d="M642.21,-46.5C656.23,-46.5 671.71,-46.5 686.65,-46.5"/>
<polygon fill="#63b8ff" stroke="#63b8ff" points="686.88,-50 696.88,-46.5 686.88,-43 686.88,-50"/>
</a>
</g>
</g>
<!-- Node15&#45;&gt;Node12 -->
<g id="edge17_Node000015_Node000012" class="edge">
<title>Node15&#45;&gt;Node12</title>
<g id="a_edge17_Node000015_Node000012"><a xlink:title=" ">
<path fill="none" stroke="#63b8ff" d="M634.25,-19.03C655.76,-23.82 682.02,-29.68 704.77,-34.75"/>
<polygon fill="#63b8ff" stroke="#63b8ff" points="704.09,-38.18 714.61,-36.94 705.61,-31.35 704.09,-38.18"/>
</a>
</g>
</g>
</g>
</svg>

<g id="navigator" transform="translate(0 0)" fill="#404254">
  <rect fill="#f2f5e9" fill-opacity="0.5" stroke="#606060" stroke-width=".5" x="0" y="0" width="60" height="60"/>
  <use id="zoomplus" xlink:href="#zoomPlus" x="17" y="9" onmousedown="handleZoom(evt,'in')"/>
  <use id="zoomminus" xlink:href="#zoomMin" x="42" y="9" onmousedown="handleZoom(evt,'out')"/>
  <use id="reset" xlink:href="#resetDef" x="30" y="36" onmousedown="handleReset()"/>
   <use id="arrowup" xlink:href="#arrowUp" x="0" y="0" onmousedown="handlePan(0,-1)"/>
  <use id="arrowright" xlink:href="#arrowRight" x="0" y="0" onmousedown="handlePan(1,0)"/>
  <use id="arrowdown" xlink:href="#arrowDown" x="0" y="0" onmousedown="handlePan(0,1)"/>
  <use id="arrowleft" xlink:href="#arrowLeft" x="0" y="0" onmousedown="handlePan(-1,0)"/>
</g>
<svg viewBox="0 0 15 15" width="100%" height="30px" preserveAspectRatio="xMaxYMin meet">
 <g id="arrow_out" transform="scale(0.3 0.3)">
  <a xlink:href="classPodiumCeremony_ace171816bca59d551c63637853b9b4e3_cgraph_org.svg" target="_base">
   <rect id="button" ry="5" rx="5" y="6" x="6" height="38" width="38"
        fill="#f2f5e9" fill-opacity="0.5" stroke="#606060" stroke-width="1.0"/>
   <path id="arrow"
     d="M 11.500037,31.436501 C 11.940474,20.09759 22.043105,11.32322 32.158766,21.979434 L 37.068811,17.246167 C 37.068811,17.246167 37.088388,32 37.088388,32 L 22.160133,31.978069 C 22.160133,31.978069 26.997745,27.140456 26.997745,27.140456 C 18.528582,18.264221 13.291696,25.230495 11.500037,31.436501 z"
     style="fill:#404040;"/>
  </a>
 </g>
</svg>

<style type='text/css'>
<![CDATA[
[data-mouse-over-selected='false'] { opacity: 0.7; }
[data-mouse-over-selected='true']  { opacity: 1.0; }
]]>
</style>
<script type="application/ecmascript"><![CDATA[
document.addEventListener('DOMContentLoaded', (event) => {
  highlightEdges();
  highlightAdjacentNodes();
});
]]></script>
</svg>
