<?xml version="1.0" encoding="UTF-8" standalone="no"?>
<!DOCTYPE svg PUBLIC "-//W3C//DTD SVG 1.1//EN"
 "http://www.w3.org/Graphics/SVG/1.1/DTD/svg11.dtd">
<!-- Generated by graphviz version 2.43.0 (0)
 -->
<!-- Title: OCrab Pages: 1 -->
<svg width="1084pt" height="610pt"
 viewBox="0.00 0.00 1084.00 610.00" xmlns="http://www.w3.org/2000/svg" xmlns:xlink="http://www.w3.org/1999/xlink">
<g id="graph0" class="graph" transform="scale(1 1) rotate(0) translate(4 606)">
<title>OCrab</title>
<!-- Node1 -->
<g id="Node000001" class="node">
<title>Node1</title>
<g id="a_Node000001"><a xlink:title=" ">
<polygon fill="#999999" stroke="#666666" points="965,-19 918,-19 918,0 965,0 965,-19"/>
<text text-anchor="middle" x="941.5" y="-7" font-family="Helvetica,sans-Serif" font-size="10.00">OCrab</text>
</a>
</g>
</g>
<!-- Node2 -->
<g id="Node000002" class="node">
<title>Node2</title>
<g id="a_Node000002"><a xlink:href="classOObject.html" target="_top" xlink:title=" ">
<polygon fill="white" stroke="#666666" points="655.5,-96 599.5,-96 599.5,-77 655.5,-77 655.5,-96"/>
<text text-anchor="middle" x="627.5" y="-84" font-family="Helvetica,sans-Serif" font-size="10.00">OObject</text>
</a>
</g>
</g>
<!-- Node2&#45;&gt;Node1 -->
<g id="edge1_Node000001_Node000002" class="edge">
<title>Node2&#45;&gt;Node1</title>
<g id="a_edge1_Node000001_Node000002"><a xlink:title=" ">
<path fill="none" stroke="#63b8ff" d="M665.57,-76.41C731.15,-60.74 863.59,-29.11 917.67,-16.19"/>
<polygon fill="#63b8ff" stroke="#63b8ff" points="664.55,-73.05 655.64,-78.78 666.18,-79.86 664.55,-73.05"/>
</a>
</g>
</g>
<!-- Node3 -->
<g id="Node000003" class="node">
<title>Node3</title>
<g id="a_Node000003"><a xlink:title=" ">
<polygon fill="white" stroke="#666666" points="707.5,-173 657.5,-173 657.5,-154 707.5,-154 707.5,-173"/>
<text text-anchor="middle" x="682.5" y="-161" font-family="Helvetica,sans-Serif" font-size="10.00">uint8_t</text>
</a>
</g>
</g>
<!-- Node3&#45;&gt;Node2 -->
<g id="edge2_Node000002_Node000003" class="edge">
<title>Node3&#45;&gt;Node2</title>
<g id="a_edge2_Node000002_Node000003"><a xlink:title=" ">
<path fill="none" stroke="#9a32cd" stroke-dasharray="5,2" d="M676.55,-144.22C672.87,-134.63 667.5,-123.02 660.5,-114 655.09,-107.03 647.5,-100.78 640.97,-96.09"/>
<polygon fill="#9a32cd" stroke="#9a32cd" points="673.35,-145.69 679.98,-153.96 679.95,-143.37 673.35,-145.69"/>
</a>
</g>
<text text-anchor="middle" x="686" y="-122.5" font-family="Helvetica,sans-Serif" font-size="10.00" fill="grey"> uuid</text>
</g>
<!-- Node4 -->
<g id="Node000004" class="node">
<title>Node4</title>
<g id="a_Node000004"><a xlink:href="structObject.html" target="_top" xlink:title=" ">
<polygon fill="white" stroke="#666666" points="476.5,-173 428.5,-173 428.5,-154 476.5,-154 476.5,-173"/>
<text text-anchor="middle" x="452.5" y="-161" font-family="Helvetica,sans-Serif" font-size="10.00">Object</text>
</a>
</g>
</g>
<!-- Node4&#45;&gt;Node2 -->
<g id="edge3_Node000002_Node000004" class="edge">
<title>Node4&#45;&gt;Node2</title>
<g id="a_edge3_Node000002_Node000004"><a xlink:title=" ">
<path fill="none" stroke="#9a32cd" stroke-dasharray="5,2" d="M477.65,-149.13C497.44,-138.88 525.85,-124.71 551.5,-114 567.49,-107.32 585.82,-100.9 600.47,-96.05"/>
<polygon fill="#9a32cd" stroke="#9a32cd" points="475.93,-146.09 468.69,-153.82 479.17,-152.29 475.93,-146.09"/>
</a>
</g>
<text text-anchor="middle" x="556.5" y="-122.5" font-family="Helvetica,sans-Serif" font-size="10.00" fill="grey"> o</text>
</g>
<!-- Node5 -->
<g id="Node000005" class="node">
<title>Node5</title>
<g id="a_Node000005"><a xlink:title=" ">
<polygon fill="white" stroke="#666666" points="689.5,-349 657.5,-349 657.5,-330 689.5,-330 689.5,-349"/>
<text text-anchor="middle" x="673.5" y="-337" font-family="Helvetica,sans-Serif" font-size="10.00">f32</text>
</a>
</g>
</g>
<!-- Node5&#45;&gt;Node4 -->
<g id="edge4_Node000004_Node000005" class="edge">
<title>Node5&#45;&gt;Node4</title>
<g id="a_edge4_Node000004_Node000005"><a xlink:title=" ">
<path fill="none" stroke="#9a32cd" stroke-dasharray="5,2" d="M673.4,-319.84C672.8,-284.24 669.4,-208.62 651.5,-191 645.32,-184.92 528.5,-172.28 476.78,-166.95"/>
<polygon fill="#9a32cd" stroke="#9a32cd" points="669.9,-319.9 673.51,-329.86 676.9,-319.83 669.9,-319.9"/>
</a>
</g>
<text text-anchor="middle" x="708" y="-287.5" font-family="Helvetica,sans-Serif" font-size="10.00" fill="grey"> offset</text>
<text text-anchor="middle" x="708" y="-276.5" font-family="Helvetica,sans-Serif" font-size="10.00" fill="grey">origin_pos</text>
<text text-anchor="middle" x="708" y="-265.5" font-family="Helvetica,sans-Serif" font-size="10.00" fill="grey">pos</text>
<text text-anchor="middle" x="708" y="-254.5" font-family="Helvetica,sans-Serif" font-size="10.00" fill="grey">sizeScaling</text>
<text text-anchor="middle" x="708" y="-243.5" font-family="Helvetica,sans-Serif" font-size="10.00" fill="grey">surfaceHeight</text>
<text text-anchor="middle" x="708" y="-232.5" font-family="Helvetica,sans-Serif" font-size="10.00" fill="grey">unk_01C</text>
<text text-anchor="middle" x="708" y="-221.5" font-family="Helvetica,sans-Serif" font-size="10.00" fill="grey">unk_034</text>
<text text-anchor="middle" x="708" y="-210.5" font-family="Helvetica,sans-Serif" font-size="10.00" fill="grey">velocity</text>
</g>
<!-- Node6 -->
<g id="Node000006" class="node">
<title>Node6</title>
<g id="a_Node000006"><a xlink:title=" ">
<polygon fill="white" stroke="#666666" points="840.5,-349 806.5,-349 806.5,-330 840.5,-330 840.5,-349"/>
<text text-anchor="middle" x="823.5" y="-337" font-family="Helvetica,sans-Serif" font-size="10.00">s32</text>
</a>
</g>
</g>
<!-- Node6&#45;&gt;Node1 -->
<g id="edge24_Node000001_Node000006" class="edge">
<title>Node6&#45;&gt;Node1</title>
<g id="a_edge24_Node000001_Node000006"><a xlink:title=" ">
<path fill="none" stroke="#9a32cd" stroke-dasharray="5,2" d="M830.42,-320.27C831.46,-317.5 832.51,-314.68 833.5,-312 875.91,-196.67 925.58,-55.77 938.37,-19.4"/>
<polygon fill="#9a32cd" stroke="#9a32cd" points="827.13,-319.09 826.87,-329.68 833.68,-321.56 827.13,-319.09"/>
</a>
</g>
<text text-anchor="middle" x="916.5" y="-122.5" font-family="Helvetica,sans-Serif" font-size="10.00" fill="grey"> _idx</text>
</g>
<!-- Node6&#45;&gt;Node2 -->
<g id="edge20_Node000002_Node000006" class="edge">
<title>Node6&#45;&gt;Node2</title>
<g id="a_edge20_Node000002_Node000006"><a xlink:title=" ">
<path fill="none" stroke="#9a32cd" stroke-dasharray="5,2" d="M826.41,-319.62C829.99,-290.05 833,-231.97 809.5,-191 776.49,-133.46 698.05,-105.36 655.73,-93.97"/>
<polygon fill="#9a32cd" stroke="#9a32cd" points="822.91,-319.4 825.01,-329.78 829.84,-320.35 822.91,-319.4"/>
</a>
</g>
<text text-anchor="middle" x="828.5" y="-161" font-family="Helvetica,sans-Serif" font-size="10.00" fill="grey"> _objectIndex</text>
</g>
<!-- Node6&#45;&gt;Node4 -->
<g id="edge5_Node000004_Node000006" class="edge">
<title>Node6&#45;&gt;Node4</title>
<g id="a_edge5_Node000004_Node000006"><a xlink:title=" ">
<path fill="none" stroke="#9a32cd" stroke-dasharray="5,2" d="M796.75,-331.91C785.81,-327.9 773.99,-321.62 766.5,-312 732.86,-268.81 784.05,-227.77 743.5,-191 727.05,-176.09 566.61,-175.02 544.5,-173 521.5,-170.9 495.26,-168.47 476.71,-166.75"/>
<polygon fill="#9a32cd" stroke="#9a32cd" points="795.8,-335.28 806.39,-334.99 797.93,-328.61 795.8,-335.28"/>
</a>
</g>
<text text-anchor="middle" x="788" y="-276.5" font-family="Helvetica,sans-Serif" font-size="10.00" fill="grey"> status</text>
<text text-anchor="middle" x="788" y="-265.5" font-family="Helvetica,sans-Serif" font-size="10.00" fill="grey">timer</text>
<text text-anchor="middle" x="788" y="-254.5" font-family="Helvetica,sans-Serif" font-size="10.00" fill="grey">unk_048</text>
<text text-anchor="middle" x="788" y="-243.5" font-family="Helvetica,sans-Serif" font-size="10.00" fill="grey">unk_04C</text>
<text text-anchor="middle" x="788" y="-232.5" font-family="Helvetica,sans-Serif" font-size="10.00" fill="grey">unk_058</text>
<text text-anchor="middle" x="788" y="-221.5" font-family="Helvetica,sans-Serif" font-size="10.00" fill="grey">unk_05C</text>
</g>
<!-- Node7 -->
<g id="Node000007" class="node">
<title>Node7</title>
<g id="a_Node000007"><a xlink:title=" ">
<polygon fill="white" stroke="#666666" points="40.5,-349 2.5,-349 2.5,-330 40.5,-330 40.5,-349"/>
<text text-anchor="middle" x="21.5" y="-337" font-family="Helvetica,sans-Serif" font-size="10.00">char</text>
</a>
</g>
</g>
<!-- Node7&#45;&gt;Node2 -->
<g id="edge18_Node000002_Node000007" class="edge">
<title>Node7&#45;&gt;Node2</title>
<g id="a_edge18_Node000002_Node000007"><a xlink:title=" ">
<path fill="none" stroke="#9a32cd" stroke-dasharray="5,2" d="M14.37,-320.52C3.59,-289.99 -12.54,-227.76 18.5,-191 94.61,-100.87 489.67,-89.21 599.27,-87.72"/>
<polygon fill="#9a32cd" stroke="#9a32cd" points="11.1,-321.76 17.88,-329.9 17.66,-319.31 11.1,-321.76"/>
</a>
</g>
<text text-anchor="middle" x="92" y="-161" font-family="Helvetica,sans-Serif" font-size="10.00" fill="grey"> Name</text>
</g>
<!-- Node7&#45;&gt;Node4 -->
<g id="edge6_Node000004_Node000007" class="edge">
<title>Node7&#45;&gt;Node4</title>
<g id="a_edge6_Node000004_Node000007"><a xlink:title=" ">
<path fill="none" stroke="#9a32cd" stroke-dasharray="5,2" d="M20.68,-319.78C19.56,-284.08 19.44,-208.27 37.5,-191 65.77,-163.96 343.67,-163.71 428.22,-164.27"/>
<polygon fill="#9a32cd" stroke="#9a32cd" points="17.19,-319.97 21.06,-329.83 24.18,-319.71 17.19,-319.97"/>
</a>
</g>
<text text-anchor="middle" x="71" y="-260" font-family="Helvetica,sans-Serif" font-size="10.00" fill="grey"> activeTLUT</text>
<text text-anchor="middle" x="71" y="-249" font-family="Helvetica,sans-Serif" font-size="10.00" fill="grey">activeTexture</text>
<text text-anchor="middle" x="71" y="-238" font-family="Helvetica,sans-Serif" font-size="10.00" fill="grey">textureList</text>
</g>
<!-- Node8 -->
<g id="Node000008" class="node">
<title>Node8</title>
<g id="a_Node000008"><a xlink:title=" ">
<polygon fill="white" stroke="#666666" points="142,-349 113,-349 113,-330 142,-330 142,-349"/>
<text text-anchor="middle" x="127.5" y="-337" font-family="Helvetica,sans-Serif" font-size="10.00">u8</text>
</a>
</g>
</g>
<!-- Node8&#45;&gt;Node4 -->
<g id="edge7_Node000004_Node000008" class="edge">
<title>Node8&#45;&gt;Node4</title>
<g id="a_edge7_Node000004_Node000008"><a xlink:title=" ">
<path fill="none" stroke="#9a32cd" stroke-dasharray="5,2" d="M120.57,-320.23C110.14,-289.25 94.89,-226.37 127.5,-191 147.79,-168.99 356.38,-165.26 428.29,-164.63"/>
<polygon fill="#9a32cd" stroke="#9a32cd" points="117.31,-321.51 123.97,-329.75 123.9,-319.16 117.31,-321.51"/>
</a>
</g>
<text text-anchor="middle" x="163" y="-304" font-family="Helvetica,sans-Serif" font-size="10.00" fill="grey"> textureHeight</text>
<text text-anchor="middle" x="163" y="-293" font-family="Helvetica,sans-Serif" font-size="10.00" fill="grey">textureWidth</text>
<text text-anchor="middle" x="163" y="-282" font-family="Helvetica,sans-Serif" font-size="10.00" fill="grey">tlutList</text>
<text text-anchor="middle" x="163" y="-271" font-family="Helvetica,sans-Serif" font-size="10.00" fill="grey">unk_0D5</text>
<text text-anchor="middle" x="163" y="-260" font-family="Helvetica,sans-Serif" font-size="10.00" fill="grey">unk_0D6</text>
<text text-anchor="middle" x="163" y="-249" font-family="Helvetica,sans-Serif" font-size="10.00" fill="grey">unk_0D7</text>
<text text-anchor="middle" x="163" y="-238" font-family="Helvetica,sans-Serif" font-size="10.00" fill="grey">unk_0D8</text>
<text text-anchor="middle" x="163" y="-227" font-family="Helvetica,sans-Serif" font-size="10.00" fill="grey">unk_0DB</text>
<text text-anchor="middle" x="163" y="-216" font-family="Helvetica,sans-Serif" font-size="10.00" fill="grey">unk_0DC</text>
<text text-anchor="middle" x="163" y="-205" font-family="Helvetica,sans-Serif" font-size="10.00" fill="grey">unk_0DD</text>
<text text-anchor="middle" x="163" y="-194" font-family="Helvetica,sans-Serif" font-size="10.00" fill="grey">...</text>
</g>
<!-- Node9 -->
<g id="Node000009" class="node">
<title>Node9</title>
<g id="a_Node000009"><a xlink:title=" ">
<polygon fill="white" stroke="#666666" points="238.5,-349 204.5,-349 204.5,-330 238.5,-330 238.5,-349"/>
<text text-anchor="middle" x="221.5" y="-337" font-family="Helvetica,sans-Serif" font-size="10.00">Gfx</text>
</a>
</g>
</g>
<!-- Node9&#45;&gt;Node4 -->
<g id="edge8_Node000004_Node000009" class="edge">
<title>Node9&#45;&gt;Node4</title>
<g id="a_edge8_Node000004_Node000009"><a xlink:title=" ">
<path fill="none" stroke="#9a32cd" stroke-dasharray="5,2" d="M214.69,-320.34C204.45,-289.54 189.48,-226.9 221.5,-191 235.1,-175.75 371.72,-168.04 428.23,-165.49"/>
<polygon fill="#9a32cd" stroke="#9a32cd" points="211.4,-321.54 218.03,-329.81 218.01,-319.22 211.4,-321.54"/>
</a>
</g>
<text text-anchor="middle" x="238.5" y="-249" font-family="Helvetica,sans-Serif" font-size="10.00" fill="grey"> model</text>
</g>
<!-- Node10 -->
<g id="Node000010" class="node">
<title>Node10</title>
<g id="a_Node000010"><a xlink:title=" ">
<polygon fill="white" stroke="#666666" points="295,-349 262,-349 262,-330 295,-330 295,-349"/>
<text text-anchor="middle" x="278.5" y="-337" font-family="Helvetica,sans-Serif" font-size="10.00">Vtx</text>
</a>
</g>
</g>
<!-- Node10&#45;&gt;Node4 -->
<g id="edge9_Node000004_Node000010" class="edge">
<title>Node10&#45;&gt;Node4</title>
<g id="a_edge9_Node000004_Node000010"><a xlink:title=" ">
<path fill="none" stroke="#9a32cd" stroke-dasharray="5,2" d="M271.52,-320.06C261.21,-289.3 246.27,-227.31 277.5,-191 296.68,-168.69 385.09,-164.93 428.42,-164.45"/>
<polygon fill="#9a32cd" stroke="#9a32cd" points="268.36,-321.63 275.02,-329.87 274.96,-319.28 268.36,-321.63"/>
</a>
</g>
<text text-anchor="middle" x="295" y="-249" font-family="Helvetica,sans-Serif" font-size="10.00" fill="grey"> vertex</text>
</g>
<!-- Node11 -->
<g id="Node000011" class="node">
<title>Node11</title>
<g id="a_Node000011"><a xlink:title=" ">
<polygon fill="white" stroke="#666666" points="342,-349 313,-349 313,-330 342,-330 342,-349"/>
<text text-anchor="middle" x="327.5" y="-337" font-family="Helvetica,sans-Serif" font-size="10.00">s8</text>
</a>
</g>
</g>
<!-- Node11&#45;&gt;Node4 -->
<g id="edge10_Node000004_Node000011" class="edge">
<title>Node11&#45;&gt;Node4</title>
<g id="a_edge10_Node000004_Node000011"><a xlink:title=" ">
<path fill="none" stroke="#9a32cd" stroke-dasharray="5,2" d="M322.5,-320.11C315.38,-289.41 306.35,-227.53 337.5,-191 349.1,-177.4 398.32,-170.03 428.48,-166.71"/>
<polygon fill="#9a32cd" stroke="#9a32cd" points="319.13,-321.05 324.96,-329.9 325.92,-319.35 319.13,-321.05"/>
</a>
</g>
<text text-anchor="middle" x="377.5" y="-304" font-family="Helvetica,sans-Serif" font-size="10.00" fill="grey"> isTimerActive</text>
<text text-anchor="middle" x="377.5" y="-293" font-family="Helvetica,sans-Serif" font-size="10.00" fill="grey">textureListIndex</text>
<text text-anchor="middle" x="377.5" y="-282" font-family="Helvetica,sans-Serif" font-size="10.00" fill="grey">unk_078</text>
<text text-anchor="middle" x="377.5" y="-271" font-family="Helvetica,sans-Serif" font-size="10.00" fill="grey">unk_0CA</text>
<text text-anchor="middle" x="377.5" y="-260" font-family="Helvetica,sans-Serif" font-size="10.00" fill="grey">unk_0CC</text>
<text text-anchor="middle" x="377.5" y="-249" font-family="Helvetica,sans-Serif" font-size="10.00" fill="grey">unk_0CD</text>
<text text-anchor="middle" x="377.5" y="-238" font-family="Helvetica,sans-Serif" font-size="10.00" fill="grey">unk_0CE</text>
<text text-anchor="middle" x="377.5" y="-227" font-family="Helvetica,sans-Serif" font-size="10.00" fill="grey">unk_0CF</text>
<text text-anchor="middle" x="377.5" y="-216" font-family="Helvetica,sans-Serif" font-size="10.00" fill="grey">unk_0D0</text>
<text text-anchor="middle" x="377.5" y="-205" font-family="Helvetica,sans-Serif" font-size="10.00" fill="grey">unk_0D1</text>
<text text-anchor="middle" x="377.5" y="-194" font-family="Helvetica,sans-Serif" font-size="10.00" fill="grey">...</text>
</g>
<!-- Node12 -->
<g id="Node000012" class="node">
<title>Node12</title>
<g id="a_Node000012"><a xlink:href="structSplineControlPoint.html" target="_top" xlink:title=" ">
<polygon fill="white" stroke="#666666" points="444,-525 337,-525 337,-506 444,-506 444,-525"/>
<text text-anchor="middle" x="390.5" y="-513" font-family="Helvetica,sans-Serif" font-size="10.00">SplineControlPoint</text>
</a>
</g>
</g>
<!-- Node12&#45;&gt;Node4 -->
<g id="edge11_Node000004_Node000012" class="edge">
<title>Node12&#45;&gt;Node4</title>
<g id="a_edge11_Node000004_Node000012"><a xlink:title=" ">
<path fill="none" stroke="#9a32cd" stroke-dasharray="5,2" d="M384.38,-495.82C374.07,-460.7 357.16,-383.58 387.5,-330 395.16,-316.47 408.32,-324.55 417.5,-312 449.98,-267.61 452.75,-197.39 452.68,-173.1"/>
<polygon fill="#9a32cd" stroke="#9a32cd" points="381.13,-497.14 387.43,-505.66 387.81,-495.07 381.13,-497.14"/>
</a>
</g>
<text text-anchor="middle" x="421" y="-337" font-family="Helvetica,sans-Serif" font-size="10.00" fill="grey"> controlPoints</text>
</g>
<!-- Node14 -->
<g id="Node000014" class="node">
<title>Node14</title>
<g id="a_Node000014"><a xlink:href="structSplineData.html" target="_top" xlink:title=" ">
<polygon fill="white" stroke="#666666" points="533.5,-349 463.5,-349 463.5,-330 533.5,-330 533.5,-349"/>
<text text-anchor="middle" x="498.5" y="-337" font-family="Helvetica,sans-Serif" font-size="10.00">SplineData</text>
</a>
</g>
</g>
<!-- Node12&#45;&gt;Node14 -->
<g id="edge15_Node000014_Node000012" class="edge">
<title>Node12&#45;&gt;Node14</title>
<g id="a_edge15_Node000014_Node000012"><a xlink:title=" ">
<path fill="none" stroke="#9a32cd" stroke-dasharray="5,2" d="M390.88,-495.63C391.97,-460.29 396.2,-385.96 412.5,-367 419.32,-359.06 442.56,-352.17 463.17,-347.41"/>
<polygon fill="#9a32cd" stroke="#9a32cd" points="387.37,-495.9 390.61,-505.99 394.37,-496.08 387.37,-495.9"/>
</a>
</g>
<text text-anchor="middle" x="446" y="-425" font-family="Helvetica,sans-Serif" font-size="10.00" fill="grey"> controlPoints</text>
</g>
<!-- Node13 -->
<g id="Node000013" class="node">
<title>Node13</title>
<g id="a_Node000013"><a xlink:title=" ">
<polygon fill="white" stroke="#666666" points="497.5,-602 463.5,-602 463.5,-583 497.5,-583 497.5,-602"/>
<text text-anchor="middle" x="480.5" y="-590" font-family="Helvetica,sans-Serif" font-size="10.00">s16</text>
</a>
</g>
</g>
<!-- Node13&#45;&gt;Node4 -->
<g id="edge16_Node000004_Node000013" class="edge">
<title>Node13&#45;&gt;Node4</title>
<g id="a_edge16_Node000004_Node000013"><a xlink:title=" ">
<path fill="none" stroke="#9a32cd" stroke-dasharray="5,2" d="M507.22,-582.51C531.76,-572.66 566.66,-554.24 582.5,-525 586.52,-517.58 583.34,-514.4 582.5,-506 581.6,-497.12 524.21,-197.86 518.5,-191 508.06,-178.48 490.84,-171.82 476.61,-168.32"/>
<polygon fill="#9a32cd" stroke="#9a32cd" points="505.85,-579.28 497.74,-586.1 508.33,-585.83 505.85,-579.28"/>
</a>
</g>
<text text-anchor="middle" x="606.5" y="-480" font-family="Helvetica,sans-Serif" font-size="10.00" fill="grey"> primAlpha</text>
<text text-anchor="middle" x="606.5" y="-469" font-family="Helvetica,sans-Serif" font-size="10.00" fill="grey">state</text>
<text text-anchor="middle" x="606.5" y="-458" font-family="Helvetica,sans-Serif" font-size="10.00" fill="grey">type</text>
<text text-anchor="middle" x="606.5" y="-447" font-family="Helvetica,sans-Serif" font-size="10.00" fill="grey">unk_084</text>
<text text-anchor="middle" x="606.5" y="-436" font-family="Helvetica,sans-Serif" font-size="10.00" fill="grey">unk_09C</text>
<text text-anchor="middle" x="606.5" y="-425" font-family="Helvetica,sans-Serif" font-size="10.00" fill="grey">unk_09E</text>
<text text-anchor="middle" x="606.5" y="-414" font-family="Helvetica,sans-Serif" font-size="10.00" fill="grey">unk_0A2</text>
<text text-anchor="middle" x="606.5" y="-403" font-family="Helvetica,sans-Serif" font-size="10.00" fill="grey">unk_0A8</text>
<text text-anchor="middle" x="606.5" y="-392" font-family="Helvetica,sans-Serif" font-size="10.00" fill="grey">unk_0AA</text>
<text text-anchor="middle" x="606.5" y="-381" font-family="Helvetica,sans-Serif" font-size="10.00" fill="grey">unk_0AC</text>
<text text-anchor="middle" x="606.5" y="-370" font-family="Helvetica,sans-Serif" font-size="10.00" fill="grey">...</text>
</g>
<!-- Node13&#45;&gt;Node12 -->
<g id="edge12_Node000012_Node000013" class="edge">
<title>Node13&#45;&gt;Node12</title>
<g id="a_edge12_Node000012_Node000013"><a xlink:title=" ">
<path fill="none" stroke="#9a32cd" stroke-dasharray="5,2" d="M453.98,-581.53C444.71,-577.29 434.6,-571.74 426.5,-565 412.64,-553.46 401.15,-535.53 395.11,-525.01"/>
<polygon fill="#9a32cd" stroke="#9a32cd" points="452.65,-584.77 463.22,-585.48 455.4,-578.33 452.65,-584.77"/>
</a>
</g>
<text text-anchor="middle" x="446.5" y="-557" font-family="Helvetica,sans-Serif" font-size="10.00" fill="grey"> pos</text>
<text text-anchor="middle" x="446.5" y="-546" font-family="Helvetica,sans-Serif" font-size="10.00" fill="grey">velocity</text>
</g>
<!-- Node13&#45;&gt;Node14 -->
<g id="edge14_Node000014_Node000013" class="edge">
<title>Node13&#45;&gt;Node14</title>
<g id="a_edge14_Node000014_Node000013"><a xlink:title=" ">
<path fill="none" stroke="#9a32cd" stroke-dasharray="5,2" d="M481.84,-572.73C485.47,-522.23 495.32,-384.86 497.88,-349.1"/>
<polygon fill="#9a32cd" stroke="#9a32cd" points="478.34,-572.64 481.12,-582.86 485.32,-573.14 478.34,-572.64"/>
</a>
</g>
<text text-anchor="middle" x="533" y="-513" font-family="Helvetica,sans-Serif" font-size="10.00" fill="grey"> numControlPoints</text>
</g>
<!-- Node14&#45;&gt;Node4 -->
<g id="edge13_Node000004_Node000014" class="edge">
<title>Node14&#45;&gt;Node4</title>
<g id="a_edge13_Node000004_Node000014"><a xlink:title=" ">
<path fill="none" stroke="#9a32cd" stroke-dasharray="5,2" d="M489.1,-320.79C487.77,-317.9 486.52,-314.9 485.5,-312 467.48,-260.76 457.02,-195.94 453.68,-173.01"/>
<polygon fill="#9a32cd" stroke="#9a32cd" points="486.04,-322.5 493.63,-329.89 492.31,-319.38 486.04,-322.5"/>
</a>
</g>
<text text-anchor="middle" x="502" y="-249" font-family="Helvetica,sans-Serif" font-size="10.00" fill="grey"> spline</text>
</g>
<!-- Node15 -->
<g id="Node000015" class="node">
<title>Node15</title>
<g id="a_Node000015"><a xlink:title=" ">
<polygon fill="white" stroke="#666666" points="625,-349 590,-349 590,-330 625,-330 625,-349"/>
<text text-anchor="middle" x="607.5" y="-337" font-family="Helvetica,sans-Serif" font-size="10.00">u16</text>
</a>
</g>
</g>
<!-- Node15&#45;&gt;Node4 -->
<g id="edge17_Node000004_Node000015" class="edge">
<title>Node15&#45;&gt;Node4</title>
<g id="a_edge17_Node000004_Node000015"><a xlink:title=" ">
<path fill="none" stroke="#9a32cd" stroke-dasharray="5,2" d="M581.11,-325.94C575.54,-322.18 570.22,-317.54 566.5,-312 535.93,-266.59 580.31,-231.51 543.5,-191 526.57,-172.37 497.37,-166.54 476.61,-164.87"/>
<polygon fill="#9a32cd" stroke="#9a32cd" points="579.5,-329.06 589.89,-331.15 583.07,-323.04 579.5,-329.06"/>
</a>
</g>
<text text-anchor="middle" x="609" y="-287.5" font-family="Helvetica,sans-Serif" font-size="10.00" fill="grey"> animationTimer</text>
<text text-anchor="middle" x="609" y="-276.5" font-family="Helvetica,sans-Serif" font-size="10.00" fill="grey">boundingBoxSize</text>
<text text-anchor="middle" x="609" y="-265.5" font-family="Helvetica,sans-Serif" font-size="10.00" fill="grey">direction_angle</text>
<text text-anchor="middle" x="609" y="-254.5" font-family="Helvetica,sans-Serif" font-size="10.00" fill="grey">orientation</text>
<text text-anchor="middle" x="609" y="-243.5" font-family="Helvetica,sans-Serif" font-size="10.00" fill="grey">unk_09A</text>
<text text-anchor="middle" x="609" y="-232.5" font-family="Helvetica,sans-Serif" font-size="10.00" fill="grey">unk_0B8</text>
<text text-anchor="middle" x="609" y="-221.5" font-family="Helvetica,sans-Serif" font-size="10.00" fill="grey">unk_0C4</text>
<text text-anchor="middle" x="609" y="-210.5" font-family="Helvetica,sans-Serif" font-size="10.00" fill="grey">unk_0C6</text>
</g>
<!-- Node16 -->
<g id="Node000016" class="node">
<title>Node16</title>
<g id="a_Node000016"><a xlink:title=" ">
<polygon fill="white" stroke="#666666" points="591.5,-173 553.5,-173 553.5,-154 591.5,-154 591.5,-173"/>
<text text-anchor="middle" x="572.5" y="-161" font-family="Helvetica,sans-Serif" font-size="10.00">bool</text>
</a>
</g>
</g>
<!-- Node16&#45;&gt;Node2 -->
<g id="edge19_Node000002_Node000016" class="edge">
<title>Node16&#45;&gt;Node2</title>
<g id="a_edge19_Node000002_Node000016"><a xlink:title=" ">
<path fill="none" stroke="#9a32cd" stroke-dasharray="5,2" d="M566.39,-144.02C564.37,-134.36 563.87,-122.77 569.5,-114 576.2,-103.57 588.14,-97.19 599.45,-93.32"/>
<polygon fill="#9a32cd" stroke="#9a32cd" points="563.07,-145.12 569.09,-153.84 569.82,-143.27 563.07,-145.12"/>
</a>
</g>
<text text-anchor="middle" x="613" y="-122.5" font-family="Helvetica,sans-Serif" font-size="10.00" fill="grey"> bPendingDestroy</text>
</g>
<!-- Node17 -->
<g id="Node000017" class="node">
<title>Node17</title>
<g id="a_Node000017"><a xlink:href="structFVector2D.html" target="_top" xlink:title=" ">
<polygon fill="white" stroke="#666666" points="1013,-96 946,-96 946,-77 1013,-77 1013,-96"/>
<text text-anchor="middle" x="979.5" y="-84" font-family="Helvetica,sans-Serif" font-size="10.00">FVector2D</text>
</a>
</g>
</g>
<!-- Node17&#45;&gt;Node1 -->
<g id="edge21_Node000001_Node000017" class="edge">
<title>Node17&#45;&gt;Node1</title>
<g id="a_edge21_Node000001_Node000017"><a xlink:title=" ">
<path fill="none" stroke="#9a32cd" stroke-dasharray="5,2" d="M970.56,-67.86C962.76,-52.47 951.79,-30.82 945.81,-19"/>
<polygon fill="#9a32cd" stroke="#9a32cd" points="967.5,-69.56 975.14,-76.9 973.74,-66.39 967.5,-69.56"/>
</a>
</g>
<text text-anchor="middle" x="978.5" y="-51" font-family="Helvetica,sans-Serif" font-size="10.00" fill="grey"> _end</text>
<text text-anchor="middle" x="978.5" y="-40" font-family="Helvetica,sans-Serif" font-size="10.00" fill="grey">_start</text>
</g>
<!-- Node18 -->
<g id="Node000018" class="node">
<title>Node18</title>
<g id="a_Node000018"><a xlink:title=" ">
<polygon fill="white" stroke="#666666" points="998.5,-173 960.5,-173 960.5,-154 998.5,-154 998.5,-173"/>
<text text-anchor="middle" x="979.5" y="-161" font-family="Helvetica,sans-Serif" font-size="10.00">float</text>
</a>
</g>
</g>
<!-- Node18&#45;&gt;Node17 -->
<g id="edge22_Node000017_Node000018" class="edge">
<title>Node18&#45;&gt;Node17</title>
<g id="a_edge22_Node000017_Node000018"><a xlink:title=" ">
<path fill="none" stroke="#9a32cd" stroke-dasharray="5,2" d="M979.5,-143.52C979.5,-128.24 979.5,-107.48 979.5,-96"/>
<polygon fill="#9a32cd" stroke="#9a32cd" points="976,-143.9 979.5,-153.9 983,-143.9 976,-143.9"/>
</a>
</g>
<text text-anchor="middle" x="984.5" y="-128" font-family="Helvetica,sans-Serif" font-size="10.00" fill="grey"> x</text>
<text text-anchor="middle" x="984.5" y="-117" font-family="Helvetica,sans-Serif" font-size="10.00" fill="grey">z</text>
</g>
<!-- Node19 -->
<g id="Node000019" class="node">
<title>Node19</title>
<g id="a_Node000019"><a xlink:title=" ">
<polygon fill="white" stroke="#666666" points="1076,-96 1031,-96 1031,-77 1076,-77 1076,-96"/>
<text text-anchor="middle" x="1053.5" y="-84" font-family="Helvetica,sans-Serif" font-size="10.00">size_t</text>
</a>
</g>
</g>
<!-- Node19&#45;&gt;Node1 -->
<g id="edge23_Node000001_Node000019" class="edge">
<title>Node19&#45;&gt;Node1</title>
<g id="a_edge23_Node000001_Node000019"><a xlink:title=" ">
<path fill="none" stroke="#9a32cd" stroke-dasharray="5,2" d="M1037.3,-69.76C1026.35,-59.62 1011.25,-46.6 996.5,-37 985.84,-30.06 973.09,-23.81 962.55,-19.12"/>
<polygon fill="#9a32cd" stroke="#9a32cd" points="1035.12,-72.51 1044.79,-76.84 1039.93,-67.42 1035.12,-72.51"/>
</a>
</g>
<text text-anchor="middle" x="1041.5" y="-45.5" font-family="Helvetica,sans-Serif" font-size="10.00" fill="grey"> _count</text>
</g>
</g>
</svg>
