<?xml version="1.0" encoding="UTF-8" standalone="no"?>
<!DOCTYPE svg PUBLIC "-//W3C//DTD SVG 1.1//EN"
 "http://www.w3.org/Graphics/SVG/1.1/DTD/svg11.dtd">
<!-- Generated by graphviz version 2.43.0 (0)
 -->
<!-- Title: OMole::Tick Pages: 1 -->
<!--zoomable 353 -->

<svg id="main" version="1.1" xmlns="http://www.w3.org/2000/svg" xmlns:xlink="http://www.w3.org/1999/xlink" xml:space="preserve" onload="init(evt)">

<style type="text/css"><![CDATA[
.node, .edge {opacity: 0.7;}
.node.selected, .edge.selected {opacity: 1;}
.edge:hover path { stroke: red; }
.edge:hover polygon { stroke: red; fill: red; }
]]></style>

<defs>
  <circle id="rim" cx="0" cy="0" r="7"/>
  <circle id="rim2" cx="0" cy="0" r="3.5"/>
  <g id="zoomPlus">
    <use xlink:href="#rim" fill="#404040"><set attributeName="fill" to="#808080" begin="zoomplus.mouseover" end="zoomplus.mouseout"/></use>
    <path d="M-4,0h8M0,-4v8" fill="none" stroke="white" stroke-width="1.5" pointer-events="none"/>
  </g>
  <g id="zoomMin">
    <use xlink:href="#rim" fill="#404040"><set attributeName="fill" to="#808080" begin="zoomminus.mouseover" end="zoomminus.mouseout"/></use>
    <path d="M-4,0h8" fill="none" stroke="white" stroke-width="1.5" pointer-events="none"/>
  </g>
  <g id="arrowUp" transform="translate(30 24)">
    <use xlink:href="#rim"/>
    <path pointer-events="none" fill="none" stroke="white" stroke-width="1.5" d="M0,-3.0v7 M-2.5,-0.5L0,-3.0L2.5,-0.5"/>
  </g>
  <g id="arrowRight" transform="rotate(90) translate(36 -43)">
    <use xlink:href="#rim"/>
    <path pointer-events="none" fill="none" stroke="white" stroke-width="1.5" d="M0,-3.0v7 M-2.5,-0.5L0,-3.0L2.5,-0.5"/>
  </g>
  <g id="arrowDown" transform="rotate(180) translate(-30 -48)">
    <use xlink:href="#rim"/>
    <path pointer-events="none" fill="none" stroke="white" stroke-width="1.5" d="M0,-3.0v7 M-2.5,-0.5L0,-3.0L2.5,-0.5"/>
  </g>
  <g id="arrowLeft" transform="rotate(270) translate(-36 17)">
    <use xlink:href="#rim"/>
    <path pointer-events="none" fill="none" stroke="white" stroke-width="1.5" d="M0,-3.0v7 M-2.5,-0.5L0,-3.0L2.5,-0.5"/>
  </g>
  <g id="resetDef">
    <use xlink:href="#rim2" fill="#404040"><set attributeName="fill" to="#808080" begin="reset.mouseover" end="reset.mouseout"/></use>
  </g>
</defs>
<script type="application/ecmascript">
var viewWidth = 711;
var viewHeight = 353;
var sectionId = 'dynsection-27';
</script>
<script type="application/ecmascript" xlink:href="svg.min.js"/>
<svg id="graph" class="graph">
<g id="viewport">
<title>OMole::Tick</title>
<!-- Node1 -->
<g id="Node000001" class="node">
<title>Node1</title>
<g id="a_Node000001"><a xlink:title=" ">
<polygon fill="#999999" stroke="#666666" points="74,-246 0,-246 0,-227 74,-227 74,-246"/>
<text text-anchor="middle" x="37" y="-234" font-family="Helvetica,sans-Serif" font-size="10.00">OMole::Tick</text>
</a>
</g>
</g>
<!-- Node2 -->
<g id="Node000002" class="node">
<title>Node2</title>
<g id="a_Node000002"><a xlink:href="classOMole.html#a4212a76ae7a370bcf9044662bec84891" target="_top" xlink:title=" ">
<polygon fill="white" stroke="#666666" points="238,-246 110,-246 110,-227 238,-227 238,-246"/>
<text text-anchor="middle" x="174" y="-234" font-family="Helvetica,sans-Serif" font-size="10.00">OMole::func_80081790</text>
</a>
</g>
</g>
<!-- Node1&#45;&gt;Node2 -->
<g id="edge1_Node000001_Node000002" class="edge">
<title>Node1&#45;&gt;Node2</title>
<g id="a_edge1_Node000001_Node000002"><a xlink:title=" ">
<path fill="none" stroke="#63b8ff" d="M74.18,-236.5C82.18,-236.5 90.93,-236.5 99.82,-236.5"/>
<polygon fill="#63b8ff" stroke="#63b8ff" points="99.88,-240 109.88,-236.5 99.88,-233 99.88,-240"/>
</a>
</g>
</g>
<!-- Node3 -->
<g id="Node000003" class="node">
<title>Node3</title>
<g id="a_Node000003"><a xlink:href="update__objects_8c.html#a5978ef1e35515c275f92eb79b8601d77" target="_top" xlink:title=" ">
<polygon fill="white" stroke="#666666" points="380.5,-284 289.5,-284 289.5,-265 380.5,-265 380.5,-284"/>
<text text-anchor="middle" x="335" y="-272" font-family="Helvetica,sans-Serif" font-size="10.00">func_80072428</text>
</a>
</g>
</g>
<!-- Node2&#45;&gt;Node3 -->
<g id="edge2_Node000002_Node000003" class="edge">
<title>Node2&#45;&gt;Node3</title>
<g id="a_edge2_Node000002_Node000003"><a xlink:title=" ">
<path fill="none" stroke="#63b8ff" d="M215.12,-246.09C236.1,-251.1 261.98,-257.29 284.23,-262.61"/>
<polygon fill="#63b8ff" stroke="#63b8ff" points="283.63,-266.06 294.17,-264.98 285.25,-259.25 283.63,-266.06"/>
</a>
</g>
</g>
<!-- Node4 -->
<g id="Node000004" class="node">
<title>Node4</title>
<g id="a_Node000004"><a xlink:href="code__80086E70_8c.html#acd186a6f592769b3e3db3da72fcf765f" target="_top" xlink:title=" ">
<polygon fill="white" stroke="#666666" points="545.5,-284 454.5,-284 454.5,-265 545.5,-265 545.5,-284"/>
<text text-anchor="middle" x="500" y="-272" font-family="Helvetica,sans-Serif" font-size="10.00">func_80086F60</text>
</a>
</g>
</g>
<!-- Node2&#45;&gt;Node4 -->
<g id="edge6_Node000002_Node000004" class="edge">
<title>Node2&#45;&gt;Node4</title>
<g id="a_edge6_Node000002_Node000004"><a xlink:title=" ">
<path fill="none" stroke="#63b8ff" d="M238.05,-240.29C282.36,-243.36 342.95,-248.34 396,-255.5 411.74,-257.62 428.74,-260.51 444.29,-263.39"/>
<polygon fill="#63b8ff" stroke="#63b8ff" points="443.81,-266.86 454.28,-265.28 445.1,-259.98 443.81,-266.86"/>
</a>
</g>
</g>
<!-- Node7 -->
<g id="Node000007" class="node">
<title>Node7</title>
<g id="a_Node000007"><a xlink:href="code__80086E70_8c.html#a989c71b5530f8701df950f1d39a9259b" target="_top" xlink:title=" ">
<polygon fill="white" stroke="#666666" points="380.5,-190 289.5,-190 289.5,-171 380.5,-171 380.5,-190"/>
<text text-anchor="middle" x="335" y="-178" font-family="Helvetica,sans-Serif" font-size="10.00">func_80087E08</text>
</a>
</g>
</g>
<!-- Node2&#45;&gt;Node7 -->
<g id="edge7_Node000002_Node000007" class="edge">
<title>Node2&#45;&gt;Node7</title>
<g id="a_edge7_Node000002_Node000007"><a xlink:title=" ">
<path fill="none" stroke="#63b8ff" d="M202.33,-226.87C228.54,-217.64 268.3,-203.64 297.27,-193.44"/>
<polygon fill="#63b8ff" stroke="#63b8ff" points="298.75,-196.62 307.02,-190 296.43,-190.02 298.75,-196.62"/>
</a>
</g>
</g>
<!-- Node15 -->
<g id="Node000015" class="node">
<title>Node15</title>
<g id="a_Node000015"><a xlink:href="code__80086E70_8c.html#a2f6ae8b384477efbc2654d6427d095f7" target="_top" xlink:title=" ">
<polygon fill="white" stroke="#666666" points="396,-152.5 274,-152.5 274,-122.5 396,-122.5 396,-152.5"/>
<text text-anchor="start" x="282" y="-140.5" font-family="Helvetica,sans-Serif" font-size="10.00">object_calculate_new</text>
<text text-anchor="middle" x="335" y="-129.5" font-family="Helvetica,sans-Serif" font-size="10.00">_pos_offset</text>
</a>
</g>
</g>
<!-- Node2&#45;&gt;Node15 -->
<g id="edge17_Node000002_Node000015" class="edge">
<title>Node2&#45;&gt;Node15</title>
<g id="a_edge17_Node000002_Node000015"><a xlink:title=" ">
<path fill="none" stroke="#63b8ff" d="M185.61,-226.92C203.04,-211.55 239.27,-181.13 274,-161.5 276.83,-159.9 279.79,-158.35 282.82,-156.87"/>
<polygon fill="#63b8ff" stroke="#63b8ff" points="284.4,-159.99 292.01,-152.62 281.46,-153.64 284.4,-159.99"/>
</a>
</g>
</g>
<!-- Node16 -->
<g id="Node000016" class="node">
<title>Node16</title>
<g id="a_Node000016"><a xlink:href="update__objects_8c.html#a8bfc5f5c7034d61b534e14f325b6e399" target="_top" xlink:title=" ">
<polygon fill="white" stroke="#666666" points="387,-321 283,-321 283,-302 387,-302 387,-321"/>
<text text-anchor="middle" x="335" y="-309" font-family="Helvetica,sans-Serif" font-size="10.00">object_next_state</text>
</a>
</g>
</g>
<!-- Node2&#45;&gt;Node16 -->
<g id="edge18_Node000002_Node000016" class="edge">
<title>Node2&#45;&gt;Node16</title>
<g id="a_edge18_Node000002_Node000016"><a xlink:title=" ">
<path fill="none" stroke="#63b8ff" d="M189.59,-246.04C208.48,-258.08 242.68,-278.86 274,-292.5 279.07,-294.71 284.48,-296.79 289.9,-298.7"/>
<polygon fill="#63b8ff" stroke="#63b8ff" points="289,-302.09 299.59,-301.96 291.23,-295.45 289,-302.09"/>
</a>
</g>
</g>
<!-- Node3&#45;&gt;Node4 -->
<g id="edge3_Node000003_Node000004" class="edge">
<title>Node3&#45;&gt;Node4</title>
<g id="a_edge3_Node000003_Node000004"><a xlink:title=" ">
<path fill="none" stroke="#63b8ff" d="M380.54,-274.5C400.14,-274.5 423.35,-274.5 444.01,-274.5"/>
<polygon fill="#63b8ff" stroke="#63b8ff" points="444.23,-278 454.23,-274.5 444.23,-271 444.23,-278"/>
</a>
</g>
</g>
<!-- Node6 -->
<g id="Node000006" class="node">
<title>Node6</title>
<g id="a_Node000006"><a xlink:href="update__objects_8c.html#af20e3f3c403dd4fbea56e358997e515a" target="_top" xlink:title=" ">
<polygon fill="white" stroke="#666666" points="564,-321 436,-321 436,-302 564,-302 564,-321"/>
<text text-anchor="middle" x="500" y="-309" font-family="Helvetica,sans-Serif" font-size="10.00">set_object_timer_state</text>
</a>
</g>
</g>
<!-- Node3&#45;&gt;Node6 -->
<g id="edge5_Node000003_Node000006" class="edge">
<title>Node3&#45;&gt;Node6</title>
<g id="a_edge5_Node000003_Node000006"><a xlink:title=" ">
<path fill="none" stroke="#63b8ff" d="M377.98,-284.03C399,-288.8 424.65,-294.62 446.92,-299.68"/>
<polygon fill="#63b8ff" stroke="#63b8ff" points="446.36,-303.14 456.88,-301.94 447.91,-296.31 446.36,-303.14"/>
</a>
</g>
</g>
<!-- Node5 -->
<g id="Node000005" class="node">
<title>Node5</title>
<g id="a_Node000005"><a xlink:href="update__objects_8c.html#a3953241e15c6372ac8944ba842148a9a" target="_top" xlink:title=" ">
<polygon fill="white" stroke="#666666" points="703,-246 604,-246 604,-227 703,-227 703,-246"/>
<text text-anchor="middle" x="653.5" y="-234" font-family="Helvetica,sans-Serif" font-size="10.00">clear_object_flag</text>
</a>
</g>
</g>
<!-- Node4&#45;&gt;Node5 -->
<g id="edge4_Node000004_Node000005" class="edge">
<title>Node4&#45;&gt;Node5</title>
<g id="a_edge4_Node000004_Node000005"><a xlink:title=" ">
<path fill="none" stroke="#63b8ff" d="M539.23,-264.91C559.13,-259.92 583.66,-253.77 604.79,-248.47"/>
<polygon fill="#63b8ff" stroke="#63b8ff" points="605.7,-251.85 614.55,-246.02 603.99,-245.06 605.7,-251.85"/>
</a>
</g>
</g>
<!-- Node7&#45;&gt;Node5 -->
<g id="edge8_Node000007_Node000005" class="edge">
<title>Node7&#45;&gt;Node5</title>
<g id="a_edge8_Node000007_Node000005"><a xlink:title=" ">
<path fill="none" stroke="#63b8ff" d="M380.59,-187.16C427.38,-194.3 503.02,-206.27 568,-218.5 578.28,-220.44 589.22,-222.65 599.71,-224.85"/>
<polygon fill="#63b8ff" stroke="#63b8ff" points="599.08,-228.3 609.59,-226.95 600.54,-221.45 599.08,-228.3"/>
</a>
</g>
</g>
<!-- Node8 -->
<g id="Node000008" class="node">
<title>Node8</title>
<g id="a_Node000008"><a xlink:href="code__80086E70_8c.html#a6eea48094f49bb346ce1170842d955b2" target="_top" xlink:title=" ">
<polygon fill="white" stroke="#666666" points="546,-171 454,-171 454,-152 546,-152 546,-171"/>
<text text-anchor="middle" x="500" y="-159" font-family="Helvetica,sans-Serif" font-size="10.00">func_80086FD4</text>
</a>
</g>
</g>
<!-- Node7&#45;&gt;Node8 -->
<g id="edge9_Node000007_Node000008" class="edge">
<title>Node7&#45;&gt;Node8</title>
<g id="a_edge9_Node000007_Node000008"><a xlink:title=" ">
<path fill="none" stroke="#63b8ff" d="M380.54,-175.31C400.05,-173.03 423.16,-170.34 443.75,-167.94"/>
<polygon fill="#63b8ff" stroke="#63b8ff" points="444.42,-171.39 453.95,-166.75 443.61,-164.43 444.42,-171.39"/>
</a>
</g>
</g>
<!-- Node9 -->
<g id="Node000009" class="node">
<title>Node9</title>
<g id="a_Node000009"><a xlink:href="code__80086E70_8c.html#a1cd6a78cf091bd496e83739902c652a7" target="_top" xlink:title=" ">
<polygon fill="white" stroke="#666666" points="546,-37 454,-37 454,-18 546,-18 546,-37"/>
<text text-anchor="middle" x="500" y="-25" font-family="Helvetica,sans-Serif" font-size="10.00">func_8008751C</text>
</a>
</g>
</g>
<!-- Node7&#45;&gt;Node9 -->
<g id="edge11_Node000007_Node000009" class="edge">
<title>Node7&#45;&gt;Node9</title>
<g id="a_edge11_Node000007_Node000009"><a xlink:title=" ">
<path fill="none" stroke="#63b8ff" d="M380.73,-171.77C386.38,-169.18 391.68,-165.83 396,-161.5 433.81,-123.57 393.62,-83.85 432,-46.5 435.7,-42.9 440.02,-39.98 444.66,-37.6"/>
<polygon fill="#63b8ff" stroke="#63b8ff" points="446.06,-40.8 453.89,-33.67 443.32,-34.36 446.06,-40.8"/>
</a>
</g>
</g>
<!-- Node12 -->
<g id="Node000012" class="node">
<title>Node12</title>
<g id="a_Node000012"><a xlink:href="update__objects_8c.html#a2301a51a93a60f0382cdc7002e14f95a" target="_top" xlink:title=" ">
<polygon fill="white" stroke="#666666" points="568,-133.5 432,-133.5 432,-103.5 568,-103.5 568,-133.5"/>
<text text-anchor="start" x="440" y="-121.5" font-family="Helvetica,sans-Serif" font-size="10.00">is_obj_index_flag_status</text>
<text text-anchor="middle" x="500" y="-110.5" font-family="Helvetica,sans-Serif" font-size="10.00">_inactive</text>
</a>
</g>
</g>
<!-- Node7&#45;&gt;Node12 -->
<g id="edge14_Node000007_Node000012" class="edge">
<title>Node7&#45;&gt;Node12</title>
<g id="a_edge14_Node000007_Node000012"><a xlink:title=" ">
<path fill="none" stroke="#63b8ff" d="M369.71,-170.99C378.38,-168.23 387.63,-165 396,-161.5 412.69,-154.52 415.44,-149.79 432,-142.5 436.12,-140.69 440.42,-138.9 444.77,-137.18"/>
<polygon fill="#63b8ff" stroke="#63b8ff" points="446.25,-140.36 454.32,-133.51 443.73,-133.83 446.25,-140.36"/>
</a>
</g>
</g>
<!-- Node13 -->
<g id="Node000013" class="node">
<title>Node13</title>
<g id="a_Node000013"><a xlink:href="code__80086E70_8c.html#a1d4593518e5153328388afb23bbc6902" target="_top" xlink:title=" ">
<polygon fill="white" stroke="#666666" points="557,-85.5 443,-85.5 443,-55.5 557,-55.5 557,-85.5"/>
<text text-anchor="start" x="451" y="-73.5" font-family="Helvetica,sans-Serif" font-size="10.00">object_add_velocity</text>
<text text-anchor="middle" x="500" y="-62.5" font-family="Helvetica,sans-Serif" font-size="10.00">_offset_xyz</text>
</a>
</g>
</g>
<!-- Node7&#45;&gt;Node13 -->
<g id="edge15_Node000007_Node000013" class="edge">
<title>Node7&#45;&gt;Node13</title>
<g id="a_edge15_Node000007_Node000013"><a xlink:title=" ">
<path fill="none" stroke="#63b8ff" d="M380.02,-170.98C385.77,-168.51 391.29,-165.41 396,-161.5 422.02,-139.92 406.38,-116.56 432,-94.5 433.35,-93.34 434.76,-92.23 436.23,-91.17"/>
<polygon fill="#63b8ff" stroke="#63b8ff" points="438.42,-93.93 445.06,-85.68 434.72,-87.98 438.42,-93.93"/>
</a>
</g>
</g>
<!-- Node14 -->
<g id="Node000014" class="node">
<title>Node14</title>
<g id="a_Node000014"><a xlink:href="update__objects_8c.html#afe64f2394ee0deab6370b77609500bda" target="_top" xlink:title=" ">
<polygon fill="white" stroke="#666666" points="545,-247 455,-247 455,-228 545,-228 545,-247"/>
<text text-anchor="middle" x="500" y="-235" font-family="Helvetica,sans-Serif" font-size="10.00">set_object_flag</text>
</a>
</g>
</g>
<!-- Node7&#45;&gt;Node14 -->
<g id="edge16_Node000007_Node000014" class="edge">
<title>Node7&#45;&gt;Node14</title>
<g id="a_edge16_Node000007_Node000014"><a xlink:title=" ">
<path fill="none" stroke="#63b8ff" d="M363.28,-190.04C390.32,-199.49 431.91,-214.04 461.93,-224.54"/>
<polygon fill="#63b8ff" stroke="#63b8ff" points="461.03,-227.93 471.63,-227.93 463.34,-221.32 461.03,-227.93"/>
</a>
</g>
</g>
<!-- Node8&#45;&gt;Node5 -->
<g id="edge10_Node000008_Node000005" class="edge">
<title>Node8&#45;&gt;Node5</title>
<g id="a_edge10_Node000008_Node000005"><a xlink:title=" ">
<path fill="none" stroke="#63b8ff" d="M531.54,-171C543.16,-174.99 556.39,-179.99 568,-185.5 589.94,-195.92 613.49,-210.44 630.14,-221.32"/>
<polygon fill="#63b8ff" stroke="#63b8ff" points="628.36,-224.34 638.63,-226.94 632.22,-218.5 628.36,-224.34"/>
</a>
</g>
</g>
<!-- Node10 -->
<g id="Node000010" class="node">
<title>Node10</title>
<g id="a_Node000010"><a xlink:href="math__util_8c.html#ae69cbf5c8d4b3b0dba2d7b4d4673689f" target="_top" xlink:title=" ">
<polygon fill="white" stroke="#666666" points="672.5,-19 634.5,-19 634.5,0 672.5,0 672.5,-19"/>
<text text-anchor="middle" x="653.5" y="-7" font-family="Helvetica,sans-Serif" font-size="10.00">coss</text>
</a>
</g>
</g>
<!-- Node9&#45;&gt;Node10 -->
<g id="edge12_Node000009_Node000010" class="edge">
<title>Node9&#45;&gt;Node10</title>
<g id="a_edge12_Node000009_Node000010"><a xlink:title=" ">
<path fill="none" stroke="#63b8ff" d="M546.04,-22.15C571.38,-19.14 602.23,-15.47 624.19,-12.86"/>
<polygon fill="#63b8ff" stroke="#63b8ff" points="624.67,-16.33 634.19,-11.68 623.84,-9.38 624.67,-16.33"/>
</a>
</g>
</g>
<!-- Node11 -->
<g id="Node000011" class="node">
<title>Node11</title>
<g id="a_Node000011"><a xlink:href="math__util_8c.html#a19ed3bd78fd2d3e2bd0a29f6caf48545" target="_top" xlink:title=" ">
<polygon fill="white" stroke="#666666" points="671.5,-56 635.5,-56 635.5,-37 671.5,-37 671.5,-56"/>
<text text-anchor="middle" x="653.5" y="-44" font-family="Helvetica,sans-Serif" font-size="10.00">sins</text>
</a>
</g>
</g>
<!-- Node9&#45;&gt;Node11 -->
<g id="edge13_Node000009_Node000011" class="edge">
<title>Node9&#45;&gt;Node11</title>
<g id="a_edge13_Node000009_Node000011"><a xlink:title=" ">
<path fill="none" stroke="#63b8ff" d="M546.04,-33.15C571.83,-36.38 603.33,-40.33 625.35,-43.09"/>
<polygon fill="#63b8ff" stroke="#63b8ff" points="624.97,-46.57 635.33,-44.35 625.84,-39.63 624.97,-46.57"/>
</a>
</g>
</g>
<!-- Node16&#45;&gt;Node5 -->
<g id="edge19_Node000016_Node000005" class="edge">
<title>Node16&#45;&gt;Node5</title>
<g id="a_edge19_Node000016_Node000005"><a xlink:title=" ">
<path fill="none" stroke="#63b8ff" d="M361.02,-321.11C405.03,-336.42 498.24,-361.59 568,-330.5 602.72,-315.02 629.15,-277.44 642.61,-254.76"/>
<polygon fill="#63b8ff" stroke="#63b8ff" points="645.65,-256.49 647.56,-246.06 639.57,-253.02 645.65,-256.49"/>
</a>
</g>
</g>
<!-- Node16&#45;&gt;Node6 -->
<g id="edge20_Node000016_Node000006" class="edge">
<title>Node16&#45;&gt;Node6</title>
<g id="a_edge20_Node000016_Node000006"><a xlink:title=" ">
<path fill="none" stroke="#63b8ff" d="M387.13,-311.5C399.28,-311.5 412.49,-311.5 425.43,-311.5"/>
<polygon fill="#63b8ff" stroke="#63b8ff" points="425.72,-315 435.72,-311.5 425.72,-308 425.72,-315"/>
</a>
</g>
</g>
</g>
</svg>

<g id="navigator" transform="translate(0 0)" fill="#404254">
  <rect fill="#f2f5e9" fill-opacity="0.5" stroke="#606060" stroke-width=".5" x="0" y="0" width="60" height="60"/>
  <use id="zoomplus" xlink:href="#zoomPlus" x="17" y="9" onmousedown="handleZoom(evt,'in')"/>
  <use id="zoomminus" xlink:href="#zoomMin" x="42" y="9" onmousedown="handleZoom(evt,'out')"/>
  <use id="reset" xlink:href="#resetDef" x="30" y="36" onmousedown="handleReset()"/>
   <use id="arrowup" xlink:href="#arrowUp" x="0" y="0" onmousedown="handlePan(0,-1)"/>
  <use id="arrowright" xlink:href="#arrowRight" x="0" y="0" onmousedown="handlePan(1,0)"/>
  <use id="arrowdown" xlink:href="#arrowDown" x="0" y="0" onmousedown="handlePan(0,1)"/>
  <use id="arrowleft" xlink:href="#arrowLeft" x="0" y="0" onmousedown="handlePan(-1,0)"/>
</g>
<svg viewBox="0 0 15 15" width="100%" height="30px" preserveAspectRatio="xMaxYMin meet">
 <g id="arrow_out" transform="scale(0.3 0.3)">
  <a xlink:href="classOMole_af24bf242f27ea78d4a0f8b2d747683dd_cgraph_org.svg" target="_base">
   <rect id="button" ry="5" rx="5" y="6" x="6" height="38" width="38"
        fill="#f2f5e9" fill-opacity="0.5" stroke="#606060" stroke-width="1.0"/>
   <path id="arrow"
     d="M 11.500037,31.436501 C 11.940474,20.09759 22.043105,11.32322 32.158766,21.979434 L 37.068811,17.246167 C 37.068811,17.246167 37.088388,32 37.088388,32 L 22.160133,31.978069 C 22.160133,31.978069 26.997745,27.140456 26.997745,27.140456 C 18.528582,18.264221 13.291696,25.230495 11.500037,31.436501 z"
     style="fill:#404040;"/>
  </a>
 </g>
</svg>

<style type='text/css'>
<![CDATA[
[data-mouse-over-selected='false'] { opacity: 0.7; }
[data-mouse-over-selected='true']  { opacity: 1.0; }
]]>
</style>
<script type="application/ecmascript"><![CDATA[
document.addEventListener('DOMContentLoaded', (event) => {
  highlightEdges();
  highlightAdjacentNodes();
});
]]></script>
</svg>
