<?xml version="1.0" encoding="UTF-8" standalone="no"?>
<!DOCTYPE svg PUBLIC "-//W3C//DTD SVG 1.1//EN"
 "http://www.w3.org/Graphics/SVG/1.1/DTD/svg11.dtd">
<!-- Generated by graphviz version 2.43.0 (0)
 -->
<!-- Title: Ship::Menu::Draw Pages: 1 -->
<svg width="1485pt" height="897pt"
 viewBox="0.00 0.00 1485.00 896.50" xmlns="http://www.w3.org/2000/svg" xmlns:xlink="http://www.w3.org/1999/xlink">
<g id="graph0" class="graph" transform="scale(1 1) rotate(0) translate(4 892.5)">
<title>Ship::Menu::Draw</title>
<!-- Node1 -->
<g id="Node000001" class="node">
<title>Node1</title>
<g id="a_Node000001"><a xlink:title=" ">
<polygon fill="#999999" stroke="#666666" points="102,-170 0,-170 0,-151 102,-151 102,-170"/>
<text text-anchor="middle" x="51" y="-158" font-family="Helvetica,sans-Serif" font-size="10.00">Ship::Menu::Draw</text>
</a>
</g>
</g>
<!-- Node2 -->
<g id="Node000002" class="node">
<title>Node2</title>
<g id="a_Node000002"><a xlink:href="classShip_1_1Menu.html#ae85312deebd68ce051243164a1831fae" target="_top" xlink:title=" ">
<polygon fill="white" stroke="#666666" points="281,-170 138,-170 138,-151 281,-151 281,-170"/>
<text text-anchor="middle" x="209.5" y="-158" font-family="Helvetica,sans-Serif" font-size="10.00">Ship::Menu::DrawElement</text>
</a>
</g>
</g>
<!-- Node1&#45;&gt;Node2 -->
<g id="edge1_Node000001_Node000002" class="edge">
<title>Node1&#45;&gt;Node2</title>
<g id="a_edge1_Node000001_Node000002"><a xlink:title=" ">
<path fill="none" stroke="#63b8ff" d="M102.38,-160.5C110.54,-160.5 119.16,-160.5 127.82,-160.5"/>
<polygon fill="#63b8ff" stroke="#63b8ff" points="127.98,-164 137.98,-160.5 127.98,-157 127.98,-164"/>
</a>
</g>
</g>
<!-- Node3 -->
<g id="Node000003" class="node">
<title>Node3</title>
<g id="a_Node000003"><a xlink:href="namespaceUIWidgets.html#aff1b4b5ec89aa4afa79223288c55a91e" target="_top" xlink:title=" ">
<polygon fill="white" stroke="#666666" points="1256,-473 1151,-473 1151,-454 1256,-454 1256,-473"/>
<text text-anchor="middle" x="1203.5" y="-461" font-family="Helvetica,sans-Serif" font-size="10.00">UIWidgets::Button</text>
</a>
</g>
</g>
<!-- Node2&#45;&gt;Node3 -->
<g id="edge2_Node000002_Node000003" class="edge">
<title>Node2&#45;&gt;Node3</title>
<g id="a_edge2_Node000002_Node000003"><a xlink:title=" ">
<path fill="none" stroke="#63b8ff" d="M281.22,-169.81C456.32,-192.92 896.45,-251.32 903,-255.5 927.94,-271.41 917.76,-290.9 939,-311.5 1005.98,-376.44 1037.7,-373.74 1119,-419.5 1137.26,-429.78 1158.12,-440.77 1174.42,-449.2"/>
<polygon fill="#63b8ff" stroke="#63b8ff" points="1172.94,-452.37 1183.44,-453.84 1176.15,-446.15 1172.94,-452.37"/>
</a>
</g>
</g>
<!-- Node4 -->
<g id="Node000004" class="node">
<title>Node4</title>
<g id="a_Node000004"><a xlink:href="namespaceUIWidgets.html#a2af1f9ddf2209195e9ad4c2edefdec19" target="_top" xlink:title=" ">
<polygon fill="white" stroke="#666666" points="1474.5,-860 1326.5,-860 1326.5,-841 1474.5,-841 1474.5,-860"/>
<text text-anchor="middle" x="1400.5" y="-848" font-family="Helvetica,sans-Serif" font-size="10.00">UIWidgets::PopStyleButton</text>
</a>
</g>
</g>
<!-- Node2&#45;&gt;Node4 -->
<g id="edge56_Node000002_Node000004" class="edge">
<title>Node2&#45;&gt;Node4</title>
<g id="a_edge56_Node000002_Node000004"><a xlink:title=" ">
<path fill="none" stroke="#63b8ff" d="M211,-170.24C216.03,-256.63 264.56,-888.5 608,-888.5 608,-888.5 608,-888.5 1012,-888.5 1134.96,-888.5 1165.91,-884.07 1288,-869.5 1304.87,-867.49 1323.08,-864.66 1339.79,-861.81"/>
<polygon fill="#63b8ff" stroke="#63b8ff" points="1340.73,-865.2 1349.98,-860.03 1339.53,-858.3 1340.73,-865.2"/>
</a>
</g>
</g>
<!-- Node5 -->
<g id="Node000005" class="node">
<title>Node5</title>
<g id="a_Node000005"><a xlink:href="namespaceUIWidgets.html#a7bf63e353090d99c90ff183fff2b582f" target="_top" xlink:title=" ">
<polygon fill="white" stroke="#666666" points="1477,-246 1324,-246 1324,-227 1477,-227 1477,-246"/>
<text text-anchor="middle" x="1400.5" y="-234" font-family="Helvetica,sans-Serif" font-size="10.00">UIWidgets::PushStyleButton</text>
</a>
</g>
</g>
<!-- Node2&#45;&gt;Node5 -->
<g id="edge58_Node000002_Node000005" class="edge">
<title>Node2&#45;&gt;Node5</title>
<g id="a_edge58_Node000002_Node000005"><a xlink:title=" ">
<path fill="none" stroke="#63b8ff" d="M281.23,-160.5C360.72,-160.5 493.62,-160.5 608,-160.5 608,-160.5 608,-160.5 1012,-160.5 1134.93,-160.5 1169.61,-145.43 1288,-178.5 1321.1,-187.75 1355.68,-207.57 1377.38,-221.45"/>
<polygon fill="#63b8ff" stroke="#63b8ff" points="1375.57,-224.45 1385.86,-226.99 1379.4,-218.59 1375.57,-224.45"/>
</a>
</g>
</g>
<!-- Node8 -->
<g id="Node000008" class="node">
<title>Node8</title>
<g id="a_Node000008"><a xlink:href="classShip_1_1Menu.html#a93c1cecb59051f4d9b31f1cab0b577f4" target="_top" xlink:title=" ">
<polygon fill="white" stroke="#666666" points="488,-511 317,-511 317,-492 488,-492 488,-511"/>
<text text-anchor="middle" x="402.5" y="-499" font-family="Helvetica,sans-Serif" font-size="10.00">Ship::Menu::DrawSearchResults</text>
</a>
</g>
</g>
<!-- Node2&#45;&gt;Node8 -->
<g id="edge7_Node000002_Node000008" class="edge">
<title>Node2&#45;&gt;Node8</title>
<g id="a_edge7_Node000002_Node000008"><a xlink:title=" ">
<path fill="none" stroke="#63b8ff" d="M215.35,-170.4C230,-200.15 275.34,-291.21 317,-364.5 341.6,-407.77 372.88,-457.15 389.63,-483.19"/>
<polygon fill="#63b8ff" stroke="#63b8ff" points="386.74,-485.17 395.1,-491.68 392.62,-481.38 386.74,-485.17"/>
</a>
</g>
</g>
<!-- Node9 -->
<g id="Node000009" class="node">
<title>Node9</title>
<g id="a_Node000009"><a xlink:href="classShip_1_1Menu.html#a260af6187999b8381769c55c122dc2ee" target="_top" xlink:title=" ">
<polygon fill="white" stroke="#666666" points="685,-511 533,-511 533,-492 685,-492 685,-511"/>
<text text-anchor="middle" x="609" y="-499" font-family="Helvetica,sans-Serif" font-size="10.00">Ship::Menu::MenuDrawItem</text>
</a>
</g>
</g>
<!-- Node2&#45;&gt;Node9 -->
<g id="edge51_Node000002_Node000009" class="edge">
<title>Node2&#45;&gt;Node9</title>
<g id="a_edge51_Node000002_Node000009"><a xlink:title=" ">
<path fill="none" stroke="#63b8ff" d="M221.97,-170.34C277.62,-218.08 519.74,-425.78 589.27,-485.43"/>
<polygon fill="#63b8ff" stroke="#63b8ff" points="587,-488.09 596.87,-491.95 591.55,-482.78 587,-488.09"/>
</a>
</g>
</g>
<!-- Node31 -->
<g id="Node000031" class="node">
<title>Node31</title>
<g id="a_Node000031"><a xlink:href="structMenuInit.html#a54de6672f1a266b1a0c2975b80510839" target="_top" xlink:title=" ">
<polygon fill="white" stroke="#666666" points="475.5,-56 329.5,-56 329.5,-37 475.5,-37 475.5,-56"/>
<text text-anchor="middle" x="402.5" y="-44" font-family="Helvetica,sans-Serif" font-size="10.00">MenuInit::GetUpdateFuncs</text>
</a>
</g>
</g>
<!-- Node2&#45;&gt;Node31 -->
<g id="edge50_Node000002_Node000031" class="edge">
<title>Node2&#45;&gt;Node31</title>
<g id="a_edge50_Node000002_Node000031"><a xlink:title=" ">
<path fill="none" stroke="#63b8ff" d="M219.18,-150.82C236.17,-132.46 275.76,-92.45 317,-70.5 325.59,-65.93 335.15,-62.14 344.67,-59.04"/>
<polygon fill="#63b8ff" stroke="#63b8ff" points="345.97,-62.3 354.52,-56.04 343.93,-55.6 345.97,-62.3"/>
</a>
</g>
</g>
<!-- Node32 -->
<g id="Node000032" class="node">
<title>Node32</title>
<g id="a_Node000032"><a xlink:href="namespaceShip.html#aba08caf4233c23c01fbfd2853ee9a6d1" target="_top" xlink:title=" ">
<polygon fill="white" stroke="#666666" points="693,-94 525,-94 525,-75 693,-75 693,-94"/>
<text text-anchor="middle" x="609" y="-82" font-family="Helvetica,sans-Serif" font-size="10.00">Ship::ModernMenuHeaderEntry</text>
</a>
</g>
</g>
<!-- Node2&#45;&gt;Node32 -->
<g id="edge52_Node000002_Node000032" class="edge">
<title>Node2&#45;&gt;Node32</title>
<g id="a_edge52_Node000002_Node000032"><a xlink:title=" ">
<path fill="none" stroke="#63b8ff" d="M238.24,-150.98C259.57,-143.96 289.88,-134.59 317,-128.5 382.49,-113.79 457.39,-102.59 514.8,-95.17"/>
<polygon fill="#63b8ff" stroke="#63b8ff" points="515.47,-98.61 524.95,-93.88 514.59,-91.67 515.47,-98.61"/>
</a>
</g>
</g>
<!-- Node33 -->
<g id="Node000033" class="node">
<title>Node33</title>
<g id="a_Node000033"><a xlink:href="namespaceShip.html#a63dcf986e97fa1416fb6532800dbc391" target="_top" xlink:title=" ">
<polygon fill="white" stroke="#666666" points="694,-132 524,-132 524,-113 694,-113 694,-132"/>
<text text-anchor="middle" x="609" y="-120" font-family="Helvetica,sans-Serif" font-size="10.00">Ship::ModernMenuSidebarEntry</text>
</a>
</g>
</g>
<!-- Node2&#45;&gt;Node33 -->
<g id="edge54_Node000002_Node000033" class="edge">
<title>Node2&#45;&gt;Node33</title>
<g id="a_edge54_Node000002_Node000033"><a xlink:title=" ">
<path fill="none" stroke="#63b8ff" d="M279.19,-150.97C291.75,-149.37 304.76,-147.81 317,-146.5 382.62,-139.49 456.75,-133.4 513.77,-129.11"/>
<polygon fill="#63b8ff" stroke="#63b8ff" points="514.14,-132.59 523.85,-128.36 513.62,-125.61 514.14,-132.59"/>
</a>
</g>
</g>
<!-- Node34 -->
<g id="Node000034" class="node">
<title>Node34</title>
<g id="a_Node000034"><a xlink:href="classShip_1_1Menu.html#ae0cf43a65719c392abe2e673a0c677ba" target="_top" xlink:title=" ">
<polygon fill="white" stroke="#666666" points="473.5,-19 331.5,-19 331.5,0 473.5,0 473.5,-19"/>
<text text-anchor="middle" x="402.5" y="-7" font-family="Helvetica,sans-Serif" font-size="10.00">Ship::Menu::ProcessReset</text>
</a>
</g>
</g>
<!-- Node2&#45;&gt;Node34 -->
<g id="edge57_Node000002_Node000034" class="edge">
<title>Node2&#45;&gt;Node34</title>
<g id="a_edge57_Node000002_Node000034"><a xlink:title=" ">
<path fill="none" stroke="#63b8ff" d="M215.17,-150.92C227.78,-126.12 265.14,-59.49 317,-27.5 319.66,-25.86 322.44,-24.37 325.32,-23.01"/>
<polygon fill="#63b8ff" stroke="#63b8ff" points="326.84,-26.17 334.75,-19.11 324.17,-19.7 326.84,-26.17"/>
</a>
</g>
</g>
<!-- Node3&#45;&gt;Node4 -->
<g id="edge3_Node000003_Node000004" class="edge">
<title>Node3&#45;&gt;Node4</title>
<g id="a_edge3_Node000003_Node000004"><a xlink:title=" ">
<path fill="none" stroke="#63b8ff" d="M1215.07,-473.21C1232.35,-489.56 1266.85,-524.28 1288,-559.5 1344.86,-654.16 1381.93,-782.85 1394.62,-831.14"/>
<polygon fill="#63b8ff" stroke="#63b8ff" points="1391.25,-832.1 1397.14,-840.91 1398.03,-830.35 1391.25,-832.1"/>
</a>
</g>
</g>
<!-- Node3&#45;&gt;Node5 -->
<g id="edge4_Node000003_Node000005" class="edge">
<title>Node3&#45;&gt;Node5</title>
<g id="a_edge4_Node000003_Node000005"><a xlink:title=" ">
<path fill="none" stroke="#63b8ff" d="M1212.88,-453.75C1242.94,-418.75 1345.66,-299.17 1384.48,-253.99"/>
<polygon fill="#63b8ff" stroke="#63b8ff" points="1387.29,-256.08 1391.15,-246.22 1381.98,-251.52 1387.29,-256.08"/>
</a>
</g>
</g>
<!-- Node6 -->
<g id="Node000006" class="node">
<title>Node6</title>
<g id="a_Node000006"><a xlink:href="ShipUtils_8cpp.html#a31d87083f0db90738310ec533f7e9d17" target="_top" xlink:title=" ">
<polygon fill="white" stroke="#666666" points="1459.5,-530 1341.5,-530 1341.5,-511 1459.5,-511 1459.5,-530"/>
<text text-anchor="middle" x="1400.5" y="-518" font-family="Helvetica,sans-Serif" font-size="10.00">Ship_IsCStringEmpty</text>
</a>
</g>
</g>
<!-- Node3&#45;&gt;Node6 -->
<g id="edge5_Node000003_Node000006" class="edge">
<title>Node3&#45;&gt;Node6</title>
<g id="a_edge5_Node000003_Node000006"><a xlink:title=" ">
<path fill="none" stroke="#63b8ff" d="M1237.14,-473.04C1270.04,-482.66 1320.98,-497.55 1357.01,-508.08"/>
<polygon fill="#63b8ff" stroke="#63b8ff" points="1356.17,-511.48 1366.75,-510.93 1358.14,-504.76 1356.17,-511.48"/>
</a>
</g>
</g>
<!-- Node7 -->
<g id="Node000007" class="node">
<title>Node7</title>
<g id="a_Node000007"><a xlink:href="namespaceUIWidgets.html#a01b8f77a826ec1dcc1ee8c9a21c219d6" target="_top" xlink:title=" ">
<polygon fill="white" stroke="#666666" points="1469,-473 1332,-473 1332,-454 1469,-454 1469,-473"/>
<text text-anchor="middle" x="1400.5" y="-461" font-family="Helvetica,sans-Serif" font-size="10.00">UIWidgets::WrappedText</text>
</a>
</g>
</g>
<!-- Node3&#45;&gt;Node7 -->
<g id="edge6_Node000003_Node000007" class="edge">
<title>Node3&#45;&gt;Node7</title>
<g id="a_edge6_Node000003_Node000007"><a xlink:title=" ">
<path fill="none" stroke="#63b8ff" d="M1256.24,-463.5C1276.21,-463.5 1299.49,-463.5 1321.41,-463.5"/>
<polygon fill="#63b8ff" stroke="#63b8ff" points="1321.7,-467 1331.7,-463.5 1321.7,-460 1321.7,-467"/>
</a>
</g>
</g>
<!-- Node8&#45;&gt;Node9 -->
<g id="edge8_Node000008_Node000009" class="edge">
<title>Node8&#45;&gt;Node9</title>
<g id="a_edge8_Node000008_Node000009"><a xlink:title=" ">
<path fill="none" stroke="#63b8ff" d="M488.15,-494.84C499.51,-494.72 511.17,-494.72 522.54,-494.83"/>
<polygon fill="#63b8ff" stroke="#63b8ff" points="522.84,-498.34 532.88,-494.97 522.93,-491.34 522.84,-498.34"/>
</a>
</g>
</g>
<!-- Node9&#45;&gt;Node3 -->
<g id="edge9_Node000009_Node000003" class="edge">
<title>Node9&#45;&gt;Node3</title>
<g id="a_edge9_Node000009_Node000003"><a xlink:title=" ">
<path fill="none" stroke="#63b8ff" d="M636.79,-491.85C660.87,-483.57 697.36,-471.97 730,-465.5 884.16,-434.92 926.32,-432.12 1083,-444.5 1102.97,-446.08 1124.65,-449.12 1143.99,-452.31"/>
<polygon fill="#63b8ff" stroke="#63b8ff" points="1143.42,-455.76 1153.87,-453.99 1144.6,-448.86 1143.42,-455.76"/>
</a>
</g>
</g>
<!-- Node9&#45;&gt;Node4 -->
<g id="edge39_Node000009_Node000004" class="edge">
<title>Node9&#45;&gt;Node4</title>
<g id="a_edge39_Node000009_Node000004"><a xlink:title=" ">
<path fill="none" stroke="#63b8ff" d="M609.96,-511.01C610.33,-556.28 618.53,-751.04 730,-831.5 776.4,-864.99 1147.32,-858.21 1316.23,-853.29"/>
<polygon fill="#63b8ff" stroke="#63b8ff" points="1316.43,-856.78 1326.33,-852.99 1316.23,-849.79 1316.43,-856.78"/>
</a>
</g>
</g>
<!-- Node9&#45;&gt;Node5 -->
<g id="edge41_Node000009_Node000005" class="edge">
<title>Node9&#45;&gt;Node5</title>
<g id="a_edge41_Node000009_Node000005"><a xlink:title=" ">
<path fill="none" stroke="#63b8ff" d="M611.2,-491.9C616.55,-453.75 641.94,-312.28 730,-255.5 932.81,-124.74 1246.75,-193.49 1358.39,-224.22"/>
<polygon fill="#63b8ff" stroke="#63b8ff" points="1357.67,-227.65 1368.24,-226.98 1359.55,-220.91 1357.67,-227.65"/>
</a>
</g>
</g>
<!-- Node9&#45;&gt;Node7 -->
<g id="edge49_Node000009_Node000007" class="edge">
<title>Node9&#45;&gt;Node7</title>
<g id="a_edge49_Node000009_Node000007"><a xlink:title=" ">
<path fill="none" stroke="#63b8ff" d="M622.41,-491.89C643.24,-476.41 687.19,-446.6 730,-435.5 955.49,-377 1237.86,-427.15 1350.16,-451.77"/>
<polygon fill="#63b8ff" stroke="#63b8ff" points="1349.65,-455.24 1360.17,-454 1351.17,-448.41 1349.65,-455.24"/>
</a>
</g>
</g>
<!-- Node9&#45;&gt;Node8 -->
<g id="edge38_Node000009_Node000008" class="edge">
<title>Node9&#45;&gt;Node8</title>
<g id="a_edge38_Node000009_Node000008"><a xlink:title=" ">
<path fill="none" stroke="#63b8ff" d="M532.88,-508.03C521.63,-508.22 509.9,-508.28 498.3,-508.23"/>
<polygon fill="#63b8ff" stroke="#63b8ff" points="498.18,-504.73 488.15,-508.16 498.13,-511.73 498.18,-504.73"/>
</a>
</g>
</g>
<!-- Node10 -->
<g id="Node000010" class="node">
<title>Node10</title>
<g id="a_Node000010"><a xlink:href="namespaceUIWidgets.html#a28268b432c9b36af9e83d12b8b28bb35" target="_top" xlink:title=" ">
<polygon fill="white" stroke="#666666" points="1071.5,-303 950.5,-303 950.5,-284 1071.5,-284 1071.5,-303"/>
<text text-anchor="middle" x="1011" y="-291" font-family="Helvetica,sans-Serif" font-size="10.00">UIWidgets::Checkbox</text>
</a>
</g>
</g>
<!-- Node9&#45;&gt;Node10 -->
<g id="edge10_Node000009_Node000010" class="edge">
<title>Node9&#45;&gt;Node10</title>
<g id="a_edge10_Node000009_Node000010"><a xlink:title=" ">
<path fill="none" stroke="#63b8ff" d="M616.22,-491.71C632.06,-467.62 676.49,-405.09 730,-373.5 798.32,-333.16 826.9,-351.94 903,-329.5 926.75,-322.5 953.11,-313.64 973.73,-306.46"/>
<polygon fill="#63b8ff" stroke="#63b8ff" points="975.07,-309.7 983.35,-303.09 972.76,-303.09 975.07,-309.7"/>
</a>
</g>
</g>
<!-- Node15 -->
<g id="Node000015" class="node">
<title>Node15</title>
<g id="a_Node000015"><a xlink:href="namespaceUIWidgets.html#ab602d66bd389006842f8da46eabf9064" target="_top" xlink:title=" ">
<polygon fill="white" stroke="#666666" points="879,-284 754,-284 754,-265 879,-265 879,-284"/>
<text text-anchor="middle" x="816.5" y="-272" font-family="Helvetica,sans-Serif" font-size="10.00">UIWidgets::Combobox</text>
</a>
</g>
</g>
<!-- Node9&#45;&gt;Node15 -->
<g id="edge17_Node000009_Node000015" class="edge">
<title>Node9&#45;&gt;Node15</title>
<g id="a_edge17_Node000009_Node000015"><a xlink:title=" ">
<path fill="none" stroke="#63b8ff" d="M612.52,-491.68C621.73,-457.9 656.9,-345.64 730,-292.5 734.45,-289.27 739.35,-286.59 744.49,-284.37"/>
<polygon fill="#63b8ff" stroke="#63b8ff" points="745.79,-287.62 753.95,-280.86 743.36,-281.06 745.79,-287.62"/>
</a>
</g>
</g>
<!-- Node16 -->
<g id="Node000016" class="node">
<title>Node16</title>
<g id="a_Node000016"><a xlink:href="namespaceUIWidgets.html#a00594a753bd5ce2c3f4f48f22aac4927" target="_top" xlink:title=" ">
<polygon fill="white" stroke="#666666" points="888,-321 745,-321 745,-302 888,-302 888,-321"/>
<text text-anchor="middle" x="816.5" y="-309" font-family="Helvetica,sans-Serif" font-size="10.00">UIWidgets::CVarCheckbox</text>
</a>
</g>
</g>
<!-- Node9&#45;&gt;Node16 -->
<g id="edge18_Node000009_Node000016" class="edge">
<title>Node9&#45;&gt;Node16</title>
<g id="a_edge18_Node000009_Node000016"><a xlink:title=" ">
<path fill="none" stroke="#63b8ff" d="M614.12,-491.9C626.85,-463.37 668.47,-378.44 730,-335.5 736.4,-331.03 743.61,-327.39 751.07,-324.43"/>
<polygon fill="#63b8ff" stroke="#63b8ff" points="752.35,-327.69 760.59,-321.03 750,-321.1 752.35,-327.69"/>
</a>
</g>
</g>
<!-- Node17 -->
<g id="Node000017" class="node">
<title>Node17</title>
<g id="a_Node000017"><a xlink:href="namespaceUIWidgets.html#af437875c420b0efc91e3c8b435977b3d" target="_top" xlink:title=" ">
<polygon fill="white" stroke="#666666" points="890.5,-822 742.5,-822 742.5,-803 890.5,-803 890.5,-822"/>
<text text-anchor="middle" x="816.5" y="-810" font-family="Helvetica,sans-Serif" font-size="10.00">UIWidgets::CVarCombobox</text>
</a>
</g>
</g>
<!-- Node9&#45;&gt;Node17 -->
<g id="edge20_Node000009_Node000017" class="edge">
<title>Node9&#45;&gt;Node17</title>
<g id="a_edge20_Node000009_Node000017"><a xlink:title=" ">
<path fill="none" stroke="#63b8ff" d="M610.8,-511.22C614.76,-552.67 636.05,-716.2 730,-794.5 731.36,-795.64 732.78,-796.7 734.24,-797.71"/>
<polygon fill="#63b8ff" stroke="#63b8ff" points="732.65,-800.84 743.06,-802.82 736.16,-794.78 732.65,-800.84"/>
</a>
</g>
</g>
<!-- Node18 -->
<g id="Node000018" class="node">
<title>Node18</title>
<g id="a_Node000018"><a xlink:href="namespaceUIWidgets.html#a707b643070c52c19ea01918db52526f3" target="_top" xlink:title=" ">
<polygon fill="white" stroke="#666666" points="890.5,-587 742.5,-587 742.5,-568 890.5,-568 890.5,-587"/>
<text text-anchor="middle" x="816.5" y="-575" font-family="Helvetica,sans-Serif" font-size="10.00">UIWidgets::CVarSliderFloat</text>
</a>
</g>
</g>
<!-- Node9&#45;&gt;Node18 -->
<g id="edge21_Node000009_Node000018" class="edge">
<title>Node9&#45;&gt;Node18</title>
<g id="a_edge21_Node000009_Node000018"><a xlink:title=" ">
<path fill="none" stroke="#63b8ff" d="M630.05,-511.18C653.61,-522.33 694.06,-540.73 730,-553.5 742.04,-557.78 755.24,-561.8 767.59,-565.28"/>
<polygon fill="#63b8ff" stroke="#63b8ff" points="766.7,-568.67 777.27,-567.96 768.57,-561.92 766.7,-568.67"/>
</a>
</g>
</g>
<!-- Node19 -->
<g id="Node000019" class="node">
<title>Node19</title>
<g id="a_Node000019"><a xlink:href="namespaceUIWidgets.html#ab0e1dc2ac8062d0124cef3260da95506" target="_top" xlink:title=" ">
<polygon fill="white" stroke="#666666" points="1073.5,-625 948.5,-625 948.5,-606 1073.5,-606 1073.5,-625"/>
<text text-anchor="middle" x="1011" y="-613" font-family="Helvetica,sans-Serif" font-size="10.00">UIWidgets::SliderFloat</text>
</a>
</g>
</g>
<!-- Node9&#45;&gt;Node19 -->
<g id="edge44_Node000009_Node000019" class="edge">
<title>Node9&#45;&gt;Node19</title>
<g id="a_edge44_Node000009_Node000019"><a xlink:title=" ">
<path fill="none" stroke="#63b8ff" d="M618.4,-511.31C636.43,-531.55 681.17,-577.63 730,-596.5 797.21,-622.47 880.19,-624.77 938.31,-622.09"/>
<polygon fill="#63b8ff" stroke="#63b8ff" points="938.7,-625.58 948.5,-621.56 938.33,-618.59 938.7,-625.58"/>
</a>
</g>
</g>
<!-- Node24 -->
<g id="Node000024" class="node">
<title>Node24</title>
<g id="a_Node000024"><a xlink:href="namespaceUIWidgets.html#aaddc51b941be51b819be66b4c62ebc5d" target="_top" xlink:title=" ">
<polygon fill="white" stroke="#666666" points="884.5,-511 748.5,-511 748.5,-492 884.5,-492 884.5,-511"/>
<text text-anchor="middle" x="816.5" y="-499" font-family="Helvetica,sans-Serif" font-size="10.00">UIWidgets::CVarSliderInt</text>
</a>
</g>
</g>
<!-- Node9&#45;&gt;Node24 -->
<g id="edge30_Node000009_Node000024" class="edge">
<title>Node9&#45;&gt;Node24</title>
<g id="a_edge30_Node000009_Node000024"><a xlink:title=" ">
<path fill="none" stroke="#63b8ff" d="M685.06,-501.5C702.41,-501.5 720.9,-501.5 738.33,-501.5"/>
<polygon fill="#63b8ff" stroke="#63b8ff" points="738.46,-505 748.46,-501.5 738.46,-498 738.46,-505"/>
</a>
</g>
</g>
<!-- Node25 -->
<g id="Node000025" class="node">
<title>Node25</title>
<g id="a_Node000025"><a xlink:href="namespaceUIWidgets.html#a2eebccc487beff83c49f24c18987e684" target="_top" xlink:title=" ">
<polygon fill="white" stroke="#666666" points="1067.5,-549 954.5,-549 954.5,-530 1067.5,-530 1067.5,-549"/>
<text text-anchor="middle" x="1011" y="-537" font-family="Helvetica,sans-Serif" font-size="10.00">UIWidgets::SliderInt</text>
</a>
</g>
</g>
<!-- Node9&#45;&gt;Node25 -->
<g id="edge45_Node000009_Node000025" class="edge">
<title>Node9&#45;&gt;Node25</title>
<g id="a_edge45_Node000009_Node000025"><a xlink:title=" ">
<path fill="none" stroke="#63b8ff" d="M663.62,-511.04C684.31,-514.44 708.2,-518.04 730,-520.5 803.04,-528.74 887.23,-533.87 944.07,-536.69"/>
<polygon fill="#63b8ff" stroke="#63b8ff" points="944.19,-540.2 954.35,-537.19 944.53,-533.21 944.19,-540.2"/>
</a>
</g>
</g>
<!-- Node26 -->
<g id="Node000026" class="node">
<title>Node26</title>
<g id="a_Node000026"><a xlink:href="namespaceUIWidgets.html#ac285e460c7ff8522bccc16c5c5589da1" target="_top" xlink:title=" ">
<polygon fill="white" stroke="#666666" points="900.5,-785 732.5,-785 732.5,-766 900.5,-766 900.5,-785"/>
<text text-anchor="middle" x="816.5" y="-773" font-family="Helvetica,sans-Serif" font-size="10.00">UIWidgets::PopStyleCombobox</text>
</a>
</g>
</g>
<!-- Node9&#45;&gt;Node26 -->
<g id="edge40_Node000009_Node000026" class="edge">
<title>Node9&#45;&gt;Node26</title>
<g id="a_edge40_Node000009_Node000026"><a xlink:title=" ">
<path fill="none" stroke="#63b8ff" d="M611.39,-511.03C617.44,-548.94 645.16,-690.29 730,-757.5 731.61,-758.77 733.28,-759.96 735.01,-761.07"/>
<polygon fill="#63b8ff" stroke="#63b8ff" points="733.62,-764.3 744.08,-765.98 736.95,-758.14 733.62,-764.3"/>
</a>
</g>
</g>
<!-- Node27 -->
<g id="Node000027" class="node">
<title>Node27</title>
<g id="a_Node000027"><a xlink:href="namespaceUIWidgets.html#aae30218cc1c82fcad712520d28e0e6e4" target="_top" xlink:title=" ">
<polygon fill="white" stroke="#666666" points="903,-748 730,-748 730,-729 903,-729 903,-748"/>
<text text-anchor="middle" x="816.5" y="-736" font-family="Helvetica,sans-Serif" font-size="10.00">UIWidgets::PushStyleCombobox</text>
</a>
</g>
</g>
<!-- Node9&#45;&gt;Node27 -->
<g id="edge42_Node000009_Node000027" class="edge">
<title>Node9&#45;&gt;Node27</title>
<g id="a_edge42_Node000009_Node000027"><a xlink:title=" ">
<path fill="none" stroke="#63b8ff" d="M612.25,-511.3C620.76,-546.06 654.46,-664.43 730,-720.5 731.83,-721.86 733.74,-723.12 735.72,-724.29"/>
<polygon fill="#63b8ff" stroke="#63b8ff" points="734.23,-727.46 744.74,-728.86 737.4,-721.22 734.23,-727.46"/>
</a>
</g>
</g>
<!-- Node28 -->
<g id="Node000028" class="node">
<title>Node28</title>
<g id="a_Node000028"><a xlink:href="structWidgetInfo.html#a31d40206a297372d1527c53c82f61c2b" target="_top" xlink:title=" ">
<polygon fill="white" stroke="#666666" points="889.5,-711 743.5,-711 743.5,-692 889.5,-692 889.5,-711"/>
<text text-anchor="middle" x="816.5" y="-699" font-family="Helvetica,sans-Serif" font-size="10.00">WidgetInfo::ResetDisables</text>
</a>
</g>
</g>
<!-- Node9&#45;&gt;Node28 -->
<g id="edge43_Node000009_Node000028" class="edge">
<title>Node9&#45;&gt;Node28</title>
<g id="a_edge43_Node000009_Node000028"><a xlink:title=" ">
<path fill="none" stroke="#63b8ff" d="M613.42,-511.26C624.69,-541.92 663.81,-637.02 730,-682.5 732.91,-684.5 735.99,-686.29 739.19,-687.9"/>
<polygon fill="#63b8ff" stroke="#63b8ff" points="737.93,-691.16 748.49,-691.95 740.72,-684.75 737.93,-691.16"/>
</a>
</g>
</g>
<!-- Node29 -->
<g id="Node000029" class="node">
<title>Node29</title>
<g id="a_Node000029"><a xlink:href="classShip_1_1Menu.html#a7329d35f375df068b761b04f4ef390c5" target="_top" xlink:title=" ">
<polygon fill="white" stroke="#666666" points="892,-673.5 741,-673.5 741,-643.5 892,-643.5 892,-673.5"/>
<text text-anchor="start" x="749" y="-661.5" font-family="Helvetica,sans-Serif" font-size="10.00">Ship::Menu::UpdateWindow</text>
<text text-anchor="middle" x="816.5" y="-650.5" font-family="Helvetica,sans-Serif" font-size="10.00">BackendObjects</text>
</a>
</g>
</g>
<!-- Node9&#45;&gt;Node29 -->
<g id="edge46_Node000009_Node000029" class="edge">
<title>Node9&#45;&gt;Node29</title>
<g id="a_edge46_Node000009_Node000029"><a xlink:title=" ">
<path fill="none" stroke="#63b8ff" d="M616.38,-511.03C632.58,-534.55 677.76,-595.85 730,-629.5 735.75,-633.21 742.03,-636.49 748.49,-639.39"/>
<polygon fill="#63b8ff" stroke="#63b8ff" points="747.46,-642.76 758.04,-643.37 750.16,-636.3 747.46,-642.76"/>
</a>
</g>
</g>
<!-- Node30 -->
<g id="Node000030" class="node">
<title>Node30</title>
<g id="a_Node000030"><a xlink:href="namespaceUIWidgets.html#a2e6551e3cad6ecb45d3994d609743801" target="_top" xlink:title=" ">
<polygon fill="white" stroke="#666666" points="1083,-473 939,-473 939,-454 1083,-454 1083,-473"/>
<text text-anchor="middle" x="1011" y="-461" font-family="Helvetica,sans-Serif" font-size="10.00">UIWidgets::WindowButton</text>
</a>
</g>
</g>
<!-- Node9&#45;&gt;Node30 -->
<g id="edge47_Node000009_Node000030" class="edge">
<title>Node9&#45;&gt;Node30</title>
<g id="a_edge47_Node000009_Node000030"><a xlink:title=" ">
<path fill="none" stroke="#63b8ff" d="M663.62,-491.96C684.31,-488.56 708.2,-484.96 730,-482.5 796.66,-474.98 872.61,-470.05 928.57,-467.1"/>
<polygon fill="#63b8ff" stroke="#63b8ff" points="928.97,-470.59 938.78,-466.58 928.61,-463.6 928.97,-470.59"/>
</a>
</g>
</g>
<!-- Node10&#45;&gt;Node6 -->
<g id="edge15_Node000010_Node000006" class="edge">
<title>Node10&#45;&gt;Node6</title>
<g id="a_edge15_Node000010_Node000006"><a xlink:title=" ">
<path fill="none" stroke="#63b8ff" d="M1053.84,-303.02C1063.97,-306.53 1074.36,-311.24 1083,-317.5 1104.6,-333.14 1098.3,-348.68 1119,-365.5 1183.35,-417.78 1220.43,-396.45 1288,-444.5 1306.7,-457.8 1305.57,-467.84 1324,-481.5 1337.19,-491.28 1353.19,-499.93 1367.05,-506.58"/>
<polygon fill="#63b8ff" stroke="#63b8ff" points="1365.71,-509.81 1376.25,-510.86 1368.66,-503.47 1365.71,-509.81"/>
</a>
</g>
</g>
<!-- Node10&#45;&gt;Node7 -->
<g id="edge16_Node000010_Node000007" class="edge">
<title>Node10&#45;&gt;Node7</title>
<g id="a_edge16_Node000010_Node000007"><a xlink:title=" ">
<path fill="none" stroke="#63b8ff" d="M1040.11,-303.01C1070.47,-313.28 1115.07,-328.33 1119,-329.5 1193.38,-351.67 1218.69,-338.56 1288,-373.5 1325.85,-392.58 1362.71,-426.13 1383.13,-446.44"/>
<polygon fill="#63b8ff" stroke="#63b8ff" points="1380.84,-449.1 1390.36,-453.76 1385.82,-444.18 1380.84,-449.1"/>
</a>
</g>
</g>
<!-- Node11 -->
<g id="Node000011" class="node">
<title>Node11</title>
<g id="a_Node000011"><a xlink:href="namespaceUIWidgets.html#a3afde5e39ce67a2370ecef5ffb427636" target="_top" xlink:title=" ">
<polygon fill="white" stroke="#666666" points="1285.5,-284 1121.5,-284 1121.5,-265 1285.5,-265 1285.5,-284"/>
<text text-anchor="middle" x="1203.5" y="-272" font-family="Helvetica,sans-Serif" font-size="10.00">UIWidgets::PopStyleCheckbox</text>
</a>
</g>
</g>
<!-- Node10&#45;&gt;Node11 -->
<g id="edge11_Node000010_Node000011" class="edge">
<title>Node10&#45;&gt;Node11</title>
<g id="a_edge11_Node000010_Node000011"><a xlink:title=" ">
<path fill="none" stroke="#63b8ff" d="M1071.75,-287.54C1084.27,-286.29 1097.75,-284.95 1111.12,-283.61"/>
<polygon fill="#63b8ff" stroke="#63b8ff" points="1111.71,-287.07 1121.31,-282.6 1111.02,-280.11 1111.71,-287.07"/>
</a>
</g>
</g>
<!-- Node12 -->
<g id="Node000012" class="node">
<title>Node12</title>
<g id="a_Node000012"><a xlink:href="namespaceUIWidgets.html#a330697ff7208bc380bcfe8640b864718" target="_top" xlink:title=" ">
<polygon fill="white" stroke="#666666" points="1288,-321 1119,-321 1119,-302 1288,-302 1288,-321"/>
<text text-anchor="middle" x="1203.5" y="-309" font-family="Helvetica,sans-Serif" font-size="10.00">UIWidgets::PushStyleCheckbox</text>
</a>
</g>
</g>
<!-- Node10&#45;&gt;Node12 -->
<g id="edge12_Node000010_Node000012" class="edge">
<title>Node10&#45;&gt;Node12</title>
<g id="a_edge12_Node000010_Node000012"><a xlink:title=" ">
<path fill="none" stroke="#63b8ff" d="M1071.75,-299.15C1083.55,-300.26 1096.19,-301.46 1108.8,-302.65"/>
<polygon fill="#63b8ff" stroke="#63b8ff" points="1108.6,-306.14 1118.88,-303.6 1109.26,-299.17 1108.6,-306.14"/>
</a>
</g>
</g>
<!-- Node13 -->
<g id="Node000013" class="node">
<title>Node13</title>
<g id="a_Node000013"><a xlink:href="namespaceUIWidgets.html#ae0f4f1b0659f0e53e3077a5acb0c6b05" target="_top" xlink:title=" ">
<polygon fill="white" stroke="#666666" points="1267.5,-132 1139.5,-132 1139.5,-113 1267.5,-113 1267.5,-132"/>
<text text-anchor="middle" x="1203.5" y="-120" font-family="Helvetica,sans-Serif" font-size="10.00">UIWidgets::RenderText</text>
</a>
</g>
</g>
<!-- Node10&#45;&gt;Node13 -->
<g id="edge13_Node000010_Node000013" class="edge">
<title>Node10&#45;&gt;Node13</title>
<g id="a_edge13_Node000010_Node000013"><a xlink:title=" ">
<path fill="none" stroke="#63b8ff" d="M1022.79,-283.82C1054.09,-255.72 1145.2,-173.94 1184.31,-138.83"/>
<polygon fill="#63b8ff" stroke="#63b8ff" points="1186.73,-141.36 1191.83,-132.08 1182.05,-136.15 1186.73,-141.36"/>
</a>
</g>
</g>
<!-- Node14 -->
<g id="Node000014" class="node">
<title>Node14</title>
<g id="a_Node000014"><a xlink:href="string_8c.html#a008e171a518fe0e0352f31b245e03875" target="_top" xlink:title=" ">
<polygon fill="white" stroke="#666666" points="1422.5,-132 1378.5,-132 1378.5,-113 1422.5,-113 1422.5,-132"/>
<text text-anchor="middle" x="1400.5" y="-120" font-family="Helvetica,sans-Serif" font-size="10.00">strlen</text>
</a>
</g>
</g>
<!-- Node13&#45;&gt;Node14 -->
<g id="edge14_Node000013_Node000014" class="edge">
<title>Node13&#45;&gt;Node14</title>
<g id="a_edge14_Node000013_Node000014"><a xlink:title=" ">
<path fill="none" stroke="#63b8ff" d="M1267.54,-122.5C1301.14,-122.5 1341,-122.5 1368.05,-122.5"/>
<polygon fill="#63b8ff" stroke="#63b8ff" points="1368.1,-126 1378.1,-122.5 1368.1,-119 1368.1,-126"/>
</a>
</g>
</g>
<!-- Node16&#45;&gt;Node10 -->
<g id="edge19_Node000016_Node000010" class="edge">
<title>Node16&#45;&gt;Node10</title>
<g id="a_edge19_Node000016_Node000010"><a xlink:title=" ">
<path fill="none" stroke="#63b8ff" d="M888.09,-304.9C905.06,-303.31 923.18,-301.62 940.12,-300.03"/>
<polygon fill="#63b8ff" stroke="#63b8ff" points="940.86,-303.48 950.49,-299.06 940.21,-296.51 940.86,-303.48"/>
</a>
</g>
</g>
<!-- Node18&#45;&gt;Node19 -->
<g id="edge22_Node000018_Node000019" class="edge">
<title>Node18&#45;&gt;Node19</title>
<g id="a_edge22_Node000018_Node000019"><a xlink:title=" ">
<path fill="none" stroke="#63b8ff" d="M866.08,-587.09C892.16,-592.24 924.51,-598.62 951.92,-604.03"/>
<polygon fill="#63b8ff" stroke="#63b8ff" points="951.28,-607.48 961.77,-605.98 952.64,-600.61 951.28,-607.48"/>
</a>
</g>
</g>
<!-- Node19&#45;&gt;Node3 -->
<g id="edge23_Node000019_Node000003" class="edge">
<title>Node19&#45;&gt;Node3</title>
<g id="a_edge23_Node000019_Node000003"><a xlink:title=" ">
<path fill="none" stroke="#63b8ff" d="M1023.92,-605.99C1055.72,-580.61 1142.88,-511.07 1182.47,-479.48"/>
<polygon fill="#63b8ff" stroke="#63b8ff" points="1184.95,-481.98 1190.59,-473 1180.59,-476.51 1184.95,-481.98"/>
</a>
</g>
</g>
<!-- Node19&#45;&gt;Node6 -->
<g id="edge27_Node000019_Node000006" class="edge">
<title>Node19&#45;&gt;Node6</title>
<g id="a_edge27_Node000019_Node000006"><a xlink:title=" ">
<path fill="none" stroke="#63b8ff" d="M1018.58,-625.31C1033.46,-646.5 1072.11,-696.13 1119,-714.5 1188.94,-741.89 1222.99,-752.12 1288,-714.5 1354.53,-676 1384.82,-581.13 1395.15,-540.02"/>
<polygon fill="#63b8ff" stroke="#63b8ff" points="1398.59,-540.69 1397.5,-530.15 1391.78,-539.07 1398.59,-540.69"/>
</a>
</g>
</g>
<!-- Node19&#45;&gt;Node7 -->
<g id="edge29_Node000019_Node000007" class="edge">
<title>Node19&#45;&gt;Node7</title>
<g id="a_edge29_Node000019_Node000007"><a xlink:title=" ">
<path fill="none" stroke="#63b8ff" d="M1022.86,-625.12C1041.16,-640.6 1079.94,-670.42 1119,-681.5 1191.26,-701.99 1229.89,-729.09 1288,-681.5 1350.78,-630.09 1275.13,-567.29 1324,-502.5 1332.42,-491.33 1344.97,-483.09 1357.42,-477.13"/>
<polygon fill="#63b8ff" stroke="#63b8ff" points="1359.09,-480.22 1366.86,-473.01 1356.29,-473.8 1359.09,-480.22"/>
</a>
</g>
</g>
<!-- Node20 -->
<g id="Node000020" class="node">
<title>Node20</title>
<g id="a_Node000020"><a xlink:href="namespaceUIWidgets.html#a3493c246b651d9839fecfd680030ef6c" target="_top" xlink:title=" ">
<polygon fill="white" stroke="#666666" points="1268,-786 1139,-786 1139,-767 1268,-767 1268,-786"/>
<text text-anchor="middle" x="1203.5" y="-774" font-family="Helvetica,sans-Serif" font-size="10.00">UIWidgets::ClampFloat</text>
</a>
</g>
</g>
<!-- Node19&#45;&gt;Node20 -->
<g id="edge24_Node000019_Node000020" class="edge">
<title>Node19&#45;&gt;Node20</title>
<g id="a_edge24_Node000019_Node000020"><a xlink:title=" ">
<path fill="none" stroke="#63b8ff" d="M1016.75,-625.16C1029.59,-650.2 1067.47,-717.71 1119,-752.5 1125.67,-757 1133.18,-760.67 1140.89,-763.65"/>
<polygon fill="#63b8ff" stroke="#63b8ff" points="1139.77,-766.97 1150.36,-766.97 1142.08,-760.36 1139.77,-766.97"/>
</a>
</g>
</g>
<!-- Node21 -->
<g id="Node000021" class="node">
<title>Node21</title>
<g id="a_Node000021"><a xlink:href="namespaceUIWidgets.html#ab3668add920a14f28ddc7b864ad9a998" target="_top" xlink:title=" ">
<polygon fill="white" stroke="#666666" points="1275,-624 1132,-624 1132,-605 1275,-605 1275,-624"/>
<text text-anchor="middle" x="1203.5" y="-612" font-family="Helvetica,sans-Serif" font-size="10.00">UIWidgets::PopStyleSlider</text>
</a>
</g>
</g>
<!-- Node19&#45;&gt;Node21 -->
<g id="edge25_Node000019_Node000021" class="edge">
<title>Node19&#45;&gt;Node21</title>
<g id="a_edge25_Node000019_Node000021"><a xlink:title=" ">
<path fill="none" stroke="#63b8ff" d="M1073.59,-615.18C1088.84,-615.1 1105.4,-615.01 1121.43,-614.93"/>
<polygon fill="#63b8ff" stroke="#63b8ff" points="1121.88,-618.42 1131.86,-614.87 1121.84,-611.42 1121.88,-618.42"/>
</a>
</g>
</g>
<!-- Node22 -->
<g id="Node000022" class="node">
<title>Node22</title>
<g id="a_Node000022"><a xlink:href="namespaceUIWidgets.html#a560e4ab7577da33003569105d9ec736f" target="_top" xlink:title=" ">
<polygon fill="white" stroke="#666666" points="1278,-587 1129,-587 1129,-568 1278,-568 1278,-587"/>
<text text-anchor="middle" x="1203.5" y="-575" font-family="Helvetica,sans-Serif" font-size="10.00">UIWidgets::PushStyleSlider</text>
</a>
</g>
</g>
<!-- Node19&#45;&gt;Node22 -->
<g id="edge26_Node000019_Node000022" class="edge">
<title>Node19&#45;&gt;Node22</title>
<g id="a_edge26_Node000019_Node000022"><a xlink:title=" ">
<path fill="none" stroke="#63b8ff" d="M1060.07,-605.91C1085.78,-600.78 1117.61,-594.43 1144.66,-589.04"/>
<polygon fill="#63b8ff" stroke="#63b8ff" points="1145.65,-592.41 1154.77,-587.02 1144.28,-585.54 1145.65,-592.41"/>
</a>
</g>
</g>
<!-- Node23 -->
<g id="Node000023" class="node">
<title>Node23</title>
<g id="a_Node000023"><a xlink:href="structUIWidgets_1_1ButtonOptions.html#a13696251aa297ab0e7e7490ef8d77bbf" target="_top" xlink:title=" ">
<polygon fill="white" stroke="#666666" points="1275,-672.5 1132,-672.5 1132,-642.5 1275,-642.5 1275,-672.5"/>
<text text-anchor="start" x="1140" y="-660.5" font-family="Helvetica,sans-Serif" font-size="10.00">UIWidgets::ButtonOptions</text>
<text text-anchor="middle" x="1203.5" y="-649.5" font-family="Helvetica,sans-Serif" font-size="10.00">::Size</text>
</a>
</g>
</g>
<!-- Node19&#45;&gt;Node23 -->
<g id="edge28_Node000019_Node000023" class="edge">
<title>Node19&#45;&gt;Node23</title>
<g id="a_edge28_Node000019_Node000023"><a xlink:title=" ">
<path fill="none" stroke="#63b8ff" d="M1055.23,-625.03C1075.69,-629.54 1100.77,-635.07 1124.39,-640.28"/>
<polygon fill="#63b8ff" stroke="#63b8ff" points="1123.89,-643.75 1134.41,-642.49 1125.4,-636.92 1123.89,-643.75"/>
</a>
</g>
</g>
<!-- Node24&#45;&gt;Node25 -->
<g id="edge31_Node000024_Node000025" class="edge">
<title>Node24&#45;&gt;Node25</title>
<g id="a_edge31_Node000024_Node000025"><a xlink:title=" ">
<path fill="none" stroke="#63b8ff" d="M866.08,-511.09C892.16,-516.24 924.51,-522.62 951.92,-528.03"/>
<polygon fill="#63b8ff" stroke="#63b8ff" points="951.28,-531.48 961.77,-529.98 952.64,-524.61 951.28,-531.48"/>
</a>
</g>
</g>
<!-- Node25&#45;&gt;Node3 -->
<g id="edge32_Node000025_Node000003" class="edge">
<title>Node25&#45;&gt;Node3</title>
<g id="a_edge32_Node000025_Node000003"><a xlink:title=" ">
<path fill="none" stroke="#63b8ff" d="M1029.38,-529.89C1050.22,-518.66 1086.41,-500 1119,-487.5 1130.33,-483.15 1142.79,-479.17 1154.55,-475.75"/>
<polygon fill="#63b8ff" stroke="#63b8ff" points="1155.55,-479.1 1164.22,-473.01 1153.64,-472.37 1155.55,-479.1"/>
</a>
</g>
</g>
<!-- Node25&#45;&gt;Node6 -->
<g id="edge35_Node000025_Node000006" class="edge">
<title>Node25&#45;&gt;Node6</title>
<g id="a_edge35_Node000025_Node000006"><a xlink:title=" ">
<path fill="none" stroke="#63b8ff" d="M1067.52,-536.78C1136.97,-533.37 1255.88,-527.54 1330.94,-523.86"/>
<polygon fill="#63b8ff" stroke="#63b8ff" points="1331.42,-527.34 1341.23,-523.36 1331.07,-520.35 1331.42,-527.34"/>
</a>
</g>
</g>
<!-- Node25&#45;&gt;Node7 -->
<g id="edge37_Node000025_Node000007" class="edge">
<title>Node25&#45;&gt;Node7</title>
<g id="a_edge37_Node000025_Node000007"><a xlink:title=" ">
<path fill="none" stroke="#63b8ff" d="M1060.68,-529.95C1131.98,-515.97 1264.6,-489.96 1341.07,-474.96"/>
<polygon fill="#63b8ff" stroke="#63b8ff" points="1341.87,-478.37 1351.01,-473.01 1340.53,-471.5 1341.87,-478.37"/>
</a>
</g>
</g>
<!-- Node25&#45;&gt;Node21 -->
<g id="edge33_Node000025_Node000021" class="edge">
<title>Node25&#45;&gt;Node21</title>
<g id="a_edge33_Node000025_Node000021"><a xlink:title=" ">
<path fill="none" stroke="#63b8ff" d="M1026.97,-549.21C1047.11,-561.85 1084.41,-583.84 1119,-596.5 1124.94,-598.67 1131.22,-600.62 1137.56,-602.36"/>
<polygon fill="#63b8ff" stroke="#63b8ff" points="1136.98,-605.83 1147.53,-604.93 1138.72,-599.05 1136.98,-605.83"/>
</a>
</g>
</g>
<!-- Node25&#45;&gt;Node22 -->
<g id="edge34_Node000025_Node000022" class="edge">
<title>Node25&#45;&gt;Node22</title>
<g id="a_edge34_Node000025_Node000022"><a xlink:title=" ">
<path fill="none" stroke="#63b8ff" d="M1060.07,-549.09C1085.78,-554.22 1117.61,-560.57 1144.66,-565.96"/>
<polygon fill="#63b8ff" stroke="#63b8ff" points="1144.28,-569.46 1154.77,-567.98 1145.65,-562.59 1144.28,-569.46"/>
</a>
</g>
</g>
<!-- Node25&#45;&gt;Node23 -->
<g id="edge36_Node000025_Node000023" class="edge">
<title>Node25&#45;&gt;Node23</title>
<g id="a_edge36_Node000025_Node000023"><a xlink:title=" ">
<path fill="none" stroke="#63b8ff" d="M1024.63,-549.19C1039.08,-560.42 1063.28,-579.67 1083,-597.5 1099.78,-612.68 1099.51,-622.01 1119,-633.5 1122.01,-635.28 1125.17,-636.93 1128.41,-638.46"/>
<polygon fill="#63b8ff" stroke="#63b8ff" points="1127.18,-641.74 1137.75,-642.49 1129.95,-635.32 1127.18,-641.74"/>
</a>
</g>
</g>
<!-- Node30&#45;&gt;Node3 -->
<g id="edge48_Node000030_Node000003" class="edge">
<title>Node30&#45;&gt;Node3</title>
<g id="a_edge48_Node000030_Node000003"><a xlink:title=" ">
<path fill="none" stroke="#63b8ff" d="M1083.21,-463.5C1102.2,-463.5 1122.56,-463.5 1140.98,-463.5"/>
<polygon fill="#63b8ff" stroke="#63b8ff" points="1141,-467 1151,-463.5 1141,-460 1141,-467"/>
</a>
</g>
</g>
<!-- Node32&#45;&gt;Node13 -->
<g id="edge53_Node000032_Node000013" class="edge">
<title>Node32&#45;&gt;Node13</title>
<g id="a_edge53_Node000032_Node000013"><a xlink:title=" ">
<path fill="none" stroke="#63b8ff" d="M693.01,-89.82C809.13,-97.27 1018.25,-110.68 1129.02,-117.79"/>
<polygon fill="#63b8ff" stroke="#63b8ff" points="1128.9,-121.29 1139.1,-118.43 1129.35,-114.3 1128.9,-121.29"/>
</a>
</g>
</g>
<!-- Node33&#45;&gt;Node13 -->
<g id="edge55_Node000033_Node000013" class="edge">
<title>Node33&#45;&gt;Node13</title>
<g id="a_edge55_Node000033_Node000013"><a xlink:title=" ">
<path fill="none" stroke="#63b8ff" d="M694.26,-122.5C810.75,-122.5 1019.08,-122.5 1129.36,-122.5"/>
<polygon fill="#63b8ff" stroke="#63b8ff" points="1129.4,-126 1139.4,-122.5 1129.4,-119 1129.4,-126"/>
</a>
</g>
</g>
</g>
</svg>
