<?xml version="1.0" encoding="UTF-8" standalone="no"?>
<!DOCTYPE svg PUBLIC "-//W3C//DTD SVG 1.1//EN"
 "http://www.w3.org/Graphics/SVG/1.1/DTD/svg11.dtd">
<!-- Generated by graphviz version 2.43.0 (0)
 -->
<!-- Title: OLakitu::Draw Pages: 1 -->
<svg width="1199pt" height="608pt"
 viewBox="0.00 0.00 1199.00 608.00" xmlns="http://www.w3.org/2000/svg" xmlns:xlink="http://www.w3.org/1999/xlink">
<g id="graph0" class="graph" transform="scale(1 1) rotate(0) translate(4 604)">
<title>OLakitu::Draw</title>
<!-- Node1 -->
<g id="Node000001" class="node">
<title>Node1</title>
<g id="a_Node000001"><a xlink:title=" ">
<polygon fill="#999999" stroke="#666666" points="86,-313.5 0,-313.5 0,-294.5 86,-294.5 86,-313.5"/>
<text text-anchor="middle" x="43" y="-301.5" font-family="Helvetica,sans-Serif" font-size="10.00">OLakitu::Draw</text>
</a>
</g>
</g>
<!-- Node2 -->
<g id="Node000002" class="node">
<title>Node2</title>
<g id="a_Node000002"><a xlink:href="render__objects_8c.html#a8c64fbe4bff7ffa49273321d6f1b03be" target="_top" xlink:title=" ">
<polygon fill="white" stroke="#666666" points="235,-485.5 122,-485.5 122,-466.5 235,-466.5 235,-485.5"/>
<text text-anchor="middle" x="178.5" y="-473.5" font-family="Helvetica,sans-Serif" font-size="10.00">draw_2d_texture_at</text>
</a>
</g>
</g>
<!-- Node1&#45;&gt;Node2 -->
<g id="edge1_Node000001_Node000002" class="edge">
<title>Node1&#45;&gt;Node2</title>
<g id="a_edge1_Node000001_Node000002"><a xlink:title=" ">
<path fill="none" stroke="#63b8ff" d="M47.86,-313.71C57.55,-337.17 84.8,-397.97 122,-438 130.28,-446.91 141,-454.85 150.82,-461.15"/>
<polygon fill="#63b8ff" stroke="#63b8ff" points="149.12,-464.21 159.47,-466.45 152.77,-458.24 149.12,-464.21"/>
</a>
</g>
</g>
<!-- Node19 -->
<g id="Node000019" class="node">
<title>Node19</title>
<g id="a_Node000019"><a xlink:href="FrameInterpolation_8cpp.html#a3a036bc9d533e28a4e9697cd20dccf3e" target="_top" xlink:title=" ">
<polygon fill="white" stroke="#666666" points="1014,-201 904,-201 904,-171 1014,-171 1014,-201"/>
<text text-anchor="start" x="912" y="-189" font-family="Helvetica,sans-Serif" font-size="10.00">FrameInterpolation</text>
<text text-anchor="middle" x="959" y="-178" font-family="Helvetica,sans-Serif" font-size="10.00">_RecordCloseChild</text>
</a>
</g>
</g>
<!-- Node1&#45;&gt;Node19 -->
<g id="edge21_Node000001_Node000019" class="edge">
<title>Node1&#45;&gt;Node19</title>
<g id="a_edge21_Node000001_Node000019"><a xlink:title=" ">
<path fill="none" stroke="#63b8ff" d="M51.11,-294.25C82,-253.12 209.45,-96 353.5,-96 353.5,-96 353.5,-96 563,-96 684.18,-96 719.11,-79.58 835,-115 870.28,-125.78 906.34,-148.22 930.21,-165"/>
<polygon fill="#63b8ff" stroke="#63b8ff" points="928.27,-167.91 938.43,-170.89 932.35,-162.22 928.27,-167.91"/>
</a>
</g>
</g>
<!-- Node20 -->
<g id="Node000020" class="node">
<title>Node20</title>
<g id="a_Node000020"><a xlink:href="FrameInterpolation_8cpp.html#a0eda726b74eac815af4e874014e2727c" target="_top" xlink:title=" ">
<polygon fill="white" stroke="#666666" points="1014,-600 904,-600 904,-570 1014,-570 1014,-600"/>
<text text-anchor="start" x="912" y="-588" font-family="Helvetica,sans-Serif" font-size="10.00">FrameInterpolation</text>
<text text-anchor="middle" x="959" y="-577" font-family="Helvetica,sans-Serif" font-size="10.00">_RecordOpenChild</text>
</a>
</g>
</g>
<!-- Node1&#45;&gt;Node20 -->
<g id="edge23_Node000001_Node000020" class="edge">
<title>Node1&#45;&gt;Node20</title>
<g id="a_edge23_Node000001_Node000020"><a xlink:title=" ">
<path fill="none" stroke="#63b8ff" d="M45.38,-313.71C50.2,-344.34 69,-440.12 122,-495 198.69,-574.41 243.11,-585 353.5,-585 353.5,-585 353.5,-585 563,-585 679.49,-585 815.31,-585 893.51,-585"/>
<polygon fill="#63b8ff" stroke="#63b8ff" points="893.69,-588.5 903.69,-585 893.69,-581.5 893.69,-588.5"/>
</a>
</g>
</g>
<!-- Node21 -->
<g id="Node000021" class="node">
<title>Node21</title>
<g id="a_Node000021"><a xlink:href="math__util__2_8c.html#a99d173c040cb4a9d0184df2605d71e32" target="_top" xlink:title=" ">
<polygon fill="white" stroke="#666666" points="224.5,-334.5 132.5,-334.5 132.5,-315.5 224.5,-315.5 224.5,-334.5"/>
<text text-anchor="middle" x="178.5" y="-322.5" font-family="Helvetica,sans-Serif" font-size="10.00">func_800418AC</text>
</a>
</g>
</g>
<!-- Node1&#45;&gt;Node21 -->
<g id="edge25_Node000001_Node000021" class="edge">
<title>Node1&#45;&gt;Node21</title>
<g id="a_edge25_Node000001_Node000021"><a xlink:title=" ">
<path fill="none" stroke="#63b8ff" d="M86.24,-310.64C97.7,-312.45 110.28,-314.43 122.33,-316.32"/>
<polygon fill="#63b8ff" stroke="#63b8ff" points="121.88,-319.79 132.3,-317.89 122.97,-312.88 121.88,-319.79"/>
</a>
</g>
</g>
<!-- Node24 -->
<g id="Node000024" class="node">
<title>Node24</title>
<g id="a_Node000024"><a xlink:href="render__objects_8c.html#a7f21a1863237d7a23fd0d1381722477d" target="_top" xlink:title=" ">
<polygon fill="white" stroke="#666666" points="224.5,-428.5 132.5,-428.5 132.5,-409.5 224.5,-409.5 224.5,-428.5"/>
<text text-anchor="middle" x="178.5" y="-416.5" font-family="Helvetica,sans-Serif" font-size="10.00">func_800485C4</text>
</a>
</g>
</g>
<!-- Node1&#45;&gt;Node24 -->
<g id="edge28_Node000001_Node000024" class="edge">
<title>Node1&#45;&gt;Node24</title>
<g id="a_edge28_Node000001_Node000024"><a xlink:title=" ">
<path fill="none" stroke="#63b8ff" d="M55.38,-313.8C78.34,-333.58 130.39,-378.42 158.56,-402.68"/>
<polygon fill="#63b8ff" stroke="#63b8ff" points="156.29,-405.35 166.15,-409.22 160.85,-400.04 156.29,-405.35"/>
</a>
</g>
</g>
<!-- Node26 -->
<g id="Node000026" class="node">
<title>Node26</title>
<g id="a_Node000026"><a xlink:href="render__objects_8c.html#ae2e5b979255388934c7b7091f24997b6" target="_top" xlink:title=" ">
<polygon fill="white" stroke="#666666" points="224.5,-273.5 132.5,-273.5 132.5,-254.5 224.5,-254.5 224.5,-273.5"/>
<text text-anchor="middle" x="178.5" y="-261.5" font-family="Helvetica,sans-Serif" font-size="10.00">func_8004A630</text>
</a>
</g>
</g>
<!-- Node1&#45;&gt;Node26 -->
<g id="edge33_Node000001_Node000026" class="edge">
<title>Node1&#45;&gt;Node26</title>
<g id="a_edge33_Node000001_Node000026"><a xlink:title=" ">
<path fill="none" stroke="#63b8ff" d="M75.98,-294.42C93.98,-289.03 116.65,-282.23 136.01,-276.43"/>
<polygon fill="#63b8ff" stroke="#63b8ff" points="137.21,-279.73 145.78,-273.5 135.2,-273.02 137.21,-279.73"/>
</a>
</g>
</g>
<!-- Node40 -->
<g id="Node000040" class="node">
<title>Node40</title>
<g id="a_Node000040"><a xlink:href="update__objects_8c.html#ab7e91b1ebcbec57dfed6e185a2f67580" target="_top" xlink:title=" ">
<polygon fill="white" stroke="#666666" points="224,-67.5 133,-67.5 133,-48.5 224,-48.5 224,-67.5"/>
<text text-anchor="middle" x="178.5" y="-55.5" font-family="Helvetica,sans-Serif" font-size="10.00">func_80072354</text>
</a>
</g>
</g>
<!-- Node1&#45;&gt;Node40 -->
<g id="edge52_Node000001_Node000040" class="edge">
<title>Node1&#45;&gt;Node40</title>
<g id="a_edge52_Node000001_Node000040"><a xlink:title=" ">
<path fill="none" stroke="#63b8ff" d="M44.71,-294.16C47.67,-260.22 61.84,-146.55 122,-82 125.53,-78.21 129.77,-74.99 134.3,-72.26"/>
<polygon fill="#63b8ff" stroke="#63b8ff" points="136.02,-75.31 143.28,-67.59 132.79,-69.1 136.02,-75.31"/>
</a>
</g>
</g>
<!-- Node41 -->
<g id="Node000041" class="node">
<title>Node41</title>
<g id="a_Node000041"><a xlink:href="update__objects_8c.html#ae85ab923e54f707801592c71f2a847cd" target="_top" xlink:title=" ">
<polygon fill="white" stroke="#666666" points="230.5,-30 126.5,-30 126.5,0 230.5,0 230.5,-30"/>
<text text-anchor="start" x="134.5" y="-18" font-family="Helvetica,sans-Serif" font-size="10.00">is_obj_flag_status</text>
<text text-anchor="middle" x="178.5" y="-7" font-family="Helvetica,sans-Serif" font-size="10.00">_active</text>
</a>
</g>
</g>
<!-- Node1&#45;&gt;Node41 -->
<g id="edge53_Node000001_Node000041" class="edge">
<title>Node1&#45;&gt;Node41</title>
<g id="a_edge53_Node000001_Node000041"><a xlink:title=" ">
<path fill="none" stroke="#63b8ff" d="M44.05,-294.44C44.73,-256.93 52.08,-118.01 122,-39 122.86,-38.03 123.77,-37.09 124.72,-36.19"/>
<polygon fill="#63b8ff" stroke="#63b8ff" points="126.92,-38.91 132.65,-30 122.62,-33.39 126.92,-38.91"/>
</a>
</g>
</g>
<!-- Node3 -->
<g id="Node000003" class="node">
<title>Node3</title>
<g id="a_Node000003"><a xlink:href="render__objects_8c.html#a8a48ecaa397efcff0fd4aab89b040c59" target="_top" xlink:title=" ">
<polygon fill="white" stroke="#666666" points="420.5,-553 288.5,-553 288.5,-523 420.5,-523 420.5,-553"/>
<text text-anchor="start" x="296.5" y="-541" font-family="Helvetica,sans-Serif" font-size="10.00">draw_rectangle_texture</text>
<text text-anchor="middle" x="354.5" y="-530" font-family="Helvetica,sans-Serif" font-size="10.00">_overlap</text>
</a>
</g>
</g>
<!-- Node2&#45;&gt;Node3 -->
<g id="edge2_Node000002_Node000003" class="edge">
<title>Node2&#45;&gt;Node3</title>
<g id="a_edge2_Node000002_Node000003"><a xlink:title=" ">
<path fill="none" stroke="#63b8ff" d="M205.91,-485.59C224.17,-492.2 249.05,-501.18 271,-509 280.55,-512.4 290.72,-516 300.55,-519.46"/>
<polygon fill="#63b8ff" stroke="#63b8ff" points="299.64,-522.85 310.23,-522.86 301.96,-516.24 299.64,-522.85"/>
</a>
</g>
</g>
<!-- Node4 -->
<g id="Node000004" class="node">
<title>Node4</title>
<g id="a_Node000004"><a xlink:href="GBIMiddleware_8cpp.html#a4ecc44e3c6f1ca5a6b4a20c41d3bd2d2" target="_top" xlink:title=" ">
<polygon fill="white" stroke="#666666" points="606.5,-482.5 517.5,-482.5 517.5,-463.5 606.5,-463.5 606.5,-482.5"/>
<text text-anchor="middle" x="562" y="-470.5" font-family="Helvetica,sans-Serif" font-size="10.00">gSPDisplayList</text>
</a>
</g>
</g>
<!-- Node2&#45;&gt;Node4 -->
<g id="edge9_Node000002_Node000004" class="edge">
<title>Node2&#45;&gt;Node4</title>
<g id="a_edge9_Node000002_Node000004"><a xlink:title=" ">
<path fill="none" stroke="#63b8ff" d="M235.38,-475.56C308.37,-474.99 435.29,-473.99 507.22,-473.42"/>
<polygon fill="#63b8ff" stroke="#63b8ff" points="507.45,-476.92 517.42,-473.34 507.4,-469.92 507.45,-476.92"/>
</a>
</g>
</g>
<!-- Node9 -->
<g id="Node000009" class="node">
<title>Node9</title>
<g id="a_Node000009"><a xlink:href="math__util__2_8c.html#a2eff0e02deb703653ee3230fbc02eb14" target="_top" xlink:title="set the matrix to a transformation matrix">
<polygon fill="white" stroke="#666666" points="438,-428.5 271,-428.5 271,-409.5 438,-409.5 438,-428.5"/>
<text text-anchor="middle" x="354.5" y="-416.5" font-family="Helvetica,sans-Serif" font-size="10.00">rsp_set_matrix_transformation</text>
</a>
</g>
</g>
<!-- Node2&#45;&gt;Node9 -->
<g id="edge10_Node000002_Node000009" class="edge">
<title>Node2&#45;&gt;Node9</title>
<g id="a_edge10_Node000002_Node000009"><a xlink:title=" ">
<path fill="none" stroke="#63b8ff" d="M208.62,-466.46C237.73,-456.92 282.66,-442.21 314.76,-431.69"/>
<polygon fill="#63b8ff" stroke="#63b8ff" points="315.87,-435.01 324.28,-428.57 313.69,-428.36 315.87,-435.01"/>
</a>
</g>
</g>
<!-- Node3&#45;&gt;Node4 -->
<g id="edge3_Node000003_Node000004" class="edge">
<title>Node3&#45;&gt;Node4</title>
<g id="a_edge3_Node000003_Node000004"><a xlink:title=" ">
<path fill="none" stroke="#63b8ff" d="M401.21,-522.88C413.27,-518.63 426.2,-513.84 438,-509 454.37,-502.28 457.25,-497.7 474,-492 484.53,-488.41 496.02,-485.34 507.09,-482.78"/>
<polygon fill="#63b8ff" stroke="#63b8ff" points="508.09,-486.14 517.1,-480.57 506.58,-479.31 508.09,-486.14"/>
</a>
</g>
</g>
<!-- Node7 -->
<g id="Node000007" class="node">
<title>Node7</title>
<g id="a_Node000007"><a xlink:href="GBIMiddleware_8cpp.html#aeef79449a27a710d73576e4a4f7f7f99" target="_top" xlink:title=" ">
<polygon fill="white" stroke="#666666" points="595,-556.5 529,-556.5 529,-537.5 595,-537.5 595,-556.5"/>
<text text-anchor="middle" x="562" y="-544.5" font-family="Helvetica,sans-Serif" font-size="10.00">gSPVertex</text>
</a>
</g>
</g>
<!-- Node3&#45;&gt;Node7 -->
<g id="edge6_Node000003_Node000007" class="edge">
<title>Node3&#45;&gt;Node7</title>
<g id="a_edge6_Node000003_Node000007"><a xlink:title=" ">
<path fill="none" stroke="#63b8ff" d="M420.52,-540.85C452.53,-542.25 490.21,-543.9 518.49,-545.14"/>
<polygon fill="#63b8ff" stroke="#63b8ff" points="518.69,-548.65 528.83,-545.59 519,-541.66 518.69,-548.65"/>
</a>
</g>
</g>
<!-- Node8 -->
<g id="Node000008" class="node">
<title>Node8</title>
<g id="a_Node000008"><a xlink:href="render__objects_8c.html#a8a3e9d3da5a6ac97b84b553fdc5d7d59" target="_top" xlink:title=" ">
<polygon fill="white" stroke="#666666" points="611,-519.5 513,-519.5 513,-500.5 611,-500.5 611,-519.5"/>
<text text-anchor="middle" x="562" y="-507.5" font-family="Helvetica,sans-Serif" font-size="10.00">rsp_load_texture</text>
</a>
</g>
</g>
<!-- Node3&#45;&gt;Node8 -->
<g id="edge8_Node000003_Node000008" class="edge">
<title>Node3&#45;&gt;Node8</title>
<g id="a_edge8_Node000003_Node000008"><a xlink:title=" ">
<path fill="none" stroke="#63b8ff" d="M420.52,-529.14C446.89,-525.55 477.11,-521.43 502.74,-517.94"/>
<polygon fill="#63b8ff" stroke="#63b8ff" points="503.25,-521.4 512.69,-516.58 502.31,-514.46 503.25,-521.4"/>
</a>
</g>
</g>
<!-- Node5 -->
<g id="Node000005" class="node">
<title>Node5</title>
<g id="a_Node000005"><a xlink:href="Engine_8cpp.html#a223c8bc63f228dc11177515e38eff2db" target="_top" xlink:title=" ">
<polygon fill="white" stroke="#666666" points="835,-554.5 686,-554.5 686,-535.5 835,-535.5 835,-554.5"/>
<text text-anchor="middle" x="760.5" y="-542.5" font-family="Helvetica,sans-Serif" font-size="10.00">GameEngine_OTRSigCheck</text>
</a>
</g>
</g>
<!-- Node4&#45;&gt;Node5 -->
<g id="edge4_Node000004_Node000005" class="edge">
<title>Node4&#45;&gt;Node5</title>
<g id="a_edge4_Node000004_Node000005"><a xlink:title=" ">
<path fill="none" stroke="#63b8ff" d="M606.79,-478.48C621.03,-481.32 636.61,-485.59 650,-492 668.53,-500.87 667.94,-511.21 686,-521 694.06,-525.37 703.05,-529.12 711.9,-532.26"/>
<polygon fill="#63b8ff" stroke="#63b8ff" points="710.81,-535.59 721.4,-535.44 713.03,-528.95 710.81,-535.59"/>
</a>
</g>
</g>
<!-- Node6 -->
<g id="Node000006" class="node">
<title>Node6</title>
<g id="a_Node000006"><a xlink:href="string_8c.html#a008e171a518fe0e0352f31b245e03875" target="_top" xlink:title=" ">
<polygon fill="white" stroke="#666666" points="981,-551.5 937,-551.5 937,-532.5 981,-532.5 981,-551.5"/>
<text text-anchor="middle" x="959" y="-539.5" font-family="Helvetica,sans-Serif" font-size="10.00">strlen</text>
</a>
</g>
</g>
<!-- Node5&#45;&gt;Node6 -->
<g id="edge5_Node000005_Node000006" class="edge">
<title>Node5&#45;&gt;Node6</title>
<g id="a_edge5_Node000005_Node000006"><a xlink:title=" ">
<path fill="none" stroke="#63b8ff" d="M835.23,-543.87C866.91,-543.39 902.23,-542.85 926.82,-542.48"/>
<polygon fill="#63b8ff" stroke="#63b8ff" points="927.04,-545.97 936.99,-542.32 926.94,-538.97 927.04,-545.97"/>
</a>
</g>
</g>
<!-- Node7&#45;&gt;Node5 -->
<g id="edge7_Node000007_Node000005" class="edge">
<title>Node7&#45;&gt;Node5</title>
<g id="a_edge7_Node000007_Node000005"><a xlink:title=" ">
<path fill="none" stroke="#63b8ff" d="M595.01,-546.67C616.99,-546.45 647.26,-546.14 675.85,-545.85"/>
<polygon fill="#63b8ff" stroke="#63b8ff" points="675.91,-549.35 685.87,-545.75 675.83,-542.35 675.91,-549.35"/>
</a>
</g>
</g>
<!-- Node10 -->
<g id="Node000010" class="node">
<title>Node10</title>
<g id="a_Node000010"><a xlink:href="Matrix_8cpp.html#a329d78c031733cf22ff7518f5d38fd74" target="_top" xlink:title=" ">
<polygon fill="white" stroke="#666666" points="605,-408.5 519,-408.5 519,-389.5 605,-389.5 605,-408.5"/>
<text text-anchor="middle" x="562" y="-396.5" font-family="Helvetica,sans-Serif" font-size="10.00">AddHudMatrix</text>
</a>
</g>
</g>
<!-- Node9&#45;&gt;Node10 -->
<g id="edge11_Node000009_Node000010" class="edge">
<title>Node9&#45;&gt;Node10</title>
<g id="a_edge11_Node000009_Node000010"><a xlink:title=" ">
<path fill="none" stroke="#63b8ff" d="M438.2,-410.95C461.97,-408.64 487.23,-406.18 508.62,-404.1"/>
<polygon fill="#63b8ff" stroke="#63b8ff" points="509.17,-407.56 518.78,-403.11 508.49,-400.59 509.17,-407.56"/>
</a>
</g>
</g>
<!-- Node15 -->
<g id="Node000015" class="node">
<title>Node15</title>
<g id="a_Node000015"><a xlink:href="math__util__2_8c.html#ae71383a9d7f97bcb240b23f68068ab30" target="_top" xlink:title=" ">
<polygon fill="white" stroke="#666666" points="650,-445.5 474,-445.5 474,-426.5 650,-426.5 650,-445.5"/>
<text text-anchor="middle" x="562" y="-433.5" font-family="Helvetica,sans-Serif" font-size="10.00">mtxf_set_matrix_transformation</text>
</a>
</g>
</g>
<!-- Node9&#45;&gt;Node15 -->
<g id="edge16_Node000009_Node000015" class="edge">
<title>Node9&#45;&gt;Node15</title>
<g id="a_edge16_Node000009_Node000015"><a xlink:title=" ">
<path fill="none" stroke="#63b8ff" d="M438.2,-425.84C446.61,-426.54 455.22,-427.25 463.77,-427.96"/>
<polygon fill="#63b8ff" stroke="#63b8ff" points="463.52,-431.45 473.77,-428.78 464.09,-424.47 463.52,-431.45"/>
</a>
</g>
</g>
<!-- Node11 -->
<g id="Node000011" class="node">
<title>Node11</title>
<g id="a_Node000011"><a xlink:href="Matrix_8cpp.html#aaa0983157188edefc6259671ccda6746" target="_top" xlink:title=" ">
<polygon fill="white" stroke="#666666" points="794,-441.5 727,-441.5 727,-422.5 794,-422.5 794,-441.5"/>
<text text-anchor="middle" x="760.5" y="-429.5" font-family="Helvetica,sans-Serif" font-size="10.00">AddMatrix</text>
</a>
</g>
</g>
<!-- Node10&#45;&gt;Node11 -->
<g id="edge12_Node000010_Node000011" class="edge">
<title>Node10&#45;&gt;Node11</title>
<g id="a_edge12_Node000010_Node000011"><a xlink:title=" ">
<path fill="none" stroke="#63b8ff" d="M605.15,-406.08C638.02,-411.6 683.48,-419.23 716.55,-424.79"/>
<polygon fill="#63b8ff" stroke="#63b8ff" points="716.38,-428.31 726.82,-426.51 717.54,-421.4 716.38,-428.31"/>
</a>
</g>
</g>
<!-- Node12 -->
<g id="Node000012" class="node">
<title>Node12</title>
<g id="a_Node000012"><a xlink:href="FrameInterpolation_8cpp.html#a8cf1f2d6fabc6925aa71a9515341b4aa" target="_top" xlink:title=" ">
<polygon fill="white" stroke="#666666" points="1029,-465 889,-465 889,-435 1029,-435 1029,-465"/>
<text text-anchor="start" x="897" y="-453" font-family="Helvetica,sans-Serif" font-size="10.00">FrameInterpolation</text>
<text text-anchor="middle" x="959" y="-442" font-family="Helvetica,sans-Serif" font-size="10.00">_RecordMatrixMtxFToMtx</text>
</a>
</g>
</g>
<!-- Node11&#45;&gt;Node12 -->
<g id="edge13_Node000011_Node000012" class="edge">
<title>Node11&#45;&gt;Node12</title>
<g id="a_edge13_Node000011_Node000012"><a xlink:title=" ">
<path fill="none" stroke="#63b8ff" d="M794.39,-435.01C817.36,-437.12 849.04,-440.02 878.42,-442.71"/>
<polygon fill="#63b8ff" stroke="#63b8ff" points="878.42,-446.22 888.7,-443.65 879.06,-439.25 878.42,-446.22"/>
</a>
</g>
</g>
<!-- Node14 -->
<g id="Node000014" class="node">
<title>Node14</title>
<g id="a_Node000014"><a xlink:href="guMtxF2L_8c.html#a40ab2d64c609839ff1e0ef0de2d0dcc4" target="_top" xlink:title=" ">
<polygon fill="white" stroke="#666666" points="991.5,-416.5 926.5,-416.5 926.5,-397.5 991.5,-397.5 991.5,-416.5"/>
<text text-anchor="middle" x="959" y="-404.5" font-family="Helvetica,sans-Serif" font-size="10.00">guMtxF2L</text>
</a>
</g>
</g>
<!-- Node11&#45;&gt;Node14 -->
<g id="edge15_Node000011_Node000014" class="edge">
<title>Node11&#45;&gt;Node14</title>
<g id="a_edge15_Node000011_Node000014"><a xlink:title=" ">
<path fill="none" stroke="#63b8ff" d="M794.39,-427.82C827.8,-423.56 879.67,-416.97 916.03,-412.34"/>
<polygon fill="#63b8ff" stroke="#63b8ff" points="916.83,-415.77 926.31,-411.03 915.94,-408.82 916.83,-415.77"/>
</a>
</g>
</g>
<!-- Node13 -->
<g id="Node000013" class="node">
<title>Node13</title>
<g id="a_Node000013"><a xlink:href="FrameInterpolation_8cpp.html#a02c7ac5342a4d376edee38f312b480bf" target="_top" xlink:title=" ">
<polygon fill="white" stroke="#666666" points="1191,-459.5 1083,-459.5 1083,-440.5 1191,-440.5 1191,-459.5"/>
<text text-anchor="middle" x="1137" y="-447.5" font-family="Helvetica,sans-Serif" font-size="10.00">check_if_recording</text>
</a>
</g>
</g>
<!-- Node12&#45;&gt;Node13 -->
<g id="edge14_Node000012_Node000013" class="edge">
<title>Node12&#45;&gt;Node13</title>
<g id="a_edge14_Node000012_Node000013"><a xlink:title=" ">
<path fill="none" stroke="#63b8ff" d="M1029.05,-450C1043.47,-450 1058.59,-450 1072.78,-450"/>
<polygon fill="#63b8ff" stroke="#63b8ff" points="1072.93,-453.5 1082.93,-450 1072.93,-446.5 1072.93,-453.5"/>
</a>
</g>
</g>
<!-- Node16 -->
<g id="Node000016" class="node">
<title>Node16</title>
<g id="a_Node000016"><a xlink:href="math__util_8c.html#ae69cbf5c8d4b3b0dba2d7b4d4673689f" target="_top" xlink:title=" ">
<polygon fill="white" stroke="#666666" points="779.5,-478.5 741.5,-478.5 741.5,-459.5 779.5,-459.5 779.5,-478.5"/>
<text text-anchor="middle" x="760.5" y="-466.5" font-family="Helvetica,sans-Serif" font-size="10.00">coss</text>
</a>
</g>
</g>
<!-- Node15&#45;&gt;Node16 -->
<g id="edge17_Node000015_Node000016" class="edge">
<title>Node15&#45;&gt;Node16</title>
<g id="a_edge17_Node000015_Node000016"><a xlink:title=" ">
<path fill="none" stroke="#63b8ff" d="M619.57,-445.5C656.13,-451.64 702.13,-459.37 731.19,-464.24"/>
<polygon fill="#63b8ff" stroke="#63b8ff" points="730.63,-467.7 741.08,-465.91 731.79,-460.8 730.63,-467.7"/>
</a>
</g>
</g>
<!-- Node17 -->
<g id="Node000017" class="node">
<title>Node17</title>
<g id="a_Node000017"><a xlink:href="FrameInterpolation_8cpp.html#af749df1a96bee5c78287b1845455ae2d" target="_top" xlink:title=" ">
<polygon fill="white" stroke="#666666" points="1047,-514 871,-514 871,-484 1047,-484 1047,-514"/>
<text text-anchor="start" x="879" y="-502" font-family="Helvetica,sans-Serif" font-size="10.00">FrameInterpolation</text>
<text text-anchor="middle" x="959" y="-491" font-family="Helvetica,sans-Serif" font-size="10.00">_RecordSetMatrixTransformation</text>
</a>
</g>
</g>
<!-- Node15&#45;&gt;Node17 -->
<g id="edge18_Node000015_Node000017" class="edge">
<title>Node15&#45;&gt;Node17</title>
<g id="a_edge18_Node000015_Node000017"><a xlink:title=" ">
<path fill="none" stroke="#63b8ff" d="M625.72,-445.51C634.13,-447.98 642.45,-451.08 650,-455 669.27,-464.99 665.93,-479.72 686,-488 740.8,-510.6 807.18,-513.7 860.66,-510.97"/>
<polygon fill="#63b8ff" stroke="#63b8ff" points="861.05,-514.46 870.83,-510.38 860.64,-507.47 861.05,-514.46"/>
</a>
</g>
</g>
<!-- Node18 -->
<g id="Node000018" class="node">
<title>Node18</title>
<g id="a_Node000018"><a xlink:href="math__util_8c.html#a19ed3bd78fd2d3e2bd0a29f6caf48545" target="_top" xlink:title=" ">
<polygon fill="white" stroke="#666666" points="778.5,-404.5 742.5,-404.5 742.5,-385.5 778.5,-385.5 778.5,-404.5"/>
<text text-anchor="middle" x="760.5" y="-392.5" font-family="Helvetica,sans-Serif" font-size="10.00">sins</text>
</a>
</g>
</g>
<!-- Node15&#45;&gt;Node18 -->
<g id="edge20_Node000015_Node000018" class="edge">
<title>Node15&#45;&gt;Node18</title>
<g id="a_edge20_Node000015_Node000018"><a xlink:title=" ">
<path fill="none" stroke="#63b8ff" d="M609.06,-426.5C622.28,-423.76 636.71,-420.77 650,-418 678.11,-412.14 710.26,-405.38 732.42,-400.71"/>
<polygon fill="#63b8ff" stroke="#63b8ff" points="733.37,-404.09 742.43,-398.6 731.93,-397.24 733.37,-404.09"/>
</a>
</g>
</g>
<!-- Node17&#45;&gt;Node13 -->
<g id="edge19_Node000017_Node000013" class="edge">
<title>Node17&#45;&gt;Node13</title>
<g id="a_edge19_Node000017_Node000013"><a xlink:title=" ">
<path fill="none" stroke="#63b8ff" d="M1014.24,-483.9C1039.25,-476.94 1068.55,-468.78 1092.14,-462.21"/>
<polygon fill="#63b8ff" stroke="#63b8ff" points="1093.18,-465.56 1101.87,-459.5 1091.3,-458.81 1093.18,-465.56"/>
</a>
</g>
</g>
<!-- Node19&#45;&gt;Node13 -->
<g id="edge22_Node000019_Node000013" class="edge">
<title>Node19&#45;&gt;Node13</title>
<g id="a_edge22_Node000019_Node000013"><a xlink:title=" ">
<path fill="none" stroke="#63b8ff" d="M972.4,-201.07C989.83,-222.5 1022.21,-263.27 1047,-300 1077.91,-345.8 1109.98,-402.52 1125.84,-431.33"/>
<polygon fill="#63b8ff" stroke="#63b8ff" points="1122.88,-433.2 1130.75,-440.29 1129.02,-429.83 1122.88,-433.2"/>
</a>
</g>
</g>
<!-- Node20&#45;&gt;Node13 -->
<g id="edge24_Node000020_Node000013" class="edge">
<title>Node20&#45;&gt;Node13</title>
<g id="a_edge24_Node000020_Node000013"><a xlink:title=" ">
<path fill="none" stroke="#63b8ff" d="M1014.25,-575.66C1025.65,-572.2 1037.18,-567.46 1047,-561 1083.43,-537.02 1111.94,-493.32 1126.13,-468.51"/>
<polygon fill="#63b8ff" stroke="#63b8ff" points="1129.22,-470.15 1131.01,-459.71 1123.1,-466.76 1129.22,-470.15"/>
</a>
</g>
</g>
<!-- Node22 -->
<g id="Node000022" class="node">
<title>Node22</title>
<g id="a_Node000022"><a xlink:href="math__util_8c.html#aaa39a297477f56051975259f4bddd829" target="_top" xlink:title=" ">
<polygon fill="white" stroke="#666666" points="379.5,-354.5 329.5,-354.5 329.5,-335.5 379.5,-335.5 379.5,-354.5"/>
<text text-anchor="middle" x="354.5" y="-342.5" font-family="Helvetica,sans-Serif" font-size="10.00">atan2s</text>
</a>
</g>
</g>
<!-- Node21&#45;&gt;Node22 -->
<g id="edge26_Node000021_Node000022" class="edge">
<title>Node21&#45;&gt;Node22</title>
<g id="a_edge26_Node000021_Node000022"><a xlink:title=" ">
<path fill="none" stroke="#63b8ff" d="M224.76,-330.2C254.28,-333.59 292.19,-337.95 319.21,-341.06"/>
<polygon fill="#63b8ff" stroke="#63b8ff" points="319.01,-344.56 329.35,-342.22 319.81,-337.6 319.01,-344.56"/>
</a>
</g>
</g>
<!-- Node23 -->
<g id="Node000023" class="node">
<title>Node23</title>
<g id="a_Node000023"><a xlink:href="math__util_8c.html#a0273b0ea0783a06996c28669a7438ed9" target="_top" xlink:title=" ">
<polygon fill="white" stroke="#666666" points="603,-362.5 521,-362.5 521,-343.5 603,-343.5 603,-362.5"/>
<text text-anchor="middle" x="562" y="-350.5" font-family="Helvetica,sans-Serif" font-size="10.00">atan2_lookup</text>
</a>
</g>
</g>
<!-- Node22&#45;&gt;Node23 -->
<g id="edge27_Node000022_Node000023" class="edge">
<title>Node22&#45;&gt;Node23</title>
<g id="a_edge27_Node000022_Node000023"><a xlink:title=" ">
<path fill="none" stroke="#63b8ff" d="M379.88,-345.95C411.93,-347.2 469.03,-349.42 510.56,-351.04"/>
<polygon fill="#63b8ff" stroke="#63b8ff" points="510.64,-354.54 520.77,-351.43 510.91,-347.55 510.64,-354.54"/>
</a>
</g>
</g>
<!-- Node24&#45;&gt;Node3 -->
<g id="edge29_Node000024_Node000003" class="edge">
<title>Node24&#45;&gt;Node3</title>
<g id="a_edge29_Node000024_Node000003"><a xlink:title=" ">
<path fill="none" stroke="#63b8ff" d="M193.45,-428.54C221.37,-447.63 284.72,-490.96 322.82,-517.01"/>
<polygon fill="#63b8ff" stroke="#63b8ff" points="321.23,-520.17 331.46,-522.93 325.18,-514.39 321.23,-520.17"/>
</a>
</g>
</g>
<!-- Node24&#45;&gt;Node4 -->
<g id="edge30_Node000024_Node000004" class="edge">
<title>Node24&#45;&gt;Node4</title>
<g id="a_edge30_Node000024_Node000004"><a xlink:title=" ">
<path fill="none" stroke="#63b8ff" d="M221.73,-428.55C237.18,-431.83 254.83,-435.35 271,-438 352.91,-451.42 448.62,-461.99 507.01,-467.86"/>
<polygon fill="#63b8ff" stroke="#63b8ff" points="506.81,-471.36 517.11,-468.87 507.51,-464.4 506.81,-471.36"/>
</a>
</g>
</g>
<!-- Node24&#45;&gt;Node9 -->
<g id="edge31_Node000024_Node000009" class="edge">
<title>Node24&#45;&gt;Node9</title>
<g id="a_edge31_Node000024_Node000009"><a xlink:title=" ">
<path fill="none" stroke="#63b8ff" d="M224.76,-419C235.89,-419 248.2,-419 260.68,-419"/>
<polygon fill="#63b8ff" stroke="#63b8ff" points="260.7,-422.5 270.7,-419 260.7,-415.5 260.7,-422.5"/>
</a>
</g>
</g>
<!-- Node25 -->
<g id="Node000025" class="node">
<title>Node25</title>
<g id="a_Node000025"><a xlink:href="render__objects_8c.html#ad92ac25c074d6586a5b7c7331fccdb21" target="_top" xlink:title=" ">
<polygon fill="white" stroke="#666666" points="405,-391.5 304,-391.5 304,-372.5 405,-372.5 405,-391.5"/>
<text text-anchor="middle" x="354.5" y="-379.5" font-family="Helvetica,sans-Serif" font-size="10.00">set_transparency</text>
</a>
</g>
</g>
<!-- Node24&#45;&gt;Node25 -->
<g id="edge32_Node000024_Node000025" class="edge">
<title>Node24&#45;&gt;Node25</title>
<g id="a_edge32_Node000024_Node000025"><a xlink:title=" ">
<path fill="none" stroke="#63b8ff" d="M224.31,-409.47C246.95,-404.66 274.63,-398.77 298.55,-393.69"/>
<polygon fill="#63b8ff" stroke="#63b8ff" points="299.49,-397.06 308.54,-391.56 298.03,-390.22 299.49,-397.06"/>
</a>
</g>
</g>
<!-- Node26&#45;&gt;Node4 -->
<g id="edge40_Node000026_Node000004" class="edge">
<title>Node26&#45;&gt;Node4</title>
<g id="a_edge40_Node000026_Node000004"><a xlink:title=" ">
<path fill="none" stroke="#63b8ff" d="M215.07,-273.57C231.99,-278.06 252.51,-283.42 271,-288 344.98,-306.34 382.91,-274.32 438,-327 480.71,-367.84 430.77,-414.7 474,-455 483.08,-463.46 495.05,-468.38 507.19,-471.15"/>
<polygon fill="#63b8ff" stroke="#63b8ff" points="506.91,-474.66 517.37,-473.01 508.16,-467.77 506.91,-474.66"/>
</a>
</g>
</g>
<!-- Node27 -->
<g id="Node000027" class="node">
<title>Node27</title>
<g id="a_Node000027"><a xlink:href="collision_8c.html#a6527a2135a10909cdf9a1fd731be5628" target="_top" xlink:title=" ">
<polygon fill="white" stroke="#666666" points="423.5,-230.5 285.5,-230.5 285.5,-211.5 423.5,-211.5 423.5,-230.5"/>
<text text-anchor="middle" x="354.5" y="-218.5" font-family="Helvetica,sans-Serif" font-size="10.00">calculate_surface_height</text>
</a>
</g>
</g>
<!-- Node26&#45;&gt;Node27 -->
<g id="edge34_Node000026_Node000027" class="edge">
<title>Node26&#45;&gt;Node27</title>
<g id="a_edge34_Node000026_Node000027"><a xlink:title=" ">
<path fill="none" stroke="#63b8ff" d="M215.07,-254.4C231.98,-249.91 252.5,-244.55 271,-240 280.74,-237.6 291.15,-235.13 301.18,-232.8"/>
<polygon fill="#63b8ff" stroke="#63b8ff" points="302.09,-236.18 311.05,-230.52 300.52,-229.36 302.09,-236.18"/>
</a>
</g>
</g>
<!-- Node28 -->
<g id="Node000028" class="node">
<title>Node28</title>
<g id="a_Node000028"><a xlink:href="math__util__2_8c.html#a837dad2e432e4b17ac02eeee934cf4ce" target="_top" xlink:title=" ">
<polygon fill="white" stroke="#666666" points="400,-186.5 309,-186.5 309,-167.5 400,-167.5 400,-186.5"/>
<text text-anchor="middle" x="354.5" y="-174.5" font-family="Helvetica,sans-Serif" font-size="10.00">func_80041924</text>
</a>
</g>
</g>
<!-- Node26&#45;&gt;Node28 -->
<g id="edge35_Node000026_Node000028" class="edge">
<title>Node26&#45;&gt;Node28</title>
<g id="a_edge35_Node000026_Node000028"><a xlink:title=" ">
<path fill="none" stroke="#63b8ff" d="M191.22,-254.33C207.98,-240.93 240.17,-216.7 271,-202 281.14,-197.17 292.42,-193.02 303.3,-189.57"/>
<polygon fill="#63b8ff" stroke="#63b8ff" points="304.58,-192.84 313.14,-186.6 302.56,-186.14 304.58,-192.84"/>
</a>
</g>
</g>
<!-- Node33 -->
<g id="Node000033" class="node">
<title>Node33</title>
<g id="a_Node000033"><a xlink:href="math__util__2_8c.html#af76a1b5132e0b292f26895736bb69cc7" target="_top" xlink:title=" ">
<polygon fill="white" stroke="#666666" points="415.5,-279 293.5,-279 293.5,-249 415.5,-249 415.5,-279"/>
<text text-anchor="start" x="301.5" y="-267" font-family="Helvetica,sans-Serif" font-size="10.00">rsp_set_matrix_transl</text>
<text text-anchor="middle" x="354.5" y="-256" font-family="Helvetica,sans-Serif" font-size="10.00">_rot_scale</text>
</a>
</g>
</g>
<!-- Node26&#45;&gt;Node33 -->
<g id="edge41_Node000026_Node000033" class="edge">
<title>Node26&#45;&gt;Node33</title>
<g id="a_edge41_Node000026_Node000033"><a xlink:title=" ">
<path fill="none" stroke="#63b8ff" d="M224.76,-264C242.6,-264 263.5,-264 283.21,-264"/>
<polygon fill="#63b8ff" stroke="#63b8ff" points="283.39,-267.5 293.39,-264 283.39,-260.5 283.39,-267.5"/>
</a>
</g>
</g>
<!-- Node29 -->
<g id="Node000029" class="node">
<title>Node29</title>
<g id="a_Node000029"><a xlink:href="collision_8c.html#a37aa55b3768d001533ad75e7f1b8388a" target="_top" xlink:title=" ">
<polygon fill="white" stroke="#666666" points="632.5,-182.5 491.5,-182.5 491.5,-163.5 632.5,-163.5 632.5,-182.5"/>
<text text-anchor="middle" x="562" y="-170.5" font-family="Helvetica,sans-Serif" font-size="10.00">check_bounding_collision</text>
</a>
</g>
</g>
<!-- Node28&#45;&gt;Node29 -->
<g id="edge36_Node000028_Node000029" class="edge">
<title>Node28&#45;&gt;Node29</title>
<g id="a_edge36_Node000028_Node000029"><a xlink:title=" ">
<path fill="none" stroke="#63b8ff" d="M400.09,-176.13C423.85,-175.67 453.8,-175.09 481.4,-174.55"/>
<polygon fill="#63b8ff" stroke="#63b8ff" points="481.51,-178.05 491.44,-174.35 481.37,-171.05 481.51,-178.05"/>
</a>
</g>
</g>
<!-- Node30 -->
<g id="Node000030" class="node">
<title>Node30</title>
<g id="a_Node000030"><a xlink:href="collision_8c.html#ac312bf382cb40752f6b790a99e7cdcb6" target="_top" xlink:title=" ">
<polygon fill="white" stroke="#666666" points="814.5,-143.5 706.5,-143.5 706.5,-124.5 814.5,-124.5 814.5,-143.5"/>
<text text-anchor="middle" x="760.5" y="-131.5" font-family="Helvetica,sans-Serif" font-size="10.00">check_collision_yx</text>
</a>
</g>
</g>
<!-- Node29&#45;&gt;Node30 -->
<g id="edge37_Node000029_Node000030" class="edge">
<title>Node29&#45;&gt;Node30</title>
<g id="a_edge37_Node000029_Node000030"><a xlink:title=" ">
<path fill="none" stroke="#63b8ff" d="M611.07,-163.46C638.41,-158.03 672.84,-151.2 701.65,-145.48"/>
<polygon fill="#63b8ff" stroke="#63b8ff" points="702.46,-148.89 711.59,-143.51 701.1,-142.02 702.46,-148.89"/>
</a>
</g>
</g>
<!-- Node31 -->
<g id="Node000031" class="node">
<title>Node31</title>
<g id="a_Node000031"><a xlink:href="collision_8c.html#a4b48832a90e984536a0635a016ec4f28" target="_top" xlink:title=" ">
<polygon fill="white" stroke="#666666" points="814,-217.5 707,-217.5 707,-198.5 814,-198.5 814,-217.5"/>
<text text-anchor="middle" x="760.5" y="-205.5" font-family="Helvetica,sans-Serif" font-size="10.00">check_collision_zx</text>
</a>
</g>
</g>
<!-- Node29&#45;&gt;Node31 -->
<g id="edge38_Node000029_Node000031" class="edge">
<title>Node29&#45;&gt;Node31</title>
<g id="a_edge38_Node000029_Node000031"><a xlink:title=" ">
<path fill="none" stroke="#63b8ff" d="M616.43,-182.52C641.22,-186.93 670.84,-192.21 696.68,-196.81"/>
<polygon fill="#63b8ff" stroke="#63b8ff" points="696.3,-200.3 706.76,-198.61 697.53,-193.41 696.3,-200.3"/>
</a>
</g>
</g>
<!-- Node32 -->
<g id="Node000032" class="node">
<title>Node32</title>
<g id="a_Node000032"><a xlink:href="collision_8c.html#a21fef964ab48191a1c0341954ef27a40" target="_top" xlink:title=" ">
<polygon fill="white" stroke="#666666" points="814,-180.5 707,-180.5 707,-161.5 814,-161.5 814,-180.5"/>
<text text-anchor="middle" x="760.5" y="-168.5" font-family="Helvetica,sans-Serif" font-size="10.00">check_collision_zy</text>
</a>
</g>
</g>
<!-- Node29&#45;&gt;Node32 -->
<g id="edge39_Node000029_Node000032" class="edge">
<title>Node29&#45;&gt;Node32</title>
<g id="a_edge39_Node000029_Node000032"><a xlink:title=" ">
<path fill="none" stroke="#63b8ff" d="M632.56,-172.29C653.43,-172.08 676.19,-171.85 696.61,-171.64"/>
<polygon fill="#63b8ff" stroke="#63b8ff" points="696.77,-175.14 706.74,-171.54 696.7,-168.14 696.77,-175.14"/>
</a>
</g>
</g>
<!-- Node33&#45;&gt;Node10 -->
<g id="edge42_Node000033_Node000010" class="edge">
<title>Node33&#45;&gt;Node10</title>
<g id="a_edge42_Node000033_Node000010"><a xlink:title=" ">
<path fill="none" stroke="#63b8ff" d="M415.55,-278.55C423.71,-282.32 431.5,-287.06 438,-293 466.48,-319.03 445.04,-346.5 474,-372 483.83,-380.66 496.41,-386.54 508.93,-390.54"/>
<polygon fill="#63b8ff" stroke="#63b8ff" points="508.33,-394.01 518.91,-393.36 510.24,-387.27 508.33,-394.01"/>
</a>
</g>
</g>
<!-- Node34 -->
<g id="Node000034" class="node">
<title>Node34</title>
<g id="a_Node000034"><a xlink:href="math__util__2_8c.html#aae502d60ed48e002c9bf17890477aebc" target="_top" xlink:title=" ">
<polygon fill="white" stroke="#666666" points="623,-325.5 501,-325.5 501,-306.5 623,-306.5 623,-325.5"/>
<text text-anchor="middle" x="562" y="-313.5" font-family="Helvetica,sans-Serif" font-size="10.00">set_transform_matrix</text>
</a>
</g>
</g>
<!-- Node33&#45;&gt;Node34 -->
<g id="edge43_Node000033_Node000034" class="edge">
<title>Node33&#45;&gt;Node34</title>
<g id="a_edge43_Node000033_Node000034"><a xlink:title=" ">
<path fill="none" stroke="#63b8ff" d="M414.94,-279.04C446.22,-286.96 484.06,-296.53 513.38,-303.95"/>
<polygon fill="#63b8ff" stroke="#63b8ff" points="512.82,-307.42 523.37,-306.48 514.54,-300.63 512.82,-307.42"/>
</a>
</g>
</g>
<!-- Node34&#45;&gt;Node16 -->
<g id="edge44_Node000034_Node000016" class="edge">
<title>Node34&#45;&gt;Node16</title>
<g id="a_edge44_Node000034_Node000016"><a xlink:title=" ">
<path fill="none" stroke="#63b8ff" d="M623.21,-320.46C633.06,-323.5 642.48,-328.1 650,-335 689.77,-371.5 646.69,-414.01 686,-451 698.01,-462.3 715.91,-466.85 731.05,-468.55"/>
<polygon fill="#63b8ff" stroke="#63b8ff" points="731.21,-472.07 741.45,-469.34 731.74,-465.09 731.21,-472.07"/>
</a>
</g>
</g>
<!-- Node34&#45;&gt;Node18 -->
<g id="edge47_Node000034_Node000018" class="edge">
<title>Node34&#45;&gt;Node18</title>
<g id="a_edge47_Node000034_Node000018"><a xlink:title=" ">
<path fill="none" stroke="#63b8ff" d="M623.13,-324.4C632.45,-327.03 641.72,-330.48 650,-335 669.86,-345.85 666.72,-359.16 686,-371 700.27,-379.76 718.08,-385.68 732.6,-389.45"/>
<polygon fill="#63b8ff" stroke="#63b8ff" points="731.95,-392.89 742.49,-391.82 733.58,-386.09 731.95,-392.89"/>
</a>
</g>
</g>
<!-- Node35 -->
<g id="Node000035" class="node">
<title>Node35</title>
<g id="a_Node000035"><a xlink:href="FrameInterpolation_8cpp.html#adc4e082ac2a755e94aa8b4e8bbba9850" target="_top" xlink:title=" ">
<polygon fill="white" stroke="#666666" points="1035,-378 883,-378 883,-348 1035,-348 1035,-378"/>
<text text-anchor="start" x="891" y="-366" font-family="Helvetica,sans-Serif" font-size="10.00">FrameInterpolation</text>
<text text-anchor="middle" x="959" y="-355" font-family="Helvetica,sans-Serif" font-size="10.00">_RecordSetTransformMatrix</text>
</a>
</g>
</g>
<!-- Node34&#45;&gt;Node35 -->
<g id="edge45_Node000034_Node000035" class="edge">
<title>Node34&#45;&gt;Node35</title>
<g id="a_edge45_Node000034_Node000035"><a xlink:title=" ">
<path fill="none" stroke="#63b8ff" d="M610.75,-325.52C633.47,-329.8 661.06,-334.63 686,-338 748.25,-346.41 818.9,-352.81 872.6,-357.03"/>
<polygon fill="#63b8ff" stroke="#63b8ff" points="872.52,-360.53 882.76,-357.82 873.06,-353.56 872.52,-360.53"/>
</a>
</g>
</g>
<!-- Node36 -->
<g id="Node000036" class="node">
<title>Node36</title>
<g id="a_Node000036"><a xlink:href="math__util__2_8c.html#ab05a6d20123383498f07f82db7b6fb8d" target="_top" xlink:title=" ">
<polygon fill="white" stroke="#666666" points="818.5,-254.5 702.5,-254.5 702.5,-235.5 818.5,-235.5 818.5,-254.5"/>
<text text-anchor="middle" x="760.5" y="-242.5" font-family="Helvetica,sans-Serif" font-size="10.00">vec3f_cross_product</text>
</a>
</g>
</g>
<!-- Node34&#45;&gt;Node36 -->
<g id="edge48_Node000034_Node000036" class="edge">
<title>Node34&#45;&gt;Node36</title>
<g id="a_edge48_Node000034_Node000036"><a xlink:title=" ">
<path fill="none" stroke="#63b8ff" d="M582.63,-306.33C606.58,-294.81 648.52,-275.57 686,-263 692.13,-260.94 698.62,-259.01 705.11,-257.24"/>
<polygon fill="#63b8ff" stroke="#63b8ff" points="706.46,-260.5 715.24,-254.57 704.68,-253.73 706.46,-260.5"/>
</a>
</g>
</g>
<!-- Node37 -->
<g id="Node000037" class="node">
<title>Node37</title>
<g id="a_Node000037"><a xlink:href="math__util__2_8c.html#ad692d06c2c62cfc4e1b91e03cc0acf00" target="_top" xlink:title=" ">
<polygon fill="white" stroke="#666666" points="809.5,-328.5 711.5,-328.5 711.5,-309.5 809.5,-309.5 809.5,-328.5"/>
<text text-anchor="middle" x="760.5" y="-316.5" font-family="Helvetica,sans-Serif" font-size="10.00">vec3f_normalize</text>
</a>
</g>
</g>
<!-- Node34&#45;&gt;Node37 -->
<g id="edge49_Node000034_Node000037" class="edge">
<title>Node34&#45;&gt;Node37</title>
<g id="a_edge49_Node000034_Node000037"><a xlink:title=" ">
<path fill="none" stroke="#63b8ff" d="M623.02,-316.92C647.81,-317.29 676.45,-317.73 701.07,-318.11"/>
<polygon fill="#63b8ff" stroke="#63b8ff" points="701.3,-321.61 711.35,-318.26 701.4,-314.61 701.3,-321.61"/>
</a>
</g>
</g>
<!-- Node39 -->
<g id="Node000039" class="node">
<title>Node39</title>
<g id="a_Node000039"><a xlink:href="math__util__2_8c.html#a03ebc759ba50db479384b0ad89225f1e" target="_top" xlink:title=" ">
<polygon fill="white" stroke="#666666" points="803.5,-291.5 717.5,-291.5 717.5,-272.5 803.5,-272.5 803.5,-291.5"/>
<text text-anchor="middle" x="760.5" y="-279.5" font-family="Helvetica,sans-Serif" font-size="10.00">vec3f_set_xyz</text>
</a>
</g>
</g>
<!-- Node34&#45;&gt;Node39 -->
<g id="edge51_Node000034_Node000039" class="edge">
<title>Node34&#45;&gt;Node39</title>
<g id="a_edge51_Node000034_Node000039"><a xlink:title=" ">
<path fill="none" stroke="#63b8ff" d="M618,-306.48C646.01,-301.64 679.88,-295.78 707.46,-291"/>
<polygon fill="#63b8ff" stroke="#63b8ff" points="708.05,-294.45 717.31,-289.3 706.86,-287.56 708.05,-294.45"/>
</a>
</g>
</g>
<!-- Node35&#45;&gt;Node13 -->
<g id="edge46_Node000035_Node000013" class="edge">
<title>Node35&#45;&gt;Node13</title>
<g id="a_edge46_Node000035_Node000013"><a xlink:title=" ">
<path fill="none" stroke="#63b8ff" d="M1019.43,-378.06C1028.84,-381.21 1038.32,-384.86 1047,-389 1072.62,-401.24 1099.1,-420.37 1116.45,-433.94"/>
<polygon fill="#63b8ff" stroke="#63b8ff" points="1114.63,-436.97 1124.63,-440.46 1118.99,-431.49 1114.63,-436.97"/>
</a>
</g>
</g>
<!-- Node38 -->
<g id="Node000038" class="node">
<title>Node38</title>
<g id="a_Node000038"><a xlink:href="math_8h.html#a37bde043e94a6f074c78f10518fb5d99" target="_top" xlink:title=" ">
<polygon fill="white" stroke="#666666" points="978.5,-328.5 939.5,-328.5 939.5,-309.5 978.5,-309.5 978.5,-328.5"/>
<text text-anchor="middle" x="959" y="-316.5" font-family="Helvetica,sans-Serif" font-size="10.00">sqrtf</text>
</a>
</g>
</g>
<!-- Node37&#45;&gt;Node38 -->
<g id="edge50_Node000037_Node000038" class="edge">
<title>Node37&#45;&gt;Node38</title>
<g id="a_edge50_Node000037_Node000038"><a xlink:title=" ">
<path fill="none" stroke="#63b8ff" d="M809.57,-319C846.97,-319 897.64,-319 929.05,-319"/>
<polygon fill="#63b8ff" stroke="#63b8ff" points="929.3,-322.5 939.3,-319 929.3,-315.5 929.3,-322.5"/>
</a>
</g>
</g>
</g>
</svg>
