<?xml version="1.0" encoding="UTF-8" standalone="no"?>
<!DOCTYPE svg PUBLIC "-//W3C//DTD SVG 1.1//EN"
 "http://www.w3.org/Graphics/SVG/1.1/DTD/svg11.dtd">
<!-- Generated by graphviz version 2.43.0 (0)
 -->
<!-- Title: is_object_visible_on_camera Pages: 1 -->
<svg width="821pt" height="1031pt"
 viewBox="0.00 0.00 821.00 1031.08" xmlns="http://www.w3.org/2000/svg" xmlns:xlink="http://www.w3.org/1999/xlink">
<g id="graph0" class="graph" transform="scale(1 1) rotate(0) translate(4 1027.08)">
<title>is_object_visible_on_camera</title>
<!-- Node1 -->
<g id="Node000001" class="node">
<title>Node1</title>
<g id="a_Node000001"><a xlink:title=" ">
<polygon fill="#999999" stroke="#666666" points="813,-639.58 698,-639.58 698,-609.58 813,-609.58 813,-639.58"/>
<text text-anchor="start" x="706" y="-627.58" font-family="Helvetica,sans-Serif" font-size="10.00">is_object_visible_on</text>
<text text-anchor="middle" x="755.5" y="-616.58" font-family="Helvetica,sans-Serif" font-size="10.00">_camera</text>
</a>
</g>
</g>
<!-- Node2 -->
<g id="Node000002" class="node">
<title>Node2</title>
<g id="a_Node000002"><a xlink:href="classOBat.html#a5349e95202aa8a8eb78ef763478e6e55" target="_top" xlink:title=" ">
<polygon fill="white" stroke="#666666" points="657.5,-1004.08 535.5,-1004.08 535.5,-985.08 657.5,-985.08 657.5,-1004.08"/>
<text text-anchor="middle" x="596.5" y="-992.08" font-family="Helvetica,sans-Serif" font-size="10.00">OBat::func_8007D804</text>
</a>
</g>
</g>
<!-- Node1&#45;&gt;Node2 -->
<g id="edge1_Node000001_Node000002" class="edge">
<title>Node1&#45;&gt;Node2</title>
<g id="a_edge1_Node000001_Node000002"><a xlink:title=" ">
<path fill="none" stroke="#63b8ff" d="M753.93,-649.77C751.33,-709.69 737.24,-862.81 662,-958.58 652.57,-970.58 637.97,-979.2 625.05,-984.99"/>
<polygon fill="#63b8ff" stroke="#63b8ff" points="757.43,-649.83 754.29,-639.71 750.43,-649.57 757.43,-649.83"/>
</a>
</g>
</g>
<!-- Node5 -->
<g id="Node000005" class="node">
<title>Node5</title>
<g id="a_Node000005"><a xlink:href="code__80086E70_8c.html#af49503eca587d86df460d33f58d82d2d" target="_top" xlink:title=" ">
<polygon fill="white" stroke="#666666" points="643,-949.08 550,-949.08 550,-930.08 643,-930.08 643,-949.08"/>
<text text-anchor="middle" x="596.5" y="-937.08" font-family="Helvetica,sans-Serif" font-size="10.00">func_8008A1D0</text>
</a>
</g>
</g>
<!-- Node1&#45;&gt;Node5 -->
<g id="edge4_Node000001_Node000005" class="edge">
<title>Node1&#45;&gt;Node5</title>
<g id="a_edge4_Node000001_Node000005"><a xlink:title=" ">
<path fill="none" stroke="#63b8ff" d="M742.43,-648.8C710.3,-713.25 623.72,-886.96 602.33,-929.88"/>
<polygon fill="#63b8ff" stroke="#63b8ff" points="745.6,-650.28 746.93,-639.77 739.33,-647.16 745.6,-650.28"/>
</a>
</g>
</g>
<!-- Node8 -->
<g id="Node000008" class="node">
<title>Node8</title>
<g id="a_Node000008"><a xlink:href="code__80086E70_8c.html#a6a08c5fdeee1a523ec5ccbd1f0ff82a7" target="_top" xlink:title=" ">
<polygon fill="white" stroke="#666666" points="643,-690.08 550,-690.08 550,-671.08 643,-671.08 643,-690.08"/>
<text text-anchor="middle" x="596.5" y="-678.08" font-family="Helvetica,sans-Serif" font-size="10.00">func_8008A2CC</text>
</a>
</g>
</g>
<!-- Node1&#45;&gt;Node8 -->
<g id="edge7_Node000001_Node000008" class="edge">
<title>Node1&#45;&gt;Node8</title>
<g id="a_edge7_Node000001_Node000008"><a xlink:title=" ">
<path fill="none" stroke="#63b8ff" d="M711.32,-643.55C695.9,-649.99 678.32,-656.97 662,-662.58 653.2,-665.6 643.61,-668.49 634.57,-671.04"/>
<polygon fill="#63b8ff" stroke="#63b8ff" points="712.75,-646.74 720.6,-639.62 710.03,-640.29 712.75,-646.74"/>
</a>
</g>
</g>
<!-- Node9 -->
<g id="Node000009" class="node">
<title>Node9</title>
<g id="a_Node000009"><a xlink:href="code__80086E70_8c.html#a364496b44c479b8d7937d98d2283c89e" target="_top" xlink:title=" ">
<polygon fill="white" stroke="#666666" points="642.5,-653.08 550.5,-653.08 550.5,-634.08 642.5,-634.08 642.5,-653.08"/>
<text text-anchor="middle" x="596.5" y="-641.08" font-family="Helvetica,sans-Serif" font-size="10.00">func_8008A364</text>
</a>
</g>
</g>
<!-- Node1&#45;&gt;Node9 -->
<g id="edge8_Node000001_Node000009" class="edge">
<title>Node1&#45;&gt;Node9</title>
<g id="a_edge8_Node000001_Node000009"><a xlink:title=" ">
<path fill="none" stroke="#63b8ff" d="M687.88,-632.64C672.58,-634.49 656.66,-636.42 642.53,-638.13"/>
<polygon fill="#63b8ff" stroke="#63b8ff" points="688.31,-636.11 697.82,-631.44 687.47,-629.16 688.31,-636.11"/>
</a>
</g>
</g>
<!-- Node73 -->
<g id="Node000073" class="node">
<title>Node73</title>
<g id="a_Node000073"><a xlink:href="code__80086E70_8c.html#a41d8d02a7fdd710bb86375576af40d08" target="_top" xlink:title=" ">
<polygon fill="white" stroke="#666666" points="642.5,-616.08 550.5,-616.08 550.5,-597.08 642.5,-597.08 642.5,-616.08"/>
<text text-anchor="middle" x="596.5" y="-604.08" font-family="Helvetica,sans-Serif" font-size="10.00">func_8008A610</text>
</a>
</g>
</g>
<!-- Node1&#45;&gt;Node73 -->
<g id="edge33_Node000001_Node000073" class="edge">
<title>Node1&#45;&gt;Node73</title>
<g id="a_edge33_Node000001_Node000073"><a xlink:title=" ">
<path fill="none" stroke="#63b8ff" d="M687.88,-616.94C672.58,-615.18 656.66,-613.36 642.53,-611.74"/>
<polygon fill="#63b8ff" stroke="#63b8ff" points="687.49,-620.42 697.82,-618.08 688.28,-613.46 687.49,-620.42"/>
</a>
</g>
</g>
<!-- Node74 -->
<g id="Node000074" class="node">
<title>Node74</title>
<g id="a_Node000074"><a xlink:href="code__80086E70_8c.html#a6e45fa53e2d0e566e0275afa3bbbc1f9" target="_top" xlink:title=" ">
<polygon fill="white" stroke="#666666" points="643.5,-251.08 549.5,-251.08 549.5,-232.08 643.5,-232.08 643.5,-251.08"/>
<text text-anchor="middle" x="596.5" y="-239.08" font-family="Helvetica,sans-Serif" font-size="10.00">func_8008A6DC</text>
</a>
</g>
</g>
<!-- Node1&#45;&gt;Node74 -->
<g id="edge34_Node000001_Node000074" class="edge">
<title>Node1&#45;&gt;Node74</title>
<g id="a_edge34_Node000001_Node000074"><a xlink:title=" ">
<path fill="none" stroke="#63b8ff" d="M744.42,-599.99C713.63,-524.86 621.65,-300.49 601.45,-251.21"/>
<polygon fill="#63b8ff" stroke="#63b8ff" points="741.31,-601.64 748.35,-609.56 747.79,-598.98 741.31,-601.64"/>
</a>
</g>
</g>
<!-- Node91 -->
<g id="Node000091" class="node">
<title>Node91</title>
<g id="a_Node000091"><a xlink:href="render__objects_8c.html#a01136bcb8f763bd80f4cb9296988d0ad" target="_top" xlink:title=" ">
<polygon fill="white" stroke="#666666" points="653,-165.08 540,-165.08 540,-146.08 653,-146.08 653,-165.08"/>
<text text-anchor="middle" x="596.5" y="-153.08" font-family="Helvetica,sans-Serif" font-size="10.00">render_object_neon</text>
</a>
</g>
</g>
<!-- Node1&#45;&gt;Node91 -->
<g id="edge50_Node000001_Node000091" class="edge">
<title>Node1&#45;&gt;Node91</title>
<g id="a_edge50_Node000001_Node000091"><a xlink:title=" ">
<path fill="none" stroke="#63b8ff" d="M753.24,-599.12C749.03,-533.19 731.5,-352.99 662,-223.58 648.91,-199.21 624.76,-177.22 610.02,-165.19"/>
<polygon fill="#63b8ff" stroke="#63b8ff" points="749.76,-599.61 753.84,-609.38 756.75,-599.2 749.76,-599.61"/>
</a>
</g>
</g>
<!-- Node93 -->
<g id="Node000093" class="node">
<title>Node93</title>
<g id="a_Node000093"><a xlink:href="classOThwomp.html#a143589fa70ddc0442a1db2cdc08e47fd" target="_top" xlink:title=" ">
<polygon fill="white" stroke="#666666" points="662,-30.08 531,-30.08 531,-11.08 662,-11.08 662,-30.08"/>
<text text-anchor="middle" x="596.5" y="-18.08" font-family="Helvetica,sans-Serif" font-size="10.00">OThwomp::SetVisibility</text>
</a>
</g>
</g>
<!-- Node1&#45;&gt;Node93 -->
<g id="edge52_Node000001_Node000093" class="edge">
<title>Node1&#45;&gt;Node93</title>
<g id="a_edge52_Node000001_Node000093"><a xlink:title=" ">
<path fill="none" stroke="#63b8ff" d="M752.52,-599.25C746.2,-525.83 723.17,-307.39 662,-137.58 646.67,-95.02 617.27,-49.41 604.13,-30.09"/>
<polygon fill="#63b8ff" stroke="#63b8ff" points="749.05,-599.7 753.37,-609.38 756.02,-599.12 749.05,-599.7"/>
</a>
</g>
</g>
<!-- Node3 -->
<g id="Node000003" class="node">
<title>Node3</title>
<g id="a_Node000003"><a xlink:href="classOBat.html#a739f8826fb4d37ad6ec2929a307ffe71" target="_top" xlink:title=" ">
<polygon fill="white" stroke="#666666" points="478,-1023.08 354,-1023.08 354,-1004.08 478,-1004.08 478,-1023.08"/>
<text text-anchor="middle" x="416" y="-1011.08" font-family="Helvetica,sans-Serif" font-size="10.00">OBat::func_8007D8D4</text>
</a>
</g>
</g>
<!-- Node2&#45;&gt;Node3 -->
<g id="edge2_Node000002_Node000003" class="edge">
<title>Node2&#45;&gt;Node3</title>
<g id="a_edge2_Node000002_Node000003"><a xlink:title=" ">
<path fill="none" stroke="#63b8ff" d="M525.04,-1002.08C509.59,-1003.72 493.34,-1005.45 478.28,-1007.05"/>
<polygon fill="#63b8ff" stroke="#63b8ff" points="525.49,-1005.55 535.07,-1001.01 524.75,-998.59 525.49,-1005.55"/>
</a>
</g>
</g>
<!-- Node4 -->
<g id="Node000004" class="node">
<title>Node4</title>
<g id="a_Node000004"><a xlink:href="classOBat.html#ae20ad02992d817ca3c975e94cc6f1b26" target="_top" xlink:title=" ">
<polygon fill="white" stroke="#666666" points="264.5,-1023.08 197.5,-1023.08 197.5,-1004.08 264.5,-1004.08 264.5,-1023.08"/>
<text text-anchor="middle" x="231" y="-1011.08" font-family="Helvetica,sans-Serif" font-size="10.00">OBat::Tick</text>
</a>
</g>
</g>
<!-- Node3&#45;&gt;Node4 -->
<g id="edge3_Node000003_Node000004" class="edge">
<title>Node3&#45;&gt;Node4</title>
<g id="a_edge3_Node000003_Node000004"><a xlink:title=" ">
<path fill="none" stroke="#63b8ff" d="M343.51,-1013.58C316.26,-1013.58 286.53,-1013.58 264.62,-1013.58"/>
<polygon fill="#63b8ff" stroke="#63b8ff" points="343.81,-1017.08 353.81,-1013.58 343.81,-1010.08 343.81,-1017.08"/>
</a>
</g>
</g>
<!-- Node6 -->
<g id="Node000006" class="node">
<title>Node6</title>
<g id="a_Node000006"><a xlink:href="classOChainChomp.html#a2e0ea3675cbfc3f96ef1580984c6149c" target="_top" xlink:title=" ">
<polygon fill="white" stroke="#666666" points="475,-986.08 357,-986.08 357,-967.08 475,-967.08 475,-986.08"/>
<text text-anchor="middle" x="416" y="-974.08" font-family="Helvetica,sans-Serif" font-size="10.00">OChainChomp::Draw</text>
</a>
</g>
</g>
<!-- Node5&#45;&gt;Node6 -->
<g id="edge5_Node000005_Node000006" class="edge">
<title>Node5&#45;&gt;Node6</title>
<g id="a_edge5_Node000005_Node000006"><a xlink:title=" ">
<path fill="none" stroke="#63b8ff" d="M540.03,-951.07C515.32,-956.2 486.55,-962.16 463.04,-967.03"/>
<polygon fill="#63b8ff" stroke="#63b8ff" points="540.91,-954.47 550,-949.01 539.49,-947.61 540.91,-954.47"/>
</a>
</g>
</g>
<!-- Node7 -->
<g id="Node000007" class="node">
<title>Node7</title>
<g id="a_Node000007"><a xlink:href="classOHotAirBalloon.html#a42ba04a6db43192cd2495b19da3face7" target="_top" xlink:title=" ">
<polygon fill="white" stroke="#666666" points="477.5,-949.08 354.5,-949.08 354.5,-930.08 477.5,-930.08 477.5,-949.08"/>
<text text-anchor="middle" x="416" y="-937.08" font-family="Helvetica,sans-Serif" font-size="10.00">OHotAirBalloon::Draw</text>
</a>
</g>
</g>
<!-- Node5&#45;&gt;Node7 -->
<g id="edge6_Node000005_Node000007" class="edge">
<title>Node5&#45;&gt;Node7</title>
<g id="a_edge6_Node000005_Node000007"><a xlink:title=" ">
<path fill="none" stroke="#63b8ff" d="M539.91,-939.58C520.13,-939.58 497.76,-939.58 477.58,-939.58"/>
<polygon fill="#63b8ff" stroke="#63b8ff" points="540,-943.08 550,-939.58 540,-936.08 540,-943.08"/>
</a>
</g>
</g>
<!-- Node10 -->
<g id="Node000010" class="node">
<title>Node10</title>
<g id="a_Node000010"><a xlink:href="classOBombKart.html#a6c383194d9982ac23e0ef275bf5d0046" target="_top" xlink:title=" ">
<polygon fill="white" stroke="#666666" points="468,-912.08 364,-912.08 364,-893.08 468,-893.08 468,-912.08"/>
<text text-anchor="middle" x="416" y="-900.08" font-family="Helvetica,sans-Serif" font-size="10.00">OBombKart::Draw</text>
</a>
</g>
</g>
<!-- Node9&#45;&gt;Node10 -->
<g id="edge9_Node000009_Node000010" class="edge">
<title>Node9&#45;&gt;Node10</title>
<g id="a_edge9_Node000009_Node000010"><a xlink:title=" ">
<path fill="none" stroke="#63b8ff" d="M541.13,-654.26C537.36,-656.54 533.91,-659.28 531,-662.58 464.9,-737.56 563.31,-811.6 495,-884.58 487.88,-892.19 478.23,-896.88 468.16,-899.72"/>
<polygon fill="#63b8ff" stroke="#63b8ff" points="542.93,-657.28 550.4,-649.76 539.87,-650.98 542.93,-657.28"/>
</a>
</g>
</g>
<!-- Node11 -->
<g id="Node000011" class="node">
<title>Node11</title>
<g id="a_Node000011"><a xlink:href="classOBoos.html#a0d0c2c54e84a8b7f384680c13af12673" target="_top" xlink:title=" ">
<polygon fill="white" stroke="#666666" points="456,-875.08 376,-875.08 376,-856.08 456,-856.08 456,-875.08"/>
<text text-anchor="middle" x="416" y="-863.08" font-family="Helvetica,sans-Serif" font-size="10.00">OBoos::Draw</text>
</a>
</g>
</g>
<!-- Node9&#45;&gt;Node11 -->
<g id="edge10_Node000009_Node000011" class="edge">
<title>Node9&#45;&gt;Node11</title>
<g id="a_edge10_Node000009_Node000011"><a xlink:title=" ">
<path fill="none" stroke="#63b8ff" d="M541.07,-654.46C537.34,-656.7 533.92,-659.37 531,-662.58 474.63,-724.53 553.2,-787.33 495,-847.58 484.96,-857.97 470.2,-862.89 456.22,-865.07"/>
<polygon fill="#63b8ff" stroke="#63b8ff" points="542.75,-657.54 550.22,-650.02 539.7,-651.24 542.75,-657.54"/>
</a>
</g>
</g>
<!-- Node12 -->
<g id="Node000012" class="node">
<title>Node12</title>
<g id="a_Node000012"><a xlink:href="classOFlagpole.html#a84305c9b829ca94ce316155c571f31d3" target="_top" xlink:title=" ">
<polygon fill="white" stroke="#666666" points="465,-838.08 367,-838.08 367,-819.08 465,-819.08 465,-838.08"/>
<text text-anchor="middle" x="416" y="-826.08" font-family="Helvetica,sans-Serif" font-size="10.00">OFlagpole::Draw</text>
</a>
</g>
</g>
<!-- Node9&#45;&gt;Node12 -->
<g id="edge11_Node000009_Node000012" class="edge">
<title>Node9&#45;&gt;Node12</title>
<g id="a_edge11_Node000009_Node000012"><a xlink:title=" ">
<path fill="none" stroke="#63b8ff" d="M541.23,-654.61C537.47,-656.81 533.99,-659.44 531,-662.58 484.29,-711.58 543.15,-762.99 495,-810.58 486.99,-818.49 476.24,-823.2 465.29,-825.93"/>
<polygon fill="#63b8ff" stroke="#63b8ff" points="542.92,-657.69 550.44,-650.22 539.9,-651.37 542.92,-657.69"/>
</a>
</g>
</g>
<!-- Node13 -->
<g id="Node000013" class="node">
<title>Node13</title>
<g id="a_Node000013"><a xlink:href="classOHedgehog.html#a579906b4dbd1910e542cbfc3254a931c" target="_top" xlink:title=" ">
<polygon fill="white" stroke="#666666" points="468.5,-801.08 363.5,-801.08 363.5,-782.08 468.5,-782.08 468.5,-801.08"/>
<text text-anchor="middle" x="416" y="-789.08" font-family="Helvetica,sans-Serif" font-size="10.00">OHedgehog::Draw</text>
</a>
</g>
</g>
<!-- Node9&#45;&gt;Node13 -->
<g id="edge12_Node000009_Node000013" class="edge">
<title>Node9&#45;&gt;Node13</title>
<g id="a_edge12_Node000009_Node000013"><a xlink:title=" ">
<path fill="none" stroke="#63b8ff" d="M541.31,-654.96C537.56,-657.09 534.06,-659.6 531,-662.58 493.83,-698.75 533.23,-738.53 495,-773.58 487.62,-780.34 478.23,-784.72 468.53,-787.53"/>
<polygon fill="#63b8ff" stroke="#63b8ff" points="542.87,-658.1 550.44,-650.69 539.9,-651.76 542.87,-658.1"/>
</a>
</g>
</g>
<!-- Node14 -->
<g id="Node000014" class="node">
<title>Node14</title>
<g id="a_Node000014"><a xlink:href="classOPenguin.html#a18841ea93e9a97cc09e6103a82f7f758" target="_top" xlink:title=" ">
<polygon fill="white" stroke="#666666" points="463.5,-764.08 368.5,-764.08 368.5,-745.08 463.5,-745.08 463.5,-764.08"/>
<text text-anchor="middle" x="416" y="-752.08" font-family="Helvetica,sans-Serif" font-size="10.00">OPenguin::Draw</text>
</a>
</g>
</g>
<!-- Node9&#45;&gt;Node14 -->
<g id="edge13_Node000009_Node000014" class="edge">
<title>Node9&#45;&gt;Node14</title>
<g id="a_edge13_Node000009_Node000014"><a xlink:title=" ">
<path fill="none" stroke="#63b8ff" d="M541.09,-655.8C537.48,-657.74 534.07,-659.98 531,-662.58 503.08,-686.2 523.61,-713.79 495,-736.58 486.08,-743.67 474.88,-748.07 463.76,-750.77"/>
<polygon fill="#63b8ff" stroke="#63b8ff" points="542.71,-658.91 550.37,-651.59 539.82,-652.53 542.71,-658.91"/>
</a>
</g>
</g>
<!-- Node15 -->
<g id="Node000015" class="node">
<title>Node15</title>
<g id="a_Node000015"><a xlink:href="classOSeagull.html#aa8b22830202db11f9023229cbd9d2f8c" target="_top" xlink:title=" ">
<polygon fill="white" stroke="#666666" points="462,-727.08 370,-727.08 370,-708.08 462,-708.08 462,-727.08"/>
<text text-anchor="middle" x="416" y="-715.08" font-family="Helvetica,sans-Serif" font-size="10.00">OSeagull::Draw</text>
</a>
</g>
</g>
<!-- Node9&#45;&gt;Node15 -->
<g id="edge14_Node000009_Node000015" class="edge">
<title>Node9&#45;&gt;Node15</title>
<g id="a_edge14_Node000009_Node000015"><a xlink:title=" ">
<path fill="none" stroke="#63b8ff" d="M542.44,-656.75C538.46,-658.47 534.6,-660.41 531,-662.58 511.35,-674.43 514.99,-688.32 495,-699.58 485.07,-705.17 473.5,-709.03 462.36,-711.68"/>
<polygon fill="#63b8ff" stroke="#63b8ff" points="543.81,-659.97 551.87,-653.1 541.28,-653.44 543.81,-659.97"/>
</a>
</g>
</g>
<!-- Node16 -->
<g id="Node000016" class="node">
<title>Node16</title>
<g id="a_Node000016"><a xlink:href="classOTrashBin.html#ab7caec5a5bbd835ac9250a6294166b2c" target="_top" xlink:title=" ">
<polygon fill="white" stroke="#666666" points="464.5,-690.08 367.5,-690.08 367.5,-671.08 464.5,-671.08 464.5,-690.08"/>
<text text-anchor="middle" x="416" y="-678.08" font-family="Helvetica,sans-Serif" font-size="10.00">OTrashBin::Draw</text>
</a>
</g>
</g>
<!-- Node9&#45;&gt;Node16 -->
<g id="edge15_Node000009_Node000016" class="edge">
<title>Node9&#45;&gt;Node16</title>
<g id="a_edge15_Node000009_Node000016"><a xlink:title=" ">
<path fill="none" stroke="#63b8ff" d="M540.45,-654.99C515.61,-660.14 486.61,-666.15 462.96,-671.05"/>
<polygon fill="#63b8ff" stroke="#63b8ff" points="541.38,-658.37 550.46,-652.91 539.95,-651.52 541.38,-658.37"/>
</a>
</g>
</g>
<!-- Node17 -->
<g id="Node000017" class="node">
<title>Node17</title>
<g id="a_Node000017"><a xlink:href="classOSnowman.html#abb32ca3bd6c2d1e50779e2b58b94607f" target="_top" xlink:title=" ">
<polygon fill="white" stroke="#666666" points="480,-653.08 352,-653.08 352,-634.08 480,-634.08 480,-653.08"/>
<text text-anchor="middle" x="416" y="-641.08" font-family="Helvetica,sans-Serif" font-size="10.00">OSnowman::DrawBody</text>
</a>
</g>
</g>
<!-- Node9&#45;&gt;Node17 -->
<g id="edge16_Node000009_Node000017" class="edge">
<title>Node9&#45;&gt;Node17</title>
<g id="a_edge16_Node000009_Node000017"><a xlink:title=" ">
<path fill="none" stroke="#63b8ff" d="M540.45,-643.58C521.39,-643.58 499.89,-643.58 480.23,-643.58"/>
<polygon fill="#63b8ff" stroke="#63b8ff" points="540.46,-647.08 550.46,-643.58 540.46,-640.08 540.46,-647.08"/>
</a>
</g>
</g>
<!-- Node19 -->
<g id="Node000019" class="node">
<title>Node19</title>
<g id="a_Node000019"><a xlink:href="classOSnowman.html#a6a4b52c8ea89554b32436640a1c9dd80" target="_top" xlink:title=" ">
<polygon fill="white" stroke="#666666" points="480.5,-616.08 351.5,-616.08 351.5,-597.08 480.5,-597.08 480.5,-616.08"/>
<text text-anchor="middle" x="416" y="-604.08" font-family="Helvetica,sans-Serif" font-size="10.00">OSnowman::DrawHead</text>
</a>
</g>
</g>
<!-- Node9&#45;&gt;Node19 -->
<g id="edge18_Node000009_Node000019" class="edge">
<title>Node9&#45;&gt;Node19</title>
<g id="a_edge18_Node000009_Node000019"><a xlink:title=" ">
<path fill="none" stroke="#63b8ff" d="M540.45,-632.17C515.61,-627.02 486.61,-621.01 462.96,-616.1"/>
<polygon fill="#63b8ff" stroke="#63b8ff" points="539.95,-635.64 550.46,-634.24 541.38,-628.78 539.95,-635.64"/>
</a>
</g>
</g>
<!-- Node20 -->
<g id="Node000020" class="node">
<title>Node20</title>
<g id="a_Node000020"><a xlink:href="classOCrab.html#a1342716f34378e4700baae3df702d294" target="_top" xlink:title=" ">
<polygon fill="white" stroke="#666666" points="470,-579.08 362,-579.08 362,-560.08 470,-560.08 470,-579.08"/>
<text text-anchor="middle" x="416" y="-567.08" font-family="Helvetica,sans-Serif" font-size="10.00">OCrab::DrawModel</text>
</a>
</g>
</g>
<!-- Node9&#45;&gt;Node20 -->
<g id="edge20_Node000009_Node000020" class="edge">
<title>Node9&#45;&gt;Node20</title>
<g id="a_edge20_Node000009_Node000020"><a xlink:title=" ">
<path fill="none" stroke="#63b8ff" d="M540.6,-630.48C537.27,-629.01 534.04,-627.38 531,-625.58 511.27,-613.87 514.92,-599.96 495,-588.58 487.38,-584.22 478.78,-580.86 470.15,-578.26"/>
<polygon fill="#63b8ff" stroke="#63b8ff" points="539.59,-633.85 550.18,-634.22 542.14,-627.32 539.59,-633.85"/>
</a>
</g>
</g>
<!-- Node21 -->
<g id="Node000021" class="node">
<title>Node21</title>
<g id="a_Node000021"><a xlink:href="classOMole.html#abde7681bfbee83db4e8105925052979f" target="_top" xlink:title=" ">
<polygon fill="white" stroke="#666666" points="481,-542.08 351,-542.08 351,-523.08 481,-523.08 481,-542.08"/>
<text text-anchor="middle" x="416" y="-530.08" font-family="Helvetica,sans-Serif" font-size="10.00">OMole::func_80054D00</text>
</a>
</g>
</g>
<!-- Node9&#45;&gt;Node21 -->
<g id="edge21_Node000009_Node000021" class="edge">
<title>Node9&#45;&gt;Node21</title>
<g id="a_edge21_Node000009_Node000021"><a xlink:title=" ">
<path fill="none" stroke="#63b8ff" d="M541.1,-632.23C537.49,-630.34 534.08,-628.14 531,-625.58 502.91,-602.15 523.47,-574.53 495,-551.58 490.23,-547.73 484.79,-544.64 479.06,-542.17"/>
<polygon fill="#63b8ff" stroke="#63b8ff" points="539.82,-635.49 550.39,-636.31 542.64,-629.08 539.82,-635.49"/>
</a>
</g>
</g>
<!-- Node23 -->
<g id="Node000023" class="node">
<title>Node23</title>
<g id="a_Node000023"><a xlink:href="classOMole.html#a6b5ff0d1703fdc1785d17b4119bb6d1f" target="_top" xlink:title=" ">
<polygon fill="white" stroke="#666666" points="480,-505.08 352,-505.08 352,-486.08 480,-486.08 480,-505.08"/>
<text text-anchor="middle" x="416" y="-493.08" font-family="Helvetica,sans-Serif" font-size="10.00">OMole::func_80054F04</text>
</a>
</g>
</g>
<!-- Node9&#45;&gt;Node23 -->
<g id="edge23_Node000009_Node000023" class="edge">
<title>Node9&#45;&gt;Node23</title>
<g id="a_edge23_Node000009_Node000023"><a xlink:title=" ">
<path fill="none" stroke="#63b8ff" d="M541.33,-633.06C537.57,-630.99 534.07,-628.52 531,-625.58 493.57,-589.67 533.02,-549.85 495,-514.58 490.61,-510.5 485.49,-507.26 480.01,-504.68"/>
<polygon fill="#63b8ff" stroke="#63b8ff" points="539.92,-636.26 550.47,-637.2 542.81,-629.89 539.92,-636.26"/>
</a>
</g>
</g>
<!-- Node24 -->
<g id="Node000024" class="node">
<title>Node24</title>
<g id="a_Node000024"><a xlink:href="render__objects_8c.html#a63f55555b66cd9833838c290facd483c" target="_top" xlink:title=" ">
<polygon fill="white" stroke="#666666" points="471,-468.08 361,-468.08 361,-449.08 471,-449.08 471,-468.08"/>
<text text-anchor="middle" x="416" y="-456.08" font-family="Helvetica,sans-Serif" font-size="10.00">render_bomb_karts</text>
</a>
</g>
</g>
<!-- Node9&#45;&gt;Node24 -->
<g id="edge25_Node000009_Node000024" class="edge">
<title>Node9&#45;&gt;Node24</title>
<g id="a_edge25_Node000009_Node000024"><a xlink:title=" ">
<path fill="none" stroke="#63b8ff" d="M541.26,-633.41C537.49,-631.26 534,-628.68 531,-625.58 483.94,-576.91 542.86,-525.45 495,-477.58 488.5,-471.07 480.16,-466.66 471.37,-463.69"/>
<polygon fill="#63b8ff" stroke="#63b8ff" points="539.92,-636.64 550.47,-637.66 542.86,-630.29 539.92,-636.64"/>
</a>
</g>
</g>
<!-- Node26 -->
<g id="Node000026" class="node">
<title>Node26</title>
<g id="a_Node000026"><a xlink:href="render__objects_8c.html#ad0bacc3fd3bd0e7c394fa2653c9034f3" target="_top" xlink:title=" ">
<polygon fill="white" stroke="#666666" points="476.5,-430.58 355.5,-430.58 355.5,-400.58 476.5,-400.58 476.5,-430.58"/>
<text text-anchor="start" x="363.5" y="-418.58" font-family="Helvetica,sans-Serif" font-size="10.00">render_object_smoke</text>
<text text-anchor="middle" x="416" y="-407.58" font-family="Helvetica,sans-Serif" font-size="10.00">_particles</text>
</a>
</g>
</g>
<!-- Node9&#45;&gt;Node26 -->
<g id="edge27_Node000009_Node000026" class="edge">
<title>Node9&#45;&gt;Node26</title>
<g id="a_edge27_Node000009_Node000026"><a xlink:title=" ">
<path fill="none" stroke="#63b8ff" d="M541.1,-633.56C537.36,-631.38 533.93,-628.75 531,-625.58 474.18,-564.03 550.64,-503.2 495,-440.58 489.9,-434.84 483.48,-430.4 476.53,-426.99"/>
<polygon fill="#63b8ff" stroke="#63b8ff" points="539.71,-636.77 550.25,-637.87 542.69,-630.44 539.71,-636.77"/>
</a>
</g>
</g>
<!-- Node18 -->
<g id="Node000018" class="node">
<title>Node18</title>
<g id="a_Node000018"><a xlink:href="classOSnowman.html#a43b2b34a94dbde2f174d971bfa763ac0" target="_top" xlink:title=" ">
<polygon fill="white" stroke="#666666" points="283,-634.08 179,-634.08 179,-615.08 283,-615.08 283,-634.08"/>
<text text-anchor="middle" x="231" y="-622.08" font-family="Helvetica,sans-Serif" font-size="10.00">OSnowman::Draw</text>
</a>
</g>
</g>
<!-- Node17&#45;&gt;Node18 -->
<g id="edge17_Node000017_Node000018" class="edge">
<title>Node17&#45;&gt;Node18</title>
<g id="a_edge17_Node000017_Node000018"><a xlink:title=" ">
<path fill="none" stroke="#63b8ff" d="M341.64,-635.96C322.03,-633.92 301.26,-631.77 283.13,-629.89"/>
<polygon fill="#63b8ff" stroke="#63b8ff" points="341.46,-639.46 351.77,-637.01 342.18,-632.5 341.46,-639.46"/>
</a>
</g>
</g>
<!-- Node19&#45;&gt;Node18 -->
<g id="edge19_Node000019_Node000018" class="edge">
<title>Node19&#45;&gt;Node18</title>
<g id="a_edge19_Node000019_Node000018"><a xlink:title=" ">
<path fill="none" stroke="#63b8ff" d="M341.19,-613.84C321.72,-615.75 301.13,-617.78 283.15,-619.55"/>
<polygon fill="#63b8ff" stroke="#63b8ff" points="341.64,-617.31 351.25,-612.85 340.96,-610.34 341.64,-617.31"/>
</a>
</g>
</g>
<!-- Node22 -->
<g id="Node000022" class="node">
<title>Node22</title>
<g id="a_Node000022"><a xlink:href="classOMole.html#abe4c454a9553584219f4505b2e338f27" target="_top" xlink:title=" ">
<polygon fill="white" stroke="#666666" points="271,-524.08 191,-524.08 191,-505.08 271,-505.08 271,-524.08"/>
<text text-anchor="middle" x="231" y="-512.08" font-family="Helvetica,sans-Serif" font-size="10.00">OMole::Draw</text>
</a>
</g>
</g>
<!-- Node21&#45;&gt;Node22 -->
<g id="edge22_Node000021_Node000022" class="edge">
<title>Node21&#45;&gt;Node22</title>
<g id="a_edge22_Node000021_Node000022"><a xlink:title=" ">
<path fill="none" stroke="#63b8ff" d="M340.88,-525.29C317.01,-522.94 291.49,-520.43 271.17,-518.43"/>
<polygon fill="#63b8ff" stroke="#63b8ff" points="340.7,-528.78 351,-526.28 341.39,-521.82 340.7,-528.78"/>
</a>
</g>
</g>
<!-- Node23&#45;&gt;Node22 -->
<g id="edge24_Node000023_Node000022" class="edge">
<title>Node23&#45;&gt;Node22</title>
<g id="a_edge24_Node000023_Node000022"><a xlink:title=" ">
<path fill="none" stroke="#63b8ff" d="M341.58,-503.2C317.53,-505.7 291.74,-508.37 271.23,-510.5"/>
<polygon fill="#63b8ff" stroke="#63b8ff" points="342.18,-506.66 351.77,-502.14 341.46,-499.69 342.18,-506.66"/>
</a>
</g>
</g>
<!-- Node25 -->
<g id="Node000025" class="node">
<title>Node25</title>
<g id="a_Node000025"><a xlink:href="code__80005FD0_8c.html#a20d054883ba7ddebb1b79918d9ac5c86" target="_top" xlink:title=" ">
<polygon fill="white" stroke="#666666" points="301,-468.08 161,-468.08 161,-449.08 301,-449.08 301,-468.08"/>
<text text-anchor="middle" x="231" y="-456.08" font-family="Helvetica,sans-Serif" font-size="10.00">render_bomb_karts_wrap</text>
</a>
</g>
</g>
<!-- Node24&#45;&gt;Node25 -->
<g id="edge26_Node000024_Node000025" class="edge">
<title>Node24&#45;&gt;Node25</title>
<g id="a_edge26_Node000024_Node000025"><a xlink:title=" ">
<path fill="none" stroke="#63b8ff" d="M350.32,-458.58C334.4,-458.58 317.29,-458.58 301.16,-458.58"/>
<polygon fill="#63b8ff" stroke="#63b8ff" points="350.59,-462.08 360.59,-458.58 350.59,-455.08 350.59,-462.08"/>
</a>
</g>
</g>
<!-- Node27 -->
<g id="Node000027" class="node">
<title>Node27</title>
<g id="a_Node000027"><a xlink:href="code__80057C60_8c.html#aa04f94d84853c32f977f9032cc021f39" target="_top" xlink:title=" ">
<polygon fill="white" stroke="#666666" points="300,-425.08 162,-425.08 162,-406.08 300,-406.08 300,-425.08"/>
<text text-anchor="middle" x="231" y="-413.08" font-family="Helvetica,sans-Serif" font-size="10.00">render_object_for_player</text>
</a>
</g>
</g>
<!-- Node26&#45;&gt;Node27 -->
<g id="edge28_Node000026_Node000027" class="edge">
<title>Node26&#45;&gt;Node27</title>
<g id="a_edge28_Node000026_Node000027"><a xlink:title=" ">
<path fill="none" stroke="#63b8ff" d="M345.25,-415.58C330.47,-415.58 314.88,-415.58 300.16,-415.58"/>
<polygon fill="#63b8ff" stroke="#63b8ff" points="345.33,-419.08 355.33,-415.58 345.33,-412.08 345.33,-419.08"/>
</a>
</g>
</g>
<!-- Node28 -->
<g id="Node000028" class="node">
<title>Node28</title>
<g id="a_Node000028"><a xlink:href="code__80057C60_8c.html#a24c4b963d9eadcbe6354b8409d6c59c3" target="_top" xlink:title=" ">
<polygon fill="#fff0f0" stroke="red" points="113,-497.08 12,-497.08 12,-478.08 113,-478.08 113,-497.08"/>
<text text-anchor="middle" x="62.5" y="-485.08" font-family="Helvetica,sans-Serif" font-size="10.00">render_object_p1</text>
</a>
</g>
</g>
<!-- Node27&#45;&gt;Node28 -->
<g id="edge29_Node000027_Node000028" class="edge">
<title>Node27&#45;&gt;Node28</title>
<g id="a_edge29_Node000027_Node000028"><a xlink:title=" ">
<path fill="none" stroke="#63b8ff" d="M187.22,-428.58C178.31,-431.97 169.15,-435.98 161,-440.58 143.1,-450.66 143.21,-460.06 125,-469.58 118.59,-472.92 111.47,-475.73 104.42,-478.06"/>
<polygon fill="#63b8ff" stroke="#63b8ff" points="188.51,-431.83 196.73,-425.15 186.13,-425.25 188.51,-431.83"/>
</a>
</g>
</g>
<!-- Node70 -->
<g id="Node000070" class="node">
<title>Node70</title>
<g id="a_Node000070"><a xlink:href="code__80057C60_8c.html#aa2c5a68a7b0d5ec055b9a8468e038e69" target="_top" xlink:title=" ">
<polygon fill="#fff0f0" stroke="red" points="113,-460.08 12,-460.08 12,-441.08 113,-441.08 113,-460.08"/>
<text text-anchor="middle" x="62.5" y="-448.08" font-family="Helvetica,sans-Serif" font-size="10.00">render_object_p2</text>
</a>
</g>
</g>
<!-- Node27&#45;&gt;Node70 -->
<g id="edge30_Node000027_Node000070" class="edge">
<title>Node27&#45;&gt;Node70</title>
<g id="a_edge30_Node000027_Node000070"><a xlink:title=" ">
<path fill="none" stroke="#63b8ff" d="M174.61,-427.22C153.29,-431.7 129.22,-436.76 108.94,-441.02"/>
<polygon fill="#63b8ff" stroke="#63b8ff" points="175.44,-430.62 184.5,-425.14 174,-423.77 175.44,-430.62"/>
</a>
</g>
</g>
<!-- Node71 -->
<g id="Node000071" class="node">
<title>Node71</title>
<g id="a_Node000071"><a xlink:href="code__80057C60_8c.html#a001e69d549bd3f90a1e8732543a2fe4b" target="_top" xlink:title=" ">
<polygon fill="#fff0f0" stroke="red" points="113,-423.08 12,-423.08 12,-404.08 113,-404.08 113,-423.08"/>
<text text-anchor="middle" x="62.5" y="-411.08" font-family="Helvetica,sans-Serif" font-size="10.00">render_object_p3</text>
</a>
</g>
</g>
<!-- Node27&#45;&gt;Node71 -->
<g id="edge31_Node000027_Node000071" class="edge">
<title>Node27&#45;&gt;Node71</title>
<g id="a_edge31_Node000027_Node000071"><a xlink:title=" ">
<path fill="none" stroke="#63b8ff" d="M151.43,-414.63C138.43,-414.48 125.28,-414.32 113.25,-414.17"/>
<polygon fill="#63b8ff" stroke="#63b8ff" points="151.76,-418.14 161.8,-414.76 151.84,-411.14 151.76,-418.14"/>
</a>
</g>
</g>
<!-- Node72 -->
<g id="Node000072" class="node">
<title>Node72</title>
<g id="a_Node000072"><a xlink:href="code__80057C60_8c.html#a56807fc6c7f4762a28959f761faaf7c8" target="_top" xlink:title=" ">
<polygon fill="#fff0f0" stroke="red" points="113,-386.08 12,-386.08 12,-367.08 113,-367.08 113,-386.08"/>
<text text-anchor="middle" x="62.5" y="-374.08" font-family="Helvetica,sans-Serif" font-size="10.00">render_object_p4</text>
</a>
</g>
</g>
<!-- Node27&#45;&gt;Node72 -->
<g id="edge32_Node000027_Node000072" class="edge">
<title>Node27&#45;&gt;Node72</title>
<g id="a_edge32_Node000027_Node000072"><a xlink:title=" ">
<path fill="none" stroke="#63b8ff" d="M179.24,-403.69C155.14,-398.04 126.74,-391.39 104.1,-386.09"/>
<polygon fill="#63b8ff" stroke="#63b8ff" points="178.73,-407.16 189.27,-406.04 180.33,-400.35 178.73,-407.16"/>
</a>
</g>
</g>
<!-- Node75 -->
<g id="Node000075" class="node">
<title>Node75</title>
<g id="a_Node000075"><a xlink:href="update__objects_8c.html#a401992e1c9638d1a48190456bd7af9a3" target="_top" xlink:title=" ">
<polygon fill="white" stroke="#666666" points="462,-382.08 370,-382.08 370,-363.08 462,-363.08 462,-382.08"/>
<text text-anchor="middle" x="416" y="-370.08" font-family="Helvetica,sans-Serif" font-size="10.00">func_8007601C</text>
</a>
</g>
</g>
<!-- Node74&#45;&gt;Node75 -->
<g id="edge35_Node000074_Node000075" class="edge">
<title>Node74&#45;&gt;Node75</title>
<g id="a_edge35_Node000074_Node000075"><a xlink:title=" ">
<path fill="none" stroke="#63b8ff" d="M583.25,-259.57C566.17,-283.32 532.99,-324.88 495,-348.58 485.02,-354.8 473.31,-359.51 462.05,-363.03"/>
<polygon fill="#63b8ff" stroke="#63b8ff" points="586.29,-261.33 589.17,-251.14 580.56,-257.31 586.29,-261.33"/>
</a>
</g>
</g>
<!-- Node79 -->
<g id="Node000079" class="node">
<title>Node79</title>
<g id="a_Node000079"><a xlink:href="update__objects_8c.html#a269298ce38d852af33c677ae12781528" target="_top" xlink:title=" ">
<polygon fill="white" stroke="#666666" points="277,-344.08 185,-344.08 185,-325.08 277,-325.08 277,-344.08"/>
<text text-anchor="middle" x="231" y="-332.08" font-family="Helvetica,sans-Serif" font-size="10.00">func_8007661C</text>
</a>
</g>
</g>
<!-- Node74&#45;&gt;Node79 -->
<g id="edge38_Node000074_Node000079" class="edge">
<title>Node74&#45;&gt;Node79</title>
<g id="a_edge38_Node000074_Node000079"><a xlink:title=" ">
<path fill="none" stroke="#63b8ff" d="M579.02,-258.41C560.45,-276.16 528.47,-303.23 495,-315.58 422.42,-342.35 331.05,-342.06 277.33,-338.76"/>
<polygon fill="#63b8ff" stroke="#63b8ff" points="581.66,-260.72 586.35,-251.22 576.76,-255.73 581.66,-260.72"/>
</a>
</g>
</g>
<!-- Node80 -->
<g id="Node000080" class="node">
<title>Node80</title>
<g id="a_Node000080"><a xlink:href="update__objects_8c.html#aee48f5ac3342922cbf8cd98976679dad" target="_top" xlink:title=" ">
<polygon fill="white" stroke="#666666" points="463.5,-306.08 368.5,-306.08 368.5,-287.08 463.5,-287.08 463.5,-306.08"/>
<text text-anchor="middle" x="416" y="-294.08" font-family="Helvetica,sans-Serif" font-size="10.00">func_8007DDC0</text>
</a>
</g>
</g>
<!-- Node74&#45;&gt;Node80 -->
<g id="edge40_Node000074_Node000080" class="edge">
<title>Node74&#45;&gt;Node80</title>
<g id="a_edge40_Node000074_Node000080"><a xlink:title=" ">
<path fill="none" stroke="#63b8ff" d="M562.89,-254.77C543.39,-262.36 518.02,-271.71 495,-278.58 484.61,-281.67 473.31,-284.55 462.62,-287.06"/>
<polygon fill="#63b8ff" stroke="#63b8ff" points="564.2,-258.01 572.23,-251.09 561.64,-251.5 564.2,-258.01"/>
</a>
</g>
</g>
<!-- Node82 -->
<g id="Node000082" class="node">
<title>Node82</title>
<g id="a_Node000082"><a xlink:href="update__objects_8c.html#a6c7938339fa5406ffe336278a92aa7ad" target="_top" xlink:title=" ">
<polygon fill="white" stroke="#666666" points="461.5,-269.08 370.5,-269.08 370.5,-250.08 461.5,-250.08 461.5,-269.08"/>
<text text-anchor="middle" x="416" y="-257.08" font-family="Helvetica,sans-Serif" font-size="10.00">func_8007E1F4</text>
</a>
</g>
</g>
<!-- Node74&#45;&gt;Node82 -->
<g id="edge42_Node000074_Node000082" class="edge">
<title>Node74&#45;&gt;Node82</title>
<g id="a_edge42_Node000074_Node000082"><a xlink:title=" ">
<path fill="none" stroke="#63b8ff" d="M539,-247.27C514.03,-249.79 485.09,-252.71 461.66,-255.07"/>
<polygon fill="#63b8ff" stroke="#63b8ff" points="539.47,-250.74 549.07,-246.26 538.77,-243.78 539.47,-250.74"/>
</a>
</g>
</g>
<!-- Node85 -->
<g id="Node000085" class="node">
<title>Node85</title>
<g id="a_Node000085"><a xlink:href="code__80086E70_8c.html#aab0272fc43a4e70907c2fc3557f76b7f" target="_top" xlink:title=" ">
<polygon fill="white" stroke="#666666" points="462,-232.08 370,-232.08 370,-213.08 462,-213.08 462,-232.08"/>
<text text-anchor="middle" x="416" y="-220.08" font-family="Helvetica,sans-Serif" font-size="10.00">func_8008A810</text>
</a>
</g>
</g>
<!-- Node74&#45;&gt;Node85 -->
<g id="edge44_Node000074_Node000085" class="edge">
<title>Node74&#45;&gt;Node85</title>
<g id="a_edge44_Node000074_Node000085"><a xlink:title=" ">
<path fill="none" stroke="#63b8ff" d="M539.08,-235.57C514.31,-232.93 485.62,-229.88 462.27,-227.4"/>
<polygon fill="#63b8ff" stroke="#63b8ff" points="538.75,-239.06 549.07,-236.63 539.49,-232.09 538.75,-239.06"/>
</a>
</g>
</g>
<!-- Node86 -->
<g id="Node000086" class="node">
<title>Node86</title>
<g id="a_Node000086"><a xlink:href="code__80086E70_8c.html#a01e77bc113d373338f90c2164153f6e1" target="_top" xlink:title=" ">
<polygon fill="white" stroke="#666666" points="462,-195.08 370,-195.08 370,-176.08 462,-176.08 462,-195.08"/>
<text text-anchor="middle" x="416" y="-183.08" font-family="Helvetica,sans-Serif" font-size="10.00">func_8008A830</text>
</a>
</g>
</g>
<!-- Node74&#45;&gt;Node86 -->
<g id="edge45_Node000074_Node000086" class="edge">
<title>Node74&#45;&gt;Node86</title>
<g id="a_edge45_Node000074_Node000086"><a xlink:title=" ">
<path fill="none" stroke="#63b8ff" d="M562.47,-228.34C543.02,-220.81 517.82,-211.53 495,-204.58 483.8,-201.16 471.55,-197.94 460.15,-195.16"/>
<polygon fill="#63b8ff" stroke="#63b8ff" points="561.21,-231.6 571.8,-231.98 563.76,-225.08 561.21,-231.6"/>
</a>
</g>
</g>
<!-- Node87 -->
<g id="Node000087" class="node">
<title>Node87</title>
<g id="a_Node000087"><a xlink:href="code__80086E70_8c.html#a0f08d81fe46d0ed4cfd6b6585ced84af" target="_top" xlink:title=" ">
<polygon fill="white" stroke="#666666" points="462,-158.08 370,-158.08 370,-139.08 462,-139.08 462,-158.08"/>
<text text-anchor="middle" x="416" y="-146.08" font-family="Helvetica,sans-Serif" font-size="10.00">func_8008A850</text>
</a>
</g>
</g>
<!-- Node74&#45;&gt;Node87 -->
<g id="edge46_Node000074_Node000087" class="edge">
<title>Node74&#45;&gt;Node87</title>
<g id="a_edge46_Node000074_Node000087"><a xlink:title=" ">
<path fill="none" stroke="#63b8ff" d="M577.67,-224.99C558.61,-208.12 526.81,-182.43 495,-167.58 484.77,-162.8 473.21,-159.14 462.17,-156.38"/>
<polygon fill="#63b8ff" stroke="#63b8ff" points="575.49,-227.73 585.26,-231.83 580.18,-222.53 575.49,-227.73"/>
</a>
</g>
</g>
<!-- Node88 -->
<g id="Node000088" class="node">
<title>Node88</title>
<g id="a_Node000088"><a xlink:href="classOThwomp.html#a6643071e696664c5b62e2a2cf91afe92" target="_top" xlink:title=" ">
<polygon fill="white" stroke="#666666" points="490.5,-121.08 341.5,-121.08 341.5,-102.08 490.5,-102.08 490.5,-121.08"/>
<text text-anchor="middle" x="416" y="-109.08" font-family="Helvetica,sans-Serif" font-size="10.00">OThwomp::JailedBehaviour</text>
</a>
</g>
</g>
<!-- Node74&#45;&gt;Node88 -->
<g id="edge47_Node000074_Node000088" class="edge">
<title>Node74&#45;&gt;Node88</title>
<g id="a_edge47_Node000074_Node000088"><a xlink:title=" ">
<path fill="none" stroke="#63b8ff" d="M578.53,-224.71C565.29,-211.37 546.59,-192.14 531,-174.58 514.22,-155.68 516.38,-144.04 495,-130.58 488.87,-126.71 482.01,-123.64 474.97,-121.19"/>
<polygon fill="#63b8ff" stroke="#63b8ff" points="576.09,-227.22 585.63,-231.82 581.04,-222.27 576.09,-227.22"/>
</a>
</g>
</g>
<!-- Node90 -->
<g id="Node000090" class="node">
<title>Node90</title>
<g id="a_Node000090"><a xlink:href="classOCrab.html#a9f2f4a38699923caf4f924768a3c944b" target="_top" xlink:title=" ">
<polygon fill="white" stroke="#666666" points="452.5,-84.08 379.5,-84.08 379.5,-65.08 452.5,-65.08 452.5,-84.08"/>
<text text-anchor="middle" x="416" y="-72.08" font-family="Helvetica,sans-Serif" font-size="10.00">OCrab::Tick</text>
</a>
</g>
</g>
<!-- Node74&#45;&gt;Node90 -->
<g id="edge49_Node000074_Node000090" class="edge">
<title>Node74&#45;&gt;Node90</title>
<g id="a_edge49_Node000074_Node000090"><a xlink:title=" ">
<path fill="none" stroke="#63b8ff" d="M576.17,-224.9C562.27,-212.16 543.81,-193.61 531,-174.58 509.01,-141.89 525.24,-118.83 495,-93.58 483.23,-83.75 467.18,-78.86 452.69,-76.48"/>
<polygon fill="#63b8ff" stroke="#63b8ff" points="573.96,-227.62 583.74,-231.68 578.63,-222.4 573.96,-227.62"/>
</a>
</g>
</g>
<!-- Node76 -->
<g id="Node000076" class="node">
<title>Node76</title>
<g id="a_Node000076"><a xlink:href="update__objects_8c.html#ab0947a9025b7f18d2af9cb88f2742c8c" target="_top" xlink:title=" ">
<polygon fill="white" stroke="#666666" points="277,-382.08 185,-382.08 185,-363.08 277,-363.08 277,-382.08"/>
<text text-anchor="middle" x="231" y="-370.08" font-family="Helvetica,sans-Serif" font-size="10.00">func_8007614C</text>
</a>
</g>
</g>
<!-- Node75&#45;&gt;Node76 -->
<g id="edge36_Node000075_Node000076" class="edge">
<title>Node75&#45;&gt;Node76</title>
<g id="a_edge36_Node000075_Node000076"><a xlink:title=" ">
<path fill="none" stroke="#63b8ff" d="M359.53,-372.58C333.12,-372.58 301.95,-372.58 277.03,-372.58"/>
<polygon fill="#63b8ff" stroke="#63b8ff" points="359.76,-376.08 369.76,-372.58 359.76,-369.08 359.76,-376.08"/>
</a>
</g>
</g>
<!-- Node77 -->
<g id="Node000077" class="node">
<title>Node77</title>
<g id="a_Node000077"><a xlink:href="update__objects_8c.html#adb84f91341a8ce4d15d3242630d3e5e2" target="_top" xlink:title=" ">
<polygon fill="#fff0f0" stroke="red" points="125,-347.08 0,-347.08 0,-328.08 125,-328.08 125,-347.08"/>
<text text-anchor="middle" x="62.5" y="-335.08" font-family="Helvetica,sans-Serif" font-size="10.00">update_flame_particle</text>
</a>
</g>
</g>
<!-- Node76&#45;&gt;Node77 -->
<g id="edge37_Node000076_Node000077" class="edge">
<title>Node76&#45;&gt;Node77</title>
<g id="a_edge37_Node000076_Node000077"><a xlink:title=" ">
<path fill="none" stroke="#63b8ff" d="M175,-361.01C153.56,-356.51 129.29,-351.41 108.88,-347.12"/>
<polygon fill="#63b8ff" stroke="#63b8ff" points="174.44,-364.47 184.94,-363.1 175.88,-357.62 174.44,-364.47"/>
</a>
</g>
</g>
<!-- Node79&#45;&gt;Node77 -->
<g id="edge39_Node000079_Node000077" class="edge">
<title>Node79&#45;&gt;Node77</title>
<g id="a_edge39_Node000079_Node000077"><a xlink:title=" ">
<path fill="none" stroke="#63b8ff" d="M174.75,-335.57C158.85,-335.86 141.42,-336.17 125.16,-336.47"/>
<polygon fill="#63b8ff" stroke="#63b8ff" points="175.01,-339.07 184.94,-335.39 174.88,-332.07 175.01,-339.07"/>
</a>
</g>
</g>
<!-- Node81 -->
<g id="Node000081" class="node">
<title>Node81</title>
<g id="a_Node000081"><a xlink:href="classOTrashBin.html#af6d73933526741c82beebbed24515259" target="_top" xlink:title=" ">
<polygon fill="white" stroke="#666666" points="277,-306.08 185,-306.08 185,-287.08 277,-287.08 277,-306.08"/>
<text text-anchor="middle" x="231" y="-294.08" font-family="Helvetica,sans-Serif" font-size="10.00">OTrashBin::Tick</text>
</a>
</g>
</g>
<!-- Node80&#45;&gt;Node81 -->
<g id="edge41_Node000080_Node000081" class="edge">
<title>Node80&#45;&gt;Node81</title>
<g id="a_edge41_Node000080_Node000081"><a xlink:title=" ">
<path fill="none" stroke="#63b8ff" d="M358.24,-296.58C332.21,-296.58 301.77,-296.58 277.3,-296.58"/>
<polygon fill="#63b8ff" stroke="#63b8ff" points="358.35,-300.08 368.35,-296.58 358.35,-293.08 358.35,-300.08"/>
</a>
</g>
</g>
<!-- Node83 -->
<g id="Node000083" class="node">
<title>Node83</title>
<g id="a_Node000083"><a xlink:href="update__objects_8c.html#ac8b268e6a216ed165f6d9ba102367fd7" target="_top" xlink:title=" ">
<polygon fill="#fff0f0" stroke="red" points="277,-269.08 185,-269.08 185,-250.08 277,-250.08 277,-269.08"/>
<text text-anchor="middle" x="231" y="-257.08" font-family="Helvetica,sans-Serif" font-size="10.00">func_8007E4C4</text>
</a>
</g>
</g>
<!-- Node82&#45;&gt;Node83 -->
<g id="edge43_Node000082_Node000083" class="edge">
<title>Node82&#45;&gt;Node83</title>
<g id="a_edge43_Node000082_Node000083"><a xlink:title=" ">
<path fill="none" stroke="#63b8ff" d="M359.99,-259.58C333.56,-259.58 302.28,-259.58 277.26,-259.58"/>
<polygon fill="#63b8ff" stroke="#63b8ff" points="360.23,-263.08 370.23,-259.58 360.23,-256.08 360.23,-263.08"/>
</a>
</g>
</g>
<!-- Node89 -->
<g id="Node000089" class="node">
<title>Node89</title>
<g id="a_Node000089"><a xlink:href="classOThwomp.html#ade9abcb1581897ba5376f12e1c7ed1ca" target="_top" xlink:title=" ">
<polygon fill="white" stroke="#666666" points="290.5,-60.08 171.5,-60.08 171.5,-41.08 290.5,-41.08 290.5,-60.08"/>
<text text-anchor="middle" x="231" y="-48.08" font-family="Helvetica,sans-Serif" font-size="10.00">OThwomp::Tick60fps</text>
</a>
</g>
</g>
<!-- Node88&#45;&gt;Node89 -->
<g id="edge48_Node000088_Node000089" class="edge">
<title>Node88&#45;&gt;Node89</title>
<g id="a_edge48_Node000088_Node000089"><a xlink:title=" ">
<path fill="none" stroke="#63b8ff" d="M358.28,-99.63C351.07,-97.77 343.83,-95.75 337,-93.58 306.96,-84.03 273.46,-69.62 252.55,-60.15"/>
<polygon fill="#63b8ff" stroke="#63b8ff" points="357.51,-103.04 368.06,-102.04 359.19,-96.24 357.51,-103.04"/>
</a>
</g>
</g>
<!-- Node92 -->
<g id="Node000092" class="node">
<title>Node92</title>
<g id="a_Node000092"><a xlink:href="classRainbowRoad.html#a5fc44ee8b3a8845f845a74c72fd57a9d" target="_top" xlink:title=" ">
<polygon fill="white" stroke="#666666" points="495,-46.58 337,-46.58 337,-16.58 495,-16.58 495,-46.58"/>
<text text-anchor="start" x="345" y="-34.58" font-family="Helvetica,sans-Serif" font-size="10.00">RainbowRoad::RenderCourse</text>
<text text-anchor="middle" x="416" y="-23.58" font-family="Helvetica,sans-Serif" font-size="10.00">Objects</text>
</a>
</g>
</g>
<!-- Node91&#45;&gt;Node92 -->
<g id="edge51_Node000091_Node000092" class="edge">
<title>Node91&#45;&gt;Node92</title>
<g id="a_edge51_Node000091_Node000092"><a xlink:title=" ">
<path fill="none" stroke="#63b8ff" d="M582.1,-138.03C564.42,-116.02 531.26,-78.51 495,-56.58 488.67,-52.75 481.7,-49.44 474.6,-46.61"/>
<polygon fill="#63b8ff" stroke="#63b8ff" points="579.36,-140.21 588.29,-145.91 584.86,-135.88 579.36,-140.21"/>
</a>
</g>
</g>
<!-- Node93&#45;&gt;Node89 -->
<g id="edge53_Node000093_Node000089" class="edge">
<title>Node93&#45;&gt;Node89</title>
<g id="a_edge53_Node000093_Node000089"><a xlink:title=" ">
<path fill="none" stroke="#63b8ff" d="M536.2,-9.48C483.42,-1.52 404.37,5.69 337,-7.58 304.72,-13.93 269.87,-30.29 249.54,-40.9"/>
<polygon fill="#63b8ff" stroke="#63b8ff" points="535.97,-12.99 546.39,-11.08 537.06,-6.07 535.97,-12.99"/>
</a>
</g>
</g>
</g>
</svg>
