<?xml version="1.0" encoding="UTF-8" standalone="no"?>
<!DOCTYPE svg PUBLIC "-//W3C//DTD SVG 1.1//EN"
 "http://www.w3.org/Graphics/SVG/1.1/DTD/svg11.dtd">
<!-- Generated by graphviz version 2.43.0 (0)
 -->
<!-- Title: render_player_snow_effect Pages: 1 -->
<!--zoomable 323 -->

<svg id="main" version="1.1" xmlns="http://www.w3.org/2000/svg" xmlns:xlink="http://www.w3.org/1999/xlink" xml:space="preserve" onload="init(evt)">

<style type="text/css"><![CDATA[
.node, .edge {opacity: 0.7;}
.node.selected, .edge.selected {opacity: 1;}
.edge:hover path { stroke: red; }
.edge:hover polygon { stroke: red; fill: red; }
]]></style>

<defs>
  <circle id="rim" cx="0" cy="0" r="7"/>
  <circle id="rim2" cx="0" cy="0" r="3.5"/>
  <g id="zoomPlus">
    <use xlink:href="#rim" fill="#404040"><set attributeName="fill" to="#808080" begin="zoomplus.mouseover" end="zoomplus.mouseout"/></use>
    <path d="M-4,0h8M0,-4v8" fill="none" stroke="white" stroke-width="1.5" pointer-events="none"/>
  </g>
  <g id="zoomMin">
    <use xlink:href="#rim" fill="#404040"><set attributeName="fill" to="#808080" begin="zoomminus.mouseover" end="zoomminus.mouseout"/></use>
    <path d="M-4,0h8" fill="none" stroke="white" stroke-width="1.5" pointer-events="none"/>
  </g>
  <g id="arrowUp" transform="translate(30 24)">
    <use xlink:href="#rim"/>
    <path pointer-events="none" fill="none" stroke="white" stroke-width="1.5" d="M0,-3.0v7 M-2.5,-0.5L0,-3.0L2.5,-0.5"/>
  </g>
  <g id="arrowRight" transform="rotate(90) translate(36 -43)">
    <use xlink:href="#rim"/>
    <path pointer-events="none" fill="none" stroke="white" stroke-width="1.5" d="M0,-3.0v7 M-2.5,-0.5L0,-3.0L2.5,-0.5"/>
  </g>
  <g id="arrowDown" transform="rotate(180) translate(-30 -48)">
    <use xlink:href="#rim"/>
    <path pointer-events="none" fill="none" stroke="white" stroke-width="1.5" d="M0,-3.0v7 M-2.5,-0.5L0,-3.0L2.5,-0.5"/>
  </g>
  <g id="arrowLeft" transform="rotate(270) translate(-36 17)">
    <use xlink:href="#rim"/>
    <path pointer-events="none" fill="none" stroke="white" stroke-width="1.5" d="M0,-3.0v7 M-2.5,-0.5L0,-3.0L2.5,-0.5"/>
  </g>
  <g id="resetDef">
    <use xlink:href="#rim2" fill="#404040"><set attributeName="fill" to="#808080" begin="reset.mouseover" end="reset.mouseout"/></use>
  </g>
</defs>
<script type="application/ecmascript">
var viewWidth = 1759;
var viewHeight = 323;
var sectionId = 'dynsection-311';
</script>
<script type="application/ecmascript" xlink:href="svg.min.js"/>
<svg id="graph" class="graph">
<g id="viewport">
<title>render_player_snow_effect</title>
<!-- Node1 -->
<g id="Node000001" class="node">
<title>Node1</title>
<g id="a_Node000001"><a xlink:title=" ">
<polygon fill="#999999" stroke="#666666" points="115,-126 0,-126 0,-96 115,-96 115,-126"/>
<text text-anchor="start" x="8" y="-114" font-family="Helvetica,sans-Serif" font-size="10.00">render_player_snow</text>
<text text-anchor="middle" x="57.5" y="-103" font-family="Helvetica,sans-Serif" font-size="10.00">_effect</text>
</a>
</g>
</g>
<!-- Node2 -->
<g id="Node000002" class="node">
<title>Node2</title>
<g id="a_Node000002"><a xlink:href="GBIMiddleware_8cpp.html#a4ecc44e3c6f1ca5a6b4a20c41d3bd2d2" target="_top" xlink:title=" ">
<polygon fill="white" stroke="#666666" points="1041,-161.5 952,-161.5 952,-142.5 1041,-142.5 1041,-161.5"/>
<text text-anchor="middle" x="996.5" y="-149.5" font-family="Helvetica,sans-Serif" font-size="10.00">gSPDisplayList</text>
</a>
</g>
</g>
<!-- Node1&#45;&gt;Node2 -->
<g id="edge1_Node000001_Node000002" class="edge">
<title>Node1&#45;&gt;Node2</title>
<g id="a_edge1_Node000001_Node000002"><a xlink:title=" ">
<path fill="none" stroke="#63b8ff" d="M72.5,-126.23C89.29,-143.38 119.19,-170.47 151,-183 239.64,-217.9 269.24,-202 364.5,-202 364.5,-202 364.5,-202 653,-202 758.24,-202 879.78,-178.6 946.06,-163.82"/>
<polygon fill="#63b8ff" stroke="#63b8ff" points="947.24,-167.14 956.22,-161.52 945.69,-160.31 947.24,-167.14"/>
</a>
</g>
</g>
<!-- Node5 -->
<g id="Node000005" class="node">
<title>Node5</title>
<g id="a_Node000005"><a xlink:href="code__80057C60_8c.html#a483d596a720f50febbaad606b3ad4b22" target="_top" xlink:title=" ">
<polygon fill="white" stroke="#666666" points="266,-174 151,-174 151,-144 266,-144 266,-174"/>
<text text-anchor="start" x="159" y="-162" font-family="Helvetica,sans-Serif" font-size="10.00">render_player_snow</text>
<text text-anchor="middle" x="208.5" y="-151" font-family="Helvetica,sans-Serif" font-size="10.00">_effect_four</text>
</a>
</g>
</g>
<!-- Node1&#45;&gt;Node5 -->
<g id="edge4_Node000001_Node000005" class="edge">
<title>Node1&#45;&gt;Node5</title>
<g id="a_edge4_Node000001_Node000005"><a xlink:title=" ">
<path fill="none" stroke="#63b8ff" d="M105.24,-126.06C119.8,-130.75 136.01,-135.97 151.16,-140.85"/>
<polygon fill="#63b8ff" stroke="#63b8ff" points="150.34,-144.26 160.93,-144 152.49,-137.6 150.34,-144.26"/>
</a>
</g>
</g>
<!-- Node32 -->
<g id="Node000032" class="node">
<title>Node32</title>
<g id="a_Node000032"><a xlink:href="code__80057C60_8c.html#af6f7f1bcbd9056515d8ae97f7e5d8a5e" target="_top" xlink:title=" ">
<polygon fill="white" stroke="#666666" points="266,-126 151,-126 151,-96 266,-96 266,-126"/>
<text text-anchor="start" x="159" y="-114" font-family="Helvetica,sans-Serif" font-size="10.00">render_player_snow</text>
<text text-anchor="middle" x="208.5" y="-103" font-family="Helvetica,sans-Serif" font-size="10.00">_effect_one</text>
</a>
</g>
</g>
<!-- Node1&#45;&gt;Node32 -->
<g id="edge42_Node000001_Node000032" class="edge">
<title>Node1&#45;&gt;Node32</title>
<g id="a_edge42_Node000001_Node000032"><a xlink:title=" ">
<path fill="none" stroke="#63b8ff" d="M115.26,-111C123.56,-111 132.17,-111 140.65,-111"/>
<polygon fill="#63b8ff" stroke="#63b8ff" points="140.9,-114.5 150.9,-111 140.9,-107.5 140.9,-114.5"/>
</a>
</g>
</g>
<!-- Node33 -->
<g id="Node000033" class="node">
<title>Node33</title>
<g id="a_Node000033"><a xlink:href="code__80057C60_8c.html#aabfcbd8fe20219d51252e8d347f3663c" target="_top" xlink:title=" ">
<polygon fill="white" stroke="#666666" points="266,-78 151,-78 151,-48 266,-48 266,-78"/>
<text text-anchor="start" x="159" y="-66" font-family="Helvetica,sans-Serif" font-size="10.00">render_player_snow</text>
<text text-anchor="middle" x="208.5" y="-55" font-family="Helvetica,sans-Serif" font-size="10.00">_effect_three</text>
</a>
</g>
</g>
<!-- Node1&#45;&gt;Node33 -->
<g id="edge44_Node000001_Node000033" class="edge">
<title>Node1&#45;&gt;Node33</title>
<g id="a_edge44_Node000001_Node000033"><a xlink:title=" ">
<path fill="none" stroke="#63b8ff" d="M105.24,-95.94C119.8,-91.25 136.01,-86.03 151.16,-81.15"/>
<polygon fill="#63b8ff" stroke="#63b8ff" points="152.49,-84.4 160.93,-78 150.34,-77.74 152.49,-84.4"/>
</a>
</g>
</g>
<!-- Node34 -->
<g id="Node000034" class="node">
<title>Node34</title>
<g id="a_Node000034"><a xlink:href="code__80057C60_8c.html#aa9c7101cde8bf7d58c995ac9d450d5cd" target="_top" xlink:title=" ">
<polygon fill="white" stroke="#666666" points="266,-30 151,-30 151,0 266,0 266,-30"/>
<text text-anchor="start" x="159" y="-18" font-family="Helvetica,sans-Serif" font-size="10.00">render_player_snow</text>
<text text-anchor="middle" x="208.5" y="-7" font-family="Helvetica,sans-Serif" font-size="10.00">_effect_two</text>
</a>
</g>
</g>
<!-- Node1&#45;&gt;Node34 -->
<g id="edge46_Node000001_Node000034" class="edge">
<title>Node1&#45;&gt;Node34</title>
<g id="a_edge46_Node000001_Node000034"><a xlink:title=" ">
<path fill="none" stroke="#63b8ff" d="M75.26,-95.77C93.09,-80.1 122.58,-55.71 151,-39 153.63,-37.46 156.37,-35.96 159.17,-34.51"/>
<polygon fill="#63b8ff" stroke="#63b8ff" points="160.79,-37.62 168.25,-30.1 157.73,-31.33 160.79,-37.62"/>
</a>
</g>
</g>
<!-- Node3 -->
<g id="Node000003" class="node">
<title>Node3</title>
<g id="a_Node000003"><a xlink:href="Engine_8cpp.html#a223c8bc63f228dc11177515e38eff2db" target="_top" xlink:title=" ">
<polygon fill="white" stroke="#666666" points="1278.5,-62.5 1129.5,-62.5 1129.5,-43.5 1278.5,-43.5 1278.5,-62.5"/>
<text text-anchor="middle" x="1204" y="-50.5" font-family="Helvetica,sans-Serif" font-size="10.00">GameEngine_OTRSigCheck</text>
</a>
</g>
</g>
<!-- Node2&#45;&gt;Node3 -->
<g id="edge2_Node000002_Node000003" class="edge">
<title>Node2&#45;&gt;Node3</title>
<g id="a_edge2_Node000002_Node000003"><a xlink:title=" ">
<path fill="none" stroke="#63b8ff" d="M1041.18,-147.37C1054.24,-144.71 1068.21,-140.55 1080,-134 1100.06,-122.86 1097.51,-110.59 1116,-97 1132.42,-84.94 1152.63,-74.49 1169.44,-66.81"/>
<polygon fill="#63b8ff" stroke="#63b8ff" points="1171.17,-69.87 1178.89,-62.61 1168.33,-63.47 1171.17,-69.87"/>
</a>
</g>
</g>
<!-- Node4 -->
<g id="Node000004" class="node">
<title>Node4</title>
<g id="a_Node000004"><a xlink:href="string_8c.html#a008e171a518fe0e0352f31b245e03875" target="_top" xlink:title=" ">
<polygon fill="white" stroke="#666666" points="1383.5,-62.5 1339.5,-62.5 1339.5,-43.5 1383.5,-43.5 1383.5,-62.5"/>
<text text-anchor="middle" x="1361.5" y="-50.5" font-family="Helvetica,sans-Serif" font-size="10.00">strlen</text>
</a>
</g>
</g>
<!-- Node3&#45;&gt;Node4 -->
<g id="edge3_Node000003_Node000004" class="edge">
<title>Node3&#45;&gt;Node4</title>
<g id="a_edge3_Node000003_Node000004"><a xlink:title=" ">
<path fill="none" stroke="#63b8ff" d="M1278.65,-53C1296.29,-53 1314.21,-53 1328.77,-53"/>
<polygon fill="#63b8ff" stroke="#63b8ff" points="1329.19,-56.5 1339.19,-53 1329.19,-49.5 1329.19,-56.5"/>
</a>
</g>
</g>
<!-- Node6 -->
<g id="Node000006" class="node">
<title>Node6</title>
<g id="a_Node000006"><a xlink:href="code__80057C60_8c.html#a98bbaab0c4d6f6678d4537423acc1d6f" target="_top" xlink:title=" ">
<polygon fill="white" stroke="#666666" points="429,-109.5 302,-109.5 302,-90.5 429,-90.5 429,-109.5"/>
<text text-anchor="middle" x="365.5" y="-97.5" font-family="Helvetica,sans-Serif" font-size="10.00">render_snowing_effect</text>
</a>
</g>
</g>
<!-- Node5&#45;&gt;Node6 -->
<g id="edge5_Node000005_Node000006" class="edge">
<title>Node5&#45;&gt;Node6</title>
<g id="a_edge5_Node000005_Node000006"><a xlink:title=" ">
<path fill="none" stroke="#63b8ff" d="M249.01,-143.96C273.92,-134.48 305.79,-122.35 329.74,-113.23"/>
<polygon fill="#63b8ff" stroke="#63b8ff" points="331.05,-116.48 339.15,-109.65 328.56,-109.94 331.05,-116.48"/>
</a>
</g>
</g>
<!-- Node7 -->
<g id="Node000007" class="node">
<title>Node7</title>
<g id="a_Node000007"><a xlink:href="Game_8cpp.html#a3416a195a0c7be6ec3783bbf4842dc3e" target="_top" xlink:title=" ">
<polygon fill="white" stroke="#666666" points="558.5,-135.5 476.5,-135.5 476.5,-116.5 558.5,-116.5 558.5,-135.5"/>
<text text-anchor="middle" x="517.5" y="-123.5" font-family="Helvetica,sans-Serif" font-size="10.00">CM_GetProps</text>
</a>
</g>
</g>
<!-- Node6&#45;&gt;Node7 -->
<g id="edge6_Node000006_Node000007" class="edge">
<title>Node6&#45;&gt;Node7</title>
<g id="a_edge6_Node000006_Node000007"><a xlink:title=" ">
<path fill="none" stroke="#63b8ff" d="M421.5,-109.53C436.04,-112.05 451.65,-114.76 465.94,-117.24"/>
<polygon fill="#63b8ff" stroke="#63b8ff" points="465.62,-120.73 476.07,-118.99 466.81,-113.84 465.62,-120.73"/>
</a>
</g>
</g>
<!-- Node8 -->
<g id="Node000008" class="node">
<title>Node8</title>
<g id="a_Node000008"><a xlink:href="Game_8cpp.html#af4bf996258124d6741c70e4fa918ef03" target="_top" xlink:title=" ">
<polygon fill="white" stroke="#666666" points="570,-98.5 465,-98.5 465,-79.5 570,-79.5 570,-98.5"/>
<text text-anchor="middle" x="517.5" y="-86.5" font-family="Helvetica,sans-Serif" font-size="10.00">IsFrappeSnowland</text>
</a>
</g>
</g>
<!-- Node6&#45;&gt;Node8 -->
<g id="edge7_Node000006_Node000008" class="edge">
<title>Node6&#45;&gt;Node8</title>
<g id="a_edge7_Node000006_Node000008"><a xlink:title=" ">
<path fill="none" stroke="#63b8ff" d="M429.24,-95.4C437.69,-94.78 446.35,-94.14 454.78,-93.53"/>
<polygon fill="#63b8ff" stroke="#63b8ff" points="455.2,-97 464.92,-92.78 454.69,-90.02 455.2,-97"/>
</a>
</g>
</g>
<!-- Node9 -->
<g id="Node000009" class="node">
<title>Node9</title>
<g id="a_Node000009"><a xlink:href="render__objects_8c.html#ac8ff710887f5fdcd115e40bbea498642" target="_top" xlink:title=" ">
<polygon fill="white" stroke="#666666" points="567,-61.5 468,-61.5 468,-42.5 567,-42.5 567,-61.5"/>
<text text-anchor="middle" x="517.5" y="-49.5" font-family="Helvetica,sans-Serif" font-size="10.00">render_ice_block</text>
</a>
</g>
</g>
<!-- Node6&#45;&gt;Node9 -->
<g id="edge8_Node000006_Node000009" class="edge">
<title>Node6&#45;&gt;Node9</title>
<g id="a_edge8_Node000006_Node000009"><a xlink:title=" ">
<path fill="none" stroke="#63b8ff" d="M396.49,-90.4C419.59,-83.01 451.72,-72.73 476.92,-64.66"/>
<polygon fill="#63b8ff" stroke="#63b8ff" points="478.1,-67.96 486.56,-61.58 475.97,-61.3 478.1,-67.96"/>
</a>
</g>
</g>
<!-- Node26 -->
<g id="Node000026" class="node">
<title>Node26</title>
<g id="a_Node000026"><a xlink:href="render__objects_8c.html#a46802d986de3c906d6b25e57700e305c" target="_top" xlink:title=" ">
<polygon fill="white" stroke="#666666" points="877,-260 734,-260 734,-230 877,-230 877,-260"/>
<text text-anchor="start" x="742" y="-248" font-family="Helvetica,sans-Serif" font-size="10.00">render_object_snowflakes</text>
<text text-anchor="middle" x="805.5" y="-237" font-family="Helvetica,sans-Serif" font-size="10.00">_particles</text>
</a>
</g>
</g>
<!-- Node6&#45;&gt;Node26 -->
<g id="edge30_Node000006_Node000026" class="edge">
<title>Node6&#45;&gt;Node26</title>
<g id="a_edge30_Node000006_Node000026"><a xlink:title=" ">
<path fill="none" stroke="#63b8ff" d="M385.41,-109.62C405,-119.34 436.64,-134.41 465,-145 556.21,-179.07 664.58,-209.28 733.92,-227.35"/>
<polygon fill="#63b8ff" stroke="#63b8ff" points="733.3,-230.8 743.86,-229.93 735.06,-224.03 733.3,-230.8"/>
</a>
</g>
</g>
<!-- Node10 -->
<g id="Node000010" class="node">
<title>Node10</title>
<g id="a_Node000010"><a xlink:href="render__objects_8c.html#acda60e8397a4e568bb0b1f20c31cdb58" target="_top" xlink:title=" ">
<polygon fill="white" stroke="#666666" points="698,-98.5 606,-98.5 606,-79.5 698,-79.5 698,-98.5"/>
<text text-anchor="middle" x="652" y="-86.5" font-family="Helvetica,sans-Serif" font-size="10.00">func_8005285C</text>
</a>
</g>
</g>
<!-- Node9&#45;&gt;Node10 -->
<g id="edge9_Node000009_Node000010" class="edge">
<title>Node9&#45;&gt;Node10</title>
<g id="a_edge9_Node000009_Node000010"><a xlink:title=" ">
<path fill="none" stroke="#63b8ff" d="M552.62,-61.53C569.03,-66.11 588.91,-71.66 606.49,-76.57"/>
<polygon fill="#63b8ff" stroke="#63b8ff" points="605.96,-80.06 616.53,-79.38 607.84,-73.31 605.96,-80.06"/>
</a>
</g>
</g>
<!-- Node22 -->
<g id="Node000022" class="node">
<title>Node22</title>
<g id="a_Node000022"><a xlink:href="render__objects_8c.html#ab1221a11e45710d6fac6b0b2b3bfd054" target="_top" xlink:title=" ">
<polygon fill="white" stroke="#666666" points="851.5,-81.5 759.5,-81.5 759.5,-62.5 851.5,-62.5 851.5,-81.5"/>
<text text-anchor="middle" x="805.5" y="-69.5" font-family="Helvetica,sans-Serif" font-size="10.00">func_800528EC</text>
</a>
</g>
</g>
<!-- Node9&#45;&gt;Node22 -->
<g id="edge23_Node000009_Node000022" class="edge">
<title>Node9&#45;&gt;Node22</title>
<g id="a_edge23_Node000009_Node000022"><a xlink:title=" ">
<path fill="none" stroke="#63b8ff" d="M567.02,-55.39C617.37,-58.91 696,-64.41 748.85,-68.11"/>
<polygon fill="#63b8ff" stroke="#63b8ff" points="748.84,-71.62 759.06,-68.82 749.33,-64.63 748.84,-71.62"/>
</a>
</g>
</g>
<!-- Node25 -->
<g id="Node000025" class="node">
<title>Node25</title>
<g id="a_Node000025"><a xlink:href="update__objects_8c.html#a6eafc39608c664ff3d5b832ffb629b12" target="_top" xlink:title=" ">
<polygon fill="white" stroke="#666666" points="697.5,-135.5 606.5,-135.5 606.5,-116.5 697.5,-116.5 697.5,-135.5"/>
<text text-anchor="middle" x="652" y="-123.5" font-family="Helvetica,sans-Serif" font-size="10.00">func_80072320</text>
</a>
</g>
</g>
<!-- Node9&#45;&gt;Node25 -->
<g id="edge29_Node000009_Node000025" class="edge">
<title>Node9&#45;&gt;Node25</title>
<g id="a_edge29_Node000009_Node000025"><a xlink:title=" ">
<path fill="none" stroke="#63b8ff" d="M551.15,-61.54C557.66,-64.12 564.25,-67.26 570,-71 589.24,-83.5 586.93,-95.24 606,-108 608.14,-109.43 610.41,-110.78 612.76,-112.04"/>
<polygon fill="#63b8ff" stroke="#63b8ff" points="611.48,-115.31 622.01,-116.49 614.51,-109 611.48,-115.31"/>
</a>
</g>
</g>
<!-- Node11 -->
<g id="Node000011" class="node">
<title>Node11</title>
<g id="a_Node000011"><a xlink:href="render__objects_8c.html#a64a1b579023d24b6d3506bc42b13b837" target="_top" xlink:title=" ">
<polygon fill="white" stroke="#666666" points="851,-124.5 760,-124.5 760,-105.5 851,-105.5 851,-124.5"/>
<text text-anchor="middle" x="805.5" y="-112.5" font-family="Helvetica,sans-Serif" font-size="10.00">func_80043500</text>
</a>
</g>
</g>
<!-- Node10&#45;&gt;Node11 -->
<g id="edge10_Node000010_Node000011" class="edge">
<title>Node10&#45;&gt;Node11</title>
<g id="a_edge10_Node000010_Node000011"><a xlink:title=" ">
<path fill="none" stroke="#63b8ff" d="M698.04,-96.73C714.22,-99.51 732.65,-102.67 749.58,-105.57"/>
<polygon fill="#63b8ff" stroke="#63b8ff" points="749.44,-109.1 759.89,-107.34 750.63,-102.2 749.44,-109.1"/>
</a>
</g>
</g>
<!-- Node11&#45;&gt;Node2 -->
<g id="edge11_Node000011_Node000002" class="edge">
<title>Node11&#45;&gt;Node2</title>
<g id="a_edge11_Node000011_Node000002"><a xlink:title=" ">
<path fill="none" stroke="#63b8ff" d="M851.29,-123.77C878.44,-129.08 913.23,-135.89 941.84,-141.5"/>
<polygon fill="#63b8ff" stroke="#63b8ff" points="941.2,-144.94 951.68,-143.42 942.54,-138.07 941.2,-144.94"/>
</a>
</g>
</g>
<!-- Node12 -->
<g id="Node000012" class="node">
<title>Node12</title>
<g id="a_Node000012"><a xlink:href="math__util__2_8c.html#a2eff0e02deb703653ee3230fbc02eb14" target="_top" xlink:title="set the matrix to a transformation matrix">
<polygon fill="white" stroke="#666666" points="1080,-124.5 913,-124.5 913,-105.5 1080,-105.5 1080,-124.5"/>
<text text-anchor="middle" x="996.5" y="-112.5" font-family="Helvetica,sans-Serif" font-size="10.00">rsp_set_matrix_transformation</text>
</a>
</g>
</g>
<!-- Node11&#45;&gt;Node12 -->
<g id="edge12_Node000011_Node000012" class="edge">
<title>Node11&#45;&gt;Node12</title>
<g id="a_edge12_Node000011_Node000012"><a xlink:title=" ">
<path fill="none" stroke="#63b8ff" d="M851.29,-115C866.71,-115 884.6,-115 902.43,-115"/>
<polygon fill="#63b8ff" stroke="#63b8ff" points="902.89,-118.5 912.89,-115 902.89,-111.5 902.89,-118.5"/>
</a>
</g>
</g>
<!-- Node13 -->
<g id="Node000013" class="node">
<title>Node13</title>
<g id="a_Node000013"><a xlink:href="Matrix_8cpp.html#a329d78c031733cf22ff7518f5d38fd74" target="_top" xlink:title=" ">
<polygon fill="white" stroke="#666666" points="1247,-161.5 1161,-161.5 1161,-142.5 1247,-142.5 1247,-161.5"/>
<text text-anchor="middle" x="1204" y="-149.5" font-family="Helvetica,sans-Serif" font-size="10.00">AddHudMatrix</text>
</a>
</g>
</g>
<!-- Node12&#45;&gt;Node13 -->
<g id="edge13_Node000012_Node000013" class="edge">
<title>Node12&#45;&gt;Node13</title>
<g id="a_edge13_Node000012_Node000013"><a xlink:title=" ">
<path fill="none" stroke="#63b8ff" d="M1050.42,-124.53C1081.3,-130.09 1120.1,-137.07 1150.84,-142.61"/>
<polygon fill="#63b8ff" stroke="#63b8ff" points="1150.48,-146.1 1160.94,-144.43 1151.72,-139.21 1150.48,-146.1"/>
</a>
</g>
</g>
<!-- Node18 -->
<g id="Node000018" class="node">
<title>Node18</title>
<g id="a_Node000018"><a xlink:href="math__util__2_8c.html#ae71383a9d7f97bcb240b23f68068ab30" target="_top" xlink:title=" ">
<polygon fill="white" stroke="#666666" points="1292,-124.5 1116,-124.5 1116,-105.5 1292,-105.5 1292,-124.5"/>
<text text-anchor="middle" x="1204" y="-112.5" font-family="Helvetica,sans-Serif" font-size="10.00">mtxf_set_matrix_transformation</text>
</a>
</g>
</g>
<!-- Node12&#45;&gt;Node18 -->
<g id="edge18_Node000012_Node000018" class="edge">
<title>Node12&#45;&gt;Node18</title>
<g id="a_edge18_Node000012_Node000018"><a xlink:title=" ">
<path fill="none" stroke="#63b8ff" d="M1080.2,-115C1088.61,-115 1097.22,-115 1105.77,-115"/>
<polygon fill="#63b8ff" stroke="#63b8ff" points="1105.77,-118.5 1115.77,-115 1105.77,-111.5 1105.77,-118.5"/>
</a>
</g>
</g>
<!-- Node14 -->
<g id="Node000014" class="node">
<title>Node14</title>
<g id="a_Node000014"><a xlink:href="Matrix_8cpp.html#aaa0983157188edefc6259671ccda6746" target="_top" xlink:title=" ">
<polygon fill="white" stroke="#666666" points="1395,-161.5 1328,-161.5 1328,-142.5 1395,-142.5 1395,-161.5"/>
<text text-anchor="middle" x="1361.5" y="-149.5" font-family="Helvetica,sans-Serif" font-size="10.00">AddMatrix</text>
</a>
</g>
</g>
<!-- Node13&#45;&gt;Node14 -->
<g id="edge14_Node000013_Node000014" class="edge">
<title>Node13&#45;&gt;Node14</title>
<g id="a_edge14_Node000013_Node000014"><a xlink:title=" ">
<path fill="none" stroke="#63b8ff" d="M1247.08,-152C1268.98,-152 1295.69,-152 1317.69,-152"/>
<polygon fill="#63b8ff" stroke="#63b8ff" points="1317.76,-155.5 1327.76,-152 1317.76,-148.5 1317.76,-155.5"/>
</a>
</g>
</g>
<!-- Node15 -->
<g id="Node000015" class="node">
<title>Node15</title>
<g id="a_Node000015"><a xlink:href="FrameInterpolation_8cpp.html#a8cf1f2d6fabc6925aa71a9515341b4aa" target="_top" xlink:title=" ">
<polygon fill="white" stroke="#666666" points="1589,-177 1449,-177 1449,-147 1589,-147 1589,-177"/>
<text text-anchor="start" x="1457" y="-165" font-family="Helvetica,sans-Serif" font-size="10.00">FrameInterpolation</text>
<text text-anchor="middle" x="1519" y="-154" font-family="Helvetica,sans-Serif" font-size="10.00">_RecordMatrixMtxFToMtx</text>
</a>
</g>
</g>
<!-- Node14&#45;&gt;Node15 -->
<g id="edge15_Node000014_Node000015" class="edge">
<title>Node14&#45;&gt;Node15</title>
<g id="a_edge15_Node000014_Node000015"><a xlink:title=" ">
<path fill="none" stroke="#63b8ff" d="M1395.1,-154.1C1407.96,-154.92 1423.33,-155.91 1438.79,-156.91"/>
<polygon fill="#63b8ff" stroke="#63b8ff" points="1438.73,-160.41 1448.93,-157.56 1439.18,-153.42 1438.73,-160.41"/>
</a>
</g>
</g>
<!-- Node17 -->
<g id="Node000017" class="node">
<title>Node17</title>
<g id="a_Node000017"><a xlink:href="guMtxF2L_8c.html#a40ab2d64c609839ff1e0ef0de2d0dcc4" target="_top" xlink:title=" ">
<polygon fill="white" stroke="#666666" points="1551.5,-214.5 1486.5,-214.5 1486.5,-195.5 1551.5,-195.5 1551.5,-214.5"/>
<text text-anchor="middle" x="1519" y="-202.5" font-family="Helvetica,sans-Serif" font-size="10.00">guMtxF2L</text>
</a>
</g>
</g>
<!-- Node14&#45;&gt;Node17 -->
<g id="edge17_Node000014_Node000017" class="edge">
<title>Node14&#45;&gt;Node17</title>
<g id="a_edge17_Node000014_Node000017"><a xlink:title=" ">
<path fill="none" stroke="#63b8ff" d="M1378.89,-161.57C1392.46,-169.14 1412.46,-179.49 1431,-186 1445.44,-191.07 1461.72,-195.06 1476.25,-198.05"/>
<polygon fill="#63b8ff" stroke="#63b8ff" points="1475.99,-201.56 1486.48,-200.05 1477.34,-194.69 1475.99,-201.56"/>
</a>
</g>
</g>
<!-- Node16 -->
<g id="Node000016" class="node">
<title>Node16</title>
<g id="a_Node000016"><a xlink:href="FrameInterpolation_8cpp.html#a02c7ac5342a4d376edee38f312b480bf" target="_top" xlink:title=" ">
<polygon fill="white" stroke="#666666" points="1751,-214.5 1643,-214.5 1643,-195.5 1751,-195.5 1751,-214.5"/>
<text text-anchor="middle" x="1697" y="-202.5" font-family="Helvetica,sans-Serif" font-size="10.00">check_if_recording</text>
</a>
</g>
</g>
<!-- Node15&#45;&gt;Node16 -->
<g id="edge16_Node000015_Node000016" class="edge">
<title>Node15&#45;&gt;Node16</title>
<g id="a_edge16_Node000015_Node000016"><a xlink:title=" ">
<path fill="none" stroke="#63b8ff" d="M1581.56,-177.04C1603.01,-182.28 1626.78,-188.09 1647.07,-193.04"/>
<polygon fill="#63b8ff" stroke="#63b8ff" points="1646.48,-196.5 1657.03,-195.48 1648.14,-189.7 1646.48,-196.5"/>
</a>
</g>
</g>
<!-- Node19 -->
<g id="Node000019" class="node">
<title>Node19</title>
<g id="a_Node000019"><a xlink:href="math__util_8c.html#ae69cbf5c8d4b3b0dba2d7b4d4673689f" target="_top" xlink:title=" ">
<polygon fill="white" stroke="#666666" points="1380.5,-235.5 1342.5,-235.5 1342.5,-216.5 1380.5,-216.5 1380.5,-235.5"/>
<text text-anchor="middle" x="1361.5" y="-223.5" font-family="Helvetica,sans-Serif" font-size="10.00">coss</text>
</a>
</g>
</g>
<!-- Node18&#45;&gt;Node19 -->
<g id="edge19_Node000018_Node000019" class="edge">
<title>Node18&#45;&gt;Node19</title>
<g id="a_edge19_Node000018_Node000019"><a xlink:title=" ">
<path fill="none" stroke="#63b8ff" d="M1275.91,-124.59C1281.67,-127.08 1287.14,-130.18 1292,-134 1320.75,-156.61 1302.83,-181.46 1328,-208 1329.62,-209.71 1331.44,-211.3 1333.38,-212.77"/>
<polygon fill="#63b8ff" stroke="#63b8ff" points="1331.95,-216.01 1342.26,-218.42 1335.71,-210.1 1331.95,-216.01"/>
</a>
</g>
</g>
<!-- Node20 -->
<g id="Node000020" class="node">
<title>Node20</title>
<g id="a_Node000020"><a xlink:href="FrameInterpolation_8cpp.html#af749df1a96bee5c78287b1845455ae2d" target="_top" xlink:title=" ">
<polygon fill="white" stroke="#666666" points="1607,-129 1431,-129 1431,-99 1607,-99 1607,-129"/>
<text text-anchor="start" x="1439" y="-117" font-family="Helvetica,sans-Serif" font-size="10.00">FrameInterpolation</text>
<text text-anchor="middle" x="1519" y="-106" font-family="Helvetica,sans-Serif" font-size="10.00">_RecordSetMatrixTransformation</text>
</a>
</g>
</g>
<!-- Node18&#45;&gt;Node20 -->
<g id="edge20_Node000018_Node000020" class="edge">
<title>Node18&#45;&gt;Node20</title>
<g id="a_edge20_Node000018_Node000020"><a xlink:title=" ">
<path fill="none" stroke="#63b8ff" d="M1292.19,-114.72C1332.13,-114.59 1379.61,-114.44 1420.71,-114.31"/>
<polygon fill="#63b8ff" stroke="#63b8ff" points="1420.75,-117.81 1430.74,-114.28 1420.73,-110.81 1420.75,-117.81"/>
</a>
</g>
</g>
<!-- Node21 -->
<g id="Node000021" class="node">
<title>Node21</title>
<g id="a_Node000021"><a xlink:href="math__util_8c.html#a19ed3bd78fd2d3e2bd0a29f6caf48545" target="_top" xlink:title=" ">
<polygon fill="white" stroke="#666666" points="1379.5,-198.5 1343.5,-198.5 1343.5,-179.5 1379.5,-179.5 1379.5,-198.5"/>
<text text-anchor="middle" x="1361.5" y="-186.5" font-family="Helvetica,sans-Serif" font-size="10.00">sins</text>
</a>
</g>
</g>
<!-- Node18&#45;&gt;Node21 -->
<g id="edge22_Node000018_Node000021" class="edge">
<title>Node18&#45;&gt;Node21</title>
<g id="a_edge22_Node000018_Node000021"><a xlink:title=" ">
<path fill="none" stroke="#63b8ff" d="M1269.3,-124.53C1277.21,-126.99 1284.97,-130.1 1292,-134 1312.06,-145.14 1309.77,-157.07 1328,-171 1330.06,-172.58 1332.28,-174.1 1334.55,-175.55"/>
<polygon fill="#63b8ff" stroke="#63b8ff" points="1332.99,-178.69 1343.38,-180.74 1336.53,-172.66 1332.99,-178.69"/>
</a>
</g>
</g>
<!-- Node20&#45;&gt;Node16 -->
<g id="edge21_Node000020_Node000016" class="edge">
<title>Node20&#45;&gt;Node16</title>
<g id="a_edge21_Node000020_Node000016"><a xlink:title=" ">
<path fill="none" stroke="#63b8ff" d="M1585.15,-129.05C1592.67,-131.64 1600.11,-134.61 1607,-138 1634.14,-151.35 1661.34,-173.4 1678.39,-188.53"/>
<polygon fill="#63b8ff" stroke="#63b8ff" points="1676.15,-191.22 1685.91,-195.34 1680.84,-186.03 1676.15,-191.22"/>
</a>
</g>
</g>
<!-- Node22&#45;&gt;Node2 -->
<g id="edge24_Node000022_Node000002" class="edge">
<title>Node22&#45;&gt;Node2</title>
<g id="a_edge24_Node000022_Node000002"><a xlink:title=" ">
<path fill="none" stroke="#63b8ff" d="M843.48,-81.57C854.75,-85.4 866.83,-90.48 877,-97 896.32,-109.38 892.94,-122.86 913,-134 921.84,-138.91 931.91,-142.48 941.9,-145.08"/>
<polygon fill="#63b8ff" stroke="#63b8ff" points="941.29,-148.53 951.82,-147.37 942.86,-141.71 941.29,-148.53"/>
</a>
</g>
</g>
<!-- Node22&#45;&gt;Node12 -->
<g id="edge28_Node000022_Node000012" class="edge">
<title>Node22&#45;&gt;Node12</title>
<g id="a_edge28_Node000022_Node000012"><a xlink:title=" ">
<path fill="none" stroke="#63b8ff" d="M848.45,-81.54C876.58,-87.95 913.84,-96.42 943.81,-103.24"/>
<polygon fill="#63b8ff" stroke="#63b8ff" points="943.14,-106.68 953.67,-105.48 944.7,-99.85 943.14,-106.68"/>
</a>
</g>
</g>
<!-- Node23 -->
<g id="Node000023" class="node">
<title>Node23</title>
<g id="a_Node000023"><a xlink:href="GBIMiddleware_8cpp.html#aeef79449a27a710d73576e4a4f7f7f99" target="_top" xlink:title=" ">
<polygon fill="white" stroke="#666666" points="1029.5,-38.5 963.5,-38.5 963.5,-19.5 1029.5,-19.5 1029.5,-38.5"/>
<text text-anchor="middle" x="996.5" y="-26.5" font-family="Helvetica,sans-Serif" font-size="10.00">gSPVertex</text>
</a>
</g>
</g>
<!-- Node22&#45;&gt;Node23 -->
<g id="edge25_Node000022_Node000023" class="edge">
<title>Node22&#45;&gt;Node23</title>
<g id="a_edge25_Node000022_Node000023"><a xlink:title=" ">
<path fill="none" stroke="#63b8ff" d="M848.45,-62.46C879.61,-55.37 921.97,-45.73 953.22,-38.62"/>
<polygon fill="#63b8ff" stroke="#63b8ff" points="954.38,-41.94 963.36,-36.31 952.83,-35.12 954.38,-41.94"/>
</a>
</g>
</g>
<!-- Node24 -->
<g id="Node000024" class="node">
<title>Node24</title>
<g id="a_Node000024"><a xlink:href="render__objects_8c.html#ac6b2b1be6d99122b6bd5612bdee6ffef" target="_top" xlink:title=" ">
<polygon fill="white" stroke="#666666" points="1051.5,-87 941.5,-87 941.5,-57 1051.5,-57 1051.5,-87"/>
<text text-anchor="start" x="949.5" y="-75" font-family="Helvetica,sans-Serif" font-size="10.00">load_texture_block</text>
<text text-anchor="middle" x="996.5" y="-64" font-family="Helvetica,sans-Serif" font-size="10.00">_ia16_nomirror</text>
</a>
</g>
</g>
<!-- Node22&#45;&gt;Node24 -->
<g id="edge27_Node000022_Node000024" class="edge">
<title>Node22&#45;&gt;Node24</title>
<g id="a_edge27_Node000022_Node000024"><a xlink:title=" ">
<path fill="none" stroke="#63b8ff" d="M851.77,-72C875.49,-72 904.94,-72 931,-72"/>
<polygon fill="#63b8ff" stroke="#63b8ff" points="931.18,-75.5 941.18,-72 931.18,-68.5 931.18,-75.5"/>
</a>
</g>
</g>
<!-- Node23&#45;&gt;Node3 -->
<g id="edge26_Node000023_Node000003" class="edge">
<title>Node23&#45;&gt;Node3</title>
<g id="a_edge26_Node000023_Node000003"><a xlink:title=" ">
<path fill="none" stroke="#63b8ff" d="M1029.61,-32.75C1053.65,-35.56 1087.69,-39.53 1119.25,-43.22"/>
<polygon fill="#63b8ff" stroke="#63b8ff" points="1119.05,-46.72 1129.39,-44.4 1119.86,-39.77 1119.05,-46.72"/>
</a>
</g>
</g>
<!-- Node26&#45;&gt;Node2 -->
<g id="edge36_Node000026_Node000002" class="edge">
<title>Node26&#45;&gt;Node2</title>
<g id="a_edge36_Node000026_Node000002"><a xlink:title=" ">
<path fill="none" stroke="#63b8ff" d="M852.7,-229.95C861.2,-226.11 869.69,-221.48 877,-216 897.5,-200.64 891.32,-184.63 913,-171 921.68,-165.54 931.75,-161.65 941.82,-158.87"/>
<polygon fill="#63b8ff" stroke="#63b8ff" points="942.93,-162.21 951.83,-156.45 941.28,-155.4 942.93,-162.21"/>
</a>
</g>
</g>
<!-- Node27 -->
<g id="Node000027" class="node">
<title>Node27</title>
<g id="a_Node000027"><a xlink:href="FrameInterpolation_8cpp.html#a3a036bc9d533e28a4e9697cd20dccf3e" target="_top" xlink:title=" ">
<polygon fill="white" stroke="#666666" points="1574,-315 1464,-315 1464,-285 1574,-285 1574,-315"/>
<text text-anchor="start" x="1472" y="-303" font-family="Helvetica,sans-Serif" font-size="10.00">FrameInterpolation</text>
<text text-anchor="middle" x="1519" y="-292" font-family="Helvetica,sans-Serif" font-size="10.00">_RecordCloseChild</text>
</a>
</g>
</g>
<!-- Node26&#45;&gt;Node27 -->
<g id="edge31_Node000026_Node000027" class="edge">
<title>Node26&#45;&gt;Node27</title>
<g id="a_edge31_Node000026_Node000027"><a xlink:title=" ">
<path fill="none" stroke="#63b8ff" d="M877.16,-255.7C889.1,-257.29 901.39,-258.8 913,-260 1109.47,-280.3 1342.97,-292.33 1453.65,-297.31"/>
<polygon fill="#63b8ff" stroke="#63b8ff" points="1453.51,-300.81 1463.65,-297.76 1453.82,-293.81 1453.51,-300.81"/>
</a>
</g>
</g>
<!-- Node28 -->
<g id="Node000028" class="node">
<title>Node28</title>
<g id="a_Node000028"><a xlink:href="FrameInterpolation_8cpp.html#a0eda726b74eac815af4e874014e2727c" target="_top" xlink:title=" ">
<polygon fill="white" stroke="#666666" points="1574,-266 1464,-266 1464,-236 1574,-236 1574,-266"/>
<text text-anchor="start" x="1472" y="-254" font-family="Helvetica,sans-Serif" font-size="10.00">FrameInterpolation</text>
<text text-anchor="middle" x="1519" y="-243" font-family="Helvetica,sans-Serif" font-size="10.00">_RecordOpenChild</text>
</a>
</g>
</g>
<!-- Node26&#45;&gt;Node28 -->
<g id="edge33_Node000026_Node000028" class="edge">
<title>Node26&#45;&gt;Node28</title>
<g id="a_edge33_Node000026_Node000028"><a xlink:title=" ">
<path fill="none" stroke="#63b8ff" d="M877.32,-245.6C1015.89,-246.77 1320.91,-249.34 1453.9,-250.46"/>
<polygon fill="#63b8ff" stroke="#63b8ff" points="1453.9,-253.96 1463.93,-250.54 1453.96,-246.96 1453.9,-253.96"/>
</a>
</g>
</g>
<!-- Node29 -->
<g id="Node000029" class="node">
<title>Node29</title>
<g id="a_Node000029"><a xlink:href="render__objects_8c.html#a81be2b87d808633d8fe563c777fe1b0c" target="_top" xlink:title=" ">
<polygon fill="white" stroke="#666666" points="1042,-235.5 951,-235.5 951,-216.5 1042,-216.5 1042,-235.5"/>
<text text-anchor="middle" x="996.5" y="-223.5" font-family="Helvetica,sans-Serif" font-size="10.00">func_80044F34</text>
</a>
</g>
</g>
<!-- Node26&#45;&gt;Node29 -->
<g id="edge35_Node000026_Node000029" class="edge">
<title>Node26&#45;&gt;Node29</title>
<g id="a_edge35_Node000026_Node000029"><a xlink:title=" ">
<path fill="none" stroke="#63b8ff" d="M877.15,-237.9C898.22,-235.78 920.98,-233.49 940.86,-231.49"/>
<polygon fill="#63b8ff" stroke="#63b8ff" points="941.37,-234.96 950.97,-230.48 940.67,-227.99 941.37,-234.96"/>
</a>
</g>
</g>
<!-- Node30 -->
<g id="Node000030" class="node">
<title>Node30</title>
<g id="a_Node000030"><a xlink:href="math__util__2_8c.html#aca064a66dc29c36e1db7b79a6b679e25" target="_top" xlink:title=" ">
<polygon fill="white" stroke="#666666" points="1071,-198.5 922,-198.5 922,-179.5 1071,-179.5 1071,-198.5"/>
<text text-anchor="middle" x="996.5" y="-186.5" font-family="Helvetica,sans-Serif" font-size="10.00">rsp_set_matrix_gObjectList</text>
</a>
</g>
</g>
<!-- Node26&#45;&gt;Node30 -->
<g id="edge37_Node000026_Node000030" class="edge">
<title>Node26&#45;&gt;Node30</title>
<g id="a_edge37_Node000026_Node000030"><a xlink:title=" ">
<path fill="none" stroke="#63b8ff" d="M846.38,-230C866.24,-222.82 890.71,-214.42 913,-208 921.71,-205.49 931.02,-203.09 940.12,-200.89"/>
<polygon fill="#63b8ff" stroke="#63b8ff" points="940.96,-204.28 949.89,-198.58 939.35,-197.47 940.96,-204.28"/>
</a>
</g>
</g>
<!-- Node27&#45;&gt;Node16 -->
<g id="edge32_Node000027_Node000016" class="edge">
<title>Node27&#45;&gt;Node16</title>
<g id="a_edge32_Node000027_Node000016"><a xlink:title=" ">
<path fill="none" stroke="#63b8ff" d="M1574.16,-287.95C1585.33,-284.51 1596.79,-280.23 1607,-275 1634.67,-260.84 1662.11,-237.46 1679.05,-221.66"/>
<polygon fill="#63b8ff" stroke="#63b8ff" points="1681.65,-224.02 1686.48,-214.59 1676.83,-218.95 1681.65,-224.02"/>
</a>
</g>
</g>
<!-- Node28&#45;&gt;Node16 -->
<g id="edge34_Node000028_Node000016" class="edge">
<title>Node28&#45;&gt;Node16</title>
<g id="a_edge34_Node000028_Node000016"><a xlink:title=" ">
<path fill="none" stroke="#63b8ff" d="M1574.24,-236.82C1598.35,-230.52 1626.44,-223.18 1649.56,-217.14"/>
<polygon fill="#63b8ff" stroke="#63b8ff" points="1650.68,-220.46 1659.47,-214.55 1648.91,-213.69 1650.68,-220.46"/>
</a>
</g>
</g>
<!-- Node30&#45;&gt;Node13 -->
<g id="edge38_Node000030_Node000013" class="edge">
<title>Node30&#45;&gt;Node13</title>
<g id="a_edge38_Node000030_Node000013"><a xlink:title=" ">
<path fill="none" stroke="#63b8ff" d="M1050.42,-179.47C1081.3,-173.91 1120.1,-166.93 1150.84,-161.39"/>
<polygon fill="#63b8ff" stroke="#63b8ff" points="1151.72,-164.79 1160.94,-159.57 1150.48,-157.9 1151.72,-164.79"/>
</a>
</g>
</g>
<!-- Node31 -->
<g id="Node000031" class="node">
<title>Node31</title>
<g id="a_Node000031"><a xlink:href="math__util__2_8c.html#ab70b077c4d314699e7fb4bea342827e0" target="_top" xlink:title=" ">
<polygon fill="white" stroke="#666666" points="1283,-198.5 1125,-198.5 1125,-179.5 1283,-179.5 1283,-198.5"/>
<text text-anchor="middle" x="1204" y="-186.5" font-family="Helvetica,sans-Serif" font-size="10.00">mtxf_set_matrix_gObjectList</text>
</a>
</g>
</g>
<!-- Node30&#45;&gt;Node31 -->
<g id="edge39_Node000030_Node000031" class="edge">
<title>Node30&#45;&gt;Node31</title>
<g id="a_edge39_Node000030_Node000031"><a xlink:title=" ">
<path fill="none" stroke="#63b8ff" d="M1071.11,-189C1085.1,-189 1099.88,-189 1114.29,-189"/>
<polygon fill="#63b8ff" stroke="#63b8ff" points="1114.69,-192.5 1124.69,-189 1114.69,-185.5 1114.69,-192.5"/>
</a>
</g>
</g>
<!-- Node31&#45;&gt;Node19 -->
<g id="edge40_Node000031_Node000019" class="edge">
<title>Node31&#45;&gt;Node19</title>
<g id="a_edge40_Node000031_Node000019"><a xlink:title=" ">
<path fill="none" stroke="#63b8ff" d="M1245.05,-198.53C1272.32,-205.02 1307.77,-213.45 1332.16,-219.26"/>
<polygon fill="#63b8ff" stroke="#63b8ff" points="1331.65,-222.73 1342.19,-221.64 1333.27,-215.92 1331.65,-222.73"/>
</a>
</g>
</g>
<!-- Node31&#45;&gt;Node21 -->
<g id="edge41_Node000031_Node000021" class="edge">
<title>Node31&#45;&gt;Node21</title>
<g id="a_edge41_Node000031_Node000021"><a xlink:title=" ">
<path fill="none" stroke="#63b8ff" d="M1283.21,-189C1301.11,-189 1318.98,-189 1333.02,-189"/>
<polygon fill="#63b8ff" stroke="#63b8ff" points="1333.39,-192.5 1343.39,-189 1333.39,-185.5 1333.39,-192.5"/>
</a>
</g>
</g>
<!-- Node32&#45;&gt;Node6 -->
<g id="edge43_Node000032_Node000006" class="edge">
<title>Node32&#45;&gt;Node6</title>
<g id="a_edge43_Node000032_Node000006"><a xlink:title=" ">
<path fill="none" stroke="#63b8ff" d="M266.34,-106.97C274.66,-106.38 283.32,-105.76 291.91,-105.15"/>
<polygon fill="#63b8ff" stroke="#63b8ff" points="292.19,-108.64 301.92,-104.44 291.7,-101.66 292.19,-108.64"/>
</a>
</g>
</g>
<!-- Node33&#45;&gt;Node6 -->
<g id="edge45_Node000033_Node000006" class="edge">
<title>Node33&#45;&gt;Node6</title>
<g id="a_edge45_Node000033_Node000006"><a xlink:title=" ">
<path fill="none" stroke="#63b8ff" d="M266.34,-76.57C282.21,-80.36 299.34,-84.44 314.77,-88.13"/>
<polygon fill="#63b8ff" stroke="#63b8ff" points="314.09,-91.57 324.63,-90.48 315.72,-84.76 314.09,-91.57"/>
</a>
</g>
</g>
<!-- Node34&#45;&gt;Node6 -->
<g id="edge47_Node000034_Node000006" class="edge">
<title>Node34&#45;&gt;Node6</title>
<g id="a_edge47_Node000034_Node000006"><a xlink:title=" ">
<path fill="none" stroke="#63b8ff" d="M247.25,-30.09C253.59,-32.89 260.04,-35.91 266,-39 292.98,-52.98 322.42,-71.7 342.02,-84.7"/>
<polygon fill="#63b8ff" stroke="#63b8ff" points="340.29,-87.75 350.54,-90.41 344.18,-81.94 340.29,-87.75"/>
</a>
</g>
</g>
</g>
</svg>

<g id="navigator" transform="translate(0 0)" fill="#404254">
  <rect fill="#f2f5e9" fill-opacity="0.5" stroke="#606060" stroke-width=".5" x="0" y="0" width="60" height="60"/>
  <use id="zoomplus" xlink:href="#zoomPlus" x="17" y="9" onmousedown="handleZoom(evt,'in')"/>
  <use id="zoomminus" xlink:href="#zoomMin" x="42" y="9" onmousedown="handleZoom(evt,'out')"/>
  <use id="reset" xlink:href="#resetDef" x="30" y="36" onmousedown="handleReset()"/>
   <use id="arrowup" xlink:href="#arrowUp" x="0" y="0" onmousedown="handlePan(0,-1)"/>
  <use id="arrowright" xlink:href="#arrowRight" x="0" y="0" onmousedown="handlePan(1,0)"/>
  <use id="arrowdown" xlink:href="#arrowDown" x="0" y="0" onmousedown="handlePan(0,1)"/>
  <use id="arrowleft" xlink:href="#arrowLeft" x="0" y="0" onmousedown="handlePan(-1,0)"/>
</g>
<svg viewBox="0 0 15 15" width="100%" height="30px" preserveAspectRatio="xMaxYMin meet">
 <g id="arrow_out" transform="scale(0.3 0.3)">
  <a xlink:href="code__80057C60_8c_a83ec3480e8cda4760c311bc59213f3da_cgraph_org.svg" target="_base">
   <rect id="button" ry="5" rx="5" y="6" x="6" height="38" width="38"
        fill="#f2f5e9" fill-opacity="0.5" stroke="#606060" stroke-width="1.0"/>
   <path id="arrow"
     d="M 11.500037,31.436501 C 11.940474,20.09759 22.043105,11.32322 32.158766,21.979434 L 37.068811,17.246167 C 37.068811,17.246167 37.088388,32 37.088388,32 L 22.160133,31.978069 C 22.160133,31.978069 26.997745,27.140456 26.997745,27.140456 C 18.528582,18.264221 13.291696,25.230495 11.500037,31.436501 z"
     style="fill:#404040;"/>
  </a>
 </g>
</svg>

<style type='text/css'>
<![CDATA[
[data-mouse-over-selected='false'] { opacity: 0.7; }
[data-mouse-over-selected='true']  { opacity: 1.0; }
]]>
</style>
<script type="application/ecmascript"><![CDATA[
document.addEventListener('DOMContentLoaded', (event) => {
  highlightEdges();
  highlightAdjacentNodes();
});
]]></script>
</svg>
