<?xml version="1.0" encoding="UTF-8" standalone="no"?>
<!DOCTYPE svg PUBLIC "-//W3C//DTD SVG 1.1//EN"
 "http://www.w3.org/Graphics/SVG/1.1/DTD/svg11.dtd">
<!-- Generated by graphviz version 2.43.0 (0)
 -->
<!-- Title: func_8005ED48 Pages: 1 -->
<svg width="350pt" height="434pt"
 viewBox="0.00 0.00 350.00 434.00" xmlns="http://www.w3.org/2000/svg" xmlns:xlink="http://www.w3.org/1999/xlink">

<svg id="main" version="1.1" xmlns="http://www.w3.org/2000/svg" xmlns:xlink="http://www.w3.org/1999/xlink" xml:space="preserve">

<style type="text/css"><![CDATA[
.node, .edge {opacity: 0.7;}
.node.selected, .edge.selected {opacity: 1;}
.edge:hover path { stroke: red; }
.edge:hover polygon { stroke: red; fill: red; }
]]></style>
<script type="application/ecmascript" xlink:href="svg.min.js"/>
<svg id="graph" class="graph">
<g id="graph0" class="graph" transform="scale(1 1) rotate(0) translate(4 430)">
<title>func_8005ED48</title>
<!-- Node1 -->
<g id="Node000001" class="node">
<title>Node1</title>
<g id="a_Node000001"><a xlink:title=" ">
<polygon fill="#999999" stroke="#666666" points="92,-222 0,-222 0,-203 92,-203 92,-222"/>
<text text-anchor="middle" x="46" y="-210" font-family="Helvetica,sans-Serif" font-size="10.00">func_8005ED48</text>
</a>
</g>
</g>
<!-- Node2 -->
<g id="Node000002" class="node">
<title>Node2</title>
<g id="a_Node000002"><a xlink:href="code__80057C60_8c.html#a20a6f9c40d99f375e8fad9ba9c078acf" target="_top" xlink:title=" ">
<polygon fill="white" stroke="#666666" points="224.5,-426 132.5,-426 132.5,-407 224.5,-407 224.5,-426"/>
<text text-anchor="middle" x="178.5" y="-414" font-family="Helvetica,sans-Serif" font-size="10.00">func_8005D794</text>
</a>
</g>
</g>
<!-- Node1&#45;&gt;Node2 -->
<g id="edge1_Node000001_Node000002" class="edge">
<title>Node1&#45;&gt;Node2</title>
<g id="a_edge1_Node000001_Node000002"><a xlink:title=" ">
<path fill="none" stroke="#63b8ff" d="M48.46,-222.13C53.56,-252.48 73.34,-347.12 128,-398.5 129.12,-399.56 130.32,-400.55 131.56,-401.49"/>
<polygon fill="#63b8ff" stroke="#63b8ff" points="130.04,-404.66 140.4,-406.88 133.68,-398.69 130.04,-404.66"/>
</a>
</g>
</g>
<!-- Node3 -->
<g id="Node000003" class="node">
<title>Node3</title>
<g id="a_Node000003"><a xlink:href="code__80057C60_8c.html#a57792caa9602f8549cbc96315f5a8e3a" target="_top" xlink:title=" ">
<polygon fill="white" stroke="#666666" points="225.5,-389 131.5,-389 131.5,-370 225.5,-370 225.5,-389"/>
<text text-anchor="middle" x="178.5" y="-377" font-family="Helvetica,sans-Serif" font-size="10.00">func_8005D7D8</text>
</a>
</g>
</g>
<!-- Node1&#45;&gt;Node3 -->
<g id="edge2_Node000001_Node000003" class="edge">
<title>Node1&#45;&gt;Node3</title>
<g id="a_edge2_Node000001_Node000003"><a xlink:title=" ">
<path fill="none" stroke="#63b8ff" d="M49.58,-222.04C57.12,-248.15 81.59,-321.54 128,-361.5 129.36,-362.67 130.8,-363.76 132.3,-364.79"/>
<polygon fill="#63b8ff" stroke="#63b8ff" points="131,-368.08 141.43,-369.94 134.44,-361.98 131,-368.08"/>
</a>
</g>
</g>
<!-- Node4 -->
<g id="Node000004" class="node">
<title>Node4</title>
<g id="a_Node000004"><a xlink:href="code__80057C60_8c.html#a9f345279b2e554898280bb7fc4f90254" target="_top" xlink:title=" ">
<polygon fill="white" stroke="#666666" points="224.5,-352 132.5,-352 132.5,-333 224.5,-333 224.5,-352"/>
<text text-anchor="middle" x="178.5" y="-340" font-family="Helvetica,sans-Serif" font-size="10.00">func_8005D800</text>
</a>
</g>
</g>
<!-- Node1&#45;&gt;Node4 -->
<g id="edge3_Node000001_Node000004" class="edge">
<title>Node1&#45;&gt;Node4</title>
<g id="a_edge3_Node000001_Node000004"><a xlink:title=" ">
<path fill="none" stroke="#63b8ff" d="M51.43,-222.08C61.8,-243.49 89.7,-295.58 128,-324.5 129.81,-325.87 131.73,-327.14 133.73,-328.32"/>
<polygon fill="#63b8ff" stroke="#63b8ff" points="132.34,-331.53 142.84,-332.93 135.5,-325.29 132.34,-331.53"/>
</a>
</g>
</g>
<!-- Node5 -->
<g id="Node000005" class="node">
<title>Node5</title>
<g id="a_Node000005"><a xlink:href="code__80057C60_8c.html#a82ba77d855a23986248942cb5318960e" target="_top" xlink:title=" ">
<polygon fill="white" stroke="#666666" points="226,-315 131,-315 131,-296 226,-296 226,-315"/>
<text text-anchor="middle" x="178.5" y="-303" font-family="Helvetica,sans-Serif" font-size="10.00">func_8005DAD8</text>
</a>
</g>
</g>
<!-- Node1&#45;&gt;Node5 -->
<g id="edge4_Node000001_Node000005" class="edge">
<title>Node1&#45;&gt;Node5</title>
<g id="a_edge4_Node000001_Node000005"><a xlink:title=" ">
<path fill="none" stroke="#63b8ff" d="M55.03,-222.09C68.6,-237.75 97.57,-268.93 128,-287.5 130.61,-289.09 133.38,-290.57 136.23,-291.95"/>
<polygon fill="#63b8ff" stroke="#63b8ff" points="134.91,-295.19 145.47,-295.98 137.7,-288.78 134.91,-295.19"/>
</a>
</g>
</g>
<!-- Node6 -->
<g id="Node000006" class="node">
<title>Node6</title>
<g id="a_Node000006"><a xlink:href="Game_8cpp.html#a9f5c2ace915f66e850628695f297b1ff" target="_top" xlink:title=" ">
<polygon fill="white" stroke="#666666" points="229,-278 128,-278 128,-259 229,-259 229,-278"/>
<text text-anchor="middle" x="178.5" y="-266" font-family="Helvetica,sans-Serif" font-size="10.00">IsChocoMountain</text>
</a>
</g>
</g>
<!-- Node1&#45;&gt;Node6 -->
<g id="edge5_Node000001_Node000006" class="edge">
<title>Node1&#45;&gt;Node6</title>
<g id="a_edge5_Node000001_Node000006"><a xlink:title=" ">
<path fill="none" stroke="#63b8ff" d="M66.09,-222.05C82.37,-230.05 106.48,-241.56 128,-250.5 131.94,-252.14 136.09,-253.78 140.25,-255.36"/>
<polygon fill="#63b8ff" stroke="#63b8ff" points="139.25,-258.72 149.84,-258.94 141.69,-252.17 139.25,-258.72"/>
</a>
</g>
</g>
<!-- Node7 -->
<g id="Node000007" class="node">
<title>Node7</title>
<g id="a_Node000007"><a xlink:href="Game_8cpp.html#a545c1a384e93cc7b616dfee707f5d962" target="_top" xlink:title=" ">
<polygon fill="white" stroke="#666666" points="212.5,-241 144.5,-241 144.5,-222 212.5,-222 212.5,-241"/>
<text text-anchor="middle" x="178.5" y="-229" font-family="Helvetica,sans-Serif" font-size="10.00">IsDkJungle</text>
</a>
</g>
</g>
<!-- Node1&#45;&gt;Node7 -->
<g id="edge6_Node000001_Node000007" class="edge">
<title>Node1&#45;&gt;Node7</title>
<g id="a_edge6_Node000001_Node000007"><a xlink:title=" ">
<path fill="none" stroke="#63b8ff" d="M92.28,-219.09C105.89,-221.07 120.78,-223.24 134.25,-225.2"/>
<polygon fill="#63b8ff" stroke="#63b8ff" points="133.84,-228.68 144.24,-226.66 134.85,-221.75 133.84,-228.68"/>
</a>
</g>
</g>
<!-- Node8 -->
<g id="Node000008" class="node">
<title>Node8</title>
<g id="a_Node000008"><a xlink:href="Game_8cpp.html#ad474b8b257813cceeae25ab5205273c4" target="_top" xlink:title=" ">
<polygon fill="white" stroke="#666666" points="227.5,-204 129.5,-204 129.5,-185 227.5,-185 227.5,-204"/>
<text text-anchor="middle" x="178.5" y="-192" font-family="Helvetica,sans-Serif" font-size="10.00">IsKalimariDesert</text>
</a>
</g>
</g>
<!-- Node1&#45;&gt;Node8 -->
<g id="edge7_Node000001_Node000008" class="edge">
<title>Node1&#45;&gt;Node8</title>
<g id="a_edge7_Node000001_Node000008"><a xlink:title=" ">
<path fill="none" stroke="#63b8ff" d="M92.28,-206.25C100.94,-205.06 110.13,-203.79 119.13,-202.55"/>
<polygon fill="#63b8ff" stroke="#63b8ff" points="119.76,-206 129.19,-201.16 118.81,-199.06 119.76,-206"/>
</a>
</g>
</g>
<!-- Node9 -->
<g id="Node000009" class="node">
<title>Node9</title>
<g id="a_Node000009"><a xlink:href="Game_8cpp.html#a8a295fe1e3fdfa50223813feaca6d7d6" target="_top" xlink:title=" ">
<polygon fill="white" stroke="#666666" points="224,-167 133,-167 133,-148 224,-148 224,-167"/>
<text text-anchor="middle" x="178.5" y="-155" font-family="Helvetica,sans-Serif" font-size="10.00">IsMooMooFarm</text>
</a>
</g>
</g>
<!-- Node1&#45;&gt;Node9 -->
<g id="edge8_Node000001_Node000009" class="edge">
<title>Node1&#45;&gt;Node9</title>
<g id="a_edge8_Node000001_Node000009"><a xlink:title=" ">
<path fill="none" stroke="#63b8ff" d="M67.85,-202.88C84.13,-195.45 107.38,-185.03 128,-176.5 132.6,-174.6 137.46,-172.65 142.27,-170.77"/>
<polygon fill="#63b8ff" stroke="#63b8ff" points="143.9,-173.89 151.96,-167.01 141.37,-167.36 143.9,-173.89"/>
</a>
</g>
</g>
<!-- Node10 -->
<g id="Node000010" class="node">
<title>Node10</title>
<g id="a_Node000010"><a xlink:href="Game_8cpp.html#afb0bb7b7bc2b816a7a9fbedcc6c41ab7" target="_top" xlink:title=" ">
<polygon fill="white" stroke="#666666" points="227,-130 130,-130 130,-111 227,-111 227,-130"/>
<text text-anchor="middle" x="178.5" y="-118" font-family="Helvetica,sans-Serif" font-size="10.00">IsRoyalRaceway</text>
</a>
</g>
</g>
<!-- Node1&#45;&gt;Node10 -->
<g id="edge9_Node000001_Node000010" class="edge">
<title>Node1&#45;&gt;Node10</title>
<g id="a_edge9_Node000001_Node000010"><a xlink:title=" ">
<path fill="none" stroke="#63b8ff" d="M55.57,-202.75C69.45,-187.45 98.3,-157.71 128,-139.5 131.17,-137.56 134.57,-135.75 138.05,-134.1"/>
<polygon fill="#63b8ff" stroke="#63b8ff" points="139.57,-137.25 147.34,-130.05 136.78,-130.83 139.57,-137.25"/>
</a>
</g>
</g>
<!-- Node11 -->
<g id="Node000011" class="node">
<title>Node11</title>
<g id="a_Node000011"><a xlink:href="Game_8cpp.html#a1c60552e0107dfda214cbc9e83695321" target="_top" xlink:title=" ">
<polygon fill="white" stroke="#666666" points="225,-93 132,-93 132,-74 225,-74 225,-93"/>
<text text-anchor="middle" x="178.5" y="-81" font-family="Helvetica,sans-Serif" font-size="10.00">IsWarioStadium</text>
</a>
</g>
</g>
<!-- Node1&#45;&gt;Node11 -->
<g id="edge10_Node000001_Node000011" class="edge">
<title>Node1&#45;&gt;Node11</title>
<g id="a_edge10_Node000001_Node000011"><a xlink:title=" ">
<path fill="none" stroke="#63b8ff" d="M51.68,-202.82C62.34,-181.71 90.47,-131.11 128,-102.5 130.33,-100.72 132.85,-99.09 135.48,-97.6"/>
<polygon fill="#63b8ff" stroke="#63b8ff" points="137.26,-100.62 144.68,-93.05 134.16,-94.35 137.26,-100.62"/>
</a>
</g>
</g>
<!-- Node12 -->
<g id="Node000012" class="node">
<title>Node12</title>
<g id="a_Node000012"><a xlink:href="Game_8cpp.html#ab05bb065469940f40a5023c58a8f9e7f" target="_top" xlink:title=" ">
<polygon fill="white" stroke="#666666" points="218.5,-56 138.5,-56 138.5,-37 218.5,-37 218.5,-56"/>
<text text-anchor="middle" x="178.5" y="-44" font-family="Helvetica,sans-Serif" font-size="10.00">IsYoshiValley</text>
</a>
</g>
</g>
<!-- Node1&#45;&gt;Node12 -->
<g id="edge11_Node000001_Node000012" class="edge">
<title>Node1&#45;&gt;Node12</title>
<g id="a_edge11_Node000001_Node000012"><a xlink:title=" ">
<path fill="none" stroke="#63b8ff" d="M49.77,-202.76C57.63,-176.78 82.53,-105.13 128,-65.5 129.91,-63.83 131.99,-62.3 134.17,-60.9"/>
<polygon fill="#63b8ff" stroke="#63b8ff" points="135.86,-63.97 142.97,-56.12 132.52,-57.82 135.86,-63.97"/>
</a>
</g>
</g>
<!-- Node13 -->
<g id="Node000013" class="node">
<title>Node13</title>
<g id="a_Node000013"><a xlink:href="math__util_8c.html#a151b63b8adf9af7e4054b3b84bd226dc" target="_top" xlink:title=" ">
<polygon fill="white" stroke="#666666" points="214.5,-19 142.5,-19 142.5,0 214.5,0 214.5,-19"/>
<text text-anchor="middle" x="178.5" y="-7" font-family="Helvetica,sans-Serif" font-size="10.00">random_int</text>
</a>
</g>
</g>
<!-- Node1&#45;&gt;Node13 -->
<g id="edge12_Node000001_Node000013" class="edge">
<title>Node1&#45;&gt;Node13</title>
<g id="a_edge12_Node000001_Node000013"><a xlink:title=" ">
<path fill="none" stroke="#63b8ff" d="M48.61,-202.59C54.04,-172.23 74.43,-79.55 128,-28.5 129.68,-26.9 131.51,-25.43 133.44,-24.08"/>
<polygon fill="#63b8ff" stroke="#63b8ff" points="135.5,-26.93 142.42,-18.91 132.01,-20.87 135.5,-26.93"/>
</a>
</g>
</g>
<!-- Node14 -->
<g id="Node000014" class="node">
<title>Node14</title>
<g id="a_Node000014"><a xlink:href="math__util_8c.html#a062850863585005ad1d0a75d9ff70693" target="_top" xlink:title=" ">
<polygon fill="white" stroke="#666666" points="342,-19 265,-19 265,0 342,0 342,-19"/>
<text text-anchor="middle" x="303.5" y="-7" font-family="Helvetica,sans-Serif" font-size="10.00">random_u16</text>
</a>
</g>
</g>
<!-- Node13&#45;&gt;Node14 -->
<g id="edge13_Node000013_Node000014" class="edge">
<title>Node13&#45;&gt;Node14</title>
<g id="a_edge13_Node000013_Node000014"><a xlink:title=" ">
<path fill="none" stroke="#63b8ff" d="M214.75,-9.5C227.07,-9.5 241.12,-9.5 254.32,-9.5"/>
<polygon fill="#63b8ff" stroke="#63b8ff" points="254.67,-13 264.67,-9.5 254.67,-6 254.67,-13"/>
</a>
</g>
</g>
</g>
</svg>
</svg>

<style type='text/css'>
<![CDATA[
[data-mouse-over-selected='false'] { opacity: 0.7; }
[data-mouse-over-selected='true']  { opacity: 1.0; }
]]>
</style>
<script type="application/ecmascript"><![CDATA[
document.addEventListener('DOMContentLoaded', (event) => {
  highlightEdges();
  highlightAdjacentNodes();
});
]]></script>
</svg>
