<?xml version="1.0" encoding="UTF-8" standalone="no"?>
<!DOCTYPE svg PUBLIC "-//W3C//DTD SVG 1.1//EN"
 "http://www.w3.org/Graphics/SVG/1.1/DTD/svg11.dtd">
<!-- Generated by graphviz version 2.43.0 (0)
 -->
<!-- Title: func_80060F50 Pages: 1 -->
<svg width="253pt" height="261pt"
 viewBox="0.00 0.00 253.00 261.00" xmlns="http://www.w3.org/2000/svg" xmlns:xlink="http://www.w3.org/1999/xlink">
<g id="graph0" class="graph" transform="scale(1 1) rotate(0) translate(4 257)">
<title>func_80060F50</title>
<!-- Node1 -->
<g id="Node000001" class="node">
<title>Node1</title>
<g id="a_Node000001"><a xlink:title=" ">
<polygon fill="#999999" stroke="#666666" points="91,-142 0,-142 0,-123 91,-123 91,-142"/>
<text text-anchor="middle" x="45.5" y="-130" font-family="Helvetica,sans-Serif" font-size="10.00">func_80060F50</text>
</a>
</g>
</g>
<!-- Node2 -->
<g id="Node000002" class="node">
<title>Node2</title>
<g id="a_Node000002"><a xlink:href="math__util_8c.html#ae69cbf5c8d4b3b0dba2d7b4d4673689f" target="_top" xlink:title=" ">
<polygon fill="white" stroke="#666666" points="205,-253 167,-253 167,-234 205,-234 205,-253"/>
<text text-anchor="middle" x="186" y="-241" font-family="Helvetica,sans-Serif" font-size="10.00">coss</text>
</a>
</g>
</g>
<!-- Node1&#45;&gt;Node2 -->
<g id="edge1_Node000001_Node000002" class="edge">
<title>Node1&#45;&gt;Node2</title>
<g id="a_edge1_Node000001_Node000002"><a xlink:title=" ">
<path fill="none" stroke="#63b8ff" d="M52.28,-142.23C63.98,-161.11 92.33,-202.83 127,-225.5 135.97,-231.37 146.97,-235.41 156.96,-238.16"/>
<polygon fill="#63b8ff" stroke="#63b8ff" points="156.35,-241.61 166.89,-240.57 158,-234.81 156.35,-241.61"/>
</a>
</g>
</g>
<!-- Node3 -->
<g id="Node000003" class="node">
<title>Node3</title>
<g id="a_Node000003"><a xlink:href="code__80057C60_8c.html#adadc33503d028551f7ff287211cec866" target="_top" xlink:title=" ">
<polygon fill="white" stroke="#666666" points="241,-216 131,-216 131,-197 241,-197 241,-216"/>
<text text-anchor="middle" x="186" y="-204" font-family="Helvetica,sans-Serif" font-size="10.00">init_particle_player</text>
</a>
</g>
</g>
<!-- Node1&#45;&gt;Node3 -->
<g id="edge2_Node000001_Node000003" class="edge">
<title>Node1&#45;&gt;Node3</title>
<g id="a_edge2_Node000001_Node000003"><a xlink:title=" ">
<path fill="none" stroke="#63b8ff" d="M57.79,-142.05C72.76,-154.3 100.38,-175.5 127,-188.5 130.73,-190.32 134.69,-192.01 138.71,-193.56"/>
<polygon fill="#63b8ff" stroke="#63b8ff" points="137.55,-196.86 148.14,-196.93 139.9,-190.27 137.55,-196.86"/>
</a>
</g>
</g>
<!-- Node4 -->
<g id="Node000004" class="node">
<title>Node4</title>
<g id="a_Node000004"><a xlink:href="Game_8cpp.html#ac015fe2f0caa481693b5a07997bf69b6" target="_top" xlink:title=" ">
<polygon fill="white" stroke="#666666" points="221,-179 151,-179 151,-160 221,-160 221,-179"/>
<text text-anchor="middle" x="186" y="-167" font-family="Helvetica,sans-Serif" font-size="10.00">IsBigDonut</text>
</a>
</g>
</g>
<!-- Node1&#45;&gt;Node4 -->
<g id="edge3_Node000001_Node000004" class="edge">
<title>Node1&#45;&gt;Node4</title>
<g id="a_edge3_Node000001_Node000004"><a xlink:title=" ">
<path fill="none" stroke="#63b8ff" d="M82.17,-142.03C100.1,-146.82 122,-152.67 140.98,-157.74"/>
<polygon fill="#63b8ff" stroke="#63b8ff" points="140.32,-161.19 150.89,-160.39 142.13,-154.42 140.32,-161.19"/>
</a>
</g>
</g>
<!-- Node5 -->
<g id="Node000005" class="node">
<title>Node5</title>
<g id="a_Node000005"><a xlink:href="Game_8cpp.html#a8ebd6a4d970e4333ab5a9dd66c3d9c48" target="_top" xlink:title=" ">
<polygon fill="white" stroke="#666666" points="234.5,-142 137.5,-142 137.5,-123 234.5,-123 234.5,-142"/>
<text text-anchor="middle" x="186" y="-130" font-family="Helvetica,sans-Serif" font-size="10.00">IsBowsersCastle</text>
</a>
</g>
</g>
<!-- Node1&#45;&gt;Node5 -->
<g id="edge4_Node000001_Node000005" class="edge">
<title>Node1&#45;&gt;Node5</title>
<g id="a_edge4_Node000001_Node000005"><a xlink:title=" ">
<path fill="none" stroke="#63b8ff" d="M91.08,-132.5C102.46,-132.5 114.86,-132.5 126.81,-132.5"/>
<polygon fill="#63b8ff" stroke="#63b8ff" points="127.15,-136 137.15,-132.5 127.15,-129 127.15,-136"/>
</a>
</g>
</g>
<!-- Node6 -->
<g id="Node000006" class="node">
<title>Node6</title>
<g id="a_Node000006"><a xlink:href="code__80057C60_8c.html#a9b0ac8e0d6cf03d0d0b90e74005a0db0" target="_top" xlink:title=" ">
<polygon fill="white" stroke="#666666" points="240.5,-105 131.5,-105 131.5,-86 240.5,-86 240.5,-105"/>
<text text-anchor="middle" x="186" y="-93" font-family="Helvetica,sans-Serif" font-size="10.00">set_particle_colour</text>
</a>
</g>
</g>
<!-- Node1&#45;&gt;Node6 -->
<g id="edge5_Node000001_Node000006" class="edge">
<title>Node1&#45;&gt;Node6</title>
<g id="a_edge5_Node000001_Node000006"><a xlink:title=" ">
<path fill="none" stroke="#63b8ff" d="M82.17,-122.97C99.56,-118.33 120.68,-112.68 139.25,-107.72"/>
<polygon fill="#63b8ff" stroke="#63b8ff" points="140.21,-111.09 148.97,-105.12 138.41,-104.32 140.21,-111.09"/>
</a>
</g>
</g>
<!-- Node7 -->
<g id="Node000007" class="node">
<title>Node7</title>
<g id="a_Node000007"><a xlink:href="code__80057C60_8c.html#ac8b630d47ab75e16c92696c4b18c5a1e" target="_top" xlink:title=" ">
<polygon fill="white" stroke="#666666" points="245,-67.5 127,-67.5 127,-37.5 245,-37.5 245,-67.5"/>
<text text-anchor="start" x="135" y="-55.5" font-family="Helvetica,sans-Serif" font-size="10.00">set_particle_position</text>
<text text-anchor="middle" x="186" y="-44.5" font-family="Helvetica,sans-Serif" font-size="10.00">_and_rotation</text>
</a>
</g>
</g>
<!-- Node1&#45;&gt;Node7 -->
<g id="edge6_Node000001_Node000007" class="edge">
<title>Node1&#45;&gt;Node7</title>
<g id="a_edge6_Node000001_Node000007"><a xlink:title=" ">
<path fill="none" stroke="#63b8ff" d="M58.84,-122.95C74.24,-111.31 101.64,-91.46 127,-77.5 130.47,-75.59 134.11,-73.72 137.81,-71.92"/>
<polygon fill="#63b8ff" stroke="#63b8ff" points="139.48,-75.01 147.05,-67.6 136.51,-68.67 139.48,-75.01"/>
</a>
</g>
</g>
<!-- Node8 -->
<g id="Node000008" class="node">
<title>Node8</title>
<g id="a_Node000008"><a xlink:href="math__util_8c.html#a19ed3bd78fd2d3e2bd0a29f6caf48545" target="_top" xlink:title=" ">
<polygon fill="white" stroke="#666666" points="204,-19 168,-19 168,0 204,0 204,-19"/>
<text text-anchor="middle" x="186" y="-7" font-family="Helvetica,sans-Serif" font-size="10.00">sins</text>
</a>
</g>
</g>
<!-- Node1&#45;&gt;Node8 -->
<g id="edge7_Node000001_Node000008" class="edge">
<title>Node1&#45;&gt;Node8</title>
<g id="a_edge7_Node000001_Node000008"><a xlink:title=" ">
<path fill="none" stroke="#63b8ff" d="M51.34,-122.92C62.1,-102.52 90.06,-54.56 127,-28.5 136.16,-22.04 147.65,-17.68 157.98,-14.78"/>
<polygon fill="#63b8ff" stroke="#63b8ff" points="158.93,-18.15 167.79,-12.34 157.25,-11.35 158.93,-18.15"/>
</a>
</g>
</g>
</g>
</svg>
