<?xml version="1.0" encoding="UTF-8" standalone="no"?>
<!DOCTYPE svg PUBLIC "-//W3C//DTD SVG 1.1//EN"
 "http://www.w3.org/Graphics/SVG/1.1/DTD/svg11.dtd">
<!-- Generated by graphviz version 2.43.0 (0)
 -->
<!-- Title: func_8005CB60 Pages: 1 -->
<svg width="405pt" height="323pt"
 viewBox="0.00 0.00 405.00 323.00" xmlns="http://www.w3.org/2000/svg" xmlns:xlink="http://www.w3.org/1999/xlink">

<svg id="main" version="1.1" xmlns="http://www.w3.org/2000/svg" xmlns:xlink="http://www.w3.org/1999/xlink" xml:space="preserve">

<style type="text/css"><![CDATA[
.node, .edge {opacity: 0.7;}
.node.selected, .edge.selected {opacity: 1;}
.edge:hover path { stroke: red; }
.edge:hover polygon { stroke: red; fill: red; }
]]></style>
<script type="application/ecmascript" xlink:href="svg.min.js"/>
<svg id="graph" class="graph">
<g id="graph0" class="graph" transform="scale(1 1) rotate(0) translate(4 319)">
<title>func_8005CB60</title>
<!-- Node1 -->
<g id="Node000001" class="node">
<title>Node1</title>
<g id="a_Node000001"><a xlink:title=" ">
<polygon fill="#999999" stroke="#666666" points="92,-167 0,-167 0,-148 92,-148 92,-167"/>
<text text-anchor="middle" x="46" y="-155" font-family="Helvetica,sans-Serif" font-size="10.00">func_8005CB60</text>
</a>
</g>
</g>
<!-- Node2 -->
<g id="Node000002" class="node">
<title>Node2</title>
<g id="a_Node000002"><a xlink:href="Game_8cpp.html#a7ad8bd6ab5cb1d16d5f6120d0288b1eb" target="_top" xlink:title=" ">
<polygon fill="white" stroke="#666666" points="283,-315 134,-315 134,-296 283,-296 283,-315"/>
<text text-anchor="middle" x="208.5" y="-303" font-family="Helvetica,sans-Serif" font-size="10.00">CM_ActivateFinalLapLakitu</text>
</a>
</g>
</g>
<!-- Node1&#45;&gt;Node2 -->
<g id="edge1_Node000001_Node000002" class="edge">
<title>Node1&#45;&gt;Node2</title>
<g id="a_edge1_Node000001_Node000002"><a xlink:title=" ">
<path fill="none" stroke="#63b8ff" d="M50.07,-167.16C58.36,-191.55 83.57,-255.91 128,-287.5 129.92,-288.87 131.93,-290.13 134,-291.3"/>
<polygon fill="#63b8ff" stroke="#63b8ff" points="132.94,-294.67 143.47,-295.85 135.97,-288.36 132.94,-294.67"/>
</a>
</g>
</g>
<!-- Node3 -->
<g id="Node000003" class="node">
<title>Node3</title>
<g id="a_Node000003"><a xlink:href="Game_8cpp.html#a9689aae9cead5040be5b1527fe877348" target="_top" xlink:title=" ">
<polygon fill="white" stroke="#666666" points="277,-278 140,-278 140,-259 277,-259 277,-278"/>
<text text-anchor="middle" x="208.5" y="-266" font-family="Helvetica,sans-Serif" font-size="10.00">CM_ActivateFinishLakitu</text>
</a>
</g>
</g>
<!-- Node1&#45;&gt;Node3 -->
<g id="edge2_Node000001_Node000003" class="edge">
<title>Node1&#45;&gt;Node3</title>
<g id="a_edge2_Node000001_Node000003"><a xlink:title=" ">
<path fill="none" stroke="#63b8ff" d="M52.5,-167.18C63.92,-186.34 92.16,-229.09 128,-250.5 130.86,-252.21 133.86,-253.75 136.95,-255.15"/>
<polygon fill="#63b8ff" stroke="#63b8ff" points="135.89,-258.49 146.47,-258.92 138.46,-251.98 135.89,-258.49"/>
</a>
</g>
</g>
<!-- Node4 -->
<g id="Node000004" class="node">
<title>Node4</title>
<g id="a_Node000004"><a xlink:href="Game_8cpp.html#aca28fc6c99e2eb58e798af9893d3745e" target="_top" xlink:title=" ">
<polygon fill="white" stroke="#666666" points="289,-241 128,-241 128,-222 289,-222 289,-241"/>
<text text-anchor="middle" x="208.5" y="-229" font-family="Helvetica,sans-Serif" font-size="10.00">CM_ActivateSecondLapLakitu</text>
</a>
</g>
</g>
<!-- Node1&#45;&gt;Node4 -->
<g id="edge3_Node000001_Node000004" class="edge">
<title>Node1&#45;&gt;Node4</title>
<g id="a_edge3_Node000001_Node000004"><a xlink:title=" ">
<path fill="none" stroke="#63b8ff" d="M57.97,-167.16C72.81,-179.72 100.61,-201.47 128,-213.5 132.66,-215.55 137.58,-217.37 142.59,-219"/>
<polygon fill="#63b8ff" stroke="#63b8ff" points="141.72,-222.39 152.3,-221.89 143.72,-215.68 141.72,-222.39"/>
</a>
</g>
</g>
<!-- Node5 -->
<g id="Node000005" class="node">
<title>Node5</title>
<g id="a_Node000005"><a xlink:href="math__util__2_8c.html#a1f3982f853bea1b49c3733f209dbb903" target="_top" xlink:title=" ">
<polygon fill="white" stroke="#666666" points="260,-204 157,-204 157,-185 260,-185 260,-204"/>
<text text-anchor="middle" x="208.5" y="-192" font-family="Helvetica,sans-Serif" font-size="10.00">f32_step_towards</text>
</a>
</g>
</g>
<!-- Node1&#45;&gt;Node5 -->
<g id="edge4_Node000001_Node000005" class="edge">
<title>Node1&#45;&gt;Node5</title>
<g id="a_edge4_Node000001_Node000005"><a xlink:title=" ">
<path fill="none" stroke="#63b8ff" d="M87.36,-167.03C100.33,-170.08 114.77,-173.45 128,-176.5 136.72,-178.51 145.98,-180.62 154.98,-182.67"/>
<polygon fill="#63b8ff" stroke="#63b8ff" points="154.46,-186.14 164.99,-184.94 156.01,-179.31 154.46,-186.14"/>
</a>
</g>
</g>
<!-- Node6 -->
<g id="Node000006" class="node">
<title>Node6</title>
<g id="a_Node000006"><a xlink:href="external_8c.html#a2be9efc97a92e19d02aaee90d676acc1" target="_top" xlink:title=" ">
<polygon fill="white" stroke="#666666" points="254.5,-167 162.5,-167 162.5,-148 254.5,-148 254.5,-167"/>
<text text-anchor="middle" x="208.5" y="-155" font-family="Helvetica,sans-Serif" font-size="10.00">func_800C9060</text>
</a>
</g>
</g>
<!-- Node1&#45;&gt;Node6 -->
<g id="edge5_Node000001_Node000006" class="edge">
<title>Node1&#45;&gt;Node6</title>
<g id="a_edge5_Node000001_Node000006"><a xlink:title=" ">
<path fill="none" stroke="#63b8ff" d="M92.14,-157.5C110.85,-157.5 132.73,-157.5 152.38,-157.5"/>
<polygon fill="#63b8ff" stroke="#63b8ff" points="152.43,-161 162.43,-157.5 152.43,-154 152.43,-161"/>
</a>
</g>
</g>
<!-- Node8 -->
<g id="Node000008" class="node">
<title>Node8</title>
<g id="a_Node000008"><a xlink:href="external_8c.html#a337fc3ab94ebb3293a85908229303ac8" target="_top" xlink:title=" ">
<polygon fill="white" stroke="#666666" points="254.5,-130 162.5,-130 162.5,-111 254.5,-111 254.5,-130"/>
<text text-anchor="middle" x="208.5" y="-118" font-family="Helvetica,sans-Serif" font-size="10.00">func_800C90F4</text>
</a>
</g>
</g>
<!-- Node1&#45;&gt;Node8 -->
<g id="edge7_Node000001_Node000008" class="edge">
<title>Node1&#45;&gt;Node8</title>
<g id="a_edge7_Node000001_Node000008"><a xlink:title=" ">
<path fill="none" stroke="#63b8ff" d="M88.33,-147.97C109.03,-143.2 134.29,-137.38 156.22,-132.32"/>
<polygon fill="#63b8ff" stroke="#63b8ff" points="157.07,-135.72 166.03,-130.06 155.5,-128.9 157.07,-135.72"/>
</a>
</g>
</g>
<!-- Node9 -->
<g id="Node000009" class="node">
<title>Node9</title>
<g id="a_Node000009"><a xlink:href="Game_8cpp.html#a2d7429dca77188f881bf1c340271ea90" target="_top" xlink:title=" ">
<polygon fill="white" stroke="#666666" points="254.5,-93 162.5,-93 162.5,-74 254.5,-74 254.5,-93"/>
<text text-anchor="middle" x="208.5" y="-81" font-family="Helvetica,sans-Serif" font-size="10.00">IsLuigiRaceway</text>
</a>
</g>
</g>
<!-- Node1&#45;&gt;Node9 -->
<g id="edge9_Node000001_Node000009" class="edge">
<title>Node1&#45;&gt;Node9</title>
<g id="a_edge9_Node000001_Node000009"><a xlink:title=" ">
<path fill="none" stroke="#63b8ff" d="M58.28,-147.86C73.25,-135.56 100.94,-114.44 128,-102.5 135.75,-99.08 144.2,-96.23 152.61,-93.85"/>
<polygon fill="#63b8ff" stroke="#63b8ff" points="153.63,-97.21 162.42,-91.29 151.85,-90.43 153.63,-97.21"/>
</a>
</g>
</g>
<!-- Node10 -->
<g id="Node000010" class="node">
<title>Node10</title>
<g id="a_Node000010"><a xlink:href="Game_8cpp.html#ab05bb065469940f40a5023c58a8f9e7f" target="_top" xlink:title=" ">
<polygon fill="white" stroke="#666666" points="248.5,-56 168.5,-56 168.5,-37 248.5,-37 248.5,-56"/>
<text text-anchor="middle" x="208.5" y="-44" font-family="Helvetica,sans-Serif" font-size="10.00">IsYoshiValley</text>
</a>
</g>
</g>
<!-- Node1&#45;&gt;Node10 -->
<g id="edge10_Node000001_Node000010" class="edge">
<title>Node1&#45;&gt;Node10</title>
<g id="a_edge10_Node000001_Node000010"><a xlink:title=" ">
<path fill="none" stroke="#63b8ff" d="M52.55,-147.96C64.06,-129.08 92.44,-86.9 128,-65.5 137.21,-59.95 147.94,-56.03 158.47,-53.25"/>
<polygon fill="#63b8ff" stroke="#63b8ff" points="159.52,-56.6 168.46,-50.92 157.93,-49.78 159.52,-56.6"/>
</a>
</g>
</g>
<!-- Node11 -->
<g id="Node000011" class="node">
<title>Node11</title>
<g id="a_Node000011"><a xlink:href="math__util__2_8c.html#a8beaa5d8880766ff4d0c9c1a1504be79" target="_top" xlink:title=" ">
<polygon fill="white" stroke="#666666" points="260.5,-19 156.5,-19 156.5,0 260.5,0 260.5,-19"/>
<text text-anchor="middle" x="208.5" y="-7" font-family="Helvetica,sans-Serif" font-size="10.00">s16_step_towards</text>
</a>
</g>
</g>
<!-- Node1&#45;&gt;Node11 -->
<g id="edge11_Node000001_Node000011" class="edge">
<title>Node1&#45;&gt;Node11</title>
<g id="a_edge11_Node000001_Node000011"><a xlink:title=" ">
<path fill="none" stroke="#63b8ff" d="M50.12,-147.94C58.51,-123.81 83.95,-60.1 128,-28.5 133.58,-24.5 139.89,-21.33 146.45,-18.82"/>
<polygon fill="#63b8ff" stroke="#63b8ff" points="147.8,-22.07 156.19,-15.61 145.6,-15.42 147.8,-22.07"/>
</a>
</g>
</g>
<!-- Node7 -->
<g id="Node000007" class="node">
<title>Node7</title>
<g id="a_Node000007"><a xlink:href="external_8c.html#a475cff796211891556f52877cd8e9b9e" target="_top" xlink:title=" ">
<polygon fill="white" stroke="#666666" points="397,-148 325,-148 325,-129 397,-129 397,-148"/>
<text text-anchor="middle" x="361" y="-136" font-family="Helvetica,sans-Serif" font-size="10.00">play_sound</text>
</a>
</g>
</g>
<!-- Node6&#45;&gt;Node7 -->
<g id="edge6_Node000006_Node000007" class="edge">
<title>Node6&#45;&gt;Node7</title>
<g id="a_edge6_Node000006_Node000007"><a xlink:title=" ">
<path fill="none" stroke="#63b8ff" d="M254.65,-151.8C273.74,-149.39 295.91,-146.59 314.98,-144.18"/>
<polygon fill="#63b8ff" stroke="#63b8ff" points="315.44,-147.65 324.92,-142.93 314.56,-140.71 315.44,-147.65"/>
</a>
</g>
</g>
<!-- Node8&#45;&gt;Node7 -->
<g id="edge8_Node000008_Node000007" class="edge">
<title>Node8&#45;&gt;Node7</title>
<g id="a_edge8_Node000008_Node000007"><a xlink:title=" ">
<path fill="none" stroke="#63b8ff" d="M254.65,-125.9C273.74,-128.18 295.91,-130.83 314.98,-133.12"/>
<polygon fill="#63b8ff" stroke="#63b8ff" points="314.58,-136.59 324.92,-134.3 315.41,-129.64 314.58,-136.59"/>
</a>
</g>
</g>
</g>
</svg>
</svg>

<style type='text/css'>
<![CDATA[
[data-mouse-over-selected='false'] { opacity: 0.7; }
[data-mouse-over-selected='true']  { opacity: 1.0; }
]]>
</style>
<script type="application/ecmascript"><![CDATA[
document.addEventListener('DOMContentLoaded', (event) => {
  highlightEdges();
  highlightAdjacentNodes();
});
]]></script>
</svg>
