<?xml version="1.0" encoding="UTF-8" standalone="no"?>
<!DOCTYPE svg PUBLIC "-//W3C//DTD SVG 1.1//EN"
 "http://www.w3.org/Graphics/SVG/1.1/DTD/svg11.dtd">
<!-- Generated by graphviz version 2.43.0 (0)
 -->
<!-- Title: func_80067964 Pages: 1 -->
<svg width="835pt" height="259pt"
 viewBox="0.00 0.00 835.00 258.50" xmlns="http://www.w3.org/2000/svg" xmlns:xlink="http://www.w3.org/1999/xlink">
<g id="graph0" class="graph" transform="scale(1 1) rotate(0) translate(4 254.5)">
<title>func_80067964</title>
<!-- Node1 -->
<g id="Node000001" class="node">
<title>Node1</title>
<g id="a_Node000001"><a xlink:title=" ">
<polygon fill="#999999" stroke="#666666" points="91,-81 0,-81 0,-62 91,-62 91,-81"/>
<text text-anchor="middle" x="45.5" y="-69" font-family="Helvetica,sans-Serif" font-size="10.00">func_80067964</text>
</a>
</g>
</g>
<!-- Node2 -->
<g id="Node000002" class="node">
<title>Node2</title>
<g id="a_Node000002"><a xlink:href="code__80057C60_8c.html#afe48d8fb3ea987ea8782c445f30eb8c3" target="_top" xlink:title=" ">
<polygon fill="white" stroke="#666666" points="219,-118 127,-118 127,-99 219,-99 219,-118"/>
<text text-anchor="middle" x="173" y="-106" font-family="Helvetica,sans-Serif" font-size="10.00">func_800652D4</text>
</a>
</g>
</g>
<!-- Node1&#45;&gt;Node2 -->
<g id="edge1_Node000001_Node000002" class="edge">
<title>Node1&#45;&gt;Node2</title>
<g id="a_edge1_Node000001_Node000002"><a xlink:title=" ">
<path fill="none" stroke="#63b8ff" d="M78.82,-81.03C94.22,-85.57 112.84,-91.06 129.37,-95.93"/>
<polygon fill="#63b8ff" stroke="#63b8ff" points="128.77,-99.4 139.35,-98.88 130.75,-92.69 128.77,-99.4"/>
</a>
</g>
</g>
<!-- Node14 -->
<g id="Node000014" class="node">
<title>Node14</title>
<g id="a_Node000014"><a xlink:href="GBIMiddleware_8cpp.html#a4ecc44e3c6f1ca5a6b4a20c41d3bd2d2" target="_top" xlink:title=" ">
<polygon fill="white" stroke="#666666" points="217.5,-81 128.5,-81 128.5,-62 217.5,-62 217.5,-81"/>
<text text-anchor="middle" x="173" y="-69" font-family="Helvetica,sans-Serif" font-size="10.00">gSPDisplayList</text>
</a>
</g>
</g>
<!-- Node1&#45;&gt;Node14 -->
<g id="edge15_Node000001_Node000014" class="edge">
<title>Node1&#45;&gt;Node14</title>
<g id="a_edge15_Node000001_Node000014"><a xlink:title=" ">
<path fill="none" stroke="#63b8ff" d="M91.1,-71.5C99.9,-71.5 109.23,-71.5 118.3,-71.5"/>
<polygon fill="#63b8ff" stroke="#63b8ff" points="118.39,-75 128.39,-71.5 118.39,-68 118.39,-75"/>
</a>
</g>
</g>
<!-- Node17 -->
<g id="Node000017" class="node">
<title>Node17</title>
<g id="a_Node000017"><a xlink:href="GBIMiddleware_8cpp.html#aeef79449a27a710d73576e4a4f7f7f99" target="_top" xlink:title=" ">
<polygon fill="white" stroke="#666666" points="206,-44 140,-44 140,-25 206,-25 206,-44"/>
<text text-anchor="middle" x="173" y="-32" font-family="Helvetica,sans-Serif" font-size="10.00">gSPVertex</text>
</a>
</g>
</g>
<!-- Node1&#45;&gt;Node17 -->
<g id="edge18_Node000001_Node000017" class="edge">
<title>Node1&#45;&gt;Node17</title>
<g id="a_edge18_Node000001_Node000017"><a xlink:title=" ">
<path fill="none" stroke="#63b8ff" d="M78.82,-61.97C94.34,-57.4 113.13,-51.86 129.76,-46.95"/>
<polygon fill="#63b8ff" stroke="#63b8ff" points="131.19,-50.18 139.79,-44 129.21,-43.47 131.19,-50.18"/>
</a>
</g>
</g>
<!-- Node3 -->
<g id="Node000003" class="node">
<title>Node3</title>
<g id="a_Node000003"><a xlink:href="Matrix_8cpp.html#abcc586bf25e812a2fcaea1cd869a626b" target="_top" xlink:title=" ">
<polygon fill="white" stroke="#666666" points="377,-202 282,-202 282,-183 377,-183 377,-202"/>
<text text-anchor="middle" x="329.5" y="-190" font-family="Helvetica,sans-Serif" font-size="10.00">AddEffectMatrix</text>
</a>
</g>
</g>
<!-- Node2&#45;&gt;Node3 -->
<g id="edge2_Node000002_Node000003" class="edge">
<title>Node2&#45;&gt;Node3</title>
<g id="a_edge2_Node000002_Node000003"><a xlink:title=" ">
<path fill="none" stroke="#63b8ff" d="M186.03,-118.21C201.36,-130.23 228.98,-150.81 255,-164.5 265.65,-170.11 277.69,-175.17 288.89,-179.41"/>
<polygon fill="#63b8ff" stroke="#63b8ff" points="287.87,-182.76 298.46,-182.9 290.27,-176.18 287.87,-182.76"/>
</a>
</g>
</g>
<!-- Node8 -->
<g id="Node000008" class="node">
<title>Node8</title>
<g id="a_Node000008"><a xlink:href="math__util_8c.html#aca95a220db79fe028b35270f35a4a7b3" target="_top" xlink:title=" ">
<polygon fill="white" stroke="#666666" points="365,-155 294,-155 294,-136 365,-136 365,-155"/>
<text text-anchor="middle" x="329.5" y="-143" font-family="Helvetica,sans-Serif" font-size="10.00">mtxf_scale</text>
</a>
</g>
</g>
<!-- Node2&#45;&gt;Node8 -->
<g id="edge7_Node000002_Node000008" class="edge">
<title>Node2&#45;&gt;Node8</title>
<g id="a_edge7_Node000002_Node000008"><a xlink:title=" ">
<path fill="none" stroke="#63b8ff" d="M213.79,-118.03C235.26,-123.17 261.84,-129.54 284,-134.84"/>
<polygon fill="#63b8ff" stroke="#63b8ff" points="283.3,-138.27 293.84,-137.2 284.93,-131.47 283.3,-138.27"/>
</a>
</g>
</g>
<!-- Node10 -->
<g id="Node000010" class="node">
<title>Node10</title>
<g id="a_Node000010"><a xlink:href="render__player_8c.html#a565e21fd6aa0dacea58fb8a0e4304772" target="_top" xlink:title=" ">
<polygon fill="white" stroke="#666666" points="391,-99 268,-99 268,-80 391,-80 391,-99"/>
<text text-anchor="middle" x="329.5" y="-87" font-family="Helvetica,sans-Serif" font-size="10.00">mtxf_translate_rotate</text>
</a>
</g>
</g>
<!-- Node2&#45;&gt;Node10 -->
<g id="edge10_Node000002_Node000010" class="edge">
<title>Node2&#45;&gt;Node10</title>
<g id="a_edge10_Node000002_Node000010"><a xlink:title=" ">
<path fill="none" stroke="#63b8ff" d="M219.1,-102.95C231.24,-101.46 244.67,-99.81 257.83,-98.19"/>
<polygon fill="#63b8ff" stroke="#63b8ff" points="258.33,-101.66 267.83,-96.96 257.48,-94.71 258.33,-101.66"/>
</a>
</g>
</g>
<!-- Node4 -->
<g id="Node000004" class="node">
<title>Node4</title>
<g id="a_Node000004"><a xlink:href="Matrix_8cpp.html#aaa0983157188edefc6259671ccda6746" target="_top" xlink:title=" ">
<polygon fill="white" stroke="#666666" points="507,-208 440,-208 440,-189 507,-189 507,-208"/>
<text text-anchor="middle" x="473.5" y="-196" font-family="Helvetica,sans-Serif" font-size="10.00">AddMatrix</text>
</a>
</g>
</g>
<!-- Node3&#45;&gt;Node4 -->
<g id="edge3_Node000003_Node000004" class="edge">
<title>Node3&#45;&gt;Node4</title>
<g id="a_edge3_Node000003_Node000004"><a xlink:title=" ">
<path fill="none" stroke="#63b8ff" d="M377.39,-194.48C394.09,-195.19 412.81,-195.98 429.19,-196.67"/>
<polygon fill="#63b8ff" stroke="#63b8ff" points="429.44,-200.18 439.58,-197.11 429.74,-193.19 429.44,-200.18"/>
</a>
</g>
</g>
<!-- Node5 -->
<g id="Node000005" class="node">
<title>Node5</title>
<g id="a_Node000005"><a xlink:href="FrameInterpolation_8cpp.html#a8cf1f2d6fabc6925aa71a9515341b4aa" target="_top" xlink:title=" ">
<polygon fill="white" stroke="#666666" points="683,-250.5 543,-250.5 543,-220.5 683,-220.5 683,-250.5"/>
<text text-anchor="start" x="551" y="-238.5" font-family="Helvetica,sans-Serif" font-size="10.00">FrameInterpolation</text>
<text text-anchor="middle" x="613" y="-227.5" font-family="Helvetica,sans-Serif" font-size="10.00">_RecordMatrixMtxFToMtx</text>
</a>
</g>
</g>
<!-- Node4&#45;&gt;Node5 -->
<g id="edge4_Node000004_Node000005" class="edge">
<title>Node4&#45;&gt;Node5</title>
<g id="a_edge4_Node000004_Node000005"><a xlink:title=" ">
<path fill="none" stroke="#63b8ff" d="M507.09,-207.27C518.84,-210.43 532.58,-214.13 546.16,-217.78"/>
<polygon fill="#63b8ff" stroke="#63b8ff" points="545.42,-221.21 555.99,-220.43 547.24,-214.45 545.42,-221.21"/>
</a>
</g>
</g>
<!-- Node7 -->
<g id="Node000007" class="node">
<title>Node7</title>
<g id="a_Node000007"><a xlink:href="guMtxF2L_8c.html#a40ab2d64c609839ff1e0ef0de2d0dcc4" target="_top" xlink:title=" ">
<polygon fill="white" stroke="#666666" points="645.5,-202 580.5,-202 580.5,-183 645.5,-183 645.5,-202"/>
<text text-anchor="middle" x="613" y="-190" font-family="Helvetica,sans-Serif" font-size="10.00">guMtxF2L</text>
</a>
</g>
</g>
<!-- Node4&#45;&gt;Node7 -->
<g id="edge6_Node000004_Node000007" class="edge">
<title>Node4&#45;&gt;Node7</title>
<g id="a_edge6_Node000004_Node000007"><a xlink:title=" ">
<path fill="none" stroke="#63b8ff" d="M507.09,-197.08C525.89,-196.26 549.73,-195.22 569.93,-194.34"/>
<polygon fill="#63b8ff" stroke="#63b8ff" points="570.28,-197.82 580.12,-193.89 569.98,-190.83 570.28,-197.82"/>
</a>
</g>
</g>
<!-- Node6 -->
<g id="Node000006" class="node">
<title>Node6</title>
<g id="a_Node000006"><a xlink:href="FrameInterpolation_8cpp.html#a02c7ac5342a4d376edee38f312b480bf" target="_top" xlink:title=" ">
<polygon fill="white" stroke="#666666" points="827,-159 719,-159 719,-140 827,-140 827,-159"/>
<text text-anchor="middle" x="773" y="-147" font-family="Helvetica,sans-Serif" font-size="10.00">check_if_recording</text>
</a>
</g>
</g>
<!-- Node5&#45;&gt;Node6 -->
<g id="edge5_Node000005_Node000006" class="edge">
<title>Node5&#45;&gt;Node6</title>
<g id="a_edge5_Node000005_Node000006"><a xlink:title=" ">
<path fill="none" stroke="#63b8ff" d="M662.59,-220.49C669.57,-217.8 676.56,-214.78 683,-211.5 708.43,-198.53 734.95,-179.18 752.35,-165.56"/>
<polygon fill="#63b8ff" stroke="#63b8ff" points="754.92,-167.99 760.56,-159.02 750.56,-162.51 754.92,-167.99"/>
</a>
</g>
</g>
<!-- Node9 -->
<g id="Node000009" class="node">
<title>Node9</title>
<g id="a_Node000009"><a xlink:href="FrameInterpolation_8cpp.html#ad8eff15a52471a7a9c4801f2f23124e6" target="_top" xlink:title=" ">
<polygon fill="white" stroke="#666666" points="669.5,-164.5 556.5,-164.5 556.5,-134.5 669.5,-134.5 669.5,-164.5"/>
<text text-anchor="start" x="564.5" y="-152.5" font-family="Helvetica,sans-Serif" font-size="10.00">FrameInterpolation</text>
<text text-anchor="middle" x="613" y="-141.5" font-family="Helvetica,sans-Serif" font-size="10.00">_RecordMatrixScale</text>
</a>
</g>
</g>
<!-- Node8&#45;&gt;Node9 -->
<g id="edge8_Node000008_Node000009" class="edge">
<title>Node8&#45;&gt;Node9</title>
<g id="a_edge8_Node000008_Node000009"><a xlink:title=" ">
<path fill="none" stroke="#63b8ff" d="M365.02,-145.99C409.94,-146.63 489.37,-147.76 546.02,-148.56"/>
<polygon fill="#63b8ff" stroke="#63b8ff" points="546.27,-152.07 556.32,-148.71 546.37,-145.07 546.27,-152.07"/>
</a>
</g>
</g>
<!-- Node9&#45;&gt;Node6 -->
<g id="edge9_Node000009_Node000006" class="edge">
<title>Node9&#45;&gt;Node6</title>
<g id="a_edge9_Node000009_Node000006"><a xlink:title=" ">
<path fill="none" stroke="#63b8ff" d="M669.7,-149.5C682.32,-149.5 695.81,-149.5 708.72,-149.5"/>
<polygon fill="#63b8ff" stroke="#63b8ff" points="708.92,-153 718.92,-149.5 708.92,-146 708.92,-153"/>
</a>
</g>
</g>
<!-- Node11 -->
<g id="Node000011" class="node">
<title>Node11</title>
<g id="a_Node000011"><a xlink:href="math__util_8c.html#ae69cbf5c8d4b3b0dba2d7b4d4673689f" target="_top" xlink:title=" ">
<polygon fill="white" stroke="#666666" points="492.5,-132 454.5,-132 454.5,-113 492.5,-113 492.5,-132"/>
<text text-anchor="middle" x="473.5" y="-120" font-family="Helvetica,sans-Serif" font-size="10.00">coss</text>
</a>
</g>
</g>
<!-- Node10&#45;&gt;Node11 -->
<g id="edge11_Node000010_Node000011" class="edge">
<title>Node10&#45;&gt;Node11</title>
<g id="a_edge11_Node000010_Node000011"><a xlink:title=" ">
<path fill="none" stroke="#63b8ff" d="M371.57,-99.04C394.98,-104.48 423.69,-111.16 444.5,-115.99"/>
<polygon fill="#63b8ff" stroke="#63b8ff" points="443.77,-119.42 454.31,-118.27 445.36,-112.6 443.77,-119.42"/>
</a>
</g>
</g>
<!-- Node12 -->
<g id="Node000012" class="node">
<title>Node12</title>
<g id="a_Node000012"><a xlink:href="FrameInterpolation_8cpp.html#aafa8768b46143c8110779aa8afdfe41c" target="_top" xlink:title=" ">
<polygon fill="white" stroke="#666666" points="679,-110.5 547,-110.5 547,-80.5 679,-80.5 679,-110.5"/>
<text text-anchor="start" x="555" y="-98.5" font-family="Helvetica,sans-Serif" font-size="10.00">FrameInterpolation</text>
<text text-anchor="middle" x="613" y="-87.5" font-family="Helvetica,sans-Serif" font-size="10.00">_RecordTranslateRotate</text>
</a>
</g>
</g>
<!-- Node10&#45;&gt;Node12 -->
<g id="edge12_Node000010_Node000012" class="edge">
<title>Node10&#45;&gt;Node12</title>
<g id="a_edge12_Node000010_Node000012"><a xlink:title=" ">
<path fill="none" stroke="#63b8ff" d="M391.23,-90.79C433.91,-91.7 491.28,-92.93 536.84,-93.9"/>
<polygon fill="#63b8ff" stroke="#63b8ff" points="536.89,-97.4 546.96,-94.11 537.04,-90.4 536.89,-97.4"/>
</a>
</g>
</g>
<!-- Node13 -->
<g id="Node000013" class="node">
<title>Node13</title>
<g id="a_Node000013"><a xlink:href="math__util_8c.html#a19ed3bd78fd2d3e2bd0a29f6caf48545" target="_top" xlink:title=" ">
<polygon fill="white" stroke="#666666" points="491.5,-56 455.5,-56 455.5,-37 491.5,-37 491.5,-56"/>
<text text-anchor="middle" x="473.5" y="-44" font-family="Helvetica,sans-Serif" font-size="10.00">sins</text>
</a>
</g>
</g>
<!-- Node10&#45;&gt;Node13 -->
<g id="edge14_Node000010_Node000013" class="edge">
<title>Node10&#45;&gt;Node13</title>
<g id="a_edge14_Node000010_Node000013"><a xlink:title=" ">
<path fill="none" stroke="#63b8ff" d="M362.01,-79.96C387.07,-72.37 421.74,-61.87 445.52,-54.67"/>
<polygon fill="#63b8ff" stroke="#63b8ff" points="446.74,-57.96 455.3,-51.71 444.72,-51.26 446.74,-57.96"/>
</a>
</g>
</g>
<!-- Node12&#45;&gt;Node6 -->
<g id="edge13_Node000012_Node000006" class="edge">
<title>Node12&#45;&gt;Node6</title>
<g id="a_edge13_Node000012_Node000006"><a xlink:title=" ">
<path fill="none" stroke="#63b8ff" d="M658.01,-110.54C682.03,-118.75 711.46,-128.81 734.4,-136.65"/>
<polygon fill="#63b8ff" stroke="#63b8ff" points="733.52,-140.05 744.12,-139.97 735.79,-133.43 733.52,-140.05"/>
</a>
</g>
</g>
<!-- Node15 -->
<g id="Node000015" class="node">
<title>Node15</title>
<g id="a_Node000015"><a xlink:href="Engine_8cpp.html#a223c8bc63f228dc11177515e38eff2db" target="_top" xlink:title=" ">
<polygon fill="white" stroke="#666666" points="404,-44 255,-44 255,-25 404,-25 404,-44"/>
<text text-anchor="middle" x="329.5" y="-32" font-family="Helvetica,sans-Serif" font-size="10.00">GameEngine_OTRSigCheck</text>
</a>
</g>
</g>
<!-- Node14&#45;&gt;Node15 -->
<g id="edge16_Node000014_Node000015" class="edge">
<title>Node14&#45;&gt;Node15</title>
<g id="a_edge16_Node000014_Node000015"><a xlink:title=" ">
<path fill="none" stroke="#63b8ff" d="M213.79,-61.97C233.62,-57.22 257.81,-51.43 278.85,-46.39"/>
<polygon fill="#63b8ff" stroke="#63b8ff" points="279.67,-49.79 288.58,-44.06 278.04,-42.99 279.67,-49.79"/>
</a>
</g>
</g>
<!-- Node16 -->
<g id="Node000016" class="node">
<title>Node16</title>
<g id="a_Node000016"><a xlink:href="string_8c.html#a008e171a518fe0e0352f31b245e03875" target="_top" xlink:title=" ">
<polygon fill="white" stroke="#666666" points="495.5,-19 451.5,-19 451.5,0 495.5,0 495.5,-19"/>
<text text-anchor="middle" x="473.5" y="-7" font-family="Helvetica,sans-Serif" font-size="10.00">strlen</text>
</a>
</g>
</g>
<!-- Node15&#45;&gt;Node16 -->
<g id="edge17_Node000015_Node000016" class="edge">
<title>Node15&#45;&gt;Node16</title>
<g id="a_edge17_Node000015_Node000016"><a xlink:title=" ">
<path fill="none" stroke="#63b8ff" d="M384.59,-24.98C403.62,-21.63 424.37,-17.97 440.93,-15.06"/>
<polygon fill="#63b8ff" stroke="#63b8ff" points="441.91,-18.44 451.15,-13.26 440.69,-11.55 441.91,-18.44"/>
</a>
</g>
</g>
<!-- Node17&#45;&gt;Node15 -->
<g id="edge19_Node000017_Node000015" class="edge">
<title>Node17&#45;&gt;Node15</title>
<g id="a_edge19_Node000017_Node000015"><a xlink:title=" ">
<path fill="none" stroke="#63b8ff" d="M206.01,-34.5C217.46,-34.5 230.96,-34.5 244.74,-34.5"/>
<polygon fill="#63b8ff" stroke="#63b8ff" points="244.79,-38 254.79,-34.5 244.79,-31 244.79,-38"/>
</a>
</g>
</g>
</g>
</svg>
