<?xml version="1.0" encoding="UTF-8" standalone="no"?>
<!DOCTYPE svg PUBLIC "-//W3C//DTD SVG 1.1//EN"
 "http://www.w3.org/Graphics/SVG/1.1/DTD/svg11.dtd">
<!-- Generated by graphviz version 2.43.0 (0)
 -->
<!-- Title: determine_ideal_cpu_position_offset Pages: 1 -->
<svg width="302pt" height="224pt"
 viewBox="0.00 0.00 302.00 223.50" xmlns="http://www.w3.org/2000/svg" xmlns:xlink="http://www.w3.org/1999/xlink">

<svg id="main" version="1.1" xmlns="http://www.w3.org/2000/svg" xmlns:xlink="http://www.w3.org/1999/xlink" xml:space="preserve">

<style type="text/css"><![CDATA[
.node, .edge {opacity: 0.7;}
.node.selected, .edge.selected {opacity: 1;}
.edge:hover path { stroke: red; }
.edge:hover polygon { stroke: red; fill: red; }
]]></style>
<script type="application/ecmascript" xlink:href="svg.min.js"/>
<svg id="graph" class="graph">
<g id="graph0" class="graph" transform="scale(1 1) rotate(0) translate(4 219.5)">
<title>determine_ideal_cpu_position_offset</title>
<!-- Node1 -->
<g id="Node000001" class="node">
<title>Node1</title>
<g id="a_Node000001"><a xlink:title=" ">
<polygon fill="#999999" stroke="#666666" points="119,-116.5 0,-116.5 0,-86.5 119,-86.5 119,-116.5"/>
<text text-anchor="start" x="8" y="-104.5" font-family="Helvetica,sans-Serif" font-size="10.00">determine_ideal_cpu</text>
<text text-anchor="middle" x="59.5" y="-93.5" font-family="Helvetica,sans-Serif" font-size="10.00">_position_offset</text>
</a>
</g>
</g>
<!-- Node2 -->
<g id="Node000002" class="node">
<title>Node2</title>
<g id="a_Node000002"><a xlink:href="code__80005FD0_8c.html#a56cc4d29afeb765dda89d79fe75f848e" target="_top" xlink:title=" ">
<polygon fill="white" stroke="#666666" points="278.5,-215.5 170.5,-215.5 170.5,-185.5 278.5,-185.5 278.5,-215.5"/>
<text text-anchor="start" x="178.5" y="-203.5" font-family="Helvetica,sans-Serif" font-size="10.00">cpu_track_position</text>
<text text-anchor="middle" x="224.5" y="-192.5" font-family="Helvetica,sans-Serif" font-size="10.00">_factor</text>
</a>
</g>
</g>
<!-- Node1&#45;&gt;Node2 -->
<g id="edge1_Node000001_Node000002" class="edge">
<title>Node1&#45;&gt;Node2</title>
<g id="a_edge1_Node000001_Node000002"><a xlink:title=" ">
<path fill="none" stroke="#63b8ff" d="M76.04,-116.57C93.86,-133.16 124.55,-159.71 155,-176.5 158.07,-178.19 161.29,-179.8 164.58,-181.33"/>
<polygon fill="#63b8ff" stroke="#63b8ff" points="163.42,-184.64 173.99,-185.39 166.19,-178.21 163.42,-184.64"/>
</a>
</g>
</g>
<!-- Node3 -->
<g id="Node000003" class="node">
<title>Node3</title>
<g id="a_Node000003"><a xlink:href="code__80005FD0_8c.html#ab3011c4461af84066229e8c503d74628" target="_top" xlink:title=" ">
<polygon fill="white" stroke="#666666" points="274,-167 175,-167 175,-148 274,-148 274,-167"/>
<text text-anchor="middle" x="224.5" y="-155" font-family="Helvetica,sans-Serif" font-size="10.00">is_far_from_path</text>
</a>
</g>
</g>
<!-- Node1&#45;&gt;Node3 -->
<g id="edge2_Node000001_Node000003" class="edge">
<title>Node1&#45;&gt;Node3</title>
<g id="a_edge2_Node000001_Node000003"><a xlink:title=" ">
<path fill="none" stroke="#63b8ff" d="M95.12,-116.63C112.83,-124.07 134.86,-132.83 155,-139.5 161.05,-141.5 167.46,-143.43 173.84,-145.24"/>
<polygon fill="#63b8ff" stroke="#63b8ff" points="173.2,-148.69 183.77,-147.96 175.05,-141.94 173.2,-148.69"/>
</a>
</g>
</g>
<!-- Node4 -->
<g id="Node000004" class="node">
<title>Node4</title>
<g id="a_Node000004"><a xlink:href="Game_8cpp.html#aab0dcf46f6e6e4516bf79ea3f519c765" target="_top" xlink:title=" ">
<polygon fill="white" stroke="#666666" points="280.5,-130 168.5,-130 168.5,-111 280.5,-111 280.5,-130"/>
<text text-anchor="middle" x="224.5" y="-118" font-family="Helvetica,sans-Serif" font-size="10.00">IsPodiumCeremony</text>
</a>
</g>
</g>
<!-- Node1&#45;&gt;Node4 -->
<g id="edge3_Node000001_Node000004" class="edge">
<title>Node1&#45;&gt;Node4</title>
<g id="a_edge3_Node000001_Node000004"><a xlink:title=" ">
<path fill="none" stroke="#63b8ff" d="M119.35,-108.36C131.94,-109.83 145.31,-111.39 158.14,-112.88"/>
<polygon fill="#63b8ff" stroke="#63b8ff" points="157.93,-116.38 168.27,-114.06 158.75,-109.43 157.93,-116.38"/>
</a>
</g>
</g>
<!-- Node5 -->
<g id="Node000005" class="node">
<title>Node5</title>
<g id="a_Node000005"><a xlink:href="Game_8cpp.html#a7dfa77f8baa97e05f88abc7be3dd45a1" target="_top" xlink:title=" ">
<polygon fill="white" stroke="#666666" points="271,-93 178,-93 178,-74 271,-74 271,-93"/>
<text text-anchor="middle" x="224.5" y="-81" font-family="Helvetica,sans-Serif" font-size="10.00">IsToadsTurnpike</text>
</a>
</g>
</g>
<!-- Node1&#45;&gt;Node5 -->
<g id="edge4_Node000001_Node000005" class="edge">
<title>Node1&#45;&gt;Node5</title>
<g id="a_edge4_Node000001_Node000005"><a xlink:title=" ">
<path fill="none" stroke="#63b8ff" d="M119.35,-95C135.13,-93.26 152.15,-91.38 167.76,-89.66"/>
<polygon fill="#63b8ff" stroke="#63b8ff" points="168.23,-93.12 177.78,-88.55 167.46,-86.17 168.23,-93.12"/>
</a>
</g>
</g>
<!-- Node6 -->
<g id="Node000006" class="node">
<title>Node6</title>
<g id="a_Node000006"><a xlink:href="Game_8cpp.html#ab05bb065469940f40a5023c58a8f9e7f" target="_top" xlink:title=" ">
<polygon fill="white" stroke="#666666" points="264.5,-56 184.5,-56 184.5,-37 264.5,-37 264.5,-56"/>
<text text-anchor="middle" x="224.5" y="-44" font-family="Helvetica,sans-Serif" font-size="10.00">IsYoshiValley</text>
</a>
</g>
</g>
<!-- Node1&#45;&gt;Node6 -->
<g id="edge5_Node000001_Node000006" class="edge">
<title>Node1&#45;&gt;Node6</title>
<g id="a_edge5_Node000001_Node000006"><a xlink:title=" ">
<path fill="none" stroke="#63b8ff" d="M97.47,-86.5C114.8,-79.7 135.82,-71.8 155,-65.5 162.01,-63.2 169.49,-60.93 176.83,-58.82"/>
<polygon fill="#63b8ff" stroke="#63b8ff" points="178.02,-62.12 186.69,-56.03 176.12,-55.38 178.02,-62.12"/>
</a>
</g>
</g>
<!-- Node7 -->
<g id="Node000007" class="node">
<title>Node7</title>
<g id="a_Node000007"><a xlink:href="code__80005FD0_8c.html#a83974499a323e99b007956bf9c0e25ff" target="_top" xlink:title=" ">
<polygon fill="white" stroke="#666666" points="294,-19 155,-19 155,0 294,0 294,-19"/>
<text text-anchor="middle" x="224.5" y="-7" font-family="Helvetica,sans-Serif" font-size="10.00">set_track_offset_position</text>
</a>
</g>
</g>
<!-- Node1&#45;&gt;Node7 -->
<g id="edge6_Node000001_Node000007" class="edge">
<title>Node1&#45;&gt;Node7</title>
<g id="a_edge6_Node000001_Node000007"><a xlink:title=" ">
<path fill="none" stroke="#63b8ff" d="M75.92,-86.49C93.63,-70.03 124.23,-43.91 155,-28.5 159.64,-26.18 164.6,-24.1 169.66,-22.26"/>
<polygon fill="#63b8ff" stroke="#63b8ff" points="171.06,-25.49 179.44,-19 168.84,-18.85 171.06,-25.49"/>
</a>
</g>
</g>
</g>
</svg>
</svg>

<style type='text/css'>
<![CDATA[
[data-mouse-over-selected='false'] { opacity: 0.7; }
[data-mouse-over-selected='true']  { opacity: 1.0; }
]]>
</style>
<script type="application/ecmascript"><![CDATA[
document.addEventListener('DOMContentLoaded', (event) => {
  highlightEdges();
  highlightAdjacentNodes();
});
]]></script>
</svg>
