<?xml version="1.0" encoding="UTF-8" standalone="no"?>
<!DOCTYPE svg PUBLIC "-//W3C//DTD SVG 1.1//EN"
 "http://www.w3.org/Graphics/SVG/1.1/DTD/svg11.dtd">
<!-- Generated by graphviz version 2.43.0 (0)
 -->
<!-- Title: init_hud_one_player Pages: 1 -->
<svg width="443pt" height="251pt"
 viewBox="0.00 0.00 443.00 251.00" xmlns="http://www.w3.org/2000/svg" xmlns:xlink="http://www.w3.org/1999/xlink">
<g id="graph0" class="graph" transform="scale(1 1) rotate(0) translate(4 247)">
<title>init_hud_one_player</title>
<!-- Node1 -->
<g id="Node000001" class="node">
<title>Node1</title>
<g id="a_Node000001"><a xlink:title=" ">
<polygon fill="#999999" stroke="#666666" points="115,-130 0,-130 0,-111 115,-111 115,-130"/>
<text text-anchor="middle" x="57.5" y="-118" font-family="Helvetica,sans-Serif" font-size="10.00">init_hud_one_player</text>
</a>
</g>
</g>
<!-- Node2 -->
<g id="Node000002" class="node">
<title>Node2</title>
<g id="a_Node000002"><a xlink:href="update__objects_8c.html#a92856990c4ca5fba1b8e0c61ca832c27" target="_top" xlink:title=" ">
<polygon fill="white" stroke="#666666" points="435,-242 307,-242 307,-223 435,-223 435,-242"/>
<text text-anchor="middle" x="371" y="-230" font-family="Helvetica,sans-Serif" font-size="10.00">find_unused_obj_index</text>
</a>
</g>
</g>
<!-- Node1&#45;&gt;Node2 -->
<g id="edge1_Node000001_Node000002" class="edge">
<title>Node1&#45;&gt;Node2</title>
<g id="a_edge1_Node000001_Node000002"><a xlink:title=" ">
<path fill="none" stroke="#63b8ff" d="M71.62,-130.17C88.97,-142.53 120.88,-163.86 151,-176.5 200.52,-197.28 259.67,-211.85 304.01,-220.9"/>
<polygon fill="#63b8ff" stroke="#63b8ff" points="303.6,-224.39 314.09,-222.92 304.97,-217.53 303.6,-224.39"/>
</a>
</g>
</g>
<!-- Node3 -->
<g id="Node000003" class="node">
<title>Node3</title>
<g id="a_Node000003"><a xlink:href="code__8006E9C0_8c.html#afef0314f6f435d008ed32c2aa1e2fed0" target="_top" xlink:title=" ">
<polygon fill="white" stroke="#666666" points="257,-167 165,-167 165,-148 257,-148 257,-167"/>
<text text-anchor="middle" x="211" y="-155" font-family="Helvetica,sans-Serif" font-size="10.00">func_8007055C</text>
</a>
</g>
</g>
<!-- Node1&#45;&gt;Node3 -->
<g id="edge2_Node000001_Node000003" class="edge">
<title>Node1&#45;&gt;Node3</title>
<g id="a_edge2_Node000001_Node000003"><a xlink:title=" ">
<path fill="none" stroke="#63b8ff" d="M97.52,-130.03C116.88,-134.76 140.47,-140.52 161.03,-145.54"/>
<polygon fill="#63b8ff" stroke="#63b8ff" points="160.31,-148.97 170.85,-147.94 161.97,-142.17 160.31,-148.97"/>
</a>
</g>
</g>
<!-- Node6 -->
<g id="Node000006" class="node">
<title>Node6</title>
<g id="a_Node000006"><a xlink:href="save_8c.html#a590a89e6ed89945271c4289d6cadf64e" target="_top" xlink:title=" ">
<polygon fill="white" stroke="#666666" points="257,-93 165,-93 165,-74 257,-74 257,-93"/>
<text text-anchor="middle" x="211" y="-81" font-family="Helvetica,sans-Serif" font-size="10.00">func_800B4E24</text>
</a>
</g>
</g>
<!-- Node1&#45;&gt;Node6 -->
<g id="edge5_Node000001_Node000006" class="edge">
<title>Node1&#45;&gt;Node6</title>
<g id="a_edge5_Node000001_Node000006"><a xlink:title=" ">
<path fill="none" stroke="#63b8ff" d="M97.52,-110.97C116.88,-106.24 140.47,-100.48 161.03,-95.46"/>
<polygon fill="#63b8ff" stroke="#63b8ff" points="161.97,-98.83 170.85,-93.06 160.31,-92.03 161.97,-98.83"/>
</a>
</g>
</g>
<!-- Node9 -->
<g id="Node000009" class="node">
<title>Node9</title>
<g id="a_Node000009"><a xlink:href="save_8c.html#aeb6bf308b677f5d69746807a3404ed49" target="_top" xlink:title=" ">
<polygon fill="white" stroke="#666666" points="257,-130 165,-130 165,-111 257,-111 257,-130"/>
<text text-anchor="middle" x="211" y="-118" font-family="Helvetica,sans-Serif" font-size="10.00">func_800B4F2C</text>
</a>
</g>
</g>
<!-- Node1&#45;&gt;Node9 -->
<g id="edge8_Node000001_Node000009" class="edge">
<title>Node1&#45;&gt;Node9</title>
<g id="a_edge8_Node000001_Node000009"><a xlink:title=" ">
<path fill="none" stroke="#63b8ff" d="M115.34,-120.5C128.2,-120.5 141.83,-120.5 154.62,-120.5"/>
<polygon fill="#63b8ff" stroke="#63b8ff" points="154.67,-124 164.67,-120.5 154.67,-117 154.67,-124"/>
</a>
</g>
</g>
<!-- Node10 -->
<g id="Node000010" class="node">
<title>Node10</title>
<g id="a_Node000010"><a xlink:href="code__8006E9C0_8c.html#a95bd792f4507dd26cf251c980bd9214b" target="_top" xlink:title=" ">
<polygon fill="white" stroke="#666666" points="263.5,-56 158.5,-56 158.5,-37 263.5,-37 263.5,-56"/>
<text text-anchor="middle" x="211" y="-44" font-family="Helvetica,sans-Serif" font-size="10.00">init_course_object</text>
</a>
</g>
</g>
<!-- Node1&#45;&gt;Node10 -->
<g id="edge11_Node000001_Node000010" class="edge">
<title>Node1&#45;&gt;Node10</title>
<g id="a_edge11_Node000001_Node000010"><a xlink:title=" ">
<path fill="none" stroke="#63b8ff" d="M72.01,-110.84C89.53,-98.67 121.35,-77.75 151,-64.5 155.13,-62.66 159.5,-60.93 163.92,-59.34"/>
<polygon fill="#63b8ff" stroke="#63b8ff" points="165.25,-62.58 173.6,-56.05 163,-55.95 165.25,-62.58"/>
</a>
</g>
</g>
<!-- Node12 -->
<g id="Node000012" class="node">
<title>Node12</title>
<g id="a_Node000012"><a xlink:href="code__8006E9C0_8c.html#a7fd371a62513a311ab8903e23511dc9b" target="_top" xlink:title=" ">
<polygon fill="white" stroke="#666666" points="262.5,-19 159.5,-19 159.5,0 262.5,0 262.5,-19"/>
<text text-anchor="middle" x="211" y="-7" font-family="Helvetica,sans-Serif" font-size="10.00">init_item_window</text>
</a>
</g>
</g>
<!-- Node1&#45;&gt;Node12 -->
<g id="edge13_Node000001_Node000012" class="edge">
<title>Node1&#45;&gt;Node12</title>
<g id="a_edge13_Node000001_Node000012"><a xlink:title=" ">
<path fill="none" stroke="#63b8ff" d="M65.49,-110.79C79.55,-91.95 113.16,-50.29 151,-27.5 153.8,-25.81 156.77,-24.28 159.83,-22.87"/>
<polygon fill="#63b8ff" stroke="#63b8ff" points="161.25,-26.07 169.19,-19.05 158.61,-19.59 161.25,-26.07"/>
</a>
</g>
</g>
<!-- Node13 -->
<g id="Node000013" class="node">
<title>Node13</title>
<g id="a_Node000013"><a xlink:href="code__8006E9C0_8c.html#ac9869b321dfbda91715daf48a65b2075" target="_top" xlink:title=" ">
<polygon fill="white" stroke="#666666" points="271,-243 151,-243 151,-224 271,-224 271,-243"/>
<text text-anchor="middle" x="211" y="-231" font-family="Helvetica,sans-Serif" font-size="10.00">init_object_list_index</text>
</a>
</g>
</g>
<!-- Node1&#45;&gt;Node13 -->
<g id="edge14_Node000001_Node000013" class="edge">
<title>Node1&#45;&gt;Node13</title>
<g id="a_edge14_Node000001_Node000013"><a xlink:title=" ">
<path fill="none" stroke="#63b8ff" d="M66.23,-130.03C81.03,-147.78 115.12,-186.19 151,-209.5 157.18,-213.52 164.15,-217.07 171.07,-220.13"/>
<polygon fill="#63b8ff" stroke="#63b8ff" points="169.82,-223.4 180.4,-223.99 172.5,-216.93 169.82,-223.4"/>
</a>
</g>
</g>
<!-- Node4 -->
<g id="Node000004" class="node">
<title>Node4</title>
<g id="a_Node000004"><a xlink:href="Game_8cpp.html#a011d7e2f1ff6949f70023c2f53091010" target="_top" xlink:title=" ">
<polygon fill="white" stroke="#666666" points="414,-204 328,-204 328,-185 414,-185 414,-204"/>
<text text-anchor="middle" x="371" y="-192" font-family="Helvetica,sans-Serif" font-size="10.00">CM_InitClouds</text>
</a>
</g>
</g>
<!-- Node3&#45;&gt;Node4 -->
<g id="edge3_Node000003_Node000004" class="edge">
<title>Node3&#45;&gt;Node4</title>
<g id="a_edge3_Node000003_Node000004"><a xlink:title=" ">
<path fill="none" stroke="#63b8ff" d="M252.69,-167.03C272.97,-171.78 297.71,-177.57 319.22,-182.61"/>
<polygon fill="#63b8ff" stroke="#63b8ff" points="318.64,-186.07 329.17,-184.94 320.24,-179.25 318.64,-186.07"/>
</a>
</g>
</g>
<!-- Node5 -->
<g id="Node000005" class="node">
<title>Node5</title>
<g id="a_Node000005"><a xlink:href="effects_8c.html#a39f746571de71a6f7dc193320afc377c" target="_top" xlink:title=" ">
<polygon fill="white" stroke="#666666" points="417,-167 325,-167 325,-148 417,-148 417,-167"/>
<text text-anchor="middle" x="371" y="-155" font-family="Helvetica,sans-Serif" font-size="10.00">func_8008C23C</text>
</a>
</g>
</g>
<!-- Node3&#45;&gt;Node5 -->
<g id="edge4_Node000003_Node000005" class="edge">
<title>Node3&#45;&gt;Node5</title>
<g id="a_edge4_Node000003_Node000005"><a xlink:title=" ">
<path fill="none" stroke="#63b8ff" d="M257.28,-157.5C275.2,-157.5 295.98,-157.5 314.78,-157.5"/>
<polygon fill="#63b8ff" stroke="#63b8ff" points="314.99,-161 324.99,-157.5 314.99,-154 314.99,-161"/>
</a>
</g>
</g>
<!-- Node7 -->
<g id="Node000007" class="node">
<title>Node7</title>
<g id="a_Node000007"><a xlink:href="save_8c.html#a5b764da80aeb63b24b59906b4c9aa000" target="_top" xlink:title=" ">
<polygon fill="white" stroke="#666666" points="417.5,-130 324.5,-130 324.5,-111 417.5,-111 417.5,-130"/>
<text text-anchor="middle" x="371" y="-118" font-family="Helvetica,sans-Serif" font-size="10.00">func_800B4DF4</text>
</a>
</g>
</g>
<!-- Node6&#45;&gt;Node7 -->
<g id="edge6_Node000006_Node000007" class="edge">
<title>Node6&#45;&gt;Node7</title>
<g id="a_edge6_Node000006_Node000007"><a xlink:title=" ">
<path fill="none" stroke="#63b8ff" d="M252.69,-93.03C272.97,-97.78 297.71,-103.57 319.22,-108.61"/>
<polygon fill="#63b8ff" stroke="#63b8ff" points="318.64,-112.07 329.17,-110.94 320.24,-105.25 318.64,-112.07"/>
</a>
</g>
</g>
<!-- Node8 -->
<g id="Node000008" class="node">
<title>Node8</title>
<g id="a_Node000008"><a xlink:href="Game_8cpp.html#a0499ce6f7f2cd1b56b0674de6c0cc813" target="_top" xlink:title=" ">
<polygon fill="white" stroke="#666666" points="411,-93 331,-93 331,-74 411,-74 411,-93"/>
<text text-anchor="middle" x="371" y="-81" font-family="Helvetica,sans-Serif" font-size="10.00">GetCupIndex</text>
</a>
</g>
</g>
<!-- Node6&#45;&gt;Node8 -->
<g id="edge7_Node000006_Node000008" class="edge">
<title>Node6&#45;&gt;Node8</title>
<g id="a_edge7_Node000006_Node000008"><a xlink:title=" ">
<path fill="none" stroke="#63b8ff" d="M257.28,-83.5C277.08,-83.5 300.36,-83.5 320.61,-83.5"/>
<polygon fill="#63b8ff" stroke="#63b8ff" points="320.88,-87 330.88,-83.5 320.88,-80 320.88,-87"/>
</a>
</g>
</g>
<!-- Node9&#45;&gt;Node7 -->
<g id="edge9_Node000009_Node000007" class="edge">
<title>Node9&#45;&gt;Node7</title>
<g id="a_edge9_Node000009_Node000007"><a xlink:title=" ">
<path fill="none" stroke="#63b8ff" d="M257.28,-120.5C275.05,-120.5 295.63,-120.5 314.3,-120.5"/>
<polygon fill="#63b8ff" stroke="#63b8ff" points="314.44,-124 324.44,-120.5 314.44,-117 314.44,-124"/>
</a>
</g>
</g>
<!-- Node9&#45;&gt;Node8 -->
<g id="edge10_Node000009_Node000008" class="edge">
<title>Node9&#45;&gt;Node8</title>
<g id="a_edge10_Node000009_Node000008"><a xlink:title=" ">
<path fill="none" stroke="#63b8ff" d="M252.69,-110.97C273.54,-106.09 299.09,-100.1 321.02,-94.97"/>
<polygon fill="#63b8ff" stroke="#63b8ff" points="321.87,-98.36 330.81,-92.68 320.28,-91.55 321.87,-98.36"/>
</a>
</g>
</g>
<!-- Node11 -->
<g id="Node000011" class="node">
<title>Node11</title>
<g id="a_Node000011"><a xlink:href="Game_8cpp.html#a7a934ac28ad6603a5e86c21fea7854be" target="_top" xlink:title=" ">
<polygon fill="white" stroke="#666666" points="433,-56 309,-56 309,-37 433,-37 433,-56"/>
<text text-anchor="middle" x="371" y="-44" font-family="Helvetica,sans-Serif" font-size="10.00">CM_InitCourseObjects</text>
</a>
</g>
</g>
<!-- Node10&#45;&gt;Node11 -->
<g id="edge12_Node000010_Node000011" class="edge">
<title>Node10&#45;&gt;Node11</title>
<g id="a_edge12_Node000010_Node000011"><a xlink:title=" ">
<path fill="none" stroke="#63b8ff" d="M263.74,-46.5C274.87,-46.5 286.83,-46.5 298.57,-46.5"/>
<polygon fill="#63b8ff" stroke="#63b8ff" points="298.8,-50 308.8,-46.5 298.8,-43 298.8,-50"/>
</a>
</g>
</g>
<!-- Node13&#45;&gt;Node2 -->
<g id="edge15_Node000013_Node000002" class="edge">
<title>Node13&#45;&gt;Node2</title>
<g id="a_edge15_Node000013_Node000002"><a xlink:title=" ">
<path fill="none" stroke="#63b8ff" d="M271.28,-233.12C279.65,-233.07 288.34,-233.02 296.93,-232.96"/>
<polygon fill="#63b8ff" stroke="#63b8ff" points="296.97,-236.46 306.95,-232.9 296.93,-229.46 296.97,-236.46"/>
</a>
</g>
</g>
</g>
</svg>
