<?xml version="1.0" encoding="UTF-8" standalone="no"?>
<!DOCTYPE svg PUBLIC "-//W3C//DTD SVG 1.1//EN"
 "http://www.w3.org/Graphics/SVG/1.1/DTD/svg11.dtd">
<!-- Generated by graphviz version 2.43.0 (0)
 -->
<!-- Title: regulate_cpu_speed Pages: 1 -->
<!--zoomable 603 -->

<svg id="main" version="1.1" xmlns="http://www.w3.org/2000/svg" xmlns:xlink="http://www.w3.org/1999/xlink" xml:space="preserve" onload="init(evt)">

<style type="text/css"><![CDATA[
.node, .edge {opacity: 0.7;}
.node.selected, .edge.selected {opacity: 1;}
.edge:hover path { stroke: red; }
.edge:hover polygon { stroke: red; fill: red; }
]]></style>

<defs>
  <circle id="rim" cx="0" cy="0" r="7"/>
  <circle id="rim2" cx="0" cy="0" r="3.5"/>
  <g id="zoomPlus">
    <use xlink:href="#rim" fill="#404040"><set attributeName="fill" to="#808080" begin="zoomplus.mouseover" end="zoomplus.mouseout"/></use>
    <path d="M-4,0h8M0,-4v8" fill="none" stroke="white" stroke-width="1.5" pointer-events="none"/>
  </g>
  <g id="zoomMin">
    <use xlink:href="#rim" fill="#404040"><set attributeName="fill" to="#808080" begin="zoomminus.mouseover" end="zoomminus.mouseout"/></use>
    <path d="M-4,0h8" fill="none" stroke="white" stroke-width="1.5" pointer-events="none"/>
  </g>
  <g id="arrowUp" transform="translate(30 24)">
    <use xlink:href="#rim"/>
    <path pointer-events="none" fill="none" stroke="white" stroke-width="1.5" d="M0,-3.0v7 M-2.5,-0.5L0,-3.0L2.5,-0.5"/>
  </g>
  <g id="arrowRight" transform="rotate(90) translate(36 -43)">
    <use xlink:href="#rim"/>
    <path pointer-events="none" fill="none" stroke="white" stroke-width="1.5" d="M0,-3.0v7 M-2.5,-0.5L0,-3.0L2.5,-0.5"/>
  </g>
  <g id="arrowDown" transform="rotate(180) translate(-30 -48)">
    <use xlink:href="#rim"/>
    <path pointer-events="none" fill="none" stroke="white" stroke-width="1.5" d="M0,-3.0v7 M-2.5,-0.5L0,-3.0L2.5,-0.5"/>
  </g>
  <g id="arrowLeft" transform="rotate(270) translate(-36 17)">
    <use xlink:href="#rim"/>
    <path pointer-events="none" fill="none" stroke="white" stroke-width="1.5" d="M0,-3.0v7 M-2.5,-0.5L0,-3.0L2.5,-0.5"/>
  </g>
  <g id="resetDef">
    <use xlink:href="#rim2" fill="#404040"><set attributeName="fill" to="#808080" begin="reset.mouseover" end="reset.mouseout"/></use>
  </g>
</defs>
<script type="application/ecmascript">
var viewWidth = 1256;
var viewHeight = 603;
var sectionId = 'dynsection-200';
</script>
<script type="application/ecmascript" xlink:href="svg.min.js"/>
<svg id="graph" class="graph">
<g id="viewport">
<title>regulate_cpu_speed</title>
<!-- Node1 -->
<g id="Node000001" class="node">
<title>Node1</title>
<g id="a_Node000001"><a xlink:title=" ">
<polygon fill="#999999" stroke="#666666" points="114,-112 0,-112 0,-93 114,-93 114,-112"/>
<text text-anchor="middle" x="57" y="-100" font-family="Helvetica,sans-Serif" font-size="10.00">regulate_cpu_speed</text>
</a>
</g>
</g>
<!-- Node2 -->
<g id="Node000002" class="node">
<title>Node2</title>
<g id="a_Node000002"><a xlink:href="code__80005FD0_8c.html#aa82785502c78ed47b4a21b88bebdb6eb" target="_top" xlink:title=" ">
<polygon fill="white" stroke="#666666" points="252,-169 160,-169 160,-150 252,-150 252,-169"/>
<text text-anchor="middle" x="206" y="-157" font-family="Helvetica,sans-Serif" font-size="10.00">func_80007D04</text>
</a>
</g>
</g>
<!-- Node1&#45;&gt;Node2 -->
<g id="edge1_Node000001_Node000002" class="edge">
<title>Node1&#45;&gt;Node2</title>
<g id="a_edge1_Node000001_Node000002"><a xlink:title=" ">
<path fill="none" stroke="#63b8ff" d="M82.6,-112.04C106.77,-121.41 143.85,-135.79 170.86,-146.26"/>
<polygon fill="#63b8ff" stroke="#63b8ff" points="169.73,-149.58 180.32,-149.93 172.26,-143.05 169.73,-149.58"/>
</a>
</g>
</g>
<!-- Node3 -->
<g id="Node000003" class="node">
<title>Node3</title>
<g id="a_Node000003"><a xlink:href="player__controller_8c.html#ab0dbd1e70372263a934b5ce4907aa491" target="_top" xlink:title=" ">
<polygon fill="white" stroke="#666666" points="402,-171 298,-171 298,-152 402,-152 402,-171"/>
<text text-anchor="middle" x="350" y="-159" font-family="Helvetica,sans-Serif" font-size="10.00">player_accelerate</text>
</a>
</g>
</g>
<!-- Node1&#45;&gt;Node3 -->
<g id="edge34_Node000001_Node000003" class="edge">
<title>Node1&#45;&gt;Node3</title>
<g id="a_edge34_Node000001_Node000003"><a xlink:title=" ">
<path fill="none" stroke="#63b8ff" d="M65.58,-112.12C79.88,-129.39 112.76,-165.11 150,-178.5 203.54,-197.75 270.21,-185.34 311.17,-173.95"/>
<polygon fill="#63b8ff" stroke="#63b8ff" points="312.38,-177.24 321.01,-171.09 310.43,-170.52 312.38,-177.24"/>
</a>
</g>
</g>
<!-- Node26 -->
<g id="Node000026" class="node">
<title>Node26</title>
<g id="a_Node000026"><a xlink:href="player__controller_8c.html#a179bafe2f3564cef92bacebc2b770bf1" target="_top" xlink:title=" ">
<polygon fill="white" stroke="#666666" points="402,-131 298,-131 298,-112 402,-112 402,-131"/>
<text text-anchor="middle" x="350" y="-119" font-family="Helvetica,sans-Serif" font-size="10.00">player_decelerate</text>
</a>
</g>
</g>
<!-- Node1&#45;&gt;Node26 -->
<g id="edge35_Node000001_Node000026" class="edge">
<title>Node1&#45;&gt;Node26</title>
<g id="a_edge35_Node000001_Node000026"><a xlink:title=" ">
<path fill="none" stroke="#63b8ff" d="M114.11,-106.16C163.86,-109.41 236.38,-114.15 287.66,-117.49"/>
<polygon fill="#63b8ff" stroke="#63b8ff" points="287.73,-121.01 297.94,-118.17 288.19,-114.02 287.73,-121.01"/>
</a>
</g>
</g>
<!-- Node27 -->
<g id="Node000027" class="node">
<title>Node27</title>
<g id="a_Node000027"><a xlink:href="code__80005FD0_8c.html#a19bb3a2826efd633cf3a639d8ac64573" target="_top" xlink:title=" ">
<polygon fill="white" stroke="#666666" points="251,-93 161,-93 161,-74 251,-74 251,-93"/>
<text text-anchor="middle" x="206" y="-81" font-family="Helvetica,sans-Serif" font-size="10.00">func_80007FA4</text>
</a>
</g>
</g>
<!-- Node1&#45;&gt;Node27 -->
<g id="edge29_Node000001_Node000027" class="edge">
<title>Node1&#45;&gt;Node27</title>
<g id="a_edge29_Node000001_Node000027"><a xlink:title=" ">
<path fill="none" stroke="#63b8ff" d="M114.41,-95.21C126.31,-93.67 138.84,-92.05 150.66,-90.52"/>
<polygon fill="#63b8ff" stroke="#63b8ff" points="151.36,-93.96 160.83,-89.21 150.47,-87.02 151.36,-93.96"/>
</a>
</g>
</g>
<!-- Node29 -->
<g id="Node000029" class="node">
<title>Node29</title>
<g id="a_Node000029"><a xlink:href="code__80005FD0_8h.html#a3022b010dd671cfd659c0ccf1a64d7de" target="_top" xlink:title=" ">
<polygon fill="white" stroke="#666666" points="252,-56 160,-56 160,-37 252,-37 252,-56"/>
<text text-anchor="middle" x="206" y="-44" font-family="Helvetica,sans-Serif" font-size="10.00">func_800088D8</text>
</a>
</g>
</g>
<!-- Node1&#45;&gt;Node29 -->
<g id="edge32_Node000001_Node000029" class="edge">
<title>Node1&#45;&gt;Node29</title>
<g id="a_edge32_Node000001_Node000029"><a xlink:title=" ">
<path fill="none" stroke="#63b8ff" d="M79.75,-92.97C98.28,-84.99 125.69,-73.49 150,-64.5 154.77,-62.74 159.8,-60.97 164.8,-59.27"/>
<polygon fill="#63b8ff" stroke="#63b8ff" points="165.94,-62.58 174.31,-56.09 163.72,-55.94 165.94,-62.58"/>
</a>
</g>
</g>
<!-- Node30 -->
<g id="Node000030" class="node">
<title>Node30</title>
<g id="a_Node000030"><a xlink:href="Game_8cpp.html#aab0dcf46f6e6e4516bf79ea3f519c765" target="_top" xlink:title=" ">
<polygon fill="white" stroke="#666666" points="262,-19 150,-19 150,0 262,0 262,-19"/>
<text text-anchor="middle" x="206" y="-7" font-family="Helvetica,sans-Serif" font-size="10.00">IsPodiumCeremony</text>
</a>
</g>
</g>
<!-- Node1&#45;&gt;Node30 -->
<g id="edge33_Node000001_Node000030" class="edge">
<title>Node1&#45;&gt;Node30</title>
<g id="a_edge33_Node000001_Node000030"><a xlink:title=" ">
<path fill="none" stroke="#63b8ff" d="M67.33,-92.87C83.04,-77.14 116.37,-45.88 150,-27.5 153.09,-25.81 156.37,-24.25 159.72,-22.8"/>
<polygon fill="#63b8ff" stroke="#63b8ff" points="161.24,-25.97 169.28,-19.06 158.69,-19.45 161.24,-25.97"/>
</a>
</g>
</g>
<!-- Node2&#45;&gt;Node3 -->
<g id="edge2_Node000002_Node000003" class="edge">
<title>Node2&#45;&gt;Node3</title>
<g id="a_edge2_Node000002_Node000003"><a xlink:title=" ">
<path fill="none" stroke="#63b8ff" d="M252.32,-160.14C263.49,-160.3 275.65,-160.47 287.45,-160.63"/>
<polygon fill="#63b8ff" stroke="#63b8ff" points="287.65,-164.14 297.7,-160.78 287.75,-157.14 287.65,-164.14"/>
</a>
</g>
</g>
<!-- Node2&#45;&gt;Node26 -->
<g id="edge26_Node000002_Node000026" class="edge">
<title>Node2&#45;&gt;Node26</title>
<g id="a_edge26_Node000002_Node000026"><a xlink:title=" ">
<path fill="none" stroke="#63b8ff" d="M242.83,-149.91C261.16,-145.01 283.68,-138.98 303.25,-133.74"/>
<polygon fill="#63b8ff" stroke="#63b8ff" points="304.42,-137.05 313.18,-131.09 302.61,-130.29 304.42,-137.05"/>
</a>
</g>
</g>
<!-- Node4 -->
<g id="Node000004" class="node">
<title>Node4</title>
<g id="a_Node000004"><a xlink:href="effects_8c.html#ae77e5662a7ef9f09c2e2150a36883d04" target="_top" xlink:title=" ">
<polygon fill="white" stroke="#666666" points="543,-172 452,-172 452,-153 543,-153 543,-172"/>
<text text-anchor="middle" x="497.5" y="-160" font-family="Helvetica,sans-Serif" font-size="10.00">func_8008F104</text>
</a>
</g>
</g>
<!-- Node3&#45;&gt;Node4 -->
<g id="edge3_Node000003_Node000004" class="edge">
<title>Node3&#45;&gt;Node4</title>
<g id="a_edge3_Node000003_Node000004"><a xlink:title=" ">
<path fill="none" stroke="#63b8ff" d="M402.3,-161.85C415.08,-161.94 428.83,-162.03 441.77,-162.12"/>
<polygon fill="#63b8ff" stroke="#63b8ff" points="441.92,-165.62 451.94,-162.19 441.97,-158.63 441.92,-165.62"/>
</a>
</g>
</g>
<!-- Node25 -->
<g id="Node000025" class="node">
<title>Node25</title>
<g id="a_Node000025"><a xlink:href="player__controller_8c.html#aafeb0470c7da44e1440ffa4848f7d500" target="_top" xlink:title=" ">
<polygon fill="white" stroke="#666666" points="557,-134.5 438,-134.5 438,-104.5 557,-104.5 557,-134.5"/>
<text text-anchor="start" x="446" y="-122.5" font-family="Helvetica,sans-Serif" font-size="10.00">get_player_index_for</text>
<text text-anchor="middle" x="497.5" y="-111.5" font-family="Helvetica,sans-Serif" font-size="10.00">_player</text>
</a>
</g>
</g>
<!-- Node3&#45;&gt;Node25 -->
<g id="edge25_Node000003_Node000025" class="edge">
<title>Node3&#45;&gt;Node25</title>
<g id="a_edge25_Node000003_Node000025"><a xlink:title=" ">
<path fill="none" stroke="#63b8ff" d="M384.02,-151.97C398.95,-147.66 417.09,-142.42 434.42,-137.42"/>
<polygon fill="#63b8ff" stroke="#63b8ff" points="435.86,-140.65 444.49,-134.51 433.91,-133.92 435.86,-140.65"/>
</a>
</g>
</g>
<!-- Node5 -->
<g id="Node000005" class="node">
<title>Node5</title>
<g id="a_Node000005"><a xlink:href="effects_8c.html#aeda67f98b2369b1c3952d9e4eb30b4d1" target="_top" xlink:title=" ">
<polygon fill="white" stroke="#666666" points="669,-302 593,-302 593,-283 669,-283 669,-302"/>
<text text-anchor="middle" x="631" y="-290" font-family="Helvetica,sans-Serif" font-size="10.00">clean_effect</text>
</a>
</g>
</g>
<!-- Node4&#45;&gt;Node5 -->
<g id="edge4_Node000004_Node000005" class="edge">
<title>Node4&#45;&gt;Node5</title>
<g id="a_edge4_Node000004_Node000005"><a xlink:title=" ">
<path fill="none" stroke="#63b8ff" d="M508.38,-172.27C530.67,-194.31 585.07,-248.09 612.94,-275.63"/>
<polygon fill="#63b8ff" stroke="#63b8ff" points="610.79,-278.43 620.36,-282.97 615.71,-273.45 610.79,-278.43"/>
</a>
</g>
</g>
<!-- Node24 -->
<g id="Node000024" class="node">
<title>Node24</title>
<g id="a_Node000024"><a xlink:href="external_8c.html#a337fc3ab94ebb3293a85908229303ac8" target="_top" xlink:title=" ">
<polygon fill="white" stroke="#666666" points="1001,-42 909,-42 909,-23 1001,-23 1001,-42"/>
<text text-anchor="middle" x="955" y="-30" font-family="Helvetica,sans-Serif" font-size="10.00">func_800C90F4</text>
</a>
</g>
</g>
<!-- Node4&#45;&gt;Node24 -->
<g id="edge23_Node000004_Node000024" class="edge">
<title>Node4&#45;&gt;Node24</title>
<g id="a_edge23_Node000004_Node000024"><a xlink:title=" ">
<path fill="none" stroke="#63b8ff" d="M532.75,-152.91C540.85,-150.23 549.35,-147.06 557,-143.5 627.23,-110.85 631.39,-75.58 705,-51.5 768.99,-30.57 846.98,-28.04 898.43,-29.29"/>
<polygon fill="#63b8ff" stroke="#63b8ff" points="898.57,-32.79 908.68,-29.6 898.78,-25.8 898.57,-32.79"/>
</a>
</g>
</g>
<!-- Node6 -->
<g id="Node000006" class="node">
<title>Node6</title>
<g id="a_Node000006"><a xlink:href="effects_8c.html#ad164a912d7ef76f24e7b5cfb9169c16f" target="_top" xlink:title=" ">
<polygon fill="white" stroke="#666666" points="830.5,-450 737.5,-450 737.5,-431 830.5,-431 830.5,-450"/>
<text text-anchor="middle" x="784" y="-438" font-family="Helvetica,sans-Serif" font-size="10.00">func_8008C6D0</text>
</a>
</g>
</g>
<!-- Node5&#45;&gt;Node6 -->
<g id="edge5_Node000005_Node000006" class="edge">
<title>Node5&#45;&gt;Node6</title>
<g id="a_edge5_Node000005_Node000006"><a xlink:title=" ">
<path fill="none" stroke="#63b8ff" d="M634.48,-302.13C641.27,-326.46 662.53,-390.68 705,-422.5 711.64,-427.48 719.43,-431.11 727.47,-433.76"/>
<polygon fill="#63b8ff" stroke="#63b8ff" points="726.76,-437.19 737.34,-436.52 728.65,-430.45 726.76,-437.19"/>
</a>
</g>
</g>
<!-- Node7 -->
<g id="Node000007" class="node">
<title>Node7</title>
<g id="a_Node000007"><a xlink:href="effects_8c.html#a105203221e314be241a95e006b62ef80" target="_top" xlink:title=" ">
<polygon fill="white" stroke="#666666" points="830,-413 738,-413 738,-394 830,-394 830,-413"/>
<text text-anchor="middle" x="784" y="-401" font-family="Helvetica,sans-Serif" font-size="10.00">func_8008C8C4</text>
</a>
</g>
</g>
<!-- Node5&#45;&gt;Node7 -->
<g id="edge6_Node000005_Node000007" class="edge">
<title>Node5&#45;&gt;Node7</title>
<g id="a_edge6_Node000005_Node000007"><a xlink:title=" ">
<path fill="none" stroke="#63b8ff" d="M636.7,-302.17C646.54,-321.31 671.22,-364.03 705,-385.5 711.92,-389.9 719.8,-393.22 727.82,-395.74"/>
<polygon fill="#63b8ff" stroke="#63b8ff" points="727.05,-399.16 737.62,-398.42 728.9,-392.41 727.05,-399.16"/>
</a>
</g>
</g>
<!-- Node8 -->
<g id="Node000008" class="node">
<title>Node8</title>
<g id="a_Node000008"><a xlink:href="effects_8c.html#acab450a6af6eca812ad3987a292a5165" target="_top" xlink:title=" ">
<polygon fill="white" stroke="#666666" points="830,-376 738,-376 738,-357 830,-357 830,-376"/>
<text text-anchor="middle" x="784" y="-364" font-family="Helvetica,sans-Serif" font-size="10.00">func_8008D0E4</text>
</a>
</g>
</g>
<!-- Node5&#45;&gt;Node8 -->
<g id="edge7_Node000005_Node000008" class="edge">
<title>Node5&#45;&gt;Node8</title>
<g id="a_edge7_Node000005_Node000008"><a xlink:title=" ">
<path fill="none" stroke="#63b8ff" d="M641.93,-302.41C655.17,-315.04 679.86,-336.65 705,-348.5 712.16,-351.88 719.99,-354.64 727.85,-356.9"/>
<polygon fill="#63b8ff" stroke="#63b8ff" points="727.2,-360.35 737.76,-359.5 728.97,-353.57 727.2,-360.35"/>
</a>
</g>
</g>
<!-- Node9 -->
<g id="Node000009" class="node">
<title>Node9</title>
<g id="a_Node000009"><a xlink:href="effects_8c.html#a663cb8df8b606cf00e361977c9d6d834" target="_top" xlink:title=" ">
<polygon fill="white" stroke="#666666" points="830.5,-339 737.5,-339 737.5,-320 830.5,-320 830.5,-339"/>
<text text-anchor="middle" x="784" y="-327" font-family="Helvetica,sans-Serif" font-size="10.00">func_8008D3B0</text>
</a>
</g>
</g>
<!-- Node5&#45;&gt;Node9 -->
<g id="edge8_Node000005_Node000009" class="edge">
<title>Node5&#45;&gt;Node9</title>
<g id="a_edge8_Node000005_Node000009"><a xlink:title=" ">
<path fill="none" stroke="#63b8ff" d="M667.97,-302.07C679.75,-305.15 692.92,-308.53 705,-311.5 713.34,-313.55 722.2,-315.66 730.85,-317.68"/>
<polygon fill="#63b8ff" stroke="#63b8ff" points="730.32,-321.15 740.85,-320 731.9,-314.33 730.32,-321.15"/>
</a>
</g>
</g>
<!-- Node10 -->
<g id="Node000010" class="node">
<title>Node10</title>
<g id="a_Node000010"><a xlink:href="effects_8c.html#a5f19eaaa048055d292d02c717e635786" target="_top" xlink:title=" ">
<polygon fill="white" stroke="#666666" points="830,-302 738,-302 738,-283 830,-283 830,-302"/>
<text text-anchor="middle" x="784" y="-290" font-family="Helvetica,sans-Serif" font-size="10.00">func_8008D760</text>
</a>
</g>
</g>
<!-- Node5&#45;&gt;Node10 -->
<g id="edge9_Node000005_Node000010" class="edge">
<title>Node5&#45;&gt;Node10</title>
<g id="a_edge9_Node000005_Node000010"><a xlink:title=" ">
<path fill="none" stroke="#63b8ff" d="M669.33,-292.5C686.87,-292.5 708.15,-292.5 727.53,-292.5"/>
<polygon fill="#63b8ff" stroke="#63b8ff" points="727.76,-296 737.76,-292.5 727.76,-289 727.76,-296"/>
</a>
</g>
</g>
<!-- Node11 -->
<g id="Node000011" class="node">
<title>Node11</title>
<g id="a_Node000011"><a xlink:href="effects_8c.html#a4ea2da0616ee3c475e4be217dc0bc71f" target="_top" xlink:title=" ">
<polygon fill="white" stroke="#666666" points="830.5,-265 737.5,-265 737.5,-246 830.5,-246 830.5,-265"/>
<text text-anchor="middle" x="784" y="-253" font-family="Helvetica,sans-Serif" font-size="10.00">func_8008D97C</text>
</a>
</g>
</g>
<!-- Node5&#45;&gt;Node11 -->
<g id="edge10_Node000005_Node000011" class="edge">
<title>Node5&#45;&gt;Node11</title>
<g id="a_edge10_Node000005_Node000011"><a xlink:title=" ">
<path fill="none" stroke="#63b8ff" d="M669.13,-283.32C680.63,-280.49 693.34,-277.36 705,-274.5 714.34,-272.21 724.32,-269.77 733.91,-267.44"/>
<polygon fill="#63b8ff" stroke="#63b8ff" points="734.83,-270.81 743.71,-265.05 733.17,-264.01 734.83,-270.81"/>
</a>
</g>
</g>
<!-- Node12 -->
<g id="Node000012" class="node">
<title>Node12</title>
<g id="a_Node000012"><a xlink:href="effects_8c.html#a4a437d6caeeaa794bcce43ec60c097e9" target="_top" xlink:title=" ">
<polygon fill="white" stroke="#666666" points="829.5,-228 738.5,-228 738.5,-209 829.5,-209 829.5,-228"/>
<text text-anchor="middle" x="784" y="-216" font-family="Helvetica,sans-Serif" font-size="10.00">func_8008E884</text>
</a>
</g>
</g>
<!-- Node5&#45;&gt;Node12 -->
<g id="edge11_Node000005_Node000012" class="edge">
<title>Node5&#45;&gt;Node12</title>
<g id="a_edge11_Node000005_Node000012"><a xlink:title=" ">
<path fill="none" stroke="#63b8ff" d="M641.99,-282.82C655.29,-270.48 680.05,-249.32 705,-237.5 712.34,-234.02 720.39,-231.14 728.43,-228.77"/>
<polygon fill="#63b8ff" stroke="#63b8ff" points="729.46,-232.12 738.2,-226.12 727.63,-225.36 729.46,-232.12"/>
</a>
</g>
</g>
<!-- Node13 -->
<g id="Node000013" class="node">
<title>Node13</title>
<g id="a_Node000013"><a xlink:href="effects_8c.html#ae02351b6bbb678b552ec8864b47fc56c" target="_top" xlink:title=" ">
<polygon fill="white" stroke="#666666" points="829.5,-191 738.5,-191 738.5,-172 829.5,-172 829.5,-191"/>
<text text-anchor="middle" x="784" y="-179" font-family="Helvetica,sans-Serif" font-size="10.00">func_8008F3E0</text>
</a>
</g>
</g>
<!-- Node5&#45;&gt;Node13 -->
<g id="edge12_Node000005_Node000013" class="edge">
<title>Node5&#45;&gt;Node13</title>
<g id="a_edge12_Node000005_Node000013"><a xlink:title=" ">
<path fill="none" stroke="#63b8ff" d="M636.76,-282.97C646.69,-264.1 671.52,-221.94 705,-200.5 712.17,-195.91 720.36,-192.43 728.68,-189.79"/>
<polygon fill="#63b8ff" stroke="#63b8ff" points="729.75,-193.12 738.44,-187.06 727.87,-186.38 729.75,-193.12"/>
</a>
</g>
</g>
<!-- Node14 -->
<g id="Node000014" class="node">
<title>Node14</title>
<g id="a_Node000014"><a xlink:href="effects_8c.html#afcf39ca15166fb7561402462930cd979" target="_top" xlink:title=" ">
<polygon fill="white" stroke="#666666" points="830,-80 738,-80 738,-61 830,-61 830,-80"/>
<text text-anchor="middle" x="784" y="-68" font-family="Helvetica,sans-Serif" font-size="10.00">func_8008F5A4</text>
</a>
</g>
</g>
<!-- Node5&#45;&gt;Node14 -->
<g id="edge13_Node000005_Node000014" class="edge">
<title>Node5&#45;&gt;Node14</title>
<g id="a_edge13_Node000005_Node000014"><a xlink:title=" ">
<path fill="none" stroke="#63b8ff" d="M632.41,-282.69C634.33,-249.93 645.12,-143.33 705,-89.5 711.55,-83.61 719.62,-79.47 728.07,-76.58"/>
<polygon fill="#63b8ff" stroke="#63b8ff" points="729.05,-79.94 737.69,-73.81 727.11,-73.21 729.05,-79.94"/>
</a>
</g>
</g>
<!-- Node19 -->
<g id="Node000019" class="node">
<title>Node19</title>
<g id="a_Node000019"><a xlink:href="effects_8c.html#ab6d84742231847170dd64267f0519cdf" target="_top" xlink:title=" ">
<polygon fill="white" stroke="#666666" points="830.5,-154 737.5,-154 737.5,-135 830.5,-135 830.5,-154"/>
<text text-anchor="middle" x="784" y="-142" font-family="Helvetica,sans-Serif" font-size="10.00">func_8008FEDC</text>
</a>
</g>
</g>
<!-- Node5&#45;&gt;Node19 -->
<g id="edge18_Node000005_Node000019" class="edge">
<title>Node5&#45;&gt;Node19</title>
<g id="a_edge18_Node000005_Node000019"><a xlink:title=" ">
<path fill="none" stroke="#63b8ff" d="M634.53,-282.97C641.42,-258.9 662.92,-195.32 705,-163.5 711.71,-158.42 719.6,-154.69 727.73,-151.94"/>
<polygon fill="#63b8ff" stroke="#63b8ff" points="728.71,-155.3 737.33,-149.14 726.75,-148.58 728.71,-155.3"/>
</a>
</g>
</g>
<!-- Node20 -->
<g id="Node000020" class="node">
<title>Node20</title>
<g id="a_Node000020"><a xlink:href="effects_8c.html#a5b9e2c886a5267f2cca1190984277a38" target="_top" xlink:title=" ">
<polygon fill="white" stroke="#666666" points="843.5,-117 724.5,-117 724.5,-98 843.5,-98 843.5,-117"/>
<text text-anchor="middle" x="784" y="-105" font-family="Helvetica,sans-Serif" font-size="10.00">remove_boost_effect</text>
</a>
</g>
</g>
<!-- Node5&#45;&gt;Node20 -->
<g id="edge19_Node000005_Node000020" class="edge">
<title>Node5&#45;&gt;Node20</title>
<g id="a_edge19_Node000005_Node000020"><a xlink:title=" ">
<path fill="none" stroke="#63b8ff" d="M633.26,-282.87C637.51,-254.27 654.09,-169.18 705,-126.5 708.1,-123.9 711.49,-121.65 715.08,-119.7"/>
<polygon fill="#63b8ff" stroke="#63b8ff" points="716.71,-122.8 724.32,-115.44 713.78,-116.45 716.71,-122.8"/>
</a>
</g>
</g>
<!-- Node21 -->
<g id="Node000021" class="node">
<title>Node21</title>
<g id="a_Node000021"><a xlink:href="effects_8c.html#a4768d56263e476d3bac47ee01bac3dc8" target="_top" xlink:title=" ">
<polygon fill="white" stroke="#666666" points="863,-594.5 705,-594.5 705,-564.5 863,-564.5 863,-594.5"/>
<text text-anchor="start" x="713" y="-582.5" font-family="Helvetica,sans-Serif" font-size="10.00">remove_boost_ramp_asphalt</text>
<text text-anchor="middle" x="784" y="-571.5" font-family="Helvetica,sans-Serif" font-size="10.00">_effect</text>
</a>
</g>
</g>
<!-- Node5&#45;&gt;Node21 -->
<g id="edge20_Node000005_Node000021" class="edge">
<title>Node5&#45;&gt;Node21</title>
<g id="a_edge20_Node000005_Node000021"><a xlink:title=" ">
<path fill="none" stroke="#63b8ff" d="M631.61,-302.21C630.64,-340.25 632.31,-480.77 705,-555.5 705.94,-556.47 706.93,-557.4 707.94,-558.3"/>
<polygon fill="#63b8ff" stroke="#63b8ff" points="706.2,-561.36 716.34,-564.45 710.34,-555.71 706.2,-561.36"/>
</a>
</g>
</g>
<!-- Node22 -->
<g id="Node000022" class="node">
<title>Node22</title>
<g id="a_Node000022"><a xlink:href="effects_8c.html#aafe14c45e9b91bb1d409ef2f2bfe5c53" target="_top" xlink:title=" ">
<polygon fill="white" stroke="#666666" points="858.5,-546.5 709.5,-546.5 709.5,-516.5 858.5,-516.5 858.5,-546.5"/>
<text text-anchor="start" x="717.5" y="-534.5" font-family="Helvetica,sans-Serif" font-size="10.00">remove_boost_ramp_wood</text>
<text text-anchor="middle" x="784" y="-523.5" font-family="Helvetica,sans-Serif" font-size="10.00">_effect</text>
</a>
</g>
</g>
<!-- Node5&#45;&gt;Node22 -->
<g id="edge21_Node000005_Node000022" class="edge">
<title>Node5&#45;&gt;Node22</title>
<g id="a_edge21_Node000005_Node000022"><a xlink:title=" ">
<path fill="none" stroke="#63b8ff" d="M632.32,-302.26C633.95,-335.9 643.93,-448.17 705,-507.5 706.11,-508.58 707.27,-509.61 708.47,-510.6"/>
<polygon fill="#63b8ff" stroke="#63b8ff" points="706.71,-513.64 716.93,-516.45 710.7,-507.88 706.71,-513.64"/>
</a>
</g>
</g>
<!-- Node23 -->
<g id="Node000023" class="node">
<title>Node23</title>
<g id="a_Node000023"><a xlink:href="effects_8c.html#a0d5728af3b320b88b01fadef778fcbff" target="_top" xlink:title=" ">
<polygon fill="white" stroke="#666666" points="842.5,-498.5 725.5,-498.5 725.5,-468.5 842.5,-468.5 842.5,-498.5"/>
<text text-anchor="start" x="733.5" y="-486.5" font-family="Helvetica,sans-Serif" font-size="10.00">remove_hit_by_item</text>
<text text-anchor="middle" x="784" y="-475.5" font-family="Helvetica,sans-Serif" font-size="10.00">_effect</text>
</a>
</g>
</g>
<!-- Node5&#45;&gt;Node23 -->
<g id="edge22_Node000005_Node000023" class="edge">
<title>Node5&#45;&gt;Node23</title>
<g id="a_edge22_Node000005_Node000023"><a xlink:title=" ">
<path fill="none" stroke="#63b8ff" d="M633.36,-302.05C637.9,-330.42 655.19,-415.05 705,-459.5 708.42,-462.55 712.23,-465.22 716.26,-467.55"/>
<polygon fill="#63b8ff" stroke="#63b8ff" points="714.89,-470.78 725.4,-472.12 718.02,-464.51 714.89,-470.78"/>
</a>
</g>
</g>
<!-- Node15 -->
<g id="Node000015" class="node">
<title>Node15</title>
<g id="a_Node000015"><a xlink:href="code__80057C60_8c.html#ae28b6eb556910087cea23f0cb7a322bd" target="_top" xlink:title=" ">
<polygon fill="white" stroke="#666666" points="1011,-80 899,-80 899,-61 1011,-61 1011,-80"/>
<text text-anchor="middle" x="955" y="-68" font-family="Helvetica,sans-Serif" font-size="10.00">pop_player_balloon</text>
</a>
</g>
</g>
<!-- Node14&#45;&gt;Node15 -->
<g id="edge14_Node000014_Node000015" class="edge">
<title>Node14&#45;&gt;Node15</title>
<g id="a_edge14_Node000014_Node000015"><a xlink:title=" ">
<path fill="none" stroke="#63b8ff" d="M830.29,-70.5C848.27,-70.5 869.3,-70.5 888.87,-70.5"/>
<polygon fill="#63b8ff" stroke="#63b8ff" points="888.94,-74 898.94,-70.5 888.94,-67 888.94,-74"/>
</a>
</g>
</g>
<!-- Node16 -->
<g id="Node000016" class="node">
<title>Node16</title>
<g id="a_Node000016"><a xlink:href="effects_8c.html#a1c7552c4a370cc015c2726e40f1fdb06" target="_top" xlink:title=" ">
<polygon fill="white" stroke="#666666" points="1140,-117 1047,-117 1047,-98 1140,-98 1140,-117"/>
<text text-anchor="middle" x="1093.5" y="-105" font-family="Helvetica,sans-Serif" font-size="10.00">func_8008FD4C</text>
</a>
</g>
</g>
<!-- Node15&#45;&gt;Node16 -->
<g id="edge15_Node000015_Node000016" class="edge">
<title>Node15&#45;&gt;Node16</title>
<g id="a_edge15_Node000015_Node000016"><a xlink:title=" ">
<path fill="none" stroke="#63b8ff" d="M991.15,-80.03C1008.21,-84.65 1028.92,-90.27 1047.15,-95.21"/>
<polygon fill="#63b8ff" stroke="#63b8ff" points="1046.43,-98.64 1056.99,-97.88 1048.26,-91.88 1046.43,-98.64"/>
</a>
</g>
</g>
<!-- Node17 -->
<g id="Node000017" class="node">
<title>Node17</title>
<g id="a_Node000017"><a xlink:href="external_8c.html#a2be9efc97a92e19d02aaee90d676acc1" target="_top" xlink:title=" ">
<polygon fill="white" stroke="#666666" points="1139.5,-80 1047.5,-80 1047.5,-61 1139.5,-61 1139.5,-80"/>
<text text-anchor="middle" x="1093.5" y="-68" font-family="Helvetica,sans-Serif" font-size="10.00">func_800C9060</text>
</a>
</g>
</g>
<!-- Node15&#45;&gt;Node17 -->
<g id="edge16_Node000015_Node000017" class="edge">
<title>Node15&#45;&gt;Node17</title>
<g id="a_edge16_Node000015_Node000017"><a xlink:title=" ">
<path fill="none" stroke="#63b8ff" d="M1011.13,-70.5C1019.65,-70.5 1028.45,-70.5 1036.98,-70.5"/>
<polygon fill="#63b8ff" stroke="#63b8ff" points="1037.21,-74 1047.21,-70.5 1037.21,-67 1037.21,-74"/>
</a>
</g>
</g>
<!-- Node18 -->
<g id="Node000018" class="node">
<title>Node18</title>
<g id="a_Node000018"><a xlink:href="external_8c.html#a475cff796211891556f52877cd8e9b9e" target="_top" xlink:title=" ">
<polygon fill="white" stroke="#666666" points="1248,-61 1176,-61 1176,-42 1248,-42 1248,-61"/>
<text text-anchor="middle" x="1212" y="-49" font-family="Helvetica,sans-Serif" font-size="10.00">play_sound</text>
</a>
</g>
</g>
<!-- Node17&#45;&gt;Node18 -->
<g id="edge17_Node000017_Node000018" class="edge">
<title>Node17&#45;&gt;Node18</title>
<g id="a_edge17_Node000017_Node000018"><a xlink:title=" ">
<path fill="none" stroke="#63b8ff" d="M1139.54,-63.15C1148.19,-61.74 1157.26,-60.27 1165.91,-58.85"/>
<polygon fill="#63b8ff" stroke="#63b8ff" points="1166.53,-62.3 1175.83,-57.24 1165.4,-55.39 1166.53,-62.3"/>
</a>
</g>
</g>
<!-- Node24&#45;&gt;Node18 -->
<g id="edge24_Node000024_Node000018" class="edge">
<title>Node24&#45;&gt;Node18</title>
<g id="a_edge24_Node000024_Node000018"><a xlink:title=" ">
<path fill="none" stroke="#63b8ff" d="M1001,-35.85C1047.39,-39.31 1119.32,-44.67 1165.79,-48.13"/>
<polygon fill="#63b8ff" stroke="#63b8ff" points="1165.64,-51.63 1175.87,-48.88 1166.16,-44.65 1165.64,-51.63"/>
</a>
</g>
</g>
<!-- Node26&#45;&gt;Node4 -->
<g id="edge27_Node000026_Node000004" class="edge">
<title>Node26&#45;&gt;Node4</title>
<g id="a_edge27_Node000026_Node000004"><a xlink:title=" ">
<path fill="none" stroke="#63b8ff" d="M384.75,-131.01C405.06,-136.73 431.13,-144.08 452.98,-150.24"/>
<polygon fill="#63b8ff" stroke="#63b8ff" points="452.11,-153.63 462.68,-152.97 454.01,-146.89 452.11,-153.63"/>
</a>
</g>
</g>
<!-- Node26&#45;&gt;Node25 -->
<g id="edge28_Node000026_Node000025" class="edge">
<title>Node26&#45;&gt;Node25</title>
<g id="a_edge28_Node000026_Node000025"><a xlink:title=" ">
<path fill="none" stroke="#63b8ff" d="M402.3,-120.79C410.59,-120.68 419.29,-120.56 427.91,-120.44"/>
<polygon fill="#63b8ff" stroke="#63b8ff" points="428.02,-123.94 437.97,-120.3 427.92,-116.94 428.02,-123.94"/>
</a>
</g>
</g>
<!-- Node27&#45;&gt;Node26 -->
<g id="edge31_Node000027_Node000026" class="edge">
<title>Node27&#45;&gt;Node26</title>
<g id="a_edge31_Node000027_Node000026"><a xlink:title=" ">
<path fill="none" stroke="#63b8ff" d="M242.83,-93.09C261.16,-97.99 283.68,-104.02 303.25,-109.26"/>
<polygon fill="#63b8ff" stroke="#63b8ff" points="302.61,-112.71 313.18,-111.91 304.42,-105.95 302.61,-112.71"/>
</a>
</g>
</g>
<!-- Node28 -->
<g id="Node000028" class="node">
<title>Node28</title>
<g id="a_Node000028"><a xlink:href="player__controller_8c.html#ac7de2240e53129599337038bade1f4fc" target="_top" xlink:title=" ">
<polygon fill="white" stroke="#666666" points="396,-93 304,-93 304,-74 396,-74 396,-93"/>
<text text-anchor="middle" x="350" y="-81" font-family="Helvetica,sans-Serif" font-size="10.00">func_80038BE4</text>
</a>
</g>
</g>
<!-- Node27&#45;&gt;Node28 -->
<g id="edge30_Node000027_Node000028" class="edge">
<title>Node27&#45;&gt;Node28</title>
<g id="a_edge30_Node000027_Node000028"><a xlink:title=" ">
<path fill="none" stroke="#63b8ff" d="M251.15,-83.5C264.65,-83.5 279.66,-83.5 293.79,-83.5"/>
<polygon fill="#63b8ff" stroke="#63b8ff" points="293.9,-87 303.9,-83.5 293.9,-80 293.9,-87"/>
</a>
</g>
</g>
</g>
</svg>

<g id="navigator" transform="translate(0 0)" fill="#404254">
  <rect fill="#f2f5e9" fill-opacity="0.5" stroke="#606060" stroke-width=".5" x="0" y="0" width="60" height="60"/>
  <use id="zoomplus" xlink:href="#zoomPlus" x="17" y="9" onmousedown="handleZoom(evt,'in')"/>
  <use id="zoomminus" xlink:href="#zoomMin" x="42" y="9" onmousedown="handleZoom(evt,'out')"/>
  <use id="reset" xlink:href="#resetDef" x="30" y="36" onmousedown="handleReset()"/>
   <use id="arrowup" xlink:href="#arrowUp" x="0" y="0" onmousedown="handlePan(0,-1)"/>
  <use id="arrowright" xlink:href="#arrowRight" x="0" y="0" onmousedown="handlePan(1,0)"/>
  <use id="arrowdown" xlink:href="#arrowDown" x="0" y="0" onmousedown="handlePan(0,1)"/>
  <use id="arrowleft" xlink:href="#arrowLeft" x="0" y="0" onmousedown="handlePan(-1,0)"/>
</g>
<svg viewBox="0 0 15 15" width="100%" height="30px" preserveAspectRatio="xMaxYMin meet">
 <g id="arrow_out" transform="scale(0.3 0.3)">
  <a xlink:href="code__80005FD0_8c_ad4df55240035a099df20cb3fddc355ca_cgraph_org.svg" target="_base">
   <rect id="button" ry="5" rx="5" y="6" x="6" height="38" width="38"
        fill="#f2f5e9" fill-opacity="0.5" stroke="#606060" stroke-width="1.0"/>
   <path id="arrow"
     d="M 11.500037,31.436501 C 11.940474,20.09759 22.043105,11.32322 32.158766,21.979434 L 37.068811,17.246167 C 37.068811,17.246167 37.088388,32 37.088388,32 L 22.160133,31.978069 C 22.160133,31.978069 26.997745,27.140456 26.997745,27.140456 C 18.528582,18.264221 13.291696,25.230495 11.500037,31.436501 z"
     style="fill:#404040;"/>
  </a>
 </g>
</svg>

<style type='text/css'>
<![CDATA[
[data-mouse-over-selected='false'] { opacity: 0.7; }
[data-mouse-over-selected='true']  { opacity: 1.0; }
]]>
</style>
<script type="application/ecmascript"><![CDATA[
document.addEventListener('DOMContentLoaded', (event) => {
  highlightEdges();
  highlightAdjacentNodes();
});
]]></script>
</svg>
