<?xml version="1.0" encoding="UTF-8" standalone="no"?>
<!DOCTYPE svg PUBLIC "-//W3C//DTD SVG 1.1//EN"
 "http://www.w3.org/Graphics/SVG/1.1/DTD/svg11.dtd">
<!-- Generated by graphviz version 2.43.0 (0)
 -->
<!-- Title: func_80280038 Pages: 1 -->
<svg width="702pt" height="1179pt"
 viewBox="0.00 0.00 702.00 1179.00" xmlns="http://www.w3.org/2000/svg" xmlns:xlink="http://www.w3.org/1999/xlink">
<g id="graph0" class="graph" transform="scale(1 1) rotate(0) translate(4 1175)">
<title>func_80280038</title>
<!-- Node1 -->
<g id="Node000001" class="node">
<title>Node1</title>
<g id="a_Node000001"><a xlink:title=" ">
<polygon fill="#999999" stroke="#666666" points="91,-352 0,-352 0,-333 91,-333 91,-352"/>
<text text-anchor="middle" x="45.5" y="-340" font-family="Helvetica,sans-Serif" font-size="10.00">func_80280038</text>
</a>
</g>
</g>
<!-- Node2 -->
<g id="Node000002" class="node">
<title>Node2</title>
<g id="a_Node000002"><a xlink:href="ceremony__and__credits_8c.html#a513e36d3f7a9dd44fdb8aae694e2ee16" target="_top" xlink:title=" ">
<polygon fill="white" stroke="#666666" points="259.5,-1122.5 142.5,-1122.5 142.5,-1092.5 259.5,-1092.5 259.5,-1122.5"/>
<text text-anchor="start" x="150.5" y="-1110.5" font-family="Helvetica,sans-Serif" font-size="10.00">ceremony_transition</text>
<text text-anchor="middle" x="201" y="-1099.5" font-family="Helvetica,sans-Serif" font-size="10.00">_sliding_borders</text>
</a>
</g>
</g>
<!-- Node1&#45;&gt;Node2 -->
<g id="edge1_Node000001_Node000002" class="edge">
<title>Node1&#45;&gt;Node2</title>
<g id="a_edge1_Node000001_Node000002"><a xlink:title=" ">
<path fill="none" stroke="#63b8ff" d="M46.44,-352.21C46.17,-428.87 47.38,-936.87 127,-1062.5 133.35,-1072.52 142.82,-1080.66 152.84,-1087.12"/>
<polygon fill="#63b8ff" stroke="#63b8ff" points="151.35,-1090.3 161.74,-1092.37 154.91,-1084.27 151.35,-1090.3"/>
</a>
</g>
</g>
<!-- Node9 -->
<g id="Node000009" class="node">
<title>Node9</title>
<g id="a_Node000009"><a xlink:href="Matrix_8cpp.html#a5ebb6ec3e4ef36c159c344784d791f60" target="_top" xlink:title=" ">
<polygon fill="white" stroke="#666666" points="251,-389 151,-389 151,-370 251,-370 251,-389"/>
<text text-anchor="middle" x="201" y="-377" font-family="Helvetica,sans-Serif" font-size="10.00">ClearMatrixPools</text>
</a>
</g>
</g>
<!-- Node1&#45;&gt;Node9 -->
<g id="edge5_Node000001_Node000009" class="edge">
<title>Node1&#45;&gt;Node9</title>
<g id="a_edge5_Node000001_Node000009"><a xlink:title=" ">
<path fill="none" stroke="#63b8ff" d="M86.03,-352.03C105.65,-356.76 129.55,-362.52 150.39,-367.54"/>
<polygon fill="#63b8ff" stroke="#63b8ff" points="149.8,-371 160.34,-369.94 151.44,-364.19 149.8,-371"/>
</a>
</g>
</g>
<!-- Node10 -->
<g id="Node000010" class="node">
<title>Node10</title>
<g id="a_Node000010"><a xlink:href="Game_8cpp.html#a3a04a8126d538ba7b29733a1f0c59481" target="_top" xlink:title=" ">
<polygon fill="white" stroke="#666666" points="275,-352 127,-352 127,-333 275,-333 275,-352"/>
<text text-anchor="middle" x="201" y="-340" font-family="Helvetica,sans-Serif" font-size="10.00">CM_DrawStaticMeshActors</text>
</a>
</g>
</g>
<!-- Node1&#45;&gt;Node10 -->
<g id="edge6_Node000001_Node000010" class="edge">
<title>Node1&#45;&gt;Node10</title>
<g id="a_edge6_Node000001_Node000010"><a xlink:title=" ">
<path fill="none" stroke="#63b8ff" d="M91.31,-342.5C99.33,-342.5 107.9,-342.5 116.6,-342.5"/>
<polygon fill="#63b8ff" stroke="#63b8ff" points="116.83,-346 126.83,-342.5 116.83,-339 116.83,-346"/>
</a>
</g>
</g>
<!-- Node11 -->
<g id="Node000011" class="node">
<title>Node11</title>
<g id="a_Node000011"><a xlink:href="Game_8cpp.html#a3416a195a0c7be6ec3783bbf4842dc3e" target="_top" xlink:title=" ">
<polygon fill="white" stroke="#666666" points="637.5,-965 555.5,-965 555.5,-946 637.5,-946 637.5,-965"/>
<text text-anchor="middle" x="596.5" y="-953" font-family="Helvetica,sans-Serif" font-size="10.00">CM_GetProps</text>
</a>
</g>
</g>
<!-- Node1&#45;&gt;Node11 -->
<g id="edge7_Node000001_Node000011" class="edge">
<title>Node1&#45;&gt;Node11</title>
<g id="a_edge7_Node000001_Node000011"><a xlink:title=" ">
<path fill="none" stroke="#63b8ff" d="M47.2,-352.23C51.83,-414.56 79.23,-758.34 127,-850.5 179.5,-951.79 205.3,-986.57 311,-1029.5 373.59,-1054.92 397.62,-1046.52 463,-1029.5 506.15,-1018.27 550.15,-989.55 575.02,-971.37"/>
<polygon fill="#63b8ff" stroke="#63b8ff" points="577.36,-973.99 583.28,-965.2 573.17,-968.38 577.36,-973.99"/>
</a>
</g>
</g>
<!-- Node12 -->
<g id="Node000012" class="node">
<title>Node12</title>
<g id="a_Node000012"><a xlink:href="Game_8cpp.html#a929f192c4ae16f29f0f63fa455c29190" target="_top" xlink:title=" ">
<polygon fill="white" stroke="#666666" points="254.5,-315 147.5,-315 147.5,-296 254.5,-296 254.5,-315"/>
<text text-anchor="middle" x="201" y="-303" font-family="Helvetica,sans-Serif" font-size="10.00">Editor_ClearMatrix</text>
</a>
</g>
</g>
<!-- Node1&#45;&gt;Node12 -->
<g id="edge8_Node000001_Node000012" class="edge">
<title>Node1&#45;&gt;Node12</title>
<g id="a_edge8_Node000001_Node000012"><a xlink:title=" ">
<path fill="none" stroke="#63b8ff" d="M86.03,-332.97C105.65,-328.24 129.55,-322.48 150.39,-317.46"/>
<polygon fill="#63b8ff" stroke="#63b8ff" points="151.44,-320.81 160.34,-315.06 149.8,-314 151.44,-320.81"/>
</a>
</g>
</g>
<!-- Node13 -->
<g id="Node000013" class="node">
<title>Node13</title>
<g id="a_Node000013"><a xlink:href="code__80057C60_8c.html#a5051668e440a7101d3885766d39d2404" target="_top" xlink:title=" ">
<polygon fill="white" stroke="#666666" points="433,-671 341,-671 341,-652 433,-652 433,-671"/>
<text text-anchor="middle" x="387" y="-659" font-family="Helvetica,sans-Serif" font-size="10.00">func_80057FC4</text>
</a>
</g>
</g>
<!-- Node1&#45;&gt;Node13 -->
<g id="edge9_Node000001_Node000013" class="edge">
<title>Node1&#45;&gt;Node13</title>
<g id="a_edge9_Node000001_Node000013"><a xlink:title=" ">
<path fill="none" stroke="#63b8ff" d="M46.03,-352.1C44.65,-391.67 45.06,-543.38 127,-616.5 182.58,-666.09 272.55,-670.74 330.48,-667.6"/>
<polygon fill="#63b8ff" stroke="#63b8ff" points="330.8,-671.08 340.56,-666.95 330.35,-664.1 330.8,-671.08"/>
</a>
</g>
</g>
<!-- Node48 -->
<g id="Node000048" class="node">
<title>Node48</title>
<g id="a_Node000048"><a xlink:href="menu__items_8c.html#af21eb61f5e1a1ae1ffcc0cf89c398a2e" target="_top" xlink:title=" ">
<polygon fill="white" stroke="#666666" points="246.5,-426 155.5,-426 155.5,-407 246.5,-407 246.5,-426"/>
<text text-anchor="middle" x="201" y="-414" font-family="Helvetica,sans-Serif" font-size="10.00">func_80093F10</text>
</a>
</g>
</g>
<!-- Node1&#45;&gt;Node48 -->
<g id="edge17_Node000001_Node000048" class="edge">
<title>Node1&#45;&gt;Node48</title>
<g id="a_edge17_Node000001_Node000048"><a xlink:title=" ">
<path fill="none" stroke="#63b8ff" d="M57.42,-352.08C72.2,-364.56 99.85,-386.22 127,-398.5 132.78,-401.11 138.99,-403.38 145.26,-405.34"/>
<polygon fill="#63b8ff" stroke="#63b8ff" points="144.54,-408.78 155.12,-408.18 146.47,-402.05 144.54,-408.78"/>
</a>
</g>
</g>
<!-- Node799 -->
<g id="Node000799" class="node">
<title>Node799</title>
<g id="a_Node000799"><a xlink:href="code__80281C40_8c.html#ab5bd4c2d6a7aebc416355a5b976df802" target="_top" xlink:title=" ">
<polygon fill="white" stroke="#666666" points="247,-278 155,-278 155,-259 247,-259 247,-278"/>
<text text-anchor="middle" x="201" y="-266" font-family="Helvetica,sans-Serif" font-size="10.00">func_80281C40</text>
</a>
</g>
</g>
<!-- Node1&#45;&gt;Node799 -->
<g id="edge29_Node000001_Node000799" class="edge">
<title>Node1&#45;&gt;Node799</title>
<g id="a_edge29_Node000001_Node000799"><a xlink:title=" ">
<path fill="none" stroke="#63b8ff" d="M57.74,-332.94C72.64,-320.72 100.19,-299.7 127,-287.5 132.71,-284.9 138.84,-282.61 145.03,-280.6"/>
<polygon fill="#63b8ff" stroke="#63b8ff" points="146.19,-283.91 154.76,-277.68 144.18,-277.2 146.19,-283.91"/>
</a>
</g>
</g>
<!-- Node801 -->
<g id="Node000801" class="node">
<title>Node801</title>
<g id="a_Node000801"><a xlink:href="skybox__and__splitscreen_8c.html#a0ead9b2e7f52608fae3579b63f3453e5" target="_top" xlink:title=" ">
<polygon fill="white" stroke="#666666" points="247,-841 155,-841 155,-822 247,-822 247,-841"/>
<text text-anchor="middle" x="201" y="-829" font-family="Helvetica,sans-Serif" font-size="10.00">func_802A53A4</text>
</a>
</g>
</g>
<!-- Node1&#45;&gt;Node801 -->
<g id="edge31_Node000001_Node000801" class="edge">
<title>Node1&#45;&gt;Node801</title>
<g id="a_edge31_Node000001_Node000801"><a xlink:title=" ">
<path fill="none" stroke="#63b8ff" d="M47.37,-352.02C51.55,-395.23 71.71,-576.61 127,-713.5 142.38,-751.59 169.66,-791.28 186.16,-813.55"/>
<polygon fill="#63b8ff" stroke="#63b8ff" points="183.5,-815.83 192.31,-821.71 189.09,-811.62 183.5,-815.83"/>
</a>
</g>
</g>
<!-- Node510 -->
<g id="Node000510" class="node">
<title>Node510</title>
<g id="a_Node000510"><a xlink:href="skybox__and__splitscreen_8c.html#a1ff551b00275f32a4c52eb741006cbc2" target="_top" xlink:title=" ">
<polygon fill="white" stroke="#666666" points="623,-841 570,-841 570,-822 623,-822 623,-841"/>
<text text-anchor="middle" x="596.5" y="-829" font-family="Helvetica,sans-Serif" font-size="10.00">init_rdp</text>
</a>
</g>
</g>
<!-- Node1&#45;&gt;Node510 -->
<g id="edge50_Node000001_Node000510" class="edge">
<title>Node1&#45;&gt;Node510</title>
<g id="a_edge50_Node000001_Node000510"><a xlink:title=" ">
<path fill="none" stroke="#63b8ff" d="M47.61,-352.28C53.3,-400.46 80.66,-612.02 127,-655.5 237.85,-759.53 344.31,-624.52 463,-719.5 494.39,-744.62 468.95,-775.78 499,-802.5 515.7,-817.35 539.76,-824.6 559.68,-828.14"/>
<polygon fill="#63b8ff" stroke="#63b8ff" points="559.24,-831.61 569.65,-829.67 560.3,-824.69 559.24,-831.61"/>
</a>
</g>
</g>
<!-- Node816 -->
<g id="Node000816" class="node">
<title>Node816</title>
<g id="a_Node000816"><a xlink:href="guLookAtF_8c.html#a8641b89f7767fe85370ca7d198ef5566" target="_top" xlink:title=" ">
<polygon fill="#fff0f0" stroke="red" points="232,-204 170,-204 170,-185 232,-185 232,-204"/>
<text text-anchor="middle" x="201" y="-192" font-family="Helvetica,sans-Serif" font-size="10.00">guLookAt</text>
</a>
</g>
</g>
<!-- Node1&#45;&gt;Node816 -->
<g id="edge45_Node000001_Node000816" class="edge">
<title>Node1&#45;&gt;Node816</title>
<g id="a_edge45_Node000001_Node000816"><a xlink:title=" ">
<path fill="none" stroke="#63b8ff" d="M49.62,-333C58,-308.99 83.39,-245.55 127,-213.5 136.55,-206.48 148.47,-202.05 159.89,-199.26"/>
<polygon fill="#63b8ff" stroke="#63b8ff" points="160.66,-202.67 169.73,-197.2 159.22,-195.82 160.66,-202.67"/>
</a>
</g>
</g>
<!-- Node818 -->
<g id="Node000818" class="node">
<title>Node818</title>
<g id="a_Node000818"><a xlink:href="guPerspectiveF_8c.html#ac2050885d6967becf0e5e3bb3e54bd08" target="_top" xlink:title=" ">
<polygon fill="#fff0f0" stroke="red" points="244,-241 158,-241 158,-222 244,-222 244,-241"/>
<text text-anchor="middle" x="201" y="-229" font-family="Helvetica,sans-Serif" font-size="10.00">guPerspective</text>
</a>
</g>
</g>
<!-- Node1&#45;&gt;Node818 -->
<g id="edge48_Node000001_Node000818" class="edge">
<title>Node1&#45;&gt;Node818</title>
<g id="a_edge48_Node000001_Node000818"><a xlink:title=" ">
<path fill="none" stroke="#63b8ff" d="M52.21,-332.73C63.8,-313.81 91.97,-272.14 127,-250.5 133.36,-246.57 140.51,-243.45 147.78,-240.97"/>
<polygon fill="#63b8ff" stroke="#63b8ff" points="149.15,-244.22 157.71,-237.98 147.13,-237.52 149.15,-244.22"/>
</a>
</g>
</g>
<!-- Node811 -->
<g id="Node000811" class="node">
<title>Node811</title>
<g id="a_Node000811"><a xlink:href="math__util_8c.html#ac22eee16b1def67d2441ce919df0c5ac" target="_top" xlink:title=" ">
<polygon fill="white" stroke="#666666" points="242.5,-167 159.5,-167 159.5,-148 242.5,-148 242.5,-167"/>
<text text-anchor="middle" x="201" y="-155" font-family="Helvetica,sans-Serif" font-size="10.00">mtxf_identity</text>
</a>
</g>
</g>
<!-- Node1&#45;&gt;Node811 -->
<g id="edge51_Node000001_Node000811" class="edge">
<title>Node1&#45;&gt;Node811</title>
<g id="a_edge51_Node000001_Node000811"><a xlink:title=" ">
<path fill="none" stroke="#63b8ff" d="M48.24,-332.89C53.94,-304.34 74.75,-219.36 127,-176.5 133.55,-171.13 141.45,-167.26 149.6,-164.47"/>
<polygon fill="#63b8ff" stroke="#63b8ff" points="150.59,-167.83 159.22,-161.68 148.64,-161.11 150.59,-167.83"/>
</a>
</g>
</g>
<!-- Node1316 -->
<g id="Node001316" class="node">
<title>Node1316</title>
<g id="a_Node001316"><a xlink:href="render__courses_8c.html#a2c5c720bdad055f349e2add80baa1a8a" target="_top" xlink:title=" ">
<polygon fill="#fff0f0" stroke="red" points="244,-130 158,-130 158,-111 244,-111 244,-130"/>
<text text-anchor="middle" x="201" y="-118" font-family="Helvetica,sans-Serif" font-size="10.00">render_course</text>
</a>
</g>
</g>
<!-- Node1&#45;&gt;Node1316 -->
<g id="edge52_Node000001_Node001316" class="edge">
<title>Node1&#45;&gt;Node1316</title>
<g id="a_edge52_Node000001_Node001316"><a xlink:title=" ">
<path fill="none" stroke="#63b8ff" d="M47.33,-332.7C50.66,-299.98 65.93,-193.49 127,-139.5 133,-134.19 140.3,-130.34 147.94,-127.54"/>
<polygon fill="#63b8ff" stroke="#63b8ff" points="149.19,-130.82 157.72,-124.54 147.14,-124.13 149.19,-130.82"/>
</a>
</g>
</g>
<!-- Node1322 -->
<g id="Node001322" class="node">
<title>Node1322</title>
<g id="a_Node001322"><a xlink:href="actors_8c.html#ab38aac73e6ef03aa38f4474b612234b0" target="_top" xlink:title=" ">
<polygon fill="#fff0f0" stroke="red" points="261.5,-93 140.5,-93 140.5,-74 261.5,-74 261.5,-93"/>
<text text-anchor="middle" x="201" y="-81" font-family="Helvetica,sans-Serif" font-size="10.00">render_course_actors</text>
</a>
</g>
</g>
<!-- Node1&#45;&gt;Node1322 -->
<g id="edge53_Node000001_Node001322" class="edge">
<title>Node1&#45;&gt;Node1322</title>
<g id="a_edge53_Node000001_Node001322"><a xlink:title=" ">
<path fill="none" stroke="#63b8ff" d="M46.66,-332.53C47.83,-295.94 56.96,-167.87 127,-102.5 128.67,-100.94 130.46,-99.5 132.33,-98.18"/>
<polygon fill="#63b8ff" stroke="#63b8ff" points="134.17,-101.16 141.04,-93.09 130.64,-95.12 134.17,-101.16"/>
</a>
</g>
</g>
<!-- Node820 -->
<g id="Node000820" class="node">
<title>Node820</title>
<g id="a_Node000820"><a xlink:href="code__80057C60_8c.html#a1c5d99ccb25e8dcf615304ca80ac7549" target="_top" xlink:title=" ">
<polygon fill="#fff0f0" stroke="red" points="242.5,-607 159.5,-607 159.5,-588 242.5,-588 242.5,-607"/>
<text text-anchor="middle" x="201" y="-595" font-family="Helvetica,sans-Serif" font-size="10.00">render_object</text>
</a>
</g>
</g>
<!-- Node1&#45;&gt;Node820 -->
<g id="edge54_Node000001_Node000820" class="edge">
<title>Node1&#45;&gt;Node820</title>
<g id="a_edge54_Node000001_Node000820"><a xlink:title=" ">
<path fill="none" stroke="#63b8ff" d="M49.17,-352.02C57.46,-380.5 84.76,-466.85 127,-527.5 141.56,-548.41 163.08,-568.11 178.98,-581.25"/>
<polygon fill="#63b8ff" stroke="#63b8ff" points="177.17,-584.29 187.15,-587.84 181.57,-578.84 177.17,-584.29"/>
</a>
</g>
</g>
<!-- Node1429 -->
<g id="Node001429" class="node">
<title>Node1429</title>
<g id="a_Node001429"><a xlink:href="code__80057C60_8c.html#a83ec3480e8cda4760c311bc59213f3da" target="_top" xlink:title=" ">
<polygon fill="#fff0f0" stroke="red" points="258.5,-518.5 143.5,-518.5 143.5,-488.5 258.5,-488.5 258.5,-518.5"/>
<text text-anchor="start" x="151.5" y="-506.5" font-family="Helvetica,sans-Serif" font-size="10.00">render_player_snow</text>
<text text-anchor="middle" x="201" y="-495.5" font-family="Helvetica,sans-Serif" font-size="10.00">_effect</text>
</a>
</g>
</g>
<!-- Node1&#45;&gt;Node1429 -->
<g id="edge56_Node000001_Node001429" class="edge">
<title>Node1&#45;&gt;Node1429</title>
<g id="a_edge56_Node000001_Node001429"><a xlink:title=" ">
<path fill="none" stroke="#63b8ff" d="M54.18,-352.03C68.14,-369.21 98.84,-406.29 127,-435.5 142.42,-451.49 160.71,-468.53 175.13,-481.55"/>
<polygon fill="#63b8ff" stroke="#63b8ff" points="172.91,-484.26 182.69,-488.33 177.59,-479.05 172.91,-484.26"/>
</a>
</g>
</g>
<!-- Node904 -->
<g id="Node000904" class="node">
<title>Node904</title>
<g id="a_Node000904"><a xlink:href="math__util_8c.html#a1e5d28a1962fbb390c7551f66c2f099a" target="_top" xlink:title=" ">
<polygon fill="#fff0f0" stroke="red" points="257.5,-56 144.5,-56 144.5,-37 257.5,-37 257.5,-56"/>
<text text-anchor="middle" x="201" y="-44" font-family="Helvetica,sans-Serif" font-size="10.00">render_set_position</text>
</a>
</g>
</g>
<!-- Node1&#45;&gt;Node904 -->
<g id="edge58_Node000001_Node000904" class="edge">
<title>Node1&#45;&gt;Node904</title>
<g id="a_edge58_Node000001_Node000904"><a xlink:title=" ">
<path fill="none" stroke="#63b8ff" d="M46.16,-332.98C45.3,-293.71 47.46,-142.82 127,-65.5 129.57,-63.01 132.42,-60.83 135.46,-58.93"/>
<polygon fill="#63b8ff" stroke="#63b8ff" points="137.2,-61.97 144.48,-54.27 133.99,-55.75 137.2,-61.97"/>
</a>
</g>
</g>
<!-- Node1594 -->
<g id="Node001594" class="node">
<title>Node1594</title>
<g id="a_Node001594"><a xlink:href="Game_8cpp.html#a24c17fb197ea8720e0544c07db4e25dc" target="_top" xlink:title=" ">
<polygon fill="white" stroke="#666666" points="245,-19 157,-19 157,0 245,0 245,-19"/>
<text text-anchor="middle" x="201" y="-7" font-family="Helvetica,sans-Serif" font-size="10.00">SetCourseById</text>
</a>
</g>
</g>
<!-- Node1&#45;&gt;Node1594 -->
<g id="edge59_Node000001_Node001594" class="edge">
<title>Node1&#45;&gt;Node1594</title>
<g id="a_edge59_Node000001_Node001594"><a xlink:title=" ">
<path fill="none" stroke="#63b8ff" d="M47.65,-332.71C53.52,-284.46 81.61,-72.51 127,-27.5 132.6,-21.94 139.63,-18.01 147.1,-15.23"/>
<polygon fill="#63b8ff" stroke="#63b8ff" points="148.17,-18.57 156.73,-12.31 146.14,-11.87 148.17,-18.57"/>
</a>
</g>
</g>
<!-- Node3 -->
<g id="Node000003" class="node">
<title>Node3</title>
<g id="a_Node000003"><a xlink:href="ceremony__and__credits_8c.html#a160bab6d6d445123f7da0d831e840eb7" target="_top" xlink:title=" ">
<polygon fill="white" stroke="#666666" points="463,-1171 311,-1171 311,-1152 463,-1152 463,-1171"/>
<text text-anchor="middle" x="387" y="-1159" font-family="Helvetica,sans-Serif" font-size="10.00">adjust_f32_value_transition</text>
</a>
</g>
</g>
<!-- Node2&#45;&gt;Node3 -->
<g id="edge2_Node000002_Node000003" class="edge">
<title>Node2&#45;&gt;Node3</title>
<g id="a_edge2_Node000002_Node000003"><a xlink:title=" ">
<path fill="none" stroke="#63b8ff" d="M244.71,-1122.52C264.72,-1129.32 288.96,-1137.23 311,-1143.5 318.25,-1145.56 325.95,-1147.59 333.53,-1149.5"/>
<polygon fill="#63b8ff" stroke="#63b8ff" points="332.85,-1152.94 343.4,-1151.93 334.53,-1146.14 332.85,-1152.94"/>
</a>
</g>
</g>
<!-- Node4 -->
<g id="Node000004" class="node">
<title>Node4</title>
<g id="a_Node000004"><a xlink:href="Engine_8cpp.html#a0b2a0a6072d24bc155959292bc165961" target="_top" xlink:title=" ">
<polygon fill="#fff0f0" stroke="red" points="460,-1134 314,-1134 314,-1115 460,-1115 460,-1134"/>
<text text-anchor="middle" x="387" y="-1122" font-family="Helvetica,sans-Serif" font-size="10.00">OTRGetGameRenderWidth</text>
</a>
</g>
</g>
<!-- Node2&#45;&gt;Node4 -->
<g id="edge3_Node000002_Node000004" class="edge">
<title>Node2&#45;&gt;Node4</title>
<g id="a_edge3_Node000002_Node000004"><a xlink:title=" ">
<path fill="none" stroke="#63b8ff" d="M259.71,-1112.83C273.67,-1114.12 288.86,-1115.52 303.7,-1116.9"/>
<polygon fill="#63b8ff" stroke="#63b8ff" points="303.63,-1120.4 313.91,-1117.84 304.27,-1113.43 303.63,-1120.4"/>
</a>
</g>
</g>
<!-- Node6 -->
<g id="Node000006" class="node">
<title>Node6</title>
<g id="a_Node000006"><a xlink:href="Engine_8cpp.html#af8ad96e953b60eb630f5261745844e45" target="_top" xlink:title=" ">
<polygon fill="#fff0f0" stroke="red" points="694,-1064 499,-1064 499,-1045 694,-1045 694,-1064"/>
<text text-anchor="middle" x="596.5" y="-1052" font-family="Helvetica,sans-Serif" font-size="10.00">OTRGetRectDimensionFromLeftEdge</text>
</a>
</g>
</g>
<!-- Node2&#45;&gt;Node6 -->
<g id="edge4_Node000002_Node000006" class="edge">
<title>Node2&#45;&gt;Node6</title>
<g id="a_edge4_Node000002_Node000006"><a xlink:title=" ">
<path fill="none" stroke="#63b8ff" d="M259.64,-1099.74C326.96,-1090.67 438.76,-1075.61 514.71,-1065.38"/>
<polygon fill="#63b8ff" stroke="#63b8ff" points="515.27,-1068.84 524.71,-1064.03 514.34,-1061.9 515.27,-1068.84"/>
</a>
</g>
</g>
<!-- Node14 -->
<g id="Node000014" class="node">
<title>Node14</title>
<g id="a_Node000014"><a xlink:href="render__objects_8c.html#a825e8e731c52353ac39601ed2aef3eb1" target="_top" xlink:title=" ">
<polygon fill="#fff0f0" stroke="red" points="642.5,-793 550.5,-793 550.5,-774 642.5,-774 642.5,-793"/>
<text text-anchor="middle" x="596.5" y="-781" font-family="Helvetica,sans-Serif" font-size="10.00">func_80051EBC</text>
</a>
</g>
</g>
<!-- Node13&#45;&gt;Node14 -->
<g id="edge10_Node000013_Node000014" class="edge">
<title>Node13&#45;&gt;Node14</title>
<g id="a_edge10_Node000013_Node000014"><a xlink:title=" ">
<path fill="none" stroke="#63b8ff" d="M433.25,-669.34C443.94,-672.89 454.64,-678.03 463,-685.5 492.08,-711.47 468.35,-741.4 499,-765.5 510.65,-774.66 525.51,-779.67 540.07,-782.3"/>
<polygon fill="#63b8ff" stroke="#63b8ff" points="539.65,-785.77 550.05,-783.76 540.66,-778.85 539.65,-785.77"/>
</a>
</g>
</g>
<!-- Node39 -->
<g id="Node000039" class="node">
<title>Node39</title>
<g id="a_Node000039"><a xlink:href="render__objects_8c.html#a467430e13a9dbbed38a9454bfb98fd24" target="_top" xlink:title=" ">
<polygon fill="#fff0f0" stroke="red" points="642,-756 551,-756 551,-737 642,-737 642,-756"/>
<text text-anchor="middle" x="596.5" y="-744" font-family="Helvetica,sans-Serif" font-size="10.00">func_80051EF8</text>
</a>
</g>
</g>
<!-- Node13&#45;&gt;Node39 -->
<g id="edge11_Node000013_Node000039" class="edge">
<title>Node13&#45;&gt;Node39</title>
<g id="a_edge11_Node000013_Node000039"><a xlink:title=" ">
<path fill="none" stroke="#63b8ff" d="M431.95,-671.02C442.66,-674.54 453.7,-679.25 463,-685.5 483.69,-699.4 477.48,-715.92 499,-728.5 511.55,-735.84 526.45,-740.28 540.74,-742.95"/>
<polygon fill="#63b8ff" stroke="#63b8ff" points="540.57,-746.47 551,-744.59 541.68,-739.56 540.57,-746.47"/>
</a>
</g>
</g>
<!-- Node43 -->
<g id="Node000043" class="node">
<title>Node43</title>
<g id="a_Node000043"><a xlink:href="render__objects_8c.html#aa24d319ba792bdbc5b99a914ec15cda5" target="_top" xlink:title=" ">
<polygon fill="#fff0f0" stroke="red" points="642.5,-719 550.5,-719 550.5,-700 642.5,-700 642.5,-719"/>
<text text-anchor="middle" x="596.5" y="-707" font-family="Helvetica,sans-Serif" font-size="10.00">func_80051F9C</text>
</a>
</g>
</g>
<!-- Node13&#45;&gt;Node43 -->
<g id="edge12_Node000013_Node000043" class="edge">
<title>Node13&#45;&gt;Node43</title>
<g id="a_edge12_Node000013_Node000043"><a xlink:title=" ">
<path fill="none" stroke="#63b8ff" d="M420.86,-671.12C442.86,-677.37 472.53,-685.46 499,-691.5 512.24,-694.52 526.59,-697.4 540.07,-699.94"/>
<polygon fill="#63b8ff" stroke="#63b8ff" points="539.71,-703.44 550.18,-701.81 540.99,-696.55 539.71,-703.44"/>
</a>
</g>
</g>
<!-- Node44 -->
<g id="Node000044" class="node">
<title>Node44</title>
<g id="a_Node000044"><a xlink:href="render__objects_8c.html#af8b0c2768b4b7052b73b67da5e51c25c" target="_top" xlink:title=" ">
<polygon fill="#fff0f0" stroke="red" points="642,-682 551,-682 551,-663 642,-663 642,-682"/>
<text text-anchor="middle" x="596.5" y="-670" font-family="Helvetica,sans-Serif" font-size="10.00">func_80052044</text>
</a>
</g>
</g>
<!-- Node13&#45;&gt;Node44 -->
<g id="edge13_Node000013_Node000044" class="edge">
<title>Node13&#45;&gt;Node44</title>
<g id="a_edge13_Node000013_Node000044"><a xlink:title=" ">
<path fill="none" stroke="#63b8ff" d="M433.02,-663.89C464.67,-665.56 507.2,-667.82 540.8,-669.6"/>
<polygon fill="#63b8ff" stroke="#63b8ff" points="540.75,-673.1 550.92,-670.14 541.12,-666.11 540.75,-673.1"/>
</a>
</g>
</g>
<!-- Node46 -->
<g id="Node000046" class="node">
<title>Node46</title>
<g id="a_Node000046"><a xlink:href="render__objects_8c.html#ab0b2597c5ad125d8c62911db932c9647" target="_top" xlink:title=" ">
<polygon fill="#fff0f0" stroke="red" points="642,-645 551,-645 551,-626 642,-626 642,-645"/>
<text text-anchor="middle" x="596.5" y="-633" font-family="Helvetica,sans-Serif" font-size="10.00">func_80052080</text>
</a>
</g>
</g>
<!-- Node13&#45;&gt;Node46 -->
<g id="edge14_Node000013_Node000046" class="edge">
<title>Node13&#45;&gt;Node46</title>
<g id="a_edge14_Node000013_Node000046"><a xlink:title=" ">
<path fill="none" stroke="#63b8ff" d="M433.02,-655.86C464.67,-651.89 507.2,-646.56 540.8,-642.35"/>
<polygon fill="#63b8ff" stroke="#63b8ff" points="541.43,-645.8 550.92,-641.09 540.56,-638.86 541.43,-645.8"/>
</a>
</g>
</g>
<!-- Node33 -->
<g id="Node000033" class="node">
<title>Node33</title>
<g id="a_Node000033"><a xlink:href="GBIMiddleware_8cpp.html#a4ecc44e3c6f1ca5a6b4a20c41d3bd2d2" target="_top" xlink:title=" ">
<polygon fill="#fff0f0" stroke="red" points="641,-571 552,-571 552,-552 641,-552 641,-571"/>
<text text-anchor="middle" x="596.5" y="-559" font-family="Helvetica,sans-Serif" font-size="10.00">gSPDisplayList</text>
</a>
</g>
</g>
<!-- Node13&#45;&gt;Node33 -->
<g id="edge15_Node000013_Node000033" class="edge">
<title>Node13&#45;&gt;Node33</title>
<g id="a_edge15_Node000013_Node000033"><a xlink:title=" ">
<path fill="none" stroke="#63b8ff" d="M433.34,-652.56C443.78,-649.05 454.35,-644.19 463,-637.5 486.7,-619.16 474.29,-597.44 499,-580.5 511.47,-571.95 526.86,-567.04 541.66,-564.28"/>
<polygon fill="#63b8ff" stroke="#63b8ff" points="542.44,-567.7 551.77,-562.69 541.35,-560.79 542.44,-567.7"/>
</a>
</g>
</g>
<!-- Node47 -->
<g id="Node000047" class="node">
<title>Node47</title>
<g id="a_Node000047"><a xlink:href="math__util__2_8c.html#aa0f56371081de86dcbb5ed53fd24292f" target="_top" xlink:title=" ">
<polygon fill="white" stroke="#666666" points="661.5,-608 531.5,-608 531.5,-589 661.5,-589 661.5,-608"/>
<text text-anchor="middle" x="596.5" y="-596" font-family="Helvetica,sans-Serif" font-size="10.00">set_matrix_hud_screen</text>
</a>
</g>
</g>
<!-- Node13&#45;&gt;Node47 -->
<g id="edge16_Node000013_Node000047" class="edge">
<title>Node13&#45;&gt;Node47</title>
<g id="a_edge16_Node000013_Node000047"><a xlink:title=" ">
<path fill="none" stroke="#63b8ff" d="M422.87,-651.91C435.7,-647.97 450.2,-643.04 463,-637.5 479.8,-630.23 481.81,-623.79 499,-617.5 506.47,-614.77 514.41,-612.4 522.41,-610.36"/>
<polygon fill="#63b8ff" stroke="#63b8ff" points="523.26,-613.75 532.17,-608.02 521.63,-606.95 523.26,-613.75"/>
</a>
</g>
</g>
<!-- Node48&#45;&gt;Node33 -->
<g id="edge27_Node000048_Node000033" class="edge">
<title>Node48&#45;&gt;Node33</title>
<g id="a_edge27_Node000048_Node000033"><a xlink:title=" ">
<path fill="none" stroke="#63b8ff" d="M228.25,-426.04C250.22,-433.87 282.46,-445.01 311,-453.5 377.85,-473.39 397.87,-467.56 463,-492.5 502.26,-507.53 544.92,-531.19 570.94,-546.53"/>
<polygon fill="#63b8ff" stroke="#63b8ff" points="569.35,-549.65 579.74,-551.77 572.94,-543.64 569.35,-549.65"/>
</a>
</g>
</g>
<!-- Node49 -->
<g id="Node000049" class="node">
<title>Node49</title>
<g id="a_Node000049"><a xlink:href="Matrix_8cpp.html#a11c8471303ff583e65dfe68519c8c6cd" target="_top" xlink:title=" ">
<polygon fill="#fff0f0" stroke="red" points="448,-444 326,-444 326,-425 448,-425 448,-444"/>
<text text-anchor="middle" x="387" y="-432" font-family="Helvetica,sans-Serif" font-size="10.00">AddEffectMatrixOrtho</text>
</a>
</g>
</g>
<!-- Node48&#45;&gt;Node49 -->
<g id="edge18_Node000048_Node000049" class="edge">
<title>Node48&#45;&gt;Node49</title>
<g id="a_edge18_Node000048_Node000049"><a xlink:title=" ">
<path fill="none" stroke="#63b8ff" d="M246.54,-420.86C267.29,-422.89 292.48,-425.35 315.72,-427.62"/>
<polygon fill="#63b8ff" stroke="#63b8ff" points="315.59,-431.13 325.88,-428.62 316.27,-424.16 315.59,-431.13"/>
</a>
</g>
</g>
<!-- Node51 -->
<g id="Node000051" class="node">
<title>Node51</title>
<g id="a_Node000051"><a xlink:href="Matrix_8cpp.html#aa2be67d7f81f16caecbc40113f5a2bd0" target="_top" xlink:title=" ">
<polygon fill="white" stroke="#666666" points="451,-407 323,-407 323,-388 451,-388 451,-407"/>
<text text-anchor="middle" x="387" y="-395" font-family="Helvetica,sans-Serif" font-size="10.00">ClearEffectsMatrixPool</text>
</a>
</g>
</g>
<!-- Node48&#45;&gt;Node51 -->
<g id="edge19_Node000048_Node000051" class="edge">
<title>Node48&#45;&gt;Node51</title>
<g id="a_edge19_Node000048_Node000051"><a xlink:title=" ">
<path fill="none" stroke="#63b8ff" d="M246.54,-411.9C266.37,-409.85 290.25,-407.39 312.6,-405.08"/>
<polygon fill="#63b8ff" stroke="#63b8ff" points="313.16,-408.54 322.75,-404.03 312.44,-401.58 313.16,-408.54"/>
</a>
</g>
</g>
<!-- Node52 -->
<g id="Node000052" class="node">
<title>Node52</title>
<g id="a_Node000052"><a xlink:href="menu__items_8c.html#ab804a61cd6e485851b3611d6f9b03bb3" target="_top" xlink:title=" ">
<polygon fill="white" stroke="#666666" points="432.5,-370 341.5,-370 341.5,-351 432.5,-351 432.5,-370"/>
<text text-anchor="middle" x="387" y="-358" font-family="Helvetica,sans-Serif" font-size="10.00">func_80092290</text>
</a>
</g>
</g>
<!-- Node48&#45;&gt;Node52 -->
<g id="edge20_Node000048_Node000052" class="edge">
<title>Node48&#45;&gt;Node52</title>
<g id="a_edge20_Node000048_Node000052"><a xlink:title=" ">
<path fill="none" stroke="#63b8ff" d="M246.54,-407.35C256.06,-404.89 265.97,-401.94 275,-398.5 291.91,-392.06 294.11,-385.99 311,-379.5 317.49,-377.01 324.41,-374.75 331.34,-372.72"/>
<polygon fill="#63b8ff" stroke="#63b8ff" points="332.73,-375.97 341.43,-369.94 330.86,-369.23 332.73,-375.97"/>
</a>
</g>
</g>
<!-- Node53 -->
<g id="Node000053" class="node">
<title>Node53</title>
<g id="a_Node000053"><a xlink:href="menu__items_8c.html#ac6ec4c42ba222e5620f5c1b6aa2535cf" target="_top" xlink:title=" ">
<polygon fill="white" stroke="#666666" points="433,-333 341,-333 341,-314 433,-314 433,-333"/>
<text text-anchor="middle" x="387" y="-321" font-family="Helvetica,sans-Serif" font-size="10.00">func_80099A70</text>
</a>
</g>
</g>
<!-- Node48&#45;&gt;Node53 -->
<g id="edge21_Node000048_Node000053" class="edge">
<title>Node48&#45;&gt;Node53</title>
<g id="a_edge21_Node000048_Node000053"><a xlink:title=" ">
<path fill="none" stroke="#63b8ff" d="M246.79,-411.08C256.7,-408.4 266.72,-404.42 275,-398.5 299.07,-381.29 286.98,-359.78 311,-342.5 317,-338.18 323.88,-334.85 330.99,-332.27"/>
<polygon fill="#63b8ff" stroke="#63b8ff" points="332.27,-335.53 340.76,-329.19 330.17,-328.85 332.27,-335.53"/>
</a>
</g>
</g>
<!-- Node54 -->
<g id="Node000054" class="node">
<title>Node54</title>
<g id="a_Node000054"><a xlink:href="menu__items_8h.html#a0250d0c3ad00aaf82903bf60ed652def" target="_top" xlink:title=" ">
<polygon fill="white" stroke="#666666" points="433,-296 341,-296 341,-277 433,-277 433,-296"/>
<text text-anchor="middle" x="387" y="-284" font-family="Helvetica,sans-Serif" font-size="10.00">func_80099AEC</text>
</a>
</g>
</g>
<!-- Node48&#45;&gt;Node54 -->
<g id="edge22_Node000048_Node000054" class="edge">
<title>Node48&#45;&gt;Node54</title>
<g id="a_edge22_Node000048_Node000054"><a xlink:title=" ">
<path fill="none" stroke="#63b8ff" d="M246.57,-412.56C256.84,-409.85 267.06,-405.48 275,-398.5 308.27,-369.22 277.82,-334.88 311,-305.5 316.87,-300.3 323.96,-296.49 331.41,-293.7"/>
<polygon fill="#63b8ff" stroke="#63b8ff" points="332.49,-297.02 340.97,-290.68 330.38,-290.35 332.49,-297.02"/>
</a>
</g>
</g>
<!-- Node55 -->
<g id="Node000055" class="node">
<title>Node55</title>
<g id="a_Node000055"><a xlink:href="menu__items_8c.html#a80ec798e2d55b54cd3bcd7dfa05c62cf" target="_top" xlink:title=" ">
<polygon fill="white" stroke="#666666" points="432.5,-259 341.5,-259 341.5,-240 432.5,-240 432.5,-259"/>
<text text-anchor="middle" x="387" y="-247" font-family="Helvetica,sans-Serif" font-size="10.00">func_80099E54</text>
</a>
</g>
</g>
<!-- Node48&#45;&gt;Node55 -->
<g id="edge23_Node000048_Node000055" class="edge">
<title>Node48&#45;&gt;Node55</title>
<g id="a_edge23_Node000048_Node000055"><a xlink:title=" ">
<path fill="none" stroke="#63b8ff" d="M246.69,-413.2C257.08,-410.49 267.32,-405.96 275,-398.5 317.99,-356.71 268.14,-310.42 311,-268.5 316.74,-262.89 323.89,-258.86 331.47,-255.98"/>
<polygon fill="#63b8ff" stroke="#63b8ff" points="332.74,-259.25 341.24,-252.92 330.65,-252.57 332.74,-259.25"/>
</a>
</g>
</g>
<!-- Node56 -->
<g id="Node000056" class="node">
<title>Node56</title>
<g id="a_Node000056"><a xlink:href="menu__items_8c.html#abb491fbf848c6e5509054ad65807818b" target="_top" xlink:title=" ">
<polygon fill="#fff0f0" stroke="red" points="433,-222 341,-222 341,-203 433,-203 433,-222"/>
<text text-anchor="middle" x="387" y="-210" font-family="Helvetica,sans-Serif" font-size="10.00">func_80099EC4</text>
</a>
</g>
</g>
<!-- Node48&#45;&gt;Node56 -->
<g id="edge24_Node000048_Node000056" class="edge">
<title>Node48&#45;&gt;Node56</title>
<g id="a_edge24_Node000048_Node000056"><a xlink:title=" ">
<path fill="none" stroke="#63b8ff" d="M246.61,-413.6C257.13,-410.9 267.45,-406.27 275,-398.5 327.89,-344.03 258.28,-286.14 311,-231.5 316.57,-225.72 323.63,-221.61 331.18,-218.69"/>
<polygon fill="#63b8ff" stroke="#63b8ff" points="332.45,-221.96 340.93,-215.61 330.34,-215.29 332.45,-221.96"/>
</a>
</g>
</g>
<!-- Node70 -->
<g id="Node000070" class="node">
<title>Node70</title>
<g id="a_Node000070"><a xlink:href="menu__items_8c.html#a29cbe5c8f91343f11f916dc66094707a" target="_top" xlink:title=" ">
<polygon fill="white" stroke="#666666" points="433,-185 341,-185 341,-166 433,-166 433,-185"/>
<text text-anchor="middle" x="387" y="-173" font-family="Helvetica,sans-Serif" font-size="10.00">func_8009C918</text>
</a>
</g>
</g>
<!-- Node48&#45;&gt;Node70 -->
<g id="edge25_Node000048_Node000070" class="edge">
<title>Node48&#45;&gt;Node70</title>
<g id="a_edge25_Node000048_Node000070"><a xlink:title=" ">
<path fill="none" stroke="#63b8ff" d="M246.82,-413.79C257.33,-411.09 267.6,-406.41 275,-398.5 337.88,-331.25 248.33,-261.95 311,-194.5 316.46,-188.62 323.46,-184.45 330.99,-181.51"/>
<polygon fill="#63b8ff" stroke="#63b8ff" points="332.25,-184.78 340.72,-178.41 330.13,-178.11 332.25,-184.78"/>
</a>
</g>
</g>
<!-- Node71 -->
<g id="Node000071" class="node">
<title>Node71</title>
<g id="a_Node000071"><a xlink:href="menu__items_8c.html#a7ce80b05c85045464b43508403003739" target="_top" xlink:title=" ">
<polygon fill="#fff0f0" stroke="red" points="433.5,-557 340.5,-557 340.5,-538 433.5,-538 433.5,-557"/>
<text text-anchor="middle" x="387" y="-545" font-family="Helvetica,sans-Serif" font-size="10.00">func_8009CA2C</text>
</a>
</g>
</g>
<!-- Node48&#45;&gt;Node71 -->
<g id="edge26_Node000048_Node000071" class="edge">
<title>Node48&#45;&gt;Node71</title>
<g id="a_edge26_Node000048_Node000071"><a xlink:title=" ">
<path fill="none" stroke="#63b8ff" d="M214.94,-426.15C230.2,-437.86 255.89,-458.63 275,-479.5 293.49,-499.7 288.26,-514.24 311,-529.5 316.83,-533.41 323.41,-536.48 330.2,-538.88"/>
<polygon fill="#63b8ff" stroke="#63b8ff" points="329.64,-542.36 340.22,-541.94 331.68,-535.67 329.64,-542.36"/>
</a>
</g>
</g>
<!-- Node116 -->
<g id="Node000116" class="node">
<title>Node116</title>
<g id="a_Node000116"><a xlink:href="menu__items_8c.html#a1e3ad283dd2f5c1852b442746a11649c" target="_top" xlink:title=" ">
<polygon fill="#fff0f0" stroke="red" points="451,-520 323,-520 323,-501 451,-501 451,-520"/>
<text text-anchor="middle" x="387" y="-508" font-family="Helvetica,sans-Serif" font-size="10.00">handle_menus_default</text>
</a>
</g>
</g>
<!-- Node48&#45;&gt;Node116 -->
<g id="edge28_Node000048_Node000116" class="edge">
<title>Node48&#45;&gt;Node116</title>
<g id="a_edge28_Node000048_Node000116"><a xlink:title=" ">
<path fill="none" stroke="#63b8ff" d="M214.45,-426.05C234.07,-440.73 273.77,-468.96 311,-486.5 320.09,-490.78 330.14,-494.58 339.86,-497.83"/>
<polygon fill="#63b8ff" stroke="#63b8ff" points="338.82,-501.17 349.41,-500.88 340.95,-494.5 338.82,-501.17"/>
</a>
</g>
</g>
<!-- Node800 -->
<g id="Node000800" class="node">
<title>Node800</title>
<g id="a_Node000800"><a xlink:href="render__objects_8c.html#a177b409a09064a27359b1dc5db7ec445" target="_top" xlink:title=" ">
<polygon fill="#fff0f0" stroke="red" points="432.5,-148 341.5,-148 341.5,-129 432.5,-129 432.5,-148"/>
<text text-anchor="middle" x="387" y="-136" font-family="Helvetica,sans-Serif" font-size="10.00">func_800579F8</text>
</a>
</g>
</g>
<!-- Node799&#45;&gt;Node800 -->
<g id="edge30_Node000799_Node000800" class="edge">
<title>Node799&#45;&gt;Node800</title>
<g id="a_edge30_Node000799_Node000800"><a xlink:title=" ">
<path fill="none" stroke="#63b8ff" d="M247.33,-264.35C257.34,-261.63 267.26,-257.31 275,-250.5 308.27,-221.22 277.82,-186.88 311,-157.5 316.94,-152.24 324.13,-148.4 331.68,-145.59"/>
<polygon fill="#63b8ff" stroke="#63b8ff" points="332.86,-148.89 341.36,-142.58 330.78,-142.21 332.86,-148.89"/>
</a>
</g>
</g>
<!-- Node801&#45;&gt;Node13 -->
<g id="edge32_Node000801_Node000013" class="edge">
<title>Node801&#45;&gt;Node13</title>
<g id="a_edge32_Node000801_Node000013"><a xlink:title=" ">
<path fill="none" stroke="#63b8ff" d="M210.62,-821.76C228.51,-801.75 271.32,-754.91 311,-719.5 328.14,-704.2 348.89,-688.34 364.22,-677.08"/>
<polygon fill="#63b8ff" stroke="#63b8ff" points="366.52,-679.73 372.54,-671.02 362.4,-674.07 366.52,-679.73"/>
</a>
</g>
</g>
<!-- Node802 -->
<g id="Node000802" class="node">
<title>Node802</title>
<g id="a_Node000802"><a xlink:href="menu__items_8c.html#a6cc677f84eccb008ce70c4b051701cb6" target="_top" xlink:title=" ">
<polygon fill="#fff0f0" stroke="red" points="433,-784 341,-784 341,-765 433,-765 433,-784"/>
<text text-anchor="middle" x="387" y="-772" font-family="Helvetica,sans-Serif" font-size="10.00">func_80093A30</text>
</a>
</g>
</g>
<!-- Node801&#45;&gt;Node802 -->
<g id="edge33_Node000801_Node000802" class="edge">
<title>Node801&#45;&gt;Node802</title>
<g id="a_edge33_Node000801_Node000802"><a xlink:title=" ">
<path fill="none" stroke="#63b8ff" d="M232.8,-821.96C263.71,-812.38 311.5,-797.58 345.47,-787.05"/>
<polygon fill="#63b8ff" stroke="#63b8ff" points="346.59,-790.37 355.1,-784.07 344.51,-783.69 346.59,-790.37"/>
</a>
</g>
</g>
<!-- Node806 -->
<g id="Node000806" class="node">
<title>Node806</title>
<g id="a_Node000806"><a xlink:href="skybox__and__splitscreen_8c.html#ae4ccafca07028b0c92356fdf52e84180" target="_top" xlink:title=" ">
<polygon fill="white" stroke="#666666" points="433,-747 341,-747 341,-728 433,-728 433,-747"/>
<text text-anchor="middle" x="387" y="-735" font-family="Helvetica,sans-Serif" font-size="10.00">func_802A3730</text>
</a>
</g>
</g>
<!-- Node801&#45;&gt;Node806 -->
<g id="edge34_Node000801_Node000806" class="edge">
<title>Node801&#45;&gt;Node806</title>
<g id="a_edge34_Node000801_Node000806"><a xlink:title=" ">
<path fill="none" stroke="#63b8ff" d="M212.96,-821.95C231.75,-806.07 271.87,-774.23 311,-756.5 317.25,-753.67 323.99,-751.21 330.77,-749.09"/>
<polygon fill="#63b8ff" stroke="#63b8ff" points="332.06,-752.36 340.7,-746.22 330.12,-745.64 332.06,-752.36"/>
</a>
</g>
</g>
<!-- Node807 -->
<g id="Node000807" class="node">
<title>Node807</title>
<g id="a_Node000807"><a xlink:href="skybox__and__splitscreen_8c.html#ac2b757ad60cbf91f4c5a7a9b290b10f6" target="_top" xlink:title=" ">
<polygon fill="#fff0f0" stroke="red" points="433,-860 341,-860 341,-841 433,-841 433,-860"/>
<text text-anchor="middle" x="387" y="-848" font-family="Helvetica,sans-Serif" font-size="10.00">func_802A487C</text>
</a>
</g>
</g>
<!-- Node801&#45;&gt;Node807 -->
<g id="edge35_Node000801_Node000807" class="edge">
<title>Node801&#45;&gt;Node807</title>
<g id="a_edge35_Node000801_Node000807"><a xlink:title=" ">
<path fill="none" stroke="#63b8ff" d="M247.01,-836.15C272.29,-838.76 304.05,-842.04 330.82,-844.8"/>
<polygon fill="#63b8ff" stroke="#63b8ff" points="330.51,-848.29 340.82,-845.83 331.23,-841.33 330.51,-848.29"/>
</a>
</g>
</g>
<!-- Node801&#45;&gt;Node510 -->
<g id="edge41_Node000801_Node000510" class="edge">
<title>Node801&#45;&gt;Node510</title>
<g id="a_edge41_Node000801_Node000510"><a xlink:title=" ">
<path fill="none" stroke="#63b8ff" d="M247.14,-831.5C326.06,-831.5 487.55,-831.5 559.51,-831.5"/>
<polygon fill="#63b8ff" stroke="#63b8ff" points="559.87,-835 569.87,-831.5 559.87,-828 559.87,-835"/>
</a>
</g>
</g>
<!-- Node808 -->
<g id="Node000808" class="node">
<title>Node808</title>
<g id="a_Node000808"><a xlink:href="skybox__and__splitscreen_8c.html#a6135e98ec3076399696ca04f441529f4" target="_top" xlink:title=" ">
<polygon fill="#fff0f0" stroke="red" points="433.5,-934 340.5,-934 340.5,-915 433.5,-915 433.5,-934"/>
<text text-anchor="middle" x="387" y="-922" font-family="Helvetica,sans-Serif" font-size="10.00">func_802A4A0C</text>
</a>
</g>
</g>
<!-- Node801&#45;&gt;Node808 -->
<g id="edge37_Node000801_Node000808" class="edge">
<title>Node801&#45;&gt;Node808</title>
<g id="a_edge37_Node000801_Node000808"><a xlink:title=" ">
<path fill="none" stroke="#63b8ff" d="M212.94,-841.1C231.69,-857.06 271.76,-889.02 311,-906.5 317.16,-909.25 323.81,-911.61 330.5,-913.63"/>
<polygon fill="#63b8ff" stroke="#63b8ff" points="329.73,-917.05 340.3,-916.36 331.6,-910.3 329.73,-917.05"/>
</a>
</g>
</g>
<!-- Node511 -->
<g id="Node000511" class="node">
<title>Node511</title>
<g id="a_Node000511"><a xlink:href="skybox__and__splitscreen_8c.html#af301b54a848553e5cbefdeaecc5dd67b" target="_top" xlink:title=" ">
<polygon fill="white" stroke="#666666" points="425.5,-1020 348.5,-1020 348.5,-1001 425.5,-1001 425.5,-1020"/>
<text text-anchor="middle" x="387" y="-1008" font-family="Helvetica,sans-Serif" font-size="10.00">init_z_buffer</text>
</a>
</g>
</g>
<!-- Node801&#45;&gt;Node511 -->
<g id="edge42_Node000801_Node000511" class="edge">
<title>Node801&#45;&gt;Node511</title>
<g id="a_edge42_Node000801_Node000511"><a xlink:title=" ">
<path fill="none" stroke="#63b8ff" d="M205.69,-841.22C216.87,-869.29 253.16,-951.04 311,-991.5 319.09,-997.16 328.71,-1001.13 338.32,-1003.92"/>
<polygon fill="#63b8ff" stroke="#63b8ff" points="337.72,-1007.38 348.27,-1006.43 339.42,-1000.59 337.72,-1007.38"/>
</a>
</g>
</g>
<!-- Node512 -->
<g id="Node000512" class="node">
<title>Node512</title>
<g id="a_Node000512"><a xlink:href="memory_8c.html#a7c0c87d5c791d9405698582f9128f4ec" target="_top" xlink:title=" ">
<polygon fill="white" stroke="#666666" points="448,-982.5 326,-982.5 326,-952.5 448,-952.5 448,-982.5"/>
<text text-anchor="start" x="334" y="-970.5" font-family="Helvetica,sans-Serif" font-size="10.00">move_segment_table</text>
<text text-anchor="middle" x="387" y="-959.5" font-family="Helvetica,sans-Serif" font-size="10.00">_to_dmem</text>
</a>
</g>
</g>
<!-- Node801&#45;&gt;Node512 -->
<g id="edge43_Node000801_Node000512" class="edge">
<title>Node801&#45;&gt;Node512</title>
<g id="a_edge43_Node000801_Node000512"><a xlink:title=" ">
<path fill="none" stroke="#63b8ff" d="M208.74,-841.13C224.29,-862.64 264.86,-914.94 311,-943.5 313.65,-945.14 316.42,-946.67 319.26,-948.12"/>
<polygon fill="#63b8ff" stroke="#63b8ff" points="318.03,-951.4 328.58,-952.39 320.95,-945.04 318.03,-951.4"/>
</a>
</g>
</g>
<!-- Node513 -->
<g id="Node000513" class="node">
<title>Node513</title>
<g id="a_Node000513"><a xlink:href="skybox__and__splitscreen_8c.html#ab481a35d4548245b2a89ab574f460a14" target="_top" xlink:title=" ">
<polygon fill="white" stroke="#666666" points="441.5,-897 332.5,-897 332.5,-878 441.5,-878 441.5,-897"/>
<text text-anchor="middle" x="387" y="-885" font-family="Helvetica,sans-Serif" font-size="10.00">select_framebuffer</text>
</a>
</g>
</g>
<!-- Node801&#45;&gt;Node513 -->
<g id="edge44_Node000801_Node000513" class="edge">
<title>Node801&#45;&gt;Node513</title>
<g id="a_edge44_Node000801_Node000513"><a xlink:title=" ">
<path fill="none" stroke="#63b8ff" d="M227.31,-841.13C249.26,-849.29 281.96,-860.98 311,-869.5 318.15,-871.6 325.73,-873.63 333.22,-875.54"/>
<polygon fill="#63b8ff" stroke="#63b8ff" points="332.42,-878.94 342.97,-877.95 334.11,-872.15 332.42,-878.94"/>
</a>
</g>
</g>
<!-- Node807&#45;&gt;Node510 -->
<g id="edge36_Node000807_Node000510" class="edge">
<title>Node807&#45;&gt;Node510</title>
<g id="a_edge36_Node000807_Node000510"><a xlink:title=" ">
<path fill="none" stroke="#63b8ff" d="M433.02,-846.38C470.94,-842.91 524.46,-838.01 559.55,-834.79"/>
<polygon fill="#63b8ff" stroke="#63b8ff" points="560.18,-838.25 569.82,-833.85 559.54,-831.28 560.18,-838.25"/>
</a>
</g>
</g>
<!-- Node808&#45;&gt;Node6 -->
<g id="edge40_Node000808_Node000006" class="edge">
<title>Node808&#45;&gt;Node6</title>
<g id="a_edge40_Node000808_Node000006"><a xlink:title=" ">
<path fill="none" stroke="#63b8ff" d="M433.66,-932.49C443.65,-935.2 453.94,-938.79 463,-943.5 481.73,-953.24 482.87,-960.87 499,-974.5 525.5,-996.89 556.41,-1022.42 575.97,-1038.49"/>
<polygon fill="#63b8ff" stroke="#63b8ff" points="573.91,-1041.32 583.86,-1044.96 578.35,-1035.91 573.91,-1041.32"/>
</a>
</g>
</g>
<!-- Node808&#45;&gt;Node11 -->
<g id="edge38_Node000808_Node000011" class="edge">
<title>Node808&#45;&gt;Node11</title>
<g id="a_edge38_Node000808_Node000011"><a xlink:title=" ">
<path fill="none" stroke="#63b8ff" d="M433.54,-931.3C466.51,-936.23 511.09,-942.89 545.13,-947.97"/>
<polygon fill="#63b8ff" stroke="#63b8ff" points="544.92,-951.48 555.33,-949.5 545.95,-944.56 544.92,-951.48"/>
</a>
</g>
</g>
<!-- Node808&#45;&gt;Node510 -->
<g id="edge39_Node000808_Node000510" class="edge">
<title>Node808&#45;&gt;Node510</title>
<g id="a_edge39_Node000808_Node000510"><a xlink:title=" ">
<path fill="none" stroke="#63b8ff" d="M433.84,-915.65C443.62,-913.17 453.78,-910.13 463,-906.5 503.74,-890.45 547.24,-863.77 572.86,-846.93"/>
<polygon fill="#63b8ff" stroke="#63b8ff" points="575.07,-849.67 581.46,-841.21 571.19,-843.84 575.07,-849.67"/>
</a>
</g>
</g>
<!-- Node26 -->
<g id="Node000026" class="node">
<title>Node26</title>
<g id="a_Node000026"><a xlink:href="FrameInterpolation_8cpp.html#a8cf1f2d6fabc6925aa71a9515341b4aa" target="_top" xlink:title=" ">
<polygon fill="#fff0f0" stroke="red" points="457,-110.5 317,-110.5 317,-80.5 457,-80.5 457,-110.5"/>
<text text-anchor="start" x="325" y="-98.5" font-family="Helvetica,sans-Serif" font-size="10.00">FrameInterpolation</text>
<text text-anchor="middle" x="387" y="-87.5" font-family="Helvetica,sans-Serif" font-size="10.00">_RecordMatrixMtxFToMtx</text>
</a>
</g>
</g>
<!-- Node816&#45;&gt;Node26 -->
<g id="edge46_Node000816_Node000026" class="edge">
<title>Node816&#45;&gt;Node26</title>
<g id="a_edge46_Node000816_Node000026"><a xlink:title=" ">
<path fill="none" stroke="#63b8ff" d="M232.2,-192.2C246.26,-189.9 262.58,-185.38 275,-176.5 299.07,-159.29 287.64,-138.66 311,-120.5 313.41,-118.62 315.98,-116.88 318.64,-115.27"/>
<polygon fill="#63b8ff" stroke="#63b8ff" points="320.3,-118.36 327.46,-110.55 316.99,-112.19 320.3,-118.36"/>
</a>
</g>
</g>
<!-- Node817 -->
<g id="Node000817" class="node">
<title>Node817</title>
<g id="a_Node000817"><a xlink:href="guLookAtF_8c.html#a221be5535617db52477d4cb992afa4a9" target="_top" xlink:title=" ">
<polygon fill="#fff0f0" stroke="red" points="421,-62 353,-62 353,-43 421,-43 421,-62"/>
<text text-anchor="middle" x="387" y="-50" font-family="Helvetica,sans-Serif" font-size="10.00">guLookAtF</text>
</a>
</g>
</g>
<!-- Node816&#45;&gt;Node817 -->
<g id="edge47_Node000816_Node000817" class="edge">
<title>Node816&#45;&gt;Node817</title>
<g id="a_edge47_Node000816_Node000817"><a xlink:title=" ">
<path fill="none" stroke="#63b8ff" d="M232.13,-193.61C246.68,-191.69 263.44,-187.07 275,-176.5 311.39,-143.19 274.71,-104.92 311,-71.5 319.71,-63.48 331.32,-58.73 342.79,-55.95"/>
<polygon fill="#63b8ff" stroke="#63b8ff" points="343.64,-59.35 352.77,-53.98 342.28,-52.48 343.64,-59.35"/>
</a>
</g>
</g>
<!-- Node818&#45;&gt;Node26 -->
<g id="edge49_Node000818_Node000026" class="edge">
<title>Node818&#45;&gt;Node26</title>
<g id="a_edge49_Node000818_Node000026"><a xlink:title=" ">
<path fill="none" stroke="#63b8ff" d="M244.29,-228.13C255.31,-225.48 266.47,-221 275,-213.5 308.27,-184.22 278.92,-151.09 311,-120.5 312.65,-118.92 314.41,-117.44 316.25,-116.06"/>
<polygon fill="#63b8ff" stroke="#63b8ff" points="318.26,-118.92 324.77,-110.56 314.47,-113.04 318.26,-118.92"/>
</a>
</g>
</g>
<!-- Node820&#45;&gt;Node33 -->
<g id="edge55_Node000820_Node000033" class="edge">
<title>Node820&#45;&gt;Node33</title>
<g id="a_edge55_Node000820_Node000033"><a xlink:title=" ">
<path fill="none" stroke="#63b8ff" d="M242.63,-598.42C263.13,-598.84 288.38,-599.29 311,-599.5 378.55,-600.12 397.43,-615.74 463,-599.5 480.56,-595.15 481.94,-586.53 499,-580.5 512.47,-575.73 527.45,-572.05 541.51,-569.26"/>
<polygon fill="#63b8ff" stroke="#63b8ff" points="542.36,-572.66 551.54,-567.38 541.07,-565.78 542.36,-572.66"/>
</a>
</g>
</g>
<!-- Node1429&#45;&gt;Node33 -->
<g id="edge57_Node001429_Node000033" class="edge">
<title>Node1429&#45;&gt;Node33</title>
<g id="a_edge57_Node001429_Node000033"><a xlink:title=" ">
<path fill="none" stroke="#63b8ff" d="M221.08,-518.75C241.81,-534.25 276.59,-557.27 311,-566.5 389.09,-587.45 483.62,-579.56 541.65,-571.15"/>
<polygon fill="#63b8ff" stroke="#63b8ff" points="542.33,-574.59 551.7,-569.64 541.29,-567.67 542.33,-574.59"/>
</a>
</g>
</g>
</g>
</svg>
