<?xml version="1.0" encoding="UTF-8" standalone="no"?>
<!DOCTYPE svg PUBLIC "-//W3C//DTD SVG 1.1//EN"
 "http://www.w3.org/Graphics/SVG/1.1/DTD/svg11.dtd">
<!-- Generated by graphviz version 2.43.0 (0)
 -->
<!-- Title: func_8006CEC0 Pages: 1 -->
<!--zoomable 499 -->

<svg id="main" version="1.1" xmlns="http://www.w3.org/2000/svg" xmlns:xlink="http://www.w3.org/1999/xlink" xml:space="preserve" onload="init(evt)">

<style type="text/css"><![CDATA[
.node, .edge {opacity: 0.7;}
.node.selected, .edge.selected {opacity: 1;}
.edge:hover path { stroke: red; }
.edge:hover polygon { stroke: red; fill: red; }
]]></style>

<defs>
  <circle id="rim" cx="0" cy="0" r="7"/>
  <circle id="rim2" cx="0" cy="0" r="3.5"/>
  <g id="zoomPlus">
    <use xlink:href="#rim" fill="#404040"><set attributeName="fill" to="#808080" begin="zoomplus.mouseover" end="zoomplus.mouseout"/></use>
    <path d="M-4,0h8M0,-4v8" fill="none" stroke="white" stroke-width="1.5" pointer-events="none"/>
  </g>
  <g id="zoomMin">
    <use xlink:href="#rim" fill="#404040"><set attributeName="fill" to="#808080" begin="zoomminus.mouseover" end="zoomminus.mouseout"/></use>
    <path d="M-4,0h8" fill="none" stroke="white" stroke-width="1.5" pointer-events="none"/>
  </g>
  <g id="arrowUp" transform="translate(30 24)">
    <use xlink:href="#rim"/>
    <path pointer-events="none" fill="none" stroke="white" stroke-width="1.5" d="M0,-3.0v7 M-2.5,-0.5L0,-3.0L2.5,-0.5"/>
  </g>
  <g id="arrowRight" transform="rotate(90) translate(36 -43)">
    <use xlink:href="#rim"/>
    <path pointer-events="none" fill="none" stroke="white" stroke-width="1.5" d="M0,-3.0v7 M-2.5,-0.5L0,-3.0L2.5,-0.5"/>
  </g>
  <g id="arrowDown" transform="rotate(180) translate(-30 -48)">
    <use xlink:href="#rim"/>
    <path pointer-events="none" fill="none" stroke="white" stroke-width="1.5" d="M0,-3.0v7 M-2.5,-0.5L0,-3.0L2.5,-0.5"/>
  </g>
  <g id="arrowLeft" transform="rotate(270) translate(-36 17)">
    <use xlink:href="#rim"/>
    <path pointer-events="none" fill="none" stroke="white" stroke-width="1.5" d="M0,-3.0v7 M-2.5,-0.5L0,-3.0L2.5,-0.5"/>
  </g>
  <g id="resetDef">
    <use xlink:href="#rim2" fill="#404040"><set attributeName="fill" to="#808080" begin="reset.mouseover" end="reset.mouseout"/></use>
  </g>
</defs>
<script type="application/ecmascript">
var viewWidth = 622;
var viewHeight = 499;
var sectionId = 'dynsection-261';
</script>
<script type="application/ecmascript" xlink:href="svg.min.js"/>
<svg id="graph" class="graph">
<g id="viewport">
<title>func_8006CEC0</title>
<!-- Node1 -->
<g id="Node000001" class="node">
<title>Node1</title>
<g id="a_Node000001"><a xlink:title=" ">
<polygon fill="#999999" stroke="#666666" points="92,-190 0,-190 0,-171 92,-171 92,-190"/>
<text text-anchor="middle" x="46" y="-178" font-family="Helvetica,sans-Serif" font-size="10.00">func_8006CEC0</text>
</a>
</g>
</g>
<!-- Node2 -->
<g id="Node000002" class="node">
<title>Node2</title>
<g id="a_Node000002"><a xlink:href="code__80057C60_8c.html#ad058651c431797dbc78b3298f8288832" target="_top" xlink:title=" ">
<polygon fill="white" stroke="#666666" points="347.5,-246 256.5,-246 256.5,-227 347.5,-227 347.5,-246"/>
<text text-anchor="middle" x="302" y="-234" font-family="Helvetica,sans-Serif" font-size="10.00">func_80060504</text>
</a>
</g>
</g>
<!-- Node1&#45;&gt;Node2 -->
<g id="edge1_Node000001_Node000002" class="edge">
<title>Node1&#45;&gt;Node2</title>
<g id="a_edge1_Node000001_Node000002"><a xlink:title=" ">
<path fill="none" stroke="#63b8ff" d="M63.78,-190.09C79.76,-198.75 104.75,-211.09 128,-217.5 166.54,-228.12 211.46,-232.84 245.86,-234.92"/>
<polygon fill="#63b8ff" stroke="#63b8ff" points="246.01,-238.43 256.18,-235.48 246.39,-231.44 246.01,-238.43"/>
</a>
</g>
</g>
<!-- Node11 -->
<g id="Node000011" class="node">
<title>Node11</title>
<g id="a_Node000011"><a xlink:href="code__80057C60_8c.html#a1490de17555e1b9a2120d0057fb14b4d" target="_top" xlink:title=" ">
<polygon fill="white" stroke="#666666" points="220,-340 128,-340 128,-321 220,-321 220,-340"/>
<text text-anchor="middle" x="174" y="-328" font-family="Helvetica,sans-Serif" font-size="10.00">func_80060B14</text>
</a>
</g>
</g>
<!-- Node1&#45;&gt;Node11 -->
<g id="edge10_Node000001_Node000011" class="edge">
<title>Node1&#45;&gt;Node11</title>
<g id="a_edge10_Node000001_Node000011"><a xlink:title=" ">
<path fill="none" stroke="#63b8ff" d="M53.15,-190.01C65.99,-209.54 97,-255.23 128,-289.5 135.87,-298.2 145.38,-307.06 153.62,-314.31"/>
<polygon fill="#63b8ff" stroke="#63b8ff" points="151.47,-317.08 161.33,-320.96 156.04,-311.78 151.47,-317.08"/>
</a>
</g>
</g>
<!-- Node18 -->
<g id="Node000018" class="node">
<title>Node18</title>
<g id="a_Node000018"><a xlink:href="code__80057C60_8c.html#a68b6c90102b7a6e83ebf8807b90cc6a8" target="_top" xlink:title=" ">
<polygon fill="white" stroke="#666666" points="347.5,-431 256.5,-431 256.5,-412 347.5,-412 347.5,-431"/>
<text text-anchor="middle" x="302" y="-419" font-family="Helvetica,sans-Serif" font-size="10.00">func_80060F50</text>
</a>
</g>
</g>
<!-- Node1&#45;&gt;Node18 -->
<g id="edge21_Node000001_Node000018" class="edge">
<title>Node1&#45;&gt;Node18</title>
<g id="a_edge21_Node000001_Node000018"><a xlink:title=" ">
<path fill="none" stroke="#63b8ff" d="M49.15,-190.27C55.84,-218.55 78.89,-301.47 128,-348.5 160.85,-379.96 209.29,-398.81 246.56,-409.45"/>
<polygon fill="#63b8ff" stroke="#63b8ff" points="245.69,-412.84 256.26,-412.11 247.54,-406.09 245.69,-412.84"/>
</a>
</g>
</g>
<!-- Node19 -->
<g id="Node000019" class="node">
<title>Node19</title>
<g id="a_Node000019"><a xlink:href="code__80057C60_8c.html#afe948d4c87d7a47b21508d880b9bba8f" target="_top" xlink:title=" ">
<polygon fill="white" stroke="#666666" points="347.5,-283 256.5,-283 256.5,-264 347.5,-264 347.5,-283"/>
<text text-anchor="middle" x="302" y="-271" font-family="Helvetica,sans-Serif" font-size="10.00">func_80061094</text>
</a>
</g>
</g>
<!-- Node1&#45;&gt;Node19 -->
<g id="edge29_Node000001_Node000019" class="edge">
<title>Node1&#45;&gt;Node19</title>
<g id="a_edge29_Node000001_Node000019"><a xlink:title=" ">
<path fill="none" stroke="#63b8ff" d="M57.07,-190.14C71.55,-203.42 99.62,-227.11 128,-239.5 165.66,-255.95 211.39,-264.49 246.38,-268.9"/>
<polygon fill="#63b8ff" stroke="#63b8ff" points="246.07,-272.39 256.41,-270.09 246.89,-265.44 246.07,-272.39"/>
</a>
</g>
</g>
<!-- Node20 -->
<g id="Node000020" class="node">
<title>Node20</title>
<g id="a_Node000020"><a xlink:href="code__80057C60_8c.html#a92c73facb86dcd8ef27c87b48484480b" target="_top" xlink:title=" ">
<polygon fill="white" stroke="#666666" points="219.5,-209 128.5,-209 128.5,-190 219.5,-190 219.5,-209"/>
<text text-anchor="middle" x="174" y="-197" font-family="Helvetica,sans-Serif" font-size="10.00">func_80061224</text>
</a>
</g>
</g>
<!-- Node1&#45;&gt;Node20 -->
<g id="edge33_Node000001_Node000020" class="edge">
<title>Node1&#45;&gt;Node20</title>
<g id="a_edge33_Node000001_Node000020"><a xlink:title=" ">
<path fill="none" stroke="#63b8ff" d="M92.13,-187.31C100.56,-188.58 109.45,-189.92 118.13,-191.23"/>
<polygon fill="#63b8ff" stroke="#63b8ff" points="117.77,-194.71 128.18,-192.74 118.82,-187.79 117.77,-194.71"/>
</a>
</g>
</g>
<!-- Node22 -->
<g id="Node000022" class="node">
<title>Node22</title>
<g id="a_Node000022"><a xlink:href="code__80057C60_8c.html#aa9472e436a1a1bdffd935363571244c7" target="_top" xlink:title=" ">
<polygon fill="white" stroke="#666666" points="220,-133 128,-133 128,-114 220,-114 220,-133"/>
<text text-anchor="middle" x="174" y="-121" font-family="Helvetica,sans-Serif" font-size="10.00">func_80062C74</text>
</a>
</g>
</g>
<!-- Node1&#45;&gt;Node22 -->
<g id="edge40_Node000001_Node000022" class="edge">
<title>Node1&#45;&gt;Node22</title>
<g id="a_edge40_Node000001_Node000022"><a xlink:title=" ">
<path fill="none" stroke="#63b8ff" d="M68.09,-170.96C88.44,-161.75 119.47,-147.72 142.51,-137.29"/>
<polygon fill="#63b8ff" stroke="#63b8ff" points="144.17,-140.38 151.84,-133.07 141.29,-134 144.17,-140.38"/>
</a>
</g>
</g>
<!-- Node23 -->
<g id="Node000023" class="node">
<title>Node23</title>
<g id="a_Node000023"><a xlink:href="code__80057C60_8c.html#a526a5fbee470a91a67f17d020fa52686" target="_top" xlink:title=" ">
<polygon fill="white" stroke="#666666" points="488.5,-57 396.5,-57 396.5,-38 488.5,-38 488.5,-57"/>
<text text-anchor="middle" x="442.5" y="-45" font-family="Helvetica,sans-Serif" font-size="10.00">func_800630C0</text>
</a>
</g>
</g>
<!-- Node1&#45;&gt;Node23 -->
<g id="edge42_Node000001_Node000023" class="edge">
<title>Node1&#45;&gt;Node23</title>
<g id="a_edge42_Node000001_Node000023"><a xlink:title=" ">
<path fill="none" stroke="#63b8ff" d="M54.05,-170.98C66.81,-154.51 95.45,-120.9 128,-104.5 150.7,-93.06 302.46,-68.66 386.22,-55.81"/>
<polygon fill="#63b8ff" stroke="#63b8ff" points="386.97,-59.23 396.33,-54.26 385.92,-52.31 386.97,-59.23"/>
</a>
</g>
</g>
<!-- Node24 -->
<g id="Node000024" class="node">
<title>Node24</title>
<g id="a_Node000024"><a xlink:href="code__80057C60_8c.html#ad6184716ecec0fb97634c456ae1189f8" target="_top" xlink:title=" ">
<polygon fill="white" stroke="#666666" points="220,-19 128,-19 128,0 220,0 220,-19"/>
<text text-anchor="middle" x="174" y="-7" font-family="Helvetica,sans-Serif" font-size="10.00">func_800631A8</text>
</a>
</g>
</g>
<!-- Node1&#45;&gt;Node24 -->
<g id="edge45_Node000001_Node000024" class="edge">
<title>Node1&#45;&gt;Node24</title>
<g id="a_edge45_Node000001_Node000024"><a xlink:title=" ">
<path fill="none" stroke="#63b8ff" d="M50.17,-170.69C58.86,-145.15 85.27,-75.65 128,-33.5 131.52,-30.03 135.64,-26.93 139.94,-24.21"/>
<polygon fill="#63b8ff" stroke="#63b8ff" points="141.89,-27.12 148.86,-19.15 138.44,-21.04 141.89,-27.12"/>
</a>
</g>
</g>
<!-- Node25 -->
<g id="Node000025" class="node">
<title>Node25</title>
<g id="a_Node000025"><a xlink:href="code__80057C60_8c.html#ab9d9cc582e70d0fae57f3c34da522f40" target="_top" xlink:title=" ">
<polygon fill="white" stroke="#666666" points="488,-20 397,-20 397,-1 488,-1 488,-20"/>
<text text-anchor="middle" x="442.5" y="-8" font-family="Helvetica,sans-Serif" font-size="10.00">func_80063268</text>
</a>
</g>
</g>
<!-- Node1&#45;&gt;Node25 -->
<g id="edge46_Node000001_Node000025" class="edge">
<title>Node1&#45;&gt;Node25</title>
<g id="a_edge46_Node000001_Node000025"><a xlink:title=" ">
<path fill="none" stroke="#63b8ff" d="M51.96,-170.71C62.79,-150.41 90.59,-103.69 128,-80.5 208.65,-30.51 320.58,-16.05 386.59,-11.97"/>
<polygon fill="#63b8ff" stroke="#63b8ff" points="386.98,-15.46 396.77,-11.4 386.59,-8.47 386.98,-15.46"/>
</a>
</g>
</g>
<!-- Node26 -->
<g id="Node000026" class="node">
<title>Node26</title>
<g id="a_Node000026"><a xlink:href="code__80057C60_8c.html#ae6737d5fadf1adcca9b4e7cfe2fcd634" target="_top" xlink:title=" ">
<polygon fill="white" stroke="#666666" points="347.5,-171 256.5,-171 256.5,-152 347.5,-152 347.5,-171"/>
<text text-anchor="middle" x="302" y="-159" font-family="Helvetica,sans-Serif" font-size="10.00">func_80064184</text>
</a>
</g>
</g>
<!-- Node1&#45;&gt;Node26 -->
<g id="edge49_Node000001_Node000026" class="edge">
<title>Node1&#45;&gt;Node26</title>
<g id="a_edge49_Node000001_Node000026"><a xlink:title=" ">
<path fill="none" stroke="#63b8ff" d="M92.12,-177.13C135.19,-173.9 200.17,-169.04 246.2,-165.6"/>
<polygon fill="#63b8ff" stroke="#63b8ff" points="246.59,-169.08 256.3,-164.84 246.07,-162.1 246.59,-169.08"/>
</a>
</g>
</g>
<!-- Node3 -->
<g id="Node000003" class="node">
<title>Node3</title>
<g id="a_Node000003"><a xlink:href="code__80057C60_8c.html#a20a6f9c40d99f375e8fad9ba9c078acf" target="_top" xlink:title=" ">
<polygon fill="white" stroke="#666666" points="488.5,-283 396.5,-283 396.5,-264 488.5,-264 488.5,-283"/>
<text text-anchor="middle" x="442.5" y="-271" font-family="Helvetica,sans-Serif" font-size="10.00">func_8005D794</text>
</a>
</g>
</g>
<!-- Node2&#45;&gt;Node3 -->
<g id="edge2_Node000002_Node000003" class="edge">
<title>Node2&#45;&gt;Node3</title>
<g id="a_edge2_Node000002_Node000003"><a xlink:title=" ">
<path fill="none" stroke="#63b8ff" d="M338.67,-246.03C356.06,-250.67 377.18,-256.32 395.75,-261.28"/>
<polygon fill="#63b8ff" stroke="#63b8ff" points="394.91,-264.68 405.47,-263.88 396.71,-257.91 394.91,-264.68"/>
</a>
</g>
</g>
<!-- Node4 -->
<g id="Node000004" class="node">
<title>Node4</title>
<g id="a_Node000004"><a xlink:href="code__80057C60_8c.html#a57792caa9602f8549cbc96315f5a8e3a" target="_top" xlink:title=" ">
<polygon fill="white" stroke="#666666" points="489.5,-357 395.5,-357 395.5,-338 489.5,-338 489.5,-357"/>
<text text-anchor="middle" x="442.5" y="-345" font-family="Helvetica,sans-Serif" font-size="10.00">func_8005D7D8</text>
</a>
</g>
</g>
<!-- Node2&#45;&gt;Node4 -->
<g id="edge3_Node000002_Node000004" class="edge">
<title>Node2&#45;&gt;Node4</title>
<g id="a_edge3_Node000002_Node000004"><a xlink:title=" ">
<path fill="none" stroke="#63b8ff" d="M335.7,-246.18C340.16,-248.43 344.43,-251.18 348,-254.5 374.78,-279.41 356.47,-304.42 384,-328.5 385.94,-330.2 388.03,-331.74 390.24,-333.15"/>
<polygon fill="#63b8ff" stroke="#63b8ff" points="388.7,-336.29 399.17,-337.93 392,-330.12 388.7,-336.29"/>
</a>
</g>
</g>
<!-- Node5 -->
<g id="Node000005" class="node">
<title>Node5</title>
<g id="a_Node000005"><a xlink:href="code__80057C60_8c.html#a9f345279b2e554898280bb7fc4f90254" target="_top" xlink:title=" ">
<polygon fill="white" stroke="#666666" points="488.5,-320 396.5,-320 396.5,-301 488.5,-301 488.5,-320"/>
<text text-anchor="middle" x="442.5" y="-308" font-family="Helvetica,sans-Serif" font-size="10.00">func_8005D800</text>
</a>
</g>
</g>
<!-- Node2&#45;&gt;Node5 -->
<g id="edge4_Node000002_Node000005" class="edge">
<title>Node2&#45;&gt;Node5</title>
<g id="a_edge4_Node000002_Node000005"><a xlink:title=" ">
<path fill="none" stroke="#63b8ff" d="M331.99,-246.01C337.52,-248.39 343.11,-251.22 348,-254.5 367.07,-267.26 364.55,-279.33 384,-291.5 387.31,-293.57 390.88,-295.45 394.55,-297.13"/>
<polygon fill="#63b8ff" stroke="#63b8ff" points="393.24,-300.38 403.82,-300.95 395.9,-293.9 393.24,-300.38"/>
</a>
</g>
</g>
<!-- Node6 -->
<g id="Node000006" class="node">
<title>Node6</title>
<g id="a_Node000006"><a xlink:href="code__80057C60_8c.html#a156481baa44e5305c016e2902a91bbb1" target="_top" xlink:title=" ">
<polygon fill="white" stroke="#666666" points="488.5,-133 396.5,-133 396.5,-114 488.5,-114 488.5,-133"/>
<text text-anchor="middle" x="442.5" y="-121" font-family="Helvetica,sans-Serif" font-size="10.00">func_80062B18</text>
</a>
</g>
</g>
<!-- Node2&#45;&gt;Node6 -->
<g id="edge5_Node000002_Node000006" class="edge">
<title>Node2&#45;&gt;Node6</title>
<g id="a_edge5_Node000002_Node000006"><a xlink:title=" ">
<path fill="none" stroke="#63b8ff" d="M330.56,-226.92C336.55,-224.29 342.68,-221.14 348,-217.5 366.95,-204.56 367.85,-196.8 384,-180.5 397.5,-166.87 412.95,-151.57 424.44,-140.26"/>
<polygon fill="#63b8ff" stroke="#63b8ff" points="427.01,-142.64 431.68,-133.13 422.1,-137.65 427.01,-142.64"/>
</a>
</g>
</g>
<!-- Node9 -->
<g id="Node000009" class="node">
<title>Node9</title>
<g id="a_Node000009"><a xlink:href="math__util_8c.html#a151b63b8adf9af7e4054b3b84bd226dc" target="_top" xlink:title=" ">
<polygon fill="white" stroke="#666666" points="478.5,-209 406.5,-209 406.5,-190 478.5,-190 478.5,-209"/>
<text text-anchor="middle" x="442.5" y="-197" font-family="Helvetica,sans-Serif" font-size="10.00">random_int</text>
</a>
</g>
</g>
<!-- Node2&#45;&gt;Node9 -->
<g id="edge8_Node000002_Node000009" class="edge">
<title>Node2&#45;&gt;Node9</title>
<g id="a_edge8_Node000002_Node000009"><a xlink:title=" ">
<path fill="none" stroke="#63b8ff" d="M338.67,-226.97C356.33,-222.25 377.84,-216.51 396.61,-211.49"/>
<polygon fill="#63b8ff" stroke="#63b8ff" points="397.68,-214.83 406.43,-208.87 395.87,-208.07 397.68,-214.83"/>
</a>
</g>
</g>
<!-- Node7 -->
<g id="Node000007" class="node">
<title>Node7</title>
<g id="a_Node000007"><a xlink:href="math__util_8c.html#ae69cbf5c8d4b3b0dba2d7b4d4673689f" target="_top" xlink:title=" ">
<polygon fill="white" stroke="#666666" points="594.5,-95 556.5,-95 556.5,-76 594.5,-76 594.5,-95"/>
<text text-anchor="middle" x="575.5" y="-83" font-family="Helvetica,sans-Serif" font-size="10.00">coss</text>
</a>
</g>
</g>
<!-- Node6&#45;&gt;Node7 -->
<g id="edge6_Node000006_Node000007" class="edge">
<title>Node6&#45;&gt;Node7</title>
<g id="a_edge6_Node000006_Node000007"><a xlink:title=" ">
<path fill="none" stroke="#63b8ff" d="M476.56,-113.91C498.21,-107.63 526.2,-99.51 546.71,-93.56"/>
<polygon fill="#63b8ff" stroke="#63b8ff" points="547.77,-96.9 556.4,-90.75 545.82,-90.18 547.77,-96.9"/>
</a>
</g>
</g>
<!-- Node8 -->
<g id="Node000008" class="node">
<title>Node8</title>
<g id="a_Node000008"><a xlink:href="math__util_8c.html#a19ed3bd78fd2d3e2bd0a29f6caf48545" target="_top" xlink:title=" ">
<polygon fill="white" stroke="#666666" points="593.5,-133 557.5,-133 557.5,-114 593.5,-114 593.5,-133"/>
<text text-anchor="middle" x="575.5" y="-121" font-family="Helvetica,sans-Serif" font-size="10.00">sins</text>
</a>
</g>
</g>
<!-- Node6&#45;&gt;Node8 -->
<g id="edge7_Node000006_Node000008" class="edge">
<title>Node6&#45;&gt;Node8</title>
<g id="a_edge7_Node000006_Node000008"><a xlink:title=" ">
<path fill="none" stroke="#63b8ff" d="M488.58,-123.5C508.01,-123.5 530.1,-123.5 547.02,-123.5"/>
<polygon fill="#63b8ff" stroke="#63b8ff" points="547.31,-127 557.31,-123.5 547.31,-120 547.31,-127"/>
</a>
</g>
</g>
<!-- Node10 -->
<g id="Node000010" class="node">
<title>Node10</title>
<g id="a_Node000010"><a xlink:href="math__util_8c.html#a062850863585005ad1d0a75d9ff70693" target="_top" xlink:title=" ">
<polygon fill="white" stroke="#666666" points="614,-209 537,-209 537,-190 614,-190 614,-209"/>
<text text-anchor="middle" x="575.5" y="-197" font-family="Helvetica,sans-Serif" font-size="10.00">random_u16</text>
</a>
</g>
</g>
<!-- Node9&#45;&gt;Node10 -->
<g id="edge9_Node000009_Node000010" class="edge">
<title>Node9&#45;&gt;Node10</title>
<g id="a_edge9_Node000009_Node000010"><a xlink:title=" ">
<path fill="none" stroke="#63b8ff" d="M478.61,-199.5C493.28,-199.5 510.56,-199.5 526.39,-199.5"/>
<polygon fill="#63b8ff" stroke="#63b8ff" points="526.54,-203 536.54,-199.5 526.54,-196 526.54,-203"/>
</a>
</g>
</g>
<!-- Node12 -->
<g id="Node000012" class="node">
<title>Node12</title>
<g id="a_Node000012"><a xlink:href="code__80057C60_8c.html#abde2a6c2de1d59c40ebc18988a57dbc5" target="_top" xlink:title=" ">
<polygon fill="white" stroke="#666666" points="347.5,-320 256.5,-320 256.5,-301 347.5,-301 347.5,-320"/>
<text text-anchor="middle" x="302" y="-308" font-family="Helvetica,sans-Serif" font-size="10.00">func_800608E0</text>
</a>
</g>
</g>
<!-- Node11&#45;&gt;Node12 -->
<g id="edge11_Node000011_Node000012" class="edge">
<title>Node11&#45;&gt;Node12</title>
<g id="a_edge11_Node000011_Node000012"><a xlink:title=" ">
<path fill="none" stroke="#63b8ff" d="M220.13,-323.34C228.56,-322 237.45,-320.59 246.13,-319.21"/>
<polygon fill="#63b8ff" stroke="#63b8ff" points="246.85,-322.64 256.18,-317.61 245.76,-315.72 246.85,-322.64"/>
</a>
</g>
</g>
<!-- Node16 -->
<g id="Node000016" class="node">
<title>Node16</title>
<g id="a_Node000016"><a xlink:href="Game_8cpp.html#a5c843dc61d3b9ca430e4926c4b8018ef" target="_top" xlink:title=" ">
<polygon fill="white" stroke="#666666" points="348,-394 256,-394 256,-375 348,-375 348,-394"/>
<text text-anchor="middle" x="302" y="-382" font-family="Helvetica,sans-Serif" font-size="10.00">IsRainbowRoad</text>
</a>
</g>
</g>
<!-- Node11&#45;&gt;Node16 -->
<g id="edge19_Node000011_Node000016" class="edge">
<title>Node11&#45;&gt;Node16</title>
<g id="a_edge19_Node000011_Node000016"><a xlink:title=" ">
<path fill="none" stroke="#63b8ff" d="M196.98,-340.06C213.26,-347.12 236,-356.95 256,-365.5 260.15,-367.27 264.51,-369.13 268.83,-370.96"/>
<polygon fill="#63b8ff" stroke="#63b8ff" points="267.52,-374.2 278.09,-374.87 270.24,-367.75 267.52,-374.2"/>
</a>
</g>
</g>
<!-- Node17 -->
<g id="Node000017" class="node">
<title>Node17</title>
<g id="a_Node000017"><a xlink:href="Game_8cpp.html#a9fedd7b107c6b6e24e773784787a105c" target="_top" xlink:title=" ">
<polygon fill="white" stroke="#666666" points="341,-357 263,-357 263,-338 341,-338 341,-357"/>
<text text-anchor="middle" x="302" y="-345" font-family="Helvetica,sans-Serif" font-size="10.00">IsSkyscraper</text>
</a>
</g>
</g>
<!-- Node11&#45;&gt;Node17 -->
<g id="edge20_Node000011_Node000017" class="edge">
<title>Node11&#45;&gt;Node17</title>
<g id="a_edge20_Node000011_Node000017"><a xlink:title=" ">
<path fill="none" stroke="#63b8ff" d="M220.13,-336.59C230.73,-338.02 242.06,-339.55 252.78,-340.99"/>
<polygon fill="#63b8ff" stroke="#63b8ff" points="252.46,-344.48 262.84,-342.35 253.39,-337.55 252.46,-344.48"/>
</a>
</g>
</g>
<!-- Node12&#45;&gt;Node3 -->
<g id="edge12_Node000012_Node000003" class="edge">
<title>Node12&#45;&gt;Node3</title>
<g id="a_edge12_Node000012_Node000003"><a xlink:title=" ">
<path fill="none" stroke="#63b8ff" d="M338.67,-300.97C356.06,-296.33 377.18,-290.68 395.75,-285.72"/>
<polygon fill="#63b8ff" stroke="#63b8ff" points="396.71,-289.09 405.47,-283.12 394.91,-282.32 396.71,-289.09"/>
</a>
</g>
</g>
<!-- Node12&#45;&gt;Node4 -->
<g id="edge13_Node000012_Node000004" class="edge">
<title>Node12&#45;&gt;Node4</title>
<g id="a_edge13_Node000012_Node000004"><a xlink:title=" ">
<path fill="none" stroke="#63b8ff" d="M338.67,-320.03C356.06,-324.67 377.18,-330.32 395.75,-335.28"/>
<polygon fill="#63b8ff" stroke="#63b8ff" points="394.91,-338.68 405.47,-337.88 396.71,-331.91 394.91,-338.68"/>
</a>
</g>
</g>
<!-- Node12&#45;&gt;Node5 -->
<g id="edge14_Node000012_Node000005" class="edge">
<title>Node12&#45;&gt;Node5</title>
<g id="a_edge14_Node000012_Node000005"><a xlink:title=" ">
<path fill="none" stroke="#63b8ff" d="M347.58,-310.5C359.81,-310.5 373.23,-310.5 385.99,-310.5"/>
<polygon fill="#63b8ff" stroke="#63b8ff" points="386.05,-314 396.05,-310.5 386.05,-307 386.05,-314"/>
</a>
</g>
</g>
<!-- Node12&#45;&gt;Node6 -->
<g id="edge15_Node000012_Node000006" class="edge">
<title>Node12&#45;&gt;Node6</title>
<g id="a_edge15_Node000012_Node000006"><a xlink:title=" ">
<path fill="none" stroke="#63b8ff" d="M335.24,-300.98C339.97,-298.49 344.45,-295.37 348,-291.5 383.06,-253.29 356.82,-224.67 384,-180.5 393.7,-164.74 408.62,-150.12 420.84,-139.63"/>
<polygon fill="#63b8ff" stroke="#63b8ff" points="423.29,-142.14 428.76,-133.07 418.83,-136.75 423.29,-142.14"/>
</a>
</g>
</g>
<!-- Node13 -->
<g id="Node000013" class="node">
<title>Node13</title>
<g id="a_Node000013"><a xlink:href="Game_8cpp.html#ac015fe2f0caa481693b5a07997bf69b6" target="_top" xlink:title=" ">
<polygon fill="white" stroke="#666666" points="477.5,-394 407.5,-394 407.5,-375 477.5,-375 477.5,-394"/>
<text text-anchor="middle" x="442.5" y="-382" font-family="Helvetica,sans-Serif" font-size="10.00">IsBigDonut</text>
</a>
</g>
</g>
<!-- Node12&#45;&gt;Node13 -->
<g id="edge16_Node000012_Node000013" class="edge">
<title>Node12&#45;&gt;Node13</title>
<g id="a_edge16_Node000012_Node000013"><a xlink:title=" ">
<path fill="none" stroke="#63b8ff" d="M331.99,-320.01C337.52,-322.39 343.11,-325.22 348,-328.5 367.07,-341.26 364.55,-353.33 384,-365.5 388.34,-368.22 393.12,-370.59 398,-372.65"/>
<polygon fill="#63b8ff" stroke="#63b8ff" points="396.86,-375.96 407.45,-376.23 399.34,-369.41 396.86,-375.96"/>
</a>
</g>
</g>
<!-- Node14 -->
<g id="Node000014" class="node">
<title>Node14</title>
<g id="a_Node000014"><a xlink:href="Game_8cpp.html#a8ebd6a4d970e4333ab5a9dd66c3d9c48" target="_top" xlink:title=" ">
<polygon fill="white" stroke="#666666" points="491,-431 394,-431 394,-412 491,-412 491,-431"/>
<text text-anchor="middle" x="442.5" y="-419" font-family="Helvetica,sans-Serif" font-size="10.00">IsBowsersCastle</text>
</a>
</g>
</g>
<!-- Node12&#45;&gt;Node14 -->
<g id="edge17_Node000012_Node000014" class="edge">
<title>Node12&#45;&gt;Node14</title>
<g id="a_edge17_Node000012_Node000014"><a xlink:title=" ">
<path fill="none" stroke="#63b8ff" d="M335.72,-320.16C340.18,-322.42 344.44,-325.17 348,-328.5 375.01,-353.75 356.04,-379.31 384,-403.5 385.36,-404.68 386.8,-405.78 388.29,-406.8"/>
<polygon fill="#63b8ff" stroke="#63b8ff" points="386.98,-410.08 397.41,-411.94 390.41,-403.98 386.98,-410.08"/>
</a>
</g>
</g>
<!-- Node15 -->
<g id="Node000015" class="node">
<title>Node15</title>
<g id="a_Node000015"><a xlink:href="Game_8cpp.html#aa2636859b1f988d43f21be6ccffc86ca" target="_top" xlink:title=" ">
<polygon fill="white" stroke="#666666" points="501,-246 384,-246 384,-227 501,-227 501,-246"/>
<text text-anchor="middle" x="442.5" y="-234" font-family="Helvetica,sans-Serif" font-size="10.00">IsKoopaTroopaBeach</text>
</a>
</g>
</g>
<!-- Node12&#45;&gt;Node15 -->
<g id="edge18_Node000012_Node000015" class="edge">
<title>Node12&#45;&gt;Node15</title>
<g id="a_edge18_Node000012_Node000015"><a xlink:title=" ">
<path fill="none" stroke="#63b8ff" d="M330.56,-300.92C336.55,-298.29 342.68,-295.14 348,-291.5 366.95,-278.56 364.45,-266.52 384,-254.5 386.63,-252.88 389.42,-251.4 392.3,-250.04"/>
<polygon fill="#63b8ff" stroke="#63b8ff" points="393.83,-253.19 401.7,-246.1 391.12,-246.73 393.83,-253.19"/>
</a>
</g>
</g>
<!-- Node18&#45;&gt;Node3 -->
<g id="edge23_Node000018_Node000003" class="edge">
<title>Node18&#45;&gt;Node3</title>
<g id="a_edge23_Node000018_Node000003"><a xlink:title=" ">
<path fill="none" stroke="#63b8ff" d="M337.05,-411.77C341.11,-409.54 344.9,-406.82 348,-403.5 383.66,-365.27 346.89,-328.33 384,-291.5 385.11,-290.39 386.29,-289.36 387.53,-288.38"/>
<polygon fill="#63b8ff" stroke="#63b8ff" points="389.76,-291.12 396.36,-282.83 386.03,-285.19 389.76,-291.12"/>
</a>
</g>
</g>
<!-- Node18&#45;&gt;Node4 -->
<g id="edge24_Node000018_Node000004" class="edge">
<title>Node18&#45;&gt;Node4</title>
<g id="a_edge24_Node000018_Node000004"><a xlink:title=" ">
<path fill="none" stroke="#63b8ff" d="M332.5,-411.84C337.87,-409.49 343.27,-406.71 348,-403.5 367.25,-390.43 364.26,-377.82 384,-365.5 386.62,-363.86 389.4,-362.37 392.28,-361"/>
<polygon fill="#63b8ff" stroke="#63b8ff" points="393.8,-364.15 401.66,-357.04 391.09,-357.7 393.8,-364.15"/>
</a>
</g>
</g>
<!-- Node18&#45;&gt;Node5 -->
<g id="edge25_Node000018_Node000005" class="edge">
<title>Node18&#45;&gt;Node5</title>
<g id="a_edge25_Node000018_Node000005"><a xlink:title=" ">
<path fill="none" stroke="#63b8ff" d="M335.72,-411.84C340.18,-409.58 344.44,-406.83 348,-403.5 375.01,-378.25 356.04,-352.69 384,-328.5 385.36,-327.32 386.8,-326.22 388.29,-325.2"/>
<polygon fill="#63b8ff" stroke="#63b8ff" points="390.41,-328.02 397.41,-320.06 386.98,-321.92 390.41,-328.02"/>
</a>
</g>
</g>
<!-- Node18&#45;&gt;Node7 -->
<g id="edge22_Node000018_Node000007" class="edge">
<title>Node18&#45;&gt;Node7</title>
<g id="a_edge22_Node000018_Node000007"><a xlink:title=" ">
<path fill="none" stroke="#63b8ff" d="M321.05,-431.02C359.51,-449.84 450.14,-486.2 501,-440.5 556.86,-390.31 494.33,-166.3 537,-104.5 539.64,-100.68 543.28,-97.59 547.26,-95.09"/>
<polygon fill="#63b8ff" stroke="#63b8ff" points="548.92,-98.18 556.27,-90.54 545.77,-91.93 548.92,-98.18"/>
</a>
</g>
</g>
<!-- Node18&#45;&gt;Node8 -->
<g id="edge28_Node000018_Node000008" class="edge">
<title>Node18&#45;&gt;Node8</title>
<g id="a_edge28_Node000018_Node000008"><a xlink:title=" ">
<path fill="none" stroke="#63b8ff" d="M314.95,-431.09C348.6,-456.91 445.37,-522.72 501,-473.5 550.13,-430.03 514.38,-242.08 537,-180.5 542.23,-166.25 551.62,-151.99 559.7,-141.29"/>
<polygon fill="#63b8ff" stroke="#63b8ff" points="562.61,-143.25 566.05,-133.23 557.11,-138.92 562.61,-143.25"/>
</a>
</g>
</g>
<!-- Node18&#45;&gt;Node13 -->
<g id="edge26_Node000018_Node000013" class="edge">
<title>Node18&#45;&gt;Node13</title>
<g id="a_edge26_Node000018_Node000013"><a xlink:title=" ">
<path fill="none" stroke="#63b8ff" d="M338.67,-411.97C356.6,-407.18 378.5,-401.33 397.48,-396.26"/>
<polygon fill="#63b8ff" stroke="#63b8ff" points="398.63,-399.58 407.39,-393.61 396.82,-392.81 398.63,-399.58"/>
</a>
</g>
</g>
<!-- Node18&#45;&gt;Node14 -->
<g id="edge27_Node000018_Node000014" class="edge">
<title>Node18&#45;&gt;Node14</title>
<g id="a_edge27_Node000018_Node000014"><a xlink:title=" ">
<path fill="none" stroke="#63b8ff" d="M347.58,-421.5C358.96,-421.5 371.36,-421.5 383.31,-421.5"/>
<polygon fill="#63b8ff" stroke="#63b8ff" points="383.65,-425 393.65,-421.5 383.65,-418 383.65,-425"/>
</a>
</g>
</g>
<!-- Node19&#45;&gt;Node3 -->
<g id="edge30_Node000019_Node000003" class="edge">
<title>Node19&#45;&gt;Node3</title>
<g id="a_edge30_Node000019_Node000003"><a xlink:title=" ">
<path fill="none" stroke="#63b8ff" d="M347.58,-273.5C359.81,-273.5 373.23,-273.5 385.99,-273.5"/>
<polygon fill="#63b8ff" stroke="#63b8ff" points="386.05,-277 396.05,-273.5 386.05,-270 386.05,-277"/>
</a>
</g>
</g>
<!-- Node19&#45;&gt;Node4 -->
<g id="edge31_Node000019_Node000004" class="edge">
<title>Node19&#45;&gt;Node4</title>
<g id="a_edge31_Node000019_Node000004"><a xlink:title=" ">
<path fill="none" stroke="#63b8ff" d="M331.99,-283.01C337.52,-285.39 343.11,-288.22 348,-291.5 367.07,-304.26 364.55,-316.33 384,-328.5 387.31,-330.57 390.88,-332.45 394.55,-334.13"/>
<polygon fill="#63b8ff" stroke="#63b8ff" points="393.24,-337.38 403.82,-337.95 395.9,-330.9 393.24,-337.38"/>
</a>
</g>
</g>
<!-- Node19&#45;&gt;Node5 -->
<g id="edge32_Node000019_Node000005" class="edge">
<title>Node19&#45;&gt;Node5</title>
<g id="a_edge32_Node000019_Node000005"><a xlink:title=" ">
<path fill="none" stroke="#63b8ff" d="M338.67,-283.03C356.06,-287.67 377.18,-293.32 395.75,-298.28"/>
<polygon fill="#63b8ff" stroke="#63b8ff" points="394.91,-301.68 405.47,-300.88 396.71,-294.91 394.91,-301.68"/>
</a>
</g>
</g>
<!-- Node21 -->
<g id="Node000021" class="node">
<title>Node21</title>
<g id="a_Node000021"><a xlink:href="code__80057C60_8c.html#a77fdc4c732656b412870d821f27dc084" target="_top" xlink:title=" ">
<polygon fill="white" stroke="#666666" points="347.5,-209 256.5,-209 256.5,-190 347.5,-190 347.5,-209"/>
<text text-anchor="middle" x="302" y="-197" font-family="Helvetica,sans-Serif" font-size="10.00">func_80061130</text>
</a>
</g>
</g>
<!-- Node20&#45;&gt;Node21 -->
<g id="edge34_Node000020_Node000021" class="edge">
<title>Node20&#45;&gt;Node21</title>
<g id="a_edge34_Node000020_Node000021"><a xlink:title=" ">
<path fill="none" stroke="#63b8ff" d="M219.78,-199.5C228.32,-199.5 237.35,-199.5 246.16,-199.5"/>
<polygon fill="#63b8ff" stroke="#63b8ff" points="246.37,-203 256.37,-199.5 246.37,-196 246.37,-203"/>
</a>
</g>
</g>
<!-- Node21&#45;&gt;Node3 -->
<g id="edge36_Node000021_Node000003" class="edge">
<title>Node21&#45;&gt;Node3</title>
<g id="a_edge36_Node000021_Node000003"><a xlink:title=" ">
<path fill="none" stroke="#63b8ff" d="M331.99,-209.01C337.52,-211.39 343.11,-214.22 348,-217.5 367.07,-230.26 364.55,-242.33 384,-254.5 387.31,-256.57 390.88,-258.45 394.55,-260.13"/>
<polygon fill="#63b8ff" stroke="#63b8ff" points="393.24,-263.38 403.82,-263.95 395.9,-256.9 393.24,-263.38"/>
</a>
</g>
</g>
<!-- Node21&#45;&gt;Node4 -->
<g id="edge37_Node000021_Node000004" class="edge">
<title>Node21&#45;&gt;Node4</title>
<g id="a_edge37_Node000021_Node000004"><a xlink:title=" ">
<path fill="none" stroke="#63b8ff" d="M337.04,-209.24C341.1,-211.46 344.9,-214.18 348,-217.5 383.43,-255.38 347.43,-291.73 384,-328.5 385.45,-329.95 387,-331.3 388.65,-332.54"/>
<polygon fill="#63b8ff" stroke="#63b8ff" points="387.14,-335.71 397.5,-337.92 390.77,-329.73 387.14,-335.71"/>
</a>
</g>
</g>
<!-- Node21&#45;&gt;Node5 -->
<g id="edge38_Node000021_Node000005" class="edge">
<title>Node21&#45;&gt;Node5</title>
<g id="a_edge38_Node000021_Node000005"><a xlink:title=" ">
<path fill="none" stroke="#63b8ff" d="M335.7,-209.18C340.16,-211.43 344.43,-214.18 348,-217.5 374.78,-242.41 356.47,-267.42 384,-291.5 385.94,-293.2 388.03,-294.74 390.24,-296.15"/>
<polygon fill="#63b8ff" stroke="#63b8ff" points="388.7,-299.29 399.17,-300.93 392,-293.12 388.7,-299.29"/>
</a>
</g>
</g>
<!-- Node21&#45;&gt;Node7 -->
<g id="edge35_Node000021_Node000007" class="edge">
<title>Node21&#45;&gt;Node7</title>
<g id="a_edge35_Node000021_Node000007"><a xlink:title=" ">
<path fill="none" stroke="#63b8ff" d="M332.95,-189.77C338.4,-187.05 343.71,-183.67 348,-179.5 374.53,-153.74 353.72,-125.72 384,-104.5 432.62,-70.42 506.13,-74.65 546.13,-80.32"/>
<polygon fill="#63b8ff" stroke="#63b8ff" points="545.83,-83.81 556.25,-81.89 546.9,-76.9 545.83,-83.81"/>
</a>
</g>
</g>
<!-- Node21&#45;&gt;Node8 -->
<g id="edge39_Node000021_Node000008" class="edge">
<title>Node21&#45;&gt;Node8</title>
<g id="a_edge39_Node000021_Node000008"><a xlink:title=" ">
<path fill="none" stroke="#63b8ff" d="M337.11,-189.95C391.76,-174.65 497.82,-144.96 547.55,-131.04"/>
<polygon fill="#63b8ff" stroke="#63b8ff" points="548.58,-134.39 557.26,-128.32 546.69,-127.65 548.58,-134.39"/>
</a>
</g>
</g>
<!-- Node22&#45;&gt;Node6 -->
<g id="edge41_Node000022_Node000006" class="edge">
<title>Node22&#45;&gt;Node6</title>
<g id="a_edge41_Node000022_Node000006"><a xlink:title=" ">
<path fill="none" stroke="#63b8ff" d="M220.21,-123.5C265.96,-123.5 336.78,-123.5 385.93,-123.5"/>
<polygon fill="#63b8ff" stroke="#63b8ff" points="386.07,-127 396.07,-123.5 386.07,-120 386.07,-127"/>
</a>
</g>
</g>
<!-- Node23&#45;&gt;Node7 -->
<g id="edge43_Node000023_Node000007" class="edge">
<title>Node23&#45;&gt;Node7</title>
<g id="a_edge43_Node000023_Node000007"><a xlink:title=" ">
<path fill="none" stroke="#63b8ff" d="M476.56,-57.09C498.21,-63.37 526.2,-71.49 546.71,-77.44"/>
<polygon fill="#63b8ff" stroke="#63b8ff" points="545.82,-80.82 556.4,-80.25 547.77,-74.1 545.82,-80.82"/>
</a>
</g>
</g>
<!-- Node23&#45;&gt;Node8 -->
<g id="edge44_Node000023_Node000008" class="edge">
<title>Node23&#45;&gt;Node8</title>
<g id="a_edge44_Node000023_Node000008"><a xlink:title=" ">
<path fill="none" stroke="#63b8ff" d="M458.91,-57.05C477.33,-68.39 509.17,-87.76 537,-103.5 540.58,-105.53 544.38,-107.62 548.14,-109.65"/>
<polygon fill="#63b8ff" stroke="#63b8ff" points="546.76,-112.88 557.23,-114.52 550.06,-106.71 546.76,-112.88"/>
</a>
</g>
</g>
<!-- Node25&#45;&gt;Node7 -->
<g id="edge47_Node000025_Node000007" class="edge">
<title>Node25&#45;&gt;Node7</title>
<g id="a_edge47_Node000025_Node000007"><a xlink:title=" ">
<path fill="none" stroke="#63b8ff" d="M480.78,-20.03C487.68,-22.39 494.7,-25.21 501,-28.5 521.82,-39.38 542.71,-56.3 556.87,-68.88"/>
<polygon fill="#63b8ff" stroke="#63b8ff" points="554.62,-71.57 564.37,-75.71 559.33,-66.39 554.62,-71.57"/>
</a>
</g>
</g>
<!-- Node25&#45;&gt;Node8 -->
<g id="edge48_Node000025_Node000008" class="edge">
<title>Node25&#45;&gt;Node8</title>
<g id="a_edge48_Node000025_Node000008"><a xlink:title=" ">
<path fill="none" stroke="#63b8ff" d="M487.59,-20.06C492.44,-22.31 497.05,-25.08 501,-28.5 528.96,-52.69 511.42,-76.81 537,-103.5 540.25,-106.89 544.19,-109.83 548.29,-112.33"/>
<polygon fill="#63b8ff" stroke="#63b8ff" points="546.83,-115.51 557.3,-117.12 550.12,-109.33 546.83,-115.51"/>
</a>
</g>
</g>
<!-- Node26&#45;&gt;Node6 -->
<g id="edge50_Node000026_Node000006" class="edge">
<title>Node26&#45;&gt;Node6</title>
<g id="a_edge50_Node000026_Node000006"><a xlink:title=" ">
<path fill="none" stroke="#63b8ff" d="M337.95,-151.91C355.83,-147.01 377.79,-140.98 396.88,-135.74"/>
<polygon fill="#63b8ff" stroke="#63b8ff" points="397.84,-139.11 406.56,-133.09 395.99,-132.36 397.84,-139.11"/>
</a>
</g>
</g>
<!-- Node26&#45;&gt;Node15 -->
<g id="edge51_Node000026_Node000015" class="edge">
<title>Node26&#45;&gt;Node15</title>
<g id="a_edge51_Node000026_Node000015"><a xlink:title=" ">
<path fill="none" stroke="#63b8ff" d="M330.56,-171.08C336.55,-173.71 342.68,-176.86 348,-180.5 366.95,-193.44 364.55,-205.33 384,-217.5 387.31,-219.57 390.88,-221.45 394.55,-223.13"/>
<polygon fill="#63b8ff" stroke="#63b8ff" points="393.24,-226.38 403.82,-226.95 395.9,-219.9 393.24,-226.38"/>
</a>
</g>
</g>
</g>
</svg>

<g id="navigator" transform="translate(0 0)" fill="#404254">
  <rect fill="#f2f5e9" fill-opacity="0.5" stroke="#606060" stroke-width=".5" x="0" y="0" width="60" height="60"/>
  <use id="zoomplus" xlink:href="#zoomPlus" x="17" y="9" onmousedown="handleZoom(evt,'in')"/>
  <use id="zoomminus" xlink:href="#zoomMin" x="42" y="9" onmousedown="handleZoom(evt,'out')"/>
  <use id="reset" xlink:href="#resetDef" x="30" y="36" onmousedown="handleReset()"/>
   <use id="arrowup" xlink:href="#arrowUp" x="0" y="0" onmousedown="handlePan(0,-1)"/>
  <use id="arrowright" xlink:href="#arrowRight" x="0" y="0" onmousedown="handlePan(1,0)"/>
  <use id="arrowdown" xlink:href="#arrowDown" x="0" y="0" onmousedown="handlePan(0,1)"/>
  <use id="arrowleft" xlink:href="#arrowLeft" x="0" y="0" onmousedown="handlePan(-1,0)"/>
</g>
<svg viewBox="0 0 15 15" width="100%" height="30px" preserveAspectRatio="xMaxYMin meet">
 <g id="arrow_out" transform="scale(0.3 0.3)">
  <a xlink:href="code__80057C60_8c_ae3d72341ceb9237e5906a9736971ce51_cgraph_org.svg" target="_base">
   <rect id="button" ry="5" rx="5" y="6" x="6" height="38" width="38"
        fill="#f2f5e9" fill-opacity="0.5" stroke="#606060" stroke-width="1.0"/>
   <path id="arrow"
     d="M 11.500037,31.436501 C 11.940474,20.09759 22.043105,11.32322 32.158766,21.979434 L 37.068811,17.246167 C 37.068811,17.246167 37.088388,32 37.088388,32 L 22.160133,31.978069 C 22.160133,31.978069 26.997745,27.140456 26.997745,27.140456 C 18.528582,18.264221 13.291696,25.230495 11.500037,31.436501 z"
     style="fill:#404040;"/>
  </a>
 </g>
</svg>

<style type='text/css'>
<![CDATA[
[data-mouse-over-selected='false'] { opacity: 0.7; }
[data-mouse-over-selected='true']  { opacity: 1.0; }
]]>
</style>
<script type="application/ecmascript"><![CDATA[
document.addEventListener('DOMContentLoaded', (event) => {
  highlightEdges();
  highlightAdjacentNodes();
});
]]></script>
</svg>
