<?xml version="1.0" encoding="UTF-8" standalone="no"?>
<!DOCTYPE svg PUBLIC "-//W3C//DTD SVG 1.1//EN"
 "http://www.w3.org/Graphics/SVG/1.1/DTD/svg11.dtd">
<!-- Generated by graphviz version 2.43.0 (0)
 -->
<!-- Title: func_8005DAF4 Pages: 1 -->
<!--zoomable 473 -->

<svg id="main" version="1.1" xmlns="http://www.w3.org/2000/svg" xmlns:xlink="http://www.w3.org/1999/xlink" xml:space="preserve" onload="init(evt)">

<style type="text/css"><![CDATA[
.node, .edge {opacity: 0.7;}
.node.selected, .edge.selected {opacity: 1;}
.edge:hover path { stroke: red; }
.edge:hover polygon { stroke: red; fill: red; }
]]></style>

<defs>
  <circle id="rim" cx="0" cy="0" r="7"/>
  <circle id="rim2" cx="0" cy="0" r="3.5"/>
  <g id="zoomPlus">
    <use xlink:href="#rim" fill="#404040"><set attributeName="fill" to="#808080" begin="zoomplus.mouseover" end="zoomplus.mouseout"/></use>
    <path d="M-4,0h8M0,-4v8" fill="none" stroke="white" stroke-width="1.5" pointer-events="none"/>
  </g>
  <g id="zoomMin">
    <use xlink:href="#rim" fill="#404040"><set attributeName="fill" to="#808080" begin="zoomminus.mouseover" end="zoomminus.mouseout"/></use>
    <path d="M-4,0h8" fill="none" stroke="white" stroke-width="1.5" pointer-events="none"/>
  </g>
  <g id="arrowUp" transform="translate(30 24)">
    <use xlink:href="#rim"/>
    <path pointer-events="none" fill="none" stroke="white" stroke-width="1.5" d="M0,-3.0v7 M-2.5,-0.5L0,-3.0L2.5,-0.5"/>
  </g>
  <g id="arrowRight" transform="rotate(90) translate(36 -43)">
    <use xlink:href="#rim"/>
    <path pointer-events="none" fill="none" stroke="white" stroke-width="1.5" d="M0,-3.0v7 M-2.5,-0.5L0,-3.0L2.5,-0.5"/>
  </g>
  <g id="arrowDown" transform="rotate(180) translate(-30 -48)">
    <use xlink:href="#rim"/>
    <path pointer-events="none" fill="none" stroke="white" stroke-width="1.5" d="M0,-3.0v7 M-2.5,-0.5L0,-3.0L2.5,-0.5"/>
  </g>
  <g id="arrowLeft" transform="rotate(270) translate(-36 17)">
    <use xlink:href="#rim"/>
    <path pointer-events="none" fill="none" stroke="white" stroke-width="1.5" d="M0,-3.0v7 M-2.5,-0.5L0,-3.0L2.5,-0.5"/>
  </g>
  <g id="resetDef">
    <use xlink:href="#rim2" fill="#404040"><set attributeName="fill" to="#808080" begin="reset.mouseover" end="reset.mouseout"/></use>
  </g>
</defs>
<script type="application/ecmascript">
var viewWidth = 459;
var viewHeight = 473;
var sectionId = 'dynsection-99';
</script>
<script type="application/ecmascript" xlink:href="svg.min.js"/>
<svg id="graph" class="graph">
<g id="viewport">
<title>func_8005DAF4</title>
<!-- Node1 -->
<g id="Node000001" class="node">
<title>Node1</title>
<g id="a_Node000001"><a xlink:title=" ">
<polygon fill="#999999" stroke="#666666" points="93,-241 0,-241 0,-222 93,-222 93,-241"/>
<text text-anchor="middle" x="46.5" y="-229" font-family="Helvetica,sans-Serif" font-size="10.00">func_8005DAF4</text>
</a>
</g>
</g>
<!-- Node2 -->
<g id="Node000002" class="node">
<title>Node2</title>
<g id="a_Node000002"><a xlink:href="code__80057C60_8c.html#a20a6f9c40d99f375e8fad9ba9c078acf" target="_top" xlink:title=" ">
<polygon fill="white" stroke="#666666" points="225.5,-465 133.5,-465 133.5,-446 225.5,-446 225.5,-465"/>
<text text-anchor="middle" x="179.5" y="-453" font-family="Helvetica,sans-Serif" font-size="10.00">func_8005D794</text>
</a>
</g>
</g>
<!-- Node1&#45;&gt;Node2 -->
<g id="edge1_Node000001_Node000002" class="edge">
<title>Node1&#45;&gt;Node2</title>
<g id="a_edge1_Node000001_Node000002"><a xlink:title=" ">
<path fill="none" stroke="#63b8ff" d="M48.54,-241.22C52.53,-273.73 69.72,-379.85 129,-437.5 130.11,-438.58 131.28,-439.59 132.51,-440.54"/>
<polygon fill="#63b8ff" stroke="#63b8ff" points="130.95,-443.69 141.29,-445.99 134.64,-437.74 130.95,-443.69"/>
</a>
</g>
</g>
<!-- Node3 -->
<g id="Node000003" class="node">
<title>Node3</title>
<g id="a_Node000003"><a xlink:href="code__80057C60_8c.html#a57792caa9602f8549cbc96315f5a8e3a" target="_top" xlink:title=" ">
<polygon fill="white" stroke="#666666" points="226.5,-428 132.5,-428 132.5,-409 226.5,-409 226.5,-428"/>
<text text-anchor="middle" x="179.5" y="-416" font-family="Helvetica,sans-Serif" font-size="10.00">func_8005D7D8</text>
</a>
</g>
</g>
<!-- Node1&#45;&gt;Node3 -->
<g id="edge2_Node000001_Node000003" class="edge">
<title>Node1&#45;&gt;Node3</title>
<g id="a_edge2_Node000001_Node000003"><a xlink:title=" ">
<path fill="none" stroke="#63b8ff" d="M49.44,-241.06C55.71,-269.49 78.02,-354.4 129,-400.5 130.31,-401.68 131.69,-402.79 133.15,-403.82"/>
<polygon fill="#63b8ff" stroke="#63b8ff" points="131.62,-406.98 142.02,-409 135.15,-400.93 131.62,-406.98"/>
</a>
</g>
</g>
<!-- Node4 -->
<g id="Node000004" class="node">
<title>Node4</title>
<g id="a_Node000004"><a xlink:href="code__80057C60_8c.html#a9f345279b2e554898280bb7fc4f90254" target="_top" xlink:title=" ">
<polygon fill="white" stroke="#666666" points="225.5,-391 133.5,-391 133.5,-372 225.5,-372 225.5,-391"/>
<text text-anchor="middle" x="179.5" y="-379" font-family="Helvetica,sans-Serif" font-size="10.00">func_8005D800</text>
</a>
</g>
</g>
<!-- Node1&#45;&gt;Node4 -->
<g id="edge3_Node000001_Node000004" class="edge">
<title>Node1&#45;&gt;Node4</title>
<g id="a_edge3_Node000001_Node000004"><a xlink:title=" ">
<path fill="none" stroke="#63b8ff" d="M50.95,-241.33C59.94,-265.59 86.39,-328.81 129,-363.5 130.57,-364.78 132.24,-365.97 133.97,-367.08"/>
<polygon fill="#63b8ff" stroke="#63b8ff" points="132.64,-370.34 143.11,-371.98 135.95,-364.17 132.64,-370.34"/>
</a>
</g>
</g>
<!-- Node5 -->
<g id="Node000005" class="node">
<title>Node5</title>
<g id="a_Node000005"><a xlink:href="code__80057C60_8c.html#ae4050e1c5940cb871b5da3f5f00b9ed1" target="_top" xlink:title=" ">
<polygon fill="white" stroke="#666666" points="226,-354 133,-354 133,-335 226,-335 226,-354"/>
<text text-anchor="middle" x="179.5" y="-342" font-family="Helvetica,sans-Serif" font-size="10.00">func_8005D82C</text>
</a>
</g>
</g>
<!-- Node1&#45;&gt;Node5 -->
<g id="edge4_Node000001_Node000005" class="edge">
<title>Node1&#45;&gt;Node5</title>
<g id="a_edge4_Node000001_Node000005"><a xlink:title=" ">
<path fill="none" stroke="#63b8ff" d="M54.39,-241.17C67.34,-258.82 96.91,-296.59 129,-320.5 133.91,-324.16 139.46,-327.48 145.02,-330.42"/>
<polygon fill="#63b8ff" stroke="#63b8ff" points="143.77,-333.71 154.29,-334.98 146.86,-327.43 143.77,-333.71"/>
</a>
</g>
</g>
<!-- Node6 -->
<g id="Node000006" class="node">
<title>Node6</title>
<g id="a_Node000006"><a xlink:href="math__util_8c.html#a151b63b8adf9af7e4054b3b84bd226dc" target="_top" xlink:title=" ">
<polygon fill="white" stroke="#666666" points="338,-335 266,-335 266,-316 338,-316 338,-335"/>
<text text-anchor="middle" x="302" y="-323" font-family="Helvetica,sans-Serif" font-size="10.00">random_int</text>
</a>
</g>
</g>
<!-- Node1&#45;&gt;Node6 -->
<g id="edge15_Node000001_Node000006" class="edge">
<title>Node1&#45;&gt;Node6</title>
<g id="a_edge15_Node000001_Node000006"><a xlink:title=" ">
<path fill="none" stroke="#63b8ff" d="M58.54,-241.18C73.48,-253.76 101.44,-275.53 129,-287.5 169.98,-305.3 220.19,-315.16 255.76,-320.34"/>
<polygon fill="#63b8ff" stroke="#63b8ff" points="255.46,-323.83 265.85,-321.74 256.42,-316.9 255.46,-323.83"/>
</a>
</g>
</g>
<!-- Node8 -->
<g id="Node000008" class="node">
<title>Node8</title>
<g id="a_Node000008"><a xlink:href="code__80057C60_8c.html#a82ba77d855a23986248942cb5318960e" target="_top" xlink:title=" ">
<polygon fill="white" stroke="#666666" points="227,-278 132,-278 132,-259 227,-259 227,-278"/>
<text text-anchor="middle" x="179.5" y="-266" font-family="Helvetica,sans-Serif" font-size="10.00">func_8005DAD8</text>
</a>
</g>
</g>
<!-- Node1&#45;&gt;Node8 -->
<g id="edge7_Node000001_Node000008" class="edge">
<title>Node1&#45;&gt;Node8</title>
<g id="a_edge7_Node000001_Node000008"><a xlink:title=" ">
<path fill="none" stroke="#63b8ff" d="M81.24,-241.03C97.46,-245.61 117.11,-251.16 134.49,-256.07"/>
<polygon fill="#63b8ff" stroke="#63b8ff" points="133.85,-259.53 144.42,-258.88 135.75,-252.79 133.85,-259.53"/>
</a>
</g>
</g>
<!-- Node9 -->
<g id="Node000009" class="node">
<title>Node9</title>
<g id="a_Node000009"><a xlink:href="Game_8cpp.html#a9f5c2ace915f66e850628695f297b1ff" target="_top" xlink:title=" ">
<polygon fill="white" stroke="#666666" points="230,-241 129,-241 129,-222 230,-222 230,-241"/>
<text text-anchor="middle" x="179.5" y="-229" font-family="Helvetica,sans-Serif" font-size="10.00">IsChocoMountain</text>
</a>
</g>
</g>
<!-- Node1&#45;&gt;Node9 -->
<g id="edge8_Node000001_Node000009" class="edge">
<title>Node1&#45;&gt;Node9</title>
<g id="a_edge8_Node000001_Node000009"><a xlink:title=" ">
<path fill="none" stroke="#63b8ff" d="M93.32,-231.5C101.5,-231.5 110.14,-231.5 118.64,-231.5"/>
<polygon fill="#63b8ff" stroke="#63b8ff" points="118.92,-235 128.92,-231.5 118.92,-228 118.92,-235"/>
</a>
</g>
</g>
<!-- Node10 -->
<g id="Node000010" class="node">
<title>Node10</title>
<g id="a_Node000010"><a xlink:href="Game_8cpp.html#a545c1a384e93cc7b616dfee707f5d962" target="_top" xlink:title=" ">
<polygon fill="white" stroke="#666666" points="213.5,-204 145.5,-204 145.5,-185 213.5,-185 213.5,-204"/>
<text text-anchor="middle" x="179.5" y="-192" font-family="Helvetica,sans-Serif" font-size="10.00">IsDkJungle</text>
</a>
</g>
</g>
<!-- Node1&#45;&gt;Node10 -->
<g id="edge9_Node000001_Node000010" class="edge">
<title>Node1&#45;&gt;Node10</title>
<g id="a_edge9_Node000001_Node000010"><a xlink:title=" ">
<path fill="none" stroke="#63b8ff" d="M81.24,-221.97C97.71,-217.32 117.73,-211.66 135.31,-206.7"/>
<polygon fill="#63b8ff" stroke="#63b8ff" points="136.66,-209.95 145.33,-203.87 134.76,-203.22 136.66,-209.95"/>
</a>
</g>
</g>
<!-- Node11 -->
<g id="Node000011" class="node">
<title>Node11</title>
<g id="a_Node000011"><a xlink:href="Game_8cpp.html#ad474b8b257813cceeae25ab5205273c4" target="_top" xlink:title=" ">
<polygon fill="white" stroke="#666666" points="228.5,-167 130.5,-167 130.5,-148 228.5,-148 228.5,-167"/>
<text text-anchor="middle" x="179.5" y="-155" font-family="Helvetica,sans-Serif" font-size="10.00">IsKalimariDesert</text>
</a>
</g>
</g>
<!-- Node1&#45;&gt;Node11 -->
<g id="edge10_Node000001_Node000011" class="edge">
<title>Node1&#45;&gt;Node11</title>
<g id="a_edge10_Node000001_Node000011"><a xlink:title=" ">
<path fill="none" stroke="#63b8ff" d="M59.93,-221.79C75.44,-209.99 103.11,-189.98 129,-176.5 132.77,-174.54 136.78,-172.67 140.84,-170.92"/>
<polygon fill="#63b8ff" stroke="#63b8ff" points="142.33,-174.09 150.26,-167.07 139.68,-167.61 142.33,-174.09"/>
</a>
</g>
</g>
<!-- Node12 -->
<g id="Node000012" class="node">
<title>Node12</title>
<g id="a_Node000012"><a xlink:href="Game_8cpp.html#a8a295fe1e3fdfa50223813feaca6d7d6" target="_top" xlink:title=" ">
<polygon fill="white" stroke="#666666" points="225,-130 134,-130 134,-111 225,-111 225,-130"/>
<text text-anchor="middle" x="179.5" y="-118" font-family="Helvetica,sans-Serif" font-size="10.00">IsMooMooFarm</text>
</a>
</g>
</g>
<!-- Node1&#45;&gt;Node12 -->
<g id="edge11_Node000001_Node000012" class="edge">
<title>Node1&#45;&gt;Node12</title>
<g id="a_edge11_Node000001_Node000012"><a xlink:title=" ">
<path fill="none" stroke="#63b8ff" d="M53.73,-221.79C66.02,-203.34 95.15,-162.96 129,-139.5 131.69,-137.64 134.58,-135.93 137.57,-134.36"/>
<polygon fill="#63b8ff" stroke="#63b8ff" points="139.14,-137.49 146.73,-130.09 136.18,-131.15 139.14,-137.49"/>
</a>
</g>
</g>
<!-- Node13 -->
<g id="Node000013" class="node">
<title>Node13</title>
<g id="a_Node000013"><a xlink:href="Game_8cpp.html#afb0bb7b7bc2b816a7a9fbedcc6c41ab7" target="_top" xlink:title=" ">
<polygon fill="white" stroke="#666666" points="228,-93 131,-93 131,-74 228,-74 228,-93"/>
<text text-anchor="middle" x="179.5" y="-81" font-family="Helvetica,sans-Serif" font-size="10.00">IsRoyalRaceway</text>
</a>
</g>
</g>
<!-- Node1&#45;&gt;Node13 -->
<g id="edge12_Node000001_Node000013" class="edge">
<title>Node1&#45;&gt;Node13</title>
<g id="a_edge12_Node000001_Node000013"><a xlink:title=" ">
<path fill="none" stroke="#63b8ff" d="M51.05,-221.94C60.27,-198.34 87.21,-136.77 129,-102.5 131.02,-100.84 133.21,-99.31 135.49,-97.91"/>
<polygon fill="#63b8ff" stroke="#63b8ff" points="137.44,-100.85 144.68,-93.11 134.2,-94.64 137.44,-100.85"/>
</a>
</g>
</g>
<!-- Node14 -->
<g id="Node000014" class="node">
<title>Node14</title>
<g id="a_Node000014"><a xlink:href="Game_8cpp.html#a1c60552e0107dfda214cbc9e83695321" target="_top" xlink:title=" ">
<polygon fill="white" stroke="#666666" points="226,-56 133,-56 133,-37 226,-37 226,-56"/>
<text text-anchor="middle" x="179.5" y="-44" font-family="Helvetica,sans-Serif" font-size="10.00">IsWarioStadium</text>
</a>
</g>
</g>
<!-- Node1&#45;&gt;Node14 -->
<g id="edge13_Node000001_Node000014" class="edge">
<title>Node1&#45;&gt;Node14</title>
<g id="a_edge13_Node000001_Node000014"><a xlink:title=" ">
<path fill="none" stroke="#63b8ff" d="M49.63,-221.75C56.27,-193.55 79.23,-110.98 129,-65.5 130.71,-63.94 132.57,-62.5 134.52,-61.17"/>
<polygon fill="#63b8ff" stroke="#63b8ff" points="136.57,-64.03 143.56,-56.06 133.13,-57.93 136.57,-64.03"/>
</a>
</g>
</g>
<!-- Node15 -->
<g id="Node000015" class="node">
<title>Node15</title>
<g id="a_Node000015"><a xlink:href="Game_8cpp.html#ab05bb065469940f40a5023c58a8f9e7f" target="_top" xlink:title=" ">
<polygon fill="white" stroke="#666666" points="219.5,-19 139.5,-19 139.5,0 219.5,0 219.5,-19"/>
<text text-anchor="middle" x="179.5" y="-7" font-family="Helvetica,sans-Serif" font-size="10.00">IsYoshiValley</text>
</a>
</g>
</g>
<!-- Node1&#45;&gt;Node15 -->
<g id="edge14_Node000001_Node000015" class="edge">
<title>Node1&#45;&gt;Node15</title>
<g id="a_edge14_Node000001_Node000015"><a xlink:title=" ">
<path fill="none" stroke="#63b8ff" d="M48.63,-221.96C52.88,-190.04 70.82,-85.79 129,-28.5 130.6,-26.93 132.34,-25.48 134.19,-24.15"/>
<polygon fill="#63b8ff" stroke="#63b8ff" points="135.98,-27.15 142.8,-19.04 132.42,-21.13 135.98,-27.15"/>
</a>
</g>
</g>
<!-- Node5&#45;&gt;Node6 -->
<g id="edge5_Node000005_Node000006" class="edge">
<title>Node5&#45;&gt;Node6</title>
<g id="a_edge5_Node000005_Node000006"><a xlink:title=" ">
<path fill="none" stroke="#63b8ff" d="M226.06,-337.32C235.85,-335.77 246.2,-334.14 255.97,-332.6"/>
<polygon fill="#63b8ff" stroke="#63b8ff" points="256.57,-336.05 265.9,-331.03 255.48,-329.13 256.57,-336.05"/>
</a>
</g>
</g>
<!-- Node7 -->
<g id="Node000007" class="node">
<title>Node7</title>
<g id="a_Node000007"><a xlink:href="math__util_8c.html#a062850863585005ad1d0a75d9ff70693" target="_top" xlink:title=" ">
<polygon fill="white" stroke="#666666" points="451,-335 374,-335 374,-316 451,-316 451,-335"/>
<text text-anchor="middle" x="412.5" y="-323" font-family="Helvetica,sans-Serif" font-size="10.00">random_u16</text>
</a>
</g>
</g>
<!-- Node6&#45;&gt;Node7 -->
<g id="edge6_Node000006_Node000007" class="edge">
<title>Node6&#45;&gt;Node7</title>
<g id="a_edge6_Node000006_Node000007"><a xlink:title=" ">
<path fill="none" stroke="#63b8ff" d="M338.23,-325.5C346.32,-325.5 355.06,-325.5 363.59,-325.5"/>
<polygon fill="#63b8ff" stroke="#63b8ff" points="363.83,-329 373.83,-325.5 363.83,-322 363.83,-329"/>
</a>
</g>
</g>
</g>
</svg>

<g id="navigator" transform="translate(0 0)" fill="#404254">
  <rect fill="#f2f5e9" fill-opacity="0.5" stroke="#606060" stroke-width=".5" x="0" y="0" width="60" height="60"/>
  <use id="zoomplus" xlink:href="#zoomPlus" x="17" y="9" onmousedown="handleZoom(evt,'in')"/>
  <use id="zoomminus" xlink:href="#zoomMin" x="42" y="9" onmousedown="handleZoom(evt,'out')"/>
  <use id="reset" xlink:href="#resetDef" x="30" y="36" onmousedown="handleReset()"/>
   <use id="arrowup" xlink:href="#arrowUp" x="0" y="0" onmousedown="handlePan(0,-1)"/>
  <use id="arrowright" xlink:href="#arrowRight" x="0" y="0" onmousedown="handlePan(1,0)"/>
  <use id="arrowdown" xlink:href="#arrowDown" x="0" y="0" onmousedown="handlePan(0,1)"/>
  <use id="arrowleft" xlink:href="#arrowLeft" x="0" y="0" onmousedown="handlePan(-1,0)"/>
</g>
<svg viewBox="0 0 15 15" width="100%" height="30px" preserveAspectRatio="xMaxYMin meet">
 <g id="arrow_out" transform="scale(0.3 0.3)">
  <a xlink:href="code__80057C60_8c_ab4e4613433f6c5cec808c162d836d68d_cgraph_org.svg" target="_base">
   <rect id="button" ry="5" rx="5" y="6" x="6" height="38" width="38"
        fill="#f2f5e9" fill-opacity="0.5" stroke="#606060" stroke-width="1.0"/>
   <path id="arrow"
     d="M 11.500037,31.436501 C 11.940474,20.09759 22.043105,11.32322 32.158766,21.979434 L 37.068811,17.246167 C 37.068811,17.246167 37.088388,32 37.088388,32 L 22.160133,31.978069 C 22.160133,31.978069 26.997745,27.140456 26.997745,27.140456 C 18.528582,18.264221 13.291696,25.230495 11.500037,31.436501 z"
     style="fill:#404040;"/>
  </a>
 </g>
</svg>

<style type='text/css'>
<![CDATA[
[data-mouse-over-selected='false'] { opacity: 0.7; }
[data-mouse-over-selected='true']  { opacity: 1.0; }
]]>
</style>
<script type="application/ecmascript"><![CDATA[
document.addEventListener('DOMContentLoaded', (event) => {
  highlightEdges();
  highlightAdjacentNodes();
});
]]></script>
</svg>
