<?xml version="1.0" encoding="UTF-8" standalone="no"?>
<!DOCTYPE svg PUBLIC "-//W3C//DTD SVG 1.1//EN"
 "http://www.w3.org/Graphics/SVG/1.1/DTD/svg11.dtd">
<!-- Generated by graphviz version 2.43.0 (0)
 -->
<!-- Title: are_players_in_course_section Pages: 1 -->
<!--zoomable 177 -->

<svg id="main" version="1.1" xmlns="http://www.w3.org/2000/svg" xmlns:xlink="http://www.w3.org/1999/xlink" xml:space="preserve" onload="init(evt)">

<style type="text/css"><![CDATA[
.node, .edge {opacity: 0.7;}
.node.selected, .edge.selected {opacity: 1;}
.edge:hover path { stroke: red; }
.edge:hover polygon { stroke: red; fill: red; }
]]></style>

<defs>
  <circle id="rim" cx="0" cy="0" r="7"/>
  <circle id="rim2" cx="0" cy="0" r="3.5"/>
  <g id="zoomPlus">
    <use xlink:href="#rim" fill="#404040"><set attributeName="fill" to="#808080" begin="zoomplus.mouseover" end="zoomplus.mouseout"/></use>
    <path d="M-4,0h8M0,-4v8" fill="none" stroke="white" stroke-width="1.5" pointer-events="none"/>
  </g>
  <g id="zoomMin">
    <use xlink:href="#rim" fill="#404040"><set attributeName="fill" to="#808080" begin="zoomminus.mouseover" end="zoomminus.mouseout"/></use>
    <path d="M-4,0h8" fill="none" stroke="white" stroke-width="1.5" pointer-events="none"/>
  </g>
  <g id="arrowUp" transform="translate(30 24)">
    <use xlink:href="#rim"/>
    <path pointer-events="none" fill="none" stroke="white" stroke-width="1.5" d="M0,-3.0v7 M-2.5,-0.5L0,-3.0L2.5,-0.5"/>
  </g>
  <g id="arrowRight" transform="rotate(90) translate(36 -43)">
    <use xlink:href="#rim"/>
    <path pointer-events="none" fill="none" stroke="white" stroke-width="1.5" d="M0,-3.0v7 M-2.5,-0.5L0,-3.0L2.5,-0.5"/>
  </g>
  <g id="arrowDown" transform="rotate(180) translate(-30 -48)">
    <use xlink:href="#rim"/>
    <path pointer-events="none" fill="none" stroke="white" stroke-width="1.5" d="M0,-3.0v7 M-2.5,-0.5L0,-3.0L2.5,-0.5"/>
  </g>
  <g id="arrowLeft" transform="rotate(270) translate(-36 17)">
    <use xlink:href="#rim"/>
    <path pointer-events="none" fill="none" stroke="white" stroke-width="1.5" d="M0,-3.0v7 M-2.5,-0.5L0,-3.0L2.5,-0.5"/>
  </g>
  <g id="resetDef">
    <use xlink:href="#rim2" fill="#404040"><set attributeName="fill" to="#808080" begin="reset.mouseover" end="reset.mouseout"/></use>
  </g>
</defs>
<script type="application/ecmascript">
var viewWidth = 783;
var viewHeight = 177;
var sectionId = 'dynsection-4';
</script>
<script type="application/ecmascript" xlink:href="svg.min.js"/>
<svg id="graph" class="graph">
<g id="viewport">
<title>are_players_in_course_section</title>
<!-- Node1 -->
<g id="Node000001" class="node">
<title>Node1</title>
<g id="a_Node000001"><a xlink:title=" ">
<polygon fill="#999999" stroke="#666666" points="775,-98.5 650,-98.5 650,-68.5 775,-68.5 775,-98.5"/>
<text text-anchor="start" x="658" y="-86.5" font-family="Helvetica,sans-Serif" font-size="10.00">are_players_in_course</text>
<text text-anchor="middle" x="712.5" y="-75.5" font-family="Helvetica,sans-Serif" font-size="10.00">_section</text>
</a>
</g>
</g>
<!-- Node2 -->
<g id="Node000002" class="node">
<title>Node2</title>
<g id="a_Node000002"><a xlink:href="update__objects_8c.html#a401992e1c9638d1a48190456bd7af9a3" target="_top" xlink:title=" ">
<polygon fill="white" stroke="#666666" points="611,-169 519,-169 519,-150 611,-150 611,-169"/>
<text text-anchor="middle" x="565" y="-157" font-family="Helvetica,sans-Serif" font-size="10.00">func_8007601C</text>
</a>
</g>
</g>
<!-- Node1&#45;&gt;Node2 -->
<g id="edge1_Node000001_Node000002" class="edge">
<title>Node1&#45;&gt;Node2</title>
<g id="a_edge1_Node000001_Node000002"><a xlink:title=" ">
<path fill="none" stroke="#63b8ff" d="M674.36,-103.6C656.22,-113.35 634.03,-125.15 614,-135.5 604.73,-140.29 594.38,-145.48 585.68,-149.81"/>
<polygon fill="#63b8ff" stroke="#63b8ff" points="676.3,-106.54 683.44,-98.72 672.98,-100.37 676.3,-106.54"/>
</a>
</g>
</g>
<!-- Node6 -->
<g id="Node000006" class="node">
<title>Node6</title>
<g id="a_Node000006"><a xlink:href="update__objects_8c.html#a269298ce38d852af33c677ae12781528" target="_top" xlink:title=" ">
<polygon fill="white" stroke="#666666" points="480,-131 388,-131 388,-112 480,-112 480,-131"/>
<text text-anchor="middle" x="434" y="-119" font-family="Helvetica,sans-Serif" font-size="10.00">func_8007661C</text>
</a>
</g>
</g>
<!-- Node1&#45;&gt;Node6 -->
<g id="edge5_Node000001_Node000006" class="edge">
<title>Node1&#45;&gt;Node6</title>
<g id="a_edge5_Node000001_Node000006"><a xlink:title=" ">
<path fill="none" stroke="#63b8ff" d="M639.67,-98.23C631.04,-99.78 622.34,-101.25 614,-102.5 568.57,-109.32 516.29,-114.58 480.01,-117.81"/>
<polygon fill="#63b8ff" stroke="#63b8ff" points="640.55,-101.63 649.75,-96.37 639.28,-94.74 640.55,-101.63"/>
</a>
</g>
</g>
<!-- Node7 -->
<g id="Node000007" class="node">
<title>Node7</title>
<g id="a_Node000007"><a xlink:href="update__objects_8c.html#aee48f5ac3342922cbf8cd98976679dad" target="_top" xlink:title=" ">
<polygon fill="white" stroke="#666666" points="612.5,-93 517.5,-93 517.5,-74 612.5,-74 612.5,-93"/>
<text text-anchor="middle" x="565" y="-81" font-family="Helvetica,sans-Serif" font-size="10.00">func_8007DDC0</text>
</a>
</g>
</g>
<!-- Node1&#45;&gt;Node7 -->
<g id="edge7_Node000001_Node000007" class="edge">
<title>Node1&#45;&gt;Node7</title>
<g id="a_edge7_Node000001_Node000007"><a xlink:title=" ">
<path fill="none" stroke="#63b8ff" d="M639.56,-83.5C630.46,-83.5 621.35,-83.5 612.79,-83.5"/>
<polygon fill="#63b8ff" stroke="#63b8ff" points="639.79,-87 649.79,-83.5 639.79,-80 639.79,-87"/>
</a>
</g>
</g>
<!-- Node9 -->
<g id="Node000009" class="node">
<title>Node9</title>
<g id="a_Node000009"><a xlink:href="update__objects_8c.html#a6c7938339fa5406ffe336278a92aa7ad" target="_top" xlink:title=" ">
<polygon fill="white" stroke="#666666" points="610.5,-56 519.5,-56 519.5,-37 610.5,-37 610.5,-56"/>
<text text-anchor="middle" x="565" y="-44" font-family="Helvetica,sans-Serif" font-size="10.00">func_8007E1F4</text>
</a>
</g>
</g>
<!-- Node1&#45;&gt;Node9 -->
<g id="edge9_Node000001_Node000009" class="edge">
<title>Node1&#45;&gt;Node9</title>
<g id="a_edge9_Node000001_Node000009"><a xlink:title=" ">
<path fill="none" stroke="#63b8ff" d="M642.55,-65.97C629.06,-62.54 615.4,-59.06 603.42,-56.02"/>
<polygon fill="#63b8ff" stroke="#63b8ff" points="641.77,-69.38 652.32,-68.45 643.49,-62.59 641.77,-69.38"/>
</a>
</g>
</g>
<!-- Node12 -->
<g id="Node000012" class="node">
<title>Node12</title>
<g id="a_Node000012"><a xlink:href="classOSnowman.html#ae84de267ff70c7e2ac5748b9bd738ada" target="_top" xlink:title=" ">
<polygon fill="white" stroke="#666666" points="614,-19 516,-19 516,0 614,0 614,-19"/>
<text text-anchor="middle" x="565" y="-7" font-family="Helvetica,sans-Serif" font-size="10.00">OSnowman::Tick</text>
</a>
</g>
</g>
<!-- Node1&#45;&gt;Node12 -->
<g id="edge12_Node000001_Node000012" class="edge">
<title>Node1&#45;&gt;Node12</title>
<g id="a_edge12_Node000001_Node000012"><a xlink:title=" ">
<path fill="none" stroke="#63b8ff" d="M678.97,-63.04C660.34,-51.78 636.31,-38 614,-27.5 607.56,-24.47 600.46,-21.57 593.73,-19.02"/>
<polygon fill="#63b8ff" stroke="#63b8ff" points="677.29,-66.11 687.64,-68.34 680.93,-60.14 677.29,-66.11"/>
</a>
</g>
</g>
<!-- Node3 -->
<g id="Node000003" class="node">
<title>Node3</title>
<g id="a_Node000003"><a xlink:href="update__objects_8c.html#ab0947a9025b7f18d2af9cb88f2742c8c" target="_top" xlink:title=" ">
<polygon fill="white" stroke="#666666" points="480,-168 388,-168 388,-149 480,-149 480,-168"/>
<text text-anchor="middle" x="434" y="-156" font-family="Helvetica,sans-Serif" font-size="10.00">func_8007614C</text>
</a>
</g>
</g>
<!-- Node2&#45;&gt;Node3 -->
<g id="edge2_Node000002_Node000003" class="edge">
<title>Node2&#45;&gt;Node3</title>
<g id="a_edge2_Node000002_Node000003"><a xlink:title=" ">
<path fill="none" stroke="#63b8ff" d="M508.74,-159.07C499.25,-159 489.5,-158.92 480.31,-158.85"/>
<polygon fill="#63b8ff" stroke="#63b8ff" points="508.86,-162.57 518.88,-159.15 508.91,-155.57 508.86,-162.57"/>
</a>
</g>
</g>
<!-- Node4 -->
<g id="Node000004" class="node">
<title>Node4</title>
<g id="a_Node000004"><a xlink:href="update__objects_8c.html#adb84f91341a8ce4d15d3242630d3e5e2" target="_top" xlink:title=" ">
<polygon fill="white" stroke="#666666" points="338.5,-149 213.5,-149 213.5,-130 338.5,-130 338.5,-149"/>
<text text-anchor="middle" x="276" y="-137" font-family="Helvetica,sans-Serif" font-size="10.00">update_flame_particle</text>
</a>
</g>
</g>
<!-- Node3&#45;&gt;Node4 -->
<g id="edge3_Node000003_Node000004" class="edge">
<title>Node3&#45;&gt;Node4</title>
<g id="a_edge3_Node000003_Node000004"><a xlink:title=" ">
<path fill="none" stroke="#63b8ff" d="M377.89,-151.79C365.16,-150.24 351.54,-148.58 338.56,-147"/>
<polygon fill="#63b8ff" stroke="#63b8ff" points="377.53,-155.27 387.88,-153 378.37,-148.32 377.53,-155.27"/>
</a>
</g>
</g>
<!-- Node5 -->
<g id="Node000005" class="node">
<title>Node5</title>
<g id="a_Node000005"><a xlink:href="classBowsersCastle.html#a7df11a91ef164c44a231dfe74fdab745" target="_top" xlink:title=" ">
<polygon fill="white" stroke="#666666" points="164,-154.5 0,-154.5 0,-124.5 164,-124.5 164,-154.5"/>
<text text-anchor="start" x="8" y="-142.5" font-family="Helvetica,sans-Serif" font-size="10.00">BowsersCastle::UpdateCourse</text>
<text text-anchor="middle" x="82" y="-131.5" font-family="Helvetica,sans-Serif" font-size="10.00">Objects</text>
</a>
</g>
</g>
<!-- Node4&#45;&gt;Node5 -->
<g id="edge4_Node000004_Node000005" class="edge">
<title>Node4&#45;&gt;Node5</title>
<g id="a_edge4_Node000004_Node000005"><a xlink:title=" ">
<path fill="none" stroke="#63b8ff" d="M203.36,-139.5C190.59,-139.5 177.19,-139.5 164.17,-139.5"/>
<polygon fill="#63b8ff" stroke="#63b8ff" points="203.46,-143 213.46,-139.5 203.46,-136 203.46,-143"/>
</a>
</g>
</g>
<!-- Node6&#45;&gt;Node4 -->
<g id="edge6_Node000006_Node000004" class="edge">
<title>Node6&#45;&gt;Node4</title>
<g id="a_edge6_Node000006_Node000004"><a xlink:title=" ">
<path fill="none" stroke="#63b8ff" d="M377.89,-127.86C365.16,-129.33 351.54,-130.9 338.56,-132.4"/>
<polygon fill="#63b8ff" stroke="#63b8ff" points="378.35,-131.33 387.88,-126.71 377.54,-124.38 378.35,-131.33"/>
</a>
</g>
</g>
<!-- Node8 -->
<g id="Node000008" class="node">
<title>Node8</title>
<g id="a_Node000008"><a xlink:href="classOTrashBin.html#af6d73933526741c82beebbed24515259" target="_top" xlink:title=" ">
<polygon fill="white" stroke="#666666" points="480,-93 388,-93 388,-74 480,-74 480,-93"/>
<text text-anchor="middle" x="434" y="-81" font-family="Helvetica,sans-Serif" font-size="10.00">OTrashBin::Tick</text>
</a>
</g>
</g>
<!-- Node7&#45;&gt;Node8 -->
<g id="edge8_Node000007_Node000008" class="edge">
<title>Node7&#45;&gt;Node8</title>
<g id="a_edge8_Node000007_Node000008"><a xlink:title=" ">
<path fill="none" stroke="#63b8ff" d="M507.32,-83.5C498.25,-83.5 488.97,-83.5 480.21,-83.5"/>
<polygon fill="#63b8ff" stroke="#63b8ff" points="507.43,-87 517.43,-83.5 507.43,-80 507.43,-87"/>
</a>
</g>
</g>
<!-- Node10 -->
<g id="Node000010" class="node">
<title>Node10</title>
<g id="a_Node000010"><a xlink:href="update__objects_8c.html#ac8b268e6a216ed165f6d9ba102367fd7" target="_top" xlink:title=" ">
<polygon fill="white" stroke="#666666" points="480,-56 388,-56 388,-37 480,-37 480,-56"/>
<text text-anchor="middle" x="434" y="-44" font-family="Helvetica,sans-Serif" font-size="10.00">func_8007E4C4</text>
</a>
</g>
</g>
<!-- Node9&#45;&gt;Node10 -->
<g id="edge10_Node000009_Node000010" class="edge">
<title>Node9&#45;&gt;Node10</title>
<g id="a_edge10_Node000009_Node000010"><a xlink:title=" ">
<path fill="none" stroke="#63b8ff" d="M508.96,-46.5C499.34,-46.5 489.43,-46.5 480.11,-46.5"/>
<polygon fill="#63b8ff" stroke="#63b8ff" points="509.24,-50 519.24,-46.5 509.24,-43 509.24,-50"/>
</a>
</g>
</g>
<!-- Node11 -->
<g id="Node000011" class="node">
<title>Node11</title>
<g id="a_Node000011"><a xlink:href="classBansheeBoardwalk.html#a9b8d7ccc5ccef6ae5ae56ab2949f24cd" target="_top" xlink:title=" ">
<polygon fill="white" stroke="#666666" points="352,-61.5 200,-61.5 200,-31.5 352,-31.5 352,-61.5"/>
<text text-anchor="start" x="208" y="-49.5" font-family="Helvetica,sans-Serif" font-size="10.00">BansheeBoardwalk::Update</text>
<text text-anchor="middle" x="276" y="-38.5" font-family="Helvetica,sans-Serif" font-size="10.00">CourseObjects</text>
</a>
</g>
</g>
<!-- Node10&#45;&gt;Node11 -->
<g id="edge11_Node000010_Node000011" class="edge">
<title>Node10&#45;&gt;Node11</title>
<g id="a_edge11_Node000010_Node000011"><a xlink:title=" ">
<path fill="none" stroke="#63b8ff" d="M377.68,-46.5C369.45,-46.5 360.85,-46.5 352.29,-46.5"/>
<polygon fill="#63b8ff" stroke="#63b8ff" points="377.88,-50 387.88,-46.5 377.88,-43 377.88,-50"/>
</a>
</g>
</g>
</g>
</svg>

<g id="navigator" transform="translate(0 0)" fill="#404254">
  <rect fill="#f2f5e9" fill-opacity="0.5" stroke="#606060" stroke-width=".5" x="0" y="0" width="60" height="60"/>
  <use id="zoomplus" xlink:href="#zoomPlus" x="17" y="9" onmousedown="handleZoom(evt,'in')"/>
  <use id="zoomminus" xlink:href="#zoomMin" x="42" y="9" onmousedown="handleZoom(evt,'out')"/>
  <use id="reset" xlink:href="#resetDef" x="30" y="36" onmousedown="handleReset()"/>
   <use id="arrowup" xlink:href="#arrowUp" x="0" y="0" onmousedown="handlePan(0,-1)"/>
  <use id="arrowright" xlink:href="#arrowRight" x="0" y="0" onmousedown="handlePan(1,0)"/>
  <use id="arrowdown" xlink:href="#arrowDown" x="0" y="0" onmousedown="handlePan(0,1)"/>
  <use id="arrowleft" xlink:href="#arrowLeft" x="0" y="0" onmousedown="handlePan(-1,0)"/>
</g>
<svg viewBox="0 0 15 15" width="100%" height="30px" preserveAspectRatio="xMaxYMin meet">
 <g id="arrow_out" transform="scale(0.3 0.3)">
  <a xlink:href="code__80086E70_8h_a5aed2e47470583536b07b8b3bcb9edd6_icgraph_org.svg" target="_base">
   <rect id="button" ry="5" rx="5" y="6" x="6" height="38" width="38"
        fill="#f2f5e9" fill-opacity="0.5" stroke="#606060" stroke-width="1.0"/>
   <path id="arrow"
     d="M 11.500037,31.436501 C 11.940474,20.09759 22.043105,11.32322 32.158766,21.979434 L 37.068811,17.246167 C 37.068811,17.246167 37.088388,32 37.088388,32 L 22.160133,31.978069 C 22.160133,31.978069 26.997745,27.140456 26.997745,27.140456 C 18.528582,18.264221 13.291696,25.230495 11.500037,31.436501 z"
     style="fill:#404040;"/>
  </a>
 </g>
</svg>

<style type='text/css'>
<![CDATA[
[data-mouse-over-selected='false'] { opacity: 0.7; }
[data-mouse-over-selected='true']  { opacity: 1.0; }
]]>
</style>
<script type="application/ecmascript"><![CDATA[
document.addEventListener('DOMContentLoaded', (event) => {
  highlightEdges();
  highlightAdjacentNodes();
});
]]></script>
</svg>
