<?xml version="1.0" encoding="UTF-8" standalone="no"?>
<!DOCTYPE svg PUBLIC "-//W3C//DTD SVG 1.1//EN"
 "http://www.w3.org/Graphics/SVG/1.1/DTD/svg11.dtd">
<!-- Generated by graphviz version 2.43.0 (0)
 -->
<!-- Title: add_red_shell_in_unexpired_actor_list Pages: 1 -->
<svg width="329pt" height="76pt"
 viewBox="0.00 0.00 329.00 75.50" xmlns="http://www.w3.org/2000/svg" xmlns:xlink="http://www.w3.org/1999/xlink">
<g id="graph0" class="graph" transform="scale(1 1) rotate(0) translate(4 71.5)">
<title>add_red_shell_in_unexpired_actor_list</title>
<!-- Node1 -->
<g id="Node000001" class="node">
<title>Node1</title>
<g id="a_Node000001"><a xlink:title=" ">
<polygon fill="#999999" stroke="#666666" points="152,-45.5 0,-45.5 0,-15.5 152,-15.5 152,-45.5"/>
<text text-anchor="start" x="8" y="-33.5" font-family="Helvetica,sans-Serif" font-size="10.00">add_red_shell_in_unexpired</text>
<text text-anchor="middle" x="76" y="-22.5" font-family="Helvetica,sans-Serif" font-size="10.00">_actor_list</text>
</a>
</g>
</g>
<!-- Node2 -->
<g id="Node000002" class="node">
<title>Node2</title>
<g id="a_Node000002"><a xlink:href="code__80005FD0_8c.html#aa8b362cc15beb71aeda9bef462c4826a" target="_top" xlink:title=" ">
<polygon fill="white" stroke="#666666" points="321,-67.5 188,-67.5 188,-37.5 321,-37.5 321,-67.5"/>
<text text-anchor="start" x="196" y="-55.5" font-family="Helvetica,sans-Serif" font-size="10.00">add_actor_in_unexpired</text>
<text text-anchor="middle" x="254.5" y="-44.5" font-family="Helvetica,sans-Serif" font-size="10.00">_actor_list</text>
</a>
</g>
</g>
<!-- Node1&#45;&gt;Node2 -->
<g id="edge1_Node000001_Node000002" class="edge">
<title>Node1&#45;&gt;Node2</title>
<g id="a_edge1_Node000001_Node000002"><a xlink:title=" ">
<path fill="none" stroke="#63b8ff" d="M152.11,-39.86C160.67,-40.93 169.41,-42.02 177.98,-43.09"/>
<polygon fill="#63b8ff" stroke="#63b8ff" points="177.58,-46.56 187.94,-44.33 178.45,-39.62 177.58,-46.56"/>
</a>
</g>
</g>
<!-- Node3 -->
<g id="Node000003" class="node">
<title>Node3</title>
<g id="a_Node000003"><a xlink:href="Game_8cpp.html#a693de7d8b89fe291aafea86bc64a0a2e" target="_top" xlink:title=" ">
<polygon fill="white" stroke="#666666" points="294.5,-19 214.5,-19 214.5,0 294.5,0 294.5,-19"/>
<text text-anchor="middle" x="254.5" y="-7" font-family="Helvetica,sans-Serif" font-size="10.00">CM_GetActor</text>
</a>
</g>
</g>
<!-- Node1&#45;&gt;Node3 -->
<g id="edge2_Node000001_Node000003" class="edge">
<title>Node1&#45;&gt;Node3</title>
<g id="a_edge2_Node000001_Node000003"><a xlink:title=" ">
<path fill="none" stroke="#63b8ff" d="M152.11,-21.56C169.66,-19.48 187.91,-17.3 204.02,-15.39"/>
<polygon fill="#63b8ff" stroke="#63b8ff" points="204.75,-18.83 214.27,-14.17 203.92,-11.87 204.75,-18.83"/>
</a>
</g>
</g>
</g>
</svg>
