<?xml version="1.0" encoding="UTF-8" standalone="no"?>
<!DOCTYPE svg PUBLIC "-//W3C//DTD SVG 1.1//EN"
 "http://www.w3.org/Graphics/SVG/1.1/DTD/svg11.dtd">
<!-- Generated by graphviz version 2.43.0 (0)
 -->
<!-- Title: func_80060B14 Pages: 1 -->
<svg width="455pt" height="249pt"
 viewBox="0.00 0.00 455.00 249.00" xmlns="http://www.w3.org/2000/svg" xmlns:xlink="http://www.w3.org/1999/xlink">
<g id="graph0" class="graph" transform="scale(1 1) rotate(0) translate(4 245)">
<title>func_80060B14</title>
<!-- Node1 -->
<g id="Node000001" class="node">
<title>Node1</title>
<g id="a_Node000001"><a xlink:title=" ">
<polygon fill="#999999" stroke="#666666" points="92,-93 0,-93 0,-74 92,-74 92,-93"/>
<text text-anchor="middle" x="46" y="-81" font-family="Helvetica,sans-Serif" font-size="10.00">func_80060B14</text>
</a>
</g>
</g>
<!-- Node2 -->
<g id="Node000002" class="node">
<title>Node2</title>
<g id="a_Node000002"><a xlink:href="code__80057C60_8c.html#abde2a6c2de1d59c40ebc18988a57dbc5" target="_top" xlink:title=" ">
<polygon fill="white" stroke="#666666" points="219.5,-130 128.5,-130 128.5,-111 219.5,-111 219.5,-130"/>
<text text-anchor="middle" x="174" y="-118" font-family="Helvetica,sans-Serif" font-size="10.00">func_800608E0</text>
</a>
</g>
</g>
<!-- Node1&#45;&gt;Node2 -->
<g id="edge1_Node000001_Node000002" class="edge">
<title>Node1&#45;&gt;Node2</title>
<g id="a_edge1_Node000001_Node000002"><a xlink:title=" ">
<path fill="none" stroke="#63b8ff" d="M79.45,-93.03C94.91,-97.57 113.6,-103.06 130.2,-107.93"/>
<polygon fill="#63b8ff" stroke="#63b8ff" points="129.64,-111.42 140.22,-110.88 131.62,-104.7 129.64,-111.42"/>
</a>
</g>
</g>
<!-- Node12 -->
<g id="Node000012" class="node">
<title>Node12</title>
<g id="a_Node000012"><a xlink:href="Game_8cpp.html#a5c843dc61d3b9ca430e4926c4b8018ef" target="_top" xlink:title=" ">
<polygon fill="white" stroke="#666666" points="220,-93 128,-93 128,-74 220,-74 220,-93"/>
<text text-anchor="middle" x="174" y="-81" font-family="Helvetica,sans-Serif" font-size="10.00">IsRainbowRoad</text>
</a>
</g>
</g>
<!-- Node1&#45;&gt;Node12 -->
<g id="edge11_Node000001_Node000012" class="edge">
<title>Node1&#45;&gt;Node12</title>
<g id="a_edge11_Node000001_Node000012"><a xlink:title=" ">
<path fill="none" stroke="#63b8ff" d="M92.13,-83.5C100.37,-83.5 109.04,-83.5 117.53,-83.5"/>
<polygon fill="#63b8ff" stroke="#63b8ff" points="117.76,-87 127.76,-83.5 117.76,-80 117.76,-87"/>
</a>
</g>
</g>
<!-- Node13 -->
<g id="Node000013" class="node">
<title>Node13</title>
<g id="a_Node000013"><a xlink:href="Game_8cpp.html#a9fedd7b107c6b6e24e773784787a105c" target="_top" xlink:title=" ">
<polygon fill="white" stroke="#666666" points="213,-56 135,-56 135,-37 213,-37 213,-56"/>
<text text-anchor="middle" x="174" y="-44" font-family="Helvetica,sans-Serif" font-size="10.00">IsSkyscraper</text>
</a>
</g>
</g>
<!-- Node1&#45;&gt;Node13 -->
<g id="edge12_Node000001_Node000013" class="edge">
<title>Node1&#45;&gt;Node13</title>
<g id="a_edge12_Node000001_Node000013"><a xlink:title=" ">
<path fill="none" stroke="#63b8ff" d="M79.45,-73.97C94.91,-69.43 113.6,-63.94 130.2,-59.07"/>
<polygon fill="#63b8ff" stroke="#63b8ff" points="131.62,-62.3 140.22,-56.12 129.64,-55.58 131.62,-62.3"/>
</a>
</g>
</g>
<!-- Node3 -->
<g id="Node000003" class="node">
<title>Node3</title>
<g id="a_Node000003"><a xlink:href="code__80057C60_8c.html#a20a6f9c40d99f375e8fad9ba9c078acf" target="_top" xlink:title=" ">
<polygon fill="white" stroke="#666666" points="360.5,-241 268.5,-241 268.5,-222 360.5,-222 360.5,-241"/>
<text text-anchor="middle" x="314.5" y="-229" font-family="Helvetica,sans-Serif" font-size="10.00">func_8005D794</text>
</a>
</g>
</g>
<!-- Node2&#45;&gt;Node3 -->
<g id="edge2_Node000002_Node000003" class="edge">
<title>Node2&#45;&gt;Node3</title>
<g id="a_edge2_Node000002_Node000003"><a xlink:title=" ">
<path fill="none" stroke="#63b8ff" d="M180.83,-130.22C192.64,-149.09 221.23,-190.78 256,-213.5 258.42,-215.08 260.99,-216.53 263.65,-217.86"/>
<polygon fill="#63b8ff" stroke="#63b8ff" points="262.37,-221.12 272.93,-221.93 265.17,-214.71 262.37,-221.12"/>
</a>
</g>
</g>
<!-- Node4 -->
<g id="Node000004" class="node">
<title>Node4</title>
<g id="a_Node000004"><a xlink:href="code__80057C60_8c.html#a57792caa9602f8549cbc96315f5a8e3a" target="_top" xlink:title=" ">
<polygon fill="white" stroke="#666666" points="361.5,-204 267.5,-204 267.5,-185 361.5,-185 361.5,-204"/>
<text text-anchor="middle" x="314.5" y="-192" font-family="Helvetica,sans-Serif" font-size="10.00">func_8005D7D8</text>
</a>
</g>
</g>
<!-- Node2&#45;&gt;Node4 -->
<g id="edge3_Node000002_Node000004" class="edge">
<title>Node2&#45;&gt;Node4</title>
<g id="a_edge3_Node000002_Node000004"><a xlink:title=" ">
<path fill="none" stroke="#63b8ff" d="M186.38,-130.04C201.45,-142.27 229.27,-163.45 256,-176.5 259.75,-178.33 263.74,-180.03 267.78,-181.59"/>
<polygon fill="#63b8ff" stroke="#63b8ff" points="266.68,-184.92 277.27,-184.99 269.04,-178.32 266.68,-184.92"/>
</a>
</g>
</g>
<!-- Node5 -->
<g id="Node000005" class="node">
<title>Node5</title>
<g id="a_Node000005"><a xlink:href="code__80057C60_8c.html#a9f345279b2e554898280bb7fc4f90254" target="_top" xlink:title=" ">
<polygon fill="white" stroke="#666666" points="360.5,-167 268.5,-167 268.5,-148 360.5,-148 360.5,-167"/>
<text text-anchor="middle" x="314.5" y="-155" font-family="Helvetica,sans-Serif" font-size="10.00">func_8005D800</text>
</a>
</g>
</g>
<!-- Node2&#45;&gt;Node5 -->
<g id="edge4_Node000002_Node000005" class="edge">
<title>Node2&#45;&gt;Node5</title>
<g id="a_edge4_Node000002_Node000005"><a xlink:title=" ">
<path fill="none" stroke="#63b8ff" d="M210.67,-130.03C228.06,-134.67 249.18,-140.32 267.75,-145.28"/>
<polygon fill="#63b8ff" stroke="#63b8ff" points="266.91,-148.68 277.47,-147.88 268.71,-141.91 266.91,-148.68"/>
</a>
</g>
</g>
<!-- Node6 -->
<g id="Node000006" class="node">
<title>Node6</title>
<g id="a_Node000006"><a xlink:href="code__80057C60_8c.html#a156481baa44e5305c016e2902a91bbb1" target="_top" xlink:title=" ">
<polygon fill="white" stroke="#666666" points="360.5,-130 268.5,-130 268.5,-111 360.5,-111 360.5,-130"/>
<text text-anchor="middle" x="314.5" y="-118" font-family="Helvetica,sans-Serif" font-size="10.00">func_80062B18</text>
</a>
</g>
</g>
<!-- Node2&#45;&gt;Node6 -->
<g id="edge5_Node000002_Node000006" class="edge">
<title>Node2&#45;&gt;Node6</title>
<g id="a_edge5_Node000002_Node000006"><a xlink:title=" ">
<path fill="none" stroke="#63b8ff" d="M219.58,-120.5C231.81,-120.5 245.23,-120.5 257.99,-120.5"/>
<polygon fill="#63b8ff" stroke="#63b8ff" points="258.05,-124 268.05,-120.5 258.05,-117 258.05,-124"/>
</a>
</g>
</g>
<!-- Node9 -->
<g id="Node000009" class="node">
<title>Node9</title>
<g id="a_Node000009"><a xlink:href="Game_8cpp.html#ac015fe2f0caa481693b5a07997bf69b6" target="_top" xlink:title=" ">
<polygon fill="white" stroke="#666666" points="349.5,-93 279.5,-93 279.5,-74 349.5,-74 349.5,-93"/>
<text text-anchor="middle" x="314.5" y="-81" font-family="Helvetica,sans-Serif" font-size="10.00">IsBigDonut</text>
</a>
</g>
</g>
<!-- Node2&#45;&gt;Node9 -->
<g id="edge8_Node000002_Node000009" class="edge">
<title>Node2&#45;&gt;Node9</title>
<g id="a_edge8_Node000002_Node000009"><a xlink:title=" ">
<path fill="none" stroke="#63b8ff" d="M210.67,-110.97C228.6,-106.18 250.5,-100.33 269.48,-95.26"/>
<polygon fill="#63b8ff" stroke="#63b8ff" points="270.63,-98.58 279.39,-92.61 268.82,-91.81 270.63,-98.58"/>
</a>
</g>
</g>
<!-- Node10 -->
<g id="Node000010" class="node">
<title>Node10</title>
<g id="a_Node000010"><a xlink:href="Game_8cpp.html#a8ebd6a4d970e4333ab5a9dd66c3d9c48" target="_top" xlink:title=" ">
<polygon fill="white" stroke="#666666" points="363,-56 266,-56 266,-37 363,-37 363,-56"/>
<text text-anchor="middle" x="314.5" y="-44" font-family="Helvetica,sans-Serif" font-size="10.00">IsBowsersCastle</text>
</a>
</g>
</g>
<!-- Node2&#45;&gt;Node10 -->
<g id="edge9_Node000002_Node000010" class="edge">
<title>Node2&#45;&gt;Node10</title>
<g id="a_edge9_Node000002_Node000010"><a xlink:title=" ">
<path fill="none" stroke="#63b8ff" d="M203.99,-110.99C209.52,-108.61 215.11,-105.78 220,-102.5 239.07,-89.74 236.55,-77.67 256,-65.5 259.31,-63.43 262.88,-61.55 266.55,-59.87"/>
<polygon fill="#63b8ff" stroke="#63b8ff" points="267.9,-63.1 275.82,-56.05 265.24,-56.62 267.9,-63.1"/>
</a>
</g>
</g>
<!-- Node11 -->
<g id="Node000011" class="node">
<title>Node11</title>
<g id="a_Node000011"><a xlink:href="Game_8cpp.html#aa2636859b1f988d43f21be6ccffc86ca" target="_top" xlink:title=" ">
<polygon fill="white" stroke="#666666" points="373,-19 256,-19 256,0 373,0 373,-19"/>
<text text-anchor="middle" x="314.5" y="-7" font-family="Helvetica,sans-Serif" font-size="10.00">IsKoopaTroopaBeach</text>
</a>
</g>
</g>
<!-- Node2&#45;&gt;Node11 -->
<g id="edge10_Node000002_Node000011" class="edge">
<title>Node2&#45;&gt;Node11</title>
<g id="a_edge10_Node000002_Node000011"><a xlink:title=" ">
<path fill="none" stroke="#63b8ff" d="M207.7,-110.82C212.16,-108.57 216.43,-105.82 220,-102.5 246.78,-77.59 228.47,-52.58 256,-28.5 257.94,-26.8 260.03,-25.26 262.24,-23.85"/>
<polygon fill="#63b8ff" stroke="#63b8ff" points="264,-26.88 271.17,-19.07 260.7,-20.71 264,-26.88"/>
</a>
</g>
</g>
<!-- Node7 -->
<g id="Node000007" class="node">
<title>Node7</title>
<g id="a_Node000007"><a xlink:href="math__util_8c.html#ae69cbf5c8d4b3b0dba2d7b4d4673689f" target="_top" xlink:title=" ">
<polygon fill="white" stroke="#666666" points="447,-148 409,-148 409,-129 447,-129 447,-148"/>
<text text-anchor="middle" x="428" y="-136" font-family="Helvetica,sans-Serif" font-size="10.00">coss</text>
</a>
</g>
</g>
<!-- Node6&#45;&gt;Node7 -->
<g id="edge6_Node000006_Node000007" class="edge">
<title>Node6&#45;&gt;Node7</title>
<g id="a_edge6_Node000006_Node000007"><a xlink:title=" ">
<path fill="none" stroke="#63b8ff" d="M360.53,-127.77C373.49,-129.86 387.25,-132.08 398.87,-133.96"/>
<polygon fill="#63b8ff" stroke="#63b8ff" points="398.42,-137.43 408.85,-135.57 399.53,-130.52 398.42,-137.43"/>
</a>
</g>
</g>
<!-- Node8 -->
<g id="Node000008" class="node">
<title>Node8</title>
<g id="a_Node000008"><a xlink:href="math__util_8c.html#a19ed3bd78fd2d3e2bd0a29f6caf48545" target="_top" xlink:title=" ">
<polygon fill="white" stroke="#666666" points="446,-111 410,-111 410,-92 446,-92 446,-111"/>
<text text-anchor="middle" x="428" y="-99" font-family="Helvetica,sans-Serif" font-size="10.00">sins</text>
</a>
</g>
</g>
<!-- Node6&#45;&gt;Node8 -->
<g id="edge7_Node000006_Node000008" class="edge">
<title>Node6&#45;&gt;Node8</title>
<g id="a_edge7_Node000006_Node000008"><a xlink:title=" ">
<path fill="none" stroke="#63b8ff" d="M360.53,-112.83C373.86,-110.56 388.03,-108.14 399.86,-106.13"/>
<polygon fill="#63b8ff" stroke="#63b8ff" points="400.69,-109.53 409.96,-104.4 399.51,-102.63 400.69,-109.53"/>
</a>
</g>
</g>
</g>
</svg>
