<?xml version="1.0" encoding="UTF-8" standalone="no"?>
<!DOCTYPE svg PUBLIC "-//W3C//DTD SVG 1.1//EN"
 "http://www.w3.org/Graphics/SVG/1.1/DTD/svg11.dtd">
<!-- Generated by graphviz version 2.43.0 (0)
 -->
<!-- Title: src/engine/editor/Collision.h Pages: 1 -->
<svg width="1000pt" height="247pt"
 viewBox="0.00 0.00 999.50 247.00" xmlns="http://www.w3.org/2000/svg" xmlns:xlink="http://www.w3.org/1999/xlink">
<g id="graph0" class="graph" transform="scale(1 1) rotate(0) translate(4 243)">
<title>src/engine/editor/Collision.h</title>
<!-- Node1 -->
<g id="Node000001" class="node">
<title>Node1</title>
<g id="a_Node000001"><a xlink:title=" ">
<polygon fill="#999999" stroke="#666666" points="412,-239 260,-239 260,-220 412,-220 412,-239"/>
<text text-anchor="middle" x="336" y="-227" font-family="Helvetica,sans-Serif" font-size="10.00">src/engine/editor/Collision.h</text>
</a>
</g>
</g>
<!-- Node2 -->
<g id="Node000002" class="node">
<title>Node2</title>
<g id="a_Node000002"><a xlink:title=" ">
<polygon fill="#e0e0e0" stroke="#999999" points="138,-74 0,-74 0,-55 138,-55 138,-74"/>
<text text-anchor="middle" x="69" y="-62" font-family="Helvetica,sans-Serif" font-size="10.00">libultraship/libultraship.h</text>
</a>
</g>
</g>
<!-- Node1&#45;&gt;Node2 -->
<g id="edge1_Node000001_Node000002" class="edge">
<title>Node1&#45;&gt;Node2</title>
<g id="a_edge1_Node000001_Node000002"><a xlink:title=" ">
<path fill="none" stroke="#63b8ff" d="M322.02,-219.97C278.6,-193.46 145.74,-112.35 91.96,-79.52"/>
<polygon fill="#63b8ff" stroke="#63b8ff" points="93.52,-76.37 83.16,-74.15 89.87,-82.34 93.52,-76.37"/>
</a>
</g>
</g>
<!-- Node3 -->
<g id="Node000003" class="node">
<title>Node3</title>
<g id="a_Node000003"><a xlink:title=" ">
<polygon fill="#e0e0e0" stroke="#999999" points="234,-74 156,-74 156,-55 234,-55 234,-74"/>
<text text-anchor="middle" x="195" y="-62" font-family="Helvetica,sans-Serif" font-size="10.00">libultra/gbi.h</text>
</a>
</g>
</g>
<!-- Node1&#45;&gt;Node3 -->
<g id="edge2_Node000001_Node000003" class="edge">
<title>Node1&#45;&gt;Node3</title>
<g id="a_edge2_Node000001_Node000003"><a xlink:title=" ">
<path fill="none" stroke="#63b8ff" d="M328.42,-219.74C305.85,-193.65 238.83,-116.17 209.28,-82"/>
<polygon fill="#63b8ff" stroke="#63b8ff" points="211.81,-79.58 202.62,-74.31 206.51,-84.16 211.81,-79.58"/>
</a>
</g>
</g>
<!-- Node4 -->
<g id="Node000004" class="node">
<title>Node4</title>
<g id="a_Node000004"><a xlink:href="GameObject_8h.html" target="_top" xlink:title=" ">
<polygon fill="white" stroke="#666666" points="565,-184 479,-184 479,-165 565,-165 565,-184"/>
<text text-anchor="middle" x="522" y="-172" font-family="Helvetica,sans-Serif" font-size="10.00">GameObject.h</text>
</a>
</g>
</g>
<!-- Node1&#45;&gt;Node4 -->
<g id="edge3_Node000001_Node000004" class="edge">
<title>Node1&#45;&gt;Node4</title>
<g id="a_edge3_Node000001_Node000004"><a xlink:title=" ">
<path fill="none" stroke="#63b8ff" d="M365.88,-219.98C397.38,-211.01 447.17,-196.82 482.03,-186.89"/>
<polygon fill="#63b8ff" stroke="#63b8ff" points="483.22,-190.19 491.88,-184.08 481.31,-183.46 483.22,-190.19"/>
</a>
</g>
</g>
<!-- Node8 -->
<g id="Node000008" class="node">
<title>Node8</title>
<g id="a_Node000008"><a xlink:href="EditorMath_8h.html" target="_top" xlink:title=" ">
<polygon fill="white" stroke="#666666" points="561.5,-129 482.5,-129 482.5,-110 561.5,-110 561.5,-129"/>
<text text-anchor="middle" x="522" y="-117" font-family="Helvetica,sans-Serif" font-size="10.00">EditorMath.h</text>
</a>
</g>
</g>
<!-- Node1&#45;&gt;Node8 -->
<g id="edge22_Node000001_Node000008" class="edge">
<title>Node1&#45;&gt;Node8</title>
<g id="a_edge22_Node000001_Node000008"><a xlink:title=" ">
<path fill="none" stroke="#63b8ff" d="M350.91,-219.84C383.09,-201.16 459.32,-156.9 498.24,-134.3"/>
<polygon fill="#63b8ff" stroke="#63b8ff" points="500.39,-137.1 507.28,-129.05 496.88,-131.04 500.39,-137.1"/>
</a>
</g>
</g>
<!-- Node4&#45;&gt;Node2 -->
<g id="edge4_Node000004_Node000002" class="edge">
<title>Node4&#45;&gt;Node2</title>
<g id="a_edge4_Node000004_Node000002"><a xlink:title=" ">
<path fill="none" stroke="#63b8ff" d="M486.15,-164.98C448.5,-156.03 387.59,-141.53 335,-129 257.55,-110.54 167.43,-89.02 114.47,-76.37"/>
<polygon fill="#63b8ff" stroke="#63b8ff" points="115.25,-72.95 104.71,-74.03 113.62,-79.76 115.25,-72.95"/>
</a>
</g>
</g>
<!-- Node4&#45;&gt;Node3 -->
<g id="edge5_Node000004_Node000003" class="edge">
<title>Node4&#45;&gt;Node3</title>
<g id="a_edge5_Node000004_Node000003"><a xlink:title=" ">
<path fill="none" stroke="#63b8ff" d="M496.07,-164.94C437.88,-145.72 296.82,-99.13 230.53,-77.24"/>
<polygon fill="#63b8ff" stroke="#63b8ff" points="231.53,-73.88 220.94,-74.07 229.33,-80.53 231.53,-73.88"/>
</a>
</g>
</g>
<!-- Node5 -->
<g id="Node000005" class="node">
<title>Node5</title>
<g id="a_Node000005"><a xlink:title=" ">
<polygon fill="#e0e0e0" stroke="#999999" points="766,-74 676,-74 676,-55 766,-55 766,-74"/>
<text text-anchor="middle" x="721" y="-62" font-family="Helvetica,sans-Serif" font-size="10.00">libultra/types.h</text>
</a>
</g>
</g>
<!-- Node4&#45;&gt;Node5 -->
<g id="edge6_Node000004_Node000005" class="edge">
<title>Node4&#45;&gt;Node5</title>
<g id="a_edge6_Node000004_Node000005"><a xlink:title=" ">
<path fill="none" stroke="#63b8ff" d="M537.95,-164.84C572.6,-146.04 654.98,-101.33 696.37,-78.87"/>
<polygon fill="#63b8ff" stroke="#63b8ff" points="698.13,-81.89 705.25,-74.05 694.79,-75.74 698.13,-81.89"/>
</a>
</g>
</g>
<!-- Node6 -->
<g id="Node000006" class="node">
<title>Node6</title>
<g id="a_Node000006"><a xlink:href="CoreMath_8h.html" target="_top" xlink:title=" ">
<polygon fill="white" stroke="#666666" points="866,-74 784,-74 784,-55 866,-55 866,-74"/>
<text text-anchor="middle" x="825" y="-62" font-family="Helvetica,sans-Serif" font-size="10.00">../CoreMath.h</text>
</a>
</g>
</g>
<!-- Node4&#45;&gt;Node6 -->
<g id="edge7_Node000004_Node000006" class="edge">
<title>Node4&#45;&gt;Node6</title>
<g id="a_edge7_Node000004_Node000006"><a xlink:title=" ">
<path fill="none" stroke="#63b8ff" d="M546.03,-164.94C599.73,-145.79 729.58,-99.51 791.32,-77.51"/>
<polygon fill="#63b8ff" stroke="#63b8ff" points="792.72,-80.72 800.97,-74.07 790.37,-74.13 792.72,-80.72"/>
</a>
</g>
</g>
<!-- Node4&#45;&gt;Node8 -->
<g id="edge9_Node000004_Node000008" class="edge">
<title>Node4&#45;&gt;Node8</title>
<g id="a_edge9_Node000004_Node000008"><a xlink:title=" ">
<path fill="none" stroke="#63b8ff" d="M516.83,-164.75C515.34,-157.8 514.9,-147.85 515.52,-139.13"/>
<polygon fill="#63b8ff" stroke="#63b8ff" points="519.01,-139.47 516.87,-129.09 512.07,-138.53 519.01,-139.47"/>
</a>
</g>
</g>
<!-- Node9 -->
<g id="Node000009" class="node">
<title>Node9</title>
<g id="a_Node000009"><a xlink:title=" ">
<polygon fill="#e0e0e0" stroke="#999999" points="657.5,-74 610.5,-74 610.5,-55 657.5,-55 657.5,-74"/>
<text text-anchor="middle" x="634" y="-62" font-family="Helvetica,sans-Serif" font-size="10.00">vector</text>
</a>
</g>
</g>
<!-- Node4&#45;&gt;Node9 -->
<g id="edge20_Node000004_Node000009" class="edge">
<title>Node4&#45;&gt;Node9</title>
<g id="a_edge20_Node000004_Node000009"><a xlink:title=" ">
<path fill="none" stroke="#63b8ff" d="M531.65,-164.73C541.41,-155.82 556.88,-141.59 570,-129 586.65,-113.03 605.35,-94.4 618.21,-81.46"/>
<polygon fill="#63b8ff" stroke="#63b8ff" points="620.84,-83.79 625.4,-74.22 615.87,-78.85 620.84,-83.79"/>
</a>
</g>
</g>
<!-- Node12 -->
<g id="Node000012" class="node">
<title>Node12</title>
<g id="a_Node000012"><a xlink:href="common__structs_8h.html" target="_top" xlink:title=" ">
<polygon fill="white" stroke="#666666" points="991.5,-74 884.5,-74 884.5,-55 991.5,-55 991.5,-74"/>
<text text-anchor="middle" x="938" y="-62" font-family="Helvetica,sans-Serif" font-size="10.00">common_structs.h</text>
</a>
</g>
</g>
<!-- Node4&#45;&gt;Node12 -->
<g id="edge21_Node000004_Node000012" class="edge">
<title>Node4&#45;&gt;Node12</title>
<g id="a_edge21_Node000004_Node000012"><a xlink:title=" ">
<path fill="none" stroke="#63b8ff" d="M554.99,-164.94C629.7,-145.54 811.8,-98.26 895.11,-76.63"/>
<polygon fill="#63b8ff" stroke="#63b8ff" points="896.21,-79.97 905.01,-74.07 894.45,-73.19 896.21,-79.97"/>
</a>
</g>
</g>
<!-- Node7 -->
<g id="Node000007" class="node">
<title>Node7</title>
<g id="a_Node000007"><a xlink:title=" ">
<polygon fill="#e0e0e0" stroke="#999999" points="921,-19 841,-19 841,0 921,0 921,-19"/>
<text text-anchor="middle" x="881" y="-7" font-family="Helvetica,sans-Serif" font-size="10.00">libultraship.h</text>
</a>
</g>
</g>
<!-- Node6&#45;&gt;Node7 -->
<g id="edge8_Node000006_Node000007" class="edge">
<title>Node6&#45;&gt;Node7</title>
<g id="a_edge8_Node000006_Node000007"><a xlink:title=" ">
<path fill="none" stroke="#63b8ff" d="M834,-54.98C842.19,-47.23 854.51,-35.58 864.47,-26.14"/>
<polygon fill="#63b8ff" stroke="#63b8ff" points="866.98,-28.59 871.84,-19.17 862.17,-23.5 866.98,-28.59"/>
</a>
</g>
</g>
<!-- Node8&#45;&gt;Node2 -->
<g id="edge10_Node000008_Node000002" class="edge">
<title>Node8&#45;&gt;Node2</title>
<g id="a_edge10_Node000008_Node000002"><a xlink:title=" ">
<path fill="none" stroke="#63b8ff" d="M482.2,-113.84C407.65,-105.12 245.73,-86.18 148.19,-74.77"/>
<polygon fill="#63b8ff" stroke="#63b8ff" points="148.42,-71.27 138.08,-73.58 147.61,-78.22 148.42,-71.27"/>
</a>
</g>
</g>
<!-- Node8&#45;&gt;Node3 -->
<g id="edge11_Node000008_Node000003" class="edge">
<title>Node8&#45;&gt;Node3</title>
<g id="a_edge11_Node000008_Node000003"><a xlink:title=" ">
<path fill="none" stroke="#63b8ff" d="M482.23,-112.38C429.98,-104.28 335.1,-89.42 243.97,-74.14"/>
<polygon fill="#63b8ff" stroke="#63b8ff" points="244.46,-70.67 234.02,-72.47 243.3,-77.58 244.46,-70.67"/>
</a>
</g>
</g>
<!-- Node8&#45;&gt;Node4 -->
<g id="edge15_Node000008_Node000004" class="edge">
<title>Node8&#45;&gt;Node4</title>
<g id="a_edge15_Node000008_Node000004"><a xlink:title=" ">
<path fill="none" stroke="#63b8ff" d="M527.13,-129.09C528.64,-135.99 529.09,-145.93 528.49,-154.66"/>
<polygon fill="#63b8ff" stroke="#63b8ff" points="525,-154.38 527.17,-164.75 531.94,-155.29 525,-154.38"/>
</a>
</g>
</g>
<!-- Node8&#45;&gt;Node5 -->
<g id="edge12_Node000008_Node000005" class="edge">
<title>Node8&#45;&gt;Node5</title>
<g id="a_edge12_Node000008_Node000005"><a xlink:title=" ">
<path fill="none" stroke="#63b8ff" d="M553.97,-109.98C587.82,-100.97 641.4,-86.7 678.71,-76.76"/>
<polygon fill="#63b8ff" stroke="#63b8ff" points="680.01,-80.04 688.78,-74.08 678.21,-73.27 680.01,-80.04"/>
</a>
</g>
</g>
<!-- Node8&#45;&gt;Node6 -->
<g id="edge13_Node000008_Node000006" class="edge">
<title>Node8&#45;&gt;Node6</title>
<g id="a_edge13_Node000008_Node000006"><a xlink:title=" ">
<path fill="none" stroke="#63b8ff" d="M561.61,-111.57C616.05,-102.05 714.04,-84.91 773.93,-74.43"/>
<polygon fill="#63b8ff" stroke="#63b8ff" points="774.68,-77.86 783.92,-72.68 773.47,-70.96 774.68,-77.86"/>
</a>
</g>
</g>
<!-- Node8&#45;&gt;Node9 -->
<g id="edge14_Node000008_Node000009" class="edge">
<title>Node8&#45;&gt;Node9</title>
<g id="a_edge14_Node000008_Node000009"><a xlink:title=" ">
<path fill="none" stroke="#63b8ff" d="M539.99,-109.98C557.93,-101.5 585.72,-88.35 606.43,-78.54"/>
<polygon fill="#63b8ff" stroke="#63b8ff" points="608.14,-81.61 615.68,-74.17 605.14,-75.28 608.14,-81.61"/>
</a>
</g>
</g>
<!-- Node10 -->
<g id="Node000010" class="node">
<title>Node10</title>
<g id="a_Node000010"><a xlink:title=" ">
<polygon fill="#e0e0e0" stroke="#999999" points="592,-74 422,-74 422,-55 592,-55 592,-74"/>
<text text-anchor="middle" x="507" y="-62" font-family="Helvetica,sans-Serif" font-size="10.00">graphic/Fast3D/Fast3dWindow.h</text>
</a>
</g>
</g>
<!-- Node8&#45;&gt;Node10 -->
<g id="edge16_Node000008_Node000010" class="edge">
<title>Node8&#45;&gt;Node10</title>
<g id="a_edge16_Node000008_Node000010"><a xlink:title=" ">
<path fill="none" stroke="#63b8ff" d="M519.52,-109.75C517.54,-102.72 514.68,-92.62 512.19,-83.84"/>
<polygon fill="#63b8ff" stroke="#63b8ff" points="515.52,-82.76 509.43,-74.09 508.79,-84.66 515.52,-82.76"/>
</a>
</g>
</g>
<!-- Node11 -->
<g id="Node000011" class="node">
<title>Node11</title>
<g id="a_Node000011"><a xlink:title=" ">
<polygon fill="#e0e0e0" stroke="#999999" points="404,-74 252,-74 252,-55 404,-55 404,-74"/>
<text text-anchor="middle" x="328" y="-62" font-family="Helvetica,sans-Serif" font-size="10.00">graphic/Fast3D/interpreter.h</text>
</a>
</g>
</g>
<!-- Node8&#45;&gt;Node11 -->
<g id="edge17_Node000008_Node000011" class="edge">
<title>Node8&#45;&gt;Node11</title>
<g id="a_edge17_Node000008_Node000011"><a xlink:title=" ">
<path fill="none" stroke="#63b8ff" d="M490.83,-109.98C457.84,-100.97 405.6,-86.7 369.23,-76.76"/>
<polygon fill="#63b8ff" stroke="#63b8ff" points="369.98,-73.34 359.41,-74.08 368.14,-80.09 369.98,-73.34"/>
</a>
</g>
</g>
<!-- Node8&#45;&gt;Node12 -->
<g id="edge18_Node000008_Node000012" class="edge">
<title>Node8&#45;&gt;Node12</title>
<g id="a_edge18_Node000008_Node000012"><a xlink:title=" ">
<path fill="none" stroke="#63b8ff" d="M561.72,-113.61C625.29,-105.75 754.09,-89.73 874.27,-74.08"/>
<polygon fill="#63b8ff" stroke="#63b8ff" points="874.92,-77.53 884.39,-72.77 874.02,-70.59 874.92,-77.53"/>
</a>
</g>
</g>
<!-- Node12&#45;&gt;Node7 -->
<g id="edge19_Node000012_Node000007" class="edge">
<title>Node12&#45;&gt;Node7</title>
<g id="a_edge19_Node000012_Node000007"><a xlink:title=" ">
<path fill="none" stroke="#63b8ff" d="M928.84,-54.98C920.5,-47.23 907.97,-35.58 897.82,-26.14"/>
<polygon fill="#63b8ff" stroke="#63b8ff" points="900.03,-23.42 890.32,-19.17 895.26,-28.54 900.03,-23.42"/>
</a>
</g>
</g>
</g>
</svg>
