<?xml version="1.0" encoding="UTF-8" standalone="no"?>
<!DOCTYPE svg PUBLIC "-//W3C//DTD SVG 1.1//EN"
 "http://www.w3.org/Graphics/SVG/1.1/DTD/svg11.dtd">
<!-- Generated by graphviz version 2.43.0 (0)
 -->
<!-- Title: src/port/resource/importers/CPUFactory.cpp Pages: 1 -->
<svg width="588pt" height="159pt"
 viewBox="0.00 0.00 588.00 159.00" xmlns="http://www.w3.org/2000/svg" xmlns:xlink="http://www.w3.org/1999/xlink">
<g id="graph0" class="graph" transform="scale(1 1) rotate(0) translate(4 155)">
<title>src/port/resource/importers/CPUFactory.cpp</title>
<!-- Node1 -->
<g id="Node000001" class="node">
<title>Node1</title>
<g id="a_Node000001"><a xlink:title=" ">
<polygon fill="#999999" stroke="#666666" points="428,-151 279,-151 279,-121 428,-121 428,-151"/>
<text text-anchor="start" x="287" y="-139" font-family="Helvetica,sans-Serif" font-size="10.00">src/port/resource/importers</text>
<text text-anchor="middle" x="353.5" y="-128" font-family="Helvetica,sans-Serif" font-size="10.00">/CPUFactory.cpp</text>
</a>
</g>
</g>
<!-- Node2 -->
<g id="Node000002" class="node">
<title>Node2</title>
<g id="a_Node000002"><a xlink:href="CPUFactory_8h.html" target="_top" xlink:title=" ">
<polygon fill="white" stroke="#666666" points="197.5,-79.5 117.5,-79.5 117.5,-60.5 197.5,-60.5 197.5,-79.5"/>
<text text-anchor="middle" x="157.5" y="-67.5" font-family="Helvetica,sans-Serif" font-size="10.00">CPUFactory.h</text>
</a>
</g>
</g>
<!-- Node1&#45;&gt;Node2 -->
<g id="edge1_Node000001_Node000002" class="edge">
<title>Node1&#45;&gt;Node2</title>
<g id="a_edge1_Node000001_Node000002"><a xlink:title=" ">
<path fill="none" stroke="#63b8ff" d="M310.49,-120.95C275.36,-109.48 226.29,-93.46 193.28,-82.68"/>
<polygon fill="#63b8ff" stroke="#63b8ff" points="194.18,-79.29 183.58,-79.52 192,-85.95 194.18,-79.29"/>
</a>
</g>
</g>
<!-- Node5 -->
<g id="Node000005" class="node">
<title>Node5</title>
<g id="a_Node000005"><a xlink:href="CPU_8h.html" target="_top" xlink:title=" ">
<polygon fill="white" stroke="#666666" points="341.5,-79.5 261.5,-79.5 261.5,-60.5 341.5,-60.5 341.5,-79.5"/>
<text text-anchor="middle" x="301.5" y="-67.5" font-family="Helvetica,sans-Serif" font-size="10.00">../type/CPU.h</text>
</a>
</g>
</g>
<!-- Node1&#45;&gt;Node5 -->
<g id="edge4_Node000001_Node000005" class="edge">
<title>Node1&#45;&gt;Node5</title>
<g id="a_edge4_Node000001_Node000005"><a xlink:title=" ">
<path fill="none" stroke="#63b8ff" d="M341.96,-120.8C334.01,-111.01 323.42,-97.98 315.07,-87.7"/>
<polygon fill="#63b8ff" stroke="#63b8ff" points="317.71,-85.4 308.69,-79.84 312.28,-89.81 317.71,-85.4"/>
</a>
</g>
</g>
<!-- Node8 -->
<g id="Node000008" class="node">
<title>Node8</title>
<g id="a_Node000008"><a xlink:title=" ">
<polygon fill="#e0e0e0" stroke="#999999" points="453,-79.5 360,-79.5 360,-60.5 453,-60.5 453,-79.5"/>
<text text-anchor="middle" x="406.5" y="-67.5" font-family="Helvetica,sans-Serif" font-size="10.00">spdlog/spdlog.h</text>
</a>
</g>
</g>
<!-- Node1&#45;&gt;Node8 -->
<g id="edge7_Node000001_Node000008" class="edge">
<title>Node1&#45;&gt;Node8</title>
<g id="a_edge7_Node000001_Node000008"><a xlink:title=" ">
<path fill="none" stroke="#63b8ff" d="M365.26,-120.8C373.36,-111.01 384.16,-97.98 392.67,-87.7"/>
<polygon fill="#63b8ff" stroke="#63b8ff" points="395.49,-89.78 399.18,-79.84 390.1,-85.31 395.49,-89.78"/>
</a>
</g>
</g>
<!-- Node9 -->
<g id="Node000009" class="node">
<title>Node9</title>
<g id="a_Node000009"><a xlink:title=" ">
<polygon fill="#e0e0e0" stroke="#999999" points="580,-85 471,-85 471,-55 580,-55 580,-85"/>
<text text-anchor="start" x="479" y="-73" font-family="Helvetica,sans-Serif" font-size="10.00">libultraship/libultra</text>
<text text-anchor="middle" x="525.5" y="-62" font-family="Helvetica,sans-Serif" font-size="10.00">/gbi.h</text>
</a>
</g>
</g>
<!-- Node1&#45;&gt;Node9 -->
<g id="edge8_Node000001_Node000009" class="edge">
<title>Node1&#45;&gt;Node9</title>
<g id="a_edge8_Node000001_Node000009"><a xlink:title=" ">
<path fill="none" stroke="#63b8ff" d="M391.25,-120.95C416.9,-111.41 451.02,-98.71 478.45,-88.51"/>
<polygon fill="#63b8ff" stroke="#63b8ff" points="479.69,-91.78 487.84,-85.01 477.25,-85.22 479.69,-91.78"/>
</a>
</g>
</g>
<!-- Node3 -->
<g id="Node000003" class="node">
<title>Node3</title>
<g id="a_Node000003"><a xlink:title=" ">
<polygon fill="#e0e0e0" stroke="#999999" points="71,-19 0,-19 0,0 71,0 71,-19"/>
<text text-anchor="middle" x="35.5" y="-7" font-family="Helvetica,sans-Serif" font-size="10.00">Resource.h</text>
</a>
</g>
</g>
<!-- Node2&#45;&gt;Node3 -->
<g id="edge2_Node000002_Node000003" class="edge">
<title>Node2&#45;&gt;Node3</title>
<g id="a_edge2_Node000002_Node000003"><a xlink:title=" ">
<path fill="none" stroke="#63b8ff" d="M139.76,-60.49C119.43,-50.75 85.89,-34.66 62.36,-23.38"/>
<polygon fill="#63b8ff" stroke="#63b8ff" points="63.79,-20.18 53.26,-19.02 60.76,-26.5 63.79,-20.18"/>
</a>
</g>
</g>
<!-- Node4 -->
<g id="Node000004" class="node">
<title>Node4</title>
<g id="a_Node000004"><a xlink:title=" ">
<polygon fill="#e0e0e0" stroke="#999999" points="225.5,-19 89.5,-19 89.5,0 225.5,0 225.5,-19"/>
<text text-anchor="middle" x="157.5" y="-7" font-family="Helvetica,sans-Serif" font-size="10.00">ResourceFactoryBinary.h</text>
</a>
</g>
</g>
<!-- Node2&#45;&gt;Node4 -->
<g id="edge3_Node000002_Node000004" class="edge">
<title>Node2&#45;&gt;Node4</title>
<g id="a_edge3_Node000002_Node000004"><a xlink:title=" ">
<path fill="none" stroke="#63b8ff" d="M157.5,-60.37C157.5,-52.25 157.5,-39.81 157.5,-29.39"/>
<polygon fill="#63b8ff" stroke="#63b8ff" points="161,-29.17 157.5,-19.17 154,-29.17 161,-29.17"/>
</a>
</g>
</g>
<!-- Node6 -->
<g id="Node000006" class="node">
<title>Node6</title>
<g id="a_Node000006"><a xlink:title=" ">
<polygon fill="#e0e0e0" stroke="#999999" points="359.5,-19 243.5,-19 243.5,0 359.5,0 359.5,-19"/>
<text text-anchor="middle" x="301.5" y="-7" font-family="Helvetica,sans-Serif" font-size="10.00">resource/Resource.h</text>
</a>
</g>
</g>
<!-- Node5&#45;&gt;Node6 -->
<g id="edge5_Node000005_Node000006" class="edge">
<title>Node5&#45;&gt;Node6</title>
<g id="a_edge5_Node000005_Node000006"><a xlink:title=" ">
<path fill="none" stroke="#63b8ff" d="M301.5,-60.37C301.5,-52.25 301.5,-39.81 301.5,-29.39"/>
<polygon fill="#63b8ff" stroke="#63b8ff" points="305,-29.17 301.5,-19.17 298,-29.17 305,-29.17"/>
</a>
</g>
</g>
<!-- Node7 -->
<g id="Node000007" class="node">
<title>Node7</title>
<g id="a_Node000007"><a xlink:title=" ">
<polygon fill="#e0e0e0" stroke="#999999" points="425,-19 378,-19 378,0 425,0 425,-19"/>
<text text-anchor="middle" x="401.5" y="-7" font-family="Helvetica,sans-Serif" font-size="10.00">vector</text>
</a>
</g>
</g>
<!-- Node5&#45;&gt;Node7 -->
<g id="edge6_Node000005_Node000007" class="edge">
<title>Node5&#45;&gt;Node7</title>
<g id="a_edge6_Node000005_Node000007"><a xlink:title=" ">
<path fill="none" stroke="#63b8ff" d="M316.26,-60.37C332.5,-50.86 358.85,-35.45 377.96,-24.27"/>
<polygon fill="#63b8ff" stroke="#63b8ff" points="379.82,-27.24 386.68,-19.17 376.29,-21.2 379.82,-27.24"/>
</a>
</g>
</g>
</g>
</svg>
