<?xml version="1.0" encoding="UTF-8" standalone="no"?>
<!DOCTYPE svg PUBLIC "-//W3C//DTD SVG 1.1//EN"
 "http://www.w3.org/Graphics/SVG/1.1/DTD/svg11.dtd">
<!-- Generated by graphviz version 2.43.0 (0)
 -->
<!-- Title: include/assets/dks_jungle_parkway_data.h Pages: 1 -->
<svg width="1880pt" height="280pt"
 viewBox="0.00 0.00 1880.38 280.00" xmlns="http://www.w3.org/2000/svg" xmlns:xlink="http://www.w3.org/1999/xlink">
<g id="graph0" class="graph" transform="scale(1 1) rotate(0) translate(4 276)">
<title>include/assets/dks_jungle_parkway_data.h</title>
<!-- Node1 -->
<g id="Node000001" class="node">
<title>Node1</title>
<g id="a_Node000001"><a xlink:title=" ">
<polygon fill="#999999" stroke="#666666" points="882.88,-272 747.88,-272 747.88,-242 882.88,-242 882.88,-272"/>
<text text-anchor="start" x="755.88" y="-260" font-family="Helvetica,sans-Serif" font-size="10.00">include/assets/dks</text>
<text text-anchor="middle" x="815.38" y="-249" font-family="Helvetica,sans-Serif" font-size="10.00">_jungle_parkway_data.h</text>
</a>
</g>
</g>
<!-- Node2 -->
<g id="Node000002" class="node">
<title>Node2</title>
<g id="a_Node000002"><a xlink:href="all__course__data_8h.html" target="_top" xlink:title=" ">
<polygon fill="white" stroke="#666666" points="827.88,-206 720.88,-206 720.88,-176 827.88,-176 827.88,-206"/>
<text text-anchor="start" x="728.88" y="-194" font-family="Helvetica,sans-Serif" font-size="10.00">courses/all_course</text>
<text text-anchor="middle" x="774.38" y="-183" font-family="Helvetica,sans-Serif" font-size="10.00">_data.h</text>
</a>
</g>
</g>
<!-- Node1&#45;&gt;Node2 -->
<g id="edge1_Node000001_Node000002" class="edge">
<title>Node1&#45;&gt;Node2</title>
<g id="a_edge1_Node000001_Node000002"><a xlink:title=" ">
<path fill="none" stroke="#63b8ff" d="M800.8,-233.24C795.02,-224.21 788.55,-214.11 783.46,-206.16"/>
<polygon fill="#63b8ff" stroke="#63b8ff" points="797.94,-235.26 806.28,-241.8 803.84,-231.49 797.94,-235.26"/>
</a>
</g>
</g>
<!-- Node3 -->
<g id="Node000003" class="node">
<title>Node3</title>
<g id="a_Node000003"><a xlink:href="paddle__boat_2render_8inc_8c.html" target="_top" xlink:title=" ">
<polygon fill="white" stroke="#666666" points="280.88,-140 153.88,-140 153.88,-110 280.88,-110 280.88,-140"/>
<text text-anchor="start" x="161.88" y="-128" font-family="Helvetica,sans-Serif" font-size="10.00">src/actors/paddle_boat</text>
<text text-anchor="middle" x="217.38" y="-117" font-family="Helvetica,sans-Serif" font-size="10.00">/render.inc.c</text>
</a>
</g>
</g>
<!-- Node1&#45;&gt;Node3 -->
<g id="edge19_Node000001_Node000003" class="edge">
<title>Node1&#45;&gt;Node3</title>
<g id="a_edge19_Node000001_Node000003"><a xlink:title=" ">
<path fill="none" stroke="#63b8ff" d="M740.74,-239.77C622.13,-213.99 392.67,-164.11 281.23,-139.88"/>
<polygon fill="#63b8ff" stroke="#63b8ff" points="740.3,-243.26 750.82,-241.96 741.79,-236.42 740.3,-243.26"/>
</a>
</g>
</g>
<!-- Node4 -->
<g id="Node000004" class="node">
<title>Node4</title>
<g id="a_Node000004"><a xlink:href="actors_8c.html" target="_top" xlink:title=" ">
<polygon fill="white" stroke="#666666" points="315.88,-74 210.88,-74 210.88,-55 315.88,-55 315.88,-74"/>
<text text-anchor="middle" x="263.38" y="-62" font-family="Helvetica,sans-Serif" font-size="10.00">src/racing/actors.c</text>
</a>
</g>
</g>
<!-- Node1&#45;&gt;Node4 -->
<g id="edge26_Node000001_Node000004" class="edge">
<title>Node1&#45;&gt;Node4</title>
<g id="a_edge26_Node000001_Node000004"><a xlink:title=" ">
<path fill="none" stroke="#63b8ff" d="M737.51,-250.79C543.7,-236.99 51.98,-196.68 6.38,-140 -1.98,-129.61 -2.2,-120.2 6.38,-110 31.97,-79.6 143.26,-69.97 210.72,-66.92"/>
<polygon fill="#63b8ff" stroke="#63b8ff" points="737.4,-254.29 747.62,-251.5 737.89,-247.3 737.4,-254.29"/>
</a>
</g>
</g>
<!-- Node7 -->
<g id="Node000007" class="node">
<title>Node7</title>
<g id="a_Node000007"><a xlink:href="code__80005FD0_8c.html" target="_top" xlink:title=" ">
<polygon fill="white" stroke="#666666" points="135.38,-134.5 15.38,-134.5 15.38,-115.5 135.38,-115.5 135.38,-134.5"/>
<text text-anchor="middle" x="75.38" y="-122.5" font-family="Helvetica,sans-Serif" font-size="10.00">src/code_80005FD0.c</text>
</a>
</g>
</g>
<!-- Node1&#45;&gt;Node7 -->
<g id="edge20_Node000001_Node000007" class="edge">
<title>Node1&#45;&gt;Node7</title>
<g id="a_edge20_Node000001_Node000007"><a xlink:title=" ">
<path fill="none" stroke="#63b8ff" d="M737.65,-246.58C665.38,-237.47 554.81,-222.62 459.38,-206 331.24,-183.68 180.56,-150.13 112.3,-134.54"/>
<polygon fill="#63b8ff" stroke="#63b8ff" points="737.23,-250.06 747.59,-247.83 738.1,-243.11 737.23,-250.06"/>
</a>
</g>
</g>
<!-- Node9 -->
<g id="Node000009" class="node">
<title>Node9</title>
<g id="a_Node000009"><a xlink:href="path__spawn__metadata_8c.html" target="_top" xlink:title=" ">
<polygon fill="white" stroke="#666666" points="1622.88,-140 1505.88,-140 1505.88,-110 1622.88,-110 1622.88,-140"/>
<text text-anchor="start" x="1513.88" y="-128" font-family="Helvetica,sans-Serif" font-size="10.00">src/data/path_spawn</text>
<text text-anchor="middle" x="1564.38" y="-117" font-family="Helvetica,sans-Serif" font-size="10.00">_metadata.c</text>
</a>
</g>
</g>
<!-- Node1&#45;&gt;Node9 -->
<g id="edge21_Node000001_Node000009" class="edge">
<title>Node1&#45;&gt;Node9</title>
<g id="a_edge21_Node000001_Node000009"><a xlink:title=" ">
<path fill="none" stroke="#63b8ff" d="M825.78,-232.82C835.62,-213.91 852.33,-188.38 875.38,-176 997.18,-110.63 1359.33,-157.98 1496.38,-140 1499.49,-139.59 1502.67,-139.12 1505.87,-138.61"/>
<polygon fill="#63b8ff" stroke="#63b8ff" points="822.54,-231.48 821.26,-242 828.82,-234.57 822.54,-231.48"/>
</a>
</g>
</g>
<!-- Node17 -->
<g id="Node000017" class="node">
<title>Node17</title>
<g id="a_Node000017"><a xlink:href="dks__jungle__parkway_2course__offsets_8c.html" target="_top" xlink:title=" ">
<polygon fill="white" stroke="#666666" points="1030.38,-206 884.38,-206 884.38,-176 1030.38,-176 1030.38,-206"/>
<text text-anchor="start" x="892.38" y="-194" font-family="Helvetica,sans-Serif" font-size="10.00">courses/dks_jungle</text>
<text text-anchor="middle" x="957.38" y="-183" font-family="Helvetica,sans-Serif" font-size="10.00">_parkway/course_offsets.c</text>
</a>
</g>
</g>
<!-- Node1&#45;&gt;Node17 -->
<g id="edge18_Node000001_Node000017" class="edge">
<title>Node1&#45;&gt;Node17</title>
<g id="a_edge18_Node000001_Node000017"><a xlink:title=" ">
<path fill="none" stroke="#63b8ff" d="M855.8,-237.78C878.19,-227.69 905.59,-215.34 926.29,-206.01"/>
<polygon fill="#63b8ff" stroke="#63b8ff" points="854.22,-234.65 846.55,-241.95 857.1,-241.04 854.22,-234.65"/>
</a>
</g>
</g>
<!-- Node18 -->
<g id="Node000018" class="node">
<title>Node18</title>
<g id="a_Node000018"><a xlink:href="DKJungle_8cpp.html" target="_top" xlink:title=" ">
<polygon fill="white" stroke="#666666" points="1747.88,-140 1640.88,-140 1640.88,-110 1747.88,-110 1747.88,-140"/>
<text text-anchor="start" x="1648.88" y="-128" font-family="Helvetica,sans-Serif" font-size="10.00">src/engine/courses</text>
<text text-anchor="middle" x="1694.38" y="-117" font-family="Helvetica,sans-Serif" font-size="10.00">/DKJungle.cpp</text>
</a>
</g>
</g>
<!-- Node1&#45;&gt;Node18 -->
<g id="edge22_Node000001_Node000018" class="edge">
<title>Node1&#45;&gt;Node18</title>
<g id="a_edge22_Node000001_Node000018"><a xlink:title=" ">
<path fill="none" stroke="#63b8ff" d="M893.27,-246.97C1038.82,-229.63 1361.75,-189.05 1631.38,-140 1634.47,-139.44 1637.63,-138.83 1640.82,-138.2"/>
<polygon fill="#63b8ff" stroke="#63b8ff" points="892.62,-243.52 883.1,-248.17 893.45,-250.47 892.62,-243.52"/>
</a>
</g>
</g>
<!-- Node19 -->
<g id="Node000019" class="node">
<title>Node19</title>
<g id="a_Node000019"><a xlink:href="DKJungle_8h.html" target="_top" xlink:title=" ">
<polygon fill="white" stroke="#666666" points="1747.88,-206 1640.88,-206 1640.88,-176 1747.88,-176 1747.88,-206"/>
<text text-anchor="start" x="1648.88" y="-194" font-family="Helvetica,sans-Serif" font-size="10.00">src/engine/courses</text>
<text text-anchor="middle" x="1694.38" y="-183" font-family="Helvetica,sans-Serif" font-size="10.00">/DKJungle.h</text>
</a>
</g>
</g>
<!-- Node1&#45;&gt;Node19 -->
<g id="edge23_Node000001_Node000019" class="edge">
<title>Node1&#45;&gt;Node19</title>
<g id="a_edge23_Node000001_Node000019"><a xlink:title=" ">
<path fill="none" stroke="#63b8ff" d="M893.07,-250.34C1068.39,-237.58 1491.05,-206.8 1640.73,-195.91"/>
<polygon fill="#63b8ff" stroke="#63b8ff" points="892.62,-246.87 882.9,-251.08 893.12,-253.85 892.62,-246.87"/>
</a>
</g>
</g>
<!-- Node2&#45;&gt;Node3 -->
<g id="edge2_Node000002_Node000003" class="edge">
<title>Node2&#45;&gt;Node3</title>
<g id="a_edge2_Node000002_Node000003"><a xlink:title=" ">
<path fill="none" stroke="#63b8ff" d="M710.72,-184.86C618.79,-177.09 443.6,-161.01 295.38,-140 290.75,-139.34 285.97,-138.61 281.17,-137.84"/>
<polygon fill="#63b8ff" stroke="#63b8ff" points="710.45,-188.35 720.71,-185.69 711.03,-181.37 710.45,-188.35"/>
</a>
</g>
</g>
<!-- Node2&#45;&gt;Node4 -->
<g id="edge13_Node000002_Node000004" class="edge">
<title>Node2&#45;&gt;Node4</title>
<g id="a_edge13_Node000002_Node000004"><a xlink:title=" ">
<path fill="none" stroke="#63b8ff" d="M710.73,-188.49C603.78,-185.04 393.32,-174.02 328.38,-140 299.19,-124.71 277.22,-90.45 268.06,-74.27"/>
<polygon fill="#63b8ff" stroke="#63b8ff" points="710.65,-191.99 720.75,-188.81 710.87,-185 710.65,-191.99"/>
</a>
</g>
</g>
<!-- Node5 -->
<g id="Node000005" class="node">
<title>Node5</title>
<g id="a_Node000005"><a xlink:href="trees_2render_8inc_8c.html" target="_top" xlink:title=" ">
<polygon fill="white" stroke="#666666" points="488.88,-134.5 337.88,-134.5 337.88,-115.5 488.88,-115.5 488.88,-134.5"/>
<text text-anchor="middle" x="413.38" y="-122.5" font-family="Helvetica,sans-Serif" font-size="10.00">src/actors/trees/render.inc.c</text>
</a>
</g>
</g>
<!-- Node2&#45;&gt;Node5 -->
<g id="edge4_Node000002_Node000005" class="edge">
<title>Node2&#45;&gt;Node5</title>
<g id="a_edge4_Node000002_Node000005"><a xlink:title=" ">
<path fill="none" stroke="#63b8ff" d="M710.54,-178.68C639.31,-166.05 525.69,-145.91 461.55,-134.54"/>
<polygon fill="#63b8ff" stroke="#63b8ff" points="710.27,-182.19 720.73,-180.49 711.49,-175.3 710.27,-182.19"/>
</a>
</g>
</g>
<!-- Node6 -->
<g id="Node000006" class="node">
<title>Node6</title>
<g id="a_Node000006"><a xlink:href="code__800029B0_8c.html" target="_top" xlink:title=" ">
<polygon fill="white" stroke="#666666" points="760.88,-134.5 641.88,-134.5 641.88,-115.5 760.88,-115.5 760.88,-134.5"/>
<text text-anchor="middle" x="701.38" y="-122.5" font-family="Helvetica,sans-Serif" font-size="10.00">src/code_800029B0.c</text>
</a>
</g>
</g>
<!-- Node2&#45;&gt;Node6 -->
<g id="edge6_Node000002_Node000006" class="edge">
<title>Node2&#45;&gt;Node6</title>
<g id="a_edge6_Node000002_Node000006"><a xlink:title=" ">
<path fill="none" stroke="#63b8ff" d="M750.35,-168.93C737.15,-157.35 721.46,-143.61 711.47,-134.84"/>
<polygon fill="#63b8ff" stroke="#63b8ff" points="748.35,-171.84 758.18,-175.8 752.97,-166.57 748.35,-171.84"/>
</a>
</g>
</g>
<!-- Node2&#45;&gt;Node7 -->
<g id="edge7_Node000002_Node000007" class="edge">
<title>Node2&#45;&gt;Node7</title>
<g id="a_edge7_Node000002_Node000007"><a xlink:title=" ">
<path fill="none" stroke="#63b8ff" d="M710.32,-187.48C596.14,-182.41 350.1,-168.93 144.38,-140 134.22,-138.57 123.29,-136.57 113.2,-134.53"/>
<polygon fill="#63b8ff" stroke="#63b8ff" points="710.48,-190.99 720.63,-187.93 710.79,-184 710.48,-190.99"/>
</a>
</g>
</g>
<!-- Node8 -->
<g id="Node000008" class="node">
<title>Node8</title>
<g id="a_Node000008"><a xlink:href="code__8006E9C0_8c.html" target="_top" xlink:title=" ">
<polygon fill="white" stroke="#666666" points="1054.88,-134.5 935.88,-134.5 935.88,-115.5 1054.88,-115.5 1054.88,-134.5"/>
<text text-anchor="middle" x="995.38" y="-122.5" font-family="Helvetica,sans-Serif" font-size="10.00">src/code_8006E9C0.c</text>
</a>
</g>
</g>
<!-- Node2&#45;&gt;Node8 -->
<g id="edge8_Node000002_Node000008" class="edge">
<title>Node2&#45;&gt;Node8</title>
<g id="a_edge8_Node000002_Node000008"><a xlink:title=" ">
<path fill="none" stroke="#63b8ff" d="M832.64,-173.13C875.54,-160.71 932.08,-144.33 965.97,-134.52"/>
<polygon fill="#63b8ff" stroke="#63b8ff" points="831.51,-169.81 822.88,-175.95 833.46,-176.54 831.51,-169.81"/>
</a>
</g>
</g>
<!-- Node2&#45;&gt;Node9 -->
<g id="edge9_Node000002_Node000009" class="edge">
<title>Node2&#45;&gt;Node9</title>
<g id="a_edge9_Node000002_Node000009"><a xlink:title=" ">
<path fill="none" stroke="#63b8ff" d="M837.97,-176.61C839.45,-176.39 840.93,-176.19 842.38,-176 1131.07,-138.55 1207.7,-177.45 1496.38,-140 1499.49,-139.6 1502.67,-139.13 1505.87,-138.62"/>
<polygon fill="#63b8ff" stroke="#63b8ff" points="837.41,-173.15 828.08,-178.18 838.51,-180.07 837.41,-173.15"/>
</a>
</g>
</g>
<!-- Node10 -->
<g id="Node000010" class="node">
<title>Node10</title>
<g id="a_Node000010"><a xlink:href="all__variables_8h.html" target="_top" xlink:title=" ">
<polygon fill="white" stroke="#666666" points="917.38,-134.5 779.38,-134.5 779.38,-115.5 917.38,-115.5 917.38,-134.5"/>
<text text-anchor="middle" x="848.38" y="-122.5" font-family="Helvetica,sans-Serif" font-size="10.00">src/debug/all_variables.h</text>
</a>
</g>
</g>
<!-- Node2&#45;&gt;Node10 -->
<g id="edge10_Node000002_Node000010" class="edge">
<title>Node2&#45;&gt;Node10</title>
<g id="a_edge10_Node000002_Node000010"><a xlink:title=" ">
<path fill="none" stroke="#63b8ff" d="M798.74,-168.93C812.13,-157.35 828.03,-143.61 838.16,-134.84"/>
<polygon fill="#63b8ff" stroke="#63b8ff" points="796.08,-166.61 790.81,-175.8 800.66,-171.9 796.08,-166.61"/>
</a>
</g>
</g>
<!-- Node13 -->
<g id="Node000013" class="node">
<title>Node13</title>
<g id="a_Node000013"><a xlink:href="memory_8c.html" target="_top" xlink:title=" ">
<polygon fill="white" stroke="#666666" points="1187.88,-134.5 1072.88,-134.5 1072.88,-115.5 1187.88,-115.5 1187.88,-134.5"/>
<text text-anchor="middle" x="1130.38" y="-122.5" font-family="Helvetica,sans-Serif" font-size="10.00">src/racing/memory.c</text>
</a>
</g>
</g>
<!-- Node2&#45;&gt;Node13 -->
<g id="edge14_Node000002_Node000013" class="edge">
<title>Node2&#45;&gt;Node13</title>
<g id="a_edge14_Node000002_Node000013"><a xlink:title=" ">
<path fill="none" stroke="#63b8ff" d="M838,-176.82C839.48,-176.54 840.94,-176.27 842.38,-176 940.25,-157.96 965.54,-158.18 1063.38,-140 1072.38,-138.33 1082.02,-136.4 1091.12,-134.51"/>
<polygon fill="#63b8ff" stroke="#63b8ff" points="837.32,-173.38 828.16,-178.71 838.65,-180.26 837.32,-173.38"/>
</a>
</g>
</g>
<!-- Node14 -->
<g id="Node000014" class="node">
<title>Node14</title>
<g id="a_Node000014"><a xlink:href="render__courses_8c.html" target="_top" xlink:title=" ">
<polygon fill="white" stroke="#666666" points="1354.88,-134.5 1205.88,-134.5 1205.88,-115.5 1354.88,-115.5 1354.88,-134.5"/>
<text text-anchor="middle" x="1280.38" y="-122.5" font-family="Helvetica,sans-Serif" font-size="10.00">src/racing/render_courses.c</text>
</a>
</g>
</g>
<!-- Node2&#45;&gt;Node14 -->
<g id="edge15_Node000002_Node000014" class="edge">
<title>Node2&#45;&gt;Node14</title>
<g id="a_edge15_Node000002_Node000014"><a xlink:title=" ">
<path fill="none" stroke="#63b8ff" d="M837.98,-176.7C839.46,-176.46 840.93,-176.22 842.38,-176 998.7,-152.02 1039.64,-161.01 1196.38,-140 1208.11,-138.43 1220.7,-136.47 1232.49,-134.52"/>
<polygon fill="#63b8ff" stroke="#63b8ff" points="837.37,-173.25 828.11,-178.41 838.56,-180.15 837.37,-173.25"/>
</a>
</g>
</g>
<!-- Node15 -->
<g id="Node000015" class="node">
<title>Node15</title>
<g id="a_Node000015"><a xlink:href="render__objects_8c.html" target="_top" xlink:title=" ">
<polygon fill="white" stroke="#666666" points="1487.38,-134.5 1373.38,-134.5 1373.38,-115.5 1487.38,-115.5 1487.38,-134.5"/>
<text text-anchor="middle" x="1430.38" y="-122.5" font-family="Helvetica,sans-Serif" font-size="10.00">src/render_objects.c</text>
</a>
</g>
</g>
<!-- Node2&#45;&gt;Node15 -->
<g id="edge16_Node000002_Node000015" class="edge">
<title>Node2&#45;&gt;Node15</title>
<g id="a_edge16_Node000002_Node000015"><a xlink:title=" ">
<path fill="none" stroke="#63b8ff" d="M837.97,-176.63C839.46,-176.41 840.93,-176.2 842.38,-176 1072.35,-144.53 1133.47,-171.81 1363.38,-140 1373.39,-138.62 1384.14,-136.61 1394.03,-134.54"/>
<polygon fill="#63b8ff" stroke="#63b8ff" points="837.39,-173.18 828.09,-178.25 838.52,-180.09 837.39,-173.18"/>
</a>
</g>
</g>
<!-- Node16 -->
<g id="Node000016" class="node">
<title>Node16</title>
<g id="a_Node000016"><a xlink:href="update__objects_8c.html" target="_top" xlink:title=" ">
<polygon fill="white" stroke="#666666" points="623.38,-134.5 507.38,-134.5 507.38,-115.5 623.38,-115.5 623.38,-134.5"/>
<text text-anchor="middle" x="565.38" y="-122.5" font-family="Helvetica,sans-Serif" font-size="10.00">src/update_objects.c</text>
</a>
</g>
</g>
<!-- Node2&#45;&gt;Node16 -->
<g id="edge17_Node000002_Node000016" class="edge">
<title>Node2&#45;&gt;Node16</title>
<g id="a_edge17_Node000002_Node000016"><a xlink:title=" ">
<path fill="none" stroke="#63b8ff" d="M718.77,-172.97C678.27,-160.57 625.12,-144.29 593.2,-134.52"/>
<polygon fill="#63b8ff" stroke="#63b8ff" points="717.93,-176.37 728.52,-175.95 719.98,-169.68 717.93,-176.37"/>
</a>
</g>
</g>
<!-- Node3&#45;&gt;Node4 -->
<g id="edge3_Node000003_Node000004" class="edge">
<title>Node3&#45;&gt;Node4</title>
<g id="a_edge3_Node000003_Node000004"><a xlink:title=" ">
<path fill="none" stroke="#63b8ff" d="M234.84,-101.8C242.38,-92.21 250.77,-81.54 256.49,-74.27"/>
<polygon fill="#63b8ff" stroke="#63b8ff" points="231.95,-99.81 228.52,-109.84 237.45,-104.14 231.95,-99.81"/>
</a>
</g>
</g>
<!-- Node5&#45;&gt;Node4 -->
<g id="edge5_Node000005_Node000004" class="edge">
<title>Node5&#45;&gt;Node4</title>
<g id="a_edge5_Node000005_Node000004"><a xlink:title=" ">
<path fill="none" stroke="#63b8ff" d="M381.92,-111.73C352.93,-100.42 310.67,-83.94 285.22,-74.02"/>
<polygon fill="#63b8ff" stroke="#63b8ff" points="380.98,-115.12 391.57,-115.49 383.53,-108.6 380.98,-115.12"/>
</a>
</g>
</g>
<!-- Node11 -->
<g id="Node000011" class="node">
<title>Node11</title>
<g id="a_Node000011"><a xlink:href="debug_8inc_8c.html" target="_top" xlink:title=" ">
<polygon fill="white" stroke="#666666" points="909.38,-74 787.38,-74 787.38,-55 909.38,-55 909.38,-74"/>
<text text-anchor="middle" x="848.38" y="-62" font-family="Helvetica,sans-Serif" font-size="10.00">src/debug/debug.inc.c</text>
</a>
</g>
</g>
<!-- Node10&#45;&gt;Node11 -->
<g id="edge11_Node000010_Node000011" class="edge">
<title>Node10&#45;&gt;Node11</title>
<g id="a_edge11_Node000010_Node000011"><a xlink:title=" ">
<path fill="none" stroke="#63b8ff" d="M848.38,-105.16C848.38,-94.74 848.38,-82.3 848.38,-74.17"/>
<polygon fill="#63b8ff" stroke="#63b8ff" points="844.88,-105.37 848.38,-115.37 851.88,-105.37 844.88,-105.37"/>
</a>
</g>
</g>
<!-- Node12 -->
<g id="Node000012" class="node">
<title>Node12</title>
<g id="a_Node000012"><a xlink:href="debug_8c.html" target="_top" xlink:title=" ">
<polygon fill="white" stroke="#666666" points="900.88,-19 795.88,-19 795.88,0 900.88,0 900.88,-19"/>
<text text-anchor="middle" x="848.38" y="-7" font-family="Helvetica,sans-Serif" font-size="10.00">src/debug/debug.c</text>
</a>
</g>
</g>
<!-- Node11&#45;&gt;Node12 -->
<g id="edge12_Node000011_Node000012" class="edge">
<title>Node11&#45;&gt;Node12</title>
<g id="a_edge12_Node000011_Node000012"><a xlink:title=" ">
<path fill="none" stroke="#63b8ff" d="M848.38,-44.66C848.38,-35.93 848.38,-25.99 848.38,-19.09"/>
<polygon fill="#63b8ff" stroke="#63b8ff" points="844.88,-44.75 848.38,-54.75 851.88,-44.75 844.88,-44.75"/>
</a>
</g>
</g>
<!-- Node19&#45;&gt;Node18 -->
<g id="edge24_Node000019_Node000018" class="edge">
<title>Node19&#45;&gt;Node18</title>
<g id="a_edge24_Node000019_Node000018"><a xlink:title=" ">
<path fill="none" stroke="#63b8ff" d="M1694.38,-165.54C1694.38,-156.96 1694.38,-147.61 1694.38,-140.16"/>
<polygon fill="#63b8ff" stroke="#63b8ff" points="1690.88,-165.8 1694.38,-175.8 1697.88,-165.8 1690.88,-165.8"/>
</a>
</g>
</g>
<!-- Node20 -->
<g id="Node000020" class="node">
<title>Node20</title>
<g id="a_Node000020"><a xlink:href="Game_8cpp.html" target="_top" xlink:title=" ">
<polygon fill="white" stroke="#666666" points="1872.38,-134.5 1766.38,-134.5 1766.38,-115.5 1872.38,-115.5 1872.38,-134.5"/>
<text text-anchor="middle" x="1819.38" y="-122.5" font-family="Helvetica,sans-Serif" font-size="10.00">src/port/Game.cpp</text>
</a>
</g>
</g>
<!-- Node19&#45;&gt;Node20 -->
<g id="edge25_Node000019_Node000020" class="edge">
<title>Node19&#45;&gt;Node20</title>
<g id="a_edge25_Node000019_Node000020"><a xlink:title=" ">
<path fill="none" stroke="#63b8ff" d="M1730.91,-171.3C1754.66,-159.14 1784.5,-143.86 1802.75,-134.52"/>
<polygon fill="#63b8ff" stroke="#63b8ff" points="1729.12,-168.28 1721.81,-175.95 1732.31,-174.51 1729.12,-168.28"/>
</a>
</g>
</g>
</g>
</svg>
