<?xml version="1.0" encoding="UTF-8" standalone="no"?>
<!DOCTYPE svg PUBLIC "-//W3C//DTD SVG 1.1//EN"
 "http://www.w3.org/Graphics/SVG/1.1/DTD/svg11.dtd">
<!-- Generated by graphviz version 2.43.0 (0)
 -->
<!-- Title: Editor_AddMatrix Pages: 1 -->
<svg width="449pt" height="124pt"
 viewBox="0.00 0.00 449.00 123.50" xmlns="http://www.w3.org/2000/svg" xmlns:xlink="http://www.w3.org/1999/xlink">
<g id="graph0" class="graph" transform="scale(1 1) rotate(0) translate(4 119.5)">
<title>Editor_AddMatrix</title>
<!-- Node1 -->
<g id="Node000001" class="node">
<title>Node1</title>
<g id="a_Node000001"><a xlink:title=" ">
<polygon fill="#999999" stroke="#666666" points="441,-62 340,-62 340,-43 441,-43 441,-62"/>
<text text-anchor="middle" x="390.5" y="-50" font-family="Helvetica,sans-Serif" font-size="10.00">Editor_AddMatrix</text>
</a>
</g>
</g>
<!-- Node2 -->
<g id="Node000002" class="node">
<title>Node2</title>
<g id="a_Node000002"><a xlink:href="classEditor_1_1LightObject.html#ac85d06bce768d7c583c3c4af10d8556e" target="_top" xlink:title=" ">
<polygon fill="white" stroke="#666666" points="280.5,-115.5 173.5,-115.5 173.5,-85.5 280.5,-85.5 280.5,-115.5"/>
<text text-anchor="start" x="181.5" y="-103.5" font-family="Helvetica,sans-Serif" font-size="10.00">Editor::LightObject</text>
<text text-anchor="middle" x="227" y="-92.5" font-family="Helvetica,sans-Serif" font-size="10.00">::Draw</text>
</a>
</g>
</g>
<!-- Node1&#45;&gt;Node2 -->
<g id="edge1_Node000001_Node000002" class="edge">
<title>Node1&#45;&gt;Node2</title>
<g id="a_edge1_Node000001_Node000002"><a xlink:title=" ">
<path fill="none" stroke="#63b8ff" d="M347.58,-64.96C326.52,-71.22 300.84,-78.85 278.68,-85.44"/>
<polygon fill="#63b8ff" stroke="#63b8ff" points="348.62,-68.3 357.21,-62.1 346.62,-61.59 348.62,-68.3"/>
</a>
</g>
</g>
<!-- Node3 -->
<g id="Node000003" class="node">
<title>Node3</title>
<g id="a_Node000003"><a xlink:href="classEditor_1_1ObjectPicker.html#abc67db1df15bbf4451cb3584e708600b" target="_top" xlink:title=" ">
<polygon fill="white" stroke="#666666" points="283,-67.5 171,-67.5 171,-37.5 283,-37.5 283,-67.5"/>
<text text-anchor="start" x="179" y="-55.5" font-family="Helvetica,sans-Serif" font-size="10.00">Editor::ObjectPicker</text>
<text text-anchor="middle" x="227" y="-44.5" font-family="Helvetica,sans-Serif" font-size="10.00">::Draw</text>
</a>
</g>
</g>
<!-- Node1&#45;&gt;Node3 -->
<g id="edge2_Node000001_Node000003" class="edge">
<title>Node1&#45;&gt;Node3</title>
<g id="a_edge2_Node000001_Node000003"><a xlink:title=" ">
<path fill="none" stroke="#63b8ff" d="M329.44,-52.5C314.3,-52.5 298.13,-52.5 283.24,-52.5"/>
<polygon fill="#63b8ff" stroke="#63b8ff" points="329.73,-56 339.73,-52.5 329.73,-49 329.73,-56"/>
</a>
</g>
</g>
<!-- Node4 -->
<g id="Node000004" class="node">
<title>Node4</title>
<g id="a_Node000004"><a xlink:href="classEditor_1_1Gizmo.html#a6a82cd6884a53f04665fa6244495e3a3" target="_top" xlink:title=" ">
<polygon fill="white" stroke="#666666" points="304,-19 150,-19 150,0 304,0 304,-19"/>
<text text-anchor="middle" x="227" y="-7" font-family="Helvetica,sans-Serif" font-size="10.00">Editor::Gizmo::DrawHandles</text>
</a>
</g>
</g>
<!-- Node1&#45;&gt;Node4 -->
<g id="edge3_Node000001_Node000004" class="edge">
<title>Node1&#45;&gt;Node4</title>
<g id="a_edge3_Node000001_Node000004"><a xlink:title=" ">
<path fill="none" stroke="#63b8ff" d="M346.26,-40.1C332.75,-36.3 317.78,-32.15 304,-28.5 292.04,-25.33 278.98,-22.01 267.11,-19.05"/>
<polygon fill="#63b8ff" stroke="#63b8ff" points="345.69,-43.58 356.27,-42.93 347.6,-36.84 345.69,-43.58"/>
</a>
</g>
</g>
<!-- Node5 -->
<g id="Node000005" class="node">
<title>Node5</title>
<g id="a_Node000005"><a xlink:href="classEditor_1_1Gizmo.html#a06d20742586eeae67851747c4059a7b5" target="_top" xlink:title=" ">
<polygon fill="white" stroke="#666666" points="114,-19 0,-19 0,0 114,0 114,-19"/>
<text text-anchor="middle" x="57" y="-7" font-family="Helvetica,sans-Serif" font-size="10.00">Editor::Gizmo::Draw</text>
</a>
</g>
</g>
<!-- Node4&#45;&gt;Node5 -->
<g id="edge4_Node000004_Node000005" class="edge">
<title>Node4&#45;&gt;Node5</title>
<g id="a_edge4_Node000004_Node000005"><a xlink:title=" ">
<path fill="none" stroke="#63b8ff" d="M139.73,-9.5C131.08,-9.5 122.47,-9.5 114.26,-9.5"/>
<polygon fill="#63b8ff" stroke="#63b8ff" points="139.86,-13 149.86,-9.5 139.86,-6 139.86,-13"/>
</a>
</g>
</g>
</g>
</svg>
