<?xml version="1.0" encoding="UTF-8" standalone="no"?>
<!DOCTYPE svg PUBLIC "-//W3C//DTD SVG 1.1//EN"
 "http://www.w3.org/Graphics/SVG/1.1/DTD/svg11.dtd">
<!-- Generated by graphviz version 2.43.0 (0)
 -->
<!-- Title: func_800C36C4 Pages: 1 -->
<svg width="1368pt" height="426pt"
 viewBox="0.00 0.00 1368.00 426.00" xmlns="http://www.w3.org/2000/svg" xmlns:xlink="http://www.w3.org/1999/xlink">
<g id="graph0" class="graph" transform="scale(1 1) rotate(0) translate(4 422)">
<title>func_800C36C4</title>
<!-- Node1 -->
<g id="Node000001" class="node">
<title>Node1</title>
<g id="a_Node000001"><a xlink:title=" ">
<polygon fill="#999999" stroke="#666666" points="1360,-242 1268,-242 1268,-223 1360,-223 1360,-242"/>
<text text-anchor="middle" x="1314" y="-230" font-family="Helvetica,sans-Serif" font-size="10.00">func_800C36C4</text>
</a>
</g>
</g>
<!-- Node2 -->
<g id="Node000002" class="node">
<title>Node2</title>
<g id="a_Node000002"><a xlink:href="external_8c.html#a9f5d9ab040210ecd57c26391aa62ccab" target="_top" xlink:title=" ">
<polygon fill="white" stroke="#666666" points="1081,-393 989,-393 989,-374 1081,-374 1081,-393"/>
<text text-anchor="middle" x="1035" y="-381" font-family="Helvetica,sans-Serif" font-size="10.00">func_800C3724</text>
</a>
</g>
</g>
<!-- Node1&#45;&gt;Node2 -->
<g id="edge1_Node000001_Node000002" class="edge">
<title>Node1&#45;&gt;Node2</title>
<g id="a_edge1_Node000001_Node000002"><a xlink:title=" ">
<path fill="none" stroke="#63b8ff" d="M1307.25,-251.99C1297.31,-281.89 1273.83,-338.36 1232,-364.5 1186.63,-392.85 1123.48,-393.64 1081.25,-389.97"/>
<polygon fill="#63b8ff" stroke="#63b8ff" points="1310.64,-252.87 1310.31,-242.28 1303.97,-250.77 1310.64,-252.87"/>
</a>
</g>
</g>
<!-- Node47 -->
<g id="Node000047" class="node">
<title>Node47</title>
<g id="a_Node000047"><a xlink:href="external_8c.html#af284aef5378575cf597e04e3dfaac044" target="_top" xlink:title=" ">
<polygon fill="white" stroke="#666666" points="1231,-279 1139,-279 1139,-260 1231,-260 1231,-279"/>
<text text-anchor="middle" x="1185" y="-267" font-family="Helvetica,sans-Serif" font-size="10.00">func_800C8F44</text>
</a>
</g>
</g>
<!-- Node1&#45;&gt;Node47 -->
<g id="edge13_Node000001_Node000047" class="edge">
<title>Node1&#45;&gt;Node47</title>
<g id="a_edge13_Node000001_Node000047"><a xlink:title=" ">
<path fill="none" stroke="#63b8ff" d="M1270.69,-244.83C1253.87,-249.73 1234.81,-255.28 1219.04,-259.88"/>
<polygon fill="#63b8ff" stroke="#63b8ff" points="1271.67,-248.19 1280.29,-242.03 1269.71,-241.47 1271.67,-248.19"/>
</a>
</g>
</g>
<!-- Node57 -->
<g id="Node000057" class="node">
<title>Node57</title>
<g id="a_Node000057"><a xlink:href="external_8c.html#aa02fab8bd5588ff8301d0f0f91e1cb1c" target="_top" xlink:title=" ">
<polygon fill="white" stroke="#666666" points="746.5,-317 654.5,-317 654.5,-298 746.5,-298 746.5,-317"/>
<text text-anchor="middle" x="700.5" y="-305" font-family="Helvetica,sans-Serif" font-size="10.00">func_800CA008</text>
</a>
</g>
</g>
<!-- Node1&#45;&gt;Node57 -->
<g id="edge20_Node000001_Node000057" class="edge">
<title>Node1&#45;&gt;Node57</title>
<g id="a_edge20_Node000001_Node000057"><a xlink:title=" ">
<path fill="none" stroke="#63b8ff" d="M1295.42,-249.15C1280.02,-262.54 1256.37,-280.41 1232,-288.5 1060.34,-345.45 840.11,-326.25 746.65,-314.19"/>
<polygon fill="#63b8ff" stroke="#63b8ff" points="1297.98,-251.55 1303.07,-242.26 1293.29,-246.35 1297.98,-251.55"/>
</a>
</g>
</g>
<!-- Node63 -->
<g id="Node000063" class="node">
<title>Node63</title>
<g id="a_Node000063"><a xlink:href="external_8c.html#ab3e41422317f1d656be9e9b0d5947bb8" target="_top" xlink:title=" ">
<polygon fill="white" stroke="#666666" points="1232,-242 1138,-242 1138,-223 1232,-223 1232,-242"/>
<text text-anchor="middle" x="1185" y="-230" font-family="Helvetica,sans-Serif" font-size="10.00">func_800CAB4C</text>
</a>
</g>
</g>
<!-- Node1&#45;&gt;Node63 -->
<g id="edge28_Node000001_Node000063" class="edge">
<title>Node1&#45;&gt;Node63</title>
<g id="a_edge28_Node000001_Node000063"><a xlink:title=" ">
<path fill="none" stroke="#63b8ff" d="M1257.67,-232.5C1249.2,-232.5 1240.53,-232.5 1232.27,-232.5"/>
<polygon fill="#63b8ff" stroke="#63b8ff" points="1257.87,-236 1267.87,-232.5 1257.87,-229 1257.87,-236"/>
</a>
</g>
</g>
<!-- Node72 -->
<g id="Node000072" class="node">
<title>Node72</title>
<g id="a_Node000072"><a xlink:href="external_8c.html#acc8bf31951751f8c1884eb37d49f4fbd" target="_top" xlink:title=" ">
<polygon fill="white" stroke="#666666" points="1231.5,-355 1138.5,-355 1138.5,-336 1231.5,-336 1231.5,-355"/>
<text text-anchor="middle" x="1185" y="-343" font-family="Helvetica,sans-Serif" font-size="10.00">func_800CAC08</text>
</a>
</g>
</g>
<!-- Node1&#45;&gt;Node72 -->
<g id="edge36_Node000001_Node000072" class="edge">
<title>Node1&#45;&gt;Node72</title>
<g id="a_edge36_Node000001_Node000072"><a xlink:title=" ">
<path fill="none" stroke="#63b8ff" d="M1299.89,-250.3C1285.02,-269.61 1259.28,-300.47 1232,-321.5 1224.72,-327.11 1215.94,-332.06 1208.01,-335.98"/>
<polygon fill="#63b8ff" stroke="#63b8ff" points="1302.86,-252.18 1306.1,-242.09 1297.28,-247.96 1302.86,-252.18"/>
</a>
</g>
</g>
<!-- Node75 -->
<g id="Node000075" class="node">
<title>Node75</title>
<g id="a_Node000075"><a xlink:href="external_8c.html#ac1a703ccfd39decb3d7935ced254afd8" target="_top" xlink:title=" ">
<polygon fill="white" stroke="#666666" points="1231.5,-205 1138.5,-205 1138.5,-186 1231.5,-186 1231.5,-205"/>
<text text-anchor="middle" x="1185" y="-193" font-family="Helvetica,sans-Serif" font-size="10.00">func_800CAC60</text>
</a>
</g>
</g>
<!-- Node1&#45;&gt;Node75 -->
<g id="edge40_Node000001_Node000075" class="edge">
<title>Node1&#45;&gt;Node75</title>
<g id="a_edge40_Node000001_Node000075"><a xlink:title=" ">
<path fill="none" stroke="#63b8ff" d="M1270.69,-220.17C1253.87,-215.27 1234.81,-209.72 1219.04,-205.12"/>
<polygon fill="#63b8ff" stroke="#63b8ff" points="1269.71,-223.53 1280.29,-222.97 1271.67,-216.81 1269.71,-223.53"/>
</a>
</g>
</g>
<!-- Node76 -->
<g id="Node000076" class="node">
<title>Node76</title>
<g id="a_Node000076"><a xlink:href="external_8c.html#a136efe63ecddf15d836c739c28cbfe41" target="_top" xlink:title=" ">
<polygon fill="white" stroke="#666666" points="1232,-167 1138,-167 1138,-148 1232,-148 1232,-167"/>
<text text-anchor="middle" x="1185" y="-155" font-family="Helvetica,sans-Serif" font-size="10.00">func_800CAD40</text>
</a>
</g>
</g>
<!-- Node1&#45;&gt;Node76 -->
<g id="edge42_Node000001_Node000076" class="edge">
<title>Node1&#45;&gt;Node76</title>
<g id="a_edge42_Node000001_Node000076"><a xlink:title=" ">
<path fill="none" stroke="#63b8ff" d="M1292.46,-216.98C1276.48,-205.29 1253.48,-189.33 1232,-177.5 1225.13,-173.72 1217.41,-170.13 1210.28,-167.05"/>
<polygon fill="#63b8ff" stroke="#63b8ff" points="1290.44,-219.84 1300.56,-222.97 1294.61,-214.21 1290.44,-219.84"/>
</a>
</g>
</g>
<!-- Node77 -->
<g id="Node000077" class="node">
<title>Node77</title>
<g id="a_Node000077"><a xlink:href="external_8c.html#a8e12528517df50a5fac9f139bfafb0c8" target="_top" xlink:title=" ">
<polygon fill="white" stroke="#666666" points="1231.5,-129 1138.5,-129 1138.5,-110 1231.5,-110 1231.5,-129"/>
<text text-anchor="middle" x="1185" y="-117" font-family="Helvetica,sans-Serif" font-size="10.00">func_800CAFC0</text>
</a>
</g>
</g>
<!-- Node1&#45;&gt;Node77 -->
<g id="edge44_Node000001_Node000077" class="edge">
<title>Node1&#45;&gt;Node77</title>
<g id="a_edge44_Node000001_Node000077"><a xlink:title=" ">
<path fill="none" stroke="#63b8ff" d="M1300.99,-214.39C1286.64,-193.91 1260.91,-160.68 1232,-139.5 1226.38,-135.38 1219.78,-131.89 1213.36,-129.02"/>
<polygon fill="#63b8ff" stroke="#63b8ff" points="1298.22,-216.54 1306.75,-222.81 1304,-212.58 1298.22,-216.54"/>
</a>
</g>
</g>
<!-- Node95 -->
<g id="Node000095" class="node">
<title>Node95</title>
<g id="a_Node000095"><a xlink:href="external_8c.html#aa00f6fbb1195ee18da20e61bd6ef5d97" target="_top" xlink:title=" ">
<polygon fill="white" stroke="#666666" points="1231,-90 1139,-90 1139,-71 1231,-71 1231,-90"/>
<text text-anchor="middle" x="1185" y="-78" font-family="Helvetica,sans-Serif" font-size="10.00">func_800CB064</text>
</a>
</g>
</g>
<!-- Node1&#45;&gt;Node95 -->
<g id="edge52_Node000001_Node000095" class="edge">
<title>Node1&#45;&gt;Node95</title>
<g id="a_edge52_Node000001_Node000095"><a xlink:title=" ">
<path fill="none" stroke="#63b8ff" d="M1305.54,-213.55C1293.73,-185.68 1268.28,-133.49 1232,-101.5 1226.73,-96.86 1220.26,-93.06 1213.86,-90.04"/>
<polygon fill="#63b8ff" stroke="#63b8ff" points="1302.36,-215.02 1309.4,-222.95 1308.84,-212.37 1302.36,-215.02"/>
</a>
</g>
</g>
<!-- Node3 -->
<g id="Node000003" class="node">
<title>Node3</title>
<g id="a_Node000003"><a xlink:href="external_8c.html#a12c3e6c147828cc102e748904808ea4a" target="_top" xlink:title=" ">
<polygon fill="white" stroke="#666666" points="747,-390 654,-390 654,-371 747,-371 747,-390"/>
<text text-anchor="middle" x="700.5" y="-378" font-family="Helvetica,sans-Serif" font-size="10.00">func_800CB2C4</text>
</a>
</g>
</g>
<!-- Node2&#45;&gt;Node3 -->
<g id="edge2_Node000002_Node000003" class="edge">
<title>Node2&#45;&gt;Node3</title>
<g id="a_edge2_Node000002_Node000003"><a xlink:title=" ">
<path fill="none" stroke="#63b8ff" d="M978.77,-383C913.91,-382.42 807.52,-381.46 747.12,-380.91"/>
<polygon fill="#63b8ff" stroke="#63b8ff" points="978.78,-386.5 988.81,-383.09 978.84,-379.5 978.78,-386.5"/>
</a>
</g>
</g>
<!-- Node4 -->
<g id="Node000004" class="node">
<title>Node4</title>
<g id="a_Node000004"><a xlink:href="menus_8c.html#ab415efc50e6890fb19378842960af7fc" target="_top" xlink:title=" ">
<polygon fill="white" stroke="#666666" points="586.5,-353 480.5,-353 480.5,-334 586.5,-334 586.5,-353"/>
<text text-anchor="middle" x="533.5" y="-341" font-family="Helvetica,sans-Serif" font-size="10.00">load_menu_states</text>
</a>
</g>
</g>
<!-- Node3&#45;&gt;Node4 -->
<g id="edge3_Node000003_Node000004" class="edge">
<title>Node3&#45;&gt;Node4</title>
<g id="a_edge3_Node000003_Node000004"><a xlink:title=" ">
<path fill="none" stroke="#63b8ff" d="M647.23,-368.78C624.64,-363.71 598.53,-357.86 577.13,-353.06"/>
<polygon fill="#63b8ff" stroke="#63b8ff" points="646.48,-372.2 657.01,-370.97 648.02,-365.37 646.48,-372.2"/>
</a>
</g>
</g>
<!-- Node46 -->
<g id="Node000046" class="node">
<title>Node46</title>
<g id="a_Node000046"><a xlink:href="code__800029B0_8c.html#aca6165112fc92e65ad6477e785a7098c" target="_top" xlink:title=" ">
<polygon fill="white" stroke="#666666" points="568.5,-390 498.5,-390 498.5,-371 568.5,-371 568.5,-390"/>
<text text-anchor="middle" x="533.5" y="-378" font-family="Helvetica,sans-Serif" font-size="10.00">setup_race</text>
</a>
</g>
</g>
<!-- Node3&#45;&gt;Node46 -->
<g id="edge7_Node000003_Node000046" class="edge">
<title>Node3&#45;&gt;Node46</title>
<g id="a_edge7_Node000003_Node000046"><a xlink:title=" ">
<path fill="none" stroke="#63b8ff" d="M643.9,-380.5C618.96,-380.5 590.33,-380.5 568.62,-380.5"/>
<polygon fill="#63b8ff" stroke="#63b8ff" points="643.98,-384 653.98,-380.5 643.98,-377 643.98,-384"/>
</a>
</g>
</g>
<!-- Node9 -->
<g id="Node000009" class="node">
<title>Node9</title>
<g id="a_Node000009"><a xlink:href="main_8c.html#a2bd6afc4241736db360297b364c27b84" target="_top" xlink:title=" ">
<polygon fill="white" stroke="#666666" points="288,-418 187,-418 187,-399 288,-399 288,-418"/>
<text text-anchor="middle" x="237.5" y="-406" font-family="Helvetica,sans-Serif" font-size="10.00">thread5_iteration</text>
</a>
</g>
</g>
<!-- Node3&#45;&gt;Node9 -->
<g id="edge12_Node000003_Node000009" class="edge">
<title>Node3&#45;&gt;Node9</title>
<g id="a_edge12_Node000003_Node000009"><a xlink:title=" ">
<path fill="none" stroke="#63b8ff" d="M647.27,-392.03C631.81,-395 614.79,-397.82 599,-399.5 488.5,-411.25 357.92,-411.03 288.23,-409.79"/>
<polygon fill="#63b8ff" stroke="#63b8ff" points="648.05,-395.45 657.18,-390.08 646.69,-388.58 648.05,-395.45"/>
</a>
</g>
</g>
<!-- Node5 -->
<g id="Node000005" class="node">
<title>Node5</title>
<g id="a_Node000005"><a xlink:href="menu__items_8c.html#af5c5dbc8b13a37e983a1a137457e0f06" target="_top" xlink:title=" ">
<polygon fill="white" stroke="#666666" points="419,-353 337,-353 337,-334 419,-334 419,-353"/>
<text text-anchor="middle" x="378" y="-341" font-family="Helvetica,sans-Serif" font-size="10.00">setup_menus</text>
</a>
</g>
</g>
<!-- Node4&#45;&gt;Node5 -->
<g id="edge4_Node000004_Node000005" class="edge">
<title>Node4&#45;&gt;Node5</title>
<g id="a_edge4_Node000004_Node000005"><a xlink:title=" ">
<path fill="none" stroke="#63b8ff" d="M470.1,-343.5C452.87,-343.5 434.64,-343.5 419.05,-343.5"/>
<polygon fill="#63b8ff" stroke="#63b8ff" points="470.1,-347 480.1,-343.5 470.1,-340 470.1,-347"/>
</a>
</g>
</g>
<!-- Node6 -->
<g id="Node000006" class="node">
<title>Node6</title>
<g id="a_Node000006"><a xlink:href="menu__items_8c.html#a4c171632ff32db3cbe13719e6478d536" target="_top" xlink:title=" ">
<polygon fill="#fff0f0" stroke="red" points="283.5,-362 191.5,-362 191.5,-343 283.5,-343 283.5,-362"/>
<text text-anchor="middle" x="237.5" y="-350" font-family="Helvetica,sans-Serif" font-size="10.00">func_80091B78</text>
</a>
</g>
</g>
<!-- Node5&#45;&gt;Node6 -->
<g id="edge5_Node000005_Node000006" class="edge">
<title>Node5&#45;&gt;Node6</title>
<g id="a_edge5_Node000005_Node000006"><a xlink:title=" ">
<path fill="none" stroke="#63b8ff" d="M326.93,-346.75C312.84,-347.67 297.61,-348.66 283.83,-349.55"/>
<polygon fill="#63b8ff" stroke="#63b8ff" points="327.19,-350.24 336.94,-346.1 326.73,-343.26 327.19,-350.24"/>
</a>
</g>
</g>
<!-- Node35 -->
<g id="Node000035" class="node">
<title>Node35</title>
<g id="a_Node000035"><a xlink:href="menu__items_8c.html#ac51ad7c4cba535e4821a618a8cfe1e3e" target="_top" xlink:title=" ">
<polygon fill="#fff0f0" stroke="red" points="283.5,-325 191.5,-325 191.5,-306 283.5,-306 283.5,-325"/>
<text text-anchor="middle" x="237.5" y="-313" font-family="Helvetica,sans-Serif" font-size="10.00">func_80094A64</text>
</a>
</g>
</g>
<!-- Node5&#45;&gt;Node35 -->
<g id="edge6_Node000005_Node000035" class="edge">
<title>Node5&#45;&gt;Node35</title>
<g id="a_edge6_Node000005_Node000035"><a xlink:title=" ">
<path fill="none" stroke="#63b8ff" d="M326.93,-333.38C312.84,-330.53 297.61,-327.45 283.83,-324.66"/>
<polygon fill="#63b8ff" stroke="#63b8ff" points="326.44,-336.85 336.94,-335.4 327.83,-329.99 326.44,-336.85"/>
</a>
</g>
</g>
<!-- Node8 -->
<g id="Node000008" class="node">
<title>Node8</title>
<g id="a_Node000008"><a xlink:href="main_8c.html#ad0625ed56ac663d3ec7ae8f1ba50c735" target="_top" xlink:title=" ">
<polygon fill="white" stroke="#666666" points="432,-390 324,-390 324,-371 432,-371 432,-390"/>
<text text-anchor="middle" x="378" y="-378" font-family="Helvetica,sans-Serif" font-size="10.00">update_gamestate</text>
</a>
</g>
</g>
<!-- Node46&#45;&gt;Node8 -->
<g id="edge8_Node000046_Node000008" class="edge">
<title>Node46&#45;&gt;Node8</title>
<g id="a_edge8_Node000046_Node000008"><a xlink:title=" ">
<path fill="none" stroke="#63b8ff" d="M487.98,-380.5C470.57,-380.5 450.45,-380.5 432.27,-380.5"/>
<polygon fill="#63b8ff" stroke="#63b8ff" points="488.43,-384 498.43,-380.5 488.43,-377 488.43,-384"/>
</a>
</g>
</g>
<!-- Node8&#45;&gt;Node9 -->
<g id="edge9_Node000008_Node000009" class="edge">
<title>Node8&#45;&gt;Node9</title>
<g id="a_edge9_Node000008_Node000009"><a xlink:title=" ">
<path fill="none" stroke="#63b8ff" d="M319.85,-392.05C308.44,-394.36 296.58,-396.76 285.56,-398.99"/>
<polygon fill="#63b8ff" stroke="#63b8ff" points="320.62,-395.47 329.72,-390.06 319.23,-388.61 320.62,-395.47"/>
</a>
</g>
</g>
<!-- Node10 -->
<g id="Node000010" class="node">
<title>Node10</title>
<g id="a_Node000010"><a xlink:href="Game_8cpp.html#a7e10f41e410b6fdab17e0388f164f61d" target="_top" xlink:title=" ">
<polygon fill="white" stroke="#666666" points="151,-418 77,-418 77,-399 151,-399 151,-418"/>
<text text-anchor="middle" x="114" y="-406" font-family="Helvetica,sans-Serif" font-size="10.00">push_frame</text>
</a>
</g>
</g>
<!-- Node9&#45;&gt;Node10 -->
<g id="edge10_Node000009_Node000010" class="edge">
<title>Node9&#45;&gt;Node10</title>
<g id="a_edge10_Node000009_Node000010"><a xlink:title=" ">
<path fill="none" stroke="#63b8ff" d="M176.57,-408.5C167.87,-408.5 159.15,-408.5 151.12,-408.5"/>
<polygon fill="#63b8ff" stroke="#63b8ff" points="176.73,-412 186.73,-408.5 176.73,-405 176.73,-412"/>
</a>
</g>
</g>
<!-- Node11 -->
<g id="Node000011" class="node">
<title>Node11</title>
<g id="a_Node000011"><a xlink:href="Game_8cpp.html#a0ddf1224851353fc92bfbff6f499fa97" target="_top" xlink:title=" ">
<polygon fill="#fff0f0" stroke="red" points="41,-418 0,-418 0,-399 41,-399 41,-418"/>
<text text-anchor="middle" x="20.5" y="-406" font-family="Helvetica,sans-Serif" font-size="10.00">main</text>
</a>
</g>
</g>
<!-- Node10&#45;&gt;Node11 -->
<g id="edge11_Node000010_Node000011" class="edge">
<title>Node10&#45;&gt;Node11</title>
<g id="a_edge11_Node000010_Node000011"><a xlink:title=" ">
<path fill="none" stroke="#63b8ff" d="M66.7,-408.5C57.67,-408.5 48.66,-408.5 41.09,-408.5"/>
<polygon fill="#63b8ff" stroke="#63b8ff" points="66.84,-412 76.84,-408.5 66.84,-405 66.84,-412"/>
</a>
</g>
</g>
<!-- Node48 -->
<g id="Node000048" class="node">
<title>Node48</title>
<g id="a_Node000048"><a xlink:href="code__800029B0_8c.html#a7f2e9212dffa5894377677511e9aea7a" target="_top" xlink:title=" ">
<polygon fill="white" stroke="#666666" points="1081,-279 989,-279 989,-260 1081,-260 1081,-279"/>
<text text-anchor="middle" x="1035" y="-267" font-family="Helvetica,sans-Serif" font-size="10.00">func_800029B0</text>
</a>
</g>
</g>
<!-- Node47&#45;&gt;Node48 -->
<g id="edge14_Node000047_Node000048" class="edge">
<title>Node47&#45;&gt;Node48</title>
<g id="a_edge14_Node000047_Node000048"><a xlink:title=" ">
<path fill="none" stroke="#63b8ff" d="M1128.7,-269.5C1113.04,-269.5 1096.18,-269.5 1081.19,-269.5"/>
<polygon fill="#63b8ff" stroke="#63b8ff" points="1128.79,-273 1138.79,-269.5 1128.79,-266 1128.79,-273"/>
</a>
</g>
</g>
<!-- Node49 -->
<g id="Node000049" class="node">
<title>Node49</title>
<g id="a_Node000049"><a xlink:href="race__logic_8c.html#a81fc82f45c9f9fcbf0d71fd2e0d6853c" target="_top" xlink:title=" ">
<polygon fill="white" stroke="#666666" points="913,-279 821,-279 821,-260 913,-260 913,-279"/>
<text text-anchor="middle" x="867" y="-267" font-family="Helvetica,sans-Serif" font-size="10.00">func_8028EC98</text>
</a>
</g>
</g>
<!-- Node48&#45;&gt;Node49 -->
<g id="edge15_Node000048_Node000049" class="edge">
<title>Node48&#45;&gt;Node49</title>
<g id="a_edge15_Node000048_Node000049"><a xlink:title=" ">
<path fill="none" stroke="#63b8ff" d="M978.44,-269.5C957.17,-269.5 933.19,-269.5 913.02,-269.5"/>
<polygon fill="#63b8ff" stroke="#63b8ff" points="978.64,-273 988.64,-269.5 978.64,-266 978.64,-273"/>
</a>
</g>
</g>
<!-- Node56 -->
<g id="Node000056" class="node">
<title>Node56</title>
<g id="a_Node000056"><a xlink:href="race__logic_8c.html#a4eb4cb5c0963bcfceae40d340c2e7756" target="_top" xlink:title=" ">
<polygon fill="white" stroke="#666666" points="912.5,-242 821.5,-242 821.5,-223 912.5,-223 912.5,-242"/>
<text text-anchor="middle" x="867" y="-230" font-family="Helvetica,sans-Serif" font-size="10.00">func_8028F970</text>
</a>
</g>
</g>
<!-- Node48&#45;&gt;Node56 -->
<g id="edge18_Node000048_Node000056" class="edge">
<title>Node48&#45;&gt;Node56</title>
<g id="a_edge18_Node000048_Node000056"><a xlink:title=" ">
<path fill="none" stroke="#63b8ff" d="M981.42,-257.78C958.69,-252.71 932.42,-246.86 910.89,-242.06"/>
<polygon fill="#63b8ff" stroke="#63b8ff" points="980.73,-261.21 991.25,-259.97 982.25,-254.38 980.73,-261.21"/>
</a>
</g>
</g>
<!-- Node50 -->
<g id="Node000050" class="node">
<title>Node50</title>
<g id="a_Node000050"><a xlink:href="race__logic_8c.html#a1b2815c62b11e33e3c74d7fd65af5edc" target="_top" xlink:title=" ">
<polygon fill="#fff0f0" stroke="red" points="733,-280 668,-280 668,-261 733,-261 733,-280"/>
<text text-anchor="middle" x="700.5" y="-268" font-family="Helvetica,sans-Serif" font-size="10.00">start_race</text>
</a>
</g>
</g>
<!-- Node49&#45;&gt;Node50 -->
<g id="edge16_Node000049_Node000050" class="edge">
<title>Node49&#45;&gt;Node50</title>
<g id="a_edge16_Node000049_Node000050"><a xlink:title=" ">
<path fill="none" stroke="#63b8ff" d="M810.59,-269.84C784.82,-269.99 755.1,-270.17 733.2,-270.31"/>
<polygon fill="#63b8ff" stroke="#63b8ff" points="810.64,-273.34 820.61,-269.78 810.59,-266.34 810.64,-273.34"/>
</a>
</g>
</g>
<!-- Node54 -->
<g id="Node000054" class="node">
<title>Node54</title>
<g id="a_Node000054"><a xlink:href="race__logic_8c.html#a7f21a1ef55b61f5678170da62e5e51dc" target="_top" xlink:title=" ">
<polygon fill="#fff0f0" stroke="red" points="580,-242 487,-242 487,-223 580,-223 580,-242"/>
<text text-anchor="middle" x="533.5" y="-230" font-family="Helvetica,sans-Serif" font-size="10.00">func_8028FCBC</text>
</a>
</g>
</g>
<!-- Node50&#45;&gt;Node54 -->
<g id="edge17_Node000050_Node000054" class="edge">
<title>Node50&#45;&gt;Node54</title>
<g id="a_edge17_Node000050_Node000054"><a xlink:title=" ">
<path fill="none" stroke="#63b8ff" d="M657.74,-260.88C632.68,-255.11 600.91,-247.8 575.91,-242.04"/>
<polygon fill="#63b8ff" stroke="#63b8ff" points="657.16,-264.34 667.69,-263.17 658.73,-257.52 657.16,-264.34"/>
</a>
</g>
</g>
<!-- Node56&#45;&gt;Node54 -->
<g id="edge19_Node000056_Node000054" class="edge">
<title>Node56&#45;&gt;Node54</title>
<g id="a_edge19_Node000056_Node000054"><a xlink:title=" ">
<path fill="none" stroke="#63b8ff" d="M810.9,-232.5C746.26,-232.5 640.31,-232.5 580.09,-232.5"/>
<polygon fill="#63b8ff" stroke="#63b8ff" points="811.29,-236 821.29,-232.5 811.29,-229 811.29,-236"/>
</a>
</g>
</g>
<!-- Node57&#45;&gt;Node4 -->
<g id="edge26_Node000057_Node000004" class="edge">
<title>Node57&#45;&gt;Node4</title>
<g id="a_edge26_Node000057_Node000004"><a xlink:title=" ">
<path fill="none" stroke="#63b8ff" d="M645.9,-319.2C623.99,-323.97 598.97,-329.43 578.2,-333.97"/>
<polygon fill="#63b8ff" stroke="#63b8ff" points="646.69,-322.6 655.72,-317.05 645.2,-315.77 646.69,-322.6"/>
</a>
</g>
</g>
<!-- Node57&#45;&gt;Node46 -->
<g id="edge27_Node000057_Node000046" class="edge">
<title>Node57&#45;&gt;Node46</title>
<g id="a_edge27_Node000057_Node000046"><a xlink:title=" ">
<path fill="none" stroke="#63b8ff" d="M676.03,-322.35C656.13,-334.45 626.51,-351.3 599,-362.5 589.42,-366.4 578.7,-369.76 568.8,-372.49"/>
<polygon fill="#63b8ff" stroke="#63b8ff" points="678.03,-325.23 684.71,-317.01 674.36,-319.27 678.03,-325.23"/>
</a>
</g>
</g>
<!-- Node58 -->
<g id="Node000058" class="node">
<title>Node58</title>
<g id="a_Node000058"><a xlink:href="ceremony__and__credits_8c.html#a72ad272b5de6f38ab2faf41fffdb2e45" target="_top" xlink:title=" ">
<polygon fill="white" stroke="#666666" points="579.5,-316 487.5,-316 487.5,-297 579.5,-297 579.5,-316"/>
<text text-anchor="middle" x="533.5" y="-304" font-family="Helvetica,sans-Serif" font-size="10.00">func_80283CA8</text>
</a>
</g>
</g>
<!-- Node57&#45;&gt;Node58 -->
<g id="edge21_Node000057_Node000058" class="edge">
<title>Node57&#45;&gt;Node58</title>
<g id="a_edge21_Node000057_Node000058"><a xlink:title=" ">
<path fill="none" stroke="#63b8ff" d="M644.32,-307.17C623.26,-307.04 599.53,-306.89 579.53,-306.77"/>
<polygon fill="#63b8ff" stroke="#63b8ff" points="644.39,-310.67 654.41,-307.23 644.43,-303.67 644.39,-310.67"/>
</a>
</g>
</g>
<!-- Node61 -->
<g id="Node000061" class="node">
<title>Node61</title>
<g id="a_Node000061"><a xlink:href="ceremony__and__credits_8c.html#ac1085f38149d3bacd865ae96e583319f" target="_top" xlink:title=" ">
<polygon fill="white" stroke="#666666" points="580,-279 487,-279 487,-260 580,-260 580,-279"/>
<text text-anchor="middle" x="533.5" y="-267" font-family="Helvetica,sans-Serif" font-size="10.00">func_80283CD0</text>
</a>
</g>
</g>
<!-- Node57&#45;&gt;Node61 -->
<g id="edge24_Node000057_Node000061" class="edge">
<title>Node57&#45;&gt;Node61</title>
<g id="a_edge24_Node000057_Node000061"><a xlink:title=" ">
<path fill="none" stroke="#63b8ff" d="M647.85,-295.6C624.65,-290.26 597.66,-284.05 575.84,-279.02"/>
<polygon fill="#63b8ff" stroke="#63b8ff" points="647.33,-299.08 657.86,-297.91 648.9,-292.26 647.33,-299.08"/>
</a>
</g>
</g>
<!-- Node59 -->
<g id="Node000059" class="node">
<title>Node59</title>
<g id="a_Node000059"><a xlink:href="ceremony__and__credits_8c.html#aff512a83bcf648cbc9086b9b8eab28c3" target="_top" xlink:title=" ">
<polygon fill="white" stroke="#666666" points="424.5,-316 331.5,-316 331.5,-297 424.5,-297 424.5,-316"/>
<text text-anchor="middle" x="378" y="-304" font-family="Helvetica,sans-Serif" font-size="10.00">func_80283D2C</text>
</a>
</g>
</g>
<!-- Node58&#45;&gt;Node59 -->
<g id="edge22_Node000058_Node000059" class="edge">
<title>Node58&#45;&gt;Node59</title>
<g id="a_edge22_Node000058_Node000059"><a xlink:title=" ">
<path fill="none" stroke="#63b8ff" d="M476.84,-306.5C459.72,-306.5 441.07,-306.5 424.7,-306.5"/>
<polygon fill="#63b8ff" stroke="#63b8ff" points="477.28,-310 487.28,-306.5 477.28,-303 477.28,-310"/>
</a>
</g>
</g>
<!-- Node60 -->
<g id="Node000060" class="node">
<title>Node60</title>
<g id="a_Node000060"><a xlink:href="ceremony__and__credits_8c.html#a55b4e78aa7b5e0205e1c2019aef610ff" target="_top" xlink:title=" ">
<polygon fill="white" stroke="#666666" points="424,-279 332,-279 332,-260 424,-260 424,-279"/>
<text text-anchor="middle" x="378" y="-267" font-family="Helvetica,sans-Serif" font-size="10.00">func_8028454C</text>
</a>
</g>
</g>
<!-- Node58&#45;&gt;Node60 -->
<g id="edge23_Node000058_Node000060" class="edge">
<title>Node58&#45;&gt;Node60</title>
<g id="a_edge23_Node000058_Node000060"><a xlink:title=" ">
<path fill="none" stroke="#63b8ff" d="M483.03,-294.57C462.2,-289.56 438.3,-283.79 418.66,-279.06"/>
<polygon fill="#63b8ff" stroke="#63b8ff" points="482.43,-298.03 492.97,-296.97 484.07,-291.23 482.43,-298.03"/>
</a>
</g>
</g>
<!-- Node62 -->
<g id="Node000062" class="node">
<title>Node62</title>
<g id="a_Node000062"><a xlink:href="ceremony__and__credits_8c.html#a437caf83a0f86ebcc0c6df57f4959ef8" target="_top" xlink:title=" ">
<polygon fill="white" stroke="#666666" points="424,-242 332,-242 332,-223 424,-223 424,-242"/>
<text text-anchor="middle" x="378" y="-230" font-family="Helvetica,sans-Serif" font-size="10.00">func_802847CC</text>
</a>
</g>
</g>
<!-- Node61&#45;&gt;Node62 -->
<g id="edge25_Node000061_Node000062" class="edge">
<title>Node61&#45;&gt;Node62</title>
<g id="a_edge25_Node000061_Node000062"><a xlink:title=" ">
<path fill="none" stroke="#63b8ff" d="M483.03,-257.57C462.2,-252.56 438.3,-246.79 418.66,-242.06"/>
<polygon fill="#63b8ff" stroke="#63b8ff" points="482.43,-261.03 492.97,-259.97 484.07,-254.23 482.43,-261.03"/>
</a>
</g>
</g>
<!-- Node64 -->
<g id="Node000064" class="node">
<title>Node64</title>
<g id="a_Node000064"><a xlink:href="actors__extended_8c.html#a58a90bceb7852ff16b389f2bba53817f" target="_top" xlink:title=" ">
<polygon fill="white" stroke="#666666" points="1087,-242 983,-242 983,-223 1087,-223 1087,-242"/>
<text text-anchor="middle" x="1035" y="-230" font-family="Helvetica,sans-Serif" font-size="10.00">use_thunder_item</text>
</a>
</g>
</g>
<!-- Node63&#45;&gt;Node64 -->
<g id="edge29_Node000063_Node000064" class="edge">
<title>Node63&#45;&gt;Node64</title>
<g id="a_edge29_Node000063_Node000064"><a xlink:title=" ">
<path fill="none" stroke="#63b8ff" d="M1127.93,-232.5C1114.54,-232.5 1100.31,-232.5 1087.14,-232.5"/>
<polygon fill="#63b8ff" stroke="#63b8ff" points="1127.98,-236 1137.98,-232.5 1127.98,-229 1127.98,-236"/>
</a>
</g>
</g>
<!-- Node65 -->
<g id="Node000065" class="node">
<title>Node65</title>
<g id="a_Node000065"><a xlink:href="code__80005FD0_8c.html#a124643c54f6424c7d94fcf3fc7b150ea" target="_top" xlink:title=" ">
<polygon fill="white" stroke="#666666" points="932,-168 802,-168 802,-149 932,-149 932,-168"/>
<text text-anchor="middle" x="867" y="-156" font-family="Helvetica,sans-Serif" font-size="10.00">cpu_use_item_strategy</text>
</a>
</g>
</g>
<!-- Node64&#45;&gt;Node65 -->
<g id="edge30_Node000064_Node000065" class="edge">
<title>Node64&#45;&gt;Node65</title>
<g id="a_edge30_Node000064_Node000065"><a xlink:title=" ">
<path fill="none" stroke="#63b8ff" d="M990.91,-219.4C983.06,-216.3 975.11,-212.66 968,-208.5 949.78,-197.83 950.53,-187.62 932,-177.5 925.08,-173.72 917.32,-170.61 909.66,-168.08"/>
<polygon fill="#63b8ff" stroke="#63b8ff" points="989.79,-222.71 1000.38,-222.91 992.22,-216.15 989.79,-222.71"/>
</a>
</g>
</g>
<!-- Node69 -->
<g id="Node000069" class="node">
<title>Node69</title>
<g id="a_Node000069"><a xlink:href="actors__extended_8c.html#a6c53567ce07da53daa086cb9b09076a1" target="_top" xlink:title=" ">
<polygon fill="white" stroke="#666666" points="916,-205 818,-205 818,-186 916,-186 916,-205"/>
<text text-anchor="middle" x="867" y="-193" font-family="Helvetica,sans-Serif" font-size="10.00">player_use_item</text>
</a>
</g>
</g>
<!-- Node64&#45;&gt;Node69 -->
<g id="edge34_Node000064_Node000069" class="edge">
<title>Node64&#45;&gt;Node69</title>
<g id="a_edge34_Node000064_Node000069"><a xlink:title=" ">
<path fill="none" stroke="#63b8ff" d="M981.42,-220.78C958.69,-215.71 932.42,-209.86 910.89,-205.06"/>
<polygon fill="#63b8ff" stroke="#63b8ff" points="980.73,-224.21 991.25,-222.97 982.25,-217.38 980.73,-224.21"/>
</a>
</g>
</g>
<!-- Node66 -->
<g id="Node000066" class="node">
<title>Node66</title>
<g id="a_Node000066"><a xlink:href="code__80005FD0_8c.html#af0170dbecbb754e3e7c1ab190fa14c01" target="_top" xlink:title=" ">
<polygon fill="white" stroke="#666666" points="743.5,-167 657.5,-167 657.5,-148 743.5,-148 743.5,-167"/>
<text text-anchor="middle" x="700.5" y="-155" font-family="Helvetica,sans-Serif" font-size="10.00">update_player</text>
</a>
</g>
</g>
<!-- Node65&#45;&gt;Node66 -->
<g id="edge31_Node000065_Node000066" class="edge">
<title>Node65&#45;&gt;Node66</title>
<g id="a_edge31_Node000065_Node000066"><a xlink:title=" ">
<path fill="none" stroke="#63b8ff" d="M791.78,-158.05C775.35,-157.95 758.49,-157.85 743.85,-157.76"/>
<polygon fill="#63b8ff" stroke="#63b8ff" points="791.91,-161.55 801.93,-158.11 791.95,-154.55 791.91,-161.55"/>
</a>
</g>
</g>
<!-- Node67 -->
<g id="Node000067" class="node">
<title>Node67</title>
<g id="a_Node000067"><a xlink:href="code__80005FD0_8c.html#a0056485e80d615faffaf2715a906c294" target="_top" xlink:title=" ">
<polygon fill="#fff0f0" stroke="red" points="579.5,-204 487.5,-204 487.5,-185 579.5,-185 579.5,-204"/>
<text text-anchor="middle" x="533.5" y="-192" font-family="Helvetica,sans-Serif" font-size="10.00">func_8001C14C</text>
</a>
</g>
</g>
<!-- Node66&#45;&gt;Node67 -->
<g id="edge32_Node000066_Node000067" class="edge">
<title>Node66&#45;&gt;Node67</title>
<g id="a_edge32_Node000066_Node000067"><a xlink:title=" ">
<path fill="none" stroke="#63b8ff" d="M647.62,-169.13C624.91,-174.23 598.59,-180.13 577.06,-184.96"/>
<polygon fill="#63b8ff" stroke="#63b8ff" points="648.44,-172.54 657.44,-166.93 646.91,-165.71 648.44,-172.54"/>
</a>
</g>
</g>
<!-- Node68 -->
<g id="Node000068" class="node">
<title>Node68</title>
<g id="a_Node000068"><a xlink:href="race__logic_8c.html#af3b28af56eee680540843d3bd6bd24ba" target="_top" xlink:title=" ">
<polygon fill="#fff0f0" stroke="red" points="579,-167 488,-167 488,-148 579,-148 579,-167"/>
<text text-anchor="middle" x="533.5" y="-155" font-family="Helvetica,sans-Serif" font-size="10.00">func_8028F474</text>
</a>
</g>
</g>
<!-- Node66&#45;&gt;Node68 -->
<g id="edge33_Node000066_Node000068" class="edge">
<title>Node66&#45;&gt;Node68</title>
<g id="a_edge33_Node000066_Node000068"><a xlink:title=" ">
<path fill="none" stroke="#63b8ff" d="M647.3,-157.5C625.37,-157.5 600.13,-157.5 579.09,-157.5"/>
<polygon fill="#63b8ff" stroke="#63b8ff" points="647.44,-161 657.44,-157.5 647.44,-154 647.44,-161"/>
</a>
</g>
</g>
<!-- Node70 -->
<g id="Node000070" class="node">
<title>Node70</title>
<g id="a_Node000070"><a xlink:href="actors__extended_8c.html#afd7ab650c7f22bef507645c85cc0ca37" target="_top" xlink:title=" ">
<polygon fill="#fff0f0" stroke="red" points="766,-204 635,-204 635,-185 766,-185 766,-204"/>
<text text-anchor="middle" x="700.5" y="-192" font-family="Helvetica,sans-Serif" font-size="10.00">check_player_use_item</text>
</a>
</g>
</g>
<!-- Node69&#45;&gt;Node70 -->
<g id="edge35_Node000069_Node000070" class="edge">
<title>Node69&#45;&gt;Node70</title>
<g id="a_edge35_Node000069_Node000070"><a xlink:title=" ">
<path fill="none" stroke="#63b8ff" d="M807.86,-195.15C794.34,-195.06 779.87,-194.98 766.1,-194.89"/>
<polygon fill="#63b8ff" stroke="#63b8ff" points="807.96,-198.65 817.98,-195.21 808,-191.65 807.96,-198.65"/>
</a>
</g>
</g>
<!-- Node73 -->
<g id="Node000073" class="node">
<title>Node73</title>
<g id="a_Node000073"><a xlink:href="external_8c.html#ab244f7b0fefaa03321288d8a1b265452" target="_top" xlink:title=" ">
<polygon fill="white" stroke="#666666" points="1081,-355 989,-355 989,-336 1081,-336 1081,-355"/>
<text text-anchor="middle" x="1035" y="-343" font-family="Helvetica,sans-Serif" font-size="10.00">func_800C8920</text>
</a>
</g>
</g>
<!-- Node72&#45;&gt;Node73 -->
<g id="edge37_Node000072_Node000073" class="edge">
<title>Node72&#45;&gt;Node73</title>
<g id="a_edge37_Node000072_Node000073"><a xlink:title=" ">
<path fill="none" stroke="#63b8ff" d="M1128.36,-345.5C1112.8,-345.5 1096.08,-345.5 1081.21,-345.5"/>
<polygon fill="#63b8ff" stroke="#63b8ff" points="1128.39,-349 1138.39,-345.5 1128.39,-342 1128.39,-349"/>
</a>
</g>
</g>
<!-- Node74 -->
<g id="Node000074" class="node">
<title>Node74</title>
<g id="a_Node000074"><a xlink:href="external_8c.html#aebe0a7e33d0961a0ad7e4ba40a49a032" target="_top" xlink:title=" ">
<polygon fill="white" stroke="#666666" points="914,-355 820,-355 820,-336 914,-336 914,-355"/>
<text text-anchor="middle" x="867" y="-343" font-family="Helvetica,sans-Serif" font-size="10.00">func_800C8CCC</text>
</a>
</g>
</g>
<!-- Node73&#45;&gt;Node74 -->
<g id="edge38_Node000073_Node000074" class="edge">
<title>Node73&#45;&gt;Node74</title>
<g id="a_edge38_Node000073_Node000074"><a xlink:title=" ">
<path fill="none" stroke="#63b8ff" d="M978.61,-345.5C957.7,-345.5 934.15,-345.5 914.17,-345.5"/>
<polygon fill="#63b8ff" stroke="#63b8ff" points="978.64,-349 988.64,-345.5 978.64,-342 978.64,-349"/>
</a>
</g>
</g>
<!-- Node74&#45;&gt;Node3 -->
<g id="edge39_Node000074_Node000003" class="edge">
<title>Node74&#45;&gt;Node3</title>
<g id="a_edge39_Node000074_Node000003"><a xlink:title=" ">
<path fill="none" stroke="#63b8ff" d="M810.99,-357.2C790,-361.67 766.34,-366.71 746.4,-370.95"/>
<polygon fill="#63b8ff" stroke="#63b8ff" points="812,-360.57 821.05,-355.06 810.54,-353.72 812,-360.57"/>
</a>
</g>
</g>
<!-- Node75&#45;&gt;Node65 -->
<g id="edge41_Node000075_Node000065" class="edge">
<title>Node75&#45;&gt;Node65</title>
<g id="a_edge41_Node000075_Node000065"><a xlink:title=" ">
<path fill="none" stroke="#63b8ff" d="M1128.34,-189.6C1084.7,-184.91 1022.45,-178.06 968,-171.5 956.44,-170.11 944.14,-168.56 932.26,-167.03"/>
<polygon fill="#63b8ff" stroke="#63b8ff" points="1128.14,-193.1 1138.46,-190.69 1128.89,-186.14 1128.14,-193.1"/>
</a>
</g>
</g>
<!-- Node76&#45;&gt;Node65 -->
<g id="edge43_Node000076_Node000065" class="edge">
<title>Node76&#45;&gt;Node65</title>
<g id="a_edge43_Node000076_Node000065"><a xlink:title=" ">
<path fill="none" stroke="#63b8ff" d="M1127.48,-157.68C1072.63,-157.85 989.52,-158.12 932.21,-158.3"/>
<polygon fill="#63b8ff" stroke="#63b8ff" points="1127.72,-161.18 1137.71,-157.65 1127.7,-154.18 1127.72,-161.18"/>
</a>
</g>
</g>
<!-- Node78 -->
<g id="Node000078" class="node">
<title>Node78</title>
<g id="a_Node000078"><a xlink:href="effects_8c.html#a3bed0c3da44bfea1616d42194ba2f527" target="_top" xlink:title=" ">
<polygon fill="white" stroke="#666666" points="1102,-128 968,-128 968,-109 1102,-109 1102,-128"/>
<text text-anchor="middle" x="1035" y="-116" font-family="Helvetica,sans-Serif" font-size="10.00">apply_boo_sound_effect</text>
</a>
</g>
</g>
<!-- Node77&#45;&gt;Node78 -->
<g id="edge45_Node000077_Node000078" class="edge">
<title>Node77&#45;&gt;Node78</title>
<g id="a_edge45_Node000077_Node000078"><a xlink:title=" ">
<path fill="none" stroke="#63b8ff" d="M1128.21,-119.12C1119.7,-119.07 1110.84,-119.01 1102.14,-118.95"/>
<polygon fill="#63b8ff" stroke="#63b8ff" points="1128.36,-122.62 1138.39,-119.19 1128.41,-115.62 1128.36,-122.62"/>
</a>
</g>
</g>
<!-- Node79 -->
<g id="Node000079" class="node">
<title>Node79</title>
<g id="a_Node000079"><a xlink:href="player__controller_8c.html#ac1629fdff5af23b077201884ffff7f59" target="_top" xlink:title=" ">
<polygon fill="white" stroke="#666666" points="922.5,-128 811.5,-128 811.5,-109 922.5,-109 922.5,-128"/>
<text text-anchor="middle" x="867" y="-116" font-family="Helvetica,sans-Serif" font-size="10.00">apply_sound_effect</text>
</a>
</g>
</g>
<!-- Node78&#45;&gt;Node79 -->
<g id="edge46_Node000078_Node000079" class="edge">
<title>Node78&#45;&gt;Node79</title>
<g id="a_edge46_Node000078_Node000079"><a xlink:title=" ">
<path fill="none" stroke="#63b8ff" d="M957.62,-118.5C945.82,-118.5 933.85,-118.5 922.65,-118.5"/>
<polygon fill="#63b8ff" stroke="#63b8ff" points="957.92,-122 967.92,-118.5 957.92,-115 957.92,-122"/>
</a>
</g>
</g>
<!-- Node80 -->
<g id="Node000080" class="node">
<title>Node80</title>
<g id="a_Node000080"><a xlink:href="player__controller_8c.html#aa0180d1a83641b05b377865bd1348574" target="_top" xlink:title=" ">
<polygon fill="white" stroke="#666666" points="746.5,-93 654.5,-93 654.5,-74 746.5,-74 746.5,-93"/>
<text text-anchor="middle" x="700.5" y="-81" font-family="Helvetica,sans-Serif" font-size="10.00">func_8002B830</text>
</a>
</g>
</g>
<!-- Node79&#45;&gt;Node80 -->
<g id="edge47_Node000079_Node000080" class="edge">
<title>Node79&#45;&gt;Node80</title>
<g id="a_edge47_Node000079_Node000080"><a xlink:title=" ">
<path fill="none" stroke="#63b8ff" d="M810.99,-106.8C790,-102.33 766.34,-97.29 746.4,-93.05"/>
<polygon fill="#63b8ff" stroke="#63b8ff" points="810.54,-110.28 821.05,-108.94 812,-103.43 810.54,-110.28"/>
</a>
</g>
</g>
<!-- Node81 -->
<g id="Node000081" class="node">
<title>Node81</title>
<g id="a_Node000081"><a xlink:href="player__controller_8c.html#a5bb23c788b1a40f8ed2a56ccbd4d5aea" target="_top" xlink:title=" ">
<polygon fill="#fff0f0" stroke="red" points="599,-56 468,-56 468,-37 599,-37 599,-56"/>
<text text-anchor="middle" x="533.5" y="-44" font-family="Helvetica,sans-Serif" font-size="10.00">control_cpu_movement</text>
</a>
</g>
</g>
<!-- Node80&#45;&gt;Node81 -->
<g id="edge48_Node000080_Node000081" class="edge">
<title>Node80&#45;&gt;Node81</title>
<g id="a_edge48_Node000080_Node000081"><a xlink:title=" ">
<path fill="none" stroke="#63b8ff" d="M647.23,-71.78C624.64,-66.71 598.53,-60.86 577.13,-56.06"/>
<polygon fill="#63b8ff" stroke="#63b8ff" points="646.48,-75.2 657.01,-73.97 648.02,-68.37 646.48,-75.2"/>
</a>
</g>
</g>
<!-- Node87 -->
<g id="Node000087" class="node">
<title>Node87</title>
<g id="a_Node000087"><a xlink:href="player__controller_8c.html#a2d26c33b4b9015d7cf720e6d5530d376" target="_top" xlink:title=" ">
<polygon fill="#fff0f0" stroke="red" points="579.5,-19 487.5,-19 487.5,0 579.5,0 579.5,-19"/>
<text text-anchor="middle" x="533.5" y="-7" font-family="Helvetica,sans-Serif" font-size="10.00">func_8002D268</text>
</a>
</g>
</g>
<!-- Node80&#45;&gt;Node87 -->
<g id="edge49_Node000080_Node000087" class="edge">
<title>Node80&#45;&gt;Node87</title>
<g id="a_edge49_Node000080_Node000087"><a xlink:title=" ">
<path fill="none" stroke="#63b8ff" d="M646.44,-70.33C642.46,-68.61 638.6,-66.67 635,-64.5 615.35,-52.65 618.73,-39.21 599,-27.5 593.1,-24 586.5,-21.16 579.82,-18.85"/>
<polygon fill="#63b8ff" stroke="#63b8ff" points="645.28,-73.64 655.87,-73.98 647.81,-67.11 645.28,-73.64"/>
</a>
</g>
</g>
<!-- Node93 -->
<g id="Node000093" class="node">
<title>Node93</title>
<g id="a_Node000093"><a xlink:href="player__controller_8c.html#a87b6ad382858836f156b58f417bdef2a" target="_top" xlink:title=" ">
<polygon fill="#fff0f0" stroke="red" points="579,-130 488,-130 488,-111 579,-111 579,-130"/>
<text text-anchor="middle" x="533.5" y="-118" font-family="Helvetica,sans-Serif" font-size="10.00">func_8002E594</text>
</a>
</g>
</g>
<!-- Node80&#45;&gt;Node93 -->
<g id="edge50_Node000080_Node000093" class="edge">
<title>Node80&#45;&gt;Node93</title>
<g id="a_edge50_Node000080_Node000093"><a xlink:title=" ">
<path fill="none" stroke="#63b8ff" d="M647.23,-95.22C624.64,-100.29 598.53,-106.14 577.13,-110.94"/>
<polygon fill="#63b8ff" stroke="#63b8ff" points="648.02,-98.63 657.01,-93.03 646.48,-91.8 648.02,-98.63"/>
</a>
</g>
</g>
<!-- Node94 -->
<g id="Node000094" class="node">
<title>Node94</title>
<g id="a_Node000094"><a xlink:href="player__controller_8c.html#a105e6b6fca9198633b8990b0da71cd25" target="_top" xlink:title=" ">
<polygon fill="#fff0f0" stroke="red" points="579.5,-93 487.5,-93 487.5,-74 579.5,-74 579.5,-93"/>
<text text-anchor="middle" x="533.5" y="-81" font-family="Helvetica,sans-Serif" font-size="10.00">func_80038C6C</text>
</a>
</g>
</g>
<!-- Node80&#45;&gt;Node94 -->
<g id="edge51_Node000080_Node000094" class="edge">
<title>Node80&#45;&gt;Node94</title>
<g id="a_edge51_Node000080_Node000094"><a xlink:title=" ">
<path fill="none" stroke="#63b8ff" d="M644.32,-83.5C623.26,-83.5 599.53,-83.5 579.53,-83.5"/>
<polygon fill="#63b8ff" stroke="#63b8ff" points="644.41,-87 654.41,-83.5 644.41,-80 644.41,-87"/>
</a>
</g>
</g>
<!-- Node96 -->
<g id="Node000096" class="node">
<title>Node96</title>
<g id="a_Node000096"><a xlink:href="effects_8c.html#a1a4dae35e70897080437d2f53647bce7" target="_top" xlink:title=" ">
<polygon fill="white" stroke="#666666" points="1085,-90 985,-90 985,-71 1085,-71 1085,-90"/>
<text text-anchor="middle" x="1035" y="-78" font-family="Helvetica,sans-Serif" font-size="10.00">apply_boo_effect</text>
</a>
</g>
</g>
<!-- Node95&#45;&gt;Node96 -->
<g id="edge53_Node000095_Node000096" class="edge">
<title>Node95&#45;&gt;Node96</title>
<g id="a_edge53_Node000095_Node000096"><a xlink:title=" ">
<path fill="none" stroke="#63b8ff" d="M1128.59,-80.5C1114.29,-80.5 1099,-80.5 1085.05,-80.5"/>
<polygon fill="#63b8ff" stroke="#63b8ff" points="1128.79,-84 1138.79,-80.5 1128.79,-77 1128.79,-84"/>
</a>
</g>
</g>
<!-- Node98 -->
<g id="Node000098" class="node">
<title>Node98</title>
<g id="a_Node000098"><a xlink:href="effects_8c.html#acf5f63c4161df4bae4d9b0d47492fa75" target="_top" xlink:title=" ">
<polygon fill="white" stroke="#666666" points="1081,-53 989,-53 989,-34 1081,-34 1081,-53"/>
<text text-anchor="middle" x="1035" y="-41" font-family="Helvetica,sans-Serif" font-size="10.00">func_8008FB30</text>
</a>
</g>
</g>
<!-- Node95&#45;&gt;Node98 -->
<g id="edge59_Node000095_Node000098" class="edge">
<title>Node95&#45;&gt;Node98</title>
<g id="a_edge59_Node000095_Node000098"><a xlink:title=" ">
<path fill="none" stroke="#63b8ff" d="M1136.03,-68.51C1116.01,-63.5 1093.09,-57.77 1074.24,-53.06"/>
<polygon fill="#63b8ff" stroke="#63b8ff" points="1135.34,-71.94 1145.89,-70.97 1137.03,-65.15 1135.34,-71.94"/>
</a>
</g>
</g>
<!-- Node97 -->
<g id="Node000097" class="node">
<title>Node97</title>
<g id="a_Node000097"><a xlink:href="player__controller_8c.html#a3e56dd5a3a59a001b19bcf27621b824b" target="_top" xlink:title=" ">
<polygon fill="white" stroke="#666666" points="739,-56 662,-56 662,-37 739,-37 739,-56"/>
<text text-anchor="middle" x="700.5" y="-44" font-family="Helvetica,sans-Serif" font-size="10.00">apply_effect</text>
</a>
</g>
</g>
<!-- Node96&#45;&gt;Node97 -->
<g id="edge54_Node000096_Node000097" class="edge">
<title>Node96&#45;&gt;Node97</title>
<g id="a_edge54_Node000096_Node000097"><a xlink:title=" ">
<path fill="none" stroke="#63b8ff" d="M974.6,-76.24C927.68,-72.67 860.57,-67.1 802,-60.5 781.17,-58.15 757.99,-54.96 739.14,-52.22"/>
<polygon fill="#63b8ff" stroke="#63b8ff" points="974.36,-79.73 984.59,-77 974.89,-72.75 974.36,-79.73"/>
</a>
</g>
</g>
<!-- Node97&#45;&gt;Node81 -->
<g id="edge55_Node000097_Node000081" class="edge">
<title>Node97&#45;&gt;Node81</title>
<g id="a_edge55_Node000097_Node000081"><a xlink:title=" ">
<path fill="none" stroke="#63b8ff" d="M651.26,-46.5C634.93,-46.5 616.42,-46.5 599.03,-46.5"/>
<polygon fill="#63b8ff" stroke="#63b8ff" points="651.65,-50 661.65,-46.5 651.65,-43 651.65,-50"/>
</a>
</g>
</g>
<!-- Node97&#45;&gt;Node87 -->
<g id="edge56_Node000097_Node000087" class="edge">
<title>Node97&#45;&gt;Node87</title>
<g id="a_edge56_Node000097_Node000087"><a xlink:title=" ">
<path fill="none" stroke="#63b8ff" d="M651.85,-35.81C628.25,-30.52 599.99,-24.19 577.12,-19.06"/>
<polygon fill="#63b8ff" stroke="#63b8ff" points="651.12,-39.24 661.65,-38.01 652.65,-32.41 651.12,-39.24"/>
</a>
</g>
</g>
<!-- Node97&#45;&gt;Node93 -->
<g id="edge57_Node000097_Node000093" class="edge">
<title>Node97&#45;&gt;Node93</title>
<g id="a_edge57_Node000097_Node000093"><a xlink:title=" ">
<path fill="none" stroke="#63b8ff" d="M652.38,-56.41C646.31,-58.6 640.36,-61.27 635,-64.5 615.07,-76.51 618.93,-90.49 599,-102.5 592.93,-106.16 586.08,-109.1 579.19,-111.45"/>
<polygon fill="#63b8ff" stroke="#63b8ff" points="653.49,-59.73 661.93,-53.32 651.34,-53.06 653.49,-59.73"/>
</a>
</g>
</g>
<!-- Node97&#45;&gt;Node94 -->
<g id="edge58_Node000097_Node000094" class="edge">
<title>Node97&#45;&gt;Node94</title>
<g id="a_edge58_Node000097_Node000094"><a xlink:title=" ">
<path fill="none" stroke="#63b8ff" d="M651.85,-57.19C628.25,-62.48 599.99,-68.81 577.12,-73.94"/>
<polygon fill="#63b8ff" stroke="#63b8ff" points="652.65,-60.59 661.65,-54.99 651.12,-53.76 652.65,-60.59"/>
</a>
</g>
</g>
<!-- Node99 -->
<g id="Node000099" class="node">
<title>Node99</title>
<g id="a_Node000099"><a xlink:href="effects_8c.html#ad34129e6236b319a5bcedae86d59bc2c" target="_top" xlink:title=" ">
<polygon fill="white" stroke="#666666" points="912.5,-52 821.5,-52 821.5,-33 912.5,-33 912.5,-52"/>
<text text-anchor="middle" x="867" y="-40" font-family="Helvetica,sans-Serif" font-size="10.00">func_80090970</text>
</a>
</g>
</g>
<!-- Node98&#45;&gt;Node99 -->
<g id="edge60_Node000098_Node000099" class="edge">
<title>Node98&#45;&gt;Node99</title>
<g id="a_edge60_Node000098_Node000099"><a xlink:title=" ">
<path fill="none" stroke="#63b8ff" d="M978.4,-43.17C957.04,-43.04 932.94,-42.89 912.73,-42.77"/>
<polygon fill="#63b8ff" stroke="#63b8ff" points="978.62,-46.67 988.64,-43.23 978.66,-39.67 978.62,-46.67"/>
</a>
</g>
</g>
<!-- Node99&#45;&gt;Node97 -->
<g id="edge61_Node000099_Node000097" class="edge">
<title>Node99&#45;&gt;Node97</title>
<g id="a_edge61_Node000099_Node000097"><a xlink:title=" ">
<path fill="none" stroke="#63b8ff" d="M811.23,-43.83C787.55,-44.41 760.44,-45.07 739.09,-45.59"/>
<polygon fill="#63b8ff" stroke="#63b8ff" points="811.57,-47.32 821.48,-43.58 811.4,-40.33 811.57,-47.32"/>
</a>
</g>
</g>
</g>
</svg>
