<?xml version="1.0" encoding="UTF-8" standalone="no"?>
<!DOCTYPE svg PUBLIC "-//W3C//DTD SVG 1.1//EN"
 "http://www.w3.org/Graphics/SVG/1.1/DTD/svg11.dtd">
<!-- Generated by graphviz version 2.43.0 (0)
 -->
<!-- Title: func_800CB14C Pages: 1 -->
<svg width="387pt" height="138pt"
 viewBox="0.00 0.00 387.00 138.00" xmlns="http://www.w3.org/2000/svg" xmlns:xlink="http://www.w3.org/1999/xlink">

<svg id="main" version="1.1" xmlns="http://www.w3.org/2000/svg" xmlns:xlink="http://www.w3.org/1999/xlink" xml:space="preserve">

<style type="text/css"><![CDATA[
.node, .edge {opacity: 0.7;}
.node.selected, .edge.selected {opacity: 1;}
.edge:hover path { stroke: red; }
.edge:hover polygon { stroke: red; fill: red; }
]]></style>
<script type="application/ecmascript" xlink:href="svg.min.js"/>
<svg id="graph" class="graph">
<g id="graph0" class="graph" transform="scale(1 1) rotate(0) translate(4 134)">
<title>func_800CB14C</title>
<!-- Node1 -->
<g id="Node000001" class="node">
<title>Node1</title>
<g id="a_Node000001"><a xlink:title=" ">
<polygon fill="#999999" stroke="#666666" points="93,-111 0,-111 0,-92 93,-92 93,-111"/>
<text text-anchor="middle" x="46.5" y="-99" font-family="Helvetica,sans-Serif" font-size="10.00">func_800CB14C</text>
</a>
</g>
</g>
<!-- Node2 -->
<g id="Node000002" class="node">
<title>Node2</title>
<g id="a_Node000002"><a xlink:href="external_8c.html#ac48b7cbfcaa7737f892877ead85e4ba7" target="_top" xlink:title=" ">
<polygon fill="white" stroke="#666666" points="364,-130 272,-130 272,-111 364,-111 364,-130"/>
<text text-anchor="middle" x="318" y="-118" font-family="Helvetica,sans-Serif" font-size="10.00">func_800C3448</text>
</a>
</g>
</g>
<!-- Node1&#45;&gt;Node2 -->
<g id="edge1_Node000001_Node000002" class="edge">
<title>Node1&#45;&gt;Node2</title>
<g id="a_edge1_Node000001_Node000002"><a xlink:title=" ">
<path fill="none" stroke="#63b8ff" d="M80.51,-111.01C95.21,-114.77 112.83,-118.64 129,-120.5 173.31,-125.6 223.88,-125.25 261.41,-123.82"/>
<polygon fill="#63b8ff" stroke="#63b8ff" points="261.78,-127.31 271.63,-123.39 261.49,-120.32 261.78,-127.31"/>
</a>
</g>
</g>
<!-- Node3 -->
<g id="Node000003" class="node">
<title>Node3</title>
<g id="a_Node000003"><a xlink:href="external_8c.html#abe95a0078365cac07b3648b4a92dca8e" target="_top" xlink:title=" ">
<polygon fill="white" stroke="#666666" points="221,-111 129,-111 129,-92 221,-92 221,-111"/>
<text text-anchor="middle" x="175" y="-99" font-family="Helvetica,sans-Serif" font-size="10.00">func_800C8EF8</text>
</a>
</g>
</g>
<!-- Node1&#45;&gt;Node3 -->
<g id="edge2_Node000001_Node000003" class="edge">
<title>Node1&#45;&gt;Node3</title>
<g id="a_edge2_Node000001_Node000003"><a xlink:title=" ">
<path fill="none" stroke="#63b8ff" d="M93.17,-101.5C101.42,-101.5 110.11,-101.5 118.6,-101.5"/>
<polygon fill="#63b8ff" stroke="#63b8ff" points="118.82,-105 128.82,-101.5 118.82,-98 118.82,-105"/>
</a>
</g>
</g>
<!-- Node4 -->
<g id="Node000004" class="node">
<title>Node4</title>
<g id="a_Node000004"><a xlink:href="external_8c.html#a6584dbe6b07d52e25d5ca892468153a5" target="_top" xlink:title=" ">
<polygon fill="white" stroke="#666666" points="219.5,-74 130.5,-74 130.5,-55 219.5,-55 219.5,-74"/>
<text text-anchor="middle" x="175" y="-62" font-family="Helvetica,sans-Serif" font-size="10.00">play_sequence</text>
</a>
</g>
</g>
<!-- Node1&#45;&gt;Node4 -->
<g id="edge4_Node000001_Node000004" class="edge">
<title>Node1&#45;&gt;Node4</title>
<g id="a_edge4_Node000001_Node000004"><a xlink:title=" ">
<path fill="none" stroke="#63b8ff" d="M80.08,-91.97C95.6,-87.43 114.37,-81.94 131.03,-77.07"/>
<polygon fill="#63b8ff" stroke="#63b8ff" points="132.48,-80.29 141.09,-74.12 130.51,-73.57 132.48,-80.29"/>
</a>
</g>
</g>
<!-- Node3&#45;&gt;Node2 -->
<g id="edge3_Node000003_Node000002" class="edge">
<title>Node3&#45;&gt;Node2</title>
<g id="a_edge3_Node000003_Node000002"><a xlink:title=" ">
<path fill="none" stroke="#63b8ff" d="M221,-107.56C233.97,-109.31 248.28,-111.24 261.8,-113.06"/>
<polygon fill="#63b8ff" stroke="#63b8ff" points="261.57,-116.56 271.94,-114.43 262.5,-109.62 261.57,-116.56"/>
</a>
</g>
</g>
<!-- Node4&#45;&gt;Node2 -->
<g id="edge5_Node000004_Node000002" class="edge">
<title>Node4&#45;&gt;Node2</title>
<g id="a_edge5_Node000004_Node000002"><a xlink:title=" ">
<path fill="none" stroke="#63b8ff" d="M199.99,-74.18C206.83,-77.06 214.26,-80.3 221,-83.5 237.35,-91.25 240.26,-95.65 257,-102.5 261.54,-104.36 266.35,-106.12 271.18,-107.77"/>
<polygon fill="#63b8ff" stroke="#63b8ff" points="270.48,-111.22 281.07,-110.96 272.63,-104.56 270.48,-111.22"/>
</a>
</g>
</g>
<!-- Node5 -->
<g id="Node000005" class="node">
<title>Node5</title>
<g id="a_Node000005"><a xlink:href="HMAS_8cpp.html#a943f713ceca4307e6e1bb48253c6ad6c" target="_top" xlink:title=" ">
<polygon fill="white" stroke="#666666" points="379,-93 257,-93 257,-74 379,-74 379,-93"/>
<text text-anchor="middle" x="318" y="-81" font-family="Helvetica,sans-Serif" font-size="10.00">HMAS_IsIDRegistered</text>
</a>
</g>
</g>
<!-- Node4&#45;&gt;Node5 -->
<g id="edge6_Node000004_Node000005" class="edge">
<title>Node4&#45;&gt;Node5</title>
<g id="a_edge6_Node000004_Node000005"><a xlink:title=" ">
<path fill="none" stroke="#63b8ff" d="M219.84,-70.41C228.45,-71.57 237.68,-72.81 246.9,-74.05"/>
<polygon fill="#63b8ff" stroke="#63b8ff" points="246.49,-77.53 256.87,-75.4 247.43,-70.59 246.49,-77.53"/>
</a>
</g>
</g>
<!-- Node6 -->
<g id="Node000006" class="node">
<title>Node6</title>
<g id="a_Node000006"><a xlink:href="HMAS_8cpp.html#a704c0426d4f7027c277b28346062dff3" target="_top" xlink:title=" ">
<polygon fill="white" stroke="#666666" points="354,-56 282,-56 282,-37 354,-37 354,-56"/>
<text text-anchor="middle" x="318" y="-44" font-family="Helvetica,sans-Serif" font-size="10.00">HMAS_Play</text>
</a>
</g>
</g>
<!-- Node4&#45;&gt;Node6 -->
<g id="edge7_Node000004_Node000006" class="edge">
<title>Node4&#45;&gt;Node6</title>
<g id="a_edge7_Node000004_Node000006"><a xlink:title=" ">
<path fill="none" stroke="#63b8ff" d="M219.84,-58.9C236.31,-56.8 255.05,-54.41 271.66,-52.29"/>
<polygon fill="#63b8ff" stroke="#63b8ff" points="272.2,-55.75 281.68,-51.01 271.32,-48.8 272.2,-55.75"/>
</a>
</g>
</g>
<!-- Node7 -->
<g id="Node000007" class="node">
<title>Node7</title>
<g id="a_Node000007"><a xlink:href="HMAS_8cpp.html#aa651a0e94efa3ddb0a63e1b4233c0aab" target="_top" xlink:title=" ">
<polygon fill="white" stroke="#666666" points="354.5,-19 281.5,-19 281.5,0 354.5,0 354.5,-19"/>
<text text-anchor="middle" x="318" y="-7" font-family="Helvetica,sans-Serif" font-size="10.00">HMAS_Stop</text>
</a>
</g>
</g>
<!-- Node4&#45;&gt;Node7 -->
<g id="edge8_Node000004_Node000007" class="edge">
<title>Node4&#45;&gt;Node7</title>
<g id="a_edge8_Node000004_Node000007"><a xlink:title=" ">
<path fill="none" stroke="#63b8ff" d="M195,-54.92C211.22,-46.97 235.3,-35.67 257,-27.5 261.9,-25.66 267.08,-23.87 272.26,-22.18"/>
<polygon fill="#63b8ff" stroke="#63b8ff" points="273.66,-25.41 282.15,-19.08 271.56,-18.73 273.66,-25.41"/>
</a>
</g>
</g>
</g>
</svg>
</svg>

<style type='text/css'>
<![CDATA[
[data-mouse-over-selected='false'] { opacity: 0.7; }
[data-mouse-over-selected='true']  { opacity: 1.0; }
]]>
</style>
<script type="application/ecmascript"><![CDATA[
document.addEventListener('DOMContentLoaded', (event) => {
  highlightEdges();
  highlightAdjacentNodes();
});
]]></script>
</svg>
