<?xml version="1.0" encoding="UTF-8" standalone="no"?>
<!DOCTYPE svg PUBLIC "-//W3C//DTD SVG 1.1//EN"
 "http://www.w3.org/Graphics/SVG/1.1/DTD/svg11.dtd">
<!-- Generated by graphviz version 2.43.0 (0)
 -->
<!-- Title: src/actors/falling_rock/update.inc.c Pages: 1 -->
<svg width="684pt" height="379pt"
 viewBox="0.00 0.00 683.50 379.00" xmlns="http://www.w3.org/2000/svg" xmlns:xlink="http://www.w3.org/1999/xlink">
<g id="graph0" class="graph" transform="scale(1 1) rotate(0) translate(4 375)">
<title>src/actors/falling_rock/update.inc.c</title>
<!-- Node1 -->
<g id="Node000001" class="node">
<title>Node1</title>
<g id="a_Node000001"><a xlink:title=" ">
<polygon fill="#999999" stroke="#666666" points="418.5,-371 313.5,-371 313.5,-341 418.5,-341 418.5,-371"/>
<text text-anchor="start" x="321.5" y="-359" font-family="Helvetica,sans-Serif" font-size="10.00">src/actors/falling</text>
<text text-anchor="middle" x="366" y="-348" font-family="Helvetica,sans-Serif" font-size="10.00">_rock/update.inc.c</text>
</a>
</g>
</g>
<!-- Node2 -->
<g id="Node000002" class="node">
<title>Node2</title>
<g id="a_Node000002"><a xlink:href="actors_8h.html" target="_top" xlink:title=" ">
<polygon fill="white" stroke="#666666" points="307,-305 251,-305 251,-286 307,-286 307,-305"/>
<text text-anchor="middle" x="279" y="-293" font-family="Helvetica,sans-Serif" font-size="10.00">actors.h</text>
</a>
</g>
</g>
<!-- Node1&#45;&gt;Node2 -->
<g id="edge1_Node000001_Node000002" class="edge">
<title>Node1&#45;&gt;Node2</title>
<g id="a_edge1_Node000001_Node000002"><a xlink:title=" ">
<path fill="none" stroke="#63b8ff" d="M344.94,-340.84C331.46,-331.77 314.01,-320.04 300.45,-310.92"/>
<polygon fill="#63b8ff" stroke="#63b8ff" points="302.03,-307.77 291.78,-305.09 298.13,-313.58 302.03,-307.77"/>
</a>
</g>
</g>
<!-- Node9 -->
<g id="Node000009" class="node">
<title>Node9</title>
<g id="a_Node000009"><a xlink:href="code__800029B0_8h.html" target="_top" xlink:title=" ">
<polygon fill="white" stroke="#666666" points="317.5,-250 214.5,-250 214.5,-231 317.5,-231 317.5,-250"/>
<text text-anchor="middle" x="266" y="-238" font-family="Helvetica,sans-Serif" font-size="10.00">code_800029B0.h</text>
</a>
</g>
</g>
<!-- Node1&#45;&gt;Node9 -->
<g id="edge18_Node000001_Node000009" class="edge">
<title>Node1&#45;&gt;Node9</title>
<g id="a_edge18_Node000001_Node000009"><a xlink:title=" ">
<path fill="none" stroke="#63b8ff" d="M357.05,-340.84C347.63,-326.4 331.98,-303.66 316,-286 306.47,-275.47 294.65,-264.85 284.89,-256.63"/>
<polygon fill="#63b8ff" stroke="#63b8ff" points="286.9,-253.75 276.96,-250.08 282.44,-259.15 286.9,-253.75"/>
</a>
</g>
</g>
<!-- Node11 -->
<g id="Node000011" class="node">
<title>Node11</title>
<g id="a_Node000011"><a xlink:href="main_8h.html" target="_top" xlink:title=" ">
<polygon fill="white" stroke="#666666" points="444,-195 394,-195 394,-176 444,-176 444,-195"/>
<text text-anchor="middle" x="419" y="-183" font-family="Helvetica,sans-Serif" font-size="10.00">main.h</text>
</a>
</g>
</g>
<!-- Node1&#45;&gt;Node11 -->
<g id="edge19_Node000001_Node000011" class="edge">
<title>Node1&#45;&gt;Node11</title>
<g id="a_edge19_Node000001_Node000011"><a xlink:title=" ">
<path fill="none" stroke="#63b8ff" d="M370.43,-340.92C379.99,-310.52 402.57,-238.73 413.24,-204.83"/>
<polygon fill="#63b8ff" stroke="#63b8ff" points="416.58,-205.84 416.25,-195.25 409.91,-203.74 416.58,-205.84"/>
</a>
</g>
</g>
<!-- Node16 -->
<g id="Node000016" class="node">
<title>Node16</title>
<g id="a_Node000016"><a xlink:href="choco__mountain__data_8h.html" target="_top" xlink:title=" ">
<polygon fill="white" stroke="#666666" points="596.5,-140 465.5,-140 465.5,-110 596.5,-110 596.5,-140"/>
<text text-anchor="start" x="473.5" y="-128" font-family="Helvetica,sans-Serif" font-size="10.00">assets/choco_mountain</text>
<text text-anchor="middle" x="531" y="-117" font-family="Helvetica,sans-Serif" font-size="10.00">_data.h</text>
</a>
</g>
</g>
<!-- Node1&#45;&gt;Node16 -->
<g id="edge26_Node000001_Node000016" class="edge">
<title>Node1&#45;&gt;Node16</title>
<g id="a_edge26_Node000001_Node000016"><a xlink:title=" ">
<path fill="none" stroke="#63b8ff" d="M376.32,-340.68C404.23,-301.95 481.32,-194.95 514.96,-148.27"/>
<polygon fill="#63b8ff" stroke="#63b8ff" points="517.89,-150.19 520.89,-140.03 512.21,-146.09 517.89,-150.19"/>
</a>
</g>
</g>
<!-- Node3 -->
<g id="Node000003" class="node">
<title>Node3</title>
<g id="a_Node000003"><a xlink:href="actor__types_8h.html" target="_top" xlink:title=" ">
<polygon fill="white" stroke="#666666" points="209.5,-195 126.5,-195 126.5,-176 209.5,-176 209.5,-195"/>
<text text-anchor="middle" x="168" y="-183" font-family="Helvetica,sans-Serif" font-size="10.00">actor_types.h</text>
</a>
</g>
</g>
<!-- Node2&#45;&gt;Node3 -->
<g id="edge2_Node000002_Node000003" class="edge">
<title>Node2&#45;&gt;Node3</title>
<g id="a_edge2_Node000002_Node000003"><a xlink:title=" ">
<path fill="none" stroke="#63b8ff" d="M258.92,-285.86C242.88,-278.2 220.58,-265.8 205,-250 192.01,-236.82 181.86,-218.2 175.5,-204.52"/>
<polygon fill="#63b8ff" stroke="#63b8ff" points="178.63,-202.95 171.4,-195.21 172.23,-205.77 178.63,-202.95"/>
</a>
</g>
</g>
<!-- Node2&#45;&gt;Node9 -->
<g id="edge10_Node000002_Node000009" class="edge">
<title>Node2&#45;&gt;Node9</title>
<g id="a_edge10_Node000002_Node000009"><a xlink:title=" ">
<path fill="none" stroke="#63b8ff" d="M276.85,-285.75C275.13,-278.72 272.65,-268.62 270.5,-259.84"/>
<polygon fill="#63b8ff" stroke="#63b8ff" points="273.89,-258.97 268.11,-250.09 267.09,-260.63 273.89,-258.97"/>
</a>
</g>
</g>
<!-- Node10 -->
<g id="Node000010" class="node">
<title>Node10</title>
<g id="a_Node000010"><a xlink:href="camera_8h.html" target="_top" xlink:title=" ">
<polygon fill="white" stroke="#666666" points="335,-195 273,-195 273,-176 335,-176 335,-195"/>
<text text-anchor="middle" x="304" y="-183" font-family="Helvetica,sans-Serif" font-size="10.00">camera.h</text>
</a>
</g>
</g>
<!-- Node2&#45;&gt;Node10 -->
<g id="edge17_Node000002_Node000010" class="edge">
<title>Node2&#45;&gt;Node10</title>
<g id="a_edge17_Node000002_Node000010"><a xlink:title=" ">
<path fill="none" stroke="#63b8ff" d="M293.37,-285.96C304.87,-278.21 320.18,-265.62 327,-250 333.72,-234.61 325.72,-216.56 317.37,-203.65"/>
<polygon fill="#63b8ff" stroke="#63b8ff" points="320.07,-201.4 311.43,-195.27 314.35,-205.45 320.07,-201.4"/>
</a>
</g>
</g>
<!-- Node4 -->
<g id="Node000004" class="node">
<title>Node4</title>
<g id="a_Node000004"><a xlink:title=" ">
<polygon fill="#e0e0e0" stroke="#999999" points="368,-74 288,-74 288,-55 368,-55 368,-74"/>
<text text-anchor="middle" x="328" y="-62" font-family="Helvetica,sans-Serif" font-size="10.00">libultraship.h</text>
</a>
</g>
</g>
<!-- Node3&#45;&gt;Node4 -->
<g id="edge3_Node000003_Node000004" class="edge">
<title>Node3&#45;&gt;Node4</title>
<g id="a_edge3_Node000003_Node000004"><a xlink:title=" ">
<path fill="none" stroke="#63b8ff" d="M167.12,-175.9C166.06,-160.62 166.17,-128.58 183,-110 207,-83.49 246.34,-72.59 278,-68.19"/>
<polygon fill="#63b8ff" stroke="#63b8ff" points="278.47,-71.66 287.97,-66.98 277.62,-64.71 278.47,-71.66"/>
</a>
</g>
</g>
<!-- Node5 -->
<g id="Node000005" class="node">
<title>Node5</title>
<g id="a_Node000005"><a xlink:href="macros_8h.html" target="_top" xlink:title=" ">
<polygon fill="white" stroke="#666666" points="62,-134.5 0,-134.5 0,-115.5 62,-115.5 62,-134.5"/>
<text text-anchor="middle" x="31" y="-122.5" font-family="Helvetica,sans-Serif" font-size="10.00">macros.h</text>
</a>
</g>
</g>
<!-- Node3&#45;&gt;Node5 -->
<g id="edge4_Node000003_Node000005" class="edge">
<title>Node3&#45;&gt;Node5</title>
<g id="a_edge4_Node000003_Node000005"><a xlink:title=" ">
<path fill="none" stroke="#63b8ff" d="M148.08,-175.99C125.05,-166.16 86.92,-149.88 60.46,-138.58"/>
<polygon fill="#63b8ff" stroke="#63b8ff" points="61.52,-135.22 50.95,-134.52 58.77,-141.66 61.52,-135.22"/>
</a>
</g>
</g>
<!-- Node7 -->
<g id="Node000007" class="node">
<title>Node7</title>
<g id="a_Node000007"><a xlink:href="common__structs_8h.html" target="_top" xlink:title=" ">
<polygon fill="white" stroke="#666666" points="299.5,-134.5 192.5,-134.5 192.5,-115.5 299.5,-115.5 299.5,-134.5"/>
<text text-anchor="middle" x="246" y="-122.5" font-family="Helvetica,sans-Serif" font-size="10.00">common_structs.h</text>
</a>
</g>
</g>
<!-- Node3&#45;&gt;Node7 -->
<g id="edge7_Node000003_Node000007" class="edge">
<title>Node3&#45;&gt;Node7</title>
<g id="a_edge7_Node000003_Node000007"><a xlink:title=" ">
<path fill="none" stroke="#63b8ff" d="M179.51,-175.87C191.84,-166.62 211.62,-151.78 226.41,-140.69"/>
<polygon fill="#63b8ff" stroke="#63b8ff" points="228.54,-143.47 234.44,-134.67 224.34,-137.87 228.54,-143.47"/>
</a>
</g>
</g>
<!-- Node8 -->
<g id="Node000008" class="node">
<title>Node8</title>
<g id="a_Node000008"><a xlink:title=" ">
<polygon fill="#e0e0e0" stroke="#999999" points="136,-134.5 80,-134.5 80,-115.5 136,-115.5 136,-134.5"/>
<text text-anchor="middle" x="108" y="-122.5" font-family="Helvetica,sans-Serif" font-size="10.00">assert.h</text>
</a>
</g>
</g>
<!-- Node3&#45;&gt;Node8 -->
<g id="edge9_Node000003_Node000008" class="edge">
<title>Node3&#45;&gt;Node8</title>
<g id="a_edge9_Node000003_Node000008"><a xlink:title=" ">
<path fill="none" stroke="#63b8ff" d="M159.15,-175.87C150.02,-166.97 135.58,-152.89 124.36,-141.95"/>
<polygon fill="#63b8ff" stroke="#63b8ff" points="126.49,-139.14 116.89,-134.67 121.61,-144.15 126.49,-139.14"/>
</a>
</g>
</g>
<!-- Node5&#45;&gt;Node4 -->
<g id="edge6_Node000005_Node000004" class="edge">
<title>Node5&#45;&gt;Node4</title>
<g id="a_edge6_Node000005_Node000004"><a xlink:title=" ">
<path fill="none" stroke="#63b8ff" d="M53.22,-115.49C58.96,-113.5 65.16,-111.52 71,-110 141.88,-91.59 225.77,-78.68 277.94,-71.67"/>
<polygon fill="#63b8ff" stroke="#63b8ff" points="278.49,-75.13 287.94,-70.35 277.57,-68.19 278.49,-75.13"/>
</a>
</g>
</g>
<!-- Node6 -->
<g id="Node000006" class="node">
<title>Node6</title>
<g id="a_Node000006"><a xlink:href="math_8h.html" target="_top" xlink:title=" ">
<polygon fill="white" stroke="#666666" points="56.5,-74 5.5,-74 5.5,-55 56.5,-55 56.5,-74"/>
<text text-anchor="middle" x="31" y="-62" font-family="Helvetica,sans-Serif" font-size="10.00">math.h</text>
</a>
</g>
</g>
<!-- Node5&#45;&gt;Node6 -->
<g id="edge5_Node000005_Node000006" class="edge">
<title>Node5&#45;&gt;Node6</title>
<g id="a_edge5_Node000005_Node000006"><a xlink:title=" ">
<path fill="none" stroke="#63b8ff" d="M31,-115.37C31,-107.25 31,-94.81 31,-84.39"/>
<polygon fill="#63b8ff" stroke="#63b8ff" points="34.5,-84.17 31,-74.17 27.5,-84.17 34.5,-84.17"/>
</a>
</g>
</g>
<!-- Node7&#45;&gt;Node4 -->
<g id="edge8_Node000007_Node000004" class="edge">
<title>Node7&#45;&gt;Node4</title>
<g id="a_edge8_Node000007_Node000004"><a xlink:title=" ">
<path fill="none" stroke="#63b8ff" d="M258.1,-115.37C271.06,-106.12 291.86,-91.28 307.4,-80.19"/>
<polygon fill="#63b8ff" stroke="#63b8ff" points="309.74,-82.82 315.85,-74.17 305.68,-77.13 309.74,-82.82"/>
</a>
</g>
</g>
<!-- Node9&#45;&gt;Node3 -->
<g id="edge13_Node000009_Node000003" class="edge">
<title>Node9&#45;&gt;Node3</title>
<g id="a_edge13_Node000009_Node000003"><a xlink:title=" ">
<path fill="none" stroke="#63b8ff" d="M250.25,-230.98C234.77,-222.61 210.91,-209.7 192.86,-199.95"/>
<polygon fill="#63b8ff" stroke="#63b8ff" points="194.49,-196.85 184.03,-195.17 191.16,-203.01 194.49,-196.85"/>
</a>
</g>
</g>
<!-- Node9&#45;&gt;Node4 -->
<g id="edge12_Node000009_Node000004" class="edge">
<title>Node9&#45;&gt;Node4</title>
<g id="a_edge12_Node000009_Node000004"><a xlink:title=" ">
<path fill="none" stroke="#63b8ff" d="M295.5,-230.97C312.94,-224.24 333.59,-212.93 344,-195 364.59,-159.55 348.07,-109.5 336.62,-83.21"/>
<polygon fill="#63b8ff" stroke="#63b8ff" points="339.79,-81.71 332.43,-74.09 333.42,-84.64 339.79,-81.71"/>
</a>
</g>
</g>
<!-- Node9&#45;&gt;Node5 -->
<g id="edge11_Node000009_Node000005" class="edge">
<title>Node9&#45;&gt;Node5</title>
<g id="a_edge11_Node000009_Node000005"><a xlink:title=" ">
<path fill="none" stroke="#63b8ff" d="M221.57,-230.96C191.01,-223.97 150.11,-212.37 117,-195 90.15,-180.91 63.6,-157.84 47.26,-142.3"/>
<polygon fill="#63b8ff" stroke="#63b8ff" points="49.31,-139.41 39.7,-134.95 44.43,-144.43 49.31,-139.41"/>
</a>
</g>
</g>
<!-- Node9&#45;&gt;Node10 -->
<g id="edge14_Node000009_Node000010" class="edge">
<title>Node9&#45;&gt;Node10</title>
<g id="a_edge14_Node000009_Node000010"><a xlink:title=" ">
<path fill="none" stroke="#63b8ff" d="M272.27,-230.75C277.59,-223.34 285.36,-212.5 291.88,-203.41"/>
<polygon fill="#63b8ff" stroke="#63b8ff" points="294.86,-205.26 297.84,-195.09 289.17,-201.18 294.86,-205.26"/>
</a>
</g>
</g>
<!-- Node10&#45;&gt;Node4 -->
<g id="edge15_Node000010_Node000004" class="edge">
<title>Node10&#45;&gt;Node4</title>
<g id="a_edge15_Node000010_Node000004"><a xlink:title=" ">
<path fill="none" stroke="#63b8ff" d="M305.73,-175.94C309.58,-156.82 318.97,-110.27 324.24,-84.12"/>
<polygon fill="#63b8ff" stroke="#63b8ff" points="327.68,-84.8 326.22,-74.3 320.82,-83.41 327.68,-84.8"/>
</a>
</g>
</g>
<!-- Node10&#45;&gt;Node7 -->
<g id="edge16_Node000010_Node000007" class="edge">
<title>Node10&#45;&gt;Node7</title>
<g id="a_edge16_Node000010_Node000007"><a xlink:title=" ">
<path fill="none" stroke="#63b8ff" d="M295.44,-175.87C286.62,-166.97 272.66,-152.89 261.82,-141.95"/>
<polygon fill="#63b8ff" stroke="#63b8ff" points="264.12,-139.3 254.59,-134.67 259.15,-144.23 264.12,-139.3"/>
</a>
</g>
</g>
<!-- Node11&#45;&gt;Node7 -->
<g id="edge25_Node000011_Node000007" class="edge">
<title>Node11&#45;&gt;Node7</title>
<g id="a_edge25_Node000011_Node000007"><a xlink:title=" ">
<path fill="none" stroke="#63b8ff" d="M393.84,-175.99C364.12,-165.94 314.48,-149.16 281.01,-137.84"/>
<polygon fill="#63b8ff" stroke="#63b8ff" points="281.78,-134.4 271.19,-134.52 279.54,-141.04 281.78,-134.4"/>
</a>
</g>
</g>
<!-- Node12 -->
<g id="Node000012" class="node">
<title>Node12</title>
<g id="a_Node000012"><a xlink:href="mk64_8h.html" target="_top" xlink:title=" ">
<polygon fill="white" stroke="#666666" points="447.5,-134.5 394.5,-134.5 394.5,-115.5 447.5,-115.5 447.5,-134.5"/>
<text text-anchor="middle" x="421" y="-122.5" font-family="Helvetica,sans-Serif" font-size="10.00">mk64.h</text>
</a>
</g>
</g>
<!-- Node11&#45;&gt;Node12 -->
<g id="edge20_Node000011_Node000012" class="edge">
<title>Node11&#45;&gt;Node12</title>
<g id="a_edge20_Node000011_Node000012"><a xlink:title=" ">
<path fill="none" stroke="#63b8ff" d="M419.3,-175.87C419.57,-167.75 420,-155.31 420.35,-144.89"/>
<polygon fill="#63b8ff" stroke="#63b8ff" points="423.86,-144.78 420.7,-134.67 416.86,-144.54 423.86,-144.78"/>
</a>
</g>
</g>
<!-- Node12&#45;&gt;Node4 -->
<g id="edge21_Node000012_Node000004" class="edge">
<title>Node12&#45;&gt;Node4</title>
<g id="a_edge21_Node000012_Node000004"><a xlink:title=" ">
<path fill="none" stroke="#63b8ff" d="M407.28,-115.37C392.3,-105.95 368.11,-90.73 350.38,-79.58"/>
<polygon fill="#63b8ff" stroke="#63b8ff" points="352.11,-76.53 341.78,-74.17 348.38,-82.45 352.11,-76.53"/>
</a>
</g>
</g>
<!-- Node13 -->
<g id="Node000013" class="node">
<title>Node13</title>
<g id="a_Node000013"><a xlink:href="string_8h.html" target="_top" xlink:title=" ">
<polygon fill="white" stroke="#666666" points="443.5,-74 390.5,-74 390.5,-55 443.5,-55 443.5,-74"/>
<text text-anchor="middle" x="417" y="-62" font-family="Helvetica,sans-Serif" font-size="10.00">string.h</text>
</a>
</g>
</g>
<!-- Node12&#45;&gt;Node13 -->
<g id="edge22_Node000012_Node000013" class="edge">
<title>Node12&#45;&gt;Node13</title>
<g id="a_edge22_Node000012_Node000013"><a xlink:title=" ">
<path fill="none" stroke="#63b8ff" d="M420.41,-115.37C419.85,-107.25 419,-94.81 418.29,-84.39"/>
<polygon fill="#63b8ff" stroke="#63b8ff" points="421.77,-83.91 417.59,-74.17 414.78,-84.38 421.77,-83.91"/>
</a>
</g>
</g>
<!-- Node15 -->
<g id="Node000015" class="node">
<title>Node15</title>
<g id="a_Node000015"><a xlink:title=" ">
<polygon fill="#e0e0e0" stroke="#999999" points="540,-74 462,-74 462,-55 540,-55 540,-74"/>
<text text-anchor="middle" x="501" y="-62" font-family="Helvetica,sans-Serif" font-size="10.00">libultra/gbi.h</text>
</a>
</g>
</g>
<!-- Node12&#45;&gt;Node15 -->
<g id="edge24_Node000012_Node000015" class="edge">
<title>Node12&#45;&gt;Node15</title>
<g id="a_edge24_Node000012_Node000015"><a xlink:title=" ">
<path fill="none" stroke="#63b8ff" d="M432.8,-115.37C445.45,-106.12 465.74,-91.28 480.91,-80.19"/>
<polygon fill="#63b8ff" stroke="#63b8ff" points="483.14,-82.9 489.15,-74.17 479.01,-77.24 483.14,-82.9"/>
</a>
</g>
</g>
<!-- Node14 -->
<g id="Node000014" class="node">
<title>Node14</title>
<g id="a_Node000014"><a xlink:title=" ">
<polygon fill="#e0e0e0" stroke="#999999" points="462,-19 372,-19 372,0 462,0 462,-19"/>
<text text-anchor="middle" x="417" y="-7" font-family="Helvetica,sans-Serif" font-size="10.00">libultra/types.h</text>
</a>
</g>
</g>
<!-- Node13&#45;&gt;Node14 -->
<g id="edge23_Node000013_Node000014" class="edge">
<title>Node13&#45;&gt;Node14</title>
<g id="a_edge23_Node000013_Node000014"><a xlink:title=" ">
<path fill="none" stroke="#63b8ff" d="M417,-54.75C417,-47.8 417,-37.85 417,-29.13"/>
<polygon fill="#63b8ff" stroke="#63b8ff" points="420.5,-29.09 417,-19.09 413.5,-29.09 420.5,-29.09"/>
</a>
</g>
</g>
<!-- Node16&#45;&gt;Node4 -->
<g id="edge27_Node000016_Node000004" class="edge">
<title>Node16&#45;&gt;Node4</title>
<g id="a_edge27_Node000016_Node000004"><a xlink:title=" ">
<path fill="none" stroke="#63b8ff" d="M482.38,-109.99C447.19,-99.85 400.24,-86.32 367.4,-76.85"/>
<polygon fill="#63b8ff" stroke="#63b8ff" points="368.26,-73.46 357.68,-74.05 366.32,-80.19 368.26,-73.46"/>
</a>
</g>
</g>
<!-- Node16&#45;&gt;Node15 -->
<g id="edge28_Node000016_Node000015" class="edge">
<title>Node16&#45;&gt;Node15</title>
<g id="a_edge28_Node000016_Node000015"><a xlink:title=" ">
<path fill="none" stroke="#63b8ff" d="M523.74,-109.84C519.65,-101.87 514.51,-91.84 510.14,-83.33"/>
<polygon fill="#63b8ff" stroke="#63b8ff" points="513.17,-81.57 505.5,-74.27 506.94,-84.76 513.17,-81.57"/>
</a>
</g>
</g>
<!-- Node17 -->
<g id="Node000017" class="node">
<title>Node17</title>
<g id="a_Node000017"><a xlink:href="align__asset__macro_8h.html" target="_top" xlink:title=" ">
<polygon fill="white" stroke="#666666" points="675.5,-74 558.5,-74 558.5,-55 675.5,-55 675.5,-74"/>
<text text-anchor="middle" x="617" y="-62" font-family="Helvetica,sans-Serif" font-size="10.00">align_asset_macro.h</text>
</a>
</g>
</g>
<!-- Node16&#45;&gt;Node17 -->
<g id="edge29_Node000016_Node000017" class="edge">
<title>Node16&#45;&gt;Node17</title>
<g id="a_edge29_Node000016_Node000017"><a xlink:title=" ">
<path fill="none" stroke="#63b8ff" d="M551.82,-109.84C565.15,-100.77 582.39,-89.04 595.79,-79.92"/>
<polygon fill="#63b8ff" stroke="#63b8ff" points="598.07,-82.61 604.37,-74.09 594.13,-76.83 598.07,-82.61"/>
</a>
</g>
</g>
</g>
</svg>
