<?xml version="1.0" encoding="UTF-8" standalone="no"?>
<!DOCTYPE svg PUBLIC "-//W3C//DTD SVG 1.1//EN"
 "http://www.w3.org/Graphics/SVG/1.1/DTD/svg11.dtd">
<!-- Generated by graphviz version 2.43.0 (0)
 -->
<!-- Title: src/port/interpolation/FrameInterpolation.h Pages: 1 -->
<!--zoomable 159 -->

<svg id="main" version="1.1" xmlns="http://www.w3.org/2000/svg" xmlns:xlink="http://www.w3.org/1999/xlink" xml:space="preserve" onload="init(evt)">

<style type="text/css"><![CDATA[
.node, .edge {opacity: 0.7;}
.node.selected, .edge.selected {opacity: 1;}
.edge:hover path { stroke: red; }
.edge:hover polygon { stroke: red; fill: red; }
]]></style>

<defs>
  <circle id="rim" cx="0" cy="0" r="7"/>
  <circle id="rim2" cx="0" cy="0" r="3.5"/>
  <g id="zoomPlus">
    <use xlink:href="#rim" fill="#404040"><set attributeName="fill" to="#808080" begin="zoomplus.mouseover" end="zoomplus.mouseout"/></use>
    <path d="M-4,0h8M0,-4v8" fill="none" stroke="white" stroke-width="1.5" pointer-events="none"/>
  </g>
  <g id="zoomMin">
    <use xlink:href="#rim" fill="#404040"><set attributeName="fill" to="#808080" begin="zoomminus.mouseover" end="zoomminus.mouseout"/></use>
    <path d="M-4,0h8" fill="none" stroke="white" stroke-width="1.5" pointer-events="none"/>
  </g>
  <g id="arrowUp" transform="translate(30 24)">
    <use xlink:href="#rim"/>
    <path pointer-events="none" fill="none" stroke="white" stroke-width="1.5" d="M0,-3.0v7 M-2.5,-0.5L0,-3.0L2.5,-0.5"/>
  </g>
  <g id="arrowRight" transform="rotate(90) translate(36 -43)">
    <use xlink:href="#rim"/>
    <path pointer-events="none" fill="none" stroke="white" stroke-width="1.5" d="M0,-3.0v7 M-2.5,-0.5L0,-3.0L2.5,-0.5"/>
  </g>
  <g id="arrowDown" transform="rotate(180) translate(-30 -48)">
    <use xlink:href="#rim"/>
    <path pointer-events="none" fill="none" stroke="white" stroke-width="1.5" d="M0,-3.0v7 M-2.5,-0.5L0,-3.0L2.5,-0.5"/>
  </g>
  <g id="arrowLeft" transform="rotate(270) translate(-36 17)">
    <use xlink:href="#rim"/>
    <path pointer-events="none" fill="none" stroke="white" stroke-width="1.5" d="M0,-3.0v7 M-2.5,-0.5L0,-3.0L2.5,-0.5"/>
  </g>
  <g id="resetDef">
    <use xlink:href="#rim2" fill="#404040"><set attributeName="fill" to="#808080" begin="reset.mouseover" end="reset.mouseout"/></use>
  </g>
</defs>
<script type="application/ecmascript">
var viewWidth = 5779;
var viewHeight = 159;
var sectionId = 'dynsection-1';
</script>
<script type="application/ecmascript" xlink:href="svg.min.js"/>
<svg id="graph" class="graph">
<g id="viewport">
<title>src/port/interpolation/FrameInterpolation.h</title>
<!-- Node1 -->
<g id="Node000001" class="node">
<title>Node1</title>
<g id="a_Node000001"><a xlink:title=" ">
<polygon fill="#999999" stroke="#666666" points="2905,-151 2783,-151 2783,-121 2905,-121 2905,-151"/>
<text text-anchor="start" x="2791" y="-139" font-family="Helvetica,sans-Serif" font-size="10.00">src/port/interpolation</text>
<text text-anchor="middle" x="2844" y="-128" font-family="Helvetica,sans-Serif" font-size="10.00">/FrameInterpolation.h</text>
</a>
</g>
</g>
<!-- Node2 -->
<g id="Node000002" class="node">
<title>Node2</title>
<g id="a_Node000002"><a xlink:href="fake__item__box_2render_8inc_8c.html" target="_top" xlink:title=" ">
<polygon fill="white" stroke="#666666" points="116,-85 0,-85 0,-55 116,-55 116,-85"/>
<text text-anchor="start" x="8" y="-73" font-family="Helvetica,sans-Serif" font-size="10.00">src/actors/fake_item</text>
<text text-anchor="middle" x="58" y="-62" font-family="Helvetica,sans-Serif" font-size="10.00">_box/render.inc.c</text>
</a>
</g>
</g>
<!-- Node1&#45;&gt;Node2 -->
<g id="edge1_Node000001_Node000002" class="edge">
<title>Node1&#45;&gt;Node2</title>
<g id="a_edge1_Node000001_Node000002"><a xlink:title=" ">
<path fill="none" stroke="#63b8ff" d="M2772.84,-134.43C2371.5,-131.11 399.21,-113.43 130,-85 125.44,-84.52 120.74,-83.9 116.03,-83.18"/>
<polygon fill="#63b8ff" stroke="#63b8ff" points="2772.84,-137.93 2782.86,-134.51 2772.89,-130.93 2772.84,-137.93"/>
</a>
</g>
</g>
<!-- Node3 -->
<g id="Node000003" class="node">
<title>Node3</title>
<g id="a_Node000003"><a xlink:href="actors_8c.html" target="_top" xlink:title=" ">
<polygon fill="white" stroke="#666666" points="338.5,-19 233.5,-19 233.5,0 338.5,0 338.5,-19"/>
<text text-anchor="middle" x="286" y="-7" font-family="Helvetica,sans-Serif" font-size="10.00">src/racing/actors.c</text>
</a>
</g>
</g>
<!-- Node1&#45;&gt;Node3 -->
<g id="edge44_Node000001_Node000003" class="edge">
<title>Node1&#45;&gt;Node3</title>
<g id="a_edge44_Node000001_Node000003"><a xlink:title=" ">
<path fill="none" stroke="#63b8ff" d="M2772.64,-135.04C2351.75,-135.08 210.04,-132.93 163,-85 132.66,-54.09 199.94,-30.86 246.46,-19.09"/>
<polygon fill="#63b8ff" stroke="#63b8ff" points="2772.85,-138.54 2782.85,-135.03 2772.85,-131.54 2772.85,-138.54"/>
</a>
</g>
</g>
<!-- Node4 -->
<g id="Node000004" class="node">
<title>Node4</title>
<g id="a_Node000004"><a xlink:href="falling__rock_2render_8inc_8c.html" target="_top" xlink:title=" ">
<polygon fill="white" stroke="#666666" points="274,-85 172,-85 172,-55 274,-55 274,-85"/>
<text text-anchor="start" x="180" y="-73" font-family="Helvetica,sans-Serif" font-size="10.00">src/actors/falling</text>
<text text-anchor="middle" x="223" y="-62" font-family="Helvetica,sans-Serif" font-size="10.00">_rock/render.inc.c</text>
</a>
</g>
</g>
<!-- Node1&#45;&gt;Node4 -->
<g id="edge3_Node000001_Node000004" class="edge">
<title>Node1&#45;&gt;Node4</title>
<g id="a_edge3_Node000001_Node000004"><a xlink:title=" ">
<path fill="none" stroke="#63b8ff" d="M2772.54,-134.5C2384.16,-131.66 535.53,-116.57 283,-85 280.13,-84.64 277.21,-84.2 274.26,-83.71"/>
<polygon fill="#63b8ff" stroke="#63b8ff" points="2772.77,-138 2782.79,-134.57 2772.82,-131 2772.77,-138"/>
</a>
</g>
</g>
<!-- Node5 -->
<g id="Node000005" class="node">
<title>Node5</title>
<g id="a_Node000005"><a xlink:href="item__box_2render_8inc_8c.html" target="_top" xlink:title=" ">
<polygon fill="white" stroke="#666666" points="405.5,-85 292.5,-85 292.5,-55 405.5,-55 405.5,-85"/>
<text text-anchor="start" x="300.5" y="-73" font-family="Helvetica,sans-Serif" font-size="10.00">src/actors/item_box</text>
<text text-anchor="middle" x="349" y="-62" font-family="Helvetica,sans-Serif" font-size="10.00">/render.inc.c</text>
</a>
</g>
</g>
<!-- Node1&#45;&gt;Node5 -->
<g id="edge5_Node000001_Node000005" class="edge">
<title>Node1&#45;&gt;Node5</title>
<g id="a_edge5_Node000001_Node000005"><a xlink:title=" ">
<path fill="none" stroke="#63b8ff" d="M2772.53,-135.35C2422.76,-136.76 889.06,-139.66 415,-85 411.97,-84.65 408.88,-84.23 405.77,-83.75"/>
<polygon fill="#63b8ff" stroke="#63b8ff" points="2772.79,-138.84 2782.78,-135.3 2772.76,-131.84 2772.79,-138.84"/>
</a>
</g>
</g>
<!-- Node6 -->
<g id="Node000006" class="node">
<title>Node6</title>
<g id="a_Node000006"><a xlink:href="mario__sign_2render_8inc_8c.html" target="_top" xlink:title=" ">
<polygon fill="white" stroke="#666666" points="544.5,-85 423.5,-85 423.5,-55 544.5,-55 544.5,-85"/>
<text text-anchor="start" x="431.5" y="-73" font-family="Helvetica,sans-Serif" font-size="10.00">src/actors/mario_sign</text>
<text text-anchor="middle" x="484" y="-62" font-family="Helvetica,sans-Serif" font-size="10.00">/render.inc.c</text>
</a>
</g>
</g>
<!-- Node1&#45;&gt;Node6 -->
<g id="edge7_Node000001_Node000006" class="edge">
<title>Node1&#45;&gt;Node6</title>
<g id="a_edge7_Node000001_Node000006"><a xlink:title=" ">
<path fill="none" stroke="#63b8ff" d="M2772.83,-135.13C2435.95,-135.48 999.51,-134.03 554,-85 550.92,-84.66 547.77,-84.25 544.6,-83.8"/>
<polygon fill="#63b8ff" stroke="#63b8ff" points="2772.94,-138.63 2782.94,-135.12 2772.94,-131.63 2772.94,-138.63"/>
</a>
</g>
</g>
<!-- Node7 -->
<g id="Node000007" class="node">
<title>Node7</title>
<g id="a_Node000007"><a xlink:href="yoshi__egg_2render_8inc_8c.html" target="_top" xlink:title=" ">
<polygon fill="white" stroke="#666666" points="679,-85 563,-85 563,-55 679,-55 679,-85"/>
<text text-anchor="start" x="571" y="-73" font-family="Helvetica,sans-Serif" font-size="10.00">src/actors/yoshi_egg</text>
<text text-anchor="middle" x="621" y="-62" font-family="Helvetica,sans-Serif" font-size="10.00">/render.inc.c</text>
</a>
</g>
</g>
<!-- Node1&#45;&gt;Node7 -->
<g id="edge9_Node000001_Node000007" class="edge">
<title>Node1&#45;&gt;Node7</title>
<g id="a_edge9_Node000001_Node000007"><a xlink:title=" ">
<path fill="none" stroke="#63b8ff" d="M2772.53,-135.1C2447.33,-135.28 1105.28,-133.03 688,-85 685.17,-84.67 682.28,-84.29 679.36,-83.85"/>
<polygon fill="#63b8ff" stroke="#63b8ff" points="2772.76,-138.6 2782.76,-135.09 2772.76,-131.6 2772.76,-138.6"/>
</a>
</g>
</g>
<!-- Node8 -->
<g id="Node000008" class="node">
<title>Node8</title>
<g id="a_Node000008"><a xlink:href="animation_8c.html" target="_top" xlink:title=" ">
<polygon fill="white" stroke="#666666" points="789,-79.5 697,-79.5 697,-60.5 789,-60.5 789,-79.5"/>
<text text-anchor="middle" x="743" y="-67.5" font-family="Helvetica,sans-Serif" font-size="10.00">src/animation.c</text>
</a>
</g>
</g>
<!-- Node1&#45;&gt;Node8 -->
<g id="edge11_Node000001_Node000008" class="edge">
<title>Node1&#45;&gt;Node8</title>
<g id="a_edge11_Node000001_Node000008"><a xlink:title=" ">
<path fill="none" stroke="#63b8ff" d="M2772.34,-135.36C2457.14,-136.64 1192.21,-138.29 799,-85 790.16,-83.8 780.7,-81.75 772.12,-79.57"/>
<polygon fill="#63b8ff" stroke="#63b8ff" points="2772.73,-138.86 2782.71,-135.32 2772.7,-131.86 2772.73,-138.86"/>
</a>
</g>
</g>
<!-- Node9 -->
<g id="Node000009" class="node">
<title>Node9</title>
<g id="a_Node000009"><a xlink:href="camera_8c.html" target="_top" xlink:title=" ">
<polygon fill="white" stroke="#666666" points="886.5,-79.5 807.5,-79.5 807.5,-60.5 886.5,-60.5 886.5,-79.5"/>
<text text-anchor="middle" x="847" y="-67.5" font-family="Helvetica,sans-Serif" font-size="10.00">src/camera.c</text>
</a>
</g>
</g>
<!-- Node1&#45;&gt;Node9 -->
<g id="edge12_Node000001_Node000009" class="edge">
<title>Node1&#45;&gt;Node9</title>
<g id="a_edge12_Node000001_Node000009"><a xlink:title=" ">
<path fill="none" stroke="#63b8ff" d="M2772.39,-134.23C2443.28,-130.56 1083.89,-113.78 896,-85 888.13,-83.79 879.74,-81.71 872.16,-79.5"/>
<polygon fill="#63b8ff" stroke="#63b8ff" points="2772.71,-137.74 2782.74,-134.35 2772.78,-130.74 2772.71,-137.74"/>
</a>
</g>
</g>
<!-- Node10 -->
<g id="Node000010" class="node">
<title>Node10</title>
<g id="a_Node000010"><a xlink:href="code__80057C60_8c.html" target="_top" xlink:title=" ">
<polygon fill="white" stroke="#666666" points="1023.5,-79.5 904.5,-79.5 904.5,-60.5 1023.5,-60.5 1023.5,-79.5"/>
<text text-anchor="middle" x="964" y="-67.5" font-family="Helvetica,sans-Serif" font-size="10.00">src/code_80057C60.c</text>
</a>
</g>
</g>
<!-- Node1&#45;&gt;Node10 -->
<g id="edge13_Node000001_Node000010" class="edge">
<title>Node1&#45;&gt;Node10</title>
<g id="a_edge13_Node000001_Node000010"><a xlink:title=" ">
<path fill="none" stroke="#63b8ff" d="M2772.56,-134.67C2480.81,-133.09 1378.89,-124.57 1033,-85 1022.19,-83.76 1010.56,-81.69 999.98,-79.52"/>
<polygon fill="#63b8ff" stroke="#63b8ff" points="2772.57,-138.17 2782.59,-134.73 2772.61,-131.17 2772.57,-138.17"/>
</a>
</g>
</g>
<!-- Node11 -->
<g id="Node000011" class="node">
<title>Node11</title>
<g id="a_Node000011"><a xlink:href="podium__ceremony__actors_8c.html" target="_top" xlink:title=" ">
<polygon fill="white" stroke="#666666" points="1202.5,-85 1041.5,-85 1041.5,-55 1202.5,-55 1202.5,-85"/>
<text text-anchor="start" x="1049.5" y="-73" font-family="Helvetica,sans-Serif" font-size="10.00">src/ending/podium_ceremony</text>
<text text-anchor="middle" x="1122" y="-62" font-family="Helvetica,sans-Serif" font-size="10.00">_actors.c</text>
</a>
</g>
</g>
<!-- Node1&#45;&gt;Node11 -->
<g id="edge14_Node000001_Node000011" class="edge">
<title>Node1&#45;&gt;Node11</title>
<g id="a_edge14_Node000001_Node000011"><a xlink:title=" ">
<path fill="none" stroke="#63b8ff" d="M2772.56,-133.99C2499.5,-129.94 1521.67,-113.72 1212,-85 1209.01,-84.72 1205.97,-84.41 1202.89,-84.07"/>
<polygon fill="#63b8ff" stroke="#63b8ff" points="2772.69,-137.49 2782.74,-134.14 2772.79,-130.49 2772.69,-137.49"/>
</a>
</g>
</g>
<!-- Node12 -->
<g id="Node000012" class="node">
<title>Node12</title>
<g id="a_Node000012"><a xlink:href="HM__Intro_8cpp.html" target="_top" xlink:title=" ">
<polygon fill="white" stroke="#666666" points="1355,-79.5 1221,-79.5 1221,-60.5 1355,-60.5 1355,-79.5"/>
<text text-anchor="middle" x="1288" y="-67.5" font-family="Helvetica,sans-Serif" font-size="10.00">src/engine/HM_Intro.cpp</text>
</a>
</g>
</g>
<!-- Node1&#45;&gt;Node12 -->
<g id="edge15_Node000001_Node000012" class="edge">
<title>Node1&#45;&gt;Node12</title>
<g id="a_edge15_Node000001_Node000012"><a xlink:title=" ">
<path fill="none" stroke="#63b8ff" d="M2772.46,-133.99C2515.8,-130.15 1641.94,-115.13 1364,-85 1352.26,-83.73 1339.61,-81.68 1328.07,-79.53"/>
<polygon fill="#63b8ff" stroke="#63b8ff" points="2772.72,-137.5 2782.77,-134.14 2772.82,-130.5 2772.72,-137.5"/>
</a>
</g>
</g>
<!-- Node13 -->
<g id="Node000013" class="node">
<title>Node13</title>
<g id="a_Node000013"><a xlink:href="Matrix_8cpp.html" target="_top" xlink:title=" ">
<polygon fill="white" stroke="#666666" points="1495,-79.5 1373,-79.5 1373,-60.5 1495,-60.5 1495,-79.5"/>
<text text-anchor="middle" x="1434" y="-67.5" font-family="Helvetica,sans-Serif" font-size="10.00">src/engine/Matrix.cpp</text>
</a>
</g>
</g>
<!-- Node1&#45;&gt;Node13 -->
<g id="edge16_Node000001_Node000013" class="edge">
<title>Node1&#45;&gt;Node13</title>
<g id="a_edge16_Node000001_Node000013"><a xlink:title=" ">
<path fill="none" stroke="#63b8ff" d="M2772.86,-133.82C2532.83,-129.61 1754.01,-114.02 1505,-85 1494.02,-83.72 1482.2,-81.67 1471.41,-79.52"/>
<polygon fill="#63b8ff" stroke="#63b8ff" points="2772.8,-137.32 2782.86,-134 2772.93,-130.32 2772.8,-137.32"/>
</a>
</g>
</g>
<!-- Node14 -->
<g id="Node000014" class="node">
<title>Node14</title>
<g id="a_Node000014"><a xlink:href="Smoke_8cpp.html" target="_top" xlink:title=" ">
<polygon fill="white" stroke="#666666" points="1636.5,-79.5 1513.5,-79.5 1513.5,-60.5 1636.5,-60.5 1636.5,-79.5"/>
<text text-anchor="middle" x="1575" y="-67.5" font-family="Helvetica,sans-Serif" font-size="10.00">src/engine/Smoke.cpp</text>
</a>
</g>
</g>
<!-- Node1&#45;&gt;Node14 -->
<g id="edge17_Node000001_Node000014" class="edge">
<title>Node1&#45;&gt;Node14</title>
<g id="a_edge17_Node000001_Node000014"><a xlink:title=" ">
<path fill="none" stroke="#63b8ff" d="M2772.57,-133.45C2549.27,-128.4 1866.15,-111.14 1646,-85 1635.15,-83.71 1623.47,-81.68 1612.78,-79.56"/>
<polygon fill="#63b8ff" stroke="#63b8ff" points="2772.78,-136.96 2782.85,-133.69 2772.93,-129.96 2772.78,-136.96"/>
</a>
</g>
</g>
<!-- Node15 -->
<g id="Node000015" class="node">
<title>Node15</title>
<g id="a_Node000015"><a xlink:href="Finishline_8cpp.html" target="_top" xlink:title=" ">
<polygon fill="white" stroke="#666666" points="1825,-79.5 1655,-79.5 1655,-60.5 1825,-60.5 1825,-79.5"/>
<text text-anchor="middle" x="1740" y="-67.5" font-family="Helvetica,sans-Serif" font-size="10.00">src/engine/actors/Finishline.cpp</text>
</a>
</g>
</g>
<!-- Node1&#45;&gt;Node15 -->
<g id="edge18_Node000001_Node000015" class="edge">
<title>Node1&#45;&gt;Node15</title>
<g id="a_edge18_Node000001_Node000015"><a xlink:title=" ">
<path fill="none" stroke="#63b8ff" d="M2772.97,-133.84C2607.94,-130.64 2185.91,-119.47 1835,-85 1820.9,-83.61 1805.69,-81.61 1791.66,-79.54"/>
<polygon fill="#63b8ff" stroke="#63b8ff" points="2772.94,-137.34 2783,-134.03 2773.07,-130.34 2772.94,-137.34"/>
</a>
</g>
</g>
<!-- Node16 -->
<g id="Node000016" class="node">
<title>Node16</title>
<g id="a_Node000016"><a xlink:href="Bat_8cpp.html" target="_top" xlink:title=" ">
<polygon fill="white" stroke="#666666" points="1948.5,-85 1843.5,-85 1843.5,-55 1948.5,-55 1948.5,-85"/>
<text text-anchor="start" x="1851.5" y="-73" font-family="Helvetica,sans-Serif" font-size="10.00">src/engine/objects</text>
<text text-anchor="middle" x="1896" y="-62" font-family="Helvetica,sans-Serif" font-size="10.00">/Bat.cpp</text>
</a>
</g>
</g>
<!-- Node1&#45;&gt;Node16 -->
<g id="edge19_Node000001_Node000016" class="edge">
<title>Node1&#45;&gt;Node16</title>
<g id="a_edge19_Node000001_Node000016"><a xlink:title=" ">
<path fill="none" stroke="#63b8ff" d="M2772.91,-134.97C2622.02,-134.04 2258.9,-127.17 1958,-85 1954.94,-84.57 1951.81,-84.07 1948.66,-83.51"/>
<polygon fill="#63b8ff" stroke="#63b8ff" points="2772.95,-138.47 2782.97,-135.03 2772.99,-131.47 2772.95,-138.47"/>
</a>
</g>
</g>
<!-- Node17 -->
<g id="Node000017" class="node">
<title>Node17</title>
<g id="a_Node000017"><a xlink:href="Boos_8cpp.html" target="_top" xlink:title=" ">
<polygon fill="white" stroke="#666666" points="2071.5,-85 1966.5,-85 1966.5,-55 2071.5,-55 2071.5,-85"/>
<text text-anchor="start" x="1974.5" y="-73" font-family="Helvetica,sans-Serif" font-size="10.00">src/engine/objects</text>
<text text-anchor="middle" x="2019" y="-62" font-family="Helvetica,sans-Serif" font-size="10.00">/Boos.cpp</text>
</a>
</g>
</g>
<!-- Node1&#45;&gt;Node17 -->
<g id="edge20_Node000001_Node000017" class="edge">
<title>Node1&#45;&gt;Node17</title>
<g id="a_edge20_Node000001_Node000017"><a xlink:title=" ">
<path fill="none" stroke="#63b8ff" d="M2772.59,-134.04C2637.08,-131.41 2333.57,-121.56 2081,-85 2077.94,-84.56 2074.81,-84.04 2071.66,-83.48"/>
<polygon fill="#63b8ff" stroke="#63b8ff" points="2772.77,-137.55 2782.84,-134.24 2772.9,-130.55 2772.77,-137.55"/>
</a>
</g>
</g>
<!-- Node18 -->
<g id="Node000018" class="node">
<title>Node18</title>
<g id="a_Node000018"><a xlink:href="GrandPrixBalloons_8cpp.html" target="_top" xlink:title=" ">
<polygon fill="white" stroke="#666666" points="2220,-85 2090,-85 2090,-55 2220,-55 2220,-85"/>
<text text-anchor="start" x="2098" y="-73" font-family="Helvetica,sans-Serif" font-size="10.00">src/engine/objects</text>
<text text-anchor="middle" x="2155" y="-62" font-family="Helvetica,sans-Serif" font-size="10.00">/GrandPrixBalloons.cpp</text>
</a>
</g>
</g>
<!-- Node1&#45;&gt;Node18 -->
<g id="edge21_Node000001_Node000018" class="edge">
<title>Node1&#45;&gt;Node18</title>
<g id="a_edge21_Node000001_Node000018"><a xlink:title=" ">
<path fill="none" stroke="#63b8ff" d="M2772.71,-131.59C2658,-125.57 2425.51,-111.14 2230,-85 2226.85,-84.58 2223.63,-84.11 2220.38,-83.62"/>
<polygon fill="#63b8ff" stroke="#63b8ff" points="2772.6,-135.09 2782.77,-132.11 2772.97,-128.1 2772.6,-135.09"/>
</a>
</g>
</g>
<!-- Node19 -->
<g id="Node000019" class="node">
<title>Node19</title>
<g id="a_Node000019"><a xlink:href="Hedgehog_8cpp.html" target="_top" xlink:title=" ">
<polygon fill="white" stroke="#666666" points="2343.5,-85 2238.5,-85 2238.5,-55 2343.5,-55 2343.5,-85"/>
<text text-anchor="start" x="2246.5" y="-73" font-family="Helvetica,sans-Serif" font-size="10.00">src/engine/objects</text>
<text text-anchor="middle" x="2291" y="-62" font-family="Helvetica,sans-Serif" font-size="10.00">/Hedgehog.cpp</text>
</a>
</g>
</g>
<!-- Node1&#45;&gt;Node19 -->
<g id="edge22_Node000001_Node000019" class="edge">
<title>Node1&#45;&gt;Node19</title>
<g id="a_edge22_Node000001_Node000019"><a xlink:title=" ">
<path fill="none" stroke="#63b8ff" d="M2772.68,-130.45C2676.81,-123.71 2501.29,-109.2 2353,-85 2349.95,-84.5 2346.83,-83.95 2343.68,-83.35"/>
<polygon fill="#63b8ff" stroke="#63b8ff" points="2772.62,-133.95 2782.84,-131.15 2773.1,-126.97 2772.62,-133.95"/>
</a>
</g>
</g>
<!-- Node20 -->
<g id="Node000020" class="node">
<title>Node20</title>
<g id="a_Node000020"><a xlink:href="Lakitu_8cpp.html" target="_top" xlink:title=" ">
<polygon fill="white" stroke="#666666" points="2466.5,-85 2361.5,-85 2361.5,-55 2466.5,-55 2466.5,-85"/>
<text text-anchor="start" x="2369.5" y="-73" font-family="Helvetica,sans-Serif" font-size="10.00">src/engine/objects</text>
<text text-anchor="middle" x="2414" y="-62" font-family="Helvetica,sans-Serif" font-size="10.00">/Lakitu.cpp</text>
</a>
</g>
</g>
<!-- Node1&#45;&gt;Node20 -->
<g id="edge23_Node000001_Node000020" class="edge">
<title>Node1&#45;&gt;Node20</title>
<g id="a_edge23_Node000001_Node000020"><a xlink:title=" ">
<path fill="none" stroke="#63b8ff" d="M2772.68,-127.17C2698.33,-118.58 2578.57,-103.51 2476,-85 2472.96,-84.45 2469.84,-83.85 2466.7,-83.23"/>
<polygon fill="#63b8ff" stroke="#63b8ff" points="2772.53,-130.68 2782.86,-128.34 2773.33,-123.73 2772.53,-130.68"/>
</a>
</g>
</g>
<!-- Node21 -->
<g id="Node000021" class="node">
<title>Node21</title>
<g id="a_Node000021"><a xlink:href="Mole_8cpp.html" target="_top" xlink:title=" ">
<polygon fill="white" stroke="#666666" points="2589.5,-85 2484.5,-85 2484.5,-55 2589.5,-55 2589.5,-85"/>
<text text-anchor="start" x="2492.5" y="-73" font-family="Helvetica,sans-Serif" font-size="10.00">src/engine/objects</text>
<text text-anchor="middle" x="2537" y="-62" font-family="Helvetica,sans-Serif" font-size="10.00">/Mole.cpp</text>
</a>
</g>
</g>
<!-- Node1&#45;&gt;Node21 -->
<g id="edge24_Node000001_Node000021" class="edge">
<title>Node1&#45;&gt;Node21</title>
<g id="a_edge24_Node000001_Node000021"><a xlink:title=" ">
<path fill="none" stroke="#63b8ff" d="M2772.9,-120.9C2723.96,-111.09 2657.47,-97.57 2599,-85 2595.98,-84.35 2592.88,-83.68 2589.75,-82.99"/>
<polygon fill="#63b8ff" stroke="#63b8ff" points="2772.27,-124.34 2782.76,-122.87 2773.64,-117.47 2772.27,-124.34"/>
</a>
</g>
</g>
<!-- Node22 -->
<g id="Node000022" class="node">
<title>Node22</title>
<g id="a_Node000022"><a xlink:href="Snowman_8cpp.html" target="_top" xlink:title=" ">
<polygon fill="white" stroke="#666666" points="2712.5,-85 2607.5,-85 2607.5,-55 2712.5,-55 2712.5,-85"/>
<text text-anchor="start" x="2615.5" y="-73" font-family="Helvetica,sans-Serif" font-size="10.00">src/engine/objects</text>
<text text-anchor="middle" x="2660" y="-62" font-family="Helvetica,sans-Serif" font-size="10.00">/Snowman.cpp</text>
</a>
</g>
</g>
<!-- Node1&#45;&gt;Node22 -->
<g id="edge25_Node000001_Node000022" class="edge">
<title>Node1&#45;&gt;Node22</title>
<g id="a_edge25_Node000001_Node000022"><a xlink:title=" ">
<path fill="none" stroke="#63b8ff" d="M2793.95,-117.59C2764.53,-107.36 2727.83,-94.59 2700.29,-85.01"/>
<polygon fill="#63b8ff" stroke="#63b8ff" points="2793.03,-120.98 2803.62,-120.95 2795.33,-114.36 2793.03,-120.98"/>
</a>
</g>
</g>
<!-- Node23 -->
<g id="Node000023" class="node">
<title>Node23</title>
<g id="a_Node000023"><a xlink:href="Thwomp_8cpp.html" target="_top" xlink:title=" ">
<polygon fill="white" stroke="#666666" points="2835.5,-85 2730.5,-85 2730.5,-55 2835.5,-55 2835.5,-85"/>
<text text-anchor="start" x="2738.5" y="-73" font-family="Helvetica,sans-Serif" font-size="10.00">src/engine/objects</text>
<text text-anchor="middle" x="2783" y="-62" font-family="Helvetica,sans-Serif" font-size="10.00">/Thwomp.cpp</text>
</a>
</g>
</g>
<!-- Node1&#45;&gt;Node23 -->
<g id="edge26_Node000001_Node000023" class="edge">
<title>Node1&#45;&gt;Node23</title>
<g id="a_edge26_Node000001_Node000023"><a xlink:title=" ">
<path fill="none" stroke="#63b8ff" d="M2823.38,-113.37C2814.51,-104.06 2804.39,-93.44 2796.5,-85.16"/>
<polygon fill="#63b8ff" stroke="#63b8ff" points="2821.03,-115.97 2830.46,-120.8 2826.1,-111.14 2821.03,-115.97"/>
</a>
</g>
</g>
<!-- Node24 -->
<g id="Node000024" class="node">
<title>Node24</title>
<g id="a_Node000024"><a xlink:href="TrashBin_8cpp.html" target="_top" xlink:title=" ">
<polygon fill="white" stroke="#666666" points="2958.5,-85 2853.5,-85 2853.5,-55 2958.5,-55 2958.5,-85"/>
<text text-anchor="start" x="2861.5" y="-73" font-family="Helvetica,sans-Serif" font-size="10.00">src/engine/objects</text>
<text text-anchor="middle" x="2906" y="-62" font-family="Helvetica,sans-Serif" font-size="10.00">/TrashBin.cpp</text>
</a>
</g>
</g>
<!-- Node1&#45;&gt;Node24 -->
<g id="edge27_Node000001_Node000024" class="edge">
<title>Node1&#45;&gt;Node24</title>
<g id="a_edge27_Node000001_Node000024"><a xlink:title=" ">
<path fill="none" stroke="#63b8ff" d="M2864.96,-113.37C2873.97,-104.06 2884.26,-93.44 2892.28,-85.16"/>
<polygon fill="#63b8ff" stroke="#63b8ff" points="2862.2,-111.18 2857.76,-120.8 2867.23,-116.05 2862.2,-111.18"/>
</a>
</g>
</g>
<!-- Node25 -->
<g id="Node000025" class="node">
<title>Node25</title>
<g id="a_Node000025"><a xlink:href="StarEmitter_8cpp.html" target="_top" xlink:title=" ">
<polygon fill="white" stroke="#666666" points="3089,-85 2977,-85 2977,-55 3089,-55 3089,-85"/>
<text text-anchor="start" x="2985" y="-73" font-family="Helvetica,sans-Serif" font-size="10.00">src/engine/particles</text>
<text text-anchor="middle" x="3033" y="-62" font-family="Helvetica,sans-Serif" font-size="10.00">/StarEmitter.cpp</text>
</a>
</g>
</g>
<!-- Node1&#45;&gt;Node25 -->
<g id="edge28_Node000001_Node000025" class="edge">
<title>Node1&#45;&gt;Node25</title>
<g id="a_edge28_Node000001_Node000025"><a xlink:title=" ">
<path fill="none" stroke="#63b8ff" d="M2895.02,-117.72C2925.3,-107.47 2963.21,-94.63 2991.62,-85.01"/>
<polygon fill="#63b8ff" stroke="#63b8ff" points="2893.83,-114.43 2885.48,-120.95 2896.07,-121.06 2893.83,-114.43"/>
</a>
</g>
</g>
<!-- Node26 -->
<g id="Node000026" class="node">
<title>Node26</title>
<g id="a_Node000026"><a xlink:href="collision__viewer_8c.html" target="_top" xlink:title=" ">
<polygon fill="white" stroke="#666666" points="3256.5,-85 3107.5,-85 3107.5,-55 3256.5,-55 3256.5,-85"/>
<text text-anchor="start" x="3115.5" y="-73" font-family="Helvetica,sans-Serif" font-size="10.00">src/enhancements/collision</text>
<text text-anchor="middle" x="3182" y="-62" font-family="Helvetica,sans-Serif" font-size="10.00">_viewer.c</text>
</a>
</g>
</g>
<!-- Node1&#45;&gt;Node26 -->
<g id="edge29_Node000001_Node000026" class="edge">
<title>Node1&#45;&gt;Node26</title>
<g id="a_edge29_Node000001_Node000026"><a xlink:title=" ">
<path fill="none" stroke="#63b8ff" d="M2915.15,-121.53C2971.74,-110.81 3050.66,-95.87 3107.98,-85.01"/>
<polygon fill="#63b8ff" stroke="#63b8ff" points="2914.38,-118.11 2905.21,-123.41 2915.69,-124.99 2914.38,-118.11"/>
</a>
</g>
</g>
<!-- Node27 -->
<g id="Node000027" class="node">
<title>Node27</title>
<g id="a_Node000027"><a xlink:href="freecam_8cpp.html" target="_top" xlink:title=" ">
<polygon fill="white" stroke="#666666" points="3423.5,-85 3274.5,-85 3274.5,-55 3423.5,-55 3423.5,-85"/>
<text text-anchor="start" x="3282.5" y="-73" font-family="Helvetica,sans-Serif" font-size="10.00">src/enhancements/freecam</text>
<text text-anchor="middle" x="3349" y="-62" font-family="Helvetica,sans-Serif" font-size="10.00">/freecam.cpp</text>
</a>
</g>
</g>
<!-- Node1&#45;&gt;Node27 -->
<g id="edge30_Node000001_Node000027" class="edge">
<title>Node1&#45;&gt;Node27</title>
<g id="a_edge30_Node000001_Node000027"><a xlink:title=" ">
<path fill="none" stroke="#63b8ff" d="M2915.47,-127.62C2999.51,-118.68 3143.14,-102.63 3266,-85 3268.75,-84.61 3271.55,-84.19 3274.37,-83.77"/>
<polygon fill="#63b8ff" stroke="#63b8ff" points="2914.85,-124.16 2905.27,-128.7 2915.59,-131.12 2914.85,-124.16"/>
</a>
</g>
</g>
<!-- Node28 -->
<g id="Node000028" class="node">
<title>Node28</title>
<g id="a_Node000028"><a xlink:href="main_8c.html" target="_top" xlink:title=" ">
<polygon fill="white" stroke="#666666" points="3508.5,-79.5 3441.5,-79.5 3441.5,-60.5 3508.5,-60.5 3508.5,-79.5"/>
<text text-anchor="middle" x="3475" y="-67.5" font-family="Helvetica,sans-Serif" font-size="10.00">src/main.c</text>
</a>
</g>
</g>
<!-- Node1&#45;&gt;Node28 -->
<g id="edge31_Node000001_Node000028" class="edge">
<title>Node1&#45;&gt;Node28</title>
<g id="a_edge31_Node000001_Node000028"><a xlink:title=" ">
<path fill="none" stroke="#63b8ff" d="M2915.43,-134.37C3027.03,-132.17 3249.03,-122.91 3433,-85 3439.47,-83.67 3446.34,-81.65 3452.6,-79.56"/>
<polygon fill="#63b8ff" stroke="#63b8ff" points="2915.24,-130.87 2905.31,-134.55 2915.37,-137.87 2915.24,-130.87"/>
</a>
</g>
</g>
<!-- Node29 -->
<g id="Node000029" class="node">
<title>Node29</title>
<g id="a_Node000029"><a xlink:href="math__util__2_8c.html" target="_top" xlink:title=" ">
<polygon fill="white" stroke="#666666" points="3627,-79.5 3527,-79.5 3527,-60.5 3627,-60.5 3627,-79.5"/>
<text text-anchor="middle" x="3577" y="-67.5" font-family="Helvetica,sans-Serif" font-size="10.00">src/math_util_2.c</text>
</a>
</g>
</g>
<!-- Node1&#45;&gt;Node29 -->
<g id="edge32_Node000001_Node000029" class="edge">
<title>Node1&#45;&gt;Node29</title>
<g id="a_edge32_Node000001_Node000029"><a xlink:title=" ">
<path fill="none" stroke="#63b8ff" d="M2915.33,-133.43C3038.79,-129.88 3300.04,-118.72 3518,-85 3526.84,-83.63 3536.32,-81.63 3545.03,-79.56"/>
<polygon fill="#63b8ff" stroke="#63b8ff" points="2915.14,-129.93 2905.24,-133.71 2915.34,-136.93 2915.14,-129.93"/>
</a>
</g>
</g>
<!-- Node30 -->
<g id="Node000030" class="node">
<title>Node30</title>
<g id="a_Node000030"><a xlink:href="menu__items_8c.html" target="_top" xlink:title=" ">
<polygon fill="white" stroke="#666666" points="3748.5,-79.5 3645.5,-79.5 3645.5,-60.5 3748.5,-60.5 3748.5,-79.5"/>
<text text-anchor="middle" x="3697" y="-67.5" font-family="Helvetica,sans-Serif" font-size="10.00">src/menu_items.c</text>
</a>
</g>
</g>
<!-- Node1&#45;&gt;Node30 -->
<g id="edge33_Node000001_Node000030" class="edge">
<title>Node1&#45;&gt;Node30</title>
<g id="a_edge33_Node000001_Node000030"><a xlink:title=" ">
<path fill="none" stroke="#63b8ff" d="M2915.33,-134.37C3054.59,-132.29 3372.14,-123.35 3636,-85 3645.25,-83.66 3655.17,-81.64 3664.26,-79.54"/>
<polygon fill="#63b8ff" stroke="#63b8ff" points="2915.16,-130.87 2905.21,-134.52 2915.26,-137.87 2915.16,-130.87"/>
</a>
</g>
</g>
<!-- Node31 -->
<g id="Node000031" class="node">
<title>Node31</title>
<g id="a_Node000031"><a xlink:href="guLookAtF_8c.html" target="_top" xlink:title=" ">
<polygon fill="white" stroke="#666666" points="3873.5,-79.5 3766.5,-79.5 3766.5,-60.5 3873.5,-60.5 3873.5,-79.5"/>
<text text-anchor="middle" x="3820" y="-67.5" font-family="Helvetica,sans-Serif" font-size="10.00">src/os/guLookAtF.c</text>
</a>
</g>
</g>
<!-- Node1&#45;&gt;Node31 -->
<g id="edge34_Node000001_Node000031" class="edge">
<title>Node1&#45;&gt;Node31</title>
<g id="a_edge34_Node000001_Node000031"><a xlink:title=" ">
<path fill="none" stroke="#63b8ff" d="M2915.33,-135.15C3069.74,-134.58 3446.23,-128.42 3758,-85 3767.51,-83.68 3777.71,-81.63 3787.05,-79.52"/>
<polygon fill="#63b8ff" stroke="#63b8ff" points="2915.03,-131.65 2905.04,-135.18 2915.05,-138.65 2915.03,-131.65"/>
</a>
</g>
</g>
<!-- Node32 -->
<g id="Node000032" class="node">
<title>Node32</title>
<g id="a_Node000032"><a xlink:href="guMtxCatL_8c.html" target="_top" xlink:title=" ">
<polygon fill="white" stroke="#666666" points="4000.5,-79.5 3891.5,-79.5 3891.5,-60.5 4000.5,-60.5 4000.5,-79.5"/>
<text text-anchor="middle" x="3946" y="-67.5" font-family="Helvetica,sans-Serif" font-size="10.00">src/os/guMtxCatL.c</text>
</a>
</g>
</g>
<!-- Node1&#45;&gt;Node32 -->
<g id="edge35_Node000001_Node000032" class="edge">
<title>Node1&#45;&gt;Node32</title>
<g id="a_edge35_Node000001_Node000032"><a xlink:title=" ">
<path fill="none" stroke="#63b8ff" d="M2915.24,-135.74C3084.11,-136.59 3521.67,-133.48 3883,-85 3892.66,-83.7 3903.03,-81.67 3912.51,-79.55"/>
<polygon fill="#63b8ff" stroke="#63b8ff" points="2915.25,-132.24 2905.23,-135.68 2915.21,-139.24 2915.25,-132.24"/>
</a>
</g>
</g>
<!-- Node33 -->
<g id="Node000033" class="node">
<title>Node33</title>
<g id="a_Node000033"><a xlink:href="guOrthoF_8c.html" target="_top" xlink:title=" ">
<polygon fill="white" stroke="#666666" points="4119,-79.5 4019,-79.5 4019,-60.5 4119,-60.5 4119,-79.5"/>
<text text-anchor="middle" x="4069" y="-67.5" font-family="Helvetica,sans-Serif" font-size="10.00">src/os/guOrthoF.c</text>
</a>
</g>
</g>
<!-- Node1&#45;&gt;Node33 -->
<g id="edge36_Node000001_Node000033" class="edge">
<title>Node1&#45;&gt;Node33</title>
<g id="a_edge36_Node000001_Node000033"><a xlink:title=" ">
<path fill="none" stroke="#63b8ff" d="M2915.46,-133.72C3134.88,-129.49 3796.89,-114.58 4010,-85 4019.18,-83.73 4029.02,-81.67 4037.98,-79.53"/>
<polygon fill="#63b8ff" stroke="#63b8ff" points="2915.28,-130.22 2905.35,-133.91 2915.42,-137.22 2915.28,-130.22"/>
</a>
</g>
</g>
<!-- Node34 -->
<g id="Node000034" class="node">
<title>Node34</title>
<g id="a_Node000034"><a xlink:href="guPerspectiveF_8c.html" target="_top" xlink:title=" ">
<polygon fill="white" stroke="#666666" points="4267,-79.5 4137,-79.5 4137,-60.5 4267,-60.5 4267,-79.5"/>
<text text-anchor="middle" x="4202" y="-67.5" font-family="Helvetica,sans-Serif" font-size="10.00">src/os/guPerspectiveF.c</text>
</a>
</g>
</g>
<!-- Node1&#45;&gt;Node34 -->
<g id="edge37_Node000001_Node000034" class="edge">
<title>Node1&#45;&gt;Node34</title>
<g id="a_edge37_Node000001_Node000034"><a xlink:title=" ">
<path fill="none" stroke="#63b8ff" d="M2915.35,-133.61C3149.06,-128.86 3890.2,-111.97 4128,-85 4139.3,-83.72 4151.47,-81.69 4162.61,-79.57"/>
<polygon fill="#63b8ff" stroke="#63b8ff" points="2915.19,-130.12 2905.27,-133.82 2915.33,-137.12 2915.19,-130.12"/>
</a>
</g>
</g>
<!-- Node35 -->
<g id="Node000035" class="node">
<title>Node35</title>
<g id="a_Node000035"><a xlink:href="guRotateF_8c.html" target="_top" xlink:title=" ">
<polygon fill="white" stroke="#666666" points="4390.5,-79.5 4285.5,-79.5 4285.5,-60.5 4390.5,-60.5 4390.5,-79.5"/>
<text text-anchor="middle" x="4338" y="-67.5" font-family="Helvetica,sans-Serif" font-size="10.00">src/os/guRotateF.c</text>
</a>
</g>
</g>
<!-- Node1&#45;&gt;Node35 -->
<g id="edge38_Node000001_Node000035" class="edge">
<title>Node1&#45;&gt;Node35</title>
<g id="a_edge38_Node000001_Node000035"><a xlink:title=" ">
<path fill="none" stroke="#63b8ff" d="M2915.4,-134.28C3166.54,-131.45 4008.48,-119.56 4276,-85 4285.63,-83.76 4295.97,-81.71 4305.38,-79.57"/>
<polygon fill="#63b8ff" stroke="#63b8ff" points="2915.26,-130.78 2905.3,-134.39 2915.33,-137.78 2915.26,-130.78"/>
</a>
</g>
</g>
<!-- Node36 -->
<g id="Node000036" class="node">
<title>Node36</title>
<g id="a_Node000036"><a xlink:href="guScaleF_8c.html" target="_top" xlink:title=" ">
<polygon fill="white" stroke="#666666" points="4507.5,-79.5 4408.5,-79.5 4408.5,-60.5 4507.5,-60.5 4507.5,-79.5"/>
<text text-anchor="middle" x="4458" y="-67.5" font-family="Helvetica,sans-Serif" font-size="10.00">src/os/guScaleF.c</text>
</a>
</g>
</g>
<!-- Node1&#45;&gt;Node36 -->
<g id="edge39_Node000001_Node000036" class="edge">
<title>Node1&#45;&gt;Node36</title>
<g id="a_edge39_Node000001_Node000036"><a xlink:title=" ">
<path fill="none" stroke="#63b8ff" d="M2915.26,-134.65C3180.07,-133.03 4107.28,-124.61 4400,-85 4409.14,-83.76 4418.93,-81.7 4427.82,-79.52"/>
<polygon fill="#63b8ff" stroke="#63b8ff" points="2914.98,-131.15 2905,-134.71 2915.02,-138.15 2914.98,-131.15"/>
</a>
</g>
</g>
<!-- Node37 -->
<g id="Node000037" class="node">
<title>Node37</title>
<g id="a_Node000037"><a xlink:href="guTranslateF_8c.html" target="_top" xlink:title=" ">
<polygon fill="white" stroke="#666666" points="4642.5,-79.5 4525.5,-79.5 4525.5,-60.5 4642.5,-60.5 4642.5,-79.5"/>
<text text-anchor="middle" x="4584" y="-67.5" font-family="Helvetica,sans-Serif" font-size="10.00">src/os/guTranslateF.c</text>
</a>
</g>
</g>
<!-- Node1&#45;&gt;Node37 -->
<g id="edge40_Node000001_Node000037" class="edge">
<title>Node1&#45;&gt;Node37</title>
<g id="a_edge40_Node000001_Node000037"><a xlink:title=" ">
<path fill="none" stroke="#63b8ff" d="M2915.41,-134.54C3192.89,-132.5 4199.69,-122.6 4517,-85 4527.5,-83.76 4538.8,-81.68 4549.07,-79.51"/>
<polygon fill="#63b8ff" stroke="#63b8ff" points="2915.05,-131.04 2905.07,-134.62 2915.1,-138.04 2915.05,-131.04"/>
</a>
</g>
</g>
<!-- Node38 -->
<g id="Node000038" class="node">
<title>Node38</title>
<g id="a_Node000038"><a xlink:href="Engine_8cpp.html" target="_top" xlink:title=" ">
<polygon fill="white" stroke="#666666" points="4771,-79.5 4661,-79.5 4661,-60.5 4771,-60.5 4771,-79.5"/>
<text text-anchor="middle" x="4716" y="-67.5" font-family="Helvetica,sans-Serif" font-size="10.00">src/port/Engine.cpp</text>
</a>
</g>
</g>
<!-- Node1&#45;&gt;Node38 -->
<g id="edge41_Node000001_Node000038" class="edge">
<title>Node1&#45;&gt;Node38</title>
<g id="a_edge41_Node000001_Node000038"><a xlink:title=" ">
<path fill="none" stroke="#63b8ff" d="M2915.34,-134.82C3206.68,-133.78 4306.99,-127.13 4652,-85 4662.05,-83.77 4672.84,-81.71 4682.66,-79.53"/>
<polygon fill="#63b8ff" stroke="#63b8ff" points="2915.31,-131.32 2905.32,-134.85 2915.34,-138.32 2915.31,-131.32"/>
</a>
</g>
</g>
<!-- Node39 -->
<g id="Node000039" class="node">
<title>Node39</title>
<g id="a_Node000039"><a xlink:href="FrameInterpolation_8cpp.html" target="_top" xlink:title=" ">
<polygon fill="white" stroke="#666666" points="4922.5,-85 4789.5,-85 4789.5,-55 4922.5,-55 4922.5,-85"/>
<text text-anchor="start" x="4797.5" y="-73" font-family="Helvetica,sans-Serif" font-size="10.00">src/port/interpolation</text>
<text text-anchor="middle" x="4856" y="-62" font-family="Helvetica,sans-Serif" font-size="10.00">/FrameInterpolation.cpp</text>
</a>
</g>
</g>
<!-- Node1&#45;&gt;Node39 -->
<g id="edge42_Node000001_Node000039" class="edge">
<title>Node1&#45;&gt;Node39</title>
<g id="a_edge42_Node000001_Node000039"><a xlink:title=" ">
<path fill="none" stroke="#63b8ff" d="M2915.27,-134.65C3219.14,-132.94 4407.81,-123.85 4780,-85 4783.07,-84.68 4786.2,-84.3 4789.36,-83.89"/>
<polygon fill="#63b8ff" stroke="#63b8ff" points="2915.24,-131.15 2905.26,-134.71 2915.28,-138.15 2915.24,-131.15"/>
</a>
</g>
</g>
<!-- Node40 -->
<g id="Node000040" class="node">
<title>Node40</title>
<g id="a_Node000040"><a xlink:href="matrix_8c.html" target="_top" xlink:title=" ">
<polygon fill="white" stroke="#666666" points="5059.5,-85 4940.5,-85 4940.5,-55 5059.5,-55 5059.5,-85"/>
<text text-anchor="start" x="4948.5" y="-73" font-family="Helvetica,sans-Serif" font-size="10.00">src/port/interpolation</text>
<text text-anchor="middle" x="5000" y="-62" font-family="Helvetica,sans-Serif" font-size="10.00">/matrix.c</text>
</a>
</g>
</g>
<!-- Node1&#45;&gt;Node40 -->
<g id="edge43_Node000001_Node000040" class="edge">
<title>Node1&#45;&gt;Node40</title>
<g id="a_edge43_Node000001_Node000040"><a xlink:title=" ">
<path fill="none" stroke="#63b8ff" d="M2915.05,-135.01C3233.16,-134.78 4528.6,-130.98 4932,-85 4934.75,-84.69 4937.56,-84.32 4940.39,-83.9"/>
<polygon fill="#63b8ff" stroke="#63b8ff" points="2915.03,-131.51 2905.03,-135.01 2915.03,-138.51 2915.03,-131.51"/>
</a>
</g>
</g>
<!-- Node41 -->
<g id="Node000041" class="node">
<title>Node41</title>
<g id="a_Node000041"><a xlink:href="math__util_8c.html" target="_top" xlink:title=" ">
<polygon fill="white" stroke="#666666" points="5200,-79.5 5078,-79.5 5078,-60.5 5200,-60.5 5200,-79.5"/>
<text text-anchor="middle" x="5139" y="-67.5" font-family="Helvetica,sans-Serif" font-size="10.00">src/racing/math_util.c</text>
</a>
</g>
</g>
<!-- Node1&#45;&gt;Node41 -->
<g id="edge45_Node000001_Node000041" class="edge">
<title>Node1&#45;&gt;Node41</title>
<g id="a_edge45_Node000001_Node000041"><a xlink:title=" ">
<path fill="none" stroke="#63b8ff" d="M2915.54,-135.08C3247.2,-135.17 4637.19,-132.66 5069,-85 5079.96,-83.79 5091.76,-81.73 5102.5,-79.56"/>
<polygon fill="#63b8ff" stroke="#63b8ff" points="2915.12,-131.58 2905.12,-135.07 2915.11,-138.58 2915.12,-131.58"/>
</a>
</g>
</g>
<!-- Node42 -->
<g id="Node000042" class="node">
<title>Node42</title>
<g id="a_Node000042"><a xlink:href="render__courses_8c.html" target="_top" xlink:title=" ">
<polygon fill="white" stroke="#666666" points="5367.5,-79.5 5218.5,-79.5 5218.5,-60.5 5367.5,-60.5 5367.5,-79.5"/>
<text text-anchor="middle" x="5293" y="-67.5" font-family="Helvetica,sans-Serif" font-size="10.00">src/racing/render_courses.c</text>
</a>
</g>
</g>
<!-- Node1&#45;&gt;Node42 -->
<g id="edge46_Node000001_Node000042" class="edge">
<title>Node1&#45;&gt;Node42</title>
<g id="a_edge46_Node000001_Node000042"><a xlink:title=" ">
<path fill="none" stroke="#63b8ff" d="M2915.23,-134.88C3258.8,-134.08 4747.14,-128.14 5209,-85 5222.1,-83.78 5236.25,-81.71 5249.12,-79.54"/>
<polygon fill="#63b8ff" stroke="#63b8ff" points="2915.15,-131.38 2905.16,-134.9 2915.17,-138.38 2915.15,-131.38"/>
</a>
</g>
</g>
<!-- Node43 -->
<g id="Node000043" class="node">
<title>Node43</title>
<g id="a_Node000043"><a xlink:href="skybox__and__splitscreen_8c.html" target="_top" xlink:title=" ">
<polygon fill="white" stroke="#666666" points="5510.5,-85 5385.5,-85 5385.5,-55 5510.5,-55 5510.5,-85"/>
<text text-anchor="start" x="5393.5" y="-73" font-family="Helvetica,sans-Serif" font-size="10.00">src/racing/skybox_and</text>
<text text-anchor="middle" x="5448" y="-62" font-family="Helvetica,sans-Serif" font-size="10.00">_splitscreen.c</text>
</a>
</g>
</g>
<!-- Node1&#45;&gt;Node43 -->
<g id="edge47_Node000001_Node000043" class="edge">
<title>Node1&#45;&gt;Node43</title>
<g id="a_edge47_Node000001_Node000043"><a xlink:title=" ">
<path fill="none" stroke="#63b8ff" d="M2915.28,-135.28C3273.64,-136.42 4880.76,-138.41 5377,-85 5379.75,-84.7 5382.55,-84.36 5385.37,-83.97"/>
<polygon fill="#63b8ff" stroke="#63b8ff" points="2915.06,-131.78 2905.05,-135.24 2915.03,-138.78 2915.06,-131.78"/>
</a>
</g>
</g>
<!-- Node44 -->
<g id="Node000044" class="node">
<title>Node44</title>
<g id="a_Node000044"><a xlink:href="render__objects_8c.html" target="_top" xlink:title=" ">
<polygon fill="white" stroke="#666666" points="5643,-79.5 5529,-79.5 5529,-60.5 5643,-60.5 5643,-79.5"/>
<text text-anchor="middle" x="5586" y="-67.5" font-family="Helvetica,sans-Serif" font-size="10.00">src/render_objects.c</text>
</a>
</g>
</g>
<!-- Node1&#45;&gt;Node44 -->
<g id="edge48_Node000001_Node000044" class="edge">
<title>Node1&#45;&gt;Node44</title>
<g id="a_edge48_Node000001_Node000044"><a xlink:title=" ">
<path fill="none" stroke="#63b8ff" d="M2915.43,-134.48C3314.04,-131.46 5255.09,-115.29 5520,-85 5530.47,-83.8 5541.74,-81.72 5551.95,-79.51"/>
<polygon fill="#63b8ff" stroke="#63b8ff" points="2915.17,-130.98 2905.19,-134.56 2915.22,-137.98 2915.17,-130.98"/>
</a>
</g>
</g>
<!-- Node45 -->
<g id="Node000045" class="node">
<title>Node45</title>
<g id="a_Node000045"><a xlink:href="render__player_8c.html" target="_top" xlink:title=" ">
<polygon fill="white" stroke="#666666" points="5770.5,-79.5 5661.5,-79.5 5661.5,-60.5 5770.5,-60.5 5770.5,-79.5"/>
<text text-anchor="middle" x="5716" y="-67.5" font-family="Helvetica,sans-Serif" font-size="10.00">src/render_player.c</text>
</a>
</g>
</g>
<!-- Node1&#45;&gt;Node45 -->
<g id="edge49_Node000001_Node000045" class="edge">
<title>Node1&#45;&gt;Node45</title>
<g id="a_edge49_Node000001_Node000045"><a xlink:title=" ">
<path fill="none" stroke="#63b8ff" d="M2915.3,-134.57C3325.23,-132.01 5373.3,-117.64 5652,-85 5662.17,-83.81 5673.1,-81.73 5682.99,-79.52"/>
<polygon fill="#63b8ff" stroke="#63b8ff" points="2915.05,-131.07 2905.07,-134.64 2915.09,-138.07 2915.05,-131.07"/>
</a>
</g>
</g>
<!-- Node2&#45;&gt;Node3 -->
<g id="edge2_Node000002_Node000003" class="edge">
<title>Node2&#45;&gt;Node3</title>
<g id="a_edge2_Node000002_Node000003"><a xlink:title=" ">
<path fill="none" stroke="#63b8ff" d="M122.3,-52.5C164.73,-41.62 218.57,-27.8 252.66,-19.05"/>
<polygon fill="#63b8ff" stroke="#63b8ff" points="121.43,-49.11 112.61,-54.99 123.17,-55.89 121.43,-49.11"/>
</a>
</g>
</g>
<!-- Node4&#45;&gt;Node3 -->
<g id="edge4_Node000004_Node000003" class="edge">
<title>Node4&#45;&gt;Node3</title>
<g id="a_edge4_Node000004_Node000003"><a xlink:title=" ">
<path fill="none" stroke="#63b8ff" d="M245.66,-47.96C256.3,-38.07 268.41,-26.83 276.56,-19.27"/>
<polygon fill="#63b8ff" stroke="#63b8ff" points="243.2,-45.47 238.25,-54.84 247.96,-50.6 243.2,-45.47"/>
</a>
</g>
</g>
<!-- Node5&#45;&gt;Node3 -->
<g id="edge6_Node000005_Node000003" class="edge">
<title>Node5&#45;&gt;Node3</title>
<g id="a_edge6_Node000005_Node000003"><a xlink:title=" ">
<path fill="none" stroke="#63b8ff" d="M326.34,-47.96C315.7,-38.07 303.59,-26.83 295.44,-19.27"/>
<polygon fill="#63b8ff" stroke="#63b8ff" points="324.04,-50.6 333.75,-54.84 328.8,-45.47 324.04,-50.6"/>
</a>
</g>
</g>
<!-- Node6&#45;&gt;Node3 -->
<g id="edge8_Node000006_Node000003" class="edge">
<title>Node6&#45;&gt;Node3</title>
<g id="a_edge8_Node000006_Node000003"><a xlink:title=" ">
<path fill="none" stroke="#63b8ff" d="M426.52,-52.02C389.94,-41.21 344.13,-27.67 314.95,-19.05"/>
<polygon fill="#63b8ff" stroke="#63b8ff" points="425.99,-55.51 436.57,-54.99 427.98,-48.8 425.99,-55.51"/>
</a>
</g>
</g>
<!-- Node7&#45;&gt;Node3 -->
<g id="edge10_Node000007_Node000003" class="edge">
<title>Node7&#45;&gt;Node3</title>
<g id="a_edge10_Node000007_Node000003"><a xlink:title=" ">
<path fill="none" stroke="#63b8ff" d="M552.64,-54.79C472.43,-39.9 390.66,-26.71 338.75,-18.6"/>
<polygon fill="#63b8ff" stroke="#63b8ff" points="552.45,-58.32 562.92,-56.71 553.74,-51.43 552.45,-58.32"/>
</a>
</g>
</g>
</g>
</svg>

<g id="navigator" transform="translate(0 0)" fill="#404254">
  <rect fill="#f2f5e9" fill-opacity="0.5" stroke="#606060" stroke-width=".5" x="0" y="0" width="60" height="60"/>
  <use id="zoomplus" xlink:href="#zoomPlus" x="17" y="9" onmousedown="handleZoom(evt,'in')"/>
  <use id="zoomminus" xlink:href="#zoomMin" x="42" y="9" onmousedown="handleZoom(evt,'out')"/>
  <use id="reset" xlink:href="#resetDef" x="30" y="36" onmousedown="handleReset()"/>
   <use id="arrowup" xlink:href="#arrowUp" x="0" y="0" onmousedown="handlePan(0,-1)"/>
  <use id="arrowright" xlink:href="#arrowRight" x="0" y="0" onmousedown="handlePan(1,0)"/>
  <use id="arrowdown" xlink:href="#arrowDown" x="0" y="0" onmousedown="handlePan(0,1)"/>
  <use id="arrowleft" xlink:href="#arrowLeft" x="0" y="0" onmousedown="handlePan(-1,0)"/>
</g>
<svg viewBox="0 0 15 15" width="100%" height="30px" preserveAspectRatio="xMaxYMin meet">
 <g id="arrow_out" transform="scale(0.3 0.3)">
  <a xlink:href="FrameInterpolation_8h__dep__incl_org.svg" target="_base">
   <rect id="button" ry="5" rx="5" y="6" x="6" height="38" width="38"
        fill="#f2f5e9" fill-opacity="0.5" stroke="#606060" stroke-width="1.0"/>
   <path id="arrow"
     d="M 11.500037,31.436501 C 11.940474,20.09759 22.043105,11.32322 32.158766,21.979434 L 37.068811,17.246167 C 37.068811,17.246167 37.088388,32 37.088388,32 L 22.160133,31.978069 C 22.160133,31.978069 26.997745,27.140456 26.997745,27.140456 C 18.528582,18.264221 13.291696,25.230495 11.500037,31.436501 z"
     style="fill:#404040;"/>
  </a>
 </g>
</svg>

<style type='text/css'>
<![CDATA[
[data-mouse-over-selected='false'] { opacity: 0.7; }
[data-mouse-over-selected='true']  { opacity: 1.0; }
]]>
</style>
<script type="application/ecmascript"><![CDATA[
document.addEventListener('DOMContentLoaded', (event) => {
  highlightEdges();
  highlightAdjacentNodes();
});
]]></script>
</svg>
