<?xml version="1.0" encoding="UTF-8" standalone="no"?>
<!DOCTYPE svg PUBLIC "-//W3C//DTD SVG 1.1//EN"
 "http://www.w3.org/Graphics/SVG/1.1/DTD/svg11.dtd">
<!-- Generated by graphviz version 2.43.0 (0)
 -->
<!-- Title: src/racing/framebuffer_effects.h Pages: 1 -->
<svg width="510pt" height="104pt"
 viewBox="0.00 0.00 510.00 104.00" xmlns="http://www.w3.org/2000/svg" xmlns:xlink="http://www.w3.org/1999/xlink">
<g id="graph0" class="graph" transform="scale(1 1) rotate(0) translate(4 100)">
<title>src/racing/framebuffer_effects.h</title>
<!-- Node1 -->
<g id="Node000001" class="node">
<title>Node1</title>
<g id="a_Node000001"><a xlink:title=" ">
<polygon fill="#999999" stroke="#666666" points="278,-96 153,-96 153,-66 278,-66 278,-96"/>
<text text-anchor="start" x="161" y="-84" font-family="Helvetica,sans-Serif" font-size="10.00">src/racing/framebuffer</text>
<text text-anchor="middle" x="215.5" y="-73" font-family="Helvetica,sans-Serif" font-size="10.00">_effects.h</text>
</a>
</g>
</g>
<!-- Node2 -->
<g id="Node000002" class="node">
<title>Node2</title>
<g id="a_Node000002"><a xlink:href="LuigiRaceway_8cpp.html" target="_top" xlink:title=" ">
<polygon fill="white" stroke="#666666" points="107,-30 0,-30 0,0 107,0 107,-30"/>
<text text-anchor="start" x="8" y="-18" font-family="Helvetica,sans-Serif" font-size="10.00">src/engine/courses</text>
<text text-anchor="middle" x="53.5" y="-7" font-family="Helvetica,sans-Serif" font-size="10.00">/LuigiRaceway.cpp</text>
</a>
</g>
</g>
<!-- Node1&#45;&gt;Node2 -->
<g id="edge1_Node000001_Node000002" class="edge">
<title>Node1&#45;&gt;Node2</title>
<g id="a_edge1_Node000001_Node000002"><a xlink:title=" ">
<path fill="none" stroke="#63b8ff" d="M170.41,-62.19C144.69,-52.02 112.9,-39.47 88.97,-30.01"/>
<polygon fill="#63b8ff" stroke="#63b8ff" points="169.36,-65.54 179.95,-65.95 171.93,-59.03 169.36,-65.54"/>
</a>
</g>
</g>
<!-- Node3 -->
<g id="Node000003" class="node">
<title>Node3</title>
<g id="a_Node000003"><a xlink:href="main_8c.html" target="_top" xlink:title=" ">
<polygon fill="white" stroke="#666666" points="192,-24.5 125,-24.5 125,-5.5 192,-5.5 192,-24.5"/>
<text text-anchor="middle" x="158.5" y="-12.5" font-family="Helvetica,sans-Serif" font-size="10.00">src/main.c</text>
</a>
</g>
</g>
<!-- Node1&#45;&gt;Node3 -->
<g id="edge2_Node000001_Node000003" class="edge">
<title>Node1&#45;&gt;Node3</title>
<g id="a_edge2_Node000001_Node000003"><a xlink:title=" ">
<path fill="none" stroke="#63b8ff" d="M196.15,-58.27C185.96,-46.84 174.03,-33.44 166.38,-24.84"/>
<polygon fill="#63b8ff" stroke="#63b8ff" points="193.59,-60.66 202.85,-65.8 198.81,-56 193.59,-60.66"/>
</a>
</g>
</g>
<!-- Node4 -->
<g id="Node000004" class="node">
<title>Node4</title>
<g id="a_Node000004"><a xlink:href="framebuffer__effects_8c.html" target="_top" xlink:title=" ">
<polygon fill="white" stroke="#666666" points="335,-30 210,-30 210,0 335,0 335,-30"/>
<text text-anchor="start" x="218" y="-18" font-family="Helvetica,sans-Serif" font-size="10.00">src/racing/framebuffer</text>
<text text-anchor="middle" x="272.5" y="-7" font-family="Helvetica,sans-Serif" font-size="10.00">_effects.c</text>
</a>
</g>
</g>
<!-- Node1&#45;&gt;Node4 -->
<g id="edge3_Node000001_Node000004" class="edge">
<title>Node1&#45;&gt;Node4</title>
<g id="a_edge3_Node000001_Node000004"><a xlink:title=" ">
<path fill="none" stroke="#63b8ff" d="M235.02,-58.09C243.24,-48.85 252.59,-38.36 259.89,-30.16"/>
<polygon fill="#63b8ff" stroke="#63b8ff" points="232.19,-56 228.15,-65.8 237.41,-60.66 232.19,-56"/>
</a>
</g>
</g>
<!-- Node5 -->
<g id="Node000005" class="node">
<title>Node5</title>
<g id="a_Node000005"><a xlink:href="render__courses_8c.html" target="_top" xlink:title=" ">
<polygon fill="white" stroke="#666666" points="502,-24.5 353,-24.5 353,-5.5 502,-5.5 502,-24.5"/>
<text text-anchor="middle" x="427.5" y="-12.5" font-family="Helvetica,sans-Serif" font-size="10.00">src/racing/render_courses.c</text>
</a>
</g>
</g>
<!-- Node1&#45;&gt;Node5 -->
<g id="edge4_Node000001_Node000005" class="edge">
<title>Node1&#45;&gt;Node5</title>
<g id="a_edge4_Node000001_Node000005"><a xlink:title=" ">
<path fill="none" stroke="#63b8ff" d="M271.65,-63.05C312.76,-50.64 366.84,-34.31 399.29,-24.52"/>
<polygon fill="#63b8ff" stroke="#63b8ff" points="270.59,-59.71 262.02,-65.95 272.61,-66.42 270.59,-59.71"/>
</a>
</g>
</g>
</g>
</svg>
