<?xml version="1.0" encoding="UTF-8" standalone="no"?>
<!DOCTYPE svg PUBLIC "-//W3C//DTD SVG 1.1//EN"
 "http://www.w3.org/Graphics/SVG/1.1/DTD/svg11.dtd">
<!-- Generated by graphviz version 2.43.0 (0)
 -->
<!-- Title: CustomEngineInit Pages: 1 -->
<svg width="375pt" height="27pt"
 viewBox="0.00 0.00 375.00 27.00" xmlns="http://www.w3.org/2000/svg" xmlns:xlink="http://www.w3.org/1999/xlink">
<g id="graph0" class="graph" transform="scale(1 1) rotate(0) translate(4 23)">
<title>CustomEngineInit</title>
<!-- Node1 -->
<g id="Node000001" class="node">
<title>Node1</title>
<g id="a_Node000001"><a xlink:title=" ">
<polygon fill="#999999" stroke="#666666" points="103,-19 0,-19 0,0 103,0 103,-19"/>
<text text-anchor="middle" x="51.5" y="-7" font-family="Helvetica,sans-Serif" font-size="10.00">CustomEngineInit</text>
</a>
</g>
</g>
<!-- Node2 -->
<g id="Node000002" class="node">
<title>Node2</title>
<g id="a_Node000002"><a xlink:href="Game_8cpp.html#aeea6e29785f2f2cdd48874c08e5c02a1" target="_top" xlink:title=" ">
<polygon fill="white" stroke="#666666" points="243,-19 139,-19 139,0 243,0 243,-19"/>
<text text-anchor="middle" x="191" y="-7" font-family="Helvetica,sans-Serif" font-size="10.00">SetMarioRaceway</text>
</a>
</g>
</g>
<!-- Node1&#45;&gt;Node2 -->
<g id="edge1_Node000001_Node000002" class="edge">
<title>Node1&#45;&gt;Node2</title>
<g id="a_edge1_Node000001_Node000002"><a xlink:title=" ">
<path fill="none" stroke="#63b8ff" d="M103.31,-9.5C111.58,-9.5 120.22,-9.5 128.7,-9.5"/>
<polygon fill="#63b8ff" stroke="#63b8ff" points="128.94,-13 138.94,-9.5 128.94,-6 128.94,-13"/>
</a>
</g>
</g>
<!-- Node3 -->
<g id="Node000003" class="node">
<title>Node3</title>
<g id="a_Node000003"><a xlink:href="Game_8cpp.html#a24c17fb197ea8720e0544c07db4e25dc" target="_top" xlink:title=" ">
<polygon fill="white" stroke="#666666" points="367,-19 279,-19 279,0 367,0 367,-19"/>
<text text-anchor="middle" x="323" y="-7" font-family="Helvetica,sans-Serif" font-size="10.00">SetCourseById</text>
</a>
</g>
</g>
<!-- Node2&#45;&gt;Node3 -->
<g id="edge2_Node000002_Node000003" class="edge">
<title>Node2&#45;&gt;Node3</title>
<g id="a_edge2_Node000002_Node000003"><a xlink:title=" ">
<path fill="none" stroke="#63b8ff" d="M243.01,-9.5C251.4,-9.5 260.12,-9.5 268.57,-9.5"/>
<polygon fill="#63b8ff" stroke="#63b8ff" points="268.71,-13 278.71,-9.5 268.71,-6 268.71,-13"/>
</a>
</g>
</g>
</g>
</svg>
