<?xml version="1.0" encoding="UTF-8" standalone="no"?>
<!DOCTYPE svg PUBLIC "-//W3C//DTD SVG 1.1//EN"
 "http://www.w3.org/Graphics/SVG/1.1/DTD/svg11.dtd">
<!-- Generated by graphviz version 2.43.0 (0)
 -->
<!-- Title: src/engine/editor/GameObject.h Pages: 1 -->
<svg width="999pt" height="192pt"
 viewBox="0.00 0.00 998.50 192.00" xmlns="http://www.w3.org/2000/svg" xmlns:xlink="http://www.w3.org/1999/xlink">
<g id="graph0" class="graph" transform="scale(1 1) rotate(0) translate(4 188)">
<title>src/engine/editor/GameObject.h</title>
<!-- Node1 -->
<g id="Node000001" class="node">
<title>Node1</title>
<g id="a_Node000001"><a xlink:title=" ">
<polygon fill="#999999" stroke="#666666" points="503.5,-184 332.5,-184 332.5,-165 503.5,-165 503.5,-184"/>
<text text-anchor="middle" x="418" y="-172" font-family="Helvetica,sans-Serif" font-size="10.00">src/engine/editor/GameObject.h</text>
</a>
</g>
</g>
<!-- Node2 -->
<g id="Node000002" class="node">
<title>Node2</title>
<g id="a_Node000002"><a xlink:title=" ">
<polygon fill="#e0e0e0" stroke="#999999" points="138,-74 0,-74 0,-55 138,-55 138,-74"/>
<text text-anchor="middle" x="69" y="-62" font-family="Helvetica,sans-Serif" font-size="10.00">libultraship/libultraship.h</text>
</a>
</g>
</g>
<!-- Node1&#45;&gt;Node2 -->
<g id="edge1_Node000001_Node000002" class="edge">
<title>Node1&#45;&gt;Node2</title>
<g id="a_edge1_Node000001_Node000002"><a xlink:title=" ">
<path fill="none" stroke="#63b8ff" d="M390.32,-164.94C328.09,-145.68 177.05,-98.94 106.49,-77.1"/>
<polygon fill="#63b8ff" stroke="#63b8ff" points="107.27,-73.68 96.68,-74.07 105.2,-80.37 107.27,-73.68"/>
</a>
</g>
</g>
<!-- Node3 -->
<g id="Node000003" class="node">
<title>Node3</title>
<g id="a_Node000003"><a xlink:title=" ">
<polygon fill="#e0e0e0" stroke="#999999" points="234,-74 156,-74 156,-55 234,-55 234,-74"/>
<text text-anchor="middle" x="195" y="-62" font-family="Helvetica,sans-Serif" font-size="10.00">libultra/gbi.h</text>
</a>
</g>
</g>
<!-- Node1&#45;&gt;Node3 -->
<g id="edge2_Node000001_Node000003" class="edge">
<title>Node1&#45;&gt;Node3</title>
<g id="a_edge2_Node000001_Node000003"><a xlink:title=" ">
<path fill="none" stroke="#63b8ff" d="M400.13,-164.84C361.05,-145.92 267.82,-100.77 221.73,-78.45"/>
<polygon fill="#63b8ff" stroke="#63b8ff" points="223.17,-75.26 212.65,-74.05 220.12,-81.56 223.17,-75.26"/>
</a>
</g>
</g>
<!-- Node4 -->
<g id="Node000004" class="node">
<title>Node4</title>
<g id="a_Node000004"><a xlink:title=" ">
<polygon fill="#e0e0e0" stroke="#999999" points="342,-74 252,-74 252,-55 342,-55 342,-74"/>
<text text-anchor="middle" x="297" y="-62" font-family="Helvetica,sans-Serif" font-size="10.00">libultra/types.h</text>
</a>
</g>
</g>
<!-- Node1&#45;&gt;Node4 -->
<g id="edge3_Node000001_Node000004" class="edge">
<title>Node1&#45;&gt;Node4</title>
<g id="a_edge3_Node000001_Node000004"><a xlink:title=" ">
<path fill="none" stroke="#63b8ff" d="M408.1,-164.66C387.52,-146.3 339.93,-103.81 314.22,-80.87"/>
<polygon fill="#63b8ff" stroke="#63b8ff" points="316.49,-78.21 306.7,-74.16 311.83,-83.43 316.49,-78.21"/>
</a>
</g>
</g>
<!-- Node5 -->
<g id="Node000005" class="node">
<title>Node5</title>
<g id="a_Node000005"><a xlink:href="CoreMath_8h.html" target="_top" xlink:title=" ">
<polygon fill="white" stroke="#666666" points="442,-74 360,-74 360,-55 442,-55 442,-74"/>
<text text-anchor="middle" x="401" y="-62" font-family="Helvetica,sans-Serif" font-size="10.00">../CoreMath.h</text>
</a>
</g>
</g>
<!-- Node1&#45;&gt;Node5 -->
<g id="edge4_Node000001_Node000005" class="edge">
<title>Node1&#45;&gt;Node5</title>
<g id="a_edge4_Node000001_Node000005"><a xlink:title=" ">
<path fill="none" stroke="#63b8ff" d="M414.23,-164.84C410.59,-156.01 405.31,-141.84 403,-129 400.33,-114.21 399.94,-97.17 400.15,-84.47"/>
<polygon fill="#63b8ff" stroke="#63b8ff" points="403.66,-84.32 400.47,-74.21 396.66,-84.1 403.66,-84.32"/>
</a>
</g>
</g>
<!-- Node7 -->
<g id="Node000007" class="node">
<title>Node7</title>
<g id="a_Node000007"><a xlink:href="EditorMath_8h.html" target="_top" xlink:title=" ">
<polygon fill="white" stroke="#666666" points="491.5,-129 412.5,-129 412.5,-110 491.5,-110 491.5,-129"/>
<text text-anchor="middle" x="452" y="-117" font-family="Helvetica,sans-Serif" font-size="10.00">EditorMath.h</text>
</a>
</g>
</g>
<!-- Node1&#45;&gt;Node7 -->
<g id="edge6_Node000001_Node000007" class="edge">
<title>Node1&#45;&gt;Node7</title>
<g id="a_edge6_Node000001_Node000007"><a xlink:title=" ">
<path fill="none" stroke="#63b8ff" d="M418.45,-164.75C421.64,-157.26 428.3,-146.28 435.02,-137.13"/>
<polygon fill="#63b8ff" stroke="#63b8ff" points="437.91,-139.11 441.36,-129.09 432.42,-134.77 437.91,-139.11"/>
</a>
</g>
</g>
<!-- Node8 -->
<g id="Node000008" class="node">
<title>Node8</title>
<g id="a_Node000008"><a xlink:title=" ">
<polygon fill="#e0e0e0" stroke="#999999" points="990.5,-74 943.5,-74 943.5,-55 990.5,-55 990.5,-74"/>
<text text-anchor="middle" x="967" y="-62" font-family="Helvetica,sans-Serif" font-size="10.00">vector</text>
</a>
</g>
</g>
<!-- Node1&#45;&gt;Node8 -->
<g id="edge17_Node000001_Node000008" class="edge">
<title>Node1&#45;&gt;Node8</title>
<g id="a_edge17_Node000001_Node000008"><a xlink:title=" ">
<path fill="none" stroke="#63b8ff" d="M469.27,-164.98C560.73,-149.48 758.12,-114.71 933.36,-74.28"/>
<polygon fill="#63b8ff" stroke="#63b8ff" points="934.32,-77.65 943.28,-71.98 932.74,-70.83 934.32,-77.65"/>
</a>
</g>
</g>
<!-- Node11 -->
<g id="Node000011" class="node">
<title>Node11</title>
<g id="a_Node000011"><a xlink:href="common__structs_8h.html" target="_top" xlink:title=" ">
<polygon fill="white" stroke="#666666" points="925.5,-74 818.5,-74 818.5,-55 925.5,-55 925.5,-74"/>
<text text-anchor="middle" x="872" y="-62" font-family="Helvetica,sans-Serif" font-size="10.00">common_structs.h</text>
</a>
</g>
</g>
<!-- Node1&#45;&gt;Node11 -->
<g id="edge18_Node000001_Node000011" class="edge">
<title>Node1&#45;&gt;Node11</title>
<g id="a_edge18_Node000001_Node000011"><a xlink:title=" ">
<path fill="none" stroke="#63b8ff" d="M454,-164.94C535.79,-145.48 735.48,-97.98 826.02,-76.44"/>
<polygon fill="#63b8ff" stroke="#63b8ff" points="827.07,-79.79 835.99,-74.07 825.45,-72.98 827.07,-79.79"/>
</a>
</g>
</g>
<!-- Node6 -->
<g id="Node000006" class="node">
<title>Node6</title>
<g id="a_Node000006"><a xlink:title=" ">
<polygon fill="#e0e0e0" stroke="#999999" points="676,-19 596,-19 596,0 676,0 676,-19"/>
<text text-anchor="middle" x="636" y="-7" font-family="Helvetica,sans-Serif" font-size="10.00">libultraship.h</text>
</a>
</g>
</g>
<!-- Node5&#45;&gt;Node6 -->
<g id="edge5_Node000005_Node000006" class="edge">
<title>Node5&#45;&gt;Node6</title>
<g id="a_edge5_Node000005_Node000006"><a xlink:title=" ">
<path fill="none" stroke="#63b8ff" d="M438.76,-54.98C479.32,-45.84 543.89,-31.27 588.03,-21.32"/>
<polygon fill="#63b8ff" stroke="#63b8ff" points="588.96,-24.7 597.95,-19.08 587.42,-17.87 588.96,-24.7"/>
</a>
</g>
</g>
<!-- Node7&#45;&gt;Node1 -->
<g id="edge12_Node000007_Node000001" class="edge">
<title>Node7&#45;&gt;Node1</title>
<g id="a_edge12_Node000007_Node000001"><a xlink:title=" ">
<path fill="none" stroke="#63b8ff" d="M451.62,-129.09C448.48,-136.52 441.84,-147.5 435.13,-156.67"/>
<polygon fill="#63b8ff" stroke="#63b8ff" points="432.21,-154.72 428.78,-164.75 437.71,-159.05 432.21,-154.72"/>
</a>
</g>
</g>
<!-- Node7&#45;&gt;Node2 -->
<g id="edge7_Node000007_Node000002" class="edge">
<title>Node7&#45;&gt;Node2</title>
<g id="a_edge7_Node000007_Node000002"><a xlink:title=" ">
<path fill="none" stroke="#63b8ff" d="M412.45,-113.03C348.4,-104.16 221.03,-86.54 140.69,-75.42"/>
<polygon fill="#63b8ff" stroke="#63b8ff" points="141.03,-71.93 130.64,-74.03 140.07,-78.87 141.03,-71.93"/>
</a>
</g>
</g>
<!-- Node7&#45;&gt;Node3 -->
<g id="edge8_Node000007_Node000003" class="edge">
<title>Node7&#45;&gt;Node3</title>
<g id="a_edge8_Node000007_Node000003"><a xlink:title=" ">
<path fill="none" stroke="#63b8ff" d="M412.41,-110.33C367.19,-101.01 293.16,-85.74 244.25,-75.66"/>
<polygon fill="#63b8ff" stroke="#63b8ff" points="244.72,-72.18 234.22,-73.59 243.3,-79.04 244.72,-72.18"/>
</a>
</g>
</g>
<!-- Node7&#45;&gt;Node4 -->
<g id="edge9_Node000007_Node000004" class="edge">
<title>Node7&#45;&gt;Node4</title>
<g id="a_edge9_Node000007_Node000004"><a xlink:title=" ">
<path fill="none" stroke="#63b8ff" d="M427.1,-109.98C401.3,-101.16 360.78,-87.31 331.82,-77.41"/>
<polygon fill="#63b8ff" stroke="#63b8ff" points="332.69,-74.01 322.1,-74.08 330.43,-80.63 332.69,-74.01"/>
</a>
</g>
</g>
<!-- Node7&#45;&gt;Node5 -->
<g id="edge10_Node000007_Node000005" class="edge">
<title>Node7&#45;&gt;Node5</title>
<g id="a_edge10_Node000007_Node000005"><a xlink:title=" ">
<path fill="none" stroke="#63b8ff" d="M443.58,-109.75C436.23,-102.11 425.37,-90.82 416.46,-81.56"/>
<polygon fill="#63b8ff" stroke="#63b8ff" points="418.72,-78.87 409.26,-74.09 413.68,-83.72 418.72,-78.87"/>
</a>
</g>
</g>
<!-- Node7&#45;&gt;Node8 -->
<g id="edge11_Node000007_Node000008" class="edge">
<title>Node7&#45;&gt;Node8</title>
<g id="a_edge11_Node000007_Node000008"><a xlink:title=" ">
<path fill="none" stroke="#63b8ff" d="M491.74,-117.09C573.07,-113.73 764.41,-103.35 933.27,-74.03"/>
<polygon fill="#63b8ff" stroke="#63b8ff" points="934.09,-77.44 943.33,-72.26 932.88,-70.55 934.09,-77.44"/>
</a>
</g>
</g>
<!-- Node9 -->
<g id="Node000009" class="node">
<title>Node9</title>
<g id="a_Node000009"><a xlink:title=" ">
<polygon fill="#e0e0e0" stroke="#999999" points="630,-74 460,-74 460,-55 630,-55 630,-74"/>
<text text-anchor="middle" x="545" y="-62" font-family="Helvetica,sans-Serif" font-size="10.00">graphic/Fast3D/Fast3dWindow.h</text>
</a>
</g>
</g>
<!-- Node7&#45;&gt;Node9 -->
<g id="edge13_Node000007_Node000009" class="edge">
<title>Node7&#45;&gt;Node9</title>
<g id="a_edge13_Node000007_Node000009"><a xlink:title=" ">
<path fill="none" stroke="#63b8ff" d="M466.94,-109.98C481.5,-101.69 503.87,-88.94 520.93,-79.22"/>
<polygon fill="#63b8ff" stroke="#63b8ff" points="522.83,-82.16 529.79,-74.17 519.36,-76.08 522.83,-82.16"/>
</a>
</g>
</g>
<!-- Node10 -->
<g id="Node000010" class="node">
<title>Node10</title>
<g id="a_Node000010"><a xlink:title=" ">
<polygon fill="#e0e0e0" stroke="#999999" points="800,-74 648,-74 648,-55 800,-55 800,-74"/>
<text text-anchor="middle" x="724" y="-62" font-family="Helvetica,sans-Serif" font-size="10.00">graphic/Fast3D/interpreter.h</text>
</a>
</g>
</g>
<!-- Node7&#45;&gt;Node10 -->
<g id="edge14_Node000007_Node000010" class="edge">
<title>Node7&#45;&gt;Node10</title>
<g id="a_edge14_Node000007_Node000010"><a xlink:title=" ">
<path fill="none" stroke="#63b8ff" d="M491.55,-110.79C538.75,-101.6 617.89,-86.18 670.52,-75.92"/>
<polygon fill="#63b8ff" stroke="#63b8ff" points="671.2,-79.35 680.35,-74.01 669.86,-72.48 671.2,-79.35"/>
</a>
</g>
</g>
<!-- Node7&#45;&gt;Node11 -->
<g id="edge15_Node000007_Node000011" class="edge">
<title>Node7&#45;&gt;Node11</title>
<g id="a_edge15_Node000007_Node000011"><a xlink:title=" ">
<path fill="none" stroke="#63b8ff" d="M491.64,-113.69C555.74,-105.89 686.39,-89.86 808.14,-74.1"/>
<polygon fill="#63b8ff" stroke="#63b8ff" points="808.92,-77.53 818.39,-72.77 808.02,-70.59 808.92,-77.53"/>
</a>
</g>
</g>
<!-- Node11&#45;&gt;Node6 -->
<g id="edge16_Node000011_Node000006" class="edge">
<title>Node11&#45;&gt;Node6</title>
<g id="a_edge16_Node000011_Node000006"><a xlink:title=" ">
<path fill="none" stroke="#63b8ff" d="M834.08,-54.98C793.35,-45.84 728.5,-31.27 684.18,-21.32"/>
<polygon fill="#63b8ff" stroke="#63b8ff" points="684.74,-17.86 674.21,-19.08 683.2,-24.69 684.74,-17.86"/>
</a>
</g>
</g>
</g>
</svg>
