<?xml version="1.0" encoding="UTF-8" standalone="no"?>
<!DOCTYPE svg PUBLIC "-//W3C//DTD SVG 1.1//EN"
 "http://www.w3.org/Graphics/SVG/1.1/DTD/svg11.dtd">
<!-- Generated by graphviz version 2.43.0 (0)
 -->
<!-- Title: CM_GetPropsCourseId Pages: 1 -->
<svg width="477pt" height="166pt"
 viewBox="0.00 0.00 477.00 166.00" xmlns="http://www.w3.org/2000/svg" xmlns:xlink="http://www.w3.org/1999/xlink">
<g id="graph0" class="graph" transform="scale(1 1) rotate(0) translate(4 162)">
<title>CM_GetPropsCourseId</title>
<!-- Node1 -->
<g id="Node000001" class="node">
<title>Node1</title>
<g id="a_Node000001"><a xlink:title=" ">
<polygon fill="#999999" stroke="#666666" points="469,-93.5 344,-93.5 344,-74.5 469,-74.5 469,-93.5"/>
<text text-anchor="middle" x="406.5" y="-81.5" font-family="Helvetica,sans-Serif" font-size="10.00">CM_GetPropsCourseId</text>
</a>
</g>
</g>
<!-- Node2 -->
<g id="Node000002" class="node">
<title>Node2</title>
<g id="a_Node000002"><a xlink:href="render__objects_8c.html#aa192f4b314faad1c8a4f27ee3152ebe6" target="_top" xlink:title=" ">
<polygon fill="white" stroke="#666666" points="286,-152.5 194,-152.5 194,-133.5 286,-133.5 286,-152.5"/>
<text text-anchor="middle" x="240" y="-140.5" font-family="Helvetica,sans-Serif" font-size="10.00">func_8004EF9C</text>
</a>
</g>
</g>
<!-- Node1&#45;&gt;Node2 -->
<g id="edge1_Node000001_Node000002" class="edge">
<title>Node1&#45;&gt;Node2</title>
<g id="a_edge1_Node000001_Node000002"><a xlink:title=" ">
<path fill="none" stroke="#63b8ff" d="M375.54,-97.84C356.46,-106.35 331.08,-117.09 308,-125 299.11,-128.05 289.42,-130.91 280.24,-133.41"/>
<polygon fill="#63b8ff" stroke="#63b8ff" points="377.22,-100.93 384.9,-93.63 374.34,-94.55 377.22,-100.93"/>
</a>
</g>
</g>
<!-- Node4 -->
<g id="Node000004" class="node">
<title>Node4</title>
<g id="a_Node000004"><a xlink:href="menu__items_8c.html#a84c992e63f0d9de4e6e0d4f6c54d6e5b" target="_top" xlink:title=" ">
<polygon fill="white" stroke="#666666" points="286,-115.5 194,-115.5 194,-96.5 286,-96.5 286,-115.5"/>
<text text-anchor="middle" x="240" y="-103.5" font-family="Helvetica,sans-Serif" font-size="10.00">func_800A3E60</text>
</a>
</g>
</g>
<!-- Node1&#45;&gt;Node4 -->
<g id="edge3_Node000001_Node000004" class="edge">
<title>Node1&#45;&gt;Node4</title>
<g id="a_edge3_Node000001_Node000004"><a xlink:title=" ">
<path fill="none" stroke="#63b8ff" d="M333.79,-93.59C317.59,-95.76 300.84,-98 286.11,-99.97"/>
<polygon fill="#63b8ff" stroke="#63b8ff" points="334.33,-97.05 343.78,-92.25 333.4,-90.11 334.33,-97.05"/>
</a>
</g>
</g>
<!-- Node5 -->
<g id="Node000005" class="node">
<title>Node5</title>
<g id="a_Node000005"><a xlink:href="menu__items_8c.html#a8c894a5f2b8beb6af8c5f34273083993" target="_top" xlink:title=" ">
<polygon fill="white" stroke="#666666" points="308,-78 172,-78 172,-48 308,-48 308,-78"/>
<text text-anchor="start" x="180" y="-66" font-family="Helvetica,sans-Serif" font-size="10.00">render_menu_item_data</text>
<text text-anchor="middle" x="240" y="-55" font-family="Helvetica,sans-Serif" font-size="10.00">_course_info</text>
</a>
</g>
</g>
<!-- Node1&#45;&gt;Node5 -->
<g id="edge4_Node000001_Node000005" class="edge">
<title>Node1&#45;&gt;Node5</title>
<g id="a_edge4_Node000001_Node000005"><a xlink:title=" ">
<path fill="none" stroke="#63b8ff" d="M333.82,-74.85C325.25,-73.76 316.53,-72.64 308.03,-71.56"/>
<polygon fill="#63b8ff" stroke="#63b8ff" points="333.42,-78.33 343.78,-76.12 334.3,-71.38 333.42,-78.33"/>
</a>
</g>
</g>
<!-- Node6 -->
<g id="Node000006" class="node">
<title>Node6</title>
<g id="a_Node000006"><a xlink:href="menu__items_8c.html#aed3039a1046528b6ed58495d396f9ba9" target="_top" xlink:title=" ">
<polygon fill="white" stroke="#666666" points="306,-30 174,-30 174,0 306,0 306,-30"/>
<text text-anchor="start" x="182" y="-18" font-family="Helvetica,sans-Serif" font-size="10.00">render_menu_item_end</text>
<text text-anchor="middle" x="240" y="-7" font-family="Helvetica,sans-Serif" font-size="10.00">_course_option</text>
</a>
</g>
</g>
<!-- Node1&#45;&gt;Node6 -->
<g id="edge5_Node000001_Node000006" class="edge">
<title>Node1&#45;&gt;Node6</title>
<g id="a_edge5_Node000001_Node000006"><a xlink:title=" ">
<path fill="none" stroke="#63b8ff" d="M376.79,-69.94C357.53,-60.7 331.47,-48.6 308,-39 300.57,-35.96 292.59,-32.92 284.82,-30.07"/>
<polygon fill="#63b8ff" stroke="#63b8ff" points="375.4,-73.15 385.93,-74.35 378.45,-66.85 375.4,-73.15"/>
</a>
</g>
</g>
<!-- Node3 -->
<g id="Node000003" class="node">
<title>Node3</title>
<g id="a_Node000003"><a xlink:href="menu__items_8c.html#a9fefc3d673e110249b5b83f9508d9b83" target="_top" xlink:title=" ">
<polygon fill="white" stroke="#666666" points="136,-158 0,-158 0,-128 136,-128 136,-158"/>
<text text-anchor="start" x="8" y="-146" font-family="Helvetica,sans-Serif" font-size="10.00">render_menu_item_data</text>
<text text-anchor="middle" x="68" y="-135" font-family="Helvetica,sans-Serif" font-size="10.00">_course_image</text>
</a>
</g>
</g>
<!-- Node2&#45;&gt;Node3 -->
<g id="edge2_Node000002_Node000003" class="edge">
<title>Node2&#45;&gt;Node3</title>
<g id="a_edge2_Node000002_Node000003"><a xlink:title=" ">
<path fill="none" stroke="#63b8ff" d="M183.64,-143C168.47,-143 151.86,-143 136.1,-143"/>
<polygon fill="#63b8ff" stroke="#63b8ff" points="183.89,-146.5 193.89,-143 183.89,-139.5 183.89,-146.5"/>
</a>
</g>
</g>
</g>
</svg>
