<?xml version="1.0" encoding="UTF-8" standalone="no"?>
<!DOCTYPE svg PUBLIC "-//W3C//DTD SVG 1.1//EN"
 "http://www.w3.org/Graphics/SVG/1.1/DTD/svg11.dtd">
<!-- Generated by graphviz version 2.43.0 (0)
 -->
<!-- Title: IsBowsersCastle Pages: 1 -->
<svg width="746pt" height="1409pt"
 viewBox="0.00 0.00 746.00 1409.00" xmlns="http://www.w3.org/2000/svg" xmlns:xlink="http://www.w3.org/1999/xlink">
<g id="graph0" class="graph" transform="scale(1 1) rotate(0) translate(4 1405)">
<title>IsBowsersCastle</title>
<!-- Node1 -->
<g id="Node000001" class="node">
<title>Node1</title>
<g id="a_Node000001"><a xlink:title=" ">
<polygon fill="#999999" stroke="#666666" points="738,-1111 641,-1111 641,-1092 738,-1092 738,-1111"/>
<text text-anchor="middle" x="689.5" y="-1099" font-family="Helvetica,sans-Serif" font-size="10.00">IsBowsersCastle</text>
</a>
</g>
</g>
<!-- Node2 -->
<g id="Node000002" class="node">
<title>Node2</title>
<g id="a_Node000002"><a xlink:href="code__80005FD0_8c.html#aeaabf249e9bc8adbf28afc97ff0b514d" target="_top" xlink:title=" ">
<polygon fill="white" stroke="#666666" points="579.5,-1364 487.5,-1364 487.5,-1345 579.5,-1345 579.5,-1364"/>
<text text-anchor="middle" x="533.5" y="-1352" font-family="Helvetica,sans-Serif" font-size="10.00">func_8001A310</text>
</a>
</g>
</g>
<!-- Node1&#45;&gt;Node2 -->
<g id="edge1_Node000001_Node000002" class="edge">
<title>Node1&#45;&gt;Node2</title>
<g id="a_edge1_Node000001_Node000002"><a xlink:title=" ">
<path fill="none" stroke="#63b8ff" d="M686.64,-1121.19C681.55,-1164.36 663.57,-1268.23 605,-1327.5 597.26,-1335.33 587.01,-1340.93 576.73,-1344.92"/>
<polygon fill="#63b8ff" stroke="#63b8ff" points="690.13,-1121.46 687.72,-1111.14 683.17,-1120.71 690.13,-1121.46"/>
</a>
</g>
</g>
<!-- Node57 -->
<g id="Node000057" class="node">
<title>Node57</title>
<g id="a_Node000057"><a xlink:href="player__controller_8c.html#a2d26c33b4b9015d7cf720e6d5530d376" target="_top" xlink:title=" ">
<polygon fill="white" stroke="#666666" points="221,-1157 129,-1157 129,-1138 221,-1138 221,-1157"/>
<text text-anchor="middle" x="175" y="-1145" font-family="Helvetica,sans-Serif" font-size="10.00">func_8002D268</text>
</a>
</g>
</g>
<!-- Node1&#45;&gt;Node57 -->
<g id="edge4_Node000001_Node000057" class="edge">
<title>Node1&#45;&gt;Node57</title>
<g id="a_edge4_Node000001_Node000057"><a xlink:title=" ">
<path fill="none" stroke="#63b8ff" d="M648.88,-1089.04C570.95,-1066.7 393.44,-1026.71 257,-1077.5 224.25,-1089.69 195.92,-1121.73 183.18,-1137.89"/>
<polygon fill="#63b8ff" stroke="#63b8ff" points="648.18,-1092.48 658.76,-1091.93 650.15,-1085.76 648.18,-1092.48"/>
</a>
</g>
</g>
<!-- Node69 -->
<g id="Node000069" class="node">
<title>Node69</title>
<g id="a_Node000069"><a xlink:href="code__80057C60_8c.html#abde2a6c2de1d59c40ebc18988a57dbc5" target="_top" xlink:title=" ">
<polygon fill="white" stroke="#666666" points="579,-1273 488,-1273 488,-1254 579,-1254 579,-1273"/>
<text text-anchor="middle" x="533.5" y="-1261" font-family="Helvetica,sans-Serif" font-size="10.00">func_800608E0</text>
</a>
</g>
</g>
<!-- Node1&#45;&gt;Node69 -->
<g id="edge9_Node000001_Node000069" class="edge">
<title>Node1&#45;&gt;Node69</title>
<g id="a_edge9_Node000001_Node000069"><a xlink:title=" ">
<path fill="none" stroke="#63b8ff" d="M679.21,-1120.21C665.7,-1145.97 638.53,-1192.68 605,-1223.5 590.91,-1236.45 571.89,-1246.93 557.16,-1253.91"/>
<polygon fill="#63b8ff" stroke="#63b8ff" points="682.41,-1121.64 683.85,-1111.14 676.18,-1118.44 682.41,-1121.64"/>
</a>
</g>
</g>
<!-- Node75 -->
<g id="Node000075" class="node">
<title>Node75</title>
<g id="a_Node000075"><a xlink:href="code__80057C60_8c.html#a68b6c90102b7a6e83ebf8807b90cc6a8" target="_top" xlink:title=" ">
<polygon fill="white" stroke="#666666" points="579,-1318 488,-1318 488,-1299 579,-1299 579,-1318"/>
<text text-anchor="middle" x="533.5" y="-1306" font-family="Helvetica,sans-Serif" font-size="10.00">func_80060F50</text>
</a>
</g>
</g>
<!-- Node1&#45;&gt;Node75 -->
<g id="edge12_Node000001_Node000075" class="edge">
<title>Node1&#45;&gt;Node75</title>
<g id="a_edge12_Node000001_Node000075"><a xlink:title=" ">
<path fill="none" stroke="#63b8ff" d="M684.62,-1121.25C676.4,-1158.04 653.83,-1237.38 605,-1282.5 597.05,-1289.85 586.84,-1295.16 576.68,-1298.99"/>
<polygon fill="#63b8ff" stroke="#63b8ff" points="688.08,-1121.8 686.72,-1111.29 681.23,-1120.35 688.08,-1121.8"/>
</a>
</g>
</g>
<!-- Node76 -->
<g id="Node000076" class="node">
<title>Node76</title>
<g id="a_Node000076"><a xlink:href="effects_8c.html#a80884e9db018960df253546f0c9718e5" target="_top" xlink:title=" ">
<polygon fill="white" stroke="#666666" points="579,-1154 488,-1154 488,-1135 579,-1135 579,-1154"/>
<text text-anchor="middle" x="533.5" y="-1142" font-family="Helvetica,sans-Serif" font-size="10.00">func_80090868</text>
</a>
</g>
</g>
<!-- Node1&#45;&gt;Node76 -->
<g id="edge14_Node000001_Node000076" class="edge">
<title>Node1&#45;&gt;Node76</title>
<g id="a_edge14_Node000001_Node000076"><a xlink:title=" ">
<path fill="none" stroke="#63b8ff" d="M644.68,-1113.74C620.53,-1120.48 590.99,-1128.73 568.58,-1134.98"/>
<polygon fill="#63b8ff" stroke="#63b8ff" points="645.63,-1117.1 654.32,-1111.04 643.75,-1110.36 645.63,-1117.1"/>
</a>
</g>
</g>
<!-- Node85 -->
<g id="Node000085" class="node">
<title>Node85</title>
<g id="a_Node000085"><a xlink:href="player__controller_8c.html#a6f9c3d01cab9a6cb4d72a421037c5c09" target="_top" xlink:title=" ">
<polygon fill="#fff0f0" stroke="red" points="418.5,-1250.5 264.5,-1250.5 264.5,-1220.5 418.5,-1220.5 418.5,-1250.5"/>
<text text-anchor="start" x="272.5" y="-1238.5" font-family="Helvetica,sans-Serif" font-size="10.00">update_player_environment</text>
<text text-anchor="middle" x="341.5" y="-1227.5" font-family="Helvetica,sans-Serif" font-size="10.00">_and_hazard_state</text>
</a>
</g>
</g>
<!-- Node1&#45;&gt;Node85 -->
<g id="edge52_Node000001_Node000085" class="edge">
<title>Node1&#45;&gt;Node85</title>
<g id="a_edge52_Node000001_Node000085"><a xlink:title=" ">
<path fill="none" stroke="#63b8ff" d="M670.71,-1117.82C654.63,-1131.77 629.74,-1151.45 605,-1163.5 545.52,-1192.47 472.59,-1211.28 418.71,-1222.39"/>
<polygon fill="#63b8ff" stroke="#63b8ff" points="673.11,-1120.37 678.27,-1111.11 668.46,-1115.13 673.11,-1120.37"/>
</a>
</g>
</g>
<!-- Node86 -->
<g id="Node000086" class="node">
<title>Node86</title>
<g id="a_Node000086"><a xlink:href="external_8c.html#ab95692e47151e93fb7d149534da6a180" target="_top" xlink:title=" ">
<polygon fill="white" stroke="#666666" points="579.5,-1030 487.5,-1030 487.5,-1011 579.5,-1011 579.5,-1030"/>
<text text-anchor="middle" x="533.5" y="-1018" font-family="Helvetica,sans-Serif" font-size="10.00">func_800C847C</text>
</a>
</g>
</g>
<!-- Node1&#45;&gt;Node86 -->
<g id="edge20_Node000001_Node000086" class="edge">
<title>Node1&#45;&gt;Node86</title>
<g id="a_edge20_Node000001_Node000086"><a xlink:title=" ">
<path fill="none" stroke="#63b8ff" d="M668.47,-1085.53C652.12,-1073.07 628.05,-1056.02 605,-1044.5 593.55,-1038.78 580.41,-1033.89 568.61,-1030.05"/>
<polygon fill="#63b8ff" stroke="#63b8ff" points="666.65,-1088.54 676.7,-1091.91 670.94,-1083.01 666.65,-1088.54"/>
</a>
</g>
</g>
<!-- Node91 -->
<g id="Node000091" class="node">
<title>Node91</title>
<g id="a_Node000091"><a xlink:href="render__courses_8c.html#a0c6536cf72cff97ccc3ed5c85967817e" target="_top" xlink:title=" ">
<polygon fill="#fff0f0" stroke="red" points="603,-556 464,-556 464,-537 603,-537 603,-556"/>
<text text-anchor="middle" x="533.5" y="-544" font-family="Helvetica,sans-Serif" font-size="10.00">render_course_segments</text>
</a>
</g>
</g>
<!-- Node1&#45;&gt;Node91 -->
<g id="edge22_Node000001_Node000091" class="edge">
<title>Node1&#45;&gt;Node91</title>
<g id="a_edge22_Node000001_Node000091"><a xlink:title=" ">
<path fill="none" stroke="#63b8ff" d="M683.15,-1082.22C658.4,-993.01 555.42,-621.9 537.25,-556.4"/>
<polygon fill="#63b8ff" stroke="#63b8ff" points="679.78,-1083.17 685.83,-1091.87 686.53,-1081.3 679.78,-1083.17"/>
</a>
</g>
</g>
<!-- Node126 -->
<g id="Node000126" class="node">
<title>Node126</title>
<g id="a_Node000126"><a xlink:href="render__player_8c.html#a0fc619c15119285d33e4217cb46bebbf" target="_top" xlink:title=" ">
<polygon fill="#fff0f0" stroke="red" points="605,-518.5 462,-518.5 462,-488.5 605,-488.5 605,-518.5"/>
<text text-anchor="start" x="470" y="-506.5" font-family="Helvetica,sans-Serif" font-size="10.00">render_light_environment</text>
<text text-anchor="middle" x="533.5" y="-495.5" font-family="Helvetica,sans-Serif" font-size="10.00">_on_player</text>
</a>
</g>
</g>
<!-- Node1&#45;&gt;Node126 -->
<g id="edge50_Node000001_Node000126" class="edge">
<title>Node1&#45;&gt;Node126</title>
<g id="a_edge50_Node000001_Node000126"><a xlink:title=" ">
<path fill="none" stroke="#63b8ff" d="M688.3,-1081.7C687.01,-990.84 677.31,-614.48 605,-527.5 602.19,-524.12 598.88,-521.21 595.26,-518.72"/>
<polygon fill="#63b8ff" stroke="#63b8ff" points="684.81,-1082 688.43,-1091.96 691.81,-1081.91 684.81,-1082"/>
</a>
</g>
</g>
<!-- Node130 -->
<g id="Node000130" class="node">
<title>Node130</title>
<g id="a_Node000130"><a xlink:href="actors_8c.html#aa6c218ad25d2200bdbf85cbbd197d1cd" target="_top" xlink:title=" ">
<polygon fill="#fff0f0" stroke="red" points="577,-470 490,-470 490,-451 577,-451 577,-470"/>
<text text-anchor="middle" x="533.5" y="-458" font-family="Helvetica,sans-Serif" font-size="10.00">spawn_foliage</text>
</a>
</g>
</g>
<!-- Node1&#45;&gt;Node130 -->
<g id="edge51_Node000001_Node000130" class="edge">
<title>Node1&#45;&gt;Node130</title>
<g id="a_edge51_Node000001_Node000130"><a xlink:title=" ">
<path fill="none" stroke="#63b8ff" d="M688.68,-1081.46C689.11,-985.29 686.16,-571.95 605,-479.5 597.89,-471.4 587.73,-466.59 577.33,-463.77"/>
<polygon fill="#63b8ff" stroke="#63b8ff" points="685.18,-1081.55 688.61,-1091.57 692.18,-1081.59 685.18,-1081.55"/>
</a>
</g>
</g>
<!-- Node3 -->
<g id="Node000003" class="node">
<title>Node3</title>
<g id="a_Node000003"><a xlink:href="code__80005FD0_8c.html#ade801375eb2285e6993ba1023fa00b1a" target="_top" xlink:title=" ">
<polygon fill="#fff0f0" stroke="red" points="387.5,-1364 295.5,-1364 295.5,-1345 387.5,-1345 387.5,-1364"/>
<text text-anchor="middle" x="341.5" y="-1352" font-family="Helvetica,sans-Serif" font-size="10.00">func_8001A348</text>
</a>
</g>
</g>
<!-- Node2&#45;&gt;Node3 -->
<g id="edge2_Node000002_Node000003" class="edge">
<title>Node2&#45;&gt;Node3</title>
<g id="a_edge2_Node000002_Node000003"><a xlink:title=" ">
<path fill="none" stroke="#63b8ff" d="M477.26,-1354.5C448.75,-1354.5 414.41,-1354.5 387.53,-1354.5"/>
<polygon fill="#63b8ff" stroke="#63b8ff" points="477.47,-1358 487.47,-1354.5 477.47,-1351 477.47,-1358"/>
</a>
</g>
</g>
<!-- Node55 -->
<g id="Node000055" class="node">
<title>Node55</title>
<g id="a_Node000055"><a xlink:href="code__80005FD0_8c.html#a671c7774931a008442d74e61aff710c6" target="_top" xlink:title=" ">
<polygon fill="#fff0f0" stroke="red" points="387.5,-1401 295.5,-1401 295.5,-1382 387.5,-1382 387.5,-1401"/>
<text text-anchor="middle" x="341.5" y="-1389" font-family="Helvetica,sans-Serif" font-size="10.00">func_8001A450</text>
</a>
</g>
</g>
<!-- Node2&#45;&gt;Node55 -->
<g id="edge3_Node000002_Node000055" class="edge">
<title>Node2&#45;&gt;Node55</title>
<g id="a_edge3_Node000002_Node000055"><a xlink:title=" ">
<path fill="none" stroke="#63b8ff" d="M477.63,-1365.18C449.05,-1370.75 414.53,-1377.47 387.53,-1382.73"/>
<polygon fill="#63b8ff" stroke="#63b8ff" points="478.33,-1368.62 487.47,-1363.27 476.99,-1361.74 478.33,-1368.62"/>
</a>
</g>
</g>
<!-- Node58 -->
<g id="Node000058" class="node">
<title>Node58</title>
<g id="a_Node000058"><a xlink:href="player__controller_8c.html#aa21a6f9daddde93e668d3faea6cc99af" target="_top" xlink:title=" ">
<polygon fill="#fff0f0" stroke="red" points="92,-1213 1,-1213 1,-1194 92,-1194 92,-1213"/>
<text text-anchor="middle" x="46.5" y="-1201" font-family="Helvetica,sans-Serif" font-size="10.00">func_80028864</text>
</a>
</g>
</g>
<!-- Node57&#45;&gt;Node58 -->
<g id="edge5_Node000057_Node000058" class="edge">
<title>Node57&#45;&gt;Node58</title>
<g id="a_edge5_Node000057_Node000058"><a xlink:title=" ">
<path fill="none" stroke="#63b8ff" d="M145.48,-1161.41C130.05,-1168.8 110.6,-1177.9 93,-1185.5 86.45,-1188.33 79.3,-1191.24 72.65,-1193.87"/>
<polygon fill="#63b8ff" stroke="#63b8ff" points="147.02,-1164.55 154.51,-1157.06 143.98,-1158.24 147.02,-1164.55"/>
</a>
</g>
</g>
<!-- Node63 -->
<g id="Node000063" class="node">
<title>Node63</title>
<g id="a_Node000063"><a xlink:href="player__controller_8c.html#a12ff1c6ca5f43df67c2dc560e257f90d" target="_top" xlink:title=" ">
<polygon fill="#fff0f0" stroke="red" points="92.5,-1176 0.5,-1176 0.5,-1157 92.5,-1157 92.5,-1176"/>
<text text-anchor="middle" x="46.5" y="-1164" font-family="Helvetica,sans-Serif" font-size="10.00">func_80028C44</text>
</a>
</g>
</g>
<!-- Node57&#45;&gt;Node63 -->
<g id="edge6_Node000057_Node000063" class="edge">
<title>Node57&#45;&gt;Node63</title>
<g id="a_edge6_Node000057_Node000063"><a xlink:title=" ">
<path fill="none" stroke="#63b8ff" d="M118.71,-1155.8C110.09,-1157.1 101.28,-1158.42 92.92,-1159.68"/>
<polygon fill="#63b8ff" stroke="#63b8ff" points="119.32,-1159.25 128.69,-1154.31 118.28,-1152.33 119.32,-1159.25"/>
</a>
</g>
</g>
<!-- Node64 -->
<g id="Node000064" class="node">
<title>Node64</title>
<g id="a_Node000064"><a xlink:href="player__controller_8c.html#af9651bf87a9264e8c268338cf30fbe5a" target="_top" xlink:title=" ">
<polygon fill="#fff0f0" stroke="red" points="93,-1139 0,-1139 0,-1120 93,-1120 93,-1139"/>
<text text-anchor="middle" x="46.5" y="-1127" font-family="Helvetica,sans-Serif" font-size="10.00">func_80028D3C</text>
</a>
</g>
</g>
<!-- Node57&#45;&gt;Node64 -->
<g id="edge7_Node000057_Node000064" class="edge">
<title>Node57&#45;&gt;Node64</title>
<g id="a_edge7_Node000057_Node000064"><a xlink:title=" ">
<path fill="none" stroke="#63b8ff" d="M118.55,-1139.61C110.14,-1138.41 101.53,-1137.19 93.35,-1136.02"/>
<polygon fill="#63b8ff" stroke="#63b8ff" points="118.29,-1143.11 128.69,-1141.05 119.28,-1136.18 118.29,-1143.11"/>
</a>
</g>
</g>
<!-- Node65 -->
<g id="Node000065" class="node">
<title>Node65</title>
<g id="a_Node000065"><a xlink:href="spawn__players_8c.html#a1d1dc4164aa554583609ad0d9bbbf276" target="_top" xlink:title=" ">
<polygon fill="#fff0f0" stroke="red" points="93,-1102 0,-1102 0,-1083 93,-1083 93,-1102"/>
<text text-anchor="middle" x="46.5" y="-1090" font-family="Helvetica,sans-Serif" font-size="10.00">func_8003CD98</text>
</a>
</g>
</g>
<!-- Node57&#45;&gt;Node65 -->
<g id="edge8_Node000057_Node000065" class="edge">
<title>Node57&#45;&gt;Node65</title>
<g id="a_edge8_Node000057_Node000065"><a xlink:title=" ">
<path fill="none" stroke="#63b8ff" d="M143.35,-1133.68C128.23,-1126.91 109.69,-1118.69 93,-1111.5 85.77,-1108.38 77.86,-1105.05 70.69,-1102.06"/>
<polygon fill="#63b8ff" stroke="#63b8ff" points="142.18,-1136.99 152.74,-1137.89 145.05,-1130.61 142.18,-1136.99"/>
</a>
</g>
</g>
<!-- Node70 -->
<g id="Node000070" class="node">
<title>Node70</title>
<g id="a_Node000070"><a xlink:href="code__80057C60_8c.html#a1490de17555e1b9a2120d0057fb14b4d" target="_top" xlink:title=" ">
<polygon fill="white" stroke="#666666" points="387.5,-1288 295.5,-1288 295.5,-1269 387.5,-1269 387.5,-1288"/>
<text text-anchor="middle" x="341.5" y="-1276" font-family="Helvetica,sans-Serif" font-size="10.00">func_80060B14</text>
</a>
</g>
</g>
<!-- Node69&#45;&gt;Node70 -->
<g id="edge10_Node000069_Node000070" class="edge">
<title>Node69&#45;&gt;Node70</title>
<g id="a_edge10_Node000069_Node000070"><a xlink:title=" ">
<path fill="none" stroke="#63b8ff" d="M477.74,-1267.82C449.21,-1270.08 414.75,-1272.8 387.76,-1274.93"/>
<polygon fill="#63b8ff" stroke="#63b8ff" points="478.26,-1271.29 487.95,-1267.02 477.71,-1264.31 478.26,-1271.29"/>
</a>
</g>
</g>
<!-- Node71 -->
<g id="Node000071" class="node">
<title>Node71</title>
<g id="a_Node000071"><a xlink:href="code__80057C60_8c.html#a94ae7b8fed85a9beb44133cfb5ab1aaf" target="_top" xlink:title=" ">
<polygon fill="#fff0f0" stroke="red" points="221,-1307 129,-1307 129,-1288 221,-1288 221,-1307"/>
<text text-anchor="middle" x="175" y="-1295" font-family="Helvetica,sans-Serif" font-size="10.00">func_8006CEC0</text>
</a>
</g>
</g>
<!-- Node70&#45;&gt;Node71 -->
<g id="edge11_Node000070_Node000071" class="edge">
<title>Node70&#45;&gt;Node71</title>
<g id="a_edge11_Node000070_Node000071"><a xlink:title=" ">
<path fill="none" stroke="#63b8ff" d="M285.14,-1284.89C264.36,-1287.29 241,-1289.99 221.24,-1292.27"/>
<polygon fill="#63b8ff" stroke="#63b8ff" points="285.58,-1288.37 295.11,-1283.74 284.78,-1281.41 285.58,-1288.37"/>
</a>
</g>
</g>
<!-- Node75&#45;&gt;Node71 -->
<g id="edge13_Node000075_Node000071" class="edge">
<title>Node75&#45;&gt;Node71</title>
<g id="a_edge13_Node000075_Node000071"><a xlink:title=" ">
<path fill="none" stroke="#63b8ff" d="M477.71,-1306.81C407.34,-1304.64 286.53,-1300.91 221.17,-1298.89"/>
<polygon fill="#63b8ff" stroke="#63b8ff" points="477.61,-1310.31 487.71,-1307.12 477.82,-1303.31 477.61,-1310.31"/>
</a>
</g>
</g>
<!-- Node77 -->
<g id="Node000077" class="node">
<title>Node77</title>
<g id="a_Node000077"><a xlink:href="effects_8c.html#afaeabb9e08b6568f56117c24edad5945" target="_top" xlink:title=" ">
<polygon fill="#fff0f0" stroke="red" points="387,-1154 296,-1154 296,-1135 387,-1135 387,-1154"/>
<text text-anchor="middle" x="341.5" y="-1142" font-family="Helvetica,sans-Serif" font-size="10.00">func_8008F3F4</text>
</a>
</g>
</g>
<!-- Node76&#45;&gt;Node77 -->
<g id="edge15_Node000076_Node000077" class="edge">
<title>Node76&#45;&gt;Node77</title>
<g id="a_edge15_Node000076_Node000077"><a xlink:title=" ">
<path fill="none" stroke="#63b8ff" d="M477.66,-1144.5C448.92,-1144.5 414.17,-1144.5 387.1,-1144.5"/>
<polygon fill="#63b8ff" stroke="#63b8ff" points="477.95,-1148 487.95,-1144.5 477.95,-1141 477.95,-1148"/>
</a>
</g>
</g>
<!-- Node82 -->
<g id="Node000082" class="node">
<title>Node82</title>
<g id="a_Node000082"><a xlink:href="classOLakitu.html#a3ce1b0af2e2fda16f068e14cf7d70b00" target="_top" xlink:title=" ">
<polygon fill="#fff0f0" stroke="red" points="406,-1116.5 277,-1116.5 277,-1086.5 406,-1086.5 406,-1116.5"/>
<text text-anchor="start" x="285" y="-1104.5" font-family="Helvetica,sans-Serif" font-size="10.00">OLakitu::update_object</text>
<text text-anchor="middle" x="341.5" y="-1093.5" font-family="Helvetica,sans-Serif" font-size="10.00">_lakitu_fishing</text>
</a>
</g>
</g>
<!-- Node76&#45;&gt;Node82 -->
<g id="edge16_Node000076_Node000082" class="edge">
<title>Node76&#45;&gt;Node82</title>
<g id="a_edge16_Node000076_Node000082"><a xlink:title=" ">
<path fill="none" stroke="#63b8ff" d="M480.45,-1132.72C457.52,-1127.53 430.35,-1121.38 406.22,-1115.92"/>
<polygon fill="#63b8ff" stroke="#63b8ff" points="479.81,-1136.16 490.33,-1134.96 481.35,-1129.34 479.81,-1136.16"/>
</a>
</g>
</g>
<!-- Node84 -->
<g id="Node000084" class="node">
<title>Node84</title>
<g id="a_Node000084"><a xlink:href="classOLakitu.html#ae2d55a829f7aa8bdf53987d45f5dd3b7" target="_top" xlink:title=" ">
<polygon fill="#fff0f0" stroke="red" points="406,-1202.5 277,-1202.5 277,-1172.5 406,-1172.5 406,-1202.5"/>
<text text-anchor="start" x="285" y="-1190.5" font-family="Helvetica,sans-Serif" font-size="10.00">OLakitu::update_object</text>
<text text-anchor="middle" x="341.5" y="-1179.5" font-family="Helvetica,sans-Serif" font-size="10.00">_lakitu_fishing2</text>
</a>
</g>
</g>
<!-- Node76&#45;&gt;Node84 -->
<g id="edge17_Node000076_Node000084" class="edge">
<title>Node76&#45;&gt;Node84</title>
<g id="a_edge17_Node000076_Node000084"><a xlink:title=" ">
<path fill="none" stroke="#63b8ff" d="M480.45,-1156.28C457.52,-1161.47 430.35,-1167.62 406.22,-1173.08"/>
<polygon fill="#63b8ff" stroke="#63b8ff" points="481.35,-1159.66 490.33,-1154.04 479.81,-1152.84 481.35,-1159.66"/>
</a>
</g>
</g>
<!-- Node76&#45;&gt;Node85 -->
<g id="edge18_Node000076_Node000085" class="edge">
<title>Node76&#45;&gt;Node85</title>
<g id="a_edge18_Node000076_Node000085"><a xlink:title=" ">
<path fill="none" stroke="#63b8ff" d="M511.63,-1160.13C490.85,-1175.08 457.58,-1197.37 426,-1211.5 418.57,-1214.83 410.55,-1217.82 402.53,-1220.47"/>
<polygon fill="#63b8ff" stroke="#63b8ff" points="513.71,-1162.95 519.73,-1154.22 509.58,-1157.29 513.71,-1162.95"/>
</a>
</g>
</g>
<!-- Node85&#45;&gt;Node57 -->
<g id="edge19_Node000085_Node000057" class="edge">
<title>Node85&#45;&gt;Node57</title>
<g id="a_edge19_Node000085_Node000057"><a xlink:title=" ">
<path fill="none" stroke="#63b8ff" d="M268.53,-1216.81C264.57,-1215.17 260.7,-1213.4 257,-1211.5 228.3,-1196.77 199.91,-1171.11 185.59,-1157.18"/>
<polygon fill="#63b8ff" stroke="#63b8ff" points="267.31,-1220.09 277.9,-1220.42 269.83,-1213.56 267.31,-1220.09"/>
</a>
</g>
</g>
<!-- Node87 -->
<g id="Node000087" class="node">
<title>Node87</title>
<g id="a_Node000087"><a xlink:href="external_8c.html#aebe0a7e33d0961a0ad7e4ba40a49a032" target="_top" xlink:title=" ">
<polygon fill="#fff0f0" stroke="red" points="388.5,-1030 294.5,-1030 294.5,-1011 388.5,-1011 388.5,-1030"/>
<text text-anchor="middle" x="341.5" y="-1018" font-family="Helvetica,sans-Serif" font-size="10.00">func_800C8CCC</text>
</a>
</g>
</g>
<!-- Node86&#45;&gt;Node87 -->
<g id="edge21_Node000086_Node000087" class="edge">
<title>Node86&#45;&gt;Node87</title>
<g id="a_edge21_Node000086_Node000087"><a xlink:title=" ">
<path fill="none" stroke="#63b8ff" d="M477.37,-1020.5C449.19,-1020.5 415.29,-1020.5 388.52,-1020.5"/>
<polygon fill="#63b8ff" stroke="#63b8ff" points="477.47,-1024 487.47,-1020.5 477.47,-1017 477.47,-1024"/>
</a>
</g>
</g>
<!-- Node92 -->
<g id="Node000092" class="node">
<title>Node92</title>
<g id="a_Node000092"><a xlink:href="classKoopaTroopaBeach.html#a7790540cdd46c8cef5c0d9db8d12b5ec" target="_top" xlink:title=" ">
<polygon fill="white" stroke="#666666" points="426,-611 257,-611 257,-592 426,-592 426,-611"/>
<text text-anchor="middle" x="341.5" y="-599" font-family="Helvetica,sans-Serif" font-size="10.00">KoopaTroopaBeach::DrawWater</text>
</a>
</g>
</g>
<!-- Node91&#45;&gt;Node92 -->
<g id="edge23_Node000091_Node000092" class="edge">
<title>Node91&#45;&gt;Node92</title>
<g id="a_edge23_Node000091_Node000092"><a xlink:title=" ">
<path fill="none" stroke="#63b8ff" d="M498.19,-559.62C477.48,-567.23 450.46,-576.64 426,-583.5 415.01,-586.58 403.07,-589.44 391.76,-591.93"/>
<polygon fill="#63b8ff" stroke="#63b8ff" points="499.66,-562.81 507.81,-556.04 497.22,-556.24 499.66,-562.81"/>
</a>
</g>
</g>
<!-- Node93 -->
<g id="Node000093" class="node">
<title>Node93</title>
<g id="a_Node000093"><a xlink:href="classRainbowRoad.html#a97b8108b8f7cd71b8112f52a01ddf9a3" target="_top" xlink:title=" ">
<polygon fill="white" stroke="#666666" points="413,-574 270,-574 270,-555 413,-555 413,-574"/>
<text text-anchor="middle" x="341.5" y="-562" font-family="Helvetica,sans-Serif" font-size="10.00">RainbowRoad::DrawWater</text>
</a>
</g>
</g>
<!-- Node91&#45;&gt;Node93 -->
<g id="edge24_Node000091_Node000093" class="edge">
<title>Node91&#45;&gt;Node93</title>
<g id="a_edge24_Node000091_Node000093"><a xlink:title=" ">
<path fill="none" stroke="#63b8ff" d="M453.74,-553.96C440.31,-555.23 426.44,-556.55 413.23,-557.8"/>
<polygon fill="#63b8ff" stroke="#63b8ff" points="454.28,-557.43 463.91,-553 453.62,-550.46 454.28,-557.43"/>
</a>
</g>
</g>
<!-- Node94 -->
<g id="Node000094" class="node">
<title>Node94</title>
<g id="a_Node000094"><a xlink:href="classSherbetLand.html#a8920d448b38a9ca5174ee1150c569746" target="_top" xlink:title=" ">
<polygon fill="white" stroke="#666666" points="410,-537 273,-537 273,-518 410,-518 410,-537"/>
<text text-anchor="middle" x="341.5" y="-525" font-family="Helvetica,sans-Serif" font-size="10.00">SherbetLand::DrawWater</text>
</a>
</g>
</g>
<!-- Node91&#45;&gt;Node94 -->
<g id="edge25_Node000091_Node000094" class="edge">
<title>Node91&#45;&gt;Node94</title>
<g id="a_edge25_Node000091_Node000094"><a xlink:title=" ">
<path fill="none" stroke="#63b8ff" d="M453.92,-538.64C439.35,-537.18 424.25,-535.67 410.04,-534.25"/>
<polygon fill="#63b8ff" stroke="#63b8ff" points="453.61,-542.13 463.91,-539.64 454.3,-535.16 453.61,-542.13"/>
</a>
</g>
</g>
<!-- Node95 -->
<g id="Node000095" class="node">
<title>Node95</title>
<g id="a_Node000095"><a xlink:href="classBansheeBoardwalk.html#a5964a70c120565a07669c19ae791f843" target="_top" xlink:title=" ">
<polygon fill="white" stroke="#666666" points="417,-500 266,-500 266,-481 417,-481 417,-500"/>
<text text-anchor="middle" x="341.5" y="-488" font-family="Helvetica,sans-Serif" font-size="10.00">BansheeBoardwalk::Render</text>
</a>
</g>
</g>
<!-- Node91&#45;&gt;Node95 -->
<g id="edge26_Node000091_Node000095" class="edge">
<title>Node91&#45;&gt;Node95</title>
<g id="a_edge26_Node000091_Node000095"><a xlink:title=" ">
<path fill="none" stroke="#63b8ff" d="M481.39,-534.17C474.79,-532.16 468.18,-529.93 462,-527.5 445.16,-520.88 443,-514.69 426,-508.5 416.94,-505.2 407.1,-502.42 397.46,-500.1"/>
<polygon fill="#63b8ff" stroke="#63b8ff" points="480.41,-537.54 490.99,-536.96 482.37,-530.81 480.41,-537.54"/>
</a>
</g>
</g>
<!-- Node96 -->
<g id="Node000096" class="node">
<title>Node96</title>
<g id="a_Node000096"><a xlink:href="classBowsersCastle.html#af670116693c9440f1f6ff5d26a7a18f8" target="_top" xlink:title=" ">
<polygon fill="white" stroke="#666666" points="406,-463 277,-463 277,-444 406,-444 406,-463"/>
<text text-anchor="middle" x="341.5" y="-451" font-family="Helvetica,sans-Serif" font-size="10.00">BowsersCastle::Render</text>
</a>
</g>
</g>
<!-- Node91&#45;&gt;Node96 -->
<g id="edge27_Node000091_Node000096" class="edge">
<title>Node91&#45;&gt;Node96</title>
<g id="a_edge27_Node000091_Node000096"><a xlink:title=" ">
<path fill="none" stroke="#63b8ff" d="M470.48,-532.76C467.51,-531.19 464.66,-529.45 462,-527.5 438.12,-510.04 450.32,-488.35 426,-471.5 420.03,-467.36 413.28,-464.15 406.28,-461.66"/>
<polygon fill="#63b8ff" stroke="#63b8ff" points="469.13,-535.99 479.68,-536.95 472.03,-529.62 469.13,-535.99"/>
</a>
</g>
</g>
<!-- Node97 -->
<g id="Node000097" class="node">
<title>Node97</title>
<g id="a_Node000097"><a xlink:href="classChocoMountain.html#aa64bf253e5759e09a98d47d6eb96d965" target="_top" xlink:title=" ">
<polygon fill="white" stroke="#666666" points="408,-426 275,-426 275,-407 408,-407 408,-426"/>
<text text-anchor="middle" x="341.5" y="-414" font-family="Helvetica,sans-Serif" font-size="10.00">ChocoMountain::Render</text>
</a>
</g>
</g>
<!-- Node91&#45;&gt;Node97 -->
<g id="edge28_Node000091_Node000097" class="edge">
<title>Node91&#45;&gt;Node97</title>
<g id="a_edge28_Node000091_Node000097"><a xlink:title=" ">
<path fill="none" stroke="#63b8ff" d="M467.61,-531.87C465.64,-530.54 463.76,-529.08 462,-527.5 429.04,-497.87 459.7,-463.29 426,-434.5 420.81,-430.07 414.79,-426.65 408.41,-424.02"/>
<polygon fill="#63b8ff" stroke="#63b8ff" points="466.33,-535.16 476.76,-536.99 469.75,-529.05 466.33,-535.16"/>
</a>
</g>
</g>
<!-- Node98 -->
<g id="Node000098" class="node">
<title>Node98</title>
<g id="a_Node000098"><a xlink:href="classDKJungle.html#abb8ab2f6dba395f0f89448973196bc64" target="_top" xlink:title=" ">
<polygon fill="white" stroke="#666666" points="392,-389 291,-389 291,-370 392,-370 392,-389"/>
<text text-anchor="middle" x="341.5" y="-377" font-family="Helvetica,sans-Serif" font-size="10.00">DKJungle::Render</text>
</a>
</g>
</g>
<!-- Node91&#45;&gt;Node98 -->
<g id="edge29_Node000091_Node000098" class="edge">
<title>Node91&#45;&gt;Node98</title>
<g id="a_edge29_Node000091_Node000098"><a xlink:title=" ">
<path fill="none" stroke="#63b8ff" d="M466.62,-531.51C465,-530.27 463.45,-528.94 462,-527.5 419.46,-485.25 469.6,-438.65 426,-397.5 416.83,-388.85 404.55,-383.96 392.23,-381.28"/>
<polygon fill="#63b8ff" stroke="#63b8ff" points="464.99,-534.61 475.33,-536.91 468.67,-528.66 464.99,-534.61"/>
</a>
</g>
</g>
<!-- Node99 -->
<g id="Node000099" class="node">
<title>Node99</title>
<g id="a_Node000099"><a xlink:href="classFrappeSnowland.html#a1fd083ac467df5829a3fd99525eb06f5" target="_top" xlink:title=" ">
<polygon fill="white" stroke="#666666" points="410,-352 273,-352 273,-333 410,-333 410,-352"/>
<text text-anchor="middle" x="341.5" y="-340" font-family="Helvetica,sans-Serif" font-size="10.00">FrappeSnowland::Render</text>
</a>
</g>
</g>
<!-- Node91&#45;&gt;Node99 -->
<g id="edge30_Node000091_Node000099" class="edge">
<title>Node91&#45;&gt;Node99</title>
<g id="a_edge30_Node000091_Node000099"><a xlink:title=" ">
<path fill="none" stroke="#63b8ff" d="M466.02,-531.22C464.6,-530.06 463.26,-528.83 462,-527.5 409.7,-472.46 479.69,-414.19 426,-360.5 421.49,-355.99 416.14,-352.49 410.36,-349.78"/>
<polygon fill="#63b8ff" stroke="#63b8ff" points="464.48,-534.4 474.76,-536.96 468.32,-528.54 464.48,-534.4"/>
</a>
</g>
</g>
<!-- Node100 -->
<g id="Node000100" class="node">
<title>Node100</title>
<g id="a_Node000100"><a xlink:href="classKalimariDesert.html#aad824dbb6927b40d907cb96d2c62e223" target="_top" xlink:title=" ">
<polygon fill="white" stroke="#666666" points="407,-315 276,-315 276,-296 407,-296 407,-315"/>
<text text-anchor="middle" x="341.5" y="-303" font-family="Helvetica,sans-Serif" font-size="10.00">KalimariDesert::Render</text>
</a>
</g>
</g>
<!-- Node91&#45;&gt;Node100 -->
<g id="edge31_Node000091_Node000100" class="edge">
<title>Node91&#45;&gt;Node100</title>
<g id="a_edge31_Node000091_Node000100"><a xlink:title=" ">
<path fill="none" stroke="#63b8ff" d="M465.85,-531.2C464.49,-530.05 463.21,-528.82 462,-527.5 399.84,-459.58 489.86,-389.82 426,-323.5 420.75,-318.05 414.28,-314.06 407.29,-311.16"/>
<polygon fill="#63b8ff" stroke="#63b8ff" points="464.03,-534.19 474.27,-536.92 467.97,-528.4 464.03,-534.19"/>
</a>
</g>
</g>
<!-- Node101 -->
<g id="Node000101" class="node">
<title>Node101</title>
<g id="a_Node000101"><a xlink:href="classKoopaTroopaBeach.html#aafdd68838a096c5b0ce03cbe52fa1996" target="_top" xlink:title=" ">
<polygon fill="white" stroke="#666666" points="416,-278 267,-278 267,-259 416,-259 416,-278"/>
<text text-anchor="middle" x="341.5" y="-266" font-family="Helvetica,sans-Serif" font-size="10.00">KoopaTroopaBeach::Render</text>
</a>
</g>
</g>
<!-- Node91&#45;&gt;Node101 -->
<g id="edge32_Node000091_Node000101" class="edge">
<title>Node91&#45;&gt;Node101</title>
<g id="a_edge32_Node000091_Node000101"><a xlink:title=" ">
<path fill="none" stroke="#63b8ff" d="M465.35,-530.84C464.17,-529.8 463.05,-528.68 462,-527.5 389.95,-446.65 500.09,-365.49 426,-286.5 422.86,-283.15 419.25,-280.34 415.34,-278"/>
<polygon fill="#63b8ff" stroke="#63b8ff" points="463.64,-533.92 473.83,-536.83 467.68,-528.2 463.64,-533.92"/>
</a>
</g>
</g>
<!-- Node102 -->
<g id="Node000102" class="node">
<title>Node102</title>
<g id="a_Node000102"><a xlink:href="classLuigiRaceway.html#a50da353726332129520768fb119ceb3e" target="_top" xlink:title=" ">
<polygon fill="white" stroke="#666666" points="403.5,-241 279.5,-241 279.5,-222 403.5,-222 403.5,-241"/>
<text text-anchor="middle" x="341.5" y="-229" font-family="Helvetica,sans-Serif" font-size="10.00">LuigiRaceway::Render</text>
</a>
</g>
</g>
<!-- Node91&#45;&gt;Node102 -->
<g id="edge33_Node000091_Node000102" class="edge">
<title>Node91&#45;&gt;Node102</title>
<g id="a_edge33_Node000091_Node000102"><a xlink:title=" ">
<path fill="none" stroke="#63b8ff" d="M465.32,-530.87C464.15,-529.82 463.04,-528.69 462,-527.5 380.02,-433.68 510.34,-341.2 426,-249.5 419.98,-242.95 412.19,-238.48 403.8,-235.48"/>
<polygon fill="#63b8ff" stroke="#63b8ff" points="463.58,-533.93 473.75,-536.9 467.65,-528.24 463.58,-533.93"/>
</a>
</g>
</g>
<!-- Node103 -->
<g id="Node000103" class="node">
<title>Node103</title>
<g id="a_Node000103"><a xlink:href="classMarioRaceway.html#a4132ff796ca22dc242d26081946a5032" target="_top" xlink:title=" ">
<polygon fill="white" stroke="#666666" points="405.5,-204 277.5,-204 277.5,-185 405.5,-185 405.5,-204"/>
<text text-anchor="middle" x="341.5" y="-192" font-family="Helvetica,sans-Serif" font-size="10.00">MarioRaceway::Render</text>
</a>
</g>
</g>
<!-- Node91&#45;&gt;Node103 -->
<g id="edge34_Node000091_Node000103" class="edge">
<title>Node91&#45;&gt;Node103</title>
<g id="a_edge34_Node000091_Node000103"><a xlink:title=" ">
<path fill="none" stroke="#63b8ff" d="M465.29,-530.89C464.13,-529.83 463.03,-528.7 462,-527.5 370.08,-420.7 520.61,-316.93 426,-212.5 420.42,-206.35 413.29,-202.02 405.55,-199.02"/>
<polygon fill="#63b8ff" stroke="#63b8ff" points="463.53,-533.94 473.69,-536.95 467.63,-528.26 463.53,-533.94"/>
</a>
</g>
</g>
<!-- Node104 -->
<g id="Node000104" class="node">
<title>Node104</title>
<g id="a_Node000104"><a xlink:href="classMooMooFarm.html#a31b2d7a41c9bb65e1dcffca2b9817da1" target="_top" xlink:title=" ">
<polygon fill="white" stroke="#666666" points="403,-167 280,-167 280,-148 403,-148 403,-167"/>
<text text-anchor="middle" x="341.5" y="-155" font-family="Helvetica,sans-Serif" font-size="10.00">MooMooFarm::Render</text>
</a>
</g>
</g>
<!-- Node91&#45;&gt;Node104 -->
<g id="edge35_Node000091_Node000104" class="edge">
<title>Node91&#45;&gt;Node104</title>
<g id="a_edge35_Node000091_Node000104"><a xlink:title=" ">
<path fill="none" stroke="#63b8ff" d="M465.27,-530.91C464.12,-529.84 463.03,-528.71 462,-527.5 360.12,-407.7 530.9,-292.67 426,-175.5 419.87,-168.65 411.81,-164.06 403.11,-161.04"/>
<polygon fill="#63b8ff" stroke="#63b8ff" points="463.5,-533.94 473.64,-537 467.61,-528.28 463.5,-533.94"/>
</a>
</g>
</g>
<!-- Node105 -->
<g id="Node000105" class="node">
<title>Node105</title>
<g id="a_Node000105"><a xlink:href="classPodiumCeremony.html#af02d82c0d12de76bfedbb8d2e6cf3ff5" target="_top" xlink:title=" ">
<polygon fill="white" stroke="#666666" points="413,-130 270,-130 270,-111 413,-111 413,-130"/>
<text text-anchor="middle" x="341.5" y="-118" font-family="Helvetica,sans-Serif" font-size="10.00">PodiumCeremony::Render</text>
</a>
</g>
</g>
<!-- Node91&#45;&gt;Node105 -->
<g id="edge36_Node000091_Node000105" class="edge">
<title>Node91&#45;&gt;Node105</title>
<g id="a_edge36_Node000091_Node000105"><a xlink:title=" ">
<path fill="none" stroke="#63b8ff" d="M465.17,-530.84C464.06,-529.79 463,-528.68 462,-527.5 406.08,-461.1 483.59,-203.46 426,-138.5 422.36,-134.39 418.03,-131.1 413.28,-128.47"/>
<polygon fill="#63b8ff" stroke="#63b8ff" points="463.15,-533.7 473.27,-536.84 467.32,-528.08 463.15,-533.7"/>
</a>
</g>
</g>
<!-- Node106 -->
<g id="Node000106" class="node">
<title>Node106</title>
<g id="a_Node000106"><a xlink:href="classRoyalRaceway.html#ac18c4d1a3c18d52432d234ee7f42be6f" target="_top" xlink:title=" ">
<polygon fill="white" stroke="#666666" points="405.5,-93 277.5,-93 277.5,-74 405.5,-74 405.5,-93"/>
<text text-anchor="middle" x="341.5" y="-81" font-family="Helvetica,sans-Serif" font-size="10.00">RoyalRaceway::Render</text>
</a>
</g>
</g>
<!-- Node91&#45;&gt;Node106 -->
<g id="edge37_Node000091_Node000106" class="edge">
<title>Node91&#45;&gt;Node106</title>
<g id="a_edge37_Node000091_Node000106"><a xlink:title=" ">
<path fill="none" stroke="#63b8ff" d="M465.16,-530.85C464.05,-529.8 462.99,-528.69 462,-527.5 401.09,-454.59 488.74,-172.84 426,-101.5 420.52,-95.26 413.43,-90.9 405.72,-87.87"/>
<polygon fill="#63b8ff" stroke="#63b8ff" points="463.13,-533.7 473.24,-536.87 467.31,-528.09 463.13,-533.7"/>
</a>
</g>
</g>
<!-- Node107 -->
<g id="Node000107" class="node">
<title>Node107</title>
<g id="a_Node000107"><a xlink:href="classSherbetLand.html#a4f766f0dc275fccf76cdbb0f71493c36" target="_top" xlink:title=" ">
<polygon fill="white" stroke="#666666" points="400.5,-56 282.5,-56 282.5,-37 400.5,-37 400.5,-56"/>
<text text-anchor="middle" x="341.5" y="-44" font-family="Helvetica,sans-Serif" font-size="10.00">SherbetLand::Render</text>
</a>
</g>
</g>
<!-- Node91&#45;&gt;Node107 -->
<g id="edge38_Node000091_Node000107" class="edge">
<title>Node91&#45;&gt;Node107</title>
<g id="a_edge38_Node000091_Node000107"><a xlink:title=" ">
<path fill="none" stroke="#63b8ff" d="M465.15,-530.86C464.04,-529.81 462.99,-528.69 462,-527.5 396.11,-448.08 493.9,-142.22 426,-64.5 419.37,-56.91 410.36,-52.08 400.72,-49.08"/>
<polygon fill="#63b8ff" stroke="#63b8ff" points="463.11,-533.71 473.21,-536.89 467.3,-528.1 463.11,-533.71"/>
</a>
</g>
</g>
<!-- Node108 -->
<g id="Node000108" class="node">
<title>Node108</title>
<g id="a_Node000108"><a xlink:href="classToadsTurnpike.html#a563cab8dfd01fbcc08a3167caf6b78db" target="_top" xlink:title=" ">
<polygon fill="white" stroke="#666666" points="404,-19 279,-19 279,0 404,0 404,-19"/>
<text text-anchor="middle" x="341.5" y="-7" font-family="Helvetica,sans-Serif" font-size="10.00">ToadsTurnpike::Render</text>
</a>
</g>
</g>
<!-- Node91&#45;&gt;Node108 -->
<g id="edge39_Node000091_Node000108" class="edge">
<title>Node91&#45;&gt;Node108</title>
<g id="a_edge39_Node000091_Node000108"><a xlink:title=" ">
<path fill="none" stroke="#63b8ff" d="M465.14,-530.87C464.03,-529.81 462.98,-528.69 462,-527.5 391.12,-441.56 499.05,-111.6 426,-27.5 420.17,-20.78 412.48,-16.22 404.13,-13.18"/>
<polygon fill="#63b8ff" stroke="#63b8ff" points="463.09,-533.71 473.19,-536.91 467.29,-528.11 463.09,-533.71"/>
</a>
</g>
</g>
<!-- Node109 -->
<g id="Node000109" class="node">
<title>Node109</title>
<g id="a_Node000109"><a xlink:href="classWarioStadium.html#a7b544197ce58d2c2ddca33649b687457" target="_top" xlink:title=" ">
<polygon fill="white" stroke="#666666" points="404,-993 279,-993 279,-974 404,-974 404,-993"/>
<text text-anchor="middle" x="341.5" y="-981" font-family="Helvetica,sans-Serif" font-size="10.00">WarioStadium::Render</text>
</a>
</g>
</g>
<!-- Node91&#45;&gt;Node109 -->
<g id="edge40_Node000091_Node000109" class="edge">
<title>Node91&#45;&gt;Node109</title>
<g id="a_edge40_Node000091_Node000109"><a xlink:title=" ">
<path fill="none" stroke="#63b8ff" d="M530.21,-566.4C521.12,-641.78 485.23,-908.39 426,-965.5 419.91,-971.37 412.4,-975.51 404.39,-978.41"/>
<polygon fill="#63b8ff" stroke="#63b8ff" points="533.7,-566.7 531.39,-556.36 526.74,-565.88 533.7,-566.7"/>
</a>
</g>
</g>
<!-- Node110 -->
<g id="Node000110" class="node">
<title>Node110</title>
<g id="a_Node000110"><a xlink:href="classYoshiValley.html#accc7a829beaaf41c9cbe3d5f219cab00" target="_top" xlink:title=" ">
<polygon fill="white" stroke="#666666" points="397,-956 286,-956 286,-937 397,-937 397,-956"/>
<text text-anchor="middle" x="341.5" y="-944" font-family="Helvetica,sans-Serif" font-size="10.00">YoshiValley::Render</text>
</a>
</g>
</g>
<!-- Node91&#45;&gt;Node110 -->
<g id="edge41_Node000091_Node000110" class="edge">
<title>Node91&#45;&gt;Node110</title>
<g id="a_edge41_Node000091_Node000110"><a xlink:title=" ">
<path fill="none" stroke="#63b8ff" d="M529.68,-566.44C519.23,-637.54 480.47,-877.18 426,-928.5 418.12,-935.92 407.95,-940.58 397.42,-943.44"/>
<polygon fill="#63b8ff" stroke="#63b8ff" points="533.2,-566.59 531.16,-556.19 526.27,-565.59 533.2,-566.59"/>
</a>
</g>
</g>
<!-- Node111 -->
<g id="Node000111" class="node">
<title>Node111</title>
<g id="a_Node000111"><a xlink:href="render__courses_8c.html#a1f997e08809597bfc7891e17e8c9eec6" target="_top" xlink:title=" ">
<polygon fill="white" stroke="#666666" points="417,-919 266,-919 266,-900 417,-900 417,-919"/>
<text text-anchor="middle" x="341.5" y="-907" font-family="Helvetica,sans-Serif" font-size="10.00">render_banshee_boardwalk</text>
</a>
</g>
</g>
<!-- Node91&#45;&gt;Node111 -->
<g id="edge42_Node000091_Node000111" class="edge">
<title>Node91&#45;&gt;Node111</title>
<g id="a_edge42_Node000091_Node000111"><a xlink:title=" ">
<path fill="none" stroke="#63b8ff" d="M532.82,-566.5C532.62,-625.82 523.48,-802.16 426,-891.5 422.39,-894.81 418.33,-897.56 413.98,-899.85"/>
<polygon fill="#63b8ff" stroke="#63b8ff" points="536.32,-566.24 532.77,-556.26 529.32,-566.28 536.32,-566.24"/>
</a>
</g>
</g>
<!-- Node112 -->
<g id="Node000112" class="node">
<title>Node112</title>
<g id="a_Node000112"><a xlink:href="render__courses_8c.html#a32fec071ccf48cf3f3d9b050ef96dd9d" target="_top" xlink:title=" ">
<polygon fill="white" stroke="#666666" points="405.5,-882 277.5,-882 277.5,-863 405.5,-863 405.5,-882"/>
<text text-anchor="middle" x="341.5" y="-870" font-family="Helvetica,sans-Serif" font-size="10.00">render_bowsers_castle</text>
</a>
</g>
</g>
<!-- Node91&#45;&gt;Node112 -->
<g id="edge43_Node000091_Node000112" class="edge">
<title>Node91&#45;&gt;Node112</title>
<g id="a_edge43_Node000091_Node000112"><a xlink:title=" ">
<path fill="none" stroke="#63b8ff" d="M531.99,-566.17C529.43,-620.92 514.36,-776.2 426,-854.5 420.12,-859.71 413.09,-863.54 405.65,-866.33"/>
<polygon fill="#63b8ff" stroke="#63b8ff" points="535.49,-566.2 532.36,-556.08 528.49,-565.94 535.49,-566.2"/>
</a>
</g>
</g>
<!-- Node113 -->
<g id="Node000113" class="node">
<title>Node113</title>
<g id="a_Node000113"><a xlink:href="render__courses_8c.html#a26eba8e475edeea00499b9d2952ad1d5" target="_top" xlink:title=" ">
<polygon fill="white" stroke="#666666" points="408.5,-845 274.5,-845 274.5,-826 408.5,-826 408.5,-845"/>
<text text-anchor="middle" x="341.5" y="-833" font-family="Helvetica,sans-Serif" font-size="10.00">render_choco_mountain</text>
</a>
</g>
</g>
<!-- Node91&#45;&gt;Node113 -->
<g id="edge44_Node000091_Node000113" class="edge">
<title>Node91&#45;&gt;Node113</title>
<g id="a_edge44_Node000091_Node000113"><a xlink:title=" ">
<path fill="none" stroke="#63b8ff" d="M530.91,-566.47C525.76,-616.95 504.98,-750.39 426,-817.5 420.91,-821.82 415.04,-825.18 408.8,-827.78"/>
<polygon fill="#63b8ff" stroke="#63b8ff" points="534.42,-566.53 531.85,-556.25 527.45,-565.89 534.42,-566.53"/>
</a>
</g>
</g>
<!-- Node114 -->
<g id="Node000114" class="node">
<title>Node114</title>
<g id="a_Node000114"><a xlink:href="render__courses_8c.html#a4ef8d7da4ca5f4c93ae612312cc815d9" target="_top" xlink:title=" ">
<polygon fill="white" stroke="#666666" points="418,-808 265,-808 265,-789 418,-789 418,-808"/>
<text text-anchor="middle" x="341.5" y="-796" font-family="Helvetica,sans-Serif" font-size="10.00">render_dks_jungle_parkway</text>
</a>
</g>
</g>
<!-- Node91&#45;&gt;Node114 -->
<g id="edge45_Node000091_Node000114" class="edge">
<title>Node91&#45;&gt;Node114</title>
<g id="a_edge45_Node000091_Node000114"><a xlink:title=" ">
<path fill="none" stroke="#63b8ff" d="M529.54,-566.49C521.67,-612.1 495.86,-724.24 426,-780.5 421.84,-783.85 417.2,-786.61 412.3,-788.89"/>
<polygon fill="#63b8ff" stroke="#63b8ff" points="533.03,-566.83 531.17,-556.4 526.12,-565.72 533.03,-566.83"/>
</a>
</g>
</g>
<!-- Node115 -->
<g id="Node000115" class="node">
<title>Node115</title>
<g id="a_Node000115"><a xlink:href="render__courses_8c.html#a50ec6c5006a884d2e58663999057bb5a" target="_top" xlink:title=" ">
<polygon fill="white" stroke="#666666" points="410,-771 273,-771 273,-752 410,-752 410,-771"/>
<text text-anchor="middle" x="341.5" y="-759" font-family="Helvetica,sans-Serif" font-size="10.00">render_frappe_snowland</text>
</a>
</g>
</g>
<!-- Node91&#45;&gt;Node115 -->
<g id="edge46_Node000091_Node000115" class="edge">
<title>Node91&#45;&gt;Node115</title>
<g id="a_edge46_Node000091_Node000115"><a xlink:title=" ">
<path fill="none" stroke="#63b8ff" d="M527.82,-566.03C517.16,-606.1 487.11,-697.64 426,-743.5 421.26,-747.06 415.96,-749.95 410.39,-752.28"/>
<polygon fill="#63b8ff" stroke="#63b8ff" points="531.25,-566.73 530.32,-556.18 524.47,-565.01 531.25,-566.73"/>
</a>
</g>
</g>
<!-- Node116 -->
<g id="Node000116" class="node">
<title>Node116</title>
<g id="a_Node000116"><a xlink:href="render__courses_8c.html#adfb1515e3d4215d1be339ed41f86bed5" target="_top" xlink:title=" ">
<polygon fill="white" stroke="#666666" points="406,-734 277,-734 277,-715 406,-715 406,-734"/>
<text text-anchor="middle" x="341.5" y="-722" font-family="Helvetica,sans-Serif" font-size="10.00">render_kalimari_desert</text>
</a>
</g>
</g>
<!-- Node91&#45;&gt;Node116 -->
<g id="edge47_Node000091_Node000116" class="edge">
<title>Node91&#45;&gt;Node116</title>
<g id="a_edge47_Node000091_Node000116"><a xlink:title=" ">
<path fill="none" stroke="#63b8ff" d="M525.18,-565.9C511.31,-599.85 477.88,-669.84 426,-705.5 420,-709.63 413.23,-712.87 406.22,-715.42"/>
<polygon fill="#63b8ff" stroke="#63b8ff" points="528.58,-566.81 528.99,-556.23 522.06,-564.25 528.58,-566.81"/>
</a>
</g>
</g>
<!-- Node117 -->
<g id="Node000117" class="node">
<title>Node117</title>
<g id="a_Node000117"><a xlink:href="render__courses_8c.html#ad9249651e952db9fc1a120dccdaa213c" target="_top" xlink:title=" ">
<polygon fill="white" stroke="#666666" points="401,-696.5 282,-696.5 282,-666.5 401,-666.5 401,-696.5"/>
<text text-anchor="start" x="290" y="-684.5" font-family="Helvetica,sans-Serif" font-size="10.00">render_koopa_troopa</text>
<text text-anchor="middle" x="341.5" y="-673.5" font-family="Helvetica,sans-Serif" font-size="10.00">_beach</text>
</a>
</g>
</g>
<!-- Node91&#45;&gt;Node117 -->
<g id="edge48_Node000091_Node000117" class="edge">
<title>Node91&#45;&gt;Node117</title>
<g id="a_edge48_Node000091_Node000117"><a xlink:title=" ">
<path fill="none" stroke="#63b8ff" d="M520,-564.57C502.03,-589.19 466.55,-633.03 426,-657.5 418.38,-662.1 409.84,-665.85 401.2,-668.91"/>
<polygon fill="#63b8ff" stroke="#63b8ff" points="523.05,-566.32 526.01,-556.15 517.35,-562.26 523.05,-566.32"/>
</a>
</g>
</g>
<!-- Node118 -->
<g id="Node000118" class="node">
<title>Node118</title>
<g id="a_Node000118"><a xlink:href="render__courses_8c.html#a8702de1019e0656bf3a53dc4193b8c1b" target="_top" xlink:title=" ">
<polygon fill="white" stroke="#666666" points="402,-648 281,-648 281,-629 402,-629 402,-648"/>
<text text-anchor="middle" x="341.5" y="-636" font-family="Helvetica,sans-Serif" font-size="10.00">render_luigi_raceway</text>
</a>
</g>
</g>
<!-- Node91&#45;&gt;Node118 -->
<g id="edge49_Node000091_Node000118" class="edge">
<title>Node91&#45;&gt;Node118</title>
<g id="a_edge49_Node000091_Node000118"><a xlink:title=" ">
<path fill="none" stroke="#63b8ff" d="M514.11,-562.72C493.89,-579.68 459.79,-605.82 426,-620.5 418.25,-623.87 409.81,-626.63 401.37,-628.88"/>
<polygon fill="#63b8ff" stroke="#63b8ff" points="516.55,-565.23 521.88,-556.07 512,-559.91 516.55,-565.23"/>
</a>
</g>
</g>
</g>
</svg>
