<?xml version="1.0" encoding="UTF-8" standalone="no"?>
<!DOCTYPE svg PUBLIC "-//W3C//DTD SVG 1.1//EN"
 "http://www.w3.org/Graphics/SVG/1.1/DTD/svg11.dtd">
<!-- Generated by graphviz version 2.43.0 (0)
 -->
<!-- Title: RunGarbageCollector Pages: 1 -->
<svg width="293pt" height="64pt"
 viewBox="0.00 0.00 293.00 64.00" xmlns="http://www.w3.org/2000/svg" xmlns:xlink="http://www.w3.org/1999/xlink">
<g id="graph0" class="graph" transform="scale(1 1) rotate(0) translate(4 60)">
<title>RunGarbageCollector</title>
<!-- Node1 -->
<g id="Node000001" class="node">
<title>Node1</title>
<g id="a_Node000001"><a xlink:title=" ">
<polygon fill="#999999" stroke="#666666" points="120,-37 0,-37 0,-18 120,-18 120,-37"/>
<text text-anchor="middle" x="60" y="-25" font-family="Helvetica,sans-Serif" font-size="10.00">RunGarbageCollector</text>
</a>
</g>
</g>
<!-- Node2 -->
<g id="Node000002" class="node">
<title>Node2</title>
<g id="a_Node000002"><a xlink:href="GarbageCollector_8cpp.html#a63f2346d7404dd1142f420cfc3a9c47b" target="_top" xlink:title=" ">
<polygon fill="white" stroke="#666666" points="261,-56 180,-56 180,-37 261,-37 261,-56"/>
<text text-anchor="middle" x="220.5" y="-44" font-family="Helvetica,sans-Serif" font-size="10.00">CleanObjects</text>
</a>
</g>
</g>
<!-- Node1&#45;&gt;Node2 -->
<g id="edge1_Node000001_Node000002" class="edge">
<title>Node1&#45;&gt;Node2</title>
<g id="a_edge1_Node000001_Node000002"><a xlink:title=" ">
<path fill="none" stroke="#63b8ff" d="M120.02,-34.57C136.34,-36.53 153.88,-38.63 169.62,-40.52"/>
<polygon fill="#63b8ff" stroke="#63b8ff" points="169.33,-44.01 179.68,-41.73 170.16,-37.06 169.33,-44.01"/>
</a>
</g>
</g>
<!-- Node3 -->
<g id="Node000003" class="node">
<title>Node3</title>
<g id="a_Node000003"><a xlink:href="GarbageCollector_8cpp.html#ae4c8f41709b0008b16323a424b14043f" target="_top" xlink:title=" ">
<polygon fill="white" stroke="#666666" points="285,-19 156,-19 156,0 285,0 285,-19"/>
<text text-anchor="middle" x="220.5" y="-7" font-family="Helvetica,sans-Serif" font-size="10.00">CleanStaticMeshActors</text>
</a>
</g>
</g>
<!-- Node1&#45;&gt;Node3 -->
<g id="edge2_Node000001_Node000003" class="edge">
<title>Node1&#45;&gt;Node3</title>
<g id="a_edge2_Node000001_Node000003"><a xlink:title=" ">
<path fill="none" stroke="#63b8ff" d="M120.02,-20.8C128.43,-19.84 137.17,-18.85 145.82,-17.87"/>
<polygon fill="#63b8ff" stroke="#63b8ff" points="146.37,-21.33 155.91,-16.72 145.58,-14.37 146.37,-21.33"/>
</a>
</g>
</g>
</g>
</svg>
