<?xml version="1.0" encoding="UTF-8" standalone="no"?>
<!DOCTYPE svg PUBLIC "-//W3C//DTD SVG 1.1//EN"
 "http://www.w3.org/Graphics/SVG/1.1/DTD/svg11.dtd">
<!-- Generated by graphviz version 2.43.0 (0)
 -->
<!-- Title: src/audio/internal.h Pages: 1 -->
<!--zoomable 148 -->

<svg id="main" version="1.1" xmlns="http://www.w3.org/2000/svg" xmlns:xlink="http://www.w3.org/1999/xlink" xml:space="preserve" onload="init(evt)">

<style type="text/css"><![CDATA[
.node, .edge {opacity: 0.7;}
.node.selected, .edge.selected {opacity: 1;}
.edge:hover path { stroke: red; }
.edge:hover polygon { stroke: red; fill: red; }
]]></style>

<defs>
  <circle id="rim" cx="0" cy="0" r="7"/>
  <circle id="rim2" cx="0" cy="0" r="3.5"/>
  <g id="zoomPlus">
    <use xlink:href="#rim" fill="#404040"><set attributeName="fill" to="#808080" begin="zoomplus.mouseover" end="zoomplus.mouseout"/></use>
    <path d="M-4,0h8M0,-4v8" fill="none" stroke="white" stroke-width="1.5" pointer-events="none"/>
  </g>
  <g id="zoomMin">
    <use xlink:href="#rim" fill="#404040"><set attributeName="fill" to="#808080" begin="zoomminus.mouseover" end="zoomminus.mouseout"/></use>
    <path d="M-4,0h8" fill="none" stroke="white" stroke-width="1.5" pointer-events="none"/>
  </g>
  <g id="arrowUp" transform="translate(30 24)">
    <use xlink:href="#rim"/>
    <path pointer-events="none" fill="none" stroke="white" stroke-width="1.5" d="M0,-3.0v7 M-2.5,-0.5L0,-3.0L2.5,-0.5"/>
  </g>
  <g id="arrowRight" transform="rotate(90) translate(36 -43)">
    <use xlink:href="#rim"/>
    <path pointer-events="none" fill="none" stroke="white" stroke-width="1.5" d="M0,-3.0v7 M-2.5,-0.5L0,-3.0L2.5,-0.5"/>
  </g>
  <g id="arrowDown" transform="rotate(180) translate(-30 -48)">
    <use xlink:href="#rim"/>
    <path pointer-events="none" fill="none" stroke="white" stroke-width="1.5" d="M0,-3.0v7 M-2.5,-0.5L0,-3.0L2.5,-0.5"/>
  </g>
  <g id="arrowLeft" transform="rotate(270) translate(-36 17)">
    <use xlink:href="#rim"/>
    <path pointer-events="none" fill="none" stroke="white" stroke-width="1.5" d="M0,-3.0v7 M-2.5,-0.5L0,-3.0L2.5,-0.5"/>
  </g>
  <g id="resetDef">
    <use xlink:href="#rim2" fill="#404040"><set attributeName="fill" to="#808080" begin="reset.mouseover" end="reset.mouseout"/></use>
  </g>
</defs>
<script type="application/ecmascript">
var viewWidth = 1665;
var viewHeight = 148;
var sectionId = 'dynsection-1';
</script>
<script type="application/ecmascript" xlink:href="svg.min.js"/>
<svg id="graph" class="graph">
<g id="viewport">
<title>src/audio/internal.h</title>
<!-- Node1 -->
<g id="Node000001" class="node">
<title>Node1</title>
<g id="a_Node000001"><a xlink:title=" ">
<polygon fill="#999999" stroke="#666666" points="953.5,-140 843.5,-140 843.5,-121 953.5,-121 953.5,-140"/>
<text text-anchor="middle" x="898.5" y="-128" font-family="Helvetica,sans-Serif" font-size="10.00">src/audio/internal.h</text>
</a>
</g>
</g>
<!-- Node2 -->
<g id="Node000002" class="node">
<title>Node2</title>
<g id="a_Node000002"><a xlink:href="audio__session__presets_8c.html" target="_top" xlink:title=" ">
<polygon fill="white" stroke="#666666" points="133,-30 0,-30 0,0 133,0 133,-30"/>
<text text-anchor="start" x="8" y="-18" font-family="Helvetica,sans-Serif" font-size="10.00">src/audio/audio_session</text>
<text text-anchor="middle" x="66.5" y="-7" font-family="Helvetica,sans-Serif" font-size="10.00">_presets.c</text>
</a>
</g>
</g>
<!-- Node1&#45;&gt;Node2 -->
<g id="edge1_Node000001_Node000002" class="edge">
<title>Node1&#45;&gt;Node2</title>
<g id="a_edge1_Node000001_Node000002"><a xlink:title=" ">
<path fill="none" stroke="#63b8ff" d="M833.22,-126.92C733.14,-122.31 536,-110.63 370.5,-85 280.92,-71.13 178.42,-45.87 118.26,-30.06"/>
<polygon fill="#63b8ff" stroke="#63b8ff" points="833.33,-130.43 843.47,-127.38 833.64,-123.44 833.33,-130.43"/>
</a>
</g>
</g>
<!-- Node3 -->
<g id="Node000003" class="node">
<title>Node3</title>
<g id="a_Node000003"><a xlink:href="data_8h.html" target="_top" xlink:title=" ">
<polygon fill="white" stroke="#666666" points="646,-85 551,-85 551,-66 646,-66 646,-85"/>
<text text-anchor="middle" x="598.5" y="-73" font-family="Helvetica,sans-Serif" font-size="10.00">src/audio/data.h</text>
</a>
</g>
</g>
<!-- Node1&#45;&gt;Node3 -->
<g id="edge2_Node000001_Node000003" class="edge">
<title>Node1&#45;&gt;Node3</title>
<g id="a_edge2_Node000001_Node000003"><a xlink:title=" ">
<path fill="none" stroke="#63b8ff" d="M840.43,-119.24C783.82,-109.24 698.8,-94.22 646.09,-84.91"/>
<polygon fill="#63b8ff" stroke="#63b8ff" points="839.84,-122.69 850.3,-120.98 841.06,-115.8 839.84,-122.69"/>
</a>
</g>
</g>
<!-- Node5 -->
<g id="Node000005" class="node">
<title>Node5</title>
<g id="a_Node000005"><a xlink:href="audio_2effects_8c.html" target="_top" xlink:title=" ">
<polygon fill="white" stroke="#666666" points="522,-24.5 417,-24.5 417,-5.5 522,-5.5 522,-24.5"/>
<text text-anchor="middle" x="469.5" y="-12.5" font-family="Helvetica,sans-Serif" font-size="10.00">src/audio/effects.c</text>
</a>
</g>
</g>
<!-- Node1&#45;&gt;Node5 -->
<g id="edge14_Node000001_Node000005" class="edge">
<title>Node1&#45;&gt;Node5</title>
<g id="a_edge14_Node000001_Node000005"><a xlink:title=" ">
<path fill="none" stroke="#63b8ff" d="M833.04,-128.72C700.34,-126.46 409.6,-117.79 379.5,-85 356.07,-59.47 407.39,-36.43 441.76,-24.52"/>
<polygon fill="#63b8ff" stroke="#63b8ff" points="833.03,-132.22 843.09,-128.89 833.14,-125.22 833.03,-132.22"/>
</a>
</g>
</g>
<!-- Node8 -->
<g id="Node000008" class="node">
<title>Node8</title>
<g id="a_Node000008"><a xlink:href="load_8c.html" target="_top" xlink:title=" ">
<polygon fill="white" stroke="#666666" points="1402,-24.5 1309,-24.5 1309,-5.5 1402,-5.5 1402,-24.5"/>
<text text-anchor="middle" x="1355.5" y="-12.5" font-family="Helvetica,sans-Serif" font-size="10.00">src/audio/load.c</text>
</a>
</g>
</g>
<!-- Node1&#45;&gt;Node8 -->
<g id="edge28_Node000001_Node000008" class="edge">
<title>Node1&#45;&gt;Node8</title>
<g id="a_edge28_Node000001_Node000008"><a xlink:title=" ">
<path fill="none" stroke="#63b8ff" d="M964.2,-129.19C1105.34,-127.83 1427.41,-120.81 1460.5,-85 1485.96,-57.44 1429.81,-35.77 1390.22,-24.51"/>
<polygon fill="#63b8ff" stroke="#63b8ff" points="963.92,-125.69 953.95,-129.28 963.98,-132.69 963.92,-125.69"/>
</a>
</g>
</g>
<!-- Node9 -->
<g id="Node000009" class="node">
<title>Node9</title>
<g id="a_Node000009"><a xlink:href="playback_8c.html" target="_top" xlink:title=" ">
<polygon fill="white" stroke="#666666" points="656.5,-24.5 540.5,-24.5 540.5,-5.5 656.5,-5.5 656.5,-24.5"/>
<text text-anchor="middle" x="598.5" y="-12.5" font-family="Helvetica,sans-Serif" font-size="10.00">src/audio/playback.c</text>
</a>
</g>
</g>
<!-- Node1&#45;&gt;Node9 -->
<g id="edge39_Node000001_Node000009" class="edge">
<title>Node1&#45;&gt;Node9</title>
<g id="a_edge39_Node000001_Node000009"><a xlink:title=" ">
<path fill="none" stroke="#63b8ff" d="M833.39,-125.98C735.68,-120.03 560.47,-106.48 541.5,-85 522.78,-63.8 559.49,-37.87 582.27,-24.65"/>
<polygon fill="#63b8ff" stroke="#63b8ff" points="833.27,-129.48 843.46,-126.59 833.69,-122.49 833.27,-129.48"/>
</a>
</g>
</g>
<!-- Node11 -->
<g id="Node000011" class="node">
<title>Node11</title>
<g id="a_Node000011"><a xlink:href="seqplayer_8c.html" target="_top" xlink:title=" ">
<polygon fill="white" stroke="#666666" points="794,-24.5 675,-24.5 675,-5.5 794,-5.5 794,-24.5"/>
<text text-anchor="middle" x="734.5" y="-12.5" font-family="Helvetica,sans-Serif" font-size="10.00">src/audio/seqplayer.c</text>
</a>
</g>
</g>
<!-- Node1&#45;&gt;Node11 -->
<g id="edge49_Node000001_Node000011" class="edge">
<title>Node1&#45;&gt;Node11</title>
<g id="a_edge49_Node000001_Node000011"><a xlink:title=" ">
<path fill="none" stroke="#63b8ff" d="M833.29,-124.13C780.06,-118.22 710.89,-106.57 693.5,-85 677.41,-65.04 705.63,-38.13 722.78,-24.57"/>
<polygon fill="#63b8ff" stroke="#63b8ff" points="833.05,-127.62 843.37,-125.2 833.79,-120.66 833.05,-127.62"/>
</a>
</g>
</g>
<!-- Node12 -->
<g id="Node000012" class="node">
<title>Node12</title>
<g id="a_Node000012"><a xlink:href="synthesis_8c.html" target="_top" xlink:title=" ">
<polygon fill="white" stroke="#666666" points="1539,-24.5 1420,-24.5 1420,-5.5 1539,-5.5 1539,-24.5"/>
<text text-anchor="middle" x="1479.5" y="-12.5" font-family="Helvetica,sans-Serif" font-size="10.00">src/audio/synthesis.c</text>
</a>
</g>
</g>
<!-- Node1&#45;&gt;Node12 -->
<g id="edge58_Node000001_Node000012" class="edge">
<title>Node1&#45;&gt;Node12</title>
<g id="a_edge58_Node000001_Node000012"><a xlink:title=" ">
<path fill="none" stroke="#63b8ff" d="M963.7,-129.33C1107.9,-128.29 1443.84,-121.88 1478.5,-85 1493.92,-68.59 1487.23,-39.07 1482.59,-24.54"/>
<polygon fill="#63b8ff" stroke="#63b8ff" points="963.64,-125.83 953.66,-129.4 963.68,-132.83 963.64,-125.83"/>
</a>
</g>
</g>
<!-- Node14 -->
<g id="Node000014" class="node">
<title>Node14</title>
<g id="a_Node000014"><a xlink:href="audio_2effects_8h.html" target="_top" xlink:title=" ">
<polygon fill="white" stroke="#666666" points="494.5,-85 388.5,-85 388.5,-66 494.5,-66 494.5,-85"/>
<text text-anchor="middle" x="441.5" y="-73" font-family="Helvetica,sans-Serif" font-size="10.00">src/audio/effects.h</text>
</a>
</g>
</g>
<!-- Node1&#45;&gt;Node14 -->
<g id="edge15_Node000001_Node000014" class="edge">
<title>Node1&#45;&gt;Node14</title>
<g id="a_edge15_Node000001_Node000014"><a xlink:title=" ">
<path fill="none" stroke="#63b8ff" d="M833.16,-122.3C755.67,-113.7 622.62,-98.75 508.5,-85 503.96,-84.45 499.25,-83.88 494.52,-83.29"/>
<polygon fill="#63b8ff" stroke="#63b8ff" points="832.93,-125.79 843.25,-123.42 833.7,-118.84 832.93,-125.79"/>
</a>
</g>
</g>
<!-- Node15 -->
<g id="Node000015" class="node">
<title>Node15</title>
<g id="a_Node000015"><a xlink:href="heap_8h.html" target="_top" xlink:title=" ">
<polygon fill="white" stroke="#666666" points="1186,-85 1089,-85 1089,-66 1186,-66 1186,-85"/>
<text text-anchor="middle" x="1137.5" y="-73" font-family="Helvetica,sans-Serif" font-size="10.00">src/audio/heap.h</text>
</a>
</g>
</g>
<!-- Node1&#45;&gt;Node15 -->
<g id="edge21_Node000001_Node000015" class="edge">
<title>Node1&#45;&gt;Node15</title>
<g id="a_edge21_Node000001_Node000015"><a xlink:title=" ">
<path fill="none" stroke="#63b8ff" d="M946.68,-118.82C991.47,-108.88 1057.34,-94.28 1098.8,-85.08"/>
<polygon fill="#63b8ff" stroke="#63b8ff" points="945.9,-115.4 936.9,-120.98 947.42,-122.24 945.9,-115.4"/>
</a>
</g>
</g>
<!-- Node16 -->
<g id="Node000016" class="node">
<title>Node16</title>
<g id="a_Node000016"><a xlink:href="load_8h.html" target="_top" xlink:title=" ">
<polygon fill="white" stroke="#666666" points="1070.5,-85 976.5,-85 976.5,-66 1070.5,-66 1070.5,-85"/>
<text text-anchor="middle" x="1023.5" y="-73" font-family="Helvetica,sans-Serif" font-size="10.00">src/audio/load.h</text>
</a>
</g>
</g>
<!-- Node1&#45;&gt;Node16 -->
<g id="edge29_Node000001_Node000016" class="edge">
<title>Node1&#45;&gt;Node16</title>
<g id="a_edge29_Node000001_Node000016"><a xlink:title=" ">
<path fill="none" stroke="#63b8ff" d="M927.91,-117.03C951.03,-107.23 982.63,-93.83 1003.05,-85.17"/>
<polygon fill="#63b8ff" stroke="#63b8ff" points="926.42,-113.86 918.58,-120.98 929.16,-120.3 926.42,-113.86"/>
</a>
</g>
</g>
<!-- Node18 -->
<g id="Node000018" class="node">
<title>Node18</title>
<g id="a_Node000018"><a xlink:href="playback_8h.html" target="_top" xlink:title=" ">
<polygon fill="white" stroke="#666666" points="820,-85 703,-85 703,-66 820,-66 820,-85"/>
<text text-anchor="middle" x="761.5" y="-73" font-family="Helvetica,sans-Serif" font-size="10.00">src/audio/playback.h</text>
</a>
</g>
</g>
<!-- Node1&#45;&gt;Node18 -->
<g id="edge40_Node000001_Node000018" class="edge">
<title>Node1&#45;&gt;Node18</title>
<g id="a_edge40_Node000001_Node000018"><a xlink:title=" ">
<path fill="none" stroke="#63b8ff" d="M866.94,-117.29C841.55,-107.47 806.5,-93.91 783.91,-85.17"/>
<polygon fill="#63b8ff" stroke="#63b8ff" points="865.9,-120.64 876.49,-120.98 868.42,-114.11 865.9,-120.64"/>
</a>
</g>
</g>
<!-- Node19 -->
<g id="Node000019" class="node">
<title>Node19</title>
<g id="a_Node000019"><a xlink:href="port__eu_8h.html" target="_top" xlink:title=" ">
<polygon fill="white" stroke="#666666" points="1314.5,-85 1204.5,-85 1204.5,-66 1314.5,-66 1314.5,-85"/>
<text text-anchor="middle" x="1259.5" y="-73" font-family="Helvetica,sans-Serif" font-size="10.00">src/audio/port_eu.h</text>
</a>
</g>
</g>
<!-- Node1&#45;&gt;Node19 -->
<g id="edge45_Node000001_Node000019" class="edge">
<title>Node1&#45;&gt;Node19</title>
<g id="a_edge45_Node000001_Node000019"><a xlink:title=" ">
<path fill="none" stroke="#63b8ff" d="M964,-119.88C1032.75,-109.79 1139.66,-94.09 1204.29,-84.61"/>
<polygon fill="#63b8ff" stroke="#63b8ff" points="963.11,-116.48 953.72,-121.39 964.12,-123.4 963.11,-116.48"/>
</a>
</g>
</g>
<!-- Node20 -->
<g id="Node000020" class="node">
<title>Node20</title>
<g id="a_Node000020"><a xlink:href="seqplayer_8h.html" target="_top" xlink:title=" ">
<polygon fill="white" stroke="#666666" points="958.5,-85 838.5,-85 838.5,-66 958.5,-66 958.5,-85"/>
<text text-anchor="middle" x="898.5" y="-73" font-family="Helvetica,sans-Serif" font-size="10.00">src/audio/seqplayer.h</text>
</a>
</g>
</g>
<!-- Node1&#45;&gt;Node20 -->
<g id="edge50_Node000001_Node000020" class="edge">
<title>Node1&#45;&gt;Node20</title>
<g id="a_edge50_Node000001_Node000020"><a xlink:title=" ">
<path fill="none" stroke="#63b8ff" d="M898.5,-110.66C898.5,-101.93 898.5,-91.99 898.5,-85.09"/>
<polygon fill="#63b8ff" stroke="#63b8ff" points="895,-110.75 898.5,-120.75 902,-110.75 895,-110.75"/>
</a>
</g>
</g>
<!-- Node21 -->
<g id="Node000021" class="node">
<title>Node21</title>
<g id="a_Node000021"><a xlink:href="synthesis_8h.html" target="_top" xlink:title=" ">
<polygon fill="white" stroke="#666666" points="1452,-85 1333,-85 1333,-66 1452,-66 1452,-85"/>
<text text-anchor="middle" x="1392.5" y="-73" font-family="Helvetica,sans-Serif" font-size="10.00">src/audio/synthesis.h</text>
</a>
</g>
</g>
<!-- Node1&#45;&gt;Node21 -->
<g id="edge59_Node000001_Node000021" class="edge">
<title>Node1&#45;&gt;Node21</title>
<g id="a_edge59_Node000001_Node000021"><a xlink:title=" ">
<path fill="none" stroke="#63b8ff" d="M963.64,-123.05C1047.08,-114.71 1196.13,-99.51 1323.5,-85 1326.5,-84.66 1329.57,-84.3 1332.67,-83.94"/>
<polygon fill="#63b8ff" stroke="#63b8ff" points="963.15,-119.58 953.55,-124.06 963.85,-126.55 963.15,-119.58"/>
</a>
</g>
</g>
<!-- Node22 -->
<g id="Node000022" class="node">
<title>Node22</title>
<g id="a_Node000022"><a xlink:href="Engine_8cpp.html" target="_top" xlink:title=" ">
<polygon fill="white" stroke="#666666" points="1656.5,-85 1546.5,-85 1546.5,-66 1656.5,-66 1656.5,-85"/>
<text text-anchor="middle" x="1601.5" y="-73" font-family="Helvetica,sans-Serif" font-size="10.00">src/port/Engine.cpp</text>
</a>
</g>
</g>
<!-- Node1&#45;&gt;Node22 -->
<g id="edge64_Node000001_Node000022" class="edge">
<title>Node1&#45;&gt;Node22</title>
<g id="a_edge64_Node000001_Node000022"><a xlink:title=" ">
<path fill="none" stroke="#63b8ff" d="M963.76,-126.05C1078.8,-119.72 1325.14,-105.04 1532.5,-85 1536.95,-84.57 1541.55,-84.09 1546.17,-83.58"/>
<polygon fill="#63b8ff" stroke="#63b8ff" points="963.5,-122.56 953.7,-126.6 963.88,-129.55 963.5,-122.56"/>
</a>
</g>
</g>
<!-- Node3&#45;&gt;Node2 -->
<g id="edge3_Node000003_Node000002" class="edge">
<title>Node3&#45;&gt;Node2</title>
<g id="a_edge3_Node000003_Node000002"><a xlink:title=" ">
<path fill="none" stroke="#63b8ff" d="M540.41,-69.11C426.38,-58.49 180.98,-35.41 142.5,-30 139.44,-29.57 136.32,-29.1 133.18,-28.61"/>
<polygon fill="#63b8ff" stroke="#63b8ff" points="540.41,-72.62 550.69,-70.07 541.06,-65.66 540.41,-72.62"/>
</a>
</g>
</g>
<!-- Node4 -->
<g id="Node000004" class="node">
<title>Node4</title>
<g id="a_Node000004"><a xlink:href="src_2audio_2data_8c.html" target="_top" xlink:title=" ">
<polygon fill="white" stroke="#666666" points="245.5,-24.5 151.5,-24.5 151.5,-5.5 245.5,-5.5 245.5,-24.5"/>
<text text-anchor="middle" x="198.5" y="-12.5" font-family="Helvetica,sans-Serif" font-size="10.00">src/audio/data.c</text>
</a>
</g>
</g>
<!-- Node3&#45;&gt;Node4 -->
<g id="edge4_Node000003_Node000004" class="edge">
<title>Node3&#45;&gt;Node4</title>
<g id="a_edge4_Node000003_Node000004"><a xlink:title=" ">
<path fill="none" stroke="#63b8ff" d="M540.76,-69.1C472.15,-62.21 354.4,-48.88 254.5,-30 246.52,-28.49 237.99,-26.54 230.05,-24.57"/>
<polygon fill="#63b8ff" stroke="#63b8ff" points="540.63,-72.61 550.93,-70.11 541.32,-65.64 540.63,-72.61"/>
</a>
</g>
</g>
<!-- Node3&#45;&gt;Node5 -->
<g id="edge5_Node000003_Node000005" class="edge">
<title>Node3&#45;&gt;Node5</title>
<g id="a_edge5_Node000003_Node000005"><a xlink:title=" ">
<path fill="none" stroke="#63b8ff" d="M570.46,-61.78C545.56,-50.49 509.88,-34.31 488.28,-24.52"/>
<polygon fill="#63b8ff" stroke="#63b8ff" points="569.19,-65.05 579.74,-65.99 572.08,-58.68 569.19,-65.05"/>
</a>
</g>
</g>
<!-- Node6 -->
<g id="Node000006" class="node">
<title>Node6</title>
<g id="a_Node000006"><a xlink:href="external_8c.html" target="_top" xlink:title=" ">
<polygon fill="white" stroke="#666666" points="1164,-24.5 1051,-24.5 1051,-5.5 1164,-5.5 1164,-24.5"/>
<text text-anchor="middle" x="1107.5" y="-12.5" font-family="Helvetica,sans-Serif" font-size="10.00">src/audio/external.c</text>
</a>
</g>
</g>
<!-- Node3&#45;&gt;Node6 -->
<g id="edge6_Node000003_Node000006" class="edge">
<title>Node3&#45;&gt;Node6</title>
<g id="a_edge6_Node000003_Node000006"><a xlink:title=" ">
<path fill="none" stroke="#63b8ff" d="M656.19,-69.06C767.52,-58.51 1004.33,-35.79 1041.5,-30 1050.99,-28.52 1061.17,-26.55 1070.63,-24.56"/>
<polygon fill="#63b8ff" stroke="#63b8ff" points="655.77,-65.58 646.14,-70.01 656.43,-72.55 655.77,-65.58"/>
</a>
</g>
</g>
<!-- Node7 -->
<g id="Node000007" class="node">
<title>Node7</title>
<g id="a_Node000007"><a xlink:href="heap_8c.html" target="_top" xlink:title=" ">
<polygon fill="white" stroke="#666666" points="908.5,-24.5 812.5,-24.5 812.5,-5.5 908.5,-5.5 908.5,-24.5"/>
<text text-anchor="middle" x="860.5" y="-12.5" font-family="Helvetica,sans-Serif" font-size="10.00">src/audio/heap.c</text>
</a>
</g>
</g>
<!-- Node3&#45;&gt;Node7 -->
<g id="edge7_Node000003_Node000007" class="edge">
<title>Node3&#45;&gt;Node7</title>
<g id="a_edge7_Node000003_Node000007"><a xlink:title=" ">
<path fill="none" stroke="#63b8ff" d="M648.64,-63.89C689.98,-55.06 750.12,-42.03 802.5,-30 809.97,-28.28 817.97,-26.39 825.57,-24.56"/>
<polygon fill="#63b8ff" stroke="#63b8ff" points="647.86,-60.47 638.81,-65.98 649.32,-67.32 647.86,-60.47"/>
</a>
</g>
</g>
<!-- Node3&#45;&gt;Node8 -->
<g id="edge8_Node000003_Node000008" class="edge">
<title>Node3&#45;&gt;Node8</title>
<g id="a_edge8_Node000003_Node000008"><a xlink:title=" ">
<path fill="none" stroke="#63b8ff" d="M656.42,-69.04C668.66,-67.96 681.5,-66.89 693.5,-66 962.56,-45.98 1032.81,-70.9 1299.5,-30 1308.12,-28.68 1317.35,-26.64 1325.77,-24.52"/>
<polygon fill="#63b8ff" stroke="#63b8ff" points="655.97,-65.57 646.32,-69.94 656.59,-72.54 655.97,-65.57"/>
</a>
</g>
</g>
<!-- Node3&#45;&gt;Node9 -->
<g id="edge9_Node000003_Node000009" class="edge">
<title>Node3&#45;&gt;Node9</title>
<g id="a_edge9_Node000003_Node000009"><a xlink:title=" ">
<path fill="none" stroke="#63b8ff" d="M598.5,-55.66C598.5,-45.24 598.5,-32.8 598.5,-24.67"/>
<polygon fill="#63b8ff" stroke="#63b8ff" points="595,-55.87 598.5,-65.87 602,-55.87 595,-55.87"/>
</a>
</g>
</g>
<!-- Node10 -->
<g id="Node000010" class="node">
<title>Node10</title>
<g id="a_Node000010"><a xlink:href="port__eu_8c.html" target="_top" xlink:title=" ">
<polygon fill="white" stroke="#666666" points="1291,-24.5 1182,-24.5 1182,-5.5 1291,-5.5 1291,-24.5"/>
<text text-anchor="middle" x="1236.5" y="-12.5" font-family="Helvetica,sans-Serif" font-size="10.00">src/audio/port_eu.c</text>
</a>
</g>
</g>
<!-- Node3&#45;&gt;Node10 -->
<g id="edge10_Node000003_Node000010" class="edge">
<title>Node3&#45;&gt;Node10</title>
<g id="a_edge10_Node000003_Node000010"><a xlink:title=" ">
<path fill="none" stroke="#63b8ff" d="M656.44,-69.18C668.67,-68.1 681.51,-66.99 693.5,-66 906.27,-48.49 961.26,-60.89 1172.5,-30 1182.07,-28.6 1192.34,-26.59 1201.79,-24.52"/>
<polygon fill="#63b8ff" stroke="#63b8ff" points="655.98,-65.71 646.33,-70.09 656.6,-72.68 655.98,-65.71"/>
</a>
</g>
</g>
<!-- Node3&#45;&gt;Node11 -->
<g id="edge11_Node000003_Node000011" class="edge">
<title>Node3&#45;&gt;Node11</title>
<g id="a_edge11_Node000003_Node000011"><a xlink:title=" ">
<path fill="none" stroke="#63b8ff" d="M627.72,-61.93C653.98,-50.64 691.83,-34.36 714.7,-24.52"/>
<polygon fill="#63b8ff" stroke="#63b8ff" points="626.08,-58.83 618.28,-65.99 628.84,-65.26 626.08,-58.83"/>
</a>
</g>
</g>
<!-- Node3&#45;&gt;Node12 -->
<g id="edge12_Node000003_Node000012" class="edge">
<title>Node3&#45;&gt;Node12</title>
<g id="a_edge12_Node000003_Node000012"><a xlink:title=" ">
<path fill="none" stroke="#63b8ff" d="M656.42,-68.95C668.66,-67.88 681.5,-66.84 693.5,-66 1011.79,-43.78 1093.93,-69.83 1410.5,-30 1421.05,-28.67 1432.4,-26.63 1442.79,-24.51"/>
<polygon fill="#63b8ff" stroke="#63b8ff" points="655.96,-65.48 646.31,-69.85 656.58,-72.45 655.96,-65.48"/>
</a>
</g>
</g>
<!-- Node13 -->
<g id="Node000013" class="node">
<title>Node13</title>
<g id="a_Node000013"><a xlink:href="audio__heap_8c.html" target="_top" xlink:title=" ">
<polygon fill="white" stroke="#666666" points="399,-24.5 264,-24.5 264,-5.5 399,-5.5 399,-24.5"/>
<text text-anchor="middle" x="331.5" y="-12.5" font-family="Helvetica,sans-Serif" font-size="10.00">src/buffers/audio_heap.c</text>
</a>
</g>
</g>
<!-- Node3&#45;&gt;Node13 -->
<g id="edge13_Node000003_Node000013" class="edge">
<title>Node3&#45;&gt;Node13</title>
<g id="a_edge13_Node000003_Node000013"><a xlink:title=" ">
<path fill="none" stroke="#63b8ff" d="M549.76,-63.82C498.2,-52.52 417.85,-34.92 370.37,-24.52"/>
<polygon fill="#63b8ff" stroke="#63b8ff" points="549.16,-67.27 559.68,-65.99 550.66,-60.43 549.16,-67.27"/>
</a>
</g>
</g>
<!-- Node14&#45;&gt;Node4 -->
<g id="edge16_Node000014_Node000004" class="edge">
<title>Node14&#45;&gt;Node4</title>
<g id="a_edge16_Node000014_Node000004"><a xlink:title=" ">
<path fill="none" stroke="#63b8ff" d="M394.71,-63.52C356.87,-54.6 302.21,-41.64 254.5,-30 247.3,-28.24 239.58,-26.33 232.24,-24.5"/>
<polygon fill="#63b8ff" stroke="#63b8ff" points="394.39,-67.04 404.92,-65.93 395.99,-60.23 394.39,-67.04"/>
</a>
</g>
</g>
<!-- Node14&#45;&gt;Node5 -->
<g id="edge17_Node000014_Node000005" class="edge">
<title>Node14&#45;&gt;Node5</title>
<g id="a_edge17_Node000014_Node000005"><a xlink:title=" ">
<path fill="none" stroke="#63b8ff" d="M450.04,-56.65C455.12,-46.04 461.33,-33.06 465.35,-24.67"/>
<polygon fill="#63b8ff" stroke="#63b8ff" points="446.79,-55.34 445.63,-65.87 453.11,-58.36 446.79,-55.34"/>
</a>
</g>
</g>
<!-- Node14&#45;&gt;Node7 -->
<g id="edge18_Node000014_Node000007" class="edge">
<title>Node14&#45;&gt;Node7</title>
<g id="a_edge18_Node000014_Node000007"><a xlink:title=" ">
<path fill="none" stroke="#63b8ff" d="M505.01,-68.89C577.38,-61.98 699.02,-48.8 802.5,-30 810.86,-28.48 819.81,-26.5 828.12,-24.51"/>
<polygon fill="#63b8ff" stroke="#63b8ff" points="504.33,-65.43 494.7,-69.86 504.98,-72.4 504.33,-65.43"/>
</a>
</g>
</g>
<!-- Node14&#45;&gt;Node9 -->
<g id="edge19_Node000014_Node000009" class="edge">
<title>Node14&#45;&gt;Node9</title>
<g id="a_edge19_Node000014_Node000009"><a xlink:title=" ">
<path fill="none" stroke="#63b8ff" d="M474.03,-62.38C504.38,-51.07 548.89,-34.49 575.64,-24.52"/>
<polygon fill="#63b8ff" stroke="#63b8ff" points="472.48,-59.22 464.33,-65.99 474.92,-65.78 472.48,-59.22"/>
</a>
</g>
</g>
<!-- Node14&#45;&gt;Node11 -->
<g id="edge20_Node000014_Node000011" class="edge">
<title>Node14&#45;&gt;Node11</title>
<g id="a_edge20_Node000014_Node000011"><a xlink:title=" ">
<path fill="none" stroke="#63b8ff" d="M494.79,-63.98C540.18,-55 607.13,-41.72 665.5,-30 674.25,-28.24 683.62,-26.35 692.54,-24.54"/>
<polygon fill="#63b8ff" stroke="#63b8ff" points="494,-60.56 484.87,-65.94 495.36,-67.43 494,-60.56"/>
</a>
</g>
</g>
<!-- Node15&#45;&gt;Node7 -->
<g id="edge22_Node000015_Node000007" class="edge">
<title>Node15&#45;&gt;Node7</title>
<g id="a_edge22_Node000015_Node000007"><a xlink:title=" ">
<path fill="none" stroke="#63b8ff" d="M1082.26,-63.98C1037.68,-55.34 973.42,-42.52 917.5,-30 909.94,-28.31 901.85,-26.39 894.2,-24.52"/>
<polygon fill="#63b8ff" stroke="#63b8ff" points="1081.82,-67.46 1092.3,-65.92 1083.15,-60.59 1081.82,-67.46"/>
</a>
</g>
</g>
<!-- Node15&#45;&gt;Node8 -->
<g id="edge23_Node000015_Node000008" class="edge">
<title>Node15&#45;&gt;Node8</title>
<g id="a_edge23_Node000015_Node000008"><a xlink:title=" ">
<path fill="none" stroke="#63b8ff" d="M1178.88,-63.4C1221.03,-52.08 1285.48,-34.79 1323.76,-24.52"/>
<polygon fill="#63b8ff" stroke="#63b8ff" points="1177.95,-60.02 1169.2,-65.99 1179.76,-66.78 1177.95,-60.02"/>
</a>
</g>
</g>
<!-- Node15&#45;&gt;Node9 -->
<g id="edge24_Node000015_Node000009" class="edge">
<title>Node15&#45;&gt;Node9</title>
<g id="a_edge24_Node000015_Node000009"><a xlink:title=" ">
<path fill="none" stroke="#63b8ff" d="M1078.76,-65.99C894.33,-45.02 845.01,-56.46 665.5,-30 655.74,-28.56 645.27,-26.58 635.57,-24.57"/>
<polygon fill="#63b8ff" stroke="#63b8ff" points="1078.46,-69.48 1088.79,-67.15 1079.26,-62.53 1078.46,-69.48"/>
</a>
</g>
</g>
<!-- Node15&#45;&gt;Node10 -->
<g id="edge25_Node000015_Node000010" class="edge">
<title>Node15&#45;&gt;Node10</title>
<g id="a_edge25_Node000015_Node000010"><a xlink:title=" ">
<path fill="none" stroke="#63b8ff" d="M1160.73,-60.77C1179.63,-49.6 1205.72,-34.19 1221.83,-24.67"/>
<polygon fill="#63b8ff" stroke="#63b8ff" points="1158.94,-57.77 1152.11,-65.87 1162.5,-63.79 1158.94,-57.77"/>
</a>
</g>
</g>
<!-- Node15&#45;&gt;Node11 -->
<g id="edge26_Node000015_Node000011" class="edge">
<title>Node15&#45;&gt;Node11</title>
<g id="a_edge26_Node000015_Node000011"><a xlink:title=" ">
<path fill="none" stroke="#63b8ff" d="M1078.55,-65.9C955.24,-49.08 922.31,-49.78 803.5,-30 793.97,-28.41 783.76,-26.47 774.18,-24.55"/>
<polygon fill="#63b8ff" stroke="#63b8ff" points="1078.39,-69.41 1088.77,-67.3 1079.34,-62.47 1078.39,-69.41"/>
</a>
</g>
</g>
<!-- Node15&#45;&gt;Node12 -->
<g id="edge27_Node000015_Node000012" class="edge">
<title>Node15&#45;&gt;Node12</title>
<g id="a_edge27_Node000015_Node000012"><a xlink:title=" ">
<path fill="none" stroke="#63b8ff" d="M1196.4,-65.57C1251.77,-57.02 1336.9,-43.46 1410.5,-30 1419.64,-28.33 1429.43,-26.42 1438.69,-24.55"/>
<polygon fill="#63b8ff" stroke="#63b8ff" points="1195.77,-62.13 1186.42,-67.11 1196.84,-69.05 1195.77,-62.13"/>
</a>
</g>
</g>
<!-- Node16&#45;&gt;Node5 -->
<g id="edge30_Node000016_Node000005" class="edge">
<title>Node16&#45;&gt;Node5</title>
<g id="a_edge30_Node000016_Node000005"><a xlink:title=" ">
<path fill="none" stroke="#63b8ff" d="M966.54,-65.98C772.66,-43.92 720.5,-59 531.5,-30 522.34,-28.59 512.51,-26.6 503.45,-24.56"/>
<polygon fill="#63b8ff" stroke="#63b8ff" points="966.14,-69.45 976.48,-67.12 966.95,-62.5 966.14,-69.45"/>
</a>
</g>
</g>
<!-- Node16&#45;&gt;Node6 -->
<g id="edge31_Node000016_Node000006" class="edge">
<title>Node16&#45;&gt;Node6</title>
<g id="a_edge31_Node000016_Node000006"><a xlink:title=" ">
<path fill="none" stroke="#63b8ff" d="M1044.54,-59.85C1060.45,-48.77 1081.76,-33.93 1095.05,-24.67"/>
<polygon fill="#63b8ff" stroke="#63b8ff" points="1042.1,-57.28 1035.89,-65.87 1046.1,-63.03 1042.1,-57.28"/>
</a>
</g>
</g>
<!-- Node16&#45;&gt;Node7 -->
<g id="edge32_Node000016_Node000007" class="edge">
<title>Node16&#45;&gt;Node7</title>
<g id="a_edge32_Node000016_Node000007"><a xlink:title=" ">
<path fill="none" stroke="#63b8ff" d="M990.13,-62.52C958.62,-51.21 912.13,-34.53 884.23,-24.52"/>
<polygon fill="#63b8ff" stroke="#63b8ff" points="989.2,-65.91 999.8,-65.99 991.57,-59.32 989.2,-65.91"/>
</a>
</g>
</g>
<!-- Node16&#45;&gt;Node8 -->
<g id="edge33_Node000016_Node000008" class="edge">
<title>Node16&#45;&gt;Node8</title>
<g id="a_edge33_Node000016_Node000008"><a xlink:title=" ">
<path fill="none" stroke="#63b8ff" d="M1080.81,-65.53C1155.34,-53.82 1278.53,-34.3 1299.5,-30 1307.26,-28.41 1315.56,-26.47 1323.33,-24.54"/>
<polygon fill="#63b8ff" stroke="#63b8ff" points="1079.97,-62.12 1070.63,-67.12 1081.06,-69.03 1079.97,-62.12"/>
</a>
</g>
</g>
<!-- Node16&#45;&gt;Node9 -->
<g id="edge34_Node000016_Node000009" class="edge">
<title>Node16&#45;&gt;Node9</title>
<g id="a_edge34_Node000016_Node000009"><a xlink:title=" ">
<path fill="none" stroke="#63b8ff" d="M966.19,-65.87C831.8,-48.03 795.64,-51.31 665.5,-30 656,-28.44 645.81,-26.47 636.31,-24.5"/>
<polygon fill="#63b8ff" stroke="#63b8ff" points="966.09,-69.39 976.46,-67.25 967.02,-62.45 966.09,-69.39"/>
</a>
</g>
</g>
<!-- Node16&#45;&gt;Node10 -->
<g id="edge35_Node000016_Node000010" class="edge">
<title>Node16&#45;&gt;Node10</title>
<g id="a_edge35_Node000016_Node000010"><a xlink:title=" ">
<path fill="none" stroke="#63b8ff" d="M1064.19,-63.32C1105.38,-52.01 1168.17,-34.77 1205.49,-24.52"/>
<polygon fill="#63b8ff" stroke="#63b8ff" points="1063.19,-59.97 1054.47,-65.99 1065.04,-66.72 1063.19,-59.97"/>
</a>
</g>
</g>
<!-- Node16&#45;&gt;Node11 -->
<g id="edge36_Node000016_Node000011" class="edge">
<title>Node16&#45;&gt;Node11</title>
<g id="a_edge36_Node000016_Node000011"><a xlink:title=" ">
<path fill="none" stroke="#63b8ff" d="M971.31,-63.95C926.73,-54.94 860.9,-41.63 803.5,-30 794.75,-28.23 785.39,-26.33 776.46,-24.52"/>
<polygon fill="#63b8ff" stroke="#63b8ff" points="970.83,-67.43 981.32,-65.98 972.21,-60.56 970.83,-67.43"/>
</a>
</g>
</g>
<!-- Node16&#45;&gt;Node12 -->
<g id="edge37_Node000016_Node000012" class="edge">
<title>Node16&#45;&gt;Node12</title>
<g id="a_edge37_Node000016_Node000012"><a xlink:title=" ">
<path fill="none" stroke="#63b8ff" d="M1080.85,-65.88C1228,-47.14 1267.56,-52.23 1410.5,-30 1420.28,-28.48 1430.78,-26.52 1440.57,-24.55"/>
<polygon fill="#63b8ff" stroke="#63b8ff" points="1080,-62.46 1070.53,-67.21 1080.9,-69.41 1080,-62.46"/>
</a>
</g>
</g>
<!-- Node17 -->
<g id="Node000017" class="node">
<title>Node17</title>
<g id="a_Node000017"><a xlink:href="Game_8cpp.html" target="_top" xlink:title=" ">
<polygon fill="white" stroke="#666666" points="1032.5,-24.5 926.5,-24.5 926.5,-5.5 1032.5,-5.5 1032.5,-24.5"/>
<text text-anchor="middle" x="979.5" y="-12.5" font-family="Helvetica,sans-Serif" font-size="10.00">src/port/Game.cpp</text>
</a>
</g>
</g>
<!-- Node16&#45;&gt;Node17 -->
<g id="edge38_Node000016_Node000017" class="edge">
<title>Node16&#45;&gt;Node17</title>
<g id="a_edge38_Node000016_Node000017"><a xlink:title=" ">
<path fill="none" stroke="#63b8ff" d="M1010.81,-57.63C1002.7,-46.85 992.53,-33.32 986.02,-24.67"/>
<polygon fill="#63b8ff" stroke="#63b8ff" points="1008.2,-59.98 1017.01,-65.87 1013.79,-55.77 1008.2,-59.98"/>
</a>
</g>
</g>
<!-- Node18&#45;&gt;Node7 -->
<g id="edge41_Node000018_Node000007" class="edge">
<title>Node18&#45;&gt;Node7</title>
<g id="a_edge41_Node000018_Node000007"><a xlink:title=" ">
<path fill="none" stroke="#63b8ff" d="M784.73,-60.77C803.63,-49.6 829.72,-34.19 845.83,-24.67"/>
<polygon fill="#63b8ff" stroke="#63b8ff" points="782.94,-57.77 776.11,-65.87 786.5,-63.79 782.94,-57.77"/>
</a>
</g>
</g>
<!-- Node18&#45;&gt;Node8 -->
<g id="edge42_Node000018_Node000008" class="edge">
<title>Node18&#45;&gt;Node8</title>
<g id="a_edge42_Node000018_Node000008"><a xlink:title=" ">
<path fill="none" stroke="#63b8ff" d="M830.18,-65.99C1039.69,-45.57 1095.93,-63 1299.5,-30 1307.91,-28.64 1316.91,-26.64 1325.18,-24.57"/>
<polygon fill="#63b8ff" stroke="#63b8ff" points="829.69,-62.53 820.09,-67 830.38,-69.49 829.69,-62.53"/>
</a>
</g>
</g>
<!-- Node18&#45;&gt;Node9 -->
<g id="edge43_Node000018_Node000009" class="edge">
<title>Node18&#45;&gt;Node9</title>
<g id="a_edge43_Node000018_Node000009"><a xlink:title=" ">
<path fill="none" stroke="#63b8ff" d="M728.13,-62.52C696.62,-51.21 650.13,-34.53 622.23,-24.52"/>
<polygon fill="#63b8ff" stroke="#63b8ff" points="727.2,-65.91 737.8,-65.99 729.57,-59.32 727.2,-65.91"/>
</a>
</g>
</g>
<!-- Node18&#45;&gt;Node11 -->
<g id="edge44_Node000018_Node000011" class="edge">
<title>Node18&#45;&gt;Node11</title>
<g id="a_edge44_Node000018_Node000011"><a xlink:title=" ">
<path fill="none" stroke="#63b8ff" d="M753.26,-56.65C748.37,-46.04 742.37,-33.06 738.5,-24.67"/>
<polygon fill="#63b8ff" stroke="#63b8ff" points="750.15,-58.26 757.52,-65.87 756.5,-55.32 750.15,-58.26"/>
</a>
</g>
</g>
<!-- Node19&#45;&gt;Node6 -->
<g id="edge46_Node000019_Node000006" class="edge">
<title>Node19&#45;&gt;Node6</title>
<g id="a_edge46_Node000019_Node000006"><a xlink:title=" ">
<path fill="none" stroke="#63b8ff" d="M1228,-62.38C1198.62,-51.07 1155.53,-34.49 1129.63,-24.52"/>
<polygon fill="#63b8ff" stroke="#63b8ff" points="1226.81,-65.67 1237.4,-65.99 1229.32,-59.14 1226.81,-65.67"/>
</a>
</g>
</g>
<!-- Node19&#45;&gt;Node8 -->
<g id="edge47_Node000019_Node000008" class="edge">
<title>Node19&#45;&gt;Node8</title>
<g id="a_edge47_Node000019_Node000008"><a xlink:title=" ">
<path fill="none" stroke="#63b8ff" d="M1282.28,-60.62C1300.58,-49.46 1325.73,-34.14 1341.28,-24.67"/>
<polygon fill="#63b8ff" stroke="#63b8ff" points="1280.38,-57.68 1273.67,-65.87 1284.03,-63.65 1280.38,-57.68"/>
</a>
</g>
</g>
<!-- Node19&#45;&gt;Node10 -->
<g id="edge48_Node000019_Node000010" class="edge">
<title>Node19&#45;&gt;Node10</title>
<g id="a_edge48_Node000019_Node000010"><a xlink:title=" ">
<path fill="none" stroke="#63b8ff" d="M1252.35,-56.32C1248.21,-45.78 1243.17,-32.98 1239.91,-24.67"/>
<polygon fill="#63b8ff" stroke="#63b8ff" points="1249.19,-57.84 1256.11,-65.87 1255.7,-55.28 1249.19,-57.84"/>
</a>
</g>
</g>
<!-- Node20&#45;&gt;Node5 -->
<g id="edge51_Node000020_Node000005" class="edge">
<title>Node20&#45;&gt;Node5</title>
<g id="a_edge51_Node000020_Node000005"><a xlink:title=" ">
<path fill="none" stroke="#63b8ff" d="M827.98,-65.95C694.78,-50.1 659.32,-52.12 531.5,-30 522.69,-28.48 513.25,-26.51 504.46,-24.55"/>
<polygon fill="#63b8ff" stroke="#63b8ff" points="827.82,-69.46 838.17,-67.17 828.66,-62.51 827.82,-69.46"/>
</a>
</g>
</g>
<!-- Node20&#45;&gt;Node7 -->
<g id="edge52_Node000020_Node000007" class="edge">
<title>Node20&#45;&gt;Node7</title>
<g id="a_edge52_Node000020_Node000007"><a xlink:title=" ">
<path fill="none" stroke="#63b8ff" d="M887.33,-57.3C880.36,-46.58 871.7,-33.23 866.13,-24.67"/>
<polygon fill="#63b8ff" stroke="#63b8ff" points="884.51,-59.39 892.89,-65.87 890.38,-55.58 884.51,-59.39"/>
</a>
</g>
</g>
<!-- Node20&#45;&gt;Node8 -->
<g id="edge53_Node000020_Node000008" class="edge">
<title>Node20&#45;&gt;Node8</title>
<g id="a_edge53_Node000020_Node000008"><a xlink:title=" ">
<path fill="none" stroke="#63b8ff" d="M969.06,-65.85C1116.72,-49.23 1156.67,-55.47 1299.5,-30 1307.69,-28.54 1316.45,-26.55 1324.56,-24.54"/>
<polygon fill="#63b8ff" stroke="#63b8ff" points="968.24,-62.42 958.7,-67.03 969.04,-69.37 968.24,-62.42"/>
</a>
</g>
</g>
<!-- Node20&#45;&gt;Node9 -->
<g id="edge54_Node000020_Node000009" class="edge">
<title>Node20&#45;&gt;Node9</title>
<g id="a_edge54_Node000020_Node000009"><a xlink:title=" ">
<path fill="none" stroke="#63b8ff" d="M842.45,-64.08C795.22,-55.23 725.88,-42.07 665.5,-30 656.88,-28.28 647.64,-26.38 638.87,-24.55"/>
<polygon fill="#63b8ff" stroke="#63b8ff" points="842,-67.55 852.48,-65.95 843.29,-60.67 842,-67.55"/>
</a>
</g>
</g>
<!-- Node20&#45;&gt;Node10 -->
<g id="edge55_Node000020_Node000010" class="edge">
<title>Node20&#45;&gt;Node10</title>
<g id="a_edge55_Node000020_Node000010"><a xlink:title=" ">
<path fill="none" stroke="#63b8ff" d="M966.73,-64.47C1022.28,-56.06 1102.64,-43.3 1172.5,-30 1181.1,-28.36 1190.32,-26.44 1199.01,-24.56"/>
<polygon fill="#63b8ff" stroke="#63b8ff" points="966.02,-61.04 956.66,-65.99 967.07,-67.96 966.02,-61.04"/>
</a>
</g>
</g>
<!-- Node20&#45;&gt;Node11 -->
<g id="edge56_Node000020_Node000011" class="edge">
<title>Node20&#45;&gt;Node11</title>
<g id="a_edge56_Node000020_Node000011"><a xlink:title=" ">
<path fill="none" stroke="#63b8ff" d="M864.93,-62.52C833.22,-51.21 786.45,-34.53 758.38,-24.52"/>
<polygon fill="#63b8ff" stroke="#63b8ff" points="864.06,-65.93 874.65,-65.99 866.41,-59.34 864.06,-65.93"/>
</a>
</g>
</g>
<!-- Node20&#45;&gt;Node12 -->
<g id="edge57_Node000020_Node000012" class="edge">
<title>Node20&#45;&gt;Node12</title>
<g id="a_edge57_Node000020_Node000012"><a xlink:title=" ">
<path fill="none" stroke="#63b8ff" d="M968.79,-65.92C1165.74,-46.3 1218.16,-57.23 1410.5,-30 1420.67,-28.56 1431.59,-26.56 1441.68,-24.52"/>
<polygon fill="#63b8ff" stroke="#63b8ff" points="968.29,-62.45 958.69,-66.94 969,-69.41 968.29,-62.45"/>
</a>
</g>
</g>
<!-- Node21&#45;&gt;Node7 -->
<g id="edge60_Node000021_Node000007" class="edge">
<title>Node21&#45;&gt;Node7</title>
<g id="a_edge60_Node000021_Node000007"><a xlink:title=" ">
<path fill="none" stroke="#63b8ff" d="M1322.55,-65.95C1141.61,-47.37 1092.97,-59.15 917.5,-30 909.06,-28.6 900.02,-26.61 891.68,-24.57"/>
<polygon fill="#63b8ff" stroke="#63b8ff" points="1322.37,-69.45 1332.68,-67 1323.09,-62.48 1322.37,-69.45"/>
</a>
</g>
</g>
<!-- Node21&#45;&gt;Node8 -->
<g id="edge61_Node000021_Node000008" class="edge">
<title>Node21&#45;&gt;Node8</title>
<g id="a_edge61_Node000021_Node000008"><a xlink:title=" ">
<path fill="none" stroke="#63b8ff" d="M1381.62,-57.3C1374.84,-46.58 1366.4,-33.23 1360.98,-24.67"/>
<polygon fill="#63b8ff" stroke="#63b8ff" points="1378.74,-59.29 1387.04,-65.87 1384.65,-55.55 1378.74,-59.29"/>
</a>
</g>
</g>
<!-- Node21&#45;&gt;Node10 -->
<g id="edge62_Node000021_Node000010" class="edge">
<title>Node21&#45;&gt;Node10</title>
<g id="a_edge62_Node000021_Node000010"><a xlink:title=" ">
<path fill="none" stroke="#63b8ff" d="M1360.17,-62.38C1330.02,-51.07 1285.8,-34.49 1259.21,-24.52"/>
<polygon fill="#63b8ff" stroke="#63b8ff" points="1359.22,-65.76 1369.82,-65.99 1361.68,-59.21 1359.22,-65.76"/>
</a>
</g>
</g>
<!-- Node21&#45;&gt;Node12 -->
<g id="edge63_Node000021_Node000012" class="edge">
<title>Node21&#45;&gt;Node12</title>
<g id="a_edge63_Node000021_Node000012"><a xlink:title=" ">
<path fill="none" stroke="#63b8ff" d="M1413.83,-60.16C1430.36,-49.05 1452.71,-34.01 1466.61,-24.67"/>
<polygon fill="#63b8ff" stroke="#63b8ff" points="1411.68,-57.38 1405.34,-65.87 1415.59,-63.19 1411.68,-57.38"/>
</a>
</g>
</g>
</g>
</svg>

<g id="navigator" transform="translate(0 0)" fill="#404254">
  <rect fill="#f2f5e9" fill-opacity="0.5" stroke="#606060" stroke-width=".5" x="0" y="0" width="60" height="60"/>
  <use id="zoomplus" xlink:href="#zoomPlus" x="17" y="9" onmousedown="handleZoom(evt,'in')"/>
  <use id="zoomminus" xlink:href="#zoomMin" x="42" y="9" onmousedown="handleZoom(evt,'out')"/>
  <use id="reset" xlink:href="#resetDef" x="30" y="36" onmousedown="handleReset()"/>
   <use id="arrowup" xlink:href="#arrowUp" x="0" y="0" onmousedown="handlePan(0,-1)"/>
  <use id="arrowright" xlink:href="#arrowRight" x="0" y="0" onmousedown="handlePan(1,0)"/>
  <use id="arrowdown" xlink:href="#arrowDown" x="0" y="0" onmousedown="handlePan(0,1)"/>
  <use id="arrowleft" xlink:href="#arrowLeft" x="0" y="0" onmousedown="handlePan(-1,0)"/>
</g>
<svg viewBox="0 0 15 15" width="100%" height="30px" preserveAspectRatio="xMaxYMin meet">
 <g id="arrow_out" transform="scale(0.3 0.3)">
  <a xlink:href="internal_8h__dep__incl_org.svg" target="_base">
   <rect id="button" ry="5" rx="5" y="6" x="6" height="38" width="38"
        fill="#f2f5e9" fill-opacity="0.5" stroke="#606060" stroke-width="1.0"/>
   <path id="arrow"
     d="M 11.500037,31.436501 C 11.940474,20.09759 22.043105,11.32322 32.158766,21.979434 L 37.068811,17.246167 C 37.068811,17.246167 37.088388,32 37.088388,32 L 22.160133,31.978069 C 22.160133,31.978069 26.997745,27.140456 26.997745,27.140456 C 18.528582,18.264221 13.291696,25.230495 11.500037,31.436501 z"
     style="fill:#404040;"/>
  </a>
 </g>
</svg>

<style type='text/css'>
<![CDATA[
[data-mouse-over-selected='false'] { opacity: 0.7; }
[data-mouse-over-selected='true']  { opacity: 1.0; }
]]>
</style>
<script type="application/ecmascript"><![CDATA[
document.addEventListener('DOMContentLoaded', (event) => {
  highlightEdges();
  highlightAdjacentNodes();
});
]]></script>
</svg>
