<?xml version="1.0" encoding="UTF-8" standalone="no"?>
<!DOCTYPE svg PUBLIC "-//W3C//DTD SVG 1.1//EN"
 "http://www.w3.org/Graphics/SVG/1.1/DTD/svg11.dtd">
<!-- Generated by graphviz version 2.43.0 (0)
 -->
<!-- Title: src/engine/courses/KalimariDesert.h Pages: 1 -->
<svg width="1856pt" height="379pt"
 viewBox="0.00 0.00 1855.50 379.00" xmlns="http://www.w3.org/2000/svg" xmlns:xlink="http://www.w3.org/1999/xlink">
<g id="graph0" class="graph" transform="scale(1 1) rotate(0) translate(4 375)">
<title>src/engine/courses/KalimariDesert.h</title>
<!-- Node1 -->
<g id="Node000001" class="node">
<title>Node1</title>
<g id="a_Node000001"><a xlink:title=" ">
<polygon fill="#999999" stroke="#666666" points="1216,-371 1109,-371 1109,-341 1216,-341 1216,-371"/>
<text text-anchor="start" x="1117" y="-359" font-family="Helvetica,sans-Serif" font-size="10.00">src/engine/courses</text>
<text text-anchor="middle" x="1162.5" y="-348" font-family="Helvetica,sans-Serif" font-size="10.00">/KalimariDesert.h</text>
</a>
</g>
</g>
<!-- Node2 -->
<g id="Node000002" class="node">
<title>Node2</title>
<g id="a_Node000002"><a xlink:title=" ">
<polygon fill="#e0e0e0" stroke="#999999" points="869.5,-19 789.5,-19 789.5,0 869.5,0 869.5,-19"/>
<text text-anchor="middle" x="829.5" y="-7" font-family="Helvetica,sans-Serif" font-size="10.00">libultraship.h</text>
</a>
</g>
</g>
<!-- Node1&#45;&gt;Node2 -->
<g id="edge1_Node000001_Node000002" class="edge">
<title>Node1&#45;&gt;Node2</title>
<g id="a_edge1_Node000001_Node000002"><a xlink:title=" ">
<path fill="none" stroke="#63b8ff" d="M1216.25,-351.76C1377.73,-341.3 1847.5,-305.39 1847.5,-241.5 1847.5,-241.5 1847.5,-241.5 1847.5,-124 1847.5,-25.52 1085.23,-12.49 879.92,-10.76"/>
<polygon fill="#63b8ff" stroke="#63b8ff" points="879.75,-7.26 869.72,-10.68 879.69,-14.26 879.75,-7.26"/>
</a>
</g>
</g>
<!-- Node3 -->
<g id="Node000003" class="node">
<title>Node3</title>
<g id="a_Node000003"><a xlink:href="CoreMath_8h.html" target="_top" xlink:title=" ">
<polygon fill="white" stroke="#666666" points="118,-195 45,-195 45,-176 118,-176 118,-195"/>
<text text-anchor="middle" x="81.5" y="-183" font-family="Helvetica,sans-Serif" font-size="10.00">CoreMath.h</text>
</a>
</g>
</g>
<!-- Node1&#45;&gt;Node3 -->
<g id="edge2_Node000001_Node000003" class="edge">
<title>Node1&#45;&gt;Node3</title>
<g id="a_edge2_Node000001_Node000003"><a xlink:title=" ">
<path fill="none" stroke="#63b8ff" d="M1108.82,-353.87C948.16,-350.15 472.89,-336.71 321.5,-305 252.41,-290.53 235.07,-282.69 172.5,-250 145.65,-235.97 117.44,-215.21 99.68,-201.29"/>
<polygon fill="#63b8ff" stroke="#63b8ff" points="101.86,-198.55 91.86,-195.06 97.5,-204.03 101.86,-198.55"/>
</a>
</g>
</g>
<!-- Node4 -->
<g id="Node000004" class="node">
<title>Node4</title>
<g id="a_Node000004"><a xlink:href="Course_8h.html" target="_top" xlink:title=" ">
<polygon fill="white" stroke="#666666" points="829,-305 770,-305 770,-286 829,-286 829,-305"/>
<text text-anchor="middle" x="799.5" y="-293" font-family="Helvetica,sans-Serif" font-size="10.00">Course.h</text>
</a>
</g>
</g>
<!-- Node1&#45;&gt;Node4 -->
<g id="edge4_Node000001_Node000004" class="edge">
<title>Node1&#45;&gt;Node4</title>
<g id="a_edge4_Node000001_Node000004"><a xlink:title=" ">
<path fill="none" stroke="#63b8ff" d="M1108.94,-346.37C1035.37,-334.51 904.74,-313.46 839.25,-302.91"/>
<polygon fill="#63b8ff" stroke="#63b8ff" points="839.75,-299.44 829.32,-301.31 838.63,-306.35 839.75,-299.44"/>
</a>
</g>
</g>
<!-- Node5 -->
<g id="Node000005" class="node">
<title>Node5</title>
<g id="a_Node000005"><a xlink:href="camera_8h.html" target="_top" xlink:title=" ">
<polygon fill="white" stroke="#666666" points="887.5,-195 825.5,-195 825.5,-176 887.5,-176 887.5,-195"/>
<text text-anchor="middle" x="856.5" y="-183" font-family="Helvetica,sans-Serif" font-size="10.00">camera.h</text>
</a>
</g>
</g>
<!-- Node1&#45;&gt;Node5 -->
<g id="edge79_Node000001_Node000005" class="edge">
<title>Node1&#45;&gt;Node5</title>
<g id="a_edge79_Node000001_Node000005"><a xlink:title=" ">
<path fill="none" stroke="#63b8ff" d="M1168,-340.69C1176.75,-315.25 1190.27,-261.93 1163.5,-231 1129.63,-191.86 973.56,-186.41 897.88,-186.12"/>
<polygon fill="#63b8ff" stroke="#63b8ff" points="897.76,-182.62 887.75,-186.11 897.75,-189.62 897.76,-182.62"/>
</a>
</g>
</g>
<!-- Node7 -->
<g id="Node000007" class="node">
<title>Node7</title>
<g id="a_Node000007"><a xlink:href="course__offsets_8h.html" target="_top" xlink:title=" ">
<polygon fill="white" stroke="#666666" points="1308.5,-195 1212.5,-195 1212.5,-176 1308.5,-176 1308.5,-195"/>
<text text-anchor="middle" x="1260.5" y="-183" font-family="Helvetica,sans-Serif" font-size="10.00">course_offsets.h</text>
</a>
</g>
</g>
<!-- Node1&#45;&gt;Node7 -->
<g id="edge78_Node000001_Node000007" class="edge">
<title>Node1&#45;&gt;Node7</title>
<g id="a_edge78_Node000001_Node000007"><a xlink:title=" ">
<path fill="none" stroke="#63b8ff" d="M1172.72,-340.81C1179.68,-330.94 1188.98,-317.38 1196.5,-305 1217.66,-270.19 1239.66,-227.88 1251.56,-204.4"/>
<polygon fill="#63b8ff" stroke="#63b8ff" points="1254.77,-205.8 1256.14,-195.29 1248.52,-202.65 1254.77,-205.8"/>
</a>
</g>
</g>
<!-- Node13 -->
<g id="Node000013" class="node">
<title>Node13</title>
<g id="a_Node000013"><a xlink:href="src_2data_2some__data_8h.html" target="_top" xlink:title=" ">
<polygon fill="white" stroke="#666666" points="1154.5,-250 1050.5,-250 1050.5,-231 1154.5,-231 1154.5,-250"/>
<text text-anchor="middle" x="1102.5" y="-238" font-family="Helvetica,sans-Serif" font-size="10.00">data/some_data.h</text>
</a>
</g>
</g>
<!-- Node1&#45;&gt;Node13 -->
<g id="edge80_Node000001_Node000013" class="edge">
<title>Node1&#45;&gt;Node13</title>
<g id="a_edge80_Node000001_Node000013"><a xlink:title=" ">
<path fill="none" stroke="#63b8ff" d="M1154.9,-340.63C1143.96,-319.93 1123.79,-281.78 1111.92,-259.32"/>
<polygon fill="#63b8ff" stroke="#63b8ff" points="1114.88,-257.43 1107.11,-250.23 1108.69,-260.71 1114.88,-257.43"/>
</a>
</g>
</g>
<!-- Node15 -->
<g id="Node000015" class="node">
<title>Node15</title>
<g id="a_Node000015"><a xlink:href="objects_8h.html" target="_top" xlink:title=" ">
<polygon fill="white" stroke="#666666" points="769,-195 708,-195 708,-176 769,-176 769,-195"/>
<text text-anchor="middle" x="738.5" y="-183" font-family="Helvetica,sans-Serif" font-size="10.00">objects.h</text>
</a>
</g>
</g>
<!-- Node1&#45;&gt;Node15 -->
<g id="edge81_Node000001_Node000015" class="edge">
<title>Node1&#45;&gt;Node15</title>
<g id="a_edge81_Node000001_Node000015"><a xlink:title=" ">
<path fill="none" stroke="#63b8ff" d="M1108.93,-353.3C987.73,-348.09 699.27,-327.61 651.5,-250 636.88,-226.25 668.82,-208.62 698.04,-198.04"/>
<polygon fill="#63b8ff" stroke="#63b8ff" points="699.43,-201.26 707.77,-194.72 697.17,-194.64 699.43,-201.26"/>
</a>
</g>
</g>
<!-- Node20 -->
<g id="Node000020" class="node">
<title>Node20</title>
<g id="a_Node000020"><a xlink:href="path__spawn__metadata_8h.html" target="_top" xlink:title=" ">
<polygon fill="white" stroke="#666666" points="994,-250 857,-250 857,-231 994,-231 994,-250"/>
<text text-anchor="middle" x="925.5" y="-238" font-family="Helvetica,sans-Serif" font-size="10.00">path_spawn_metadata.h</text>
</a>
</g>
</g>
<!-- Node1&#45;&gt;Node20 -->
<g id="edge82_Node000001_Node000020" class="edge">
<title>Node1&#45;&gt;Node20</title>
<g id="a_edge82_Node000001_Node000020"><a xlink:title=" ">
<path fill="none" stroke="#63b8ff" d="M1132.96,-340.85C1086.61,-318.65 997.44,-275.95 952.62,-254.49"/>
<polygon fill="#63b8ff" stroke="#63b8ff" points="954.04,-251.29 943.51,-250.12 951.02,-257.6 954.04,-251.29"/>
</a>
</g>
</g>
<!-- Node24 -->
<g id="Node000024" class="node">
<title>Node24</title>
<g id="a_Node000024"><a xlink:href="Train_8h.html" target="_top" xlink:title=" ">
<polygon fill="white" stroke="#666666" points="458.5,-305 330.5,-305 330.5,-286 458.5,-286 458.5,-305"/>
<text text-anchor="middle" x="394.5" y="-293" font-family="Helvetica,sans-Serif" font-size="10.00">engine/vehicles/Train.h</text>
</a>
</g>
</g>
<!-- Node1&#45;&gt;Node24 -->
<g id="edge49_Node000001_Node000024" class="edge">
<title>Node1&#45;&gt;Node24</title>
<g id="a_edge49_Node000001_Node000024"><a xlink:title=" ">
<path fill="none" stroke="#63b8ff" d="M1108.8,-350.91C974.38,-340.67 623.14,-313.92 468.92,-302.17"/>
<polygon fill="#63b8ff" stroke="#63b8ff" points="468.85,-298.65 458.61,-301.38 468.32,-305.63 468.85,-298.65"/>
</a>
</g>
</g>
<!-- Node31 -->
<g id="Node000031" class="node">
<title>Node31</title>
<g id="a_Node000031"><a xlink:href="kalimari__desert__vertices_8h.html" target="_top" xlink:title=" ">
<polygon fill="white" stroke="#666666" points="1529,-140 1402,-140 1402,-110 1529,-110 1529,-140"/>
<text text-anchor="start" x="1410" y="-128" font-family="Helvetica,sans-Serif" font-size="10.00">assets/kalimari_desert</text>
<text text-anchor="middle" x="1465.5" y="-117" font-family="Helvetica,sans-Serif" font-size="10.00">_vertices.h</text>
</a>
</g>
</g>
<!-- Node1&#45;&gt;Node31 -->
<g id="edge66_Node000001_Node000031" class="edge">
<title>Node1&#45;&gt;Node31</title>
<g id="a_edge66_Node000001_Node000031"><a xlink:title=" ">
<path fill="none" stroke="#63b8ff" d="M1181.45,-340.68C1233.44,-301.38 1378.41,-191.82 1438.68,-146.27"/>
<polygon fill="#63b8ff" stroke="#63b8ff" points="1441.07,-148.85 1446.94,-140.03 1436.85,-143.26 1441.07,-148.85"/>
</a>
</g>
</g>
<!-- Node32 -->
<g id="Node000032" class="node">
<title>Node32</title>
<g id="a_Node000032"><a xlink:href="kalimari__desert__displaylists_8h.html" target="_top" xlink:title=" ">
<polygon fill="white" stroke="#666666" points="1674,-140 1547,-140 1547,-110 1674,-110 1674,-140"/>
<text text-anchor="start" x="1555" y="-128" font-family="Helvetica,sans-Serif" font-size="10.00">assets/kalimari_desert</text>
<text text-anchor="middle" x="1610.5" y="-117" font-family="Helvetica,sans-Serif" font-size="10.00">_displaylists.h</text>
</a>
</g>
</g>
<!-- Node1&#45;&gt;Node32 -->
<g id="edge70_Node000001_Node000032" class="edge">
<title>Node1&#45;&gt;Node32</title>
<g id="a_edge70_Node000001_Node000032"><a xlink:title=" ">
<path fill="none" stroke="#63b8ff" d="M1190.19,-340.85C1267.68,-301.24 1486.76,-189.25 1574,-144.66"/>
<polygon fill="#63b8ff" stroke="#63b8ff" points="1575.69,-147.73 1583,-140.06 1572.5,-141.49 1575.69,-147.73"/>
</a>
</g>
</g>
<!-- Node33 -->
<g id="Node000033" class="node">
<title>Node33</title>
<g id="a_Node000033"><a xlink:href="kalimari__desert__data_8h.html" target="_top" xlink:title=" ">
<polygon fill="white" stroke="#666666" points="1819,-140 1692,-140 1692,-110 1819,-110 1819,-140"/>
<text text-anchor="start" x="1700" y="-128" font-family="Helvetica,sans-Serif" font-size="10.00">assets/kalimari_desert</text>
<text text-anchor="middle" x="1755.5" y="-117" font-family="Helvetica,sans-Serif" font-size="10.00">_data.h</text>
</a>
</g>
</g>
<!-- Node1&#45;&gt;Node33 -->
<g id="edge74_Node000001_Node000033" class="edge">
<title>Node1&#45;&gt;Node33</title>
<g id="a_edge74_Node000001_Node000033"><a xlink:title=" ">
<path fill="none" stroke="#63b8ff" d="M1199.5,-340.93C1225.75,-330.94 1261.8,-317.19 1293.5,-305 1446.22,-246.27 1627.06,-175.99 1709.91,-143.75"/>
<polygon fill="#63b8ff" stroke="#63b8ff" points="1711.24,-146.99 1719.29,-140.1 1708.7,-140.47 1711.24,-146.99"/>
</a>
</g>
</g>
<!-- Node3&#45;&gt;Node2 -->
<g id="edge3_Node000003_Node000002" class="edge">
<title>Node3&#45;&gt;Node2</title>
<g id="a_edge3_Node000003_Node000002"><a xlink:title=" ">
<path fill="none" stroke="#63b8ff" d="M79.96,-175.87C76.3,-152.31 69.88,-86.52 105.5,-55 130.72,-32.68 619.37,-16.59 779.31,-11.9"/>
<polygon fill="#63b8ff" stroke="#63b8ff" points="779.46,-15.4 789.36,-11.61 779.26,-8.4 779.46,-15.4"/>
</a>
</g>
</g>
<!-- Node4&#45;&gt;Node2 -->
<g id="edge5_Node000004_Node000002" class="edge">
<title>Node4&#45;&gt;Node2</title>
<g id="a_edge5_Node000004_Node000002"><a xlink:title=" ">
<path fill="none" stroke="#63b8ff" d="M829.14,-292.44C880.13,-288.22 981.07,-276.64 1002.5,-250 1007.79,-243.42 1006.54,-238.42 1002.5,-231 981,-191.47 956.38,-198.65 917.5,-176 887.61,-158.59 868.54,-168.2 848.5,-140 824.78,-106.61 825.04,-56.04 827.27,-29.04"/>
<polygon fill="#63b8ff" stroke="#63b8ff" points="830.76,-29.33 828.29,-19.02 823.8,-28.62 830.76,-29.33"/>
</a>
</g>
</g>
<!-- Node4&#45;&gt;Node3 -->
<g id="edge6_Node000004_Node000003" class="edge">
<title>Node4&#45;&gt;Node3</title>
<g id="a_edge6_Node000004_Node000003"><a xlink:title=" ">
<path fill="none" stroke="#63b8ff" d="M769.9,-293.14C680.03,-288.77 411.38,-274.01 327.5,-250 309.35,-244.8 307.32,-237.25 289.5,-231 260.26,-220.75 179.98,-204.82 128.13,-195.05"/>
<polygon fill="#63b8ff" stroke="#63b8ff" points="128.64,-191.59 118.17,-193.19 127.35,-198.47 128.64,-191.59"/>
</a>
</g>
</g>
<!-- Node4&#45;&gt;Node5 -->
<g id="edge7_Node000004_Node000005" class="edge">
<title>Node4&#45;&gt;Node5</title>
<g id="a_edge7_Node000004_Node000005"><a xlink:title=" ">
<path fill="none" stroke="#63b8ff" d="M804.16,-285.66C813.56,-267.85 834.93,-227.37 847.26,-204.01"/>
<polygon fill="#63b8ff" stroke="#63b8ff" points="850.36,-205.64 851.93,-195.16 844.17,-202.37 850.36,-205.64"/>
</a>
</g>
</g>
<!-- Node6 -->
<g id="Node000006" class="node">
<title>Node6</title>
<g id="a_Node000006"><a xlink:href="common__structs_8h.html" target="_top" xlink:title=" ">
<polygon fill="white" stroke="#666666" points="657,-74 550,-74 550,-55 657,-55 657,-74"/>
<text text-anchor="middle" x="603.5" y="-62" font-family="Helvetica,sans-Serif" font-size="10.00">common_structs.h</text>
</a>
</g>
</g>
<!-- Node4&#45;&gt;Node6 -->
<g id="edge48_Node000004_Node000006" class="edge">
<title>Node4&#45;&gt;Node6</title>
<g id="a_edge48_Node000004_Node000006"><a xlink:title=" ">
<path fill="none" stroke="#63b8ff" d="M769.79,-290.26C731.4,-284.18 662.9,-271.33 607.5,-250 560.53,-231.92 534.03,-238.38 508.5,-195 482.3,-150.47 543.8,-102.56 579.77,-79.49"/>
<polygon fill="#63b8ff" stroke="#63b8ff" points="581.66,-82.43 588.29,-74.18 577.96,-76.49 581.66,-82.43"/>
</a>
</g>
</g>
<!-- Node4&#45;&gt;Node7 -->
<g id="edge11_Node000004_Node000007" class="edge">
<title>Node4&#45;&gt;Node7</title>
<g id="a_edge11_Node000004_Node000007"><a xlink:title=" ">
<path fill="none" stroke="#63b8ff" d="M829.34,-295.36C892.88,-296.23 1045.41,-293.19 1163.5,-250 1194.02,-238.84 1224.62,-216.5 1243.06,-201.52"/>
<polygon fill="#63b8ff" stroke="#63b8ff" points="1245.41,-204.12 1250.86,-195.03 1240.94,-198.74 1245.41,-204.12"/>
</a>
</g>
</g>
<!-- Node4&#45;&gt;Node13 -->
<g id="edge20_Node000004_Node000013" class="edge">
<title>Node4&#45;&gt;Node13</title>
<g id="a_edge20_Node000004_Node000013"><a xlink:title=" ">
<path fill="none" stroke="#63b8ff" d="M829.1,-289.32C878.65,-280.66 979.24,-263.06 1043.63,-251.8"/>
<polygon fill="#63b8ff" stroke="#63b8ff" points="1044.39,-255.22 1053.63,-250.05 1043.18,-248.32 1044.39,-255.22"/>
</a>
</g>
</g>
<!-- Node16 -->
<g id="Node000016" class="node">
<title>Node16</title>
<g id="a_Node000016"><a xlink:href="defines_8h.html" target="_top" xlink:title=" ">
<polygon fill="white" stroke="#666666" points="722,-250 661,-250 661,-231 722,-231 722,-250"/>
<text text-anchor="middle" x="691.5" y="-238" font-family="Helvetica,sans-Serif" font-size="10.00">defines.h</text>
</a>
</g>
</g>
<!-- Node4&#45;&gt;Node16 -->
<g id="edge28_Node000004_Node000016" class="edge">
<title>Node4&#45;&gt;Node16</title>
<g id="a_edge28_Node000004_Node000016"><a xlink:title=" ">
<path fill="none" stroke="#63b8ff" d="M782.15,-285.98C764.93,-277.54 738.3,-264.47 718.35,-254.68"/>
<polygon fill="#63b8ff" stroke="#63b8ff" points="719.69,-251.43 709.17,-250.17 716.6,-257.72 719.69,-251.43"/>
</a>
</g>
</g>
<!-- Node17 -->
<g id="Node000017" class="node">
<title>Node17</title>
<g id="a_Node000017"><a xlink:href="bomb__kart_8h.html" target="_top" xlink:title=" ">
<polygon fill="white" stroke="#666666" points="595,-195 518,-195 518,-176 595,-176 595,-195"/>
<text text-anchor="middle" x="556.5" y="-183" font-family="Helvetica,sans-Serif" font-size="10.00">bomb_kart.h</text>
</a>
</g>
</g>
<!-- Node4&#45;&gt;Node17 -->
<g id="edge29_Node000004_Node000017" class="edge">
<title>Node4&#45;&gt;Node17</title>
<g id="a_edge29_Node000004_Node000017"><a xlink:title=" ">
<path fill="none" stroke="#63b8ff" d="M769.87,-289.65C737.01,-283.49 683.01,-271.07 640.5,-250 614.83,-237.28 589.12,-216.34 573.03,-202.01"/>
<polygon fill="#63b8ff" stroke="#63b8ff" points="575.29,-199.34 565.54,-195.2 570.58,-204.52 575.29,-199.34"/>
</a>
</g>
</g>
<!-- Node4&#45;&gt;Node20 -->
<g id="edge36_Node000004_Node000020" class="edge">
<title>Node4&#45;&gt;Node20</title>
<g id="a_edge36_Node000004_Node000020"><a xlink:title=" ">
<path fill="none" stroke="#63b8ff" d="M819.74,-285.98C840.2,-277.38 872.03,-263.99 895.43,-254.15"/>
<polygon fill="#63b8ff" stroke="#63b8ff" points="897.03,-257.27 904.89,-250.17 894.31,-250.82 897.03,-257.27"/>
</a>
</g>
</g>
<!-- Node21 -->
<g id="Node000021" class="node">
<title>Node21</title>
<g id="a_Node000021"><a xlink:href="waypoints_8h.html" target="_top" xlink:title=" ">
<polygon fill="white" stroke="#666666" points="689.5,-195 613.5,-195 613.5,-176 689.5,-176 689.5,-195"/>
<text text-anchor="middle" x="651.5" y="-183" font-family="Helvetica,sans-Serif" font-size="10.00">waypoints.h</text>
</a>
</g>
</g>
<!-- Node4&#45;&gt;Node21 -->
<g id="edge46_Node000004_Node000021" class="edge">
<title>Node4&#45;&gt;Node21</title>
<g id="a_edge46_Node000004_Node000021"><a xlink:title=" ">
<path fill="none" stroke="#63b8ff" d="M769.83,-295.2C735.05,-294.22 678.72,-286.6 651.5,-250 642.05,-237.3 643.21,-218.86 646.04,-205.12"/>
<polygon fill="#63b8ff" stroke="#63b8ff" points="649.46,-205.87 648.5,-195.31 642.67,-204.16 649.46,-205.87"/>
</a>
</g>
</g>
<!-- Node23 -->
<g id="Node000023" class="node">
<title>Node23</title>
<g id="a_Node000023"><a xlink:href="sounds_8h.html" target="_top" xlink:title=" ">
<polygon fill="white" stroke="#666666" points="800.5,-250 740.5,-250 740.5,-231 800.5,-231 800.5,-250"/>
<text text-anchor="middle" x="770.5" y="-238" font-family="Helvetica,sans-Serif" font-size="10.00">sounds.h</text>
</a>
</g>
</g>
<!-- Node4&#45;&gt;Node23 -->
<g id="edge47_Node000004_Node000023" class="edge">
<title>Node4&#45;&gt;Node23</title>
<g id="a_edge47_Node000004_Node000023"><a xlink:title=" ">
<path fill="none" stroke="#63b8ff" d="M794.71,-285.75C790.74,-278.49 784.97,-267.95 780.07,-258.98"/>
<polygon fill="#63b8ff" stroke="#63b8ff" points="783.07,-257.18 775.2,-250.09 776.93,-260.54 783.07,-257.18"/>
</a>
</g>
</g>
<!-- Node5&#45;&gt;Node2 -->
<g id="edge8_Node000005_Node000002" class="edge">
<title>Node5&#45;&gt;Node2</title>
<g id="a_edge8_Node000005_Node000002"><a xlink:title=" ">
<path fill="none" stroke="#63b8ff" d="M844.57,-175.8C834.67,-167.77 821.31,-154.87 815.5,-140 800.82,-102.4 813.42,-54.27 822.39,-28.58"/>
<polygon fill="#63b8ff" stroke="#63b8ff" points="825.73,-29.63 825.92,-19.04 819.17,-27.2 825.73,-29.63"/>
</a>
</g>
</g>
<!-- Node5&#45;&gt;Node6 -->
<g id="edge9_Node000005_Node000006" class="edge">
<title>Node5&#45;&gt;Node6</title>
<g id="a_edge9_Node000005_Node000006"><a xlink:title=" ">
<path fill="none" stroke="#63b8ff" d="M828.28,-175.84C804.07,-167.94 768.59,-155.18 739.5,-140 718.52,-129.05 715.99,-121.85 695.5,-110 675.06,-98.18 651.01,-86.62 632.63,-78.25"/>
<polygon fill="#63b8ff" stroke="#63b8ff" points="633.87,-74.97 623.32,-74.06 631,-81.35 633.87,-74.97"/>
</a>
</g>
</g>
<!-- Node6&#45;&gt;Node2 -->
<g id="edge10_Node000006_Node000002" class="edge">
<title>Node6&#45;&gt;Node2</title>
<g id="a_edge10_Node000006_Node000002"><a xlink:title=" ">
<path fill="none" stroke="#63b8ff" d="M639.81,-54.98C678.74,-45.86 740.66,-31.33 783.1,-21.38"/>
<polygon fill="#63b8ff" stroke="#63b8ff" points="783.97,-24.77 792.9,-19.08 782.37,-17.96 783.97,-24.77"/>
</a>
</g>
</g>
<!-- Node7&#45;&gt;Node2 -->
<g id="edge12_Node000007_Node000002" class="edge">
<title>Node7&#45;&gt;Node2</title>
<g id="a_edge12_Node000007_Node000002"><a xlink:title=" ">
<path fill="none" stroke="#63b8ff" d="M1282.24,-175.93C1298.23,-168.6 1319.37,-156.59 1332.5,-140 1356.72,-109.4 1380.9,-83.73 1354.5,-55 1322.78,-20.48 1005.25,-12.71 879.95,-10.98"/>
<polygon fill="#63b8ff" stroke="#63b8ff" points="879.9,-7.48 869.85,-10.85 879.81,-14.48 879.9,-7.48"/>
</a>
</g>
</g>
<!-- Node8 -->
<g id="Node000008" class="node">
<title>Node8</title>
<g id="a_Node000008"><a xlink:title=" ">
<polygon fill="#e0e0e0" stroke="#999999" points="421.5,-19 331.5,-19 331.5,0 421.5,0 421.5,-19"/>
<text text-anchor="middle" x="376.5" y="-7" font-family="Helvetica,sans-Serif" font-size="10.00">libultra/types.h</text>
</a>
</g>
</g>
<!-- Node7&#45;&gt;Node8 -->
<g id="edge13_Node000007_Node000008" class="edge">
<title>Node7&#45;&gt;Node8</title>
<g id="a_edge13_Node000007_Node000008"><a xlink:title=" ">
<path fill="none" stroke="#63b8ff" d="M1212.45,-183.99C1155.03,-181.81 1057.13,-173 980.5,-140 960.42,-131.35 961.41,-119.04 941.5,-110 827.61,-58.29 788.67,-76.75 665.5,-55 584.38,-40.68 489.99,-26.64 431.74,-18.27"/>
<polygon fill="#63b8ff" stroke="#63b8ff" points="432.05,-14.78 421.65,-16.83 431.06,-21.71 432.05,-14.78"/>
</a>
</g>
</g>
<!-- Node9 -->
<g id="Node000009" class="node">
<title>Node9</title>
<g id="a_Node000009"><a xlink:title=" ">
<polygon fill="#e0e0e0" stroke="#999999" points="1345.5,-74 1267.5,-74 1267.5,-55 1345.5,-55 1345.5,-74"/>
<text text-anchor="middle" x="1306.5" y="-62" font-family="Helvetica,sans-Serif" font-size="10.00">libultra/gbi.h</text>
</a>
</g>
</g>
<!-- Node7&#45;&gt;Node9 -->
<g id="edge14_Node000007_Node000009" class="edge">
<title>Node7&#45;&gt;Node9</title>
<g id="a_edge14_Node000007_Node000009"><a xlink:title=" ">
<path fill="none" stroke="#63b8ff" d="M1277.96,-175.88C1290.97,-168.38 1307.78,-156.18 1315.5,-140 1323.98,-122.23 1319.31,-99.48 1314.06,-83.82"/>
<polygon fill="#63b8ff" stroke="#63b8ff" points="1317.27,-82.4 1310.49,-74.26 1310.71,-84.85 1317.27,-82.4"/>
</a>
</g>
</g>
<!-- Node10 -->
<g id="Node000010" class="node">
<title>Node10</title>
<g id="a_Node000010"><a xlink:href="other__textures_8h.html" target="_top" xlink:title=" ">
<polygon fill="white" stroke="#666666" points="1307,-134.5 1176,-134.5 1176,-115.5 1307,-115.5 1307,-134.5"/>
<text text-anchor="middle" x="1241.5" y="-122.5" font-family="Helvetica,sans-Serif" font-size="10.00">assets/other_textures.h</text>
</a>
</g>
</g>
<!-- Node7&#45;&gt;Node10 -->
<g id="edge15_Node000007_Node000010" class="edge">
<title>Node7&#45;&gt;Node10</title>
<g id="a_edge15_Node000007_Node000010"><a xlink:title=" ">
<path fill="none" stroke="#63b8ff" d="M1257.7,-175.87C1255,-167.57 1250.85,-154.78 1247.42,-144.22"/>
<polygon fill="#63b8ff" stroke="#63b8ff" points="1250.73,-143.1 1244.32,-134.67 1244.08,-145.26 1250.73,-143.1"/>
</a>
</g>
</g>
<!-- Node12 -->
<g id="Node000012" class="node">
<title>Node12</title>
<g id="a_Node000012"><a xlink:href="animation_8h.html" target="_top" xlink:title=" ">
<polygon fill="white" stroke="#666666" points="933,-134.5 858,-134.5 858,-115.5 933,-115.5 933,-134.5"/>
<text text-anchor="middle" x="895.5" y="-122.5" font-family="Helvetica,sans-Serif" font-size="10.00">animation.h</text>
</a>
</g>
</g>
<!-- Node7&#45;&gt;Node12 -->
<g id="edge18_Node000007_Node000012" class="edge">
<title>Node7&#45;&gt;Node12</title>
<g id="a_edge18_Node000007_Node000012"><a xlink:title=" ">
<path fill="none" stroke="#63b8ff" d="M1212.46,-179.51C1150.76,-172.68 1040.52,-159.06 947.5,-140 943.33,-139.14 938.99,-138.15 934.69,-137.09"/>
<polygon fill="#63b8ff" stroke="#63b8ff" points="935.33,-133.65 924.78,-134.55 933.59,-140.43 935.33,-133.65"/>
</a>
</g>
</g>
<!-- Node10&#45;&gt;Node2 -->
<g id="edge16_Node000010_Node000002" class="edge">
<title>Node10&#45;&gt;Node2</title>
<g id="a_edge16_Node000010_Node000002"><a xlink:title=" ">
<path fill="none" stroke="#63b8ff" d="M1210.53,-115.47C1137.15,-95.25 952.66,-44.43 870.3,-21.74"/>
<polygon fill="#63b8ff" stroke="#63b8ff" points="871.12,-18.33 860.54,-19.05 869.26,-25.08 871.12,-18.33"/>
</a>
</g>
</g>
<!-- Node11 -->
<g id="Node000011" class="node">
<title>Node11</title>
<g id="a_Node000011"><a xlink:href="align__asset__macro_8h.html" target="_top" xlink:title=" ">
<polygon fill="white" stroke="#666666" points="1557,-74 1440,-74 1440,-55 1557,-55 1557,-74"/>
<text text-anchor="middle" x="1498.5" y="-62" font-family="Helvetica,sans-Serif" font-size="10.00">align_asset_macro.h</text>
</a>
</g>
</g>
<!-- Node10&#45;&gt;Node11 -->
<g id="edge17_Node000010_Node000011" class="edge">
<title>Node10&#45;&gt;Node11</title>
<g id="a_edge17_Node000010_Node000011"><a xlink:title=" ">
<path fill="none" stroke="#63b8ff" d="M1278.87,-115.49C1324.45,-105.12 1401.56,-87.57 1451.23,-76.26"/>
<polygon fill="#63b8ff" stroke="#63b8ff" points="1452.11,-79.65 1461.08,-74.02 1450.56,-72.82 1452.11,-79.65"/>
</a>
</g>
</g>
<!-- Node12&#45;&gt;Node6 -->
<g id="edge19_Node000012_Node000006" class="edge">
<title>Node12&#45;&gt;Node6</title>
<g id="a_edge19_Node000012_Node000006"><a xlink:title=" ">
<path fill="none" stroke="#63b8ff" d="M857.92,-116.47C806.63,-106.2 714.43,-87.72 656.24,-76.07"/>
<polygon fill="#63b8ff" stroke="#63b8ff" points="656.63,-72.58 646.14,-74.04 655.26,-79.44 656.63,-72.58"/>
</a>
</g>
</g>
<!-- Node13&#45;&gt;Node9 -->
<g id="edge21_Node000013_Node000009" class="edge">
<title>Node13&#45;&gt;Node9</title>
<g id="a_edge21_Node000013_Node000009"><a xlink:title=" ">
<path fill="none" stroke="#63b8ff" d="M1104.31,-230.8C1109.58,-207.62 1127.12,-143.83 1166.5,-110 1191.94,-88.15 1228.18,-77 1257.42,-71.33"/>
<polygon fill="#63b8ff" stroke="#63b8ff" points="1258.21,-74.75 1267.44,-69.54 1256.98,-67.85 1258.21,-74.75"/>
</a>
</g>
</g>
<!-- Node13&#45;&gt;Node10 -->
<g id="edge24_Node000013_Node000010" class="edge">
<title>Node13&#45;&gt;Node10</title>
<g id="a_edge24_Node000013_Node000010"><a xlink:title=" ">
<path fill="none" stroke="#63b8ff" d="M1114.19,-230.81C1126,-221.96 1144.71,-207.77 1160.5,-195 1182.76,-177 1207.76,-155.5 1224.02,-141.34"/>
<polygon fill="#63b8ff" stroke="#63b8ff" points="1226.43,-143.88 1231.66,-134.66 1221.83,-138.61 1226.43,-143.88"/>
</a>
</g>
</g>
<!-- Node14 -->
<g id="Node000014" class="node">
<title>Node14</title>
<g id="a_Node000014"><a xlink:href="spline_8h.html" target="_top" xlink:title=" ">
<polygon fill="white" stroke="#666666" points="687,-134.5 632,-134.5 632,-115.5 687,-115.5 687,-134.5"/>
<text text-anchor="middle" x="659.5" y="-122.5" font-family="Helvetica,sans-Serif" font-size="10.00">spline.h</text>
</a>
</g>
</g>
<!-- Node13&#45;&gt;Node14 -->
<g id="edge22_Node000013_Node000014" class="edge">
<title>Node13&#45;&gt;Node14</title>
<g id="a_edge22_Node000013_Node000014"><a xlink:title=" ">
<path fill="none" stroke="#63b8ff" d="M1050.32,-233.28C980.09,-224.58 859.05,-208.34 816.5,-195 798.1,-189.23 795.07,-183.95 777.5,-176 739.75,-158.92 729.59,-156.3 691.5,-140 690.5,-139.57 689.48,-139.13 688.45,-138.69"/>
<polygon fill="#63b8ff" stroke="#63b8ff" points="689.68,-135.41 679.11,-134.64 686.89,-141.83 689.68,-135.41"/>
</a>
</g>
</g>
<!-- Node13&#45;&gt;Node15 -->
<g id="edge25_Node000013_Node000015" class="edge">
<title>Node13&#45;&gt;Node15</title>
<g id="a_edge25_Node000013_Node000015"><a xlink:title=" ">
<path fill="none" stroke="#63b8ff" d="M1050.45,-233.02C987.2,-224.97 877.31,-210.39 783.5,-195 782.22,-194.79 780.92,-194.57 779.61,-194.35"/>
<polygon fill="#63b8ff" stroke="#63b8ff" points="779.91,-190.85 769.45,-192.55 778.69,-197.74 779.91,-190.85"/>
</a>
</g>
</g>
<!-- Node14&#45;&gt;Node6 -->
<g id="edge23_Node000014_Node000006" class="edge">
<title>Node14&#45;&gt;Node6</title>
<g id="a_edge23_Node000014_Node000006"><a xlink:title=" ">
<path fill="none" stroke="#63b8ff" d="M651.24,-115.37C642.72,-106.47 629.24,-92.39 618.77,-81.45"/>
<polygon fill="#63b8ff" stroke="#63b8ff" points="621.24,-78.97 611.8,-74.17 616.18,-83.81 621.24,-78.97"/>
</a>
</g>
</g>
<!-- Node15&#45;&gt;Node6 -->
<g id="edge27_Node000015_Node000006" class="edge">
<title>Node15&#45;&gt;Node6</title>
<g id="a_edge27_Node000015_Node000006"><a xlink:title=" ">
<path fill="none" stroke="#63b8ff" d="M707.76,-176.19C677.48,-167.41 634.11,-153.05 622.5,-140 608.8,-124.61 604.72,-100.69 603.63,-84.12"/>
<polygon fill="#63b8ff" stroke="#63b8ff" points="607.12,-83.9 603.28,-74.02 600.13,-84.14 607.12,-83.9"/>
</a>
</g>
</g>
<!-- Node15&#45;&gt;Node14 -->
<g id="edge26_Node000015_Node000014" class="edge">
<title>Node15&#45;&gt;Node14</title>
<g id="a_edge26_Node000015_Node000014"><a xlink:title=" ">
<path fill="none" stroke="#63b8ff" d="M726.84,-175.87C714.36,-166.62 694.32,-151.78 679.34,-140.69"/>
<polygon fill="#63b8ff" stroke="#63b8ff" points="681.32,-137.81 671.2,-134.67 677.16,-143.43 681.32,-137.81"/>
</a>
</g>
</g>
<!-- Node17&#45;&gt;Node6 -->
<g id="edge30_Node000017_Node000006" class="edge">
<title>Node17&#45;&gt;Node6</title>
<g id="a_edge30_Node000017_Node000006"><a xlink:title=" ">
<path fill="none" stroke="#63b8ff" d="M553.32,-175.75C548.62,-161.31 541.42,-131.9 551.5,-110 557.25,-97.52 568.41,-87.24 578.92,-79.71"/>
<polygon fill="#63b8ff" stroke="#63b8ff" points="581.07,-82.49 587.47,-74.05 577.2,-76.65 581.07,-82.49"/>
</a>
</g>
</g>
<!-- Node18 -->
<g id="Node000018" class="node">
<title>Node18</title>
<g id="a_Node000018"><a xlink:href="mk64_8h.html" target="_top" xlink:title=" ">
<polygon fill="white" stroke="#666666" points="423,-134.5 370,-134.5 370,-115.5 423,-115.5 423,-134.5"/>
<text text-anchor="middle" x="396.5" y="-122.5" font-family="Helvetica,sans-Serif" font-size="10.00">mk64.h</text>
</a>
</g>
</g>
<!-- Node17&#45;&gt;Node18 -->
<g id="edge31_Node000017_Node000018" class="edge">
<title>Node17&#45;&gt;Node18</title>
<g id="a_edge31_Node000017_Node000018"><a xlink:title=" ">
<path fill="none" stroke="#63b8ff" d="M533.23,-175.99C505.86,-165.99 460.23,-149.3 429.28,-137.99"/>
<polygon fill="#63b8ff" stroke="#63b8ff" points="430.39,-134.66 419.79,-134.52 427.98,-141.24 430.39,-134.66"/>
</a>
</g>
</g>
<!-- Node18&#45;&gt;Node2 -->
<g id="edge32_Node000018_Node000002" class="edge">
<title>Node18&#45;&gt;Node2</title>
<g id="a_edge32_Node000018_Node000002"><a xlink:title=" ">
<path fill="none" stroke="#63b8ff" d="M410.64,-115.47C435.81,-100.71 490.44,-70.47 540.5,-55 621.94,-29.82 720.88,-18.53 779.33,-13.74"/>
<polygon fill="#63b8ff" stroke="#63b8ff" points="779.71,-17.22 789.4,-12.94 779.16,-10.24 779.71,-17.22"/>
</a>
</g>
</g>
<!-- Node18&#45;&gt;Node9 -->
<g id="edge35_Node000018_Node000009" class="edge">
<title>Node18&#45;&gt;Node9</title>
<g id="a_edge35_Node000018_Node000009"><a xlink:title=" ">
<path fill="none" stroke="#63b8ff" d="M423.24,-122.28C549.86,-114.14 1089.88,-79.43 1257,-68.68"/>
<polygon fill="#63b8ff" stroke="#63b8ff" points="1257.71,-72.14 1267.46,-68.01 1257.26,-65.16 1257.71,-72.14"/>
</a>
</g>
</g>
<!-- Node19 -->
<g id="Node000019" class="node">
<title>Node19</title>
<g id="a_Node000019"><a xlink:href="string_8h.html" target="_top" xlink:title=" ">
<polygon fill="white" stroke="#666666" points="53,-74 0,-74 0,-55 53,-55 53,-74"/>
<text text-anchor="middle" x="26.5" y="-62" font-family="Helvetica,sans-Serif" font-size="10.00">string.h</text>
</a>
</g>
</g>
<!-- Node18&#45;&gt;Node19 -->
<g id="edge33_Node000018_Node000019" class="edge">
<title>Node18&#45;&gt;Node19</title>
<g id="a_edge33_Node000018_Node000019"><a xlink:title=" ">
<path fill="none" stroke="#63b8ff" d="M369.89,-119.79C304.9,-109.52 137.97,-83.13 63.42,-71.34"/>
<polygon fill="#63b8ff" stroke="#63b8ff" points="63.54,-67.81 53.12,-69.71 62.45,-74.73 63.54,-67.81"/>
</a>
</g>
</g>
<!-- Node19&#45;&gt;Node8 -->
<g id="edge34_Node000019_Node000008" class="edge">
<title>Node19&#45;&gt;Node8</title>
<g id="a_edge34_Node000019_Node000008"><a xlink:title=" ">
<path fill="none" stroke="#63b8ff" d="M53.36,-57.69C58.06,-56.74 62.92,-55.8 67.5,-55 155.99,-39.47 259.45,-25.39 321.38,-17.4"/>
<polygon fill="#63b8ff" stroke="#63b8ff" points="321.86,-20.87 331.33,-16.12 320.96,-13.92 321.86,-20.87"/>
</a>
</g>
</g>
<!-- Node20&#45;&gt;Node6 -->
<g id="edge39_Node000020_Node000006" class="edge">
<title>Node20&#45;&gt;Node6</title>
<g id="a_edge39_Node000020_Node000006"><a xlink:title=" ">
<path fill="none" stroke="#63b8ff" d="M923.74,-230.91C920.56,-217.46 912.64,-191.39 896.5,-176 882.21,-162.38 750,-116.91 731.5,-110 700.37,-98.37 664.62,-86.03 638.83,-77.3"/>
<polygon fill="#63b8ff" stroke="#63b8ff" points="639.72,-73.9 629.12,-74.02 637.48,-80.53 639.72,-73.9"/>
</a>
</g>
</g>
<!-- Node20&#45;&gt;Node17 -->
<g id="edge45_Node000020_Node000017" class="edge">
<title>Node20&#45;&gt;Node17</title>
<g id="a_edge45_Node000020_Node000017"><a xlink:title=" ">
<path fill="none" stroke="#63b8ff" d="M858.69,-230.98C795.9,-222.81 699.07,-209.76 605.2,-195.06"/>
<polygon fill="#63b8ff" stroke="#63b8ff" points="605.67,-191.59 595.25,-193.49 604.59,-198.5 605.67,-191.59"/>
</a>
</g>
</g>
<!-- Node20&#45;&gt;Node21 -->
<g id="edge37_Node000020_Node000021" class="edge">
<title>Node20&#45;&gt;Node21</title>
<g id="a_edge37_Node000020_Node000021"><a xlink:title=" ">
<path fill="none" stroke="#63b8ff" d="M881.48,-230.98C831.7,-221.36 750.91,-205.73 699.53,-195.79"/>
<polygon fill="#63b8ff" stroke="#63b8ff" points="700.15,-192.35 689.67,-193.88 698.82,-199.22 700.15,-192.35"/>
</a>
</g>
</g>
<!-- Node22 -->
<g id="Node000022" class="node">
<title>Node22</title>
<g id="a_Node000022"><a xlink:href="common__data_8h.html" target="_top" xlink:title=" ">
<polygon fill="white" stroke="#666666" points="1119.5,-134.5 989.5,-134.5 989.5,-115.5 1119.5,-115.5 1119.5,-134.5"/>
<text text-anchor="middle" x="1054.5" y="-122.5" font-family="Helvetica,sans-Serif" font-size="10.00">assets/common_data.h</text>
</a>
</g>
</g>
<!-- Node20&#45;&gt;Node22 -->
<g id="edge40_Node000020_Node000022" class="edge">
<title>Node20&#45;&gt;Node22</title>
<g id="a_edge40_Node000020_Node000022"><a xlink:title=" ">
<path fill="none" stroke="#63b8ff" d="M935.2,-230.97C956.86,-211.91 1009.45,-165.63 1037.01,-141.39"/>
<polygon fill="#63b8ff" stroke="#63b8ff" points="1039.5,-143.86 1044.69,-134.63 1034.87,-138.61 1039.5,-143.86"/>
</a>
</g>
</g>
<!-- Node21&#45;&gt;Node6 -->
<g id="edge38_Node000021_Node000006" class="edge">
<title>Node21&#45;&gt;Node6</title>
<g id="a_edge38_Node000021_Node000006"><a xlink:title=" ">
<path fill="none" stroke="#63b8ff" d="M630.98,-176C616.48,-168.77 598.15,-156.86 589.5,-140 580.33,-122.14 587.07,-99.1 594,-83.41"/>
<polygon fill="#63b8ff" stroke="#63b8ff" points="597.21,-84.8 598.43,-74.28 590.91,-81.75 597.21,-84.8"/>
</a>
</g>
</g>
<!-- Node22&#45;&gt;Node2 -->
<g id="edge42_Node000022_Node000002" class="edge">
<title>Node22&#45;&gt;Node2</title>
<g id="a_edge42_Node000022_Node000002"><a xlink:title=" ">
<path fill="none" stroke="#63b8ff" d="M1037.59,-115.47C998.66,-95.83 902.48,-47.32 855.78,-23.76"/>
<polygon fill="#63b8ff" stroke="#63b8ff" points="857.11,-20.51 846.61,-19.13 853.96,-26.76 857.11,-20.51"/>
</a>
</g>
</g>
<!-- Node22&#45;&gt;Node6 -->
<g id="edge43_Node000022_Node000006" class="edge">
<title>Node22&#45;&gt;Node6</title>
<g id="a_edge43_Node000022_Node000006"><a xlink:title=" ">
<path fill="none" stroke="#63b8ff" d="M989.4,-115.56C903.37,-104.4 752.77,-84.86 667.36,-73.78"/>
<polygon fill="#63b8ff" stroke="#63b8ff" points="667.65,-70.29 657.28,-72.48 666.75,-77.23 667.65,-70.29"/>
</a>
</g>
</g>
<!-- Node22&#45;&gt;Node9 -->
<g id="edge41_Node000022_Node000009" class="edge">
<title>Node22&#45;&gt;Node9</title>
<g id="a_edge41_Node000022_Node000009"><a xlink:title=" ">
<path fill="none" stroke="#63b8ff" d="M1091.14,-115.49C1135.75,-105.14 1211.13,-87.64 1259.84,-76.33"/>
<polygon fill="#63b8ff" stroke="#63b8ff" points="1260.86,-79.69 1269.81,-74.02 1259.28,-72.87 1260.86,-79.69"/>
</a>
</g>
</g>
<!-- Node22&#45;&gt;Node11 -->
<g id="edge44_Node000022_Node000011" class="edge">
<title>Node22&#45;&gt;Node11</title>
<g id="a_edge44_Node000022_Node000011"><a xlink:title=" ">
<path fill="none" stroke="#63b8ff" d="M1119.06,-115.49C1201.92,-104.58 1345.05,-85.72 1429.84,-74.55"/>
<polygon fill="#63b8ff" stroke="#63b8ff" points="1430.43,-78 1439.88,-73.22 1429.51,-71.06 1430.43,-78"/>
</a>
</g>
</g>
<!-- Node24&#45;&gt;Node2 -->
<g id="edge50_Node000024_Node000002" class="edge">
<title>Node24&#45;&gt;Node2</title>
<g id="a_edge50_Node000024_Node000002"><a xlink:title=" ">
<path fill="none" stroke="#63b8ff" d="M330.24,-287.86C281.74,-281.37 220.99,-269.56 205.5,-250 200.26,-243.38 202.02,-238.69 205.5,-231 215.5,-208.91 229.45,-212.24 246.5,-195 281.52,-159.6 278.09,-137.66 319.5,-110 384.84,-66.37 410.88,-72.37 487.5,-55 589.63,-31.85 711.84,-19.56 779.02,-14.1"/>
<polygon fill="#63b8ff" stroke="#63b8ff" points="779.63,-17.56 789.32,-13.28 779.07,-10.58 779.63,-17.56"/>
</a>
</g>
</g>
<!-- Node25 -->
<g id="Node000025" class="node">
<title>Node25</title>
<g id="a_Node000025"><a xlink:href="Actor_8h.html" target="_top" xlink:title=" ">
<polygon fill="white" stroke="#666666" points="386.5,-250 336.5,-250 336.5,-231 386.5,-231 386.5,-250"/>
<text text-anchor="middle" x="361.5" y="-238" font-family="Helvetica,sans-Serif" font-size="10.00">Actor.h</text>
</a>
</g>
</g>
<!-- Node24&#45;&gt;Node25 -->
<g id="edge51_Node000024_Node000025" class="edge">
<title>Node24&#45;&gt;Node25</title>
<g id="a_edge51_Node000024_Node000025"><a xlink:title=" ">
<path fill="none" stroke="#63b8ff" d="M389.05,-285.75C384.49,-278.42 377.83,-267.73 372.21,-258.7"/>
<polygon fill="#63b8ff" stroke="#63b8ff" points="375.1,-256.73 366.85,-250.09 369.16,-260.43 375.1,-256.73"/>
</a>
</g>
</g>
<!-- Node28 -->
<g id="Node000028" class="node">
<title>Node28</title>
<g id="a_Node000028"><a xlink:href="main_8h.html" target="_top" xlink:title=" ">
<polygon fill="white" stroke="#666666" points="404.5,-195 354.5,-195 354.5,-176 404.5,-176 404.5,-195"/>
<text text-anchor="middle" x="379.5" y="-183" font-family="Helvetica,sans-Serif" font-size="10.00">main.h</text>
</a>
</g>
</g>
<!-- Node24&#45;&gt;Node28 -->
<g id="edge63_Node000024_Node000028" class="edge">
<title>Node24&#45;&gt;Node28</title>
<g id="a_edge63_Node000024_Node000028"><a xlink:title=" ">
<path fill="none" stroke="#63b8ff" d="M416.08,-285.89C440.25,-274.87 474.34,-254.4 460.5,-231 450.46,-214.03 431.4,-203.1 414.28,-196.32"/>
<polygon fill="#63b8ff" stroke="#63b8ff" points="415.11,-192.9 404.52,-192.79 412.73,-199.48 415.11,-192.9"/>
</a>
</g>
</g>
<!-- Node29 -->
<g id="Node000029" class="node">
<title>Node29</title>
<g id="a_Node000029"><a xlink:title=" ">
<polygon fill="#e0e0e0" stroke="#999999" points="452,-250 405,-250 405,-231 452,-231 452,-250"/>
<text text-anchor="middle" x="428.5" y="-238" font-family="Helvetica,sans-Serif" font-size="10.00">vector</text>
</a>
</g>
</g>
<!-- Node24&#45;&gt;Node29 -->
<g id="edge62_Node000024_Node000029" class="edge">
<title>Node24&#45;&gt;Node29</title>
<g id="a_edge62_Node000024_Node000029"><a xlink:title=" ">
<path fill="none" stroke="#63b8ff" d="M400.11,-285.75C404.82,-278.42 411.67,-267.73 417.47,-258.7"/>
<polygon fill="#63b8ff" stroke="#63b8ff" points="420.54,-260.4 422.99,-250.09 414.64,-256.62 420.54,-260.4"/>
</a>
</g>
</g>
<!-- Node30 -->
<g id="Node000030" class="node">
<title>Node30</title>
<g id="a_Node000030"><a xlink:href="vehicles_8h.html" target="_top" xlink:title=" ">
<polygon fill="white" stroke="#666666" points="280.5,-250 214.5,-250 214.5,-231 280.5,-231 280.5,-250"/>
<text text-anchor="middle" x="247.5" y="-238" font-family="Helvetica,sans-Serif" font-size="10.00">vehicles.h</text>
</a>
</g>
</g>
<!-- Node24&#45;&gt;Node30 -->
<g id="edge64_Node000024_Node000030" class="edge">
<title>Node24&#45;&gt;Node30</title>
<g id="a_edge64_Node000024_Node000030"><a xlink:title=" ">
<path fill="none" stroke="#63b8ff" d="M370.88,-285.98C346.6,-277.23 308.55,-263.51 281.13,-253.62"/>
<polygon fill="#63b8ff" stroke="#63b8ff" points="282.14,-250.27 271.55,-250.17 279.77,-256.85 282.14,-250.27"/>
</a>
</g>
</g>
<!-- Node25&#45;&gt;Node2 -->
<g id="edge52_Node000025_Node000002" class="edge">
<title>Node25&#45;&gt;Node2</title>
<g id="a_edge52_Node000025_Node000002"><a xlink:title=" ">
<path fill="none" stroke="#63b8ff" d="M336.21,-233.94C283.76,-222.38 167.84,-196.68 166.5,-195 126.37,-144.68 148.43,-88.31 203.5,-55 252.27,-25.5 639.6,-14.49 779.4,-11.46"/>
<polygon fill="#63b8ff" stroke="#63b8ff" points="779.5,-14.96 789.42,-11.24 779.35,-7.96 779.5,-14.96"/>
</a>
</g>
</g>
<!-- Node25&#45;&gt;Node3 -->
<g id="edge53_Node000025_Node000003" class="edge">
<title>Node25&#45;&gt;Node3</title>
<g id="a_edge53_Node000025_Node000003"><a xlink:title=" ">
<path fill="none" stroke="#63b8ff" d="M336.35,-233.89C331.75,-232.9 326.98,-231.9 322.5,-231 255.13,-217.44 176.84,-203.28 128.23,-194.67"/>
<polygon fill="#63b8ff" stroke="#63b8ff" points="128.77,-191.21 118.32,-192.92 127.56,-198.11 128.77,-191.21"/>
</a>
</g>
</g>
<!-- Node25&#45;&gt;Node5 -->
<g id="edge60_Node000025_Node000005" class="edge">
<title>Node25&#45;&gt;Node5</title>
<g id="a_edge60_Node000025_Node000005"><a xlink:title=" ">
<path fill="none" stroke="#63b8ff" d="M386.66,-232.76C389.63,-232.1 392.62,-231.49 395.5,-231 563.59,-202.24 607.83,-212.12 777.5,-195 789.71,-193.77 802.97,-192.37 815.08,-191.06"/>
<polygon fill="#63b8ff" stroke="#63b8ff" points="815.8,-194.5 825.37,-189.95 815.05,-187.54 815.8,-194.5"/>
</a>
</g>
</g>
<!-- Node25&#45;&gt;Node6 -->
<g id="edge61_Node000025_Node000006" class="edge">
<title>Node25&#45;&gt;Node6</title>
<g id="a_edge61_Node000025_Node000006"><a xlink:title=" ">
<path fill="none" stroke="#63b8ff" d="M372.92,-230.99C383.93,-222.5 400.75,-208.78 413.5,-195 445.26,-160.68 437.93,-137.83 475.5,-110 497.02,-94.06 524.7,-83.5 548.82,-76.68"/>
<polygon fill="#63b8ff" stroke="#63b8ff" points="549.8,-80.04 558.56,-74.07 547.99,-73.28 549.8,-80.04"/>
</a>
</g>
</g>
<!-- Node26 -->
<g id="Node000026" class="node">
<title>Node26</title>
<g id="a_Node000026"><a xlink:href="macros_8h.html" target="_top" xlink:title=" ">
<polygon fill="white" stroke="#666666" points="237.5,-195 175.5,-195 175.5,-176 237.5,-176 237.5,-195"/>
<text text-anchor="middle" x="206.5" y="-183" font-family="Helvetica,sans-Serif" font-size="10.00">macros.h</text>
</a>
</g>
</g>
<!-- Node25&#45;&gt;Node26 -->
<g id="edge54_Node000025_Node000026" class="edge">
<title>Node25&#45;&gt;Node26</title>
<g id="a_edge54_Node000025_Node000026"><a xlink:title=" ">
<path fill="none" stroke="#63b8ff" d="M336.6,-230.98C310.8,-222.16 270.28,-208.31 241.32,-198.41"/>
<polygon fill="#63b8ff" stroke="#63b8ff" points="242.19,-195.01 231.6,-195.08 239.93,-201.63 242.19,-195.01"/>
</a>
</g>
</g>
<!-- Node25&#45;&gt;Node28 -->
<g id="edge57_Node000025_Node000028" class="edge">
<title>Node25&#45;&gt;Node28</title>
<g id="a_edge57_Node000025_Node000028"><a xlink:title=" ">
<path fill="none" stroke="#63b8ff" d="M364.47,-230.75C366.86,-223.72 370.29,-213.62 373.27,-204.84"/>
<polygon fill="#63b8ff" stroke="#63b8ff" points="376.68,-205.68 376.58,-195.09 370.05,-203.43 376.68,-205.68"/>
</a>
</g>
</g>
<!-- Node26&#45;&gt;Node2 -->
<g id="edge56_Node000026_Node000002" class="edge">
<title>Node26&#45;&gt;Node2</title>
<g id="a_edge56_Node000026_Node000002"><a xlink:title=" ">
<path fill="none" stroke="#63b8ff" d="M197.96,-175.57C185.47,-161.36 164.9,-132.89 176.5,-110 195.18,-73.13 212.74,-69.36 251.5,-55 347.67,-19.37 657.07,-12.27 779.22,-10.85"/>
<polygon fill="#63b8ff" stroke="#63b8ff" points="779.45,-14.35 789.41,-10.74 779.37,-7.35 779.45,-14.35"/>
</a>
</g>
</g>
<!-- Node27 -->
<g id="Node000027" class="node">
<title>Node27</title>
<g id="a_Node000027"><a xlink:href="math_8h.html" target="_top" xlink:title=" ">
<polygon fill="white" stroke="#666666" points="237,-134.5 186,-134.5 186,-115.5 237,-115.5 237,-134.5"/>
<text text-anchor="middle" x="211.5" y="-122.5" font-family="Helvetica,sans-Serif" font-size="10.00">math.h</text>
</a>
</g>
</g>
<!-- Node26&#45;&gt;Node27 -->
<g id="edge55_Node000026_Node000027" class="edge">
<title>Node26&#45;&gt;Node27</title>
<g id="a_edge55_Node000026_Node000027"><a xlink:title=" ">
<path fill="none" stroke="#63b8ff" d="M207.24,-175.87C207.93,-167.75 209,-155.31 209.89,-144.89"/>
<polygon fill="#63b8ff" stroke="#63b8ff" points="213.39,-144.93 210.76,-134.67 206.42,-144.33 213.39,-144.93"/>
</a>
</g>
</g>
<!-- Node28&#45;&gt;Node6 -->
<g id="edge59_Node000028_Node000006" class="edge">
<title>Node28&#45;&gt;Node6</title>
<g id="a_edge59_Node000028_Node000006"><a xlink:title=" ">
<path fill="none" stroke="#63b8ff" d="M372.79,-175.6C362.21,-160.42 344.43,-129.28 360.5,-110 382.92,-83.11 475.58,-72.42 539.77,-68.2"/>
<polygon fill="#63b8ff" stroke="#63b8ff" points="540.04,-71.69 549.81,-67.58 539.61,-64.7 540.04,-71.69"/>
</a>
</g>
</g>
<!-- Node28&#45;&gt;Node18 -->
<g id="edge58_Node000028_Node000018" class="edge">
<title>Node28&#45;&gt;Node18</title>
<g id="a_edge58_Node000028_Node000018"><a xlink:title=" ">
<path fill="none" stroke="#63b8ff" d="M382.01,-175.87C384.39,-167.66 388.06,-155.04 391.11,-144.55"/>
<polygon fill="#63b8ff" stroke="#63b8ff" points="394.55,-145.25 393.98,-134.67 387.83,-143.29 394.55,-145.25"/>
</a>
</g>
</g>
<!-- Node30&#45;&gt;Node6 -->
<g id="edge65_Node000030_Node000006" class="edge">
<title>Node30&#45;&gt;Node6</title>
<g id="a_edge65_Node000030_Node000006"><a xlink:title=" ">
<path fill="none" stroke="#63b8ff" d="M253.84,-230.82C274.19,-203.07 337.29,-117.86 350.5,-110 381.7,-91.45 475.53,-78.49 539.71,-71.52"/>
<polygon fill="#63b8ff" stroke="#63b8ff" points="540.17,-74.99 549.75,-70.46 539.43,-68.03 540.17,-74.99"/>
</a>
</g>
</g>
<!-- Node31&#45;&gt;Node2 -->
<g id="edge67_Node000031_Node000002" class="edge">
<title>Node31&#45;&gt;Node2</title>
<g id="a_edge67_Node000031_Node000002"><a xlink:title=" ">
<path fill="none" stroke="#63b8ff" d="M1454.58,-109.94C1440.9,-93.51 1415.79,-67.02 1387.5,-55 1296.78,-16.44 999.4,-11.05 879.89,-10.47"/>
<polygon fill="#63b8ff" stroke="#63b8ff" points="879.58,-6.97 869.57,-10.43 879.55,-13.97 879.58,-6.97"/>
</a>
</g>
</g>
<!-- Node31&#45;&gt;Node9 -->
<g id="edge68_Node000031_Node000009" class="edge">
<title>Node31&#45;&gt;Node9</title>
<g id="a_edge68_Node000031_Node000009"><a xlink:title=" ">
<path fill="none" stroke="#63b8ff" d="M1427.42,-109.99C1400.65,-100.14 1365.2,-87.1 1339.61,-77.68"/>
<polygon fill="#63b8ff" stroke="#63b8ff" points="1340.57,-74.31 1329.98,-74.14 1338.16,-80.88 1340.57,-74.31"/>
</a>
</g>
</g>
<!-- Node31&#45;&gt;Node11 -->
<g id="edge69_Node000031_Node000011" class="edge">
<title>Node31&#45;&gt;Node11</title>
<g id="a_edge69_Node000031_Node000011"><a xlink:title=" ">
<path fill="none" stroke="#63b8ff" d="M1473.49,-109.84C1478.03,-101.78 1483.77,-91.62 1488.6,-83.06"/>
<polygon fill="#63b8ff" stroke="#63b8ff" points="1491.69,-84.7 1493.56,-74.27 1485.59,-81.26 1491.69,-84.7"/>
</a>
</g>
</g>
<!-- Node32&#45;&gt;Node2 -->
<g id="edge71_Node000032_Node000002" class="edge">
<title>Node32&#45;&gt;Node2</title>
<g id="a_edge71_Node000032_Node000002"><a xlink:title=" ">
<path fill="none" stroke="#63b8ff" d="M1605.88,-109.73C1599.74,-93.34 1587.2,-67.17 1566.5,-55 1507.67,-20.4 1036.61,-12.57 879.96,-10.92"/>
<polygon fill="#63b8ff" stroke="#63b8ff" points="879.7,-7.41 869.66,-10.81 879.63,-14.41 879.7,-7.41"/>
</a>
</g>
</g>
<!-- Node32&#45;&gt;Node9 -->
<g id="edge72_Node000032_Node000009" class="edge">
<title>Node32&#45;&gt;Node9</title>
<g id="a_edge72_Node000032_Node000009"><a xlink:title=" ">
<path fill="none" stroke="#63b8ff" d="M1546.9,-111.62C1544.06,-111.07 1541.25,-110.53 1538.5,-110 1475.29,-97.79 1402.36,-83.82 1355.41,-74.84"/>
<polygon fill="#63b8ff" stroke="#63b8ff" points="1355.98,-71.39 1345.5,-72.95 1354.67,-78.27 1355.98,-71.39"/>
</a>
</g>
</g>
<!-- Node32&#45;&gt;Node11 -->
<g id="edge73_Node000032_Node000011" class="edge">
<title>Node32&#45;&gt;Node11</title>
<g id="a_edge73_Node000032_Node000011"><a xlink:title=" ">
<path fill="none" stroke="#63b8ff" d="M1583.67,-109.99C1565.65,-100.58 1542.04,-88.24 1524.25,-78.95"/>
<polygon fill="#63b8ff" stroke="#63b8ff" points="1525.52,-75.67 1515.04,-74.14 1522.28,-81.87 1525.52,-75.67"/>
</a>
</g>
</g>
<!-- Node33&#45;&gt;Node2 -->
<g id="edge75_Node000033_Node000002" class="edge">
<title>Node33&#45;&gt;Node2</title>
<g id="a_edge75_Node000033_Node000002"><a xlink:title=" ">
<path fill="none" stroke="#63b8ff" d="M1729.39,-109.9C1697.44,-93.42 1641.21,-66.9 1589.5,-55 1453.81,-23.77 1026.68,-13.8 879.74,-11.25"/>
<polygon fill="#63b8ff" stroke="#63b8ff" points="879.71,-7.75 869.65,-11.08 879.59,-14.75 879.71,-7.75"/>
</a>
</g>
</g>
<!-- Node33&#45;&gt;Node9 -->
<g id="edge76_Node000033_Node000009" class="edge">
<title>Node33&#45;&gt;Node9</title>
<g id="a_edge76_Node000033_Node000009"><a xlink:title=" ">
<path fill="none" stroke="#63b8ff" d="M1691.94,-111.37C1689.09,-110.89 1686.27,-110.43 1683.5,-110 1566.51,-91.75 1428.04,-77.2 1355.86,-70.14"/>
<polygon fill="#63b8ff" stroke="#63b8ff" points="1356,-66.64 1345.71,-69.16 1355.32,-73.61 1356,-66.64"/>
</a>
</g>
</g>
<!-- Node33&#45;&gt;Node11 -->
<g id="edge77_Node000033_Node000011" class="edge">
<title>Node33&#45;&gt;Node11</title>
<g id="a_edge77_Node000033_Node000011"><a xlink:title=" ">
<path fill="none" stroke="#63b8ff" d="M1693.94,-109.99C1648.53,-99.65 1587.65,-85.79 1545.98,-76.31"/>
<polygon fill="#63b8ff" stroke="#63b8ff" points="1546.6,-72.86 1536.08,-74.05 1545.05,-79.69 1546.6,-72.86"/>
</a>
</g>
</g>
</g>
</svg>
