<?xml version="1.0" encoding="UTF-8" standalone="no"?>
<!DOCTYPE svg PUBLIC "-//W3C//DTD SVG 1.1//EN"
 "http://www.w3.org/Graphics/SVG/1.1/DTD/svg11.dtd">
<!-- Generated by graphviz version 2.43.0 (0)
 -->
<!-- Title: src/audio/load.c Pages: 1 -->
<svg width="1411pt" height="269pt"
 viewBox="0.00 0.00 1410.50 269.00" xmlns="http://www.w3.org/2000/svg" xmlns:xlink="http://www.w3.org/1999/xlink">
<g id="graph0" class="graph" transform="scale(1 1) rotate(0) translate(4 265)">
<title>src/audio/load.c</title>
<!-- Node1 -->
<g id="Node000001" class="node">
<title>Node1</title>
<g id="a_Node000001"><a xlink:title=" ">
<polygon fill="#999999" stroke="#666666" points="740.5,-261 647.5,-261 647.5,-242 740.5,-242 740.5,-261"/>
<text text-anchor="middle" x="694" y="-249" font-family="Helvetica,sans-Serif" font-size="10.00">src/audio/load.c</text>
</a>
</g>
</g>
<!-- Node2 -->
<g id="Node000002" class="node">
<title>Node2</title>
<g id="a_Node000002"><a xlink:title=" ">
<polygon fill="#e0e0e0" stroke="#999999" points="1123,-19 1043,-19 1043,0 1123,0 1123,-19"/>
<text text-anchor="middle" x="1083" y="-7" font-family="Helvetica,sans-Serif" font-size="10.00">libultraship.h</text>
</a>
</g>
</g>
<!-- Node1&#45;&gt;Node2 -->
<g id="edge1_Node000001_Node000002" class="edge">
<title>Node1&#45;&gt;Node2</title>
<g id="a_edge1_Node000001_Node000002"><a xlink:title=" ">
<path fill="none" stroke="#63b8ff" d="M740.75,-248.64C812.79,-244.91 946.56,-234.29 984,-206 1042.86,-161.51 1016.92,-119.36 1053,-55 1058.3,-45.55 1064.97,-35.51 1070.68,-27.36"/>
<polygon fill="#63b8ff" stroke="#63b8ff" points="1073.61,-29.26 1076.58,-19.09 1067.92,-25.19 1073.61,-29.26"/>
</a>
</g>
</g>
<!-- Node3 -->
<g id="Node000003" class="node">
<title>Node3</title>
<g id="a_Node000003"><a xlink:href="macros_8h.html" target="_top" xlink:title=" ">
<polygon fill="white" stroke="#666666" points="1093,-200.5 1031,-200.5 1031,-181.5 1093,-181.5 1093,-200.5"/>
<text text-anchor="middle" x="1062" y="-188.5" font-family="Helvetica,sans-Serif" font-size="10.00">macros.h</text>
</a>
</g>
</g>
<!-- Node1&#45;&gt;Node3 -->
<g id="edge2_Node000001_Node000003" class="edge">
<title>Node1&#45;&gt;Node3</title>
<g id="a_edge2_Node000001_Node000003"><a xlink:title=" ">
<path fill="none" stroke="#63b8ff" d="M740.7,-246.5C803.89,-240.54 919.9,-227.64 1017,-206 1020.38,-205.25 1023.87,-204.36 1027.34,-203.41"/>
<polygon fill="#63b8ff" stroke="#63b8ff" points="1028.35,-206.76 1036.97,-200.59 1026.39,-200.04 1028.35,-206.76"/>
</a>
</g>
</g>
<!-- Node5 -->
<g id="Node000005" class="node">
<title>Node5</title>
<g id="a_Node000005"><a xlink:href="load_8h.html" target="_top" xlink:title=" ">
<polygon fill="white" stroke="#666666" points="974.5,-200.5 897.5,-200.5 897.5,-181.5 974.5,-181.5 974.5,-200.5"/>
<text text-anchor="middle" x="936" y="-188.5" font-family="Helvetica,sans-Serif" font-size="10.00">audio/load.h</text>
</a>
</g>
</g>
<!-- Node1&#45;&gt;Node5 -->
<g id="edge5_Node000001_Node000005" class="edge">
<title>Node1&#45;&gt;Node5</title>
<g id="a_edge5_Node000001_Node000005"><a xlink:title=" ">
<path fill="none" stroke="#63b8ff" d="M734.9,-241.98C774.48,-233.54 836.1,-219.9 889,-206 892.13,-205.18 895.36,-204.29 898.61,-203.38"/>
<polygon fill="#63b8ff" stroke="#63b8ff" points="899.61,-206.73 908.25,-200.59 897.67,-200 899.61,-206.73"/>
</a>
</g>
</g>
<!-- Node7 -->
<g id="Node000007" class="node">
<title>Node7</title>
<g id="a_Node000007"><a xlink:href="internal_8h.html" target="_top" xlink:title=" ">
<polygon fill="white" stroke="#666666" points="517.5,-140 424.5,-140 424.5,-121 517.5,-121 517.5,-140"/>
<text text-anchor="middle" x="471" y="-128" font-family="Helvetica,sans-Serif" font-size="10.00">audio/internal.h</text>
</a>
</g>
</g>
<!-- Node1&#45;&gt;Node7 -->
<g id="edge20_Node000001_Node000007" class="edge">
<title>Node1&#45;&gt;Node7</title>
<g id="a_edge20_Node000001_Node000007"><a xlink:title=" ">
<path fill="none" stroke="#63b8ff" d="M647.32,-247.74C558.88,-242.04 373.99,-227.64 355,-206 346.21,-195.98 347.45,-186.99 355,-176 368.57,-156.26 392.2,-145.27 414.61,-139.16"/>
<polygon fill="#63b8ff" stroke="#63b8ff" points="415.56,-142.53 424.44,-136.75 413.89,-135.73 415.56,-142.53"/>
</a>
</g>
</g>
<!-- Node13 -->
<g id="Node000013" class="node">
<title>Node13</title>
<g id="a_Node000013"><a xlink:href="data_8h.html" target="_top" xlink:title=" ">
<polygon fill="white" stroke="#666666" points="197.5,-200.5 120.5,-200.5 120.5,-181.5 197.5,-181.5 197.5,-200.5"/>
<text text-anchor="middle" x="159" y="-188.5" font-family="Helvetica,sans-Serif" font-size="10.00">audio/data.h</text>
</a>
</g>
</g>
<!-- Node1&#45;&gt;Node13 -->
<g id="edge15_Node000001_Node000013" class="edge">
<title>Node1&#45;&gt;Node13</title>
<g id="a_edge15_Node000001_Node000013"><a xlink:title=" ">
<path fill="none" stroke="#63b8ff" d="M647.25,-249.22C560,-246.17 366.74,-236.3 207,-206 203.04,-205.25 198.93,-204.31 194.86,-203.27"/>
<polygon fill="#63b8ff" stroke="#63b8ff" points="195.5,-199.82 184.94,-200.55 193.66,-206.57 195.5,-199.82"/>
</a>
</g>
</g>
<!-- Node14 -->
<g id="Node000014" class="node">
<title>Node14</title>
<g id="a_Node000014"><a xlink:href="heap_8h.html" target="_top" xlink:title=" ">
<polygon fill="white" stroke="#666666" points="566,-200.5 486,-200.5 486,-181.5 566,-181.5 566,-200.5"/>
<text text-anchor="middle" x="526" y="-188.5" font-family="Helvetica,sans-Serif" font-size="10.00">audio/heap.h</text>
</a>
</g>
</g>
<!-- Node1&#45;&gt;Node14 -->
<g id="edge17_Node000001_Node000014" class="edge">
<title>Node1&#45;&gt;Node14</title>
<g id="a_edge17_Node000001_Node000014"><a xlink:title=" ">
<path fill="none" stroke="#63b8ff" d="M669.57,-241.99C640.71,-231.94 592.5,-215.16 560,-203.84"/>
<polygon fill="#63b8ff" stroke="#63b8ff" points="561.05,-200.5 550.46,-200.52 558.75,-207.11 561.05,-200.5"/>
</a>
</g>
</g>
<!-- Node15 -->
<g id="Node000015" class="node">
<title>Node15</title>
<g id="a_Node000015"><a xlink:href="external_8h.html" target="_top" xlink:title=" ">
<polygon fill="white" stroke="#666666" points="1232,-200.5 1136,-200.5 1136,-181.5 1232,-181.5 1232,-200.5"/>
<text text-anchor="middle" x="1184" y="-188.5" font-family="Helvetica,sans-Serif" font-size="10.00">audio/external.h</text>
</a>
</g>
</g>
<!-- Node1&#45;&gt;Node15 -->
<g id="edge21_Node000001_Node000015" class="edge">
<title>Node1&#45;&gt;Node15</title>
<g id="a_edge21_Node000001_Node000015"><a xlink:title=" ">
<path fill="none" stroke="#63b8ff" d="M740.62,-246.34C816.51,-239.36 971.45,-224.25 1102,-206 1110.03,-204.88 1118.49,-203.57 1126.79,-202.22"/>
<polygon fill="#63b8ff" stroke="#63b8ff" points="1127.52,-205.65 1136.81,-200.56 1126.37,-198.74 1127.52,-205.65"/>
</a>
</g>
</g>
<!-- Node17 -->
<g id="Node000017" class="node">
<title>Node17</title>
<g id="a_Node000017"><a xlink:href="playback_8h.html" target="_top" xlink:title=" ">
<polygon fill="white" stroke="#666666" points="684,-200.5 584,-200.5 584,-181.5 684,-181.5 684,-200.5"/>
<text text-anchor="middle" x="634" y="-188.5" font-family="Helvetica,sans-Serif" font-size="10.00">audio/playback.h</text>
</a>
</g>
</g>
<!-- Node1&#45;&gt;Node17 -->
<g id="edge27_Node000001_Node000017" class="edge">
<title>Node1&#45;&gt;Node17</title>
<g id="a_edge27_Node000001_Node000017"><a xlink:title=" ">
<path fill="none" stroke="#63b8ff" d="M685.15,-241.87C676.02,-232.97 661.58,-218.89 650.36,-207.95"/>
<polygon fill="#63b8ff" stroke="#63b8ff" points="652.49,-205.14 642.89,-200.67 647.61,-210.15 652.49,-205.14"/>
</a>
</g>
</g>
<!-- Node18 -->
<g id="Node000018" class="node">
<title>Node18</title>
<g id="a_Node000018"><a xlink:href="synthesis_8h.html" target="_top" xlink:title=" ">
<polygon fill="white" stroke="#666666" points="102,-200.5 0,-200.5 0,-181.5 102,-181.5 102,-200.5"/>
<text text-anchor="middle" x="51" y="-188.5" font-family="Helvetica,sans-Serif" font-size="10.00">audio/synthesis.h</text>
</a>
</g>
</g>
<!-- Node1&#45;&gt;Node18 -->
<g id="edge30_Node000001_Node000018" class="edge">
<title>Node1&#45;&gt;Node18</title>
<g id="a_edge30_Node000001_Node000018"><a xlink:title=" ">
<path fill="none" stroke="#63b8ff" d="M647.25,-249.36C547.95,-246.4 308.9,-236.46 111,-206 105.24,-205.11 99.22,-203.97 93.31,-202.72"/>
<polygon fill="#63b8ff" stroke="#63b8ff" points="94.04,-199.3 83.52,-200.54 92.52,-206.13 94.04,-199.3"/>
</a>
</g>
</g>
<!-- Node20 -->
<g id="Node000020" class="node">
<title>Node20</title>
<g id="a_Node000020"><a xlink:href="seqplayer_8h.html" target="_top" xlink:title=" ">
<polygon fill="white" stroke="#666666" points="467.5,-200.5 364.5,-200.5 364.5,-181.5 467.5,-181.5 467.5,-200.5"/>
<text text-anchor="middle" x="416" y="-188.5" font-family="Helvetica,sans-Serif" font-size="10.00">audio/seqplayer.h</text>
</a>
</g>
</g>
<!-- Node1&#45;&gt;Node20 -->
<g id="edge33_Node000001_Node000020" class="edge">
<title>Node1&#45;&gt;Node20</title>
<g id="a_edge33_Node000001_Node000020"><a xlink:title=" ">
<path fill="none" stroke="#63b8ff" d="M650.71,-241.93C606.86,-233.18 537.13,-219.06 477,-206 472.27,-204.97 467.34,-203.88 462.43,-202.77"/>
<polygon fill="#63b8ff" stroke="#63b8ff" points="462.94,-199.3 452.42,-200.5 461.4,-206.13 462.94,-199.3"/>
</a>
</g>
</g>
<!-- Node21 -->
<g id="Node000021" class="node">
<title>Node21</title>
<g id="a_Node000021"><a xlink:href="port__eu_8h.html" target="_top" xlink:title=" ">
<polygon fill="white" stroke="#666666" points="308,-200.5 216,-200.5 216,-181.5 308,-181.5 308,-200.5"/>
<text text-anchor="middle" x="262" y="-188.5" font-family="Helvetica,sans-Serif" font-size="10.00">audio/port_eu.h</text>
</a>
</g>
</g>
<!-- Node1&#45;&gt;Node21 -->
<g id="edge36_Node000001_Node000021" class="edge">
<title>Node1&#45;&gt;Node21</title>
<g id="a_edge36_Node000001_Node000021"><a xlink:title=" ">
<path fill="none" stroke="#63b8ff" d="M647.36,-246.58C576.66,-240.27 438.27,-226.45 322,-206 316.6,-205.05 310.96,-203.92 305.39,-202.72"/>
<polygon fill="#63b8ff" stroke="#63b8ff" points="306.03,-199.28 295.5,-200.5 304.5,-206.11 306.03,-199.28"/>
</a>
</g>
</g>
<!-- Node22 -->
<g id="Node000022" class="node">
<title>Node22</title>
<g id="a_Node000022"><a xlink:href="Engine_8h.html" target="_top" xlink:title=" ">
<polygon fill="white" stroke="#666666" points="1372.5,-200.5 1291.5,-200.5 1291.5,-181.5 1372.5,-181.5 1372.5,-200.5"/>
<text text-anchor="middle" x="1332" y="-188.5" font-family="Helvetica,sans-Serif" font-size="10.00">port/Engine.h</text>
</a>
</g>
</g>
<!-- Node1&#45;&gt;Node22 -->
<g id="edge38_Node000001_Node000022" class="edge">
<title>Node1&#45;&gt;Node22</title>
<g id="a_edge38_Node000001_Node000022"><a xlink:title=" ">
<path fill="none" stroke="#63b8ff" d="M740.58,-247.84C835.12,-242.18 1056.24,-227.7 1241,-206 1254.03,-204.47 1268.05,-202.48 1281.1,-200.49"/>
<polygon fill="#63b8ff" stroke="#63b8ff" points="1281.97,-203.89 1291.31,-198.89 1280.89,-196.98 1281.97,-203.89"/>
</a>
</g>
</g>
<!-- Node24 -->
<g id="Node000024" class="node">
<title>Node24</title>
<g id="a_Node000024"><a xlink:href="gfx__output__buffer_8h.html" target="_top" xlink:title=" ">
<polygon fill="white" stroke="#666666" points="808,-206 702,-206 702,-176 808,-176 808,-206"/>
<text text-anchor="start" x="710" y="-194" font-family="Helvetica,sans-Serif" font-size="10.00">buffers/gfx_output</text>
<text text-anchor="middle" x="755" y="-183" font-family="Helvetica,sans-Serif" font-size="10.00">_buffer.h</text>
</a>
</g>
</g>
<!-- Node1&#45;&gt;Node24 -->
<g id="edge40_Node000001_Node000024" class="edge">
<title>Node1&#45;&gt;Node24</title>
<g id="a_edge40_Node000001_Node000024"><a xlink:title=" ">
<path fill="none" stroke="#63b8ff" d="M703,-241.87C710.89,-234.3 722.7,-222.98 733.06,-213.04"/>
<polygon fill="#63b8ff" stroke="#63b8ff" points="735.49,-215.56 740.28,-206.11 730.64,-210.51 735.49,-215.56"/>
</a>
</g>
</g>
<!-- Node25 -->
<g id="Node000025" class="node">
<title>Node25</title>
<g id="a_Node000025"><a xlink:href="string_8h.html" target="_top" xlink:title=" ">
<polygon fill="white" stroke="#666666" points="879.5,-200.5 826.5,-200.5 826.5,-181.5 879.5,-181.5 879.5,-200.5"/>
<text text-anchor="middle" x="853" y="-188.5" font-family="Helvetica,sans-Serif" font-size="10.00">string.h</text>
</a>
</g>
</g>
<!-- Node1&#45;&gt;Node25 -->
<g id="edge42_Node000001_Node000025" class="edge">
<title>Node1&#45;&gt;Node25</title>
<g id="a_edge42_Node000001_Node000025"><a xlink:title=" ">
<path fill="none" stroke="#63b8ff" d="M718.1,-241.97C742.95,-233.13 782.77,-218.85 817,-206 818.6,-205.4 820.23,-204.78 821.88,-204.15"/>
<polygon fill="#63b8ff" stroke="#63b8ff" points="823.25,-207.38 831.33,-200.52 820.74,-200.84 823.25,-207.38"/>
</a>
</g>
</g>
<!-- Node3&#45;&gt;Node2 -->
<g id="edge4_Node000003_Node000002" class="edge">
<title>Node3&#45;&gt;Node2</title>
<g id="a_edge4_Node000003_Node000002"><a xlink:title=" ">
<path fill="none" stroke="#63b8ff" d="M1060.66,-181.32C1057.61,-159.65 1051.19,-101.57 1062,-55 1064.15,-45.76 1068.38,-36.15 1072.49,-28.25"/>
<polygon fill="#63b8ff" stroke="#63b8ff" points="1075.67,-29.73 1077.47,-19.29 1069.55,-26.34 1075.67,-29.73"/>
</a>
</g>
</g>
<!-- Node4 -->
<g id="Node000004" class="node">
<title>Node4</title>
<g id="a_Node000004"><a xlink:href="math_8h.html" target="_top" xlink:title=" ">
<polygon fill="white" stroke="#666666" points="1120.5,-140 1069.5,-140 1069.5,-121 1120.5,-121 1120.5,-140"/>
<text text-anchor="middle" x="1095" y="-128" font-family="Helvetica,sans-Serif" font-size="10.00">math.h</text>
</a>
</g>
</g>
<!-- Node3&#45;&gt;Node4 -->
<g id="edge3_Node000003_Node000004" class="edge">
<title>Node3&#45;&gt;Node4</title>
<g id="a_edge3_Node000003_Node000004"><a xlink:title=" ">
<path fill="none" stroke="#63b8ff" d="M1066.87,-181.37C1071.65,-172.9 1079.07,-159.74 1085.09,-149.07"/>
<polygon fill="#63b8ff" stroke="#63b8ff" points="1088.25,-150.6 1090.11,-140.17 1082.15,-147.16 1088.25,-150.6"/>
</a>
</g>
</g>
<!-- Node6 -->
<g id="Node000006" class="node">
<title>Node6</title>
<g id="a_Node000006"><a xlink:title=" ">
<polygon fill="#e0e0e0" stroke="#999999" points="741,-140 651,-140 651,-121 741,-121 741,-140"/>
<text text-anchor="middle" x="696" y="-128" font-family="Helvetica,sans-Serif" font-size="10.00">libultra/types.h</text>
</a>
</g>
</g>
<!-- Node5&#45;&gt;Node6 -->
<g id="edge6_Node000005_Node000006" class="edge">
<title>Node5&#45;&gt;Node6</title>
<g id="a_edge6_Node000005_Node000006"><a xlink:title=" ">
<path fill="none" stroke="#63b8ff" d="M908.25,-181.42C901.94,-179.56 895.26,-177.65 889,-176 840.93,-163.31 785.6,-150.76 746.54,-142.24"/>
<polygon fill="#63b8ff" stroke="#63b8ff" points="746.99,-138.76 736.47,-140.06 745.5,-145.6 746.99,-138.76"/>
</a>
</g>
</g>
<!-- Node5&#45;&gt;Node7 -->
<g id="edge7_Node000005_Node000007" class="edge">
<title>Node5&#45;&gt;Node7</title>
<g id="a_edge7_Node000005_Node000007"><a xlink:title=" ">
<path fill="none" stroke="#63b8ff" d="M910.36,-181.44C903.48,-179.4 896.01,-177.41 889,-176 761.45,-150.44 608.87,-138.9 527.96,-134.25"/>
<polygon fill="#63b8ff" stroke="#63b8ff" points="527.68,-130.73 517.5,-133.66 527.29,-137.72 527.68,-130.73"/>
</a>
</g>
</g>
<!-- Node10 -->
<g id="Node000010" class="node">
<title>Node10</title>
<g id="a_Node000010"><a xlink:href="libaudio_8h.html" target="_top" xlink:title=" ">
<polygon fill="white" stroke="#666666" points="975,-140 895,-140 895,-121 975,-121 975,-140"/>
<text text-anchor="middle" x="935" y="-128" font-family="Helvetica,sans-Serif" font-size="10.00">PR/libaudio.h</text>
</a>
</g>
</g>
<!-- Node5&#45;&gt;Node10 -->
<g id="edge12_Node000005_Node000010" class="edge">
<title>Node5&#45;&gt;Node10</title>
<g id="a_edge12_Node000005_Node000010"><a xlink:title=" ">
<path fill="none" stroke="#63b8ff" d="M935.85,-181.37C935.71,-173.25 935.5,-160.81 935.32,-150.39"/>
<polygon fill="#63b8ff" stroke="#63b8ff" points="938.82,-150.11 935.15,-140.17 931.82,-150.23 938.82,-150.11"/>
</a>
</g>
</g>
<!-- Node12 -->
<g id="Node000012" class="node">
<title>Node12</title>
<g id="a_Node000012"><a xlink:href="stdio_8h.html" target="_top" xlink:title=" ">
<polygon fill="white" stroke="#666666" points="877,-140 827,-140 827,-121 877,-121 877,-140"/>
<text text-anchor="middle" x="852" y="-128" font-family="Helvetica,sans-Serif" font-size="10.00">stdio.h</text>
</a>
</g>
</g>
<!-- Node5&#45;&gt;Node12 -->
<g id="edge14_Node000005_Node000012" class="edge">
<title>Node5&#45;&gt;Node12</title>
<g id="a_edge14_Node000005_Node000012"><a xlink:title=" ">
<path fill="none" stroke="#63b8ff" d="M923.61,-181.37C910.21,-172.04 888.62,-157.01 872.65,-145.88"/>
<polygon fill="#63b8ff" stroke="#63b8ff" points="874.65,-143.01 864.45,-140.17 870.65,-148.75 874.65,-143.01"/>
</a>
</g>
</g>
<!-- Node7&#45;&gt;Node2 -->
<g id="edge8_Node000007_Node000002" class="edge">
<title>Node7&#45;&gt;Node2</title>
<g id="a_edge8_Node000007_Node000002"><a xlink:title=" ">
<path fill="none" stroke="#63b8ff" d="M470.29,-120.95C469.5,-105.14 470.37,-71.47 490,-55 531.15,-20.48 897.17,-12.68 1032.77,-10.97"/>
<polygon fill="#63b8ff" stroke="#63b8ff" points="1032.93,-14.46 1042.89,-10.84 1032.84,-7.46 1032.93,-14.46"/>
</a>
</g>
</g>
<!-- Node8 -->
<g id="Node000008" class="node">
<title>Node8</title>
<g id="a_Node000008"><a xlink:href="common__structs_8h.html" target="_top" xlink:title=" ">
<polygon fill="white" stroke="#666666" points="1177.5,-79.5 1070.5,-79.5 1070.5,-60.5 1177.5,-60.5 1177.5,-79.5"/>
<text text-anchor="middle" x="1124" y="-67.5" font-family="Helvetica,sans-Serif" font-size="10.00">common_structs.h</text>
</a>
</g>
</g>
<!-- Node7&#45;&gt;Node8 -->
<g id="edge9_Node000007_Node000008" class="edge">
<title>Node7&#45;&gt;Node8</title>
<g id="a_edge9_Node000007_Node000008"><a xlink:title=" ">
<path fill="none" stroke="#63b8ff" d="M517.61,-125.64C607.6,-118.15 811.54,-100.96 983,-85 1008.29,-82.65 1036.12,-79.91 1060.32,-77.49"/>
<polygon fill="#63b8ff" stroke="#63b8ff" points="1060.85,-80.95 1070.45,-76.47 1060.15,-73.99 1060.85,-80.95"/>
</a>
</g>
</g>
<!-- Node9 -->
<g id="Node000009" class="node">
<title>Node9</title>
<g id="a_Node000009"><a xlink:href="AudioSequence_8h.html" target="_top" xlink:title=" ">
<polygon fill="white" stroke="#666666" points="605,-85 499,-85 499,-55 605,-55 605,-85"/>
<text text-anchor="start" x="507" y="-73" font-family="Helvetica,sans-Serif" font-size="10.00">port/resource/type</text>
<text text-anchor="middle" x="552" y="-62" font-family="Helvetica,sans-Serif" font-size="10.00">/AudioSequence.h</text>
</a>
</g>
</g>
<!-- Node7&#45;&gt;Node9 -->
<g id="edge11_Node000007_Node000009" class="edge">
<title>Node7&#45;&gt;Node9</title>
<g id="a_edge11_Node000007_Node000009"><a xlink:title=" ">
<path fill="none" stroke="#63b8ff" d="M482.95,-120.87C493.74,-113.08 510.02,-101.32 524.07,-91.17"/>
<polygon fill="#63b8ff" stroke="#63b8ff" points="526.4,-93.81 532.46,-85.11 522.3,-88.13 526.4,-93.81"/>
</a>
</g>
</g>
<!-- Node8&#45;&gt;Node2 -->
<g id="edge10_Node000008_Node000002" class="edge">
<title>Node8&#45;&gt;Node2</title>
<g id="a_edge10_Node000008_Node000002"><a xlink:title=" ">
<path fill="none" stroke="#63b8ff" d="M1117.95,-60.37C1111.89,-51.73 1102.41,-38.2 1094.86,-27.42"/>
<polygon fill="#63b8ff" stroke="#63b8ff" points="1097.68,-25.35 1089.07,-19.17 1091.95,-29.37 1097.68,-25.35"/>
</a>
</g>
</g>
<!-- Node11 -->
<g id="Node000011" class="node">
<title>Node11</title>
<g id="a_Node000011"><a xlink:title=" ">
<polygon fill="#e0e0e0" stroke="#999999" points="974,-79.5 896,-79.5 896,-60.5 974,-60.5 974,-79.5"/>
<text text-anchor="middle" x="935" y="-67.5" font-family="Helvetica,sans-Serif" font-size="10.00">libultra/abi.h</text>
</a>
</g>
</g>
<!-- Node10&#45;&gt;Node11 -->
<g id="edge13_Node000010_Node000011" class="edge">
<title>Node10&#45;&gt;Node11</title>
<g id="a_edge13_Node000010_Node000011"><a xlink:title=" ">
<path fill="none" stroke="#63b8ff" d="M935,-120.87C935,-112.75 935,-100.31 935,-89.89"/>
<polygon fill="#63b8ff" stroke="#63b8ff" points="938.5,-89.67 935,-79.67 931.5,-89.67 938.5,-89.67"/>
</a>
</g>
</g>
<!-- Node13&#45;&gt;Node7 -->
<g id="edge16_Node000013_Node000007" class="edge">
<title>Node13&#45;&gt;Node7</title>
<g id="a_edge16_Node000013_Node000007"><a xlink:title=" ">
<path fill="none" stroke="#63b8ff" d="M186.27,-181.45C193.01,-179.5 200.23,-177.55 207,-176 277.86,-159.75 360.69,-146.75 414.41,-139.09"/>
<polygon fill="#63b8ff" stroke="#63b8ff" points="415.01,-142.54 424.42,-137.67 414.03,-135.6 415.01,-142.54"/>
</a>
</g>
</g>
<!-- Node14&#45;&gt;Node6 -->
<g id="edge18_Node000014_Node000006" class="edge">
<title>Node14&#45;&gt;Node6</title>
<g id="a_edge18_Node000014_Node000006"><a xlink:title=" ">
<path fill="none" stroke="#63b8ff" d="M550.72,-181.49C579.93,-171.44 628.7,-154.66 661.59,-143.34"/>
<polygon fill="#63b8ff" stroke="#63b8ff" points="662.93,-146.58 671.25,-140.02 660.66,-139.96 662.93,-146.58"/>
</a>
</g>
</g>
<!-- Node14&#45;&gt;Node7 -->
<g id="edge19_Node000014_Node000007" class="edge">
<title>Node14&#45;&gt;Node7</title>
<g id="a_edge19_Node000014_Node000007"><a xlink:title=" ">
<path fill="none" stroke="#63b8ff" d="M517.88,-181.37C509.6,-172.55 496.53,-158.66 486.3,-147.77"/>
<polygon fill="#63b8ff" stroke="#63b8ff" points="488.55,-145.06 479.15,-140.17 483.45,-149.85 488.55,-145.06"/>
</a>
</g>
</g>
<!-- Node15&#45;&gt;Node2 -->
<g id="edge22_Node000015_Node000002" class="edge">
<title>Node15&#45;&gt;Node2</title>
<g id="a_edge22_Node000015_Node000002"><a xlink:title=" ">
<path fill="none" stroke="#63b8ff" d="M1202.45,-181.49C1217.8,-173.28 1238.6,-159.26 1248,-140 1251.7,-132.41 1250.27,-129.13 1248,-121 1238.77,-87.96 1234.58,-76.67 1208,-55 1186.5,-37.47 1157.57,-26.59 1132.96,-19.98"/>
<polygon fill="#63b8ff" stroke="#63b8ff" points="1133.62,-16.53 1123.06,-17.48 1131.9,-23.32 1133.62,-16.53"/>
</a>
</g>
</g>
<!-- Node15&#45;&gt;Node8 -->
<g id="edge23_Node000015_Node000008" class="edge">
<title>Node15&#45;&gt;Node8</title>
<g id="a_edge23_Node000015_Node000008"><a xlink:title=" ">
<path fill="none" stroke="#63b8ff" d="M1179.68,-181.44C1169.96,-162.15 1146.16,-114.94 1133.04,-88.93"/>
<polygon fill="#63b8ff" stroke="#63b8ff" points="1136.07,-87.16 1128.44,-79.8 1129.81,-90.31 1136.07,-87.16"/>
</a>
</g>
</g>
<!-- Node16 -->
<g id="Node000016" class="node">
<title>Node16</title>
<g id="a_Node000016"><a xlink:href="camera_8h.html" target="_top" xlink:title=" ">
<polygon fill="white" stroke="#666666" points="1239,-140 1177,-140 1177,-121 1239,-121 1239,-140"/>
<text text-anchor="middle" x="1208" y="-128" font-family="Helvetica,sans-Serif" font-size="10.00">camera.h</text>
</a>
</g>
</g>
<!-- Node15&#45;&gt;Node16 -->
<g id="edge24_Node000015_Node000016" class="edge">
<title>Node15&#45;&gt;Node16</title>
<g id="a_edge24_Node000015_Node000016"><a xlink:title=" ">
<path fill="none" stroke="#63b8ff" d="M1187.54,-181.37C1190.94,-173.07 1196.19,-160.28 1200.52,-149.72"/>
<polygon fill="#63b8ff" stroke="#63b8ff" points="1203.89,-150.75 1204.44,-140.17 1197.41,-148.09 1203.89,-150.75"/>
</a>
</g>
</g>
<!-- Node16&#45;&gt;Node2 -->
<g id="edge25_Node000016_Node000002" class="edge">
<title>Node16&#45;&gt;Node2</title>
<g id="a_edge25_Node000016_Node000002"><a xlink:title=" ">
<path fill="none" stroke="#63b8ff" d="M1207.87,-120.54C1207.18,-105.26 1203.67,-73.98 1187,-55 1172.92,-38.97 1152.06,-28.53 1132.71,-21.82"/>
<polygon fill="#63b8ff" stroke="#63b8ff" points="1133.66,-18.45 1123.07,-18.73 1131.53,-25.12 1133.66,-18.45"/>
</a>
</g>
</g>
<!-- Node16&#45;&gt;Node8 -->
<g id="edge26_Node000016_Node000008" class="edge">
<title>Node16&#45;&gt;Node8</title>
<g id="a_edge26_Node000016_Node000008"><a xlink:title=" ">
<path fill="none" stroke="#63b8ff" d="M1195.61,-120.87C1182.21,-111.54 1160.62,-96.51 1144.65,-85.38"/>
<polygon fill="#63b8ff" stroke="#63b8ff" points="1146.65,-82.51 1136.45,-79.67 1142.65,-88.25 1146.65,-82.51"/>
</a>
</g>
</g>
<!-- Node17&#45;&gt;Node6 -->
<g id="edge28_Node000017_Node000006" class="edge">
<title>Node17&#45;&gt;Node6</title>
<g id="a_edge28_Node000017_Node000006"><a xlink:title=" ">
<path fill="none" stroke="#63b8ff" d="M643.15,-181.37C652.67,-172.38 667.8,-158.11 679.43,-147.14"/>
<polygon fill="#63b8ff" stroke="#63b8ff" points="681.94,-149.58 686.81,-140.17 677.14,-144.48 681.94,-149.58"/>
</a>
</g>
</g>
<!-- Node17&#45;&gt;Node7 -->
<g id="edge29_Node000017_Node000007" class="edge">
<title>Node17&#45;&gt;Node7</title>
<g id="a_edge29_Node000017_Node000007"><a xlink:title=" ">
<path fill="none" stroke="#63b8ff" d="M610.3,-181.49C582.41,-171.49 535.93,-154.8 504.4,-143.49"/>
<polygon fill="#63b8ff" stroke="#63b8ff" points="505.32,-140.1 494.73,-140.02 502.96,-146.69 505.32,-140.1"/>
</a>
</g>
</g>
<!-- Node18&#45;&gt;Node7 -->
<g id="edge31_Node000018_Node000007" class="edge">
<title>Node18&#45;&gt;Node7</title>
<g id="a_edge31_Node000018_Node000007"><a xlink:title=" ">
<path fill="none" stroke="#63b8ff" d="M84.82,-181.45C93.33,-179.48 102.47,-177.52 111,-176 217.52,-157.04 343.2,-143.49 414.35,-136.62"/>
<polygon fill="#63b8ff" stroke="#63b8ff" points="414.83,-140.09 424.45,-135.66 414.16,-133.13 414.83,-140.09"/>
</a>
</g>
</g>
<!-- Node19 -->
<g id="Node000019" class="node">
<title>Node19</title>
<g id="a_Node000019"><a xlink:title=" ">
<polygon fill="#e0e0e0" stroke="#999999" points="90,-140 12,-140 12,-121 90,-121 90,-140"/>
<text text-anchor="middle" x="51" y="-128" font-family="Helvetica,sans-Serif" font-size="10.00">libultra/gbi.h</text>
</a>
</g>
</g>
<!-- Node18&#45;&gt;Node19 -->
<g id="edge32_Node000018_Node000019" class="edge">
<title>Node18&#45;&gt;Node19</title>
<g id="a_edge32_Node000018_Node000019"><a xlink:title=" ">
<path fill="none" stroke="#63b8ff" d="M51,-181.37C51,-173.25 51,-160.81 51,-150.39"/>
<polygon fill="#63b8ff" stroke="#63b8ff" points="54.5,-150.17 51,-140.17 47.5,-150.17 54.5,-150.17"/>
</a>
</g>
</g>
<!-- Node20&#45;&gt;Node6 -->
<g id="edge34_Node000020_Node000006" class="edge">
<title>Node20&#45;&gt;Node6</title>
<g id="a_edge34_Node000020_Node000006"><a xlink:title=" ">
<path fill="none" stroke="#63b8ff" d="M452.42,-181.48C460.5,-179.64 469.04,-177.72 477,-176 533.29,-163.82 597.93,-150.81 642.31,-142.02"/>
<polygon fill="#63b8ff" stroke="#63b8ff" points="643.17,-145.42 652.3,-140.04 641.81,-138.55 643.17,-145.42"/>
</a>
</g>
</g>
<!-- Node20&#45;&gt;Node7 -->
<g id="edge35_Node000020_Node000007" class="edge">
<title>Node20&#45;&gt;Node7</title>
<g id="a_edge35_Node000020_Node000007"><a xlink:title=" ">
<path fill="none" stroke="#63b8ff" d="M424.12,-181.37C432.4,-172.55 445.47,-158.66 455.7,-147.77"/>
<polygon fill="#63b8ff" stroke="#63b8ff" points="458.55,-149.85 462.85,-140.17 453.45,-145.06 458.55,-149.85"/>
</a>
</g>
</g>
<!-- Node21&#45;&gt;Node7 -->
<g id="edge37_Node000021_Node000007" class="edge">
<title>Node21&#45;&gt;Node7</title>
<g id="a_edge37_Node000021_Node000007"><a xlink:title=" ">
<path fill="none" stroke="#63b8ff" d="M292.39,-181.49C328.92,-171.27 390.34,-154.08 430.77,-142.76"/>
<polygon fill="#63b8ff" stroke="#63b8ff" points="431.89,-146.08 440.57,-140.02 430,-139.34 431.89,-146.08"/>
</a>
</g>
</g>
<!-- Node23 -->
<g id="Node000023" class="node">
<title>Node23</title>
<g id="a_Node000023"><a xlink:href="HMAS_8h.html" target="_top" xlink:title=" ">
<polygon fill="white" stroke="#666666" points="1402.5,-140 1295.5,-140 1295.5,-121 1402.5,-121 1402.5,-140"/>
<text text-anchor="middle" x="1349" y="-128" font-family="Helvetica,sans-Serif" font-size="10.00">port/audio/HMAS.h</text>
</a>
</g>
</g>
<!-- Node22&#45;&gt;Node23 -->
<g id="edge39_Node000022_Node000023" class="edge">
<title>Node22&#45;&gt;Node23</title>
<g id="a_edge39_Node000022_Node000023"><a xlink:title=" ">
<path fill="none" stroke="#63b8ff" d="M1334.51,-181.37C1336.89,-173.16 1340.56,-160.54 1343.61,-150.05"/>
<polygon fill="#63b8ff" stroke="#63b8ff" points="1347.05,-150.75 1346.48,-140.17 1340.33,-148.79 1347.05,-150.75"/>
</a>
</g>
</g>
<!-- Node24&#45;&gt;Node6 -->
<g id="edge41_Node000024_Node000006" class="edge">
<title>Node24&#45;&gt;Node6</title>
<g id="a_edge41_Node000024_Node000006"><a xlink:title=" ">
<path fill="none" stroke="#63b8ff" d="M740.72,-175.84C732.07,-167.26 721.01,-156.3 712.06,-147.42"/>
<polygon fill="#63b8ff" stroke="#63b8ff" points="714.41,-144.82 704.84,-140.27 709.48,-149.79 714.41,-144.82"/>
</a>
</g>
</g>
<!-- Node25&#45;&gt;Node6 -->
<g id="edge43_Node000025_Node000006" class="edge">
<title>Node25&#45;&gt;Node6</title>
<g id="a_edge43_Node000025_Node000006"><a xlink:title=" ">
<path fill="none" stroke="#63b8ff" d="M831.32,-181.5C826.61,-179.67 821.64,-177.76 817,-176 787.38,-164.79 753.53,-152.38 729.18,-143.52"/>
<polygon fill="#63b8ff" stroke="#63b8ff" points="730.29,-140.2 719.7,-140.07 727.9,-146.77 730.29,-140.2"/>
</a>
</g>
</g>
</g>
</svg>
