<?xml version="1.0" encoding="UTF-8" standalone="no"?>
<!DOCTYPE svg PUBLIC "-//W3C//DTD SVG 1.1//EN"
 "http://www.w3.org/Graphics/SVG/1.1/DTD/svg11.dtd">
<!-- Generated by graphviz version 2.43.0 (0)
 -->
<!-- Title: include/assets/luigi_raceway_data.h Pages: 1 -->
<svg width="1920pt" height="280pt"
 viewBox="0.00 0.00 1920.14 280.00" xmlns="http://www.w3.org/2000/svg" xmlns:xlink="http://www.w3.org/1999/xlink">
<g id="graph0" class="graph" transform="scale(1 1) rotate(0) translate(4 276)">
<title>include/assets/luigi_raceway_data.h</title>
<!-- Node1 -->
<g id="Node000001" class="node">
<title>Node1</title>
<g id="a_Node000001"><a xlink:title=" ">
<polygon fill="#999999" stroke="#666666" points="1569.64,-272 1459.64,-272 1459.64,-242 1569.64,-242 1569.64,-272"/>
<text text-anchor="start" x="1467.64" y="-260" font-family="Helvetica,sans-Serif" font-size="10.00">include/assets/luigi</text>
<text text-anchor="middle" x="1514.64" y="-249" font-family="Helvetica,sans-Serif" font-size="10.00">_raceway_data.h</text>
</a>
</g>
</g>
<!-- Node2 -->
<g id="Node000002" class="node">
<title>Node2</title>
<g id="a_Node000002"><a xlink:href="all__course__data_8h.html" target="_top" xlink:title=" ">
<polygon fill="white" stroke="#666666" points="892.14,-206 785.14,-206 785.14,-176 892.14,-176 892.14,-206"/>
<text text-anchor="start" x="793.14" y="-194" font-family="Helvetica,sans-Serif" font-size="10.00">courses/all_course</text>
<text text-anchor="middle" x="838.64" y="-183" font-family="Helvetica,sans-Serif" font-size="10.00">_data.h</text>
</a>
</g>
</g>
<!-- Node1&#45;&gt;Node2 -->
<g id="edge1_Node000001_Node000002" class="edge">
<title>Node1&#45;&gt;Node2</title>
<g id="a_edge1_Node000001_Node000002"><a xlink:title=" ">
<path fill="none" stroke="#63b8ff" d="M1449.55,-249.84C1316.45,-237.24 1015.35,-208.73 892.43,-197.09"/>
<polygon fill="#63b8ff" stroke="#63b8ff" points="1449.32,-253.33 1459.61,-250.79 1449.98,-246.36 1449.32,-253.33"/>
</a>
</g>
</g>
<!-- Node4 -->
<g id="Node000004" class="node">
<title>Node4</title>
<g id="a_Node000004"><a xlink:href="actors_8c.html" target="_top" xlink:title=" ">
<polygon fill="white" stroke="#666666" points="330.14,-74 225.14,-74 225.14,-55 330.14,-55 330.14,-74"/>
<text text-anchor="middle" x="277.64" y="-62" font-family="Helvetica,sans-Serif" font-size="10.00">src/racing/actors.c</text>
</a>
</g>
</g>
<!-- Node1&#45;&gt;Node4 -->
<g id="edge25_Node000001_Node000004" class="edge">
<title>Node1&#45;&gt;Node4</title>
<g id="a_edge25_Node000001_Node000004"><a xlink:title=" ">
<path fill="none" stroke="#63b8ff" d="M1449.06,-256.09C1171.77,-255.79 105.41,-247.61 6.64,-140 -2.37,-130.18 -1.99,-120.16 6.64,-110 34.07,-77.7 154.06,-68.8 224.85,-66.38"/>
<polygon fill="#63b8ff" stroke="#63b8ff" points="1449.35,-259.59 1459.36,-256.1 1449.36,-252.59 1449.35,-259.59"/>
</a>
</g>
</g>
<!-- Node9 -->
<g id="Node000009" class="node">
<title>Node9</title>
<g id="a_Node000009"><a xlink:href="path__spawn__metadata_8c.html" target="_top" xlink:title=" ">
<polygon fill="white" stroke="#666666" points="1490.14,-140 1373.14,-140 1373.14,-110 1490.14,-110 1490.14,-140"/>
<text text-anchor="start" x="1381.14" y="-128" font-family="Helvetica,sans-Serif" font-size="10.00">src/data/path_spawn</text>
<text text-anchor="middle" x="1431.64" y="-117" font-family="Helvetica,sans-Serif" font-size="10.00">_metadata.c</text>
</a>
</g>
</g>
<!-- Node1&#45;&gt;Node9 -->
<g id="edge19_Node000001_Node000009" class="edge">
<title>Node1&#45;&gt;Node9</title>
<g id="a_edge19_Node000001_Node000009"><a xlink:title=" ">
<path fill="none" stroke="#63b8ff" d="M1498.91,-233.36C1493.08,-224.84 1486.47,-215.03 1480.64,-206 1465.98,-183.29 1449.73,-156.39 1440.11,-140.29"/>
<polygon fill="#63b8ff" stroke="#63b8ff" points="1496.09,-235.43 1504.64,-241.68 1501.85,-231.46 1496.09,-235.43"/>
</a>
</g>
</g>
<!-- Node15 -->
<g id="Node000015" class="node">
<title>Node15</title>
<g id="a_Node000015"><a xlink:href="render__objects_8c.html" target="_top" xlink:title=" ">
<polygon fill="white" stroke="#666666" points="1622.64,-134.5 1508.64,-134.5 1508.64,-115.5 1622.64,-115.5 1622.64,-134.5"/>
<text text-anchor="middle" x="1565.64" y="-122.5" font-family="Helvetica,sans-Serif" font-size="10.00">src/render_objects.c</text>
</a>
</g>
</g>
<!-- Node1&#45;&gt;Node15 -->
<g id="edge26_Node000001_Node000015" class="edge">
<title>Node1&#45;&gt;Node15</title>
<g id="a_edge26_Node000001_Node000015"><a xlink:title=" ">
<path fill="none" stroke="#63b8ff" d="M1497.83,-233.29C1487.8,-216.77 1478.76,-194.19 1488.64,-176 1499.67,-155.69 1522.91,-142.35 1540.99,-134.59"/>
<polygon fill="#63b8ff" stroke="#63b8ff" points="1494.98,-235.33 1503.39,-241.78 1500.84,-231.5 1494.98,-235.33"/>
</a>
</g>
</g>
<!-- Node17 -->
<g id="Node000017" class="node">
<title>Node17</title>
<g id="a_Node000017"><a xlink:href="luigi__raceway_2course__offsets_8c.html" target="_top" xlink:title=" ">
<polygon fill="white" stroke="#666666" points="1623.14,-206 1498.14,-206 1498.14,-176 1623.14,-176 1623.14,-206"/>
<text text-anchor="start" x="1506.14" y="-194" font-family="Helvetica,sans-Serif" font-size="10.00">courses/luigi_raceway</text>
<text text-anchor="middle" x="1560.64" y="-183" font-family="Helvetica,sans-Serif" font-size="10.00">/course_offsets.c</text>
</a>
</g>
</g>
<!-- Node1&#45;&gt;Node17 -->
<g id="edge18_Node000001_Node000017" class="edge">
<title>Node1&#45;&gt;Node17</title>
<g id="a_edge18_Node000001_Node000017"><a xlink:title=" ">
<path fill="none" stroke="#63b8ff" d="M1530.79,-233.53C1537.34,-224.43 1544.69,-214.19 1550.46,-206.16"/>
<polygon fill="#63b8ff" stroke="#63b8ff" points="1527.84,-231.63 1524.85,-241.8 1533.53,-235.72 1527.84,-231.63"/>
</a>
</g>
</g>
<!-- Node18 -->
<g id="Node000018" class="node">
<title>Node18</title>
<g id="a_Node000018"><a xlink:href="LuigiRaceway_8cpp.html" target="_top" xlink:title=" ">
<polygon fill="white" stroke="#666666" points="1748.14,-140 1641.14,-140 1641.14,-110 1748.14,-110 1748.14,-140"/>
<text text-anchor="start" x="1649.14" y="-128" font-family="Helvetica,sans-Serif" font-size="10.00">src/engine/courses</text>
<text text-anchor="middle" x="1694.64" y="-117" font-family="Helvetica,sans-Serif" font-size="10.00">/LuigiRaceway.cpp</text>
</a>
</g>
</g>
<!-- Node1&#45;&gt;Node18 -->
<g id="edge20_Node000001_Node000018" class="edge">
<title>Node1&#45;&gt;Node18</title>
<g id="a_edge20_Node000001_Node000018"><a xlink:title=" ">
<path fill="none" stroke="#63b8ff" d="M1571.38,-238.33C1591.61,-230.4 1613.78,-219.69 1631.64,-206 1655.78,-187.51 1675.92,-157.75 1686.54,-140.21"/>
<polygon fill="#63b8ff" stroke="#63b8ff" points="1570.07,-235.09 1561.95,-241.9 1572.54,-241.64 1570.07,-235.09"/>
</a>
</g>
</g>
<!-- Node19 -->
<g id="Node000019" class="node">
<title>Node19</title>
<g id="a_Node000019"><a xlink:href="LuigiRaceway_8h.html" target="_top" xlink:title=" ">
<polygon fill="white" stroke="#666666" points="1787.14,-206 1680.14,-206 1680.14,-176 1787.14,-176 1787.14,-206"/>
<text text-anchor="start" x="1688.14" y="-194" font-family="Helvetica,sans-Serif" font-size="10.00">src/engine/courses</text>
<text text-anchor="middle" x="1733.64" y="-183" font-family="Helvetica,sans-Serif" font-size="10.00">/LuigiRaceway.h</text>
</a>
</g>
</g>
<!-- Node1&#45;&gt;Node19 -->
<g id="edge21_Node000001_Node000019" class="edge">
<title>Node1&#45;&gt;Node19</title>
<g id="a_edge21_Node000001_Node000019"><a xlink:title=" ">
<path fill="none" stroke="#63b8ff" d="M1572.4,-239.12C1607.71,-228.8 1652.34,-215.76 1685.69,-206.01"/>
<polygon fill="#63b8ff" stroke="#63b8ff" points="1571.32,-235.79 1562.7,-241.95 1573.28,-242.51 1571.32,-235.79"/>
</a>
</g>
</g>
<!-- Node21 -->
<g id="Node000021" class="node">
<title>Node21</title>
<g id="a_Node000021"><a xlink:href="HotAirBalloon_8cpp.html" target="_top" xlink:title=" ">
<polygon fill="white" stroke="#666666" points="1912.14,-206 1805.14,-206 1805.14,-176 1912.14,-176 1912.14,-206"/>
<text text-anchor="start" x="1813.14" y="-194" font-family="Helvetica,sans-Serif" font-size="10.00">src/engine/objects</text>
<text text-anchor="middle" x="1858.64" y="-183" font-family="Helvetica,sans-Serif" font-size="10.00">/HotAirBalloon.cpp</text>
</a>
</g>
</g>
<!-- Node1&#45;&gt;Node21 -->
<g id="edge24_Node000001_Node000021" class="edge">
<title>Node1&#45;&gt;Node21</title>
<g id="a_edge24_Node000001_Node000021"><a xlink:title=" ">
<path fill="none" stroke="#63b8ff" d="M1579.66,-245.24C1636.7,-235.6 1721.84,-220.76 1795.64,-206 1798.72,-205.38 1801.87,-204.74 1805.06,-204.07"/>
<polygon fill="#63b8ff" stroke="#63b8ff" points="1578.97,-241.8 1569.69,-246.92 1580.14,-248.71 1578.97,-241.8"/>
</a>
</g>
</g>
<!-- Node3 -->
<g id="Node000003" class="node">
<title>Node3</title>
<g id="a_Node000003"><a xlink:href="paddle__boat_2render_8inc_8c.html" target="_top" xlink:title=" ">
<polygon fill="white" stroke="#666666" points="761.14,-140 634.14,-140 634.14,-110 761.14,-110 761.14,-140"/>
<text text-anchor="start" x="642.14" y="-128" font-family="Helvetica,sans-Serif" font-size="10.00">src/actors/paddle_boat</text>
<text text-anchor="middle" x="697.64" y="-117" font-family="Helvetica,sans-Serif" font-size="10.00">/render.inc.c</text>
</a>
</g>
</g>
<!-- Node2&#45;&gt;Node3 -->
<g id="edge2_Node000002_Node000003" class="edge">
<title>Node2&#45;&gt;Node3</title>
<g id="a_edge2_Node000002_Node000003"><a xlink:title=" ">
<path fill="none" stroke="#63b8ff" d="M798.51,-171.78C776.28,-161.69 749.07,-149.34 728.51,-140.01"/>
<polygon fill="#63b8ff" stroke="#63b8ff" points="797.15,-175.01 807.7,-175.95 800.04,-168.63 797.15,-175.01"/>
</a>
</g>
</g>
<!-- Node2&#45;&gt;Node4 -->
<g id="edge13_Node000002_Node000004" class="edge">
<title>Node2&#45;&gt;Node4</title>
<g id="a_edge13_Node000002_Node000004"><a xlink:title=" ">
<path fill="none" stroke="#63b8ff" d="M774.95,-188.94C659.81,-186.13 422.16,-176.02 348.64,-140 317.84,-124.91 293.3,-90.55 282.96,-74.31"/>
<polygon fill="#63b8ff" stroke="#63b8ff" points="774.95,-192.44 785.03,-189.17 775.12,-185.44 774.95,-192.44"/>
</a>
</g>
</g>
<!-- Node5 -->
<g id="Node000005" class="node">
<title>Node5</title>
<g id="a_Node000005"><a xlink:href="trees_2render_8inc_8c.html" target="_top" xlink:title=" ">
<polygon fill="white" stroke="#666666" points="301.14,-134.5 150.14,-134.5 150.14,-115.5 301.14,-115.5 301.14,-134.5"/>
<text text-anchor="middle" x="225.64" y="-122.5" font-family="Helvetica,sans-Serif" font-size="10.00">src/actors/trees/render.inc.c</text>
</a>
</g>
</g>
<!-- Node2&#45;&gt;Node5 -->
<g id="edge4_Node000002_Node000005" class="edge">
<title>Node2&#45;&gt;Node5</title>
<g id="a_edge4_Node000002_Node000005"><a xlink:title=" ">
<path fill="none" stroke="#63b8ff" d="M774.97,-185.13C676.37,-177.32 480.85,-160.73 315.64,-140 303.09,-138.43 289.59,-136.47 276.97,-134.52"/>
<polygon fill="#63b8ff" stroke="#63b8ff" points="774.83,-188.63 785.07,-185.93 775.38,-181.65 774.83,-188.63"/>
</a>
</g>
</g>
<!-- Node6 -->
<g id="Node000006" class="node">
<title>Node6</title>
<g id="a_Node000006"><a xlink:href="code__800029B0_8c.html" target="_top" xlink:title=" ">
<polygon fill="white" stroke="#666666" points="477.14,-134.5 358.14,-134.5 358.14,-115.5 477.14,-115.5 477.14,-134.5"/>
<text text-anchor="middle" x="417.64" y="-122.5" font-family="Helvetica,sans-Serif" font-size="10.00">src/code_800029B0.c</text>
</a>
</g>
</g>
<!-- Node2&#45;&gt;Node6 -->
<g id="edge6_Node000002_Node000006" class="edge">
<title>Node2&#45;&gt;Node6</title>
<g id="a_edge6_Node000002_Node000006"><a xlink:title=" ">
<path fill="none" stroke="#63b8ff" d="M775.04,-182.12C704.41,-173.09 587.09,-157.31 486.64,-140 477.25,-138.38 467.17,-136.45 457.7,-134.54"/>
<polygon fill="#63b8ff" stroke="#63b8ff" points="774.75,-185.61 785.12,-183.4 775.64,-178.66 774.75,-185.61"/>
</a>
</g>
</g>
<!-- Node7 -->
<g id="Node000007" class="node">
<title>Node7</title>
<g id="a_Node000007"><a xlink:href="code__80005FD0_8c.html" target="_top" xlink:title=" ">
<polygon fill="white" stroke="#666666" points="615.64,-134.5 495.64,-134.5 495.64,-115.5 615.64,-115.5 615.64,-134.5"/>
<text text-anchor="middle" x="555.64" y="-122.5" font-family="Helvetica,sans-Serif" font-size="10.00">src/code_80005FD0.c</text>
</a>
</g>
</g>
<!-- Node2&#45;&gt;Node7 -->
<g id="edge7_Node000002_Node000007" class="edge">
<title>Node2&#45;&gt;Node7</title>
<g id="a_edge7_Node000002_Node000007"><a xlink:title=" ">
<path fill="none" stroke="#63b8ff" d="M775.3,-175.67C719.5,-163.06 640.08,-145.09 593.59,-134.58"/>
<polygon fill="#63b8ff" stroke="#63b8ff" points="774.55,-179.09 785.08,-177.89 776.1,-172.27 774.55,-179.09"/>
</a>
</g>
</g>
<!-- Node8 -->
<g id="Node000008" class="node">
<title>Node8</title>
<g id="a_Node000008"><a xlink:href="code__8006E9C0_8c.html" target="_top" xlink:title=" ">
<polygon fill="white" stroke="#666666" points="898.14,-134.5 779.14,-134.5 779.14,-115.5 898.14,-115.5 898.14,-134.5"/>
<text text-anchor="middle" x="838.64" y="-122.5" font-family="Helvetica,sans-Serif" font-size="10.00">src/code_8006E9C0.c</text>
</a>
</g>
</g>
<!-- Node2&#45;&gt;Node8 -->
<g id="edge8_Node000002_Node000008" class="edge">
<title>Node2&#45;&gt;Node8</title>
<g id="a_edge8_Node000002_Node000008"><a xlink:title=" ">
<path fill="none" stroke="#63b8ff" d="M838.64,-165.6C838.64,-154.8 838.64,-142.78 838.64,-134.84"/>
<polygon fill="#63b8ff" stroke="#63b8ff" points="835.14,-165.8 838.64,-175.8 842.14,-165.8 835.14,-165.8"/>
</a>
</g>
</g>
<!-- Node2&#45;&gt;Node9 -->
<g id="edge9_Node000002_Node000009" class="edge">
<title>Node2&#45;&gt;Node9</title>
<g id="a_edge9_Node000002_Node000009"><a xlink:title=" ">
<path fill="none" stroke="#63b8ff" d="M902.3,-186.17C1001.34,-179.7 1198.14,-164.84 1363.64,-140 1366.74,-139.53 1369.91,-139.02 1373.11,-138.47"/>
<polygon fill="#63b8ff" stroke="#63b8ff" points="901.91,-182.68 892.16,-186.82 902.36,-189.67 901.91,-182.68"/>
</a>
</g>
</g>
<!-- Node10 -->
<g id="Node000010" class="node">
<title>Node10</title>
<g id="a_Node000010"><a xlink:href="all__variables_8h.html" target="_top" xlink:title=" ">
<polygon fill="white" stroke="#666666" points="1054.64,-134.5 916.64,-134.5 916.64,-115.5 1054.64,-115.5 1054.64,-134.5"/>
<text text-anchor="middle" x="985.64" y="-122.5" font-family="Helvetica,sans-Serif" font-size="10.00">src/debug/all_variables.h</text>
</a>
</g>
</g>
<!-- Node2&#45;&gt;Node10 -->
<g id="edge10_Node000002_Node000010" class="edge">
<title>Node2&#45;&gt;Node10</title>
<g id="a_edge10_Node000002_Node000010"><a xlink:title=" ">
<path fill="none" stroke="#63b8ff" d="M880.12,-171.94C908.29,-159.68 944.24,-144.02 966.08,-134.52"/>
<polygon fill="#63b8ff" stroke="#63b8ff" points="878.67,-168.75 870.9,-175.95 881.47,-175.17 878.67,-168.75"/>
</a>
</g>
</g>
<!-- Node13 -->
<g id="Node000013" class="node">
<title>Node13</title>
<g id="a_Node000013"><a xlink:href="memory_8c.html" target="_top" xlink:title=" ">
<polygon fill="white" stroke="#666666" points="1188.14,-134.5 1073.14,-134.5 1073.14,-115.5 1188.14,-115.5 1188.14,-134.5"/>
<text text-anchor="middle" x="1130.64" y="-122.5" font-family="Helvetica,sans-Serif" font-size="10.00">src/racing/memory.c</text>
</a>
</g>
</g>
<!-- Node2&#45;&gt;Node13 -->
<g id="edge14_Node000002_Node000013" class="edge">
<title>Node2&#45;&gt;Node13</title>
<g id="a_edge14_Node000002_Node000013"><a xlink:title=" ">
<path fill="none" stroke="#63b8ff" d="M902.29,-176.05C959.92,-163.42 1043,-145.21 1091.44,-134.59"/>
<polygon fill="#63b8ff" stroke="#63b8ff" points="901.22,-172.7 892.2,-178.26 902.72,-179.54 901.22,-172.7"/>
</a>
</g>
</g>
<!-- Node14 -->
<g id="Node000014" class="node">
<title>Node14</title>
<g id="a_Node000014"><a xlink:href="render__courses_8c.html" target="_top" xlink:title=" ">
<polygon fill="white" stroke="#666666" points="1355.14,-134.5 1206.14,-134.5 1206.14,-115.5 1355.14,-115.5 1355.14,-134.5"/>
<text text-anchor="middle" x="1280.64" y="-122.5" font-family="Helvetica,sans-Serif" font-size="10.00">src/racing/render_courses.c</text>
</a>
</g>
</g>
<!-- Node2&#45;&gt;Node14 -->
<g id="edge15_Node000002_Node000014" class="edge">
<title>Node2&#45;&gt;Node14</title>
<g id="a_edge15_Node000002_Node000014"><a xlink:title=" ">
<path fill="none" stroke="#63b8ff" d="M902.6,-181.58C974.28,-172.03 1093.91,-155.73 1196.64,-140 1207.75,-138.3 1219.66,-136.37 1230.93,-134.51"/>
<polygon fill="#63b8ff" stroke="#63b8ff" points="901.83,-178.16 892.38,-182.94 902.76,-185.09 901.83,-178.16"/>
</a>
</g>
</g>
<!-- Node2&#45;&gt;Node15 -->
<g id="edge16_Node000002_Node000015" class="edge">
<title>Node2&#45;&gt;Node15</title>
<g id="a_edge16_Node000002_Node000015"><a xlink:title=" ">
<path fill="none" stroke="#63b8ff" d="M902.68,-187.92C1020.93,-183.47 1281.35,-170.8 1498.64,-140 1508.52,-138.6 1519.14,-136.61 1528.93,-134.57"/>
<polygon fill="#63b8ff" stroke="#63b8ff" points="902.23,-184.44 892.37,-188.3 902.49,-191.43 902.23,-184.44"/>
</a>
</g>
</g>
<!-- Node16 -->
<g id="Node000016" class="node">
<title>Node16</title>
<g id="a_Node000016"><a xlink:href="update__objects_8c.html" target="_top" xlink:title=" ">
<polygon fill="white" stroke="#666666" points="131.64,-134.5 15.64,-134.5 15.64,-115.5 131.64,-115.5 131.64,-134.5"/>
<text text-anchor="middle" x="73.64" y="-122.5" font-family="Helvetica,sans-Serif" font-size="10.00">src/update_objects.c</text>
</a>
</g>
</g>
<!-- Node2&#45;&gt;Node16 -->
<g id="edge17_Node000002_Node000016" class="edge">
<title>Node2&#45;&gt;Node16</title>
<g id="a_edge17_Node000002_Node000016"><a xlink:title=" ">
<path fill="none" stroke="#63b8ff" d="M774.96,-188.3C651.87,-184.39 372.95,-172.44 140.64,-140 130.64,-138.6 119.89,-136.59 110,-134.52"/>
<polygon fill="#63b8ff" stroke="#63b8ff" points="774.86,-191.8 784.97,-188.61 775.08,-184.8 774.86,-191.8"/>
</a>
</g>
</g>
<!-- Node3&#45;&gt;Node4 -->
<g id="edge3_Node000003_Node000004" class="edge">
<title>Node3&#45;&gt;Node4</title>
<g id="a_edge3_Node000003_Node000004"><a xlink:title=" ">
<path fill="none" stroke="#63b8ff" d="M624.01,-109.96C513.62,-92.55 396.54,-78.66 330.4,-71.24"/>
<polygon fill="#63b8ff" stroke="#63b8ff" points="623.56,-113.44 633.98,-111.55 624.66,-106.52 623.56,-113.44"/>
</a>
</g>
</g>
<!-- Node5&#45;&gt;Node4 -->
<g id="edge5_Node000005_Node000004" class="edge">
<title>Node5&#45;&gt;Node4</title>
<g id="a_edge5_Node000005_Node000004"><a xlink:title=" ">
<path fill="none" stroke="#63b8ff" d="M240.07,-107.77C249.74,-96.89 262.09,-82.99 269.94,-74.17"/>
<polygon fill="#63b8ff" stroke="#63b8ff" points="237.34,-105.57 233.31,-115.37 242.57,-110.22 237.34,-105.57"/>
</a>
</g>
</g>
<!-- Node11 -->
<g id="Node000011" class="node">
<title>Node11</title>
<g id="a_Node000011"><a xlink:href="debug_8inc_8c.html" target="_top" xlink:title=" ">
<polygon fill="white" stroke="#666666" points="1046.64,-74 924.64,-74 924.64,-55 1046.64,-55 1046.64,-74"/>
<text text-anchor="middle" x="985.64" y="-62" font-family="Helvetica,sans-Serif" font-size="10.00">src/debug/debug.inc.c</text>
</a>
</g>
</g>
<!-- Node10&#45;&gt;Node11 -->
<g id="edge11_Node000010_Node000011" class="edge">
<title>Node10&#45;&gt;Node11</title>
<g id="a_edge11_Node000010_Node000011"><a xlink:title=" ">
<path fill="none" stroke="#63b8ff" d="M985.64,-105.16C985.64,-94.74 985.64,-82.3 985.64,-74.17"/>
<polygon fill="#63b8ff" stroke="#63b8ff" points="982.14,-105.37 985.64,-115.37 989.14,-105.37 982.14,-105.37"/>
</a>
</g>
</g>
<!-- Node12 -->
<g id="Node000012" class="node">
<title>Node12</title>
<g id="a_Node000012"><a xlink:href="debug_8c.html" target="_top" xlink:title=" ">
<polygon fill="white" stroke="#666666" points="1038.14,-19 933.14,-19 933.14,0 1038.14,0 1038.14,-19"/>
<text text-anchor="middle" x="985.64" y="-7" font-family="Helvetica,sans-Serif" font-size="10.00">src/debug/debug.c</text>
</a>
</g>
</g>
<!-- Node11&#45;&gt;Node12 -->
<g id="edge12_Node000011_Node000012" class="edge">
<title>Node11&#45;&gt;Node12</title>
<g id="a_edge12_Node000011_Node000012"><a xlink:title=" ">
<path fill="none" stroke="#63b8ff" d="M985.64,-44.66C985.64,-35.93 985.64,-25.99 985.64,-19.09"/>
<polygon fill="#63b8ff" stroke="#63b8ff" points="982.14,-44.75 985.64,-54.75 989.14,-44.75 982.14,-44.75"/>
</a>
</g>
</g>
<!-- Node19&#45;&gt;Node18 -->
<g id="edge22_Node000019_Node000018" class="edge">
<title>Node19&#45;&gt;Node18</title>
<g id="a_edge22_Node000019_Node000018"><a xlink:title=" ">
<path fill="none" stroke="#63b8ff" d="M1719.77,-167.24C1714.27,-158.21 1708.12,-148.11 1703.27,-140.16"/>
<polygon fill="#63b8ff" stroke="#63b8ff" points="1716.79,-169.08 1724.99,-175.8 1722.77,-165.44 1716.79,-169.08"/>
</a>
</g>
</g>
<!-- Node20 -->
<g id="Node000020" class="node">
<title>Node20</title>
<g id="a_Node000020"><a xlink:href="Game_8cpp.html" target="_top" xlink:title=" ">
<polygon fill="white" stroke="#666666" points="1872.64,-134.5 1766.64,-134.5 1766.64,-115.5 1872.64,-115.5 1872.64,-134.5"/>
<text text-anchor="middle" x="1819.64" y="-122.5" font-family="Helvetica,sans-Serif" font-size="10.00">src/port/Game.cpp</text>
</a>
</g>
</g>
<!-- Node19&#45;&gt;Node20 -->
<g id="edge23_Node000019_Node000020" class="edge">
<title>Node19&#45;&gt;Node20</title>
<g id="a_edge23_Node000019_Node000020"><a xlink:title=" ">
<path fill="none" stroke="#63b8ff" d="M1761.07,-169.58C1776.81,-157.87 1795.76,-143.77 1807.76,-134.84"/>
<polygon fill="#63b8ff" stroke="#63b8ff" points="1758.66,-167.02 1752.73,-175.8 1762.84,-172.63 1758.66,-167.02"/>
</a>
</g>
</g>
</g>
</svg>
