<?xml version="1.0" encoding="UTF-8" standalone="no"?>
<!DOCTYPE svg PUBLIC "-//W3C//DTD SVG 1.1//EN"
 "http://www.w3.org/Graphics/SVG/1.1/DTD/svg11.dtd">
<!-- Generated by graphviz version 2.43.0 (0)
 -->
<!-- Title: include/assets/mario_raceway_vertices.h Pages: 1 -->
<svg width="893pt" height="170pt"
 viewBox="0.00 0.00 893.00 170.00" xmlns="http://www.w3.org/2000/svg" xmlns:xlink="http://www.w3.org/1999/xlink">
<g id="graph0" class="graph" transform="scale(1 1) rotate(0) translate(4 166)">
<title>include/assets/mario_raceway_vertices.h</title>
<!-- Node1 -->
<g id="Node000001" class="node">
<title>Node1</title>
<g id="a_Node000001"><a xlink:title=" ">
<polygon fill="#999999" stroke="#666666" points="510.5,-162 392.5,-162 392.5,-132 510.5,-132 510.5,-162"/>
<text text-anchor="start" x="400.5" y="-150" font-family="Helvetica,sans-Serif" font-size="10.00">include/assets/mario</text>
<text text-anchor="middle" x="451.5" y="-139" font-family="Helvetica,sans-Serif" font-size="10.00">_raceway_vertices.h</text>
</a>
</g>
</g>
<!-- Node2 -->
<g id="Node000002" class="node">
<title>Node2</title>
<g id="a_Node000002"><a xlink:href="all__course__model_8h.html" target="_top" xlink:title=" ">
<polygon fill="white" stroke="#666666" points="248,-96 141,-96 141,-66 248,-66 248,-96"/>
<text text-anchor="start" x="149" y="-84" font-family="Helvetica,sans-Serif" font-size="10.00">courses/all_course</text>
<text text-anchor="middle" x="194.5" y="-73" font-family="Helvetica,sans-Serif" font-size="10.00">_model.h</text>
</a>
</g>
</g>
<!-- Node1&#45;&gt;Node2 -->
<g id="edge1_Node000001_Node000002" class="edge">
<title>Node1&#45;&gt;Node2</title>
<g id="a_edge1_Node000001_Node000002"><a xlink:title=" ">
<path fill="none" stroke="#63b8ff" d="M385.37,-129.53C342.75,-118.92 288.04,-105.29 248.13,-95.36"/>
<polygon fill="#63b8ff" stroke="#63b8ff" points="384.55,-132.93 395.1,-131.95 386.24,-126.14 384.55,-132.93"/>
</a>
</g>
</g>
<!-- Node5 -->
<g id="Node000005" class="node">
<title>Node5</title>
<g id="a_Node000005"><a xlink:href="Harbour_8h.html" target="_top" xlink:title=" ">
<polygon fill="white" stroke="#666666" points="443,-96 336,-96 336,-66 443,-66 443,-96"/>
<text text-anchor="start" x="344" y="-84" font-family="Helvetica,sans-Serif" font-size="10.00">src/engine/courses</text>
<text text-anchor="middle" x="389.5" y="-73" font-family="Helvetica,sans-Serif" font-size="10.00">/Harbour.h</text>
</a>
</g>
</g>
<!-- Node1&#45;&gt;Node5 -->
<g id="edge4_Node000001_Node000005" class="edge">
<title>Node1&#45;&gt;Node5</title>
<g id="a_edge4_Node000001_Node000005"><a xlink:title=" ">
<path fill="none" stroke="#63b8ff" d="M430.54,-124.37C421.53,-115.06 411.24,-104.44 403.22,-96.16"/>
<polygon fill="#63b8ff" stroke="#63b8ff" points="428.27,-127.05 437.74,-131.8 433.3,-122.18 428.27,-127.05"/>
</a>
</g>
</g>
<!-- Node8 -->
<g id="Node000008" class="node">
<title>Node8</title>
<g id="a_Node000008"><a xlink:href="MarioRaceway_8h.html" target="_top" xlink:title=" ">
<polygon fill="white" stroke="#666666" points="568,-96 461,-96 461,-66 568,-66 568,-96"/>
<text text-anchor="start" x="469" y="-84" font-family="Helvetica,sans-Serif" font-size="10.00">src/engine/courses</text>
<text text-anchor="middle" x="514.5" y="-73" font-family="Helvetica,sans-Serif" font-size="10.00">/MarioRaceway.h</text>
</a>
</g>
</g>
<!-- Node1&#45;&gt;Node8 -->
<g id="edge7_Node000001_Node000008" class="edge">
<title>Node1&#45;&gt;Node8</title>
<g id="a_edge7_Node000001_Node000008"><a xlink:title=" ">
<path fill="none" stroke="#63b8ff" d="M472.52,-124.65C481.75,-115.27 492.33,-104.53 500.56,-96.16"/>
<polygon fill="#63b8ff" stroke="#63b8ff" points="470,-122.21 465.48,-131.8 474.99,-127.13 470,-122.21"/>
</a>
</g>
</g>
<!-- Node11 -->
<g id="Node000011" class="node">
<title>Node11</title>
<g id="a_Node000011"><a xlink:href="TestCourse_8h.html" target="_top" xlink:title=" ">
<polygon fill="white" stroke="#666666" points="693,-96 586,-96 586,-66 693,-66 693,-96"/>
<text text-anchor="start" x="594" y="-84" font-family="Helvetica,sans-Serif" font-size="10.00">src/engine/courses</text>
<text text-anchor="middle" x="639.5" y="-73" font-family="Helvetica,sans-Serif" font-size="10.00">/TestCourse.h</text>
</a>
</g>
</g>
<!-- Node1&#45;&gt;Node11 -->
<g id="edge11_Node000001_Node000011" class="edge">
<title>Node1&#45;&gt;Node11</title>
<g id="a_edge11_Node000001_Node000011"><a xlink:title=" ">
<path fill="none" stroke="#63b8ff" d="M502.25,-128.72C532.37,-118.47 570.08,-105.63 598.34,-96.01"/>
<polygon fill="#63b8ff" stroke="#63b8ff" points="501.1,-125.42 492.76,-131.95 503.35,-132.05 501.1,-125.42"/>
</a>
</g>
</g>
<!-- Node3 -->
<g id="Node000003" class="node">
<title>Node3</title>
<g id="a_Node000003"><a xlink:href="courseTable_8c.html" target="_top" xlink:title=" ">
<polygon fill="white" stroke="#666666" points="256,-24.5 133,-24.5 133,-5.5 256,-5.5 256,-24.5"/>
<text text-anchor="middle" x="194.5" y="-12.5" font-family="Helvetica,sans-Serif" font-size="10.00">courses/courseTable.c</text>
</a>
</g>
</g>
<!-- Node2&#45;&gt;Node3 -->
<g id="edge2_Node000002_Node000003" class="edge">
<title>Node2&#45;&gt;Node3</title>
<g id="a_edge2_Node000002_Node000003"><a xlink:title=" ">
<path fill="none" stroke="#63b8ff" d="M194.5,-55.6C194.5,-44.8 194.5,-32.78 194.5,-24.84"/>
<polygon fill="#63b8ff" stroke="#63b8ff" points="191,-55.8 194.5,-65.8 198,-55.8 191,-55.8"/>
</a>
</g>
</g>
<!-- Node4 -->
<g id="Node000004" class="node">
<title>Node4</title>
<g id="a_Node000004"><a xlink:href="memory_8c.html" target="_top" xlink:title=" ">
<polygon fill="white" stroke="#666666" points="115,-24.5 0,-24.5 0,-5.5 115,-5.5 115,-24.5"/>
<text text-anchor="middle" x="57.5" y="-12.5" font-family="Helvetica,sans-Serif" font-size="10.00">src/racing/memory.c</text>
</a>
</g>
</g>
<!-- Node2&#45;&gt;Node4 -->
<g id="edge3_Node000002_Node000004" class="edge">
<title>Node2&#45;&gt;Node4</title>
<g id="a_edge3_Node000002_Node000004"><a xlink:title=" ">
<path fill="none" stroke="#63b8ff" d="M155.16,-61.62C129.01,-49.41 95.9,-33.94 75.73,-24.52"/>
<polygon fill="#63b8ff" stroke="#63b8ff" points="153.89,-64.89 164.43,-65.95 156.86,-58.55 153.89,-64.89"/>
</a>
</g>
</g>
<!-- Node6 -->
<g id="Node000006" class="node">
<title>Node6</title>
<g id="a_Node000006"><a xlink:href="Harbour_8cpp.html" target="_top" xlink:title=" ">
<polygon fill="white" stroke="#666666" points="381,-30 274,-30 274,0 381,0 381,-30"/>
<text text-anchor="start" x="282" y="-18" font-family="Helvetica,sans-Serif" font-size="10.00">src/engine/courses</text>
<text text-anchor="middle" x="327.5" y="-7" font-family="Helvetica,sans-Serif" font-size="10.00">/Harbour.cpp</text>
</a>
</g>
</g>
<!-- Node5&#45;&gt;Node6 -->
<g id="edge5_Node000005_Node000006" class="edge">
<title>Node5&#45;&gt;Node6</title>
<g id="a_edge5_Node000005_Node000006"><a xlink:title=" ">
<path fill="none" stroke="#63b8ff" d="M368.54,-58.37C359.53,-49.06 349.24,-38.44 341.22,-30.16"/>
<polygon fill="#63b8ff" stroke="#63b8ff" points="366.27,-61.05 375.74,-65.8 371.3,-56.18 366.27,-61.05"/>
</a>
</g>
</g>
<!-- Node7 -->
<g id="Node000007" class="node">
<title>Node7</title>
<g id="a_Node000007"><a xlink:href="Game_8cpp.html" target="_top" xlink:title=" ">
<polygon fill="white" stroke="#666666" points="505.5,-24.5 399.5,-24.5 399.5,-5.5 505.5,-5.5 505.5,-24.5"/>
<text text-anchor="middle" x="452.5" y="-12.5" font-family="Helvetica,sans-Serif" font-size="10.00">src/port/Game.cpp</text>
</a>
</g>
</g>
<!-- Node5&#45;&gt;Node7 -->
<g id="edge6_Node000005_Node000007" class="edge">
<title>Node5&#45;&gt;Node7</title>
<g id="a_edge6_Node000005_Node000007"><a xlink:title=" ">
<path fill="none" stroke="#63b8ff" d="M410.56,-58.6C421.89,-47.1 435.25,-33.52 443.79,-24.84"/>
<polygon fill="#63b8ff" stroke="#63b8ff" points="408,-56.21 403.48,-65.8 412.99,-61.13 408,-56.21"/>
</a>
</g>
</g>
<!-- Node8&#45;&gt;Node7 -->
<g id="edge10_Node000008_Node000007" class="edge">
<title>Node8&#45;&gt;Node7</title>
<g id="a_edge10_Node000008_Node000007"><a xlink:title=" ">
<path fill="none" stroke="#63b8ff" d="M493.77,-58.6C482.62,-47.1 469.48,-33.52 461.07,-24.84"/>
<polygon fill="#63b8ff" stroke="#63b8ff" points="491.27,-61.05 500.74,-65.8 496.3,-56.18 491.27,-61.05"/>
</a>
</g>
</g>
<!-- Node9 -->
<g id="Node000009" class="node">
<title>Node9</title>
<g id="a_Node000009"><a xlink:href="Course_8cpp.html" target="_top" xlink:title=" ">
<polygon fill="white" stroke="#666666" points="631,-30 524,-30 524,0 631,0 631,-30"/>
<text text-anchor="start" x="532" y="-18" font-family="Helvetica,sans-Serif" font-size="10.00">src/engine/courses</text>
<text text-anchor="middle" x="577.5" y="-7" font-family="Helvetica,sans-Serif" font-size="10.00">/Course.cpp</text>
</a>
</g>
</g>
<!-- Node8&#45;&gt;Node9 -->
<g id="edge8_Node000008_Node000009" class="edge">
<title>Node8&#45;&gt;Node9</title>
<g id="a_edge8_Node000008_Node000009"><a xlink:title=" ">
<path fill="none" stroke="#63b8ff" d="M535.52,-58.65C544.75,-49.27 555.33,-38.53 563.56,-30.16"/>
<polygon fill="#63b8ff" stroke="#63b8ff" points="533,-56.21 528.48,-65.8 537.99,-61.13 533,-56.21"/>
</a>
</g>
</g>
<!-- Node10 -->
<g id="Node000010" class="node">
<title>Node10</title>
<g id="a_Node000010"><a xlink:href="MarioRaceway_8cpp.html" target="_top" xlink:title=" ">
<polygon fill="white" stroke="#666666" points="759.5,-30 649.5,-30 649.5,0 759.5,0 759.5,-30"/>
<text text-anchor="start" x="657.5" y="-18" font-family="Helvetica,sans-Serif" font-size="10.00">src/engine/courses</text>
<text text-anchor="middle" x="704.5" y="-7" font-family="Helvetica,sans-Serif" font-size="10.00">/MarioRaceway.cpp</text>
</a>
</g>
</g>
<!-- Node8&#45;&gt;Node10 -->
<g id="edge9_Node000008_Node000010" class="edge">
<title>Node8&#45;&gt;Node10</title>
<g id="a_edge9_Node000008_Node000010"><a xlink:title=" ">
<path fill="none" stroke="#63b8ff" d="M565.79,-62.72C596.23,-52.47 634.34,-39.63 662.9,-30.01"/>
<polygon fill="#63b8ff" stroke="#63b8ff" points="564.56,-59.45 556.2,-65.95 566.79,-66.08 564.56,-59.45"/>
</a>
</g>
</g>
<!-- Node11&#45;&gt;Node7 -->
<g id="edge13_Node000011_Node000007" class="edge">
<title>Node11&#45;&gt;Node7</title>
<g id="a_edge13_Node000011_Node000007"><a xlink:title=" ">
<path fill="none" stroke="#63b8ff" d="M588.59,-62.58C552.5,-50.23 505.64,-34.19 477.39,-24.52"/>
<polygon fill="#63b8ff" stroke="#63b8ff" points="587.87,-66.03 598.46,-65.95 590.13,-59.41 587.87,-66.03"/>
</a>
</g>
</g>
<!-- Node12 -->
<g id="Node000012" class="node">
<title>Node12</title>
<g id="a_Node000012"><a xlink:href="TestCourse_8cpp.html" target="_top" xlink:title=" ">
<polygon fill="white" stroke="#666666" points="885,-30 778,-30 778,0 885,0 885,-30"/>
<text text-anchor="start" x="786" y="-18" font-family="Helvetica,sans-Serif" font-size="10.00">src/engine/courses</text>
<text text-anchor="middle" x="831.5" y="-7" font-family="Helvetica,sans-Serif" font-size="10.00">/TestCourse.cpp</text>
</a>
</g>
</g>
<!-- Node11&#45;&gt;Node12 -->
<g id="edge12_Node000011_Node000012" class="edge">
<title>Node11&#45;&gt;Node12</title>
<g id="a_edge12_Node000011_Node000012"><a xlink:title=" ">
<path fill="none" stroke="#63b8ff" d="M691.33,-62.72C722.09,-52.47 760.6,-39.63 789.46,-30.01"/>
<polygon fill="#63b8ff" stroke="#63b8ff" points="690.02,-59.47 681.64,-65.95 692.23,-66.11 690.02,-59.47"/>
</a>
</g>
</g>
</g>
</svg>
