<?xml version="1.0" encoding="UTF-8" standalone="no"?>
<!DOCTYPE svg PUBLIC "-//W3C//DTD SVG 1.1//EN"
 "http://www.w3.org/Graphics/SVG/1.1/DTD/svg11.dtd">
<!-- Generated by graphviz version 2.43.0 (0)
 -->
<!-- Title: AddKartMatrix Pages: 1 -->
<svg width="518pt" height="76pt"
 viewBox="0.00 0.00 518.00 75.50" xmlns="http://www.w3.org/2000/svg" xmlns:xlink="http://www.w3.org/1999/xlink">
<g id="graph0" class="graph" transform="scale(1 1) rotate(0) translate(4 71.5)">
<title>AddKartMatrix</title>
<!-- Node1 -->
<g id="Node000001" class="node">
<title>Node1</title>
<g id="a_Node000001"><a xlink:title=" ">
<polygon fill="#999999" stroke="#666666" points="87,-40 0,-40 0,-21 87,-21 87,-40"/>
<text text-anchor="middle" x="43.5" y="-28" font-family="Helvetica,sans-Serif" font-size="10.00">AddKartMatrix</text>
</a>
</g>
</g>
<!-- Node2 -->
<g id="Node000002" class="node">
<title>Node2</title>
<g id="a_Node000002"><a xlink:href="Matrix_8cpp.html#aaa0983157188edefc6259671ccda6746" target="_top" xlink:title=" ">
<polygon fill="white" stroke="#666666" points="190,-40 123,-40 123,-21 190,-21 190,-40"/>
<text text-anchor="middle" x="156.5" y="-28" font-family="Helvetica,sans-Serif" font-size="10.00">AddMatrix</text>
</a>
</g>
</g>
<!-- Node1&#45;&gt;Node2 -->
<g id="edge1_Node000001_Node000002" class="edge">
<title>Node1&#45;&gt;Node2</title>
<g id="a_edge1_Node000001_Node000002"><a xlink:title=" ">
<path fill="none" stroke="#63b8ff" d="M87.1,-30.5C95.53,-30.5 104.38,-30.5 112.82,-30.5"/>
<polygon fill="#63b8ff" stroke="#63b8ff" points="112.84,-34 122.84,-30.5 112.84,-27 112.84,-34"/>
</a>
</g>
</g>
<!-- Node3 -->
<g id="Node000003" class="node">
<title>Node3</title>
<g id="a_Node000003"><a xlink:href="FrameInterpolation_8cpp.html#a8cf1f2d6fabc6925aa71a9515341b4aa" target="_top" xlink:title=" ">
<polygon fill="white" stroke="#666666" points="366,-67.5 226,-67.5 226,-37.5 366,-37.5 366,-67.5"/>
<text text-anchor="start" x="234" y="-55.5" font-family="Helvetica,sans-Serif" font-size="10.00">FrameInterpolation</text>
<text text-anchor="middle" x="296" y="-44.5" font-family="Helvetica,sans-Serif" font-size="10.00">_RecordMatrixMtxFToMtx</text>
</a>
</g>
</g>
<!-- Node2&#45;&gt;Node3 -->
<g id="edge2_Node000002_Node000003" class="edge">
<title>Node2&#45;&gt;Node3</title>
<g id="a_edge2_Node000002_Node000003"><a xlink:title=" ">
<path fill="none" stroke="#63b8ff" d="M190.09,-35.71C198.02,-36.98 206.85,-38.4 215.92,-39.85"/>
<polygon fill="#63b8ff" stroke="#63b8ff" points="215.41,-43.31 225.83,-41.43 216.51,-36.4 215.41,-43.31"/>
</a>
</g>
</g>
<!-- Node5 -->
<g id="Node000005" class="node">
<title>Node5</title>
<g id="a_Node000005"><a xlink:href="guMtxF2L_8c.html#a40ab2d64c609839ff1e0ef0de2d0dcc4" target="_top" xlink:title=" ">
<polygon fill="white" stroke="#666666" points="328.5,-19 263.5,-19 263.5,0 328.5,0 328.5,-19"/>
<text text-anchor="middle" x="296" y="-7" font-family="Helvetica,sans-Serif" font-size="10.00">guMtxF2L</text>
</a>
</g>
</g>
<!-- Node2&#45;&gt;Node5 -->
<g id="edge4_Node000002_Node000005" class="edge">
<title>Node2&#45;&gt;Node5</title>
<g id="a_edge4_Node000002_Node000005"><a xlink:title=" ">
<path fill="none" stroke="#63b8ff" d="M190.09,-25.52C208.97,-22.64 232.95,-18.98 253.21,-15.88"/>
<polygon fill="#63b8ff" stroke="#63b8ff" points="253.77,-19.34 263.12,-14.37 252.71,-12.42 253.77,-19.34"/>
</a>
</g>
</g>
<!-- Node4 -->
<g id="Node000004" class="node">
<title>Node4</title>
<g id="a_Node000004"><a xlink:href="FrameInterpolation_8cpp.html#a02c7ac5342a4d376edee38f312b480bf" target="_top" xlink:title=" ">
<polygon fill="white" stroke="#666666" points="510,-62 402,-62 402,-43 510,-43 510,-62"/>
<text text-anchor="middle" x="456" y="-50" font-family="Helvetica,sans-Serif" font-size="10.00">check_if_recording</text>
</a>
</g>
</g>
<!-- Node3&#45;&gt;Node4 -->
<g id="edge3_Node000003_Node000004" class="edge">
<title>Node3&#45;&gt;Node4</title>
<g id="a_edge3_Node000003_Node000004"><a xlink:title=" ">
<path fill="none" stroke="#63b8ff" d="M366.3,-52.5C374.79,-52.5 383.43,-52.5 391.82,-52.5"/>
<polygon fill="#63b8ff" stroke="#63b8ff" points="391.91,-56 401.91,-52.5 391.91,-49 391.91,-56"/>
</a>
</g>
</g>
</g>
</svg>
