<?xml version="1.0" encoding="UTF-8" standalone="no"?>
<!DOCTYPE svg PUBLIC "-//W3C//DTD SVG 1.1//EN"
 "http://www.w3.org/Graphics/SVG/1.1/DTD/svg11.dtd">
<!-- Generated by graphviz version 2.43.0 (0)
 -->
<!-- Title: get_texture2 Pages: 1 -->
<svg width="500pt" height="580pt"
 viewBox="0.00 0.00 500.00 579.50" xmlns="http://www.w3.org/2000/svg" xmlns:xlink="http://www.w3.org/1999/xlink">
<g id="graph0" class="graph" transform="scale(1 1) rotate(0) translate(4 575.5)">
<title>get_texture2</title>
<!-- Node1 -->
<g id="Node000001" class="node">
<title>Node1</title>
<g id="a_Node000001"><a xlink:title=" ">
<polygon fill="#999999" stroke="#666666" points="492,-278 413,-278 413,-259 492,-259 492,-278"/>
<text text-anchor="middle" x="452.5" y="-266" font-family="Helvetica,sans-Serif" font-size="10.00">get_texture2</text>
</a>
</g>
</g>
<!-- Node2 -->
<g id="Node000002" class="node">
<title>Node2</title>
<g id="a_Node000002"><a xlink:href="memory_8c.html#afcad15cde6603a7c29ee6c9133da317b" target="_top" xlink:title=" ">
<polygon fill="white" stroke="#666666" points="377,-283.5 219,-283.5 219,-253.5 377,-253.5 377,-283.5"/>
<text text-anchor="start" x="227" y="-271.5" font-family="Helvetica,sans-Serif" font-size="10.00">replace_segmented_textures</text>
<text text-anchor="middle" x="298" y="-260.5" font-family="Helvetica,sans-Serif" font-size="10.00">_with_o2r_textures</text>
</a>
</g>
</g>
<!-- Node1&#45;&gt;Node2 -->
<g id="edge1_Node000001_Node000002" class="edge">
<title>Node1&#45;&gt;Node2</title>
<g id="a_edge1_Node000001_Node000002"><a xlink:title=" ">
<path fill="none" stroke="#63b8ff" d="M402.55,-268.5C394.37,-268.5 385.7,-268.5 377.01,-268.5"/>
<polygon fill="#63b8ff" stroke="#63b8ff" points="402.62,-272 412.62,-268.5 402.62,-265 402.62,-272"/>
</a>
</g>
</g>
<!-- Node2&#45;&gt;Node2 -->
<g id="edge12_Node000002_Node000002" class="edge">
<title>Node2&#45;&gt;Node2</title>
<g id="a_edge12_Node000002_Node000002"><a xlink:title=" ">
<path fill="none" stroke="#63b8ff" d="M324.96,-294.1C321.27,-298.47 312.29,-301.5 298,-301.5 273.94,-301.5 264.91,-292.91 270.93,-283.78"/>
<polygon fill="#63b8ff" stroke="#63b8ff" points="328.46,-293.81 325.07,-283.78 321.46,-293.74 328.46,-293.81"/>
</a>
</g>
</g>
<!-- Node3 -->
<g id="Node000003" class="node">
<title>Node3</title>
<g id="a_Node000003"><a xlink:href="classBansheeBoardwalk.html#aa594ab4574008334213ba801d5e7cda0" target="_top" xlink:title=" ">
<polygon fill="white" stroke="#666666" points="170.5,-571.5 12.5,-571.5 12.5,-541.5 170.5,-541.5 170.5,-571.5"/>
<text text-anchor="start" x="20.5" y="-559.5" font-family="Helvetica,sans-Serif" font-size="10.00">BansheeBoardwalk::Banshee</text>
<text text-anchor="middle" x="91.5" y="-548.5" font-family="Helvetica,sans-Serif" font-size="10.00">Boardwalk</text>
</a>
</g>
</g>
<!-- Node2&#45;&gt;Node3 -->
<g id="edge2_Node000002_Node000003" class="edge">
<title>Node2&#45;&gt;Node3</title>
<g id="a_edge2_Node000002_Node000003"><a xlink:title=" ">
<path fill="none" stroke="#63b8ff" d="M293.5,-293.88C284.85,-346.59 257.5,-468.31 183,-532.5 179.06,-535.9 174.69,-538.82 170.06,-541.33"/>
<polygon fill="#63b8ff" stroke="#63b8ff" points="297,-294.15 295.07,-283.73 290.08,-293.08 297,-294.15"/>
</a>
</g>
</g>
<!-- Node4 -->
<g id="Node000004" class="node">
<title>Node4</title>
<g id="a_Node000004"><a xlink:href="classBowsersCastle.html#a2f3a973ddaa8729223ad41d81ae9ee43" target="_top" xlink:title=" ">
<polygon fill="white" stroke="#666666" points="175,-523 8,-523 8,-504 175,-504 175,-523"/>
<text text-anchor="middle" x="91.5" y="-511" font-family="Helvetica,sans-Serif" font-size="10.00">BowsersCastle::BowsersCastle</text>
</a>
</g>
</g>
<!-- Node2&#45;&gt;Node4 -->
<g id="edge3_Node000002_Node000004" class="edge">
<title>Node2&#45;&gt;Node4</title>
<g id="a_edge3_Node000002_Node000004"><a xlink:title=" ">
<path fill="none" stroke="#63b8ff" d="M291.98,-293.63C281.11,-341.13 250.7,-443.94 183,-495.5 178.67,-498.8 173.89,-501.54 168.86,-503.81"/>
<polygon fill="#63b8ff" stroke="#63b8ff" points="295.46,-294.1 294.18,-283.59 288.62,-292.61 295.46,-294.1"/>
</a>
</g>
</g>
<!-- Node5 -->
<g id="Node000005" class="node">
<title>Node5</title>
<g id="a_Node000005"><a xlink:href="classChocoMountain.html#aa4ebe17295fc4effc04e319e30d326cd" target="_top" xlink:title=" ">
<polygon fill="white" stroke="#666666" points="178.5,-486 4.5,-486 4.5,-467 178.5,-467 178.5,-486"/>
<text text-anchor="middle" x="91.5" y="-474" font-family="Helvetica,sans-Serif" font-size="10.00">ChocoMountain::ChocoMountain</text>
</a>
</g>
</g>
<!-- Node2&#45;&gt;Node5 -->
<g id="edge4_Node000002_Node000005" class="edge">
<title>Node2&#45;&gt;Node5</title>
<g id="a_edge4_Node000002_Node000005"><a xlink:title=" ">
<path fill="none" stroke="#63b8ff" d="M289.57,-293.05C275.75,-334.27 242.01,-416.96 183,-458.5 178.28,-461.82 173.1,-464.56 167.69,-466.82"/>
<polygon fill="#63b8ff" stroke="#63b8ff" points="292.91,-294.1 292.66,-283.51 286.25,-291.95 292.91,-294.1"/>
</a>
</g>
</g>
<!-- Node6 -->
<g id="Node000006" class="node">
<title>Node6</title>
<g id="a_Node000006"><a xlink:href="classDKJungle.html#ab7e989becbf0cb1f872b845a4534994d" target="_top" xlink:title=" ">
<polygon fill="white" stroke="#666666" points="147,-449 36,-449 36,-430 147,-430 147,-449"/>
<text text-anchor="middle" x="91.5" y="-437" font-family="Helvetica,sans-Serif" font-size="10.00">DKJungle::DKJungle</text>
</a>
</g>
</g>
<!-- Node2&#45;&gt;Node6 -->
<g id="edge5_Node000002_Node000006" class="edge">
<title>Node2&#45;&gt;Node6</title>
<g id="a_edge5_Node000002_Node000006"><a xlink:title=" ">
<path fill="none" stroke="#63b8ff" d="M285.95,-292.93C269.01,-327.44 233.21,-389.78 183,-421.5 172.3,-428.26 159.59,-432.56 147.12,-435.28"/>
<polygon fill="#63b8ff" stroke="#63b8ff" points="289.27,-294.11 290.42,-283.58 282.95,-291.1 289.27,-294.11"/>
</a>
</g>
</g>
<!-- Node7 -->
<g id="Node000007" class="node">
<title>Node7</title>
<g id="a_Node000007"><a xlink:href="classFrappeSnowland.html#a2a1ee67367bef3adce5ff2776e1ac2cf" target="_top" xlink:title=" ">
<polygon fill="white" stroke="#666666" points="183,-412 0,-412 0,-393 183,-393 183,-412"/>
<text text-anchor="middle" x="91.5" y="-400" font-family="Helvetica,sans-Serif" font-size="10.00">FrappeSnowland::FrappeSnowland</text>
</a>
</g>
</g>
<!-- Node2&#45;&gt;Node7 -->
<g id="edge6_Node000002_Node000007" class="edge">
<title>Node2&#45;&gt;Node7</title>
<g id="a_edge6_Node000002_Node000007"><a xlink:title=" ">
<path fill="none" stroke="#63b8ff" d="M280.56,-291.92C260.62,-318.45 224.49,-360.92 183,-383.5 175.81,-387.41 167.89,-390.52 159.82,-392.99"/>
<polygon fill="#63b8ff" stroke="#63b8ff" points="283.58,-293.71 286.68,-283.58 277.94,-289.57 283.58,-293.71"/>
</a>
</g>
</g>
<!-- Node8 -->
<g id="Node000008" class="node">
<title>Node8</title>
<g id="a_Node000008"><a xlink:href="classKalimariDesert.html#a412e171ab5b9b3a536e33bace5618b15" target="_top" xlink:title=" ">
<polygon fill="white" stroke="#666666" points="160,-374.5 23,-374.5 23,-344.5 160,-344.5 160,-374.5"/>
<text text-anchor="start" x="31" y="-362.5" font-family="Helvetica,sans-Serif" font-size="10.00">KalimariDesert::Kalimari</text>
<text text-anchor="middle" x="91.5" y="-351.5" font-family="Helvetica,sans-Serif" font-size="10.00">Desert</text>
</a>
</g>
</g>
<!-- Node2&#45;&gt;Node8 -->
<g id="edge7_Node000002_Node000008" class="edge">
<title>Node2&#45;&gt;Node8</title>
<g id="a_edge7_Node000002_Node000008"><a xlink:title=" ">
<path fill="none" stroke="#63b8ff" d="M266.86,-289.29C244.53,-303.91 212.93,-323.01 183,-335.5 175.05,-338.82 166.51,-341.79 157.97,-344.42"/>
<polygon fill="#63b8ff" stroke="#63b8ff" points="268.83,-292.18 275.23,-283.73 264.96,-286.35 268.83,-292.18"/>
</a>
</g>
</g>
<!-- Node9 -->
<g id="Node000009" class="node">
<title>Node9</title>
<g id="a_Node000009"><a xlink:href="classKoopaTroopaBeach.html#ab1ad6ef63092681a163dca75dcd02f76" target="_top" xlink:title=" ">
<polygon fill="white" stroke="#666666" points="180,-326.5 3,-326.5 3,-296.5 180,-296.5 180,-326.5"/>
<text text-anchor="start" x="11" y="-314.5" font-family="Helvetica,sans-Serif" font-size="10.00">KoopaTroopaBeach::KoopaTroopa</text>
<text text-anchor="middle" x="91.5" y="-303.5" font-family="Helvetica,sans-Serif" font-size="10.00">Beach</text>
</a>
</g>
</g>
<!-- Node2&#45;&gt;Node9 -->
<g id="edge8_Node000002_Node000009" class="edge">
<title>Node2&#45;&gt;Node9</title>
<g id="a_edge8_Node000002_Node000009"><a xlink:title=" ">
<path fill="none" stroke="#63b8ff" d="M215.55,-285.63C198.49,-289.21 180.64,-292.97 163.98,-296.47"/>
<polygon fill="#63b8ff" stroke="#63b8ff" points="216.41,-289.02 225.48,-283.54 214.97,-282.17 216.41,-289.02"/>
</a>
</g>
</g>
<!-- Node10 -->
<g id="Node000010" class="node">
<title>Node10</title>
<g id="a_Node000010"><a xlink:href="classLuigiRaceway.html#abb3079f978b1fa36c85b006a29f06e3a" target="_top" xlink:title=" ">
<polygon fill="white" stroke="#666666" points="170,-278 13,-278 13,-259 170,-259 170,-278"/>
<text text-anchor="middle" x="91.5" y="-266" font-family="Helvetica,sans-Serif" font-size="10.00">LuigiRaceway::LuigiRaceway</text>
</a>
</g>
</g>
<!-- Node2&#45;&gt;Node10 -->
<g id="edge9_Node000002_Node000010" class="edge">
<title>Node2&#45;&gt;Node10</title>
<g id="a_edge9_Node000002_Node000010"><a xlink:title=" ">
<path fill="none" stroke="#63b8ff" d="M208.66,-268.5C195.9,-268.5 182.84,-268.5 170.31,-268.5"/>
<polygon fill="#63b8ff" stroke="#63b8ff" points="208.81,-272 218.81,-268.5 208.81,-265 208.81,-272"/>
</a>
</g>
</g>
<!-- Node11 -->
<g id="Node000011" class="node">
<title>Node11</title>
<g id="a_Node000011"><a xlink:href="classMarioRaceway.html#a5a2d62818eb1741b6675cda32c468e24" target="_top" xlink:title=" ">
<polygon fill="white" stroke="#666666" points="174.5,-241 8.5,-241 8.5,-222 174.5,-222 174.5,-241"/>
<text text-anchor="middle" x="91.5" y="-229" font-family="Helvetica,sans-Serif" font-size="10.00">MarioRaceway::MarioRaceway</text>
</a>
</g>
</g>
<!-- Node2&#45;&gt;Node11 -->
<g id="edge10_Node000002_Node000011" class="edge">
<title>Node2&#45;&gt;Node11</title>
<g id="a_edge10_Node000002_Node000011"><a xlink:title=" ">
<path fill="none" stroke="#63b8ff" d="M208.93,-252.57C187.25,-248.64 164.71,-244.56 145.3,-241.05"/>
<polygon fill="#63b8ff" stroke="#63b8ff" points="208.35,-256.02 218.81,-254.35 209.59,-249.13 208.35,-256.02"/>
</a>
</g>
</g>
<!-- Node12 -->
<g id="Node000012" class="node">
<title>Node12</title>
<g id="a_Node000012"><a xlink:href="classMooMooFarm.html#a20cbaf053f9d088222d6b2ab6ec8c3e5" target="_top" xlink:title=" ">
<polygon fill="white" stroke="#666666" points="169,-204 14,-204 14,-185 169,-185 169,-204"/>
<text text-anchor="middle" x="91.5" y="-192" font-family="Helvetica,sans-Serif" font-size="10.00">MooMooFarm::MooMooFarm</text>
</a>
</g>
</g>
<!-- Node2&#45;&gt;Node12 -->
<g id="edge11_Node000002_Node000012" class="edge">
<title>Node2&#45;&gt;Node12</title>
<g id="a_edge11_Node000002_Node000012"><a xlink:title=" ">
<path fill="none" stroke="#63b8ff" d="M261.62,-248.67C239.57,-237.02 210.3,-222.8 183,-213.5 172.06,-209.77 160.11,-206.64 148.59,-204.06"/>
<polygon fill="#63b8ff" stroke="#63b8ff" points="260.13,-251.84 270.6,-253.49 263.44,-245.68 260.13,-251.84"/>
</a>
</g>
</g>
<!-- Node13 -->
<g id="Node000013" class="node">
<title>Node13</title>
<g id="a_Node000013"><a xlink:href="classRoyalRaceway.html#aaa7f0828aa692e6a584d2e977e0ba011" target="_top" xlink:title=" ">
<polygon fill="white" stroke="#666666" points="174.5,-167 8.5,-167 8.5,-148 174.5,-148 174.5,-167"/>
<text text-anchor="middle" x="91.5" y="-155" font-family="Helvetica,sans-Serif" font-size="10.00">RoyalRaceway::RoyalRaceway</text>
</a>
</g>
</g>
<!-- Node2&#45;&gt;Node13 -->
<g id="edge13_Node000002_Node000013" class="edge">
<title>Node2&#45;&gt;Node13</title>
<g id="a_edge13_Node000002_Node000013"><a xlink:title=" ">
<path fill="none" stroke="#63b8ff" d="M275.85,-246.16C254.46,-224.94 219.43,-193.78 183,-176.5 174.88,-172.65 165.98,-169.57 157.03,-167.11"/>
<polygon fill="#63b8ff" stroke="#63b8ff" points="273.57,-248.84 283.09,-253.49 278.55,-243.91 273.57,-248.84"/>
</a>
</g>
</g>
<!-- Node14 -->
<g id="Node000014" class="node">
<title>Node14</title>
<g id="a_Node000014"><a xlink:href="classSherbetLand.html#a019d70103fc5aac86286658521c6d2df" target="_top" xlink:title=" ">
<polygon fill="white" stroke="#666666" points="163.5,-130 19.5,-130 19.5,-111 163.5,-111 163.5,-130"/>
<text text-anchor="middle" x="91.5" y="-118" font-family="Helvetica,sans-Serif" font-size="10.00">SherbetLand::SherbetLand</text>
</a>
</g>
</g>
<!-- Node2&#45;&gt;Node14 -->
<g id="edge14_Node000002_Node000014" class="edge">
<title>Node2&#45;&gt;Node14</title>
<g id="a_edge14_Node000002_Node000014"><a xlink:title=" ">
<path fill="none" stroke="#63b8ff" d="M282.7,-244.48C263.77,-214.9 227.52,-165.41 183,-139.5 176.34,-135.62 168.99,-132.53 161.46,-130.07"/>
<polygon fill="#63b8ff" stroke="#63b8ff" points="279.96,-246.7 288.23,-253.33 285.9,-242.99 279.96,-246.7"/>
</a>
</g>
</g>
<!-- Node15 -->
<g id="Node000015" class="node">
<title>Node15</title>
<g id="a_Node000015"><a xlink:href="classToadsTurnpike.html#a35b679b83f24475ff3944f043be65207" target="_top" xlink:title=" ">
<polygon fill="white" stroke="#666666" points="171,-93 12,-93 12,-74 171,-74 171,-93"/>
<text text-anchor="middle" x="91.5" y="-81" font-family="Helvetica,sans-Serif" font-size="10.00">ToadsTurnpike::ToadsTurnpike</text>
</a>
</g>
</g>
<!-- Node2&#45;&gt;Node15 -->
<g id="edge15_Node000002_Node000015" class="edge">
<title>Node2&#45;&gt;Node15</title>
<g id="a_edge15_Node000002_Node000015"><a xlink:title=" ">
<path fill="none" stroke="#63b8ff" d="M287.3,-243.97C271.36,-207.08 236.05,-137.86 183,-102.5 177.26,-98.67 170.89,-95.59 164.27,-93.12"/>
<polygon fill="#63b8ff" stroke="#63b8ff" points="284.18,-245.59 291.27,-253.47 290.64,-242.89 284.18,-245.59"/>
</a>
</g>
</g>
<!-- Node16 -->
<g id="Node000016" class="node">
<title>Node16</title>
<g id="a_Node000016"><a xlink:href="classWarioStadium.html#ad6234cf0916746358edc95f515aebb71" target="_top" xlink:title=" ">
<polygon fill="white" stroke="#666666" points="171,-56 12,-56 12,-37 171,-37 171,-56"/>
<text text-anchor="middle" x="91.5" y="-44" font-family="Helvetica,sans-Serif" font-size="10.00">WarioStadium::WarioStadium</text>
</a>
</g>
</g>
<!-- Node2&#45;&gt;Node16 -->
<g id="edge16_Node000002_Node000016" class="edge">
<title>Node2&#45;&gt;Node16</title>
<g id="a_edge16_Node000002_Node000016"><a xlink:title=" ">
<path fill="none" stroke="#63b8ff" d="M290.4,-243.62C277.51,-200.17 244.72,-110.79 183,-65.5 177.82,-61.7 172.05,-58.63 166,-56.14"/>
<polygon fill="#63b8ff" stroke="#63b8ff" points="287.07,-244.72 293.18,-253.38 293.8,-242.8 287.07,-244.72"/>
</a>
</g>
</g>
<!-- Node17 -->
<g id="Node000017" class="node">
<title>Node17</title>
<g id="a_Node000017"><a xlink:href="classYoshiValley.html#a1c6c9234df6df81415b10d3f94a2ac9c" target="_top" xlink:title=" ">
<polygon fill="white" stroke="#666666" points="157,-19 26,-19 26,0 157,0 157,-19"/>
<text text-anchor="middle" x="91.5" y="-7" font-family="Helvetica,sans-Serif" font-size="10.00">YoshiValley::YoshiValley</text>
</a>
</g>
</g>
<!-- Node2&#45;&gt;Node17 -->
<g id="edge17_Node000002_Node000017" class="edge">
<title>Node2&#45;&gt;Node17</title>
<g id="a_edge17_Node000002_Node000017"><a xlink:title=" ">
<path fill="none" stroke="#63b8ff" d="M292.66,-243.38C282.73,-193.95 253.56,-84.07 183,-28.5 175.43,-22.54 166.44,-18.33 157.11,-15.38"/>
<polygon fill="#63b8ff" stroke="#63b8ff" points="289.23,-244.07 294.54,-253.23 296.1,-242.75 289.23,-244.07"/>
</a>
</g>
</g>
</g>
</svg>
