<?xml version="1.0" encoding="UTF-8" standalone="no"?>
<!DOCTYPE svg PUBLIC "-//W3C//DTD SVG 1.1//EN"
 "http://www.w3.org/Graphics/SVG/1.1/DTD/svg11.dtd">
<!-- Generated by graphviz version 2.43.0 (0)
 -->
<!-- Title: load_course Pages: 1 -->
<svg width="290pt" height="101pt"
 viewBox="0.00 0.00 290.00 101.00" xmlns="http://www.w3.org/2000/svg" xmlns:xlink="http://www.w3.org/1999/xlink">
<g id="graph0" class="graph" transform="scale(1 1) rotate(0) translate(4 97)">
<title>load_course</title>
<!-- Node1 -->
<g id="Node000001" class="node">
<title>Node1</title>
<g id="a_Node000001"><a xlink:title="Loads &amp; DMAs course data. Vtx, textures, displaylists, etc.">
<polygon fill="#999999" stroke="#666666" points="75,-56 0,-56 0,-37 75,-37 75,-56"/>
<text text-anchor="middle" x="37.5" y="-44" font-family="Helvetica,sans-Serif" font-size="10.00">load_course</text>
</a>
</g>
</g>
<!-- Node2 -->
<g id="Node000002" class="node">
<title>Node2</title>
<g id="a_Node000002"><a xlink:href="Game_8cpp.html#a13d5b10b9acb59b4b90db739aba83d1f" target="_top" xlink:title=" ">
<polygon fill="white" stroke="#666666" points="243,-93 150,-93 150,-74 243,-74 243,-93"/>
<text text-anchor="middle" x="196.5" y="-81" font-family="Helvetica,sans-Serif" font-size="10.00">CM_CleanWorld</text>
</a>
</g>
</g>
<!-- Node1&#45;&gt;Node2 -->
<g id="edge1_Node000001_Node000002" class="edge">
<title>Node1&#45;&gt;Node2</title>
<g id="a_edge1_Node000001_Node000002"><a xlink:title=" ">
<path fill="none" stroke="#63b8ff" d="M73.45,-56.01C85.34,-59.15 98.72,-62.58 111,-65.5 120.31,-67.71 130.24,-69.94 139.89,-72.04"/>
<polygon fill="#63b8ff" stroke="#63b8ff" points="139.29,-75.49 149.8,-74.17 140.76,-68.65 139.29,-75.49"/>
</a>
</g>
</g>
<!-- Node3 -->
<g id="Node000003" class="node">
<title>Node3</title>
<g id="a_Node000003"><a xlink:href="Game_8cpp.html#a081d9916dea76b8a5c6d648db6811f06" target="_top" xlink:title=" ">
<polygon fill="white" stroke="#666666" points="282,-56 111,-56 111,-37 282,-37 282,-56"/>
<text text-anchor="middle" x="196.5" y="-44" font-family="Helvetica,sans-Serif" font-size="10.00">CM_Editor_SetLevelDimensions</text>
</a>
</g>
</g>
<!-- Node1&#45;&gt;Node3 -->
<g id="edge2_Node000001_Node000003" class="edge">
<title>Node1&#45;&gt;Node3</title>
<g id="a_edge2_Node000001_Node000003"><a xlink:title=" ">
<path fill="none" stroke="#63b8ff" d="M75.31,-46.5C83.15,-46.5 91.76,-46.5 100.67,-46.5"/>
<polygon fill="#63b8ff" stroke="#63b8ff" points="100.83,-50 110.83,-46.5 100.83,-43 100.83,-50"/>
</a>
</g>
</g>
<!-- Node4 -->
<g id="Node000004" class="node">
<title>Node4</title>
<g id="a_Node000004"><a xlink:href="Game_8cpp.html#aaec9e1a017e19c9d9645d315bceb4b40" target="_top" xlink:title=" ">
<polygon fill="white" stroke="#666666" points="233.5,-19 159.5,-19 159.5,0 233.5,0 233.5,-19"/>
<text text-anchor="middle" x="196.5" y="-7" font-family="Helvetica,sans-Serif" font-size="10.00">LoadCourse</text>
</a>
</g>
</g>
<!-- Node1&#45;&gt;Node4 -->
<g id="edge3_Node000001_Node000004" class="edge">
<title>Node1&#45;&gt;Node4</title>
<g id="a_edge3_Node000001_Node000004"><a xlink:title=" ">
<path fill="none" stroke="#63b8ff" d="M75.34,-37.18C86.76,-34.34 99.39,-31.25 111,-28.5 123.47,-25.55 137,-22.46 149.51,-19.65"/>
<polygon fill="#63b8ff" stroke="#63b8ff" points="150.28,-23.06 159.27,-17.46 148.75,-16.23 150.28,-23.06"/>
</a>
</g>
</g>
</g>
</svg>
