<?xml version="1.0" encoding="UTF-8" standalone="no"?>
<!DOCTYPE svg PUBLIC "-//W3C//DTD SVG 1.1//EN"
 "http://www.w3.org/Graphics/SVG/1.1/DTD/svg11.dtd">
<!-- Generated by graphviz version 2.43.0 (0)
 -->
<!-- Title: unpack_render_mode_opaque_decal Pages: 1 -->
<svg width="574pt" height="38pt"
 viewBox="0.00 0.00 574.00 38.00" xmlns="http://www.w3.org/2000/svg" xmlns:xlink="http://www.w3.org/1999/xlink">
<g id="graph0" class="graph" transform="scale(1 1) rotate(0) translate(4 34)">
<title>unpack_render_mode_opaque_decal</title>
<!-- Node1 -->
<g id="Node000001" class="node">
<title>Node1</title>
<g id="a_Node000001"><a xlink:title=" ">
<polygon fill="#999999" stroke="#666666" points="566,-30 444,-30 444,0 566,0 566,-30"/>
<text text-anchor="start" x="452" y="-18" font-family="Helvetica,sans-Serif" font-size="10.00">unpack_render_mode</text>
<text text-anchor="middle" x="505" y="-7" font-family="Helvetica,sans-Serif" font-size="10.00">_opaque_decal</text>
</a>
</g>
</g>
<!-- Node2 -->
<g id="Node000002" class="node">
<title>Node2</title>
<g id="a_Node000002"><a xlink:href="memory_8c.html#a7bd68df4b6133ad4c7ab6b7da3ce8c4c" target="_top" xlink:title=" ">
<polygon fill="white" stroke="#666666" points="408,-24.5 301,-24.5 301,-5.5 408,-5.5 408,-24.5"/>
<text text-anchor="middle" x="354.5" y="-12.5" font-family="Helvetica,sans-Serif" font-size="10.00">displaylist_unpack</text>
</a>
</g>
</g>
<!-- Node1&#45;&gt;Node2 -->
<g id="edge1_Node000001_Node000002" class="edge">
<title>Node1&#45;&gt;Node2</title>
<g id="a_edge1_Node000001_Node000002"><a xlink:title=" ">
<path fill="none" stroke="#63b8ff" d="M433.34,-15C424.88,-15 416.36,-15 408.22,-15"/>
<polygon fill="#63b8ff" stroke="#63b8ff" points="433.6,-18.5 443.6,-15 433.6,-11.5 433.6,-18.5"/>
</a>
</g>
</g>
<!-- Node3 -->
<g id="Node000003" class="node">
<title>Node3</title>
<g id="a_Node000003"><a xlink:href="classModelLoader.html#a4be93e4e4c67207ac012298c9388c6d7" target="_top" xlink:title=" ">
<polygon fill="white" stroke="#666666" points="265,-24.5 145,-24.5 145,-5.5 265,-5.5 265,-24.5"/>
<text text-anchor="middle" x="205" y="-12.5" font-family="Helvetica,sans-Serif" font-size="10.00">ModelLoader::Extract</text>
</a>
</g>
</g>
<!-- Node2&#45;&gt;Node3 -->
<g id="edge2_Node000002_Node000003" class="edge">
<title>Node2&#45;&gt;Node3</title>
<g id="a_edge2_Node000002_Node000003"><a xlink:title=" ">
<path fill="none" stroke="#63b8ff" d="M290.55,-15C282.15,-15 273.56,-15 265.23,-15"/>
<polygon fill="#63b8ff" stroke="#63b8ff" points="290.67,-18.5 300.67,-15 290.67,-11.5 290.67,-18.5"/>
</a>
</g>
</g>
<!-- Node4 -->
<g id="Node000004" class="node">
<title>Node4</title>
<g id="a_Node000004"><a xlink:href="classModelLoader.html#ab578b63a565352c0c270bc4ebbc07653" target="_top" xlink:title=" ">
<polygon fill="white" stroke="#666666" points="109,-24.5 0,-24.5 0,-5.5 109,-5.5 109,-24.5"/>
<text text-anchor="middle" x="54.5" y="-12.5" font-family="Helvetica,sans-Serif" font-size="10.00">ModelLoader::Load</text>
</a>
</g>
</g>
<!-- Node3&#45;&gt;Node4 -->
<g id="edge3_Node000003_Node000004" class="edge">
<title>Node3&#45;&gt;Node4</title>
<g id="a_edge3_Node000003_Node000004"><a xlink:title=" ">
<path fill="none" stroke="#63b8ff" d="M134.82,-15C126.19,-15 117.47,-15 109.12,-15"/>
<polygon fill="#63b8ff" stroke="#63b8ff" points="134.88,-18.5 144.88,-15 134.88,-11.5 134.88,-18.5"/>
</a>
</g>
</g>
</g>
</svg>
