<?xml version="1.0" encoding="UTF-8" standalone="no"?>
<!DOCTYPE svg PUBLIC "-//W3C//DTD SVG 1.1//EN"
 "http://www.w3.org/Graphics/SVG/1.1/DTD/svg11.dtd">
<!-- Generated by graphviz version 2.43.0 (0)
 -->
<!-- Title: func_800A8F48 Pages: 1 -->
<svg width="841pt" height="308pt"
 viewBox="0.00 0.00 841.00 308.00" xmlns="http://www.w3.org/2000/svg" xmlns:xlink="http://www.w3.org/1999/xlink">
<g id="graph0" class="graph" transform="scale(1 1) rotate(0) translate(4 304)">
<title>func_800A8F48</title>
<!-- Node1 -->
<g id="Node000001" class="node">
<title>Node1</title>
<g id="a_Node000001"><a xlink:title=" ">
<polygon fill="#999999" stroke="#666666" points="92,-130 0,-130 0,-111 92,-111 92,-130"/>
<text text-anchor="middle" x="46" y="-118" font-family="Helvetica,sans-Serif" font-size="10.00">func_800A8F48</text>
</a>
</g>
</g>
<!-- Node2 -->
<g id="Node000002" class="node">
<title>Node2</title>
<g id="a_Node000002"><a xlink:href="menu__items_8c.html#af5a832d94070e40c3ea7f1e4e6966431" target="_top" xlink:title=" ">
<polygon fill="white" stroke="#666666" points="237.5,-262 145.5,-262 145.5,-243 237.5,-243 237.5,-262"/>
<text text-anchor="middle" x="191.5" y="-250" font-family="Helvetica,sans-Serif" font-size="10.00">func_80098FC8</text>
</a>
</g>
</g>
<!-- Node1&#45;&gt;Node2 -->
<g id="edge1_Node000001_Node000002" class="edge">
<title>Node1&#45;&gt;Node2</title>
<g id="a_edge1_Node000001_Node000002"><a xlink:title=" ">
<path fill="none" stroke="#63b8ff" d="M53.49,-130.03C66.21,-148.25 96,-188.56 128,-215.5 138.17,-224.06 150.57,-231.85 161.64,-238.05"/>
<polygon fill="#63b8ff" stroke="#63b8ff" points="160.08,-241.18 170.54,-242.86 163.41,-235.03 160.08,-241.18"/>
</a>
</g>
</g>
<!-- Node8 -->
<g id="Node000008" class="node">
<title>Node8</title>
<g id="a_Node000008"><a xlink:href="menu__items_8c.html#a0b463bd4e8a6fcec37daca803af465c4" target="_top" xlink:title=" ">
<polygon fill="white" stroke="#666666" points="237.5,-206 145.5,-206 145.5,-187 237.5,-187 237.5,-206"/>
<text text-anchor="middle" x="191.5" y="-194" font-family="Helvetica,sans-Serif" font-size="10.00">func_8009C204</text>
</a>
</g>
</g>
<!-- Node1&#45;&gt;Node8 -->
<g id="edge7_Node000001_Node000008" class="edge">
<title>Node1&#45;&gt;Node8</title>
<g id="a_edge7_Node000001_Node000008"><a xlink:title=" ">
<path fill="none" stroke="#63b8ff" d="M59.98,-130.02C75.57,-141.17 102.8,-159.74 128,-172.5 135.75,-176.42 144.3,-180.1 152.53,-183.35"/>
<polygon fill="#63b8ff" stroke="#63b8ff" points="151.38,-186.65 161.97,-186.94 153.87,-180.11 151.38,-186.65"/>
</a>
</g>
</g>
<!-- Node11 -->
<g id="Node000011" class="node">
<title>Node11</title>
<g id="a_Node000011"><a xlink:href="menu__items_8c.html#a2d2758c3a87de891a40840727bef3306" target="_top" xlink:title=" ">
<polygon fill="white" stroke="#666666" points="443,-187 291,-187 291,-168 443,-168 443,-187"/>
<text text-anchor="middle" x="367" y="-175" font-family="Helvetica,sans-Serif" font-size="10.00">segmented_to_virtual_dupe</text>
</a>
</g>
</g>
<!-- Node1&#45;&gt;Node11 -->
<g id="edge22_Node000001_Node000011" class="edge">
<title>Node1&#45;&gt;Node11</title>
<g id="a_edge22_Node000001_Node000011"><a xlink:title=" ">
<path fill="none" stroke="#63b8ff" d="M85.2,-130.06C98.68,-133.27 113.97,-136.74 128,-139.5 181.17,-149.97 241.44,-159.57 288.04,-166.5"/>
<polygon fill="#63b8ff" stroke="#63b8ff" points="287.66,-169.98 298.06,-167.98 288.68,-163.06 287.66,-169.98"/>
</a>
</g>
</g>
<!-- Node12 -->
<g id="Node000012" class="node">
<title>Node12</title>
<g id="a_Node000012"><a xlink:href="save_8c.html#ad91a6d803924eb1d07dd9ccac9caa5fc" target="_top" xlink:title=" ">
<polygon fill="white" stroke="#666666" points="237.5,-93 145.5,-93 145.5,-74 237.5,-74 237.5,-93"/>
<text text-anchor="middle" x="191.5" y="-81" font-family="Helvetica,sans-Serif" font-size="10.00">func_800B639C</text>
</a>
</g>
</g>
<!-- Node1&#45;&gt;Node12 -->
<g id="edge12_Node000001_Node000012" class="edge">
<title>Node1&#45;&gt;Node12</title>
<g id="a_edge12_Node000001_Node000012"><a xlink:title=" ">
<path fill="none" stroke="#63b8ff" d="M83.95,-110.97C102.06,-106.3 124.06,-100.63 143.36,-95.65"/>
<polygon fill="#63b8ff" stroke="#63b8ff" points="144.36,-99.01 153.17,-93.12 142.61,-92.23 144.36,-99.01"/>
</a>
</g>
</g>
<!-- Node13 -->
<g id="Node000013" class="node">
<title>Node13</title>
<g id="a_Node000013"><a xlink:href="Game_8cpp.html#ae131a8b6906df364a68be4307caab750" target="_top" xlink:title=" ">
<polygon fill="white" stroke="#666666" points="253,-56 130,-56 130,-37 253,-37 253,-56"/>
<text text-anchor="middle" x="191.5" y="-44" font-family="Helvetica,sans-Serif" font-size="10.00">GetCupCursorPosition</text>
</a>
</g>
</g>
<!-- Node1&#45;&gt;Node13 -->
<g id="edge13_Node000001_Node000013" class="edge">
<title>Node1&#45;&gt;Node13</title>
<g id="a_edge13_Node000001_Node000013"><a xlink:title=" ">
<path fill="none" stroke="#63b8ff" d="M58.66,-110.9C73.8,-98.84 101.47,-78.18 128,-65.5 132.68,-63.27 137.68,-61.22 142.73,-59.37"/>
<polygon fill="#63b8ff" stroke="#63b8ff" points="144.12,-62.6 152.46,-56.06 141.86,-55.97 144.12,-62.6"/>
</a>
</g>
</g>
<!-- Node14 -->
<g id="Node000014" class="node">
<title>Node14</title>
<g id="a_Node000014"><a xlink:href="Game_8cpp.html#a0499ce6f7f2cd1b56b0674de6c0cc813" target="_top" xlink:title=" ">
<polygon fill="white" stroke="#666666" points="231.5,-19 151.5,-19 151.5,0 231.5,0 231.5,-19"/>
<text text-anchor="middle" x="191.5" y="-7" font-family="Helvetica,sans-Serif" font-size="10.00">GetCupIndex</text>
</a>
</g>
</g>
<!-- Node1&#45;&gt;Node14 -->
<g id="edge14_Node000001_Node000014" class="edge">
<title>Node1&#45;&gt;Node14</title>
<g id="a_edge14_Node000001_Node000014"><a xlink:title=" ">
<path fill="none" stroke="#63b8ff" d="M52.84,-110.86C64.67,-92.16 93.29,-50.85 128,-28.5 132.3,-25.73 137.02,-23.35 141.89,-21.3"/>
<polygon fill="#63b8ff" stroke="#63b8ff" points="143.21,-24.55 151.35,-17.77 140.75,-17.99 143.21,-24.55"/>
</a>
</g>
</g>
<!-- Node15 -->
<g id="Node000015" class="node">
<title>Node15</title>
<g id="a_Node000015"><a xlink:href="menu__items_8c.html#a6ae9a7914726211a0149ff3ff8c2d70d" target="_top" xlink:title=" ">
<polygon fill="white" stroke="#666666" points="255,-130 128,-130 128,-111 255,-111 255,-130"/>
<text text-anchor="middle" x="191.5" y="-118" font-family="Helvetica,sans-Serif" font-size="10.00">render_menu_textures</text>
</a>
</g>
</g>
<!-- Node1&#45;&gt;Node15 -->
<g id="edge15_Node000001_Node000015" class="edge">
<title>Node1&#45;&gt;Node15</title>
<g id="a_edge15_Node000001_Node000015"><a xlink:title=" ">
<path fill="none" stroke="#63b8ff" d="M92.01,-120.5C100.16,-120.5 108.85,-120.5 117.57,-120.5"/>
<polygon fill="#63b8ff" stroke="#63b8ff" points="117.78,-124 127.78,-120.5 117.78,-117 117.78,-124"/>
</a>
</g>
</g>
<!-- Node3 -->
<g id="Node000003" class="node">
<title>Node3</title>
<g id="a_Node000003"><a xlink:href="menu__items_8c.html#ada97fbf304c29275c91520ae4e904504" target="_top" xlink:title=" ">
<polygon fill="white" stroke="#666666" points="407.5,-300 326.5,-300 326.5,-281 407.5,-281 407.5,-300"/>
<text text-anchor="middle" x="367" y="-288" font-family="Helvetica,sans-Serif" font-size="10.00">draw_box_fill</text>
</a>
</g>
</g>
<!-- Node2&#45;&gt;Node3 -->
<g id="edge2_Node000002_Node000003" class="edge">
<title>Node2&#45;&gt;Node3</title>
<g id="a_edge2_Node000002_Node000003"><a xlink:title=" ">
<path fill="none" stroke="#63b8ff" d="M236.28,-262.09C260.74,-267.45 291.3,-274.14 316.61,-279.68"/>
<polygon fill="#63b8ff" stroke="#63b8ff" points="315.87,-283.1 326.39,-281.82 317.37,-276.27 315.87,-283.1"/>
</a>
</g>
</g>
<!-- Node4 -->
<g id="Node000004" class="node">
<title>Node4</title>
<g id="a_Node000004"><a xlink:href="GBIMiddleware_8cpp.html#a4ecc44e3c6f1ca5a6b4a20c41d3bd2d2" target="_top" xlink:title=" ">
<polygon fill="white" stroke="#666666" points="568,-262 479,-262 479,-243 568,-243 568,-262"/>
<text text-anchor="middle" x="523.5" y="-250" font-family="Helvetica,sans-Serif" font-size="10.00">gSPDisplayList</text>
</a>
</g>
</g>
<!-- Node3&#45;&gt;Node4 -->
<g id="edge3_Node000003_Node000004" class="edge">
<title>Node3&#45;&gt;Node4</title>
<g id="a_edge3_Node000003_Node000004"><a xlink:title=" ">
<path fill="none" stroke="#63b8ff" d="M406.99,-280.91C427.28,-275.92 452.29,-269.77 473.85,-264.47"/>
<polygon fill="#63b8ff" stroke="#63b8ff" points="474.92,-267.81 483.79,-262.02 473.25,-261.01 474.92,-267.81"/>
</a>
</g>
</g>
<!-- Node7 -->
<g id="Node000007" class="node">
<title>Node7</title>
<g id="a_Node000007"><a xlink:href="menu__items_8c.html#a2341569d8bfc9b8aac7d5dab7933c999" target="_top" xlink:title=" ">
<polygon fill="white" stroke="#666666" points="563.5,-300 483.5,-300 483.5,-281 563.5,-281 563.5,-300"/>
<text text-anchor="middle" x="523.5" y="-288" font-family="Helvetica,sans-Serif" font-size="10.00">swap_values</text>
</a>
</g>
</g>
<!-- Node3&#45;&gt;Node7 -->
<g id="edge6_Node000003_Node000007" class="edge">
<title>Node3&#45;&gt;Node7</title>
<g id="a_edge6_Node000003_Node000007"><a xlink:title=" ">
<path fill="none" stroke="#63b8ff" d="M407.79,-290.5C427.76,-290.5 452.15,-290.5 473.3,-290.5"/>
<polygon fill="#63b8ff" stroke="#63b8ff" points="473.38,-294 483.38,-290.5 473.38,-287 473.38,-294"/>
</a>
</g>
</g>
<!-- Node5 -->
<g id="Node000005" class="node">
<title>Node5</title>
<g id="a_Node000005"><a xlink:href="Engine_8cpp.html#a223c8bc63f228dc11177515e38eff2db" target="_top" xlink:title=" ">
<polygon fill="white" stroke="#666666" points="753,-262 604,-262 604,-243 753,-243 753,-262"/>
<text text-anchor="middle" x="678.5" y="-250" font-family="Helvetica,sans-Serif" font-size="10.00">GameEngine_OTRSigCheck</text>
</a>
</g>
</g>
<!-- Node4&#45;&gt;Node5 -->
<g id="edge4_Node000004_Node000005" class="edge">
<title>Node4&#45;&gt;Node5</title>
<g id="a_edge4_Node000004_Node000005"><a xlink:title=" ">
<path fill="none" stroke="#63b8ff" d="M568.34,-252.5C576.34,-252.5 584.92,-252.5 593.64,-252.5"/>
<polygon fill="#63b8ff" stroke="#63b8ff" points="593.89,-256 603.89,-252.5 593.89,-249 593.89,-256"/>
</a>
</g>
</g>
<!-- Node6 -->
<g id="Node000006" class="node">
<title>Node6</title>
<g id="a_Node000006"><a xlink:href="string_8c.html#a008e171a518fe0e0352f31b245e03875" target="_top" xlink:title=" ">
<polygon fill="white" stroke="#666666" points="833,-262 789,-262 789,-243 833,-243 833,-262"/>
<text text-anchor="middle" x="811" y="-250" font-family="Helvetica,sans-Serif" font-size="10.00">strlen</text>
</a>
</g>
</g>
<!-- Node5&#45;&gt;Node6 -->
<g id="edge5_Node000005_Node000006" class="edge">
<title>Node5&#45;&gt;Node6</title>
<g id="a_edge5_Node000005_Node000006"><a xlink:title=" ">
<path fill="none" stroke="#63b8ff" d="M753.14,-252.5C762.12,-252.5 770.89,-252.5 778.75,-252.5"/>
<polygon fill="#63b8ff" stroke="#63b8ff" points="778.83,-256 788.83,-252.5 778.83,-249 778.83,-256"/>
</a>
</g>
</g>
<!-- Node8&#45;&gt;Node4 -->
<g id="edge10_Node000008_Node000004" class="edge">
<title>Node8&#45;&gt;Node4</title>
<g id="a_edge10_Node000008_Node000004"><a xlink:title=" ">
<path fill="none" stroke="#63b8ff" d="M212.74,-206C232.31,-214.73 263.02,-227.22 291,-233.5 350.94,-246.94 421.51,-251.11 468.84,-252.29"/>
<polygon fill="#63b8ff" stroke="#63b8ff" points="468.8,-255.79 478.87,-252.5 468.94,-248.79 468.8,-255.79"/>
</a>
</g>
</g>
<!-- Node9 -->
<g id="Node000009" class="node">
<title>Node9</title>
<g id="a_Node000009"><a xlink:href="menu__items_8c.html#a6e470e4f186b8105553f9b4322aed077" target="_top" xlink:title=" ">
<polygon fill="white" stroke="#666666" points="412.5,-224 321.5,-224 321.5,-205 412.5,-205 412.5,-224"/>
<text text-anchor="middle" x="367" y="-212" font-family="Helvetica,sans-Serif" font-size="10.00">func_800963F0</text>
</a>
</g>
</g>
<!-- Node8&#45;&gt;Node9 -->
<g id="edge8_Node000008_Node000009" class="edge">
<title>Node8&#45;&gt;Node9</title>
<g id="a_edge8_Node000008_Node000009"><a xlink:title=" ">
<path fill="none" stroke="#63b8ff" d="M237.63,-201.18C260.11,-203.51 287.47,-206.35 311.15,-208.81"/>
<polygon fill="#63b8ff" stroke="#63b8ff" points="311.09,-212.32 321.39,-209.87 311.81,-205.36 311.09,-212.32"/>
</a>
</g>
</g>
<!-- Node10 -->
<g id="Node000010" class="node">
<title>Node10</title>
<g id="a_Node000010"><a xlink:href="menu__items_8c.html#a6061a0dbb9b34a45fb1620c6c1d7f73c" target="_top" xlink:title=" ">
<polygon fill="white" stroke="#666666" points="413,-150 321,-150 321,-131 413,-131 413,-150"/>
<text text-anchor="middle" x="367" y="-138" font-family="Helvetica,sans-Serif" font-size="10.00">func_8009B8C4</text>
</a>
</g>
</g>
<!-- Node8&#45;&gt;Node10 -->
<g id="edge9_Node000008_Node000010" class="edge">
<title>Node8&#45;&gt;Node10</title>
<g id="a_edge9_Node000008_Node000010"><a xlink:title=" ">
<path fill="none" stroke="#63b8ff" d="M215.73,-186.94C235.53,-178.99 264.85,-167.69 291,-159.5 298.75,-157.07 307.01,-154.73 315.13,-152.57"/>
<polygon fill="#63b8ff" stroke="#63b8ff" points="316.1,-155.94 324.9,-150.04 314.34,-149.16 316.1,-155.94"/>
</a>
</g>
</g>
<!-- Node8&#45;&gt;Node11 -->
<g id="edge11_Node000008_Node000011" class="edge">
<title>Node8&#45;&gt;Node11</title>
<g id="a_edge11_Node000008_Node000011"><a xlink:title=" ">
<path fill="none" stroke="#63b8ff" d="M237.63,-191.56C250.85,-190.11 265.75,-188.48 280.6,-186.85"/>
<polygon fill="#63b8ff" stroke="#63b8ff" points="281.3,-190.3 290.86,-185.73 280.53,-183.34 281.3,-190.3"/>
</a>
</g>
</g>
<!-- Node15&#45;&gt;Node4 -->
<g id="edge21_Node000015_Node000004" class="edge">
<title>Node15&#45;&gt;Node4</title>
<g id="a_edge21_Node000015_Node000004"><a xlink:title=" ">
<path fill="none" stroke="#63b8ff" d="M226.76,-110.93C277.63,-98.78 374.49,-83.73 443,-122.5 485.45,-146.52 507.99,-203.36 517.28,-233.3"/>
<polygon fill="#63b8ff" stroke="#63b8ff" points="513.95,-234.38 520.12,-243 520.67,-232.42 513.95,-234.38"/>
</a>
</g>
</g>
<!-- Node15&#45;&gt;Node10 -->
<g id="edge20_Node000015_Node000010" class="edge">
<title>Node15&#45;&gt;Node10</title>
<g id="a_edge20_Node000015_Node000010"><a xlink:title=" ">
<path fill="none" stroke="#63b8ff" d="M255.14,-127.72C273.31,-129.82 293.02,-132.09 310.71,-134.13"/>
<polygon fill="#63b8ff" stroke="#63b8ff" points="310.53,-137.63 320.87,-135.3 311.33,-130.68 310.53,-137.63"/>
</a>
</g>
</g>
<!-- Node16 -->
<g id="Node000016" class="node">
<title>Node16</title>
<g id="a_Node000016"><a xlink:href="menu__items_8c.html#ad9490c92b9af2d9c1cc307fb09bcb7b6" target="_top" xlink:title=" ">
<polygon fill="white" stroke="#666666" points="412.5,-37 321.5,-37 321.5,-18 412.5,-18 412.5,-37"/>
<text text-anchor="middle" x="367" y="-25" font-family="Helvetica,sans-Serif" font-size="10.00">func_80095E10</text>
</a>
</g>
</g>
<!-- Node15&#45;&gt;Node16 -->
<g id="edge16_Node000015_Node000016" class="edge">
<title>Node15&#45;&gt;Node16</title>
<g id="a_edge16_Node000015_Node000016"><a xlink:title=" ">
<path fill="none" stroke="#63b8ff" d="M239.66,-110.97C245.12,-108.72 250.38,-105.94 255,-102.5 278.73,-84.83 266.98,-63.78 291,-46.5 297.07,-42.13 304.05,-38.76 311.25,-36.17"/>
<polygon fill="#63b8ff" stroke="#63b8ff" points="312.65,-39.4 321.15,-33.09 310.57,-32.72 312.65,-39.4"/>
</a>
</g>
</g>
<!-- Node17 -->
<g id="Node000017" class="node">
<title>Node17</title>
<g id="a_Node000017"><a xlink:href="menu__items_8c.html#aef2b6b221f29f2caa6f68e11b3e7df34" target="_top" xlink:title=" ">
<polygon fill="white" stroke="#666666" points="413,-74 321,-74 321,-55 413,-55 413,-74"/>
<text text-anchor="middle" x="367" y="-62" font-family="Helvetica,sans-Serif" font-size="10.00">func_800987D0</text>
</a>
</g>
</g>
<!-- Node15&#45;&gt;Node17 -->
<g id="edge17_Node000015_Node000017" class="edge">
<title>Node15&#45;&gt;Node17</title>
<g id="a_edge17_Node000015_Node000017"><a xlink:title=" ">
<path fill="none" stroke="#63b8ff" d="M227.71,-110.96C236.66,-108.37 246.23,-105.46 255,-102.5 271.27,-97.01 274.82,-94.23 291,-88.5 301.95,-84.62 313.9,-80.67 324.97,-77.13"/>
<polygon fill="#63b8ff" stroke="#63b8ff" points="326.37,-80.36 334.84,-74 324.25,-73.69 326.37,-80.36"/>
</a>
</g>
</g>
<!-- Node18 -->
<g id="Node000018" class="node">
<title>Node18</title>
<g id="a_Node000018"><a xlink:href="math__util_8c.html#ae69cbf5c8d4b3b0dba2d7b4d4673689f" target="_top" xlink:title=" ">
<polygon fill="white" stroke="#666666" points="542.5,-92 504.5,-92 504.5,-73 542.5,-73 542.5,-92"/>
<text text-anchor="middle" x="523.5" y="-80" font-family="Helvetica,sans-Serif" font-size="10.00">coss</text>
</a>
</g>
</g>
<!-- Node17&#45;&gt;Node18 -->
<g id="edge18_Node000017_Node000018" class="edge">
<title>Node17&#45;&gt;Node18</title>
<g id="a_edge18_Node000017_Node000018"><a xlink:title=" ">
<path fill="none" stroke="#63b8ff" d="M413.1,-69.75C439.4,-72.82 471.75,-76.59 494.42,-79.23"/>
<polygon fill="#63b8ff" stroke="#63b8ff" points="494.06,-82.71 504.4,-80.39 494.87,-75.76 494.06,-82.71"/>
</a>
</g>
</g>
<!-- Node19 -->
<g id="Node000019" class="node">
<title>Node19</title>
<g id="a_Node000019"><a xlink:href="math__util_8c.html#a19ed3bd78fd2d3e2bd0a29f6caf48545" target="_top" xlink:title=" ">
<polygon fill="white" stroke="#666666" points="541.5,-55 505.5,-55 505.5,-36 541.5,-36 541.5,-55"/>
<text text-anchor="middle" x="523.5" y="-43" font-family="Helvetica,sans-Serif" font-size="10.00">sins</text>
</a>
</g>
</g>
<!-- Node17&#45;&gt;Node19 -->
<g id="edge19_Node000017_Node000019" class="edge">
<title>Node17&#45;&gt;Node19</title>
<g id="a_edge19_Node000017_Node000019"><a xlink:title=" ">
<path fill="none" stroke="#63b8ff" d="M413.1,-58.95C439.71,-55.68 472.5,-51.65 495.21,-48.86"/>
<polygon fill="#63b8ff" stroke="#63b8ff" points="495.68,-52.32 505.18,-47.63 494.82,-45.38 495.68,-52.32"/>
</a>
</g>
</g>
</g>
</svg>
