<?xml version="1.0" encoding="UTF-8" standalone="no"?>
<!DOCTYPE svg PUBLIC "-//W3C//DTD SVG 1.1//EN"
 "http://www.w3.org/Graphics/SVG/1.1/DTD/svg11.dtd">
<!-- Generated by graphviz version 2.43.0 (0)
 -->
<!-- Title: src/menus.h Pages: 1 -->
<!--zoomable 203 -->

<svg id="main" version="1.1" xmlns="http://www.w3.org/2000/svg" xmlns:xlink="http://www.w3.org/1999/xlink" xml:space="preserve" onload="init(evt)">

<style type="text/css"><![CDATA[
.node, .edge {opacity: 0.7;}
.node.selected, .edge.selected {opacity: 1;}
.edge:hover path { stroke: red; }
.edge:hover polygon { stroke: red; fill: red; }
]]></style>

<defs>
  <circle id="rim" cx="0" cy="0" r="7"/>
  <circle id="rim2" cx="0" cy="0" r="3.5"/>
  <g id="zoomPlus">
    <use xlink:href="#rim" fill="#404040"><set attributeName="fill" to="#808080" begin="zoomplus.mouseover" end="zoomplus.mouseout"/></use>
    <path d="M-4,0h8M0,-4v8" fill="none" stroke="white" stroke-width="1.5" pointer-events="none"/>
  </g>
  <g id="zoomMin">
    <use xlink:href="#rim" fill="#404040"><set attributeName="fill" to="#808080" begin="zoomminus.mouseover" end="zoomminus.mouseout"/></use>
    <path d="M-4,0h8" fill="none" stroke="white" stroke-width="1.5" pointer-events="none"/>
  </g>
  <g id="arrowUp" transform="translate(30 24)">
    <use xlink:href="#rim"/>
    <path pointer-events="none" fill="none" stroke="white" stroke-width="1.5" d="M0,-3.0v7 M-2.5,-0.5L0,-3.0L2.5,-0.5"/>
  </g>
  <g id="arrowRight" transform="rotate(90) translate(36 -43)">
    <use xlink:href="#rim"/>
    <path pointer-events="none" fill="none" stroke="white" stroke-width="1.5" d="M0,-3.0v7 M-2.5,-0.5L0,-3.0L2.5,-0.5"/>
  </g>
  <g id="arrowDown" transform="rotate(180) translate(-30 -48)">
    <use xlink:href="#rim"/>
    <path pointer-events="none" fill="none" stroke="white" stroke-width="1.5" d="M0,-3.0v7 M-2.5,-0.5L0,-3.0L2.5,-0.5"/>
  </g>
  <g id="arrowLeft" transform="rotate(270) translate(-36 17)">
    <use xlink:href="#rim"/>
    <path pointer-events="none" fill="none" stroke="white" stroke-width="1.5" d="M0,-3.0v7 M-2.5,-0.5L0,-3.0L2.5,-0.5"/>
  </g>
  <g id="resetDef">
    <use xlink:href="#rim2" fill="#404040"><set attributeName="fill" to="#808080" begin="reset.mouseover" end="reset.mouseout"/></use>
  </g>
</defs>
<script type="application/ecmascript">
var viewWidth = 3137;
var viewHeight = 203;
var sectionId = 'dynsection-1';
</script>
<script type="application/ecmascript" xlink:href="svg.min.js"/>
<svg id="graph" class="graph">
<g id="viewport">
<title>src/menus.h</title>
<!-- Node1 -->
<g id="Node000001" class="node">
<title>Node1</title>
<g id="a_Node000001"><a xlink:title=" ">
<polygon fill="#999999" stroke="#666666" points="1700.5,-195 1624.5,-195 1624.5,-176 1700.5,-176 1700.5,-195"/>
<text text-anchor="middle" x="1662.5" y="-183" font-family="Helvetica,sans-Serif" font-size="10.00">src/menus.h</text>
</a>
</g>
</g>
<!-- Node2 -->
<g id="Node000002" class="node">
<title>Node2</title>
<g id="a_Node000002"><a xlink:href="code__800029B0_8c.html" target="_top" xlink:title=" ">
<polygon fill="white" stroke="#666666" points="119,-134.5 0,-134.5 0,-115.5 119,-115.5 119,-134.5"/>
<text text-anchor="middle" x="59.5" y="-122.5" font-family="Helvetica,sans-Serif" font-size="10.00">src/code_800029B0.c</text>
</a>
</g>
</g>
<!-- Node1&#45;&gt;Node2 -->
<g id="edge1_Node000001_Node000002" class="edge">
<title>Node1&#45;&gt;Node2</title>
<g id="a_edge1_Node000001_Node000002"><a xlink:title=" ">
<path fill="none" stroke="#63b8ff" d="M1614.1,-184.21C1387.09,-182.69 426.5,-174.3 128.5,-140 117.69,-138.76 106.06,-136.69 95.48,-134.51"/>
<polygon fill="#63b8ff" stroke="#63b8ff" points="1614.32,-187.71 1624.35,-184.28 1614.37,-180.71 1614.32,-187.71"/>
</a>
</g>
</g>
<!-- Node3 -->
<g id="Node000003" class="node">
<title>Node3</title>
<g id="a_Node000003"><a xlink:href="code__80005FD0_8c.html" target="_top" xlink:title=" ">
<polygon fill="white" stroke="#666666" points="257.5,-134.5 137.5,-134.5 137.5,-115.5 257.5,-115.5 257.5,-134.5"/>
<text text-anchor="middle" x="197.5" y="-122.5" font-family="Helvetica,sans-Serif" font-size="10.00">src/code_80005FD0.c</text>
</a>
</g>
</g>
<!-- Node1&#45;&gt;Node3 -->
<g id="edge2_Node000001_Node000003" class="edge">
<title>Node1&#45;&gt;Node3</title>
<g id="a_edge2_Node000001_Node000003"><a xlink:title=" ">
<path fill="none" stroke="#63b8ff" d="M1614.02,-184.05C1399.66,-181.89 535.77,-171.38 266.5,-140 255.82,-138.75 244.32,-136.71 233.84,-134.57"/>
<polygon fill="#63b8ff" stroke="#63b8ff" points="1614.28,-187.55 1624.31,-184.15 1614.35,-180.55 1614.28,-187.55"/>
</a>
</g>
</g>
<!-- Node4 -->
<g id="Node000004" class="node">
<title>Node4</title>
<g id="a_Node000004"><a xlink:href="code__80057C60_8c.html" target="_top" xlink:title=" ">
<polygon fill="white" stroke="#666666" points="395,-134.5 276,-134.5 276,-115.5 395,-115.5 395,-134.5"/>
<text text-anchor="middle" x="335.5" y="-122.5" font-family="Helvetica,sans-Serif" font-size="10.00">src/code_80057C60.c</text>
</a>
</g>
</g>
<!-- Node1&#45;&gt;Node4 -->
<g id="edge3_Node000001_Node000004" class="edge">
<title>Node1&#45;&gt;Node4</title>
<g id="a_edge3_Node000001_Node000004"><a xlink:title=" ">
<path fill="none" stroke="#63b8ff" d="M1614.27,-183.88C1413.65,-181.12 644.45,-168.85 403.5,-140 392.97,-138.74 381.64,-136.69 371.31,-134.54"/>
<polygon fill="#63b8ff" stroke="#63b8ff" points="1614.44,-187.38 1624.49,-184.02 1614.54,-180.38 1614.44,-187.38"/>
</a>
</g>
</g>
<!-- Node5 -->
<g id="Node000005" class="node">
<title>Node5</title>
<g id="a_Node000005"><a xlink:href="code__8006E9C0_8c.html" target="_top" xlink:title=" ">
<polygon fill="white" stroke="#666666" points="532,-134.5 413,-134.5 413,-115.5 532,-115.5 532,-134.5"/>
<text text-anchor="middle" x="472.5" y="-122.5" font-family="Helvetica,sans-Serif" font-size="10.00">src/code_8006E9C0.c</text>
</a>
</g>
</g>
<!-- Node1&#45;&gt;Node5 -->
<g id="edge4_Node000001_Node000005" class="edge">
<title>Node1&#45;&gt;Node5</title>
<g id="a_edge4_Node000001_Node000005"><a xlink:title=" ">
<path fill="none" stroke="#63b8ff" d="M1614.45,-183.62C1428.25,-180.05 754.06,-165.61 541.5,-140 530.82,-138.71 519.33,-136.66 508.85,-134.51"/>
<polygon fill="#63b8ff" stroke="#63b8ff" points="1614.42,-187.12 1624.48,-183.81 1614.55,-180.12 1614.42,-187.12"/>
</a>
</g>
</g>
<!-- Node6 -->
<g id="Node000006" class="node">
<title>Node6</title>
<g id="a_Node000006"><a xlink:href="all__variables_8h.html" target="_top" xlink:title=" ">
<polygon fill="white" stroke="#666666" points="688.5,-134.5 550.5,-134.5 550.5,-115.5 688.5,-115.5 688.5,-134.5"/>
<text text-anchor="middle" x="619.5" y="-122.5" font-family="Helvetica,sans-Serif" font-size="10.00">src/debug/all_variables.h</text>
</a>
</g>
</g>
<!-- Node1&#45;&gt;Node6 -->
<g id="edge5_Node000001_Node000006" class="edge">
<title>Node1&#45;&gt;Node6</title>
<g id="a_edge5_Node000001_Node000006"><a xlink:title=" ">
<path fill="none" stroke="#63b8ff" d="M1614.12,-184.51C1472.62,-184.07 1047.49,-179.31 697.5,-140 685.61,-138.66 672.79,-136.62 661.05,-134.5"/>
<polygon fill="#63b8ff" stroke="#63b8ff" points="1614.19,-188.01 1624.2,-184.54 1614.21,-181.01 1614.19,-188.01"/>
</a>
</g>
</g>
<!-- Node9 -->
<g id="Node000009" class="node">
<title>Node9</title>
<g id="a_Node000009"><a xlink:href="code__80281780_8c.html" target="_top" xlink:title=" ">
<polygon fill="white" stroke="#666666" points="862,-134.5 707,-134.5 707,-115.5 862,-115.5 862,-134.5"/>
<text text-anchor="middle" x="784.5" y="-122.5" font-family="Helvetica,sans-Serif" font-size="10.00">src/ending/code_80281780.c</text>
</a>
</g>
</g>
<!-- Node1&#45;&gt;Node9 -->
<g id="edge8_Node000001_Node000009" class="edge">
<title>Node1&#45;&gt;Node9</title>
<g id="a_edge8_Node000001_Node000009"><a xlink:title=" ">
<path fill="none" stroke="#63b8ff" d="M1613.81,-183.51C1489.7,-180.61 1151.53,-170.33 871.5,-140 858.57,-138.6 844.64,-136.59 831.79,-134.52"/>
<polygon fill="#63b8ff" stroke="#63b8ff" points="1614.03,-187.02 1624.11,-183.75 1614.19,-180.02 1614.03,-187.02"/>
</a>
</g>
</g>
<!-- Node10 -->
<g id="Node000010" class="node">
<title>Node10</title>
<g id="a_Node000010"><a xlink:href="HM__Intro_8cpp.html" target="_top" xlink:title=" ">
<polygon fill="white" stroke="#666666" points="1014.5,-134.5 880.5,-134.5 880.5,-115.5 1014.5,-115.5 1014.5,-134.5"/>
<text text-anchor="middle" x="947.5" y="-122.5" font-family="Helvetica,sans-Serif" font-size="10.00">src/engine/HM_Intro.cpp</text>
</a>
</g>
</g>
<!-- Node1&#45;&gt;Node10 -->
<g id="edge9_Node000001_Node000010" class="edge">
<title>Node1&#45;&gt;Node10</title>
<g id="a_edge9_Node000001_Node000010"><a xlink:title=" ">
<path fill="none" stroke="#63b8ff" d="M1614.03,-182.99C1507.07,-179.24 1242.91,-167.76 1023.5,-140 1012.32,-138.59 1000.29,-136.59 989.18,-134.55"/>
<polygon fill="#63b8ff" stroke="#63b8ff" points="1614.07,-186.49 1624.18,-183.34 1614.31,-179.5 1614.07,-186.49"/>
</a>
</g>
</g>
<!-- Node11 -->
<g id="Node000011" class="node">
<title>Node11</title>
<g id="a_Node000011"><a xlink:href="PlayerBombKart_8cpp.html" target="_top" xlink:title=" ">
<polygon fill="white" stroke="#666666" points="1202.5,-134.5 1032.5,-134.5 1032.5,-115.5 1202.5,-115.5 1202.5,-134.5"/>
<text text-anchor="middle" x="1117.5" y="-122.5" font-family="Helvetica,sans-Serif" font-size="10.00">src/engine/PlayerBombKart.cpp</text>
</a>
</g>
</g>
<!-- Node1&#45;&gt;Node11 -->
<g id="edge10_Node000001_Node000011" class="edge">
<title>Node1&#45;&gt;Node11</title>
<g id="a_edge10_Node000001_Node000011"><a xlink:title=" ">
<path fill="none" stroke="#63b8ff" d="M1614.33,-180.54C1531.75,-173.56 1357.89,-158.11 1211.5,-140 1198.56,-138.4 1184.66,-136.45 1171.62,-134.53"/>
<polygon fill="#63b8ff" stroke="#63b8ff" points="1614.16,-184.03 1624.42,-181.38 1614.75,-177.06 1614.16,-184.03"/>
</a>
</g>
</g>
<!-- Node12 -->
<g id="Node000012" class="node">
<title>Node12</title>
<g id="a_Node000012"><a xlink:href="World_8cpp.html" target="_top" xlink:title=" ">
<polygon fill="white" stroke="#666666" points="1338.5,-134.5 1220.5,-134.5 1220.5,-115.5 1338.5,-115.5 1338.5,-134.5"/>
<text text-anchor="middle" x="1279.5" y="-122.5" font-family="Helvetica,sans-Serif" font-size="10.00">src/engine/World.cpp</text>
</a>
</g>
</g>
<!-- Node1&#45;&gt;Node12 -->
<g id="edge11_Node000001_Node000012" class="edge">
<title>Node1&#45;&gt;Node12</title>
<g id="a_edge11_Node000001_Node000012"><a xlink:title=" ">
<path fill="none" stroke="#63b8ff" d="M1613.81,-178.58C1551.79,-170.83 1441.38,-156.28 1347.5,-140 1338.24,-138.39 1328.31,-136.47 1318.97,-134.56"/>
<polygon fill="#63b8ff" stroke="#63b8ff" points="1613.72,-182.1 1624.07,-179.86 1614.58,-175.15 1613.72,-182.1"/>
</a>
</g>
</g>
<!-- Node13 -->
<g id="Node000013" class="node">
<title>Node13</title>
<g id="a_Node000013"><a xlink:href="Boos_8cpp.html" target="_top" xlink:title=" ">
<polygon fill="white" stroke="#666666" points="1462,-140 1357,-140 1357,-110 1462,-110 1462,-140"/>
<text text-anchor="start" x="1365" y="-128" font-family="Helvetica,sans-Serif" font-size="10.00">src/engine/objects</text>
<text text-anchor="middle" x="1409.5" y="-117" font-family="Helvetica,sans-Serif" font-size="10.00">/Boos.cpp</text>
</a>
</g>
</g>
<!-- Node1&#45;&gt;Node13 -->
<g id="edge12_Node000001_Node000013" class="edge">
<title>Node1&#45;&gt;Node13</title>
<g id="a_edge12_Node000001_Node000013"><a xlink:title=" ">
<path fill="none" stroke="#63b8ff" d="M1615.95,-173.74C1572.45,-163.68 1507.57,-148.68 1462.19,-138.18"/>
<polygon fill="#63b8ff" stroke="#63b8ff" points="1615.18,-177.15 1625.71,-175.99 1616.76,-170.33 1615.18,-177.15"/>
</a>
</g>
</g>
<!-- Node14 -->
<g id="Node000014" class="node">
<title>Node14</title>
<g id="a_Node000014"><a xlink:href="GrandPrixBalloons_8cpp.html" target="_top" xlink:title=" ">
<polygon fill="white" stroke="#666666" points="1610.5,-140 1480.5,-140 1480.5,-110 1610.5,-110 1610.5,-140"/>
<text text-anchor="start" x="1488.5" y="-128" font-family="Helvetica,sans-Serif" font-size="10.00">src/engine/objects</text>
<text text-anchor="middle" x="1545.5" y="-117" font-family="Helvetica,sans-Serif" font-size="10.00">/GrandPrixBalloons.cpp</text>
</a>
</g>
</g>
<!-- Node1&#45;&gt;Node14 -->
<g id="edge13_Node000001_Node000014" class="edge">
<title>Node1&#45;&gt;Node14</title>
<g id="a_edge13_Node000001_Node000014"><a xlink:title=" ">
<path fill="none" stroke="#63b8ff" d="M1636.42,-171.46C1617.85,-162.18 1592.92,-149.71 1573.86,-140.18"/>
<polygon fill="#63b8ff" stroke="#63b8ff" points="1634.98,-174.65 1645.49,-175.99 1638.11,-168.39 1634.98,-174.65"/>
</a>
</g>
</g>
<!-- Node15 -->
<g id="Node000015" class="node">
<title>Node15</title>
<g id="a_Node000015"><a xlink:href="main_8c.html" target="_top" xlink:title=" ">
<polygon fill="white" stroke="#666666" points="1696,-134.5 1629,-134.5 1629,-115.5 1696,-115.5 1696,-134.5"/>
<text text-anchor="middle" x="1662.5" y="-122.5" font-family="Helvetica,sans-Serif" font-size="10.00">src/main.c</text>
</a>
</g>
</g>
<!-- Node1&#45;&gt;Node15 -->
<g id="edge14_Node000001_Node000015" class="edge">
<title>Node1&#45;&gt;Node15</title>
<g id="a_edge14_Node000001_Node000015"><a xlink:title=" ">
<path fill="none" stroke="#63b8ff" d="M1662.5,-165.66C1662.5,-155.24 1662.5,-142.8 1662.5,-134.67"/>
<polygon fill="#63b8ff" stroke="#63b8ff" points="1659,-165.87 1662.5,-175.87 1666,-165.87 1659,-165.87"/>
</a>
</g>
</g>
<!-- Node16 -->
<g id="Node000016" class="node">
<title>Node16</title>
<g id="a_Node000016"><a xlink:href="menu__items_8c.html" target="_top" xlink:title=" ">
<polygon fill="white" stroke="#666666" points="1817,-134.5 1714,-134.5 1714,-115.5 1817,-115.5 1817,-134.5"/>
<text text-anchor="middle" x="1765.5" y="-122.5" font-family="Helvetica,sans-Serif" font-size="10.00">src/menu_items.c</text>
</a>
</g>
</g>
<!-- Node1&#45;&gt;Node16 -->
<g id="edge15_Node000001_Node000016" class="edge">
<title>Node1&#45;&gt;Node16</title>
<g id="a_edge15_Node000001_Node000016"><a xlink:title=" ">
<path fill="none" stroke="#63b8ff" d="M1686.4,-170.92C1706.09,-159.74 1733.4,-144.23 1750.24,-134.67"/>
<polygon fill="#63b8ff" stroke="#63b8ff" points="1684.66,-167.89 1677.7,-175.87 1688.12,-173.97 1684.66,-167.89"/>
</a>
</g>
</g>
<!-- Node17 -->
<g id="Node000017" class="node">
<title>Node17</title>
<g id="a_Node000017"><a xlink:href="menus_8c.html" target="_top" xlink:title=" ">
<polygon fill="white" stroke="#666666" points="1910,-134.5 1835,-134.5 1835,-115.5 1910,-115.5 1910,-134.5"/>
<text text-anchor="middle" x="1872.5" y="-122.5" font-family="Helvetica,sans-Serif" font-size="10.00">src/menus.c</text>
</a>
</g>
</g>
<!-- Node1&#45;&gt;Node17 -->
<g id="edge16_Node000001_Node000017" class="edge">
<title>Node1&#45;&gt;Node17</title>
<g id="a_edge16_Node000001_Node000017"><a xlink:title=" ">
<path fill="none" stroke="#63b8ff" d="M1704.48,-173.32C1737.44,-164.48 1784.47,-151.71 1825.5,-140 1831.56,-138.27 1838.04,-136.37 1844.2,-134.55"/>
<polygon fill="#63b8ff" stroke="#63b8ff" points="1703.48,-169.97 1694.73,-175.94 1705.29,-176.73 1703.48,-169.97"/>
</a>
</g>
</g>
<!-- Node18 -->
<g id="Node000018" class="node">
<title>Node18</title>
<g id="a_Node000018"><a xlink:href="start__game_8c.html" target="_top" xlink:title=" ">
<polygon fill="white" stroke="#666666" points="2042.5,-140 1928.5,-140 1928.5,-110 2042.5,-110 2042.5,-140"/>
<text text-anchor="start" x="1936.5" y="-128" font-family="Helvetica,sans-Serif" font-size="10.00">src/networking/start</text>
<text text-anchor="middle" x="1985.5" y="-117" font-family="Helvetica,sans-Serif" font-size="10.00">_game.c</text>
</a>
</g>
</g>
<!-- Node1&#45;&gt;Node18 -->
<g id="edge17_Node000001_Node000018" class="edge">
<title>Node1&#45;&gt;Node18</title>
<g id="a_edge17_Node000001_Node000018"><a xlink:title=" ">
<path fill="none" stroke="#63b8ff" d="M1710.92,-176.59C1762.46,-168.04 1846.37,-153.8 1918.5,-140 1921.65,-139.4 1924.88,-138.77 1928.14,-138.12"/>
<polygon fill="#63b8ff" stroke="#63b8ff" points="1710.04,-173.18 1700.74,-178.27 1711.18,-180.09 1710.04,-173.18"/>
</a>
</g>
</g>
<!-- Node19 -->
<g id="Node000019" class="node">
<title>Node19</title>
<g id="a_Node000019"><a xlink:href="Game_8cpp.html" target="_top" xlink:title=" ">
<polygon fill="white" stroke="#666666" points="2166.5,-134.5 2060.5,-134.5 2060.5,-115.5 2166.5,-115.5 2166.5,-134.5"/>
<text text-anchor="middle" x="2113.5" y="-122.5" font-family="Helvetica,sans-Serif" font-size="10.00">src/port/Game.cpp</text>
</a>
</g>
</g>
<!-- Node1&#45;&gt;Node19 -->
<g id="edge18_Node000001_Node000019" class="edge">
<title>Node1&#45;&gt;Node19</title>
<g id="a_edge18_Node000001_Node000019"><a xlink:title=" ">
<path fill="none" stroke="#63b8ff" d="M1710.88,-180.66C1784.68,-174.42 1929.66,-160.66 2051.5,-140 2060.42,-138.49 2069.99,-136.51 2078.87,-134.51"/>
<polygon fill="#63b8ff" stroke="#63b8ff" points="1710.19,-177.21 1700.52,-181.53 1710.77,-184.18 1710.19,-177.21"/>
</a>
</g>
</g>
<!-- Node20 -->
<g id="Node000020" class="node">
<title>Node20</title>
<g id="a_Node000020"><a xlink:href="Menu_8h.html" target="_top" xlink:title=" ">
<polygon fill="white" stroke="#666666" points="2288.5,-134.5 2184.5,-134.5 2184.5,-115.5 2288.5,-115.5 2288.5,-134.5"/>
<text text-anchor="middle" x="2236.5" y="-122.5" font-family="Helvetica,sans-Serif" font-size="10.00">src/port/ui/Menu.h</text>
</a>
</g>
</g>
<!-- Node1&#45;&gt;Node20 -->
<g id="edge19_Node000001_Node000020" class="edge">
<title>Node1&#45;&gt;Node20</title>
<g id="a_edge19_Node000001_Node000020"><a xlink:title=" ">
<path fill="none" stroke="#63b8ff" d="M1710.73,-182.56C1801.95,-178.38 2005.86,-166.69 2175.5,-140 2184.52,-138.58 2194.18,-136.59 2203.1,-134.55"/>
<polygon fill="#63b8ff" stroke="#63b8ff" points="1710.52,-179.06 1700.69,-183 1710.84,-186.05 1710.52,-179.06"/>
</a>
</g>
</g>
<!-- Node33 -->
<g id="Node000033" class="node">
<title>Node33</title>
<g id="a_Node000033"><a xlink:href="race__logic_8c.html" target="_top" xlink:title=" ">
<polygon fill="white" stroke="#666666" points="2432,-134.5 2307,-134.5 2307,-115.5 2432,-115.5 2432,-134.5"/>
<text text-anchor="middle" x="2369.5" y="-122.5" font-family="Helvetica,sans-Serif" font-size="10.00">src/racing/race_logic.c</text>
</a>
</g>
</g>
<!-- Node1&#45;&gt;Node33 -->
<g id="edge32_Node000001_Node000033" class="edge">
<title>Node1&#45;&gt;Node33</title>
<g id="a_edge32_Node000001_Node000033"><a xlink:title=" ">
<path fill="none" stroke="#63b8ff" d="M1710.69,-183.13C1817.02,-179.67 2079.6,-168.71 2297.5,-140 2308.23,-138.59 2319.77,-136.57 2330.41,-134.5"/>
<polygon fill="#63b8ff" stroke="#63b8ff" points="1710.48,-179.64 1700.6,-183.45 1710.7,-186.63 1710.48,-179.64"/>
</a>
</g>
</g>
<!-- Node34 -->
<g id="Node000034" class="node">
<title>Node34</title>
<g id="a_Node000034"><a xlink:href="skybox__and__splitscreen_8c.html" target="_top" xlink:title=" ">
<polygon fill="white" stroke="#666666" points="2575,-140 2450,-140 2450,-110 2575,-110 2575,-140"/>
<text text-anchor="start" x="2458" y="-128" font-family="Helvetica,sans-Serif" font-size="10.00">src/racing/skybox_and</text>
<text text-anchor="middle" x="2512.5" y="-117" font-family="Helvetica,sans-Serif" font-size="10.00">_splitscreen.c</text>
</a>
</g>
</g>
<!-- Node1&#45;&gt;Node34 -->
<g id="edge33_Node000001_Node000034" class="edge">
<title>Node1&#45;&gt;Node34</title>
<g id="a_edge33_Node000001_Node000034"><a xlink:title=" ">
<path fill="none" stroke="#63b8ff" d="M1710.96,-184.05C1833.7,-182.39 2166.62,-174.78 2441.5,-140 2444.24,-139.65 2447.04,-139.26 2449.86,-138.84"/>
<polygon fill="#63b8ff" stroke="#63b8ff" points="1710.72,-180.55 1700.77,-184.18 1710.81,-187.55 1710.72,-180.55"/>
</a>
</g>
</g>
<!-- Node35 -->
<g id="Node000035" class="node">
<title>Node35</title>
<g id="a_Node000035"><a xlink:href="render__objects_8c.html" target="_top" xlink:title=" ">
<polygon fill="white" stroke="#666666" points="2707.5,-134.5 2593.5,-134.5 2593.5,-115.5 2707.5,-115.5 2707.5,-134.5"/>
<text text-anchor="middle" x="2650.5" y="-122.5" font-family="Helvetica,sans-Serif" font-size="10.00">src/render_objects.c</text>
</a>
</g>
</g>
<!-- Node1&#45;&gt;Node35 -->
<g id="edge34_Node000001_Node000035" class="edge">
<title>Node1&#45;&gt;Node35</title>
<g id="a_edge34_Node000001_Node000035"><a xlink:title=" ">
<path fill="none" stroke="#63b8ff" d="M1711.11,-184.9C1848.74,-185.43 2252.63,-182.92 2584.5,-140 2594.61,-138.69 2605.47,-136.66 2615.4,-134.54"/>
<polygon fill="#63b8ff" stroke="#63b8ff" points="1710.92,-181.4 1700.9,-184.85 1710.88,-188.4 1710.92,-181.4"/>
</a>
</g>
</g>
<!-- Node36 -->
<g id="Node000036" class="node">
<title>Node36</title>
<g id="a_Node000036"><a xlink:href="save_8c.html" target="_top" xlink:title=" ">
<polygon fill="white" stroke="#666666" points="2791,-134.5 2726,-134.5 2726,-115.5 2791,-115.5 2791,-134.5"/>
<text text-anchor="middle" x="2758.5" y="-122.5" font-family="Helvetica,sans-Serif" font-size="10.00">src/save.c</text>
</a>
</g>
</g>
<!-- Node1&#45;&gt;Node36 -->
<g id="edge35_Node000001_Node000036" class="edge">
<title>Node1&#45;&gt;Node36</title>
<g id="a_edge35_Node000001_Node000036"><a xlink:title=" ">
<path fill="none" stroke="#63b8ff" d="M1710.7,-184.25C1890.19,-183.04 2519.58,-176.23 2716.5,-140 2723.15,-138.78 2730.19,-136.74 2736.57,-134.59"/>
<polygon fill="#63b8ff" stroke="#63b8ff" points="1710.49,-180.75 1700.52,-184.31 1710.54,-187.75 1710.49,-180.75"/>
</a>
</g>
</g>
<!-- Node37 -->
<g id="Node000037" class="node">
<title>Node37</title>
<g id="a_Node000037"><a xlink:href="spawn__players_8c.html" target="_top" xlink:title=" ">
<polygon fill="white" stroke="#666666" points="2924,-134.5 2809,-134.5 2809,-115.5 2924,-115.5 2924,-134.5"/>
<text text-anchor="middle" x="2866.5" y="-122.5" font-family="Helvetica,sans-Serif" font-size="10.00">src/spawn_players.c</text>
</a>
</g>
</g>
<!-- Node1&#45;&gt;Node37 -->
<g id="edge36_Node000001_Node000037" class="edge">
<title>Node1&#45;&gt;Node37</title>
<g id="a_edge36_Node000001_Node000037"><a xlink:title=" ">
<path fill="none" stroke="#63b8ff" d="M1710.65,-183.71C1898.8,-180.44 2584.59,-166.92 2800.5,-140 2810.73,-138.72 2821.72,-136.67 2831.75,-134.53"/>
<polygon fill="#63b8ff" stroke="#63b8ff" points="1710.46,-180.21 1700.52,-183.88 1710.58,-187.21 1710.46,-180.21"/>
</a>
</g>
</g>
<!-- Node38 -->
<g id="Node000038" class="node">
<title>Node38</title>
<g id="a_Node000038"><a xlink:href="update__objects_8c.html" target="_top" xlink:title=" ">
<polygon fill="white" stroke="#666666" points="3058.5,-134.5 2942.5,-134.5 2942.5,-115.5 3058.5,-115.5 3058.5,-134.5"/>
<text text-anchor="middle" x="3000.5" y="-122.5" font-family="Helvetica,sans-Serif" font-size="10.00">src/update_objects.c</text>
</a>
</g>
</g>
<!-- Node1&#45;&gt;Node38 -->
<g id="edge37_Node000001_Node000038" class="edge">
<title>Node1&#45;&gt;Node38</title>
<g id="a_edge37_Node000001_Node000038"><a xlink:title=" ">
<path fill="none" stroke="#63b8ff" d="M1710.85,-183.91C1912.87,-181.29 2690.16,-169.46 2933.5,-140 2943.88,-138.74 2955.04,-136.7 2965.22,-134.55"/>
<polygon fill="#63b8ff" stroke="#63b8ff" points="1710.52,-180.42 1700.57,-184.05 1710.61,-187.42 1710.52,-180.42"/>
</a>
</g>
</g>
<!-- Node7 -->
<g id="Node000007" class="node">
<title>Node7</title>
<g id="a_Node000007"><a xlink:href="debug_8inc_8c.html" target="_top" xlink:title=" ">
<polygon fill="white" stroke="#666666" points="680.5,-74 558.5,-74 558.5,-55 680.5,-55 680.5,-74"/>
<text text-anchor="middle" x="619.5" y="-62" font-family="Helvetica,sans-Serif" font-size="10.00">src/debug/debug.inc.c</text>
</a>
</g>
</g>
<!-- Node6&#45;&gt;Node7 -->
<g id="edge6_Node000006_Node000007" class="edge">
<title>Node6&#45;&gt;Node7</title>
<g id="a_edge6_Node000006_Node000007"><a xlink:title=" ">
<path fill="none" stroke="#63b8ff" d="M619.5,-105.16C619.5,-94.74 619.5,-82.3 619.5,-74.17"/>
<polygon fill="#63b8ff" stroke="#63b8ff" points="616,-105.37 619.5,-115.37 623,-105.37 616,-105.37"/>
</a>
</g>
</g>
<!-- Node8 -->
<g id="Node000008" class="node">
<title>Node8</title>
<g id="a_Node000008"><a xlink:href="debug_8c.html" target="_top" xlink:title=" ">
<polygon fill="white" stroke="#666666" points="672,-19 567,-19 567,0 672,0 672,-19"/>
<text text-anchor="middle" x="619.5" y="-7" font-family="Helvetica,sans-Serif" font-size="10.00">src/debug/debug.c</text>
</a>
</g>
</g>
<!-- Node7&#45;&gt;Node8 -->
<g id="edge7_Node000007_Node000008" class="edge">
<title>Node7&#45;&gt;Node8</title>
<g id="a_edge7_Node000007_Node000008"><a xlink:title=" ">
<path fill="none" stroke="#63b8ff" d="M619.5,-44.66C619.5,-35.93 619.5,-25.99 619.5,-19.09"/>
<polygon fill="#63b8ff" stroke="#63b8ff" points="616,-44.75 619.5,-54.75 623,-44.75 616,-44.75"/>
</a>
</g>
</g>
<!-- Node21 -->
<g id="Node000021" class="node">
<title>Node21</title>
<g id="a_Node000021"><a xlink:href="Menu_8cpp.html" target="_top" xlink:title=" ">
<polygon fill="white" stroke="#666666" points="2225.5,-74 2109.5,-74 2109.5,-55 2225.5,-55 2225.5,-74"/>
<text text-anchor="middle" x="2167.5" y="-62" font-family="Helvetica,sans-Serif" font-size="10.00">src/port/ui/Menu.cpp</text>
</a>
</g>
</g>
<!-- Node20&#45;&gt;Node21 -->
<g id="edge20_Node000020_Node000021" class="edge">
<title>Node20&#45;&gt;Node21</title>
<g id="a_edge20_Node000020_Node000021"><a xlink:title=" ">
<path fill="none" stroke="#63b8ff" d="M2218.48,-108.72C2205.5,-97.71 2188.44,-83.25 2177.72,-74.17"/>
<polygon fill="#63b8ff" stroke="#63b8ff" points="2216.43,-111.57 2226.32,-115.37 2220.95,-106.23 2216.43,-111.57"/>
</a>
</g>
</g>
<!-- Node22 -->
<g id="Node000022" class="node">
<title>Node22</title>
<g id="a_Node000022"><a xlink:href="PortMenu_8h.html" target="_top" xlink:title=" ">
<polygon fill="white" stroke="#666666" points="2367.5,-74 2243.5,-74 2243.5,-55 2367.5,-55 2367.5,-74"/>
<text text-anchor="middle" x="2305.5" y="-62" font-family="Helvetica,sans-Serif" font-size="10.00">src/port/ui/PortMenu.h</text>
</a>
</g>
</g>
<!-- Node20&#45;&gt;Node22 -->
<g id="edge21_Node000020_Node000022" class="edge">
<title>Node20&#45;&gt;Node22</title>
<g id="a_edge21_Node000020_Node000022"><a xlink:title=" ">
<path fill="none" stroke="#63b8ff" d="M2254.52,-108.72C2267.5,-97.71 2284.56,-83.25 2295.28,-74.17"/>
<polygon fill="#63b8ff" stroke="#63b8ff" points="2252.05,-106.23 2246.68,-115.37 2256.57,-111.57 2252.05,-106.23"/>
</a>
</g>
</g>
<!-- Node23 -->
<g id="Node000023" class="node">
<title>Node23</title>
<g id="a_Node000023"><a xlink:href="ContentBrowser_8cpp.html" target="_top" xlink:title=" ">
<polygon fill="white" stroke="#666666" points="1609.5,-19 1443.5,-19 1443.5,0 1609.5,0 1609.5,-19"/>
<text text-anchor="middle" x="1526.5" y="-7" font-family="Helvetica,sans-Serif" font-size="10.00">src/port/ui/ContentBrowser.cpp</text>
</a>
</g>
</g>
<!-- Node22&#45;&gt;Node23 -->
<g id="edge22_Node000022_Node000023" class="edge">
<title>Node22&#45;&gt;Node23</title>
<g id="a_edge22_Node000022_Node000023"><a xlink:title=" ">
<path fill="none" stroke="#63b8ff" d="M2232.96,-54.92C1959.61,-30.9 1888.63,-39.37 1618.5,-19 1615.62,-18.78 1612.69,-18.55 1609.73,-18.32"/>
<polygon fill="#63b8ff" stroke="#63b8ff" points="2232.91,-58.43 2243.18,-55.82 2233.53,-51.45 2232.91,-58.43"/>
</a>
</g>
</g>
<!-- Node24 -->
<g id="Node000024" class="node">
<title>Node24</title>
<g id="a_Node000024"><a xlink:href="FreecamWindow_8cpp.html" target="_top" xlink:title=" ">
<polygon fill="white" stroke="#666666" points="1797,-19 1628,-19 1628,0 1797,0 1797,-19"/>
<text text-anchor="middle" x="1712.5" y="-7" font-family="Helvetica,sans-Serif" font-size="10.00">src/port/ui/FreecamWindow.cpp</text>
</a>
</g>
</g>
<!-- Node22&#45;&gt;Node24 -->
<g id="edge23_Node000022_Node000024" class="edge">
<title>Node22&#45;&gt;Node24</title>
<g id="a_edge23_Node000022_Node000024"><a xlink:title=" ">
<path fill="none" stroke="#63b8ff" d="M2233.1,-54.89C2042.46,-35.62 1992.85,-35.42 1805.5,-19 1802.75,-18.76 1799.96,-18.51 1797.14,-18.26"/>
<polygon fill="#63b8ff" stroke="#63b8ff" points="2232.87,-58.38 2243.18,-55.91 2233.58,-51.42 2232.87,-58.38"/>
</a>
</g>
</g>
<!-- Node25 -->
<g id="Node000025" class="node">
<title>Node25</title>
<g id="a_Node000025"><a xlink:href="ImguiUI_8cpp.html" target="_top" xlink:title=" ">
<polygon fill="white" stroke="#666666" points="1942,-19 1815,-19 1815,0 1942,0 1942,-19"/>
<text text-anchor="middle" x="1878.5" y="-7" font-family="Helvetica,sans-Serif" font-size="10.00">src/port/ui/ImguiUI.cpp</text>
</a>
</g>
</g>
<!-- Node22&#45;&gt;Node25 -->
<g id="edge24_Node000022_Node000025" class="edge">
<title>Node22&#45;&gt;Node25</title>
<g id="a_edge24_Node000022_Node000025"><a xlink:title=" ">
<path fill="none" stroke="#63b8ff" d="M2233.22,-54.53C2151.56,-44.39 2019.93,-28.06 1942.06,-18.39"/>
<polygon fill="#63b8ff" stroke="#63b8ff" points="2233.06,-58.03 2243.41,-55.79 2233.92,-51.09 2233.06,-58.03"/>
</a>
</g>
</g>
<!-- Node26 -->
<g id="Node000026" class="node">
<title>Node26</title>
<g id="a_Node000026"><a xlink:href="MultiplayerWindow_8cpp.html" target="_top" xlink:title=" ">
<polygon fill="white" stroke="#666666" points="2142.5,-19 1960.5,-19 1960.5,0 2142.5,0 2142.5,-19"/>
<text text-anchor="middle" x="2051.5" y="-7" font-family="Helvetica,sans-Serif" font-size="10.00">src/port/ui/MultiplayerWindow.cpp</text>
</a>
</g>
</g>
<!-- Node22&#45;&gt;Node26 -->
<g id="edge25_Node000022_Node000026" class="edge">
<title>Node22&#45;&gt;Node26</title>
<g id="a_edge25_Node000022_Node000026"><a xlink:title=" ">
<path fill="none" stroke="#63b8ff" d="M2254.89,-52.94C2207.28,-43.01 2136.88,-28.31 2092.63,-19.08"/>
<polygon fill="#63b8ff" stroke="#63b8ff" points="2254.19,-56.37 2264.69,-54.98 2255.62,-49.52 2254.19,-56.37"/>
</a>
</g>
</g>
<!-- Node27 -->
<g id="Node000027" class="node">
<title>Node27</title>
<g id="a_Node000027"><a xlink:href="PortMenu_8cpp.html" target="_top" xlink:title=" ">
<polygon fill="white" stroke="#666666" points="2296,-19 2161,-19 2161,0 2296,0 2296,-19"/>
<text text-anchor="middle" x="2228.5" y="-7" font-family="Helvetica,sans-Serif" font-size="10.00">src/port/ui/PortMenu.cpp</text>
</a>
</g>
</g>
<!-- Node22&#45;&gt;Node27 -->
<g id="edge26_Node000022_Node000027" class="edge">
<title>Node22&#45;&gt;Node27</title>
<g id="a_edge26_Node000022_Node000027"><a xlink:title=" ">
<path fill="none" stroke="#63b8ff" d="M2284.65,-49.15C2270.74,-39.57 2252.89,-27.29 2241.1,-19.17"/>
<polygon fill="#63b8ff" stroke="#63b8ff" points="2282.91,-52.2 2293.13,-54.98 2286.88,-46.43 2282.91,-52.2"/>
</a>
</g>
</g>
<!-- Node28 -->
<g id="Node000028" class="node">
<title>Node28</title>
<g id="a_Node000028"><a xlink:href="Properties_8cpp.html" target="_top" xlink:title=" ">
<polygon fill="white" stroke="#666666" points="2452.5,-19 2314.5,-19 2314.5,0 2452.5,0 2452.5,-19"/>
<text text-anchor="middle" x="2383.5" y="-7" font-family="Helvetica,sans-Serif" font-size="10.00">src/port/ui/Properties.cpp</text>
</a>
</g>
</g>
<!-- Node22&#45;&gt;Node28 -->
<g id="edge27_Node000022_Node000028" class="edge">
<title>Node22&#45;&gt;Node28</title>
<g id="a_edge27_Node000022_Node000028"><a xlink:title=" ">
<path fill="none" stroke="#63b8ff" d="M2326.62,-49.15C2340.71,-39.57 2358.79,-27.29 2370.74,-19.17"/>
<polygon fill="#63b8ff" stroke="#63b8ff" points="2324.34,-46.47 2318.03,-54.98 2328.27,-52.26 2324.34,-46.47"/>
</a>
</g>
</g>
<!-- Node29 -->
<g id="Node000029" class="node">
<title>Node29</title>
<g id="a_Node000029"><a xlink:href="ResolutionEditor_8cpp.html" target="_top" xlink:title=" ">
<polygon fill="white" stroke="#666666" points="2638.5,-19 2470.5,-19 2470.5,0 2638.5,0 2638.5,-19"/>
<text text-anchor="middle" x="2554.5" y="-7" font-family="Helvetica,sans-Serif" font-size="10.00">src/port/ui/ResolutionEditor.cpp</text>
</a>
</g>
</g>
<!-- Node22&#45;&gt;Node29 -->
<g id="edge28_Node000022_Node000029" class="edge">
<title>Node22&#45;&gt;Node29</title>
<g id="a_edge28_Node000022_Node000029"><a xlink:title=" ">
<path fill="none" stroke="#63b8ff" d="M2355.4,-52.88C2402.07,-42.94 2470.89,-28.3 2514.18,-19.08"/>
<polygon fill="#63b8ff" stroke="#63b8ff" points="2354.56,-49.48 2345.51,-54.98 2356.02,-56.33 2354.56,-49.48"/>
</a>
</g>
</g>
<!-- Node30 -->
<g id="Node000030" class="node">
<title>Node30</title>
<g id="a_Node000030"><a xlink:href="SceneExplorer_8cpp.html" target="_top" xlink:title=" ">
<polygon fill="white" stroke="#666666" points="2814.5,-19 2656.5,-19 2656.5,0 2814.5,0 2814.5,-19"/>
<text text-anchor="middle" x="2735.5" y="-7" font-family="Helvetica,sans-Serif" font-size="10.00">src/port/ui/SceneExplorer.cpp</text>
</a>
</g>
</g>
<!-- Node22&#45;&gt;Node30 -->
<g id="edge29_Node000022_Node000030" class="edge">
<title>Node22&#45;&gt;Node30</title>
<g id="a_edge29_Node000022_Node000030"><a xlink:title=" ">
<path fill="none" stroke="#63b8ff" d="M2377.61,-54.61C2458.01,-44.7 2587.14,-28.79 2666.33,-19.03"/>
<polygon fill="#63b8ff" stroke="#63b8ff" points="2377.06,-51.15 2367.57,-55.85 2377.92,-58.1 2377.06,-51.15"/>
</a>
</g>
</g>
<!-- Node31 -->
<g id="Node000031" class="node">
<title>Node31</title>
<g id="a_Node000031"><a xlink:href="Tools_8cpp.html" target="_top" xlink:title=" ">
<polygon fill="white" stroke="#666666" points="2946,-19 2833,-19 2833,0 2946,0 2946,-19"/>
<text text-anchor="middle" x="2889.5" y="-7" font-family="Helvetica,sans-Serif" font-size="10.00">src/port/ui/Tools.cpp</text>
</a>
</g>
</g>
<!-- Node22&#45;&gt;Node31 -->
<g id="edge30_Node000022_Node000031" class="edge">
<title>Node22&#45;&gt;Node31</title>
<g id="a_edge30_Node000022_Node000031"><a xlink:title=" ">
<path fill="none" stroke="#63b8ff" d="M2377.79,-58.26C2477.99,-50.78 2664.72,-36.04 2823.5,-19 2826.6,-18.67 2829.78,-18.31 2832.99,-17.94"/>
<polygon fill="#63b8ff" stroke="#63b8ff" points="2377.49,-54.77 2367.78,-59.01 2378.01,-61.76 2377.49,-54.77"/>
</a>
</g>
</g>
<!-- Node32 -->
<g id="Node000032" class="node">
<title>Node32</title>
<g id="a_Node000032"><a xlink:href="TrackProperties_8cpp.html" target="_top" xlink:title=" ">
<polygon fill="white" stroke="#666666" points="3128.5,-19 2964.5,-19 2964.5,0 3128.5,0 3128.5,-19"/>
<text text-anchor="middle" x="3046.5" y="-7" font-family="Helvetica,sans-Serif" font-size="10.00">src/port/ui/TrackProperties.cpp</text>
</a>
</g>
</g>
<!-- Node22&#45;&gt;Node32 -->
<g id="edge31_Node000022_Node000032" class="edge">
<title>Node22&#45;&gt;Node32</title>
<g id="a_edge31_Node000022_Node000032"><a xlink:title=" ">
<path fill="none" stroke="#63b8ff" d="M2378.01,-59.12C2498.13,-51.74 2745.99,-35.95 2955.5,-19 2958.35,-18.77 2961.24,-18.53 2964.17,-18.28"/>
<polygon fill="#63b8ff" stroke="#63b8ff" points="2377.6,-55.64 2367.83,-59.75 2378.03,-62.63 2377.6,-55.64"/>
</a>
</g>
</g>
</g>
</svg>

<g id="navigator" transform="translate(0 0)" fill="#404254">
  <rect fill="#f2f5e9" fill-opacity="0.5" stroke="#606060" stroke-width=".5" x="0" y="0" width="60" height="60"/>
  <use id="zoomplus" xlink:href="#zoomPlus" x="17" y="9" onmousedown="handleZoom(evt,'in')"/>
  <use id="zoomminus" xlink:href="#zoomMin" x="42" y="9" onmousedown="handleZoom(evt,'out')"/>
  <use id="reset" xlink:href="#resetDef" x="30" y="36" onmousedown="handleReset()"/>
   <use id="arrowup" xlink:href="#arrowUp" x="0" y="0" onmousedown="handlePan(0,-1)"/>
  <use id="arrowright" xlink:href="#arrowRight" x="0" y="0" onmousedown="handlePan(1,0)"/>
  <use id="arrowdown" xlink:href="#arrowDown" x="0" y="0" onmousedown="handlePan(0,1)"/>
  <use id="arrowleft" xlink:href="#arrowLeft" x="0" y="0" onmousedown="handlePan(-1,0)"/>
</g>
<svg viewBox="0 0 15 15" width="100%" height="30px" preserveAspectRatio="xMaxYMin meet">
 <g id="arrow_out" transform="scale(0.3 0.3)">
  <a xlink:href="menus_8h__dep__incl_org.svg" target="_base">
   <rect id="button" ry="5" rx="5" y="6" x="6" height="38" width="38"
        fill="#f2f5e9" fill-opacity="0.5" stroke="#606060" stroke-width="1.0"/>
   <path id="arrow"
     d="M 11.500037,31.436501 C 11.940474,20.09759 22.043105,11.32322 32.158766,21.979434 L 37.068811,17.246167 C 37.068811,17.246167 37.088388,32 37.088388,32 L 22.160133,31.978069 C 22.160133,31.978069 26.997745,27.140456 26.997745,27.140456 C 18.528582,18.264221 13.291696,25.230495 11.500037,31.436501 z"
     style="fill:#404040;"/>
  </a>
 </g>
</svg>

<style type='text/css'>
<![CDATA[
[data-mouse-over-selected='false'] { opacity: 0.7; }
[data-mouse-over-selected='true']  { opacity: 1.0; }
]]>
</style>
<script type="application/ecmascript"><![CDATA[
document.addEventListener('DOMContentLoaded', (event) => {
  highlightEdges();
  highlightAdjacentNodes();
});
]]></script>
</svg>
