<?xml version="1.0" encoding="UTF-8" standalone="no"?>
<!DOCTYPE svg PUBLIC "-//W3C//DTD SVG 1.1//EN"
 "http://www.w3.org/Graphics/SVG/1.1/DTD/svg11.dtd">
<!-- Generated by graphviz version 2.43.0 (0)
 -->
<!-- Title: func_800A0FA4 Pages: 1 -->
<svg width="715pt" height="343pt"
 viewBox="0.00 0.00 715.00 343.00" xmlns="http://www.w3.org/2000/svg" xmlns:xlink="http://www.w3.org/1999/xlink">
<g id="graph0" class="graph" transform="scale(1 1) rotate(0) translate(4 339)">
<title>func_800A0FA4</title>
<!-- Node1 -->
<g id="Node000001" class="node">
<title>Node1</title>
<g id="a_Node000001"><a xlink:title=" ">
<polygon fill="#999999" stroke="#666666" points="91,-130 0,-130 0,-111 91,-111 91,-130"/>
<text text-anchor="middle" x="45.5" y="-118" font-family="Helvetica,sans-Serif" font-size="10.00">func_800A0FA4</text>
</a>
</g>
</g>
<!-- Node2 -->
<g id="Node000002" class="node">
<title>Node2</title>
<g id="a_Node000002"><a xlink:href="menu__items_8c.html#a1a33a95632b97a1ce9511c4f9f6fd0d7" target="_top" xlink:title=" ">
<polygon fill="white" stroke="#666666" points="237,-130 144,-130 144,-111 237,-111 237,-130"/>
<text text-anchor="middle" x="190.5" y="-118" font-family="Helvetica,sans-Serif" font-size="10.00">func_8009BC9C</text>
</a>
</g>
</g>
<!-- Node1&#45;&gt;Node2 -->
<g id="edge1_Node000001_Node000002" class="edge">
<title>Node1&#45;&gt;Node2</title>
<g id="a_edge1_Node000001_Node000002"><a xlink:title=" ">
<path fill="none" stroke="#63b8ff" d="M91.35,-120.5C104.8,-120.5 119.71,-120.5 133.77,-120.5"/>
<polygon fill="#63b8ff" stroke="#63b8ff" points="133.82,-124 143.82,-120.5 133.82,-117 133.82,-124"/>
</a>
</g>
</g>
<!-- Node12 -->
<g id="Node000012" class="node">
<title>Node12</title>
<g id="a_Node000012"><a xlink:href="menu__items_8c.html#a2d2758c3a87de891a40840727bef3306" target="_top" xlink:title=" ">
<polygon fill="white" stroke="#666666" points="442,-19 290,-19 290,0 442,0 442,-19"/>
<text text-anchor="middle" x="366" y="-7" font-family="Helvetica,sans-Serif" font-size="10.00">segmented_to_virtual_dupe</text>
</a>
</g>
</g>
<!-- Node1&#45;&gt;Node12 -->
<g id="edge19_Node000001_Node000012" class="edge">
<title>Node1&#45;&gt;Node12</title>
<g id="a_edge19_Node000001_Node000012"><a xlink:title=" ">
<path fill="none" stroke="#63b8ff" d="M68.65,-110.93C111.03,-92.86 206.78,-53.26 290,-27.5 296.86,-25.38 304.14,-23.35 311.35,-21.48"/>
<polygon fill="#63b8ff" stroke="#63b8ff" points="312.27,-24.86 321.12,-19.03 310.56,-18.07 312.27,-24.86"/>
</a>
</g>
</g>
<!-- Node13 -->
<g id="Node000013" class="node">
<title>Node13</title>
<g id="a_Node000013"><a xlink:href="menu__items_8c.html#a6ae9a7914726211a0149ff3ff8c2d70d" target="_top" xlink:title=" ">
<polygon fill="white" stroke="#666666" points="254,-241 127,-241 127,-222 254,-222 254,-241"/>
<text text-anchor="middle" x="190.5" y="-229" font-family="Helvetica,sans-Serif" font-size="10.00">render_menu_textures</text>
</a>
</g>
</g>
<!-- Node1&#45;&gt;Node13 -->
<g id="edge12_Node000001_Node000013" class="edge">
<title>Node1&#45;&gt;Node13</title>
<g id="a_edge12_Node000001_Node000013"><a xlink:title=" ">
<path fill="none" stroke="#63b8ff" d="M59.19,-130.35C83.95,-149.57 138.9,-192.23 168.93,-215.53"/>
<polygon fill="#63b8ff" stroke="#63b8ff" points="167,-218.46 177.04,-221.83 171.29,-212.93 167,-218.46"/>
</a>
</g>
</g>
<!-- Node3 -->
<g id="Node000003" class="node">
<title>Node3</title>
<g id="a_Node000003"><a xlink:href="menu__items_8h.html#aab23f26f9961699108a8c6d5e8157ced" target="_top" xlink:title=" ">
<polygon fill="white" stroke="#666666" points="411.5,-93 320.5,-93 320.5,-74 411.5,-74 411.5,-93"/>
<text text-anchor="middle" x="366" y="-81" font-family="Helvetica,sans-Serif" font-size="10.00">func_80097274</text>
</a>
</g>
</g>
<!-- Node2&#45;&gt;Node3 -->
<g id="edge2_Node000002_Node000003" class="edge">
<title>Node2&#45;&gt;Node3</title>
<g id="a_edge2_Node000002_Node000003"><a xlink:title=" ">
<path fill="none" stroke="#63b8ff" d="M236.18,-110.97C258.85,-106.14 286.57,-100.23 310.48,-95.13"/>
<polygon fill="#63b8ff" stroke="#63b8ff" points="311.42,-98.5 320.47,-93 309.96,-91.66 311.42,-98.5"/>
</a>
</g>
</g>
<!-- Node4 -->
<g id="Node000004" class="node">
<title>Node4</title>
<g id="a_Node000004"><a xlink:href="menu__items_8c.html#a6aa04c603cd7b877a5009a97a0b41ed3" target="_top" xlink:title=" ">
<polygon fill="white" stroke="#666666" points="412,-167 320,-167 320,-148 412,-148 412,-167"/>
<text text-anchor="middle" x="366" y="-155" font-family="Helvetica,sans-Serif" font-size="10.00">func_80097A14</text>
</a>
</g>
</g>
<!-- Node2&#45;&gt;Node4 -->
<g id="edge3_Node000002_Node000004" class="edge">
<title>Node2&#45;&gt;Node4</title>
<g id="a_edge3_Node000002_Node000004"><a xlink:title=" ">
<path fill="none" stroke="#63b8ff" d="M236.18,-130.03C258.76,-134.84 286.35,-140.73 310.2,-145.81"/>
<polygon fill="#63b8ff" stroke="#63b8ff" points="309.66,-149.28 320.17,-147.94 311.12,-142.43 309.66,-149.28"/>
</a>
</g>
</g>
<!-- Node6 -->
<g id="Node000006" class="node">
<title>Node6</title>
<g id="a_Node000006"><a xlink:href="menu__items_8c.html#aeb1b8324b9920cfe271a1d5cc64797f4" target="_top" xlink:title=" ">
<polygon fill="white" stroke="#666666" points="412,-56 320,-56 320,-37 412,-37 412,-56"/>
<text text-anchor="middle" x="366" y="-44" font-family="Helvetica,sans-Serif" font-size="10.00">func_80097AE4</text>
</a>
</g>
</g>
<!-- Node2&#45;&gt;Node6 -->
<g id="edge5_Node000002_Node000006" class="edge">
<title>Node2&#45;&gt;Node6</title>
<g id="a_edge5_Node000002_Node000006"><a xlink:title=" ">
<path fill="none" stroke="#63b8ff" d="M205.55,-110.82C224.1,-98.43 258.17,-77.08 290,-64.5 296.36,-61.99 303.17,-59.76 309.99,-57.81"/>
<polygon fill="#63b8ff" stroke="#63b8ff" points="311.19,-61.11 319.94,-55.14 309.38,-54.35 311.19,-61.11"/>
</a>
</g>
</g>
<!-- Node7 -->
<g id="Node000007" class="node">
<title>Node7</title>
<g id="a_Node000007"><a xlink:href="menu__items_8c.html#a30ad499b5aa8caea92818f6b4aa27ad0" target="_top" xlink:title=" ">
<polygon fill="white" stroke="#666666" points="411.5,-130 320.5,-130 320.5,-111 411.5,-111 411.5,-130"/>
<text text-anchor="middle" x="366" y="-118" font-family="Helvetica,sans-Serif" font-size="10.00">func_80097E58</text>
</a>
</g>
</g>
<!-- Node2&#45;&gt;Node7 -->
<g id="edge6_Node000002_Node000007" class="edge">
<title>Node2&#45;&gt;Node7</title>
<g id="a_edge6_Node000002_Node000007"><a xlink:title=" ">
<path fill="none" stroke="#63b8ff" d="M237.09,-120.5C259.47,-120.5 286.63,-120.5 310.14,-120.5"/>
<polygon fill="#63b8ff" stroke="#63b8ff" points="310.32,-124 320.32,-120.5 310.32,-117 310.32,-124"/>
</a>
</g>
</g>
<!-- Node8 -->
<g id="Node000008" class="node">
<title>Node8</title>
<g id="a_Node000008"><a xlink:href="menu__items_8c.html#a6061a0dbb9b34a45fb1620c6c1d7f73c" target="_top" xlink:title=" ">
<polygon fill="white" stroke="#666666" points="412,-204 320,-204 320,-185 412,-185 412,-204"/>
<text text-anchor="middle" x="366" y="-192" font-family="Helvetica,sans-Serif" font-size="10.00">func_8009B8C4</text>
</a>
</g>
</g>
<!-- Node2&#45;&gt;Node8 -->
<g id="edge7_Node000002_Node000008" class="edge">
<title>Node2&#45;&gt;Node8</title>
<g id="a_edge7_Node000002_Node000008"><a xlink:title=" ">
<path fill="none" stroke="#63b8ff" d="M205.92,-130.15C224.6,-142.26 258.52,-162.97 290,-175.5 296.37,-178.04 303.19,-180.32 310.01,-182.34"/>
<polygon fill="#63b8ff" stroke="#63b8ff" points="309.4,-185.8 319.97,-185.13 311.29,-179.06 309.4,-185.8"/>
</a>
</g>
</g>
<!-- Node9 -->
<g id="Node000009" class="node">
<title>Node9</title>
<g id="a_Node000009"><a xlink:href="GBIMiddleware_8cpp.html#a4ecc44e3c6f1ca5a6b4a20c41d3bd2d2" target="_top" xlink:title=" ">
<polygon fill="white" stroke="#666666" points="410.5,-241 321.5,-241 321.5,-222 410.5,-222 410.5,-241"/>
<text text-anchor="middle" x="366" y="-229" font-family="Helvetica,sans-Serif" font-size="10.00">gSPDisplayList</text>
</a>
</g>
</g>
<!-- Node2&#45;&gt;Node9 -->
<g id="edge8_Node000002_Node000009" class="edge">
<title>Node2&#45;&gt;Node9</title>
<g id="a_edge8_Node000002_Node000009"><a xlink:title=" ">
<path fill="none" stroke="#63b8ff" d="M199.02,-130.25C214.13,-149.13 250.16,-190.75 290,-212.5 296.64,-216.12 303.99,-219.07 311.41,-221.47"/>
<polygon fill="#63b8ff" stroke="#63b8ff" points="310.58,-224.87 321.16,-224.31 312.54,-218.15 310.58,-224.87"/>
</a>
</g>
</g>
<!-- Node2&#45;&gt;Node12 -->
<g id="edge11_Node000002_Node000012" class="edge">
<title>Node2&#45;&gt;Node12</title>
<g id="a_edge11_Node000002_Node000012"><a xlink:title=" ">
<path fill="none" stroke="#63b8ff" d="M201.71,-110.72C226.38,-87.14 287.36,-28.93 290,-27.5 293.48,-25.62 297.15,-23.93 300.93,-22.42"/>
<polygon fill="#63b8ff" stroke="#63b8ff" points="302.24,-25.67 310.48,-19.01 299.89,-19.07 302.24,-25.67"/>
</a>
</g>
</g>
<!-- Node5 -->
<g id="Node000005" class="node">
<title>Node5</title>
<g id="a_Node000005"><a xlink:href="menu__items_8c.html#ad9490c92b9af2d9c1cc307fb09bcb7b6" target="_top" xlink:title=" ">
<polygon fill="white" stroke="#666666" points="598,-186 507,-186 507,-167 598,-167 598,-186"/>
<text text-anchor="middle" x="552.5" y="-174" font-family="Helvetica,sans-Serif" font-size="10.00">func_80095E10</text>
</a>
</g>
</g>
<!-- Node4&#45;&gt;Node5 -->
<g id="edge4_Node000004_Node000005" class="edge">
<title>Node4&#45;&gt;Node5</title>
<g id="a_edge4_Node000004_Node000005"><a xlink:title=" ">
<path fill="none" stroke="#63b8ff" d="M412.13,-162.15C437.67,-164.78 469.8,-168.09 496.77,-170.86"/>
<polygon fill="#63b8ff" stroke="#63b8ff" points="496.53,-174.36 506.83,-171.9 497.24,-167.39 496.53,-174.36"/>
</a>
</g>
</g>
<!-- Node10 -->
<g id="Node000010" class="node">
<title>Node10</title>
<g id="a_Node000010"><a xlink:href="Engine_8cpp.html#a223c8bc63f228dc11177515e38eff2db" target="_top" xlink:title=" ">
<polygon fill="white" stroke="#666666" points="627,-241 478,-241 478,-222 627,-222 627,-241"/>
<text text-anchor="middle" x="552.5" y="-229" font-family="Helvetica,sans-Serif" font-size="10.00">GameEngine_OTRSigCheck</text>
</a>
</g>
</g>
<!-- Node9&#45;&gt;Node10 -->
<g id="edge9_Node000009_Node000010" class="edge">
<title>Node9&#45;&gt;Node10</title>
<g id="a_edge9_Node000009_Node000010"><a xlink:title=" ">
<path fill="none" stroke="#63b8ff" d="M410.72,-231.5C427.78,-231.5 447.94,-231.5 467.59,-231.5"/>
<polygon fill="#63b8ff" stroke="#63b8ff" points="467.79,-235 477.79,-231.5 467.79,-228 467.79,-235"/>
</a>
</g>
</g>
<!-- Node11 -->
<g id="Node000011" class="node">
<title>Node11</title>
<g id="a_Node000011"><a xlink:href="string_8c.html#a008e171a518fe0e0352f31b245e03875" target="_top" xlink:title=" ">
<polygon fill="white" stroke="#666666" points="707,-241 663,-241 663,-222 707,-222 707,-241"/>
<text text-anchor="middle" x="685" y="-229" font-family="Helvetica,sans-Serif" font-size="10.00">strlen</text>
</a>
</g>
</g>
<!-- Node10&#45;&gt;Node11 -->
<g id="edge10_Node000010_Node000011" class="edge">
<title>Node10&#45;&gt;Node11</title>
<g id="a_edge10_Node000010_Node000011"><a xlink:title=" ">
<path fill="none" stroke="#63b8ff" d="M627.14,-231.5C636.12,-231.5 644.89,-231.5 652.75,-231.5"/>
<polygon fill="#63b8ff" stroke="#63b8ff" points="652.83,-235 662.83,-231.5 652.83,-228 652.83,-235"/>
</a>
</g>
</g>
<!-- Node13&#45;&gt;Node5 -->
<g id="edge13_Node000013_Node000005" class="edge">
<title>Node13&#45;&gt;Node5</title>
<g id="a_edge13_Node000013_Node000005"><a xlink:title=" ">
<path fill="none" stroke="#63b8ff" d="M217.32,-241.04C264.23,-256.78 365.68,-283.33 442,-250.5 463.37,-241.31 459.26,-226.28 478,-212.5 489.86,-203.78 504.16,-196.22 516.98,-190.32"/>
<polygon fill="#63b8ff" stroke="#63b8ff" points="518.7,-193.38 526.43,-186.13 515.87,-186.98 518.7,-193.38"/>
</a>
</g>
</g>
<!-- Node13&#45;&gt;Node8 -->
<g id="edge17_Node000013_Node000008" class="edge">
<title>Node13&#45;&gt;Node8</title>
<g id="a_edge17_Node000013_Node000008"><a xlink:title=" ">
<path fill="none" stroke="#63b8ff" d="M236.18,-221.97C258.76,-217.16 286.35,-211.27 310.2,-206.19"/>
<polygon fill="#63b8ff" stroke="#63b8ff" points="311.12,-209.57 320.17,-204.06 309.66,-202.72 311.12,-209.57"/>
</a>
</g>
</g>
<!-- Node13&#45;&gt;Node9 -->
<g id="edge18_Node000013_Node000009" class="edge">
<title>Node13&#45;&gt;Node9</title>
<g id="a_edge18_Node000013_Node000009"><a xlink:title=" ">
<path fill="none" stroke="#63b8ff" d="M254.14,-231.5C272.89,-231.5 293.27,-231.5 311.38,-231.5"/>
<polygon fill="#63b8ff" stroke="#63b8ff" points="311.47,-235 321.47,-231.5 311.47,-228 311.47,-235"/>
</a>
</g>
</g>
<!-- Node14 -->
<g id="Node000014" class="node">
<title>Node14</title>
<g id="a_Node000014"><a xlink:href="menu__items_8c.html#aef2b6b221f29f2caa6f68e11b3e7df34" target="_top" xlink:title=" ">
<polygon fill="white" stroke="#666666" points="412,-317 320,-317 320,-298 412,-298 412,-317"/>
<text text-anchor="middle" x="366" y="-305" font-family="Helvetica,sans-Serif" font-size="10.00">func_800987D0</text>
</a>
</g>
</g>
<!-- Node13&#45;&gt;Node14 -->
<g id="edge14_Node000013_Node000014" class="edge">
<title>Node13&#45;&gt;Node14</title>
<g id="a_edge14_Node000013_Node000014"><a xlink:title=" ">
<path fill="none" stroke="#63b8ff" d="M207.46,-241.05C226.59,-252.23 259.87,-270.84 290,-283.5 299.93,-287.67 310.86,-291.55 321.22,-294.92"/>
<polygon fill="#63b8ff" stroke="#63b8ff" points="320.35,-298.32 330.94,-297.99 322.46,-291.64 320.35,-298.32"/>
</a>
</g>
</g>
<!-- Node15 -->
<g id="Node000015" class="node">
<title>Node15</title>
<g id="a_Node000015"><a xlink:href="math__util_8c.html#ae69cbf5c8d4b3b0dba2d7b4d4673689f" target="_top" xlink:title=" ">
<polygon fill="white" stroke="#666666" points="571.5,-335 533.5,-335 533.5,-316 571.5,-316 571.5,-335"/>
<text text-anchor="middle" x="552.5" y="-323" font-family="Helvetica,sans-Serif" font-size="10.00">coss</text>
</a>
</g>
</g>
<!-- Node14&#45;&gt;Node15 -->
<g id="edge15_Node000014_Node000015" class="edge">
<title>Node14&#45;&gt;Node15</title>
<g id="a_edge15_Node000014_Node000015"><a xlink:title=" ">
<path fill="none" stroke="#63b8ff" d="M412.13,-311.9C446.91,-315.3 493.89,-319.88 523.45,-322.76"/>
<polygon fill="#63b8ff" stroke="#63b8ff" points="523.2,-326.26 533.49,-323.74 523.88,-319.29 523.2,-326.26"/>
</a>
</g>
</g>
<!-- Node16 -->
<g id="Node000016" class="node">
<title>Node16</title>
<g id="a_Node000016"><a xlink:href="math__util_8c.html#a19ed3bd78fd2d3e2bd0a29f6caf48545" target="_top" xlink:title=" ">
<polygon fill="white" stroke="#666666" points="570.5,-298 534.5,-298 534.5,-279 570.5,-279 570.5,-298"/>
<text text-anchor="middle" x="552.5" y="-286" font-family="Helvetica,sans-Serif" font-size="10.00">sins</text>
</a>
</g>
</g>
<!-- Node14&#45;&gt;Node16 -->
<g id="edge16_Node000014_Node000016" class="edge">
<title>Node14&#45;&gt;Node16</title>
<g id="a_edge16_Node000014_Node000016"><a xlink:title=" ">
<path fill="none" stroke="#63b8ff" d="M412.13,-302.85C447.29,-299.23 494.92,-294.33 524.41,-291.29"/>
<polygon fill="#63b8ff" stroke="#63b8ff" points="524.81,-294.77 534.39,-290.26 524.09,-287.8 524.81,-294.77"/>
</a>
</g>
</g>
</g>
</svg>
