<?xml version="1.0" encoding="UTF-8" standalone="no"?>
<!DOCTYPE svg PUBLIC "-//W3C//DTD SVG 1.1//EN"
 "http://www.w3.org/Graphics/SVG/1.1/DTD/svg11.dtd">
<!-- Generated by graphviz version 2.43.0 (0)
 -->
<!-- Title: func_8009BC9C Pages: 1 -->
<svg width="554pt" height="249pt"
 viewBox="0.00 0.00 554.00 249.00" xmlns="http://www.w3.org/2000/svg" xmlns:xlink="http://www.w3.org/1999/xlink">
<g id="graph0" class="graph" transform="scale(1 1) rotate(0) translate(4 245)">
<title>func_8009BC9C</title>
<!-- Node1 -->
<g id="Node000001" class="node">
<title>Node1</title>
<g id="a_Node000001"><a xlink:title=" ">
<polygon fill="#999999" stroke="#666666" points="93,-130 0,-130 0,-111 93,-111 93,-130"/>
<text text-anchor="middle" x="46.5" y="-118" font-family="Helvetica,sans-Serif" font-size="10.00">func_8009BC9C</text>
</a>
</g>
</g>
<!-- Node2 -->
<g id="Node000002" class="node">
<title>Node2</title>
<g id="a_Node000002"><a xlink:href="menu__items_8h.html#aab23f26f9961699108a8c6d5e8157ced" target="_top" xlink:title=" ">
<polygon fill="white" stroke="#666666" points="250.5,-241 159.5,-241 159.5,-222 250.5,-222 250.5,-241"/>
<text text-anchor="middle" x="205" y="-229" font-family="Helvetica,sans-Serif" font-size="10.00">func_80097274</text>
</a>
</g>
</g>
<!-- Node1&#45;&gt;Node2 -->
<g id="edge1_Node000001_Node000002" class="edge">
<title>Node1&#45;&gt;Node2</title>
<g id="a_edge1_Node000001_Node000002"><a xlink:title=" ">
<path fill="none" stroke="#63b8ff" d="M53.07,-130.14C64.64,-149.23 93.17,-191.86 129,-213.5 135.3,-217.31 142.36,-220.31 149.56,-222.68"/>
<polygon fill="#63b8ff" stroke="#63b8ff" points="148.82,-226.11 159.4,-225.53 150.77,-219.38 148.82,-226.11"/>
</a>
</g>
</g>
<!-- Node3 -->
<g id="Node000003" class="node">
<title>Node3</title>
<g id="a_Node000003"><a xlink:href="menu__items_8c.html#a6aa04c603cd7b877a5009a97a0b41ed3" target="_top" xlink:title=" ">
<polygon fill="white" stroke="#666666" points="251,-204 159,-204 159,-185 251,-185 251,-204"/>
<text text-anchor="middle" x="205" y="-192" font-family="Helvetica,sans-Serif" font-size="10.00">func_80097A14</text>
</a>
</g>
</g>
<!-- Node1&#45;&gt;Node3 -->
<g id="edge2_Node000001_Node000003" class="edge">
<title>Node1&#45;&gt;Node3</title>
<g id="a_edge2_Node000001_Node000003"><a xlink:title=" ">
<path fill="none" stroke="#63b8ff" d="M58.57,-130.1C73.55,-142.6 101.55,-164.28 129,-176.5 135.25,-179.28 141.99,-181.67 148.77,-183.71"/>
<polygon fill="#63b8ff" stroke="#63b8ff" points="148.12,-187.16 158.7,-186.46 149.99,-180.41 148.12,-187.16"/>
</a>
</g>
</g>
<!-- Node5 -->
<g id="Node000005" class="node">
<title>Node5</title>
<g id="a_Node000005"><a xlink:href="menu__items_8c.html#aeb1b8324b9920cfe271a1d5cc64797f4" target="_top" xlink:title=" ">
<polygon fill="white" stroke="#666666" points="251,-167 159,-167 159,-148 251,-148 251,-167"/>
<text text-anchor="middle" x="205" y="-155" font-family="Helvetica,sans-Serif" font-size="10.00">func_80097AE4</text>
</a>
</g>
</g>
<!-- Node1&#45;&gt;Node5 -->
<g id="edge4_Node000001_Node000005" class="edge">
<title>Node1&#45;&gt;Node5</title>
<g id="a_edge4_Node000001_Node000005"><a xlink:title=" ">
<path fill="none" stroke="#63b8ff" d="M87.8,-130.03C107.9,-134.78 132.39,-140.57 153.71,-145.61"/>
<polygon fill="#63b8ff" stroke="#63b8ff" points="153.03,-149.04 163.56,-147.94 154.64,-142.23 153.03,-149.04"/>
</a>
</g>
</g>
<!-- Node6 -->
<g id="Node000006" class="node">
<title>Node6</title>
<g id="a_Node000006"><a xlink:href="menu__items_8c.html#a30ad499b5aa8caea92818f6b4aa27ad0" target="_top" xlink:title=" ">
<polygon fill="white" stroke="#666666" points="250.5,-130 159.5,-130 159.5,-111 250.5,-111 250.5,-130"/>
<text text-anchor="middle" x="205" y="-118" font-family="Helvetica,sans-Serif" font-size="10.00">func_80097E58</text>
</a>
</g>
</g>
<!-- Node1&#45;&gt;Node6 -->
<g id="edge5_Node000001_Node000006" class="edge">
<title>Node1&#45;&gt;Node6</title>
<g id="a_edge5_Node000001_Node000006"><a xlink:title=" ">
<path fill="none" stroke="#63b8ff" d="M93.19,-120.5C110.69,-120.5 130.84,-120.5 149.12,-120.5"/>
<polygon fill="#63b8ff" stroke="#63b8ff" points="149.34,-124 159.34,-120.5 149.34,-117 149.34,-124"/>
</a>
</g>
</g>
<!-- Node7 -->
<g id="Node000007" class="node">
<title>Node7</title>
<g id="a_Node000007"><a xlink:href="menu__items_8c.html#a6061a0dbb9b34a45fb1620c6c1d7f73c" target="_top" xlink:title=" ">
<polygon fill="white" stroke="#666666" points="251,-93 159,-93 159,-74 251,-74 251,-93"/>
<text text-anchor="middle" x="205" y="-81" font-family="Helvetica,sans-Serif" font-size="10.00">func_8009B8C4</text>
</a>
</g>
</g>
<!-- Node1&#45;&gt;Node7 -->
<g id="edge6_Node000001_Node000007" class="edge">
<title>Node1&#45;&gt;Node7</title>
<g id="a_edge6_Node000001_Node000007"><a xlink:title=" ">
<path fill="none" stroke="#63b8ff" d="M87.8,-110.97C107.9,-106.22 132.39,-100.43 153.71,-95.39"/>
<polygon fill="#63b8ff" stroke="#63b8ff" points="154.64,-98.77 163.56,-93.06 153.03,-91.96 154.64,-98.77"/>
</a>
</g>
</g>
<!-- Node8 -->
<g id="Node000008" class="node">
<title>Node8</title>
<g id="a_Node000008"><a xlink:href="GBIMiddleware_8cpp.html#a4ecc44e3c6f1ca5a6b4a20c41d3bd2d2" target="_top" xlink:title=" ">
<polygon fill="white" stroke="#666666" points="249.5,-56 160.5,-56 160.5,-37 249.5,-37 249.5,-56"/>
<text text-anchor="middle" x="205" y="-44" font-family="Helvetica,sans-Serif" font-size="10.00">gSPDisplayList</text>
</a>
</g>
</g>
<!-- Node1&#45;&gt;Node8 -->
<g id="edge7_Node000001_Node000008" class="edge">
<title>Node1&#45;&gt;Node8</title>
<g id="a_edge7_Node000001_Node000008"><a xlink:title=" ">
<path fill="none" stroke="#63b8ff" d="M58.88,-110.92C73.98,-98.68 101.89,-77.63 129,-65.5 135.74,-62.48 143.05,-59.88 150.37,-57.66"/>
<polygon fill="#63b8ff" stroke="#63b8ff" points="151.62,-60.95 160.3,-54.87 149.73,-54.21 151.62,-60.95"/>
</a>
</g>
</g>
<!-- Node11 -->
<g id="Node000011" class="node">
<title>Node11</title>
<g id="a_Node000011"><a xlink:href="menu__items_8c.html#a2d2758c3a87de891a40840727bef3306" target="_top" xlink:title=" ">
<polygon fill="white" stroke="#666666" points="281,-19 129,-19 129,0 281,0 281,-19"/>
<text text-anchor="middle" x="205" y="-7" font-family="Helvetica,sans-Serif" font-size="10.00">segmented_to_virtual_dupe</text>
</a>
</g>
</g>
<!-- Node1&#45;&gt;Node11 -->
<g id="edge10_Node000001_Node000011" class="edge">
<title>Node1&#45;&gt;Node11</title>
<g id="a_edge10_Node000001_Node000011"><a xlink:title=" ">
<path fill="none" stroke="#63b8ff" d="M53.3,-110.71C65.07,-91.76 93.64,-50.03 129,-28.5 132.61,-26.3 136.47,-24.35 140.46,-22.63"/>
<polygon fill="#63b8ff" stroke="#63b8ff" points="141.87,-25.84 149.96,-19.01 139.37,-19.3 141.87,-25.84"/>
</a>
</g>
</g>
<!-- Node4 -->
<g id="Node000004" class="node">
<title>Node4</title>
<g id="a_Node000004"><a xlink:href="menu__items_8c.html#ad9490c92b9af2d9c1cc307fb09bcb7b6" target="_top" xlink:title=" ">
<polygon fill="white" stroke="#666666" points="437,-204 346,-204 346,-185 437,-185 437,-204"/>
<text text-anchor="middle" x="391.5" y="-192" font-family="Helvetica,sans-Serif" font-size="10.00">func_80095E10</text>
</a>
</g>
</g>
<!-- Node3&#45;&gt;Node4 -->
<g id="edge3_Node000003_Node000004" class="edge">
<title>Node3&#45;&gt;Node4</title>
<g id="a_edge3_Node000003_Node000004"><a xlink:title=" ">
<path fill="none" stroke="#63b8ff" d="M251.13,-194.5C276.67,-194.5 308.8,-194.5 335.77,-194.5"/>
<polygon fill="#63b8ff" stroke="#63b8ff" points="335.83,-198 345.83,-194.5 335.83,-191 335.83,-198"/>
</a>
</g>
</g>
<!-- Node9 -->
<g id="Node000009" class="node">
<title>Node9</title>
<g id="a_Node000009"><a xlink:href="Engine_8cpp.html#a223c8bc63f228dc11177515e38eff2db" target="_top" xlink:title=" ">
<polygon fill="white" stroke="#666666" points="466,-56 317,-56 317,-37 466,-37 466,-56"/>
<text text-anchor="middle" x="391.5" y="-44" font-family="Helvetica,sans-Serif" font-size="10.00">GameEngine_OTRSigCheck</text>
</a>
</g>
</g>
<!-- Node8&#45;&gt;Node9 -->
<g id="edge8_Node000008_Node000009" class="edge">
<title>Node8&#45;&gt;Node9</title>
<g id="a_edge8_Node000008_Node000009"><a xlink:title=" ">
<path fill="none" stroke="#63b8ff" d="M249.72,-46.5C266.78,-46.5 286.94,-46.5 306.59,-46.5"/>
<polygon fill="#63b8ff" stroke="#63b8ff" points="306.79,-50 316.79,-46.5 306.79,-43 306.79,-50"/>
</a>
</g>
</g>
<!-- Node10 -->
<g id="Node000010" class="node">
<title>Node10</title>
<g id="a_Node000010"><a xlink:href="string_8c.html#a008e171a518fe0e0352f31b245e03875" target="_top" xlink:title=" ">
<polygon fill="white" stroke="#666666" points="546,-56 502,-56 502,-37 546,-37 546,-56"/>
<text text-anchor="middle" x="524" y="-44" font-family="Helvetica,sans-Serif" font-size="10.00">strlen</text>
</a>
</g>
</g>
<!-- Node9&#45;&gt;Node10 -->
<g id="edge9_Node000009_Node000010" class="edge">
<title>Node9&#45;&gt;Node10</title>
<g id="a_edge9_Node000009_Node000010"><a xlink:title=" ">
<path fill="none" stroke="#63b8ff" d="M466.14,-46.5C475.12,-46.5 483.89,-46.5 491.75,-46.5"/>
<polygon fill="#63b8ff" stroke="#63b8ff" points="491.83,-50 501.83,-46.5 491.83,-43 491.83,-50"/>
</a>
</g>
</g>
</g>
</svg>
