<?xml version="1.0" encoding="UTF-8" standalone="no"?>
<!DOCTYPE svg PUBLIC "-//W3C//DTD SVG 1.1//EN"
 "http://www.w3.org/Graphics/SVG/1.1/DTD/svg11.dtd">
<!-- Generated by graphviz version 2.43.0 (0)
 -->
<!-- Title: func_8009A76C Pages: 1 -->
<!--zoomable 252 -->

<svg id="main" version="1.1" xmlns="http://www.w3.org/2000/svg" xmlns:xlink="http://www.w3.org/1999/xlink" xml:space="preserve" onload="init(evt)">

<style type="text/css"><![CDATA[
.node, .edge {opacity: 0.7;}
.node.selected, .edge.selected {opacity: 1;}
.edge:hover path { stroke: red; }
.edge:hover polygon { stroke: red; fill: red; }
]]></style>

<defs>
  <circle id="rim" cx="0" cy="0" r="7"/>
  <circle id="rim2" cx="0" cy="0" r="3.5"/>
  <g id="zoomPlus">
    <use xlink:href="#rim" fill="#404040"><set attributeName="fill" to="#808080" begin="zoomplus.mouseover" end="zoomplus.mouseout"/></use>
    <path d="M-4,0h8M0,-4v8" fill="none" stroke="white" stroke-width="1.5" pointer-events="none"/>
  </g>
  <g id="zoomMin">
    <use xlink:href="#rim" fill="#404040"><set attributeName="fill" to="#808080" begin="zoomminus.mouseover" end="zoomminus.mouseout"/></use>
    <path d="M-4,0h8" fill="none" stroke="white" stroke-width="1.5" pointer-events="none"/>
  </g>
  <g id="arrowUp" transform="translate(30 24)">
    <use xlink:href="#rim"/>
    <path pointer-events="none" fill="none" stroke="white" stroke-width="1.5" d="M0,-3.0v7 M-2.5,-0.5L0,-3.0L2.5,-0.5"/>
  </g>
  <g id="arrowRight" transform="rotate(90) translate(36 -43)">
    <use xlink:href="#rim"/>
    <path pointer-events="none" fill="none" stroke="white" stroke-width="1.5" d="M0,-3.0v7 M-2.5,-0.5L0,-3.0L2.5,-0.5"/>
  </g>
  <g id="arrowDown" transform="rotate(180) translate(-30 -48)">
    <use xlink:href="#rim"/>
    <path pointer-events="none" fill="none" stroke="white" stroke-width="1.5" d="M0,-3.0v7 M-2.5,-0.5L0,-3.0L2.5,-0.5"/>
  </g>
  <g id="arrowLeft" transform="rotate(270) translate(-36 17)">
    <use xlink:href="#rim"/>
    <path pointer-events="none" fill="none" stroke="white" stroke-width="1.5" d="M0,-3.0v7 M-2.5,-0.5L0,-3.0L2.5,-0.5"/>
  </g>
  <g id="resetDef">
    <use xlink:href="#rim2" fill="#404040"><set attributeName="fill" to="#808080" begin="reset.mouseover" end="reset.mouseout"/></use>
  </g>
</defs>
<script type="application/ecmascript">
var viewWidth = 624;
var viewHeight = 252;
var sectionId = 'dynsection-138';
</script>
<script type="application/ecmascript" xlink:href="svg.min.js"/>
<svg id="graph" class="graph">
<g id="viewport">
<title>func_8009A76C</title>
<!-- Node1 -->
<g id="Node000001" class="node">
<title>Node1</title>
<g id="a_Node000001"><a xlink:title=" ">
<polygon fill="#999999" stroke="#666666" points="92,-150 0,-150 0,-131 92,-131 92,-150"/>
<text text-anchor="middle" x="46" y="-138" font-family="Helvetica,sans-Serif" font-size="10.00">func_8009A76C</text>
</a>
</g>
</g>
<!-- Node2 -->
<g id="Node000002" class="node">
<title>Node2</title>
<g id="a_Node000002"><a xlink:href="menu__items_8c.html#af958f498a1781e584897c0f68028df0e" target="_top" xlink:title=" ">
<polygon fill="white" stroke="#666666" points="220,-206 128,-206 128,-187 220,-187 220,-206"/>
<text text-anchor="middle" x="174" y="-194" font-family="Helvetica,sans-Serif" font-size="10.00">func_8009A878</text>
</a>
</g>
</g>
<!-- Node1&#45;&gt;Node2 -->
<g id="edge1_Node000001_Node000002" class="edge">
<title>Node1&#45;&gt;Node2</title>
<g id="a_edge1_Node000001_Node000002"><a xlink:title=" ">
<path fill="none" stroke="#63b8ff" d="M68.66,-150.13C88.98,-159.16 119.56,-172.75 142.37,-182.89"/>
<polygon fill="#63b8ff" stroke="#63b8ff" points="141.06,-186.14 151.62,-187 143.91,-179.74 141.06,-186.14"/>
</a>
</g>
</g>
<!-- Node5 -->
<g id="Node000005" class="node">
<title>Node5</title>
<g id="a_Node000005"><a xlink:href="menu__items_8c.html#a85f6ca108eb24cbbaa44a5df73194789" target="_top" xlink:title=" ">
<polygon fill="white" stroke="#666666" points="220,-112 128,-112 128,-93 220,-93 220,-112"/>
<text text-anchor="middle" x="174" y="-100" font-family="Helvetica,sans-Serif" font-size="10.00">func_8009C434</text>
</a>
</g>
</g>
<!-- Node1&#45;&gt;Node5 -->
<g id="edge5_Node000001_Node000005" class="edge">
<title>Node1&#45;&gt;Node5</title>
<g id="a_edge5_Node000001_Node000005"><a xlink:title=" ">
<path fill="none" stroke="#63b8ff" d="M78.8,-130.91C94.76,-126.1 114.31,-120.2 131.45,-115.03"/>
<polygon fill="#63b8ff" stroke="#63b8ff" points="132.65,-118.32 141.22,-112.09 130.63,-111.62 132.65,-118.32"/>
</a>
</g>
</g>
<!-- Node3 -->
<g id="Node000003" class="node">
<title>Node3</title>
<g id="a_Node000003"><a xlink:href="menu__items_8c.html#a66e95f019bfd0b516ee71baf91daa2f6" target="_top" xlink:title=" ">
<polygon fill="white" stroke="#666666" points="348,-244 256,-244 256,-225 348,-225 348,-244"/>
<text text-anchor="middle" x="302" y="-232" font-family="Helvetica,sans-Serif" font-size="10.00">func_80099A94</text>
</a>
</g>
</g>
<!-- Node2&#45;&gt;Node3 -->
<g id="edge2_Node000002_Node000003" class="edge">
<title>Node2&#45;&gt;Node3</title>
<g id="a_edge2_Node000002_Node000003"><a xlink:title=" ">
<path fill="none" stroke="#63b8ff" d="M206.8,-206.09C222.76,-210.9 242.31,-216.8 259.45,-221.97"/>
<polygon fill="#63b8ff" stroke="#63b8ff" points="258.63,-225.38 269.22,-224.91 260.65,-218.68 258.63,-225.38"/>
</a>
</g>
</g>
<!-- Node4 -->
<g id="Node000004" class="node">
<title>Node4</title>
<g id="a_Node000004"><a xlink:href="menu__items_8c.html#a2d2758c3a87de891a40840727bef3306" target="_top" xlink:title=" ">
<polygon fill="white" stroke="#666666" points="536,-206 384,-206 384,-187 536,-187 536,-206"/>
<text text-anchor="middle" x="460" y="-194" font-family="Helvetica,sans-Serif" font-size="10.00">segmented_to_virtual_dupe</text>
</a>
</g>
</g>
<!-- Node2&#45;&gt;Node4 -->
<g id="edge4_Node000002_Node000004" class="edge">
<title>Node2&#45;&gt;Node4</title>
<g id="a_edge4_Node000002_Node000004"><a xlink:title=" ">
<path fill="none" stroke="#63b8ff" d="M220,-196.5C261.12,-196.5 323.02,-196.5 373.52,-196.5"/>
<polygon fill="#63b8ff" stroke="#63b8ff" points="373.79,-200 383.79,-196.5 373.79,-193 373.79,-200"/>
</a>
</g>
</g>
<!-- Node3&#45;&gt;Node4 -->
<g id="edge3_Node000003_Node000004" class="edge">
<title>Node3&#45;&gt;Node4</title>
<g id="a_edge3_Node000003_Node000004"><a xlink:title=" ">
<path fill="none" stroke="#63b8ff" d="M342.37,-224.91C362.95,-219.9 388.34,-213.71 410.17,-208.39"/>
<polygon fill="#63b8ff" stroke="#63b8ff" points="411.03,-211.79 419.92,-206.02 409.37,-204.99 411.03,-211.79"/>
</a>
</g>
</g>
<!-- Node5&#45;&gt;Node4 -->
<g id="edge12_Node000005_Node000004" class="edge">
<title>Node5&#45;&gt;Node4</title>
<g id="a_edge12_Node000005_Node000004"><a xlink:title=" ">
<path fill="none" stroke="#63b8ff" d="M193.64,-112.02C209.84,-120.04 234.08,-131.47 256,-139.5 306.81,-158.11 366.62,-174.23 408.1,-184.54"/>
<polygon fill="#63b8ff" stroke="#63b8ff" points="407.42,-187.97 417.97,-186.96 409.1,-181.18 407.42,-187.97"/>
</a>
</g>
</g>
<!-- Node6 -->
<g id="Node000006" class="node">
<title>Node6</title>
<g id="a_Node000006"><a xlink:href="menu__items_8c.html#ad9490c92b9af2d9c1cc307fb09bcb7b6" target="_top" xlink:title=" ">
<polygon fill="white" stroke="#666666" points="347.5,-130 256.5,-130 256.5,-111 347.5,-111 347.5,-130"/>
<text text-anchor="middle" x="302" y="-118" font-family="Helvetica,sans-Serif" font-size="10.00">func_80095E10</text>
</a>
</g>
</g>
<!-- Node5&#45;&gt;Node6 -->
<g id="edge6_Node000005_Node000006" class="edge">
<title>Node5&#45;&gt;Node6</title>
<g id="a_edge6_Node000005_Node000006"><a xlink:title=" ">
<path fill="none" stroke="#63b8ff" d="M220.13,-108.95C228.56,-110.15 237.45,-111.42 246.13,-112.66"/>
<polygon fill="#63b8ff" stroke="#63b8ff" points="245.79,-116.15 256.18,-114.1 246.78,-109.22 245.79,-116.15"/>
</a>
</g>
</g>
<!-- Node7 -->
<g id="Node000007" class="node">
<title>Node7</title>
<g id="a_Node000007"><a xlink:href="menu__items_8c.html#ae10f2d055ce2012884a6a18cacd3b6fc" target="_top" xlink:title=" ">
<polygon fill="white" stroke="#666666" points="347.5,-93 256.5,-93 256.5,-74 347.5,-74 347.5,-93"/>
<text text-anchor="middle" x="302" y="-81" font-family="Helvetica,sans-Serif" font-size="10.00">func_800963F0</text>
</a>
</g>
</g>
<!-- Node5&#45;&gt;Node7 -->
<g id="edge7_Node000005_Node000007" class="edge">
<title>Node5&#45;&gt;Node7</title>
<g id="a_edge7_Node000005_Node000007"><a xlink:title=" ">
<path fill="none" stroke="#63b8ff" d="M220.13,-95.69C228.56,-94.42 237.45,-93.08 246.13,-91.77"/>
<polygon fill="#63b8ff" stroke="#63b8ff" points="246.82,-95.21 256.18,-90.26 245.77,-88.29 246.82,-95.21"/>
</a>
</g>
</g>
<!-- Node8 -->
<g id="Node000008" class="node">
<title>Node8</title>
<g id="a_Node000008"><a xlink:href="menu__items_8c.html#a30ad499b5aa8caea92818f6b4aa27ad0" target="_top" xlink:title=" ">
<polygon fill="white" stroke="#666666" points="347.5,-56 256.5,-56 256.5,-37 347.5,-37 347.5,-56"/>
<text text-anchor="middle" x="302" y="-44" font-family="Helvetica,sans-Serif" font-size="10.00">func_80097E58</text>
</a>
</g>
</g>
<!-- Node5&#45;&gt;Node8 -->
<g id="edge8_Node000005_Node000008" class="edge">
<title>Node5&#45;&gt;Node8</title>
<g id="a_edge8_Node000005_Node000008"><a xlink:title=" ">
<path fill="none" stroke="#63b8ff" d="M195.57,-92.91C211.9,-85.34 235.34,-74.58 256,-65.5 260.13,-63.69 264.49,-61.8 268.8,-59.96"/>
<polygon fill="#63b8ff" stroke="#63b8ff" points="270.21,-63.16 278.05,-56.04 267.48,-56.72 270.21,-63.16"/>
</a>
</g>
</g>
<!-- Node9 -->
<g id="Node000009" class="node">
<title>Node9</title>
<g id="a_Node000009"><a xlink:href="GBIMiddleware_8cpp.html#a4ecc44e3c6f1ca5a6b4a20c41d3bd2d2" target="_top" xlink:title=" ">
<polygon fill="white" stroke="#666666" points="346.5,-19 257.5,-19 257.5,0 346.5,0 346.5,-19"/>
<text text-anchor="middle" x="302" y="-7" font-family="Helvetica,sans-Serif" font-size="10.00">gSPDisplayList</text>
</a>
</g>
</g>
<!-- Node5&#45;&gt;Node9 -->
<g id="edge9_Node000005_Node000009" class="edge">
<title>Node5&#45;&gt;Node9</title>
<g id="a_edge9_Node000005_Node000009"><a xlink:title=" ">
<path fill="none" stroke="#63b8ff" d="M183.54,-92.51C197.39,-76.84 226.19,-46.34 256,-27.5 258.32,-26.03 260.78,-24.65 263.31,-23.35"/>
<polygon fill="#63b8ff" stroke="#63b8ff" points="265.03,-26.41 272.61,-19.01 262.07,-20.06 265.03,-26.41"/>
</a>
</g>
</g>
<!-- Node10 -->
<g id="Node000010" class="node">
<title>Node10</title>
<g id="a_Node000010"><a xlink:href="Engine_8cpp.html#a223c8bc63f228dc11177515e38eff2db" target="_top" xlink:title=" ">
<polygon fill="white" stroke="#666666" points="534.5,-19 385.5,-19 385.5,0 534.5,0 534.5,-19"/>
<text text-anchor="middle" x="460" y="-7" font-family="Helvetica,sans-Serif" font-size="10.00">GameEngine_OTRSigCheck</text>
</a>
</g>
</g>
<!-- Node9&#45;&gt;Node10 -->
<g id="edge10_Node000009_Node000010" class="edge">
<title>Node9&#45;&gt;Node10</title>
<g id="a_edge10_Node000009_Node000010"><a xlink:title=" ">
<path fill="none" stroke="#63b8ff" d="M346.87,-9.5C355.77,-9.5 365.4,-9.5 375.16,-9.5"/>
<polygon fill="#63b8ff" stroke="#63b8ff" points="375.34,-13 385.34,-9.5 375.34,-6 375.34,-13"/>
</a>
</g>
</g>
<!-- Node11 -->
<g id="Node000011" class="node">
<title>Node11</title>
<g id="a_Node000011"><a xlink:href="string_8c.html#a008e171a518fe0e0352f31b245e03875" target="_top" xlink:title=" ">
<polygon fill="white" stroke="#666666" points="616,-19 572,-19 572,0 616,0 616,-19"/>
<text text-anchor="middle" x="594" y="-7" font-family="Helvetica,sans-Serif" font-size="10.00">strlen</text>
</a>
</g>
</g>
<!-- Node10&#45;&gt;Node11 -->
<g id="edge11_Node000010_Node000011" class="edge">
<title>Node10&#45;&gt;Node11</title>
<g id="a_edge11_Node000010_Node000011"><a xlink:title=" ">
<path fill="none" stroke="#63b8ff" d="M534.72,-9.5C544.16,-9.5 553.39,-9.5 561.62,-9.5"/>
<polygon fill="#63b8ff" stroke="#63b8ff" points="561.8,-13 571.8,-9.5 561.8,-6 561.8,-13"/>
</a>
</g>
</g>
</g>
</svg>

<g id="navigator" transform="translate(0 0)" fill="#404254">
  <rect fill="#f2f5e9" fill-opacity="0.5" stroke="#606060" stroke-width=".5" x="0" y="0" width="60" height="60"/>
  <use id="zoomplus" xlink:href="#zoomPlus" x="17" y="9" onmousedown="handleZoom(evt,'in')"/>
  <use id="zoomminus" xlink:href="#zoomMin" x="42" y="9" onmousedown="handleZoom(evt,'out')"/>
  <use id="reset" xlink:href="#resetDef" x="30" y="36" onmousedown="handleReset()"/>
   <use id="arrowup" xlink:href="#arrowUp" x="0" y="0" onmousedown="handlePan(0,-1)"/>
  <use id="arrowright" xlink:href="#arrowRight" x="0" y="0" onmousedown="handlePan(1,0)"/>
  <use id="arrowdown" xlink:href="#arrowDown" x="0" y="0" onmousedown="handlePan(0,1)"/>
  <use id="arrowleft" xlink:href="#arrowLeft" x="0" y="0" onmousedown="handlePan(-1,0)"/>
</g>
<svg viewBox="0 0 15 15" width="100%" height="30px" preserveAspectRatio="xMaxYMin meet">
 <g id="arrow_out" transform="scale(0.3 0.3)">
  <a xlink:href="menu__items_8c_a95b3021d5115ba9961b35c05cac3cd51_cgraph_org.svg" target="_base">
   <rect id="button" ry="5" rx="5" y="6" x="6" height="38" width="38"
        fill="#f2f5e9" fill-opacity="0.5" stroke="#606060" stroke-width="1.0"/>
   <path id="arrow"
     d="M 11.500037,31.436501 C 11.940474,20.09759 22.043105,11.32322 32.158766,21.979434 L 37.068811,17.246167 C 37.068811,17.246167 37.088388,32 37.088388,32 L 22.160133,31.978069 C 22.160133,31.978069 26.997745,27.140456 26.997745,27.140456 C 18.528582,18.264221 13.291696,25.230495 11.500037,31.436501 z"
     style="fill:#404040;"/>
  </a>
 </g>
</svg>

<style type='text/css'>
<![CDATA[
[data-mouse-over-selected='false'] { opacity: 0.7; }
[data-mouse-over-selected='true']  { opacity: 1.0; }
]]>
</style>
<script type="application/ecmascript"><![CDATA[
document.addEventListener('DOMContentLoaded', (event) => {
  highlightEdges();
  highlightAdjacentNodes();
});
]]></script>
</svg>
