<?xml version="1.0" encoding="UTF-8" standalone="no"?>
<!DOCTYPE svg PUBLIC "-//W3C//DTD SVG 1.1//EN"
 "http://www.w3.org/Graphics/SVG/1.1/DTD/svg11.dtd">
<!-- Generated by graphviz version 2.43.0 (0)
 -->
<!-- Title: func_800ABEAC Pages: 1 -->
<svg width="773pt" height="139pt"
 viewBox="0.00 0.00 773.00 139.00" xmlns="http://www.w3.org/2000/svg" xmlns:xlink="http://www.w3.org/1999/xlink">
<g id="graph0" class="graph" transform="scale(1 1) rotate(0) translate(4 135)">
<title>func_800ABEAC</title>
<!-- Node1 -->
<g id="Node000001" class="node">
<title>Node1</title>
<g id="a_Node000001"><a xlink:title=" ">
<polygon fill="#999999" stroke="#666666" points="94,-94 0,-94 0,-75 94,-75 94,-94"/>
<text text-anchor="middle" x="47" y="-82" font-family="Helvetica,sans-Serif" font-size="10.00">func_800ABEAC</text>
</a>
</g>
</g>
<!-- Node2 -->
<g id="Node000002" class="node">
<title>Node2</title>
<g id="a_Node000002"><a xlink:href="menu__items_8c.html#a2b5181d31654973124ba655ff4053672" target="_top" xlink:title=" ">
<polygon fill="white" stroke="#666666" points="222,-94 130,-94 130,-75 222,-75 222,-94"/>
<text text-anchor="middle" x="176" y="-82" font-family="Helvetica,sans-Serif" font-size="10.00">func_800ABF68</text>
</a>
</g>
</g>
<!-- Node1&#45;&gt;Node2 -->
<g id="edge1_Node000001_Node000002" class="edge">
<title>Node1&#45;&gt;Node2</title>
<g id="a_edge1_Node000001_Node000002"><a xlink:title=" ">
<path fill="none" stroke="#63b8ff" d="M94.21,-84.5C102.48,-84.5 111.17,-84.5 119.67,-84.5"/>
<polygon fill="#63b8ff" stroke="#63b8ff" points="119.89,-88 129.89,-84.5 119.89,-81 119.89,-88"/>
</a>
</g>
</g>
<!-- Node3 -->
<g id="Node000003" class="node">
<title>Node3</title>
<g id="a_Node000003"><a xlink:href="Game_8cpp.html#a3416a195a0c7be6ec3783bbf4842dc3e" target="_top" xlink:title=" ">
<polygon fill="white" stroke="#666666" points="348,-131 266,-131 266,-112 348,-112 348,-131"/>
<text text-anchor="middle" x="307" y="-119" font-family="Helvetica,sans-Serif" font-size="10.00">CM_GetProps</text>
</a>
</g>
</g>
<!-- Node2&#45;&gt;Node3 -->
<g id="edge2_Node000002_Node000003" class="edge">
<title>Node2&#45;&gt;Node3</title>
<g id="a_edge2_Node000002_Node000003"><a xlink:title=" ">
<path fill="none" stroke="#63b8ff" d="M210.22,-94.03C226.2,-98.61 245.55,-104.16 262.67,-109.07"/>
<polygon fill="#63b8ff" stroke="#63b8ff" points="261.87,-112.48 272.44,-111.88 263.8,-105.75 261.87,-112.48"/>
</a>
</g>
</g>
<!-- Node4 -->
<g id="Node000004" class="node">
<title>Node4</title>
<g id="a_Node000004"><a xlink:href="menu__items_8c.html#adaf4d2d24f8094227838991b96ef825b" target="_top" xlink:title=" ">
<polygon fill="white" stroke="#666666" points="353,-94 261,-94 261,-75 353,-75 353,-94"/>
<text text-anchor="middle" x="307" y="-82" font-family="Helvetica,sans-Serif" font-size="10.00">func_800A9208</text>
</a>
</g>
</g>
<!-- Node2&#45;&gt;Node4 -->
<g id="edge3_Node000002_Node000004" class="edge">
<title>Node2&#45;&gt;Node4</title>
<g id="a_edge3_Node000002_Node000004"><a xlink:title=" ">
<path fill="none" stroke="#63b8ff" d="M222.12,-84.5C231.3,-84.5 241.05,-84.5 250.54,-84.5"/>
<polygon fill="#63b8ff" stroke="#63b8ff" points="250.69,-88 260.69,-84.5 250.69,-81 250.69,-88"/>
</a>
</g>
</g>
<!-- Node5 -->
<g id="Node000005" class="node">
<title>Node5</title>
<g id="a_Node000005"><a xlink:href="menu__items_8c.html#a7d794365d2dcd6526ddb06e476bef1e3" target="_top" xlink:title=" ">
<polygon fill="white" stroke="#666666" points="356,-57 258,-57 258,-38 356,-38 356,-57"/>
<text text-anchor="middle" x="307" y="-45" font-family="Helvetica,sans-Serif" font-size="10.00">get_string_width</text>
</a>
</g>
</g>
<!-- Node2&#45;&gt;Node5 -->
<g id="edge4_Node000002_Node000005" class="edge">
<title>Node2&#45;&gt;Node5</title>
<g id="a_edge4_Node000002_Node000005"><a xlink:title=" ">
<path fill="none" stroke="#63b8ff" d="M210.22,-74.97C226.2,-70.39 245.55,-64.84 262.67,-59.93"/>
<polygon fill="#63b8ff" stroke="#63b8ff" points="263.8,-63.25 272.44,-57.12 261.87,-56.52 263.8,-63.25"/>
</a>
</g>
</g>
<!-- Node6 -->
<g id="Node000006" class="node">
<title>Node6</title>
<g id="a_Node000006"><a xlink:href="menu__items_8c.html#ace62f40ce813c34904327e39643a0dbf" target="_top" xlink:title=" ">
<polygon fill="white" stroke="#666666" points="509,-57 392,-57 392,-38 509,-38 509,-57"/>
<text text-anchor="middle" x="450.5" y="-45" font-family="Helvetica,sans-Serif" font-size="10.00">char_to_glyph_index</text>
</a>
</g>
</g>
<!-- Node5&#45;&gt;Node6 -->
<g id="edge5_Node000005_Node000006" class="edge">
<title>Node5&#45;&gt;Node6</title>
<g id="a_edge5_Node000005_Node000006"><a xlink:title=" ">
<path fill="none" stroke="#63b8ff" d="M356.3,-47.5C364.38,-47.5 372.9,-47.5 381.37,-47.5"/>
<polygon fill="#63b8ff" stroke="#63b8ff" points="381.64,-51 391.64,-47.5 381.64,-44 381.64,-51"/>
</a>
</g>
</g>
<!-- Node7 -->
<g id="Node000007" class="node">
<title>Node7</title>
<g id="a_Node000007"><a xlink:href="menu__items_8c.html#ae8ba1b567dba01ff15c64d416653a70b" target="_top" xlink:title=" ">
<polygon fill="white" stroke="#666666" points="637,-95 545,-95 545,-76 637,-76 637,-95"/>
<text text-anchor="middle" x="591" y="-83" font-family="Helvetica,sans-Serif" font-size="10.00">func_80092DF8</text>
</a>
</g>
</g>
<!-- Node6&#45;&gt;Node7 -->
<g id="edge6_Node000006_Node000007" class="edge">
<title>Node6&#45;&gt;Node7</title>
<g id="a_edge6_Node000006_Node000007"><a xlink:title=" ">
<path fill="none" stroke="#63b8ff" d="M486.45,-57.09C504.33,-61.99 526.29,-68.02 545.38,-73.26"/>
<polygon fill="#63b8ff" stroke="#63b8ff" points="544.49,-76.64 555.06,-75.91 546.34,-69.89 544.49,-76.64"/>
</a>
</g>
</g>
<!-- Node8 -->
<g id="Node000008" class="node">
<title>Node8</title>
<g id="a_Node000008"><a xlink:href="menu__items_8c.html#acd5b29a8e8634aa4f3db4b9a7c5ba033" target="_top" xlink:title=" ">
<polygon fill="white" stroke="#666666" points="765,-76 673,-76 673,-57 765,-57 765,-76"/>
<text text-anchor="middle" x="719" y="-64" font-family="Helvetica,sans-Serif" font-size="10.00">func_80092E1C</text>
</a>
</g>
</g>
<!-- Node6&#45;&gt;Node8 -->
<g id="edge8_Node000006_Node000008" class="edge">
<title>Node6&#45;&gt;Node8</title>
<g id="a_edge8_Node000006_Node000008"><a xlink:title=" ">
<path fill="none" stroke="#63b8ff" d="M509.33,-51.62C554.77,-54.86 617.67,-59.35 662.51,-62.54"/>
<polygon fill="#63b8ff" stroke="#63b8ff" points="662.42,-66.05 672.64,-63.27 662.92,-59.06 662.42,-66.05"/>
</a>
</g>
</g>
<!-- Node9 -->
<g id="Node000009" class="node">
<title>Node9</title>
<g id="a_Node000009"><a xlink:href="menu__items_8c.html#ab26c8dca1828cd1d5a6c341cb851f0b9" target="_top" xlink:title=" ">
<polygon fill="white" stroke="#666666" points="636.5,-19 545.5,-19 545.5,0 636.5,0 636.5,-19"/>
<text text-anchor="middle" x="591" y="-7" font-family="Helvetica,sans-Serif" font-size="10.00">func_80092EE4</text>
</a>
</g>
</g>
<!-- Node6&#45;&gt;Node9 -->
<g id="edge9_Node000006_Node000009" class="edge">
<title>Node6&#45;&gt;Node9</title>
<g id="a_edge9_Node000006_Node000009"><a xlink:title=" ">
<path fill="none" stroke="#63b8ff" d="M486.45,-37.91C504.33,-33.01 526.29,-26.98 545.38,-21.74"/>
<polygon fill="#63b8ff" stroke="#63b8ff" points="546.34,-25.11 555.06,-19.09 544.49,-18.36 546.34,-25.11"/>
</a>
</g>
</g>
<!-- Node7&#45;&gt;Node8 -->
<g id="edge7_Node000007_Node000008" class="edge">
<title>Node7&#45;&gt;Node8</title>
<g id="a_edge7_Node000007_Node000008"><a xlink:title=" ">
<path fill="none" stroke="#63b8ff" d="M637.13,-78.69C645.46,-77.44 654.23,-76.12 662.81,-74.82"/>
<polygon fill="#63b8ff" stroke="#63b8ff" points="663.39,-78.27 672.76,-73.32 662.35,-71.35 663.39,-78.27"/>
</a>
</g>
</g>
</g>
</svg>
