<?xml version="1.0" encoding="UTF-8" standalone="no"?>
<!DOCTYPE svg PUBLIC "-//W3C//DTD SVG 1.1//EN"
 "http://www.w3.org/Graphics/SVG/1.1/DTD/svg11.dtd">
<!-- Generated by graphviz version 2.43.0 (0)
 -->
<!-- Title: func_800A1780 Pages: 1 -->
<svg width="681pt" height="138pt"
 viewBox="0.00 0.00 681.00 138.00" xmlns="http://www.w3.org/2000/svg" xmlns:xlink="http://www.w3.org/1999/xlink">
<g id="graph0" class="graph" transform="scale(1 1) rotate(0) translate(4 134)">
<title>func_800A1780</title>
<!-- Node1 -->
<g id="Node000001" class="node">
<title>Node1</title>
<g id="a_Node000001"><a xlink:title=" ">
<polygon fill="#999999" stroke="#666666" points="92,-55 0,-55 0,-36 92,-36 92,-55"/>
<text text-anchor="middle" x="46" y="-43" font-family="Helvetica,sans-Serif" font-size="10.00">func_800A1780</text>
</a>
</g>
</g>
<!-- Node2 -->
<g id="Node000002" class="node">
<title>Node2</title>
<g id="a_Node000002"><a xlink:href="menu__items_8c.html#a6ae9a7914726211a0149ff3ff8c2d70d" target="_top" xlink:title=" ">
<polygon fill="white" stroke="#666666" points="267.5,-74 140.5,-74 140.5,-55 267.5,-55 267.5,-74"/>
<text text-anchor="middle" x="204" y="-62" font-family="Helvetica,sans-Serif" font-size="10.00">render_menu_textures</text>
</a>
</g>
</g>
<!-- Node1&#45;&gt;Node2 -->
<g id="edge1_Node000001_Node000002" class="edge">
<title>Node1&#45;&gt;Node2</title>
<g id="a_edge1_Node000001_Node000002"><a xlink:title=" ">
<path fill="none" stroke="#63b8ff" d="M92.12,-51C103.98,-52.44 117.08,-54.04 129.99,-55.61"/>
<polygon fill="#63b8ff" stroke="#63b8ff" points="129.93,-59.13 140.28,-56.86 130.78,-52.18 129.93,-59.13"/>
</a>
</g>
</g>
<!-- Node11 -->
<g id="Node000011" class="node">
<title>Node11</title>
<g id="a_Node000011"><a xlink:href="menu__items_8c.html#a2d2758c3a87de891a40840727bef3306" target="_top" xlink:title=" ">
<polygon fill="white" stroke="#666666" points="280,-37 128,-37 128,-18 280,-18 280,-37"/>
<text text-anchor="middle" x="204" y="-25" font-family="Helvetica,sans-Serif" font-size="10.00">segmented_to_virtual_dupe</text>
</a>
</g>
</g>
<!-- Node1&#45;&gt;Node11 -->
<g id="edge10_Node000001_Node000011" class="edge">
<title>Node1&#45;&gt;Node11</title>
<g id="a_edge10_Node000001_Node000011"><a xlink:title=" ">
<path fill="none" stroke="#63b8ff" d="M92.12,-40.29C100.23,-39.36 108.92,-38.36 117.73,-37.34"/>
<polygon fill="#63b8ff" stroke="#63b8ff" points="118.17,-40.81 127.71,-36.19 117.37,-33.86 118.17,-40.81"/>
</a>
</g>
</g>
<!-- Node3 -->
<g id="Node000003" class="node">
<title>Node3</title>
<g id="a_Node000003"><a xlink:href="menu__items_8c.html#ad9490c92b9af2d9c1cc307fb09bcb7b6" target="_top" xlink:title=" ">
<polygon fill="white" stroke="#666666" points="407.5,-130 316.5,-130 316.5,-111 407.5,-111 407.5,-130"/>
<text text-anchor="middle" x="362" y="-118" font-family="Helvetica,sans-Serif" font-size="10.00">func_80095E10</text>
</a>
</g>
</g>
<!-- Node2&#45;&gt;Node3 -->
<g id="edge2_Node000002_Node000003" class="edge">
<title>Node2&#45;&gt;Node3</title>
<g id="a_edge2_Node000002_Node000003"><a xlink:title=" ">
<path fill="none" stroke="#63b8ff" d="M231.82,-74.13C257.53,-83.36 296.54,-97.36 324.96,-107.56"/>
<polygon fill="#63b8ff" stroke="#63b8ff" points="323.94,-110.91 334.53,-111 326.3,-104.33 323.94,-110.91"/>
</a>
</g>
</g>
<!-- Node4 -->
<g id="Node000004" class="node">
<title>Node4</title>
<g id="a_Node000004"><a xlink:href="menu__items_8c.html#aef2b6b221f29f2caa6f68e11b3e7df34" target="_top" xlink:title=" ">
<polygon fill="white" stroke="#666666" points="408,-93 316,-93 316,-74 408,-74 408,-93"/>
<text text-anchor="middle" x="362" y="-81" font-family="Helvetica,sans-Serif" font-size="10.00">func_800987D0</text>
</a>
</g>
</g>
<!-- Node2&#45;&gt;Node4 -->
<g id="edge3_Node000002_Node000004" class="edge">
<title>Node2&#45;&gt;Node4</title>
<g id="a_edge3_Node000002_Node000004"><a xlink:title=" ">
<path fill="none" stroke="#63b8ff" d="M267.55,-72.12C280.13,-73.65 293.28,-75.25 305.59,-76.75"/>
<polygon fill="#63b8ff" stroke="#63b8ff" points="305.37,-80.25 315.72,-77.98 306.21,-73.3 305.37,-80.25"/>
</a>
</g>
</g>
<!-- Node7 -->
<g id="Node000007" class="node">
<title>Node7</title>
<g id="a_Node000007"><a xlink:href="menu__items_8c.html#a6061a0dbb9b34a45fb1620c6c1d7f73c" target="_top" xlink:title=" ">
<polygon fill="white" stroke="#666666" points="408,-56 316,-56 316,-37 408,-37 408,-56"/>
<text text-anchor="middle" x="362" y="-44" font-family="Helvetica,sans-Serif" font-size="10.00">func_8009B8C4</text>
</a>
</g>
</g>
<!-- Node2&#45;&gt;Node7 -->
<g id="edge6_Node000002_Node000007" class="edge">
<title>Node2&#45;&gt;Node7</title>
<g id="a_edge6_Node000002_Node000007"><a xlink:title=" ">
<path fill="none" stroke="#63b8ff" d="M267.55,-57.28C280.13,-55.83 293.28,-54.31 305.59,-52.89"/>
<polygon fill="#63b8ff" stroke="#63b8ff" points="306.19,-56.35 315.72,-51.72 305.38,-49.39 306.19,-56.35"/>
</a>
</g>
</g>
<!-- Node8 -->
<g id="Node000008" class="node">
<title>Node8</title>
<g id="a_Node000008"><a xlink:href="GBIMiddleware_8cpp.html#a4ecc44e3c6f1ca5a6b4a20c41d3bd2d2" target="_top" xlink:title=" ">
<polygon fill="white" stroke="#666666" points="406.5,-19 317.5,-19 317.5,0 406.5,0 406.5,-19"/>
<text text-anchor="middle" x="362" y="-7" font-family="Helvetica,sans-Serif" font-size="10.00">gSPDisplayList</text>
</a>
</g>
</g>
<!-- Node2&#45;&gt;Node8 -->
<g id="edge7_Node000002_Node000008" class="edge">
<title>Node2&#45;&gt;Node8</title>
<g id="a_edge7_Node000002_Node000008"><a xlink:title=" ">
<path fill="none" stroke="#63b8ff" d="M251.9,-54.99C261.32,-52.59 271.07,-49.76 280,-46.5 296.81,-40.37 299.75,-35.98 316,-28.5 319.9,-26.7 324.02,-24.88 328.11,-23.1"/>
<polygon fill="#63b8ff" stroke="#63b8ff" points="329.7,-26.23 337.52,-19.08 326.95,-19.79 329.7,-26.23"/>
</a>
</g>
</g>
<!-- Node5 -->
<g id="Node000005" class="node">
<title>Node5</title>
<g id="a_Node000005"><a xlink:href="math__util_8c.html#ae69cbf5c8d4b3b0dba2d7b4d4673689f" target="_top" xlink:title=" ">
<polygon fill="white" stroke="#666666" points="537.5,-111 499.5,-111 499.5,-92 537.5,-92 537.5,-111"/>
<text text-anchor="middle" x="518.5" y="-99" font-family="Helvetica,sans-Serif" font-size="10.00">coss</text>
</a>
</g>
</g>
<!-- Node4&#45;&gt;Node5 -->
<g id="edge4_Node000004_Node000005" class="edge">
<title>Node4&#45;&gt;Node5</title>
<g id="a_edge4_Node000004_Node000005"><a xlink:title=" ">
<path fill="none" stroke="#63b8ff" d="M408.1,-88.75C434.4,-91.82 466.75,-95.59 489.42,-98.23"/>
<polygon fill="#63b8ff" stroke="#63b8ff" points="489.06,-101.71 499.4,-99.39 489.87,-94.76 489.06,-101.71"/>
</a>
</g>
</g>
<!-- Node6 -->
<g id="Node000006" class="node">
<title>Node6</title>
<g id="a_Node000006"><a xlink:href="math__util_8c.html#a19ed3bd78fd2d3e2bd0a29f6caf48545" target="_top" xlink:title=" ">
<polygon fill="white" stroke="#666666" points="536.5,-74 500.5,-74 500.5,-55 536.5,-55 536.5,-74"/>
<text text-anchor="middle" x="518.5" y="-62" font-family="Helvetica,sans-Serif" font-size="10.00">sins</text>
</a>
</g>
</g>
<!-- Node4&#45;&gt;Node6 -->
<g id="edge5_Node000004_Node000006" class="edge">
<title>Node4&#45;&gt;Node6</title>
<g id="a_edge5_Node000004_Node000006"><a xlink:title=" ">
<path fill="none" stroke="#63b8ff" d="M408.1,-77.95C434.71,-74.68 467.5,-70.65 490.21,-67.86"/>
<polygon fill="#63b8ff" stroke="#63b8ff" points="490.68,-71.32 500.18,-66.63 489.82,-64.38 490.68,-71.32"/>
</a>
</g>
</g>
<!-- Node9 -->
<g id="Node000009" class="node">
<title>Node9</title>
<g id="a_Node000009"><a xlink:href="Engine_8cpp.html#a223c8bc63f228dc11177515e38eff2db" target="_top" xlink:title=" ">
<polygon fill="white" stroke="#666666" points="593,-19 444,-19 444,0 593,0 593,-19"/>
<text text-anchor="middle" x="518.5" y="-7" font-family="Helvetica,sans-Serif" font-size="10.00">GameEngine_OTRSigCheck</text>
</a>
</g>
</g>
<!-- Node8&#45;&gt;Node9 -->
<g id="edge8_Node000008_Node000009" class="edge">
<title>Node8&#45;&gt;Node9</title>
<g id="a_edge8_Node000008_Node000009"><a xlink:title=" ">
<path fill="none" stroke="#63b8ff" d="M406.86,-9.5C415.31,-9.5 424.42,-9.5 433.66,-9.5"/>
<polygon fill="#63b8ff" stroke="#63b8ff" points="433.71,-13 443.71,-9.5 433.71,-6 433.71,-13"/>
</a>
</g>
</g>
<!-- Node10 -->
<g id="Node000010" class="node">
<title>Node10</title>
<g id="a_Node000010"><a xlink:href="string_8c.html#a008e171a518fe0e0352f31b245e03875" target="_top" xlink:title=" ">
<polygon fill="white" stroke="#666666" points="673,-19 629,-19 629,0 673,0 673,-19"/>
<text text-anchor="middle" x="651" y="-7" font-family="Helvetica,sans-Serif" font-size="10.00">strlen</text>
</a>
</g>
</g>
<!-- Node9&#45;&gt;Node10 -->
<g id="edge9_Node000009_Node000010" class="edge">
<title>Node9&#45;&gt;Node10</title>
<g id="a_edge9_Node000009_Node000010"><a xlink:title=" ">
<path fill="none" stroke="#63b8ff" d="M593.14,-9.5C602.12,-9.5 610.89,-9.5 618.75,-9.5"/>
<polygon fill="#63b8ff" stroke="#63b8ff" points="618.83,-13 628.83,-9.5 618.83,-6 618.83,-13"/>
</a>
</g>
</g>
</g>
</svg>
