<?xml version="1.0" encoding="UTF-8" standalone="no"?>
<!DOCTYPE svg PUBLIC "-//W3C//DTD SVG 1.1//EN"
 "http://www.w3.org/Graphics/SVG/1.1/DTD/svg11.dtd">
<!-- Generated by graphviz version 2.43.0 (0)
 -->
<!-- Title: func_800A3ADC Pages: 1 -->
<!--zoomable 628 -->

<svg id="main" version="1.1" xmlns="http://www.w3.org/2000/svg" xmlns:xlink="http://www.w3.org/1999/xlink" xml:space="preserve" onload="init(evt)">

<style type="text/css"><![CDATA[
.node, .edge {opacity: 0.7;}
.node.selected, .edge.selected {opacity: 1;}
.edge:hover path { stroke: red; }
.edge:hover polygon { stroke: red; fill: red; }
]]></style>

<defs>
  <circle id="rim" cx="0" cy="0" r="7"/>
  <circle id="rim2" cx="0" cy="0" r="3.5"/>
  <g id="zoomPlus">
    <use xlink:href="#rim" fill="#404040"><set attributeName="fill" to="#808080" begin="zoomplus.mouseover" end="zoomplus.mouseout"/></use>
    <path d="M-4,0h8M0,-4v8" fill="none" stroke="white" stroke-width="1.5" pointer-events="none"/>
  </g>
  <g id="zoomMin">
    <use xlink:href="#rim" fill="#404040"><set attributeName="fill" to="#808080" begin="zoomminus.mouseover" end="zoomminus.mouseout"/></use>
    <path d="M-4,0h8" fill="none" stroke="white" stroke-width="1.5" pointer-events="none"/>
  </g>
  <g id="arrowUp" transform="translate(30 24)">
    <use xlink:href="#rim"/>
    <path pointer-events="none" fill="none" stroke="white" stroke-width="1.5" d="M0,-3.0v7 M-2.5,-0.5L0,-3.0L2.5,-0.5"/>
  </g>
  <g id="arrowRight" transform="rotate(90) translate(36 -43)">
    <use xlink:href="#rim"/>
    <path pointer-events="none" fill="none" stroke="white" stroke-width="1.5" d="M0,-3.0v7 M-2.5,-0.5L0,-3.0L2.5,-0.5"/>
  </g>
  <g id="arrowDown" transform="rotate(180) translate(-30 -48)">
    <use xlink:href="#rim"/>
    <path pointer-events="none" fill="none" stroke="white" stroke-width="1.5" d="M0,-3.0v7 M-2.5,-0.5L0,-3.0L2.5,-0.5"/>
  </g>
  <g id="arrowLeft" transform="rotate(270) translate(-36 17)">
    <use xlink:href="#rim"/>
    <path pointer-events="none" fill="none" stroke="white" stroke-width="1.5" d="M0,-3.0v7 M-2.5,-0.5L0,-3.0L2.5,-0.5"/>
  </g>
  <g id="resetDef">
    <use xlink:href="#rim2" fill="#404040"><set attributeName="fill" to="#808080" begin="reset.mouseover" end="reset.mouseout"/></use>
  </g>
</defs>
<script type="application/ecmascript">
var viewWidth = 1541;
var viewHeight = 628;
var sectionId = 'dynsection-251';
</script>
<script type="application/ecmascript" xlink:href="svg.min.js"/>
<svg id="graph" class="graph">
<g id="viewport">
<title>func_800A3ADC</title>
<!-- Node1 -->
<g id="Node000001" class="node">
<title>Node1</title>
<g id="a_Node000001"><a xlink:title=" ">
<polygon fill="#999999" stroke="#666666" points="95,-223.41 0,-223.41 0,-204.41 95,-204.41 95,-223.41"/>
<text text-anchor="middle" x="47.5" y="-211.41" font-family="Helvetica,sans-Serif" font-size="10.00">func_800A3ADC</text>
</a>
</g>
</g>
<!-- Node2 -->
<g id="Node000002" class="node">
<title>Node2</title>
<g id="a_Node000002"><a xlink:href="menu__items_8c.html#a87ff828f0134d42058cf8be2e012a8a3" target="_top" xlink:title=" ">
<polygon fill="white" stroke="#666666" points="270,-260.41 131,-260.41 131,-241.41 270,-241.41 270,-260.41"/>
<text text-anchor="middle" x="200.5" y="-248.41" font-family="Helvetica,sans-Serif" font-size="10.00">convert_number_to_ascii</text>
</a>
</g>
</g>
<!-- Node1&#45;&gt;Node2 -->
<g id="edge1_Node000001_Node000002" class="edge">
<title>Node1&#45;&gt;Node2</title>
<g id="a_edge1_Node000001_Node000002"><a xlink:title=" ">
<path fill="none" stroke="#63b8ff" d="M87.39,-223.44C106.69,-228.17 130.2,-233.93 150.69,-238.95"/>
<polygon fill="#63b8ff" stroke="#63b8ff" points="149.94,-242.37 160.48,-241.35 151.6,-235.57 149.94,-242.37"/>
</a>
</g>
</g>
<!-- Node3 -->
<g id="Node000003" class="node">
<title>Node3</title>
<g id="a_Node000003"><a xlink:href="menu__items_8c.html#a51a08d17a71783b05d2688b3e4f1e88c" target="_top" xlink:title=" ">
<polygon fill="white" stroke="#666666" points="246.5,-185.41 154.5,-185.41 154.5,-166.41 246.5,-166.41 246.5,-185.41"/>
<text text-anchor="middle" x="200.5" y="-173.41" font-family="Helvetica,sans-Serif" font-size="10.00">func_800939C8</text>
</a>
</g>
</g>
<!-- Node1&#45;&gt;Node3 -->
<g id="edge2_Node000001_Node000003" class="edge">
<title>Node1&#45;&gt;Node3</title>
<g id="a_edge2_Node000001_Node000003"><a xlink:title=" ">
<path fill="none" stroke="#63b8ff" d="M86.6,-204.32C106.44,-199.33 130.88,-193.18 151.95,-187.88"/>
<polygon fill="#63b8ff" stroke="#63b8ff" points="152.83,-191.26 161.67,-185.43 151.12,-184.48 152.83,-191.26"/>
</a>
</g>
</g>
<!-- Node41 -->
<g id="Node000041" class="node">
<title>Node41</title>
<g id="a_Node000041"><a xlink:href="menu__items_8c.html#ad7caaa9bd54f2228a931877bd6eb3b87" target="_top" xlink:title=" ">
<polygon fill="white" stroke="#666666" points="254.5,-223.41 146.5,-223.41 146.5,-204.41 254.5,-204.41 254.5,-223.41"/>
<text text-anchor="middle" x="200.5" y="-211.41" font-family="Helvetica,sans-Serif" font-size="10.00">print_text_mode_1</text>
</a>
</g>
</g>
<!-- Node1&#45;&gt;Node41 -->
<g id="edge53_Node000001_Node000041" class="edge">
<title>Node1&#45;&gt;Node41</title>
<g id="a_edge53_Node000001_Node000041"><a xlink:title=" ">
<path fill="none" stroke="#63b8ff" d="M95.04,-213.91C107.95,-213.91 122.2,-213.91 135.9,-213.91"/>
<polygon fill="#63b8ff" stroke="#63b8ff" points="136.25,-217.41 146.25,-213.91 136.25,-210.41 136.25,-217.41"/>
</a>
</g>
</g>
<!-- Node4 -->
<g id="Node000004" class="node">
<title>Node4</title>
<g id="a_Node000004"><a xlink:href="menu__items_8c.html#afa1d2583978658f8524340b7b94544b1" target="_top" xlink:title=" ">
<polygon fill="white" stroke="#666666" points="376,-182.41 306,-182.41 306,-163.41 376,-163.41 376,-182.41"/>
<text text-anchor="middle" x="341" y="-170.41" font-family="Helvetica,sans-Serif" font-size="10.00">print_text2</text>
</a>
</g>
</g>
<!-- Node3&#45;&gt;Node4 -->
<g id="edge3_Node000003_Node000004" class="edge">
<title>Node3&#45;&gt;Node4</title>
<g id="a_edge3_Node000003_Node000004"><a xlink:title=" ">
<path fill="none" stroke="#63b8ff" d="M246.85,-174.93C262.49,-174.59 279.98,-174.21 295.55,-173.87"/>
<polygon fill="#63b8ff" stroke="#63b8ff" points="296.05,-177.36 305.97,-173.65 295.9,-170.36 296.05,-177.36"/>
</a>
</g>
</g>
<!-- Node5 -->
<g id="Node000005" class="node">
<title>Node5</title>
<g id="a_Node000005"><a xlink:href="menu__items_8c.html#ace62f40ce813c34904327e39643a0dbf" target="_top" xlink:title=" ">
<polygon fill="white" stroke="#666666" points="540,-101.41 423,-101.41 423,-82.41 540,-82.41 540,-101.41"/>
<text text-anchor="middle" x="481.5" y="-89.41" font-family="Helvetica,sans-Serif" font-size="10.00">char_to_glyph_index</text>
</a>
</g>
</g>
<!-- Node4&#45;&gt;Node5 -->
<g id="edge4_Node000004_Node000005" class="edge">
<title>Node4&#45;&gt;Node5</title>
<g id="a_edge4_Node000004_Node000005"><a xlink:title=" ">
<path fill="none" stroke="#63b8ff" d="M351.62,-163.21C364.42,-150.77 388.2,-129.23 412,-115.91 419.51,-111.71 427.88,-108.04 436.13,-104.92"/>
<polygon fill="#63b8ff" stroke="#63b8ff" points="437.45,-108.17 445.69,-101.51 435.1,-101.57 437.45,-108.17"/>
</a>
</g>
</g>
<!-- Node9 -->
<g id="Node000009" class="node">
<title>Node9</title>
<g id="a_Node000009"><a xlink:href="FrameInterpolation_8cpp.html#a14ceaeb116362786310778e36943f7be" target="_top" xlink:title=" ">
<polygon fill="white" stroke="#666666" points="551,-187.91 412,-187.91 412,-157.91 551,-157.91 551,-187.91"/>
<text text-anchor="start" x="420" y="-175.91" font-family="Helvetica,sans-Serif" font-size="10.00">FrameInterpolation</text>
<text text-anchor="middle" x="481.5" y="-164.91" font-family="Helvetica,sans-Serif" font-size="10.00">_ShouldInterpolateFrame</text>
</a>
</g>
</g>
<!-- Node4&#45;&gt;Node9 -->
<g id="edge9_Node000004_Node000009" class="edge">
<title>Node4&#45;&gt;Node9</title>
<g id="a_edge9_Node000004_Node000009"><a xlink:title=" ">
<path fill="none" stroke="#63b8ff" d="M376.24,-172.91C384.09,-172.91 392.77,-172.91 401.65,-172.91"/>
<polygon fill="#63b8ff" stroke="#63b8ff" points="401.75,-176.41 411.75,-172.91 401.75,-169.41 401.75,-176.41"/>
</a>
</g>
</g>
<!-- Node10 -->
<g id="Node000010" class="node">
<title>Node10</title>
<g id="a_Node000010"><a xlink:href="GBIMiddleware_8cpp.html#a4ecc44e3c6f1ca5a6b4a20c41d3bd2d2" target="_top" xlink:title=" ">
<polygon fill="white" stroke="#666666" points="1035.5,-308.41 946.5,-308.41 946.5,-289.41 1035.5,-289.41 1035.5,-308.41"/>
<text text-anchor="middle" x="991" y="-296.41" font-family="Helvetica,sans-Serif" font-size="10.00">gSPDisplayList</text>
</a>
</g>
</g>
<!-- Node4&#45;&gt;Node10 -->
<g id="edge10_Node000004_Node000010" class="edge">
<title>Node4&#45;&gt;Node10</title>
<g id="a_edge10_Node000004_Node000010"><a xlink:title=" ">
<path fill="none" stroke="#63b8ff" d="M345.3,-163.14C353.04,-142.01 374.59,-92.38 412,-72.91 598.61,24.25 713.2,29.55 885,-91.91 950.24,-138.03 977.41,-236.89 986.34,-279.12"/>
<polygon fill="#63b8ff" stroke="#63b8ff" points="982.93,-279.89 988.32,-289.01 989.79,-278.52 982.93,-279.89"/>
</a>
</g>
</g>
<!-- Node13 -->
<g id="Node000013" class="node">
<title>Node13</title>
<g id="a_Node000013"><a xlink:href="menu__items_8c.html#a68e560d23390d5add7cb57ccd82e21ae" target="_top" xlink:title=" ">
<polygon fill="white" stroke="#666666" points="529,-225.41 434,-225.41 434,-206.41 529,-206.41 529,-225.41"/>
<text text-anchor="middle" x="481.5" y="-213.41" font-family="Helvetica,sans-Serif" font-size="10.00">load_menu_img</text>
</a>
</g>
</g>
<!-- Node4&#45;&gt;Node13 -->
<g id="edge13_Node000004_Node000013" class="edge">
<title>Node4&#45;&gt;Node13</title>
<g id="a_edge13_Node000004_Node000013"><a xlink:title=" ">
<path fill="none" stroke="#63b8ff" d="M368.8,-182.52C381.79,-187.07 397.64,-192.46 412,-196.91 419.3,-199.17 427.07,-201.45 434.66,-203.6"/>
<polygon fill="#63b8ff" stroke="#63b8ff" points="433.9,-207.02 444.48,-206.35 435.79,-200.28 433.9,-207.02"/>
</a>
</g>
</g>
<!-- Node15 -->
<g id="Node000015" class="node">
<title>Node15</title>
<g id="a_Node000015"><a xlink:href="menu__items_8c.html#a2d2758c3a87de891a40840727bef3306" target="_top" xlink:title=" ">
<polygon fill="white" stroke="#666666" points="739,-263.41 587,-263.41 587,-244.41 739,-244.41 739,-263.41"/>
<text text-anchor="middle" x="663" y="-251.41" font-family="Helvetica,sans-Serif" font-size="10.00">segmented_to_virtual_dupe</text>
</a>
</g>
</g>
<!-- Node4&#45;&gt;Node15 -->
<g id="edge52_Node000004_Node000015" class="edge">
<title>Node4&#45;&gt;Node15</title>
<g id="a_edge52_Node000004_Node000015"><a xlink:title=" ">
<path fill="none" stroke="#63b8ff" d="M360.64,-163.32C399.62,-144.75 491.1,-109.05 551,-148.91 585.5,-171.87 555.61,-207.86 587,-234.91 588.96,-236.6 591.05,-238.14 593.23,-239.55"/>
<polygon fill="#63b8ff" stroke="#63b8ff" points="591.64,-242.66 602.1,-244.34 594.96,-236.5 591.64,-242.66"/>
</a>
</g>
</g>
<!-- Node16 -->
<g id="Node000016" class="node">
<title>Node16</title>
<g id="a_Node000016"><a xlink:href="menu__items_8c.html#aafca6e35a19465ad361e68b13e467243" target="_top" xlink:title=" ">
<polygon fill="white" stroke="#666666" points="517,-301.41 446,-301.41 446,-282.41 517,-282.41 517,-301.41"/>
<text text-anchor="middle" x="481.5" y="-289.41" font-family="Helvetica,sans-Serif" font-size="10.00">print_letter</text>
</a>
</g>
</g>
<!-- Node4&#45;&gt;Node16 -->
<g id="edge16_Node000004_Node000016" class="edge">
<title>Node4&#45;&gt;Node16</title>
<g id="a_edge16_Node000004_Node000016"><a xlink:title=" ">
<path fill="none" stroke="#63b8ff" d="M356.3,-182.62C362.53,-187.06 369.81,-192.52 376,-197.91 393.3,-212.98 395.16,-219.33 412,-234.91 427.71,-249.44 446.43,-264.91 460.33,-276.06"/>
<polygon fill="#63b8ff" stroke="#63b8ff" points="458.29,-278.9 468.3,-282.39 462.65,-273.43 458.29,-278.9"/>
</a>
</g>
</g>
<!-- Node6 -->
<g id="Node000006" class="node">
<title>Node6</title>
<g id="a_Node000006"><a xlink:href="menu__items_8c.html#ae8ba1b567dba01ff15c64d416653a70b" target="_top" xlink:title=" ">
<polygon fill="white" stroke="#666666" points="709,-101.41 617,-101.41 617,-82.41 709,-82.41 709,-101.41"/>
<text text-anchor="middle" x="663" y="-89.41" font-family="Helvetica,sans-Serif" font-size="10.00">func_80092DF8</text>
</a>
</g>
</g>
<!-- Node5&#45;&gt;Node6 -->
<g id="edge5_Node000005_Node000006" class="edge">
<title>Node5&#45;&gt;Node6</title>
<g id="a_edge5_Node000005_Node000006"><a xlink:title=" ">
<path fill="none" stroke="#63b8ff" d="M540.28,-91.91C561.6,-91.91 585.68,-91.91 606.76,-91.91"/>
<polygon fill="#63b8ff" stroke="#63b8ff" points="606.85,-95.41 616.85,-91.91 606.85,-88.41 606.85,-95.41"/>
</a>
</g>
</g>
<!-- Node7 -->
<g id="Node000007" class="node">
<title>Node7</title>
<g id="a_Node000007"><a xlink:href="menu__items_8c.html#acd5b29a8e8634aa4f3db4b9a7c5ba033" target="_top" xlink:title=" ">
<polygon fill="white" stroke="#666666" points="876,-120.41 784,-120.41 784,-101.41 876,-101.41 876,-120.41"/>
<text text-anchor="middle" x="830" y="-108.41" font-family="Helvetica,sans-Serif" font-size="10.00">func_80092E1C</text>
</a>
</g>
</g>
<!-- Node5&#45;&gt;Node7 -->
<g id="edge7_Node000005_Node000007" class="edge">
<title>Node5&#45;&gt;Node7</title>
<g id="a_edge7_Node000005_Node000007"><a xlink:title=" ">
<path fill="none" stroke="#63b8ff" d="M528.07,-101.45C546.3,-104.83 567.56,-108.21 587,-109.91 650.89,-115.5 724.62,-114.78 773.75,-113.29"/>
<polygon fill="#63b8ff" stroke="#63b8ff" points="773.97,-116.78 783.85,-112.96 773.74,-109.79 773.97,-116.78"/>
</a>
</g>
</g>
<!-- Node8 -->
<g id="Node000008" class="node">
<title>Node8</title>
<g id="a_Node000008"><a xlink:href="menu__items_8c.html#ab26c8dca1828cd1d5a6c341cb851f0b9" target="_top" xlink:title=" ">
<polygon fill="white" stroke="#666666" points="708.5,-177.41 617.5,-177.41 617.5,-158.41 708.5,-158.41 708.5,-177.41"/>
<text text-anchor="middle" x="663" y="-165.41" font-family="Helvetica,sans-Serif" font-size="10.00">func_80092EE4</text>
</a>
</g>
</g>
<!-- Node5&#45;&gt;Node8 -->
<g id="edge8_Node000005_Node000008" class="edge">
<title>Node5&#45;&gt;Node8</title>
<g id="a_edge8_Node000005_Node000008"><a xlink:title=" ">
<path fill="none" stroke="#63b8ff" d="M516.53,-101.41C527.83,-105.2 540.27,-110.06 551,-115.91 568.8,-125.61 569.07,-134.45 587,-143.91 595.26,-148.27 604.45,-152.01 613.49,-155.15"/>
<polygon fill="#63b8ff" stroke="#63b8ff" points="612.59,-158.54 623.18,-158.32 614.77,-151.88 612.59,-158.54"/>
</a>
</g>
</g>
<!-- Node6&#45;&gt;Node7 -->
<g id="edge6_Node000006_Node000007" class="edge">
<title>Node6&#45;&gt;Node7</title>
<g id="a_edge6_Node000006_Node000007"><a xlink:title=" ">
<path fill="none" stroke="#63b8ff" d="M709.09,-97.1C729.09,-99.4 752.83,-102.14 773.88,-104.56"/>
<polygon fill="#63b8ff" stroke="#63b8ff" points="773.63,-108.06 783.97,-105.72 774.43,-101.1 773.63,-108.06"/>
</a>
</g>
</g>
<!-- Node11 -->
<g id="Node000011" class="node">
<title>Node11</title>
<g id="a_Node000011"><a xlink:href="Engine_8cpp.html#a223c8bc63f228dc11177515e38eff2db" target="_top" xlink:title=" ">
<polygon fill="white" stroke="#666666" points="1246,-327.41 1097,-327.41 1097,-308.41 1246,-308.41 1246,-327.41"/>
<text text-anchor="middle" x="1171.5" y="-315.41" font-family="Helvetica,sans-Serif" font-size="10.00">GameEngine_OTRSigCheck</text>
</a>
</g>
</g>
<!-- Node10&#45;&gt;Node11 -->
<g id="edge11_Node000010_Node000011" class="edge">
<title>Node10&#45;&gt;Node11</title>
<g id="a_edge11_Node000010_Node000011"><a xlink:title=" ">
<path fill="none" stroke="#63b8ff" d="M1035.67,-303.56C1051.02,-305.19 1068.84,-307.09 1086.4,-308.96"/>
<polygon fill="#63b8ff" stroke="#63b8ff" points="1086.36,-312.47 1096.68,-310.05 1087.11,-305.51 1086.36,-312.47"/>
</a>
</g>
</g>
<!-- Node12 -->
<g id="Node000012" class="node">
<title>Node12</title>
<g id="a_Node000012"><a xlink:href="string_8c.html#a008e171a518fe0e0352f31b245e03875" target="_top" xlink:title=" ">
<polygon fill="white" stroke="#666666" points="1328.5,-345.41 1284.5,-345.41 1284.5,-326.41 1328.5,-326.41 1328.5,-345.41"/>
<text text-anchor="middle" x="1306.5" y="-333.41" font-family="Helvetica,sans-Serif" font-size="10.00">strlen</text>
</a>
</g>
</g>
<!-- Node11&#45;&gt;Node12 -->
<g id="edge12_Node000011_Node000012" class="edge">
<title>Node11&#45;&gt;Node12</title>
<g id="a_edge12_Node000011_Node000012"><a xlink:title=" ">
<path fill="none" stroke="#63b8ff" d="M1242.89,-327.44C1253.94,-328.93 1264.84,-330.41 1274.38,-331.7"/>
<polygon fill="#63b8ff" stroke="#63b8ff" points="1274.12,-335.19 1284.49,-333.07 1275.05,-328.26 1274.12,-335.19"/>
</a>
</g>
</g>
<!-- Node14 -->
<g id="Node000014" class="node">
<title>Node14</title>
<g id="a_Node000014"><a xlink:href="menu__items_8c.html#a248768ee2e4ca9ae9cf0a30bfb256859" target="_top" xlink:title=" ">
<polygon fill="white" stroke="#666666" points="702,-225.41 624,-225.41 624,-206.41 702,-206.41 702,-225.41"/>
<text text-anchor="middle" x="663" y="-213.41" font-family="Helvetica,sans-Serif" font-size="10.00">load_texture</text>
</a>
</g>
</g>
<!-- Node13&#45;&gt;Node14 -->
<g id="edge14_Node000013_Node000014" class="edge">
<title>Node13&#45;&gt;Node14</title>
<g id="a_edge14_Node000013_Node000014"><a xlink:title=" ">
<path fill="none" stroke="#63b8ff" d="M529.19,-215.91C555.24,-215.91 587.62,-215.91 613.89,-215.91"/>
<polygon fill="#63b8ff" stroke="#63b8ff" points="614,-219.41 624,-215.91 614,-212.41 614,-219.41"/>
</a>
</g>
</g>
<!-- Node13&#45;&gt;Node15 -->
<g id="edge15_Node000013_Node000015" class="edge">
<title>Node13&#45;&gt;Node15</title>
<g id="a_edge15_Node000013_Node000015"><a xlink:title=" ">
<path fill="none" stroke="#63b8ff" d="M527.8,-225.5C551.91,-230.6 581.75,-236.92 607.17,-242.3"/>
<polygon fill="#63b8ff" stroke="#63b8ff" points="606.52,-245.74 617.03,-244.39 607.97,-238.89 606.52,-245.74"/>
</a>
</g>
</g>
<!-- Node16&#45;&gt;Node10 -->
<g id="edge50_Node000016_Node000010" class="edge">
<title>Node16&#45;&gt;Node10</title>
<g id="a_edge50_Node000016_Node000010"><a xlink:title=" ">
<path fill="none" stroke="#63b8ff" d="M517.38,-292.39C604.42,-293.59 831.65,-296.72 936.08,-298.17"/>
<polygon fill="#63b8ff" stroke="#63b8ff" points="936.35,-301.67 946.39,-298.31 936.44,-294.67 936.35,-301.67"/>
</a>
</g>
</g>
<!-- Node16&#45;&gt;Node15 -->
<g id="edge51_Node000016_Node000015" class="edge">
<title>Node16&#45;&gt;Node15</title>
<g id="a_edge51_Node000016_Node000015"><a xlink:title=" ">
<path fill="none" stroke="#63b8ff" d="M517.11,-284.58C542.54,-279.2 577.6,-271.78 606.87,-265.58"/>
<polygon fill="#63b8ff" stroke="#63b8ff" points="607.89,-268.94 616.95,-263.45 606.44,-262.09 607.89,-268.94"/>
</a>
</g>
</g>
<!-- Node17 -->
<g id="Node000017" class="node">
<title>Node17</title>
<g id="a_Node000017"><a xlink:href="menu__items_8c.html#a37eb021a953285ba504198ac6ca73a9a" target="_top" xlink:title=" ">
<polygon fill="white" stroke="#666666" points="709.5,-457.41 616.5,-457.41 616.5,-438.41 709.5,-438.41 709.5,-457.41"/>
<text text-anchor="middle" x="663" y="-445.41" font-family="Helvetica,sans-Serif" font-size="10.00">func_80095BD0</text>
</a>
</g>
</g>
<!-- Node16&#45;&gt;Node17 -->
<g id="edge17_Node000016_Node000017" class="edge">
<title>Node16&#45;&gt;Node17</title>
<g id="a_edge17_Node000016_Node000017"><a xlink:title=" ">
<path fill="none" stroke="#63b8ff" d="M493.46,-301.43C523.18,-327.26 605.59,-398.89 643.04,-431.43"/>
<polygon fill="#63b8ff" stroke="#63b8ff" points="640.88,-434.19 650.73,-438.11 645.47,-428.91 640.88,-434.19"/>
</a>
</g>
</g>
<!-- Node18 -->
<g id="Node000018" class="node">
<title>Node18</title>
<g id="a_Node000018"><a xlink:href="Matrix_8cpp.html#a6f64c44efb9bdfff802175a9739ce1f1" target="_top" xlink:title=" ">
<polygon fill="white" stroke="#666666" points="873.5,-555.41 786.5,-555.41 786.5,-536.41 873.5,-536.41 873.5,-555.41"/>
<text text-anchor="middle" x="830" y="-543.41" font-family="Helvetica,sans-Serif" font-size="10.00">AddTextMatrix</text>
</a>
</g>
</g>
<!-- Node17&#45;&gt;Node18 -->
<g id="edge18_Node000017_Node000018" class="edge">
<title>Node17&#45;&gt;Node18</title>
<g id="a_edge18_Node000017_Node000018"><a xlink:title=" ">
<path fill="none" stroke="#63b8ff" d="M674.92,-457.54C694.02,-473.95 735.25,-507.56 775,-527.91 778.36,-529.63 781.93,-531.24 785.56,-532.73"/>
<polygon fill="#63b8ff" stroke="#63b8ff" points="784.64,-536.13 795.23,-536.4 787.12,-529.58 784.64,-536.13"/>
</a>
</g>
</g>
<!-- Node22 -->
<g id="Node000022" class="node">
<title>Node22</title>
<g id="a_Node000022"><a xlink:href="FrameInterpolation_8cpp.html#a3a036bc9d533e28a4e9697cd20dccf3e" target="_top" xlink:title=" ">
<polygon fill="white" stroke="#666666" points="885,-462.91 775,-462.91 775,-432.91 885,-432.91 885,-462.91"/>
<text text-anchor="start" x="783" y="-450.91" font-family="Helvetica,sans-Serif" font-size="10.00">FrameInterpolation</text>
<text text-anchor="middle" x="830" y="-439.91" font-family="Helvetica,sans-Serif" font-size="10.00">_RecordCloseChild</text>
</a>
</g>
</g>
<!-- Node17&#45;&gt;Node22 -->
<g id="edge22_Node000017_Node000022" class="edge">
<title>Node17&#45;&gt;Node22</title>
<g id="a_edge22_Node000017_Node000022"><a xlink:title=" ">
<path fill="none" stroke="#63b8ff" d="M709.52,-447.91C726.59,-447.91 746.31,-447.91 764.75,-447.91"/>
<polygon fill="#63b8ff" stroke="#63b8ff" points="764.84,-451.41 774.84,-447.91 764.84,-444.41 764.84,-451.41"/>
</a>
</g>
</g>
<!-- Node23 -->
<g id="Node000023" class="node">
<title>Node23</title>
<g id="a_Node000023"><a xlink:href="FrameInterpolation_8cpp.html#a0eda726b74eac815af4e874014e2727c" target="_top" xlink:title=" ">
<polygon fill="white" stroke="#666666" points="885,-619.91 775,-619.91 775,-589.91 885,-589.91 885,-619.91"/>
<text text-anchor="start" x="783" y="-607.91" font-family="Helvetica,sans-Serif" font-size="10.00">FrameInterpolation</text>
<text text-anchor="middle" x="830" y="-596.91" font-family="Helvetica,sans-Serif" font-size="10.00">_RecordOpenChild</text>
</a>
</g>
</g>
<!-- Node17&#45;&gt;Node23 -->
<g id="edge24_Node000017_Node000023" class="edge">
<title>Node17&#45;&gt;Node23</title>
<g id="a_edge24_Node000017_Node000023"><a xlink:title=" ">
<path fill="none" stroke="#63b8ff" d="M672.12,-457.55C689.79,-478.27 733.49,-528.16 775,-564.91 782.31,-571.38 790.62,-577.9 798.48,-583.74"/>
<polygon fill="#63b8ff" stroke="#63b8ff" points="796.64,-586.72 806.78,-589.78 800.75,-581.06 796.64,-586.72"/>
</a>
</g>
</g>
<!-- Node24 -->
<g id="Node000024" class="node">
<title>Node24</title>
<g id="a_Node000024"><a xlink:href="menu__items_8c.html#ae0fd5923ba70cf6939cd3fa8d09c1191" target="_top" xlink:title=" ">
<polygon fill="white" stroke="#666666" points="875.5,-377.41 784.5,-377.41 784.5,-358.41 875.5,-358.41 875.5,-377.41"/>
<text text-anchor="middle" x="830" y="-365.41" font-family="Helvetica,sans-Serif" font-size="10.00">func_800959F8</text>
</a>
</g>
</g>
<!-- Node17&#45;&gt;Node24 -->
<g id="edge26_Node000017_Node000024" class="edge">
<title>Node17&#45;&gt;Node24</title>
<g id="a_edge26_Node000017_Node000024"><a xlink:title=" ">
<path fill="none" stroke="#63b8ff" d="M679.39,-438.39C700.45,-425.61 739.67,-402.7 775,-386.91 779.64,-384.83 784.59,-382.83 789.53,-380.95"/>
<polygon fill="#63b8ff" stroke="#63b8ff" points="790.76,-384.22 798.95,-377.5 788.35,-377.65 790.76,-384.22"/>
</a>
</g>
</g>
<!-- Node26 -->
<g id="Node000026" class="node">
<title>Node26</title>
<g id="a_Node000026"><a xlink:href="stubs_8c.html#a8b417b868747c80d58f83d8a1e78ecf3" target="_top" xlink:title=" ">
<polygon fill="white" stroke="#666666" points="864,-414.41 796,-414.41 796,-395.41 864,-395.41 864,-414.41"/>
<text text-anchor="middle" x="830" y="-402.41" font-family="Helvetica,sans-Serif" font-size="10.00">rmonPrintf</text>
</a>
</g>
</g>
<!-- Node17&#45;&gt;Node26 -->
<g id="edge30_Node000017_Node000026" class="edge">
<title>Node17&#45;&gt;Node26</title>
<g id="a_edge30_Node000017_Node000026"><a xlink:title=" ">
<path fill="none" stroke="#63b8ff" d="M700.62,-438.37C725.87,-431.78 759.54,-423.01 786.06,-416.1"/>
<polygon fill="#63b8ff" stroke="#63b8ff" points="787.05,-419.46 795.85,-413.55 785.29,-412.68 787.05,-419.46"/>
</a>
</g>
</g>
<!-- Node39 -->
<g id="Node000039" class="node">
<title>Node39</title>
<g id="a_Node000039"><a xlink:href="Matrix_8cpp.html#a9818099a1ee20606a7d622e744846366" target="_top" xlink:title=" ">
<polygon fill="white" stroke="#666666" points="872,-500.41 788,-500.41 788,-481.41 872,-481.41 872,-500.41"/>
<text text-anchor="middle" x="830" y="-488.41" font-family="Helvetica,sans-Serif" font-size="10.00">SetTextMatrix</text>
</a>
</g>
</g>
<!-- Node17&#45;&gt;Node39 -->
<g id="edge46_Node000017_Node000039" class="edge">
<title>Node17&#45;&gt;Node39</title>
<g id="a_edge46_Node000017_Node000039"><a xlink:title=" ">
<path fill="none" stroke="#63b8ff" d="M700.62,-457.45C724.76,-463.74 756.58,-472.04 782.5,-478.79"/>
<polygon fill="#63b8ff" stroke="#63b8ff" points="781.92,-482.26 792.48,-481.39 783.69,-475.48 781.92,-482.26"/>
</a>
</g>
</g>
<!-- Node19 -->
<g id="Node000019" class="node">
<title>Node19</title>
<g id="a_Node000019"><a xlink:href="FrameInterpolation_8cpp.html#a8cf1f2d6fabc6925aa71a9515341b4aa" target="_top" xlink:title=" ">
<polygon fill="white" stroke="#666666" points="1061,-553.91 921,-553.91 921,-523.91 1061,-523.91 1061,-553.91"/>
<text text-anchor="start" x="929" y="-541.91" font-family="Helvetica,sans-Serif" font-size="10.00">FrameInterpolation</text>
<text text-anchor="middle" x="991" y="-530.91" font-family="Helvetica,sans-Serif" font-size="10.00">_RecordMatrixMtxFToMtx</text>
</a>
</g>
</g>
<!-- Node18&#45;&gt;Node19 -->
<g id="edge19_Node000018_Node000019" class="edge">
<title>Node18&#45;&gt;Node19</title>
<g id="a_edge19_Node000018_Node000019"><a xlink:title=" ">
<path fill="none" stroke="#63b8ff" d="M873.61,-544.03C885.08,-543.53 897.86,-542.97 910.64,-542.4"/>
<polygon fill="#63b8ff" stroke="#63b8ff" points="911.03,-545.89 920.86,-541.95 910.72,-538.9 911.03,-545.89"/>
</a>
</g>
</g>
<!-- Node21 -->
<g id="Node000021" class="node">
<title>Node21</title>
<g id="a_Node000021"><a xlink:href="guMtxF2L_8c.html#a40ab2d64c609839ff1e0ef0de2d0dcc4" target="_top" xlink:title=" ">
<polygon fill="white" stroke="#666666" points="1023.5,-591.41 958.5,-591.41 958.5,-572.41 1023.5,-572.41 1023.5,-591.41"/>
<text text-anchor="middle" x="991" y="-579.41" font-family="Helvetica,sans-Serif" font-size="10.00">guMtxF2L</text>
</a>
</g>
</g>
<!-- Node18&#45;&gt;Node21 -->
<g id="edge21_Node000018_Node000021" class="edge">
<title>Node18&#45;&gt;Node21</title>
<g id="a_edge21_Node000018_Node000021"><a xlink:title=" ">
<path fill="none" stroke="#63b8ff" d="M873.19,-555.46C896.51,-560.74 925.37,-567.28 948.57,-572.53"/>
<polygon fill="#63b8ff" stroke="#63b8ff" points="947.94,-575.97 958.46,-574.77 949.48,-569.15 947.94,-575.97"/>
</a>
</g>
</g>
<!-- Node20 -->
<g id="Node000020" class="node">
<title>Node20</title>
<g id="a_Node000020"><a xlink:href="FrameInterpolation_8cpp.html#a02c7ac5342a4d376edee38f312b480bf" target="_top" xlink:title=" ">
<polygon fill="white" stroke="#666666" points="1225.5,-524.41 1117.5,-524.41 1117.5,-505.41 1225.5,-505.41 1225.5,-524.41"/>
<text text-anchor="middle" x="1171.5" y="-512.41" font-family="Helvetica,sans-Serif" font-size="10.00">check_if_recording</text>
</a>
</g>
</g>
<!-- Node19&#45;&gt;Node20 -->
<g id="edge20_Node000019_Node000020" class="edge">
<title>Node19&#45;&gt;Node20</title>
<g id="a_edge20_Node000019_Node000020"><a xlink:title=" ">
<path fill="none" stroke="#63b8ff" d="M1061.01,-529.63C1076.24,-527.58 1092.29,-525.42 1107.27,-523.41"/>
<polygon fill="#63b8ff" stroke="#63b8ff" points="1108.01,-526.84 1117.45,-522.04 1107.07,-519.91 1108.01,-526.84"/>
</a>
</g>
</g>
<!-- Node22&#45;&gt;Node20 -->
<g id="edge23_Node000022_Node000020" class="edge">
<title>Node22&#45;&gt;Node20</title>
<g id="a_edge23_Node000022_Node000020"><a xlink:title=" ">
<path fill="none" stroke="#63b8ff" d="M885.27,-447.38C932.41,-448.1 1002.15,-452.02 1061,-466.91 1090.8,-474.45 1122.76,-489.33 1144.42,-500.53"/>
<polygon fill="#63b8ff" stroke="#63b8ff" points="1142.83,-503.65 1153.31,-505.23 1146.1,-497.46 1142.83,-503.65"/>
</a>
</g>
</g>
<!-- Node23&#45;&gt;Node20 -->
<g id="edge25_Node000023_Node000020" class="edge">
<title>Node23&#45;&gt;Node20</title>
<g id="a_edge25_Node000023_Node000020"><a xlink:title=" ">
<path fill="none" stroke="#63b8ff" d="M885.25,-613.48C932.98,-618.82 1003.62,-621.31 1061,-600.91 1100.21,-586.97 1136.2,-552.89 1155.57,-532.06"/>
<polygon fill="#63b8ff" stroke="#63b8ff" points="1158.26,-534.3 1162.38,-524.54 1153.07,-529.61 1158.26,-534.3"/>
</a>
</g>
</g>
<!-- Node24&#45;&gt;Node10 -->
<g id="edge27_Node000024_Node000010" class="edge">
<title>Node24&#45;&gt;Node10</title>
<g id="a_edge27_Node000024_Node000010"><a xlink:title=" ">
<path fill="none" stroke="#63b8ff" d="M855.45,-358.31C864.9,-354.28 875.66,-349.28 885,-343.91 902.11,-334.07 903.2,-326.44 921,-317.91 925.97,-315.53 931.29,-313.4 936.69,-311.51"/>
<polygon fill="#63b8ff" stroke="#63b8ff" points="938,-314.76 946.44,-308.36 935.85,-308.1 938,-314.76"/>
</a>
</g>
</g>
<!-- Node25 -->
<g id="Node000025" class="node">
<title>Node25</title>
<g id="a_Node000025"><a xlink:href="GBIMiddleware_8cpp.html#aeef79449a27a710d73576e4a4f7f7f99" target="_top" xlink:title=" ">
<polygon fill="white" stroke="#666666" points="1024,-345.41 958,-345.41 958,-326.41 1024,-326.41 1024,-345.41"/>
<text text-anchor="middle" x="991" y="-333.41" font-family="Helvetica,sans-Serif" font-size="10.00">gSPVertex</text>
</a>
</g>
</g>
<!-- Node24&#45;&gt;Node25 -->
<g id="edge28_Node000024_Node000025" class="edge">
<title>Node24&#45;&gt;Node25</title>
<g id="a_edge28_Node000024_Node000025"><a xlink:title=" ">
<path fill="none" stroke="#63b8ff" d="M875.71,-358.91C898.33,-354.36 925.64,-348.86 947.88,-344.39"/>
<polygon fill="#63b8ff" stroke="#63b8ff" points="948.6,-347.81 957.71,-342.41 947.22,-340.95 948.6,-347.81"/>
</a>
</g>
</g>
<!-- Node25&#45;&gt;Node11 -->
<g id="edge29_Node000025_Node000011" class="edge">
<title>Node25&#45;&gt;Node11</title>
<g id="a_edge29_Node000025_Node000011"><a xlink:title=" ">
<path fill="none" stroke="#63b8ff" d="M1024.33,-332.65C1041.92,-330.87 1064.59,-328.59 1086.8,-326.35"/>
<polygon fill="#63b8ff" stroke="#63b8ff" points="1087.35,-329.81 1096.95,-325.33 1086.65,-322.85 1087.35,-329.81"/>
</a>
</g>
</g>
<!-- Node27 -->
<g id="Node000027" class="node">
<title>Node27</title>
<g id="a_Node000027"><a xlink:href="__Printf_8c.html#a39bb05c90efce6c6790c5d58d271d72d" target="_top" xlink:title=" ">
<polygon fill="white" stroke="#666666" points="1015,-382.41 967,-382.41 967,-363.41 1015,-363.41 1015,-382.41"/>
<text text-anchor="middle" x="991" y="-370.41" font-family="Helvetica,sans-Serif" font-size="10.00">_Printf</text>
</a>
</g>
</g>
<!-- Node26&#45;&gt;Node27 -->
<g id="edge31_Node000026_Node000027" class="edge">
<title>Node26&#45;&gt;Node27</title>
<g id="a_edge31_Node000026_Node000027"><a xlink:title=" ">
<path fill="none" stroke="#63b8ff" d="M864.33,-398.2C891.62,-392.71 930.03,-384.98 957.18,-379.51"/>
<polygon fill="#63b8ff" stroke="#63b8ff" points="957.87,-382.94 966.99,-377.54 956.49,-376.08 957.87,-382.94"/>
</a>
</g>
</g>
<!-- Node38 -->
<g id="Node000038" class="node">
<title>Node38</title>
<g id="a_Node000038"><a xlink:href="is__debug_8c.html#aaccfac8d9098530b6592eefe679d86b4" target="_top" xlink:title=" ">
<polygon fill="white" stroke="#666666" points="1043.5,-419.41 938.5,-419.41 938.5,-400.41 1043.5,-400.41 1043.5,-419.41"/>
<text text-anchor="middle" x="991" y="-407.41" font-family="Helvetica,sans-Serif" font-size="10.00">is_proutSyncPrintf</text>
</a>
</g>
</g>
<!-- Node26&#45;&gt;Node38 -->
<g id="edge45_Node000026_Node000038" class="edge">
<title>Node26&#45;&gt;Node38</title>
<g id="a_edge45_Node000026_Node000038"><a xlink:title=" ">
<path fill="none" stroke="#63b8ff" d="M864.33,-405.96C882.81,-406.54 906.37,-407.28 928.09,-407.96"/>
<polygon fill="#63b8ff" stroke="#63b8ff" points="928.14,-411.47 938.24,-408.28 928.36,-404.47 928.14,-411.47"/>
</a>
</g>
</g>
<!-- Node28 -->
<g id="Node000028" class="node">
<title>Node28</title>
<g id="a_Node000028"><a xlink:href="__Printf_8c.html#ad73a5847f2d7c9de14cc2723da86bf45" target="_top" xlink:title=" ">
<polygon fill="white" stroke="#666666" points="1196.5,-401.41 1146.5,-401.41 1146.5,-382.41 1196.5,-382.41 1196.5,-401.41"/>
<text text-anchor="middle" x="1171.5" y="-389.41" font-family="Helvetica,sans-Serif" font-size="10.00">_Putfld</text>
</a>
</g>
</g>
<!-- Node27&#45;&gt;Node28 -->
<g id="edge32_Node000027_Node000028" class="edge">
<title>Node27&#45;&gt;Node28</title>
<g id="a_edge32_Node000027_Node000028"><a xlink:title=" ">
<path fill="none" stroke="#63b8ff" d="M1015.34,-375.39C1046.08,-378.67 1100.41,-384.45 1135.93,-388.23"/>
<polygon fill="#63b8ff" stroke="#63b8ff" points="1135.99,-391.76 1146.3,-389.33 1136.73,-384.79 1135.99,-391.76"/>
</a>
</g>
</g>
<!-- Node37 -->
<g id="Node000037" class="node">
<title>Node37</title>
<g id="a_Node000037"><a xlink:href="string_8c.html#a988b4defe51a1815ef3b9ddab10e7a89" target="_top" xlink:title=" ">
<polygon fill="white" stroke="#666666" points="1193.5,-364.41 1149.5,-364.41 1149.5,-345.41 1193.5,-345.41 1193.5,-364.41"/>
<text text-anchor="middle" x="1171.5" y="-352.41" font-family="Helvetica,sans-Serif" font-size="10.00">strchr</text>
</a>
</g>
</g>
<!-- Node27&#45;&gt;Node37 -->
<g id="edge44_Node000027_Node000037" class="edge">
<title>Node27&#45;&gt;Node37</title>
<g id="a_edge44_Node000027_Node000037"><a xlink:title=" ">
<path fill="none" stroke="#63b8ff" d="M1015.34,-370.56C1047.02,-367.36 1103.76,-361.64 1139.14,-358.07"/>
<polygon fill="#63b8ff" stroke="#63b8ff" points="1139.79,-361.52 1149.38,-357.04 1139.08,-354.56 1139.79,-361.52"/>
</a>
</g>
</g>
<!-- Node28&#45;&gt;Node12 -->
<g id="edge43_Node000028_Node000012" class="edge">
<title>Node28&#45;&gt;Node12</title>
<g id="a_edge43_Node000028_Node000012"><a xlink:title=" ">
<path fill="none" stroke="#63b8ff" d="M1196.64,-388.07C1211.3,-385.23 1230.18,-380.68 1246,-373.91 1259.69,-368.05 1273.79,-359.19 1284.83,-351.5"/>
<polygon fill="#63b8ff" stroke="#63b8ff" points="1286.88,-354.34 1292.95,-345.66 1282.79,-348.66 1286.88,-354.34"/>
</a>
</g>
</g>
<!-- Node29 -->
<g id="Node000029" class="node">
<title>Node29</title>
<g id="a_Node000029"><a xlink:href="__Ldtob_8c.html#a7cc858157b66e15c831ad085113729ae" target="_top" xlink:title=" ">
<polygon fill="white" stroke="#666666" points="1331,-391.41 1282,-391.41 1282,-372.41 1331,-372.41 1331,-391.41"/>
<text text-anchor="middle" x="1306.5" y="-379.41" font-family="Helvetica,sans-Serif" font-size="10.00">_Ldtob</text>
</a>
</g>
</g>
<!-- Node28&#45;&gt;Node29 -->
<g id="edge33_Node000028_Node000029" class="edge">
<title>Node28&#45;&gt;Node29</title>
<g id="a_edge33_Node000028_Node000029"><a xlink:title=" ">
<path fill="none" stroke="#63b8ff" d="M1196.59,-390.1C1217.49,-388.53 1247.99,-386.23 1271.4,-384.47"/>
<polygon fill="#63b8ff" stroke="#63b8ff" points="1271.88,-387.95 1281.59,-383.71 1271.36,-380.97 1271.88,-387.95"/>
</a>
</g>
</g>
<!-- Node35 -->
<g id="Node000035" class="node">
<title>Node35</title>
<g id="a_Node000035"><a xlink:href="__Litob_8c.html#aaaba3b0ab7920d422a61fe9e22600dd0" target="_top" xlink:title=" ">
<polygon fill="white" stroke="#666666" points="1329.5,-484.41 1283.5,-484.41 1283.5,-465.41 1329.5,-465.41 1329.5,-484.41"/>
<text text-anchor="middle" x="1306.5" y="-472.41" font-family="Helvetica,sans-Serif" font-size="10.00">_Litob</text>
</a>
</g>
</g>
<!-- Node28&#45;&gt;Node35 -->
<g id="edge40_Node000028_Node000035" class="edge">
<title>Node28&#45;&gt;Node35</title>
<g id="a_edge40_Node000028_Node000035"><a xlink:title=" ">
<path fill="none" stroke="#63b8ff" d="M1187.76,-401.43C1210.68,-415.74 1254.23,-442.91 1281.46,-459.9"/>
<polygon fill="#63b8ff" stroke="#63b8ff" points="1279.67,-462.92 1290.01,-465.24 1283.38,-456.98 1279.67,-462.92"/>
</a>
</g>
</g>
<!-- Node30 -->
<g id="Node000030" class="node">
<title>Node30</title>
<g id="a_Node000030"><a xlink:href="__Ldtob_8c.html#a2b6c5318b43bab1636bad9113ffb2761" target="_top" xlink:title=" ">
<polygon fill="white" stroke="#666666" points="1427.5,-447.41 1377.5,-447.41 1377.5,-428.41 1427.5,-428.41 1427.5,-447.41"/>
<text text-anchor="middle" x="1402.5" y="-435.41" font-family="Helvetica,sans-Serif" font-size="10.00">_Genld</text>
</a>
</g>
</g>
<!-- Node29&#45;&gt;Node30 -->
<g id="edge34_Node000029_Node000030" class="edge">
<title>Node29&#45;&gt;Node30</title>
<g id="a_edge34_Node000029_Node000030"><a xlink:title=" ">
<path fill="none" stroke="#63b8ff" d="M1321.95,-391.64C1333.87,-399.54 1351.3,-410.82 1367,-419.91 1369,-421.06 1371.07,-422.23 1373.17,-423.39"/>
<polygon fill="#63b8ff" stroke="#63b8ff" points="1371.89,-426.67 1382.36,-428.3 1375.19,-420.5 1371.89,-426.67"/>
</a>
</g>
</g>
<!-- Node31 -->
<g id="Node000031" class="node">
<title>Node31</title>
<g id="a_Node000031"><a xlink:href="string_8c.html#ad7f1ae1bbb49dece44bda378982a704d" target="_top" xlink:title=" ">
<polygon fill="white" stroke="#666666" points="1533,-447.41 1474,-447.41 1474,-428.41 1533,-428.41 1533,-447.41"/>
<text text-anchor="middle" x="1503.5" y="-435.41" font-family="Helvetica,sans-Serif" font-size="10.00">memcpy</text>
</a>
</g>
</g>
<!-- Node29&#45;&gt;Node31 -->
<g id="edge38_Node000029_Node000031" class="edge">
<title>Node29&#45;&gt;Node31</title>
<g id="a_edge38_Node000029_Node000031"><a xlink:title=" ">
<path fill="none" stroke="#63b8ff" d="M1316.11,-372.27C1320.61,-367.16 1326.17,-360.76 1331,-354.91 1347.53,-334.89 1343.66,-320.28 1367,-308.91 1395.37,-295.09 1411.16,-292.32 1438,-308.91 1476.91,-332.95 1493.13,-388.36 1499.23,-418.14"/>
<polygon fill="#63b8ff" stroke="#63b8ff" points="1495.83,-418.98 1501.1,-428.17 1502.71,-417.7 1495.83,-418.98"/>
</a>
</g>
</g>
<!-- Node32 -->
<g id="Node000032" class="node">
<title>Node32</title>
<g id="a_Node000032"><a xlink:href="__Ldtob_8c.html#ab7ade9ce60aaa8baa0244b503351d742" target="_top" xlink:title=" ">
<polygon fill="white" stroke="#666666" points="1438,-410.41 1367,-410.41 1367,-391.41 1438,-391.41 1438,-410.41"/>
<text text-anchor="middle" x="1402.5" y="-398.41" font-family="Helvetica,sans-Serif" font-size="10.00">_Ldunscale</text>
</a>
</g>
</g>
<!-- Node29&#45;&gt;Node32 -->
<g id="edge36_Node000029_Node000032" class="edge">
<title>Node29&#45;&gt;Node32</title>
<g id="a_edge36_Node000029_Node000032"><a xlink:title=" ">
<path fill="none" stroke="#63b8ff" d="M1331.22,-386.7C1339.04,-388.29 1348.02,-390.1 1356.88,-391.89"/>
<polygon fill="#63b8ff" stroke="#63b8ff" points="1356.28,-395.34 1366.77,-393.89 1357.66,-388.48 1356.28,-395.34"/>
</a>
</g>
</g>
<!-- Node33 -->
<g id="Node000033" class="node">
<title>Node33</title>
<g id="a_Node000033"><a xlink:href="ldiv_8c.html#a0302920caf64a5fbe1ce0862799d7784" target="_top" xlink:title=" ">
<polygon fill="white" stroke="#666666" points="1420,-373.41 1385,-373.41 1385,-354.41 1420,-354.41 1420,-373.41"/>
<text text-anchor="middle" x="1402.5" y="-361.41" font-family="Helvetica,sans-Serif" font-size="10.00">ldiv</text>
</a>
</g>
</g>
<!-- Node29&#45;&gt;Node33 -->
<g id="edge37_Node000029_Node000033" class="edge">
<title>Node29&#45;&gt;Node33</title>
<g id="a_edge37_Node000029_Node000033"><a xlink:title=" ">
<path fill="none" stroke="#63b8ff" d="M1331.22,-377.37C1344.57,-374.81 1361.27,-371.61 1375.04,-368.98"/>
<polygon fill="#63b8ff" stroke="#63b8ff" points="1375.73,-372.41 1384.9,-367.09 1374.42,-365.53 1375.73,-372.41"/>
</a>
</g>
</g>
<!-- Node34 -->
<g id="Node000034" class="node">
<title>Node34</title>
<g id="a_Node000034"><a xlink:href="alBnkfNew_8c.html#a96a0200a6b40350e524f536d232ecb53" target="_top" xlink:title=" ">
<polygon fill="white" stroke="#666666" points="1428.5,-336.41 1376.5,-336.41 1376.5,-317.41 1428.5,-317.41 1428.5,-336.41"/>
<text text-anchor="middle" x="1402.5" y="-324.41" font-family="Helvetica,sans-Serif" font-size="10.00">unused</text>
</a>
</g>
</g>
<!-- Node29&#45;&gt;Node34 -->
<g id="edge39_Node000029_Node000034" class="edge">
<title>Node29&#45;&gt;Node34</title>
<g id="a_edge39_Node000029_Node000034"><a xlink:title=" ">
<path fill="none" stroke="#63b8ff" d="M1323.06,-372.26C1335,-364.91 1351.94,-354.6 1367,-345.91 1369.55,-344.43 1372.23,-342.92 1374.9,-341.41"/>
<polygon fill="#63b8ff" stroke="#63b8ff" points="1376.83,-344.35 1383.87,-336.44 1373.43,-338.23 1376.83,-344.35"/>
</a>
</g>
</g>
<!-- Node30&#45;&gt;Node31 -->
<g id="edge35_Node000030_Node000031" class="edge">
<title>Node30&#45;&gt;Node31</title>
<g id="a_edge35_Node000030_Node000031"><a xlink:title=" ">
<path fill="none" stroke="#63b8ff" d="M1427.72,-437.91C1438.52,-437.91 1451.52,-437.91 1463.63,-437.91"/>
<polygon fill="#63b8ff" stroke="#63b8ff" points="1463.96,-441.41 1473.96,-437.91 1463.96,-434.41 1463.96,-441.41"/>
</a>
</g>
</g>
<!-- Node35&#45;&gt;Node31 -->
<g id="edge42_Node000035_Node000031" class="edge">
<title>Node35&#45;&gt;Node31</title>
<g id="a_edge42_Node000035_Node000031"><a xlink:title=" ">
<path fill="none" stroke="#63b8ff" d="M1329.44,-484.51C1355.95,-494.68 1401.54,-507.53 1438,-493.91 1458.48,-486.26 1476.76,-468.85 1488.58,-455.46"/>
<polygon fill="#63b8ff" stroke="#63b8ff" points="1491.3,-457.67 1495.07,-447.76 1485.95,-453.15 1491.3,-457.67"/>
</a>
</g>
</g>
<!-- Node36 -->
<g id="Node000036" class="node">
<title>Node36</title>
<g id="a_Node000036"><a xlink:href="ldiv_8c.html#a5b23c3639f11980dca762c5f1d74f339" target="_top" xlink:title=" ">
<polygon fill="white" stroke="#666666" points="1421.5,-484.41 1383.5,-484.41 1383.5,-465.41 1421.5,-465.41 1421.5,-484.41"/>
<text text-anchor="middle" x="1402.5" y="-472.41" font-family="Helvetica,sans-Serif" font-size="10.00">lldiv</text>
</a>
</g>
</g>
<!-- Node35&#45;&gt;Node36 -->
<g id="edge41_Node000035_Node000036" class="edge">
<title>Node35&#45;&gt;Node36</title>
<g id="a_edge41_Node000035_Node000036"><a xlink:title=" ">
<path fill="none" stroke="#63b8ff" d="M1329.78,-474.91C1342.84,-474.91 1359.47,-474.91 1373.43,-474.91"/>
<polygon fill="#63b8ff" stroke="#63b8ff" points="1373.47,-478.41 1383.47,-474.91 1373.47,-471.41 1373.47,-478.41"/>
</a>
</g>
</g>
<!-- Node39&#45;&gt;Node39 -->
<g id="edge49_Node000039_Node000039" class="edge">
<title>Node39&#45;&gt;Node39</title>
<g id="a_edge49_Node000039_Node000039"><a xlink:title=" ">
<path fill="none" stroke="#63b8ff" d="M805.34,-500.49C793.34,-509.14 801.56,-518.41 830,-518.41 848.66,-518.41 858.62,-514.42 859.87,-509.23"/>
<polygon fill="#63b8ff" stroke="#63b8ff" points="862.79,-507.29 854.66,-500.49 856.77,-510.87 862.79,-507.29"/>
</a>
</g>
</g>
<!-- Node40 -->
<g id="Node000040" class="node">
<title>Node40</title>
<g id="a_Node000040"><a xlink:href="FrameInterpolation_8cpp.html#a5fbd67ef553452903cf553b9c224fa76" target="_top" xlink:title=" ">
<polygon fill="white" stroke="#666666" points="1055,-505.91 927,-505.91 927,-475.91 1055,-475.91 1055,-505.91"/>
<text text-anchor="start" x="935" y="-493.91" font-family="Helvetica,sans-Serif" font-size="10.00">FrameInterpolation</text>
<text text-anchor="middle" x="991" y="-482.91" font-family="Helvetica,sans-Serif" font-size="10.00">_Record_SetTextMatrix</text>
</a>
</g>
</g>
<!-- Node39&#45;&gt;Node40 -->
<g id="edge47_Node000039_Node000040" class="edge">
<title>Node39&#45;&gt;Node40</title>
<g id="a_edge47_Node000039_Node000040"><a xlink:title=" ">
<path fill="none" stroke="#63b8ff" d="M872.36,-490.91C885.89,-490.91 901.36,-490.91 916.53,-490.91"/>
<polygon fill="#63b8ff" stroke="#63b8ff" points="916.95,-494.41 926.95,-490.91 916.95,-487.41 916.95,-494.41"/>
</a>
</g>
</g>
<!-- Node40&#45;&gt;Node20 -->
<g id="edge48_Node000040_Node000020" class="edge">
<title>Node40&#45;&gt;Node20</title>
<g id="a_edge48_Node000040_Node000020"><a xlink:title=" ">
<path fill="none" stroke="#63b8ff" d="M1055.18,-499.4C1072.04,-501.67 1090.26,-504.12 1107.13,-506.39"/>
<polygon fill="#63b8ff" stroke="#63b8ff" points="1107.06,-509.91 1117.44,-507.77 1107.99,-502.97 1107.06,-509.91"/>
</a>
</g>
</g>
<!-- Node42 -->
<g id="Node000042" class="node">
<title>Node42</title>
<g id="a_Node000042"><a xlink:href="menu__items_8c.html#a07904969a6bc8374f305d668f432b26a" target="_top" xlink:title=" ">
<polygon fill="white" stroke="#666666" points="376,-225.41 306,-225.41 306,-206.41 376,-206.41 376,-225.41"/>
<text text-anchor="middle" x="341" y="-213.41" font-family="Helvetica,sans-Serif" font-size="10.00">print_text0</text>
</a>
</g>
</g>
<!-- Node41&#45;&gt;Node42 -->
<g id="edge54_Node000041_Node000042" class="edge">
<title>Node41&#45;&gt;Node42</title>
<g id="a_edge54_Node000041_Node000042"><a xlink:title=" ">
<path fill="none" stroke="#63b8ff" d="M254.65,-214.68C268.26,-214.87 282.74,-215.08 295.83,-215.27"/>
<polygon fill="#63b8ff" stroke="#63b8ff" points="295.95,-218.77 306,-215.42 296.05,-211.77 295.95,-218.77"/>
</a>
</g>
</g>
<!-- Node42&#45;&gt;Node5 -->
<g id="edge55_Node000042_Node000005" class="edge">
<title>Node42&#45;&gt;Node5</title>
<g id="a_edge55_Node000042_Node000005"><a xlink:title=" ">
<path fill="none" stroke="#63b8ff" d="M357.54,-206.19C363.57,-202.1 370.37,-197.1 376,-191.91 394.33,-175.03 394.35,-166.51 412,-148.91 426.97,-133.98 445.48,-118.75 459.48,-107.79"/>
<polygon fill="#63b8ff" stroke="#63b8ff" points="461.77,-110.45 467.54,-101.56 457.49,-104.91 461.77,-110.45"/>
</a>
</g>
</g>
<!-- Node42&#45;&gt;Node9 -->
<g id="edge56_Node000042_Node000009" class="edge">
<title>Node42&#45;&gt;Node9</title>
<g id="a_edge56_Node000042_Node000009"><a xlink:title=" ">
<path fill="none" stroke="#63b8ff" d="M372.74,-206.37C387.33,-201.84 405.26,-196.27 422.28,-190.98"/>
<polygon fill="#63b8ff" stroke="#63b8ff" points="423.65,-194.22 432.17,-187.92 421.58,-187.54 423.65,-194.22"/>
</a>
</g>
</g>
<!-- Node42&#45;&gt;Node10 -->
<g id="edge57_Node000042_Node000010" class="edge">
<title>Node42&#45;&gt;Node10</title>
<g id="a_edge57_Node000042_Node000010"><a xlink:title=" ">
<path fill="none" stroke="#63b8ff" d="M345.58,-225.51C353.72,-245.79 375.8,-292.61 412,-310.91 502.62,-356.7 811,-322.62 936.36,-306.31"/>
<polygon fill="#63b8ff" stroke="#63b8ff" points="937.03,-309.75 946.49,-304.98 936.11,-302.81 937.03,-309.75"/>
</a>
</g>
</g>
<!-- Node42&#45;&gt;Node13 -->
<g id="edge58_Node000042_Node000013" class="edge">
<title>Node42&#45;&gt;Node13</title>
<g id="a_edge58_Node000042_Node000013"><a xlink:title=" ">
<path fill="none" stroke="#63b8ff" d="M376.24,-215.91C390.5,-215.91 407.44,-215.91 423.48,-215.91"/>
<polygon fill="#63b8ff" stroke="#63b8ff" points="423.86,-219.41 433.86,-215.91 423.86,-212.41 423.86,-219.41"/>
</a>
</g>
</g>
<!-- Node42&#45;&gt;Node15 -->
<g id="edge60_Node000042_Node000015" class="edge">
<title>Node42&#45;&gt;Node15</title>
<g id="a_edge60_Node000042_Node000015"><a xlink:title=" ">
<path fill="none" stroke="#63b8ff" d="M372.39,-225.5C384.58,-229 398.85,-232.64 412,-234.91 466.37,-244.27 528.17,-249.02 576.73,-251.43"/>
<polygon fill="#63b8ff" stroke="#63b8ff" points="576.73,-254.93 586.88,-251.91 577.06,-247.94 576.73,-254.93"/>
</a>
</g>
</g>
<!-- Node42&#45;&gt;Node16 -->
<g id="edge59_Node000042_Node000016" class="edge">
<title>Node42&#45;&gt;Node16</title>
<g id="a_edge59_Node000042_Node000016"><a xlink:title=" ">
<path fill="none" stroke="#63b8ff" d="M352.7,-225.49C365.86,-236.87 389.27,-255.84 412,-267.91 419.93,-272.12 428.74,-275.84 437.34,-279.02"/>
<polygon fill="#63b8ff" stroke="#63b8ff" points="436.3,-282.37 446.89,-282.38 438.62,-275.76 436.3,-282.37"/>
</a>
</g>
</g>
</g>
</svg>

<g id="navigator" transform="translate(0 0)" fill="#404254">
  <rect fill="#f2f5e9" fill-opacity="0.5" stroke="#606060" stroke-width=".5" x="0" y="0" width="60" height="60"/>
  <use id="zoomplus" xlink:href="#zoomPlus" x="17" y="9" onmousedown="handleZoom(evt,'in')"/>
  <use id="zoomminus" xlink:href="#zoomMin" x="42" y="9" onmousedown="handleZoom(evt,'out')"/>
  <use id="reset" xlink:href="#resetDef" x="30" y="36" onmousedown="handleReset()"/>
   <use id="arrowup" xlink:href="#arrowUp" x="0" y="0" onmousedown="handlePan(0,-1)"/>
  <use id="arrowright" xlink:href="#arrowRight" x="0" y="0" onmousedown="handlePan(1,0)"/>
  <use id="arrowdown" xlink:href="#arrowDown" x="0" y="0" onmousedown="handlePan(0,1)"/>
  <use id="arrowleft" xlink:href="#arrowLeft" x="0" y="0" onmousedown="handlePan(-1,0)"/>
</g>
<svg viewBox="0 0 15 15" width="100%" height="30px" preserveAspectRatio="xMaxYMin meet">
 <g id="arrow_out" transform="scale(0.3 0.3)">
  <a xlink:href="menu__items_8c_a76397d21278950ffb0c43c27305293ea_cgraph_org.svg" target="_base">
   <rect id="button" ry="5" rx="5" y="6" x="6" height="38" width="38"
        fill="#f2f5e9" fill-opacity="0.5" stroke="#606060" stroke-width="1.0"/>
   <path id="arrow"
     d="M 11.500037,31.436501 C 11.940474,20.09759 22.043105,11.32322 32.158766,21.979434 L 37.068811,17.246167 C 37.068811,17.246167 37.088388,32 37.088388,32 L 22.160133,31.978069 C 22.160133,31.978069 26.997745,27.140456 26.997745,27.140456 C 18.528582,18.264221 13.291696,25.230495 11.500037,31.436501 z"
     style="fill:#404040;"/>
  </a>
 </g>
</svg>

<style type='text/css'>
<![CDATA[
[data-mouse-over-selected='false'] { opacity: 0.7; }
[data-mouse-over-selected='true']  { opacity: 1.0; }
]]>
</style>
<script type="application/ecmascript"><![CDATA[
document.addEventListener('DOMContentLoaded', (event) => {
  highlightEdges();
  highlightAdjacentNodes();
});
]]></script>
</svg>
