<?xml version="1.0" encoding="UTF-8" standalone="no"?>
<!DOCTYPE svg PUBLIC "-//W3C//DTD SVG 1.1//EN"
 "http://www.w3.org/Graphics/SVG/1.1/DTD/svg11.dtd">
<!-- Generated by graphviz version 2.43.0 (0)
 -->
<!-- Title: load_menu_img_mio0_forced Pages: 1 -->
<svg width="511pt" height="64pt"
 viewBox="0.00 0.00 511.00 64.00" xmlns="http://www.w3.org/2000/svg" xmlns:xlink="http://www.w3.org/1999/xlink">
<g id="graph0" class="graph" transform="scale(1 1) rotate(0) translate(4 60)">
<title>load_menu_img_mio0_forced</title>
<!-- Node1 -->
<g id="Node000001" class="node">
<title>Node1</title>
<g id="a_Node000001"><a xlink:title=" ">
<polygon fill="#999999" stroke="#666666" points="125,-42.5 0,-42.5 0,-12.5 125,-12.5 125,-42.5"/>
<text text-anchor="start" x="8" y="-30.5" font-family="Helvetica,sans-Serif" font-size="10.00">load_menu_img_mio0</text>
<text text-anchor="middle" x="62.5" y="-19.5" font-family="Helvetica,sans-Serif" font-size="10.00">_forced</text>
</a>
</g>
</g>
<!-- Node2 -->
<g id="Node000002" class="node">
<title>Node2</title>
<g id="a_Node000002"><a xlink:href="menu__items_8c.html#a351ed4a261a9c1587e1fbc5b436f20af" target="_top" xlink:title=" ">
<polygon fill="white" stroke="#666666" points="315,-37 161,-37 161,-18 315,-18 315,-37"/>
<text text-anchor="middle" x="238" y="-25" font-family="Helvetica,sans-Serif" font-size="10.00">load_menu_img_comp_type</text>
</a>
</g>
</g>
<!-- Node1&#45;&gt;Node2 -->
<g id="edge1_Node000001_Node000002" class="edge">
<title>Node1&#45;&gt;Node2</title>
<g id="a_edge1_Node000001_Node000002"><a xlink:title=" ">
<path fill="none" stroke="#63b8ff" d="M125.16,-27.5C133.49,-27.5 142.16,-27.5 150.82,-27.5"/>
<polygon fill="#63b8ff" stroke="#63b8ff" points="150.96,-31 160.96,-27.5 150.96,-24 150.96,-31"/>
</a>
</g>
</g>
<!-- Node3 -->
<g id="Node000003" class="node">
<title>Node3</title>
<g id="a_Node000003"><a xlink:href="menu__items_8c.html#a248768ee2e4ca9ae9cf0a30bfb256859" target="_top" xlink:title=" ">
<polygon fill="white" stroke="#666666" points="466,-56 388,-56 388,-37 466,-37 466,-56"/>
<text text-anchor="middle" x="427" y="-44" font-family="Helvetica,sans-Serif" font-size="10.00">load_texture</text>
</a>
</g>
</g>
<!-- Node2&#45;&gt;Node3 -->
<g id="edge2_Node000002_Node000003" class="edge">
<title>Node2&#45;&gt;Node3</title>
<g id="a_edge2_Node000002_Node000003"><a xlink:title=" ">
<path fill="none" stroke="#63b8ff" d="M315.06,-35.23C336.32,-37.39 358.82,-39.67 377.96,-41.62"/>
<polygon fill="#63b8ff" stroke="#63b8ff" points="377.63,-45.1 387.93,-42.63 378.34,-38.14 377.63,-45.1"/>
</a>
</g>
</g>
<!-- Node4 -->
<g id="Node000004" class="node">
<title>Node4</title>
<g id="a_Node000004"><a xlink:href="menu__items_8c.html#a2d2758c3a87de891a40840727bef3306" target="_top" xlink:title=" ">
<polygon fill="white" stroke="#666666" points="503,-19 351,-19 351,0 503,0 503,-19"/>
<text text-anchor="middle" x="427" y="-7" font-family="Helvetica,sans-Serif" font-size="10.00">segmented_to_virtual_dupe</text>
</a>
</g>
</g>
<!-- Node2&#45;&gt;Node4 -->
<g id="edge3_Node000002_Node000004" class="edge">
<title>Node2&#45;&gt;Node4</title>
<g id="a_edge3_Node000002_Node000004"><a xlink:title=" ">
<path fill="none" stroke="#63b8ff" d="M315.06,-20.18C323.56,-19.36 332.27,-18.52 340.87,-17.69"/>
<polygon fill="#63b8ff" stroke="#63b8ff" points="341.3,-21.17 350.92,-16.73 340.63,-14.2 341.3,-21.17"/>
</a>
</g>
</g>
</g>
</svg>
