<?xml version="1.0" encoding="UTF-8" standalone="no"?>
<!DOCTYPE svg PUBLIC "-//W3C//DTD SVG 1.1//EN"
 "http://www.w3.org/Graphics/SVG/1.1/DTD/svg11.dtd">
<!-- Generated by graphviz version 2.43.0 (0)
 -->
<!-- Title: print_letter Pages: 1 -->
<svg width="1061pt" height="387pt"
 viewBox="0.00 0.00 1061.00 386.50" xmlns="http://www.w3.org/2000/svg" xmlns:xlink="http://www.w3.org/1999/xlink">
<g id="graph0" class="graph" transform="scale(1 1) rotate(0) translate(4 382.5)">
<title>print_letter</title>
<!-- Node1 -->
<g id="Node000001" class="node">
<title>Node1</title>
<g id="a_Node000001"><a xlink:title=" ">
<polygon fill="#999999" stroke="#666666" points="71,-57 0,-57 0,-38 71,-38 71,-57"/>
<text text-anchor="middle" x="35.5" y="-45" font-family="Helvetica,sans-Serif" font-size="10.00">print_letter</text>
</a>
</g>
</g>
<!-- Node2 -->
<g id="Node000002" class="node">
<title>Node2</title>
<g id="a_Node000002"><a xlink:href="menu__items_8c.html#a37eb021a953285ba504198ac6ca73a9a" target="_top" xlink:title=" ">
<polygon fill="white" stroke="#666666" points="229.5,-196 136.5,-196 136.5,-177 229.5,-177 229.5,-196"/>
<text text-anchor="middle" x="183" y="-184" font-family="Helvetica,sans-Serif" font-size="10.00">func_80095BD0</text>
</a>
</g>
</g>
<!-- Node1&#45;&gt;Node2 -->
<g id="edge1_Node000001_Node000002" class="edge">
<title>Node1&#45;&gt;Node2</title>
<g id="a_edge1_Node000001_Node000002"><a xlink:title=" ">
<path fill="none" stroke="#63b8ff" d="M46.5,-57.05C70.9,-80.36 133.73,-140.39 164.5,-169.78"/>
<polygon fill="#63b8ff" stroke="#63b8ff" points="162.28,-172.5 171.93,-176.88 167.12,-167.44 162.28,-172.5"/>
</a>
</g>
</g>
<!-- Node10 -->
<g id="Node000010" class="node">
<title>Node10</title>
<g id="a_Node000010"><a xlink:href="GBIMiddleware_8cpp.html#a4ecc44e3c6f1ca5a6b4a20c41d3bd2d2" target="_top" xlink:title=" ">
<polygon fill="white" stroke="#666666" points="555.5,-57 466.5,-57 466.5,-38 555.5,-38 555.5,-57"/>
<text text-anchor="middle" x="511" y="-45" font-family="Helvetica,sans-Serif" font-size="10.00">gSPDisplayList</text>
</a>
</g>
</g>
<!-- Node1&#45;&gt;Node10 -->
<g id="edge36_Node000001_Node000010" class="edge">
<title>Node1&#45;&gt;Node10</title>
<g id="a_edge36_Node000001_Node000010"><a xlink:title=" ">
<path fill="none" stroke="#63b8ff" d="M71.32,-47.5C153.12,-47.5 358.06,-47.5 456.1,-47.5"/>
<polygon fill="#63b8ff" stroke="#63b8ff" points="456.38,-51 466.38,-47.5 456.38,-44 456.38,-51"/>
</a>
</g>
</g>
<!-- Node29 -->
<g id="Node000029" class="node">
<title>Node29</title>
<g id="a_Node000029"><a xlink:href="menu__items_8c.html#a2d2758c3a87de891a40840727bef3306" target="_top" xlink:title=" ">
<polygon fill="white" stroke="#666666" points="259,-19 107,-19 107,0 259,0 259,-19"/>
<text text-anchor="middle" x="183" y="-7" font-family="Helvetica,sans-Serif" font-size="10.00">segmented_to_virtual_dupe</text>
</a>
</g>
</g>
<!-- Node1&#45;&gt;Node29 -->
<g id="edge37_Node000001_Node000029" class="edge">
<title>Node1&#45;&gt;Node29</title>
<g id="a_edge37_Node000001_Node000029"><a xlink:title=" ">
<path fill="none" stroke="#63b8ff" d="M71.35,-38.4C90.57,-33.38 114.68,-27.08 135.49,-21.65"/>
<polygon fill="#63b8ff" stroke="#63b8ff" points="136.61,-24.97 145.4,-19.06 134.84,-18.2 136.61,-24.97"/>
</a>
</g>
</g>
<!-- Node3 -->
<g id="Node000003" class="node">
<title>Node3</title>
<g id="a_Node000003"><a xlink:href="Matrix_8cpp.html#a6f64c44efb9bdfff802175a9739ce1f1" target="_top" xlink:title=" ">
<polygon fill="white" stroke="#666666" points="393.5,-287 306.5,-287 306.5,-268 393.5,-268 393.5,-287"/>
<text text-anchor="middle" x="350" y="-275" font-family="Helvetica,sans-Serif" font-size="10.00">AddTextMatrix</text>
</a>
</g>
</g>
<!-- Node2&#45;&gt;Node3 -->
<g id="edge2_Node000002_Node000003" class="edge">
<title>Node2&#45;&gt;Node3</title>
<g id="a_edge2_Node000002_Node000003"><a xlink:title=" ">
<path fill="none" stroke="#63b8ff" d="M196.73,-196.2C216.76,-211.13 257.28,-239.96 295,-258.5 299.29,-260.61 303.87,-262.6 308.49,-264.43"/>
<polygon fill="#63b8ff" stroke="#63b8ff" points="307.33,-267.74 317.93,-267.98 309.8,-261.18 307.33,-267.74"/>
</a>
</g>
</g>
<!-- Node7 -->
<g id="Node000007" class="node">
<title>Node7</title>
<g id="a_Node000007"><a xlink:href="FrameInterpolation_8cpp.html#a3a036bc9d533e28a4e9697cd20dccf3e" target="_top" xlink:title=" ">
<polygon fill="white" stroke="#666666" points="405,-249.5 295,-249.5 295,-219.5 405,-219.5 405,-249.5"/>
<text text-anchor="start" x="303" y="-237.5" font-family="Helvetica,sans-Serif" font-size="10.00">FrameInterpolation</text>
<text text-anchor="middle" x="350" y="-226.5" font-family="Helvetica,sans-Serif" font-size="10.00">_RecordCloseChild</text>
</a>
</g>
</g>
<!-- Node2&#45;&gt;Node7 -->
<g id="edge6_Node000002_Node000007" class="edge">
<title>Node2&#45;&gt;Node7</title>
<g id="a_edge6_Node000002_Node000007"><a xlink:title=" ">
<path fill="none" stroke="#63b8ff" d="M216.99,-196.1C237.16,-201.97 263.59,-209.65 287.5,-216.61"/>
<polygon fill="#63b8ff" stroke="#63b8ff" points="286.64,-220 297.22,-219.44 288.6,-213.28 286.64,-220"/>
</a>
</g>
</g>
<!-- Node8 -->
<g id="Node000008" class="node">
<title>Node8</title>
<g id="a_Node000008"><a xlink:href="FrameInterpolation_8cpp.html#a0eda726b74eac815af4e874014e2727c" target="_top" xlink:title=" ">
<polygon fill="white" stroke="#666666" points="405,-201.5 295,-201.5 295,-171.5 405,-171.5 405,-201.5"/>
<text text-anchor="start" x="303" y="-189.5" font-family="Helvetica,sans-Serif" font-size="10.00">FrameInterpolation</text>
<text text-anchor="middle" x="350" y="-178.5" font-family="Helvetica,sans-Serif" font-size="10.00">_RecordOpenChild</text>
</a>
</g>
</g>
<!-- Node2&#45;&gt;Node8 -->
<g id="edge8_Node000002_Node000008" class="edge">
<title>Node2&#45;&gt;Node8</title>
<g id="a_edge8_Node000002_Node000008"><a xlink:title=" ">
<path fill="none" stroke="#63b8ff" d="M229.52,-186.5C246.59,-186.5 266.31,-186.5 284.75,-186.5"/>
<polygon fill="#63b8ff" stroke="#63b8ff" points="284.84,-190 294.84,-186.5 284.84,-183 284.84,-190"/>
</a>
</g>
</g>
<!-- Node9 -->
<g id="Node000009" class="node">
<title>Node9</title>
<g id="a_Node000009"><a xlink:href="menu__items_8c.html#ae0fd5923ba70cf6939cd3fa8d09c1191" target="_top" xlink:title=" ">
<polygon fill="white" stroke="#666666" points="395.5,-95 304.5,-95 304.5,-76 395.5,-76 395.5,-95"/>
<text text-anchor="middle" x="350" y="-83" font-family="Helvetica,sans-Serif" font-size="10.00">func_800959F8</text>
</a>
</g>
</g>
<!-- Node2&#45;&gt;Node9 -->
<g id="edge10_Node000002_Node000009" class="edge">
<title>Node2&#45;&gt;Node9</title>
<g id="a_edge10_Node000002_Node000009"><a xlink:title=" ">
<path fill="none" stroke="#63b8ff" d="M199.52,-177C228.27,-159.4 289.99,-121.62 324.45,-100.53"/>
<polygon fill="#63b8ff" stroke="#63b8ff" points="326.7,-103.26 333.4,-95.05 323.04,-97.29 326.7,-103.26"/>
</a>
</g>
</g>
<!-- Node14 -->
<g id="Node000014" class="node">
<title>Node14</title>
<g id="a_Node000014"><a xlink:href="stubs_8c.html#a8b417b868747c80d58f83d8a1e78ecf3" target="_top" xlink:title=" ">
<polygon fill="white" stroke="#666666" points="384,-153 316,-153 316,-134 384,-134 384,-153"/>
<text text-anchor="middle" x="350" y="-141" font-family="Helvetica,sans-Serif" font-size="10.00">rmonPrintf</text>
</a>
</g>
</g>
<!-- Node2&#45;&gt;Node14 -->
<g id="edge16_Node000002_Node000014" class="edge">
<title>Node2&#45;&gt;Node14</title>
<g id="a_edge16_Node000002_Node000014"><a xlink:title=" ">
<path fill="none" stroke="#63b8ff" d="M220.62,-176.96C245.87,-170.38 279.54,-161.6 306.06,-154.69"/>
<polygon fill="#63b8ff" stroke="#63b8ff" points="307.05,-158.05 315.85,-152.14 305.29,-151.28 307.05,-158.05"/>
</a>
</g>
</g>
<!-- Node27 -->
<g id="Node000027" class="node">
<title>Node27</title>
<g id="a_Node000027"><a xlink:href="Matrix_8cpp.html#a9818099a1ee20606a7d622e744846366" target="_top" xlink:title=" ">
<polygon fill="white" stroke="#666666" points="392,-348 308,-348 308,-329 392,-329 392,-348"/>
<text text-anchor="middle" x="350" y="-336" font-family="Helvetica,sans-Serif" font-size="10.00">SetTextMatrix</text>
</a>
</g>
</g>
<!-- Node2&#45;&gt;Node27 -->
<g id="edge32_Node000002_Node000027" class="edge">
<title>Node2&#45;&gt;Node27</title>
<g id="a_edge32_Node000002_Node000027"><a xlink:title=" ">
<path fill="none" stroke="#63b8ff" d="M192.85,-196.01C211.21,-215.57 255.06,-261.4 295,-296.5 305.35,-305.6 317.41,-315.07 327.5,-322.72"/>
<polygon fill="#63b8ff" stroke="#63b8ff" points="325.67,-325.72 335.78,-328.91 329.87,-320.12 325.67,-325.72"/>
</a>
</g>
</g>
<!-- Node4 -->
<g id="Node000004" class="node">
<title>Node4</title>
<g id="a_Node000004"><a xlink:href="FrameInterpolation_8cpp.html#a8cf1f2d6fabc6925aa71a9515341b4aa" target="_top" xlink:title=" ">
<polygon fill="white" stroke="#666666" points="581,-330.5 441,-330.5 441,-300.5 581,-300.5 581,-330.5"/>
<text text-anchor="start" x="449" y="-318.5" font-family="Helvetica,sans-Serif" font-size="10.00">FrameInterpolation</text>
<text text-anchor="middle" x="511" y="-307.5" font-family="Helvetica,sans-Serif" font-size="10.00">_RecordMatrixMtxFToMtx</text>
</a>
</g>
</g>
<!-- Node3&#45;&gt;Node4 -->
<g id="edge3_Node000003_Node000004" class="edge">
<title>Node3&#45;&gt;Node4</title>
<g id="a_edge3_Node000003_Node000004"><a xlink:title=" ">
<path fill="none" stroke="#63b8ff" d="M391.12,-287.09C405.14,-290.44 421.34,-294.31 437.19,-298.1"/>
<polygon fill="#63b8ff" stroke="#63b8ff" points="436.45,-301.52 446.99,-300.44 438.08,-294.71 436.45,-301.52"/>
</a>
</g>
</g>
<!-- Node6 -->
<g id="Node000006" class="node">
<title>Node6</title>
<g id="a_Node000006"><a xlink:href="guMtxF2L_8c.html#a40ab2d64c609839ff1e0ef0de2d0dcc4" target="_top" xlink:title=" ">
<polygon fill="white" stroke="#666666" points="543.5,-282 478.5,-282 478.5,-263 543.5,-263 543.5,-282"/>
<text text-anchor="middle" x="511" y="-270" font-family="Helvetica,sans-Serif" font-size="10.00">guMtxF2L</text>
</a>
</g>
</g>
<!-- Node3&#45;&gt;Node6 -->
<g id="edge5_Node000003_Node000006" class="edge">
<title>Node3&#45;&gt;Node6</title>
<g id="a_edge5_Node000003_Node000006"><a xlink:title=" ">
<path fill="none" stroke="#63b8ff" d="M393.61,-276.16C416.74,-275.43 445.23,-274.54 468.23,-273.81"/>
<polygon fill="#63b8ff" stroke="#63b8ff" points="468.49,-277.31 478.38,-273.49 468.27,-270.31 468.49,-277.31"/>
</a>
</g>
</g>
<!-- Node5 -->
<g id="Node000005" class="node">
<title>Node5</title>
<g id="a_Node000005"><a xlink:href="FrameInterpolation_8cpp.html#a02c7ac5342a4d376edee38f312b480bf" target="_top" xlink:title=" ">
<polygon fill="white" stroke="#666666" points="745.5,-284 637.5,-284 637.5,-265 745.5,-265 745.5,-284"/>
<text text-anchor="middle" x="691.5" y="-272" font-family="Helvetica,sans-Serif" font-size="10.00">check_if_recording</text>
</a>
</g>
</g>
<!-- Node4&#45;&gt;Node5 -->
<g id="edge4_Node000004_Node000005" class="edge">
<title>Node4&#45;&gt;Node5</title>
<g id="a_edge4_Node000004_Node000005"><a xlink:title=" ">
<path fill="none" stroke="#63b8ff" d="M577.45,-300.47C597.79,-295.8 619.9,-290.72 639.13,-286.3"/>
<polygon fill="#63b8ff" stroke="#63b8ff" points="639.94,-289.7 648.9,-284.05 638.37,-282.88 639.94,-289.7"/>
</a>
</g>
</g>
<!-- Node7&#45;&gt;Node5 -->
<g id="edge7_Node000007_Node000005" class="edge">
<title>Node7&#45;&gt;Node5</title>
<g id="a_edge7_Node000007_Node000005"><a xlink:title=" ">
<path fill="none" stroke="#63b8ff" d="M405.07,-237.76C451.77,-240.92 521.02,-246.43 581,-254.5 598.13,-256.8 616.66,-259.94 633.51,-263.04"/>
<polygon fill="#63b8ff" stroke="#63b8ff" points="633.29,-266.56 643.76,-264.96 634.58,-259.68 633.29,-266.56"/>
</a>
</g>
</g>
<!-- Node8&#45;&gt;Node5 -->
<g id="edge9_Node000008_Node000005" class="edge">
<title>Node8&#45;&gt;Node5</title>
<g id="a_edge9_Node000008_Node000005"><a xlink:title=" ">
<path fill="none" stroke="#63b8ff" d="M405.36,-196.41C452.25,-205.41 521.6,-219.8 581,-236.5 606.42,-243.65 634.55,-253.45 655.93,-261.31"/>
<polygon fill="#63b8ff" stroke="#63b8ff" points="654.95,-264.68 665.55,-264.88 657.39,-258.12 654.95,-264.68"/>
</a>
</g>
</g>
<!-- Node9&#45;&gt;Node10 -->
<g id="edge11_Node000009_Node000010" class="edge">
<title>Node9&#45;&gt;Node10</title>
<g id="a_edge11_Node000009_Node000010"><a xlink:title=" ">
<path fill="none" stroke="#63b8ff" d="M391.12,-75.91C412.1,-70.9 437.98,-64.71 460.23,-59.39"/>
<polygon fill="#63b8ff" stroke="#63b8ff" points="461.25,-62.75 470.17,-57.02 459.63,-55.94 461.25,-62.75"/>
</a>
</g>
</g>
<!-- Node13 -->
<g id="Node000013" class="node">
<title>Node13</title>
<g id="a_Node000013"><a xlink:href="GBIMiddleware_8cpp.html#aeef79449a27a710d73576e4a4f7f7f99" target="_top" xlink:title=" ">
<polygon fill="white" stroke="#666666" points="544,-94 478,-94 478,-75 544,-75 544,-94"/>
<text text-anchor="middle" x="511" y="-82" font-family="Helvetica,sans-Serif" font-size="10.00">gSPVertex</text>
</a>
</g>
</g>
<!-- Node9&#45;&gt;Node13 -->
<g id="edge14_Node000009_Node000013" class="edge">
<title>Node9&#45;&gt;Node13</title>
<g id="a_edge14_Node000009_Node000013"><a xlink:title=" ">
<path fill="none" stroke="#63b8ff" d="M395.71,-85.22C418.23,-85.08 445.39,-84.91 467.58,-84.77"/>
<polygon fill="#63b8ff" stroke="#63b8ff" points="467.74,-88.27 477.71,-84.7 467.69,-81.27 467.74,-88.27"/>
</a>
</g>
</g>
<!-- Node11 -->
<g id="Node000011" class="node">
<title>Node11</title>
<g id="a_Node000011"><a xlink:href="Engine_8cpp.html#a223c8bc63f228dc11177515e38eff2db" target="_top" xlink:title=" ">
<polygon fill="white" stroke="#666666" points="766,-94 617,-94 617,-75 766,-75 766,-94"/>
<text text-anchor="middle" x="691.5" y="-82" font-family="Helvetica,sans-Serif" font-size="10.00">GameEngine_OTRSigCheck</text>
</a>
</g>
</g>
<!-- Node10&#45;&gt;Node11 -->
<g id="edge12_Node000010_Node000011" class="edge">
<title>Node10&#45;&gt;Node11</title>
<g id="a_edge12_Node000010_Node000011"><a xlink:title=" ">
<path fill="none" stroke="#63b8ff" d="M555.67,-56.55C579.45,-61.48 609.13,-67.63 634.59,-72.91"/>
<polygon fill="#63b8ff" stroke="#63b8ff" points="633.98,-76.36 644.48,-74.96 635.4,-69.5 633.98,-76.36"/>
</a>
</g>
</g>
<!-- Node12 -->
<g id="Node000012" class="node">
<title>Node12</title>
<g id="a_Node000012"><a xlink:href="string_8c.html#a008e171a518fe0e0352f31b245e03875" target="_top" xlink:title=" ">
<polygon fill="white" stroke="#666666" points="848.5,-112 804.5,-112 804.5,-93 848.5,-93 848.5,-112"/>
<text text-anchor="middle" x="826.5" y="-100" font-family="Helvetica,sans-Serif" font-size="10.00">strlen</text>
</a>
</g>
</g>
<!-- Node11&#45;&gt;Node12 -->
<g id="edge13_Node000011_Node000012" class="edge">
<title>Node11&#45;&gt;Node12</title>
<g id="a_edge13_Node000011_Node000012"><a xlink:title=" ">
<path fill="none" stroke="#63b8ff" d="M762.89,-94.03C773.94,-95.52 784.84,-97 794.38,-98.29"/>
<polygon fill="#63b8ff" stroke="#63b8ff" points="794.12,-101.78 804.49,-99.66 795.05,-94.85 794.12,-101.78"/>
</a>
</g>
</g>
<!-- Node13&#45;&gt;Node11 -->
<g id="edge15_Node000013_Node000011" class="edge">
<title>Node13&#45;&gt;Node11</title>
<g id="a_edge15_Node000013_Node000011"><a xlink:title=" ">
<path fill="none" stroke="#63b8ff" d="M544.33,-84.5C561.92,-84.5 584.59,-84.5 606.8,-84.5"/>
<polygon fill="#63b8ff" stroke="#63b8ff" points="606.95,-88 616.95,-84.5 606.95,-81 606.95,-88"/>
</a>
</g>
</g>
<!-- Node15 -->
<g id="Node000015" class="node">
<title>Node15</title>
<g id="a_Node000015"><a xlink:href="__Printf_8c.html#a39bb05c90efce6c6790c5d58d271d72d" target="_top" xlink:title=" ">
<polygon fill="white" stroke="#666666" points="535,-168 487,-168 487,-149 535,-149 535,-168"/>
<text text-anchor="middle" x="511" y="-156" font-family="Helvetica,sans-Serif" font-size="10.00">_Printf</text>
</a>
</g>
</g>
<!-- Node14&#45;&gt;Node15 -->
<g id="edge17_Node000014_Node000015" class="edge">
<title>Node14&#45;&gt;Node15</title>
<g id="a_edge17_Node000014_Node000015"><a xlink:title=" ">
<path fill="none" stroke="#63b8ff" d="M384.33,-146.64C411.5,-149.21 449.69,-152.81 476.82,-155.37"/>
<polygon fill="#63b8ff" stroke="#63b8ff" points="476.7,-158.87 486.99,-156.33 477.36,-151.91 476.7,-158.87"/>
</a>
</g>
</g>
<!-- Node26 -->
<g id="Node000026" class="node">
<title>Node26</title>
<g id="a_Node000026"><a xlink:href="is__debug_8c.html#aaccfac8d9098530b6592eefe679d86b4" target="_top" xlink:title=" ">
<polygon fill="white" stroke="#666666" points="563.5,-131 458.5,-131 458.5,-112 563.5,-112 563.5,-131"/>
<text text-anchor="middle" x="511" y="-119" font-family="Helvetica,sans-Serif" font-size="10.00">is_proutSyncPrintf</text>
</a>
</g>
</g>
<!-- Node14&#45;&gt;Node26 -->
<g id="edge31_Node000014_Node000026" class="edge">
<title>Node14&#45;&gt;Node26</title>
<g id="a_edge31_Node000014_Node000026"><a xlink:title=" ">
<path fill="none" stroke="#63b8ff" d="M384.33,-138.89C402.81,-136.33 426.37,-133.07 448.09,-130.07"/>
<polygon fill="#63b8ff" stroke="#63b8ff" points="448.82,-133.5 458.24,-128.66 447.86,-126.57 448.82,-133.5"/>
</a>
</g>
</g>
<!-- Node16 -->
<g id="Node000016" class="node">
<title>Node16</title>
<g id="a_Node000016"><a xlink:href="__Printf_8c.html#ad73a5847f2d7c9de14cc2723da86bf45" target="_top" xlink:title=" ">
<polygon fill="white" stroke="#666666" points="716.5,-168 666.5,-168 666.5,-149 716.5,-149 716.5,-168"/>
<text text-anchor="middle" x="691.5" y="-156" font-family="Helvetica,sans-Serif" font-size="10.00">_Putfld</text>
</a>
</g>
</g>
<!-- Node15&#45;&gt;Node16 -->
<g id="edge18_Node000015_Node000016" class="edge">
<title>Node15&#45;&gt;Node16</title>
<g id="a_edge18_Node000015_Node000016"><a xlink:title=" ">
<path fill="none" stroke="#63b8ff" d="M535.34,-158.5C566.08,-158.5 620.41,-158.5 655.93,-158.5"/>
<polygon fill="#63b8ff" stroke="#63b8ff" points="656.3,-162 666.3,-158.5 656.3,-155 656.3,-162"/>
</a>
</g>
</g>
<!-- Node25 -->
<g id="Node000025" class="node">
<title>Node25</title>
<g id="a_Node000025"><a xlink:href="string_8c.html#a988b4defe51a1815ef3b9ddab10e7a89" target="_top" xlink:title=" ">
<polygon fill="white" stroke="#666666" points="713.5,-131 669.5,-131 669.5,-112 713.5,-112 713.5,-131"/>
<text text-anchor="middle" x="691.5" y="-119" font-family="Helvetica,sans-Serif" font-size="10.00">strchr</text>
</a>
</g>
</g>
<!-- Node15&#45;&gt;Node25 -->
<g id="edge30_Node000015_Node000025" class="edge">
<title>Node15&#45;&gt;Node25</title>
<g id="a_edge30_Node000015_Node000025"><a xlink:title=" ">
<path fill="none" stroke="#63b8ff" d="M535.34,-153.66C567.02,-147.09 623.76,-135.33 659.14,-128"/>
<polygon fill="#63b8ff" stroke="#63b8ff" points="660.3,-131.33 669.38,-125.88 658.88,-124.48 660.3,-131.33"/>
</a>
</g>
</g>
<!-- Node16&#45;&gt;Node12 -->
<g id="edge29_Node000016_Node000012" class="edge">
<title>Node16&#45;&gt;Node12</title>
<g id="a_edge29_Node000016_Node000012"><a xlink:title=" ">
<path fill="none" stroke="#63b8ff" d="M716.64,-154.66C731.3,-151.82 750.18,-147.27 766,-140.5 779.69,-134.64 793.79,-125.78 804.83,-118.09"/>
<polygon fill="#63b8ff" stroke="#63b8ff" points="806.88,-120.93 812.95,-112.25 802.79,-115.25 806.88,-120.93"/>
</a>
</g>
</g>
<!-- Node17 -->
<g id="Node000017" class="node">
<title>Node17</title>
<g id="a_Node000017"><a xlink:href="__Ldtob_8c.html#a7cc858157b66e15c831ad085113729ae" target="_top" xlink:title=" ">
<polygon fill="white" stroke="#666666" points="851,-158 802,-158 802,-139 851,-139 851,-158"/>
<text text-anchor="middle" x="826.5" y="-146" font-family="Helvetica,sans-Serif" font-size="10.00">_Ldtob</text>
</a>
</g>
</g>
<!-- Node16&#45;&gt;Node17 -->
<g id="edge19_Node000016_Node000017" class="edge">
<title>Node16&#45;&gt;Node17</title>
<g id="a_edge19_Node000016_Node000017"><a xlink:title=" ">
<path fill="none" stroke="#63b8ff" d="M716.59,-156.69C737.49,-155.12 767.99,-152.82 791.4,-151.06"/>
<polygon fill="#63b8ff" stroke="#63b8ff" points="791.88,-154.54 801.59,-150.3 791.36,-147.56 791.88,-154.54"/>
</a>
</g>
</g>
<!-- Node23 -->
<g id="Node000023" class="node">
<title>Node23</title>
<g id="a_Node000023"><a xlink:href="__Litob_8c.html#aaaba3b0ab7920d422a61fe9e22600dd0" target="_top" xlink:title=" ">
<polygon fill="white" stroke="#666666" points="849.5,-253 803.5,-253 803.5,-234 849.5,-234 849.5,-253"/>
<text text-anchor="middle" x="826.5" y="-241" font-family="Helvetica,sans-Serif" font-size="10.00">_Litob</text>
</a>
</g>
</g>
<!-- Node16&#45;&gt;Node23 -->
<g id="edge26_Node000016_Node000023" class="edge">
<title>Node16&#45;&gt;Node23</title>
<g id="a_edge26_Node000016_Node000023"><a xlink:title=" ">
<path fill="none" stroke="#63b8ff" d="M707.5,-168.09C730.45,-182.75 774.48,-210.89 801.79,-228.35"/>
<polygon fill="#63b8ff" stroke="#63b8ff" points="800.04,-231.38 810.35,-233.82 803.81,-225.48 800.04,-231.38"/>
</a>
</g>
</g>
<!-- Node18 -->
<g id="Node000018" class="node">
<title>Node18</title>
<g id="a_Node000018"><a xlink:href="__Ldtob_8c.html#a2b6c5318b43bab1636bad9113ffb2761" target="_top" xlink:title=" ">
<polygon fill="white" stroke="#666666" points="947.5,-215 897.5,-215 897.5,-196 947.5,-196 947.5,-215"/>
<text text-anchor="middle" x="922.5" y="-203" font-family="Helvetica,sans-Serif" font-size="10.00">_Genld</text>
</a>
</g>
</g>
<!-- Node17&#45;&gt;Node18 -->
<g id="edge20_Node000017_Node000018" class="edge">
<title>Node17&#45;&gt;Node18</title>
<g id="a_edge20_Node000017_Node000018"><a xlink:title=" ">
<path fill="none" stroke="#63b8ff" d="M843.45,-158.17C858.12,-167.07 880.1,-180.4 897,-190.64"/>
<polygon fill="#63b8ff" stroke="#63b8ff" points="895.42,-193.78 905.79,-195.97 899.05,-187.8 895.42,-193.78"/>
</a>
</g>
</g>
<!-- Node19 -->
<g id="Node000019" class="node">
<title>Node19</title>
<g id="a_Node000019"><a xlink:href="string_8c.html#ad7f1ae1bbb49dece44bda378982a704d" target="_top" xlink:title=" ">
<polygon fill="white" stroke="#666666" points="1053,-215 994,-215 994,-196 1053,-196 1053,-215"/>
<text text-anchor="middle" x="1023.5" y="-203" font-family="Helvetica,sans-Serif" font-size="10.00">memcpy</text>
</a>
</g>
</g>
<!-- Node17&#45;&gt;Node19 -->
<g id="edge24_Node000017_Node000019" class="edge">
<title>Node17&#45;&gt;Node19</title>
<g id="a_edge24_Node000017_Node000019"><a xlink:title=" ">
<path fill="none" stroke="#63b8ff" d="M851.02,-155.38C884.01,-165.02 944.4,-182.67 984,-194.25"/>
<polygon fill="#63b8ff" stroke="#63b8ff" points="983.25,-197.67 993.83,-197.12 985.22,-190.96 983.25,-197.67"/>
</a>
</g>
</g>
<!-- Node20 -->
<g id="Node000020" class="node">
<title>Node20</title>
<g id="a_Node000020"><a xlink:href="__Ldtob_8c.html#ab7ade9ce60aaa8baa0244b503351d742" target="_top" xlink:title=" ">
<polygon fill="white" stroke="#666666" points="958,-139 887,-139 887,-120 958,-120 958,-139"/>
<text text-anchor="middle" x="922.5" y="-127" font-family="Helvetica,sans-Serif" font-size="10.00">_Ldunscale</text>
</a>
</g>
</g>
<!-- Node17&#45;&gt;Node20 -->
<g id="edge22_Node000017_Node000020" class="edge">
<title>Node17&#45;&gt;Node20</title>
<g id="a_edge22_Node000017_Node000020"><a xlink:title=" ">
<path fill="none" stroke="#63b8ff" d="M851.22,-143.71C859.04,-142.12 868.02,-140.31 876.88,-138.52"/>
<polygon fill="#63b8ff" stroke="#63b8ff" points="877.66,-141.93 886.77,-136.52 876.28,-135.07 877.66,-141.93"/>
</a>
</g>
</g>
<!-- Node21 -->
<g id="Node000021" class="node">
<title>Node21</title>
<g id="a_Node000021"><a xlink:href="ldiv_8c.html#a0302920caf64a5fbe1ce0862799d7784" target="_top" xlink:title=" ">
<polygon fill="white" stroke="#666666" points="940,-102 905,-102 905,-83 940,-83 940,-102"/>
<text text-anchor="middle" x="922.5" y="-90" font-family="Helvetica,sans-Serif" font-size="10.00">ldiv</text>
</a>
</g>
</g>
<!-- Node17&#45;&gt;Node21 -->
<g id="edge23_Node000017_Node000021" class="edge">
<title>Node17&#45;&gt;Node21</title>
<g id="a_edge23_Node000017_Node000021"><a xlink:title=" ">
<path fill="none" stroke="#63b8ff" d="M841.95,-138.77C853.87,-130.87 871.3,-119.59 887,-110.5 889.87,-108.84 892.9,-107.16 895.93,-105.52"/>
<polygon fill="#63b8ff" stroke="#63b8ff" points="897.63,-108.58 904.84,-100.82 894.37,-102.39 897.63,-108.58"/>
</a>
</g>
</g>
<!-- Node22 -->
<g id="Node000022" class="node">
<title>Node22</title>
<g id="a_Node000022"><a xlink:href="alBnkfNew_8c.html#a96a0200a6b40350e524f536d232ecb53" target="_top" xlink:title=" ">
<polygon fill="white" stroke="#666666" points="948.5,-65 896.5,-65 896.5,-46 948.5,-46 948.5,-65"/>
<text text-anchor="middle" x="922.5" y="-53" font-family="Helvetica,sans-Serif" font-size="10.00">unused</text>
</a>
</g>
</g>
<!-- Node17&#45;&gt;Node22 -->
<g id="edge25_Node000017_Node000022" class="edge">
<title>Node17&#45;&gt;Node22</title>
<g id="a_edge25_Node000017_Node000022"><a xlink:title=" ">
<path fill="none" stroke="#63b8ff" d="M836.16,-138.9C840.67,-133.8 846.23,-127.4 851,-121.5 867.76,-100.76 866.67,-90.76 887,-73.5 888.16,-72.52 889.38,-71.57 890.64,-70.65"/>
<polygon fill="#63b8ff" stroke="#63b8ff" points="892.79,-73.43 899.4,-65.15 889.07,-67.51 892.79,-73.43"/>
</a>
</g>
</g>
<!-- Node18&#45;&gt;Node19 -->
<g id="edge21_Node000018_Node000019" class="edge">
<title>Node18&#45;&gt;Node19</title>
<g id="a_edge21_Node000018_Node000019"><a xlink:title=" ">
<path fill="none" stroke="#63b8ff" d="M947.72,-205.5C958.52,-205.5 971.52,-205.5 983.63,-205.5"/>
<polygon fill="#63b8ff" stroke="#63b8ff" points="983.96,-209 993.96,-205.5 983.96,-202 983.96,-209"/>
</a>
</g>
</g>
<!-- Node23&#45;&gt;Node19 -->
<g id="edge28_Node000023_Node000019" class="edge">
<title>Node23&#45;&gt;Node19</title>
<g id="a_edge28_Node000023_Node000019"><a xlink:title=" ">
<path fill="none" stroke="#63b8ff" d="M849.84,-241.22C875.97,-238.34 920.43,-232.73 958,-224.5 966.52,-222.63 975.57,-220.24 984.11,-217.78"/>
<polygon fill="#63b8ff" stroke="#63b8ff" points="985.24,-221.09 993.83,-214.89 983.25,-214.38 985.24,-221.09"/>
</a>
</g>
</g>
<!-- Node24 -->
<g id="Node000024" class="node">
<title>Node24</title>
<g id="a_Node000024"><a xlink:href="ldiv_8c.html#a5b23c3639f11980dca762c5f1d74f339" target="_top" xlink:title=" ">
<polygon fill="white" stroke="#666666" points="941.5,-291 903.5,-291 903.5,-272 941.5,-272 941.5,-291"/>
<text text-anchor="middle" x="922.5" y="-279" font-family="Helvetica,sans-Serif" font-size="10.00">lldiv</text>
</a>
</g>
</g>
<!-- Node23&#45;&gt;Node24 -->
<g id="edge27_Node000023_Node000024" class="edge">
<title>Node23&#45;&gt;Node24</title>
<g id="a_edge27_Node000023_Node000024"><a xlink:title=" ">
<path fill="none" stroke="#63b8ff" d="M849.78,-252.51C862.97,-257.84 879.8,-264.64 893.84,-270.32"/>
<polygon fill="#63b8ff" stroke="#63b8ff" points="892.89,-273.71 903.47,-274.21 895.52,-267.22 892.89,-273.71"/>
</a>
</g>
</g>
<!-- Node27&#45;&gt;Node27 -->
<g id="edge35_Node000027_Node000027" class="edge">
<title>Node27&#45;&gt;Node27</title>
<g id="a_edge35_Node000027_Node000027"><a xlink:title=" ">
<path fill="none" stroke="#63b8ff" d="M325.34,-348.08C313.34,-356.73 321.56,-366 350,-366 368.66,-366 378.62,-362.01 379.87,-356.82"/>
<polygon fill="#63b8ff" stroke="#63b8ff" points="382.79,-354.88 374.66,-348.08 376.77,-358.47 382.79,-354.88"/>
</a>
</g>
</g>
<!-- Node28 -->
<g id="Node000028" class="node">
<title>Node28</title>
<g id="a_Node000028"><a xlink:href="FrameInterpolation_8cpp.html#a5fbd67ef553452903cf553b9c224fa76" target="_top" xlink:title=" ">
<polygon fill="white" stroke="#666666" points="575,-378.5 447,-378.5 447,-348.5 575,-348.5 575,-378.5"/>
<text text-anchor="start" x="455" y="-366.5" font-family="Helvetica,sans-Serif" font-size="10.00">FrameInterpolation</text>
<text text-anchor="middle" x="511" y="-355.5" font-family="Helvetica,sans-Serif" font-size="10.00">_Record_SetTextMatrix</text>
</a>
</g>
</g>
<!-- Node27&#45;&gt;Node28 -->
<g id="edge33_Node000027_Node000028" class="edge">
<title>Node27&#45;&gt;Node28</title>
<g id="a_edge33_Node000027_Node000028"><a xlink:title=" ">
<path fill="none" stroke="#63b8ff" d="M392.36,-345C406.02,-347.15 421.65,-349.61 436.96,-352.02"/>
<polygon fill="#63b8ff" stroke="#63b8ff" points="436.53,-355.49 446.95,-353.59 437.62,-348.58 436.53,-355.49"/>
</a>
</g>
</g>
<!-- Node28&#45;&gt;Node5 -->
<g id="edge34_Node000028_Node000005" class="edge">
<title>Node28&#45;&gt;Node5</title>
<g id="a_edge34_Node000028_Node000005"><a xlink:title=" ">
<path fill="none" stroke="#63b8ff" d="M559.27,-348.48C566.64,-345.73 574.1,-342.71 581,-339.5 612.4,-324.9 646.36,-303.84 668,-289.68"/>
<polygon fill="#63b8ff" stroke="#63b8ff" points="670.07,-292.51 676.48,-284.08 666.21,-286.67 670.07,-292.51"/>
</a>
</g>
</g>
</g>
</svg>
