<?xml version="1.0" encoding="UTF-8" standalone="no"?>
<!DOCTYPE svg PUBLIC "-//W3C//DTD SVG 1.1//EN"
 "http://www.w3.org/Graphics/SVG/1.1/DTD/svg11.dtd">
<!-- Generated by graphviz version 2.43.0 (0)
 -->
<!-- Title: func_8009A2F0 Pages: 1 -->
<svg width="404pt" height="76pt"
 viewBox="0.00 0.00 404.00 75.50" xmlns="http://www.w3.org/2000/svg" xmlns:xlink="http://www.w3.org/1999/xlink">
<g id="graph0" class="graph" transform="scale(1 1) rotate(0) translate(4 71.5)">
<title>func_8009A2F0</title>
<!-- Node1 -->
<g id="Node000001" class="node">
<title>Node1</title>
<g id="a_Node000001"><a xlink:title=" ">
<polygon fill="#999999" stroke="#666666" points="92,-45.5 0,-45.5 0,-26.5 92,-26.5 92,-45.5"/>
<text text-anchor="middle" x="46" y="-33.5" font-family="Helvetica,sans-Serif" font-size="10.00">func_8009A2F0</text>
</a>
</g>
</g>
<!-- Node2 -->
<g id="Node000002" class="node">
<title>Node2</title>
<g id="a_Node000002"><a xlink:href="menu__items_8c.html#aed1902cf7e54ee29af3623ee82aa6b1c" target="_top" xlink:title=" ">
<polygon fill="white" stroke="#666666" points="282,-67.5 128,-67.5 128,-48.5 282,-48.5 282,-67.5"/>
<text text-anchor="middle" x="205" y="-55.5" font-family="Helvetica,sans-Serif" font-size="10.00">load_menu_img_comp_type</text>
</a>
</g>
</g>
<!-- Node1&#45;&gt;Node2 -->
<g id="edge1_Node000001_Node000002" class="edge">
<title>Node1&#45;&gt;Node2</title>
<g id="a_edge1_Node000001_Node000002"><a xlink:title=" ">
<path fill="none" stroke="#63b8ff" d="M92.41,-42.36C102.99,-43.85 114.55,-45.46 126.09,-47.08"/>
<polygon fill="#63b8ff" stroke="#63b8ff" points="125.81,-50.58 136.2,-48.5 126.78,-43.65 125.81,-50.58"/>
</a>
</g>
</g>
<!-- Node4 -->
<g id="Node000004" class="node">
<title>Node4</title>
<g id="a_Node000004"><a xlink:href="menu__items_8c.html#a7f945b0137dc9c27332444441ca8ac67" target="_top" xlink:title=" ">
<polygon fill="white" stroke="#666666" points="266.5,-30 143.5,-30 143.5,0 266.5,0 266.5,-30"/>
<text text-anchor="start" x="151.5" y="-18" font-family="Helvetica,sans-Serif" font-size="10.00">segmented_to_virtual</text>
<text text-anchor="middle" x="205" y="-7" font-family="Helvetica,sans-Serif" font-size="10.00">_dupe_2</text>
</a>
</g>
</g>
<!-- Node1&#45;&gt;Node4 -->
<g id="edge3_Node000001_Node000004" class="edge">
<title>Node1&#45;&gt;Node4</title>
<g id="a_edge3_Node000001_Node000004"><a xlink:title=" ">
<path fill="none" stroke="#63b8ff" d="M92.41,-29.93C105.24,-28.21 119.51,-26.3 133.44,-24.44"/>
<polygon fill="#63b8ff" stroke="#63b8ff" points="134.05,-27.89 143.5,-23.09 133.12,-20.95 134.05,-27.89"/>
</a>
</g>
</g>
<!-- Node3 -->
<g id="Node000003" class="node">
<title>Node3</title>
<g id="a_Node000003"><a xlink:href="menu__items_8c.html#a248768ee2e4ca9ae9cf0a30bfb256859" target="_top" xlink:title=" ">
<polygon fill="white" stroke="#666666" points="396,-67.5 318,-67.5 318,-48.5 396,-48.5 396,-67.5"/>
<text text-anchor="middle" x="357" y="-55.5" font-family="Helvetica,sans-Serif" font-size="10.00">load_texture</text>
</a>
</g>
</g>
<!-- Node2&#45;&gt;Node3 -->
<g id="edge2_Node000002_Node000003" class="edge">
<title>Node2&#45;&gt;Node3</title>
<g id="a_edge2_Node000002_Node000003"><a xlink:title=" ">
<path fill="none" stroke="#63b8ff" d="M282.32,-58C290.97,-58 299.6,-58 307.74,-58"/>
<polygon fill="#63b8ff" stroke="#63b8ff" points="307.76,-61.5 317.76,-58 307.76,-54.5 307.76,-61.5"/>
</a>
</g>
</g>
</g>
</svg>
