<?xml version="1.0" encoding="UTF-8" standalone="no"?>
<!DOCTYPE svg PUBLIC "-//W3C//DTD SVG 1.1//EN"
 "http://www.w3.org/Graphics/SVG/1.1/DTD/svg11.dtd">
<!-- Generated by graphviz version 2.43.0 (0)
 -->
<!-- Title: func_800AB290 Pages: 1 -->
<svg width="387pt" height="113pt"
 viewBox="0.00 0.00 387.00 112.50" xmlns="http://www.w3.org/2000/svg" xmlns:xlink="http://www.w3.org/1999/xlink">
<g id="graph0" class="graph" transform="scale(1 1) rotate(0) translate(4 108.5)">
<title>func_800AB290</title>
<!-- Node1 -->
<g id="Node000001" class="node">
<title>Node1</title>
<g id="a_Node000001"><a xlink:title=" ">
<polygon fill="#999999" stroke="#666666" points="92,-67.5 0,-67.5 0,-48.5 92,-48.5 92,-67.5"/>
<text text-anchor="middle" x="46" y="-55.5" font-family="Helvetica,sans-Serif" font-size="10.00">func_800AB290</text>
</a>
</g>
</g>
<!-- Node2 -->
<g id="Node000002" class="node">
<title>Node2</title>
<g id="a_Node000002"><a xlink:href="menu__items_8c.html#ab0b57eabb503b4ecd8eabd136da96826" target="_top" xlink:title=" ">
<polygon fill="white" stroke="#666666" points="235.5,-104.5 143.5,-104.5 143.5,-85.5 235.5,-85.5 235.5,-104.5"/>
<text text-anchor="middle" x="189.5" y="-92.5" font-family="Helvetica,sans-Serif" font-size="10.00">func_8009A594</text>
</a>
</g>
</g>
<!-- Node1&#45;&gt;Node2 -->
<g id="edge1_Node000001_Node000002" class="edge">
<title>Node1&#45;&gt;Node2</title>
<g id="a_edge1_Node000001_Node000002"><a xlink:title=" ">
<path fill="none" stroke="#63b8ff" d="M83.44,-67.53C101.21,-72.17 122.79,-77.82 141.76,-82.78"/>
<polygon fill="#63b8ff" stroke="#63b8ff" points="141.13,-86.23 151.69,-85.38 142.9,-79.46 141.13,-86.23"/>
</a>
</g>
</g>
<!-- Node4 -->
<g id="Node000004" class="node">
<title>Node4</title>
<g id="a_Node000004"><a xlink:href="Game_8cpp.html#a0499ce6f7f2cd1b56b0674de6c0cc813" target="_top" xlink:title=" ">
<polygon fill="white" stroke="#666666" points="229.5,-67.5 149.5,-67.5 149.5,-48.5 229.5,-48.5 229.5,-67.5"/>
<text text-anchor="middle" x="189.5" y="-55.5" font-family="Helvetica,sans-Serif" font-size="10.00">GetCupIndex</text>
</a>
</g>
</g>
<!-- Node1&#45;&gt;Node4 -->
<g id="edge3_Node000001_Node000004" class="edge">
<title>Node1&#45;&gt;Node4</title>
<g id="a_edge3_Node000001_Node000004"><a xlink:title=" ">
<path fill="none" stroke="#63b8ff" d="M92.16,-58C107.14,-58 123.9,-58 139.18,-58"/>
<polygon fill="#63b8ff" stroke="#63b8ff" points="139.48,-61.5 149.48,-58 139.48,-54.5 139.48,-61.5"/>
</a>
</g>
</g>
<!-- Node5 -->
<g id="Node000005" class="node">
<title>Node5</title>
<g id="a_Node000005"><a xlink:href="menu__items_8c.html#a7f945b0137dc9c27332444441ca8ac67" target="_top" xlink:title=" ">
<polygon fill="white" stroke="#666666" points="251,-30 128,-30 128,0 251,0 251,-30"/>
<text text-anchor="start" x="136" y="-18" font-family="Helvetica,sans-Serif" font-size="10.00">segmented_to_virtual</text>
<text text-anchor="middle" x="189.5" y="-7" font-family="Helvetica,sans-Serif" font-size="10.00">_dupe_2</text>
</a>
</g>
</g>
<!-- Node1&#45;&gt;Node5 -->
<g id="edge4_Node000001_Node000005" class="edge">
<title>Node1&#45;&gt;Node5</title>
<g id="a_edge4_Node000001_Node000005"><a xlink:title=" ">
<path fill="none" stroke="#63b8ff" d="M78.4,-48.46C93.45,-43.88 111.97,-38.26 129.51,-32.93"/>
<polygon fill="#63b8ff" stroke="#63b8ff" points="130.57,-36.26 139.12,-30.01 128.53,-29.57 130.57,-36.26"/>
</a>
</g>
</g>
<!-- Node3 -->
<g id="Node000003" class="node">
<title>Node3</title>
<g id="a_Node000003"><a xlink:href="menu__items_8c.html#a66e95f019bfd0b516ee71baf91daa2f6" target="_top" xlink:title=" ">
<polygon fill="white" stroke="#666666" points="379,-104.5 287,-104.5 287,-85.5 379,-85.5 379,-104.5"/>
<text text-anchor="middle" x="333" y="-92.5" font-family="Helvetica,sans-Serif" font-size="10.00">func_80099A94</text>
</a>
</g>
</g>
<!-- Node2&#45;&gt;Node3 -->
<g id="edge2_Node000002_Node000003" class="edge">
<title>Node2&#45;&gt;Node3</title>
<g id="a_edge2_Node000002_Node000003"><a xlink:title=" ">
<path fill="none" stroke="#63b8ff" d="M235.66,-95C248.68,-95 263.04,-95 276.6,-95"/>
<polygon fill="#63b8ff" stroke="#63b8ff" points="276.78,-98.5 286.78,-95 276.78,-91.5 276.78,-98.5"/>
</a>
</g>
</g>
</g>
</svg>
