<?xml version="1.0" encoding="UTF-8" standalone="no"?>
<!DOCTYPE svg PUBLIC "-//W3C//DTD SVG 1.1//EN"
 "http://www.w3.org/Graphics/SVG/1.1/DTD/svg11.dtd">
<!-- Generated by graphviz version 2.43.0 (0)
 -->
<!-- Title: func_800AA69C Pages: 1 -->
<svg width="388pt" height="150pt"
 viewBox="0.00 0.00 388.00 149.50" xmlns="http://www.w3.org/2000/svg" xmlns:xlink="http://www.w3.org/1999/xlink">
<g id="graph0" class="graph" transform="scale(1 1) rotate(0) translate(4 145.5)">
<title>func_800AA69C</title>
<!-- Node1 -->
<g id="Node000001" class="node">
<title>Node1</title>
<g id="a_Node000001"><a xlink:title=" ">
<polygon fill="#999999" stroke="#666666" points="93,-85.5 0,-85.5 0,-66.5 93,-66.5 93,-85.5"/>
<text text-anchor="middle" x="46.5" y="-73.5" font-family="Helvetica,sans-Serif" font-size="10.00">func_800AA69C</text>
</a>
</g>
</g>
<!-- Node2 -->
<g id="Node000002" class="node">
<title>Node2</title>
<g id="a_Node000002"><a xlink:href="menu__items_8c.html#ab0b57eabb503b4ecd8eabd136da96826" target="_top" xlink:title=" ">
<polygon fill="white" stroke="#666666" points="236.5,-141.5 144.5,-141.5 144.5,-122.5 236.5,-122.5 236.5,-141.5"/>
<text text-anchor="middle" x="190.5" y="-129.5" font-family="Helvetica,sans-Serif" font-size="10.00">func_8009A594</text>
</a>
</g>
</g>
<!-- Node1&#45;&gt;Node2 -->
<g id="edge1_Node000001_Node000002" class="edge">
<title>Node1&#45;&gt;Node2</title>
<g id="a_edge1_Node000001_Node000002"><a xlink:title=" ">
<path fill="none" stroke="#63b8ff" d="M65.94,-85.55C82.24,-93.76 106.81,-105.58 129,-114 134.06,-115.92 139.42,-117.77 144.77,-119.5"/>
<polygon fill="#63b8ff" stroke="#63b8ff" points="143.75,-122.85 154.34,-122.49 145.83,-116.17 143.75,-122.85"/>
</a>
</g>
</g>
<!-- Node4 -->
<g id="Node000004" class="node">
<title>Node4</title>
<g id="a_Node000004"><a xlink:href="menu__items_8c.html#ada8245ca5b95193ba7855a8a43946aa6" target="_top" xlink:title=" ">
<polygon fill="white" stroke="#666666" points="237.5,-104.5 143.5,-104.5 143.5,-85.5 237.5,-85.5 237.5,-104.5"/>
<text text-anchor="middle" x="190.5" y="-92.5" font-family="Helvetica,sans-Serif" font-size="10.00">func_800AAFCC</text>
</a>
</g>
</g>
<!-- Node1&#45;&gt;Node4 -->
<g id="edge3_Node000001_Node000004" class="edge">
<title>Node1&#45;&gt;Node4</title>
<g id="a_edge3_Node000001_Node000004"><a xlink:title=" ">
<path fill="none" stroke="#63b8ff" d="M93.21,-82.12C106,-83.83 120.06,-85.71 133.38,-87.49"/>
<polygon fill="#63b8ff" stroke="#63b8ff" points="133.01,-90.97 143.39,-88.83 133.94,-84.03 133.01,-90.97"/>
</a>
</g>
</g>
<!-- Node5 -->
<g id="Node000005" class="node">
<title>Node5</title>
<g id="a_Node000005"><a xlink:href="math__util_8c.html#a151b63b8adf9af7e4054b3b84bd226dc" target="_top" xlink:title=" ">
<polygon fill="white" stroke="#666666" points="226.5,-67.5 154.5,-67.5 154.5,-48.5 226.5,-48.5 226.5,-67.5"/>
<text text-anchor="middle" x="190.5" y="-55.5" font-family="Helvetica,sans-Serif" font-size="10.00">random_int</text>
</a>
</g>
</g>
<!-- Node1&#45;&gt;Node5 -->
<g id="edge4_Node000001_Node000005" class="edge">
<title>Node1&#45;&gt;Node5</title>
<g id="a_edge4_Node000001_Node000005"><a xlink:title=" ">
<path fill="none" stroke="#63b8ff" d="M93.21,-70.21C109.44,-68.15 127.69,-65.83 143.91,-63.78"/>
<polygon fill="#63b8ff" stroke="#63b8ff" points="144.75,-67.2 154.23,-62.47 143.87,-60.26 144.75,-67.2"/>
</a>
</g>
</g>
<!-- Node7 -->
<g id="Node000007" class="node">
<title>Node7</title>
<g id="a_Node000007"><a xlink:href="menu__items_8c.html#a7f945b0137dc9c27332444441ca8ac67" target="_top" xlink:title=" ">
<polygon fill="white" stroke="#666666" points="252,-30 129,-30 129,0 252,0 252,-30"/>
<text text-anchor="start" x="137" y="-18" font-family="Helvetica,sans-Serif" font-size="10.00">segmented_to_virtual</text>
<text text-anchor="middle" x="190.5" y="-7" font-family="Helvetica,sans-Serif" font-size="10.00">_dupe_2</text>
</a>
</g>
</g>
<!-- Node1&#45;&gt;Node7 -->
<g id="edge6_Node000001_Node000007" class="edge">
<title>Node1&#45;&gt;Node7</title>
<g id="a_edge6_Node000001_Node000007"><a xlink:title=" ">
<path fill="none" stroke="#63b8ff" d="M67.81,-66.45C84.23,-58.81 107.98,-47.94 129,-39 132.92,-37.33 137,-35.64 141.1,-33.96"/>
<polygon fill="#63b8ff" stroke="#63b8ff" points="142.7,-37.08 150.66,-30.09 140.07,-30.6 142.7,-37.08"/>
</a>
</g>
</g>
<!-- Node3 -->
<g id="Node000003" class="node">
<title>Node3</title>
<g id="a_Node000003"><a xlink:href="menu__items_8c.html#a66e95f019bfd0b516ee71baf91daa2f6" target="_top" xlink:title=" ">
<polygon fill="white" stroke="#666666" points="380,-141.5 288,-141.5 288,-122.5 380,-122.5 380,-141.5"/>
<text text-anchor="middle" x="334" y="-129.5" font-family="Helvetica,sans-Serif" font-size="10.00">func_80099A94</text>
</a>
</g>
</g>
<!-- Node2&#45;&gt;Node3 -->
<g id="edge2_Node000002_Node000003" class="edge">
<title>Node2&#45;&gt;Node3</title>
<g id="a_edge2_Node000002_Node000003"><a xlink:title=" ">
<path fill="none" stroke="#63b8ff" d="M236.66,-132C249.68,-132 264.04,-132 277.6,-132"/>
<polygon fill="#63b8ff" stroke="#63b8ff" points="277.78,-135.5 287.78,-132 277.78,-128.5 277.78,-135.5"/>
</a>
</g>
</g>
<!-- Node6 -->
<g id="Node000006" class="node">
<title>Node6</title>
<g id="a_Node000006"><a xlink:href="math__util_8c.html#a062850863585005ad1d0a75d9ff70693" target="_top" xlink:title=" ">
<polygon fill="white" stroke="#666666" points="372.5,-67.5 295.5,-67.5 295.5,-48.5 372.5,-48.5 372.5,-67.5"/>
<text text-anchor="middle" x="334" y="-55.5" font-family="Helvetica,sans-Serif" font-size="10.00">random_u16</text>
</a>
</g>
</g>
<!-- Node5&#45;&gt;Node6 -->
<g id="edge5_Node000005_Node000006" class="edge">
<title>Node5&#45;&gt;Node6</title>
<g id="a_edge5_Node000005_Node000006"><a xlink:title=" ">
<path fill="none" stroke="#63b8ff" d="M226.84,-58C244.54,-58 266.21,-58 285.35,-58"/>
<polygon fill="#63b8ff" stroke="#63b8ff" points="285.39,-61.5 295.39,-58 285.39,-54.5 285.39,-61.5"/>
</a>
</g>
</g>
</g>
</svg>
