<?xml version="1.0" encoding="UTF-8" standalone="no"?>
<!DOCTYPE svg PUBLIC "-//W3C//DTD SVG 1.1//EN"
 "http://www.w3.org/Graphics/SVG/1.1/DTD/svg11.dtd">
<!-- Generated by graphviz version 2.43.0 (0)
 -->
<!-- Title: text_draw Pages: 1 -->
<!--zoomable 544 -->

<svg id="main" version="1.1" xmlns="http://www.w3.org/2000/svg" xmlns:xlink="http://www.w3.org/1999/xlink" xml:space="preserve" onload="init(evt)">

<style type="text/css"><![CDATA[
.node, .edge {opacity: 0.7;}
.node.selected, .edge.selected {opacity: 1;}
.edge:hover path { stroke: red; }
.edge:hover polygon { stroke: red; fill: red; }
]]></style>

<defs>
  <circle id="rim" cx="0" cy="0" r="7"/>
  <circle id="rim2" cx="0" cy="0" r="3.5"/>
  <g id="zoomPlus">
    <use xlink:href="#rim" fill="#404040"><set attributeName="fill" to="#808080" begin="zoomplus.mouseover" end="zoomplus.mouseout"/></use>
    <path d="M-4,0h8M0,-4v8" fill="none" stroke="white" stroke-width="1.5" pointer-events="none"/>
  </g>
  <g id="zoomMin">
    <use xlink:href="#rim" fill="#404040"><set attributeName="fill" to="#808080" begin="zoomminus.mouseover" end="zoomminus.mouseout"/></use>
    <path d="M-4,0h8" fill="none" stroke="white" stroke-width="1.5" pointer-events="none"/>
  </g>
  <g id="arrowUp" transform="translate(30 24)">
    <use xlink:href="#rim"/>
    <path pointer-events="none" fill="none" stroke="white" stroke-width="1.5" d="M0,-3.0v7 M-2.5,-0.5L0,-3.0L2.5,-0.5"/>
  </g>
  <g id="arrowRight" transform="rotate(90) translate(36 -43)">
    <use xlink:href="#rim"/>
    <path pointer-events="none" fill="none" stroke="white" stroke-width="1.5" d="M0,-3.0v7 M-2.5,-0.5L0,-3.0L2.5,-0.5"/>
  </g>
  <g id="arrowDown" transform="rotate(180) translate(-30 -48)">
    <use xlink:href="#rim"/>
    <path pointer-events="none" fill="none" stroke="white" stroke-width="1.5" d="M0,-3.0v7 M-2.5,-0.5L0,-3.0L2.5,-0.5"/>
  </g>
  <g id="arrowLeft" transform="rotate(270) translate(-36 17)">
    <use xlink:href="#rim"/>
    <path pointer-events="none" fill="none" stroke="white" stroke-width="1.5" d="M0,-3.0v7 M-2.5,-0.5L0,-3.0L2.5,-0.5"/>
  </g>
  <g id="resetDef">
    <use xlink:href="#rim2" fill="#404040"><set attributeName="fill" to="#808080" begin="reset.mouseover" end="reset.mouseout"/></use>
  </g>
</defs>
<script type="application/ecmascript">
var viewWidth = 1336;
var viewHeight = 544;
var sectionId = 'dynsection-481';
</script>
<script type="application/ecmascript" xlink:href="svg.min.js"/>
<svg id="graph" class="graph">
<g id="viewport">
<title>text_draw</title>
<!-- Node1 -->
<g id="Node000001" class="node">
<title>Node1</title>
<g id="a_Node000001"><a xlink:title=" ">
<polygon fill="#999999" stroke="#666666" points="65,-416.5 0,-416.5 0,-397.5 65,-397.5 65,-416.5"/>
<text text-anchor="middle" x="32.5" y="-404.5" font-family="Helvetica,sans-Serif" font-size="10.00">text_draw</text>
</a>
</g>
</g>
<!-- Node2 -->
<g id="Node000002" class="node">
<title>Node2</title>
<g id="a_Node000002"><a xlink:href="menu__items_8c.html#afa1d2583978658f8524340b7b94544b1" target="_top" xlink:title=" ">
<polygon fill="white" stroke="#666666" points="171,-416.5 101,-416.5 101,-397.5 171,-397.5 171,-416.5"/>
<text text-anchor="middle" x="136" y="-404.5" font-family="Helvetica,sans-Serif" font-size="10.00">print_text2</text>
</a>
</g>
</g>
<!-- Node1&#45;&gt;Node2 -->
<g id="edge1_Node000001_Node000002" class="edge">
<title>Node1&#45;&gt;Node2</title>
<g id="a_edge1_Node000001_Node000002"><a xlink:title=" ">
<path fill="none" stroke="#63b8ff" d="M65.06,-407C73.26,-407 82.24,-407 90.95,-407"/>
<polygon fill="#63b8ff" stroke="#63b8ff" points="90.99,-410.5 100.99,-407 90.99,-403.5 90.99,-410.5"/>
</a>
</g>
</g>
<!-- Node3 -->
<g id="Node000003" class="node">
<title>Node3</title>
<g id="a_Node000003"><a xlink:href="menu__items_8c.html#ace62f40ce813c34904327e39643a0dbf" target="_top" xlink:title=" ">
<polygon fill="white" stroke="#666666" points="335,-521.5 218,-521.5 218,-502.5 335,-502.5 335,-521.5"/>
<text text-anchor="middle" x="276.5" y="-509.5" font-family="Helvetica,sans-Serif" font-size="10.00">char_to_glyph_index</text>
</a>
</g>
</g>
<!-- Node2&#45;&gt;Node3 -->
<g id="edge2_Node000002_Node000003" class="edge">
<title>Node2&#45;&gt;Node3</title>
<g id="a_edge2_Node000002_Node000003"><a xlink:title=" ">
<path fill="none" stroke="#63b8ff" d="M142.14,-416.64C152.16,-434.51 176.06,-472.77 207,-493 210.13,-495.05 213.47,-496.87 216.94,-498.5"/>
<polygon fill="#63b8ff" stroke="#63b8ff" points="215.77,-501.81 226.35,-502.39 218.44,-495.34 215.77,-501.81"/>
</a>
</g>
</g>
<!-- Node7 -->
<g id="Node000007" class="node">
<title>Node7</title>
<g id="a_Node000007"><a xlink:href="FrameInterpolation_8cpp.html#a14ceaeb116362786310778e36943f7be" target="_top" xlink:title=" ">
<polygon fill="white" stroke="#666666" points="346,-484 207,-484 207,-454 346,-454 346,-484"/>
<text text-anchor="start" x="215" y="-472" font-family="Helvetica,sans-Serif" font-size="10.00">FrameInterpolation</text>
<text text-anchor="middle" x="276.5" y="-461" font-family="Helvetica,sans-Serif" font-size="10.00">_ShouldInterpolateFrame</text>
</a>
</g>
</g>
<!-- Node2&#45;&gt;Node7 -->
<g id="edge7_Node000002_Node000007" class="edge">
<title>Node2&#45;&gt;Node7</title>
<g id="a_edge7_Node000002_Node000007"><a xlink:title=" ">
<path fill="none" stroke="#63b8ff" d="M156.82,-416.6C170.78,-423.3 189.95,-432.38 207,-440 214.38,-443.3 222.24,-446.72 229.91,-450"/>
<polygon fill="#63b8ff" stroke="#63b8ff" points="228.55,-453.22 239.12,-453.92 231.29,-446.78 228.55,-453.22"/>
</a>
</g>
</g>
<!-- Node8 -->
<g id="Node000008" class="node">
<title>Node8</title>
<g id="a_Node000008"><a xlink:href="GBIMiddleware_8cpp.html#a4ecc44e3c6f1ca5a6b4a20c41d3bd2d2" target="_top" xlink:title=" ">
<polygon fill="white" stroke="#666666" points="830.5,-336.5 741.5,-336.5 741.5,-317.5 830.5,-317.5 830.5,-336.5"/>
<text text-anchor="middle" x="786" y="-324.5" font-family="Helvetica,sans-Serif" font-size="10.00">gSPDisplayList</text>
</a>
</g>
</g>
<!-- Node2&#45;&gt;Node8 -->
<g id="edge8_Node000002_Node000008" class="edge">
<title>Node2&#45;&gt;Node8</title>
<g id="a_edge8_Node000002_Node000008"><a xlink:title=" ">
<path fill="none" stroke="#63b8ff" d="M171.26,-410.52C240.36,-416.84 401.2,-427.65 534,-407 615.64,-394.3 707.05,-359.69 753.78,-340.41"/>
<polygon fill="#63b8ff" stroke="#63b8ff" points="755.18,-343.62 763.06,-336.55 752.48,-337.16 755.18,-343.62"/>
</a>
</g>
</g>
<!-- Node11 -->
<g id="Node000011" class="node">
<title>Node11</title>
<g id="a_Node000011"><a xlink:href="menu__items_8c.html#a68e560d23390d5add7cb57ccd82e21ae" target="_top" xlink:title=" ">
<polygon fill="white" stroke="#666666" points="324,-397.5 229,-397.5 229,-378.5 324,-378.5 324,-397.5"/>
<text text-anchor="middle" x="276.5" y="-385.5" font-family="Helvetica,sans-Serif" font-size="10.00">load_menu_img</text>
</a>
</g>
</g>
<!-- Node2&#45;&gt;Node11 -->
<g id="edge11_Node000002_Node000011" class="edge">
<title>Node2&#45;&gt;Node11</title>
<g id="a_edge11_Node000002_Node000011"><a xlink:title=" ">
<path fill="none" stroke="#63b8ff" d="M171.24,-402.3C185.63,-400.33 202.77,-397.98 218.94,-395.76"/>
<polygon fill="#63b8ff" stroke="#63b8ff" points="219.43,-399.23 228.86,-394.4 218.48,-392.29 219.43,-399.23"/>
</a>
</g>
</g>
<!-- Node13 -->
<g id="Node000013" class="node">
<title>Node13</title>
<g id="a_Node000013"><a xlink:href="menu__items_8c.html#a2d2758c3a87de891a40840727bef3306" target="_top" xlink:title=" ">
<polygon fill="white" stroke="#666666" points="534,-360.5 382,-360.5 382,-341.5 534,-341.5 534,-360.5"/>
<text text-anchor="middle" x="458" y="-348.5" font-family="Helvetica,sans-Serif" font-size="10.00">segmented_to_virtual_dupe</text>
</a>
</g>
</g>
<!-- Node2&#45;&gt;Node13 -->
<g id="edge50_Node000002_Node000013" class="edge">
<title>Node2&#45;&gt;Node13</title>
<g id="a_edge50_Node000002_Node000013"><a xlink:title=" ">
<path fill="none" stroke="#63b8ff" d="M151.01,-397.37C164.64,-388.55 186.27,-375.99 207,-370 260.29,-354.61 322.48,-349.84 371.5,-348.92"/>
<polygon fill="#63b8ff" stroke="#63b8ff" points="371.8,-352.42 381.75,-348.78 371.7,-345.42 371.8,-352.42"/>
</a>
</g>
</g>
<!-- Node14 -->
<g id="Node000014" class="node">
<title>Node14</title>
<g id="a_Node000014"><a xlink:href="menu__items_8c.html#aafca6e35a19465ad361e68b13e467243" target="_top" xlink:title=" ">
<polygon fill="white" stroke="#666666" points="312,-321.5 241,-321.5 241,-302.5 312,-302.5 312,-321.5"/>
<text text-anchor="middle" x="276.5" y="-309.5" font-family="Helvetica,sans-Serif" font-size="10.00">print_letter</text>
</a>
</g>
</g>
<!-- Node2&#45;&gt;Node14 -->
<g id="edge14_Node000002_Node000014" class="edge">
<title>Node2&#45;&gt;Node14</title>
<g id="a_edge14_Node000002_Node000014"><a xlink:title=" ">
<path fill="none" stroke="#63b8ff" d="M144.11,-397.36C155.7,-382.27 180.1,-353.05 207,-336 214.5,-331.25 223.06,-327.29 231.54,-324.06"/>
<polygon fill="#63b8ff" stroke="#63b8ff" points="232.74,-327.34 241,-320.7 230.41,-320.74 232.74,-327.34"/>
</a>
</g>
</g>
<!-- Node4 -->
<g id="Node000004" class="node">
<title>Node4</title>
<g id="a_Node000004"><a xlink:href="menu__items_8c.html#ae8ba1b567dba01ff15c64d416653a70b" target="_top" xlink:title=" ">
<polygon fill="white" stroke="#666666" points="504,-484.5 412,-484.5 412,-465.5 504,-465.5 504,-484.5"/>
<text text-anchor="middle" x="458" y="-472.5" font-family="Helvetica,sans-Serif" font-size="10.00">func_80092DF8</text>
</a>
</g>
</g>
<!-- Node3&#45;&gt;Node4 -->
<g id="edge3_Node000003_Node000004" class="edge">
<title>Node3&#45;&gt;Node4</title>
<g id="a_edge3_Node000003_Node000004"><a xlink:title=" ">
<path fill="none" stroke="#63b8ff" d="M323.73,-502.47C347.55,-497.56 376.78,-491.53 401.79,-486.38"/>
<polygon fill="#63b8ff" stroke="#63b8ff" points="402.77,-489.75 411.86,-484.3 401.36,-482.9 402.77,-489.75"/>
</a>
</g>
</g>
<!-- Node5 -->
<g id="Node000005" class="node">
<title>Node5</title>
<g id="a_Node000005"><a xlink:href="menu__items_8c.html#acd5b29a8e8634aa4f3db4b9a7c5ba033" target="_top" xlink:title=" ">
<polygon fill="white" stroke="#666666" points="671,-522.5 579,-522.5 579,-503.5 671,-503.5 671,-522.5"/>
<text text-anchor="middle" x="625" y="-510.5" font-family="Helvetica,sans-Serif" font-size="10.00">func_80092E1C</text>
</a>
</g>
</g>
<!-- Node3&#45;&gt;Node5 -->
<g id="edge5_Node000003_Node000005" class="edge">
<title>Node3&#45;&gt;Node5</title>
<g id="a_edge5_Node000003_Node000005"><a xlink:title=" ">
<path fill="none" stroke="#63b8ff" d="M319.97,-521.51C338.86,-525.28 361.43,-529.15 382,-531 449.28,-537.07 466.77,-537.66 534,-531 547.39,-529.67 561.75,-527.26 574.97,-524.63"/>
<polygon fill="#63b8ff" stroke="#63b8ff" points="575.74,-528.04 584.82,-522.58 574.32,-521.19 575.74,-528.04"/>
</a>
</g>
</g>
<!-- Node6 -->
<g id="Node000006" class="node">
<title>Node6</title>
<g id="a_Node000006"><a xlink:href="menu__items_8c.html#ab26c8dca1828cd1d5a6c341cb851f0b9" target="_top" xlink:title=" ">
<polygon fill="white" stroke="#666666" points="503.5,-521.5 412.5,-521.5 412.5,-502.5 503.5,-502.5 503.5,-521.5"/>
<text text-anchor="middle" x="458" y="-509.5" font-family="Helvetica,sans-Serif" font-size="10.00">func_80092EE4</text>
</a>
</g>
</g>
<!-- Node3&#45;&gt;Node6 -->
<g id="edge6_Node000003_Node000006" class="edge">
<title>Node3&#45;&gt;Node6</title>
<g id="a_edge6_Node000003_Node000006"><a xlink:title=" ">
<path fill="none" stroke="#63b8ff" d="M335.28,-512C356.77,-512 381.08,-512 402.28,-512"/>
<polygon fill="#63b8ff" stroke="#63b8ff" points="402.42,-515.5 412.42,-512 402.42,-508.5 402.42,-515.5"/>
</a>
</g>
</g>
<!-- Node4&#45;&gt;Node5 -->
<g id="edge4_Node000004_Node000005" class="edge">
<title>Node4&#45;&gt;Node5</title>
<g id="a_edge4_Node000004_Node000005"><a xlink:title=" ">
<path fill="none" stroke="#63b8ff" d="M500.64,-484.59C522.51,-489.63 549.51,-495.84 572.66,-501.18"/>
<polygon fill="#63b8ff" stroke="#63b8ff" points="572.13,-504.65 582.66,-503.48 573.7,-497.82 572.13,-504.65"/>
</a>
</g>
</g>
<!-- Node9 -->
<g id="Node000009" class="node">
<title>Node9</title>
<g id="a_Node000009"><a xlink:href="Engine_8cpp.html#a223c8bc63f228dc11177515e38eff2db" target="_top" xlink:title=" ">
<polygon fill="white" stroke="#666666" points="1041,-299.5 892,-299.5 892,-280.5 1041,-280.5 1041,-299.5"/>
<text text-anchor="middle" x="966.5" y="-287.5" font-family="Helvetica,sans-Serif" font-size="10.00">GameEngine_OTRSigCheck</text>
</a>
</g>
</g>
<!-- Node8&#45;&gt;Node9 -->
<g id="edge9_Node000008_Node000009" class="edge">
<title>Node8&#45;&gt;Node9</title>
<g id="a_edge9_Node000008_Node000009"><a xlink:title=" ">
<path fill="none" stroke="#63b8ff" d="M830.67,-317.95C854.45,-313.02 884.13,-306.87 909.59,-301.59"/>
<polygon fill="#63b8ff" stroke="#63b8ff" points="910.4,-305 919.48,-299.54 908.98,-298.14 910.4,-305"/>
</a>
</g>
</g>
<!-- Node10 -->
<g id="Node000010" class="node">
<title>Node10</title>
<g id="a_Node000010"><a xlink:href="string_8c.html#a008e171a518fe0e0352f31b245e03875" target="_top" xlink:title=" ">
<polygon fill="white" stroke="#666666" points="1123.5,-299.5 1079.5,-299.5 1079.5,-280.5 1123.5,-280.5 1123.5,-299.5"/>
<text text-anchor="middle" x="1101.5" y="-287.5" font-family="Helvetica,sans-Serif" font-size="10.00">strlen</text>
</a>
</g>
</g>
<!-- Node9&#45;&gt;Node10 -->
<g id="edge10_Node000009_Node000010" class="edge">
<title>Node9&#45;&gt;Node10</title>
<g id="a_edge10_Node000009_Node000010"><a xlink:title=" ">
<path fill="none" stroke="#63b8ff" d="M1041,-290C1050.89,-290 1060.56,-290 1069.14,-290"/>
<polygon fill="#63b8ff" stroke="#63b8ff" points="1069.36,-293.5 1079.36,-290 1069.36,-286.5 1069.36,-293.5"/>
</a>
</g>
</g>
<!-- Node12 -->
<g id="Node000012" class="node">
<title>Node12</title>
<g id="a_Node000012"><a xlink:href="menu__items_8c.html#a248768ee2e4ca9ae9cf0a30bfb256859" target="_top" xlink:title=" ">
<polygon fill="white" stroke="#666666" points="497,-397.5 419,-397.5 419,-378.5 497,-378.5 497,-397.5"/>
<text text-anchor="middle" x="458" y="-385.5" font-family="Helvetica,sans-Serif" font-size="10.00">load_texture</text>
</a>
</g>
</g>
<!-- Node11&#45;&gt;Node12 -->
<g id="edge12_Node000011_Node000012" class="edge">
<title>Node11&#45;&gt;Node12</title>
<g id="a_edge12_Node000011_Node000012"><a xlink:title=" ">
<path fill="none" stroke="#63b8ff" d="M324.19,-388C350.24,-388 382.62,-388 408.89,-388"/>
<polygon fill="#63b8ff" stroke="#63b8ff" points="409,-391.5 419,-388 409,-384.5 409,-391.5"/>
</a>
</g>
</g>
<!-- Node11&#45;&gt;Node13 -->
<g id="edge13_Node000011_Node000013" class="edge">
<title>Node11&#45;&gt;Node13</title>
<g id="a_edge13_Node000011_Node000013"><a xlink:title=" ">
<path fill="none" stroke="#63b8ff" d="M323.73,-378.47C347.19,-373.64 375.89,-367.72 400.64,-362.62"/>
<polygon fill="#63b8ff" stroke="#63b8ff" points="401.53,-366.01 410.62,-360.56 400.12,-359.15 401.53,-366.01"/>
</a>
</g>
</g>
<!-- Node14&#45;&gt;Node8 -->
<g id="edge48_Node000014_Node000008" class="edge">
<title>Node14&#45;&gt;Node8</title>
<g id="a_edge48_Node000014_Node000008"><a xlink:title=" ">
<path fill="none" stroke="#63b8ff" d="M312.38,-313.03C399.51,-315.61 627.11,-322.33 731.4,-325.42"/>
<polygon fill="#63b8ff" stroke="#63b8ff" points="731.3,-328.91 741.39,-325.71 731.5,-321.92 731.3,-328.91"/>
</a>
</g>
</g>
<!-- Node14&#45;&gt;Node13 -->
<g id="edge49_Node000014_Node000013" class="edge">
<title>Node14&#45;&gt;Node13</title>
<g id="a_edge49_Node000014_Node000013"><a xlink:title=" ">
<path fill="none" stroke="#63b8ff" d="M312.11,-319.52C337.81,-325.1 373.36,-332.83 402.81,-339.23"/>
<polygon fill="#63b8ff" stroke="#63b8ff" points="402.43,-342.73 412.95,-341.43 403.92,-335.88 402.43,-342.73"/>
</a>
</g>
</g>
<!-- Node15 -->
<g id="Node000015" class="node">
<title>Node15</title>
<g id="a_Node000015"><a xlink:href="menu__items_8c.html#a37eb021a953285ba504198ac6ca73a9a" target="_top" xlink:title=" ">
<polygon fill="white" stroke="#666666" points="504.5,-179.5 411.5,-179.5 411.5,-160.5 504.5,-160.5 504.5,-179.5"/>
<text text-anchor="middle" x="458" y="-167.5" font-family="Helvetica,sans-Serif" font-size="10.00">func_80095BD0</text>
</a>
</g>
</g>
<!-- Node14&#45;&gt;Node15 -->
<g id="edge15_Node000014_Node000015" class="edge">
<title>Node14&#45;&gt;Node15</title>
<g id="a_edge15_Node000014_Node000015"><a xlink:title=" ">
<path fill="none" stroke="#63b8ff" d="M289.56,-302.46C319.68,-278.63 398.54,-216.25 436.28,-186.39"/>
<polygon fill="#63b8ff" stroke="#63b8ff" points="438.85,-188.82 444.52,-179.87 434.51,-183.33 438.85,-188.82"/>
</a>
</g>
</g>
<!-- Node16 -->
<g id="Node000016" class="node">
<title>Node16</title>
<g id="a_Node000016"><a xlink:href="Matrix_8cpp.html#a6f64c44efb9bdfff802175a9739ce1f1" target="_top" xlink:title=" ">
<polygon fill="white" stroke="#666666" points="668.5,-139.5 581.5,-139.5 581.5,-120.5 668.5,-120.5 668.5,-139.5"/>
<text text-anchor="middle" x="625" y="-127.5" font-family="Helvetica,sans-Serif" font-size="10.00">AddTextMatrix</text>
</a>
</g>
</g>
<!-- Node15&#45;&gt;Node16 -->
<g id="edge16_Node000015_Node000016" class="edge">
<title>Node15&#45;&gt;Node16</title>
<g id="a_edge16_Node000015_Node000016"><a xlink:title=" ">
<path fill="none" stroke="#63b8ff" d="M498.52,-160.42C521.48,-154.85 550.6,-147.79 575.01,-141.88"/>
<polygon fill="#63b8ff" stroke="#63b8ff" points="575.91,-145.26 584.8,-139.5 574.26,-138.46 575.91,-145.26"/>
</a>
</g>
</g>
<!-- Node20 -->
<g id="Node000020" class="node">
<title>Node20</title>
<g id="a_Node000020"><a xlink:href="FrameInterpolation_8cpp.html#a3a036bc9d533e28a4e9697cd20dccf3e" target="_top" xlink:title=" ">
<polygon fill="white" stroke="#666666" points="680,-94 570,-94 570,-64 680,-64 680,-94"/>
<text text-anchor="start" x="578" y="-82" font-family="Helvetica,sans-Serif" font-size="10.00">FrameInterpolation</text>
<text text-anchor="middle" x="625" y="-71" font-family="Helvetica,sans-Serif" font-size="10.00">_RecordCloseChild</text>
</a>
</g>
</g>
<!-- Node15&#45;&gt;Node20 -->
<g id="edge20_Node000015_Node000020" class="edge">
<title>Node15&#45;&gt;Node20</title>
<g id="a_edge20_Node000015_Node000020"><a xlink:title=" ">
<path fill="none" stroke="#63b8ff" d="M476.35,-160.43C502.63,-145.94 553.12,-118.09 587.68,-99.03"/>
<polygon fill="#63b8ff" stroke="#63b8ff" points="589.46,-102.04 596.53,-94.15 586.08,-95.92 589.46,-102.04"/>
</a>
</g>
</g>
<!-- Node21 -->
<g id="Node000021" class="node">
<title>Node21</title>
<g id="a_Node000021"><a xlink:href="FrameInterpolation_8cpp.html#a0eda726b74eac815af4e874014e2727c" target="_top" xlink:title=" ">
<polygon fill="white" stroke="#666666" points="680,-30 570,-30 570,0 680,0 680,-30"/>
<text text-anchor="start" x="578" y="-18" font-family="Helvetica,sans-Serif" font-size="10.00">FrameInterpolation</text>
<text text-anchor="middle" x="625" y="-7" font-family="Helvetica,sans-Serif" font-size="10.00">_RecordOpenChild</text>
</a>
</g>
</g>
<!-- Node15&#45;&gt;Node21 -->
<g id="edge22_Node000015_Node000021" class="edge">
<title>Node15&#45;&gt;Node21</title>
<g id="a_edge22_Node000015_Node000021"><a xlink:title=" ">
<path fill="none" stroke="#63b8ff" d="M467.42,-160.24C485.33,-139.72 528.91,-91.06 570,-55 577.34,-48.56 585.66,-42.05 593.52,-36.21"/>
<polygon fill="#63b8ff" stroke="#63b8ff" points="595.79,-38.89 601.81,-30.17 591.67,-33.23 595.79,-38.89"/>
</a>
</g>
</g>
<!-- Node22 -->
<g id="Node000022" class="node">
<title>Node22</title>
<g id="a_Node000022"><a xlink:href="menu__items_8c.html#ae0fd5923ba70cf6939cd3fa8d09c1191" target="_top" xlink:title=" ">
<polygon fill="white" stroke="#666666" points="670.5,-284.5 579.5,-284.5 579.5,-265.5 670.5,-265.5 670.5,-284.5"/>
<text text-anchor="middle" x="625" y="-272.5" font-family="Helvetica,sans-Serif" font-size="10.00">func_800959F8</text>
</a>
</g>
</g>
<!-- Node15&#45;&gt;Node22 -->
<g id="edge24_Node000015_Node000022" class="edge">
<title>Node15&#45;&gt;Node22</title>
<g id="a_edge24_Node000015_Node000022"><a xlink:title=" ">
<path fill="none" stroke="#63b8ff" d="M473.23,-179.67C494.22,-193.85 534.79,-221.01 570,-243 579.19,-248.74 589.39,-254.85 598.43,-260.18"/>
<polygon fill="#63b8ff" stroke="#63b8ff" points="596.94,-263.36 607.34,-265.4 600.48,-257.32 596.94,-263.36"/>
</a>
</g>
</g>
<!-- Node24 -->
<g id="Node000024" class="node">
<title>Node24</title>
<g id="a_Node000024"><a xlink:href="stubs_8c.html#a8b417b868747c80d58f83d8a1e78ecf3" target="_top" xlink:title=" ">
<polygon fill="white" stroke="#666666" points="659,-234.5 591,-234.5 591,-215.5 659,-215.5 659,-234.5"/>
<text text-anchor="middle" x="625" y="-222.5" font-family="Helvetica,sans-Serif" font-size="10.00">rmonPrintf</text>
</a>
</g>
</g>
<!-- Node15&#45;&gt;Node24 -->
<g id="edge28_Node000015_Node000024" class="edge">
<title>Node15&#45;&gt;Node24</title>
<g id="a_edge28_Node000015_Node000024"><a xlink:title=" ">
<path fill="none" stroke="#63b8ff" d="M487.74,-179.58C514.87,-188.62 555.73,-202.24 585.63,-212.21"/>
<polygon fill="#63b8ff" stroke="#63b8ff" points="584.72,-215.6 595.31,-215.44 586.93,-208.95 584.72,-215.6"/>
</a>
</g>
</g>
<!-- Node37 -->
<g id="Node000037" class="node">
<title>Node37</title>
<g id="a_Node000037"><a xlink:href="Matrix_8cpp.html#a9818099a1ee20606a7d622e744846366" target="_top" xlink:title=" ">
<polygon fill="white" stroke="#666666" points="667,-179.5 583,-179.5 583,-160.5 667,-160.5 667,-179.5"/>
<text text-anchor="middle" x="625" y="-167.5" font-family="Helvetica,sans-Serif" font-size="10.00">SetTextMatrix</text>
</a>
</g>
</g>
<!-- Node15&#45;&gt;Node37 -->
<g id="edge44_Node000015_Node000037" class="edge">
<title>Node15&#45;&gt;Node37</title>
<g id="a_edge44_Node000015_Node000037"><a xlink:title=" ">
<path fill="none" stroke="#63b8ff" d="M504.52,-170C525.69,-170 550.94,-170 572.77,-170"/>
<polygon fill="#63b8ff" stroke="#63b8ff" points="572.85,-173.5 582.85,-170 572.85,-166.5 572.85,-173.5"/>
</a>
</g>
</g>
<!-- Node17 -->
<g id="Node000017" class="node">
<title>Node17</title>
<g id="a_Node000017"><a xlink:href="FrameInterpolation_8cpp.html#a8cf1f2d6fabc6925aa71a9515341b4aa" target="_top" xlink:title=" ">
<polygon fill="white" stroke="#666666" points="856,-102 716,-102 716,-72 856,-72 856,-102"/>
<text text-anchor="start" x="724" y="-90" font-family="Helvetica,sans-Serif" font-size="10.00">FrameInterpolation</text>
<text text-anchor="middle" x="786" y="-79" font-family="Helvetica,sans-Serif" font-size="10.00">_RecordMatrixMtxFToMtx</text>
</a>
</g>
</g>
<!-- Node16&#45;&gt;Node17 -->
<g id="edge17_Node000016_Node000017" class="edge">
<title>Node16&#45;&gt;Node17</title>
<g id="a_edge17_Node000016_Node000017"><a xlink:title=" ">
<path fill="none" stroke="#63b8ff" d="M661.29,-120.46C678.51,-115.8 699.78,-110.05 719.81,-104.63"/>
<polygon fill="#63b8ff" stroke="#63b8ff" points="720.77,-108 729.51,-102.01 718.94,-101.24 720.77,-108"/>
</a>
</g>
</g>
<!-- Node19 -->
<g id="Node000019" class="node">
<title>Node19</title>
<g id="a_Node000019"><a xlink:href="guMtxF2L_8c.html#a40ab2d64c609839ff1e0ef0de2d0dcc4" target="_top" xlink:title=" ">
<polygon fill="white" stroke="#666666" points="818.5,-139.5 753.5,-139.5 753.5,-120.5 818.5,-120.5 818.5,-139.5"/>
<text text-anchor="middle" x="786" y="-127.5" font-family="Helvetica,sans-Serif" font-size="10.00">guMtxF2L</text>
</a>
</g>
</g>
<!-- Node16&#45;&gt;Node19 -->
<g id="edge19_Node000016_Node000019" class="edge">
<title>Node16&#45;&gt;Node19</title>
<g id="a_edge19_Node000016_Node000019"><a xlink:title=" ">
<path fill="none" stroke="#63b8ff" d="M668.61,-130C691.74,-130 720.23,-130 743.23,-130"/>
<polygon fill="#63b8ff" stroke="#63b8ff" points="743.38,-133.5 753.38,-130 743.38,-126.5 743.38,-133.5"/>
</a>
</g>
</g>
<!-- Node18 -->
<g id="Node000018" class="node">
<title>Node18</title>
<g id="a_Node000018"><a xlink:href="FrameInterpolation_8cpp.html#a02c7ac5342a4d376edee38f312b480bf" target="_top" xlink:title=" ">
<polygon fill="white" stroke="#666666" points="1020.5,-75.5 912.5,-75.5 912.5,-56.5 1020.5,-56.5 1020.5,-75.5"/>
<text text-anchor="middle" x="966.5" y="-63.5" font-family="Helvetica,sans-Serif" font-size="10.00">check_if_recording</text>
</a>
</g>
</g>
<!-- Node17&#45;&gt;Node18 -->
<g id="edge18_Node000017_Node000018" class="edge">
<title>Node17&#45;&gt;Node18</title>
<g id="a_edge18_Node000017_Node000018"><a xlink:title=" ">
<path fill="none" stroke="#63b8ff" d="M856.01,-78.88C871.24,-77.09 887.29,-75.2 902.27,-73.44"/>
<polygon fill="#63b8ff" stroke="#63b8ff" points="902.93,-76.89 912.45,-72.24 902.11,-69.93 902.93,-76.89"/>
</a>
</g>
</g>
<!-- Node20&#45;&gt;Node18 -->
<g id="edge21_Node000020_Node000018" class="edge">
<title>Node20&#45;&gt;Node18</title>
<g id="a_edge21_Node000020_Node000018"><a xlink:title=" ">
<path fill="none" stroke="#63b8ff" d="M680.05,-67.8C691.85,-65.8 704.3,-64.03 716,-63 779.18,-57.43 851.7,-59.21 902.22,-61.76"/>
<polygon fill="#63b8ff" stroke="#63b8ff" points="902.16,-65.26 912.33,-62.29 902.53,-58.27 902.16,-65.26"/>
</a>
</g>
</g>
<!-- Node21&#45;&gt;Node18 -->
<g id="edge23_Node000021_Node000018" class="edge">
<title>Node21&#45;&gt;Node18</title>
<g id="a_edge23_Node000021_Node000018"><a xlink:title=" ">
<path fill="none" stroke="#63b8ff" d="M680.17,-23.14C740.68,-32.23 838.5,-46.92 902.41,-56.52"/>
<polygon fill="#63b8ff" stroke="#63b8ff" points="901.95,-59.99 912.36,-58.02 902.99,-53.07 901.95,-59.99"/>
</a>
</g>
</g>
<!-- Node22&#45;&gt;Node8 -->
<g id="edge25_Node000022_Node000008" class="edge">
<title>Node22&#45;&gt;Node8</title>
<g id="a_edge25_Node000022_Node000008"><a xlink:title=" ">
<path fill="none" stroke="#63b8ff" d="M650.26,-284.51C668.27,-291.42 693.5,-300.79 716,-308 723.16,-310.29 730.79,-312.56 738.26,-314.69"/>
<polygon fill="#63b8ff" stroke="#63b8ff" points="737.38,-318.08 747.95,-317.4 739.26,-311.34 737.38,-318.08"/>
</a>
</g>
</g>
<!-- Node23 -->
<g id="Node000023" class="node">
<title>Node23</title>
<g id="a_Node000023"><a xlink:href="GBIMiddleware_8cpp.html#aeef79449a27a710d73576e4a4f7f7f99" target="_top" xlink:title=" ">
<polygon fill="white" stroke="#666666" points="819,-299.5 753,-299.5 753,-280.5 819,-280.5 819,-299.5"/>
<text text-anchor="middle" x="786" y="-287.5" font-family="Helvetica,sans-Serif" font-size="10.00">gSPVertex</text>
</a>
</g>
</g>
<!-- Node22&#45;&gt;Node23 -->
<g id="edge26_Node000022_Node000023" class="edge">
<title>Node22&#45;&gt;Node23</title>
<g id="a_edge26_Node000022_Node000023"><a xlink:title=" ">
<path fill="none" stroke="#63b8ff" d="M670.71,-279.22C693.23,-281.34 720.39,-283.9 742.58,-286"/>
<polygon fill="#63b8ff" stroke="#63b8ff" points="742.43,-289.5 752.71,-286.95 743.09,-282.53 742.43,-289.5"/>
</a>
</g>
</g>
<!-- Node23&#45;&gt;Node9 -->
<g id="edge27_Node000023_Node000009" class="edge">
<title>Node23&#45;&gt;Node9</title>
<g id="a_edge27_Node000023_Node000009"><a xlink:title=" ">
<path fill="none" stroke="#63b8ff" d="M819.33,-290C836.92,-290 859.59,-290 881.8,-290"/>
<polygon fill="#63b8ff" stroke="#63b8ff" points="881.95,-293.5 891.95,-290 881.95,-286.5 881.95,-293.5"/>
</a>
</g>
</g>
<!-- Node25 -->
<g id="Node000025" class="node">
<title>Node25</title>
<g id="a_Node000025"><a xlink:href="__Printf_8c.html#a39bb05c90efce6c6790c5d58d271d72d" target="_top" xlink:title=" ">
<polygon fill="white" stroke="#666666" points="810,-225.5 762,-225.5 762,-206.5 810,-206.5 810,-225.5"/>
<text text-anchor="middle" x="786" y="-213.5" font-family="Helvetica,sans-Serif" font-size="10.00">_Printf</text>
</a>
</g>
</g>
<!-- Node24&#45;&gt;Node25 -->
<g id="edge29_Node000024_Node000025" class="edge">
<title>Node24&#45;&gt;Node25</title>
<g id="a_edge29_Node000024_Node000025"><a xlink:title=" ">
<path fill="none" stroke="#63b8ff" d="M659.33,-223.11C686.5,-221.58 724.69,-219.41 751.82,-217.88"/>
<polygon fill="#63b8ff" stroke="#63b8ff" points="752.2,-221.36 761.99,-217.3 751.81,-214.37 752.2,-221.36"/>
</a>
</g>
</g>
<!-- Node36 -->
<g id="Node000036" class="node">
<title>Node36</title>
<g id="a_Node000036"><a xlink:href="is__debug_8c.html#aaccfac8d9098530b6592eefe679d86b4" target="_top" xlink:title=" ">
<polygon fill="white" stroke="#666666" points="838.5,-262.5 733.5,-262.5 733.5,-243.5 838.5,-243.5 838.5,-262.5"/>
<text text-anchor="middle" x="786" y="-250.5" font-family="Helvetica,sans-Serif" font-size="10.00">is_proutSyncPrintf</text>
</a>
</g>
</g>
<!-- Node24&#45;&gt;Node36 -->
<g id="edge43_Node000024_Node000036" class="edge">
<title>Node24&#45;&gt;Node36</title>
<g id="a_edge43_Node000024_Node000036"><a xlink:title=" ">
<path fill="none" stroke="#63b8ff" d="M659.33,-230.87C677.89,-234.14 701.58,-238.31 723.38,-242.15"/>
<polygon fill="#63b8ff" stroke="#63b8ff" points="722.79,-245.6 733.24,-243.89 724,-238.7 722.79,-245.6"/>
</a>
</g>
</g>
<!-- Node26 -->
<g id="Node000026" class="node">
<title>Node26</title>
<g id="a_Node000026"><a xlink:href="__Printf_8c.html#ad73a5847f2d7c9de14cc2723da86bf45" target="_top" xlink:title=" ">
<polygon fill="white" stroke="#666666" points="991.5,-262.5 941.5,-262.5 941.5,-243.5 991.5,-243.5 991.5,-262.5"/>
<text text-anchor="middle" x="966.5" y="-250.5" font-family="Helvetica,sans-Serif" font-size="10.00">_Putfld</text>
</a>
</g>
</g>
<!-- Node25&#45;&gt;Node26 -->
<g id="edge30_Node000025_Node000026" class="edge">
<title>Node25&#45;&gt;Node26</title>
<g id="a_edge30_Node000025_Node000026"><a xlink:title=" ">
<path fill="none" stroke="#63b8ff" d="M810.34,-220.84C841.21,-227.24 895.87,-238.57 931.39,-245.93"/>
<polygon fill="#63b8ff" stroke="#63b8ff" points="930.8,-249.38 941.3,-247.98 932.22,-242.53 930.8,-249.38"/>
</a>
</g>
</g>
<!-- Node35 -->
<g id="Node000035" class="node">
<title>Node35</title>
<g id="a_Node000035"><a xlink:href="string_8c.html#a988b4defe51a1815ef3b9ddab10e7a89" target="_top" xlink:title=" ">
<polygon fill="white" stroke="#666666" points="988.5,-225.5 944.5,-225.5 944.5,-206.5 988.5,-206.5 988.5,-225.5"/>
<text text-anchor="middle" x="966.5" y="-213.5" font-family="Helvetica,sans-Serif" font-size="10.00">strchr</text>
</a>
</g>
</g>
<!-- Node25&#45;&gt;Node35 -->
<g id="edge42_Node000025_Node000035" class="edge">
<title>Node25&#45;&gt;Node35</title>
<g id="a_edge42_Node000025_Node000035"><a xlink:title=" ">
<path fill="none" stroke="#63b8ff" d="M810.34,-216C842.02,-216 898.76,-216 934.14,-216"/>
<polygon fill="#63b8ff" stroke="#63b8ff" points="934.38,-219.5 944.38,-216 934.38,-212.5 934.38,-219.5"/>
</a>
</g>
</g>
<!-- Node26&#45;&gt;Node10 -->
<g id="edge41_Node000026_Node000010" class="edge">
<title>Node26&#45;&gt;Node10</title>
<g id="a_edge41_Node000026_Node000010"><a xlink:title=" ">
<path fill="none" stroke="#63b8ff" d="M991.78,-258.5C1006.15,-261.87 1024.69,-266.4 1041,-271 1050.43,-273.66 1060.61,-276.8 1069.84,-279.76"/>
<polygon fill="#63b8ff" stroke="#63b8ff" points="1068.81,-283.11 1079.4,-282.87 1070.97,-276.45 1068.81,-283.11"/>
</a>
</g>
</g>
<!-- Node27 -->
<g id="Node000027" class="node">
<title>Node27</title>
<g id="a_Node000027"><a xlink:href="__Ldtob_8c.html#a7cc858157b66e15c831ad085113729ae" target="_top" xlink:title=" ">
<polygon fill="white" stroke="#666666" points="1126,-167.5 1077,-167.5 1077,-148.5 1126,-148.5 1126,-167.5"/>
<text text-anchor="middle" x="1101.5" y="-155.5" font-family="Helvetica,sans-Serif" font-size="10.00">_Ldtob</text>
</a>
</g>
</g>
<!-- Node26&#45;&gt;Node27 -->
<g id="edge31_Node000026_Node000027" class="edge">
<title>Node26&#45;&gt;Node27</title>
<g id="a_edge31_Node000026_Node000027"><a xlink:title=" ">
<path fill="none" stroke="#63b8ff" d="M991.6,-250.76C1006.78,-248.43 1026.22,-243.68 1041,-234 1063.03,-219.57 1080.44,-194.22 1090.59,-176.79"/>
<polygon fill="#63b8ff" stroke="#63b8ff" points="1093.91,-178.03 1095.71,-167.59 1087.79,-174.62 1093.91,-178.03"/>
</a>
</g>
</g>
<!-- Node33 -->
<g id="Node000033" class="node">
<title>Node33</title>
<g id="a_Node000033"><a xlink:href="__Litob_8c.html#aaaba3b0ab7920d422a61fe9e22600dd0" target="_top" xlink:title=" ">
<polygon fill="white" stroke="#666666" points="1124.5,-262.5 1078.5,-262.5 1078.5,-243.5 1124.5,-243.5 1124.5,-262.5"/>
<text text-anchor="middle" x="1101.5" y="-250.5" font-family="Helvetica,sans-Serif" font-size="10.00">_Litob</text>
</a>
</g>
</g>
<!-- Node26&#45;&gt;Node33 -->
<g id="edge38_Node000026_Node000033" class="edge">
<title>Node26&#45;&gt;Node33</title>
<g id="a_edge38_Node000026_Node000033"><a xlink:title=" ">
<path fill="none" stroke="#63b8ff" d="M991.59,-253C1013.01,-253 1044.51,-253 1068.13,-253"/>
<polygon fill="#63b8ff" stroke="#63b8ff" points="1068.36,-256.5 1078.36,-253 1068.36,-249.5 1068.36,-256.5"/>
</a>
</g>
</g>
<!-- Node28 -->
<g id="Node000028" class="node">
<title>Node28</title>
<g id="a_Node000028"><a xlink:href="__Ldtob_8c.html#a2b6c5318b43bab1636bad9113ffb2761" target="_top" xlink:title=" ">
<polygon fill="white" stroke="#666666" points="1222.5,-224.5 1172.5,-224.5 1172.5,-205.5 1222.5,-205.5 1222.5,-224.5"/>
<text text-anchor="middle" x="1197.5" y="-212.5" font-family="Helvetica,sans-Serif" font-size="10.00">_Genld</text>
</a>
</g>
</g>
<!-- Node27&#45;&gt;Node28 -->
<g id="edge32_Node000027_Node000028" class="edge">
<title>Node27&#45;&gt;Node28</title>
<g id="a_edge32_Node000027_Node000028"><a xlink:title=" ">
<path fill="none" stroke="#63b8ff" d="M1118.45,-167.67C1133.12,-176.57 1155.1,-189.9 1172,-200.14"/>
<polygon fill="#63b8ff" stroke="#63b8ff" points="1170.42,-203.28 1180.79,-205.47 1174.05,-197.3 1170.42,-203.28"/>
</a>
</g>
</g>
<!-- Node29 -->
<g id="Node000029" class="node">
<title>Node29</title>
<g id="a_Node000029"><a xlink:href="string_8c.html#ad7f1ae1bbb49dece44bda378982a704d" target="_top" xlink:title=" ">
<polygon fill="white" stroke="#666666" points="1328,-224.5 1269,-224.5 1269,-205.5 1328,-205.5 1328,-224.5"/>
<text text-anchor="middle" x="1298.5" y="-212.5" font-family="Helvetica,sans-Serif" font-size="10.00">memcpy</text>
</a>
</g>
</g>
<!-- Node27&#45;&gt;Node29 -->
<g id="edge36_Node000027_Node000029" class="edge">
<title>Node27&#45;&gt;Node29</title>
<g id="a_edge36_Node000027_Node000029"><a xlink:title=" ">
<path fill="none" stroke="#63b8ff" d="M1126.08,-164.84C1152.22,-172.43 1195.63,-185.06 1233,-196 1241.45,-198.48 1250.53,-201.14 1259.13,-203.67"/>
<polygon fill="#63b8ff" stroke="#63b8ff" points="1258.35,-207.09 1268.93,-206.56 1260.33,-200.38 1258.35,-207.09"/>
</a>
</g>
</g>
<!-- Node30 -->
<g id="Node000030" class="node">
<title>Node30</title>
<g id="a_Node000030"><a xlink:href="__Ldtob_8c.html#ab7ade9ce60aaa8baa0244b503351d742" target="_top" xlink:title=" ">
<polygon fill="white" stroke="#666666" points="1233,-148.5 1162,-148.5 1162,-129.5 1233,-129.5 1233,-148.5"/>
<text text-anchor="middle" x="1197.5" y="-136.5" font-family="Helvetica,sans-Serif" font-size="10.00">_Ldunscale</text>
</a>
</g>
</g>
<!-- Node27&#45;&gt;Node30 -->
<g id="edge34_Node000027_Node000030" class="edge">
<title>Node27&#45;&gt;Node30</title>
<g id="a_edge34_Node000027_Node000030"><a xlink:title=" ">
<path fill="none" stroke="#63b8ff" d="M1126.22,-153.21C1134.04,-151.62 1143.02,-149.81 1151.88,-148.02"/>
<polygon fill="#63b8ff" stroke="#63b8ff" points="1152.66,-151.43 1161.77,-146.02 1151.28,-144.57 1152.66,-151.43"/>
</a>
</g>
</g>
<!-- Node31 -->
<g id="Node000031" class="node">
<title>Node31</title>
<g id="a_Node000031"><a xlink:href="ldiv_8c.html#a0302920caf64a5fbe1ce0862799d7784" target="_top" xlink:title=" ">
<polygon fill="white" stroke="#666666" points="1215,-111.5 1180,-111.5 1180,-92.5 1215,-92.5 1215,-111.5"/>
<text text-anchor="middle" x="1197.5" y="-99.5" font-family="Helvetica,sans-Serif" font-size="10.00">ldiv</text>
</a>
</g>
</g>
<!-- Node27&#45;&gt;Node31 -->
<g id="edge35_Node000027_Node000031" class="edge">
<title>Node27&#45;&gt;Node31</title>
<g id="a_edge35_Node000027_Node000031"><a xlink:title=" ">
<path fill="none" stroke="#63b8ff" d="M1116.95,-148.27C1128.87,-140.37 1146.3,-129.09 1162,-120 1164.87,-118.34 1167.9,-116.66 1170.93,-115.02"/>
<polygon fill="#63b8ff" stroke="#63b8ff" points="1172.63,-118.08 1179.84,-110.32 1169.37,-111.89 1172.63,-118.08"/>
</a>
</g>
</g>
<!-- Node32 -->
<g id="Node000032" class="node">
<title>Node32</title>
<g id="a_Node000032"><a xlink:href="alBnkfNew_8c.html#a96a0200a6b40350e524f536d232ecb53" target="_top" xlink:title=" ">
<polygon fill="white" stroke="#666666" points="1223.5,-74.5 1171.5,-74.5 1171.5,-55.5 1223.5,-55.5 1223.5,-74.5"/>
<text text-anchor="middle" x="1197.5" y="-62.5" font-family="Helvetica,sans-Serif" font-size="10.00">unused</text>
</a>
</g>
</g>
<!-- Node27&#45;&gt;Node32 -->
<g id="edge37_Node000027_Node000032" class="edge">
<title>Node27&#45;&gt;Node32</title>
<g id="a_edge37_Node000027_Node000032"><a xlink:title=" ">
<path fill="none" stroke="#63b8ff" d="M1108.38,-148.16C1118,-132.7 1138.42,-102.48 1162,-83 1163.32,-81.91 1164.73,-80.85 1166.18,-79.84"/>
<polygon fill="#63b8ff" stroke="#63b8ff" points="1168.13,-82.74 1174.83,-74.53 1164.47,-76.78 1168.13,-82.74"/>
</a>
</g>
</g>
<!-- Node28&#45;&gt;Node29 -->
<g id="edge33_Node000028_Node000029" class="edge">
<title>Node28&#45;&gt;Node29</title>
<g id="a_edge33_Node000028_Node000029"><a xlink:title=" ">
<path fill="none" stroke="#63b8ff" d="M1222.72,-215C1233.52,-215 1246.52,-215 1258.63,-215"/>
<polygon fill="#63b8ff" stroke="#63b8ff" points="1258.96,-218.5 1268.96,-215 1258.96,-211.5 1258.96,-218.5"/>
</a>
</g>
</g>
<!-- Node33&#45;&gt;Node29 -->
<g id="edge40_Node000033_Node000029" class="edge">
<title>Node33&#45;&gt;Node29</title>
<g id="a_edge40_Node000033_Node000029"><a xlink:title=" ">
<path fill="none" stroke="#63b8ff" d="M1124.82,-250.41C1150.92,-247.19 1195.36,-241.11 1233,-233 1241.5,-231.17 1250.53,-228.87 1259.06,-226.54"/>
<polygon fill="#63b8ff" stroke="#63b8ff" points="1260.11,-229.88 1268.79,-223.81 1258.21,-223.14 1260.11,-229.88"/>
</a>
</g>
</g>
<!-- Node34 -->
<g id="Node000034" class="node">
<title>Node34</title>
<g id="a_Node000034"><a xlink:href="ldiv_8c.html#a5b23c3639f11980dca762c5f1d74f339" target="_top" xlink:title=" ">
<polygon fill="white" stroke="#666666" points="1216.5,-300.5 1178.5,-300.5 1178.5,-281.5 1216.5,-281.5 1216.5,-300.5"/>
<text text-anchor="middle" x="1197.5" y="-288.5" font-family="Helvetica,sans-Serif" font-size="10.00">lldiv</text>
</a>
</g>
</g>
<!-- Node33&#45;&gt;Node34 -->
<g id="edge39_Node000033_Node000034" class="edge">
<title>Node33&#45;&gt;Node34</title>
<g id="a_edge39_Node000033_Node000034"><a xlink:title=" ">
<path fill="none" stroke="#63b8ff" d="M1124.78,-262.01C1137.97,-267.34 1154.8,-274.14 1168.84,-279.82"/>
<polygon fill="#63b8ff" stroke="#63b8ff" points="1167.89,-283.21 1178.47,-283.71 1170.52,-276.72 1167.89,-283.21"/>
</a>
</g>
</g>
<!-- Node37&#45;&gt;Node37 -->
<g id="edge47_Node000037_Node000037" class="edge">
<title>Node37&#45;&gt;Node37</title>
<g id="a_edge47_Node000037_Node000037"><a xlink:title=" ">
<path fill="none" stroke="#63b8ff" d="M600.34,-179.58C588.34,-188.23 596.56,-197.5 625,-197.5 643.66,-197.5 653.62,-193.51 654.87,-188.32"/>
<polygon fill="#63b8ff" stroke="#63b8ff" points="657.79,-186.38 649.66,-179.58 651.77,-189.97 657.79,-186.38"/>
</a>
</g>
</g>
<!-- Node38 -->
<g id="Node000038" class="node">
<title>Node38</title>
<g id="a_Node000038"><a xlink:href="FrameInterpolation_8cpp.html#a5fbd67ef553452903cf553b9c224fa76" target="_top" xlink:title=" ">
<polygon fill="white" stroke="#666666" points="850,-188 722,-188 722,-158 850,-158 850,-188"/>
<text text-anchor="start" x="730" y="-176" font-family="Helvetica,sans-Serif" font-size="10.00">FrameInterpolation</text>
<text text-anchor="middle" x="786" y="-165" font-family="Helvetica,sans-Serif" font-size="10.00">_Record_SetTextMatrix</text>
</a>
</g>
</g>
<!-- Node37&#45;&gt;Node38 -->
<g id="edge45_Node000037_Node000038" class="edge">
<title>Node37&#45;&gt;Node38</title>
<g id="a_edge45_Node000037_Node000038"><a xlink:title=" ">
<path fill="none" stroke="#63b8ff" d="M667.36,-170.78C680.89,-171.04 696.36,-171.33 711.53,-171.61"/>
<polygon fill="#63b8ff" stroke="#63b8ff" points="711.89,-175.12 721.95,-171.81 712.02,-168.12 711.89,-175.12"/>
</a>
</g>
</g>
<!-- Node38&#45;&gt;Node18 -->
<g id="edge46_Node000038_Node000018" class="edge">
<title>Node38&#45;&gt;Node18</title>
<g id="a_edge46_Node000038_Node000018"><a xlink:title=" ">
<path fill="none" stroke="#63b8ff" d="M834.58,-157.86C841.91,-154.94 849.27,-151.63 856,-148 890.71,-129.25 926.48,-100.31 947.32,-82.3"/>
<polygon fill="#63b8ff" stroke="#63b8ff" points="949.83,-84.75 955.04,-75.53 945.21,-79.49 949.83,-84.75"/>
</a>
</g>
</g>
</g>
</svg>

<g id="navigator" transform="translate(0 0)" fill="#404254">
  <rect fill="#f2f5e9" fill-opacity="0.5" stroke="#606060" stroke-width=".5" x="0" y="0" width="60" height="60"/>
  <use id="zoomplus" xlink:href="#zoomPlus" x="17" y="9" onmousedown="handleZoom(evt,'in')"/>
  <use id="zoomminus" xlink:href="#zoomMin" x="42" y="9" onmousedown="handleZoom(evt,'out')"/>
  <use id="reset" xlink:href="#resetDef" x="30" y="36" onmousedown="handleReset()"/>
   <use id="arrowup" xlink:href="#arrowUp" x="0" y="0" onmousedown="handlePan(0,-1)"/>
  <use id="arrowright" xlink:href="#arrowRight" x="0" y="0" onmousedown="handlePan(1,0)"/>
  <use id="arrowdown" xlink:href="#arrowDown" x="0" y="0" onmousedown="handlePan(0,1)"/>
  <use id="arrowleft" xlink:href="#arrowLeft" x="0" y="0" onmousedown="handlePan(-1,0)"/>
</g>
<svg viewBox="0 0 15 15" width="100%" height="30px" preserveAspectRatio="xMaxYMin meet">
 <g id="arrow_out" transform="scale(0.3 0.3)">
  <a xlink:href="menu__items_8c_a24be09f5258f7b9e60f78e51ad9b5c73_cgraph_org.svg" target="_base">
   <rect id="button" ry="5" rx="5" y="6" x="6" height="38" width="38"
        fill="#f2f5e9" fill-opacity="0.5" stroke="#606060" stroke-width="1.0"/>
   <path id="arrow"
     d="M 11.500037,31.436501 C 11.940474,20.09759 22.043105,11.32322 32.158766,21.979434 L 37.068811,17.246167 C 37.068811,17.246167 37.088388,32 37.088388,32 L 22.160133,31.978069 C 22.160133,31.978069 26.997745,27.140456 26.997745,27.140456 C 18.528582,18.264221 13.291696,25.230495 11.500037,31.436501 z"
     style="fill:#404040;"/>
  </a>
 </g>
</svg>

<style type='text/css'>
<![CDATA[
[data-mouse-over-selected='false'] { opacity: 0.7; }
[data-mouse-over-selected='true']  { opacity: 1.0; }
]]>
</style>
<script type="application/ecmascript"><![CDATA[
document.addEventListener('DOMContentLoaded', (event) => {
  highlightEdges();
  highlightAdjacentNodes();
});
]]></script>
</svg>
