<?xml version="1.0" encoding="UTF-8" standalone="no"?>
<!DOCTYPE svg PUBLIC "-//W3C//DTD SVG 1.1//EN"
 "http://www.w3.org/Graphics/SVG/1.1/DTD/svg11.dtd">
<!-- Generated by graphviz version 2.43.0 (0)
 -->
<!-- Title: src/port/ui/Menu.h Pages: 1 -->
<svg width="1693pt" height="137pt"
 viewBox="0.00 0.00 1693.00 137.00" xmlns="http://www.w3.org/2000/svg" xmlns:xlink="http://www.w3.org/1999/xlink">
<g id="graph0" class="graph" transform="scale(1 1) rotate(0) translate(4 133)">
<title>src/port/ui/Menu.h</title>
<!-- Node1 -->
<g id="Node000001" class="node">
<title>Node1</title>
<g id="a_Node000001"><a xlink:title=" ">
<polygon fill="#999999" stroke="#666666" points="845,-129 741,-129 741,-110 845,-110 845,-129"/>
<text text-anchor="middle" x="793" y="-117" font-family="Helvetica,sans-Serif" font-size="10.00">src/port/ui/Menu.h</text>
</a>
</g>
</g>
<!-- Node2 -->
<g id="Node000002" class="node">
<title>Node2</title>
<g id="a_Node000002"><a xlink:href="Menu_8cpp.html" target="_top" xlink:title=" ">
<polygon fill="white" stroke="#666666" points="782,-74 666,-74 666,-55 782,-55 782,-74"/>
<text text-anchor="middle" x="724" y="-62" font-family="Helvetica,sans-Serif" font-size="10.00">src/port/ui/Menu.cpp</text>
</a>
</g>
</g>
<!-- Node1&#45;&gt;Node2 -->
<g id="edge1_Node000001_Node000002" class="edge">
<title>Node1&#45;&gt;Node2</title>
<g id="a_edge1_Node000001_Node000002"><a xlink:title=" ">
<path fill="none" stroke="#63b8ff" d="M773.96,-103.88C761.54,-94.34 745.76,-82.21 735.29,-74.17"/>
<polygon fill="#63b8ff" stroke="#63b8ff" points="771.85,-106.67 781.91,-109.98 776.12,-101.12 771.85,-106.67"/>
</a>
</g>
</g>
<!-- Node3 -->
<g id="Node000003" class="node">
<title>Node3</title>
<g id="a_Node000003"><a xlink:href="PortMenu_8h.html" target="_top" xlink:title=" ">
<polygon fill="white" stroke="#666666" points="924,-74 800,-74 800,-55 924,-55 924,-74"/>
<text text-anchor="middle" x="862" y="-62" font-family="Helvetica,sans-Serif" font-size="10.00">src/port/ui/PortMenu.h</text>
</a>
</g>
</g>
<!-- Node1&#45;&gt;Node3 -->
<g id="edge2_Node000001_Node000003" class="edge">
<title>Node1&#45;&gt;Node3</title>
<g id="a_edge2_Node000001_Node000003"><a xlink:title=" ">
<path fill="none" stroke="#63b8ff" d="M812.04,-103.88C824.46,-94.34 840.24,-82.21 850.71,-74.17"/>
<polygon fill="#63b8ff" stroke="#63b8ff" points="809.88,-101.12 804.09,-109.98 814.15,-106.67 809.88,-101.12"/>
</a>
</g>
</g>
<!-- Node4 -->
<g id="Node000004" class="node">
<title>Node4</title>
<g id="a_Node000004"><a xlink:href="ContentBrowser_8cpp.html" target="_top" xlink:title=" ">
<polygon fill="white" stroke="#666666" points="166,-19 0,-19 0,0 166,0 166,-19"/>
<text text-anchor="middle" x="83" y="-7" font-family="Helvetica,sans-Serif" font-size="10.00">src/port/ui/ContentBrowser.cpp</text>
</a>
</g>
</g>
<!-- Node3&#45;&gt;Node4 -->
<g id="edge3_Node000003_Node000004" class="edge">
<title>Node3&#45;&gt;Node4</title>
<g id="a_edge3_Node000003_Node000004"><a xlink:title=" ">
<path fill="none" stroke="#63b8ff" d="M789.46,-54.92C516.11,-30.9 445.13,-39.37 175,-19 172.12,-18.78 169.19,-18.55 166.23,-18.32"/>
<polygon fill="#63b8ff" stroke="#63b8ff" points="789.41,-58.43 799.68,-55.82 790.03,-51.45 789.41,-58.43"/>
</a>
</g>
</g>
<!-- Node5 -->
<g id="Node000005" class="node">
<title>Node5</title>
<g id="a_Node000005"><a xlink:href="FreecamWindow_8cpp.html" target="_top" xlink:title=" ">
<polygon fill="white" stroke="#666666" points="353.5,-19 184.5,-19 184.5,0 353.5,0 353.5,-19"/>
<text text-anchor="middle" x="269" y="-7" font-family="Helvetica,sans-Serif" font-size="10.00">src/port/ui/FreecamWindow.cpp</text>
</a>
</g>
</g>
<!-- Node3&#45;&gt;Node5 -->
<g id="edge4_Node000003_Node000005" class="edge">
<title>Node3&#45;&gt;Node5</title>
<g id="a_edge4_Node000003_Node000005"><a xlink:title=" ">
<path fill="none" stroke="#63b8ff" d="M789.6,-54.89C598.96,-35.62 549.35,-35.42 362,-19 359.25,-18.76 356.46,-18.51 353.64,-18.26"/>
<polygon fill="#63b8ff" stroke="#63b8ff" points="789.37,-58.38 799.68,-55.91 790.08,-51.42 789.37,-58.38"/>
</a>
</g>
</g>
<!-- Node6 -->
<g id="Node000006" class="node">
<title>Node6</title>
<g id="a_Node000006"><a xlink:href="ImguiUI_8cpp.html" target="_top" xlink:title=" ">
<polygon fill="white" stroke="#666666" points="498.5,-19 371.5,-19 371.5,0 498.5,0 498.5,-19"/>
<text text-anchor="middle" x="435" y="-7" font-family="Helvetica,sans-Serif" font-size="10.00">src/port/ui/ImguiUI.cpp</text>
</a>
</g>
</g>
<!-- Node3&#45;&gt;Node6 -->
<g id="edge5_Node000003_Node000006" class="edge">
<title>Node3&#45;&gt;Node6</title>
<g id="a_edge5_Node000003_Node000006"><a xlink:title=" ">
<path fill="none" stroke="#63b8ff" d="M789.72,-54.53C708.06,-44.39 576.43,-28.06 498.56,-18.39"/>
<polygon fill="#63b8ff" stroke="#63b8ff" points="789.56,-58.03 799.91,-55.79 790.42,-51.09 789.56,-58.03"/>
</a>
</g>
</g>
<!-- Node7 -->
<g id="Node000007" class="node">
<title>Node7</title>
<g id="a_Node000007"><a xlink:href="MultiplayerWindow_8cpp.html" target="_top" xlink:title=" ">
<polygon fill="white" stroke="#666666" points="699,-19 517,-19 517,0 699,0 699,-19"/>
<text text-anchor="middle" x="608" y="-7" font-family="Helvetica,sans-Serif" font-size="10.00">src/port/ui/MultiplayerWindow.cpp</text>
</a>
</g>
</g>
<!-- Node3&#45;&gt;Node7 -->
<g id="edge6_Node000003_Node000007" class="edge">
<title>Node3&#45;&gt;Node7</title>
<g id="a_edge6_Node000003_Node000007"><a xlink:title=" ">
<path fill="none" stroke="#63b8ff" d="M811.39,-52.94C763.78,-43.01 693.38,-28.31 649.13,-19.08"/>
<polygon fill="#63b8ff" stroke="#63b8ff" points="810.69,-56.37 821.19,-54.98 812.12,-49.52 810.69,-56.37"/>
</a>
</g>
</g>
<!-- Node8 -->
<g id="Node000008" class="node">
<title>Node8</title>
<g id="a_Node000008"><a xlink:href="PortMenu_8cpp.html" target="_top" xlink:title=" ">
<polygon fill="white" stroke="#666666" points="852.5,-19 717.5,-19 717.5,0 852.5,0 852.5,-19"/>
<text text-anchor="middle" x="785" y="-7" font-family="Helvetica,sans-Serif" font-size="10.00">src/port/ui/PortMenu.cpp</text>
</a>
</g>
</g>
<!-- Node3&#45;&gt;Node8 -->
<g id="edge7_Node000003_Node000008" class="edge">
<title>Node3&#45;&gt;Node8</title>
<g id="a_edge7_Node000003_Node000008"><a xlink:title=" ">
<path fill="none" stroke="#63b8ff" d="M841.15,-49.15C827.24,-39.57 809.39,-27.29 797.6,-19.17"/>
<polygon fill="#63b8ff" stroke="#63b8ff" points="839.41,-52.2 849.63,-54.98 843.38,-46.43 839.41,-52.2"/>
</a>
</g>
</g>
<!-- Node9 -->
<g id="Node000009" class="node">
<title>Node9</title>
<g id="a_Node000009"><a xlink:href="Properties_8cpp.html" target="_top" xlink:title=" ">
<polygon fill="white" stroke="#666666" points="1009,-19 871,-19 871,0 1009,0 1009,-19"/>
<text text-anchor="middle" x="940" y="-7" font-family="Helvetica,sans-Serif" font-size="10.00">src/port/ui/Properties.cpp</text>
</a>
</g>
</g>
<!-- Node3&#45;&gt;Node9 -->
<g id="edge8_Node000003_Node000009" class="edge">
<title>Node3&#45;&gt;Node9</title>
<g id="a_edge8_Node000003_Node000009"><a xlink:title=" ">
<path fill="none" stroke="#63b8ff" d="M883.12,-49.15C897.21,-39.57 915.29,-27.29 927.24,-19.17"/>
<polygon fill="#63b8ff" stroke="#63b8ff" points="880.84,-46.47 874.53,-54.98 884.77,-52.26 880.84,-46.47"/>
</a>
</g>
</g>
<!-- Node10 -->
<g id="Node000010" class="node">
<title>Node10</title>
<g id="a_Node000010"><a xlink:href="ResolutionEditor_8cpp.html" target="_top" xlink:title=" ">
<polygon fill="white" stroke="#666666" points="1195,-19 1027,-19 1027,0 1195,0 1195,-19"/>
<text text-anchor="middle" x="1111" y="-7" font-family="Helvetica,sans-Serif" font-size="10.00">src/port/ui/ResolutionEditor.cpp</text>
</a>
</g>
</g>
<!-- Node3&#45;&gt;Node10 -->
<g id="edge9_Node000003_Node000010" class="edge">
<title>Node3&#45;&gt;Node10</title>
<g id="a_edge9_Node000003_Node000010"><a xlink:title=" ">
<path fill="none" stroke="#63b8ff" d="M911.9,-52.88C958.57,-42.94 1027.39,-28.3 1070.68,-19.08"/>
<polygon fill="#63b8ff" stroke="#63b8ff" points="911.06,-49.48 902.01,-54.98 912.52,-56.33 911.06,-49.48"/>
</a>
</g>
</g>
<!-- Node11 -->
<g id="Node000011" class="node">
<title>Node11</title>
<g id="a_Node000011"><a xlink:href="SceneExplorer_8cpp.html" target="_top" xlink:title=" ">
<polygon fill="white" stroke="#666666" points="1371,-19 1213,-19 1213,0 1371,0 1371,-19"/>
<text text-anchor="middle" x="1292" y="-7" font-family="Helvetica,sans-Serif" font-size="10.00">src/port/ui/SceneExplorer.cpp</text>
</a>
</g>
</g>
<!-- Node3&#45;&gt;Node11 -->
<g id="edge10_Node000003_Node000011" class="edge">
<title>Node3&#45;&gt;Node11</title>
<g id="a_edge10_Node000003_Node000011"><a xlink:title=" ">
<path fill="none" stroke="#63b8ff" d="M934.11,-54.61C1014.51,-44.7 1143.64,-28.79 1222.83,-19.03"/>
<polygon fill="#63b8ff" stroke="#63b8ff" points="933.56,-51.15 924.07,-55.85 934.42,-58.1 933.56,-51.15"/>
</a>
</g>
</g>
<!-- Node12 -->
<g id="Node000012" class="node">
<title>Node12</title>
<g id="a_Node000012"><a xlink:href="Tools_8cpp.html" target="_top" xlink:title=" ">
<polygon fill="white" stroke="#666666" points="1502.5,-19 1389.5,-19 1389.5,0 1502.5,0 1502.5,-19"/>
<text text-anchor="middle" x="1446" y="-7" font-family="Helvetica,sans-Serif" font-size="10.00">src/port/ui/Tools.cpp</text>
</a>
</g>
</g>
<!-- Node3&#45;&gt;Node12 -->
<g id="edge11_Node000003_Node000012" class="edge">
<title>Node3&#45;&gt;Node12</title>
<g id="a_edge11_Node000003_Node000012"><a xlink:title=" ">
<path fill="none" stroke="#63b8ff" d="M934.29,-58.26C1034.49,-50.78 1221.22,-36.04 1380,-19 1383.1,-18.67 1386.28,-18.31 1389.49,-17.94"/>
<polygon fill="#63b8ff" stroke="#63b8ff" points="933.99,-54.77 924.28,-59.01 934.51,-61.76 933.99,-54.77"/>
</a>
</g>
</g>
<!-- Node13 -->
<g id="Node000013" class="node">
<title>Node13</title>
<g id="a_Node000013"><a xlink:href="TrackProperties_8cpp.html" target="_top" xlink:title=" ">
<polygon fill="white" stroke="#666666" points="1685,-19 1521,-19 1521,0 1685,0 1685,-19"/>
<text text-anchor="middle" x="1603" y="-7" font-family="Helvetica,sans-Serif" font-size="10.00">src/port/ui/TrackProperties.cpp</text>
</a>
</g>
</g>
<!-- Node3&#45;&gt;Node13 -->
<g id="edge12_Node000003_Node000013" class="edge">
<title>Node3&#45;&gt;Node13</title>
<g id="a_edge12_Node000003_Node000013"><a xlink:title=" ">
<path fill="none" stroke="#63b8ff" d="M934.51,-59.12C1054.63,-51.74 1302.49,-35.95 1512,-19 1514.85,-18.77 1517.74,-18.53 1520.67,-18.28"/>
<polygon fill="#63b8ff" stroke="#63b8ff" points="934.1,-55.64 924.33,-59.75 934.53,-62.63 934.1,-55.64"/>
</a>
</g>
</g>
</g>
</svg>
