<?xml version="1.0" encoding="UTF-8" standalone="no"?>
<!DOCTYPE svg PUBLIC "-//W3C//DTD SVG 1.1//EN"
 "http://www.w3.org/Graphics/SVG/1.1/DTD/svg11.dtd">
<!-- Generated by graphviz version 2.43.0 (0)
 -->
<!-- Title: src/port/resource/importers/MinimapFactory.h Pages: 1 -->
<svg width="444pt" height="104pt"
 viewBox="0.00 0.00 444.00 104.00" xmlns="http://www.w3.org/2000/svg" xmlns:xlink="http://www.w3.org/1999/xlink">
<g id="graph0" class="graph" transform="scale(1 1) rotate(0) translate(4 100)">
<title>src/port/resource/importers/MinimapFactory.h</title>
<!-- Node1 -->
<g id="Node000001" class="node">
<title>Node1</title>
<g id="a_Node000001"><a xlink:title=" ">
<polygon fill="#999999" stroke="#666666" points="279.5,-96 130.5,-96 130.5,-66 279.5,-66 279.5,-96"/>
<text text-anchor="start" x="138.5" y="-84" font-family="Helvetica,sans-Serif" font-size="10.00">src/port/resource/importers</text>
<text text-anchor="middle" x="205" y="-73" font-family="Helvetica,sans-Serif" font-size="10.00">/MinimapFactory.h</text>
</a>
</g>
</g>
<!-- Node2 -->
<g id="Node000002" class="node">
<title>Node2</title>
<g id="a_Node000002"><a xlink:title=" ">
<polygon fill="#e0e0e0" stroke="#999999" points="116,-24.5 0,-24.5 0,-5.5 116,-5.5 116,-24.5"/>
<text text-anchor="middle" x="58" y="-12.5" font-family="Helvetica,sans-Serif" font-size="10.00">resource/Resource.h</text>
</a>
</g>
</g>
<!-- Node1&#45;&gt;Node2 -->
<g id="edge1_Node000001_Node000002" class="edge">
<title>Node1&#45;&gt;Node2</title>
<g id="a_edge1_Node000001_Node000002"><a xlink:title=" ">
<path fill="none" stroke="#63b8ff" d="M172.74,-65.95C147.07,-54.78 111.49,-39.29 86.78,-28.53"/>
<polygon fill="#63b8ff" stroke="#63b8ff" points="88.13,-25.3 77.56,-24.52 85.33,-31.72 88.13,-25.3"/>
</a>
</g>
</g>
<!-- Node3 -->
<g id="Node000003" class="node">
<title>Node3</title>
<g id="a_Node000003"><a xlink:title=" ">
<polygon fill="#e0e0e0" stroke="#999999" points="276,-30 134,-30 134,0 276,0 276,-30"/>
<text text-anchor="start" x="142" y="-18" font-family="Helvetica,sans-Serif" font-size="10.00">resource/ResourceFactory</text>
<text text-anchor="middle" x="205" y="-7" font-family="Helvetica,sans-Serif" font-size="10.00">Binary.h</text>
</a>
</g>
</g>
<!-- Node1&#45;&gt;Node3 -->
<g id="edge2_Node000001_Node000003" class="edge">
<title>Node1&#45;&gt;Node3</title>
<g id="a_edge2_Node000001_Node000003"><a xlink:title=" ">
<path fill="none" stroke="#63b8ff" d="M205,-65.8C205,-58.34 205,-48.99 205,-40.41"/>
<polygon fill="#63b8ff" stroke="#63b8ff" points="208.5,-40.16 205,-30.16 201.5,-40.16 208.5,-40.16"/>
</a>
</g>
</g>
<!-- Node4 -->
<g id="Node000004" class="node">
<title>Node4</title>
<g id="a_Node000004"><a xlink:title=" ">
<polygon fill="#e0e0e0" stroke="#999999" points="436,-30 294,-30 294,0 436,0 436,-30"/>
<text text-anchor="start" x="302" y="-18" font-family="Helvetica,sans-Serif" font-size="10.00">resource/ResourceFactory</text>
<text text-anchor="middle" x="365" y="-7" font-family="Helvetica,sans-Serif" font-size="10.00">XML.h</text>
</a>
</g>
</g>
<!-- Node1&#45;&gt;Node4 -->
<g id="edge3_Node000001_Node000004" class="edge">
<title>Node1&#45;&gt;Node4</title>
<g id="a_edge3_Node000001_Node000004"><a xlink:title=" ">
<path fill="none" stroke="#63b8ff" d="M240.11,-65.95C263.77,-56.49 295.16,-43.93 320.56,-33.78"/>
<polygon fill="#63b8ff" stroke="#63b8ff" points="321.98,-36.98 329.97,-30.01 319.38,-30.48 321.98,-36.98"/>
</a>
</g>
</g>
</g>
</svg>
