<?xml version="1.0" encoding="UTF-8" standalone="no"?>
<!DOCTYPE svg PUBLIC "-//W3C//DTD SVG 1.1//EN"
 "http://www.w3.org/Graphics/SVG/1.1/DTD/svg11.dtd">
<!-- Generated by graphviz version 2.43.0 (0)
 -->
<!-- Title: include/assets/moo_moo_farm_data.h Pages: 1 -->
<svg width="1904pt" height="280pt"
 viewBox="0.00 0.00 1903.99 280.00" xmlns="http://www.w3.org/2000/svg" xmlns:xlink="http://www.w3.org/1999/xlink">
<g id="graph0" class="graph" transform="scale(1 1) rotate(0) translate(4 276)">
<title>include/assets/moo_moo_farm_data.h</title>
<!-- Node1 -->
<g id="Node000001" class="node">
<title>Node1</title>
<g id="a_Node000001"><a xlink:title=" ">
<polygon fill="#999999" stroke="#666666" points="1502.99,-272 1391.99,-272 1391.99,-242 1502.99,-242 1502.99,-272"/>
<text text-anchor="start" x="1399.99" y="-260" font-family="Helvetica,sans-Serif" font-size="10.00">include/assets/moo</text>
<text text-anchor="middle" x="1447.49" y="-249" font-family="Helvetica,sans-Serif" font-size="10.00">_moo_farm_data.h</text>
</a>
</g>
</g>
<!-- Node2 -->
<g id="Node000002" class="node">
<title>Node2</title>
<g id="a_Node000002"><a xlink:href="all__course__data_8h.html" target="_top" xlink:title=" ">
<polygon fill="white" stroke="#666666" points="893.99,-206 786.99,-206 786.99,-176 893.99,-176 893.99,-206"/>
<text text-anchor="start" x="794.99" y="-194" font-family="Helvetica,sans-Serif" font-size="10.00">courses/all_course</text>
<text text-anchor="middle" x="840.49" y="-183" font-family="Helvetica,sans-Serif" font-size="10.00">_data.h</text>
</a>
</g>
</g>
<!-- Node1&#45;&gt;Node2 -->
<g id="edge1_Node000001_Node000002" class="edge">
<title>Node1&#45;&gt;Node2</title>
<g id="a_edge1_Node000001_Node000002"><a xlink:title=" ">
<path fill="none" stroke="#63b8ff" d="M1381.52,-249.04C1260.55,-236.29 1005.48,-209.4 894.25,-197.67"/>
<polygon fill="#63b8ff" stroke="#63b8ff" points="1381.43,-252.55 1391.75,-250.12 1382.17,-245.59 1381.43,-252.55"/>
</a>
</g>
</g>
<!-- Node6 -->
<g id="Node000006" class="node">
<title>Node6</title>
<g id="a_Node000006"><a xlink:href="code__800029B0_8c.html" target="_top" xlink:title=" ">
<polygon fill="white" stroke="#666666" points="136.99,-134.5 17.99,-134.5 17.99,-115.5 136.99,-115.5 136.99,-134.5"/>
<text text-anchor="middle" x="77.49" y="-122.5" font-family="Helvetica,sans-Serif" font-size="10.00">src/code_800029B0.c</text>
</a>
</g>
</g>
<!-- Node1&#45;&gt;Node6 -->
<g id="edge21_Node000001_Node000006" class="edge">
<title>Node1&#45;&gt;Node6</title>
<g id="a_edge21_Node000001_Node000006"><a xlink:title=" ">
<path fill="none" stroke="#63b8ff" d="M1381.52,-253.07C1189.83,-243.93 616.67,-212.12 146.49,-140 136.58,-138.48 125.94,-136.5 116.06,-134.5"/>
<polygon fill="#63b8ff" stroke="#63b8ff" points="1381.56,-256.58 1391.71,-253.55 1381.89,-249.59 1381.56,-256.58"/>
</a>
</g>
</g>
<!-- Node9 -->
<g id="Node000009" class="node">
<title>Node9</title>
<g id="a_Node000009"><a xlink:href="path__spawn__metadata_8c.html" target="_top" xlink:title=" ">
<polygon fill="white" stroke="#666666" points="1491.99,-140 1374.99,-140 1374.99,-110 1491.99,-110 1491.99,-140"/>
<text text-anchor="start" x="1382.99" y="-128" font-family="Helvetica,sans-Serif" font-size="10.00">src/data/path_spawn</text>
<text text-anchor="middle" x="1433.49" y="-117" font-family="Helvetica,sans-Serif" font-size="10.00">_metadata.c</text>
</a>
</g>
</g>
<!-- Node1&#45;&gt;Node9 -->
<g id="edge22_Node000001_Node000009" class="edge">
<title>Node1&#45;&gt;Node9</title>
<g id="a_edge22_Node000001_Node000009"><a xlink:title=" ">
<path fill="none" stroke="#63b8ff" d="M1439.38,-232.13C1436.98,-223.95 1434.68,-214.67 1433.49,-206 1430.35,-183.16 1431.29,-156.3 1432.33,-140.24"/>
<polygon fill="#63b8ff" stroke="#63b8ff" points="1436.07,-233.28 1442.39,-241.78 1442.75,-231.19 1436.07,-233.28"/>
</a>
</g>
</g>
<!-- Node15 -->
<g id="Node000015" class="node">
<title>Node15</title>
<g id="a_Node000015"><a xlink:href="render__objects_8c.html" target="_top" xlink:title=" ">
<polygon fill="white" stroke="#666666" points="1624.49,-134.5 1510.49,-134.5 1510.49,-115.5 1624.49,-115.5 1624.49,-134.5"/>
<text text-anchor="middle" x="1567.49" y="-122.5" font-family="Helvetica,sans-Serif" font-size="10.00">src/render_objects.c</text>
</a>
</g>
</g>
<!-- Node1&#45;&gt;Node15 -->
<g id="edge28_Node000001_Node000015" class="edge">
<title>Node1&#45;&gt;Node15</title>
<g id="a_edge28_Node000001_Node000015"><a xlink:title=" ">
<path fill="none" stroke="#63b8ff" d="M1447.99,-231.34C1449.51,-214.19 1454.02,-191.67 1466.49,-176 1483.3,-154.87 1511.34,-141.99 1533.61,-134.61"/>
<polygon fill="#63b8ff" stroke="#63b8ff" points="1444.47,-231.52 1447.36,-241.72 1451.46,-231.95 1444.47,-231.52"/>
</a>
</g>
</g>
<!-- Node17 -->
<g id="Node000017" class="node">
<title>Node17</title>
<g id="a_Node000017"><a xlink:href="moo__moo__farm_2course__offsets_8c.html" target="_top" xlink:title=" ">
<polygon fill="white" stroke="#666666" points="1609.49,-206 1475.49,-206 1475.49,-176 1609.49,-176 1609.49,-206"/>
<text text-anchor="start" x="1483.49" y="-194" font-family="Helvetica,sans-Serif" font-size="10.00">courses/moo_moo_farm</text>
<text text-anchor="middle" x="1542.49" y="-183" font-family="Helvetica,sans-Serif" font-size="10.00">/course_offsets.c</text>
</a>
</g>
</g>
<!-- Node1&#45;&gt;Node17 -->
<g id="edge18_Node000001_Node000017" class="edge">
<title>Node1&#45;&gt;Node17</title>
<g id="a_edge18_Node000001_Node000017"><a xlink:title=" ">
<path fill="none" stroke="#63b8ff" d="M1477.14,-236.03C1491.51,-226.34 1508.44,-214.94 1521.47,-206.16"/>
<polygon fill="#63b8ff" stroke="#63b8ff" points="1474.91,-233.31 1468.58,-241.8 1478.82,-239.11 1474.91,-233.31"/>
</a>
</g>
</g>
<!-- Node18 -->
<g id="Node000018" class="node">
<title>Node18</title>
<g id="a_Node000018"><a xlink:href="cow_2render_8inc_8c.html" target="_top" xlink:title=" ">
<polygon fill="white" stroke="#666666" points="229.49,-200.5 83.49,-200.5 83.49,-181.5 229.49,-181.5 229.49,-200.5"/>
<text text-anchor="middle" x="156.49" y="-188.5" font-family="Helvetica,sans-Serif" font-size="10.00">src/actors/cow/render.inc.c</text>
</a>
</g>
</g>
<!-- Node1&#45;&gt;Node18 -->
<g id="edge19_Node000001_Node000018" class="edge">
<title>Node1&#45;&gt;Node18</title>
<g id="a_edge19_Node000001_Node000018"><a xlink:title=" ">
<path fill="none" stroke="#63b8ff" d="M1381.54,-252.73C1162.39,-241.87 459.44,-207.02 229.82,-195.63"/>
<polygon fill="#63b8ff" stroke="#63b8ff" points="1381.44,-256.23 1391.6,-253.23 1381.79,-249.24 1381.44,-256.23"/>
</a>
</g>
</g>
<!-- Node19 -->
<g id="Node000019" class="node">
<title>Node19</title>
<g id="a_Node000019"><a xlink:href="MooMooFarm_8cpp.html" target="_top" xlink:title=" ">
<polygon fill="white" stroke="#666666" points="1749.99,-140 1642.99,-140 1642.99,-110 1749.99,-110 1749.99,-140"/>
<text text-anchor="start" x="1650.99" y="-128" font-family="Helvetica,sans-Serif" font-size="10.00">src/engine/courses</text>
<text text-anchor="middle" x="1696.49" y="-117" font-family="Helvetica,sans-Serif" font-size="10.00">/MooMooFarm.cpp</text>
</a>
</g>
</g>
<!-- Node1&#45;&gt;Node19 -->
<g id="edge23_Node000001_Node000019" class="edge">
<title>Node1&#45;&gt;Node19</title>
<g id="a_edge23_Node000001_Node000019"><a xlink:title=" ">
<path fill="none" stroke="#63b8ff" d="M1513.25,-245.04C1546.47,-237.5 1586.42,-225.28 1618.49,-206 1647.42,-188.61 1673.06,-157.9 1686.51,-140.01"/>
<polygon fill="#63b8ff" stroke="#63b8ff" points="1512.2,-241.68 1503.17,-247.22 1513.69,-248.52 1512.2,-241.68"/>
</a>
</g>
</g>
<!-- Node20 -->
<g id="Node000020" class="node">
<title>Node20</title>
<g id="a_Node000020"><a xlink:href="MooMooFarm_8h.html" target="_top" xlink:title=" ">
<polygon fill="white" stroke="#666666" points="1772.99,-206 1665.99,-206 1665.99,-176 1772.99,-176 1772.99,-206"/>
<text text-anchor="start" x="1673.99" y="-194" font-family="Helvetica,sans-Serif" font-size="10.00">src/engine/courses</text>
<text text-anchor="middle" x="1719.49" y="-183" font-family="Helvetica,sans-Serif" font-size="10.00">/MooMooFarm.h</text>
</a>
</g>
</g>
<!-- Node1&#45;&gt;Node20 -->
<g id="edge24_Node000001_Node000020" class="edge">
<title>Node1&#45;&gt;Node20</title>
<g id="a_edge24_Node000001_Node000020"><a xlink:title=" ">
<path fill="none" stroke="#63b8ff" d="M1513.22,-240.54C1559.95,-229.54 1621.94,-214.95 1665.72,-204.65"/>
<polygon fill="#63b8ff" stroke="#63b8ff" points="1512.12,-237.2 1503.19,-242.89 1513.73,-244.01 1512.12,-237.2"/>
</a>
</g>
</g>
<!-- Node22 -->
<g id="Node000022" class="node">
<title>Node22</title>
<g id="a_Node000022"><a xlink:href="Mole_8cpp.html" target="_top" xlink:title=" ">
<polygon fill="white" stroke="#666666" points="1895.99,-206 1790.99,-206 1790.99,-176 1895.99,-176 1895.99,-206"/>
<text text-anchor="start" x="1798.99" y="-194" font-family="Helvetica,sans-Serif" font-size="10.00">src/engine/objects</text>
<text text-anchor="middle" x="1843.49" y="-183" font-family="Helvetica,sans-Serif" font-size="10.00">/Mole.cpp</text>
</a>
</g>
</g>
<!-- Node1&#45;&gt;Node22 -->
<g id="edge27_Node000001_Node000022" class="edge">
<title>Node1&#45;&gt;Node22</title>
<g id="a_edge27_Node000001_Node000022"><a xlink:title=" ">
<path fill="none" stroke="#63b8ff" d="M1513.33,-247.6C1580.86,-238.64 1688.86,-223.37 1781.49,-206 1784.53,-205.43 1787.64,-204.82 1790.78,-204.18"/>
<polygon fill="#63b8ff" stroke="#63b8ff" points="1512.71,-244.15 1503.25,-248.93 1513.63,-251.09 1512.71,-244.15"/>
</a>
</g>
</g>
<!-- Node3 -->
<g id="Node000003" class="node">
<title>Node3</title>
<g id="a_Node000003"><a xlink:href="paddle__boat_2render_8inc_8c.html" target="_top" xlink:title=" ">
<polygon fill="white" stroke="#666666" points="416.99,-140 289.99,-140 289.99,-110 416.99,-110 416.99,-140"/>
<text text-anchor="start" x="297.99" y="-128" font-family="Helvetica,sans-Serif" font-size="10.00">src/actors/paddle_boat</text>
<text text-anchor="middle" x="353.49" y="-117" font-family="Helvetica,sans-Serif" font-size="10.00">/render.inc.c</text>
</a>
</g>
</g>
<!-- Node2&#45;&gt;Node3 -->
<g id="edge2_Node000002_Node000003" class="edge">
<title>Node2&#45;&gt;Node3</title>
<g id="a_edge2_Node000002_Node000003"><a xlink:title=" ">
<path fill="none" stroke="#63b8ff" d="M776.82,-183.77C695.19,-175.45 549.41,-159.49 425.49,-140 422.72,-139.56 419.9,-139.1 417.05,-138.62"/>
<polygon fill="#63b8ff" stroke="#63b8ff" points="776.63,-187.27 786.93,-184.79 777.33,-180.3 776.63,-187.27"/>
</a>
</g>
</g>
<!-- Node4 -->
<g id="Node000004" class="node">
<title>Node4</title>
<g id="a_Node000004"><a xlink:href="actors_8c.html" target="_top" xlink:title=" ">
<polygon fill="white" stroke="#666666" points="484.99,-74 379.99,-74 379.99,-55 484.99,-55 484.99,-74"/>
<text text-anchor="middle" x="432.49" y="-62" font-family="Helvetica,sans-Serif" font-size="10.00">src/racing/actors.c</text>
</a>
</g>
</g>
<!-- Node2&#45;&gt;Node4 -->
<g id="edge13_Node000002_Node000004" class="edge">
<title>Node2&#45;&gt;Node4</title>
<g id="a_edge13_Node000002_Node000004"><a xlink:title=" ">
<path fill="none" stroke="#63b8ff" d="M777.09,-181.74C734.88,-174.56 679.03,-161.79 633.49,-140 613.77,-130.56 614.07,-119.75 594.49,-110 558.98,-92.32 515.48,-80.87 482.5,-74.01"/>
<polygon fill="#63b8ff" stroke="#63b8ff" points="776.53,-185.19 786.97,-183.35 777.67,-178.28 776.53,-185.19"/>
</a>
</g>
</g>
<!-- Node5 -->
<g id="Node000005" class="node">
<title>Node5</title>
<g id="a_Node000005"><a xlink:href="trees_2render_8inc_8c.html" target="_top" xlink:title=" ">
<polygon fill="white" stroke="#666666" points="585.99,-134.5 434.99,-134.5 434.99,-115.5 585.99,-115.5 585.99,-134.5"/>
<text text-anchor="middle" x="510.49" y="-122.5" font-family="Helvetica,sans-Serif" font-size="10.00">src/actors/trees/render.inc.c</text>
</a>
</g>
</g>
<!-- Node2&#45;&gt;Node5 -->
<g id="edge4_Node000002_Node000005" class="edge">
<title>Node2&#45;&gt;Node5</title>
<g id="a_edge4_Node000002_Node000005"><a xlink:title=" ">
<path fill="none" stroke="#63b8ff" d="M776.55,-177.6C711.2,-164.92 611.43,-145.58 554.45,-134.53"/>
<polygon fill="#63b8ff" stroke="#63b8ff" points="776.25,-181.11 786.74,-179.57 777.59,-174.23 776.25,-181.11"/>
</a>
</g>
</g>
<!-- Node2&#45;&gt;Node6 -->
<g id="edge6_Node000002_Node000006" class="edge">
<title>Node2&#45;&gt;Node6</title>
<g id="a_edge6_Node000002_Node000006"><a xlink:title=" ">
<path fill="none" stroke="#63b8ff" d="M776.71,-185.87C616.93,-175.47 207.9,-148.41 146.49,-140 136.2,-138.59 125.13,-136.57 114.94,-134.51"/>
<polygon fill="#63b8ff" stroke="#63b8ff" points="776.66,-189.38 786.87,-186.54 777.11,-182.39 776.66,-189.38"/>
</a>
</g>
</g>
<!-- Node7 -->
<g id="Node000007" class="node">
<title>Node7</title>
<g id="a_Node000007"><a xlink:href="code__80005FD0_8c.html" target="_top" xlink:title=" ">
<polygon fill="white" stroke="#666666" points="762.49,-134.5 642.49,-134.5 642.49,-115.5 762.49,-115.5 762.49,-134.5"/>
<text text-anchor="middle" x="702.49" y="-122.5" font-family="Helvetica,sans-Serif" font-size="10.00">src/code_80005FD0.c</text>
</a>
</g>
</g>
<!-- Node2&#45;&gt;Node7 -->
<g id="edge7_Node000002_Node000007" class="edge">
<title>Node2&#45;&gt;Node7</title>
<g id="a_edge7_Node000002_Node000007"><a xlink:title=" ">
<path fill="none" stroke="#63b8ff" d="M800.86,-171.62C774.53,-159.41 741.18,-143.94 720.86,-134.52"/>
<polygon fill="#63b8ff" stroke="#63b8ff" points="799.66,-174.92 810.21,-175.95 802.61,-168.57 799.66,-174.92"/>
</a>
</g>
</g>
<!-- Node8 -->
<g id="Node000008" class="node">
<title>Node8</title>
<g id="a_Node000008"><a xlink:href="code__8006E9C0_8c.html" target="_top" xlink:title=" ">
<polygon fill="white" stroke="#666666" points="899.99,-134.5 780.99,-134.5 780.99,-115.5 899.99,-115.5 899.99,-134.5"/>
<text text-anchor="middle" x="840.49" y="-122.5" font-family="Helvetica,sans-Serif" font-size="10.00">src/code_8006E9C0.c</text>
</a>
</g>
</g>
<!-- Node2&#45;&gt;Node8 -->
<g id="edge8_Node000002_Node000008" class="edge">
<title>Node2&#45;&gt;Node8</title>
<g id="a_edge8_Node000002_Node000008"><a xlink:title=" ">
<path fill="none" stroke="#63b8ff" d="M840.49,-165.6C840.49,-154.8 840.49,-142.78 840.49,-134.84"/>
<polygon fill="#63b8ff" stroke="#63b8ff" points="836.99,-165.8 840.49,-175.8 843.99,-165.8 836.99,-165.8"/>
</a>
</g>
</g>
<!-- Node2&#45;&gt;Node9 -->
<g id="edge9_Node000002_Node000009" class="edge">
<title>Node2&#45;&gt;Node9</title>
<g id="a_edge9_Node000002_Node000009"><a xlink:title=" ">
<path fill="none" stroke="#63b8ff" d="M904.15,-186.17C1003.19,-179.7 1199.99,-164.84 1365.49,-140 1368.59,-139.53 1371.76,-139.02 1374.96,-138.47"/>
<polygon fill="#63b8ff" stroke="#63b8ff" points="903.76,-182.68 894.01,-186.82 904.21,-189.67 903.76,-182.68"/>
</a>
</g>
</g>
<!-- Node10 -->
<g id="Node000010" class="node">
<title>Node10</title>
<g id="a_Node000010"><a xlink:href="all__variables_8h.html" target="_top" xlink:title=" ">
<polygon fill="white" stroke="#666666" points="1056.49,-134.5 918.49,-134.5 918.49,-115.5 1056.49,-115.5 1056.49,-134.5"/>
<text text-anchor="middle" x="987.49" y="-122.5" font-family="Helvetica,sans-Serif" font-size="10.00">src/debug/all_variables.h</text>
</a>
</g>
</g>
<!-- Node2&#45;&gt;Node10 -->
<g id="edge10_Node000002_Node000010" class="edge">
<title>Node2&#45;&gt;Node10</title>
<g id="a_edge10_Node000002_Node000010"><a xlink:title=" ">
<path fill="none" stroke="#63b8ff" d="M881.97,-171.94C910.14,-159.68 946.09,-144.02 967.93,-134.52"/>
<polygon fill="#63b8ff" stroke="#63b8ff" points="880.52,-168.75 872.75,-175.95 883.32,-175.17 880.52,-168.75"/>
</a>
</g>
</g>
<!-- Node13 -->
<g id="Node000013" class="node">
<title>Node13</title>
<g id="a_Node000013"><a xlink:href="memory_8c.html" target="_top" xlink:title=" ">
<polygon fill="white" stroke="#666666" points="1189.99,-134.5 1074.99,-134.5 1074.99,-115.5 1189.99,-115.5 1189.99,-134.5"/>
<text text-anchor="middle" x="1132.49" y="-122.5" font-family="Helvetica,sans-Serif" font-size="10.00">src/racing/memory.c</text>
</a>
</g>
</g>
<!-- Node2&#45;&gt;Node13 -->
<g id="edge14_Node000002_Node000013" class="edge">
<title>Node2&#45;&gt;Node13</title>
<g id="a_edge14_Node000002_Node000013"><a xlink:title=" ">
<path fill="none" stroke="#63b8ff" d="M904.14,-176.05C961.78,-163.42 1044.85,-145.21 1093.29,-134.59"/>
<polygon fill="#63b8ff" stroke="#63b8ff" points="903.07,-172.7 894.05,-178.26 904.57,-179.54 903.07,-172.7"/>
</a>
</g>
</g>
<!-- Node14 -->
<g id="Node000014" class="node">
<title>Node14</title>
<g id="a_Node000014"><a xlink:href="render__courses_8c.html" target="_top" xlink:title=" ">
<polygon fill="white" stroke="#666666" points="1356.99,-134.5 1207.99,-134.5 1207.99,-115.5 1356.99,-115.5 1356.99,-134.5"/>
<text text-anchor="middle" x="1282.49" y="-122.5" font-family="Helvetica,sans-Serif" font-size="10.00">src/racing/render_courses.c</text>
</a>
</g>
</g>
<!-- Node2&#45;&gt;Node14 -->
<g id="edge15_Node000002_Node000014" class="edge">
<title>Node2&#45;&gt;Node14</title>
<g id="a_edge15_Node000002_Node000014"><a xlink:title=" ">
<path fill="none" stroke="#63b8ff" d="M904.45,-181.58C976.13,-172.03 1095.76,-155.73 1198.49,-140 1209.6,-138.3 1221.51,-136.37 1232.78,-134.51"/>
<polygon fill="#63b8ff" stroke="#63b8ff" points="903.68,-178.16 894.23,-182.94 904.61,-185.09 903.68,-178.16"/>
</a>
</g>
</g>
<!-- Node2&#45;&gt;Node15 -->
<g id="edge16_Node000002_Node000015" class="edge">
<title>Node2&#45;&gt;Node15</title>
<g id="a_edge16_Node000002_Node000015"><a xlink:title=" ">
<path fill="none" stroke="#63b8ff" d="M904.53,-187.92C1022.79,-183.47 1283.2,-170.8 1500.49,-140 1510.37,-138.6 1520.99,-136.61 1530.78,-134.57"/>
<polygon fill="#63b8ff" stroke="#63b8ff" points="904.08,-184.44 894.22,-188.3 904.34,-191.43 904.08,-184.44"/>
</a>
</g>
</g>
<!-- Node16 -->
<g id="Node000016" class="node">
<title>Node16</title>
<g id="a_Node000016"><a xlink:href="update__objects_8c.html" target="_top" xlink:title=" ">
<polygon fill="white" stroke="#666666" points="271.49,-134.5 155.49,-134.5 155.49,-115.5 271.49,-115.5 271.49,-134.5"/>
<text text-anchor="middle" x="213.49" y="-122.5" font-family="Helvetica,sans-Serif" font-size="10.00">src/update_objects.c</text>
</a>
</g>
</g>
<!-- Node2&#45;&gt;Node16 -->
<g id="edge17_Node000002_Node000016" class="edge">
<title>Node2&#45;&gt;Node16</title>
<g id="a_edge17_Node000002_Node000016"><a xlink:title=" ">
<path fill="none" stroke="#63b8ff" d="M776.93,-186.75C672.77,-180.88 459.42,-166.59 280.49,-140 270.74,-138.55 260.26,-136.57 250.56,-134.55"/>
<polygon fill="#63b8ff" stroke="#63b8ff" points="776.79,-190.25 786.97,-187.31 777.18,-183.26 776.79,-190.25"/>
</a>
</g>
</g>
<!-- Node3&#45;&gt;Node4 -->
<g id="edge3_Node000003_Node000004" class="edge">
<title>Node3&#45;&gt;Node4</title>
<g id="a_edge3_Node000003_Node000004"><a xlink:title=" ">
<path fill="none" stroke="#63b8ff" d="M380.75,-103.82C394.37,-93.73 410.14,-82.05 420.65,-74.27"/>
<polygon fill="#63b8ff" stroke="#63b8ff" points="378.57,-101.07 372.62,-109.84 382.73,-106.7 378.57,-101.07"/>
</a>
</g>
</g>
<!-- Node5&#45;&gt;Node4 -->
<g id="edge5_Node000005_Node000004" class="edge">
<title>Node5&#45;&gt;Node4</title>
<g id="a_edge5_Node000005_Node000004"><a xlink:title=" ">
<path fill="none" stroke="#63b8ff" d="M490.96,-109.35C476.18,-98.27 456.39,-83.43 444.05,-74.17"/>
<polygon fill="#63b8ff" stroke="#63b8ff" points="488.88,-112.17 498.98,-115.37 493.08,-106.57 488.88,-112.17"/>
</a>
</g>
</g>
<!-- Node11 -->
<g id="Node000011" class="node">
<title>Node11</title>
<g id="a_Node000011"><a xlink:href="debug_8inc_8c.html" target="_top" xlink:title=" ">
<polygon fill="white" stroke="#666666" points="1048.49,-74 926.49,-74 926.49,-55 1048.49,-55 1048.49,-74"/>
<text text-anchor="middle" x="987.49" y="-62" font-family="Helvetica,sans-Serif" font-size="10.00">src/debug/debug.inc.c</text>
</a>
</g>
</g>
<!-- Node10&#45;&gt;Node11 -->
<g id="edge11_Node000010_Node000011" class="edge">
<title>Node10&#45;&gt;Node11</title>
<g id="a_edge11_Node000010_Node000011"><a xlink:title=" ">
<path fill="none" stroke="#63b8ff" d="M987.49,-105.16C987.49,-94.74 987.49,-82.3 987.49,-74.17"/>
<polygon fill="#63b8ff" stroke="#63b8ff" points="983.99,-105.37 987.49,-115.37 990.99,-105.37 983.99,-105.37"/>
</a>
</g>
</g>
<!-- Node12 -->
<g id="Node000012" class="node">
<title>Node12</title>
<g id="a_Node000012"><a xlink:href="debug_8c.html" target="_top" xlink:title=" ">
<polygon fill="white" stroke="#666666" points="1039.99,-19 934.99,-19 934.99,0 1039.99,0 1039.99,-19"/>
<text text-anchor="middle" x="987.49" y="-7" font-family="Helvetica,sans-Serif" font-size="10.00">src/debug/debug.c</text>
</a>
</g>
</g>
<!-- Node11&#45;&gt;Node12 -->
<g id="edge12_Node000011_Node000012" class="edge">
<title>Node11&#45;&gt;Node12</title>
<g id="a_edge12_Node000011_Node000012"><a xlink:title=" ">
<path fill="none" stroke="#63b8ff" d="M987.49,-44.66C987.49,-35.93 987.49,-25.99 987.49,-19.09"/>
<polygon fill="#63b8ff" stroke="#63b8ff" points="983.99,-44.75 987.49,-54.75 990.99,-44.75 983.99,-44.75"/>
</a>
</g>
</g>
<!-- Node18&#45;&gt;Node4 -->
<g id="edge20_Node000018_Node000004" class="edge">
<title>Node18&#45;&gt;Node4</title>
<g id="a_edge20_Node000018_Node000004"><a xlink:title=" ">
<path fill="none" stroke="#63b8ff" d="M96.51,-179.35C42.88,-167.31 -22.79,-144.74 8.49,-110 32.92,-82.88 271.42,-71.13 379.61,-67.17"/>
<polygon fill="#63b8ff" stroke="#63b8ff" points="95.84,-182.78 106.36,-181.47 97.32,-175.94 95.84,-182.78"/>
</a>
</g>
</g>
<!-- Node20&#45;&gt;Node19 -->
<g id="edge25_Node000020_Node000019" class="edge">
<title>Node20&#45;&gt;Node19</title>
<g id="a_edge25_Node000020_Node000019"><a xlink:title=" ">
<path fill="none" stroke="#63b8ff" d="M1710.91,-166.11C1707.77,-157.38 1704.32,-147.78 1701.58,-140.16"/>
<polygon fill="#63b8ff" stroke="#63b8ff" points="1707.71,-167.57 1714.39,-175.8 1714.3,-165.2 1707.71,-167.57"/>
</a>
</g>
</g>
<!-- Node21 -->
<g id="Node000021" class="node">
<title>Node21</title>
<g id="a_Node000021"><a xlink:href="Game_8cpp.html" target="_top" xlink:title=" ">
<polygon fill="white" stroke="#666666" points="1874.49,-134.5 1768.49,-134.5 1768.49,-115.5 1874.49,-115.5 1874.49,-134.5"/>
<text text-anchor="middle" x="1821.49" y="-122.5" font-family="Helvetica,sans-Serif" font-size="10.00">src/port/Game.cpp</text>
</a>
</g>
</g>
<!-- Node20&#45;&gt;Node21 -->
<g id="edge26_Node000020_Node000021" class="edge">
<title>Node20&#45;&gt;Node21</title>
<g id="a_edge26_Node000020_Node000021"><a xlink:title=" ">
<path fill="none" stroke="#63b8ff" d="M1750.59,-170.49C1769.75,-158.46 1793.36,-143.65 1807.92,-134.52"/>
<polygon fill="#63b8ff" stroke="#63b8ff" points="1748.49,-167.68 1741.88,-175.95 1752.21,-173.6 1748.49,-167.68"/>
</a>
</g>
</g>
</g>
</svg>
