<?xml version="1.0" encoding="UTF-8" standalone="no"?>
<!DOCTYPE svg PUBLIC "-//W3C//DTD SVG 1.1//EN"
 "http://www.w3.org/Graphics/SVG/1.1/DTD/svg11.dtd">
<!-- Generated by graphviz version 2.43.0 (0)
 -->
<!-- Title: GameUI::Multiplayer::DrawColumn2 Pages: 1 -->
<svg width="673pt" height="156pt"
 viewBox="0.00 0.00 673.00 156.00" xmlns="http://www.w3.org/2000/svg" xmlns:xlink="http://www.w3.org/1999/xlink">
<g id="graph0" class="graph" transform="scale(1 1) rotate(0) translate(4 152)">
<title>GameUI::Multiplayer::DrawColumn2</title>
<!-- Node1 -->
<g id="Node000001" class="node">
<title>Node1</title>
<g id="a_Node000001"><a xlink:title=" ">
<polygon fill="#999999" stroke="#666666" points="118,-97.5 0,-97.5 0,-67.5 118,-67.5 118,-97.5"/>
<text text-anchor="start" x="8" y="-85.5" font-family="Helvetica,sans-Serif" font-size="10.00">GameUI::Multiplayer</text>
<text text-anchor="middle" x="59" y="-74.5" font-family="Helvetica,sans-Serif" font-size="10.00">::DrawColumn2</text>
</a>
</g>
</g>
<!-- Node2 -->
<g id="Node000002" class="node">
<title>Node2</title>
<g id="a_Node000002"><a xlink:href="start__game_8c.html#a066d4466ee0a05edd9600c478b674a7e" target="_top" xlink:title=" ">
<polygon fill="white" stroke="#666666" points="288,-148 154,-148 154,-129 288,-129 288,-148"/>
<text text-anchor="middle" x="221" y="-136" font-family="Helvetica,sans-Serif" font-size="10.00">network_character_vote</text>
</a>
</g>
</g>
<!-- Node1&#45;&gt;Node2 -->
<g id="edge1_Node000001_Node000002" class="edge">
<title>Node1&#45;&gt;Node2</title>
<g id="a_edge1_Node000001_Node000002"><a xlink:title=" ">
<path fill="none" stroke="#63b8ff" d="M94.45,-97.56C112.08,-104.98 133.98,-113.75 154,-120.5 159.91,-122.49 166.17,-124.42 172.39,-126.24"/>
<polygon fill="#63b8ff" stroke="#63b8ff" points="171.5,-129.62 182.07,-128.98 173.41,-122.89 171.5,-129.62"/>
</a>
</g>
</g>
<!-- Node4 -->
<g id="Node000004" class="node">
<title>Node4</title>
<g id="a_Node000004"><a xlink:href="start__game_8c.html#a99b9c7f03653dc6ebb6e10aa759e8266" target="_top" xlink:title=" ">
<polygon fill="white" stroke="#666666" points="274,-111 168,-111 168,-92 274,-92 274,-111"/>
<text text-anchor="middle" x="221" y="-99" font-family="Helvetica,sans-Serif" font-size="10.00">network_cup_vote</text>
</a>
</g>
</g>
<!-- Node1&#45;&gt;Node4 -->
<g id="edge3_Node000001_Node000004" class="edge">
<title>Node1&#45;&gt;Node4</title>
<g id="a_edge3_Node000001_Node000004"><a xlink:title=" ">
<path fill="none" stroke="#63b8ff" d="M118.22,-89.41C131.05,-90.94 144.69,-92.56 157.68,-94.1"/>
<polygon fill="#63b8ff" stroke="#63b8ff" points="157.58,-97.61 167.92,-95.32 158.41,-90.66 157.58,-97.61"/>
</a>
</g>
</g>
<!-- Node5 -->
<g id="Node000005" class="node">
<title>Node5</title>
<g id="a_Node000005"><a xlink:href="networking_8c.html#aed9ca538cfe9988acf346351f27a368e" target="_top" xlink:title=" ">
<polygon fill="white" stroke="#666666" points="285.5,-37 156.5,-37 156.5,-18 285.5,-18 285.5,-37"/>
<text text-anchor="middle" x="221" y="-25" font-family="Helvetica,sans-Serif" font-size="10.00">networking_disconnect</text>
</a>
</g>
</g>
<!-- Node1&#45;&gt;Node5 -->
<g id="edge5_Node000001_Node000005" class="edge">
<title>Node1&#45;&gt;Node5</title>
<g id="a_edge5_Node000001_Node000005"><a xlink:title=" ">
<path fill="none" stroke="#63b8ff" d="M97.24,-67.4C114.4,-60.65 135.11,-52.82 154,-46.5 160.84,-44.21 168.13,-41.94 175.28,-39.81"/>
<polygon fill="#63b8ff" stroke="#63b8ff" points="176.27,-43.17 184.89,-37 174.31,-36.45 176.27,-43.17"/>
</a>
</g>
</g>
<!-- Node10 -->
<g id="Node000010" class="node">
<title>Node10</title>
<g id="a_Node000010"><a xlink:href="networking_8c.html#aec83bff8dc6495b6cd0ba4c83bf834d2" target="_top" xlink:title=" ">
<polygon fill="white" stroke="#666666" points="282,-74 160,-74 160,-55 282,-55 282,-74"/>
<text text-anchor="middle" x="221" y="-62" font-family="Helvetica,sans-Serif" font-size="10.00">networking_ready_up</text>
</a>
</g>
</g>
<!-- Node1&#45;&gt;Node10 -->
<g id="edge10_Node000001_Node000010" class="edge">
<title>Node1&#45;&gt;Node10</title>
<g id="a_edge10_Node000001_Node000010"><a xlink:title=" ">
<path fill="none" stroke="#63b8ff" d="M118.22,-75.95C128.51,-74.79 139.32,-73.58 149.9,-72.39"/>
<polygon fill="#63b8ff" stroke="#63b8ff" points="150.4,-75.85 159.95,-71.26 149.62,-68.9 150.4,-75.85"/>
</a>
</g>
</g>
<!-- Node3 -->
<g id="Node000003" class="node">
<title>Node3</title>
<g id="a_Node000003"><a xlink:href="packets_8c.html#a7f7a40b3f0b65d490b0ee6658f8223d7" target="_top" xlink:title=" ">
<polygon fill="white" stroke="#666666" points="429,-111 334,-111 334,-92 429,-92 429,-111"/>
<text text-anchor="middle" x="381.5" y="-99" font-family="Helvetica,sans-Serif" font-size="10.00">send_int_packet</text>
</a>
</g>
</g>
<!-- Node2&#45;&gt;Node3 -->
<g id="edge2_Node000002_Node000003" class="edge">
<title>Node2&#45;&gt;Node3</title>
<g id="a_edge2_Node000002_Node000003"><a xlink:title=" ">
<path fill="none" stroke="#63b8ff" d="M262.82,-128.97C283.17,-124.22 307.98,-118.43 329.56,-113.39"/>
<polygon fill="#63b8ff" stroke="#63b8ff" points="330.6,-116.74 339.55,-111.06 329.01,-109.93 330.6,-116.74"/>
</a>
</g>
</g>
<!-- Node4&#45;&gt;Node3 -->
<g id="edge4_Node000004_Node000003" class="edge">
<title>Node4&#45;&gt;Node3</title>
<g id="a_edge4_Node000004_Node000003"><a xlink:title=" ">
<path fill="none" stroke="#63b8ff" d="M274.34,-101.5C290.09,-101.5 307.46,-101.5 323.5,-101.5"/>
<polygon fill="#63b8ff" stroke="#63b8ff" points="323.82,-105 333.82,-101.5 323.82,-98 323.82,-105"/>
</a>
</g>
</g>
<!-- Node6 -->
<g id="Node000006" class="node">
<title>Node6</title>
<g id="a_Node000006"><a xlink:href="networking_8c.html#a840ac4cfb918d97373907c0a176ce5c5" target="_top" xlink:title=" ">
<polygon fill="white" stroke="#666666" points="439,-37 324,-37 324,-18 439,-18 439,-37"/>
<text text-anchor="middle" x="381.5" y="-25" font-family="Helvetica,sans-Serif" font-size="10.00">networking_cleanup</text>
</a>
</g>
</g>
<!-- Node5&#45;&gt;Node6 -->
<g id="edge6_Node000005_Node000006" class="edge">
<title>Node5&#45;&gt;Node6</title>
<g id="a_edge6_Node000005_Node000006"><a xlink:title=" ">
<path fill="none" stroke="#63b8ff" d="M285.55,-27.5C294.85,-27.5 304.45,-27.5 313.81,-27.5"/>
<polygon fill="#63b8ff" stroke="#63b8ff" points="313.84,-31 323.84,-27.5 313.84,-24 313.84,-31"/>
</a>
</g>
</g>
<!-- Node7 -->
<g id="Node000007" class="node">
<title>Node7</title>
<g id="a_Node000007"><a xlink:href="packets_8c.html#af9536eb7dd70435bff139db61e546862" target="_top" xlink:title=" ">
<polygon fill="white" stroke="#666666" points="570,-37 475,-37 475,-18 570,-18 570,-37"/>
<text text-anchor="middle" x="522.5" y="-25" font-family="Helvetica,sans-Serif" font-size="10.00">send_str_packet</text>
</a>
</g>
</g>
<!-- Node6&#45;&gt;Node7 -->
<g id="edge7_Node000006_Node000007" class="edge">
<title>Node6&#45;&gt;Node7</title>
<g id="a_edge7_Node000006_Node000007"><a xlink:title=" ">
<path fill="none" stroke="#63b8ff" d="M439.04,-27.5C447.48,-27.5 456.19,-27.5 464.64,-27.5"/>
<polygon fill="#63b8ff" stroke="#63b8ff" points="464.78,-31 474.78,-27.5 464.78,-24 464.78,-31"/>
</a>
</g>
</g>
<!-- Node8 -->
<g id="Node000008" class="node">
<title>Node8</title>
<g id="a_Node000008"><a xlink:href="string_8c.html#ad7f1ae1bbb49dece44bda378982a704d" target="_top" xlink:title=" ">
<polygon fill="white" stroke="#666666" points="665,-56 606,-56 606,-37 665,-37 665,-56"/>
<text text-anchor="middle" x="635.5" y="-44" font-family="Helvetica,sans-Serif" font-size="10.00">memcpy</text>
</a>
</g>
</g>
<!-- Node7&#45;&gt;Node8 -->
<g id="edge8_Node000007_Node000008" class="edge">
<title>Node7&#45;&gt;Node8</title>
<g id="a_edge8_Node000007_Node000008"><a xlink:title=" ">
<path fill="none" stroke="#63b8ff" d="M570.25,-35.5C578.75,-36.96 587.53,-38.46 595.77,-39.87"/>
<polygon fill="#63b8ff" stroke="#63b8ff" points="595.4,-43.36 605.84,-41.6 596.58,-36.46 595.4,-43.36"/>
</a>
</g>
</g>
<!-- Node9 -->
<g id="Node000009" class="node">
<title>Node9</title>
<g id="a_Node000009"><a xlink:href="string_8c.html#a008e171a518fe0e0352f31b245e03875" target="_top" xlink:title=" ">
<polygon fill="white" stroke="#666666" points="657.5,-19 613.5,-19 613.5,0 657.5,0 657.5,-19"/>
<text text-anchor="middle" x="635.5" y="-7" font-family="Helvetica,sans-Serif" font-size="10.00">strlen</text>
</a>
</g>
</g>
<!-- Node7&#45;&gt;Node9 -->
<g id="edge9_Node000007_Node000009" class="edge">
<title>Node7&#45;&gt;Node9</title>
<g id="a_edge9_Node000007_Node000009"><a xlink:title=" ">
<path fill="none" stroke="#63b8ff" d="M570.25,-19.92C581.42,-18.11 593.08,-16.22 603.34,-14.55"/>
<polygon fill="#63b8ff" stroke="#63b8ff" points="604.15,-17.97 613.46,-12.91 603.03,-11.06 604.15,-17.97"/>
</a>
</g>
</g>
<!-- Node10&#45;&gt;Node3 -->
<g id="edge11_Node000010_Node000003" class="edge">
<title>Node10&#45;&gt;Node3</title>
<g id="a_edge11_Node000010_Node000003"><a xlink:title=" ">
<path fill="none" stroke="#63b8ff" d="M262.82,-74.03C283.17,-78.78 307.98,-84.57 329.56,-89.61"/>
<polygon fill="#63b8ff" stroke="#63b8ff" points="329.01,-93.07 339.55,-91.94 330.6,-86.26 329.01,-93.07"/>
</a>
</g>
</g>
</g>
</svg>
