<?xml version="1.0" encoding="UTF-8" standalone="no"?>
<!DOCTYPE svg PUBLIC "-//W3C//DTD SVG 1.1//EN"
 "http://www.w3.org/Graphics/SVG/1.1/DTD/svg11.dtd">
<!-- Generated by graphviz version 2.43.0 (0)
 -->
<!-- Title: handleReceivedData Pages: 1 -->
<!--zoomable 286 -->

<svg id="main" version="1.1" xmlns="http://www.w3.org/2000/svg" xmlns:xlink="http://www.w3.org/1999/xlink" xml:space="preserve" onload="init(evt)">

<style type="text/css"><![CDATA[
.node, .edge {opacity: 0.7;}
.node.selected, .edge.selected {opacity: 1;}
.edge:hover path { stroke: red; }
.edge:hover polygon { stroke: red; fill: red; }
]]></style>

<defs>
  <circle id="rim" cx="0" cy="0" r="7"/>
  <circle id="rim2" cx="0" cy="0" r="3.5"/>
  <g id="zoomPlus">
    <use xlink:href="#rim" fill="#404040"><set attributeName="fill" to="#808080" begin="zoomplus.mouseover" end="zoomplus.mouseout"/></use>
    <path d="M-4,0h8M0,-4v8" fill="none" stroke="white" stroke-width="1.5" pointer-events="none"/>
  </g>
  <g id="zoomMin">
    <use xlink:href="#rim" fill="#404040"><set attributeName="fill" to="#808080" begin="zoomminus.mouseover" end="zoomminus.mouseout"/></use>
    <path d="M-4,0h8" fill="none" stroke="white" stroke-width="1.5" pointer-events="none"/>
  </g>
  <g id="arrowUp" transform="translate(30 24)">
    <use xlink:href="#rim"/>
    <path pointer-events="none" fill="none" stroke="white" stroke-width="1.5" d="M0,-3.0v7 M-2.5,-0.5L0,-3.0L2.5,-0.5"/>
  </g>
  <g id="arrowRight" transform="rotate(90) translate(36 -43)">
    <use xlink:href="#rim"/>
    <path pointer-events="none" fill="none" stroke="white" stroke-width="1.5" d="M0,-3.0v7 M-2.5,-0.5L0,-3.0L2.5,-0.5"/>
  </g>
  <g id="arrowDown" transform="rotate(180) translate(-30 -48)">
    <use xlink:href="#rim"/>
    <path pointer-events="none" fill="none" stroke="white" stroke-width="1.5" d="M0,-3.0v7 M-2.5,-0.5L0,-3.0L2.5,-0.5"/>
  </g>
  <g id="arrowLeft" transform="rotate(270) translate(-36 17)">
    <use xlink:href="#rim"/>
    <path pointer-events="none" fill="none" stroke="white" stroke-width="1.5" d="M0,-3.0v7 M-2.5,-0.5L0,-3.0L2.5,-0.5"/>
  </g>
  <g id="resetDef">
    <use xlink:href="#rim2" fill="#404040"><set attributeName="fill" to="#808080" begin="reset.mouseover" end="reset.mouseout"/></use>
  </g>
</defs>
<script type="application/ecmascript">
var viewWidth = 688;
var viewHeight = 286;
var sectionId = 'dynsection-3';
</script>
<script type="application/ecmascript" xlink:href="svg.min.js"/>
<svg id="graph" class="graph">
<g id="viewport">
<title>handleReceivedData</title>
<!-- Node1 -->
<g id="Node000001" class="node">
<title>Node1</title>
<g id="a_Node000001"><a xlink:title=" ">
<polygon fill="#999999" stroke="#666666" points="118,-148 0,-148 0,-129 118,-129 118,-148"/>
<text text-anchor="middle" x="59" y="-136" font-family="Helvetica,sans-Serif" font-size="10.00">handleReceivedData</text>
</a>
</g>
</g>
<!-- Node2 -->
<g id="Node000002" class="node">
<title>Node2</title>
<g id="a_Node000002"><a xlink:href="start__game_8c.html#a2e086956a1c0bd2f6ac8111273c3cb29" target="_top" xlink:title=" ">
<polygon fill="white" stroke="#666666" points="281,-278 168,-278 168,-259 281,-259 281,-278"/>
<text text-anchor="middle" x="224.5" y="-266" font-family="Helvetica,sans-Serif" font-size="10.00">assign_player_slots</text>
</a>
</g>
</g>
<!-- Node1&#45;&gt;Node2 -->
<g id="edge1_Node000001_Node000002" class="edge">
<title>Node1&#45;&gt;Node2</title>
<g id="a_edge1_Node000001_Node000002"><a xlink:title=" ">
<path fill="none" stroke="#63b8ff" d="M65.18,-148.02C77.51,-169.75 110.85,-223.27 154,-250.5 156.6,-252.14 159.35,-253.64 162.19,-254.99"/>
<polygon fill="#63b8ff" stroke="#63b8ff" points="160.94,-258.26 171.52,-258.89 163.64,-251.8 160.94,-258.26"/>
</a>
</g>
</g>
<!-- Node4 -->
<g id="Node000004" class="node">
<title>Node4</title>
<g id="a_Node000004"><a xlink:href="packets_8c.html#a9043558ea9ec5add45661c92ec55ae93" target="_top" xlink:title=" ">
<polygon fill="white" stroke="#666666" points="279.5,-241 169.5,-241 169.5,-222 279.5,-222 279.5,-241"/>
<text text-anchor="middle" x="224.5" y="-229" font-family="Helvetica,sans-Serif" font-size="10.00">handle_start_game</text>
</a>
</g>
</g>
<!-- Node1&#45;&gt;Node4 -->
<g id="edge3_Node000001_Node000004" class="edge">
<title>Node1&#45;&gt;Node4</title>
<g id="a_edge3_Node000001_Node000004"><a xlink:title=" ">
<path fill="none" stroke="#63b8ff" d="M69.19,-148.1C85.02,-164.07 119.08,-196.05 154,-213.5 157.83,-215.41 161.87,-217.13 166.02,-218.68"/>
<polygon fill="#63b8ff" stroke="#63b8ff" points="165.2,-222.1 175.8,-221.99 167.45,-215.47 165.2,-222.1"/>
</a>
</g>
</g>
<!-- Node5 -->
<g id="Node000005" class="node">
<title>Node5</title>
<g id="a_Node000005"><a xlink:href="packets_8c.html#a47d880268cfe380cc1bb2d92dbf3c293" target="_top" xlink:title=" ">
<polygon fill="white" stroke="#666666" points="274,-204 175,-204 175,-185 274,-185 274,-204"/>
<text text-anchor="middle" x="224.5" y="-192" font-family="Helvetica,sans-Serif" font-size="10.00">handleJoinPacket</text>
</a>
</g>
</g>
<!-- Node1&#45;&gt;Node5 -->
<g id="edge4_Node000001_Node000005" class="edge">
<title>Node1&#45;&gt;Node5</title>
<g id="a_edge4_Node000001_Node000005"><a xlink:title=" ">
<path fill="none" stroke="#63b8ff" d="M81.36,-148.07C100.22,-156.29 128.59,-168.11 154,-176.5 160.06,-178.5 166.47,-180.42 172.86,-182.21"/>
<polygon fill="#63b8ff" stroke="#63b8ff" points="172.25,-185.67 182.81,-184.91 174.08,-178.92 172.25,-185.67"/>
</a>
</g>
</g>
<!-- Node6 -->
<g id="Node000006" class="node">
<title>Node6</title>
<g id="a_Node000006"><a xlink:href="packets_8c.html#afc70931364035c41b086f0473286bba5" target="_top" xlink:title=" ">
<polygon fill="white" stroke="#666666" points="279.5,-167 169.5,-167 169.5,-148 279.5,-148 279.5,-167"/>
<text text-anchor="middle" x="224.5" y="-155" font-family="Helvetica,sans-Serif" font-size="10.00">handleLeavePacket</text>
</a>
</g>
</g>
<!-- Node1&#45;&gt;Node6 -->
<g id="edge5_Node000001_Node000006" class="edge">
<title>Node1&#45;&gt;Node6</title>
<g id="a_edge5_Node000001_Node000006"><a xlink:title=" ">
<path fill="none" stroke="#63b8ff" d="M118.1,-145.25C131.42,-146.8 145.64,-148.45 159.2,-150.03"/>
<polygon fill="#63b8ff" stroke="#63b8ff" points="159.07,-153.54 169.41,-151.21 159.88,-146.58 159.07,-153.54"/>
</a>
</g>
</g>
<!-- Node7 -->
<g id="Node000007" class="node">
<title>Node7</title>
<g id="a_Node000007"><a xlink:href="packets_8c.html#acc50de836de3a56188f73581f84afc83" target="_top" xlink:title=" ">
<polygon fill="white" stroke="#666666" points="287,-130 162,-130 162,-111 287,-111 287,-130"/>
<text text-anchor="middle" x="224.5" y="-118" font-family="Helvetica,sans-Serif" font-size="10.00">handleMessagePacket</text>
</a>
</g>
</g>
<!-- Node1&#45;&gt;Node7 -->
<g id="edge6_Node000001_Node000007" class="edge">
<title>Node1&#45;&gt;Node7</title>
<g id="a_edge6_Node000001_Node000007"><a xlink:title=" ">
<path fill="none" stroke="#63b8ff" d="M118.1,-132.1C129,-130.9 140.5,-129.64 151.75,-128.4"/>
<polygon fill="#63b8ff" stroke="#63b8ff" points="152.43,-131.85 161.98,-127.27 151.66,-124.89 152.43,-131.85"/>
</a>
</g>
</g>
<!-- Node8 -->
<g id="Node000008" class="node">
<title>Node8</title>
<g id="a_Node000008"><a xlink:href="start__game_8c.html#a2bfff8ec22628d92c889dd558cc9ac3d" target="_top" xlink:title=" ">
<polygon fill="white" stroke="#666666" points="295,-93 154,-93 154,-74 295,-74 295,-93"/>
<text text-anchor="middle" x="224.5" y="-81" font-family="Helvetica,sans-Serif" font-size="10.00">networking_start_session</text>
</a>
</g>
</g>
<!-- Node1&#45;&gt;Node8 -->
<g id="edge7_Node000001_Node000008" class="edge">
<title>Node1&#45;&gt;Node8</title>
<g id="a_edge7_Node000001_Node000008"><a xlink:title=" ">
<path fill="none" stroke="#63b8ff" d="M82.13,-128.9C101.01,-120.94 128.98,-109.63 154,-101.5 160.15,-99.5 166.65,-97.58 173.12,-95.77"/>
<polygon fill="#63b8ff" stroke="#63b8ff" points="174.46,-99.04 183.2,-93.05 172.63,-92.28 174.46,-99.04"/>
</a>
</g>
</g>
<!-- Node14 -->
<g id="Node000014" class="node">
<title>Node14</title>
<g id="a_Node000014"><a xlink:href="replication_8c.html#a9af574783710ca07ce7e2bc6fefc76b6" target="_top" xlink:title=" ">
<polygon fill="white" stroke="#666666" points="272,-56 177,-56 177,-37 272,-37 272,-56"/>
<text text-anchor="middle" x="224.5" y="-44" font-family="Helvetica,sans-Serif" font-size="10.00">replicate_player</text>
</a>
</g>
</g>
<!-- Node1&#45;&gt;Node14 -->
<g id="edge13_Node000001_Node000014" class="edge">
<title>Node1&#45;&gt;Node14</title>
<g id="a_edge13_Node000001_Node000014"><a xlink:title=" ">
<path fill="none" stroke="#63b8ff" d="M69.48,-128.78C85.45,-112.95 119.39,-81.66 154,-64.5 158.24,-62.4 162.76,-60.52 167.37,-58.85"/>
<polygon fill="#63b8ff" stroke="#63b8ff" points="168.52,-62.16 176.92,-55.71 166.33,-55.51 168.52,-62.16"/>
</a>
</g>
</g>
<!-- Node15 -->
<g id="Node000015" class="node">
<title>Node15</title>
<g id="a_Node000015"><a xlink:href="start__game_8c.html#a398b9ba81e585f81d5b86d2ca26f8708" target="_top" xlink:title=" ">
<polygon fill="white" stroke="#666666" points="259,-19 190,-19 190,0 259,0 259,-19"/>
<text text-anchor="middle" x="224.5" y="-7" font-family="Helvetica,sans-Serif" font-size="10.00">set_course</text>
</a>
</g>
</g>
<!-- Node1&#45;&gt;Node15 -->
<g id="edge14_Node000001_Node000015" class="edge">
<title>Node1&#45;&gt;Node15</title>
<g id="a_edge14_Node000001_Node000015"><a xlink:title=" ">
<path fill="none" stroke="#63b8ff" d="M65.39,-128.75C77.92,-107 111.23,-54.36 154,-27.5 161.91,-22.53 171.14,-18.93 180.24,-16.32"/>
<polygon fill="#63b8ff" stroke="#63b8ff" points="181.16,-19.7 190,-13.86 179.44,-12.92 181.16,-19.7"/>
</a>
</g>
</g>
<!-- Node3 -->
<g id="Node000003" class="node">
<title>Node3</title>
<g id="a_Node000003"><a xlink:href="string_8c.html#ad7f1ae1bbb49dece44bda378982a704d" target="_top" xlink:title=" ">
<polygon fill="white" stroke="#666666" points="406.5,-278 347.5,-278 347.5,-259 406.5,-259 406.5,-278"/>
<text text-anchor="middle" x="377" y="-266" font-family="Helvetica,sans-Serif" font-size="10.00">memcpy</text>
</a>
</g>
</g>
<!-- Node2&#45;&gt;Node3 -->
<g id="edge2_Node000002_Node000003" class="edge">
<title>Node2&#45;&gt;Node3</title>
<g id="a_edge2_Node000002_Node000003"><a xlink:title=" ">
<path fill="none" stroke="#63b8ff" d="M281.11,-268.5C299.7,-268.5 320,-268.5 337.04,-268.5"/>
<polygon fill="#63b8ff" stroke="#63b8ff" points="337.18,-272 347.18,-268.5 337.18,-265 337.18,-272"/>
</a>
</g>
</g>
<!-- Node9 -->
<g id="Node000009" class="node">
<title>Node9</title>
<g id="a_Node000009"><a xlink:href="menu__items_8c.html#a57e1e920cc29e6d1b13f4ebf198a6f3c" target="_top" xlink:title=" ">
<polygon fill="white" stroke="#666666" points="423,-112 331,-112 331,-93 423,-93 423,-112"/>
<text text-anchor="middle" x="377" y="-100" font-family="Helvetica,sans-Serif" font-size="10.00">func_8009E1C0</text>
</a>
</g>
</g>
<!-- Node8&#45;&gt;Node9 -->
<g id="edge8_Node000008_Node000009" class="edge">
<title>Node8&#45;&gt;Node9</title>
<g id="a_edge8_Node000008_Node000009"><a xlink:title=" ">
<path fill="none" stroke="#63b8ff" d="M295.02,-92.28C303.67,-93.37 312.43,-94.47 320.82,-95.53"/>
<polygon fill="#63b8ff" stroke="#63b8ff" points="320.49,-99.02 330.85,-96.8 321.37,-92.07 320.49,-99.02"/>
</a>
</g>
</g>
<!-- Node12 -->
<g id="Node000012" class="node">
<title>Node12</title>
<g id="a_Node000012"><a xlink:href="external_8c.html#ab8fa6fbe4bd78d8282bb696133e77f6c" target="_top" xlink:title=" ">
<polygon fill="white" stroke="#666666" points="423,-75 331,-75 331,-56 423,-56 423,-75"/>
<text text-anchor="middle" x="377" y="-63" font-family="Helvetica,sans-Serif" font-size="10.00">func_800CA330</text>
</a>
</g>
</g>
<!-- Node8&#45;&gt;Node12 -->
<g id="edge11_Node000008_Node000012" class="edge">
<title>Node8&#45;&gt;Node12</title>
<g id="a_edge11_Node000008_Node000012"><a xlink:title=" ">
<path fill="none" stroke="#63b8ff" d="M295.02,-75.18C303.67,-74.15 312.43,-73.1 320.82,-72.1"/>
<polygon fill="#63b8ff" stroke="#63b8ff" points="321.34,-75.56 330.85,-70.9 320.5,-68.61 321.34,-75.56"/>
</a>
</g>
</g>
<!-- Node10 -->
<g id="Node000010" class="node">
<title>Node10</title>
<g id="a_Node000010"><a xlink:href="menu__items_8c.html#a485ad7e52b54cd47cb14ce60384c34b5" target="_top" xlink:title=" ">
<polygon fill="white" stroke="#666666" points="551,-112 459,-112 459,-93 551,-93 551,-112"/>
<text text-anchor="middle" x="505" y="-100" font-family="Helvetica,sans-Serif" font-size="10.00">func_8009DFE0</text>
</a>
</g>
</g>
<!-- Node9&#45;&gt;Node10 -->
<g id="edge9_Node000009_Node000010" class="edge">
<title>Node9&#45;&gt;Node10</title>
<g id="a_edge9_Node000009_Node000010"><a xlink:title=" ">
<path fill="none" stroke="#63b8ff" d="M423.13,-102.5C431.37,-102.5 440.04,-102.5 448.53,-102.5"/>
<polygon fill="#63b8ff" stroke="#63b8ff" points="448.76,-106 458.76,-102.5 448.76,-99 448.76,-106"/>
</a>
</g>
</g>
<!-- Node11 -->
<g id="Node000011" class="node">
<title>Node11</title>
<g id="a_Node000011"><a xlink:href="menu__items_8c.html#ad38092d257433fcbbac4e1fd80b3b5bd" target="_top" xlink:title=" ">
<polygon fill="white" stroke="#666666" points="680,-112 587,-112 587,-93 680,-93 680,-112"/>
<text text-anchor="middle" x="633.5" y="-100" font-family="Helvetica,sans-Serif" font-size="10.00">func_8009DF8C</text>
</a>
</g>
</g>
<!-- Node10&#45;&gt;Node11 -->
<g id="edge10_Node000010_Node000011" class="edge">
<title>Node10&#45;&gt;Node11</title>
<g id="a_edge10_Node000010_Node000011"><a xlink:title=" ">
<path fill="none" stroke="#63b8ff" d="M551.31,-102.5C559.48,-102.5 568.08,-102.5 576.5,-102.5"/>
<polygon fill="#63b8ff" stroke="#63b8ff" points="576.65,-106 586.65,-102.5 576.65,-99 576.65,-106"/>
</a>
</g>
</g>
<!-- Node13 -->
<g id="Node000013" class="node">
<title>Node13</title>
<g id="a_Node000013"><a xlink:href="external_8c.html#ac48b7cbfcaa7737f892877ead85e4ba7" target="_top" xlink:title=" ">
<polygon fill="white" stroke="#666666" points="551,-75 459,-75 459,-56 551,-56 551,-75"/>
<text text-anchor="middle" x="505" y="-63" font-family="Helvetica,sans-Serif" font-size="10.00">func_800C3448</text>
</a>
</g>
</g>
<!-- Node12&#45;&gt;Node13 -->
<g id="edge12_Node000012_Node000013" class="edge">
<title>Node12&#45;&gt;Node13</title>
<g id="a_edge12_Node000012_Node000013"><a xlink:title=" ">
<path fill="none" stroke="#63b8ff" d="M423.13,-65.5C431.37,-65.5 440.04,-65.5 448.53,-65.5"/>
<polygon fill="#63b8ff" stroke="#63b8ff" points="448.76,-69 458.76,-65.5 448.76,-62 448.76,-69"/>
</a>
</g>
</g>
</g>
</svg>

<g id="navigator" transform="translate(0 0)" fill="#404254">
  <rect fill="#f2f5e9" fill-opacity="0.5" stroke="#606060" stroke-width=".5" x="0" y="0" width="60" height="60"/>
  <use id="zoomplus" xlink:href="#zoomPlus" x="17" y="9" onmousedown="handleZoom(evt,'in')"/>
  <use id="zoomminus" xlink:href="#zoomMin" x="42" y="9" onmousedown="handleZoom(evt,'out')"/>
  <use id="reset" xlink:href="#resetDef" x="30" y="36" onmousedown="handleReset()"/>
   <use id="arrowup" xlink:href="#arrowUp" x="0" y="0" onmousedown="handlePan(0,-1)"/>
  <use id="arrowright" xlink:href="#arrowRight" x="0" y="0" onmousedown="handlePan(1,0)"/>
  <use id="arrowdown" xlink:href="#arrowDown" x="0" y="0" onmousedown="handlePan(0,1)"/>
  <use id="arrowleft" xlink:href="#arrowLeft" x="0" y="0" onmousedown="handlePan(-1,0)"/>
</g>
<svg viewBox="0 0 15 15" width="100%" height="30px" preserveAspectRatio="xMaxYMin meet">
 <g id="arrow_out" transform="scale(0.3 0.3)">
  <a xlink:href="networking_8c_ae4e16a7c6d8ea252f0434363561595e1_cgraph_org.svg" target="_base">
   <rect id="button" ry="5" rx="5" y="6" x="6" height="38" width="38"
        fill="#f2f5e9" fill-opacity="0.5" stroke="#606060" stroke-width="1.0"/>
   <path id="arrow"
     d="M 11.500037,31.436501 C 11.940474,20.09759 22.043105,11.32322 32.158766,21.979434 L 37.068811,17.246167 C 37.068811,17.246167 37.088388,32 37.088388,32 L 22.160133,31.978069 C 22.160133,31.978069 26.997745,27.140456 26.997745,27.140456 C 18.528582,18.264221 13.291696,25.230495 11.500037,31.436501 z"
     style="fill:#404040;"/>
  </a>
 </g>
</svg>

<style type='text/css'>
<![CDATA[
[data-mouse-over-selected='false'] { opacity: 0.7; }
[data-mouse-over-selected='true']  { opacity: 1.0; }
]]>
</style>
<script type="application/ecmascript"><![CDATA[
document.addEventListener('DOMContentLoaded', (event) => {
  highlightEdges();
  highlightAdjacentNodes();
});
]]></script>
</svg>
