<?xml version="1.0" encoding="UTF-8" standalone="no"?>
<!DOCTYPE svg PUBLIC "-//W3C//DTD SVG 1.1//EN"
 "http://www.w3.org/Graphics/SVG/1.1/DTD/svg11.dtd">
<!-- Generated by graphviz version 2.43.0 (0)
 -->
<!-- Title: src/networking/networking.c Pages: 1 -->
<svg width="515pt" height="247pt"
 viewBox="0.00 0.00 514.50 247.00" xmlns="http://www.w3.org/2000/svg" xmlns:xlink="http://www.w3.org/1999/xlink">
<g id="graph0" class="graph" transform="scale(1 1) rotate(0) translate(4 243)">
<title>src/networking/networking.c</title>
<!-- Node1 -->
<g id="Node000001" class="node">
<title>Node1</title>
<g id="a_Node000001"><a xlink:title=" ">
<polygon fill="#999999" stroke="#666666" points="289.5,-239 134.5,-239 134.5,-220 289.5,-220 289.5,-239"/>
<text text-anchor="middle" x="212" y="-227" font-family="Helvetica,sans-Serif" font-size="10.00">src/networking/networking.c</text>
</a>
</g>
</g>
<!-- Node2 -->
<g id="Node000002" class="node">
<title>Node2</title>
<g id="a_Node000002"><a xlink:href="stdio_8h.html" target="_top" xlink:title=" ">
<polygon fill="white" stroke="#666666" points="50,-184 0,-184 0,-165 50,-165 50,-184"/>
<text text-anchor="middle" x="25" y="-172" font-family="Helvetica,sans-Serif" font-size="10.00">stdio.h</text>
</a>
</g>
</g>
<!-- Node1&#45;&gt;Node2 -->
<g id="edge1_Node000001_Node000002" class="edge">
<title>Node1&#45;&gt;Node2</title>
<g id="a_edge1_Node000001_Node000002"><a xlink:title=" ">
<path fill="none" stroke="#63b8ff" d="M181.96,-219.98C148.69,-210.56 95.14,-195.38 60,-185.42"/>
<polygon fill="#63b8ff" stroke="#63b8ff" points="60.75,-181.99 50.17,-182.63 58.84,-188.73 60.75,-181.99"/>
</a>
</g>
</g>
<!-- Node3 -->
<g id="Node000003" class="node">
<title>Node3</title>
<g id="a_Node000003"><a xlink:href="stdlib_8h.html" target="_top" xlink:title=" ">
<polygon fill="white" stroke="#666666" points="121.5,-184 68.5,-184 68.5,-165 121.5,-165 121.5,-184"/>
<text text-anchor="middle" x="95" y="-172" font-family="Helvetica,sans-Serif" font-size="10.00">stdlib.h</text>
</a>
</g>
</g>
<!-- Node1&#45;&gt;Node3 -->
<g id="edge2_Node000001_Node000003" class="edge">
<title>Node1&#45;&gt;Node3</title>
<g id="a_edge2_Node000001_Node000003"><a xlink:title=" ">
<path fill="none" stroke="#63b8ff" d="M193.2,-219.98C174.38,-211.46 145.18,-198.23 123.5,-188.41"/>
<polygon fill="#63b8ff" stroke="#63b8ff" points="124.69,-185.11 114.14,-184.17 121.8,-191.48 124.69,-185.11"/>
</a>
</g>
</g>
<!-- Node4 -->
<g id="Node000004" class="node">
<title>Node4</title>
<g id="a_Node000004"><a xlink:href="string_8h.html" target="_top" xlink:title=" ">
<polygon fill="white" stroke="#666666" points="162.5,-74 109.5,-74 109.5,-55 162.5,-55 162.5,-74"/>
<text text-anchor="middle" x="136" y="-62" font-family="Helvetica,sans-Serif" font-size="10.00">string.h</text>
</a>
</g>
</g>
<!-- Node1&#45;&gt;Node4 -->
<g id="edge3_Node000001_Node000004" class="edge">
<title>Node1&#45;&gt;Node4</title>
<g id="a_edge3_Node000001_Node000004"><a xlink:title=" ">
<path fill="none" stroke="#63b8ff" d="M204.08,-219.87C196.55,-211.29 185.32,-197.51 178,-184 159.96,-150.7 147.08,-108.1 140.65,-84.11"/>
<polygon fill="#63b8ff" stroke="#63b8ff" points="143.99,-83.02 138.09,-74.22 137.21,-84.78 143.99,-83.02"/>
</a>
</g>
</g>
<!-- Node6 -->
<g id="Node000006" class="node">
<title>Node6</title>
<g id="a_Node000006"><a xlink:title=" ">
<polygon fill="#e0e0e0" stroke="#999999" points="471,-184 399,-184 399,-165 471,-165 471,-184"/>
<text text-anchor="middle" x="435" y="-172" font-family="Helvetica,sans-Serif" font-size="10.00">SDL2/SDL.h</text>
</a>
</g>
</g>
<!-- Node1&#45;&gt;Node6 -->
<g id="edge5_Node000001_Node000006" class="edge">
<title>Node1&#45;&gt;Node6</title>
<g id="a_edge5_Node000001_Node000006"><a xlink:title=" ">
<path fill="none" stroke="#63b8ff" d="M247.83,-219.98C286.16,-210.87 347.08,-196.4 388.95,-186.45"/>
<polygon fill="#63b8ff" stroke="#63b8ff" points="389.97,-189.8 398.89,-184.08 388.35,-182.99 389.97,-189.8"/>
</a>
</g>
</g>
<!-- Node7 -->
<g id="Node000007" class="node">
<title>Node7</title>
<g id="a_Node000007"><a xlink:title=" ">
<polygon fill="#e0e0e0" stroke="#999999" points="506.5,-129 413.5,-129 413.5,-110 506.5,-110 506.5,-129"/>
<text text-anchor="middle" x="460" y="-117" font-family="Helvetica,sans-Serif" font-size="10.00">SDL2/SDL_net.h</text>
</a>
</g>
</g>
<!-- Node1&#45;&gt;Node7 -->
<g id="edge6_Node000001_Node000007" class="edge">
<title>Node1&#45;&gt;Node7</title>
<g id="a_edge6_Node000001_Node000007"><a xlink:title=" ">
<path fill="none" stroke="#63b8ff" d="M246.16,-219.95C275,-212.19 317.06,-199.59 352,-184 383.66,-169.87 417.77,-148.72 439,-134.76"/>
<polygon fill="#63b8ff" stroke="#63b8ff" points="441.14,-137.54 447.53,-129.09 437.27,-131.72 441.14,-137.54"/>
</a>
</g>
</g>
<!-- Node8 -->
<g id="Node000008" class="node">
<title>Node8</title>
<g id="a_Node000008"><a xlink:href="networking_8h.html" target="_top" xlink:title=" ">
<polygon fill="white" stroke="#666666" points="343,-184 263,-184 263,-165 343,-165 343,-184"/>
<text text-anchor="middle" x="303" y="-172" font-family="Helvetica,sans-Serif" font-size="10.00">networking.h</text>
</a>
</g>
</g>
<!-- Node1&#45;&gt;Node8 -->
<g id="edge7_Node000001_Node000008" class="edge">
<title>Node1&#45;&gt;Node8</title>
<g id="a_edge7_Node000001_Node000008"><a xlink:title=" ">
<path fill="none" stroke="#63b8ff" d="M226.62,-219.98C240.86,-211.69 262.75,-198.94 279.45,-189.22"/>
<polygon fill="#63b8ff" stroke="#63b8ff" points="281.23,-192.23 288.11,-184.17 277.71,-186.18 281.23,-192.23"/>
</a>
</g>
</g>
<!-- Node11 -->
<g id="Node000011" class="node">
<title>Node11</title>
<g id="a_Node000011"><a xlink:href="main_8h.html" target="_top" xlink:title=" ">
<polygon fill="white" stroke="#666666" points="237,-184 187,-184 187,-165 237,-165 237,-184"/>
<text text-anchor="middle" x="212" y="-172" font-family="Helvetica,sans-Serif" font-size="10.00">main.h</text>
</a>
</g>
</g>
<!-- Node1&#45;&gt;Node11 -->
<g id="edge12_Node000001_Node000011" class="edge">
<title>Node1&#45;&gt;Node11</title>
<g id="a_edge12_Node000001_Node000011"><a xlink:title=" ">
<path fill="none" stroke="#63b8ff" d="M212,-219.75C212,-212.8 212,-202.85 212,-194.13"/>
<polygon fill="#63b8ff" stroke="#63b8ff" points="215.5,-194.09 212,-184.09 208.5,-194.09 215.5,-194.09"/>
</a>
</g>
</g>
<!-- Node5 -->
<g id="Node000005" class="node">
<title>Node5</title>
<g id="a_Node000005"><a xlink:title=" ">
<polygon fill="#e0e0e0" stroke="#999999" points="181,-19 91,-19 91,0 181,0 181,-19"/>
<text text-anchor="middle" x="136" y="-7" font-family="Helvetica,sans-Serif" font-size="10.00">libultra/types.h</text>
</a>
</g>
</g>
<!-- Node4&#45;&gt;Node5 -->
<g id="edge4_Node000004_Node000005" class="edge">
<title>Node4&#45;&gt;Node5</title>
<g id="a_edge4_Node000004_Node000005"><a xlink:title=" ">
<path fill="none" stroke="#63b8ff" d="M136,-54.75C136,-47.8 136,-37.85 136,-29.13"/>
<polygon fill="#63b8ff" stroke="#63b8ff" points="139.5,-29.09 136,-19.09 132.5,-29.09 139.5,-29.09"/>
</a>
</g>
</g>
<!-- Node8&#45;&gt;Node7 -->
<g id="edge11_Node000008_Node000007" class="edge">
<title>Node8&#45;&gt;Node7</title>
<g id="a_edge11_Node000008_Node000007"><a xlink:title=" ">
<path fill="none" stroke="#63b8ff" d="M328.22,-164.98C354.36,-156.16 395.4,-142.31 424.73,-132.41"/>
<polygon fill="#63b8ff" stroke="#63b8ff" points="426.22,-135.6 434.58,-129.08 423.98,-128.96 426.22,-135.6"/>
</a>
</g>
</g>
<!-- Node9 -->
<g id="Node000009" class="node">
<title>Node9</title>
<g id="a_Node000009"><a xlink:title=" ">
<polygon fill="#e0e0e0" stroke="#999999" points="357,-74 277,-74 277,-55 357,-55 357,-74"/>
<text text-anchor="middle" x="317" y="-62" font-family="Helvetica,sans-Serif" font-size="10.00">libultraship.h</text>
</a>
</g>
</g>
<!-- Node8&#45;&gt;Node9 -->
<g id="edge8_Node000008_Node000009" class="edge">
<title>Node8&#45;&gt;Node9</title>
<g id="a_edge8_Node000008_Node000009"><a xlink:title=" ">
<path fill="none" stroke="#63b8ff" d="M324.15,-164.93C338.83,-157.73 357.25,-145.88 366,-129 375.54,-110.57 357.37,-92.08 340.52,-79.85"/>
<polygon fill="#63b8ff" stroke="#63b8ff" points="342.22,-76.77 331.98,-74.05 338.29,-82.56 342.22,-76.77"/>
</a>
</g>
</g>
<!-- Node10 -->
<g id="Node000010" class="node">
<title>Node10</title>
<g id="a_Node000010"><a xlink:href="common__structs_8h.html" target="_top" xlink:title=" ">
<polygon fill="white" stroke="#666666" points="356.5,-129 249.5,-129 249.5,-110 356.5,-110 356.5,-129"/>
<text text-anchor="middle" x="303" y="-117" font-family="Helvetica,sans-Serif" font-size="10.00">common_structs.h</text>
</a>
</g>
</g>
<!-- Node8&#45;&gt;Node10 -->
<g id="edge9_Node000008_Node000010" class="edge">
<title>Node8&#45;&gt;Node10</title>
<g id="a_edge9_Node000008_Node000010"><a xlink:title=" ">
<path fill="none" stroke="#63b8ff" d="M303,-164.75C303,-157.8 303,-147.85 303,-139.13"/>
<polygon fill="#63b8ff" stroke="#63b8ff" points="306.5,-139.09 303,-129.09 299.5,-139.09 306.5,-139.09"/>
</a>
</g>
</g>
<!-- Node10&#45;&gt;Node9 -->
<g id="edge10_Node000010_Node000009" class="edge">
<title>Node10&#45;&gt;Node9</title>
<g id="a_edge10_Node000010_Node000009"><a xlink:title=" ">
<path fill="none" stroke="#63b8ff" d="M305.31,-109.75C307.17,-102.72 309.84,-92.62 312.15,-83.84"/>
<polygon fill="#63b8ff" stroke="#63b8ff" points="315.56,-84.65 314.73,-74.09 308.79,-82.86 315.56,-84.65"/>
</a>
</g>
</g>
<!-- Node11&#45;&gt;Node10 -->
<g id="edge17_Node000011_Node000010" class="edge">
<title>Node11&#45;&gt;Node10</title>
<g id="a_edge17_Node000011_Node000010"><a xlink:title=" ">
<path fill="none" stroke="#63b8ff" d="M226.62,-164.98C240.86,-156.69 262.75,-143.94 279.45,-134.22"/>
<polygon fill="#63b8ff" stroke="#63b8ff" points="281.23,-137.23 288.11,-129.17 277.71,-131.18 281.23,-137.23"/>
</a>
</g>
</g>
<!-- Node12 -->
<g id="Node000012" class="node">
<title>Node12</title>
<g id="a_Node000012"><a xlink:href="mk64_8h.html" target="_top" xlink:title=" ">
<polygon fill="white" stroke="#666666" points="231.5,-129 178.5,-129 178.5,-110 231.5,-110 231.5,-129"/>
<text text-anchor="middle" x="205" y="-117" font-family="Helvetica,sans-Serif" font-size="10.00">mk64.h</text>
</a>
</g>
</g>
<!-- Node11&#45;&gt;Node12 -->
<g id="edge13_Node000011_Node000012" class="edge">
<title>Node11&#45;&gt;Node12</title>
<g id="a_edge13_Node000011_Node000012"><a xlink:title=" ">
<path fill="none" stroke="#63b8ff" d="M210.84,-164.75C209.93,-157.8 208.61,-147.85 207.46,-139.13"/>
<polygon fill="#63b8ff" stroke="#63b8ff" points="210.91,-138.54 206.13,-129.09 203.97,-139.46 210.91,-138.54"/>
</a>
</g>
</g>
<!-- Node12&#45;&gt;Node4 -->
<g id="edge15_Node000012_Node000004" class="edge">
<title>Node12&#45;&gt;Node4</title>
<g id="a_edge15_Node000012_Node000004"><a xlink:title=" ">
<path fill="none" stroke="#63b8ff" d="M193.91,-109.98C183.51,-102 167.74,-89.88 155.28,-80.31"/>
<polygon fill="#63b8ff" stroke="#63b8ff" points="157.35,-77.49 147.29,-74.17 153.09,-83.04 157.35,-77.49"/>
</a>
</g>
</g>
<!-- Node12&#45;&gt;Node9 -->
<g id="edge14_Node000012_Node000009" class="edge">
<title>Node12&#45;&gt;Node9</title>
<g id="a_edge14_Node000012_Node000009"><a xlink:title=" ">
<path fill="none" stroke="#63b8ff" d="M222.99,-109.98C240.93,-101.5 268.72,-88.35 289.43,-78.54"/>
<polygon fill="#63b8ff" stroke="#63b8ff" points="291.14,-81.61 298.68,-74.17 288.14,-75.28 291.14,-81.61"/>
</a>
</g>
</g>
<!-- Node13 -->
<g id="Node000013" class="node">
<title>Node13</title>
<g id="a_Node000013"><a xlink:title=" ">
<polygon fill="#e0e0e0" stroke="#999999" points="259,-74 181,-74 181,-55 259,-55 259,-74"/>
<text text-anchor="middle" x="220" y="-62" font-family="Helvetica,sans-Serif" font-size="10.00">libultra/gbi.h</text>
</a>
</g>
</g>
<!-- Node12&#45;&gt;Node13 -->
<g id="edge16_Node000012_Node000013" class="edge">
<title>Node12&#45;&gt;Node13</title>
<g id="a_edge16_Node000012_Node000013"><a xlink:title=" ">
<path fill="none" stroke="#63b8ff" d="M207.48,-109.75C209.46,-102.72 212.32,-92.62 214.81,-83.84"/>
<polygon fill="#63b8ff" stroke="#63b8ff" points="218.21,-84.66 217.57,-74.09 211.48,-82.76 218.21,-84.66"/>
</a>
</g>
</g>
</g>
</svg>
