<?xml version="1.0" encoding="UTF-8" standalone="no"?>
<!DOCTYPE svg PUBLIC "-//W3C//DTD SVG 1.1//EN"
 "http://www.w3.org/Graphics/SVG/1.1/DTD/svg11.dtd">
<!-- Generated by graphviz version 2.43.0 (0)
 -->
<!-- Title: networking_init Pages: 1 -->
<!--zoomable 323 -->

<svg id="main" version="1.1" xmlns="http://www.w3.org/2000/svg" xmlns:xlink="http://www.w3.org/1999/xlink" xml:space="preserve" onload="init(evt)">

<style type="text/css"><![CDATA[
.node, .edge {opacity: 0.7;}
.node.selected, .edge.selected {opacity: 1;}
.edge:hover path { stroke: red; }
.edge:hover polygon { stroke: red; fill: red; }
]]></style>

<defs>
  <circle id="rim" cx="0" cy="0" r="7"/>
  <circle id="rim2" cx="0" cy="0" r="3.5"/>
  <g id="zoomPlus">
    <use xlink:href="#rim" fill="#404040"><set attributeName="fill" to="#808080" begin="zoomplus.mouseover" end="zoomplus.mouseout"/></use>
    <path d="M-4,0h8M0,-4v8" fill="none" stroke="white" stroke-width="1.5" pointer-events="none"/>
  </g>
  <g id="zoomMin">
    <use xlink:href="#rim" fill="#404040"><set attributeName="fill" to="#808080" begin="zoomminus.mouseover" end="zoomminus.mouseout"/></use>
    <path d="M-4,0h8" fill="none" stroke="white" stroke-width="1.5" pointer-events="none"/>
  </g>
  <g id="arrowUp" transform="translate(30 24)">
    <use xlink:href="#rim"/>
    <path pointer-events="none" fill="none" stroke="white" stroke-width="1.5" d="M0,-3.0v7 M-2.5,-0.5L0,-3.0L2.5,-0.5"/>
  </g>
  <g id="arrowRight" transform="rotate(90) translate(36 -43)">
    <use xlink:href="#rim"/>
    <path pointer-events="none" fill="none" stroke="white" stroke-width="1.5" d="M0,-3.0v7 M-2.5,-0.5L0,-3.0L2.5,-0.5"/>
  </g>
  <g id="arrowDown" transform="rotate(180) translate(-30 -48)">
    <use xlink:href="#rim"/>
    <path pointer-events="none" fill="none" stroke="white" stroke-width="1.5" d="M0,-3.0v7 M-2.5,-0.5L0,-3.0L2.5,-0.5"/>
  </g>
  <g id="arrowLeft" transform="rotate(270) translate(-36 17)">
    <use xlink:href="#rim"/>
    <path pointer-events="none" fill="none" stroke="white" stroke-width="1.5" d="M0,-3.0v7 M-2.5,-0.5L0,-3.0L2.5,-0.5"/>
  </g>
  <g id="resetDef">
    <use xlink:href="#rim2" fill="#404040"><set attributeName="fill" to="#808080" begin="reset.mouseover" end="reset.mouseout"/></use>
  </g>
</defs>
<script type="application/ecmascript">
var viewWidth = 950;
var viewHeight = 323;
var sectionId = 'dynsection-22';
</script>
<script type="application/ecmascript" xlink:href="svg.min.js"/>
<svg id="graph" class="graph">
<g id="viewport">
<title>networking_init</title>
<!-- Node1 -->
<g id="Node000001" class="node">
<title>Node1</title>
<g id="a_Node000001"><a xlink:title=" ">
<polygon fill="#999999" stroke="#666666" points="92,-185 0,-185 0,-166 92,-166 92,-185"/>
<text text-anchor="middle" x="46" y="-173" font-family="Helvetica,sans-Serif" font-size="10.00">networking_init</text>
</a>
</g>
</g>
<!-- Node2 -->
<g id="Node000002" class="node">
<title>Node2</title>
<g id="a_Node000002"><a xlink:href="networking_8c.html#a6fdfec7636de6ab68fc5108c84c29844" target="_top" xlink:title=" ">
<polygon fill="white" stroke="#666666" points="226,-185 128,-185 128,-166 226,-166 226,-185"/>
<text text-anchor="middle" x="177" y="-173" font-family="Helvetica,sans-Serif" font-size="10.00">networking_loop</text>
</a>
</g>
</g>
<!-- Node1&#45;&gt;Node2 -->
<g id="edge1_Node000001_Node000002" class="edge">
<title>Node1&#45;&gt;Node2</title>
<g id="a_edge1_Node000001_Node000002"><a xlink:title=" ">
<path fill="none" stroke="#63b8ff" d="M92.12,-175.5C100.28,-175.5 108.9,-175.5 117.38,-175.5"/>
<polygon fill="#63b8ff" stroke="#63b8ff" points="117.62,-179 127.62,-175.5 117.62,-172 117.62,-179"/>
</a>
</g>
</g>
<!-- Node3 -->
<g id="Node000003" class="node">
<title>Node3</title>
<g id="a_Node000003"><a xlink:href="networking_8c.html#ae4e16a7c6d8ea252f0434363561595e1" target="_top" xlink:title=" ">
<polygon fill="white" stroke="#666666" points="380,-167 262,-167 262,-148 380,-148 380,-167"/>
<text text-anchor="middle" x="321" y="-155" font-family="Helvetica,sans-Serif" font-size="10.00">handleReceivedData</text>
</a>
</g>
</g>
<!-- Node2&#45;&gt;Node3 -->
<g id="edge2_Node000002_Node000003" class="edge">
<title>Node2&#45;&gt;Node3</title>
<g id="a_edge2_Node000002_Node000003"><a xlink:title=" ">
<path fill="none" stroke="#63b8ff" d="M226.07,-169.41C234.34,-168.36 243.08,-167.25 251.76,-166.15"/>
<polygon fill="#63b8ff" stroke="#63b8ff" points="252.41,-169.6 261.89,-164.87 251.53,-162.65 252.41,-169.6"/>
</a>
</g>
</g>
<!-- Node18 -->
<g id="Node000018" class="node">
<title>Node18</title>
<g id="a_Node000018"><a xlink:href="networking_8c.html#a840ac4cfb918d97373907c0a176ce5c5" target="_top" xlink:title=" ">
<polygon fill="white" stroke="#666666" points="378.5,-259 263.5,-259 263.5,-240 378.5,-240 378.5,-259"/>
<text text-anchor="middle" x="321" y="-247" font-family="Helvetica,sans-Serif" font-size="10.00">networking_cleanup</text>
</a>
</g>
</g>
<!-- Node2&#45;&gt;Node18 -->
<g id="edge17_Node000002_Node000018" class="edge">
<title>Node2&#45;&gt;Node18</title>
<g id="a_edge17_Node000002_Node000018"><a xlink:title=" ">
<path fill="none" stroke="#63b8ff" d="M196.27,-185.02C220.64,-197.72 263.97,-220.3 292.35,-235.09"/>
<polygon fill="#63b8ff" stroke="#63b8ff" points="290.86,-238.26 301.35,-239.78 294.1,-232.05 290.86,-238.26"/>
</a>
</g>
</g>
<!-- Node4 -->
<g id="Node000004" class="node">
<title>Node4</title>
<g id="a_Node000004"><a xlink:href="start__game_8c.html#a2e086956a1c0bd2f6ac8111273c3cb29" target="_top" xlink:title=" ">
<polygon fill="white" stroke="#666666" points="543,-278 430,-278 430,-259 543,-259 543,-278"/>
<text text-anchor="middle" x="486.5" y="-266" font-family="Helvetica,sans-Serif" font-size="10.00">assign_player_slots</text>
</a>
</g>
</g>
<!-- Node3&#45;&gt;Node4 -->
<g id="edge3_Node000003_Node000004" class="edge">
<title>Node3&#45;&gt;Node4</title>
<g id="a_edge3_Node000003_Node000004"><a xlink:title=" ">
<path fill="none" stroke="#63b8ff" d="M328.84,-167.06C342.91,-186 377.08,-228.38 416,-250.5 419.07,-252.25 422.32,-253.83 425.66,-255.26"/>
<polygon fill="#63b8ff" stroke="#63b8ff" points="424.68,-258.63 435.27,-258.9 427.16,-252.08 424.68,-258.63"/>
</a>
</g>
</g>
<!-- Node6 -->
<g id="Node000006" class="node">
<title>Node6</title>
<g id="a_Node000006"><a xlink:href="packets_8c.html#a9043558ea9ec5add45661c92ec55ae93" target="_top" xlink:title=" ">
<polygon fill="white" stroke="#666666" points="541.5,-204 431.5,-204 431.5,-185 541.5,-185 541.5,-204"/>
<text text-anchor="middle" x="486.5" y="-192" font-family="Helvetica,sans-Serif" font-size="10.00">handle_start_game</text>
</a>
</g>
</g>
<!-- Node3&#45;&gt;Node6 -->
<g id="edge5_Node000003_Node000006" class="edge">
<title>Node3&#45;&gt;Node6</title>
<g id="a_edge5_Node000003_Node000006"><a xlink:title=" ">
<path fill="none" stroke="#63b8ff" d="M364.11,-167.03C385.19,-171.8 410.92,-177.62 433.26,-182.68"/>
<polygon fill="#63b8ff" stroke="#63b8ff" points="432.73,-186.15 443.25,-184.94 434.27,-179.32 432.73,-186.15"/>
</a>
</g>
</g>
<!-- Node7 -->
<g id="Node000007" class="node">
<title>Node7</title>
<g id="a_Node000007"><a xlink:href="packets_8c.html#a47d880268cfe380cc1bb2d92dbf3c293" target="_top" xlink:title=" ">
<polygon fill="white" stroke="#666666" points="536,-167 437,-167 437,-148 536,-148 536,-167"/>
<text text-anchor="middle" x="486.5" y="-155" font-family="Helvetica,sans-Serif" font-size="10.00">handleJoinPacket</text>
</a>
</g>
</g>
<!-- Node3&#45;&gt;Node7 -->
<g id="edge6_Node000003_Node000007" class="edge">
<title>Node3&#45;&gt;Node7</title>
<g id="a_edge6_Node000003_Node000007"><a xlink:title=" ">
<path fill="none" stroke="#63b8ff" d="M380.1,-157.5C395.17,-157.5 411.41,-157.5 426.51,-157.5"/>
<polygon fill="#63b8ff" stroke="#63b8ff" points="426.77,-161 436.77,-157.5 426.77,-154 426.77,-161"/>
</a>
</g>
</g>
<!-- Node8 -->
<g id="Node000008" class="node">
<title>Node8</title>
<g id="a_Node000008"><a xlink:href="packets_8c.html#afc70931364035c41b086f0473286bba5" target="_top" xlink:title=" ">
<polygon fill="white" stroke="#666666" points="541.5,-130 431.5,-130 431.5,-111 541.5,-111 541.5,-130"/>
<text text-anchor="middle" x="486.5" y="-118" font-family="Helvetica,sans-Serif" font-size="10.00">handleLeavePacket</text>
</a>
</g>
</g>
<!-- Node3&#45;&gt;Node8 -->
<g id="edge7_Node000003_Node000008" class="edge">
<title>Node3&#45;&gt;Node8</title>
<g id="a_edge7_Node000003_Node000008"><a xlink:title=" ">
<path fill="none" stroke="#63b8ff" d="M364.11,-147.97C385.19,-143.2 410.92,-137.38 433.26,-132.32"/>
<polygon fill="#63b8ff" stroke="#63b8ff" points="434.27,-135.68 443.25,-130.06 432.73,-128.85 434.27,-135.68"/>
</a>
</g>
</g>
<!-- Node9 -->
<g id="Node000009" class="node">
<title>Node9</title>
<g id="a_Node000009"><a xlink:href="packets_8c.html#acc50de836de3a56188f73581f84afc83" target="_top" xlink:title=" ">
<polygon fill="white" stroke="#666666" points="549,-93 424,-93 424,-74 549,-74 549,-93"/>
<text text-anchor="middle" x="486.5" y="-81" font-family="Helvetica,sans-Serif" font-size="10.00">handleMessagePacket</text>
</a>
</g>
</g>
<!-- Node3&#45;&gt;Node9 -->
<g id="edge8_Node000003_Node000009" class="edge">
<title>Node3&#45;&gt;Node9</title>
<g id="a_edge8_Node000003_Node000009"><a xlink:title=" ">
<path fill="none" stroke="#63b8ff" d="M335.73,-147.9C353.52,-135.84 385.85,-115.18 416,-102.5 421.75,-100.08 427.9,-97.88 434.07,-95.91"/>
<polygon fill="#63b8ff" stroke="#63b8ff" points="435.17,-99.24 443.74,-93 433.15,-92.53 435.17,-99.24"/>
</a>
</g>
</g>
<!-- Node10 -->
<g id="Node000010" class="node">
<title>Node10</title>
<g id="a_Node000010"><a xlink:href="start__game_8c.html#a2bfff8ec22628d92c889dd558cc9ac3d" target="_top" xlink:title=" ">
<polygon fill="white" stroke="#666666" points="557,-56 416,-56 416,-37 557,-37 557,-56"/>
<text text-anchor="middle" x="486.5" y="-44" font-family="Helvetica,sans-Serif" font-size="10.00">networking_start_session</text>
</a>
</g>
</g>
<!-- Node3&#45;&gt;Node10 -->
<g id="edge9_Node000003_Node000010" class="edge">
<title>Node3&#45;&gt;Node10</title>
<g id="a_edge9_Node000003_Node000010"><a xlink:title=" ">
<path fill="none" stroke="#63b8ff" d="M328.84,-147.94C342.91,-129 377.08,-86.62 416,-64.5 419.07,-62.75 422.32,-61.17 425.66,-59.74"/>
<polygon fill="#63b8ff" stroke="#63b8ff" points="427.16,-62.92 435.27,-56.1 424.68,-56.37 427.16,-62.92"/>
</a>
</g>
</g>
<!-- Node16 -->
<g id="Node000016" class="node">
<title>Node16</title>
<g id="a_Node000016"><a xlink:href="replication_8c.html#a9af574783710ca07ce7e2bc6fefc76b6" target="_top" xlink:title=" ">
<polygon fill="white" stroke="#666666" points="534,-19 439,-19 439,0 534,0 534,-19"/>
<text text-anchor="middle" x="486.5" y="-7" font-family="Helvetica,sans-Serif" font-size="10.00">replicate_player</text>
</a>
</g>
</g>
<!-- Node3&#45;&gt;Node16 -->
<g id="edge15_Node000003_Node000016" class="edge">
<title>Node3&#45;&gt;Node16</title>
<g id="a_edge15_Node000003_Node000016"><a xlink:title=" ">
<path fill="none" stroke="#63b8ff" d="M326.09,-147.91C336.94,-123.69 368.85,-59.7 416,-27.5 420.03,-24.75 424.46,-22.41 429.07,-20.44"/>
<polygon fill="#63b8ff" stroke="#63b8ff" points="430.55,-23.62 438.7,-16.86 428.11,-17.06 430.55,-23.62"/>
</a>
</g>
</g>
<!-- Node17 -->
<g id="Node000017" class="node">
<title>Node17</title>
<g id="a_Node000017"><a xlink:href="start__game_8c.html#a398b9ba81e585f81d5b86d2ca26f8708" target="_top" xlink:title=" ">
<polygon fill="white" stroke="#666666" points="521,-241 452,-241 452,-222 521,-222 521,-241"/>
<text text-anchor="middle" x="486.5" y="-229" font-family="Helvetica,sans-Serif" font-size="10.00">set_course</text>
</a>
</g>
</g>
<!-- Node3&#45;&gt;Node17 -->
<g id="edge16_Node000003_Node000017" class="edge">
<title>Node3&#45;&gt;Node17</title>
<g id="a_edge16_Node000003_Node000017"><a xlink:title=" ">
<path fill="none" stroke="#63b8ff" d="M335.37,-167.14C353.03,-179.47 385.5,-200.77 416,-213.5 424.27,-216.95 433.38,-219.89 442.21,-222.32"/>
<polygon fill="#63b8ff" stroke="#63b8ff" points="441.43,-225.73 451.99,-224.86 443.19,-218.96 441.43,-225.73"/>
</a>
</g>
</g>
<!-- Node5 -->
<g id="Node000005" class="node">
<title>Node5</title>
<g id="a_Node000005"><a xlink:href="string_8c.html#ad7f1ae1bbb49dece44bda378982a704d" target="_top" xlink:title=" ">
<polygon fill="white" stroke="#666666" points="668.5,-278 609.5,-278 609.5,-259 668.5,-259 668.5,-278"/>
<text text-anchor="middle" x="639" y="-266" font-family="Helvetica,sans-Serif" font-size="10.00">memcpy</text>
</a>
</g>
</g>
<!-- Node4&#45;&gt;Node5 -->
<g id="edge4_Node000004_Node000005" class="edge">
<title>Node4&#45;&gt;Node5</title>
<g id="a_edge4_Node000004_Node000005"><a xlink:title=" ">
<path fill="none" stroke="#63b8ff" d="M543.11,-268.5C561.7,-268.5 582,-268.5 599.04,-268.5"/>
<polygon fill="#63b8ff" stroke="#63b8ff" points="599.18,-272 609.18,-268.5 599.18,-265 599.18,-272"/>
</a>
</g>
</g>
<!-- Node11 -->
<g id="Node000011" class="node">
<title>Node11</title>
<g id="a_Node000011"><a xlink:href="menu__items_8c.html#a57e1e920cc29e6d1b13f4ebf198a6f3c" target="_top" xlink:title=" ">
<polygon fill="white" stroke="#666666" points="685,-75 593,-75 593,-56 685,-56 685,-75"/>
<text text-anchor="middle" x="639" y="-63" font-family="Helvetica,sans-Serif" font-size="10.00">func_8009E1C0</text>
</a>
</g>
</g>
<!-- Node10&#45;&gt;Node11 -->
<g id="edge10_Node000010_Node000011" class="edge">
<title>Node10&#45;&gt;Node11</title>
<g id="a_edge10_Node000010_Node000011"><a xlink:title=" ">
<path fill="none" stroke="#63b8ff" d="M557.02,-55.28C565.67,-56.37 574.43,-57.47 582.82,-58.53"/>
<polygon fill="#63b8ff" stroke="#63b8ff" points="582.49,-62.02 592.85,-59.8 583.37,-55.07 582.49,-62.02"/>
</a>
</g>
</g>
<!-- Node14 -->
<g id="Node000014" class="node">
<title>Node14</title>
<g id="a_Node000014"><a xlink:href="external_8c.html#ab8fa6fbe4bd78d8282bb696133e77f6c" target="_top" xlink:title=" ">
<polygon fill="white" stroke="#666666" points="685,-38 593,-38 593,-19 685,-19 685,-38"/>
<text text-anchor="middle" x="639" y="-26" font-family="Helvetica,sans-Serif" font-size="10.00">func_800CA330</text>
</a>
</g>
</g>
<!-- Node10&#45;&gt;Node14 -->
<g id="edge13_Node000010_Node000014" class="edge">
<title>Node10&#45;&gt;Node14</title>
<g id="a_edge13_Node000010_Node000014"><a xlink:title=" ">
<path fill="none" stroke="#63b8ff" d="M557.02,-38.18C565.67,-37.15 574.43,-36.1 582.82,-35.1"/>
<polygon fill="#63b8ff" stroke="#63b8ff" points="583.34,-38.56 592.85,-33.9 582.5,-31.61 583.34,-38.56"/>
</a>
</g>
</g>
<!-- Node12 -->
<g id="Node000012" class="node">
<title>Node12</title>
<g id="a_Node000012"><a xlink:href="menu__items_8c.html#a485ad7e52b54cd47cb14ce60384c34b5" target="_top" xlink:title=" ">
<polygon fill="white" stroke="#666666" points="813,-75 721,-75 721,-56 813,-56 813,-75"/>
<text text-anchor="middle" x="767" y="-63" font-family="Helvetica,sans-Serif" font-size="10.00">func_8009DFE0</text>
</a>
</g>
</g>
<!-- Node11&#45;&gt;Node12 -->
<g id="edge11_Node000011_Node000012" class="edge">
<title>Node11&#45;&gt;Node12</title>
<g id="a_edge11_Node000011_Node000012"><a xlink:title=" ">
<path fill="none" stroke="#63b8ff" d="M685.13,-65.5C693.37,-65.5 702.04,-65.5 710.53,-65.5"/>
<polygon fill="#63b8ff" stroke="#63b8ff" points="710.76,-69 720.76,-65.5 710.76,-62 710.76,-69"/>
</a>
</g>
</g>
<!-- Node13 -->
<g id="Node000013" class="node">
<title>Node13</title>
<g id="a_Node000013"><a xlink:href="menu__items_8c.html#ad38092d257433fcbbac4e1fd80b3b5bd" target="_top" xlink:title=" ">
<polygon fill="white" stroke="#666666" points="942,-75 849,-75 849,-56 942,-56 942,-75"/>
<text text-anchor="middle" x="895.5" y="-63" font-family="Helvetica,sans-Serif" font-size="10.00">func_8009DF8C</text>
</a>
</g>
</g>
<!-- Node12&#45;&gt;Node13 -->
<g id="edge12_Node000012_Node000013" class="edge">
<title>Node12&#45;&gt;Node13</title>
<g id="a_edge12_Node000012_Node000013"><a xlink:title=" ">
<path fill="none" stroke="#63b8ff" d="M813.31,-65.5C821.48,-65.5 830.08,-65.5 838.5,-65.5"/>
<polygon fill="#63b8ff" stroke="#63b8ff" points="838.65,-69 848.65,-65.5 838.65,-62 838.65,-69"/>
</a>
</g>
</g>
<!-- Node15 -->
<g id="Node000015" class="node">
<title>Node15</title>
<g id="a_Node000015"><a xlink:href="external_8c.html#ac48b7cbfcaa7737f892877ead85e4ba7" target="_top" xlink:title=" ">
<polygon fill="white" stroke="#666666" points="813,-38 721,-38 721,-19 813,-19 813,-38"/>
<text text-anchor="middle" x="767" y="-26" font-family="Helvetica,sans-Serif" font-size="10.00">func_800C3448</text>
</a>
</g>
</g>
<!-- Node14&#45;&gt;Node15 -->
<g id="edge14_Node000014_Node000015" class="edge">
<title>Node14&#45;&gt;Node15</title>
<g id="a_edge14_Node000014_Node000015"><a xlink:title=" ">
<path fill="none" stroke="#63b8ff" d="M685.13,-28.5C693.37,-28.5 702.04,-28.5 710.53,-28.5"/>
<polygon fill="#63b8ff" stroke="#63b8ff" points="710.76,-32 720.76,-28.5 710.76,-25 710.76,-32"/>
</a>
</g>
</g>
<!-- Node19 -->
<g id="Node000019" class="node">
<title>Node19</title>
<g id="a_Node000019"><a xlink:href="packets_8c.html#af9536eb7dd70435bff139db61e546862" target="_top" xlink:title=" ">
<polygon fill="white" stroke="#666666" points="534,-315 439,-315 439,-296 534,-296 534,-315"/>
<text text-anchor="middle" x="486.5" y="-303" font-family="Helvetica,sans-Serif" font-size="10.00">send_str_packet</text>
</a>
</g>
</g>
<!-- Node18&#45;&gt;Node19 -->
<g id="edge18_Node000018_Node000019" class="edge">
<title>Node18&#45;&gt;Node19</title>
<g id="a_edge18_Node000018_Node000019"><a xlink:title=" ">
<path fill="none" stroke="#63b8ff" d="M343.36,-259.07C362.22,-267.29 390.59,-279.11 416,-287.5 422.06,-289.5 428.47,-291.42 434.86,-293.21"/>
<polygon fill="#63b8ff" stroke="#63b8ff" points="434.25,-296.67 444.81,-295.91 436.08,-289.92 434.25,-296.67"/>
</a>
</g>
</g>
<!-- Node19&#45;&gt;Node5 -->
<g id="edge19_Node000019_Node000005" class="edge">
<title>Node19&#45;&gt;Node5</title>
<g id="a_edge19_Node000019_Node000005"><a xlink:title=" ">
<path fill="none" stroke="#63b8ff" d="M526.26,-295.97C548.76,-290.44 577.02,-283.49 599.48,-277.97"/>
<polygon fill="#63b8ff" stroke="#63b8ff" points="600.48,-281.33 609.36,-275.54 598.81,-274.53 600.48,-281.33"/>
</a>
</g>
</g>
<!-- Node20 -->
<g id="Node000020" class="node">
<title>Node20</title>
<g id="a_Node000020"><a xlink:href="string_8c.html#a008e171a518fe0e0352f31b245e03875" target="_top" xlink:title=" ">
<polygon fill="white" stroke="#666666" points="661,-315 617,-315 617,-296 661,-296 661,-315"/>
<text text-anchor="middle" x="639" y="-303" font-family="Helvetica,sans-Serif" font-size="10.00">strlen</text>
</a>
</g>
</g>
<!-- Node19&#45;&gt;Node20 -->
<g id="edge20_Node000019_Node000020" class="edge">
<title>Node19&#45;&gt;Node20</title>
<g id="a_edge20_Node000019_Node000020"><a xlink:title=" ">
<path fill="none" stroke="#63b8ff" d="M534.29,-305.5C557.81,-305.5 585.67,-305.5 606.59,-305.5"/>
<polygon fill="#63b8ff" stroke="#63b8ff" points="606.84,-309 616.84,-305.5 606.84,-302 606.84,-309"/>
</a>
</g>
</g>
</g>
</svg>

<g id="navigator" transform="translate(0 0)" fill="#404254">
  <rect fill="#f2f5e9" fill-opacity="0.5" stroke="#606060" stroke-width=".5" x="0" y="0" width="60" height="60"/>
  <use id="zoomplus" xlink:href="#zoomPlus" x="17" y="9" onmousedown="handleZoom(evt,'in')"/>
  <use id="zoomminus" xlink:href="#zoomMin" x="42" y="9" onmousedown="handleZoom(evt,'out')"/>
  <use id="reset" xlink:href="#resetDef" x="30" y="36" onmousedown="handleReset()"/>
   <use id="arrowup" xlink:href="#arrowUp" x="0" y="0" onmousedown="handlePan(0,-1)"/>
  <use id="arrowright" xlink:href="#arrowRight" x="0" y="0" onmousedown="handlePan(1,0)"/>
  <use id="arrowdown" xlink:href="#arrowDown" x="0" y="0" onmousedown="handlePan(0,1)"/>
  <use id="arrowleft" xlink:href="#arrowLeft" x="0" y="0" onmousedown="handlePan(-1,0)"/>
</g>
<svg viewBox="0 0 15 15" width="100%" height="30px" preserveAspectRatio="xMaxYMin meet">
 <g id="arrow_out" transform="scale(0.3 0.3)">
  <a xlink:href="networking_8h_a2b0991e893dd2f433a112ea46449bd4e_cgraph_org.svg" target="_base">
   <rect id="button" ry="5" rx="5" y="6" x="6" height="38" width="38"
        fill="#f2f5e9" fill-opacity="0.5" stroke="#606060" stroke-width="1.0"/>
   <path id="arrow"
     d="M 11.500037,31.436501 C 11.940474,20.09759 22.043105,11.32322 32.158766,21.979434 L 37.068811,17.246167 C 37.068811,17.246167 37.088388,32 37.088388,32 L 22.160133,31.978069 C 22.160133,31.978069 26.997745,27.140456 26.997745,27.140456 C 18.528582,18.264221 13.291696,25.230495 11.500037,31.436501 z"
     style="fill:#404040;"/>
  </a>
 </g>
</svg>

<style type='text/css'>
<![CDATA[
[data-mouse-over-selected='false'] { opacity: 0.7; }
[data-mouse-over-selected='true']  { opacity: 1.0; }
]]>
</style>
<script type="application/ecmascript"><![CDATA[
document.addEventListener('DOMContentLoaded', (event) => {
  highlightEdges();
  highlightAdjacentNodes();
});
]]></script>
</svg>
