<?xml version="1.0" encoding="UTF-8" standalone="no"?>
<!DOCTYPE svg PUBLIC "-//W3C//DTD SVG 1.1//EN"
 "http://www.w3.org/Graphics/SVG/1.1/DTD/svg11.dtd">
<!-- Generated by graphviz version 2.43.0 (0)
 -->
<!-- Title: osPiStartDma Pages: 1 -->
<!--zoomable 1233 -->

<svg id="main" version="1.1" xmlns="http://www.w3.org/2000/svg" xmlns:xlink="http://www.w3.org/1999/xlink" xml:space="preserve" onload="init(evt)">

<style type="text/css"><![CDATA[
.node, .edge {opacity: 0.7;}
.node.selected, .edge.selected {opacity: 1;}
.edge:hover path { stroke: red; }
.edge:hover polygon { stroke: red; fill: red; }
]]></style>

<defs>
  <circle id="rim" cx="0" cy="0" r="7"/>
  <circle id="rim2" cx="0" cy="0" r="3.5"/>
  <g id="zoomPlus">
    <use xlink:href="#rim" fill="#404040"><set attributeName="fill" to="#808080" begin="zoomplus.mouseover" end="zoomplus.mouseout"/></use>
    <path d="M-4,0h8M0,-4v8" fill="none" stroke="white" stroke-width="1.5" pointer-events="none"/>
  </g>
  <g id="zoomMin">
    <use xlink:href="#rim" fill="#404040"><set attributeName="fill" to="#808080" begin="zoomminus.mouseover" end="zoomminus.mouseout"/></use>
    <path d="M-4,0h8" fill="none" stroke="white" stroke-width="1.5" pointer-events="none"/>
  </g>
  <g id="arrowUp" transform="translate(30 24)">
    <use xlink:href="#rim"/>
    <path pointer-events="none" fill="none" stroke="white" stroke-width="1.5" d="M0,-3.0v7 M-2.5,-0.5L0,-3.0L2.5,-0.5"/>
  </g>
  <g id="arrowRight" transform="rotate(90) translate(36 -43)">
    <use xlink:href="#rim"/>
    <path pointer-events="none" fill="none" stroke="white" stroke-width="1.5" d="M0,-3.0v7 M-2.5,-0.5L0,-3.0L2.5,-0.5"/>
  </g>
  <g id="arrowDown" transform="rotate(180) translate(-30 -48)">
    <use xlink:href="#rim"/>
    <path pointer-events="none" fill="none" stroke="white" stroke-width="1.5" d="M0,-3.0v7 M-2.5,-0.5L0,-3.0L2.5,-0.5"/>
  </g>
  <g id="arrowLeft" transform="rotate(270) translate(-36 17)">
    <use xlink:href="#rim"/>
    <path pointer-events="none" fill="none" stroke="white" stroke-width="1.5" d="M0,-3.0v7 M-2.5,-0.5L0,-3.0L2.5,-0.5"/>
  </g>
  <g id="resetDef">
    <use xlink:href="#rim2" fill="#404040"><set attributeName="fill" to="#808080" begin="reset.mouseover" end="reset.mouseout"/></use>
  </g>
</defs>
<script type="application/ecmascript">
var viewWidth = 488;
var viewHeight = 1233;
var sectionId = 'dynsection-2';
</script>
<script type="application/ecmascript" xlink:href="svg.min.js"/>
<svg id="graph" class="graph">
<g id="viewport">
<title>osPiStartDma</title>
<!-- Node1 -->
<g id="Node000001" class="node">
<title>Node1</title>
<g id="a_Node000001"><a xlink:title=" ">
<polygon fill="#999999" stroke="#666666" points="480,-352 397,-352 397,-333 480,-333 480,-352"/>
<text text-anchor="middle" x="438.5" y="-340" font-family="Helvetica,sans-Serif" font-size="10.00">osPiStartDma</text>
</a>
</g>
</g>
<!-- Node2 -->
<g id="Node000002" class="node">
<title>Node2</title>
<g id="a_Node000002"><a xlink:href="load_8c.html#a5f475204592707b7fb57147de74f1350" target="_top" xlink:title=" ">
<polygon fill="white" stroke="#666666" points="348.5,-1188 215.5,-1188 215.5,-1169 348.5,-1169 348.5,-1188"/>
<text text-anchor="middle" x="282" y="-1176" font-family="Helvetica,sans-Serif" font-size="10.00">audio_dma_copy_async</text>
</a>
</g>
</g>
<!-- Node1&#45;&gt;Node2 -->
<g id="edge1_Node000001_Node000002" class="edge">
<title>Node1&#45;&gt;Node2</title>
<g id="a_edge1_Node000001_Node000002"><a xlink:title=" ">
<path fill="none" stroke="#63b8ff" d="M437.75,-362.36C438.77,-470.53 439.44,-988.74 361,-1123.5 348.58,-1144.84 324.19,-1159.97 305.98,-1168.89"/>
<polygon fill="#63b8ff" stroke="#63b8ff" points="441.24,-362.17 437.64,-352.21 434.25,-362.24 441.24,-362.17"/>
</a>
</g>
</g>
<!-- Node4 -->
<g id="Node000004" class="node">
<title>Node4</title>
<g id="a_Node000004"><a xlink:href="load_8c.html#a7512c5eea1c942521c019a033b962fd1" target="_top" xlink:title=" ">
<polygon fill="white" stroke="#666666" points="361,-1114 203,-1114 203,-1095 361,-1095 361,-1114"/>
<text text-anchor="middle" x="282" y="-1102" font-family="Helvetica,sans-Serif" font-size="10.00">audio_dma_copy_immediate</text>
</a>
</g>
</g>
<!-- Node1&#45;&gt;Node4 -->
<g id="edge3_Node000001_Node000004" class="edge">
<title>Node1&#45;&gt;Node4</title>
<g id="a_edge3_Node000001_Node000004"><a xlink:title=" ">
<path fill="none" stroke="#63b8ff" d="M438.05,-362.13C439.68,-441.29 440.12,-743.83 361,-974.5 344.18,-1023.55 307.06,-1074.09 290.84,-1094.78"/>
<polygon fill="#63b8ff" stroke="#63b8ff" points="441.55,-362.02 437.81,-352.11 434.55,-362.19 441.55,-362.02"/>
</a>
</g>
</g>
<!-- Node25 -->
<g id="Node000025" class="node">
<title>Node25</title>
<g id="a_Node000025"><a xlink:href="load_8c.html#a457d5796436a0592dd6595a397a9475d" target="_top" xlink:title=" ">
<polygon fill="white" stroke="#666666" points="350,-965.5 214,-965.5 214,-935.5 350,-935.5 350,-965.5"/>
<text text-anchor="start" x="222" y="-953.5" font-family="Helvetica,sans-Serif" font-size="10.00">audio_dma_partial_copy</text>
<text text-anchor="middle" x="282" y="-942.5" font-family="Helvetica,sans-Serif" font-size="10.00">_async</text>
</a>
</g>
</g>
<!-- Node1&#45;&gt;Node25 -->
<g id="edge10_Node000001_Node000025" class="edge">
<title>Node1&#45;&gt;Node25</title>
<g id="a_edge10_Node000001_Node000025"><a xlink:title=" ">
<path fill="none" stroke="#63b8ff" d="M437.13,-362.41C435.3,-429.65 424.49,-653.68 361,-824.5 344.87,-867.91 312.86,-912.57 295.28,-935.26"/>
<polygon fill="#63b8ff" stroke="#63b8ff" points="440.64,-362.12 437.37,-352.04 433.64,-361.95 440.64,-362.12"/>
</a>
</g>
</g>
<!-- Node27 -->
<g id="Node000027" class="node">
<title>Node27</title>
<g id="a_Node000027"><a xlink:href="main_8c.html#ae65702968508faa083fb901ff89020d8" target="_top" xlink:title=" ">
<polygon fill="white" stroke="#666666" points="315.5,-815 248.5,-815 248.5,-796 315.5,-796 315.5,-815"/>
<text text-anchor="middle" x="282" y="-803" font-family="Helvetica,sans-Serif" font-size="10.00">dma_copy</text>
</a>
</g>
</g>
<!-- Node1&#45;&gt;Node27 -->
<g id="edge13_Node000001_Node000027" class="edge">
<title>Node1&#45;&gt;Node27</title>
<g id="a_edge13_Node000001_Node000027"><a xlink:title=" ">
<path fill="none" stroke="#63b8ff" d="M431.05,-361.84C404.65,-440.95 305.36,-738.48 286.21,-795.88"/>
<polygon fill="#63b8ff" stroke="#63b8ff" points="434.43,-362.76 434.27,-352.17 427.79,-360.55 434.43,-362.76"/>
</a>
</g>
</g>
<!-- Node78 -->
<g id="Node000078" class="node">
<title>Node78</title>
<g id="a_Node000078"><a xlink:href="code__8006E9C0_8c.html#a09ec8bcaa5cabb80cf56de274ab1408b" target="_top" xlink:title=" ">
<polygon fill="white" stroke="#666666" points="338.5,-500 225.5,-500 225.5,-481 338.5,-481 338.5,-500"/>
<text text-anchor="middle" x="282" y="-488" font-family="Helvetica,sans-Serif" font-size="10.00">dma_misc_textures</text>
</a>
</g>
</g>
<!-- Node1&#45;&gt;Node78 -->
<g id="edge19_Node000001_Node000078" class="edge">
<title>Node1&#45;&gt;Node78</title>
<g id="a_edge19_Node000001_Node000078"><a xlink:title=" ">
<path fill="none" stroke="#63b8ff" d="M431.62,-361.85C421.83,-390.63 399.38,-444.35 361,-472.5 354.39,-477.35 346.68,-480.92 338.73,-483.54"/>
<polygon fill="#63b8ff" stroke="#63b8ff" points="435.01,-362.73 434.76,-352.14 428.35,-360.58 435.01,-362.73"/>
</a>
</g>
</g>
<!-- Node79 -->
<g id="Node000079" class="node">
<title>Node79</title>
<g id="a_Node000079"><a xlink:href="load_8c.html#a61a9e264594f48435c7981c9b17e7505" target="_top" xlink:title=" ">
<polygon fill="white" stroke="#666666" points="335.5,-463 228.5,-463 228.5,-444 335.5,-444 335.5,-463"/>
<text text-anchor="middle" x="282" y="-451" font-family="Helvetica,sans-Serif" font-size="10.00">dma_sample_data</text>
</a>
</g>
</g>
<!-- Node1&#45;&gt;Node79 -->
<g id="edge20_Node000001_Node000079" class="edge">
<title>Node1&#45;&gt;Node79</title>
<g id="a_edge20_Node000001_Node000079"><a xlink:title=" ">
<path fill="none" stroke="#63b8ff" d="M427.43,-360.94C414.78,-382.28 391.05,-416.88 361,-435.5 353.32,-440.26 344.51,-443.76 335.64,-446.34"/>
<polygon fill="#63b8ff" stroke="#63b8ff" points="430.52,-362.59 432.44,-352.17 424.44,-359.11 430.52,-362.59"/>
</a>
</g>
</g>
<!-- Node80 -->
<g id="Node000080" class="node">
<title>Node80</title>
<g id="a_Node000080"><a xlink:href="memory_8c.html#a56dd580b5f9113b83709d1f11181e6a7" target="_top" xlink:title=" ">
<polygon fill="white" stroke="#666666" points="324,-426 240,-426 240,-407 324,-407 324,-426"/>
<text text-anchor="middle" x="282" y="-414" font-family="Helvetica,sans-Serif" font-size="10.00">dma_textures</text>
</a>
</g>
</g>
<!-- Node1&#45;&gt;Node80 -->
<g id="edge21_Node000001_Node000080" class="edge">
<title>Node1&#45;&gt;Node80</title>
<g id="a_edge21_Node000001_Node000080"><a xlink:title=" ">
<path fill="none" stroke="#63b8ff" d="M419.2,-359.23C404.5,-371.81 382.77,-388.53 361,-398.5 349.5,-403.76 336.32,-407.56 324.11,-410.27"/>
<polygon fill="#63b8ff" stroke="#63b8ff" points="421.79,-361.62 427,-352.39 417.17,-356.36 421.79,-361.62"/>
</a>
</g>
</g>
<!-- Node98 -->
<g id="Node000098" class="node">
<title>Node98</title>
<g id="a_Node000098"><a xlink:href="menu__items_8c.html#abb491fbf848c6e5509054ad65807818b" target="_top" xlink:title=" ">
<polygon fill="white" stroke="#666666" points="328,-389 236,-389 236,-370 328,-370 328,-389"/>
<text text-anchor="middle" x="282" y="-377" font-family="Helvetica,sans-Serif" font-size="10.00">func_80099EC4</text>
</a>
</g>
</g>
<!-- Node1&#45;&gt;Node98 -->
<g id="edge37_Node000001_Node000098" class="edge">
<title>Node1&#45;&gt;Node98</title>
<g id="a_edge37_Node000001_Node000098"><a xlink:title=" ">
<path fill="none" stroke="#63b8ff" d="M389.69,-354.5C380.19,-356.85 370.28,-359.28 361,-361.5 349.38,-364.28 336.76,-367.23 325.13,-369.91"/>
<polygon fill="#63b8ff" stroke="#63b8ff" points="390.53,-357.9 399.4,-352.1 388.85,-351.11 390.53,-357.9"/>
</a>
</g>
</g>
<!-- Node99 -->
<g id="Node000099" class="node">
<title>Node99</title>
<g id="a_Node000099"><a xlink:href="memory_8c.html#ae7d023f0c1a0b6a8996141ce3b04a287" target="_top" xlink:title=" ">
<polygon fill="white" stroke="#666666" points="328,-352 236,-352 236,-333 328,-333 328,-352"/>
<text text-anchor="middle" x="282" y="-340" font-family="Helvetica,sans-Serif" font-size="10.00">func_802A80B0</text>
</a>
</g>
</g>
<!-- Node1&#45;&gt;Node99 -->
<g id="edge40_Node000001_Node000099" class="edge">
<title>Node1&#45;&gt;Node99</title>
<g id="a_edge40_Node000001_Node000099"><a xlink:title=" ">
<path fill="none" stroke="#63b8ff" d="M386.7,-342.5C367.83,-342.5 346.56,-342.5 328.22,-342.5"/>
<polygon fill="#63b8ff" stroke="#63b8ff" points="386.91,-346 396.91,-342.5 386.91,-339 386.91,-346"/>
</a>
</g>
</g>
<!-- Node103 -->
<g id="Node000103" class="node">
<title>Node103</title>
<g id="a_Node000103"><a xlink:href="memory_8c.html#acd784e3b98898b26dc1ade488cfeab58" target="_top" xlink:title=" ">
<polygon fill="white" stroke="#666666" points="328,-315 236,-315 236,-296 328,-296 328,-315"/>
<text text-anchor="middle" x="282" y="-303" font-family="Helvetica,sans-Serif" font-size="10.00">func_802A8348</text>
</a>
</g>
</g>
<!-- Node1&#45;&gt;Node103 -->
<g id="edge43_Node000001_Node000103" class="edge">
<title>Node1&#45;&gt;Node103</title>
<g id="a_edge43_Node000001_Node000103"><a xlink:title=" ">
<path fill="none" stroke="#63b8ff" d="M387.7,-330.57C366.75,-325.56 342.69,-319.79 322.92,-315.06"/>
<polygon fill="#63b8ff" stroke="#63b8ff" points="387.17,-334.05 397.71,-332.97 388.8,-327.24 387.17,-334.05"/>
</a>
</g>
</g>
<!-- Node104 -->
<g id="Node000104" class="node">
<title>Node104</title>
<g id="a_Node000104"><a xlink:href="memory_8c.html#a7b12aaf3b5e5b83cb3f2d34398642886" target="_top" xlink:title=" ">
<polygon fill="white" stroke="#666666" points="328,-278 236,-278 236,-259 328,-259 328,-278"/>
<text text-anchor="middle" x="282" y="-266" font-family="Helvetica,sans-Serif" font-size="10.00">func_802A841C</text>
</a>
</g>
</g>
<!-- Node1&#45;&gt;Node104 -->
<g id="edge44_Node000001_Node000104" class="edge">
<title>Node1&#45;&gt;Node104</title>
<g id="a_edge44_Node000001_Node000104"><a xlink:title=" ">
<path fill="none" stroke="#63b8ff" d="M419.12,-326.15C404.36,-313.84 382.62,-297.44 361,-287.5 350.74,-282.78 339.17,-279.15 328.14,-276.38"/>
<polygon fill="#63b8ff" stroke="#63b8ff" points="417.07,-329 426.94,-332.85 421.62,-323.69 417.07,-329"/>
</a>
</g>
</g>
<!-- Node105 -->
<g id="Node000105" class="node">
<title>Node105</title>
<g id="a_Node000105"><a xlink:href="kart__dma_8c.html#a637d0acc4b8a5146a83b664d348b21f2" target="_top" xlink:title=" ">
<polygon fill="#fff0f0" stroke="red" points="332.5,-241 231.5,-241 231.5,-222 332.5,-222 332.5,-241"/>
<text text-anchor="middle" x="282" y="-229" font-family="Helvetica,sans-Serif" font-size="10.00">load_kart_palette</text>
</a>
</g>
</g>
<!-- Node1&#45;&gt;Node105 -->
<g id="edge45_Node000001_Node000105" class="edge">
<title>Node1&#45;&gt;Node105</title>
<g id="a_edge45_Node000001_Node000105"><a xlink:title=" ">
<path fill="none" stroke="#63b8ff" d="M427.34,-324.32C414.61,-303.27 390.8,-269.1 361,-250.5 352.49,-245.19 342.59,-241.36 332.77,-238.6"/>
<polygon fill="#63b8ff" stroke="#63b8ff" points="424.33,-326.1 432.39,-332.97 430.37,-322.57 424.33,-326.1"/>
</a>
</g>
</g>
<!-- Node111 -->
<g id="Node000111" class="node">
<title>Node111</title>
<g id="a_Node000111"><a xlink:href="kart__dma_8c.html#aac244fa71146e9abe9ee94f82ef2e932" target="_top" xlink:title="Place DMA mio0 compressed character textures in a buffer. Later, this data becomes decompressed.">
<polygon fill="#fff0f0" stroke="red" points="333,-204 231,-204 231,-185 333,-185 333,-204"/>
<text text-anchor="middle" x="282" y="-192" font-family="Helvetica,sans-Serif" font-size="10.00">load_kart_texture</text>
</a>
</g>
</g>
<!-- Node1&#45;&gt;Node111 -->
<g id="edge46_Node000001_Node000111" class="edge">
<title>Node1&#45;&gt;Node111</title>
<g id="a_edge46_Node000001_Node000111"><a xlink:title=" ">
<path fill="none" stroke="#63b8ff" d="M431.53,-323.36C421.63,-294.87 399.04,-241.66 361,-213.5 352.82,-207.45 342.97,-203.3 333.05,-200.47"/>
<polygon fill="#63b8ff" stroke="#63b8ff" points="428.24,-324.57 434.71,-332.96 434.89,-322.37 428.24,-324.57"/>
</a>
</g>
</g>
<!-- Node119 -->
<g id="Node000119" class="node">
<title>Node119</title>
<g id="a_Node000119"><a xlink:href="kart__dma_8c.html#ac20009b528ecc201f1f04264d1b32fd4" target="_top" xlink:title=" ">
<polygon fill="#fff0f0" stroke="red" points="344.5,-166.5 219.5,-166.5 219.5,-136.5 344.5,-136.5 344.5,-166.5"/>
<text text-anchor="start" x="227.5" y="-154.5" font-family="Helvetica,sans-Serif" font-size="10.00">load_kart_texture_non</text>
<text text-anchor="middle" x="282" y="-143.5" font-family="Helvetica,sans-Serif" font-size="10.00">_blocking</text>
</a>
</g>
</g>
<!-- Node1&#45;&gt;Node119 -->
<g id="edge47_Node000001_Node000119" class="edge">
<title>Node1&#45;&gt;Node119</title>
<g id="a_edge47_Node000001_Node000119"><a xlink:title=" ">
<path fill="none" stroke="#63b8ff" d="M433.81,-322.78C426.31,-288.16 406.03,-216.36 361,-176.5 356.21,-172.26 350.69,-168.74 344.85,-165.81"/>
<polygon fill="#63b8ff" stroke="#63b8ff" points="430.39,-323.52 435.81,-332.63 437.25,-322.13 430.39,-323.52"/>
</a>
</g>
</g>
<!-- Node124 -->
<g id="Node000124" class="node">
<title>Node124</title>
<g id="a_Node000124"><a xlink:href="kart__dma_8c.html#a56041164eb897332d3b167b653d6c611" target="_top" xlink:title=" ">
<polygon fill="white" stroke="#666666" points="332.5,-118 231.5,-118 231.5,-99 332.5,-99 332.5,-118"/>
<text text-anchor="middle" x="282" y="-106" font-family="Helvetica,sans-Serif" font-size="10.00">load_player_data</text>
</a>
</g>
</g>
<!-- Node1&#45;&gt;Node124 -->
<g id="edge48_Node000001_Node000124" class="edge">
<title>Node1&#45;&gt;Node124</title>
<g id="a_edge48_Node000001_Node000124"><a xlink:title=" ">
<path fill="none" stroke="#63b8ff" d="M436.46,-322.39C433.14,-279.78 419.21,-180.01 361,-127.5 353.13,-120.41 343.06,-115.85 332.79,-112.95"/>
<polygon fill="#63b8ff" stroke="#63b8ff" points="432.98,-322.84 437.13,-332.59 439.97,-322.38 432.98,-322.84"/>
</a>
</g>
</g>
<!-- Node125 -->
<g id="Node000125" class="node">
<title>Node125</title>
<g id="a_Node000125"><a xlink:href="kart__dma_8c.html#a7fcac9592dc14342151b0dcc0f6b0746" target="_top" xlink:title="read data from ROM and write it to the given virtual address">
<polygon fill="#fff0f0" stroke="red" points="338,-80.5 226,-80.5 226,-50.5 338,-50.5 338,-80.5"/>
<text text-anchor="start" x="234" y="-68.5" font-family="Helvetica,sans-Serif" font-size="10.00">load_wheel_palette</text>
<text text-anchor="middle" x="282" y="-57.5" font-family="Helvetica,sans-Serif" font-size="10.00">_non_blocking</text>
</a>
</g>
</g>
<!-- Node1&#45;&gt;Node125 -->
<g id="edge49_Node000001_Node000125" class="edge">
<title>Node1&#45;&gt;Node125</title>
<g id="a_edge49_Node000001_Node000125"><a xlink:title=" ">
<path fill="none" stroke="#63b8ff" d="M437.39,-322.92C436.05,-276.08 426.05,-156.56 361,-90.5 354.61,-84.02 346.55,-79.21 338.04,-75.65"/>
<polygon fill="#63b8ff" stroke="#63b8ff" points="433.89,-323.02 437.57,-332.95 440.89,-322.89 433.89,-323.02"/>
</a>
</g>
</g>
<!-- Node127 -->
<g id="Node000127" class="node">
<title>Node127</title>
<g id="a_Node000127"><a xlink:href="memory_8c.html#a18ab4c1e32c3c90def2fbc839d7ee26c" target="_top" xlink:title=" ">
<polygon fill="#fff0f0" stroke="red" points="311.5,-32 252.5,-32 252.5,-13 311.5,-13 311.5,-32"/>
<text text-anchor="middle" x="282" y="-20" font-family="Helvetica,sans-Serif" font-size="10.00">MIO0_0F</text>
</a>
</g>
</g>
<!-- Node1&#45;&gt;Node127 -->
<g id="edge50_Node000001_Node000127" class="edge">
<title>Node1&#45;&gt;Node127</title>
<g id="a_edge50_Node000001_Node000127"><a xlink:title=" ">
<path fill="none" stroke="#63b8ff" d="M435.13,-322.72C427.5,-262.28 401.67,-81.77 361,-41.5 348.12,-28.75 328.21,-24.05 311.73,-22.51"/>
<polygon fill="#63b8ff" stroke="#63b8ff" points="431.68,-323.34 436.38,-332.83 438.63,-322.48 431.68,-323.34"/>
</a>
</g>
</g>
<!-- Node3 -->
<g id="Node000003" class="node">
<title>Node3</title>
<g id="a_Node000003"><a xlink:href="load_8c.html#aa397477e6168e682727486138e101461" target="_top" xlink:title=" ">
<polygon fill="white" stroke="#666666" points="145.5,-1225 21.5,-1225 21.5,-1206 145.5,-1206 145.5,-1225"/>
<text text-anchor="middle" x="83.5" y="-1213" font-family="Helvetica,sans-Serif" font-size="10.00">sequence_dma_async</text>
</a>
</g>
</g>
<!-- Node2&#45;&gt;Node3 -->
<g id="edge2_Node000002_Node000003" class="edge">
<title>Node2&#45;&gt;Node3</title>
<g id="a_edge2_Node000002_Node000003"><a xlink:title=" ">
<path fill="none" stroke="#63b8ff" d="M220.56,-1189.88C193.24,-1195.02 161.33,-1201.03 135.27,-1205.94"/>
<polygon fill="#63b8ff" stroke="#63b8ff" points="221.22,-1193.32 230.4,-1188.03 219.92,-1186.44 221.22,-1193.32"/>
</a>
</g>
</g>
<!-- Node4&#45;&gt;Node3 -->
<g id="edge8_Node000004_Node000003" class="edge">
<title>Node4&#45;&gt;Node3</title>
<g id="a_edge8_Node000004_Node000003"><a xlink:title=" ">
<path fill="none" stroke="#63b8ff" d="M257.36,-1119.87C241.46,-1130.59 220.32,-1145.59 203,-1160.5 185.61,-1175.47 187.06,-1186.36 167,-1197.5 160.46,-1201.13 153.26,-1204.03 145.91,-1206.34"/>
<polygon fill="#63b8ff" stroke="#63b8ff" points="259.66,-1122.54 266.05,-1114.09 255.78,-1116.71 259.66,-1122.54"/>
</a>
</g>
</g>
<!-- Node5 -->
<g id="Node000005" class="node">
<title>Node5</title>
<g id="a_Node000005"><a xlink:href="load_8c.html#a50bf1c2ea23d6f19ae9fc9e59ccda202" target="_top" xlink:title=" ">
<polygon fill="white" stroke="#666666" points="146,-1188 21,-1188 21,-1169 146,-1169 146,-1188"/>
<text text-anchor="middle" x="83.5" y="-1176" font-family="Helvetica,sans-Serif" font-size="10.00">bank_load_immediate</text>
</a>
</g>
</g>
<!-- Node4&#45;&gt;Node5 -->
<g id="edge4_Node000004_Node000005" class="edge">
<title>Node4&#45;&gt;Node5</title>
<g id="a_edge4_Node000004_Node000005"><a xlink:title=" ">
<path fill="none" stroke="#63b8ff" d="M255.62,-1119.19C233.01,-1131.73 198.7,-1149.44 167,-1160.5 157.59,-1163.78 147.35,-1166.59 137.4,-1168.95"/>
<polygon fill="#63b8ff" stroke="#63b8ff" points="257.55,-1122.12 264.55,-1114.17 254.12,-1116.02 257.55,-1122.12"/>
</a>
</g>
</g>
<!-- Node6 -->
<g id="Node000006" class="node">
<title>Node6</title>
<g id="a_Node000006"><a xlink:href="heap_8c.html#ae8b7a3aad224c80e7d87654d866666ae" target="_top" xlink:title=" ">
<polygon fill="white" stroke="#666666" points="130,-1151 37,-1151 37,-1132 130,-1132 130,-1151"/>
<text text-anchor="middle" x="83.5" y="-1139" font-family="Helvetica,sans-Serif" font-size="10.00">func_800BA8B0</text>
</a>
</g>
</g>
<!-- Node4&#45;&gt;Node6 -->
<g id="edge5_Node000004_Node000006" class="edge">
<title>Node4&#45;&gt;Node6</title>
<g id="a_edge5_Node000004_Node000006"><a xlink:title=" ">
<path fill="none" stroke="#63b8ff" d="M220.35,-1115.92C191.29,-1121.39 157.06,-1127.84 130.23,-1132.89"/>
<polygon fill="#63b8ff" stroke="#63b8ff" points="221.22,-1119.32 230.4,-1114.03 219.92,-1112.44 221.22,-1119.32"/>
</a>
</g>
</g>
<!-- Node7 -->
<g id="Node000007" class="node">
<title>Node7</title>
<g id="a_Node000007"><a xlink:href="load_8c.html#adf25dc20ccc53783eb999f0adb28b027" target="_top" xlink:title=" ">
<polygon fill="#fff0f0" stroke="red" points="129.5,-1114 37.5,-1114 37.5,-1095 129.5,-1095 129.5,-1114"/>
<text text-anchor="middle" x="83.5" y="-1102" font-family="Helvetica,sans-Serif" font-size="10.00">func_800BB304</text>
</a>
</g>
</g>
<!-- Node4&#45;&gt;Node7 -->
<g id="edge6_Node000004_Node000007" class="edge">
<title>Node4&#45;&gt;Node7</title>
<g id="a_edge6_Node000004_Node000007"><a xlink:title=" ">
<path fill="none" stroke="#63b8ff" d="M192.51,-1104.5C170.76,-1104.5 148.37,-1104.5 129.65,-1104.5"/>
<polygon fill="#63b8ff" stroke="#63b8ff" points="192.77,-1108 202.77,-1104.5 192.77,-1101 192.77,-1108"/>
</a>
</g>
</g>
<!-- Node17 -->
<g id="Node000017" class="node">
<title>Node17</title>
<g id="a_Node000017"><a xlink:href="load_8c.html#acbb441247e4f7d446c35a14bd75b61d6" target="_top" xlink:title=" ">
<polygon fill="#fff0f0" stroke="red" points="122.5,-1077 44.5,-1077 44.5,-1058 122.5,-1058 122.5,-1077"/>
<text text-anchor="middle" x="83.5" y="-1065" font-family="Helvetica,sans-Serif" font-size="10.00">patch_sound</text>
</a>
</g>
</g>
<!-- Node4&#45;&gt;Node17 -->
<g id="edge7_Node000004_Node000017" class="edge">
<title>Node4&#45;&gt;Node17</title>
<g id="a_edge7_Node000004_Node000017"><a xlink:title=" ">
<path fill="none" stroke="#63b8ff" d="M220.27,-1093.07C188.36,-1087.06 150.23,-1079.88 122.52,-1074.66"/>
<polygon fill="#63b8ff" stroke="#63b8ff" points="219.92,-1096.56 230.4,-1094.97 221.22,-1089.68 219.92,-1096.56"/>
</a>
</g>
</g>
<!-- Node23 -->
<g id="Node000023" class="node">
<title>Node23</title>
<g id="a_Node000023"><a xlink:href="load_8c.html#a1cd6d11794b341d8e9d9e9330305c60f" target="_top" xlink:title=" ">
<polygon fill="#fff0f0" stroke="red" points="158,-1040 9,-1040 9,-1021 158,-1021 158,-1040"/>
<text text-anchor="middle" x="83.5" y="-1028" font-family="Helvetica,sans-Serif" font-size="10.00">sequence_dma_immediate</text>
</a>
</g>
</g>
<!-- Node4&#45;&gt;Node23 -->
<g id="edge9_Node000004_Node000023" class="edge">
<title>Node4&#45;&gt;Node23</title>
<g id="a_edge9_Node000004_Node000023"><a xlink:title=" ">
<path fill="none" stroke="#63b8ff" d="M255.17,-1089.98C232.51,-1077.74 198.38,-1060.53 167,-1049.5 156.6,-1045.85 145.21,-1042.7 134.31,-1040.08"/>
<polygon fill="#63b8ff" stroke="#63b8ff" points="253.68,-1093.15 264.13,-1094.88 257.04,-1087.01 253.68,-1093.15"/>
</a>
</g>
</g>
<!-- Node26 -->
<g id="Node000026" class="node">
<title>Node26</title>
<g id="a_Node000026"><a xlink:href="load_8c.html#a16ddfd81ca9e185b484920b7eb9d70d7" target="_top" xlink:title=" ">
<polygon fill="white" stroke="#666666" points="134,-1003 33,-1003 33,-984 134,-984 134,-1003"/>
<text text-anchor="middle" x="83.5" y="-991" font-family="Helvetica,sans-Serif" font-size="10.00">bank_load_async</text>
</a>
</g>
</g>
<!-- Node25&#45;&gt;Node26 -->
<g id="edge11_Node000025_Node000026" class="edge">
<title>Node25&#45;&gt;Node26</title>
<g id="a_edge11_Node000025_Node000026"><a xlink:title=" ">
<path fill="none" stroke="#63b8ff" d="M203.82,-967.39C178.12,-973.01 150.41,-979.08 128.16,-983.95"/>
<polygon fill="#63b8ff" stroke="#63b8ff" points="204.9,-970.73 213.93,-965.18 203.41,-963.9 204.9,-970.73"/>
</a>
</g>
</g>
<!-- Node20 -->
<g id="Node000020" class="node">
<title>Node20</title>
<g id="a_Node000020"><a xlink:href="seqplayer_8c.html#a057e95b47ecbd1b645b1ef457f3854d9" target="_top" xlink:title=" ">
<polygon fill="#fff0f0" stroke="red" points="154.5,-965.5 12.5,-965.5 12.5,-935.5 154.5,-935.5 154.5,-965.5"/>
<text text-anchor="start" x="20.5" y="-953.5" font-family="Helvetica,sans-Serif" font-size="10.00">sequence_player_process</text>
<text text-anchor="middle" x="83.5" y="-942.5" font-family="Helvetica,sans-Serif" font-size="10.00">_sequence</text>
</a>
</g>
</g>
<!-- Node25&#45;&gt;Node20 -->
<g id="edge12_Node000025_Node000020" class="edge">
<title>Node25&#45;&gt;Node20</title>
<g id="a_edge12_Node000025_Node000020"><a xlink:title=" ">
<path fill="none" stroke="#63b8ff" d="M203.47,-950.5C187.35,-950.5 170.45,-950.5 154.62,-950.5"/>
<polygon fill="#63b8ff" stroke="#63b8ff" points="203.93,-954 213.93,-950.5 203.93,-947 203.93,-954"/>
</a>
</g>
</g>
<!-- Node28 -->
<g id="Node000028" class="node">
<title>Node28</title>
<g id="a_Node000028"><a xlink:href="memory_8c.html#a55df5934da66daade2d48fa82f079cd7" target="_top" xlink:title=" ">
<polygon fill="#fff0f0" stroke="red" points="148,-917 19,-917 19,-898 148,-898 148,-917"/>
<text text-anchor="middle" x="83.5" y="-905" font-family="Helvetica,sans-Serif" font-size="10.00">decompress_segments</text>
</a>
</g>
</g>
<!-- Node27&#45;&gt;Node28 -->
<g id="edge14_Node000027_Node000028" class="edge">
<title>Node27&#45;&gt;Node28</title>
<g id="a_edge14_Node000027_Node000028"><a xlink:title=" ">
<path fill="none" stroke="#63b8ff" d="M263.42,-822.21C242.24,-841.39 204.77,-872.41 167,-889.5 159.52,-892.88 151.37,-895.65 143.19,-897.9"/>
<polygon fill="#63b8ff" stroke="#63b8ff" points="265.98,-824.61 270.96,-815.25 261.24,-819.46 265.98,-824.61"/>
</a>
</g>
</g>
<!-- Node71 -->
<g id="Node000071" class="node">
<title>Node71</title>
<g id="a_Node000071"><a xlink:href="memory_8c.html#a9e2803f771e059a215c0b229f3fb5e06" target="_top" xlink:title="Returns pointer to mio0 compressed Vtx.">
<polygon fill="white" stroke="#666666" points="145.5,-880 21.5,-880 21.5,-861 145.5,-861 145.5,-880"/>
<text text-anchor="middle" x="83.5" y="-868" font-family="Helvetica,sans-Serif" font-size="10.00">dma_compressed_vtx</text>
</a>
</g>
</g>
<!-- Node27&#45;&gt;Node71 -->
<g id="edge15_Node000027_Node000071" class="edge">
<title>Node27&#45;&gt;Node71</title>
<g id="a_edge15_Node000027_Node000071"><a xlink:title=" ">
<path fill="none" stroke="#63b8ff" d="M250.51,-819.33C227.82,-829.25 195.91,-842.4 167,-851.5 155.78,-855.03 143.52,-858.21 131.96,-860.91"/>
<polygon fill="#63b8ff" stroke="#63b8ff" points="252.2,-822.41 259.93,-815.17 249.37,-816.01 252.2,-822.41"/>
</a>
</g>
</g>
<!-- Node72 -->
<g id="Node000072" class="node">
<title>Node72</title>
<g id="a_Node000072"><a xlink:href="main_8c.html#aaa9b0b2906469c5fb91cc673efcd2686" target="_top" xlink:title=" ">
<polygon fill="#fff0f0" stroke="red" points="143,-842.5 24,-842.5 24,-812.5 143,-812.5 143,-842.5"/>
<text text-anchor="start" x="32" y="-830.5" font-family="Helvetica,sans-Serif" font-size="10.00">init_segment_ending</text>
<text text-anchor="middle" x="83.5" y="-819.5" font-family="Helvetica,sans-Serif" font-size="10.00">_sequences</text>
</a>
</g>
</g>
<!-- Node27&#45;&gt;Node72 -->
<g id="edge16_Node000027_Node000072" class="edge">
<title>Node27&#45;&gt;Node72</title>
<g id="a_edge16_Node000027_Node000072"><a xlink:title=" ">
<path fill="none" stroke="#63b8ff" d="M237.93,-810.32C210.19,-813.43 173.75,-817.51 143.35,-820.91"/>
<polygon fill="#63b8ff" stroke="#63b8ff" points="238.56,-813.77 248.11,-809.18 237.78,-806.82 238.56,-813.77"/>
</a>
</g>
</g>
<!-- Node73 -->
<g id="Node000073" class="node">
<title>Node73</title>
<g id="a_Node000073"><a xlink:href="main_8c.html#a0251c90fb83072f3510a39e2f1b3e980" target="_top" xlink:title=" ">
<polygon fill="#fff0f0" stroke="red" points="141.5,-794 25.5,-794 25.5,-775 141.5,-775 141.5,-794"/>
<text text-anchor="middle" x="83.5" y="-782" font-family="Helvetica,sans-Serif" font-size="10.00">init_segment_racing</text>
</a>
</g>
</g>
<!-- Node27&#45;&gt;Node73 -->
<g id="edge17_Node000027_Node000073" class="edge">
<title>Node27&#45;&gt;Node73</title>
<g id="a_edge17_Node000027_Node000073"><a xlink:title=" ">
<path fill="none" stroke="#63b8ff" d="M238.14,-800.92C209.89,-797.9 172.57,-793.91 141.78,-790.62"/>
<polygon fill="#63b8ff" stroke="#63b8ff" points="237.79,-804.4 248.11,-801.99 238.54,-797.44 237.79,-804.4"/>
</a>
</g>
</g>
<!-- Node77 -->
<g id="Node000077" class="node">
<title>Node77</title>
<g id="a_Node000077"><a xlink:href="memory_8c.html#a39fa43d59922488da06f0709f5ded15c" target="_top" xlink:title="Allocate and DMA.">
<polygon fill="white" stroke="#666666" points="116,-757 51,-757 51,-738 116,-738 116,-757"/>
<text text-anchor="middle" x="83.5" y="-745" font-family="Helvetica,sans-Serif" font-size="10.00">load_data</text>
</a>
</g>
</g>
<!-- Node27&#45;&gt;Node77 -->
<g id="edge18_Node000027_Node000077" class="edge">
<title>Node27&#45;&gt;Node77</title>
<g id="a_edge18_Node000027_Node000077"><a xlink:title=" ">
<path fill="none" stroke="#63b8ff" d="M246.01,-792.48C223.6,-784.41 193.81,-774.15 167,-766.5 150.32,-761.74 131.49,-757.33 116.04,-753.96"/>
<polygon fill="#63b8ff" stroke="#63b8ff" points="244.84,-795.78 255.43,-795.91 247.23,-789.2 244.84,-795.78"/>
</a>
</g>
</g>
<!-- Node81 -->
<g id="Node000081" class="node">
<title>Node81</title>
<g id="a_Node000081"><a xlink:href="classMarioRaceway.html#a2facbdeb01e8549e918dfbeb706b0423" target="_top" xlink:title=" ">
<polygon fill="white" stroke="#666666" points="164,-719.5 3,-719.5 3,-689.5 164,-689.5 164,-719.5"/>
<text text-anchor="start" x="11" y="-707.5" font-family="Helvetica,sans-Serif" font-size="10.00">MarioRaceway::CreditsSpawn</text>
<text text-anchor="middle" x="83.5" y="-696.5" font-family="Helvetica,sans-Serif" font-size="10.00">Actors</text>
</a>
</g>
</g>
<!-- Node80&#45;&gt;Node81 -->
<g id="edge22_Node000080_Node000081" class="edge">
<title>Node80&#45;&gt;Node81</title>
<g id="a_edge22_Node000080_Node000081"><a xlink:title=" ">
<path fill="none" stroke="#63b8ff" d="M230.03,-419.88C219.85,-422.84 210.11,-427.69 203,-435.5 128.88,-516.86 239.31,-597.53 167,-680.5 164.06,-683.87 160.68,-686.79 156.99,-689.3"/>
<polygon fill="#63b8ff" stroke="#63b8ff" points="230.92,-423.27 239.86,-417.59 229.33,-416.45 230.92,-423.27"/>
</a>
</g>
</g>
<!-- Node82 -->
<g id="Node000082" class="node">
<title>Node82</title>
<g id="a_Node000082"><a xlink:href="classMooMooFarm.html#a0143bd29a9784731fd49a84304fec835" target="_top" xlink:title=" ">
<polygon fill="white" stroke="#666666" points="161,-671.5 6,-671.5 6,-641.5 161,-641.5 161,-671.5"/>
<text text-anchor="start" x="14" y="-659.5" font-family="Helvetica,sans-Serif" font-size="10.00">MooMooFarm::CreditsSpawn</text>
<text text-anchor="middle" x="83.5" y="-648.5" font-family="Helvetica,sans-Serif" font-size="10.00">Actors</text>
</a>
</g>
</g>
<!-- Node80&#45;&gt;Node82 -->
<g id="edge23_Node000080_Node000082" class="edge">
<title>Node80&#45;&gt;Node82</title>
<g id="a_edge23_Node000080_Node000082"><a xlink:title=" ">
<path fill="none" stroke="#63b8ff" d="M229.62,-420.25C219.65,-423.21 210.1,-427.97 203,-435.5 141.92,-500.24 226.63,-566.43 167,-632.5 163.9,-635.93 160.34,-638.89 156.48,-641.43"/>
<polygon fill="#63b8ff" stroke="#63b8ff" points="230.75,-423.58 239.66,-417.85 229.12,-416.77 230.75,-423.58"/>
</a>
</g>
</g>
<!-- Node83 -->
<g id="Node000083" class="node">
<title>Node83</title>
<g id="a_Node000083"><a xlink:href="code__80057C60_8c.html#a07b43c07e7afcf3fcccf63622bb991e1" target="_top" xlink:title=" ">
<polygon fill="#fff0f0" stroke="red" points="129.5,-623 37.5,-623 37.5,-604 129.5,-604 129.5,-623"/>
<text text-anchor="middle" x="83.5" y="-611" font-family="Helvetica,sans-Serif" font-size="10.00">func_8005D290</text>
</a>
</g>
</g>
<!-- Node80&#45;&gt;Node83 -->
<g id="edge24_Node000080_Node000083" class="edge">
<title>Node80&#45;&gt;Node83</title>
<g id="a_edge24_Node000080_Node000083"><a xlink:title=" ">
<path fill="none" stroke="#63b8ff" d="M229.85,-420.48C219.87,-423.43 210.26,-428.12 203,-435.5 152.18,-487.15 218.14,-543.17 167,-594.5 157.14,-604.39 143.24,-609.56 129.66,-612.14"/>
<polygon fill="#63b8ff" stroke="#63b8ff" points="230.98,-423.81 239.89,-418.08 229.35,-417 230.98,-423.81"/>
</a>
</g>
</g>
<!-- Node86 -->
<g id="Node000086" class="node">
<title>Node86</title>
<g id="a_Node000086"><a xlink:href="actors_8c.html#a142a32371ea62d0303702286b839bdfd" target="_top" xlink:title="Loads actor textures, course specific actor textures. Calls to spawn_course_vehicles and place_course...">
<polygon fill="#fff0f0" stroke="red" points="142,-585.5 25,-585.5 25,-555.5 142,-555.5 142,-585.5"/>
<text text-anchor="start" x="33" y="-573.5" font-family="Helvetica,sans-Serif" font-size="10.00">init_actors_and_load</text>
<text text-anchor="middle" x="83.5" y="-562.5" font-family="Helvetica,sans-Serif" font-size="10.00">_textures</text>
</a>
</g>
</g>
<!-- Node80&#45;&gt;Node86 -->
<g id="edge25_Node000080_Node000086" class="edge">
<title>Node80&#45;&gt;Node86</title>
<g id="a_edge25_Node000080_Node000086"><a xlink:title=" ">
<path fill="none" stroke="#63b8ff" d="M230.05,-421.08C220.14,-424 210.51,-428.53 203,-435.5 164.98,-470.78 204.23,-510.39 167,-546.5 160.04,-553.25 151.3,-558.12 142.12,-561.63"/>
<polygon fill="#63b8ff" stroke="#63b8ff" points="231.09,-424.42 239.98,-418.66 229.44,-417.62 231.09,-424.42"/>
</a>
</g>
</g>
<!-- Node87 -->
<g id="Node000087" class="node">
<title>Node87</title>
<g id="a_Node000087"><a xlink:href="classBowsersCastle.html#a9f1a3812301d228a8164a9f30a963c0f" target="_top" xlink:title=" ">
<polygon fill="white" stroke="#666666" points="163,-537 4,-537 4,-518 163,-518 163,-537"/>
<text text-anchor="middle" x="83.5" y="-525" font-family="Helvetica,sans-Serif" font-size="10.00">BowsersCastle::LoadTextures</text>
</a>
</g>
</g>
<!-- Node80&#45;&gt;Node87 -->
<g id="edge26_Node000080_Node000087" class="edge">
<title>Node80&#45;&gt;Node87</title>
<g id="a_edge26_Node000080_Node000087"><a xlink:title=" ">
<path fill="none" stroke="#63b8ff" d="M230.15,-422.08C220.4,-424.94 210.81,-429.2 203,-435.5 174.53,-458.45 195.75,-486.89 167,-509.5 162.74,-512.85 157.98,-515.61 152.97,-517.88"/>
<polygon fill="#63b8ff" stroke="#63b8ff" points="231.03,-425.46 239.89,-419.65 229.34,-418.67 231.03,-425.46"/>
</a>
</g>
</g>
<!-- Node88 -->
<g id="Node000088" class="node">
<title>Node88</title>
<g id="a_Node000088"><a xlink:href="classDKJungle.html#aa31876372f83263bab7990a89b35c278" target="_top" xlink:title=" ">
<polygon fill="white" stroke="#666666" points="149,-500 18,-500 18,-481 149,-481 149,-500"/>
<text text-anchor="middle" x="83.5" y="-488" font-family="Helvetica,sans-Serif" font-size="10.00">DKJungle::LoadTextures</text>
</a>
</g>
</g>
<!-- Node80&#45;&gt;Node88 -->
<g id="edge27_Node000080_Node000088" class="edge">
<title>Node80&#45;&gt;Node88</title>
<g id="a_edge27_Node000080_Node000088"><a xlink:title=" ">
<path fill="none" stroke="#63b8ff" d="M229.72,-424.64C220.47,-427.3 211.18,-430.83 203,-435.5 183.08,-446.88 187.06,-461.36 167,-472.5 160.85,-475.92 154.1,-478.68 147.2,-480.93"/>
<polygon fill="#63b8ff" stroke="#63b8ff" points="230.88,-427.95 239.69,-422.07 229.13,-421.17 230.88,-427.95"/>
</a>
</g>
</g>
<!-- Node89 -->
<g id="Node000089" class="node">
<title>Node89</title>
<g id="a_Node000089"><a xlink:href="classFrappeSnowland.html#a481cff704767cc9b8c1fafa9422f236e" target="_top" xlink:title=" ">
<polygon fill="white" stroke="#666666" points="167,-463 0,-463 0,-444 167,-444 167,-463"/>
<text text-anchor="middle" x="83.5" y="-451" font-family="Helvetica,sans-Serif" font-size="10.00">FrappeSnowland::LoadTextures</text>
</a>
</g>
</g>
<!-- Node80&#45;&gt;Node89 -->
<g id="edge28_Node000080_Node000089" class="edge">
<title>Node80&#45;&gt;Node89</title>
<g id="a_edge28_Node000080_Node000089"><a xlink:title=" ">
<path fill="none" stroke="#63b8ff" d="M229.81,-426.14C200.61,-431.64 164.16,-438.5 135.06,-443.98"/>
<polygon fill="#63b8ff" stroke="#63b8ff" points="230.63,-429.55 239.81,-424.26 229.33,-422.67 230.63,-429.55"/>
</a>
</g>
</g>
<!-- Node90 -->
<g id="Node000090" class="node">
<title>Node90</title>
<g id="a_Node000090"><a xlink:href="classHarbour.html#ae71af4091f9fd946071a4cbc2f6f4c7d" target="_top" xlink:title=" ">
<polygon fill="white" stroke="#666666" points="146.5,-426 20.5,-426 20.5,-407 146.5,-407 146.5,-426"/>
<text text-anchor="middle" x="83.5" y="-414" font-family="Helvetica,sans-Serif" font-size="10.00">Harbour::LoadTextures</text>
</a>
</g>
</g>
<!-- Node80&#45;&gt;Node90 -->
<g id="edge29_Node000080_Node000090" class="edge">
<title>Node80&#45;&gt;Node90</title>
<g id="a_edge29_Node000080_Node000090"><a xlink:title=" ">
<path fill="none" stroke="#63b8ff" d="M229.63,-416.5C204.2,-416.5 173.3,-416.5 146.56,-416.5"/>
<polygon fill="#63b8ff" stroke="#63b8ff" points="229.81,-420 239.81,-416.5 229.81,-413 229.81,-420"/>
</a>
</g>
</g>
<!-- Node91 -->
<g id="Node000091" class="node">
<title>Node91</title>
<g id="a_Node000091"><a xlink:href="classKalimariDesert.html#ad675f272a68b7acc7407d6e94a5f75d8" target="_top" xlink:title=" ">
<polygon fill="white" stroke="#666666" points="164,-389 3,-389 3,-370 164,-370 164,-389"/>
<text text-anchor="middle" x="83.5" y="-377" font-family="Helvetica,sans-Serif" font-size="10.00">KalimariDesert::LoadTextures</text>
</a>
</g>
</g>
<!-- Node80&#45;&gt;Node91 -->
<g id="edge30_Node000080_Node000091" class="edge">
<title>Node80&#45;&gt;Node91</title>
<g id="a_edge30_Node000080_Node000091"><a xlink:title=" ">
<path fill="none" stroke="#63b8ff" d="M229.81,-406.86C200.61,-401.36 164.16,-394.5 135.06,-389.02"/>
<polygon fill="#63b8ff" stroke="#63b8ff" points="229.33,-410.33 239.81,-408.74 230.63,-403.45 229.33,-410.33"/>
</a>
</g>
</g>
<!-- Node92 -->
<g id="Node000092" class="node">
<title>Node92</title>
<g id="a_Node000092"><a xlink:href="classLuigiRaceway.html#ad65a591e3b480e1042ed02d522fe51f5" target="_top" xlink:title=" ">
<polygon fill="white" stroke="#666666" points="160.5,-352 6.5,-352 6.5,-333 160.5,-333 160.5,-352"/>
<text text-anchor="middle" x="83.5" y="-340" font-family="Helvetica,sans-Serif" font-size="10.00">LuigiRaceway::LoadTextures</text>
</a>
</g>
</g>
<!-- Node80&#45;&gt;Node92 -->
<g id="edge31_Node000080_Node000092" class="edge">
<title>Node80&#45;&gt;Node92</title>
<g id="a_edge31_Node000080_Node000092"><a xlink:title=" ">
<path fill="none" stroke="#63b8ff" d="M229.73,-409.09C220.48,-406.54 211.18,-403.11 203,-398.5 183.01,-387.24 186.99,-372.76 167,-361.5 160.08,-357.61 152.41,-354.51 144.62,-352.05"/>
<polygon fill="#63b8ff" stroke="#63b8ff" points="229.15,-412.55 239.7,-411.53 230.82,-405.75 229.15,-412.55"/>
</a>
</g>
</g>
<!-- Node93 -->
<g id="Node000093" class="node">
<title>Node93</title>
<g id="a_Node000093"><a xlink:href="classMarioRaceway.html#af274aaf7967749973cb3794bf5157715" target="_top" xlink:title=" ">
<polygon fill="white" stroke="#666666" points="162.5,-315 4.5,-315 4.5,-296 162.5,-296 162.5,-315"/>
<text text-anchor="middle" x="83.5" y="-303" font-family="Helvetica,sans-Serif" font-size="10.00">MarioRaceway::LoadTextures</text>
</a>
</g>
</g>
<!-- Node80&#45;&gt;Node93 -->
<g id="edge32_Node000080_Node000093" class="edge">
<title>Node80&#45;&gt;Node93</title>
<g id="a_edge32_Node000080_Node000093"><a xlink:title=" ">
<path fill="none" stroke="#63b8ff" d="M230.17,-411.63C220.42,-408.88 210.83,-404.73 203,-398.5 174.39,-375.72 195.62,-347.27 167,-324.5 162.17,-320.66 156.7,-317.56 150.94,-315.08"/>
<polygon fill="#63b8ff" stroke="#63b8ff" points="229.37,-415.04 239.91,-413.93 230.99,-408.23 229.37,-415.04"/>
</a>
</g>
</g>
<!-- Node94 -->
<g id="Node000094" class="node">
<title>Node94</title>
<g id="a_Node000094"><a xlink:href="classMooMooFarm.html#afdbf85477508254faadb50942c01dfea" target="_top" xlink:title=" ">
<polygon fill="white" stroke="#666666" points="160,-278 7,-278 7,-259 160,-259 160,-278"/>
<text text-anchor="middle" x="83.5" y="-266" font-family="Helvetica,sans-Serif" font-size="10.00">MooMooFarm::LoadTextures</text>
</a>
</g>
</g>
<!-- Node80&#45;&gt;Node94 -->
<g id="edge33_Node000080_Node000094" class="edge">
<title>Node80&#45;&gt;Node94</title>
<g id="a_edge33_Node000080_Node000094"><a xlink:title=" ">
<path fill="none" stroke="#63b8ff" d="M229.77,-412.54C219.97,-409.73 210.45,-405.33 203,-398.5 164.77,-363.45 205.24,-322.54 167,-287.5 162.88,-283.73 158.17,-280.65 153.13,-278.16"/>
<polygon fill="#63b8ff" stroke="#63b8ff" points="229.07,-415.97 239.61,-414.84 230.67,-409.15 229.07,-415.97"/>
</a>
</g>
</g>
<!-- Node95 -->
<g id="Node000095" class="node">
<title>Node95</title>
<g id="a_Node000095"><a xlink:href="classRoyalRaceway.html#a74a130b049f8451b9e684b570cd40f99" target="_top" xlink:title=" ">
<polygon fill="white" stroke="#666666" points="162.5,-241 4.5,-241 4.5,-222 162.5,-222 162.5,-241"/>
<text text-anchor="middle" x="83.5" y="-229" font-family="Helvetica,sans-Serif" font-size="10.00">RoyalRaceway::LoadTextures</text>
</a>
</g>
</g>
<!-- Node80&#45;&gt;Node95 -->
<g id="edge34_Node000080_Node000095" class="edge">
<title>Node80&#45;&gt;Node95</title>
<g id="a_edge34_Node000080_Node000095"><a xlink:title=" ">
<path fill="none" stroke="#63b8ff" d="M229.67,-413.05C219.79,-410.22 210.27,-405.68 203,-398.5 154.85,-350.92 215.16,-298.07 167,-250.5 163.13,-246.68 158.66,-243.56 153.83,-241.03"/>
<polygon fill="#63b8ff" stroke="#63b8ff" points="229.08,-416.5 239.61,-415.33 230.65,-409.68 229.08,-416.5"/>
</a>
</g>
</g>
<!-- Node96 -->
<g id="Node000096" class="node">
<title>Node96</title>
<g id="a_Node000096"><a xlink:href="classTestCourse.html#ab2e6d294c327e59bacd01425dc4b0498" target="_top" xlink:title=" ">
<polygon fill="white" stroke="#666666" points="153.5,-204 13.5,-204 13.5,-185 153.5,-185 153.5,-204"/>
<text text-anchor="middle" x="83.5" y="-192" font-family="Helvetica,sans-Serif" font-size="10.00">TestCourse::LoadTextures</text>
</a>
</g>
</g>
<!-- Node80&#45;&gt;Node96 -->
<g id="edge35_Node000080_Node000096" class="edge">
<title>Node80&#45;&gt;Node96</title>
<g id="a_edge35_Node000080_Node000096"><a xlink:title=" ">
<path fill="none" stroke="#63b8ff" d="M229.72,-413.39C219.74,-410.55 210.17,-405.92 203,-398.5 144.8,-338.25 225.21,-273.73 167,-213.5 163.12,-209.48 158.57,-206.24 153.64,-203.63"/>
<polygon fill="#63b8ff" stroke="#63b8ff" points="229.23,-416.87 239.76,-415.66 230.78,-410.04 229.23,-416.87"/>
</a>
</g>
</g>
<!-- Node97 -->
<g id="Node000097" class="node">
<title>Node97</title>
<g id="a_Node000097"><a xlink:href="classYoshiValley.html#a750e6c4f5f53ec72f3f3d8a1bd5263e9" target="_top" xlink:title=" ">
<polygon fill="white" stroke="#666666" points="154,-167 13,-167 13,-148 154,-148 154,-167"/>
<text text-anchor="middle" x="83.5" y="-155" font-family="Helvetica,sans-Serif" font-size="10.00">YoshiValley::LoadTextures</text>
</a>
</g>
</g>
<!-- Node80&#45;&gt;Node97 -->
<g id="edge36_Node000080_Node000097" class="edge">
<title>Node80&#45;&gt;Node97</title>
<g id="a_edge36_Node000080_Node000097"><a xlink:title=" ">
<path fill="none" stroke="#63b8ff" d="M230.16,-413.73C219.97,-410.9 210.2,-406.19 203,-398.5 134.69,-325.53 235.32,-249.46 167,-176.5 163.28,-172.53 158.92,-169.31 154.17,-166.71"/>
<polygon fill="#63b8ff" stroke="#63b8ff" points="229.47,-417.16 239.99,-415.9 230.98,-410.33 229.47,-417.16"/>
</a>
</g>
</g>
<!-- Node48 -->
<g id="Node000048" class="node">
<title>Node48</title>
<g id="a_Node000048"><a xlink:href="menu__items_8c.html#af21eb61f5e1a1ae1ffcc0cf89c398a2e" target="_top" xlink:title=" ">
<polygon fill="#fff0f0" stroke="red" points="129,-130 38,-130 38,-111 129,-111 129,-130"/>
<text text-anchor="middle" x="83.5" y="-118" font-family="Helvetica,sans-Serif" font-size="10.00">func_80093F10</text>
</a>
</g>
</g>
<!-- Node98&#45;&gt;Node48 -->
<g id="edge38_Node000098_Node000048" class="edge">
<title>Node98&#45;&gt;Node48</title>
<g id="a_edge38_Node000098_Node000048"><a xlink:title=" ">
<path fill="none" stroke="#63b8ff" d="M226,-375.46C217.34,-372.55 209.21,-368.13 203,-361.5 134.69,-288.53 235.32,-212.46 167,-139.5 157.25,-129.09 143.05,-123.85 129.16,-121.34"/>
<polygon fill="#63b8ff" stroke="#63b8ff" points="225.36,-378.91 235.93,-378.13 227.18,-372.15 225.36,-378.91"/>
</a>
</g>
</g>
<!-- Node53 -->
<g id="Node000053" class="node">
<title>Node53</title>
<g id="a_Node000053"><a xlink:href="menu__items_8c.html#acbc3378b91b763f79b8dacab57e75b59" target="_top" xlink:title=" ">
<polygon fill="#fff0f0" stroke="red" points="129.5,-93 37.5,-93 37.5,-74 129.5,-74 129.5,-93"/>
<text text-anchor="middle" x="83.5" y="-81" font-family="Helvetica,sans-Serif" font-size="10.00">func_800940EC</text>
</a>
</g>
</g>
<!-- Node98&#45;&gt;Node53 -->
<g id="edge39_Node000098_Node000053" class="edge">
<title>Node98&#45;&gt;Node53</title>
<g id="a_edge39_Node000098_Node000053"><a xlink:title=" ">
<path fill="none" stroke="#63b8ff" d="M225.87,-375.57C217.22,-372.66 209.13,-368.2 203,-361.5 124.55,-275.76 245.47,-188.22 167,-102.5 157.47,-92.09 143.49,-86.82 129.73,-84.29"/>
<polygon fill="#63b8ff" stroke="#63b8ff" points="225.23,-379.03 235.79,-378.25 227.05,-372.27 225.23,-379.03"/>
</a>
</g>
</g>
<!-- Node100 -->
<g id="Node000100" class="node">
<title>Node100</title>
<g id="a_Node000100"><a xlink:href="memory_8c.html#a2c1ac6461b46f1b2059d2f7aa540cc04" target="_top" xlink:title=" ">
<polygon fill="#fff0f0" stroke="red" points="129.5,-56 37.5,-56 37.5,-37 129.5,-37 129.5,-56"/>
<text text-anchor="middle" x="83.5" y="-44" font-family="Helvetica,sans-Serif" font-size="10.00">func_802A8190</text>
</a>
</g>
</g>
<!-- Node99&#45;&gt;Node100 -->
<g id="edge41_Node000099_Node000100" class="edge">
<title>Node99&#45;&gt;Node100</title>
<g id="a_edge41_Node000099_Node000100"><a xlink:title=" ">
<path fill="none" stroke="#63b8ff" d="M225.87,-338.57C217.22,-335.66 209.13,-331.2 203,-324.5 124.55,-238.76 245.47,-151.22 167,-65.5 157.47,-55.09 143.49,-49.82 129.73,-47.29"/>
<polygon fill="#63b8ff" stroke="#63b8ff" points="225.23,-342.03 235.79,-341.25 227.05,-335.27 225.23,-342.03"/>
</a>
</g>
</g>
<!-- Node102 -->
<g id="Node000102" class="node">
<title>Node102</title>
<g id="a_Node000102"><a xlink:href="memory_8c.html#aeba4b47d5d65cd325e7c234326119b27" target="_top" xlink:title=" ">
<polygon fill="white" stroke="#666666" points="126.5,-19 40.5,-19 40.5,0 126.5,0 126.5,-19"/>
<text text-anchor="middle" x="83.5" y="-7" font-family="Helvetica,sans-Serif" font-size="10.00">load_segment</text>
</a>
</g>
</g>
<!-- Node99&#45;&gt;Node102 -->
<g id="edge42_Node000099_Node000102" class="edge">
<title>Node99&#45;&gt;Node102</title>
<g id="a_edge42_Node000099_Node000102"><a xlink:title=" ">
<path fill="none" stroke="#63b8ff" d="M225.77,-338.66C217.14,-335.74 209.08,-331.26 203,-324.5 114.1,-225.62 256.49,-125.84 167,-27.5 156.84,-16.33 141.5,-11.24 126.79,-9.14"/>
<polygon fill="#63b8ff" stroke="#63b8ff" points="225.12,-342.11 235.69,-341.34 226.95,-335.36 225.12,-342.11"/>
</a>
</g>
</g>
</g>
</svg>

<g id="navigator" transform="translate(0 0)" fill="#404254">
  <rect fill="#f2f5e9" fill-opacity="0.5" stroke="#606060" stroke-width=".5" x="0" y="0" width="60" height="60"/>
  <use id="zoomplus" xlink:href="#zoomPlus" x="17" y="9" onmousedown="handleZoom(evt,'in')"/>
  <use id="zoomminus" xlink:href="#zoomMin" x="42" y="9" onmousedown="handleZoom(evt,'out')"/>
  <use id="reset" xlink:href="#resetDef" x="30" y="36" onmousedown="handleReset()"/>
   <use id="arrowup" xlink:href="#arrowUp" x="0" y="0" onmousedown="handlePan(0,-1)"/>
  <use id="arrowright" xlink:href="#arrowRight" x="0" y="0" onmousedown="handlePan(1,0)"/>
  <use id="arrowdown" xlink:href="#arrowDown" x="0" y="0" onmousedown="handlePan(0,1)"/>
  <use id="arrowleft" xlink:href="#arrowLeft" x="0" y="0" onmousedown="handlePan(-1,0)"/>
</g>
<svg viewBox="0 0 15 15" width="100%" height="30px" preserveAspectRatio="xMaxYMin meet">
 <g id="arrow_out" transform="scale(0.3 0.3)">
  <a xlink:href="osPiStartDma_8c_ae288a36d96a4db6977d95327e246ec12_icgraph_org.svg" target="_base">
   <rect id="button" ry="5" rx="5" y="6" x="6" height="38" width="38"
        fill="#f2f5e9" fill-opacity="0.5" stroke="#606060" stroke-width="1.0"/>
   <path id="arrow"
     d="M 11.500037,31.436501 C 11.940474,20.09759 22.043105,11.32322 32.158766,21.979434 L 37.068811,17.246167 C 37.068811,17.246167 37.088388,32 37.088388,32 L 22.160133,31.978069 C 22.160133,31.978069 26.997745,27.140456 26.997745,27.140456 C 18.528582,18.264221 13.291696,25.230495 11.500037,31.436501 z"
     style="fill:#404040;"/>
  </a>
 </g>
</svg>

<style type='text/css'>
<![CDATA[
[data-mouse-over-selected='false'] { opacity: 0.7; }
[data-mouse-over-selected='true']  { opacity: 1.0; }
]]>
</style>
<script type="application/ecmascript"><![CDATA[
document.addEventListener('DOMContentLoaded', (event) => {
  highlightEdges();
  highlightAdjacentNodes();
});
]]></script>
</svg>
