<?xml version="1.0" encoding="UTF-8" standalone="no"?>
<!DOCTYPE svg PUBLIC "-//W3C//DTD SVG 1.1//EN"
 "http://www.w3.org/Graphics/SVG/1.1/DTD/svg11.dtd">
<!-- Generated by graphviz version 2.43.0 (0)
 -->
<!-- Title: send_str_packet Pages: 1 -->
<svg width="861pt" height="98pt"
 viewBox="0.00 0.00 861.00 98.25" xmlns="http://www.w3.org/2000/svg" xmlns:xlink="http://www.w3.org/1999/xlink">
<g id="graph0" class="graph" transform="scale(1 1) rotate(0) translate(4 94.25)">
<title>send_str_packet</title>
<!-- Node1 -->
<g id="Node000001" class="node">
<title>Node1</title>
<g id="a_Node000001"><a xlink:title=" ">
<polygon fill="#999999" stroke="#666666" points="853,-83 758,-83 758,-64 853,-64 853,-83"/>
<text text-anchor="middle" x="805.5" y="-71" font-family="Helvetica,sans-Serif" font-size="10.00">send_str_packet</text>
</a>
</g>
</g>
<!-- Node2 -->
<g id="Node000002" class="node">
<title>Node2</title>
<g id="a_Node000002"><a xlink:href="networking_8c.html#a9c6ade683b9f080f25707e0812ef7a6c" target="_top" xlink:title=" ">
<polygon fill="white" stroke="#666666" points="252,-62 154,-62 154,-43 252,-43 252,-62"/>
<text text-anchor="middle" x="203" y="-50" font-family="Helvetica,sans-Serif" font-size="10.00">ConnectToServer</text>
</a>
</g>
</g>
<!-- Node1&#45;&gt;Node2 -->
<g id="edge1_Node000001_Node000002" class="edge">
<title>Node1&#45;&gt;Node2</title>
<g id="a_edge1_Node000001_Node000002"><a xlink:title=" ">
<path fill="none" stroke="#63b8ff" d="M747.89,-79.15C652.47,-87.48 453.8,-99.72 288,-76.5 268.32,-73.74 246.79,-67.52 230.45,-62.11"/>
<polygon fill="#63b8ff" stroke="#63b8ff" points="748.25,-82.63 757.9,-78.25 747.63,-75.66 748.25,-82.63"/>
</a>
</g>
</g>
<!-- Node4 -->
<g id="Node000004" class="node">
<title>Node4</title>
<g id="a_Node000004"><a xlink:href="networking_8c.html#a840ac4cfb918d97373907c0a176ce5c5" target="_top" xlink:title=" ">
<polygon fill="white" stroke="#666666" points="722,-62 607,-62 607,-43 722,-43 722,-62"/>
<text text-anchor="middle" x="664.5" y="-50" font-family="Helvetica,sans-Serif" font-size="10.00">networking_cleanup</text>
</a>
</g>
</g>
<!-- Node1&#45;&gt;Node4 -->
<g id="edge3_Node000001_Node000004" class="edge">
<title>Node1&#45;&gt;Node4</title>
<g id="a_edge3_Node000001_Node000004"><a xlink:title=" ">
<path fill="none" stroke="#63b8ff" d="M747.78,-64.93C739.42,-63.67 730.8,-62.36 722.43,-61.1"/>
<polygon fill="#63b8ff" stroke="#63b8ff" points="747.42,-68.42 757.83,-66.45 748.46,-61.49 747.42,-68.42"/>
</a>
</g>
</g>
<!-- Node3 -->
<g id="Node000003" class="node">
<title>Node3</title>
<g id="a_Node000003"><a xlink:href="namespaceGameUI_1_1Multiplayer.html#a82477c0920d435faed20e3dd60161438" target="_top" xlink:title=" ">
<polygon fill="white" stroke="#666666" points="118,-67.5 0,-67.5 0,-37.5 118,-37.5 118,-67.5"/>
<text text-anchor="start" x="8" y="-55.5" font-family="Helvetica,sans-Serif" font-size="10.00">GameUI::Multiplayer</text>
<text text-anchor="middle" x="59" y="-44.5" font-family="Helvetica,sans-Serif" font-size="10.00">::DrawColumn1</text>
</a>
</g>
</g>
<!-- Node2&#45;&gt;Node3 -->
<g id="edge2_Node000002_Node000003" class="edge">
<title>Node2&#45;&gt;Node3</title>
<g id="a_edge2_Node000002_Node000003"><a xlink:title=" ">
<path fill="none" stroke="#63b8ff" d="M143.76,-52.5C135.29,-52.5 126.57,-52.5 118.11,-52.5"/>
<polygon fill="#63b8ff" stroke="#63b8ff" points="143.93,-56 153.93,-52.5 143.93,-49 143.93,-56"/>
</a>
</g>
</g>
<!-- Node5 -->
<g id="Node000005" class="node">
<title>Node5</title>
<g id="a_Node000005"><a xlink:href="networking_8c.html#aed9ca538cfe9988acf346351f27a368e" target="_top" xlink:title=" ">
<polygon fill="white" stroke="#666666" points="571,-62 442,-62 442,-43 571,-43 571,-62"/>
<text text-anchor="middle" x="506.5" y="-50" font-family="Helvetica,sans-Serif" font-size="10.00">networking_disconnect</text>
</a>
</g>
</g>
<!-- Node4&#45;&gt;Node5 -->
<g id="edge4_Node000004_Node000005" class="edge">
<title>Node4&#45;&gt;Node5</title>
<g id="a_edge4_Node000004_Node000005"><a xlink:title=" ">
<path fill="none" stroke="#63b8ff" d="M596.55,-52.5C588.1,-52.5 579.48,-52.5 571.08,-52.5"/>
<polygon fill="#63b8ff" stroke="#63b8ff" points="596.74,-56 606.74,-52.5 596.74,-49 596.74,-56"/>
</a>
</g>
</g>
<!-- Node7 -->
<g id="Node000007" class="node">
<title>Node7</title>
<g id="a_Node000007"><a xlink:href="networking_8c.html#a6fdfec7636de6ab68fc5108c84c29844" target="_top" xlink:title=" ">
<polygon fill="white" stroke="#666666" points="555.5,-22 457.5,-22 457.5,-3 555.5,-3 555.5,-22"/>
<text text-anchor="middle" x="506.5" y="-10" font-family="Helvetica,sans-Serif" font-size="10.00">networking_loop</text>
</a>
</g>
</g>
<!-- Node4&#45;&gt;Node7 -->
<g id="edge6_Node000004_Node000007" class="edge">
<title>Node4&#45;&gt;Node7</title>
<g id="a_edge6_Node000004_Node000007"><a xlink:title=" ">
<path fill="none" stroke="#63b8ff" d="M616.24,-40.38C593.25,-34.49 566.02,-27.51 544.56,-22"/>
<polygon fill="#63b8ff" stroke="#63b8ff" points="615.58,-43.83 626.13,-42.92 617.32,-37.04 615.58,-43.83"/>
</a>
</g>
</g>
<!-- Node6 -->
<g id="Node000006" class="node">
<title>Node6</title>
<g id="a_Node000006"><a xlink:href="namespaceGameUI_1_1Multiplayer.html#af5f299cda6639c8105bd8d29ab94be3a" target="_top" xlink:title=" ">
<polygon fill="white" stroke="#666666" points="406,-67.5 288,-67.5 288,-37.5 406,-37.5 406,-67.5"/>
<text text-anchor="start" x="296" y="-55.5" font-family="Helvetica,sans-Serif" font-size="10.00">GameUI::Multiplayer</text>
<text text-anchor="middle" x="347" y="-44.5" font-family="Helvetica,sans-Serif" font-size="10.00">::DrawColumn2</text>
</a>
</g>
</g>
<!-- Node5&#45;&gt;Node6 -->
<g id="edge5_Node000005_Node000006" class="edge">
<title>Node5&#45;&gt;Node6</title>
<g id="a_edge5_Node000005_Node000006"><a xlink:title=" ">
<path fill="none" stroke="#63b8ff" d="M431.87,-52.5C423.27,-52.5 414.59,-52.5 406.25,-52.5"/>
<polygon fill="#63b8ff" stroke="#63b8ff" points="431.89,-56 441.89,-52.5 431.89,-49 431.89,-56"/>
</a>
</g>
</g>
<!-- Node8 -->
<g id="Node000008" class="node">
<title>Node8</title>
<g id="a_Node000008"><a xlink:href="networking_8c.html#a2b0991e893dd2f433a112ea46449bd4e" target="_top" xlink:title=" ">
<polygon fill="white" stroke="#666666" points="393,-19 301,-19 301,0 393,0 393,-19"/>
<text text-anchor="middle" x="347" y="-7" font-family="Helvetica,sans-Serif" font-size="10.00">networking_init</text>
</a>
</g>
</g>
<!-- Node7&#45;&gt;Node8 -->
<g id="edge7_Node000007_Node000008" class="edge">
<title>Node7&#45;&gt;Node8</title>
<g id="a_edge7_Node000007_Node000008"><a xlink:title=" ">
<path fill="none" stroke="#63b8ff" d="M447.34,-11.39C429.44,-11.05 410.01,-10.68 393.13,-10.36"/>
<polygon fill="#63b8ff" stroke="#63b8ff" points="447.32,-14.89 457.39,-11.58 447.46,-7.89 447.32,-14.89"/>
</a>
</g>
</g>
<!-- Node8&#45;&gt;Node2 -->
<g id="edge8_Node000008_Node000002" class="edge">
<title>Node8&#45;&gt;Node2</title>
<g id="a_edge8_Node000008_Node000002"><a xlink:title=" ">
<path fill="none" stroke="#63b8ff" d="M304.7,-22.01C282.6,-28.7 255.81,-36.81 235.43,-42.98"/>
<polygon fill="#63b8ff" stroke="#63b8ff" points="305.93,-25.29 314.49,-19.04 303.9,-18.59 305.93,-25.29"/>
</a>
</g>
</g>
</g>
</svg>
