<?xml version="1.0" encoding="UTF-8" standalone="no"?>
<!DOCTYPE svg PUBLIC "-//W3C//DTD SVG 1.1//EN"
 "http://www.w3.org/Graphics/SVG/1.1/DTD/svg11.dtd">
<!-- Generated by graphviz version 2.43.0 (0)
 -->
<!-- Title: func_800323E4 Pages: 1 -->
<!--zoomable 567 -->

<svg id="main" version="1.1" xmlns="http://www.w3.org/2000/svg" xmlns:xlink="http://www.w3.org/1999/xlink" xml:space="preserve" onload="init(evt)">

<style type="text/css"><![CDATA[
.node, .edge {opacity: 0.7;}
.node.selected, .edge.selected {opacity: 1;}
.edge:hover path { stroke: red; }
.edge:hover polygon { stroke: red; fill: red; }
]]></style>

<defs>
  <circle id="rim" cx="0" cy="0" r="7"/>
  <circle id="rim2" cx="0" cy="0" r="3.5"/>
  <g id="zoomPlus">
    <use xlink:href="#rim" fill="#404040"><set attributeName="fill" to="#808080" begin="zoomplus.mouseover" end="zoomplus.mouseout"/></use>
    <path d="M-4,0h8M0,-4v8" fill="none" stroke="white" stroke-width="1.5" pointer-events="none"/>
  </g>
  <g id="zoomMin">
    <use xlink:href="#rim" fill="#404040"><set attributeName="fill" to="#808080" begin="zoomminus.mouseover" end="zoomminus.mouseout"/></use>
    <path d="M-4,0h8" fill="none" stroke="white" stroke-width="1.5" pointer-events="none"/>
  </g>
  <g id="arrowUp" transform="translate(30 24)">
    <use xlink:href="#rim"/>
    <path pointer-events="none" fill="none" stroke="white" stroke-width="1.5" d="M0,-3.0v7 M-2.5,-0.5L0,-3.0L2.5,-0.5"/>
  </g>
  <g id="arrowRight" transform="rotate(90) translate(36 -43)">
    <use xlink:href="#rim"/>
    <path pointer-events="none" fill="none" stroke="white" stroke-width="1.5" d="M0,-3.0v7 M-2.5,-0.5L0,-3.0L2.5,-0.5"/>
  </g>
  <g id="arrowDown" transform="rotate(180) translate(-30 -48)">
    <use xlink:href="#rim"/>
    <path pointer-events="none" fill="none" stroke="white" stroke-width="1.5" d="M0,-3.0v7 M-2.5,-0.5L0,-3.0L2.5,-0.5"/>
  </g>
  <g id="arrowLeft" transform="rotate(270) translate(-36 17)">
    <use xlink:href="#rim"/>
    <path pointer-events="none" fill="none" stroke="white" stroke-width="1.5" d="M0,-3.0v7 M-2.5,-0.5L0,-3.0L2.5,-0.5"/>
  </g>
  <g id="resetDef">
    <use xlink:href="#rim2" fill="#404040"><set attributeName="fill" to="#808080" begin="reset.mouseover" end="reset.mouseout"/></use>
  </g>
</defs>
<script type="application/ecmascript">
var viewWidth = 1085;
var viewHeight = 567;
var sectionId = 'dynsection-88';
</script>
<script type="application/ecmascript" xlink:href="svg.min.js"/>
<svg id="graph" class="graph">
<g id="viewport">
<title>func_800323E4</title>
<!-- Node1 -->
<g id="Node000001" class="node">
<title>Node1</title>
<g id="a_Node000001"><a xlink:title=" ">
<polygon fill="#999999" stroke="#666666" points="91,-132.34 0,-132.34 0,-113.34 91,-113.34 91,-132.34"/>
<text text-anchor="middle" x="45.5" y="-120.34" font-family="Helvetica,sans-Serif" font-size="10.00">func_800323E4</text>
</a>
</g>
</g>
<!-- Node2 -->
<g id="Node000002" class="node">
<title>Node2</title>
<g id="a_Node000002"><a xlink:href="player__controller_8c.html#a179bafe2f3564cef92bacebc2b770bf1" target="_top" xlink:title=" ">
<polygon fill="white" stroke="#666666" points="231,-132.34 127,-132.34 127,-113.34 231,-113.34 231,-132.34"/>
<text text-anchor="middle" x="179" y="-120.34" font-family="Helvetica,sans-Serif" font-size="10.00">player_decelerate</text>
</a>
</g>
</g>
<!-- Node1&#45;&gt;Node2 -->
<g id="edge1_Node000001_Node000002" class="edge">
<title>Node1&#45;&gt;Node2</title>
<g id="a_edge1_Node000001_Node000002"><a xlink:title=" ">
<path fill="none" stroke="#63b8ff" d="M91.02,-122.84C99.27,-122.84 108.01,-122.84 116.66,-122.84"/>
<polygon fill="#63b8ff" stroke="#63b8ff" points="116.72,-126.34 126.72,-122.84 116.72,-119.34 116.72,-126.34"/>
</a>
</g>
</g>
<!-- Node3 -->
<g id="Node000003" class="node">
<title>Node3</title>
<g id="a_Node000003"><a xlink:href="effects_8c.html#ae77e5662a7ef9f09c2e2150a36883d04" target="_top" xlink:title=" ">
<polygon fill="white" stroke="#666666" points="372,-154.34 281,-154.34 281,-135.34 372,-135.34 372,-154.34"/>
<text text-anchor="middle" x="326.5" y="-142.34" font-family="Helvetica,sans-Serif" font-size="10.00">func_8008F104</text>
</a>
</g>
</g>
<!-- Node2&#45;&gt;Node3 -->
<g id="edge2_Node000002_Node000003" class="edge">
<title>Node2&#45;&gt;Node3</title>
<g id="a_edge2_Node000002_Node000003"><a xlink:title=" ">
<path fill="none" stroke="#63b8ff" d="M231.3,-130.6C244.08,-132.53 257.83,-134.61 270.77,-136.57"/>
<polygon fill="#63b8ff" stroke="#63b8ff" points="270.53,-140.07 280.94,-138.1 271.58,-133.15 270.53,-140.07"/>
</a>
</g>
</g>
<!-- Node24 -->
<g id="Node000024" class="node">
<title>Node24</title>
<g id="a_Node000024"><a xlink:href="player__controller_8c.html#aafeb0470c7da44e1440ffa4848f7d500" target="_top" xlink:title=" ">
<polygon fill="white" stroke="#666666" points="386,-116.84 267,-116.84 267,-86.84 386,-86.84 386,-116.84"/>
<text text-anchor="start" x="275" y="-104.84" font-family="Helvetica,sans-Serif" font-size="10.00">get_player_index_for</text>
<text text-anchor="middle" x="326.5" y="-93.84" font-family="Helvetica,sans-Serif" font-size="10.00">_player</text>
</a>
</g>
</g>
<!-- Node2&#45;&gt;Node24 -->
<g id="edge24_Node000002_Node000024" class="edge">
<title>Node2&#45;&gt;Node24</title>
<g id="a_edge24_Node000002_Node000024"><a xlink:title=" ">
<path fill="none" stroke="#63b8ff" d="M231.3,-115.44C239.59,-114.24 248.29,-112.99 256.91,-111.74"/>
<polygon fill="#63b8ff" stroke="#63b8ff" points="257.57,-115.18 266.97,-110.29 256.57,-108.25 257.57,-115.18"/>
</a>
</g>
</g>
<!-- Node4 -->
<g id="Node000004" class="node">
<title>Node4</title>
<g id="a_Node000004"><a xlink:href="effects_8c.html#aeda67f98b2369b1c3952d9e4eb30b4d1" target="_top" xlink:title=" ">
<polygon fill="white" stroke="#666666" points="498,-300.34 422,-300.34 422,-281.34 498,-281.34 498,-300.34"/>
<text text-anchor="middle" x="460" y="-288.34" font-family="Helvetica,sans-Serif" font-size="10.00">clean_effect</text>
</a>
</g>
</g>
<!-- Node3&#45;&gt;Node4 -->
<g id="edge3_Node000003_Node000004" class="edge">
<title>Node3&#45;&gt;Node4</title>
<g id="a_edge3_Node000003_Node000004"><a xlink:title=" ">
<path fill="none" stroke="#63b8ff" d="M336.13,-154.42C357.95,-178.65 415.57,-242.62 443.45,-273.58"/>
<polygon fill="#63b8ff" stroke="#63b8ff" points="440.87,-275.95 450.17,-281.04 446.08,-271.26 440.87,-275.95"/>
</a>
</g>
</g>
<!-- Node23 -->
<g id="Node000023" class="node">
<title>Node23</title>
<g id="a_Node000023"><a xlink:href="external_8c.html#a337fc3ab94ebb3293a85908229303ac8" target="_top" xlink:title=" ">
<polygon fill="white" stroke="#666666" points="830,-97.34 738,-97.34 738,-78.34 830,-78.34 830,-97.34"/>
<text text-anchor="middle" x="784" y="-85.34" font-family="Helvetica,sans-Serif" font-size="10.00">func_800C90F4</text>
</a>
</g>
</g>
<!-- Node3&#45;&gt;Node23 -->
<g id="edge22_Node000003_Node000023" class="edge">
<title>Node3&#45;&gt;Node23</title>
<g id="a_edge22_Node000003_Node000023"><a xlink:title=" ">
<path fill="none" stroke="#63b8ff" d="M363.19,-135.26C370.9,-132.65 378.88,-129.5 386,-125.84 458.67,-88.52 456.39,-42.34 534,-16.84 600.71,5.07 625.6,6 692,-16.84 722.78,-27.43 751.13,-53.16 767.75,-70.56"/>
<polygon fill="#63b8ff" stroke="#63b8ff" points="765.57,-73.36 774.92,-78.33 770.71,-68.61 765.57,-73.36"/>
</a>
</g>
</g>
<!-- Node5 -->
<g id="Node000005" class="node">
<title>Node5</title>
<g id="a_Node000005"><a xlink:href="effects_8c.html#ad164a912d7ef76f24e7b5cfb9169c16f" target="_top" xlink:title=" ">
<polygon fill="white" stroke="#666666" points="659.5,-559.34 566.5,-559.34 566.5,-540.34 659.5,-540.34 659.5,-559.34"/>
<text text-anchor="middle" x="613" y="-547.34" font-family="Helvetica,sans-Serif" font-size="10.00">func_8008C6D0</text>
</a>
</g>
</g>
<!-- Node4&#45;&gt;Node5 -->
<g id="edge4_Node000004_Node000005" class="edge">
<title>Node4&#45;&gt;Node5</title>
<g id="a_edge4_Node000004_Node000005"><a xlink:title=" ">
<path fill="none" stroke="#63b8ff" d="M460.75,-300.39C460.36,-336.57 464.06,-466.46 534,-531.84 540.35,-537.78 548.25,-541.89 556.57,-544.71"/>
<polygon fill="#63b8ff" stroke="#63b8ff" points="555.88,-548.15 566.45,-547.46 557.76,-541.41 555.88,-548.15"/>
</a>
</g>
</g>
<!-- Node6 -->
<g id="Node000006" class="node">
<title>Node6</title>
<g id="a_Node000006"><a xlink:href="effects_8c.html#a105203221e314be241a95e006b62ef80" target="_top" xlink:title=" ">
<polygon fill="white" stroke="#666666" points="659,-522.34 567,-522.34 567,-503.34 659,-503.34 659,-522.34"/>
<text text-anchor="middle" x="613" y="-510.34" font-family="Helvetica,sans-Serif" font-size="10.00">func_8008C8C4</text>
</a>
</g>
</g>
<!-- Node4&#45;&gt;Node6 -->
<g id="edge5_Node000004_Node000006" class="edge">
<title>Node4&#45;&gt;Node6</title>
<g id="a_edge5_Node000004_Node000006"><a xlink:title=" ">
<path fill="none" stroke="#63b8ff" d="M461.37,-300.73C463.15,-333.74 473.57,-441.09 534,-494.84 540.49,-500.62 548.47,-504.65 556.81,-507.43"/>
<polygon fill="#63b8ff" stroke="#63b8ff" points="556.14,-510.88 566.71,-510.17 558.01,-504.13 556.14,-510.88"/>
</a>
</g>
</g>
<!-- Node7 -->
<g id="Node000007" class="node">
<title>Node7</title>
<g id="a_Node000007"><a xlink:href="effects_8c.html#acab450a6af6eca812ad3987a292a5165" target="_top" xlink:title=" ">
<polygon fill="white" stroke="#666666" points="659,-485.34 567,-485.34 567,-466.34 659,-466.34 659,-485.34"/>
<text text-anchor="middle" x="613" y="-473.34" font-family="Helvetica,sans-Serif" font-size="10.00">func_8008D0E4</text>
</a>
</g>
</g>
<!-- Node4&#45;&gt;Node7 -->
<g id="edge6_Node000004_Node000007" class="edge">
<title>Node4&#45;&gt;Node7</title>
<g id="a_edge6_Node000004_Node000007"><a xlink:title=" ">
<path fill="none" stroke="#63b8ff" d="M462.21,-300.56C466.35,-329.4 482.63,-415.2 534,-457.84 540.61,-463.33 548.58,-467.21 556.86,-469.95"/>
<polygon fill="#63b8ff" stroke="#63b8ff" points="556.09,-473.37 566.66,-472.67 557.96,-466.63 556.09,-473.37"/>
</a>
</g>
</g>
<!-- Node8 -->
<g id="Node000008" class="node">
<title>Node8</title>
<g id="a_Node000008"><a xlink:href="effects_8c.html#a663cb8df8b606cf00e361977c9d6d834" target="_top" xlink:title=" ">
<polygon fill="white" stroke="#666666" points="659.5,-448.34 566.5,-448.34 566.5,-429.34 659.5,-429.34 659.5,-448.34"/>
<text text-anchor="middle" x="613" y="-436.34" font-family="Helvetica,sans-Serif" font-size="10.00">func_8008D3B0</text>
</a>
</g>
</g>
<!-- Node4&#45;&gt;Node8 -->
<g id="edge7_Node000004_Node000008" class="edge">
<title>Node4&#45;&gt;Node8</title>
<g id="a_edge7_Node000004_Node000008"><a xlink:title=" ">
<path fill="none" stroke="#63b8ff" d="M463.48,-300.48C470.27,-324.8 491.53,-389.03 534,-420.84 540.64,-425.82 548.43,-429.45 556.47,-432.1"/>
<polygon fill="#63b8ff" stroke="#63b8ff" points="555.76,-435.54 566.34,-434.86 557.65,-428.8 555.76,-435.54"/>
</a>
</g>
</g>
<!-- Node9 -->
<g id="Node000009" class="node">
<title>Node9</title>
<g id="a_Node000009"><a xlink:href="effects_8c.html#a5f19eaaa048055d292d02c717e635786" target="_top" xlink:title=" ">
<polygon fill="white" stroke="#666666" points="659,-411.34 567,-411.34 567,-392.34 659,-392.34 659,-411.34"/>
<text text-anchor="middle" x="613" y="-399.34" font-family="Helvetica,sans-Serif" font-size="10.00">func_8008D760</text>
</a>
</g>
</g>
<!-- Node4&#45;&gt;Node9 -->
<g id="edge8_Node000004_Node000009" class="edge">
<title>Node4&#45;&gt;Node9</title>
<g id="a_edge8_Node000004_Node000009"><a xlink:title=" ">
<path fill="none" stroke="#63b8ff" d="M465.7,-300.51C475.54,-319.65 500.22,-362.38 534,-383.84 540.92,-388.24 548.8,-391.57 556.82,-394.08"/>
<polygon fill="#63b8ff" stroke="#63b8ff" points="556.05,-397.5 566.62,-396.77 557.9,-390.75 556.05,-397.5"/>
</a>
</g>
</g>
<!-- Node10 -->
<g id="Node000010" class="node">
<title>Node10</title>
<g id="a_Node000010"><a xlink:href="effects_8c.html#a4ea2da0616ee3c475e4be217dc0bc71f" target="_top" xlink:title=" ">
<polygon fill="white" stroke="#666666" points="659.5,-374.34 566.5,-374.34 566.5,-355.34 659.5,-355.34 659.5,-374.34"/>
<text text-anchor="middle" x="613" y="-362.34" font-family="Helvetica,sans-Serif" font-size="10.00">func_8008D97C</text>
</a>
</g>
</g>
<!-- Node4&#45;&gt;Node10 -->
<g id="edge9_Node000004_Node000010" class="edge">
<title>Node4&#45;&gt;Node10</title>
<g id="a_edge9_Node000004_Node000010"><a xlink:title=" ">
<path fill="none" stroke="#63b8ff" d="M470.93,-300.75C484.17,-313.38 508.86,-334.99 534,-346.84 541.07,-350.18 548.8,-352.91 556.56,-355.16"/>
<polygon fill="#63b8ff" stroke="#63b8ff" points="555.79,-358.57 566.35,-357.74 557.57,-351.8 555.79,-358.57"/>
</a>
</g>
</g>
<!-- Node11 -->
<g id="Node000011" class="node">
<title>Node11</title>
<g id="a_Node000011"><a xlink:href="effects_8c.html#a4a437d6caeeaa794bcce43ec60c097e9" target="_top" xlink:title=" ">
<polygon fill="white" stroke="#666666" points="658.5,-337.34 567.5,-337.34 567.5,-318.34 658.5,-318.34 658.5,-337.34"/>
<text text-anchor="middle" x="613" y="-325.34" font-family="Helvetica,sans-Serif" font-size="10.00">func_8008E884</text>
</a>
</g>
</g>
<!-- Node4&#45;&gt;Node11 -->
<g id="edge10_Node000004_Node000011" class="edge">
<title>Node4&#45;&gt;Node11</title>
<g id="a_edge10_Node000004_Node000011"><a xlink:title=" ">
<path fill="none" stroke="#63b8ff" d="M496.97,-300.41C508.75,-303.49 521.92,-306.88 534,-309.84 542.34,-311.89 551.2,-314 559.85,-316.02"/>
<polygon fill="#63b8ff" stroke="#63b8ff" points="559.32,-319.49 569.85,-318.34 560.9,-312.67 559.32,-319.49"/>
</a>
</g>
</g>
<!-- Node12 -->
<g id="Node000012" class="node">
<title>Node12</title>
<g id="a_Node000012"><a xlink:href="effects_8c.html#ae02351b6bbb678b552ec8864b47fc56c" target="_top" xlink:title=" ">
<polygon fill="white" stroke="#666666" points="658.5,-300.34 567.5,-300.34 567.5,-281.34 658.5,-281.34 658.5,-300.34"/>
<text text-anchor="middle" x="613" y="-288.34" font-family="Helvetica,sans-Serif" font-size="10.00">func_8008F3E0</text>
</a>
</g>
</g>
<!-- Node4&#45;&gt;Node12 -->
<g id="edge11_Node000004_Node000012" class="edge">
<title>Node4&#45;&gt;Node12</title>
<g id="a_edge11_Node000004_Node000012"><a xlink:title=" ">
<path fill="none" stroke="#63b8ff" d="M498.33,-290.84C516.1,-290.84 537.71,-290.84 557.29,-290.84"/>
<polygon fill="#63b8ff" stroke="#63b8ff" points="557.31,-294.34 567.31,-290.84 557.31,-287.34 557.31,-294.34"/>
</a>
</g>
</g>
<!-- Node13 -->
<g id="Node000013" class="node">
<title>Node13</title>
<g id="a_Node000013"><a xlink:href="effects_8c.html#afcf39ca15166fb7561402462930cd979" target="_top" xlink:title=" ">
<polygon fill="white" stroke="#666666" points="659,-263.34 567,-263.34 567,-244.34 659,-244.34 659,-263.34"/>
<text text-anchor="middle" x="613" y="-251.34" font-family="Helvetica,sans-Serif" font-size="10.00">func_8008F5A4</text>
</a>
</g>
</g>
<!-- Node4&#45;&gt;Node13 -->
<g id="edge12_Node000004_Node000013" class="edge">
<title>Node4&#45;&gt;Node13</title>
<g id="a_edge12_Node000004_Node000013"><a xlink:title=" ">
<path fill="none" stroke="#63b8ff" d="M498.13,-281.66C509.63,-278.83 522.34,-275.7 534,-272.84 543.34,-270.55 553.32,-268.12 562.91,-265.78"/>
<polygon fill="#63b8ff" stroke="#63b8ff" points="563.83,-269.16 572.71,-263.39 562.17,-262.35 563.83,-269.16"/>
</a>
</g>
</g>
<!-- Node18 -->
<g id="Node000018" class="node">
<title>Node18</title>
<g id="a_Node000018"><a xlink:href="effects_8c.html#ab6d84742231847170dd64267f0519cdf" target="_top" xlink:title=" ">
<polygon fill="white" stroke="#666666" points="659.5,-226.34 566.5,-226.34 566.5,-207.34 659.5,-207.34 659.5,-226.34"/>
<text text-anchor="middle" x="613" y="-214.34" font-family="Helvetica,sans-Serif" font-size="10.00">func_8008FEDC</text>
</a>
</g>
</g>
<!-- Node4&#45;&gt;Node18 -->
<g id="edge17_Node000004_Node000018" class="edge">
<title>Node4&#45;&gt;Node18</title>
<g id="a_edge17_Node000004_Node000018"><a xlink:title=" ">
<path fill="none" stroke="#63b8ff" d="M470.99,-281.16C484.29,-268.82 509.05,-247.66 534,-235.84 541.09,-232.49 548.82,-229.69 556.58,-227.36"/>
<polygon fill="#63b8ff" stroke="#63b8ff" points="557.67,-230.7 566.38,-224.67 555.81,-223.95 557.67,-230.7"/>
</a>
</g>
</g>
<!-- Node19 -->
<g id="Node000019" class="node">
<title>Node19</title>
<g id="a_Node000019"><a xlink:href="effects_8c.html#a5b9e2c886a5267f2cca1190984277a38" target="_top" xlink:title=" ">
<polygon fill="white" stroke="#666666" points="672.5,-189.34 553.5,-189.34 553.5,-170.34 672.5,-170.34 672.5,-189.34"/>
<text text-anchor="middle" x="613" y="-177.34" font-family="Helvetica,sans-Serif" font-size="10.00">remove_boost_effect</text>
</a>
</g>
</g>
<!-- Node4&#45;&gt;Node19 -->
<g id="edge18_Node000004_Node000019" class="edge">
<title>Node4&#45;&gt;Node19</title>
<g id="a_edge18_Node000004_Node000019"><a xlink:title=" ">
<path fill="none" stroke="#63b8ff" d="M465.76,-281.31C475.69,-262.44 500.52,-220.28 534,-198.84 537.34,-196.7 540.9,-194.81 544.59,-193.12"/>
<polygon fill="#63b8ff" stroke="#63b8ff" points="545.99,-196.33 553.98,-189.36 543.39,-189.83 545.99,-196.33"/>
</a>
</g>
</g>
<!-- Node20 -->
<g id="Node000020" class="node">
<title>Node20</title>
<g id="a_Node000020"><a xlink:href="effects_8c.html#a4768d56263e476d3bac47ee01bac3dc8" target="_top" xlink:title=" ">
<polygon fill="white" stroke="#666666" points="692,-151.84 534,-151.84 534,-121.84 692,-121.84 692,-151.84"/>
<text text-anchor="start" x="542" y="-139.84" font-family="Helvetica,sans-Serif" font-size="10.00">remove_boost_ramp_asphalt</text>
<text text-anchor="middle" x="613" y="-128.84" font-family="Helvetica,sans-Serif" font-size="10.00">_effect</text>
</a>
</g>
</g>
<!-- Node4&#45;&gt;Node20 -->
<g id="edge19_Node000004_Node000020" class="edge">
<title>Node4&#45;&gt;Node20</title>
<g id="a_edge19_Node000004_Node000020"><a xlink:title=" ">
<path fill="none" stroke="#63b8ff" d="M463.77,-281.14C471.1,-257.22 493.28,-194.97 534,-161.84 536.08,-160.15 538.27,-158.58 540.55,-157.11"/>
<polygon fill="#63b8ff" stroke="#63b8ff" points="542.72,-159.9 549.71,-151.95 539.28,-153.8 542.72,-159.9"/>
</a>
</g>
</g>
<!-- Node21 -->
<g id="Node000021" class="node">
<title>Node21</title>
<g id="a_Node000021"><a xlink:href="effects_8c.html#aafe14c45e9b91bb1d409ef2f2bfe5c53" target="_top" xlink:title=" ">
<polygon fill="white" stroke="#666666" points="687.5,-103.84 538.5,-103.84 538.5,-73.84 687.5,-73.84 687.5,-103.84"/>
<text text-anchor="start" x="546.5" y="-91.84" font-family="Helvetica,sans-Serif" font-size="10.00">remove_boost_ramp_wood</text>
<text text-anchor="middle" x="613" y="-80.84" font-family="Helvetica,sans-Serif" font-size="10.00">_effect</text>
</a>
</g>
</g>
<!-- Node4&#45;&gt;Node21 -->
<g id="edge20_Node000004_Node000021" class="edge">
<title>Node4&#45;&gt;Node21</title>
<g id="a_edge20_Node000004_Node000021"><a xlink:title=" ">
<path fill="none" stroke="#63b8ff" d="M462.09,-281.11C465.96,-251.33 481.71,-160.59 534,-112.84 535.29,-111.66 536.65,-110.53 538.05,-109.47"/>
<polygon fill="#63b8ff" stroke="#63b8ff" points="540.07,-112.32 546.54,-103.93 536.25,-106.46 540.07,-112.32"/>
</a>
</g>
</g>
<!-- Node22 -->
<g id="Node000022" class="node">
<title>Node22</title>
<g id="a_Node000022"><a xlink:href="effects_8c.html#a0d5728af3b320b88b01fadef778fcbff" target="_top" xlink:title=" ">
<polygon fill="white" stroke="#666666" points="671.5,-55.84 554.5,-55.84 554.5,-25.84 671.5,-25.84 671.5,-55.84"/>
<text text-anchor="start" x="562.5" y="-43.84" font-family="Helvetica,sans-Serif" font-size="10.00">remove_hit_by_item</text>
<text text-anchor="middle" x="613" y="-32.84" font-family="Helvetica,sans-Serif" font-size="10.00">_effect</text>
</a>
</g>
</g>
<!-- Node4&#45;&gt;Node22 -->
<g id="edge21_Node000004_Node000022" class="edge">
<title>Node4&#45;&gt;Node22</title>
<g id="a_edge21_Node000004_Node000022"><a xlink:title=" ">
<path fill="none" stroke="#63b8ff" d="M461.13,-281.08C462.14,-246.37 470.29,-127.67 534,-64.84 537.32,-61.56 541.09,-58.73 545.12,-56.28"/>
<polygon fill="#63b8ff" stroke="#63b8ff" points="547.04,-59.23 554.3,-51.52 543.81,-53.02 547.04,-59.23"/>
</a>
</g>
</g>
<!-- Node14 -->
<g id="Node000014" class="node">
<title>Node14</title>
<g id="a_Node000014"><a xlink:href="code__80057C60_8c.html#ae28b6eb556910087cea23f0cb7a322bd" target="_top" xlink:title=" ">
<polygon fill="white" stroke="#666666" points="840,-251.34 728,-251.34 728,-232.34 840,-232.34 840,-251.34"/>
<text text-anchor="middle" x="784" y="-239.34" font-family="Helvetica,sans-Serif" font-size="10.00">pop_player_balloon</text>
</a>
</g>
</g>
<!-- Node13&#45;&gt;Node14 -->
<g id="edge13_Node000013_Node000014" class="edge">
<title>Node13&#45;&gt;Node14</title>
<g id="a_edge13_Node000013_Node000014"><a xlink:title=" ">
<path fill="none" stroke="#63b8ff" d="M659.29,-250.63C677.27,-249.35 698.3,-247.86 717.87,-246.47"/>
<polygon fill="#63b8ff" stroke="#63b8ff" points="718.21,-249.95 727.94,-245.75 717.72,-242.97 718.21,-249.95"/>
</a>
</g>
</g>
<!-- Node15 -->
<g id="Node000015" class="node">
<title>Node15</title>
<g id="a_Node000015"><a xlink:href="effects_8c.html#a1c7552c4a370cc015c2726e40f1fdb06" target="_top" xlink:title=" ">
<polygon fill="white" stroke="#666666" points="969,-251.34 876,-251.34 876,-232.34 969,-232.34 969,-251.34"/>
<text text-anchor="middle" x="922.5" y="-239.34" font-family="Helvetica,sans-Serif" font-size="10.00">func_8008FD4C</text>
</a>
</g>
</g>
<!-- Node14&#45;&gt;Node15 -->
<g id="edge14_Node000014_Node000015" class="edge">
<title>Node14&#45;&gt;Node15</title>
<g id="a_edge14_Node000014_Node000015"><a xlink:title=" ">
<path fill="none" stroke="#63b8ff" d="M840.13,-241.84C848.54,-241.84 857.24,-241.84 865.67,-241.84"/>
<polygon fill="#63b8ff" stroke="#63b8ff" points="865.79,-245.34 875.79,-241.84 865.79,-238.34 865.79,-245.34"/>
</a>
</g>
</g>
<!-- Node16 -->
<g id="Node000016" class="node">
<title>Node16</title>
<g id="a_Node000016"><a xlink:href="external_8c.html#a2be9efc97a92e19d02aaee90d676acc1" target="_top" xlink:title=" ">
<polygon fill="white" stroke="#666666" points="968.5,-203.34 876.5,-203.34 876.5,-184.34 968.5,-184.34 968.5,-203.34"/>
<text text-anchor="middle" x="922.5" y="-191.34" font-family="Helvetica,sans-Serif" font-size="10.00">func_800C9060</text>
</a>
</g>
</g>
<!-- Node14&#45;&gt;Node16 -->
<g id="edge15_Node000014_Node000016" class="edge">
<title>Node14&#45;&gt;Node16</title>
<g id="a_edge15_Node000014_Node000016"><a xlink:title=" ">
<path fill="none" stroke="#63b8ff" d="M812.29,-232.24C833.03,-224.95 861.78,-214.84 884.57,-206.83"/>
<polygon fill="#63b8ff" stroke="#63b8ff" points="885.98,-210.04 894.25,-203.42 883.66,-203.44 885.98,-210.04"/>
</a>
</g>
</g>
<!-- Node17 -->
<g id="Node000017" class="node">
<title>Node17</title>
<g id="a_Node000017"><a xlink:href="external_8c.html#a475cff796211891556f52877cd8e9b9e" target="_top" xlink:title=" ">
<polygon fill="white" stroke="#666666" points="1077,-161.34 1005,-161.34 1005,-142.34 1077,-142.34 1077,-161.34"/>
<text text-anchor="middle" x="1041" y="-149.34" font-family="Helvetica,sans-Serif" font-size="10.00">play_sound</text>
</a>
</g>
</g>
<!-- Node16&#45;&gt;Node17 -->
<g id="edge16_Node000016_Node000017" class="edge">
<title>Node16&#45;&gt;Node17</title>
<g id="a_edge16_Node000016_Node000017"><a xlink:title=" ">
<path fill="none" stroke="#63b8ff" d="M949.94,-184.31C965.76,-178.61 986.11,-171.27 1003.45,-165.02"/>
<polygon fill="#63b8ff" stroke="#63b8ff" points="1005.05,-168.16 1013.27,-161.48 1002.67,-161.58 1005.05,-168.16"/>
</a>
</g>
</g>
<!-- Node23&#45;&gt;Node17 -->
<g id="edge23_Node000023_Node000017" class="edge">
<title>Node23&#45;&gt;Node17</title>
<g id="a_edge23_Node000023_Node000017"><a xlink:title=" ">
<path fill="none" stroke="#63b8ff" d="M822.9,-97.35C868.75,-108.86 945.87,-128.22 994.78,-140.49"/>
<polygon fill="#63b8ff" stroke="#63b8ff" points="994.22,-143.96 1004.77,-143 995.92,-137.17 994.22,-143.96"/>
</a>
</g>
</g>
</g>
</svg>

<g id="navigator" transform="translate(0 0)" fill="#404254">
  <rect fill="#f2f5e9" fill-opacity="0.5" stroke="#606060" stroke-width=".5" x="0" y="0" width="60" height="60"/>
  <use id="zoomplus" xlink:href="#zoomPlus" x="17" y="9" onmousedown="handleZoom(evt,'in')"/>
  <use id="zoomminus" xlink:href="#zoomMin" x="42" y="9" onmousedown="handleZoom(evt,'out')"/>
  <use id="reset" xlink:href="#resetDef" x="30" y="36" onmousedown="handleReset()"/>
   <use id="arrowup" xlink:href="#arrowUp" x="0" y="0" onmousedown="handlePan(0,-1)"/>
  <use id="arrowright" xlink:href="#arrowRight" x="0" y="0" onmousedown="handlePan(1,0)"/>
  <use id="arrowdown" xlink:href="#arrowDown" x="0" y="0" onmousedown="handlePan(0,1)"/>
  <use id="arrowleft" xlink:href="#arrowLeft" x="0" y="0" onmousedown="handlePan(-1,0)"/>
</g>
<svg viewBox="0 0 15 15" width="100%" height="30px" preserveAspectRatio="xMaxYMin meet">
 <g id="arrow_out" transform="scale(0.3 0.3)">
  <a xlink:href="player__controller_8c_af15169209879a48ae06ba698b386faa6_cgraph_org.svg" target="_base">
   <rect id="button" ry="5" rx="5" y="6" x="6" height="38" width="38"
        fill="#f2f5e9" fill-opacity="0.5" stroke="#606060" stroke-width="1.0"/>
   <path id="arrow"
     d="M 11.500037,31.436501 C 11.940474,20.09759 22.043105,11.32322 32.158766,21.979434 L 37.068811,17.246167 C 37.068811,17.246167 37.088388,32 37.088388,32 L 22.160133,31.978069 C 22.160133,31.978069 26.997745,27.140456 26.997745,27.140456 C 18.528582,18.264221 13.291696,25.230495 11.500037,31.436501 z"
     style="fill:#404040;"/>
  </a>
 </g>
</svg>

<style type='text/css'>
<![CDATA[
[data-mouse-over-selected='false'] { opacity: 0.7; }
[data-mouse-over-selected='true']  { opacity: 1.0; }
]]>
</style>
<script type="application/ecmascript"><![CDATA[
document.addEventListener('DOMContentLoaded', (event) => {
  highlightEdges();
  highlightAdjacentNodes();
});
]]></script>
</svg>
