<?xml version="1.0" encoding="UTF-8" standalone="no"?>
<!DOCTYPE svg PUBLIC "-//W3C//DTD SVG 1.1//EN"
 "http://www.w3.org/Graphics/SVG/1.1/DTD/svg11.dtd">
<!-- Generated by graphviz version 2.43.0 (0)
 -->
<!-- Title: start_race Pages: 1 -->
<svg width="585pt" height="101pt"
 viewBox="0.00 0.00 585.00 101.00" xmlns="http://www.w3.org/2000/svg" xmlns:xlink="http://www.w3.org/1999/xlink">
<g id="graph0" class="graph" transform="scale(1 1) rotate(0) translate(4 97)">
<title>start_race</title>
<!-- Node1 -->
<g id="Node000001" class="node">
<title>Node1</title>
<g id="a_Node000001"><a xlink:title=" ">
<polygon fill="#999999" stroke="#666666" points="65,-56 0,-56 0,-37 65,-37 65,-56"/>
<text text-anchor="middle" x="32.5" y="-44" font-family="Helvetica,sans-Serif" font-size="10.00">start_race</text>
</a>
</g>
</g>
<!-- Node2 -->
<g id="Node000002" class="node">
<title>Node2</title>
<g id="a_Node000002"><a xlink:href="race__logic_8c.html#a81fc82f45c9f9fcbf0d71fd2e0d6853c" target="_top" xlink:title=" ">
<polygon fill="white" stroke="#666666" points="193,-56 101,-56 101,-37 193,-37 193,-56"/>
<text text-anchor="middle" x="147" y="-44" font-family="Helvetica,sans-Serif" font-size="10.00">func_8028EC98</text>
</a>
</g>
</g>
<!-- Node1&#45;&gt;Node2 -->
<g id="edge1_Node000001_Node000002" class="edge">
<title>Node1&#45;&gt;Node2</title>
<g id="a_edge1_Node000001_Node000002"><a xlink:title=" ">
<path fill="none" stroke="#63b8ff" d="M65.14,-46.5C73.08,-46.5 81.83,-46.5 90.56,-46.5"/>
<polygon fill="#63b8ff" stroke="#63b8ff" points="90.75,-50 100.75,-46.5 90.75,-43 90.75,-50"/>
</a>
</g>
</g>
<!-- Node3 -->
<g id="Node000003" class="node">
<title>Node3</title>
<g id="a_Node000003"><a xlink:href="Game_8cpp.html#a3416a195a0c7be6ec3783bbf4842dc3e" target="_top" xlink:title=" ">
<polygon fill="white" stroke="#666666" points="316,-93 234,-93 234,-74 316,-74 316,-93"/>
<text text-anchor="middle" x="275" y="-81" font-family="Helvetica,sans-Serif" font-size="10.00">CM_GetProps</text>
</a>
</g>
</g>
<!-- Node2&#45;&gt;Node3 -->
<g id="edge2_Node000002_Node000003" class="edge">
<title>Node2&#45;&gt;Node3</title>
<g id="a_edge2_Node000002_Node000003"><a xlink:title=" ">
<path fill="none" stroke="#63b8ff" d="M180.45,-56.03C195.91,-60.57 214.6,-66.06 231.2,-70.93"/>
<polygon fill="#63b8ff" stroke="#63b8ff" points="230.64,-74.42 241.22,-73.88 232.62,-67.7 230.64,-74.42"/>
</a>
</g>
</g>
<!-- Node4 -->
<g id="Node000004" class="node">
<title>Node4</title>
<g id="a_Node000004"><a xlink:href="code__800029B0_8c.html#a7f2e9212dffa5894377677511e9aea7a" target="_top" xlink:title=" ">
<polygon fill="white" stroke="#666666" points="321,-56 229,-56 229,-37 321,-37 321,-56"/>
<text text-anchor="middle" x="275" y="-44" font-family="Helvetica,sans-Serif" font-size="10.00">func_800029B0</text>
</a>
</g>
</g>
<!-- Node2&#45;&gt;Node4 -->
<g id="edge3_Node000002_Node000004" class="edge">
<title>Node2&#45;&gt;Node4</title>
<g id="a_edge3_Node000002_Node000004"><a xlink:title=" ">
<path fill="none" stroke="#63b8ff" d="M193.13,-46.5C201.37,-46.5 210.04,-46.5 218.53,-46.5"/>
<polygon fill="#63b8ff" stroke="#63b8ff" points="218.76,-50 228.76,-46.5 218.76,-43 218.76,-50"/>
</a>
</g>
</g>
<!-- Node7 -->
<g id="Node000007" class="node">
<title>Node7</title>
<g id="a_Node000007"><a xlink:href="external_8c.html#a6584dbe6b07d52e25d5ca892468153a5" target="_top" xlink:title=" ">
<polygon fill="white" stroke="#666666" points="319.5,-19 230.5,-19 230.5,0 319.5,0 319.5,-19"/>
<text text-anchor="middle" x="275" y="-7" font-family="Helvetica,sans-Serif" font-size="10.00">play_sequence</text>
</a>
</g>
</g>
<!-- Node2&#45;&gt;Node7 -->
<g id="edge6_Node000002_Node000007" class="edge">
<title>Node2&#45;&gt;Node7</title>
<g id="a_edge6_Node000002_Node000007"><a xlink:title=" ">
<path fill="none" stroke="#63b8ff" d="M180.45,-36.97C195.91,-32.43 214.6,-26.94 231.2,-22.07"/>
<polygon fill="#63b8ff" stroke="#63b8ff" points="232.62,-25.3 241.22,-19.12 230.64,-18.58 232.62,-25.3"/>
</a>
</g>
</g>
<!-- Node5 -->
<g id="Node000005" class="node">
<title>Node5</title>
<g id="a_Node000005"><a xlink:href="external_8c.html#af284aef5378575cf597e04e3dfaac044" target="_top" xlink:title=" ">
<polygon fill="white" stroke="#666666" points="449,-56 357,-56 357,-37 449,-37 449,-56"/>
<text text-anchor="middle" x="403" y="-44" font-family="Helvetica,sans-Serif" font-size="10.00">func_800C8F44</text>
</a>
</g>
</g>
<!-- Node4&#45;&gt;Node5 -->
<g id="edge4_Node000004_Node000005" class="edge">
<title>Node4&#45;&gt;Node5</title>
<g id="a_edge4_Node000004_Node000005"><a xlink:title=" ">
<path fill="none" stroke="#63b8ff" d="M321.13,-46.5C329.37,-46.5 338.04,-46.5 346.53,-46.5"/>
<polygon fill="#63b8ff" stroke="#63b8ff" points="346.76,-50 356.76,-46.5 346.76,-43 346.76,-50"/>
</a>
</g>
</g>
<!-- Node6 -->
<g id="Node000006" class="node">
<title>Node6</title>
<g id="a_Node000006"><a xlink:href="external_8c.html#ad79a8b3dfe27cebca94c2d9e2cc54d2b" target="_top" xlink:title=" ">
<polygon fill="white" stroke="#666666" points="577,-56 485,-56 485,-37 577,-37 577,-56"/>
<text text-anchor="middle" x="531" y="-44" font-family="Helvetica,sans-Serif" font-size="10.00">func_800C36C4</text>
</a>
</g>
</g>
<!-- Node5&#45;&gt;Node6 -->
<g id="edge5_Node000005_Node000006" class="edge">
<title>Node5&#45;&gt;Node6</title>
<g id="a_edge5_Node000005_Node000006"><a xlink:title=" ">
<path fill="none" stroke="#63b8ff" d="M449.13,-46.5C457.37,-46.5 466.04,-46.5 474.53,-46.5"/>
<polygon fill="#63b8ff" stroke="#63b8ff" points="474.76,-50 484.76,-46.5 474.76,-43 474.76,-50"/>
</a>
</g>
</g>
<!-- Node8 -->
<g id="Node000008" class="node">
<title>Node8</title>
<g id="a_Node000008"><a xlink:href="external_8c.html#ac48b7cbfcaa7737f892877ead85e4ba7" target="_top" xlink:title=" ">
<polygon fill="white" stroke="#666666" points="449,-19 357,-19 357,0 449,0 449,-19"/>
<text text-anchor="middle" x="403" y="-7" font-family="Helvetica,sans-Serif" font-size="10.00">func_800C3448</text>
</a>
</g>
</g>
<!-- Node7&#45;&gt;Node8 -->
<g id="edge7_Node000007_Node000008" class="edge">
<title>Node7&#45;&gt;Node8</title>
<g id="a_edge7_Node000007_Node000008"><a xlink:title=" ">
<path fill="none" stroke="#63b8ff" d="M319.72,-9.5C328.39,-9.5 337.61,-9.5 346.61,-9.5"/>
<polygon fill="#63b8ff" stroke="#63b8ff" points="346.65,-13 356.65,-9.5 346.65,-6 346.65,-13"/>
</a>
</g>
</g>
</g>
</svg>
