<?xml version="1.0" encoding="UTF-8" standalone="no"?>
<!DOCTYPE svg PUBLIC "-//W3C//DTD SVG 1.1//EN"
 "http://www.w3.org/Graphics/SVG/1.1/DTD/svg11.dtd">
<!-- Generated by graphviz version 2.43.0 (0)
 -->
<!-- Title: draw_rectangle_texture_overlap Pages: 1 -->
<!--zoomable 985 -->

<svg id="main" version="1.1" xmlns="http://www.w3.org/2000/svg" xmlns:xlink="http://www.w3.org/1999/xlink" xml:space="preserve" onload="init(evt)">

<style type="text/css"><![CDATA[
.node, .edge {opacity: 0.7;}
.node.selected, .edge.selected {opacity: 1;}
.edge:hover path { stroke: red; }
.edge:hover polygon { stroke: red; fill: red; }
]]></style>

<defs>
  <circle id="rim" cx="0" cy="0" r="7"/>
  <circle id="rim2" cx="0" cy="0" r="3.5"/>
  <g id="zoomPlus">
    <use xlink:href="#rim" fill="#404040"><set attributeName="fill" to="#808080" begin="zoomplus.mouseover" end="zoomplus.mouseout"/></use>
    <path d="M-4,0h8M0,-4v8" fill="none" stroke="white" stroke-width="1.5" pointer-events="none"/>
  </g>
  <g id="zoomMin">
    <use xlink:href="#rim" fill="#404040"><set attributeName="fill" to="#808080" begin="zoomminus.mouseover" end="zoomminus.mouseout"/></use>
    <path d="M-4,0h8" fill="none" stroke="white" stroke-width="1.5" pointer-events="none"/>
  </g>
  <g id="arrowUp" transform="translate(30 24)">
    <use xlink:href="#rim"/>
    <path pointer-events="none" fill="none" stroke="white" stroke-width="1.5" d="M0,-3.0v7 M-2.5,-0.5L0,-3.0L2.5,-0.5"/>
  </g>
  <g id="arrowRight" transform="rotate(90) translate(36 -43)">
    <use xlink:href="#rim"/>
    <path pointer-events="none" fill="none" stroke="white" stroke-width="1.5" d="M0,-3.0v7 M-2.5,-0.5L0,-3.0L2.5,-0.5"/>
  </g>
  <g id="arrowDown" transform="rotate(180) translate(-30 -48)">
    <use xlink:href="#rim"/>
    <path pointer-events="none" fill="none" stroke="white" stroke-width="1.5" d="M0,-3.0v7 M-2.5,-0.5L0,-3.0L2.5,-0.5"/>
  </g>
  <g id="arrowLeft" transform="rotate(270) translate(-36 17)">
    <use xlink:href="#rim"/>
    <path pointer-events="none" fill="none" stroke="white" stroke-width="1.5" d="M0,-3.0v7 M-2.5,-0.5L0,-3.0L2.5,-0.5"/>
  </g>
  <g id="resetDef">
    <use xlink:href="#rim2" fill="#404040"><set attributeName="fill" to="#808080" begin="reset.mouseover" end="reset.mouseout"/></use>
  </g>
</defs>
<script type="application/ecmascript">
var viewWidth = 839;
var viewHeight = 985;
var sectionId = 'dynsection-29';
</script>
<script type="application/ecmascript" xlink:href="svg.min.js"/>
<svg id="graph" class="graph">
<g id="viewport">
<title>draw_rectangle_texture_overlap</title>
<!-- Node1 -->
<g id="Node000001" class="node">
<title>Node1</title>
<g id="a_Node000001"><a xlink:title=" ">
<polygon fill="#999999" stroke="#666666" points="831,-406.5 699,-406.5 699,-376.5 831,-376.5 831,-406.5"/>
<text text-anchor="start" x="707" y="-394.5" font-family="Helvetica,sans-Serif" font-size="10.00">draw_rectangle_texture</text>
<text text-anchor="middle" x="765" y="-383.5" font-family="Helvetica,sans-Serif" font-size="10.00">_overlap</text>
</a>
</g>
</g>
<!-- Node2 -->
<g id="Node000002" class="node">
<title>Node2</title>
<g id="a_Node000002"><a xlink:href="render__objects_8c.html#a8c64fbe4bff7ffa49273321d6f1b03be" target="_top" xlink:title=" ">
<polygon fill="white" stroke="#666666" points="658,-810 545,-810 545,-791 658,-791 658,-810"/>
<text text-anchor="middle" x="601.5" y="-798" font-family="Helvetica,sans-Serif" font-size="10.00">draw_2d_texture_at</text>
</a>
</g>
</g>
<!-- Node1&#45;&gt;Node2 -->
<g id="edge1_Node000001_Node000002" class="edge">
<title>Node1&#45;&gt;Node2</title>
<g id="a_edge1_Node000001_Node000002"><a xlink:title=" ">
<path fill="none" stroke="#63b8ff" d="M754.68,-416.04C737.05,-462.37 697.48,-565.83 663,-652.5 642.17,-704.86 616.33,-767.24 606.53,-790.83"/>
<polygon fill="#63b8ff" stroke="#63b8ff" points="758.01,-417.14 758.29,-406.54 751.47,-414.65 758.01,-417.14"/>
</a>
</g>
</g>
<!-- Node15 -->
<g id="Node000015" class="node">
<title>Node15</title>
<g id="a_Node000015"><a xlink:href="render__objects_8c.html#ab3e49e29c773461d6b29a3c241629d96" target="_top" xlink:title=" ">
<polygon fill="white" stroke="#666666" points="647,-586 556,-586 556,-567 647,-567 647,-586"/>
<text text-anchor="middle" x="601.5" y="-574" font-family="Helvetica,sans-Serif" font-size="10.00">func_80047910</text>
</a>
</g>
</g>
<!-- Node1&#45;&gt;Node15 -->
<g id="edge14_Node000001_Node000015" class="edge">
<title>Node1&#45;&gt;Node15</title>
<g id="a_edge14_Node000001_Node000015"><a xlink:title=" ">
<path fill="none" stroke="#63b8ff" d="M755.59,-416.37C741.96,-452.95 711.56,-520.97 663,-558.5 658.23,-562.19 652.72,-565.12 647,-567.45"/>
<polygon fill="#63b8ff" stroke="#63b8ff" points="759.05,-417.11 759.14,-406.52 752.46,-414.74 759.05,-417.11"/>
</a>
</g>
</g>
<!-- Node65 -->
<g id="Node000065" class="node">
<title>Node65</title>
<g id="a_Node000065"><a xlink:href="render__objects_8c.html#aa71c06796b1b014471b24c8bb646cef7" target="_top" xlink:title=" ">
<polygon fill="white" stroke="#666666" points="647,-549 556,-549 556,-530 647,-530 647,-549"/>
<text text-anchor="middle" x="601.5" y="-537" font-family="Helvetica,sans-Serif" font-size="10.00">func_80047994</text>
</a>
</g>
</g>
<!-- Node1&#45;&gt;Node65 -->
<g id="edge24_Node000001_Node000065" class="edge">
<title>Node1&#45;&gt;Node65</title>
<g id="a_edge24_Node000001_Node000065"><a xlink:title=" ">
<path fill="none" stroke="#63b8ff" d="M751.25,-416.01C734.75,-445.35 703.27,-493.96 663,-521.5 658.02,-524.9 652.39,-527.67 646.62,-529.93"/>
<polygon fill="#63b8ff" stroke="#63b8ff" points="754.53,-417.31 756.26,-406.86 748.39,-413.94 754.53,-417.31"/>
</a>
</g>
</g>
<!-- Node67 -->
<g id="Node000067" class="node">
<title>Node67</title>
<g id="a_Node000067"><a xlink:href="render__objects_8c.html#a305cbc47e0c008840e2046f59cb5184c" target="_top" xlink:title=" ">
<polygon fill="white" stroke="#666666" points="647.5,-438 555.5,-438 555.5,-419 647.5,-419 647.5,-438"/>
<text text-anchor="middle" x="601.5" y="-426" font-family="Helvetica,sans-Serif" font-size="10.00">func_80047A9C</text>
</a>
</g>
</g>
<!-- Node1&#45;&gt;Node67 -->
<g id="edge26_Node000001_Node000067" class="edge">
<title>Node1&#45;&gt;Node67</title>
<g id="a_edge26_Node000001_Node000067"><a xlink:title=" ">
<path fill="none" stroke="#63b8ff" d="M688.78,-408.73C673.48,-412.24 657.91,-415.81 644.29,-418.93"/>
<polygon fill="#63b8ff" stroke="#63b8ff" points="689.81,-412.09 698.78,-406.44 688.25,-405.26 689.81,-412.09"/>
</a>
</g>
</g>
<!-- Node70 -->
<g id="Node000070" class="node">
<title>Node70</title>
<g id="a_Node000070"><a xlink:href="render__objects_8c.html#a209da068f7af82621ac1237d70885b62" target="_top" xlink:title=" ">
<polygon fill="white" stroke="#666666" points="647.5,-512 555.5,-512 555.5,-493 647.5,-493 647.5,-512"/>
<text text-anchor="middle" x="601.5" y="-500" font-family="Helvetica,sans-Serif" font-size="10.00">func_80047C28</text>
</a>
</g>
</g>
<!-- Node1&#45;&gt;Node70 -->
<g id="edge29_Node000001_Node000070" class="edge">
<title>Node1&#45;&gt;Node70</title>
<g id="a_edge29_Node000001_Node000070"><a xlink:title=" ">
<path fill="none" stroke="#63b8ff" d="M744.95,-414.19C726.13,-435.24 695.53,-466.02 663,-484.5 657.09,-487.86 650.5,-490.64 643.9,-492.94"/>
<polygon fill="#63b8ff" stroke="#63b8ff" points="747.6,-416.48 751.56,-406.65 742.34,-411.86 747.6,-416.48"/>
</a>
</g>
</g>
<!-- Node71 -->
<g id="Node000071" class="node">
<title>Node71</title>
<g id="a_Node000071"><a xlink:href="render__objects_8c.html#af25c2a1cd7ad90357bb51f2813dc4791" target="_top" xlink:title=" ">
<polygon fill="white" stroke="#666666" points="647.5,-475 555.5,-475 555.5,-456 647.5,-456 647.5,-475"/>
<text text-anchor="middle" x="601.5" y="-463" font-family="Helvetica,sans-Serif" font-size="10.00">func_80047D40</text>
</a>
</g>
</g>
<!-- Node1&#45;&gt;Node71 -->
<g id="edge30_Node000001_Node000071" class="edge">
<title>Node1&#45;&gt;Node71</title>
<g id="a_edge30_Node000001_Node000071"><a xlink:title=" ">
<path fill="none" stroke="#63b8ff" d="M731.53,-411.88C712.16,-423.42 686.78,-437.51 663,-447.5 655.52,-450.64 647.31,-453.47 639.42,-455.91"/>
<polygon fill="#63b8ff" stroke="#63b8ff" points="733.5,-414.77 740.25,-406.61 729.88,-408.78 733.5,-414.77"/>
</a>
</g>
</g>
<!-- Node72 -->
<g id="Node000072" class="node">
<title>Node72</title>
<g id="a_Node000072"><a xlink:href="render__objects_8c.html#a49eccc6aef1353e402fef04b347a4e79" target="_top" xlink:title=" ">
<polygon fill="white" stroke="#666666" points="647,-401 556,-401 556,-382 647,-382 647,-401"/>
<text text-anchor="middle" x="601.5" y="-389" font-family="Helvetica,sans-Serif" font-size="10.00">func_80047E48</text>
</a>
</g>
</g>
<!-- Node1&#45;&gt;Node72 -->
<g id="edge31_Node000001_Node000072" class="edge">
<title>Node1&#45;&gt;Node72</title>
<g id="a_edge31_Node000001_Node000072"><a xlink:title=" ">
<path fill="none" stroke="#63b8ff" d="M688.53,-391.5C674.38,-391.5 660,-391.5 647.16,-391.5"/>
<polygon fill="#63b8ff" stroke="#63b8ff" points="688.78,-395 698.78,-391.5 688.78,-388 688.78,-395"/>
</a>
</g>
</g>
<!-- Node74 -->
<g id="Node000074" class="node">
<title>Node74</title>
<g id="a_Node000074"><a xlink:href="render__objects_8c.html#ab4137dcaafb2d6de09c37a22ae8541d6" target="_top" xlink:title=" ">
<polygon fill="white" stroke="#666666" points="647,-327 556,-327 556,-308 647,-308 647,-327"/>
<text text-anchor="middle" x="601.5" y="-315" font-family="Helvetica,sans-Serif" font-size="10.00">func_80047F40</text>
</a>
</g>
</g>
<!-- Node1&#45;&gt;Node74 -->
<g id="edge33_Node000001_Node000074" class="edge">
<title>Node1&#45;&gt;Node74</title>
<g id="a_edge33_Node000001_Node000074"><a xlink:title=" ">
<path fill="none" stroke="#63b8ff" d="M730.64,-371.2C711.34,-360 686.32,-346.4 663,-336.5 654.69,-332.97 645.5,-329.76 636.84,-327.01"/>
<polygon fill="#63b8ff" stroke="#63b8ff" points="728.96,-374.27 739.35,-376.32 732.5,-368.23 728.96,-374.27"/>
</a>
</g>
</g>
<!-- Node76 -->
<g id="Node000076" class="node">
<title>Node76</title>
<g id="a_Node000076"><a xlink:href="render__objects_8c.html#a0aec5a5ef1b662df677936d54dd7f556" target="_top" xlink:title=" ">
<polygon fill="white" stroke="#666666" points="647.5,-364 555.5,-364 555.5,-345 647.5,-345 647.5,-364"/>
<text text-anchor="middle" x="601.5" y="-352" font-family="Helvetica,sans-Serif" font-size="10.00">func_80047FBC</text>
</a>
</g>
</g>
<!-- Node1&#45;&gt;Node76 -->
<g id="edge35_Node000001_Node000076" class="edge">
<title>Node1&#45;&gt;Node76</title>
<g id="a_edge35_Node000001_Node000076"><a xlink:title=" ">
<path fill="none" stroke="#63b8ff" d="M688.78,-374.27C673.48,-370.76 657.91,-367.19 644.29,-364.07"/>
<polygon fill="#63b8ff" stroke="#63b8ff" points="688.25,-377.74 698.78,-376.56 689.81,-370.91 688.25,-377.74"/>
</a>
</g>
</g>
<!-- Node77 -->
<g id="Node000077" class="node">
<title>Node77</title>
<g id="a_Node000077"><a xlink:href="render__objects_8c.html#a91178d2562551232deed087f59325a1e" target="_top" xlink:title=" ">
<polygon fill="white" stroke="#666666" points="647.5,-290 555.5,-290 555.5,-271 647.5,-271 647.5,-290"/>
<text text-anchor="middle" x="601.5" y="-278" font-family="Helvetica,sans-Serif" font-size="10.00">func_800482AC</text>
</a>
</g>
</g>
<!-- Node1&#45;&gt;Node77 -->
<g id="edge36_Node000001_Node000077" class="edge">
<title>Node1&#45;&gt;Node77</title>
<g id="a_edge36_Node000001_Node000077"><a xlink:title=" ">
<path fill="none" stroke="#63b8ff" d="M744.26,-368.54C725.32,-347.82 694.95,-317.86 663,-299.5 656.41,-295.72 648.98,-292.59 641.64,-290.04"/>
<polygon fill="#63b8ff" stroke="#63b8ff" points="741.9,-371.15 751.18,-376.26 747.11,-366.47 741.9,-371.15"/>
</a>
</g>
</g>
<!-- Node79 -->
<g id="Node000079" class="node">
<title>Node79</title>
<g id="a_Node000079"><a xlink:href="render__objects_8c.html#a5a6e10cbfda4dc8f12e67cfc05183ccb" target="_top" xlink:title=" ">
<polygon fill="white" stroke="#666666" points="647.5,-253 555.5,-253 555.5,-234 647.5,-234 647.5,-253"/>
<text text-anchor="middle" x="601.5" y="-241" font-family="Helvetica,sans-Serif" font-size="10.00">func_800483B4</text>
</a>
</g>
</g>
<!-- Node1&#45;&gt;Node79 -->
<g id="edge38_Node000001_Node000079" class="edge">
<title>Node1&#45;&gt;Node79</title>
<g id="a_edge38_Node000001_Node000079"><a xlink:title=" ">
<path fill="none" stroke="#63b8ff" d="M751.13,-367.28C734.51,-338.27 702.92,-290.13 663,-262.5 657.39,-258.62 650.94,-255.5 644.4,-253"/>
<polygon fill="#63b8ff" stroke="#63b8ff" points="748.25,-369.31 756.18,-376.33 754.36,-365.89 748.25,-369.31"/>
</a>
</g>
</g>
<!-- Node81 -->
<g id="Node000081" class="node">
<title>Node81</title>
<g id="a_Node000081"><a xlink:href="render__objects_8c.html#a5ea915e2b61a3fc53a83969a86841a9f" target="_top" xlink:title=" ">
<polygon fill="white" stroke="#666666" points="647,-216 556,-216 556,-197 647,-197 647,-216"/>
<text text-anchor="middle" x="601.5" y="-204" font-family="Helvetica,sans-Serif" font-size="10.00">func_80048540</text>
</a>
</g>
</g>
<!-- Node1&#45;&gt;Node81 -->
<g id="edge40_Node000001_Node000081" class="edge">
<title>Node1&#45;&gt;Node81</title>
<g id="a_edge40_Node000001_Node000081"><a xlink:title=" ">
<path fill="none" stroke="#63b8ff" d="M755.27,-366.32C741.39,-329.95 710.87,-262.98 663,-225.5 658.06,-221.63 652.32,-218.54 646.38,-216.08"/>
<polygon fill="#63b8ff" stroke="#63b8ff" points="752.15,-367.97 758.89,-376.14 758.72,-365.55 752.15,-367.97"/>
</a>
</g>
</g>
<!-- Node84 -->
<g id="Node000084" class="node">
<title>Node84</title>
<g id="a_Node000084"><a xlink:href="render__objects_8c.html#a7f21a1863237d7a23fd0d1381722477d" target="_top" xlink:title=" ">
<polygon fill="white" stroke="#666666" points="647.5,-643 555.5,-643 555.5,-624 647.5,-624 647.5,-643"/>
<text text-anchor="middle" x="601.5" y="-631" font-family="Helvetica,sans-Serif" font-size="10.00">func_800485C4</text>
</a>
</g>
</g>
<!-- Node1&#45;&gt;Node84 -->
<g id="edge43_Node000001_Node000084" class="edge">
<title>Node1&#45;&gt;Node84</title>
<g id="a_edge43_Node000001_Node000084"><a xlink:title=" ">
<path fill="none" stroke="#63b8ff" d="M756.59,-416.49C743.36,-457.73 712.36,-540.88 663,-595.5 652.02,-607.65 636.28,-617.37 623.61,-623.94"/>
<polygon fill="#63b8ff" stroke="#63b8ff" points="760,-417.31 759.64,-406.73 753.32,-415.23 760,-417.31"/>
</a>
</g>
</g>
<!-- Node85 -->
<g id="Node000085" class="node">
<title>Node85</title>
<g id="a_Node000085"><a xlink:href="render__objects_8c.html#a8e71bb2a914da25c9767d72707665f58" target="_top" xlink:title=" ">
<polygon fill="white" stroke="#666666" points="648,-118 555,-118 555,-99 648,-99 648,-118"/>
<text text-anchor="middle" x="601.5" y="-106" font-family="Helvetica,sans-Serif" font-size="10.00">func_800563DC</text>
</a>
</g>
</g>
<!-- Node1&#45;&gt;Node85 -->
<g id="edge45_Node000001_Node000085" class="edge">
<title>Node1&#45;&gt;Node85</title>
<g id="a_edge45_Node000001_Node000085"><a xlink:title=" ">
<path fill="none" stroke="#63b8ff" d="M753.59,-367C736.65,-328.05 701.15,-250.09 663,-188.5 646.49,-161.85 623.29,-133.13 610.97,-118.42"/>
<polygon fill="#63b8ff" stroke="#63b8ff" points="750.5,-368.68 757.68,-376.47 756.93,-365.91 750.5,-368.68"/>
</a>
</g>
</g>
<!-- Node90 -->
<g id="Node000090" class="node">
<title>Node90</title>
<g id="a_Node000090"><a xlink:href="classPlayerBombKart.html#ab3bf9332abcce97183126cb5a7bce075" target="_top" xlink:title=" ">
<polygon fill="white" stroke="#666666" points="663,-43.5 540,-43.5 540,-13.5 663,-13.5 663,-43.5"/>
<text text-anchor="start" x="548" y="-31.5" font-family="Helvetica,sans-Serif" font-size="10.00">PlayerBombKart::func</text>
<text text-anchor="middle" x="601.5" y="-20.5" font-family="Helvetica,sans-Serif" font-size="10.00">_800563DC</text>
</a>
</g>
</g>
<!-- Node1&#45;&gt;Node90 -->
<g id="edge50_Node000001_Node000090" class="edge">
<title>Node1&#45;&gt;Node90</title>
<g id="a_edge50_Node000001_Node000090"><a xlink:title=" ">
<path fill="none" stroke="#63b8ff" d="M759.54,-366.38C749.16,-312.59 719.86,-183.57 663,-90.5 651.87,-72.28 634.47,-55.19 621.18,-43.59"/>
<polygon fill="#63b8ff" stroke="#63b8ff" points="756.13,-367.21 761.42,-376.39 763.01,-365.92 756.13,-367.21"/>
</a>
</g>
</g>
<!-- Node3 -->
<g id="Node000003" class="node">
<title>Node3</title>
<g id="a_Node000003"><a xlink:href="classOCrab.html#a71a7d61fe580c22650d08446177f0d69" target="_top" xlink:title=" ">
<polygon fill="white" stroke="#666666" points="465.5,-903 387.5,-903 387.5,-884 465.5,-884 465.5,-903"/>
<text text-anchor="middle" x="426.5" y="-891" font-family="Helvetica,sans-Serif" font-size="10.00">OCrab::Draw</text>
</a>
</g>
</g>
<!-- Node2&#45;&gt;Node3 -->
<g id="edge2_Node000002_Node000003" class="edge">
<title>Node2&#45;&gt;Node3</title>
<g id="a_edge2_Node000002_Node000003"><a xlink:title=" ">
<path fill="none" stroke="#63b8ff" d="M583.62,-817.36C565.48,-834.53 535.04,-860.66 504,-875.5 492.06,-881.21 478.18,-885.17 465.56,-887.9"/>
<polygon fill="#63b8ff" stroke="#63b8ff" points="586.29,-819.65 591.05,-810.18 581.43,-814.61 586.29,-819.65"/>
</a>
</g>
</g>
<!-- Node4 -->
<g id="Node000004" class="node">
<title>Node4</title>
<g id="a_Node000004"><a xlink:href="classOLakitu.html#acf4c307ecb7d50a557cff7e4e9fc22d2" target="_top" xlink:title=" ">
<polygon fill="white" stroke="#666666" points="469.5,-681 383.5,-681 383.5,-662 469.5,-662 469.5,-681"/>
<text text-anchor="middle" x="426.5" y="-669" font-family="Helvetica,sans-Serif" font-size="10.00">OLakitu::Draw</text>
</a>
</g>
</g>
<!-- Node2&#45;&gt;Node4 -->
<g id="edge3_Node000002_Node000004" class="edge">
<title>Node2&#45;&gt;Node4</title>
<g id="a_edge3_Node000002_Node000004"><a xlink:title=" ">
<path fill="none" stroke="#63b8ff" d="M589.46,-782.04C573.68,-757.31 542.31,-713.83 504,-690.5 493.71,-684.24 481.46,-680.03 469.81,-677.21"/>
<polygon fill="#63b8ff" stroke="#63b8ff" points="586.65,-784.15 594.9,-790.81 592.6,-780.46 586.65,-784.15"/>
</a>
</g>
</g>
<!-- Node5 -->
<g id="Node000005" class="node">
<title>Node5</title>
<g id="a_Node000005"><a xlink:href="classOSnowman.html#a6a4b52c8ea89554b32436640a1c9dd80" target="_top" xlink:title=" ">
<polygon fill="white" stroke="#666666" points="491,-866 362,-866 362,-847 491,-847 491,-866"/>
<text text-anchor="middle" x="426.5" y="-854" font-family="Helvetica,sans-Serif" font-size="10.00">OSnowman::DrawHead</text>
</a>
</g>
</g>
<!-- Node2&#45;&gt;Node5 -->
<g id="edge4_Node000002_Node000005" class="edge">
<title>Node2&#45;&gt;Node5</title>
<g id="a_edge4_Node000002_Node000005"><a xlink:title=" ">
<path fill="none" stroke="#63b8ff" d="M569.74,-813.92C550.99,-821.78 526.39,-831.5 504,-838.5 494.1,-841.6 483.34,-844.44 473.1,-846.91"/>
<polygon fill="#63b8ff" stroke="#63b8ff" points="571.13,-817.14 578.97,-810.01 568.4,-810.69 571.13,-817.14"/>
</a>
</g>
</g>
<!-- Node7 -->
<g id="Node000007" class="node">
<title>Node7</title>
<g id="a_Node000007"><a xlink:href="classOCrab.html#a1342716f34378e4700baae3df702d294" target="_top" xlink:title=" ">
<polygon fill="white" stroke="#666666" points="480.5,-829 372.5,-829 372.5,-810 480.5,-810 480.5,-829"/>
<text text-anchor="middle" x="426.5" y="-817" font-family="Helvetica,sans-Serif" font-size="10.00">OCrab::DrawModel</text>
</a>
</g>
</g>
<!-- Node2&#45;&gt;Node7 -->
<g id="edge6_Node000002_Node000007" class="edge">
<title>Node2&#45;&gt;Node7</title>
<g id="a_edge6_Node000002_Node000007"><a xlink:title=" ">
<path fill="none" stroke="#63b8ff" d="M534.51,-807.75C516.73,-809.7 497.72,-811.79 480.73,-813.65"/>
<polygon fill="#63b8ff" stroke="#63b8ff" points="535.25,-811.19 544.81,-806.62 534.49,-804.23 535.25,-811.19"/>
</a>
</g>
</g>
<!-- Node8 -->
<g id="Node000008" class="node">
<title>Node8</title>
<g id="a_Node000008"><a xlink:href="render__objects_8c.html#aaac6f874f1336d214244acfa64e3ac66" target="_top" xlink:title=" ">
<polygon fill="white" stroke="#666666" points="472.5,-792 380.5,-792 380.5,-773 472.5,-773 472.5,-792"/>
<text text-anchor="middle" x="426.5" y="-780" font-family="Helvetica,sans-Serif" font-size="10.00">func_80048C3C</text>
</a>
</g>
</g>
<!-- Node2&#45;&gt;Node8 -->
<g id="edge7_Node000002_Node000008" class="edge">
<title>Node2&#45;&gt;Node8</title>
<g id="a_edge7_Node000002_Node000008"><a xlink:title=" ">
<path fill="none" stroke="#63b8ff" d="M534.79,-793.66C514.07,-791.51 491.65,-789.17 472.69,-787.2"/>
<polygon fill="#63b8ff" stroke="#63b8ff" points="534.5,-797.15 544.81,-794.71 535.23,-790.19 534.5,-797.15"/>
</a>
</g>
</g>
<!-- Node9 -->
<g id="Node000009" class="node">
<title>Node9</title>
<g id="a_Node000009"><a xlink:href="render__objects_8c.html#af4a47171ed4ccb8d47e975ee34655494" target="_top" xlink:title=" ">
<polygon fill="white" stroke="#666666" points="472,-755 381,-755 381,-736 472,-736 472,-755"/>
<text text-anchor="middle" x="426.5" y="-743" font-family="Helvetica,sans-Serif" font-size="10.00">func_80048F38</text>
</a>
</g>
</g>
<!-- Node2&#45;&gt;Node9 -->
<g id="edge8_Node000002_Node000009" class="edge">
<title>Node2&#45;&gt;Node9</title>
<g id="a_edge8_Node000002_Node000009"><a xlink:title=" ">
<path fill="none" stroke="#63b8ff" d="M567.53,-787.14C549.03,-779.91 525.43,-771.13 504,-764.5 492.89,-761.06 480.72,-757.81 469.43,-755"/>
<polygon fill="#63b8ff" stroke="#63b8ff" points="566.38,-790.45 576.96,-790.86 568.95,-783.94 566.38,-790.45"/>
</a>
</g>
</g>
<!-- Node10 -->
<g id="Node000010" class="node">
<title>Node10</title>
<g id="a_Node000010"><a xlink:href="classOHedgehog.html#a65bd4c41d64eacf258c6ea830a1311f3" target="_top" xlink:title=" ">
<polygon fill="white" stroke="#666666" points="504,-718 349,-718 349,-699 504,-699 504,-718"/>
<text text-anchor="middle" x="426.5" y="-706" font-family="Helvetica,sans-Serif" font-size="10.00">OHedgehog::func_800555BC</text>
</a>
</g>
</g>
<!-- Node2&#45;&gt;Node10 -->
<g id="edge9_Node000002_Node000010" class="edge">
<title>Node2&#45;&gt;Node10</title>
<g id="a_edge9_Node000002_Node000010"><a xlink:title=" ">
<path fill="none" stroke="#63b8ff" d="M583.21,-783.92C564.93,-767.28 534.58,-742.1 504,-727.5 495.97,-723.67 487.09,-720.56 478.3,-718.05"/>
<polygon fill="#63b8ff" stroke="#63b8ff" points="581,-786.65 590.71,-790.89 585.77,-781.52 581,-786.65"/>
</a>
</g>
</g>
<!-- Node12 -->
<g id="Node000012" class="node">
<title>Node12</title>
<g id="a_Node000012"><a xlink:href="render__objects_8c.html#abefc70b83784d524432d3301a08cfb0d" target="_top" xlink:title=" ">
<polygon fill="white" stroke="#666666" points="472.5,-977 380.5,-977 380.5,-958 472.5,-958 472.5,-977"/>
<text text-anchor="middle" x="426.5" y="-965" font-family="Helvetica,sans-Serif" font-size="10.00">func_80056BF0</text>
</a>
</g>
</g>
<!-- Node2&#45;&gt;Node12 -->
<g id="edge11_Node000002_Node000012" class="edge">
<title>Node2&#45;&gt;Node12</title>
<g id="a_edge11_Node000002_Node000012"><a xlink:title=" ">
<path fill="none" stroke="#63b8ff" d="M593.49,-819.97C580.85,-852.19 551.09,-916.34 504,-949.5 494.85,-955.94 483.72,-960.1 472.8,-962.79"/>
<polygon fill="#63b8ff" stroke="#63b8ff" points="596.86,-820.95 597.12,-810.36 590.31,-818.48 596.86,-820.95"/>
</a>
</g>
</g>
<!-- Node13 -->
<g id="Node000013" class="node">
<title>Node13</title>
<g id="a_Node000013"><a xlink:href="render__objects_8c.html#a01136bcb8f763bd80f4cb9296988d0ad" target="_top" xlink:title=" ">
<polygon fill="white" stroke="#666666" points="483,-940 370,-940 370,-921 483,-921 483,-940"/>
<text text-anchor="middle" x="426.5" y="-928" font-family="Helvetica,sans-Serif" font-size="10.00">render_object_neon</text>
</a>
</g>
</g>
<!-- Node2&#45;&gt;Node13 -->
<g id="edge12_Node000002_Node000013" class="edge">
<title>Node2&#45;&gt;Node13</title>
<g id="a_edge12_Node000002_Node000013"><a xlink:title=" ">
<path fill="none" stroke="#63b8ff" d="M589.82,-818.99C574.26,-844.19 542.94,-888.88 504,-912.5 497.58,-916.39 490.39,-919.44 483.06,-921.83"/>
<polygon fill="#63b8ff" stroke="#63b8ff" points="593.02,-820.46 595.16,-810.08 587.01,-816.86 593.02,-820.46"/>
</a>
</g>
</g>
<!-- Node6 -->
<g id="Node000006" class="node">
<title>Node6</title>
<g id="a_Node000006"><a xlink:href="classOSnowman.html#a43b2b34a94dbde2f174d971bfa763ac0" target="_top" xlink:title=" ">
<polygon fill="white" stroke="#666666" points="286,-866 182,-866 182,-847 286,-847 286,-866"/>
<text text-anchor="middle" x="234" y="-854" font-family="Helvetica,sans-Serif" font-size="10.00">OSnowman::Draw</text>
</a>
</g>
</g>
<!-- Node5&#45;&gt;Node6 -->
<g id="edge5_Node000005_Node000006" class="edge">
<title>Node5&#45;&gt;Node6</title>
<g id="a_edge5_Node000005_Node000006"><a xlink:title=" ">
<path fill="none" stroke="#63b8ff" d="M351.57,-856.5C329.76,-856.5 306.36,-856.5 286.3,-856.5"/>
<polygon fill="#63b8ff" stroke="#63b8ff" points="351.8,-860 361.8,-856.5 351.8,-853 351.8,-860"/>
</a>
</g>
</g>
<!-- Node11 -->
<g id="Node000011" class="node">
<title>Node11</title>
<g id="a_Node000011"><a xlink:href="classOHedgehog.html#a579906b4dbd1910e542cbfc3254a931c" target="_top" xlink:title=" ">
<polygon fill="white" stroke="#666666" points="286.5,-718 181.5,-718 181.5,-699 286.5,-699 286.5,-718"/>
<text text-anchor="middle" x="234" y="-706" font-family="Helvetica,sans-Serif" font-size="10.00">OHedgehog::Draw</text>
</a>
</g>
</g>
<!-- Node10&#45;&gt;Node11 -->
<g id="edge10_Node000010_Node000011" class="edge">
<title>Node10&#45;&gt;Node11</title>
<g id="a_edge10_Node000010_Node000011"><a xlink:title=" ">
<path fill="none" stroke="#63b8ff" d="M338.48,-708.5C320.78,-708.5 302.69,-708.5 286.69,-708.5"/>
<polygon fill="#63b8ff" stroke="#63b8ff" points="338.84,-712 348.84,-708.5 338.84,-705 338.84,-712"/>
</a>
</g>
</g>
<!-- Node14 -->
<g id="Node000014" class="node">
<title>Node14</title>
<g id="a_Node000014"><a xlink:href="classRainbowRoad.html#a5fc44ee8b3a8845f845a74c72fd57a9d" target="_top" xlink:title=" ">
<polygon fill="white" stroke="#666666" points="313,-945.5 155,-945.5 155,-915.5 313,-915.5 313,-945.5"/>
<text text-anchor="start" x="163" y="-933.5" font-family="Helvetica,sans-Serif" font-size="10.00">RainbowRoad::RenderCourse</text>
<text text-anchor="middle" x="234" y="-922.5" font-family="Helvetica,sans-Serif" font-size="10.00">Objects</text>
</a>
</g>
</g>
<!-- Node13&#45;&gt;Node14 -->
<g id="edge13_Node000013_Node000014" class="edge">
<title>Node13&#45;&gt;Node14</title>
<g id="a_edge13_Node000013_Node000014"><a xlink:title=" ">
<path fill="none" stroke="#63b8ff" d="M359.73,-930.5C344.78,-930.5 328.75,-930.5 313.33,-930.5"/>
<polygon fill="#63b8ff" stroke="#63b8ff" points="359.89,-934 369.89,-930.5 359.89,-927 359.89,-934"/>
</a>
</g>
</g>
<!-- Node16 -->
<g id="Node000016" class="node">
<title>Node16</title>
<g id="a_Node000016"><a xlink:href="render__objects_8c.html#a48ff31f6ee30d488e8179650b29e2adf" target="_top" xlink:title=" ">
<polygon fill="white" stroke="#666666" points="472,-568 381,-568 381,-549 472,-549 472,-568"/>
<text text-anchor="middle" x="426.5" y="-556" font-family="Helvetica,sans-Serif" font-size="10.00">func_80048914</text>
</a>
</g>
</g>
<!-- Node15&#45;&gt;Node16 -->
<g id="edge15_Node000015_Node000016" class="edge">
<title>Node15&#45;&gt;Node16</title>
<g id="a_edge15_Node000015_Node000016"><a xlink:title=" ">
<path fill="none" stroke="#63b8ff" d="M545.7,-570.8C522.01,-568.33 494.64,-565.49 472.2,-563.15"/>
<polygon fill="#63b8ff" stroke="#63b8ff" points="545.64,-574.31 555.95,-571.86 546.36,-567.35 545.64,-574.31"/>
</a>
</g>
</g>
<!-- Node17 -->
<g id="Node000017" class="node">
<title>Node17</title>
<g id="a_Node000017"><a xlink:href="render__objects_8c.html#af3c40a3307ab18cd010d9724b5b580f1" target="_top" xlink:title=" ">
<polygon fill="white" stroke="#666666" points="472,-531 381,-531 381,-512 472,-512 472,-531"/>
<text text-anchor="middle" x="426.5" y="-519" font-family="Helvetica,sans-Serif" font-size="10.00">func_80048E00</text>
</a>
</g>
</g>
<!-- Node15&#45;&gt;Node17 -->
<g id="edge16_Node000015_Node000017" class="edge">
<title>Node15&#45;&gt;Node17</title>
<g id="a_edge16_Node000015_Node000017"><a xlink:title=" ">
<path fill="none" stroke="#63b8ff" d="M554.92,-563.87C549.84,-562.19 544.78,-560.39 540,-558.5 523.36,-551.92 520.78,-546.69 504,-540.5 493.86,-536.76 482.69,-533.51 472.1,-530.82"/>
<polygon fill="#63b8ff" stroke="#63b8ff" points="554.05,-567.27 564.64,-566.96 556.16,-560.6 554.05,-567.27"/>
</a>
</g>
</g>
<!-- Node18 -->
<g id="Node000018" class="node">
<title>Node18</title>
<g id="a_Node000018"><a xlink:href="render__objects_8c.html#ac3aa31afb8462c8e823edd0cf61d1db9" target="_top" xlink:title=" ">
<polygon fill="white" stroke="#666666" points="472.5,-644 380.5,-644 380.5,-625 472.5,-625 472.5,-644"/>
<text text-anchor="middle" x="426.5" y="-632" font-family="Helvetica,sans-Serif" font-size="10.00">func_8004E6C4</text>
</a>
</g>
</g>
<!-- Node15&#45;&gt;Node18 -->
<g id="edge17_Node000015_Node000018" class="edge">
<title>Node15&#45;&gt;Node18</title>
<g id="a_edge17_Node000015_Node000018"><a xlink:title=" ">
<path fill="none" stroke="#63b8ff" d="M564.39,-589.56C546.31,-596.01 524.05,-603.82 504,-610.5 489.21,-615.42 472.72,-620.63 458.84,-624.94"/>
<polygon fill="#63b8ff" stroke="#63b8ff" points="565.73,-592.8 573.96,-586.13 563.37,-586.21 565.73,-592.8"/>
</a>
</g>
</g>
<!-- Node19 -->
<g id="Node000019" class="node">
<title>Node19</title>
<g id="a_Node000019"><a xlink:href="code__80057C60_8c.html#afc6c82ebe01933c680b0a492fea4ddc8" target="_top" xlink:title=" ">
<polygon fill="white" stroke="#666666" points="297,-625 171,-625 171,-606 297,-606 297,-625"/>
<text text-anchor="middle" x="234" y="-613" font-family="Helvetica,sans-Serif" font-size="10.00">render_hud_lap_3p_4p</text>
</a>
</g>
</g>
<!-- Node15&#45;&gt;Node19 -->
<g id="edge23_Node000015_Node000019" class="edge">
<title>Node15&#45;&gt;Node19</title>
<g id="a_edge23_Node000015_Node000019"><a xlink:title=" ">
<path fill="none" stroke="#63b8ff" d="M545.39,-582.38C478.79,-589.49 366.99,-601.42 297.31,-608.85"/>
<polygon fill="#63b8ff" stroke="#63b8ff" points="546.11,-585.82 555.68,-581.28 545.37,-578.86 546.11,-585.82"/>
</a>
</g>
</g>
<!-- Node18&#45;&gt;Node19 -->
<g id="edge18_Node000018_Node000019" class="edge">
<title>Node18&#45;&gt;Node19</title>
<g id="a_edge18_Node000018_Node000019"><a xlink:title=" ">
<path fill="none" stroke="#63b8ff" d="M370.13,-628.98C347.26,-626.7 320.65,-624.04 297.12,-621.7"/>
<polygon fill="#63b8ff" stroke="#63b8ff" points="370.06,-632.49 380.35,-630 370.75,-625.52 370.06,-632.49"/>
</a>
</g>
</g>
<!-- Node20 -->
<g id="Node000020" class="node">
<title>Node20</title>
<g id="a_Node000020"><a xlink:href="code__80057C60_8c.html#a4dd25bb41005578027234624550dac1e" target="_top" xlink:title=" ">
<polygon fill="#fff0f0" stroke="red" points="119,-681 0,-681 0,-662 119,-662 119,-681"/>
<text text-anchor="middle" x="59.5" y="-669" font-family="Helvetica,sans-Serif" font-size="10.00">render_hud_1p_multi</text>
</a>
</g>
</g>
<!-- Node19&#45;&gt;Node20 -->
<g id="edge19_Node000019_Node000020" class="edge">
<title>Node19&#45;&gt;Node20</title>
<g id="a_edge19_Node000019_Node000020"><a xlink:title=" ">
<path fill="none" stroke="#63b8ff" d="M195.25,-628.33C173.08,-635.8 144.5,-645.33 119,-653.5 110.3,-656.29 100.84,-659.24 92.12,-661.92"/>
<polygon fill="#63b8ff" stroke="#63b8ff" points="196.6,-631.57 204.95,-625.05 194.36,-624.94 196.6,-631.57"/>
</a>
</g>
</g>
<!-- Node62 -->
<g id="Node000062" class="node">
<title>Node62</title>
<g id="a_Node000062"><a xlink:href="code__80057C60_8c.html#a595ff9eb9083eb95b0d638d48ca560ee" target="_top" xlink:title=" ">
<polygon fill="#fff0f0" stroke="red" points="119,-644 0,-644 0,-625 119,-625 119,-644"/>
<text text-anchor="middle" x="59.5" y="-632" font-family="Helvetica,sans-Serif" font-size="10.00">render_hud_2p_multi</text>
</a>
</g>
</g>
<!-- Node19&#45;&gt;Node62 -->
<g id="edge20_Node000019_Node000062" class="edge">
<title>Node19&#45;&gt;Node62</title>
<g id="a_edge20_Node000019_Node000062"><a xlink:title=" ">
<path fill="none" stroke="#63b8ff" d="M160.75,-623.46C146.92,-624.98 132.58,-626.56 119.23,-628.03"/>
<polygon fill="#63b8ff" stroke="#63b8ff" points="161.17,-626.93 170.72,-622.36 160.4,-619.98 161.17,-626.93"/>
</a>
</g>
</g>
<!-- Node63 -->
<g id="Node000063" class="node">
<title>Node63</title>
<g id="a_Node000063"><a xlink:href="code__80057C60_8c.html#ad128b6ee931845bc17506fcb49b042ef" target="_top" xlink:title=" ">
<polygon fill="#fff0f0" stroke="red" points="119,-607 0,-607 0,-588 119,-588 119,-607"/>
<text text-anchor="middle" x="59.5" y="-595" font-family="Helvetica,sans-Serif" font-size="10.00">render_hud_3p_multi</text>
</a>
</g>
</g>
<!-- Node19&#45;&gt;Node63 -->
<g id="edge21_Node000019_Node000063" class="edge">
<title>Node19&#45;&gt;Node63</title>
<g id="a_edge21_Node000019_Node000063"><a xlink:title=" ">
<path fill="none" stroke="#63b8ff" d="M160.75,-607.96C146.92,-606.52 132.58,-605.02 119.23,-603.63"/>
<polygon fill="#63b8ff" stroke="#63b8ff" points="160.41,-611.44 170.72,-609 161.14,-604.48 160.41,-611.44"/>
</a>
</g>
</g>
<!-- Node64 -->
<g id="Node000064" class="node">
<title>Node64</title>
<g id="a_Node000064"><a xlink:href="code__80057C60_8c.html#a1fd525475f06d173990c9182fa222b40" target="_top" xlink:title=" ">
<polygon fill="#fff0f0" stroke="red" points="119,-570 0,-570 0,-551 119,-551 119,-570"/>
<text text-anchor="middle" x="59.5" y="-558" font-family="Helvetica,sans-Serif" font-size="10.00">render_hud_4p_multi</text>
</a>
</g>
</g>
<!-- Node19&#45;&gt;Node64 -->
<g id="edge22_Node000019_Node000064" class="edge">
<title>Node19&#45;&gt;Node64</title>
<g id="a_edge22_Node000019_Node000064"><a xlink:title=" ">
<path fill="none" stroke="#63b8ff" d="M193.23,-602.82C161.92,-592.84 118.96,-579.14 90.49,-570.06"/>
<polygon fill="#63b8ff" stroke="#63b8ff" points="192.36,-606.22 202.95,-605.92 194.49,-599.55 192.36,-606.22"/>
</a>
</g>
</g>
<!-- Node66 -->
<g id="Node000066" class="node">
<title>Node66</title>
<g id="a_Node000066"><a xlink:href="render__objects_8c.html#a2ef405a60321c558413b9fce965889a3" target="_top" xlink:title=" ">
<polygon fill="white" stroke="#666666" points="472.5,-494 380.5,-494 380.5,-475 472.5,-475 472.5,-494"/>
<text text-anchor="middle" x="426.5" y="-482" font-family="Helvetica,sans-Serif" font-size="10.00">func_8004897C</text>
</a>
</g>
</g>
<!-- Node65&#45;&gt;Node66 -->
<g id="edge25_Node000065_Node000066" class="edge">
<title>Node65&#45;&gt;Node66</title>
<g id="a_edge25_Node000065_Node000066"><a xlink:title=" ">
<path fill="none" stroke="#63b8ff" d="M554.92,-526.87C549.84,-525.19 544.78,-523.39 540,-521.5 523.36,-514.92 520.78,-509.69 504,-503.5 494.11,-499.85 483.25,-496.68 472.9,-494.03"/>
<polygon fill="#63b8ff" stroke="#63b8ff" points="554.05,-530.27 564.64,-529.96 556.16,-523.6 554.05,-530.27"/>
</a>
</g>
</g>
<!-- Node68 -->
<g id="Node000068" class="node">
<title>Node68</title>
<g id="a_Node000068"><a xlink:href="render__objects_8c.html#ac8f0b9f57515168cd39633754f9012df" target="_top" xlink:title=" ">
<polygon fill="white" stroke="#666666" points="472.5,-457 380.5,-457 380.5,-438 472.5,-438 472.5,-457"/>
<text text-anchor="middle" x="426.5" y="-445" font-family="Helvetica,sans-Serif" font-size="10.00">func_80048A4C</text>
</a>
</g>
</g>
<!-- Node67&#45;&gt;Node68 -->
<g id="edge27_Node000067_Node000068" class="edge">
<title>Node67&#45;&gt;Node68</title>
<g id="a_edge27_Node000067_Node000068"><a xlink:title=" ">
<path fill="none" stroke="#63b8ff" d="M545.34,-434.56C521.86,-437.14 494.83,-440.11 472.58,-442.55"/>
<polygon fill="#63b8ff" stroke="#63b8ff" points="545.94,-438.01 555.5,-433.44 545.18,-431.06 545.94,-438.01"/>
</a>
</g>
</g>
<!-- Node69 -->
<g id="Node000069" class="node">
<title>Node69</title>
<g id="a_Node000069"><a xlink:href="render__objects_8c.html#ad4bb94d26d99c5b10c0a0c3556ff56b5" target="_top" xlink:title=" ">
<polygon fill="white" stroke="#666666" points="472.5,-420 380.5,-420 380.5,-401 472.5,-401 472.5,-420"/>
<text text-anchor="middle" x="426.5" y="-408" font-family="Helvetica,sans-Serif" font-size="10.00">func_80048ED0</text>
</a>
</g>
</g>
<!-- Node67&#45;&gt;Node69 -->
<g id="edge28_Node000067_Node000069" class="edge">
<title>Node67&#45;&gt;Node69</title>
<g id="a_edge28_Node000067_Node000069"><a xlink:title=" ">
<path fill="none" stroke="#63b8ff" d="M545.34,-422.76C521.86,-420.32 494.83,-417.51 472.58,-415.19"/>
<polygon fill="#63b8ff" stroke="#63b8ff" points="545.19,-426.26 555.5,-423.82 545.91,-419.3 545.19,-426.26"/>
</a>
</g>
</g>
<!-- Node73 -->
<g id="Node000073" class="node">
<title>Node73</title>
<g id="a_Node000073"><a xlink:href="render__objects_8c.html#a3d5fdd29505204bdf0b38a0808abb8b1" target="_top" xlink:title=" ">
<polygon fill="white" stroke="#666666" points="472.5,-383 380.5,-383 380.5,-364 472.5,-364 472.5,-383"/>
<text text-anchor="middle" x="426.5" y="-371" font-family="Helvetica,sans-Serif" font-size="10.00">func_80048B94</text>
</a>
</g>
</g>
<!-- Node72&#45;&gt;Node73 -->
<g id="edge32_Node000072_Node000073" class="edge">
<title>Node72&#45;&gt;Node73</title>
<g id="a_edge32_Node000072_Node000073"><a xlink:title=" ">
<path fill="none" stroke="#63b8ff" d="M545.74,-385.8C522.15,-383.35 494.89,-380.51 472.5,-378.18"/>
<polygon fill="#63b8ff" stroke="#63b8ff" points="545.64,-389.31 555.95,-386.86 546.36,-382.35 545.64,-389.31"/>
</a>
</g>
</g>
<!-- Node75 -->
<g id="Node000075" class="node">
<title>Node75</title>
<g id="a_Node000075"><a xlink:href="render__objects_8c.html#a18a9621cc0a51f64087fb663659a6e32" target="_top" xlink:title=" ">
<polygon fill="white" stroke="#666666" points="472.5,-327 380.5,-327 380.5,-308 472.5,-308 472.5,-327"/>
<text text-anchor="middle" x="426.5" y="-315" font-family="Helvetica,sans-Serif" font-size="10.00">func_80048BE8</text>
</a>
</g>
</g>
<!-- Node74&#45;&gt;Node75 -->
<g id="edge34_Node000074_Node000075" class="edge">
<title>Node74&#45;&gt;Node75</title>
<g id="a_edge34_Node000074_Node000075"><a xlink:title=" ">
<path fill="none" stroke="#63b8ff" d="M545.74,-317.5C522.15,-317.5 494.89,-317.5 472.5,-317.5"/>
<polygon fill="#63b8ff" stroke="#63b8ff" points="545.95,-321 555.95,-317.5 545.95,-314 545.95,-321"/>
</a>
</g>
</g>
<!-- Node78 -->
<g id="Node000078" class="node">
<title>Node78</title>
<g id="a_Node000078"><a xlink:href="render__objects_8c.html#aeb4d300bd33b6a38af50cb4ee144d68b" target="_top" xlink:title=" ">
<polygon fill="white" stroke="#666666" points="472.5,-290 380.5,-290 380.5,-271 472.5,-271 472.5,-290"/>
<text text-anchor="middle" x="426.5" y="-278" font-family="Helvetica,sans-Serif" font-size="10.00">func_80048C90</text>
</a>
</g>
</g>
<!-- Node77&#45;&gt;Node78 -->
<g id="edge37_Node000077_Node000078" class="edge">
<title>Node77&#45;&gt;Node78</title>
<g id="a_edge37_Node000077_Node000078"><a xlink:title=" ">
<path fill="none" stroke="#63b8ff" d="M545.34,-280.5C521.86,-280.5 494.83,-280.5 472.58,-280.5"/>
<polygon fill="#63b8ff" stroke="#63b8ff" points="545.5,-284 555.5,-280.5 545.5,-277 545.5,-284"/>
</a>
</g>
</g>
<!-- Node80 -->
<g id="Node000080" class="node">
<title>Node80</title>
<g id="a_Node000080"><a xlink:href="render__objects_8c.html#af3c6d1a554f012f7e7b9514b4930e0e1" target="_top" xlink:title=" ">
<polygon fill="white" stroke="#666666" points="472.5,-253 380.5,-253 380.5,-234 472.5,-234 472.5,-253"/>
<text text-anchor="middle" x="426.5" y="-241" font-family="Helvetica,sans-Serif" font-size="10.00">func_80048CEC</text>
</a>
</g>
</g>
<!-- Node79&#45;&gt;Node80 -->
<g id="edge39_Node000079_Node000080" class="edge">
<title>Node79&#45;&gt;Node80</title>
<g id="a_edge39_Node000079_Node000080"><a xlink:title=" ">
<path fill="none" stroke="#63b8ff" d="M545.34,-243.5C521.86,-243.5 494.83,-243.5 472.58,-243.5"/>
<polygon fill="#63b8ff" stroke="#63b8ff" points="545.5,-247 555.5,-243.5 545.5,-240 545.5,-247"/>
</a>
</g>
</g>
<!-- Node82 -->
<g id="Node000082" class="node">
<title>Node82</title>
<g id="a_Node000082"><a xlink:href="render__objects_8c.html#aa291fdba9a25908240f43f47a9030a36" target="_top" xlink:title=" ">
<polygon fill="white" stroke="#666666" points="472,-216 381,-216 381,-197 472,-197 472,-216"/>
<text text-anchor="middle" x="426.5" y="-204" font-family="Helvetica,sans-Serif" font-size="10.00">func_80048780</text>
</a>
</g>
</g>
<!-- Node81&#45;&gt;Node82 -->
<g id="edge41_Node000081_Node000082" class="edge">
<title>Node81&#45;&gt;Node82</title>
<g id="a_edge41_Node000081_Node000082"><a xlink:title=" ">
<path fill="none" stroke="#63b8ff" d="M545.7,-206.5C522.01,-206.5 494.64,-206.5 472.2,-206.5"/>
<polygon fill="#63b8ff" stroke="#63b8ff" points="545.95,-210 555.95,-206.5 545.95,-203 545.95,-210"/>
</a>
</g>
</g>
<!-- Node83 -->
<g id="Node000083" class="node">
<title>Node83</title>
<g id="a_Node000083"><a xlink:href="render__objects_8c.html#ab2dfb0f736edb239dcc9ae78ced95284" target="_top" xlink:title=" ">
<polygon fill="white" stroke="#666666" points="473,-179 380,-179 380,-160 473,-160 473,-179"/>
<text text-anchor="middle" x="426.5" y="-167" font-family="Helvetica,sans-Serif" font-size="10.00">func_80048DA4</text>
</a>
</g>
</g>
<!-- Node81&#45;&gt;Node83 -->
<g id="edge42_Node000081_Node000083" class="edge">
<title>Node81&#45;&gt;Node83</title>
<g id="a_edge42_Node000081_Node000083"><a xlink:title=" ">
<path fill="none" stroke="#63b8ff" d="M546.02,-194.85C522.25,-189.77 494.74,-183.88 472.2,-179.06"/>
<polygon fill="#63b8ff" stroke="#63b8ff" points="545.44,-198.3 555.95,-196.97 546.9,-191.46 545.44,-198.3"/>
</a>
</g>
</g>
<!-- Node84&#45;&gt;Node4 -->
<g id="edge44_Node000084_Node000004" class="edge">
<title>Node84&#45;&gt;Node4</title>
<g id="a_edge44_Node000084_Node000004"><a xlink:title=" ">
<path fill="none" stroke="#63b8ff" d="M546.84,-645.29C521.99,-650.75 492.89,-657.14 469.65,-662.24"/>
<polygon fill="#63b8ff" stroke="#63b8ff" points="547.83,-648.65 556.84,-643.09 546.33,-641.82 547.83,-648.65"/>
</a>
</g>
</g>
<!-- Node86 -->
<g id="Node000086" class="node">
<title>Node86</title>
<g id="a_Node000086"><a xlink:href="classOBombKart.html#a6c383194d9982ac23e0ef275bf5d0046" target="_top" xlink:title=" ">
<polygon fill="white" stroke="#666666" points="478.5,-56 374.5,-56 374.5,-37 478.5,-37 478.5,-56"/>
<text text-anchor="middle" x="426.5" y="-44" font-family="Helvetica,sans-Serif" font-size="10.00">OBombKart::Draw</text>
</a>
</g>
</g>
<!-- Node85&#45;&gt;Node86 -->
<g id="edge46_Node000085_Node000086" class="edge">
<title>Node85&#45;&gt;Node86</title>
<g id="a_edge46_Node000085_Node000086"><a xlink:title=" ">
<path fill="none" stroke="#63b8ff" d="M573.46,-94.43C554.43,-84.97 528.15,-72.76 504,-64.5 494.58,-61.28 484.31,-58.43 474.44,-56"/>
<polygon fill="#63b8ff" stroke="#63b8ff" points="571.93,-97.58 582.44,-98.96 575.09,-91.33 571.93,-97.58"/>
</a>
</g>
</g>
<!-- Node87 -->
<g id="Node000087" class="node">
<title>Node87</title>
<g id="a_Node000087"><a xlink:href="render__objects_8c.html#a7cb55cc36358ed86661953fa2dd70c5e" target="_top" xlink:title=" ">
<polygon fill="white" stroke="#666666" points="484,-141.5 369,-141.5 369,-111.5 484,-111.5 484,-141.5"/>
<text text-anchor="start" x="377" y="-129.5" font-family="Helvetica,sans-Serif" font-size="10.00">render_battle_bomb</text>
<text text-anchor="middle" x="426.5" y="-118.5" font-family="Helvetica,sans-Serif" font-size="10.00">_karts</text>
</a>
</g>
</g>
<!-- Node85&#45;&gt;Node87 -->
<g id="edge47_Node000085_Node000087" class="edge">
<title>Node85&#45;&gt;Node87</title>
<g id="a_edge47_Node000085_Node000087"><a xlink:title=" ">
<path fill="none" stroke="#63b8ff" d="M544.43,-114.33C525.12,-116.34 503.49,-118.59 484.14,-120.61"/>
<polygon fill="#63b8ff" stroke="#63b8ff" points="545.01,-117.79 554.59,-113.28 544.28,-110.83 545.01,-117.79"/>
</a>
</g>
</g>
<!-- Node88 -->
<g id="Node000088" class="node">
<title>Node88</title>
<g id="a_Node000088"><a xlink:href="render__objects_8c.html#a63f55555b66cd9833838c290facd483c" target="_top" xlink:title=" ">
<polygon fill="white" stroke="#666666" points="481.5,-93 371.5,-93 371.5,-74 481.5,-74 481.5,-93"/>
<text text-anchor="middle" x="426.5" y="-81" font-family="Helvetica,sans-Serif" font-size="10.00">render_bomb_karts</text>
</a>
</g>
</g>
<!-- Node85&#45;&gt;Node88 -->
<g id="edge48_Node000085_Node000088" class="edge">
<title>Node85&#45;&gt;Node88</title>
<g id="a_edge48_Node000085_Node000088"><a xlink:title=" ">
<path fill="none" stroke="#63b8ff" d="M544.6,-100.42C524.41,-97.5 501.66,-94.22 481.62,-91.32"/>
<polygon fill="#63b8ff" stroke="#63b8ff" points="544.2,-103.9 554.59,-101.87 545.2,-96.97 544.2,-103.9"/>
</a>
</g>
</g>
<!-- Node89 -->
<g id="Node000089" class="node">
<title>Node89</title>
<g id="a_Node000089"><a xlink:href="code__80005FD0_8c.html#a20d054883ba7ddebb1b79918d9ac5c86" target="_top" xlink:title=" ">
<polygon fill="white" stroke="#666666" points="304,-93 164,-93 164,-74 304,-74 304,-93"/>
<text text-anchor="middle" x="234" y="-81" font-family="Helvetica,sans-Serif" font-size="10.00">render_bomb_karts_wrap</text>
</a>
</g>
</g>
<!-- Node88&#45;&gt;Node89 -->
<g id="edge49_Node000088_Node000089" class="edge">
<title>Node88&#45;&gt;Node89</title>
<g id="a_edge49_Node000088_Node000089"><a xlink:title=" ">
<path fill="none" stroke="#63b8ff" d="M361.4,-83.5C343.01,-83.5 322.89,-83.5 304.2,-83.5"/>
<polygon fill="#63b8ff" stroke="#63b8ff" points="361.42,-87 371.42,-83.5 361.42,-80 361.42,-87"/>
</a>
</g>
</g>
<!-- Node91 -->
<g id="Node000091" class="node">
<title>Node91</title>
<g id="a_Node000091"><a xlink:href="classPlayerBombKart.html#ae72600675ff81bcfcfe0b3e99b72fc10" target="_top" xlink:title=" ">
<polygon fill="white" stroke="#666666" points="490.5,-19 362.5,-19 362.5,0 490.5,0 490.5,-19"/>
<text text-anchor="middle" x="426.5" y="-7" font-family="Helvetica,sans-Serif" font-size="10.00">PlayerBombKart::Draw</text>
</a>
</g>
</g>
<!-- Node90&#45;&gt;Node91 -->
<g id="edge51_Node000090_Node000091" class="edge">
<title>Node90&#45;&gt;Node91</title>
<g id="a_edge51_Node000090_Node000091"><a xlink:title=" ">
<path fill="none" stroke="#63b8ff" d="M529.73,-20.73C516.77,-19.3 503.33,-17.83 490.61,-16.43"/>
<polygon fill="#63b8ff" stroke="#63b8ff" points="529.67,-24.24 539.99,-21.85 530.43,-17.28 529.67,-24.24"/>
</a>
</g>
</g>
</g>
</svg>

<g id="navigator" transform="translate(0 0)" fill="#404254">
  <rect fill="#f2f5e9" fill-opacity="0.5" stroke="#606060" stroke-width=".5" x="0" y="0" width="60" height="60"/>
  <use id="zoomplus" xlink:href="#zoomPlus" x="17" y="9" onmousedown="handleZoom(evt,'in')"/>
  <use id="zoomminus" xlink:href="#zoomMin" x="42" y="9" onmousedown="handleZoom(evt,'out')"/>
  <use id="reset" xlink:href="#resetDef" x="30" y="36" onmousedown="handleReset()"/>
   <use id="arrowup" xlink:href="#arrowUp" x="0" y="0" onmousedown="handlePan(0,-1)"/>
  <use id="arrowright" xlink:href="#arrowRight" x="0" y="0" onmousedown="handlePan(1,0)"/>
  <use id="arrowdown" xlink:href="#arrowDown" x="0" y="0" onmousedown="handlePan(0,1)"/>
  <use id="arrowleft" xlink:href="#arrowLeft" x="0" y="0" onmousedown="handlePan(-1,0)"/>
</g>
<svg viewBox="0 0 15 15" width="100%" height="30px" preserveAspectRatio="xMaxYMin meet">
 <g id="arrow_out" transform="scale(0.3 0.3)">
  <a xlink:href="render__objects_8c_a8a48ecaa397efcff0fd4aab89b040c59_icgraph_org.svg" target="_base">
   <rect id="button" ry="5" rx="5" y="6" x="6" height="38" width="38"
        fill="#f2f5e9" fill-opacity="0.5" stroke="#606060" stroke-width="1.0"/>
   <path id="arrow"
     d="M 11.500037,31.436501 C 11.940474,20.09759 22.043105,11.32322 32.158766,21.979434 L 37.068811,17.246167 C 37.068811,17.246167 37.088388,32 37.088388,32 L 22.160133,31.978069 C 22.160133,31.978069 26.997745,27.140456 26.997745,27.140456 C 18.528582,18.264221 13.291696,25.230495 11.500037,31.436501 z"
     style="fill:#404040;"/>
  </a>
 </g>
</svg>

<style type='text/css'>
<![CDATA[
[data-mouse-over-selected='false'] { opacity: 0.7; }
[data-mouse-over-selected='true']  { opacity: 1.0; }
]]>
</style>
<script type="application/ecmascript"><![CDATA[
document.addEventListener('DOMContentLoaded', (event) => {
  highlightEdges();
  highlightAdjacentNodes();
});
]]></script>
</svg>
