<?xml version="1.0" encoding="UTF-8" standalone="no"?>
<!DOCTYPE svg PUBLIC "-//W3C//DTD SVG 1.1//EN"
 "http://www.w3.org/Graphics/SVG/1.1/DTD/svg11.dtd">
<!-- Generated by graphviz version 2.43.0 (0)
 -->
<!-- Title: render_course Pages: 1 -->
<svg width="654pt" height="177pt"
 viewBox="0.00 0.00 654.00 177.00" xmlns="http://www.w3.org/2000/svg" xmlns:xlink="http://www.w3.org/1999/xlink">
<g id="graph0" class="graph" transform="scale(1 1) rotate(0) translate(4 173)">
<title>render_course</title>
<!-- Node1 -->
<g id="Node000001" class="node">
<title>Node1</title>
<g id="a_Node000001"><a xlink:title=" ">
<polygon fill="#999999" stroke="#666666" points="86,-112 0,-112 0,-93 86,-93 86,-112"/>
<text text-anchor="middle" x="43" y="-100" font-family="Helvetica,sans-Serif" font-size="10.00">render_course</text>
</a>
</g>
</g>
<!-- Node2 -->
<g id="Node000002" class="node">
<title>Node2</title>
<g id="a_Node000002"><a xlink:href="Game_8cpp.html#a5561bece09efdb0ae9cf947b27a8ef47" target="_top" xlink:title=" ">
<polygon fill="white" stroke="#666666" points="243.5,-169 137.5,-169 137.5,-150 243.5,-150 243.5,-169"/>
<text text-anchor="middle" x="190.5" y="-157" font-family="Helvetica,sans-Serif" font-size="10.00">CM_RenderCourse</text>
</a>
</g>
</g>
<!-- Node1&#45;&gt;Node2 -->
<g id="edge1_Node000001_Node000002" class="edge">
<title>Node1&#45;&gt;Node2</title>
<g id="a_edge1_Node000001_Node000002"><a xlink:title=" ">
<path fill="none" stroke="#63b8ff" d="M65.71,-112.09C81.29,-118.87 102.81,-128.04 122,-135.5 131.65,-139.25 142.16,-143.1 151.95,-146.59"/>
<polygon fill="#63b8ff" stroke="#63b8ff" points="150.85,-149.91 161.45,-149.94 153.18,-143.31 150.85,-149.91"/>
</a>
</g>
</g>
<!-- Node3 -->
<g id="Node000003" class="node">
<title>Node3</title>
<g id="a_Node000003"><a xlink:href="render__courses_8c.html#a3df49a74f80b5b9804f6ae282efb7b7d" target="_top" xlink:title=" ">
<polygon fill="white" stroke="#666666" points="381,-150 295,-150 295,-131 381,-131 381,-150"/>
<text text-anchor="middle" x="338" y="-138" font-family="Helvetica,sans-Serif" font-size="10.00">render_credits</text>
</a>
</g>
</g>
<!-- Node1&#45;&gt;Node3 -->
<g id="edge8_Node000001_Node000003" class="edge">
<title>Node1&#45;&gt;Node3</title>
<g id="a_edge8_Node000001_Node000003"><a xlink:title=" ">
<path fill="none" stroke="#63b8ff" d="M86.29,-107.98C138.66,-114.78 227.86,-126.34 284.53,-133.7"/>
<polygon fill="#63b8ff" stroke="#63b8ff" points="284.35,-137.2 294.72,-135.02 285.25,-130.26 284.35,-137.2"/>
</a>
</g>
</g>
<!-- Node5 -->
<g id="Node000005" class="node">
<title>Node5</title>
<g id="a_Node000005"><a xlink:href="collision__viewer_8c.html#afaee40683a3ae56cae11b2c5687e3328" target="_top" xlink:title=" ">
<polygon fill="white" stroke="#666666" points="237.5,-93 143.5,-93 143.5,-74 237.5,-74 237.5,-93"/>
<text text-anchor="middle" x="190.5" y="-81" font-family="Helvetica,sans-Serif" font-size="10.00">render_collision</text>
</a>
</g>
</g>
<!-- Node1&#45;&gt;Node5 -->
<g id="edge4_Node000001_Node000005" class="edge">
<title>Node1&#45;&gt;Node5</title>
<g id="a_edge4_Node000001_Node000005"><a xlink:title=" ">
<path fill="none" stroke="#63b8ff" d="M86.08,-97C100.82,-95.08 117.61,-92.89 133.31,-90.84"/>
<polygon fill="#63b8ff" stroke="#63b8ff" points="133.97,-94.28 143.43,-89.52 133.07,-87.34 133.97,-94.28"/>
</a>
</g>
</g>
<!-- Node9 -->
<g id="Node000009" class="node">
<title>Node9</title>
<g id="a_Node000009"><a xlink:href="math__util_8c.html#ae3e380239986384fef7c10e23eced83f" target="_top" xlink:title=" ">
<polygon fill="white" stroke="#666666" points="259,-56 122,-56 122,-37 259,-37 259,-56"/>
<text text-anchor="middle" x="190.5" y="-44" font-family="Helvetica,sans-Serif" font-size="10.00">set_track_light_direction</text>
</a>
</g>
</g>
<!-- Node1&#45;&gt;Node9 -->
<g id="edge9_Node000001_Node000009" class="edge">
<title>Node1&#45;&gt;Node9</title>
<g id="a_edge9_Node000001_Node000009"><a xlink:title=" ">
<path fill="none" stroke="#63b8ff" d="M61.23,-92.91C76.76,-84.55 100.41,-72.55 122,-64.5 127.46,-62.46 133.25,-60.56 139.05,-58.8"/>
<polygon fill="#63b8ff" stroke="#63b8ff" points="140.13,-62.14 148.77,-56 138.19,-55.41 140.13,-62.14"/>
</a>
</g>
</g>
<!-- Node2&#45;&gt;Node3 -->
<g id="edge2_Node000002_Node000003" class="edge">
<title>Node2&#45;&gt;Node3</title>
<g id="a_edge2_Node000002_Node000003"><a xlink:title=" ">
<path fill="none" stroke="#63b8ff" d="M243.62,-152.69C257,-150.95 271.41,-149.07 284.8,-147.32"/>
<polygon fill="#63b8ff" stroke="#63b8ff" points="285.34,-150.78 294.8,-146.01 284.43,-143.83 285.34,-150.78"/>
</a>
</g>
</g>
<!-- Node4 -->
<g id="Node000004" class="node">
<title>Node4</title>
<g id="a_Node000004"><a xlink:href="Game_8cpp.html#a57969eb4e43103db9218562c02a5c9a1" target="_top" xlink:title=" ">
<polygon fill="white" stroke="#666666" points="545,-150 438,-150 438,-131 545,-131 545,-150"/>
<text text-anchor="middle" x="491.5" y="-138" font-family="Helvetica,sans-Serif" font-size="10.00">CM_RenderCredits</text>
</a>
</g>
</g>
<!-- Node3&#45;&gt;Node4 -->
<g id="edge3_Node000003_Node000004" class="edge">
<title>Node3&#45;&gt;Node4</title>
<g id="a_edge3_Node000003_Node000004"><a xlink:title=" ">
<path fill="none" stroke="#63b8ff" d="M381.2,-140.5C395.64,-140.5 412.11,-140.5 427.81,-140.5"/>
<polygon fill="#63b8ff" stroke="#63b8ff" points="427.99,-144 437.99,-140.5 427.99,-137 427.99,-144"/>
</a>
</g>
</g>
<!-- Node6 -->
<g id="Node000006" class="node">
<title>Node6</title>
<g id="a_Node000006"><a xlink:href="GBIMiddleware_8cpp.html#aeef79449a27a710d73576e4a4f7f7f99" target="_top" xlink:title=" ">
<polygon fill="white" stroke="#666666" points="371,-93 305,-93 305,-74 371,-74 371,-93"/>
<text text-anchor="middle" x="338" y="-81" font-family="Helvetica,sans-Serif" font-size="10.00">gSPVertex</text>
</a>
</g>
</g>
<!-- Node5&#45;&gt;Node6 -->
<g id="edge5_Node000005_Node000006" class="edge">
<title>Node5&#45;&gt;Node6</title>
<g id="a_edge5_Node000005_Node000006"><a xlink:title=" ">
<path fill="none" stroke="#63b8ff" d="M237.54,-83.5C255.77,-83.5 276.61,-83.5 294.48,-83.5"/>
<polygon fill="#63b8ff" stroke="#63b8ff" points="294.62,-87 304.62,-83.5 294.62,-80 294.62,-87"/>
</a>
</g>
</g>
<!-- Node7 -->
<g id="Node000007" class="node">
<title>Node7</title>
<g id="a_Node000007"><a xlink:href="Engine_8cpp.html#a223c8bc63f228dc11177515e38eff2db" target="_top" xlink:title=" ">
<polygon fill="white" stroke="#666666" points="566,-93 417,-93 417,-74 566,-74 566,-93"/>
<text text-anchor="middle" x="491.5" y="-81" font-family="Helvetica,sans-Serif" font-size="10.00">GameEngine_OTRSigCheck</text>
</a>
</g>
</g>
<!-- Node6&#45;&gt;Node7 -->
<g id="edge6_Node000006_Node000007" class="edge">
<title>Node6&#45;&gt;Node7</title>
<g id="a_edge6_Node000006_Node000007"><a xlink:title=" ">
<path fill="none" stroke="#63b8ff" d="M371.13,-83.5C381.75,-83.5 394.11,-83.5 406.77,-83.5"/>
<polygon fill="#63b8ff" stroke="#63b8ff" points="406.96,-87 416.96,-83.5 406.96,-80 406.96,-87"/>
</a>
</g>
</g>
<!-- Node8 -->
<g id="Node000008" class="node">
<title>Node8</title>
<g id="a_Node000008"><a xlink:href="string_8c.html#a008e171a518fe0e0352f31b245e03875" target="_top" xlink:title=" ">
<polygon fill="white" stroke="#666666" points="646,-93 602,-93 602,-74 646,-74 646,-93"/>
<text text-anchor="middle" x="624" y="-81" font-family="Helvetica,sans-Serif" font-size="10.00">strlen</text>
</a>
</g>
</g>
<!-- Node7&#45;&gt;Node8 -->
<g id="edge7_Node000007_Node000008" class="edge">
<title>Node7&#45;&gt;Node8</title>
<g id="a_edge7_Node000007_Node000008"><a xlink:title=" ">
<path fill="none" stroke="#63b8ff" d="M566.14,-83.5C575.12,-83.5 583.89,-83.5 591.75,-83.5"/>
<polygon fill="#63b8ff" stroke="#63b8ff" points="591.83,-87 601.83,-83.5 591.83,-80 591.83,-87"/>
</a>
</g>
</g>
<!-- Node10 -->
<g id="Node000010" class="node">
<title>Node10</title>
<g id="a_Node000010"><a xlink:href="math__util_8c.html#ae69cbf5c8d4b3b0dba2d7b4d4673689f" target="_top" xlink:title=" ">
<polygon fill="white" stroke="#666666" points="357,-56 319,-56 319,-37 357,-37 357,-56"/>
<text text-anchor="middle" x="338" y="-44" font-family="Helvetica,sans-Serif" font-size="10.00">coss</text>
</a>
</g>
</g>
<!-- Node9&#45;&gt;Node10 -->
<g id="edge10_Node000009_Node000010" class="edge">
<title>Node9&#45;&gt;Node10</title>
<g id="a_edge10_Node000009_Node000010"><a xlink:title=" ">
<path fill="none" stroke="#63b8ff" d="M259.14,-46.5C276.64,-46.5 294.54,-46.5 308.76,-46.5"/>
<polygon fill="#63b8ff" stroke="#63b8ff" points="308.85,-50 318.85,-46.5 308.85,-43 308.85,-50"/>
</a>
</g>
</g>
<!-- Node11 -->
<g id="Node000011" class="node">
<title>Node11</title>
<g id="a_Node000011"><a xlink:href="math__util_8c.html#a19ed3bd78fd2d3e2bd0a29f6caf48545" target="_top" xlink:title=" ">
<polygon fill="white" stroke="#666666" points="356,-19 320,-19 320,0 356,0 356,-19"/>
<text text-anchor="middle" x="338" y="-7" font-family="Helvetica,sans-Serif" font-size="10.00">sins</text>
</a>
</g>
</g>
<!-- Node9&#45;&gt;Node11 -->
<g id="edge11_Node000009_Node000011" class="edge">
<title>Node9&#45;&gt;Node11</title>
<g id="a_edge11_Node000009_Node000011"><a xlink:title=" ">
<path fill="none" stroke="#63b8ff" d="M228.97,-36.97C254.38,-30.51 287.37,-22.12 310.17,-16.32"/>
<polygon fill="#63b8ff" stroke="#63b8ff" points="311.04,-19.71 319.87,-13.86 309.31,-12.93 311.04,-19.71"/>
</a>
</g>
</g>
</g>
</svg>
