<?xml version="1.0" encoding="UTF-8" standalone="no"?>
<!DOCTYPE svg PUBLIC "-//W3C//DTD SVG 1.1//EN"
 "http://www.w3.org/Graphics/SVG/1.1/DTD/svg11.dtd">
<!-- Generated by graphviz version 2.43.0 (0)
 -->
<!-- Title: func_80290C20 Pages: 1 -->
<svg width="289pt" height="964pt"
 viewBox="0.00 0.00 289.00 964.00" xmlns="http://www.w3.org/2000/svg" xmlns:xlink="http://www.w3.org/1999/xlink">
<g id="graph0" class="graph" transform="scale(1 1) rotate(0) translate(4 960)">
<title>func_80290C20</title>
<!-- Node1 -->
<g id="Node000001" class="node">
<title>Node1</title>
<g id="a_Node000001"><a xlink:title=" ">
<polygon fill="#999999" stroke="#666666" points="281,-493 189,-493 189,-474 281,-474 281,-493"/>
<text text-anchor="middle" x="235" y="-481" font-family="Helvetica,sans-Serif" font-size="10.00">func_80290C20</text>
</a>
</g>
</g>
<!-- Node2 -->
<g id="Node000002" class="node">
<title>Node2</title>
<g id="a_Node000002"><a xlink:href="classSherbetLand.html#a8920d448b38a9ca5174ee1150c569746" target="_top" xlink:title=" ">
<polygon fill="white" stroke="#666666" points="145,-956 8,-956 8,-937 145,-937 145,-956"/>
<text text-anchor="middle" x="76.5" y="-944" font-family="Helvetica,sans-Serif" font-size="10.00">SherbetLand::DrawWater</text>
</a>
</g>
</g>
<!-- Node1&#45;&gt;Node2 -->
<g id="edge1_Node000001_Node000002" class="edge">
<title>Node1&#45;&gt;Node2</title>
<g id="a_edge1_Node000001_Node000002"><a xlink:title=" ">
<path fill="none" stroke="#63b8ff" d="M233.18,-503.5C229.56,-581.71 212.46,-865.74 153,-928.5 149.85,-931.83 146.2,-934.59 142.25,-936.87"/>
<polygon fill="#63b8ff" stroke="#63b8ff" points="236.69,-503.28 233.63,-493.13 229.7,-502.97 236.69,-503.28"/>
</a>
</g>
</g>
<!-- Node3 -->
<g id="Node000003" class="node">
<title>Node3</title>
<g id="a_Node000003"><a xlink:href="classBigDonut.html#a7896213233573878a6f13f072cf8109a" target="_top" xlink:title=" ">
<polygon fill="white" stroke="#666666" points="127.5,-919 25.5,-919 25.5,-900 127.5,-900 127.5,-919"/>
<text text-anchor="middle" x="76.5" y="-907" font-family="Helvetica,sans-Serif" font-size="10.00">BigDonut::Render</text>
</a>
</g>
</g>
<!-- Node1&#45;&gt;Node3 -->
<g id="edge2_Node000001_Node000003" class="edge">
<title>Node1&#45;&gt;Node3</title>
<g id="a_edge2_Node000001_Node000003"><a xlink:title=" ">
<path fill="none" stroke="#63b8ff" d="M232.84,-503.24C228.09,-576.93 207.79,-834.58 153,-891.5 146.18,-898.59 137.11,-903.1 127.63,-905.92"/>
<polygon fill="#63b8ff" stroke="#63b8ff" points="236.34,-503.25 233.47,-493.05 229.36,-502.82 236.34,-503.25"/>
</a>
</g>
</g>
<!-- Node4 -->
<g id="Node000004" class="node">
<title>Node4</title>
<g id="a_Node000004"><a xlink:href="classBowsersCastle.html#af670116693c9440f1f6ff5d26a7a18f8" target="_top" xlink:title=" ">
<polygon fill="white" stroke="#666666" points="141,-882 12,-882 12,-863 141,-863 141,-882"/>
<text text-anchor="middle" x="76.5" y="-870" font-family="Helvetica,sans-Serif" font-size="10.00">BowsersCastle::Render</text>
</a>
</g>
</g>
<!-- Node1&#45;&gt;Node4 -->
<g id="edge3_Node000001_Node000004" class="edge">
<title>Node1&#45;&gt;Node4</title>
<g id="a_edge3_Node000001_Node000004"><a xlink:title=" ">
<path fill="none" stroke="#63b8ff" d="M232.41,-503.23C226.45,-572.53 203.08,-803.46 153,-854.5 149.51,-858.06 145.45,-860.97 141.06,-863.33"/>
<polygon fill="#63b8ff" stroke="#63b8ff" points="235.91,-503.47 233.25,-493.21 228.93,-502.89 235.91,-503.47"/>
</a>
</g>
</g>
<!-- Node5 -->
<g id="Node000005" class="node">
<title>Node5</title>
<g id="a_Node000005"><a xlink:href="classChocoMountain.html#aa64bf253e5759e09a98d47d6eb96d965" target="_top" xlink:title=" ">
<polygon fill="white" stroke="#666666" points="143,-845 10,-845 10,-826 143,-826 143,-845"/>
<text text-anchor="middle" x="76.5" y="-833" font-family="Helvetica,sans-Serif" font-size="10.00">ChocoMountain::Render</text>
</a>
</g>
</g>
<!-- Node1&#45;&gt;Node5 -->
<g id="edge4_Node000001_Node000005" class="edge">
<title>Node1&#45;&gt;Node5</title>
<g id="a_edge4_Node000001_Node000005"><a xlink:title=" ">
<path fill="none" stroke="#63b8ff" d="M231.89,-503.32C224.59,-568.15 198.36,-772.31 153,-817.5 149.66,-820.83 145.82,-823.58 141.68,-825.86"/>
<polygon fill="#63b8ff" stroke="#63b8ff" points="235.39,-503.54 233,-493.22 228.43,-502.77 235.39,-503.54"/>
</a>
</g>
</g>
<!-- Node6 -->
<g id="Node000006" class="node">
<title>Node6</title>
<g id="a_Node000006"><a xlink:href="classDKJungle.html#abb8ab2f6dba395f0f89448973196bc64" target="_top" xlink:title=" ">
<polygon fill="white" stroke="#666666" points="127,-808 26,-808 26,-789 127,-789 127,-808"/>
<text text-anchor="middle" x="76.5" y="-796" font-family="Helvetica,sans-Serif" font-size="10.00">DKJungle::Render</text>
</a>
</g>
</g>
<!-- Node1&#45;&gt;Node6 -->
<g id="edge5_Node000001_Node000006" class="edge">
<title>Node1&#45;&gt;Node6</title>
<g id="a_edge5_Node000001_Node000006"><a xlink:title=" ">
<path fill="none" stroke="#63b8ff" d="M231.29,-503.04C222.63,-562.74 193.76,-741.03 153,-780.5 145.93,-787.34 136.76,-791.75 127.25,-794.55"/>
<polygon fill="#63b8ff" stroke="#63b8ff" points="234.77,-503.44 232.71,-493.05 227.84,-502.46 234.77,-503.44"/>
</a>
</g>
</g>
<!-- Node7 -->
<g id="Node000007" class="node">
<title>Node7</title>
<g id="a_Node000007"><a xlink:href="classFrappeSnowland.html#a1fd083ac467df5829a3fd99525eb06f5" target="_top" xlink:title=" ">
<polygon fill="white" stroke="#666666" points="145,-771 8,-771 8,-752 145,-752 145,-771"/>
<text text-anchor="middle" x="76.5" y="-759" font-family="Helvetica,sans-Serif" font-size="10.00">FrappeSnowland::Render</text>
</a>
</g>
</g>
<!-- Node1&#45;&gt;Node7 -->
<g id="edge6_Node000001_Node000007" class="edge">
<title>Node1&#45;&gt;Node7</title>
<g id="a_edge6_Node000001_Node000007"><a xlink:title=" ">
<path fill="none" stroke="#63b8ff" d="M234.06,-503.08C233.08,-551.48 223.52,-677.61 153,-743.5 149.36,-746.9 145.19,-749.7 140.73,-751.99"/>
<polygon fill="#63b8ff" stroke="#63b8ff" points="237.56,-503.04 234.15,-493.01 230.56,-502.97 237.56,-503.04"/>
</a>
</g>
</g>
<!-- Node8 -->
<g id="Node000008" class="node">
<title>Node8</title>
<g id="a_Node000008"><a xlink:href="classHarbour.html#a540299eba3e43740e598cc54ff5d284d" target="_top" xlink:title=" ">
<polygon fill="white" stroke="#666666" points="124.5,-734 28.5,-734 28.5,-715 124.5,-715 124.5,-734"/>
<text text-anchor="middle" x="76.5" y="-722" font-family="Helvetica,sans-Serif" font-size="10.00">Harbour::Render</text>
</a>
</g>
</g>
<!-- Node1&#45;&gt;Node8 -->
<g id="edge7_Node000001_Node000008" class="edge">
<title>Node1&#45;&gt;Node8</title>
<g id="a_edge7_Node000001_Node000008"><a xlink:title=" ">
<path fill="none" stroke="#63b8ff" d="M232.85,-503.5C229.22,-547.25 214.24,-651.89 153,-706.5 145.16,-713.5 135.08,-717.9 124.87,-720.64"/>
<polygon fill="#63b8ff" stroke="#63b8ff" points="236.36,-503.53 233.58,-493.31 229.38,-503.03 236.36,-503.53"/>
</a>
</g>
</g>
<!-- Node9 -->
<g id="Node000009" class="node">
<title>Node9</title>
<g id="a_Node000009"><a xlink:href="classKalimariDesert.html#aad824dbb6927b40d907cb96d2c62e223" target="_top" xlink:title=" ">
<polygon fill="white" stroke="#666666" points="142,-697 11,-697 11,-678 142,-678 142,-697"/>
<text text-anchor="middle" x="76.5" y="-685" font-family="Helvetica,sans-Serif" font-size="10.00">KalimariDesert::Render</text>
</a>
</g>
</g>
<!-- Node1&#45;&gt;Node9 -->
<g id="edge8_Node000001_Node000009" class="edge">
<title>Node1&#45;&gt;Node9</title>
<g id="a_edge8_Node000001_Node000009"><a xlink:title=" ">
<path fill="none" stroke="#63b8ff" d="M231.25,-503.31C224.87,-541.56 205.35,-625.67 153,-669.5 148.97,-672.87 144.42,-675.64 139.59,-677.9"/>
<polygon fill="#63b8ff" stroke="#63b8ff" points="234.72,-503.82 232.78,-493.4 227.8,-502.75 234.72,-503.82"/>
</a>
</g>
</g>
<!-- Node10 -->
<g id="Node000010" class="node">
<title>Node10</title>
<g id="a_Node000010"><a xlink:href="classKoopaTroopaBeach.html#aafdd68838a096c5b0ce03cbe52fa1996" target="_top" xlink:title=" ">
<polygon fill="white" stroke="#666666" points="151,-660 2,-660 2,-641 151,-641 151,-660"/>
<text text-anchor="middle" x="76.5" y="-648" font-family="Helvetica,sans-Serif" font-size="10.00">KoopaTroopaBeach::Render</text>
</a>
</g>
</g>
<!-- Node1&#45;&gt;Node10 -->
<g id="edge9_Node000001_Node000010" class="edge">
<title>Node1&#45;&gt;Node10</title>
<g id="a_edge9_Node000001_Node000010"><a xlink:title=" ">
<path fill="none" stroke="#63b8ff" d="M228.91,-503.33C219.55,-535.59 196.5,-599.2 153,-632.5 148.61,-635.86 143.7,-638.6 138.53,-640.84"/>
<polygon fill="#63b8ff" stroke="#63b8ff" points="232.38,-503.89 231.65,-493.32 225.63,-502.04 232.38,-503.89"/>
</a>
</g>
</g>
<!-- Node11 -->
<g id="Node000011" class="node">
<title>Node11</title>
<g id="a_Node000011"><a xlink:href="classLuigiRaceway.html#a50da353726332129520768fb119ceb3e" target="_top" xlink:title=" ">
<polygon fill="white" stroke="#666666" points="138.5,-623 14.5,-623 14.5,-604 138.5,-604 138.5,-623"/>
<text text-anchor="middle" x="76.5" y="-611" font-family="Helvetica,sans-Serif" font-size="10.00">LuigiRaceway::Render</text>
</a>
</g>
</g>
<!-- Node1&#45;&gt;Node11 -->
<g id="edge10_Node000001_Node000011" class="edge">
<title>Node1&#45;&gt;Node11</title>
<g id="a_edge10_Node000001_Node000011"><a xlink:title=" ">
<path fill="none" stroke="#63b8ff" d="M225.64,-502.32C213.42,-527.56 188.24,-571.94 153,-595.5 147.85,-598.95 142.11,-601.73 136.16,-603.99"/>
<polygon fill="#63b8ff" stroke="#63b8ff" points="228.89,-503.62 229.94,-493.08 222.55,-500.66 228.89,-503.62"/>
</a>
</g>
</g>
<!-- Node12 -->
<g id="Node000012" class="node">
<title>Node12</title>
<g id="a_Node000012"><a xlink:href="classMarioRaceway.html#a4132ff796ca22dc242d26081946a5032" target="_top" xlink:title=" ">
<polygon fill="white" stroke="#666666" points="140.5,-586 12.5,-586 12.5,-567 140.5,-567 140.5,-586"/>
<text text-anchor="middle" x="76.5" y="-574" font-family="Helvetica,sans-Serif" font-size="10.00">MarioRaceway::Render</text>
</a>
</g>
</g>
<!-- Node1&#45;&gt;Node12 -->
<g id="edge11_Node000001_Node000012" class="edge">
<title>Node1&#45;&gt;Node12</title>
<g id="a_edge11_Node000001_Node000012"><a xlink:title=" ">
<path fill="none" stroke="#63b8ff" d="M219.98,-500.91C205.15,-518.14 180.17,-543.99 153,-558.5 146.58,-561.93 139.51,-564.71 132.35,-566.97"/>
<polygon fill="#63b8ff" stroke="#63b8ff" points="222.67,-503.14 226.41,-493.23 217.31,-498.65 222.67,-503.14"/>
</a>
</g>
</g>
<!-- Node13 -->
<g id="Node000013" class="node">
<title>Node13</title>
<g id="a_Node000013"><a xlink:href="classPodiumCeremony.html#af02d82c0d12de76bfedbb8d2e6cf3ff5" target="_top" xlink:title=" ">
<polygon fill="white" stroke="#666666" points="148,-549 5,-549 5,-530 148,-530 148,-549"/>
<text text-anchor="middle" x="76.5" y="-537" font-family="Helvetica,sans-Serif" font-size="10.00">PodiumCeremony::Render</text>
</a>
</g>
</g>
<!-- Node1&#45;&gt;Node13 -->
<g id="edge12_Node000001_Node000013" class="edge">
<title>Node1&#45;&gt;Node13</title>
<g id="a_edge12_Node000001_Node000013"><a xlink:title=" ">
<path fill="none" stroke="#63b8ff" d="M207.41,-497.66C191.87,-505.51 171.7,-514.96 153,-521.5 143.84,-524.7 133.86,-527.53 124.25,-529.93"/>
<polygon fill="#63b8ff" stroke="#63b8ff" points="209.13,-500.71 216.42,-493.03 205.93,-494.49 209.13,-500.71"/>
</a>
</g>
</g>
<!-- Node14 -->
<g id="Node000014" class="node">
<title>Node14</title>
<g id="a_Node000014"><a xlink:href="classRoyalRaceway.html#ac18c4d1a3c18d52432d234ee7f42be6f" target="_top" xlink:title=" ">
<polygon fill="white" stroke="#666666" points="140.5,-512 12.5,-512 12.5,-493 140.5,-493 140.5,-512"/>
<text text-anchor="middle" x="76.5" y="-500" font-family="Helvetica,sans-Serif" font-size="10.00">RoyalRaceway::Render</text>
</a>
</g>
</g>
<!-- Node1&#45;&gt;Node14 -->
<g id="edge13_Node000001_Node000014" class="edge">
<title>Node1&#45;&gt;Node14</title>
<g id="a_edge13_Node000001_Node000014"><a xlink:title=" ">
<path fill="none" stroke="#63b8ff" d="M178.65,-490.22C166.37,-491.71 153.27,-493.3 140.71,-494.83"/>
<polygon fill="#63b8ff" stroke="#63b8ff" points="179.23,-493.68 188.73,-489 178.38,-486.73 179.23,-493.68"/>
</a>
</g>
</g>
<!-- Node15 -->
<g id="Node000015" class="node">
<title>Node15</title>
<g id="a_Node000015"><a xlink:href="classTestCourse.html#a0a43681ce7533ac15544f6cc4d123a12" target="_top" xlink:title=" ">
<polygon fill="white" stroke="#666666" points="131.5,-475 21.5,-475 21.5,-456 131.5,-456 131.5,-475"/>
<text text-anchor="middle" x="76.5" y="-463" font-family="Helvetica,sans-Serif" font-size="10.00">TestCourse::Render</text>
</a>
</g>
</g>
<!-- Node1&#45;&gt;Node15 -->
<g id="edge14_Node000001_Node000015" class="edge">
<title>Node1&#45;&gt;Node15</title>
<g id="a_edge14_Node000001_Node000015"><a xlink:title=" ">
<path fill="none" stroke="#63b8ff" d="M178.41,-477.11C163.17,-475.35 146.68,-473.46 131.53,-471.71"/>
<polygon fill="#63b8ff" stroke="#63b8ff" points="178.4,-480.63 188.73,-478.29 179.2,-473.67 178.4,-480.63"/>
</a>
</g>
</g>
<!-- Node16 -->
<g id="Node000016" class="node">
<title>Node16</title>
<g id="a_Node000016"><a xlink:href="classWarioStadium.html#a7b544197ce58d2c2ddca33649b687457" target="_top" xlink:title=" ">
<polygon fill="white" stroke="#666666" points="139,-438 14,-438 14,-419 139,-419 139,-438"/>
<text text-anchor="middle" x="76.5" y="-426" font-family="Helvetica,sans-Serif" font-size="10.00">WarioStadium::Render</text>
</a>
</g>
</g>
<!-- Node1&#45;&gt;Node16 -->
<g id="edge15_Node000001_Node000016" class="edge">
<title>Node1&#45;&gt;Node16</title>
<g id="a_edge15_Node000001_Node000016"><a xlink:title=" ">
<path fill="none" stroke="#63b8ff" d="M205.63,-469.46C190.3,-462.23 170.9,-453.68 153,-447.5 142.78,-443.97 131.57,-440.79 121,-438.09"/>
<polygon fill="#63b8ff" stroke="#63b8ff" points="204.53,-472.81 215.06,-473.97 207.55,-466.49 204.53,-472.81"/>
</a>
</g>
</g>
<!-- Node17 -->
<g id="Node000017" class="node">
<title>Node17</title>
<g id="a_Node000017"><a xlink:href="render__courses_8c.html#a648b66d6448fe0556526a56fc429b8e1" target="_top" xlink:title=" ">
<polygon fill="white" stroke="#666666" points="127,-401 26,-401 26,-382 127,-382 127,-401"/>
<text text-anchor="middle" x="76.5" y="-389" font-family="Helvetica,sans-Serif" font-size="10.00">render_big_donut</text>
</a>
</g>
</g>
<!-- Node1&#45;&gt;Node17 -->
<g id="edge16_Node000001_Node000017" class="edge">
<title>Node1&#45;&gt;Node17</title>
<g id="a_edge16_Node000001_Node000017"><a xlink:title=" ">
<path fill="none" stroke="#63b8ff" d="M219.19,-465.91C204.18,-449.21 179.46,-424.61 153,-410.5 145.01,-406.24 136.03,-402.91 127.13,-400.31"/>
<polygon fill="#63b8ff" stroke="#63b8ff" points="216.9,-468.6 226.11,-473.83 222.17,-464 216.9,-468.6"/>
</a>
</g>
</g>
<!-- Node18 -->
<g id="Node000018" class="node">
<title>Node18</title>
<g id="a_Node000018"><a xlink:href="render__courses_8c.html#a32fec071ccf48cf3f3d9b050ef96dd9d" target="_top" xlink:title=" ">
<polygon fill="white" stroke="#666666" points="140.5,-364 12.5,-364 12.5,-345 140.5,-345 140.5,-364"/>
<text text-anchor="middle" x="76.5" y="-352" font-family="Helvetica,sans-Serif" font-size="10.00">render_bowsers_castle</text>
</a>
</g>
</g>
<!-- Node1&#45;&gt;Node18 -->
<g id="edge17_Node000001_Node000018" class="edge">
<title>Node1&#45;&gt;Node18</title>
<g id="a_edge17_Node000001_Node000018"><a xlink:title=" ">
<path fill="none" stroke="#63b8ff" d="M225.32,-464.71C212.88,-439.93 187.61,-396.74 153,-373.5 147.16,-369.58 140.59,-366.47 133.8,-364"/>
<polygon fill="#63b8ff" stroke="#63b8ff" points="222.21,-466.33 229.72,-473.81 228.52,-463.28 222.21,-466.33"/>
</a>
</g>
</g>
<!-- Node19 -->
<g id="Node000019" class="node">
<title>Node19</title>
<g id="a_Node000019"><a xlink:href="render__courses_8c.html#a26eba8e475edeea00499b9d2952ad1d5" target="_top" xlink:title=" ">
<polygon fill="white" stroke="#666666" points="143.5,-327 9.5,-327 9.5,-308 143.5,-308 143.5,-327"/>
<text text-anchor="middle" x="76.5" y="-315" font-family="Helvetica,sans-Serif" font-size="10.00">render_choco_mountain</text>
</a>
</g>
</g>
<!-- Node1&#45;&gt;Node19 -->
<g id="edge18_Node000001_Node000019" class="edge">
<title>Node1&#45;&gt;Node19</title>
<g id="a_edge18_Node000001_Node000019"><a xlink:title=" ">
<path fill="none" stroke="#63b8ff" d="M228.78,-463.99C219.25,-432.24 195.93,-369.61 153,-336.5 147.97,-332.62 142.24,-329.53 136.24,-327.06"/>
<polygon fill="#63b8ff" stroke="#63b8ff" points="225.48,-465.18 231.59,-473.84 232.21,-463.26 225.48,-465.18"/>
</a>
</g>
</g>
<!-- Node20 -->
<g id="Node000020" class="node">
<title>Node20</title>
<g id="a_Node000020"><a xlink:href="render__courses_8c.html#a4ef8d7da4ca5f4c93ae612312cc815d9" target="_top" xlink:title=" ">
<polygon fill="white" stroke="#666666" points="153,-290 0,-290 0,-271 153,-271 153,-290"/>
<text text-anchor="middle" x="76.5" y="-278" font-family="Helvetica,sans-Serif" font-size="10.00">render_dks_jungle_parkway</text>
</a>
</g>
</g>
<!-- Node1&#45;&gt;Node20 -->
<g id="edge19_Node000001_Node000020" class="edge">
<title>Node1&#45;&gt;Node20</title>
<g id="a_edge19_Node000001_Node000020"><a xlink:title=" ">
<path fill="none" stroke="#63b8ff" d="M231.05,-463.47C224.37,-425.5 204.47,-342.97 153,-299.5 148.46,-295.66 143.24,-292.58 137.73,-290.11"/>
<polygon fill="#63b8ff" stroke="#63b8ff" points="227.66,-464.42 232.72,-473.73 234.57,-463.3 227.66,-464.42"/>
</a>
</g>
</g>
<!-- Node21 -->
<g id="Node000021" class="node">
<title>Node21</title>
<g id="a_Node000021"><a xlink:href="render__courses_8c.html#a50ec6c5006a884d2e58663999057bb5a" target="_top" xlink:title=" ">
<polygon fill="white" stroke="#666666" points="145,-253 8,-253 8,-234 145,-234 145,-253"/>
<text text-anchor="middle" x="76.5" y="-241" font-family="Helvetica,sans-Serif" font-size="10.00">render_frappe_snowland</text>
</a>
</g>
</g>
<!-- Node1&#45;&gt;Node21 -->
<g id="edge20_Node000001_Node000021" class="edge">
<title>Node1&#45;&gt;Node21</title>
<g id="a_edge20_Node000001_Node000021"><a xlink:title=" ">
<path fill="none" stroke="#63b8ff" d="M232.74,-463.73C228.89,-420.48 213.49,-316.97 153,-262.5 148.78,-258.7 143.91,-255.64 138.73,-253.17"/>
<polygon fill="#63b8ff" stroke="#63b8ff" points="229.26,-464.11 233.52,-473.81 236.24,-463.57 229.26,-464.11"/>
</a>
</g>
</g>
<!-- Node22 -->
<g id="Node000022" class="node">
<title>Node22</title>
<g id="a_Node000022"><a xlink:href="render__courses_8c.html#adfb1515e3d4215d1be339ed41f86bed5" target="_top" xlink:title=" ">
<polygon fill="white" stroke="#666666" points="141,-216 12,-216 12,-197 141,-197 141,-216"/>
<text text-anchor="middle" x="76.5" y="-204" font-family="Helvetica,sans-Serif" font-size="10.00">render_kalimari_desert</text>
</a>
</g>
</g>
<!-- Node1&#45;&gt;Node22 -->
<g id="edge21_Node000001_Node000022" class="edge">
<title>Node1&#45;&gt;Node22</title>
<g id="a_edge21_Node000001_Node000022"><a xlink:title=" ">
<path fill="none" stroke="#63b8ff" d="M233.95,-463.79C232.7,-415.64 222.53,-291.13 153,-225.5 148.97,-221.7 144.29,-218.62 139.28,-216.14"/>
<polygon fill="#63b8ff" stroke="#63b8ff" points="230.45,-463.89 234.1,-473.83 237.45,-463.78 230.45,-463.89"/>
</a>
</g>
</g>
<!-- Node23 -->
<g id="Node000023" class="node">
<title>Node23</title>
<g id="a_Node000023"><a xlink:href="render__courses_8c.html#ad9249651e952db9fc1a120dccdaa213c" target="_top" xlink:title=" ">
<polygon fill="white" stroke="#666666" points="136,-178.5 17,-178.5 17,-148.5 136,-148.5 136,-178.5"/>
<text text-anchor="start" x="25" y="-166.5" font-family="Helvetica,sans-Serif" font-size="10.00">render_koopa_troopa</text>
<text text-anchor="middle" x="76.5" y="-155.5" font-family="Helvetica,sans-Serif" font-size="10.00">_beach</text>
</a>
</g>
</g>
<!-- Node1&#45;&gt;Node23 -->
<g id="edge22_Node000001_Node000023" class="edge">
<title>Node1&#45;&gt;Node23</title>
<g id="a_edge22_Node000001_Node000023"><a xlink:title=" ">
<path fill="none" stroke="#63b8ff" d="M234.56,-463.51C234.9,-411.05 228.48,-267.99 153,-188.5 148.25,-183.49 142.47,-179.49 136.25,-176.29"/>
<polygon fill="#63b8ff" stroke="#63b8ff" points="231.05,-463.74 234.39,-473.8 238.05,-463.85 231.05,-463.74"/>
</a>
</g>
</g>
<!-- Node24 -->
<g id="Node000024" class="node">
<title>Node24</title>
<g id="a_Node000024"><a xlink:href="render__courses_8c.html#a8702de1019e0656bf3a53dc4193b8c1b" target="_top" xlink:title=" ">
<polygon fill="white" stroke="#666666" points="137,-130 16,-130 16,-111 137,-111 137,-130"/>
<text text-anchor="middle" x="76.5" y="-118" font-family="Helvetica,sans-Serif" font-size="10.00">render_luigi_raceway</text>
</a>
</g>
</g>
<!-- Node1&#45;&gt;Node24 -->
<g id="edge23_Node000001_Node000024" class="edge">
<title>Node1&#45;&gt;Node24</title>
<g id="a_edge23_Node000001_Node000024"><a xlink:title=" ">
<path fill="none" stroke="#63b8ff" d="M232,-463.55C224.98,-397.36 199.3,-186.51 153,-139.5 148.45,-134.88 142.95,-131.32 137.02,-128.59"/>
<polygon fill="#63b8ff" stroke="#63b8ff" points="228.56,-464.26 233.07,-473.84 235.52,-463.54 228.56,-464.26"/>
</a>
</g>
</g>
<!-- Node25 -->
<g id="Node000025" class="node">
<title>Node25</title>
<g id="a_Node000025"><a xlink:href="render__courses_8c.html#ae5d8d5cab3be4c4409c0b5f71a8a2fd5" target="_top" xlink:title=" ">
<polygon fill="white" stroke="#666666" points="140.5,-93 12.5,-93 12.5,-74 140.5,-74 140.5,-93"/>
<text text-anchor="middle" x="76.5" y="-81" font-family="Helvetica,sans-Serif" font-size="10.00">render_mario_raceway</text>
</a>
</g>
</g>
<!-- Node1&#45;&gt;Node25 -->
<g id="edge24_Node000001_Node000025" class="edge">
<title>Node1&#45;&gt;Node25</title>
<g id="a_edge24_Node000001_Node000025"><a xlink:title=" ">
<path fill="none" stroke="#63b8ff" d="M232.51,-463.73C226.8,-393.22 204.01,-155.43 153,-102.5 149.34,-98.7 145.05,-95.62 140.39,-93.13"/>
<polygon fill="#63b8ff" stroke="#63b8ff" points="229.03,-464.2 233.31,-473.89 236.01,-463.65 229.03,-464.2"/>
</a>
</g>
</g>
<!-- Node26 -->
<g id="Node000026" class="node">
<title>Node26</title>
<g id="a_Node000026"><a xlink:href="render__courses_8c.html#af2e49ecda77989002c880514dc7048cf" target="_top" xlink:title=" ">
<polygon fill="white" stroke="#666666" points="139,-56 14,-56 14,-37 139,-37 139,-56"/>
<text text-anchor="middle" x="76.5" y="-44" font-family="Helvetica,sans-Serif" font-size="10.00">render_royal_raceway</text>
</a>
</g>
</g>
<!-- Node1&#45;&gt;Node26 -->
<g id="edge25_Node000001_Node000026" class="edge">
<title>Node1&#45;&gt;Node26</title>
<g id="a_edge25_Node000001_Node000026"><a xlink:title=" ">
<path fill="none" stroke="#63b8ff" d="M232.89,-463.3C228.32,-387.9 208.58,-124.24 153,-65.5 149.01,-61.28 144.22,-57.94 139.03,-55.3"/>
<polygon fill="#63b8ff" stroke="#63b8ff" points="229.42,-463.95 233.49,-473.73 236.41,-463.54 229.42,-463.95"/>
</a>
</g>
</g>
<!-- Node27 -->
<g id="Node000027" class="node">
<title>Node27</title>
<g id="a_Node000027"><a xlink:href="render__courses_8c.html#a26b0a13eb037fdface2b87be1006fade" target="_top" xlink:title=" ">
<polygon fill="white" stroke="#666666" points="139,-19 14,-19 14,0 139,0 139,-19"/>
<text text-anchor="middle" x="76.5" y="-7" font-family="Helvetica,sans-Serif" font-size="10.00">render_wario_stadium</text>
</a>
</g>
</g>
<!-- Node1&#45;&gt;Node27 -->
<g id="edge26_Node000001_Node000027" class="edge">
<title>Node1&#45;&gt;Node27</title>
<g id="a_edge26_Node000001_Node000027"><a xlink:title=" ">
<path fill="none" stroke="#63b8ff" d="M233.25,-463.57C229.84,-384.4 213.35,-93.25 153,-28.5 149.04,-24.25 144.28,-20.89 139.1,-18.24"/>
<polygon fill="#63b8ff" stroke="#63b8ff" points="229.75,-463.81 233.66,-473.66 236.75,-463.53 229.75,-463.81"/>
</a>
</g>
</g>
</g>
</svg>
