<?xml version="1.0" encoding="UTF-8" standalone="no"?>
<!DOCTYPE svg PUBLIC "-//W3C//DTD SVG 1.1//EN"
 "http://www.w3.org/Graphics/SVG/1.1/DTD/svg11.dtd">
<!-- Generated by graphviz version 2.43.0 (0)
 -->
<!-- Title: func_800563DC Pages: 1 -->
<!--zoomable 288 -->

<svg id="main" version="1.1" xmlns="http://www.w3.org/2000/svg" xmlns:xlink="http://www.w3.org/1999/xlink" xml:space="preserve" onload="init(evt)">

<style type="text/css"><![CDATA[
.node, .edge {opacity: 0.7;}
.node.selected, .edge.selected {opacity: 1;}
.edge:hover path { stroke: red; }
.edge:hover polygon { stroke: red; fill: red; }
]]></style>

<defs>
  <circle id="rim" cx="0" cy="0" r="7"/>
  <circle id="rim2" cx="0" cy="0" r="3.5"/>
  <g id="zoomPlus">
    <use xlink:href="#rim" fill="#404040"><set attributeName="fill" to="#808080" begin="zoomplus.mouseover" end="zoomplus.mouseout"/></use>
    <path d="M-4,0h8M0,-4v8" fill="none" stroke="white" stroke-width="1.5" pointer-events="none"/>
  </g>
  <g id="zoomMin">
    <use xlink:href="#rim" fill="#404040"><set attributeName="fill" to="#808080" begin="zoomminus.mouseover" end="zoomminus.mouseout"/></use>
    <path d="M-4,0h8" fill="none" stroke="white" stroke-width="1.5" pointer-events="none"/>
  </g>
  <g id="arrowUp" transform="translate(30 24)">
    <use xlink:href="#rim"/>
    <path pointer-events="none" fill="none" stroke="white" stroke-width="1.5" d="M0,-3.0v7 M-2.5,-0.5L0,-3.0L2.5,-0.5"/>
  </g>
  <g id="arrowRight" transform="rotate(90) translate(36 -43)">
    <use xlink:href="#rim"/>
    <path pointer-events="none" fill="none" stroke="white" stroke-width="1.5" d="M0,-3.0v7 M-2.5,-0.5L0,-3.0L2.5,-0.5"/>
  </g>
  <g id="arrowDown" transform="rotate(180) translate(-30 -48)">
    <use xlink:href="#rim"/>
    <path pointer-events="none" fill="none" stroke="white" stroke-width="1.5" d="M0,-3.0v7 M-2.5,-0.5L0,-3.0L2.5,-0.5"/>
  </g>
  <g id="arrowLeft" transform="rotate(270) translate(-36 17)">
    <use xlink:href="#rim"/>
    <path pointer-events="none" fill="none" stroke="white" stroke-width="1.5" d="M0,-3.0v7 M-2.5,-0.5L0,-3.0L2.5,-0.5"/>
  </g>
  <g id="resetDef">
    <use xlink:href="#rim2" fill="#404040"><set attributeName="fill" to="#808080" begin="reset.mouseover" end="reset.mouseout"/></use>
  </g>
</defs>
<script type="application/ecmascript">
var viewWidth = 1143;
var viewHeight = 288;
var sectionId = 'dynsection-431';
</script>
<script type="application/ecmascript" xlink:href="svg.min.js"/>
<svg id="graph" class="graph">
<g id="viewport">
<title>func_800563DC</title>
<!-- Node1 -->
<g id="Node000001" class="node">
<title>Node1</title>
<g id="a_Node000001"><a xlink:title=" ">
<polygon fill="#999999" stroke="#666666" points="93,-131 0,-131 0,-112 93,-112 93,-131"/>
<text text-anchor="middle" x="46.5" y="-119" font-family="Helvetica,sans-Serif" font-size="10.00">func_800563DC</text>
</a>
</g>
</g>
<!-- Node2 -->
<g id="Node000002" class="node">
<title>Node2</title>
<g id="a_Node000002"><a xlink:href="render__objects_8c.html#a8a48ecaa397efcff0fd4aab89b040c59" target="_top" xlink:title=" ">
<polygon fill="white" stroke="#666666" points="261,-229.5 129,-229.5 129,-199.5 261,-199.5 261,-229.5"/>
<text text-anchor="start" x="137" y="-217.5" font-family="Helvetica,sans-Serif" font-size="10.00">draw_rectangle_texture</text>
<text text-anchor="middle" x="195" y="-206.5" font-family="Helvetica,sans-Serif" font-size="10.00">_overlap</text>
</a>
</g>
</g>
<!-- Node1&#45;&gt;Node2 -->
<g id="edge1_Node000001_Node000002" class="edge">
<title>Node1&#45;&gt;Node2</title>
<g id="a_edge1_Node000001_Node000002"><a xlink:title=" ">
<path fill="none" stroke="#63b8ff" d="M60.82,-131.17C76.77,-142.62 104.41,-162.09 129,-177.5 138.09,-183.2 148.08,-189.07 157.44,-194.41"/>
<polygon fill="#63b8ff" stroke="#63b8ff" points="155.75,-197.47 166.18,-199.35 159.2,-191.38 155.75,-197.47"/>
</a>
</g>
</g>
<!-- Node3 -->
<g id="Node000003" class="node">
<title>Node3</title>
<g id="a_Node000003"><a xlink:href="GBIMiddleware_8cpp.html#a4ecc44e3c6f1ca5a6b4a20c41d3bd2d2" target="_top" xlink:title=" ">
<polygon fill="white" stroke="#666666" points="425,-280 336,-280 336,-261 425,-261 425,-280"/>
<text text-anchor="middle" x="380.5" y="-268" font-family="Helvetica,sans-Serif" font-size="10.00">gSPDisplayList</text>
</a>
</g>
</g>
<!-- Node1&#45;&gt;Node3 -->
<g id="edge29_Node000001_Node000003" class="edge">
<title>Node1&#45;&gt;Node3</title>
<g id="a_edge29_Node000001_Node000003"><a xlink:title=" ">
<path fill="none" stroke="#63b8ff" d="M51.01,-131.12C59.96,-154.15 86.02,-212.46 129,-238.5 189.06,-274.89 272.03,-278.27 325.73,-275.7"/>
<polygon fill="#63b8ff" stroke="#63b8ff" points="325.95,-279.19 335.73,-275.14 325.55,-272.21 325.95,-279.19"/>
</a>
</g>
</g>
<!-- Node8 -->
<g id="Node000008" class="node">
<title>Node8</title>
<g id="a_Node000008"><a xlink:href="math__util__2_8c.html#a99d173c040cb4a9d0184df2605d71e32" target="_top" xlink:title=" ">
<polygon fill="white" stroke="#666666" points="241,-93 149,-93 149,-74 241,-74 241,-93"/>
<text text-anchor="middle" x="195" y="-81" font-family="Helvetica,sans-Serif" font-size="10.00">func_800418AC</text>
</a>
</g>
</g>
<!-- Node1&#45;&gt;Node8 -->
<g id="edge8_Node000001_Node000008" class="edge">
<title>Node1&#45;&gt;Node8</title>
<g id="a_edge8_Node000001_Node000008"><a xlink:title=" ">
<path fill="none" stroke="#63b8ff" d="M84.47,-111.91C103.63,-106.94 127.21,-100.82 147.59,-95.54"/>
<polygon fill="#63b8ff" stroke="#63b8ff" points="148.5,-98.92 157.3,-93.02 146.74,-92.14 148.5,-98.92"/>
</a>
</g>
</g>
<!-- Node11 -->
<g id="Node000011" class="node">
<title>Node11</title>
<g id="a_Node000011"><a xlink:href="render__objects_8c.html#a852c220b9eb9af78cce8e5b866dba9b2" target="_top" xlink:title=" ">
<polygon fill="white" stroke="#666666" points="241,-56 149,-56 149,-37 241,-37 241,-56"/>
<text text-anchor="middle" x="195" y="-44" font-family="Helvetica,sans-Serif" font-size="10.00">func_8004B310</text>
</a>
</g>
</g>
<!-- Node1&#45;&gt;Node11 -->
<g id="edge11_Node000001_Node000011" class="edge">
<title>Node1&#45;&gt;Node11</title>
<g id="a_edge11_Node000001_Node000011"><a xlink:title=" ">
<path fill="none" stroke="#63b8ff" d="M58.6,-111.86C73.62,-99.28 101.66,-77.38 129,-64.5 133.04,-62.6 137.32,-60.86 141.68,-59.28"/>
<polygon fill="#63b8ff" stroke="#63b8ff" points="142.9,-62.57 151.29,-56.09 140.69,-55.92 142.9,-62.57"/>
</a>
</g>
</g>
<!-- Node12 -->
<g id="Node000012" class="node">
<title>Node12</title>
<g id="a_Node000012"><a xlink:href="render__objects_8c.html#a9ea20c14c263ed864d8e02d082b6b18b" target="_top" xlink:title=" ">
<polygon fill="white" stroke="#666666" points="241,-19 149,-19 149,0 241,0 241,-19"/>
<text text-anchor="middle" x="195" y="-7" font-family="Helvetica,sans-Serif" font-size="10.00">func_8004B414</text>
</a>
</g>
</g>
<!-- Node1&#45;&gt;Node12 -->
<g id="edge12_Node000001_Node000012" class="edge">
<title>Node1&#45;&gt;Node12</title>
<g id="a_edge12_Node000001_Node000012"><a xlink:title=" ">
<path fill="none" stroke="#63b8ff" d="M53.11,-111.86C64.74,-92.76 93.39,-49.99 129,-27.5 132.21,-25.47 135.65,-23.67 139.2,-22.07"/>
<polygon fill="#63b8ff" stroke="#63b8ff" points="140.8,-25.2 148.82,-18.28 138.24,-18.69 140.8,-25.2"/>
</a>
</g>
</g>
<!-- Node13 -->
<g id="Node000013" class="node">
<title>Node13</title>
<g id="a_Node000013"><a xlink:href="render__objects_8c.html#a4f12cf578f0abd9e0aaa3f9adc4fe324" target="_top" xlink:title=" ">
<polygon fill="white" stroke="#666666" points="240.5,-169 149.5,-169 149.5,-150 240.5,-150 240.5,-169"/>
<text text-anchor="middle" x="195" y="-157" font-family="Helvetica,sans-Serif" font-size="10.00">func_800562E4</text>
</a>
</g>
</g>
<!-- Node1&#45;&gt;Node13 -->
<g id="edge13_Node000001_Node000013" class="edge">
<title>Node1&#45;&gt;Node13</title>
<g id="a_edge13_Node000001_Node000013"><a xlink:title=" ">
<path fill="none" stroke="#63b8ff" d="M84.47,-131.09C103.63,-136.06 127.21,-142.18 147.59,-147.46"/>
<polygon fill="#63b8ff" stroke="#63b8ff" points="146.74,-150.86 157.3,-149.98 148.5,-144.08 146.74,-150.86"/>
</a>
</g>
</g>
<!-- Node16 -->
<g id="Node000016" class="node">
<title>Node16</title>
<g id="a_Node000016"><a xlink:href="math__util__2_8c.html#a2eff0e02deb703653ee3230fbc02eb14" target="_top" xlink:title="set the matrix to a transformation matrix">
<polygon fill="white" stroke="#666666" points="464,-95 297,-95 297,-76 464,-76 464,-95"/>
<text text-anchor="middle" x="380.5" y="-83" font-family="Helvetica,sans-Serif" font-size="10.00">rsp_set_matrix_transformation</text>
</a>
</g>
</g>
<!-- Node1&#45;&gt;Node16 -->
<g id="edge30_Node000001_Node000016" class="edge">
<title>Node1&#45;&gt;Node16</title>
<g id="a_edge30_Node000001_Node000016"><a xlink:title=" ">
<path fill="none" stroke="#63b8ff" d="M93.37,-117.75C136.64,-114.08 203.3,-108.1 261,-101.5 274.44,-99.96 288.72,-98.17 302.54,-96.36"/>
<polygon fill="#63b8ff" stroke="#63b8ff" points="303.05,-99.82 312.5,-95.03 302.13,-92.88 303.05,-99.82"/>
</a>
</g>
</g>
<!-- Node2&#45;&gt;Node3 -->
<g id="edge2_Node000002_Node000003" class="edge">
<title>Node2&#45;&gt;Node3</title>
<g id="a_edge2_Node000002_Node000003"><a xlink:title=" ">
<path fill="none" stroke="#63b8ff" d="M232.03,-229.51C251.11,-237.09 275.08,-246.02 297,-252.5 306.29,-255.24 316.27,-257.77 325.98,-260.01"/>
<polygon fill="#63b8ff" stroke="#63b8ff" points="325.43,-263.47 335.95,-262.23 326.96,-256.64 325.43,-263.47"/>
</a>
</g>
</g>
<!-- Node6 -->
<g id="Node000006" class="node">
<title>Node6</title>
<g id="a_Node000006"><a xlink:href="GBIMiddleware_8cpp.html#aeef79449a27a710d73576e4a4f7f7f99" target="_top" xlink:title=" ">
<polygon fill="white" stroke="#666666" points="413.5,-206 347.5,-206 347.5,-187 413.5,-187 413.5,-206"/>
<text text-anchor="middle" x="380.5" y="-194" font-family="Helvetica,sans-Serif" font-size="10.00">gSPVertex</text>
</a>
</g>
</g>
<!-- Node2&#45;&gt;Node6 -->
<g id="edge5_Node000002_Node000006" class="edge">
<title>Node2&#45;&gt;Node6</title>
<g id="a_edge5_Node000002_Node000006"><a xlink:title=" ">
<path fill="none" stroke="#63b8ff" d="M261.21,-208.1C286.47,-205.63 314.66,-202.86 337.18,-200.65"/>
<polygon fill="#63b8ff" stroke="#63b8ff" points="337.81,-204.11 347.43,-199.65 337.13,-197.14 337.81,-204.11"/>
</a>
</g>
</g>
<!-- Node7 -->
<g id="Node000007" class="node">
<title>Node7</title>
<g id="a_Node000007"><a xlink:href="render__objects_8c.html#a8a3e9d3da5a6ac97b84b553fdc5d7d59" target="_top" xlink:title=" ">
<polygon fill="white" stroke="#666666" points="429.5,-243 331.5,-243 331.5,-224 429.5,-224 429.5,-243"/>
<text text-anchor="middle" x="380.5" y="-231" font-family="Helvetica,sans-Serif" font-size="10.00">rsp_load_texture</text>
</a>
</g>
</g>
<!-- Node2&#45;&gt;Node7 -->
<g id="edge7_Node000002_Node000007" class="edge">
<title>Node2&#45;&gt;Node7</title>
<g id="a_edge7_Node000002_Node000007"><a xlink:title=" ">
<path fill="none" stroke="#63b8ff" d="M261.21,-221.25C280.77,-223.28 302.09,-225.49 321.18,-227.46"/>
<polygon fill="#63b8ff" stroke="#63b8ff" points="320.92,-230.95 331.23,-228.5 321.64,-223.99 320.92,-230.95"/>
</a>
</g>
</g>
<!-- Node4 -->
<g id="Node000004" class="node">
<title>Node4</title>
<g id="a_Node000004"><a xlink:href="Engine_8cpp.html#a223c8bc63f228dc11177515e38eff2db" target="_top" xlink:title=" ">
<polygon fill="white" stroke="#666666" points="662.5,-234 513.5,-234 513.5,-215 662.5,-215 662.5,-234"/>
<text text-anchor="middle" x="588" y="-222" font-family="Helvetica,sans-Serif" font-size="10.00">GameEngine_OTRSigCheck</text>
</a>
</g>
</g>
<!-- Node3&#45;&gt;Node4 -->
<g id="edge3_Node000003_Node000004" class="edge">
<title>Node3&#45;&gt;Node4</title>
<g id="a_edge3_Node000003_Node000004"><a xlink:title=" ">
<path fill="none" stroke="#63b8ff" d="M425.19,-261.04C437.72,-258.31 451.41,-255.31 464,-252.5 487.54,-247.25 513.59,-241.34 535.64,-236.3"/>
<polygon fill="#63b8ff" stroke="#63b8ff" points="536.49,-239.7 545.46,-234.05 534.93,-232.87 536.49,-239.7"/>
</a>
</g>
</g>
<!-- Node5 -->
<g id="Node000005" class="node">
<title>Node5</title>
<g id="a_Node000005"><a xlink:href="string_8c.html#a008e171a518fe0e0352f31b245e03875" target="_top" xlink:title=" ">
<polygon fill="white" stroke="#666666" points="767.5,-234 723.5,-234 723.5,-215 767.5,-215 767.5,-234"/>
<text text-anchor="middle" x="745.5" y="-222" font-family="Helvetica,sans-Serif" font-size="10.00">strlen</text>
</a>
</g>
</g>
<!-- Node4&#45;&gt;Node5 -->
<g id="edge4_Node000004_Node000005" class="edge">
<title>Node4&#45;&gt;Node5</title>
<g id="a_edge4_Node000004_Node000005"><a xlink:title=" ">
<path fill="none" stroke="#63b8ff" d="M662.65,-224.5C680.29,-224.5 698.21,-224.5 712.77,-224.5"/>
<polygon fill="#63b8ff" stroke="#63b8ff" points="713.19,-228 723.19,-224.5 713.19,-221 713.19,-228"/>
</a>
</g>
</g>
<!-- Node6&#45;&gt;Node4 -->
<g id="edge6_Node000006_Node000004" class="edge">
<title>Node6&#45;&gt;Node4</title>
<g id="a_edge6_Node000006_Node000004"><a xlink:title=" ">
<path fill="none" stroke="#63b8ff" d="M413.61,-200.88C438.57,-204.28 474.31,-209.15 506.87,-213.58"/>
<polygon fill="#63b8ff" stroke="#63b8ff" points="506.47,-217.06 516.85,-214.94 507.42,-210.12 506.47,-217.06"/>
</a>
</g>
</g>
<!-- Node9 -->
<g id="Node000009" class="node">
<title>Node9</title>
<g id="a_Node000009"><a xlink:href="math__util_8c.html#aaa39a297477f56051975259f4bddd829" target="_top" xlink:title=" ">
<polygon fill="white" stroke="#666666" points="405.5,-58 355.5,-58 355.5,-39 405.5,-39 405.5,-58"/>
<text text-anchor="middle" x="380.5" y="-46" font-family="Helvetica,sans-Serif" font-size="10.00">atan2s</text>
</a>
</g>
</g>
<!-- Node8&#45;&gt;Node9 -->
<g id="edge9_Node000008_Node000009" class="edge">
<title>Node8&#45;&gt;Node9</title>
<g id="a_edge9_Node000008_Node000009"><a xlink:title=" ">
<path fill="none" stroke="#63b8ff" d="M241.36,-74.85C273.5,-68.72 315.94,-60.62 345.26,-55.03"/>
<polygon fill="#63b8ff" stroke="#63b8ff" points="346.26,-58.4 355.42,-53.09 344.94,-51.53 346.26,-58.4"/>
</a>
</g>
</g>
<!-- Node10 -->
<g id="Node000010" class="node">
<title>Node10</title>
<g id="a_Node000010"><a xlink:href="math__util_8c.html#a0273b0ea0783a06996c28669a7438ed9" target="_top" xlink:title=" ">
<polygon fill="white" stroke="#666666" points="629,-58 547,-58 547,-39 629,-39 629,-58"/>
<text text-anchor="middle" x="588" y="-46" font-family="Helvetica,sans-Serif" font-size="10.00">atan2_lookup</text>
</a>
</g>
</g>
<!-- Node9&#45;&gt;Node10 -->
<g id="edge10_Node000009_Node000010" class="edge">
<title>Node9&#45;&gt;Node10</title>
<g id="a_edge10_Node000009_Node000010"><a xlink:title=" ">
<path fill="none" stroke="#63b8ff" d="M405.88,-48.5C437.93,-48.5 495.03,-48.5 536.56,-48.5"/>
<polygon fill="#63b8ff" stroke="#63b8ff" points="536.77,-52 546.77,-48.5 536.77,-45 536.77,-52"/>
</a>
</g>
</g>
<!-- Node13&#45;&gt;Node3 -->
<g id="edge16_Node000013_Node000003" class="edge">
<title>Node13&#45;&gt;Node3</title>
<g id="a_edge16_Node000013_Node000003"><a xlink:title=" ">
<path fill="none" stroke="#63b8ff" d="M225.12,-169.02C237.22,-174.02 250.8,-181.09 261,-190.5 284.43,-212.1 271.25,-233.73 297,-252.5 305.44,-258.65 315.57,-262.77 325.8,-265.52"/>
<polygon fill="#63b8ff" stroke="#63b8ff" points="325.05,-268.94 335.58,-267.75 326.61,-262.11 325.05,-268.94"/>
</a>
</g>
</g>
<!-- Node13&#45;&gt;Node6 -->
<g id="edge17_Node000013_Node000006" class="edge">
<title>Node13&#45;&gt;Node6</title>
<g id="a_edge17_Node000013_Node000006"><a xlink:title=" ">
<path fill="none" stroke="#63b8ff" d="M240.89,-168.55C270.28,-174.48 308.44,-182.17 337.27,-187.99"/>
<polygon fill="#63b8ff" stroke="#63b8ff" points="336.95,-191.49 347.44,-190.04 338.33,-184.63 336.95,-191.49"/>
</a>
</g>
</g>
<!-- Node14 -->
<g id="Node000014" class="node">
<title>Node14</title>
<g id="a_Node000014"><a xlink:href="render__objects_8c.html#a01f1c93f475b407a8e57888c6a6dd45b" target="_top" xlink:title=" ">
<polygon fill="white" stroke="#666666" points="426.5,-132 334.5,-132 334.5,-113 426.5,-113 426.5,-132"/>
<text text-anchor="middle" x="380.5" y="-120" font-family="Helvetica,sans-Serif" font-size="10.00">func_80044BF8</text>
</a>
</g>
</g>
<!-- Node13&#45;&gt;Node14 -->
<g id="edge14_Node000013_Node000014" class="edge">
<title>Node13&#45;&gt;Node14</title>
<g id="a_edge14_Node000013_Node000014"><a xlink:title=" ">
<path fill="none" stroke="#63b8ff" d="M240.89,-150.45C266.1,-145.36 297.77,-138.98 324.47,-133.6"/>
<polygon fill="#63b8ff" stroke="#63b8ff" points="325.33,-136.99 334.44,-131.59 323.94,-130.13 325.33,-136.99"/>
</a>
</g>
</g>
<!-- Node15 -->
<g id="Node000015" class="node">
<title>Node15</title>
<g id="a_Node000015"><a xlink:href="render__objects_8c.html#a816f6d2e246056f98e788f34a8bd091a" target="_top" xlink:title=" ">
<polygon fill="white" stroke="#666666" points="426.5,-169 334.5,-169 334.5,-150 426.5,-150 426.5,-169"/>
<text text-anchor="middle" x="380.5" y="-157" font-family="Helvetica,sans-Serif" font-size="10.00">func_8004B138</text>
</a>
</g>
</g>
<!-- Node13&#45;&gt;Node15 -->
<g id="edge15_Node000013_Node000015" class="edge">
<title>Node13&#45;&gt;Node15</title>
<g id="a_edge15_Node000013_Node000015"><a xlink:title=" ">
<path fill="none" stroke="#63b8ff" d="M240.89,-159.5C265.99,-159.5 297.49,-159.5 324.12,-159.5"/>
<polygon fill="#63b8ff" stroke="#63b8ff" points="324.44,-163 334.44,-159.5 324.44,-156 324.44,-163"/>
</a>
</g>
</g>
<!-- Node13&#45;&gt;Node16 -->
<g id="edge18_Node000013_Node000016" class="edge">
<title>Node13&#45;&gt;Node16</title>
<g id="a_edge18_Node000013_Node000016"><a xlink:title=" ">
<path fill="none" stroke="#63b8ff" d="M229.16,-149.94C239.72,-146.2 251.2,-141.38 261,-135.5 279.36,-124.49 277.92,-113.21 297,-103.5 300.75,-101.59 304.69,-99.89 308.74,-98.36"/>
<polygon fill="#63b8ff" stroke="#63b8ff" points="309.98,-101.64 318.34,-95.12 307.74,-95 309.98,-101.64"/>
</a>
</g>
</g>
<!-- Node17 -->
<g id="Node000017" class="node">
<title>Node17</title>
<g id="a_Node000017"><a xlink:href="Matrix_8cpp.html#a329d78c031733cf22ff7518f5d38fd74" target="_top" xlink:title=" ">
<polygon fill="white" stroke="#666666" points="631,-142 545,-142 545,-123 631,-123 631,-142"/>
<text text-anchor="middle" x="588" y="-130" font-family="Helvetica,sans-Serif" font-size="10.00">AddHudMatrix</text>
</a>
</g>
</g>
<!-- Node16&#45;&gt;Node17 -->
<g id="edge19_Node000016_Node000017" class="edge">
<title>Node16&#45;&gt;Node17</title>
<g id="a_edge19_Node000016_Node000017"><a xlink:title=" ">
<path fill="none" stroke="#63b8ff" d="M426.06,-95.08C438.36,-97.76 451.71,-100.71 464,-103.5 488.21,-109 515.06,-115.3 537.47,-120.62"/>
<polygon fill="#63b8ff" stroke="#63b8ff" points="536.89,-124.08 547.43,-122.99 538.51,-117.27 536.89,-124.08"/>
</a>
</g>
</g>
<!-- Node22 -->
<g id="Node000022" class="node">
<title>Node22</title>
<g id="a_Node000022"><a xlink:href="math__util__2_8c.html#ae71383a9d7f97bcb240b23f68068ab30" target="_top" xlink:title=" ">
<polygon fill="white" stroke="#666666" points="676,-95 500,-95 500,-76 676,-76 676,-95"/>
<text text-anchor="middle" x="588" y="-83" font-family="Helvetica,sans-Serif" font-size="10.00">mtxf_set_matrix_transformation</text>
</a>
</g>
</g>
<!-- Node16&#45;&gt;Node22 -->
<g id="edge24_Node000016_Node000022" class="edge">
<title>Node16&#45;&gt;Node22</title>
<g id="a_edge24_Node000016_Node000022"><a xlink:title=" ">
<path fill="none" stroke="#63b8ff" d="M464.2,-85.5C472.61,-85.5 481.22,-85.5 489.77,-85.5"/>
<polygon fill="#63b8ff" stroke="#63b8ff" points="489.77,-89 499.77,-85.5 489.77,-82 489.77,-89"/>
</a>
</g>
</g>
<!-- Node18 -->
<g id="Node000018" class="node">
<title>Node18</title>
<g id="a_Node000018"><a xlink:href="Matrix_8cpp.html#aaa0983157188edefc6259671ccda6746" target="_top" xlink:title=" ">
<polygon fill="white" stroke="#666666" points="779,-160 712,-160 712,-141 779,-141 779,-160"/>
<text text-anchor="middle" x="745.5" y="-148" font-family="Helvetica,sans-Serif" font-size="10.00">AddMatrix</text>
</a>
</g>
</g>
<!-- Node17&#45;&gt;Node18 -->
<g id="edge20_Node000017_Node000018" class="edge">
<title>Node17&#45;&gt;Node18</title>
<g id="a_edge20_Node000017_Node000018"><a xlink:title=" ">
<path fill="none" stroke="#63b8ff" d="M631.08,-137.37C652.98,-139.91 679.69,-143 701.69,-145.55"/>
<polygon fill="#63b8ff" stroke="#63b8ff" points="701.42,-149.04 711.76,-146.71 702.22,-142.08 701.42,-149.04"/>
</a>
</g>
</g>
<!-- Node19 -->
<g id="Node000019" class="node">
<title>Node19</title>
<g id="a_Node000019"><a xlink:href="FrameInterpolation_8cpp.html#a8cf1f2d6fabc6925aa71a9515341b4aa" target="_top" xlink:title=" ">
<polygon fill="white" stroke="#666666" points="973,-165.5 833,-165.5 833,-135.5 973,-135.5 973,-165.5"/>
<text text-anchor="start" x="841" y="-153.5" font-family="Helvetica,sans-Serif" font-size="10.00">FrameInterpolation</text>
<text text-anchor="middle" x="903" y="-142.5" font-family="Helvetica,sans-Serif" font-size="10.00">_RecordMatrixMtxFToMtx</text>
</a>
</g>
</g>
<!-- Node18&#45;&gt;Node19 -->
<g id="edge21_Node000018_Node000019" class="edge">
<title>Node18&#45;&gt;Node19</title>
<g id="a_edge21_Node000018_Node000019"><a xlink:title=" ">
<path fill="none" stroke="#63b8ff" d="M779.1,-150.5C791.96,-150.5 807.33,-150.5 822.79,-150.5"/>
<polygon fill="#63b8ff" stroke="#63b8ff" points="822.93,-154 832.93,-150.5 822.93,-147 822.93,-154"/>
</a>
</g>
</g>
<!-- Node21 -->
<g id="Node000021" class="node">
<title>Node21</title>
<g id="a_Node000021"><a xlink:href="guMtxF2L_8c.html#a40ab2d64c609839ff1e0ef0de2d0dcc4" target="_top" xlink:title=" ">
<polygon fill="white" stroke="#666666" points="935.5,-117 870.5,-117 870.5,-98 935.5,-98 935.5,-117"/>
<text text-anchor="middle" x="903" y="-105" font-family="Helvetica,sans-Serif" font-size="10.00">guMtxF2L</text>
</a>
</g>
</g>
<!-- Node18&#45;&gt;Node21 -->
<g id="edge23_Node000018_Node000021" class="edge">
<title>Node18&#45;&gt;Node21</title>
<g id="a_edge23_Node000018_Node000021"><a xlink:title=" ">
<path fill="none" stroke="#63b8ff" d="M771.32,-140.98C784.22,-136.24 800.33,-130.66 815,-126.5 829.6,-122.36 845.8,-118.61 860.22,-115.54"/>
<polygon fill="#63b8ff" stroke="#63b8ff" points="861.28,-118.9 870.36,-113.44 859.86,-112.05 861.28,-118.9"/>
</a>
</g>
</g>
<!-- Node20 -->
<g id="Node000020" class="node">
<title>Node20</title>
<g id="a_Node000020"><a xlink:href="FrameInterpolation_8cpp.html#a02c7ac5342a4d376edee38f312b480bf" target="_top" xlink:title=" ">
<polygon fill="white" stroke="#666666" points="1135,-104 1027,-104 1027,-85 1135,-85 1135,-104"/>
<text text-anchor="middle" x="1081" y="-92" font-family="Helvetica,sans-Serif" font-size="10.00">check_if_recording</text>
</a>
</g>
</g>
<!-- Node19&#45;&gt;Node20 -->
<g id="edge22_Node000019_Node000020" class="edge">
<title>Node19&#45;&gt;Node20</title>
<g id="a_edge22_Node000019_Node000020"><a xlink:title=" ">
<path fill="none" stroke="#63b8ff" d="M957.97,-135.49C968.94,-132.3 980.37,-128.88 991,-125.5 1008.56,-119.92 1027.9,-113.25 1044.05,-107.53"/>
<polygon fill="#63b8ff" stroke="#63b8ff" points="1045.4,-110.76 1053.65,-104.11 1043.05,-104.17 1045.4,-110.76"/>
</a>
</g>
</g>
<!-- Node23 -->
<g id="Node000023" class="node">
<title>Node23</title>
<g id="a_Node000023"><a xlink:href="math__util_8c.html#ae69cbf5c8d4b3b0dba2d7b4d4673689f" target="_top" xlink:title=" ">
<polygon fill="white" stroke="#666666" points="764.5,-86 726.5,-86 726.5,-67 764.5,-67 764.5,-86"/>
<text text-anchor="middle" x="745.5" y="-74" font-family="Helvetica,sans-Serif" font-size="10.00">coss</text>
</a>
</g>
</g>
<!-- Node22&#45;&gt;Node23 -->
<g id="edge25_Node000022_Node000023" class="edge">
<title>Node22&#45;&gt;Node23</title>
<g id="a_edge25_Node000022_Node000023"><a xlink:title=" ">
<path fill="none" stroke="#63b8ff" d="M676.3,-80.45C690.67,-79.62 704.6,-78.81 716.09,-78.14"/>
<polygon fill="#63b8ff" stroke="#63b8ff" points="716.5,-81.63 726.29,-77.55 716.1,-74.64 716.5,-81.63"/>
</a>
</g>
</g>
<!-- Node24 -->
<g id="Node000024" class="node">
<title>Node24</title>
<g id="a_Node000024"><a xlink:href="FrameInterpolation_8cpp.html#af749df1a96bee5c78287b1845455ae2d" target="_top" xlink:title=" ">
<polygon fill="white" stroke="#666666" points="991,-66.5 815,-66.5 815,-36.5 991,-36.5 991,-66.5"/>
<text text-anchor="start" x="823" y="-54.5" font-family="Helvetica,sans-Serif" font-size="10.00">FrameInterpolation</text>
<text text-anchor="middle" x="903" y="-43.5" font-family="Helvetica,sans-Serif" font-size="10.00">_RecordSetMatrixTransformation</text>
</a>
</g>
</g>
<!-- Node22&#45;&gt;Node24 -->
<g id="edge26_Node000022_Node000024" class="edge">
<title>Node22&#45;&gt;Node24</title>
<g id="a_edge26_Node000022_Node000024"><a xlink:title=" ">
<path fill="none" stroke="#63b8ff" d="M633.76,-75.99C647.35,-73.04 662.3,-69.71 676,-66.5 692.06,-62.74 695.66,-59.77 712,-57.5 741.82,-53.35 774.53,-51.4 804.26,-50.6"/>
<polygon fill="#63b8ff" stroke="#63b8ff" points="804.73,-54.09 814.65,-50.36 804.57,-47.09 804.73,-54.09"/>
</a>
</g>
</g>
<!-- Node25 -->
<g id="Node000025" class="node">
<title>Node25</title>
<g id="a_Node000025"><a xlink:href="math__util_8c.html#a19ed3bd78fd2d3e2bd0a29f6caf48545" target="_top" xlink:title=" ">
<polygon fill="white" stroke="#666666" points="763.5,-123 727.5,-123 727.5,-104 763.5,-104 763.5,-123"/>
<text text-anchor="middle" x="745.5" y="-111" font-family="Helvetica,sans-Serif" font-size="10.00">sins</text>
</a>
</g>
</g>
<!-- Node22&#45;&gt;Node25 -->
<g id="edge28_Node000022_Node000025" class="edge">
<title>Node22&#45;&gt;Node25</title>
<g id="a_edge28_Node000022_Node000025"><a xlink:title=" ">
<path fill="none" stroke="#63b8ff" d="M642.08,-95.06C667.4,-99.62 696.62,-104.88 717.35,-108.61"/>
<polygon fill="#63b8ff" stroke="#63b8ff" points="716.89,-112.09 727.36,-110.41 718.14,-105.2 716.89,-112.09"/>
</a>
</g>
</g>
<!-- Node24&#45;&gt;Node20 -->
<g id="edge27_Node000024_Node000020" class="edge">
<title>Node24&#45;&gt;Node20</title>
<g id="a_edge27_Node000024_Node000020"><a xlink:title=" ">
<path fill="none" stroke="#63b8ff" d="M965.56,-66.54C987.01,-71.78 1010.78,-77.59 1031.07,-82.54"/>
<polygon fill="#63b8ff" stroke="#63b8ff" points="1030.48,-86 1041.03,-84.98 1032.14,-79.2 1030.48,-86"/>
</a>
</g>
</g>
</g>
</svg>

<g id="navigator" transform="translate(0 0)" fill="#404254">
  <rect fill="#f2f5e9" fill-opacity="0.5" stroke="#606060" stroke-width=".5" x="0" y="0" width="60" height="60"/>
  <use id="zoomplus" xlink:href="#zoomPlus" x="17" y="9" onmousedown="handleZoom(evt,'in')"/>
  <use id="zoomminus" xlink:href="#zoomMin" x="42" y="9" onmousedown="handleZoom(evt,'out')"/>
  <use id="reset" xlink:href="#resetDef" x="30" y="36" onmousedown="handleReset()"/>
   <use id="arrowup" xlink:href="#arrowUp" x="0" y="0" onmousedown="handlePan(0,-1)"/>
  <use id="arrowright" xlink:href="#arrowRight" x="0" y="0" onmousedown="handlePan(1,0)"/>
  <use id="arrowdown" xlink:href="#arrowDown" x="0" y="0" onmousedown="handlePan(0,1)"/>
  <use id="arrowleft" xlink:href="#arrowLeft" x="0" y="0" onmousedown="handlePan(-1,0)"/>
</g>
<svg viewBox="0 0 15 15" width="100%" height="30px" preserveAspectRatio="xMaxYMin meet">
 <g id="arrow_out" transform="scale(0.3 0.3)">
  <a xlink:href="render__objects_8c_a8e71bb2a914da25c9767d72707665f58_cgraph_org.svg" target="_base">
   <rect id="button" ry="5" rx="5" y="6" x="6" height="38" width="38"
        fill="#f2f5e9" fill-opacity="0.5" stroke="#606060" stroke-width="1.0"/>
   <path id="arrow"
     d="M 11.500037,31.436501 C 11.940474,20.09759 22.043105,11.32322 32.158766,21.979434 L 37.068811,17.246167 C 37.068811,17.246167 37.088388,32 37.088388,32 L 22.160133,31.978069 C 22.160133,31.978069 26.997745,27.140456 26.997745,27.140456 C 18.528582,18.264221 13.291696,25.230495 11.500037,31.436501 z"
     style="fill:#404040;"/>
  </a>
 </g>
</svg>

<style type='text/css'>
<![CDATA[
[data-mouse-over-selected='false'] { opacity: 0.7; }
[data-mouse-over-selected='true']  { opacity: 1.0; }
]]>
</style>
<script type="application/ecmascript"><![CDATA[
document.addEventListener('DOMContentLoaded', (event) => {
  highlightEdges();
  highlightAdjacentNodes();
});
]]></script>
</svg>
