<?xml version="1.0" encoding="UTF-8" standalone="no"?>
<!DOCTYPE svg PUBLIC "-//W3C//DTD SVG 1.1//EN"
 "http://www.w3.org/Graphics/SVG/1.1/DTD/svg11.dtd">
<!-- Generated by graphviz version 2.43.0 (0)
 -->
<!-- Title: func_8002276C Pages: 1 -->
<svg width="839pt" height="235pt"
 viewBox="0.00 0.00 839.00 235.00" xmlns="http://www.w3.org/2000/svg" xmlns:xlink="http://www.w3.org/1999/xlink">
<g id="graph0" class="graph" transform="scale(1 1) rotate(0) translate(4 231)">
<title>func_8002276C</title>
<!-- Node1 -->
<g id="Node000001" class="node">
<title>Node1</title>
<g id="a_Node000001"><a xlink:title=" ">
<polygon fill="#999999" stroke="#666666" points="92,-126 0,-126 0,-107 92,-107 92,-126"/>
<text text-anchor="middle" x="46" y="-114" font-family="Helvetica,sans-Serif" font-size="10.00">func_8002276C</text>
</a>
</g>
</g>
<!-- Node2 -->
<g id="Node000002" class="node">
<title>Node2</title>
<g id="a_Node000002"><a xlink:href="render__player_8c.html#a383e46f328ac76bdef92f8fc53bbc2a4" target="_top" xlink:title=" ">
<polygon fill="white" stroke="#666666" points="220,-126 128,-126 128,-107 220,-107 220,-126"/>
<text text-anchor="middle" x="174" y="-114" font-family="Helvetica,sans-Serif" font-size="10.00">func_80022A98</text>
</a>
</g>
</g>
<!-- Node1&#45;&gt;Node2 -->
<g id="edge1_Node000001_Node000002" class="edge">
<title>Node1&#45;&gt;Node2</title>
<g id="a_edge1_Node000001_Node000002"><a xlink:title=" ">
<path fill="none" stroke="#63b8ff" d="M92.13,-116.5C100.37,-116.5 109.04,-116.5 117.53,-116.5"/>
<polygon fill="#63b8ff" stroke="#63b8ff" points="117.76,-120 127.76,-116.5 117.76,-113 117.76,-120"/>
</a>
</g>
</g>
<!-- Node3 -->
<g id="Node000003" class="node">
<title>Node3</title>
<g id="a_Node000003"><a xlink:href="render__player_8c.html#a4935dd7b67979e4b0a280abe9136df36" target="_top" xlink:title=" ">
<polygon fill="white" stroke="#666666" points="348.5,-219 256.5,-219 256.5,-200 348.5,-200 348.5,-219"/>
<text text-anchor="middle" x="302.5" y="-207" font-family="Helvetica,sans-Serif" font-size="10.00">func_80022B50</text>
</a>
</g>
</g>
<!-- Node2&#45;&gt;Node3 -->
<g id="edge2_Node000002_Node000003" class="edge">
<title>Node2&#45;&gt;Node3</title>
<g id="a_edge2_Node000002_Node000003"><a xlink:title=" ">
<path fill="none" stroke="#63b8ff" d="M183.54,-126.5C197.37,-142.19 226.16,-172.71 256,-191.5 258.28,-192.94 260.69,-194.29 263.17,-195.57"/>
<polygon fill="#63b8ff" stroke="#63b8ff" points="261.77,-198.77 272.32,-199.82 264.72,-192.43 261.77,-198.77"/>
</a>
</g>
</g>
<!-- Node4 -->
<g id="Node000004" class="node">
<title>Node4</title>
<g id="a_Node000004"><a xlink:href="render__player_8c.html#a4dc60aca1859f9c7c781651f7d8cb91e" target="_top" xlink:title=" ">
<polygon fill="white" stroke="#666666" points="348.5,-182 256.5,-182 256.5,-163 348.5,-163 348.5,-182"/>
<text text-anchor="middle" x="302.5" y="-170" font-family="Helvetica,sans-Serif" font-size="10.00">func_80022BC4</text>
</a>
</g>
</g>
<!-- Node2&#45;&gt;Node4 -->
<g id="edge3_Node000002_Node000004" class="edge">
<title>Node2&#45;&gt;Node4</title>
<g id="a_edge3_Node000002_Node000004"><a xlink:title=" ">
<path fill="none" stroke="#63b8ff" d="M195.56,-126.12C211.88,-133.7 235.32,-144.46 256,-153.5 260.17,-155.32 264.57,-157.21 268.93,-159.05"/>
<polygon fill="#63b8ff" stroke="#63b8ff" points="267.71,-162.34 278.29,-162.98 270.42,-155.88 267.71,-162.34"/>
</a>
</g>
</g>
<!-- Node5 -->
<g id="Node000005" class="node">
<title>Node5</title>
<g id="a_Node000005"><a xlink:href="render__player_8c.html#a50d897a4647e4dfbc2b09f6b94abec9d" target="_top" xlink:title=" ">
<polygon fill="white" stroke="#666666" points="349,-145 256,-145 256,-126 349,-126 349,-145"/>
<text text-anchor="middle" x="302.5" y="-133" font-family="Helvetica,sans-Serif" font-size="10.00">func_80022DB4</text>
</a>
</g>
</g>
<!-- Node2&#45;&gt;Node5 -->
<g id="edge4_Node000002_Node000005" class="edge">
<title>Node2&#45;&gt;Node5</title>
<g id="a_edge4_Node000002_Node000005"><a xlink:title=" ">
<path fill="none" stroke="#63b8ff" d="M220.31,-123.31C228.48,-124.53 237.08,-125.82 245.5,-127.09"/>
<polygon fill="#63b8ff" stroke="#63b8ff" points="245.24,-130.59 255.65,-128.61 246.28,-123.67 245.24,-130.59"/>
</a>
</g>
</g>
<!-- Node6 -->
<g id="Node000006" class="node">
<title>Node6</title>
<g id="a_Node000006"><a xlink:href="render__player_8c.html#a01244fa698b12f9340faab8ca631981a" target="_top" xlink:title=" ">
<polygon fill="white" stroke="#666666" points="348.5,-108 256.5,-108 256.5,-89 348.5,-89 348.5,-108"/>
<text text-anchor="middle" x="302.5" y="-96" font-family="Helvetica,sans-Serif" font-size="10.00">func_800235AC</text>
</a>
</g>
</g>
<!-- Node2&#45;&gt;Node6 -->
<g id="edge5_Node000002_Node000006" class="edge">
<title>Node2&#45;&gt;Node6</title>
<g id="a_edge5_Node000002_Node000006"><a xlink:title=" ">
<path fill="none" stroke="#63b8ff" d="M220.31,-110.05C228.67,-108.86 237.48,-107.61 246.1,-106.38"/>
<polygon fill="#63b8ff" stroke="#63b8ff" points="246.67,-109.84 256.08,-104.96 245.69,-102.91 246.67,-109.84"/>
</a>
</g>
</g>
<!-- Node15 -->
<g id="Node000015" class="node">
<title>Node15</title>
<g id="a_Node000015"><a xlink:href="render__player_8c.html#a88fc13b6a23390191ad9cce256378237" target="_top" xlink:title=" ">
<polygon fill="white" stroke="#666666" points="348.5,-71 256.5,-71 256.5,-52 348.5,-52 348.5,-71"/>
<text text-anchor="middle" x="302.5" y="-59" font-family="Helvetica,sans-Serif" font-size="10.00">func_80026A48</text>
</a>
</g>
</g>
<!-- Node2&#45;&gt;Node15 -->
<g id="edge18_Node000002_Node000015" class="edge">
<title>Node2&#45;&gt;Node15</title>
<g id="a_edge18_Node000002_Node000015"><a xlink:title=" ">
<path fill="none" stroke="#63b8ff" d="M195.18,-106.93C211.49,-99.28 235.09,-88.4 256,-79.5 259.49,-78.01 263.14,-76.5 266.8,-75.01"/>
<polygon fill="#63b8ff" stroke="#63b8ff" points="268.39,-78.14 276.37,-71.17 265.79,-71.65 268.39,-78.14"/>
</a>
</g>
</g>
<!-- Node16 -->
<g id="Node000016" class="node">
<title>Node16</title>
<g id="a_Node000016"><a xlink:href="player__controller_8c.html#ab3708de06c0d34cee386a993c00ff1e1" target="_top" xlink:title=" ">
<polygon fill="white" stroke="#666666" points="348.5,-28 256.5,-28 256.5,-9 348.5,-9 348.5,-28"/>
<text text-anchor="middle" x="302.5" y="-16" font-family="Helvetica,sans-Serif" font-size="10.00">func_80030A34</text>
</a>
</g>
</g>
<!-- Node2&#45;&gt;Node16 -->
<g id="edge19_Node000002_Node000016" class="edge">
<title>Node2&#45;&gt;Node16</title>
<g id="a_edge19_Node000002_Node000016"><a xlink:title=" ">
<path fill="none" stroke="#63b8ff" d="M184.05,-106.77C198.35,-91.75 227.49,-62.55 256,-42.5 260.75,-39.16 266.02,-35.97 271.24,-33.07"/>
<polygon fill="#63b8ff" stroke="#63b8ff" points="273.26,-35.96 280.46,-28.19 269.99,-29.77 273.26,-35.96"/>
</a>
</g>
</g>
<!-- Node7 -->
<g id="Node000007" class="node">
<title>Node7</title>
<g id="a_Node000007"><a xlink:href="render__player_8c.html#a009cdad636fecfb5282fedd1bd0e309a" target="_top" xlink:title=" ">
<polygon fill="white" stroke="#666666" points="682,-104.5 565,-104.5 565,-74.5 682,-74.5 682,-104.5"/>
<text text-anchor="start" x="573" y="-92.5" font-family="Helvetica,sans-Serif" font-size="10.00">change_player_color</text>
<text text-anchor="middle" x="623.5" y="-81.5" font-family="Helvetica,sans-Serif" font-size="10.00">_effect_cmy</text>
</a>
</g>
</g>
<!-- Node6&#45;&gt;Node7 -->
<g id="edge6_Node000006_Node000007" class="edge">
<title>Node6&#45;&gt;Node7</title>
<g id="a_edge6_Node000006_Node000007"><a xlink:title=" ">
<path fill="none" stroke="#63b8ff" d="M348.53,-97.23C402.21,-95.71 492.47,-93.17 554.63,-91.41"/>
<polygon fill="#63b8ff" stroke="#63b8ff" points="554.84,-94.91 564.74,-91.13 554.65,-87.91 554.84,-94.91"/>
</a>
</g>
</g>
<!-- Node9 -->
<g id="Node000009" class="node">
<title>Node9</title>
<g id="a_Node000009"><a xlink:href="render__player_8c.html#a07dbadab7ba48d1fcb9ec5987f329ad0" target="_top" xlink:title=" ">
<polygon fill="white" stroke="#666666" points="682,-152.5 565,-152.5 565,-122.5 682,-122.5 682,-152.5"/>
<text text-anchor="start" x="573" y="-140.5" font-family="Helvetica,sans-Serif" font-size="10.00">change_player_color</text>
<text text-anchor="middle" x="623.5" y="-129.5" font-family="Helvetica,sans-Serif" font-size="10.00">_effect_rgb</text>
</a>
</g>
</g>
<!-- Node6&#45;&gt;Node9 -->
<g id="edge8_Node000006_Node000009" class="edge">
<title>Node6&#45;&gt;Node9</title>
<g id="a_edge8_Node000006_Node000009"><a xlink:title=" ">
<path fill="none" stroke="#63b8ff" d="M348.76,-104.06C360.56,-105.51 373.26,-107.06 385,-108.5 442.23,-115.51 507.23,-123.44 554.74,-129.24"/>
<polygon fill="#63b8ff" stroke="#63b8ff" points="554.56,-132.74 564.91,-130.48 555.41,-125.79 554.56,-132.74"/>
</a>
</g>
</g>
<!-- Node10 -->
<g id="Node000010" class="node">
<title>Node10</title>
<g id="a_Node000010"><a xlink:href="render__player_8c.html#a134979f530082395406ddce35d8ff702" target="_top" xlink:title=" ">
<polygon fill="white" stroke="#666666" points="517,-70.5 396,-70.5 396,-40.5 517,-40.5 517,-70.5"/>
<text text-anchor="start" x="404" y="-58.5" font-family="Helvetica,sans-Serif" font-size="10.00">is_player_under_light</text>
<text text-anchor="middle" x="456.5" y="-47.5" font-family="Helvetica,sans-Serif" font-size="10.00">_luigi_raceway</text>
</a>
</g>
</g>
<!-- Node6&#45;&gt;Node10 -->
<g id="edge9_Node000006_Node000010" class="edge">
<title>Node6&#45;&gt;Node10</title>
<g id="a_edge9_Node000006_Node000010"><a xlink:title=" ">
<path fill="none" stroke="#63b8ff" d="M337.23,-88.96C353.54,-84.34 373.66,-78.65 392.65,-73.28"/>
<polygon fill="#63b8ff" stroke="#63b8ff" points="393.78,-76.6 402.45,-70.51 391.88,-69.86 393.78,-76.6"/>
</a>
</g>
</g>
<!-- Node12 -->
<g id="Node000012" class="node">
<title>Node12</title>
<g id="a_Node000012"><a xlink:href="render__player_8c.html#a0fc619c15119285d33e4217cb46bebbf" target="_top" xlink:title=" ">
<polygon fill="white" stroke="#666666" points="528,-194.5 385,-194.5 385,-164.5 528,-164.5 528,-194.5"/>
<text text-anchor="start" x="393" y="-182.5" font-family="Helvetica,sans-Serif" font-size="10.00">render_light_environment</text>
<text text-anchor="middle" x="456.5" y="-171.5" font-family="Helvetica,sans-Serif" font-size="10.00">_on_player</text>
</a>
</g>
</g>
<!-- Node6&#45;&gt;Node12 -->
<g id="edge13_Node000006_Node000012" class="edge">
<title>Node6&#45;&gt;Node12</title>
<g id="a_edge13_Node000006_Node000012"><a xlink:title=" ">
<path fill="none" stroke="#63b8ff" d="M332.71,-108.14C338.31,-110.51 343.98,-113.31 349,-116.5 367.57,-128.32 366.51,-138.56 385,-150.5 390.4,-153.99 396.29,-157.2 402.28,-160.1"/>
<polygon fill="#63b8ff" stroke="#63b8ff" points="401.19,-163.45 411.74,-164.43 404.1,-157.09 401.19,-163.45"/>
</a>
</g>
</g>
<!-- Node8 -->
<g id="Node000008" class="node">
<title>Node8</title>
<g id="a_Node000008"><a xlink:href="render__player_8c.html#ae2617cc0ed2c6786543b6fd58d27a857" target="_top" xlink:title=" ">
<polygon fill="white" stroke="#666666" points="831,-99 719,-99 719,-80 831,-80 831,-99"/>
<text text-anchor="middle" x="775" y="-87" font-family="Helvetica,sans-Serif" font-size="10.00">move_u16_towards</text>
</a>
</g>
</g>
<!-- Node7&#45;&gt;Node8 -->
<g id="edge7_Node000007_Node000008" class="edge">
<title>Node7&#45;&gt;Node8</title>
<g id="a_edge7_Node000007_Node000008"><a xlink:title=" ">
<path fill="none" stroke="#63b8ff" d="M682.3,-89.5C690.92,-89.5 699.86,-89.5 708.63,-89.5"/>
<polygon fill="#63b8ff" stroke="#63b8ff" points="708.81,-93 718.81,-89.5 708.81,-86 708.81,-93"/>
</a>
</g>
</g>
<!-- Node10&#45;&gt;Node7 -->
<g id="edge10_Node000010_Node000007" class="edge">
<title>Node10&#45;&gt;Node7</title>
<g id="a_edge10_Node000010_Node000007"><a xlink:title=" ">
<path fill="none" stroke="#63b8ff" d="M517.07,-67.77C529.38,-70.31 542.43,-73 555,-75.59"/>
<polygon fill="#63b8ff" stroke="#63b8ff" points="554.45,-79.05 564.95,-77.64 555.86,-72.2 554.45,-79.05"/>
</a>
</g>
</g>
<!-- Node10&#45;&gt;Node9 -->
<g id="edge11_Node000010_Node000009" class="edge">
<title>Node10&#45;&gt;Node9</title>
<g id="a_edge11_Node000010_Node000009"><a xlink:title=" ">
<path fill="none" stroke="#63b8ff" d="M483.35,-70.61C504.66,-82.82 535.86,-100.12 564,-113.5 567.52,-115.18 571.2,-116.85 574.91,-118.49"/>
<polygon fill="#63b8ff" stroke="#63b8ff" points="573.59,-121.73 584.16,-122.47 576.36,-115.3 573.59,-121.73"/>
</a>
</g>
</g>
<!-- Node11 -->
<g id="Node000011" class="node">
<title>Node11</title>
<g id="a_Node000011"><a xlink:href="Game_8cpp.html#a2d7429dca77188f881bf1c340271ea90" target="_top" xlink:title=" ">
<polygon fill="white" stroke="#666666" points="669.5,-56 577.5,-56 577.5,-37 669.5,-37 669.5,-56"/>
<text text-anchor="middle" x="623.5" y="-44" font-family="Helvetica,sans-Serif" font-size="10.00">IsLuigiRaceway</text>
</a>
</g>
</g>
<!-- Node10&#45;&gt;Node11 -->
<g id="edge12_Node000010_Node000011" class="edge">
<title>Node10&#45;&gt;Node11</title>
<g id="a_edge12_Node000010_Node000011"><a xlink:title=" ">
<path fill="none" stroke="#63b8ff" d="M517.07,-52.25C533.35,-51.36 550.92,-50.4 566.97,-49.53"/>
<polygon fill="#63b8ff" stroke="#63b8ff" points="567.47,-53.01 577.26,-48.97 567.09,-46.02 567.47,-53.01"/>
</a>
</g>
</g>
<!-- Node12&#45;&gt;Node7 -->
<g id="edge14_Node000012_Node000007" class="edge">
<title>Node12&#45;&gt;Node7</title>
<g id="a_edge14_Node000012_Node000007"><a xlink:title=" ">
<path fill="none" stroke="#63b8ff" d="M479.32,-164.49C500.42,-150.33 533.58,-129.03 564,-113.5 567.13,-111.9 570.38,-110.33 573.69,-108.8"/>
<polygon fill="#63b8ff" stroke="#63b8ff" points="575.36,-111.89 583.08,-104.63 572.52,-105.5 575.36,-111.89"/>
</a>
</g>
</g>
<!-- Node12&#45;&gt;Node9 -->
<g id="edge15_Node000012_Node000009" class="edge">
<title>Node12&#45;&gt;Node9</title>
<g id="a_edge15_Node000012_Node000009"><a xlink:title=" ">
<path fill="none" stroke="#63b8ff" d="M516.6,-164.46C529.01,-161.3 542.18,-157.95 554.87,-154.72"/>
<polygon fill="#63b8ff" stroke="#63b8ff" points="556.09,-158.02 564.92,-152.16 554.36,-151.23 556.09,-158.02"/>
</a>
</g>
</g>
<!-- Node13 -->
<g id="Node000013" class="node">
<title>Node13</title>
<g id="a_Node000013"><a xlink:href="Game_8cpp.html#a3d68a6ff4410ee26c335fc679d815d5d" target="_top" xlink:title=" ">
<polygon fill="white" stroke="#666666" points="683,-227 564,-227 564,-208 683,-208 683,-227"/>
<text text-anchor="middle" x="623.5" y="-215" font-family="Helvetica,sans-Serif" font-size="10.00">IsBansheeBoardwalk</text>
</a>
</g>
</g>
<!-- Node12&#45;&gt;Node13 -->
<g id="edge16_Node000012_Node000013" class="edge">
<title>Node12&#45;&gt;Node13</title>
<g id="a_edge16_Node000012_Node000013"><a xlink:title=" ">
<path fill="none" stroke="#63b8ff" d="M522.71,-194.52C538.82,-198.23 555.85,-202.15 571.19,-205.68"/>
<polygon fill="#63b8ff" stroke="#63b8ff" points="570.47,-209.11 581,-207.94 572.04,-202.29 570.47,-209.11"/>
</a>
</g>
</g>
<!-- Node14 -->
<g id="Node000014" class="node">
<title>Node14</title>
<g id="a_Node000014"><a xlink:href="Game_8cpp.html#a8ebd6a4d970e4333ab5a9dd66c3d9c48" target="_top" xlink:title=" ">
<polygon fill="white" stroke="#666666" points="672,-190 575,-190 575,-171 672,-171 672,-190"/>
<text text-anchor="middle" x="623.5" y="-178" font-family="Helvetica,sans-Serif" font-size="10.00">IsBowsersCastle</text>
</a>
</g>
</g>
<!-- Node12&#45;&gt;Node14 -->
<g id="edge17_Node000012_Node000014" class="edge">
<title>Node12&#45;&gt;Node14</title>
<g id="a_edge17_Node000012_Node000014"><a xlink:title=" ">
<path fill="none" stroke="#63b8ff" d="M528.43,-179.93C540.59,-180 553.09,-180.08 564.85,-180.15"/>
<polygon fill="#63b8ff" stroke="#63b8ff" points="564.95,-183.65 574.97,-180.21 564.99,-176.65 564.95,-183.65"/>
</a>
</g>
</g>
<!-- Node17 -->
<g id="Node000017" class="node">
<title>Node17</title>
<g id="a_Node000017"><a xlink:href="math__util_8c.html#a151b63b8adf9af7e4054b3b84bd226dc" target="_top" xlink:title=" ">
<polygon fill="white" stroke="#666666" points="492.5,-21 420.5,-21 420.5,-2 492.5,-2 492.5,-21"/>
<text text-anchor="middle" x="456.5" y="-9" font-family="Helvetica,sans-Serif" font-size="10.00">random_int</text>
</a>
</g>
</g>
<!-- Node16&#45;&gt;Node17 -->
<g id="edge20_Node000016_Node000017" class="edge">
<title>Node16&#45;&gt;Node17</title>
<g id="a_edge20_Node000016_Node000017"><a xlink:title=" ">
<path fill="none" stroke="#63b8ff" d="M348.69,-16.42C368.13,-15.52 390.8,-14.48 410.24,-13.58"/>
<polygon fill="#63b8ff" stroke="#63b8ff" points="410.54,-17.07 420.37,-13.12 410.22,-10.08 410.54,-17.07"/>
</a>
</g>
</g>
<!-- Node18 -->
<g id="Node000018" class="node">
<title>Node18</title>
<g id="a_Node000018"><a xlink:href="math__util_8c.html#a062850863585005ad1d0a75d9ff70693" target="_top" xlink:title=" ">
<polygon fill="white" stroke="#666666" points="662,-19 585,-19 585,0 662,0 662,-19"/>
<text text-anchor="middle" x="623.5" y="-7" font-family="Helvetica,sans-Serif" font-size="10.00">random_u16</text>
</a>
</g>
</g>
<!-- Node17&#45;&gt;Node18 -->
<g id="edge21_Node000017_Node000018" class="edge">
<title>Node17&#45;&gt;Node18</title>
<g id="a_edge21_Node000017_Node000018"><a xlink:title=" ">
<path fill="none" stroke="#63b8ff" d="M492.9,-11.07C516.8,-10.78 548.65,-10.4 574.79,-10.08"/>
<polygon fill="#63b8ff" stroke="#63b8ff" points="574.91,-13.58 584.87,-9.96 574.83,-6.58 574.91,-13.58"/>
</a>
</g>
</g>
</g>
</svg>
