<?xml version="1.0" encoding="UTF-8" standalone="no"?>
<!DOCTYPE svg PUBLIC "-//W3C//DTD SVG 1.1//EN"
 "http://www.w3.org/Graphics/SVG/1.1/DTD/svg11.dtd">
<!-- Generated by graphviz version 2.43.0 (0)
 -->
<!-- Title: rsp_load_texture Pages: 1 -->
<!--zoomable 1260 -->

<svg id="main" version="1.1" xmlns="http://www.w3.org/2000/svg" xmlns:xlink="http://www.w3.org/1999/xlink" xml:space="preserve" onload="init(evt)">

<style type="text/css"><![CDATA[
.node, .edge {opacity: 0.7;}
.node.selected, .edge.selected {opacity: 1;}
.edge:hover path { stroke: red; }
.edge:hover polygon { stroke: red; fill: red; }
]]></style>

<defs>
  <circle id="rim" cx="0" cy="0" r="7"/>
  <circle id="rim2" cx="0" cy="0" r="3.5"/>
  <g id="zoomPlus">
    <use xlink:href="#rim" fill="#404040"><set attributeName="fill" to="#808080" begin="zoomplus.mouseover" end="zoomplus.mouseout"/></use>
    <path d="M-4,0h8M0,-4v8" fill="none" stroke="white" stroke-width="1.5" pointer-events="none"/>
  </g>
  <g id="zoomMin">
    <use xlink:href="#rim" fill="#404040"><set attributeName="fill" to="#808080" begin="zoomminus.mouseover" end="zoomminus.mouseout"/></use>
    <path d="M-4,0h8" fill="none" stroke="white" stroke-width="1.5" pointer-events="none"/>
  </g>
  <g id="arrowUp" transform="translate(30 24)">
    <use xlink:href="#rim"/>
    <path pointer-events="none" fill="none" stroke="white" stroke-width="1.5" d="M0,-3.0v7 M-2.5,-0.5L0,-3.0L2.5,-0.5"/>
  </g>
  <g id="arrowRight" transform="rotate(90) translate(36 -43)">
    <use xlink:href="#rim"/>
    <path pointer-events="none" fill="none" stroke="white" stroke-width="1.5" d="M0,-3.0v7 M-2.5,-0.5L0,-3.0L2.5,-0.5"/>
  </g>
  <g id="arrowDown" transform="rotate(180) translate(-30 -48)">
    <use xlink:href="#rim"/>
    <path pointer-events="none" fill="none" stroke="white" stroke-width="1.5" d="M0,-3.0v7 M-2.5,-0.5L0,-3.0L2.5,-0.5"/>
  </g>
  <g id="arrowLeft" transform="rotate(270) translate(-36 17)">
    <use xlink:href="#rim"/>
    <path pointer-events="none" fill="none" stroke="white" stroke-width="1.5" d="M0,-3.0v7 M-2.5,-0.5L0,-3.0L2.5,-0.5"/>
  </g>
  <g id="resetDef">
    <use xlink:href="#rim2" fill="#404040"><set attributeName="fill" to="#808080" begin="reset.mouseover" end="reset.mouseout"/></use>
  </g>
</defs>
<script type="application/ecmascript">
var viewWidth = 439;
var viewHeight = 1260;
var sectionId = 'dynsection-525';
</script>
<script type="application/ecmascript" xlink:href="svg.min.js"/>
<svg id="graph" class="graph">
<g id="viewport">
<title>rsp_load_texture</title>
<!-- Node1 -->
<g id="Node000001" class="node">
<title>Node1</title>
<g id="a_Node000001"><a xlink:title=" ">
<polygon fill="#999999" stroke="#666666" points="431,-278 333,-278 333,-259 431,-259 431,-278"/>
<text text-anchor="middle" x="382" y="-266" font-family="Helvetica,sans-Serif" font-size="10.00">rsp_load_texture</text>
</a>
</g>
</g>
<!-- Node2 -->
<g id="Node000002" class="node">
<title>Node2</title>
<g id="a_Node000002"><a xlink:href="classOCrab.html#a71a7d61fe580c22650d08446177f0d69" target="_top" xlink:title=" ">
<polygon fill="white" stroke="#666666" points="270,-1048 192,-1048 192,-1029 270,-1029 270,-1048"/>
<text text-anchor="middle" x="231" y="-1036" font-family="Helvetica,sans-Serif" font-size="10.00">OCrab::Draw</text>
</a>
</g>
</g>
<!-- Node1&#45;&gt;Node2 -->
<g id="edge1_Node000001_Node000002" class="edge">
<title>Node1&#45;&gt;Node2</title>
<g id="a_edge1_Node000001_Node000002"><a xlink:title=" ">
<path fill="none" stroke="#63b8ff" d="M380.09,-288.24C374.69,-401.09 345.56,-961.72 297,-1019.5 290.27,-1027.51 280.36,-1032.25 270.3,-1035.02"/>
<polygon fill="#63b8ff" stroke="#63b8ff" points="383.58,-288.38 380.56,-278.23 376.59,-288.05 383.58,-288.38"/>
</a>
</g>
</g>
<!-- Node3 -->
<g id="Node000003" class="node">
<title>Node3</title>
<g id="a_Node000003"><a xlink:href="classOGrandPrixBalloons.html#a29307fcadbf67dc9026e04f33055ece1" target="_top" xlink:title=" ">
<polygon fill="white" stroke="#666666" points="288,-1010.5 174,-1010.5 174,-980.5 288,-980.5 288,-1010.5"/>
<text text-anchor="start" x="182" y="-998.5" font-family="Helvetica,sans-Serif" font-size="10.00">OGrandPrixBalloons</text>
<text text-anchor="middle" x="231" y="-987.5" font-family="Helvetica,sans-Serif" font-size="10.00">::Draw</text>
</a>
</g>
</g>
<!-- Node1&#45;&gt;Node3 -->
<g id="edge2_Node000001_Node000003" class="edge">
<title>Node1&#45;&gt;Node3</title>
<g id="a_edge2_Node000001_Node000003"><a xlink:title=" ">
<path fill="none" stroke="#63b8ff" d="M381.32,-288.31C382.62,-390.95 383.69,-861.63 297,-971.5 294.32,-974.9 291.1,-977.82 287.56,-980.32"/>
<polygon fill="#63b8ff" stroke="#63b8ff" points="384.82,-288.08 381.18,-278.13 377.82,-288.18 384.82,-288.08"/>
</a>
</g>
</g>
<!-- Node4 -->
<g id="Node000004" class="node">
<title>Node4</title>
<g id="a_Node000004"><a xlink:href="classOLakitu.html#acf4c307ecb7d50a557cff7e4e9fc22d2" target="_top" xlink:title=" ">
<polygon fill="white" stroke="#666666" points="274,-962 188,-962 188,-943 274,-943 274,-962"/>
<text text-anchor="middle" x="231" y="-950" font-family="Helvetica,sans-Serif" font-size="10.00">OLakitu::Draw</text>
</a>
</g>
</g>
<!-- Node1&#45;&gt;Node4 -->
<g id="edge3_Node000001_Node000004" class="edge">
<title>Node1&#45;&gt;Node4</title>
<g id="a_edge3_Node000001_Node000004"><a xlink:title=" ">
<path fill="none" stroke="#63b8ff" d="M381.31,-288.28C382.46,-387.81 382.7,-832.99 297,-933.5 291.13,-940.39 282.91,-944.85 274.28,-947.73"/>
<polygon fill="#63b8ff" stroke="#63b8ff" points="384.81,-288.08 381.17,-278.13 377.81,-288.18 384.81,-288.08"/>
</a>
</g>
</g>
<!-- Node5 -->
<g id="Node000005" class="node">
<title>Node5</title>
<g id="a_Node000005"><a xlink:href="render__objects_8c.html#a8a48ecaa397efcff0fd4aab89b040c59" target="_top" xlink:title=" ">
<polygon fill="white" stroke="#666666" points="297,-924.5 165,-924.5 165,-894.5 297,-894.5 297,-924.5"/>
<text text-anchor="start" x="173" y="-912.5" font-family="Helvetica,sans-Serif" font-size="10.00">draw_rectangle_texture</text>
<text text-anchor="middle" x="231" y="-901.5" font-family="Helvetica,sans-Serif" font-size="10.00">_overlap</text>
</a>
</g>
</g>
<!-- Node1&#45;&gt;Node5 -->
<g id="edge4_Node000001_Node000005" class="edge">
<title>Node1&#45;&gt;Node5</title>
<g id="a_edge4_Node000001_Node000005"><a xlink:title=" ">
<path fill="none" stroke="#63b8ff" d="M376.49,-287.9C354.13,-384.08 255.44,-808.65 235.51,-894.38"/>
<polygon fill="#63b8ff" stroke="#63b8ff" points="379.92,-288.59 378.78,-278.06 373.1,-287.01 379.92,-288.59"/>
</a>
</g>
</g>
<!-- Node89 -->
<g id="Node000089" class="node">
<title>Node89</title>
<g id="a_Node000089"><a xlink:href="classOSnowman.html#a6a4b52c8ea89554b32436640a1c9dd80" target="_top" xlink:title=" ">
<polygon fill="white" stroke="#666666" points="295.5,-593 166.5,-593 166.5,-574 295.5,-574 295.5,-593"/>
<text text-anchor="middle" x="231" y="-581" font-family="Helvetica,sans-Serif" font-size="10.00">OSnowman::DrawHead</text>
</a>
</g>
</g>
<!-- Node1&#45;&gt;Node89 -->
<g id="edge20_Node000001_Node000089" class="edge">
<title>Node1&#45;&gt;Node89</title>
<g id="a_edge20_Node000001_Node000089"><a xlink:title=" ">
<path fill="none" stroke="#63b8ff" d="M375.47,-287.83C363.8,-327.26 334.64,-419.22 297,-490.5 279.8,-523.07 253.04,-557.68 239.87,-573.97"/>
<polygon fill="#63b8ff" stroke="#63b8ff" points="378.84,-288.75 378.28,-278.17 372.12,-286.79 378.84,-288.75"/>
</a>
</g>
</g>
<!-- Node91 -->
<g id="Node000091" class="node">
<title>Node91</title>
<g id="a_Node000091"><a xlink:href="classOCrab.html#a1342716f34378e4700baae3df702d294" target="_top" xlink:title=" ">
<polygon fill="white" stroke="#666666" points="285,-481 177,-481 177,-462 285,-462 285,-481"/>
<text text-anchor="middle" x="231" y="-469" font-family="Helvetica,sans-Serif" font-size="10.00">OCrab::DrawModel</text>
</a>
</g>
</g>
<!-- Node1&#45;&gt;Node91 -->
<g id="edge22_Node000001_Node000091" class="edge">
<title>Node1&#45;&gt;Node91</title>
<g id="a_edge22_Node000001_Node000091"><a xlink:title=" ">
<path fill="none" stroke="#63b8ff" d="M377.65,-288.54C370.22,-326.55 348.75,-409.25 297,-453.5 292.99,-456.92 288.39,-459.7 283.52,-461.95"/>
<polygon fill="#63b8ff" stroke="#63b8ff" points="381.17,-288.74 379.52,-278.27 374.28,-287.48 381.17,-288.74"/>
</a>
</g>
</g>
<!-- Node92 -->
<g id="Node000092" class="node">
<title>Node92</title>
<g id="a_Node000092"><a xlink:href="render__objects_8c.html#aa6a427e62eecd9fda1e3fa16ed4285b6" target="_top" xlink:title=" ">
<polygon fill="white" stroke="#666666" points="276.5,-444 185.5,-444 185.5,-425 276.5,-425 276.5,-444"/>
<text text-anchor="middle" x="231" y="-432" font-family="Helvetica,sans-Serif" font-size="10.00">func_80047068</text>
</a>
</g>
</g>
<!-- Node1&#45;&gt;Node92 -->
<g id="edge23_Node000001_Node000092" class="edge">
<title>Node1&#45;&gt;Node92</title>
<g id="a_edge23_Node000001_Node000092"><a xlink:title=" ">
<path fill="none" stroke="#63b8ff" d="M365.39,-285.89C334.17,-320.67 264.95,-397.79 240.64,-424.87"/>
<polygon fill="#63b8ff" stroke="#63b8ff" points="368.05,-288.17 372.13,-278.39 362.84,-283.49 368.05,-288.17"/>
</a>
</g>
</g>
<!-- Node112 -->
<g id="Node000112" class="node">
<title>Node112</title>
<g id="a_Node000112"><a xlink:href="render__objects_8c.html#ab6b7c7c5b2602bb063fc4af93c38b23f" target="_top" xlink:title=" ">
<polygon fill="white" stroke="#666666" points="277,-278 185,-278 185,-259 277,-259 277,-278"/>
<text text-anchor="middle" x="231" y="-266" font-family="Helvetica,sans-Serif" font-size="10.00">func_8004768C</text>
</a>
</g>
</g>
<!-- Node1&#45;&gt;Node112 -->
<g id="edge34_Node000001_Node000112" class="edge">
<title>Node1&#45;&gt;Node112</title>
<g id="a_edge34_Node000001_Node000112"><a xlink:title=" ">
<path fill="none" stroke="#63b8ff" d="M322.38,-268.5C307.32,-268.5 291.36,-268.5 277.1,-268.5"/>
<polygon fill="#63b8ff" stroke="#63b8ff" points="322.62,-272 332.62,-268.5 322.62,-265 322.62,-272"/>
</a>
</g>
</g>
<!-- Node115 -->
<g id="Node000115" class="node">
<title>Node115</title>
<g id="a_Node000115"><a xlink:href="render__objects_8c.html#a577b767fc17b228d27b5ed698eb1c8ad" target="_top" xlink:title=" ">
<polygon fill="white" stroke="#666666" points="277,-241 185,-241 185,-222 277,-222 277,-241"/>
<text text-anchor="middle" x="231" y="-229" font-family="Helvetica,sans-Serif" font-size="10.00">func_800484BC</text>
</a>
</g>
</g>
<!-- Node1&#45;&gt;Node115 -->
<g id="edge37_Node000001_Node000115" class="edge">
<title>Node1&#45;&gt;Node115</title>
<g id="a_edge37_Node000001_Node000115"><a xlink:title=" ">
<path fill="none" stroke="#63b8ff" d="M332.7,-256.51C312.55,-251.5 289.48,-245.77 270.5,-241.06"/>
<polygon fill="#63b8ff" stroke="#63b8ff" points="332.08,-259.96 342.63,-258.97 333.77,-253.16 332.08,-259.96"/>
</a>
</g>
</g>
<!-- Node119 -->
<g id="Node000119" class="node">
<title>Node119</title>
<g id="a_Node000119"><a xlink:href="render__objects_8c.html#a65c6304cf8284f93c5d8db1f1dce4932" target="_top" xlink:title=" ">
<polygon fill="white" stroke="#666666" points="277.5,-204 184.5,-204 184.5,-185 277.5,-185 277.5,-204"/>
<text text-anchor="middle" x="231" y="-192" font-family="Helvetica,sans-Serif" font-size="10.00">func_8004DF5C</text>
</a>
</g>
</g>
<!-- Node1&#45;&gt;Node119 -->
<g id="edge40_Node000001_Node000119" class="edge">
<title>Node1&#45;&gt;Node119</title>
<g id="a_edge40_Node000001_Node000119"><a xlink:title=" ">
<path fill="none" stroke="#63b8ff" d="M360.59,-252.66C344.17,-240.54 320.11,-224.15 297,-213.5 288.99,-209.81 280.1,-206.65 271.52,-204.03"/>
<polygon fill="#63b8ff" stroke="#63b8ff" points="358.78,-255.67 368.87,-258.89 362.98,-250.08 358.78,-255.67"/>
</a>
</g>
</g>
<!-- Node140 -->
<g id="Node000140" class="node">
<title>Node140</title>
<g id="a_Node000140"><a xlink:href="render__objects_8c.html#a5dee2690185a9165ca8cff4b55c65111" target="_top" xlink:title=" ">
<polygon fill="white" stroke="#666666" points="277,-167 185,-167 185,-148 277,-148 277,-167"/>
<text text-anchor="middle" x="231" y="-155" font-family="Helvetica,sans-Serif" font-size="10.00">func_8004E06C</text>
</a>
</g>
</g>
<!-- Node1&#45;&gt;Node140 -->
<g id="edge43_Node000001_Node000140" class="edge">
<title>Node1&#45;&gt;Node140</title>
<g id="a_edge43_Node000001_Node000140"><a xlink:title=" ">
<path fill="none" stroke="#63b8ff" d="M369.23,-250.54C354.69,-229.74 328.01,-195.84 297,-176.5 290.81,-172.64 283.81,-169.54 276.75,-167.05"/>
<polygon fill="#63b8ff" stroke="#63b8ff" points="366.35,-252.53 374.87,-258.83 372.14,-248.59 366.35,-252.53"/>
</a>
</g>
</g>
<!-- Node143 -->
<g id="Node000143" class="node">
<title>Node143</title>
<g id="a_Node000143"><a xlink:href="render__objects_8c.html#a24f481e614ec5cbac3e43da88959df2b" target="_top" xlink:title=" ">
<polygon fill="white" stroke="#666666" points="277.5,-130 184.5,-130 184.5,-111 277.5,-111 277.5,-130"/>
<text text-anchor="middle" x="231" y="-118" font-family="Helvetica,sans-Serif" font-size="10.00">func_8004FDB4</text>
</a>
</g>
</g>
<!-- Node1&#45;&gt;Node143 -->
<g id="edge45_Node000001_Node000143" class="edge">
<title>Node1&#45;&gt;Node143</title>
<g id="a_edge45_Node000001_Node000143"><a xlink:title=" ">
<path fill="none" stroke="#63b8ff" d="M373.57,-249.15C361.71,-220.83 335.81,-168.33 297,-139.5 291.24,-135.22 284.54,-131.91 277.67,-129.33"/>
<polygon fill="#63b8ff" stroke="#63b8ff" points="370.44,-250.75 377.43,-258.72 376.94,-248.14 370.44,-250.75"/>
</a>
</g>
</g>
<!-- Node146 -->
<g id="Node000146" class="node">
<title>Node146</title>
<g id="a_Node000146"><a xlink:href="render__objects_8c.html#a742c49e38b1be564b29023711aef1eea" target="_top" xlink:title=" ">
<polygon fill="white" stroke="#666666" points="277,-93 185,-93 185,-74 277,-74 277,-93"/>
<text text-anchor="middle" x="231" y="-81" font-family="Helvetica,sans-Serif" font-size="10.00">func_80050C68</text>
</a>
</g>
</g>
<!-- Node1&#45;&gt;Node146 -->
<g id="edge47_Node000001_Node000146" class="edge">
<title>Node1&#45;&gt;Node146</title>
<g id="a_edge47_Node000001_Node000146"><a xlink:title=" ">
<path fill="none" stroke="#63b8ff" d="M376.6,-249.13C367.7,-214.46 344.3,-141.8 297,-102.5 291.21,-97.69 284.26,-94.1 277.08,-91.42"/>
<polygon fill="#63b8ff" stroke="#63b8ff" points="373.22,-250.06 378.98,-258.95 380.02,-248.41 373.22,-250.06"/>
</a>
</g>
</g>
<!-- Node147 -->
<g id="Node000147" class="node">
<title>Node147</title>
<g id="a_Node000147"><a xlink:href="render__objects_8c.html#a1997892d9b0912660a6d9f51422e9bb8" target="_top" xlink:title=" ">
<polygon fill="#fff0f0" stroke="red" points="292.5,-56 169.5,-56 169.5,-37 292.5,-37 292.5,-56"/>
<text text-anchor="middle" x="231" y="-44" font-family="Helvetica,sans-Serif" font-size="10.00">load_texture_and_tlut</text>
</a>
</g>
</g>
<!-- Node1&#45;&gt;Node147 -->
<g id="edge48_Node000001_Node000147" class="edge">
<title>Node1&#45;&gt;Node147</title>
<g id="a_edge48_Node000001_Node000147"><a xlink:title=" ">
<path fill="none" stroke="#63b8ff" d="M378.54,-248.83C372.42,-208.39 352.78,-115.57 297,-65.5 292.71,-61.65 287.69,-58.58 282.36,-56.13"/>
<polygon fill="#63b8ff" stroke="#63b8ff" points="375.08,-249.34 379.92,-258.76 382.01,-248.37 375.08,-249.34"/>
</a>
</g>
</g>
<!-- Node149 -->
<g id="Node000149" class="node">
<title>Node149</title>
<g id="a_Node000149"><a xlink:href="render__objects_8c.html#a01136bcb8f763bd80f4cb9296988d0ad" target="_top" xlink:title=" ">
<polygon fill="#fff0f0" stroke="red" points="287.5,-19 174.5,-19 174.5,0 287.5,0 287.5,-19"/>
<text text-anchor="middle" x="231" y="-7" font-family="Helvetica,sans-Serif" font-size="10.00">render_object_neon</text>
</a>
</g>
</g>
<!-- Node1&#45;&gt;Node149 -->
<g id="edge49_Node000001_Node000149" class="edge">
<title>Node1&#45;&gt;Node149</title>
<g id="a_edge49_Node000001_Node000149"><a xlink:title=" ">
<path fill="none" stroke="#63b8ff" d="M380.03,-248.32C376.71,-202.2 361.99,-88.38 297,-27.5 293.41,-24.14 289.25,-21.39 284.8,-19.16"/>
<polygon fill="#63b8ff" stroke="#63b8ff" points="376.55,-248.74 380.66,-258.51 383.54,-248.32 376.55,-248.74"/>
</a>
</g>
</g>
<!-- Node6 -->
<g id="Node000006" class="node">
<title>Node6</title>
<g id="a_Node000006"><a xlink:href="render__objects_8c.html#a8c64fbe4bff7ffa49273321d6f1b03be" target="_top" xlink:title=" ">
<polygon fill="#fff0f0" stroke="red" points="121,-1252 8,-1252 8,-1233 121,-1233 121,-1252"/>
<text text-anchor="middle" x="64.5" y="-1240" font-family="Helvetica,sans-Serif" font-size="10.00">draw_2d_texture_at</text>
</a>
</g>
</g>
<!-- Node5&#45;&gt;Node6 -->
<g id="edge5_Node000005_Node000006" class="edge">
<title>Node5&#45;&gt;Node6</title>
<g id="a_edge5_Node000005_Node000006"><a xlink:title=" ">
<path fill="none" stroke="#63b8ff" d="M168.06,-931.01C166.98,-932.12 165.95,-933.28 165,-934.5 85,-1036.82 213.56,-1125.92 129,-1224.5 126.09,-1227.89 122.59,-1230.67 118.76,-1232.94"/>
<polygon fill="#63b8ff" stroke="#63b8ff" points="170.44,-933.58 175.93,-924.52 165.99,-928.18 170.44,-933.58"/>
</a>
</g>
</g>
<!-- Node12 -->
<g id="Node000012" class="node">
<title>Node12</title>
<g id="a_Node000012"><a xlink:href="render__objects_8c.html#ab3e49e29c773461d6b29a3c241629d96" target="_top" xlink:title=" ">
<polygon fill="#fff0f0" stroke="red" points="110,-1215 19,-1215 19,-1196 110,-1196 110,-1215"/>
<text text-anchor="middle" x="64.5" y="-1203" font-family="Helvetica,sans-Serif" font-size="10.00">func_80047910</text>
</a>
</g>
</g>
<!-- Node5&#45;&gt;Node12 -->
<g id="edge6_Node000005_Node000012" class="edge">
<title>Node5&#45;&gt;Node12</title>
<g id="a_edge6_Node000005_Node000012"><a xlink:title=" ">
<path fill="none" stroke="#63b8ff" d="M168.08,-931.04C167,-932.14 165.96,-933.29 165,-934.5 94.25,-1023.35 203.72,-1101.96 129,-1187.5 124.02,-1193.2 117.39,-1197.15 110.29,-1199.88"/>
<polygon fill="#63b8ff" stroke="#63b8ff" points="170.47,-933.61 176,-924.58 166.04,-928.19 170.47,-933.61"/>
</a>
</g>
</g>
<!-- Node62 -->
<g id="Node000062" class="node">
<title>Node62</title>
<g id="a_Node000062"><a xlink:href="render__objects_8c.html#aa71c06796b1b014471b24c8bb646cef7" target="_top" xlink:title=" ">
<polygon fill="#fff0f0" stroke="red" points="110,-1178 19,-1178 19,-1159 110,-1159 110,-1178"/>
<text text-anchor="middle" x="64.5" y="-1166" font-family="Helvetica,sans-Serif" font-size="10.00">func_80047994</text>
</a>
</g>
</g>
<!-- Node5&#45;&gt;Node62 -->
<g id="edge7_Node000005_Node000062" class="edge">
<title>Node5&#45;&gt;Node62</title>
<g id="a_edge7_Node000005_Node000062"><a xlink:title=" ">
<path fill="none" stroke="#63b8ff" d="M168.12,-931.07C167.02,-932.16 165.98,-933.3 165,-934.5 103.47,-1009.91 193.89,-1077.97 129,-1150.5 123.96,-1156.14 117.29,-1160.06 110.18,-1162.79"/>
<polygon fill="#63b8ff" stroke="#63b8ff" points="170.5,-933.65 176.1,-924.65 166.11,-928.19 170.5,-933.65"/>
</a>
</g>
</g>
<!-- Node64 -->
<g id="Node000064" class="node">
<title>Node64</title>
<g id="a_Node000064"><a xlink:href="render__objects_8c.html#a305cbc47e0c008840e2046f59cb5184c" target="_top" xlink:title=" ">
<polygon fill="#fff0f0" stroke="red" points="110.5,-1141 18.5,-1141 18.5,-1122 110.5,-1122 110.5,-1141"/>
<text text-anchor="middle" x="64.5" y="-1129" font-family="Helvetica,sans-Serif" font-size="10.00">func_80047A9C</text>
</a>
</g>
</g>
<!-- Node5&#45;&gt;Node64 -->
<g id="edge8_Node000005_Node000064" class="edge">
<title>Node5&#45;&gt;Node64</title>
<g id="a_edge8_Node000005_Node000064"><a xlink:title=" ">
<path fill="none" stroke="#63b8ff" d="M168.6,-930.71C167.33,-931.9 166.13,-933.17 165,-934.5 112.66,-996.51 184.11,-1053.93 129,-1113.5 124.02,-1118.88 117.56,-1122.7 110.67,-1125.4"/>
<polygon fill="#63b8ff" stroke="#63b8ff" points="170.77,-933.45 176.54,-924.57 166.49,-927.92 170.77,-933.45"/>
</a>
</g>
</g>
<!-- Node67 -->
<g id="Node000067" class="node">
<title>Node67</title>
<g id="a_Node000067"><a xlink:href="render__objects_8c.html#a209da068f7af82621ac1237d70885b62" target="_top" xlink:title=" ">
<polygon fill="white" stroke="#666666" points="110.5,-1104 18.5,-1104 18.5,-1085 110.5,-1085 110.5,-1104"/>
<text text-anchor="middle" x="64.5" y="-1092" font-family="Helvetica,sans-Serif" font-size="10.00">func_80047C28</text>
</a>
</g>
</g>
<!-- Node5&#45;&gt;Node67 -->
<g id="edge9_Node000005_Node000067" class="edge">
<title>Node5&#45;&gt;Node67</title>
<g id="a_edge9_Node000005_Node000067"><a xlink:title=" ">
<path fill="none" stroke="#63b8ff" d="M168.79,-930.7C167.45,-931.9 166.19,-933.16 165,-934.5 121.78,-983.19 174.39,-1029.82 129,-1076.5 123.97,-1081.68 117.57,-1085.39 110.77,-1088.06"/>
<polygon fill="#63b8ff" stroke="#63b8ff" points="171.12,-933.32 177.05,-924.55 166.94,-927.71 171.12,-933.32"/>
</a>
</g>
</g>
<!-- Node68 -->
<g id="Node000068" class="node">
<title>Node68</title>
<g id="a_Node000068"><a xlink:href="render__objects_8c.html#af25c2a1cd7ad90357bb51f2813dc4791" target="_top" xlink:title=" ">
<polygon fill="white" stroke="#666666" points="110.5,-1067 18.5,-1067 18.5,-1048 110.5,-1048 110.5,-1067"/>
<text text-anchor="middle" x="64.5" y="-1055" font-family="Helvetica,sans-Serif" font-size="10.00">func_80047D40</text>
</a>
</g>
</g>
<!-- Node5&#45;&gt;Node68 -->
<g id="edge10_Node000005_Node000068" class="edge">
<title>Node5&#45;&gt;Node68</title>
<g id="a_edge10_Node000005_Node000068"><a xlink:title=" ">
<path fill="none" stroke="#63b8ff" d="M169.41,-930.43C167.86,-931.71 166.38,-933.06 165,-934.5 130.77,-970.02 164.81,-1005.57 129,-1039.5 123.84,-1044.39 117.46,-1047.96 110.74,-1050.57"/>
<polygon fill="#63b8ff" stroke="#63b8ff" points="171.49,-933.25 177.7,-924.66 167.49,-927.5 171.49,-933.25"/>
</a>
</g>
</g>
<!-- Node69 -->
<g id="Node000069" class="node">
<title>Node69</title>
<g id="a_Node000069"><a xlink:href="render__objects_8c.html#a49eccc6aef1353e402fef04b347a4e79" target="_top" xlink:title=" ">
<polygon fill="#fff0f0" stroke="red" points="110,-1030 19,-1030 19,-1011 110,-1011 110,-1030"/>
<text text-anchor="middle" x="64.5" y="-1018" font-family="Helvetica,sans-Serif" font-size="10.00">func_80047E48</text>
</a>
</g>
</g>
<!-- Node5&#45;&gt;Node69 -->
<g id="edge11_Node000005_Node000069" class="edge">
<title>Node5&#45;&gt;Node69</title>
<g id="a_edge11_Node000005_Node000069"><a xlink:title=" ">
<path fill="none" stroke="#63b8ff" d="M171.04,-929.76C168.92,-931.24 166.9,-932.82 165,-934.5 139.42,-957.19 155.59,-981 129,-1002.5 123.48,-1006.97 116.9,-1010.33 110.11,-1012.85"/>
<polygon fill="#63b8ff" stroke="#63b8ff" points="172.87,-932.75 179.6,-924.57 169.23,-926.77 172.87,-932.75"/>
</a>
</g>
</g>
<!-- Node71 -->
<g id="Node000071" class="node">
<title>Node71</title>
<g id="a_Node000071"><a xlink:href="render__objects_8c.html#ab4137dcaafb2d6de09c37a22ae8541d6" target="_top" xlink:title=" ">
<polygon fill="#fff0f0" stroke="red" points="110,-993 19,-993 19,-974 110,-974 110,-993"/>
<text text-anchor="middle" x="64.5" y="-981" font-family="Helvetica,sans-Serif" font-size="10.00">func_80047F40</text>
</a>
</g>
</g>
<!-- Node5&#45;&gt;Node71 -->
<g id="edge12_Node000005_Node000071" class="edge">
<title>Node5&#45;&gt;Node71</title>
<g id="a_edge12_Node000005_Node000071"><a xlink:title=" ">
<path fill="none" stroke="#63b8ff" d="M175.51,-928.82C171.88,-930.6 168.35,-932.5 165,-934.5 146.88,-945.34 147.59,-955.5 129,-965.5 122.74,-968.87 115.79,-971.66 108.85,-973.95"/>
<polygon fill="#63b8ff" stroke="#63b8ff" points="177.02,-931.98 184.64,-924.62 174.09,-925.62 177.02,-931.98"/>
</a>
</g>
</g>
<!-- Node73 -->
<g id="Node000073" class="node">
<title>Node73</title>
<g id="a_Node000073"><a xlink:href="render__objects_8c.html#a0aec5a5ef1b662df677936d54dd7f556" target="_top" xlink:title=" ">
<polygon fill="white" stroke="#666666" points="110.5,-956 18.5,-956 18.5,-937 110.5,-937 110.5,-956"/>
<text text-anchor="middle" x="64.5" y="-944" font-family="Helvetica,sans-Serif" font-size="10.00">func_80047FBC</text>
</a>
</g>
</g>
<!-- Node5&#45;&gt;Node73 -->
<g id="edge13_Node000005_Node000073" class="edge">
<title>Node5&#45;&gt;Node73</title>
<g id="a_edge13_Node000005_Node000073"><a xlink:title=" ">
<path fill="none" stroke="#63b8ff" d="M154.98,-926.37C138.8,-930.01 122.24,-933.74 107.84,-936.98"/>
<polygon fill="#63b8ff" stroke="#63b8ff" points="156,-929.73 164.99,-924.12 154.46,-922.9 156,-929.73"/>
</a>
</g>
</g>
<!-- Node74 -->
<g id="Node000074" class="node">
<title>Node74</title>
<g id="a_Node000074"><a xlink:href="render__objects_8c.html#a91178d2562551232deed087f59325a1e" target="_top" xlink:title=" ">
<polygon fill="#fff0f0" stroke="red" points="110.5,-919 18.5,-919 18.5,-900 110.5,-900 110.5,-919"/>
<text text-anchor="middle" x="64.5" y="-907" font-family="Helvetica,sans-Serif" font-size="10.00">func_800482AC</text>
</a>
</g>
</g>
<!-- Node5&#45;&gt;Node74 -->
<g id="edge14_Node000005_Node000074" class="edge">
<title>Node5&#45;&gt;Node74</title>
<g id="a_edge14_Node000005_Node000074"><a xlink:title=" ">
<path fill="none" stroke="#63b8ff" d="M154.68,-909.5C139.69,-909.5 124.39,-909.5 110.8,-909.5"/>
<polygon fill="#63b8ff" stroke="#63b8ff" points="154.99,-913 164.99,-909.5 154.99,-906 154.99,-913"/>
</a>
</g>
</g>
<!-- Node76 -->
<g id="Node000076" class="node">
<title>Node76</title>
<g id="a_Node000076"><a xlink:href="render__objects_8c.html#a5a6e10cbfda4dc8f12e67cfc05183ccb" target="_top" xlink:title=" ">
<polygon fill="#fff0f0" stroke="red" points="110.5,-882 18.5,-882 18.5,-863 110.5,-863 110.5,-882"/>
<text text-anchor="middle" x="64.5" y="-870" font-family="Helvetica,sans-Serif" font-size="10.00">func_800483B4</text>
</a>
</g>
</g>
<!-- Node5&#45;&gt;Node76 -->
<g id="edge15_Node000005_Node000076" class="edge">
<title>Node5&#45;&gt;Node76</title>
<g id="a_edge15_Node000005_Node000076"><a xlink:title=" ">
<path fill="none" stroke="#63b8ff" d="M154.98,-892.63C138.8,-888.99 122.24,-885.26 107.84,-882.02"/>
<polygon fill="#63b8ff" stroke="#63b8ff" points="154.46,-896.1 164.99,-894.88 156,-889.27 154.46,-896.1"/>
</a>
</g>
</g>
<!-- Node78 -->
<g id="Node000078" class="node">
<title>Node78</title>
<g id="a_Node000078"><a xlink:href="render__objects_8c.html#a5ea915e2b61a3fc53a83969a86841a9f" target="_top" xlink:title=" ">
<polygon fill="#fff0f0" stroke="red" points="110,-845 19,-845 19,-826 110,-826 110,-845"/>
<text text-anchor="middle" x="64.5" y="-833" font-family="Helvetica,sans-Serif" font-size="10.00">func_80048540</text>
</a>
</g>
</g>
<!-- Node5&#45;&gt;Node78 -->
<g id="edge16_Node000005_Node000078" class="edge">
<title>Node5&#45;&gt;Node78</title>
<g id="a_edge16_Node000005_Node000078"><a xlink:title=" ">
<path fill="none" stroke="#63b8ff" d="M197.09,-889.31C177.75,-878.03 152.55,-864.31 129,-854.5 120.5,-850.96 111.11,-847.78 102.22,-845.07"/>
<polygon fill="#63b8ff" stroke="#63b8ff" points="195.41,-892.39 205.8,-894.46 198.98,-886.36 195.41,-892.39"/>
</a>
</g>
</g>
<!-- Node81 -->
<g id="Node000081" class="node">
<title>Node81</title>
<g id="a_Node000081"><a xlink:href="render__objects_8c.html#a7f21a1863237d7a23fd0d1381722477d" target="_top" xlink:title=" ">
<polygon fill="white" stroke="#666666" points="110.5,-808 18.5,-808 18.5,-789 110.5,-789 110.5,-808"/>
<text text-anchor="middle" x="64.5" y="-796" font-family="Helvetica,sans-Serif" font-size="10.00">func_800485C4</text>
</a>
</g>
</g>
<!-- Node5&#45;&gt;Node81 -->
<g id="edge17_Node000005_Node000081" class="edge">
<title>Node5&#45;&gt;Node81</title>
<g id="a_edge17_Node000005_Node000081"><a xlink:title=" ">
<path fill="none" stroke="#63b8ff" d="M210.32,-886.44C191.42,-865.65 161.08,-835.64 129,-817.5 122.29,-813.7 114.74,-810.59 107.25,-808.07"/>
<polygon fill="#63b8ff" stroke="#63b8ff" points="207.95,-889.05 217.22,-894.18 213.18,-884.39 207.95,-889.05"/>
</a>
</g>
</g>
<!-- Node82 -->
<g id="Node000082" class="node">
<title>Node82</title>
<g id="a_Node000082"><a xlink:href="render__objects_8c.html#a8e71bb2a914da25c9767d72707665f58" target="_top" xlink:title=" ">
<polygon fill="#fff0f0" stroke="red" points="111,-771 18,-771 18,-752 111,-752 111,-771"/>
<text text-anchor="middle" x="64.5" y="-759" font-family="Helvetica,sans-Serif" font-size="10.00">func_800563DC</text>
</a>
</g>
</g>
<!-- Node5&#45;&gt;Node82 -->
<g id="edge18_Node000005_Node000082" class="edge">
<title>Node5&#45;&gt;Node82</title>
<g id="a_edge18_Node000005_Node000082"><a xlink:title=" ">
<path fill="none" stroke="#63b8ff" d="M217.19,-885.19C200.64,-856.09 169.11,-807.86 129,-780.5 123.3,-776.61 116.78,-773.5 110.14,-771.02"/>
<polygon fill="#63b8ff" stroke="#63b8ff" points="214.32,-887.22 222.22,-894.27 220.44,-883.83 214.32,-887.22"/>
</a>
</g>
</g>
<!-- Node87 -->
<g id="Node000087" class="node">
<title>Node87</title>
<g id="a_Node000087"><a xlink:href="classPlayerBombKart.html#ab3bf9332abcce97183126cb5a7bce075" target="_top" xlink:title=" ">
<polygon fill="#fff0f0" stroke="red" points="126,-733.5 3,-733.5 3,-703.5 126,-703.5 126,-733.5"/>
<text text-anchor="start" x="11" y="-721.5" font-family="Helvetica,sans-Serif" font-size="10.00">PlayerBombKart::func</text>
<text text-anchor="middle" x="64.5" y="-710.5" font-family="Helvetica,sans-Serif" font-size="10.00">_800563DC</text>
</a>
</g>
</g>
<!-- Node5&#45;&gt;Node87 -->
<g id="edge19_Node000005_Node000087" class="edge">
<title>Node5&#45;&gt;Node87</title>
<g id="a_edge19_Node000005_Node000087"><a xlink:title=" ">
<path fill="none" stroke="#63b8ff" d="M220.91,-884.76C206.59,-848.94 175.51,-782.65 129,-743.5 124.47,-739.69 119.28,-736.41 113.87,-733.6"/>
<polygon fill="#63b8ff" stroke="#63b8ff" points="217.78,-886.37 224.67,-894.42 224.31,-883.83 217.78,-886.37"/>
</a>
</g>
</g>
<!-- Node90 -->
<g id="Node000090" class="node">
<title>Node90</title>
<g id="a_Node000090"><a xlink:href="classOSnowman.html#a43b2b34a94dbde2f174d971bfa763ac0" target="_top" xlink:title=" ">
<polygon fill="white" stroke="#666666" points="116.5,-685 12.5,-685 12.5,-666 116.5,-666 116.5,-685"/>
<text text-anchor="middle" x="64.5" y="-673" font-family="Helvetica,sans-Serif" font-size="10.00">OSnowman::Draw</text>
</a>
</g>
</g>
<!-- Node89&#45;&gt;Node90 -->
<g id="edge21_Node000089_Node000090" class="edge">
<title>Node89&#45;&gt;Node90</title>
<g id="a_edge21_Node000089_Node000090"><a xlink:title=" ">
<path fill="none" stroke="#63b8ff" d="M211.96,-599.85C192.69,-616.51 160.65,-642.05 129,-657.5 122.2,-660.82 114.69,-663.62 107.28,-665.96"/>
<polygon fill="#63b8ff" stroke="#63b8ff" points="214.43,-602.33 219.62,-593.09 209.81,-597.08 214.43,-602.33"/>
</a>
</g>
</g>
<!-- Node93 -->
<g id="Node000093" class="node">
<title>Node93</title>
<g id="a_Node000093"><a xlink:href="render__objects_8c.html#ac444c21ee2078da42a70d54c4ec9da61" target="_top" xlink:title=" ">
<polygon fill="#fff0f0" stroke="red" points="110.5,-648 18.5,-648 18.5,-629 110.5,-629 110.5,-648"/>
<text text-anchor="middle" x="64.5" y="-636" font-family="Helvetica,sans-Serif" font-size="10.00">func_8004788C</text>
</a>
</g>
</g>
<!-- Node92&#45;&gt;Node93 -->
<g id="edge24_Node000092_Node000093" class="edge">
<title>Node92&#45;&gt;Node93</title>
<g id="a_edge24_Node000092_Node000093"><a xlink:title=" ">
<path fill="none" stroke="#63b8ff" d="M176.07,-444.92C171.97,-447.24 168.19,-450.07 165,-453.5 113.28,-509.09 180.95,-565.12 129,-620.5 123.98,-625.85 117.51,-629.65 110.61,-632.34"/>
<polygon fill="#63b8ff" stroke="#63b8ff" points="177.85,-447.96 185.47,-440.6 174.92,-441.6 177.85,-447.96"/>
</a>
</g>
</g>
<!-- Node99 -->
<g id="Node000099" class="node">
<title>Node99</title>
<g id="a_Node000099"><a xlink:href="render__objects_8c.html#a62d40457c9cad67a3b4ac53f4810f053" target="_top" xlink:title=" ">
<polygon fill="#fff0f0" stroke="red" points="110.5,-611 18.5,-611 18.5,-592 110.5,-592 110.5,-611"/>
<text text-anchor="middle" x="64.5" y="-599" font-family="Helvetica,sans-Serif" font-size="10.00">func_80047A18</text>
</a>
</g>
</g>
<!-- Node92&#45;&gt;Node99 -->
<g id="edge25_Node000092_Node000099" class="edge">
<title>Node92&#45;&gt;Node99</title>
<g id="a_edge25_Node000092_Node000099"><a xlink:title=" ">
<path fill="none" stroke="#63b8ff" d="M176.1,-445.22C172.03,-447.48 168.24,-450.21 165,-453.5 122.91,-496.19 171.26,-540.98 129,-583.5 123.91,-588.62 117.48,-592.31 110.68,-594.96"/>
<polygon fill="#63b8ff" stroke="#63b8ff" points="177.76,-448.31 185.4,-440.98 174.85,-441.94 177.76,-448.31"/>
</a>
</g>
</g>
<!-- Node102 -->
<g id="Node000102" class="node">
<title>Node102</title>
<g id="a_Node000102"><a xlink:href="render__objects_8c.html#a70b9ab2b3d5af8fcfcd7fb1a651396a9" target="_top" xlink:title=" ">
<polygon fill="#fff0f0" stroke="red" points="110.5,-574 18.5,-574 18.5,-555 110.5,-555 110.5,-574"/>
<text text-anchor="middle" x="64.5" y="-562" font-family="Helvetica,sans-Serif" font-size="10.00">func_80047B9C</text>
</a>
</g>
</g>
<!-- Node92&#45;&gt;Node102 -->
<g id="edge26_Node000092_Node000102" class="edge">
<title>Node92&#45;&gt;Node102</title>
<g id="a_edge26_Node000092_Node000102"><a xlink:title=" ">
<path fill="none" stroke="#63b8ff" d="M175.75,-445.94C171.86,-448.05 168.21,-450.55 165,-453.5 132.36,-483.48 161.77,-516.65 129,-546.5 123.75,-551.28 117.32,-554.81 110.58,-557.4"/>
<polygon fill="#63b8ff" stroke="#63b8ff" points="177.5,-448.99 185.18,-441.69 174.62,-442.61 177.5,-448.99"/>
</a>
</g>
</g>
<!-- Node104 -->
<g id="Node000104" class="node">
<title>Node104</title>
<g id="a_Node000104"><a xlink:href="render__objects_8c.html#a11b93b94f668a841d51489531a6fc963" target="_top" xlink:title=" ">
<polygon fill="#fff0f0" stroke="red" points="110.5,-537 18.5,-537 18.5,-518 110.5,-518 110.5,-537"/>
<text text-anchor="middle" x="64.5" y="-525" font-family="Helvetica,sans-Serif" font-size="10.00">func_80047CB4</text>
</a>
</g>
</g>
<!-- Node92&#45;&gt;Node104 -->
<g id="edge27_Node000092_Node000104" class="edge">
<title>Node92&#45;&gt;Node104</title>
<g id="a_edge27_Node000092_Node000104"><a xlink:title=" ">
<path fill="none" stroke="#63b8ff" d="M176.01,-446.86C172.11,-448.77 168.39,-450.97 165,-453.5 141.3,-471.22 152.77,-491.88 129,-509.5 123.57,-513.53 117.27,-516.65 110.79,-519.08"/>
<polygon fill="#63b8ff" stroke="#63b8ff" points="177.47,-450.04 185.33,-442.93 174.75,-443.59 177.47,-450.04"/>
</a>
</g>
</g>
<!-- Node106 -->
<g id="Node000106" class="node">
<title>Node106</title>
<g id="a_Node000106"><a xlink:href="render__objects_8c.html#a7c2491c5079ac52653c15d40bd4fe849" target="_top" xlink:title=" ">
<polygon fill="white" stroke="#666666" points="111.5,-500 17.5,-500 17.5,-481 111.5,-481 111.5,-500"/>
<text text-anchor="middle" x="64.5" y="-488" font-family="Helvetica,sans-Serif" font-size="10.00">func_80047DCC</text>
</a>
</g>
</g>
<!-- Node92&#45;&gt;Node106 -->
<g id="edge28_Node000092_Node000106" class="edge">
<title>Node92&#45;&gt;Node106</title>
<g id="a_edge28_Node000092_Node000106"><a xlink:title=" ">
<path fill="none" stroke="#63b8ff" d="M182.49,-447.18C176.54,-449.12 170.58,-451.24 165,-453.5 148.23,-460.29 145.79,-465.77 129,-472.5 121.13,-475.65 112.5,-478.49 104.21,-480.92"/>
<polygon fill="#63b8ff" stroke="#63b8ff" points="183.93,-450.4 192.44,-444.08 181.85,-443.71 183.93,-450.4"/>
</a>
</g>
</g>
<!-- Node107 -->
<g id="Node000107" class="node">
<title>Node107</title>
<g id="a_Node000107"><a xlink:href="render__objects_8c.html#a9dbb20204cf9176cfeec66efa7a22e0b" target="_top" xlink:title=" ">
<polygon fill="white" stroke="#666666" points="110.5,-463 18.5,-463 18.5,-444 110.5,-444 110.5,-463"/>
<text text-anchor="middle" x="64.5" y="-451" font-family="Helvetica,sans-Serif" font-size="10.00">func_80047EC4</text>
</a>
</g>
</g>
<!-- Node92&#45;&gt;Node107 -->
<g id="edge29_Node000092_Node000107" class="edge">
<title>Node92&#45;&gt;Node107</title>
<g id="a_edge29_Node000092_Node000107"><a xlink:title=" ">
<path fill="none" stroke="#63b8ff" d="M175.41,-440.8C154.4,-443.23 130.65,-445.97 110.62,-448.29"/>
<polygon fill="#63b8ff" stroke="#63b8ff" points="175.95,-444.27 185.48,-439.64 175.15,-437.31 175.95,-444.27"/>
</a>
</g>
</g>
<!-- Node108 -->
<g id="Node000108" class="node">
<title>Node108</title>
<g id="a_Node000108"><a xlink:href="render__objects_8c.html#a0f506bac7d9077d130368f59aa040e45" target="_top" xlink:title=" ">
<polygon fill="white" stroke="#666666" points="110,-426 19,-426 19,-407 110,-407 110,-426"/>
<text text-anchor="middle" x="64.5" y="-414" font-family="Helvetica,sans-Serif" font-size="10.00">func_80048038</text>
</a>
</g>
</g>
<!-- Node92&#45;&gt;Node108 -->
<g id="edge30_Node000092_Node000108" class="edge">
<title>Node92&#45;&gt;Node108</title>
<g id="a_edge30_Node000092_Node000108"><a xlink:title=" ">
<path fill="none" stroke="#63b8ff" d="M175.33,-428.52C154.13,-426.2 130.17,-423.58 110.05,-421.37"/>
<polygon fill="#63b8ff" stroke="#63b8ff" points="175.16,-432.02 185.48,-429.63 175.92,-425.06 175.16,-432.02"/>
</a>
</g>
</g>
<!-- Node109 -->
<g id="Node000109" class="node">
<title>Node109</title>
<g id="a_Node000109"><a xlink:href="render__objects_8c.html#a52e219df24b6bd4433f7faf09ef387ff" target="_top" xlink:title=" ">
<polygon fill="white" stroke="#666666" points="110,-389 19,-389 19,-370 110,-370 110,-389"/>
<text text-anchor="middle" x="64.5" y="-377" font-family="Helvetica,sans-Serif" font-size="10.00">func_80048228</text>
</a>
</g>
</g>
<!-- Node92&#45;&gt;Node109 -->
<g id="edge31_Node000092_Node000109" class="edge">
<title>Node92&#45;&gt;Node109</title>
<g id="a_edge31_Node000092_Node000109"><a xlink:title=" ">
<path fill="none" stroke="#63b8ff" d="M194.78,-421.44C175.45,-414.4 150.99,-405.7 129,-398.5 119.16,-395.28 108.39,-391.97 98.56,-389.04"/>
<polygon fill="#63b8ff" stroke="#63b8ff" points="193.79,-424.81 204.39,-424.96 196.2,-418.24 193.79,-424.81"/>
</a>
</g>
</g>
<!-- Node110 -->
<g id="Node000110" class="node">
<title>Node110</title>
<g id="a_Node000110"><a xlink:href="render__objects_8c.html#af452dd0b6e993f7ef73acb7292b2a916" target="_top" xlink:title=" ">
<polygon fill="white" stroke="#666666" points="110,-352 19,-352 19,-333 110,-333 110,-352"/>
<text text-anchor="middle" x="64.5" y="-340" font-family="Helvetica,sans-Serif" font-size="10.00">func_80048330</text>
</a>
</g>
</g>
<!-- Node92&#45;&gt;Node110 -->
<g id="edge32_Node000092_Node000110" class="edge">
<title>Node92&#45;&gt;Node110</title>
<g id="a_edge32_Node000092_Node000110"><a xlink:title=" ">
<path fill="none" stroke="#63b8ff" d="M211.56,-418.22C192.19,-401.86 160.27,-376.93 129,-361.5 121.47,-357.78 113.07,-354.64 104.91,-352.05"/>
<polygon fill="#63b8ff" stroke="#63b8ff" points="209.42,-420.99 219.29,-424.86 213.98,-415.68 209.42,-420.99"/>
</a>
</g>
</g>
<!-- Node111 -->
<g id="Node000111" class="node">
<title>Node111</title>
<g id="a_Node000111"><a xlink:href="render__objects_8c.html#ad2b1c78e52c101f25b06937f591f6d1b" target="_top" xlink:title=" ">
<polygon fill="white" stroke="#666666" points="110,-315 19,-315 19,-296 110,-296 110,-315"/>
<text text-anchor="middle" x="64.5" y="-303" font-family="Helvetica,sans-Serif" font-size="10.00">func_80048438</text>
</a>
</g>
</g>
<!-- Node92&#45;&gt;Node111 -->
<g id="edge33_Node000092_Node000111" class="edge">
<title>Node92&#45;&gt;Node111</title>
<g id="a_edge33_Node000092_Node000111"><a xlink:title=" ">
<path fill="none" stroke="#63b8ff" d="M218.29,-416.64C201.42,-392.28 167.97,-348.9 129,-324.5 122.86,-320.65 115.89,-317.55 108.88,-315.05"/>
<polygon fill="#63b8ff" stroke="#63b8ff" points="215.42,-418.64 223.92,-424.96 221.22,-414.72 215.42,-418.64"/>
</a>
</g>
</g>
<!-- Node113 -->
<g id="Node000113" class="node">
<title>Node113</title>
<g id="a_Node000113"><a xlink:href="render__objects_8c.html#a7f59c9fc017e21ff5274a8d698f074b1" target="_top" xlink:title=" ">
<polygon fill="white" stroke="#666666" points="110.5,-278 18.5,-278 18.5,-259 110.5,-259 110.5,-278"/>
<text text-anchor="middle" x="64.5" y="-266" font-family="Helvetica,sans-Serif" font-size="10.00">func_80047B20</text>
</a>
</g>
</g>
<!-- Node112&#45;&gt;Node113 -->
<g id="edge35_Node000112_Node000113" class="edge">
<title>Node112&#45;&gt;Node113</title>
<g id="a_edge35_Node000112_Node000113"><a xlink:title=" ">
<path fill="none" stroke="#63b8ff" d="M174.36,-268.5C153.65,-268.5 130.41,-268.5 110.74,-268.5"/>
<polygon fill="#63b8ff" stroke="#63b8ff" points="174.61,-272 184.61,-268.5 174.61,-265 174.61,-272"/>
</a>
</g>
</g>
<!-- Node114 -->
<g id="Node000114" class="node">
<title>Node114</title>
<g id="a_Node000114"><a xlink:href="render__objects_8c.html#ae171e74d7c1846e12e902710c49c20fd" target="_top" xlink:title=" ">
<polygon fill="white" stroke="#666666" points="110.5,-241 18.5,-241 18.5,-222 110.5,-222 110.5,-241"/>
<text text-anchor="middle" x="64.5" y="-229" font-family="Helvetica,sans-Serif" font-size="10.00">func_800481B4</text>
</a>
</g>
</g>
<!-- Node112&#45;&gt;Node114 -->
<g id="edge36_Node000112_Node000114" class="edge">
<title>Node112&#45;&gt;Node114</title>
<g id="a_edge36_Node000112_Node000114"><a xlink:title=" ">
<path fill="none" stroke="#63b8ff" d="M177.59,-256.71C155.13,-251.66 129.24,-245.84 108,-241.06"/>
<polygon fill="#63b8ff" stroke="#63b8ff" points="177.11,-260.19 187.64,-258.97 178.65,-253.36 177.11,-260.19"/>
</a>
</g>
</g>
<!-- Node116 -->
<g id="Node000116" class="node">
<title>Node116</title>
<g id="a_Node000116"><a xlink:href="render__objects_8c.html#a8ca40d15fcc4bfbb350e4b295751e9ca" target="_top" xlink:title=" ">
<polygon fill="white" stroke="#666666" points="110.5,-204 18.5,-204 18.5,-185 110.5,-185 110.5,-204"/>
<text text-anchor="middle" x="64.5" y="-192" font-family="Helvetica,sans-Serif" font-size="10.00">func_80048D48</text>
</a>
</g>
</g>
<!-- Node115&#45;&gt;Node116 -->
<g id="edge38_Node000115_Node000116" class="edge">
<title>Node115&#45;&gt;Node116</title>
<g id="a_edge38_Node000115_Node000116"><a xlink:title=" ">
<path fill="none" stroke="#63b8ff" d="M177.59,-219.71C155.13,-214.66 129.24,-208.84 108,-204.06"/>
<polygon fill="#63b8ff" stroke="#63b8ff" points="177.11,-223.19 187.64,-221.97 178.65,-216.36 177.11,-223.19"/>
</a>
</g>
</g>
<!-- Node117 -->
<g id="Node000117" class="node">
<title>Node117</title>
<g id="a_Node000117"><a xlink:href="classOBoos.html#a6481d9811ecb0b976fd51ccbb1011ba5" target="_top" xlink:title=" ">
<polygon fill="#fff0f0" stroke="red" points="129,-167 0,-167 0,-148 129,-148 129,-167"/>
<text text-anchor="middle" x="64.5" y="-155" font-family="Helvetica,sans-Serif" font-size="10.00">OBoos::func_800523B8</text>
</a>
</g>
</g>
<!-- Node115&#45;&gt;Node117 -->
<g id="edge39_Node000115_Node000117" class="edge">
<title>Node115&#45;&gt;Node117</title>
<g id="a_edge39_Node000115_Node000117"><a xlink:title=" ">
<path fill="none" stroke="#63b8ff" d="M175.16,-218.64C171.63,-217.11 168.21,-215.4 165,-213.5 145.26,-201.81 148.62,-188.39 129,-176.5 122.7,-172.68 115.58,-169.59 108.45,-167.09"/>
<polygon fill="#63b8ff" stroke="#63b8ff" points="174.08,-221.98 184.67,-222.3 176.59,-215.44 174.08,-221.98"/>
</a>
</g>
</g>
<!-- Node120 -->
<g id="Node000120" class="node">
<title>Node120</title>
<g id="a_Node000120"><a xlink:href="render__objects_8c.html#a38493fda23503b6c3d4be25319ad025f" target="_top" xlink:title=" ">
<polygon fill="#fff0f0" stroke="red" points="110,-130 19,-130 19,-111 110,-111 110,-130"/>
<text text-anchor="middle" x="64.5" y="-118" font-family="Helvetica,sans-Serif" font-size="10.00">func_8004E240</text>
</a>
</g>
</g>
<!-- Node119&#45;&gt;Node120 -->
<g id="edge41_Node000119_Node000120" class="edge">
<title>Node119&#45;&gt;Node120</title>
<g id="a_edge41_Node000119_Node000120"><a xlink:title=" ">
<path fill="none" stroke="#63b8ff" d="M174.98,-181.56C171.52,-180.05 168.16,-178.37 165,-176.5 145.26,-164.81 148.62,-151.39 129,-139.5 122.7,-135.68 115.58,-132.59 108.45,-130.09"/>
<polygon fill="#63b8ff" stroke="#63b8ff" points="173.74,-184.84 184.33,-185.18 176.26,-178.31 173.74,-184.84"/>
</a>
</g>
</g>
<!-- Node137 -->
<g id="Node000137" class="node">
<title>Node137</title>
<g id="a_Node000137"><a xlink:href="render__objects_8c.html#a17f9b05a746ef42ad0faca7d579356cd" target="_top" xlink:title=" ">
<polygon fill="#fff0f0" stroke="red" points="110.5,-93 18.5,-93 18.5,-74 110.5,-74 110.5,-93"/>
<text text-anchor="middle" x="64.5" y="-81" font-family="Helvetica,sans-Serif" font-size="10.00">func_8004E2B8</text>
</a>
</g>
</g>
<!-- Node119&#45;&gt;Node137 -->
<g id="edge42_Node000119_Node000137" class="edge">
<title>Node119&#45;&gt;Node137</title>
<g id="a_edge42_Node000119_Node000137"><a xlink:title=" ">
<path fill="none" stroke="#63b8ff" d="M175.01,-183.1C171.44,-181.22 168.05,-179.04 165,-176.5 136.89,-153.1 156.87,-126.18 129,-102.5 123.65,-97.95 117.25,-94.5 110.59,-91.87"/>
<polygon fill="#63b8ff" stroke="#63b8ff" points="173.64,-186.32 184.2,-187.16 176.47,-179.92 173.64,-186.32"/>
</a>
</g>
</g>
<!-- Node141 -->
<g id="Node000141" class="node">
<title>Node141</title>
<g id="a_Node000141"><a xlink:href="render__objects_8c.html#aaab3d66e866737e450b04b2efc376b7d" target="_top" xlink:title=" ">
<polygon fill="#fff0f0" stroke="red" points="110,-56 19,-56 19,-37 110,-37 110,-56"/>
<text text-anchor="middle" x="64.5" y="-44" font-family="Helvetica,sans-Serif" font-size="10.00">func_8004E338</text>
</a>
</g>
</g>
<!-- Node140&#45;&gt;Node141 -->
<g id="edge44_Node000140_Node000141" class="edge">
<title>Node140&#45;&gt;Node141</title>
<g id="a_edge44_Node000140_Node000141"><a xlink:title=" ">
<path fill="none" stroke="#63b8ff" d="M175.67,-146.44C171.85,-144.49 168.24,-142.2 165,-139.5 136.89,-116.1 156.87,-89.18 129,-65.5 123.56,-60.88 117.04,-57.38 110.26,-54.74"/>
<polygon fill="#63b8ff" stroke="#63b8ff" points="174.31,-149.66 184.88,-150.4 177.07,-143.23 174.31,-149.66"/>
</a>
</g>
</g>
<!-- Node144 -->
<g id="Node000144" class="node">
<title>Node144</title>
<g id="a_Node000144"><a xlink:href="render__objects_8c.html#aed285c112a16165b4c91395da0ae8889" target="_top" xlink:title=" ">
<polygon fill="#fff0f0" stroke="red" points="110,-19 19,-19 19,0 110,0 110,-19"/>
<text text-anchor="middle" x="64.5" y="-7" font-family="Helvetica,sans-Serif" font-size="10.00">func_80050320</text>
</a>
</g>
</g>
<!-- Node143&#45;&gt;Node144 -->
<g id="edge46_Node000143_Node000144" class="edge">
<title>Node143&#45;&gt;Node144</title>
<g id="a_edge46_Node000143_Node000144"><a xlink:title=" ">
<path fill="none" stroke="#63b8ff" d="M174.99,-109.12C171.42,-107.24 168.04,-105.05 165,-102.5 136.64,-78.77 157.29,-51.31 129,-27.5 123.57,-22.92 117.04,-19.51 110.27,-16.96"/>
<polygon fill="#63b8ff" stroke="#63b8ff" points="173.62,-112.34 184.18,-113.18 176.45,-105.94 173.62,-112.34"/>
</a>
</g>
</g>
</g>
</svg>

<g id="navigator" transform="translate(0 0)" fill="#404254">
  <rect fill="#f2f5e9" fill-opacity="0.5" stroke="#606060" stroke-width=".5" x="0" y="0" width="60" height="60"/>
  <use id="zoomplus" xlink:href="#zoomPlus" x="17" y="9" onmousedown="handleZoom(evt,'in')"/>
  <use id="zoomminus" xlink:href="#zoomMin" x="42" y="9" onmousedown="handleZoom(evt,'out')"/>
  <use id="reset" xlink:href="#resetDef" x="30" y="36" onmousedown="handleReset()"/>
   <use id="arrowup" xlink:href="#arrowUp" x="0" y="0" onmousedown="handlePan(0,-1)"/>
  <use id="arrowright" xlink:href="#arrowRight" x="0" y="0" onmousedown="handlePan(1,0)"/>
  <use id="arrowdown" xlink:href="#arrowDown" x="0" y="0" onmousedown="handlePan(0,1)"/>
  <use id="arrowleft" xlink:href="#arrowLeft" x="0" y="0" onmousedown="handlePan(-1,0)"/>
</g>
<svg viewBox="0 0 15 15" width="100%" height="30px" preserveAspectRatio="xMaxYMin meet">
 <g id="arrow_out" transform="scale(0.3 0.3)">
  <a xlink:href="render__objects_8c_a8a3e9d3da5a6ac97b84b553fdc5d7d59_icgraph_org.svg" target="_base">
   <rect id="button" ry="5" rx="5" y="6" x="6" height="38" width="38"
        fill="#f2f5e9" fill-opacity="0.5" stroke="#606060" stroke-width="1.0"/>
   <path id="arrow"
     d="M 11.500037,31.436501 C 11.940474,20.09759 22.043105,11.32322 32.158766,21.979434 L 37.068811,17.246167 C 37.068811,17.246167 37.088388,32 37.088388,32 L 22.160133,31.978069 C 22.160133,31.978069 26.997745,27.140456 26.997745,27.140456 C 18.528582,18.264221 13.291696,25.230495 11.500037,31.436501 z"
     style="fill:#404040;"/>
  </a>
 </g>
</svg>

<style type='text/css'>
<![CDATA[
[data-mouse-over-selected='false'] { opacity: 0.7; }
[data-mouse-over-selected='true']  { opacity: 1.0; }
]]>
</style>
<script type="application/ecmascript"><![CDATA[
document.addEventListener('DOMContentLoaded', (event) => {
  highlightEdges();
  highlightAdjacentNodes();
});
]]></script>
</svg>
