<?xml version="1.0" encoding="UTF-8" standalone="no"?>
<!DOCTYPE svg PUBLIC "-//W3C//DTD SVG 1.1//EN"
 "http://www.w3.org/Graphics/SVG/1.1/DTD/svg11.dtd">
<!-- Generated by graphviz version 2.43.0 (0)
 -->
<!-- Title: rsp_load_texture Pages: 1 -->
<!--zoomable 1315 -->

<svg id="main" version="1.1" xmlns="http://www.w3.org/2000/svg" xmlns:xlink="http://www.w3.org/1999/xlink" xml:space="preserve" onload="init(evt)">

<style type="text/css"><![CDATA[
.node, .edge {opacity: 0.7;}
.node.selected, .edge.selected {opacity: 1;}
.edge:hover path { stroke: red; }
.edge:hover polygon { stroke: red; fill: red; }
]]></style>

<defs>
  <circle id="rim" cx="0" cy="0" r="7"/>
  <circle id="rim2" cx="0" cy="0" r="3.5"/>
  <g id="zoomPlus">
    <use xlink:href="#rim" fill="#404040"><set attributeName="fill" to="#808080" begin="zoomplus.mouseover" end="zoomplus.mouseout"/></use>
    <path d="M-4,0h8M0,-4v8" fill="none" stroke="white" stroke-width="1.5" pointer-events="none"/>
  </g>
  <g id="zoomMin">
    <use xlink:href="#rim" fill="#404040"><set attributeName="fill" to="#808080" begin="zoomminus.mouseover" end="zoomminus.mouseout"/></use>
    <path d="M-4,0h8" fill="none" stroke="white" stroke-width="1.5" pointer-events="none"/>
  </g>
  <g id="arrowUp" transform="translate(30 24)">
    <use xlink:href="#rim"/>
    <path pointer-events="none" fill="none" stroke="white" stroke-width="1.5" d="M0,-3.0v7 M-2.5,-0.5L0,-3.0L2.5,-0.5"/>
  </g>
  <g id="arrowRight" transform="rotate(90) translate(36 -43)">
    <use xlink:href="#rim"/>
    <path pointer-events="none" fill="none" stroke="white" stroke-width="1.5" d="M0,-3.0v7 M-2.5,-0.5L0,-3.0L2.5,-0.5"/>
  </g>
  <g id="arrowDown" transform="rotate(180) translate(-30 -48)">
    <use xlink:href="#rim"/>
    <path pointer-events="none" fill="none" stroke="white" stroke-width="1.5" d="M0,-3.0v7 M-2.5,-0.5L0,-3.0L2.5,-0.5"/>
  </g>
  <g id="arrowLeft" transform="rotate(270) translate(-36 17)">
    <use xlink:href="#rim"/>
    <path pointer-events="none" fill="none" stroke="white" stroke-width="1.5" d="M0,-3.0v7 M-2.5,-0.5L0,-3.0L2.5,-0.5"/>
  </g>
  <g id="resetDef">
    <use xlink:href="#rim2" fill="#404040"><set attributeName="fill" to="#808080" begin="reset.mouseover" end="reset.mouseout"/></use>
  </g>
</defs>
<script type="application/ecmascript">
var viewWidth = 629;
var viewHeight = 1315;
var sectionId = 'dynsection-433';
</script>
<script type="application/ecmascript" xlink:href="svg.min.js"/>
<svg id="graph" class="graph">
<g id="viewport">
<title>rsp_load_texture</title>
<!-- Node1 -->
<g id="Node000001" class="node">
<title>Node1</title>
<g id="a_Node000001"><a xlink:title=" ">
<polygon fill="#999999" stroke="#666666" points="621,-167 523,-167 523,-148 621,-148 621,-167"/>
<text text-anchor="middle" x="572" y="-155" font-family="Helvetica,sans-Serif" font-size="10.00">rsp_load_texture</text>
</a>
</g>
</g>
<!-- Node2 -->
<g id="Node000002" class="node">
<title>Node2</title>
<g id="a_Node000002"><a xlink:href="classOGrandPrixBalloons.html#a29307fcadbf67dc9026e04f33055ece1" target="_top" xlink:title=" ">
<polygon fill="white" stroke="#666666" points="478,-953.5 364,-953.5 364,-923.5 478,-923.5 478,-953.5"/>
<text text-anchor="start" x="372" y="-941.5" font-family="Helvetica,sans-Serif" font-size="10.00">OGrandPrixBalloons</text>
<text text-anchor="middle" x="421" y="-930.5" font-family="Helvetica,sans-Serif" font-size="10.00">::Draw</text>
</a>
</g>
</g>
<!-- Node1&#45;&gt;Node2 -->
<g id="edge1_Node000001_Node000002" class="edge">
<title>Node1&#45;&gt;Node2</title>
<g id="a_edge1_Node000001_Node000002"><a xlink:title=" ">
<path fill="none" stroke="#63b8ff" d="M570.03,-177.33C564.35,-290.77 533.87,-854.58 487,-914.5 484.33,-917.91 481.13,-920.84 477.59,-923.35"/>
<polygon fill="#63b8ff" stroke="#63b8ff" points="573.55,-177.18 570.54,-167.02 566.55,-176.83 573.55,-177.18"/>
</a>
</g>
</g>
<!-- Node3 -->
<g id="Node000003" class="node">
<title>Node3</title>
<g id="a_Node000003"><a xlink:href="render__objects_8c.html#a8a48ecaa397efcff0fd4aab89b040c59" target="_top" xlink:title=" ">
<polygon fill="white" stroke="#666666" points="487,-905.5 355,-905.5 355,-875.5 487,-875.5 487,-905.5"/>
<text text-anchor="start" x="363" y="-893.5" font-family="Helvetica,sans-Serif" font-size="10.00">draw_rectangle_texture</text>
<text text-anchor="middle" x="421" y="-882.5" font-family="Helvetica,sans-Serif" font-size="10.00">_overlap</text>
</a>
</g>
</g>
<!-- Node1&#45;&gt;Node3 -->
<g id="edge2_Node000001_Node000003" class="edge">
<title>Node1&#45;&gt;Node3</title>
<g id="a_edge2_Node000001_Node000003"><a xlink:title=" ">
<path fill="none" stroke="#63b8ff" d="M567.05,-176.91C545.69,-282.01 444.15,-781.52 425.09,-875.3"/>
<polygon fill="#63b8ff" stroke="#63b8ff" points="570.5,-177.53 569.06,-167.04 563.64,-176.14 570.5,-177.53"/>
</a>
</g>
</g>
<!-- Node98 -->
<g id="Node000098" class="node">
<title>Node98</title>
<g id="a_Node000098"><a xlink:href="render__objects_8c.html#aa6a427e62eecd9fda1e3fa16ed4285b6" target="_top" xlink:title=" ">
<polygon fill="white" stroke="#666666" points="466.5,-426 375.5,-426 375.5,-407 466.5,-407 466.5,-426"/>
<text text-anchor="middle" x="421" y="-414" font-family="Helvetica,sans-Serif" font-size="10.00">func_80047068</text>
</a>
</g>
</g>
<!-- Node1&#45;&gt;Node98 -->
<g id="edge27_Node000001_Node000098" class="edge">
<title>Node1&#45;&gt;Node98</title>
<g id="a_edge27_Node000001_Node000098"><a xlink:title=" ">
<path fill="none" stroke="#63b8ff" d="M560.38,-175.96C531.03,-226.99 449.52,-368.66 427.53,-406.89"/>
<polygon fill="#63b8ff" stroke="#63b8ff" points="563.57,-177.44 565.52,-167.03 557.5,-173.95 563.57,-177.44"/>
</a>
</g>
</g>
<!-- Node118 -->
<g id="Node000118" class="node">
<title>Node118</title>
<g id="a_Node000118"><a xlink:href="render__objects_8c.html#ab6b7c7c5b2602bb063fc4af93c38b23f" target="_top" xlink:title=" ">
<polygon fill="white" stroke="#666666" points="467,-204 375,-204 375,-185 467,-185 467,-204"/>
<text text-anchor="middle" x="421" y="-192" font-family="Helvetica,sans-Serif" font-size="10.00">func_8004768C</text>
</a>
</g>
</g>
<!-- Node1&#45;&gt;Node118 -->
<g id="edge38_Node000001_Node000118" class="edge">
<title>Node1&#45;&gt;Node118</title>
<g id="a_edge38_Node000001_Node000118"><a xlink:title=" ">
<path fill="none" stroke="#63b8ff" d="M522.7,-169.49C502.55,-174.5 479.48,-180.23 460.5,-184.94"/>
<polygon fill="#63b8ff" stroke="#63b8ff" points="523.77,-172.84 532.63,-167.03 522.08,-166.04 523.77,-172.84"/>
</a>
</g>
</g>
<!-- Node121 -->
<g id="Node000121" class="node">
<title>Node121</title>
<g id="a_Node000121"><a xlink:href="render__objects_8c.html#a65c6304cf8284f93c5d8db1f1dce4932" target="_top" xlink:title=" ">
<polygon fill="white" stroke="#666666" points="467.5,-167 374.5,-167 374.5,-148 467.5,-148 467.5,-167"/>
<text text-anchor="middle" x="421" y="-155" font-family="Helvetica,sans-Serif" font-size="10.00">func_8004DF5C</text>
</a>
</g>
</g>
<!-- Node1&#45;&gt;Node121 -->
<g id="edge41_Node000001_Node000121" class="edge">
<title>Node1&#45;&gt;Node121</title>
<g id="a_edge41_Node000001_Node000121"><a xlink:title=" ">
<path fill="none" stroke="#63b8ff" d="M512.48,-157.5C497.57,-157.5 481.76,-157.5 467.6,-157.5"/>
<polygon fill="#63b8ff" stroke="#63b8ff" points="512.62,-161 522.62,-157.5 512.62,-154 512.62,-161"/>
</a>
</g>
</g>
<!-- Node142 -->
<g id="Node000142" class="node">
<title>Node142</title>
<g id="a_Node000142"><a xlink:href="render__objects_8c.html#a5dee2690185a9165ca8cff4b55c65111" target="_top" xlink:title=" ">
<polygon fill="white" stroke="#666666" points="467,-130 375,-130 375,-111 467,-111 467,-130"/>
<text text-anchor="middle" x="421" y="-118" font-family="Helvetica,sans-Serif" font-size="10.00">func_8004E06C</text>
</a>
</g>
</g>
<!-- Node1&#45;&gt;Node142 -->
<g id="edge44_Node000001_Node000142" class="edge">
<title>Node1&#45;&gt;Node142</title>
<g id="a_edge44_Node000001_Node000142"><a xlink:title=" ">
<path fill="none" stroke="#63b8ff" d="M522.7,-145.51C502.55,-140.5 479.48,-134.77 460.5,-130.06"/>
<polygon fill="#63b8ff" stroke="#63b8ff" points="522.08,-148.96 532.63,-147.97 523.77,-142.16 522.08,-148.96"/>
</a>
</g>
</g>
<!-- Node145 -->
<g id="Node000145" class="node">
<title>Node145</title>
<g id="a_Node000145"><a xlink:href="render__objects_8c.html#a24f481e614ec5cbac3e43da88959df2b" target="_top" xlink:title=" ">
<polygon fill="white" stroke="#666666" points="467.5,-93 374.5,-93 374.5,-74 467.5,-74 467.5,-93"/>
<text text-anchor="middle" x="421" y="-81" font-family="Helvetica,sans-Serif" font-size="10.00">func_8004FDB4</text>
</a>
</g>
</g>
<!-- Node1&#45;&gt;Node145 -->
<g id="edge46_Node000001_Node000145" class="edge">
<title>Node1&#45;&gt;Node145</title>
<g id="a_edge46_Node000001_Node000145"><a xlink:title=" ">
<path fill="none" stroke="#63b8ff" d="M550.59,-141.66C534.17,-129.54 510.11,-113.15 487,-102.5 478.99,-98.81 470.1,-95.65 461.52,-93.03"/>
<polygon fill="#63b8ff" stroke="#63b8ff" points="548.78,-144.67 558.87,-147.89 552.98,-139.08 548.78,-144.67"/>
</a>
</g>
</g>
<!-- Node148 -->
<g id="Node000148" class="node">
<title>Node148</title>
<g id="a_Node000148"><a xlink:href="render__objects_8c.html#a742c49e38b1be564b29023711aef1eea" target="_top" xlink:title=" ">
<polygon fill="white" stroke="#666666" points="467,-56 375,-56 375,-37 467,-37 467,-56"/>
<text text-anchor="middle" x="421" y="-44" font-family="Helvetica,sans-Serif" font-size="10.00">func_80050C68</text>
</a>
</g>
</g>
<!-- Node1&#45;&gt;Node148 -->
<g id="edge48_Node000001_Node000148" class="edge">
<title>Node1&#45;&gt;Node148</title>
<g id="a_edge48_Node000001_Node000148"><a xlink:title=" ">
<path fill="none" stroke="#63b8ff" d="M559.23,-139.54C544.69,-118.74 518.01,-84.84 487,-65.5 480.81,-61.64 473.81,-58.54 466.75,-56.05"/>
<polygon fill="#63b8ff" stroke="#63b8ff" points="556.35,-141.53 564.87,-147.83 562.14,-137.59 556.35,-141.53"/>
</a>
</g>
</g>
<!-- Node149 -->
<g id="Node000149" class="node">
<title>Node149</title>
<g id="a_Node000149"><a xlink:href="render__objects_8c.html#a1997892d9b0912660a6d9f51422e9bb8" target="_top" xlink:title=" ">
<polygon fill="white" stroke="#666666" points="482.5,-19 359.5,-19 359.5,0 482.5,0 482.5,-19"/>
<text text-anchor="middle" x="421" y="-7" font-family="Helvetica,sans-Serif" font-size="10.00">load_texture_and_tlut</text>
</a>
</g>
</g>
<!-- Node1&#45;&gt;Node149 -->
<g id="edge49_Node000001_Node000149" class="edge">
<title>Node1&#45;&gt;Node149</title>
<g id="a_edge49_Node000001_Node000149"><a xlink:title=" ">
<path fill="none" stroke="#63b8ff" d="M563.84,-138.35C552.18,-109.82 526.36,-56.42 487,-27.5 482.38,-24.1 477.14,-21.35 471.7,-19.11"/>
<polygon fill="#63b8ff" stroke="#63b8ff" points="560.7,-139.93 567.61,-147.96 567.22,-137.37 560.7,-139.93"/>
</a>
</g>
</g>
<!-- Node4 -->
<g id="Node000004" class="node">
<title>Node4</title>
<g id="a_Node000004"><a xlink:href="render__objects_8c.html#a8c64fbe4bff7ffa49273321d6f1b03be" target="_top" xlink:title=" ">
<polygon fill="#fff0f0" stroke="red" points="311.5,-1215 198.5,-1215 198.5,-1196 311.5,-1196 311.5,-1215"/>
<text text-anchor="middle" x="255" y="-1203" font-family="Helvetica,sans-Serif" font-size="10.00">draw_2d_texture_at</text>
</a>
</g>
</g>
<!-- Node3&#45;&gt;Node4 -->
<g id="edge3_Node000003_Node000004" class="edge">
<title>Node3&#45;&gt;Node4</title>
<g id="a_edge3_Node000003_Node000004"><a xlink:title=" ">
<path fill="none" stroke="#63b8ff" d="M356.9,-912.29C356.24,-913 355.61,-913.74 355,-914.5 278.61,-1010.11 398.94,-1094.83 319,-1187.5 316.1,-1190.86 312.63,-1193.61 308.81,-1195.87"/>
<polygon fill="#63b8ff" stroke="#63b8ff" points="359.48,-914.68 364.78,-905.51 354.92,-909.38 359.48,-914.68"/>
</a>
</g>
</g>
<!-- Node17 -->
<g id="Node000017" class="node">
<title>Node17</title>
<g id="a_Node000017"><a xlink:href="render__objects_8c.html#ab3e49e29c773461d6b29a3c241629d96" target="_top" xlink:title=" ">
<polygon fill="#fff0f0" stroke="red" points="300.5,-1178 209.5,-1178 209.5,-1159 300.5,-1159 300.5,-1178"/>
<text text-anchor="middle" x="255" y="-1166" font-family="Helvetica,sans-Serif" font-size="10.00">func_80047910</text>
</a>
</g>
</g>
<!-- Node3&#45;&gt;Node17 -->
<g id="edge11_Node000003_Node000017" class="edge">
<title>Node3&#45;&gt;Node17</title>
<g id="a_edge11_Node000003_Node000017"><a xlink:title=" ">
<path fill="none" stroke="#63b8ff" d="M356.92,-912.31C356.26,-913.01 355.62,-913.75 355,-914.5 287.93,-996.72 389.12,-1070.87 319,-1150.5 314.11,-1156.05 307.65,-1159.94 300.72,-1162.66"/>
<polygon fill="#63b8ff" stroke="#63b8ff" points="359.5,-914.71 364.86,-905.57 354.97,-909.37 359.5,-914.71"/>
</a>
</g>
</g>
<!-- Node67 -->
<g id="Node000067" class="node">
<title>Node67</title>
<g id="a_Node000067"><a xlink:href="render__objects_8c.html#aa71c06796b1b014471b24c8bb646cef7" target="_top" xlink:title=" ">
<polygon fill="#fff0f0" stroke="red" points="300.5,-1141 209.5,-1141 209.5,-1122 300.5,-1122 300.5,-1141"/>
<text text-anchor="middle" x="255" y="-1129" font-family="Helvetica,sans-Serif" font-size="10.00">func_80047994</text>
</a>
</g>
</g>
<!-- Node3&#45;&gt;Node67 -->
<g id="edge12_Node000003_Node000067" class="edge">
<title>Node3&#45;&gt;Node67</title>
<g id="a_edge12_Node000003_Node000067"><a xlink:title=" ">
<path fill="none" stroke="#63b8ff" d="M357.24,-912.03C356.46,-912.83 355.72,-913.65 355,-914.5 297.23,-983.36 379.32,-1046.87 319,-1113.5 314.04,-1118.98 307.53,-1122.84 300.59,-1125.55"/>
<polygon fill="#63b8ff" stroke="#63b8ff" points="359.48,-914.72 364.96,-905.65 355.02,-909.33 359.48,-914.72"/>
</a>
</g>
</g>
<!-- Node69 -->
<g id="Node000069" class="node">
<title>Node69</title>
<g id="a_Node000069"><a xlink:href="render__objects_8c.html#a305cbc47e0c008840e2046f59cb5184c" target="_top" xlink:title=" ">
<polygon fill="#fff0f0" stroke="red" points="301,-1104 209,-1104 209,-1085 301,-1085 301,-1104"/>
<text text-anchor="middle" x="255" y="-1092" font-family="Helvetica,sans-Serif" font-size="10.00">func_80047A9C</text>
</a>
</g>
</g>
<!-- Node3&#45;&gt;Node69 -->
<g id="edge13_Node000003_Node000069" class="edge">
<title>Node3&#45;&gt;Node69</title>
<g id="a_edge13_Node000003_Node000069"><a xlink:title=" ">
<path fill="none" stroke="#63b8ff" d="M357.35,-912.01C356.54,-912.81 355.75,-913.64 355,-914.5 306.48,-970.05 369.58,-1022.81 319,-1076.5 314.09,-1081.72 307.78,-1085.46 301.05,-1088.13"/>
<polygon fill="#63b8ff" stroke="#63b8ff" points="359.78,-914.55 365.41,-905.58 355.41,-909.08 359.78,-914.55"/>
</a>
</g>
</g>
<!-- Node72 -->
<g id="Node000072" class="node">
<title>Node72</title>
<g id="a_Node000072"><a xlink:href="render__objects_8c.html#a209da068f7af82621ac1237d70885b62" target="_top" xlink:title=" ">
<polygon fill="white" stroke="#666666" points="301,-1067 209,-1067 209,-1048 301,-1048 301,-1067"/>
<text text-anchor="middle" x="255" y="-1055" font-family="Helvetica,sans-Serif" font-size="10.00">func_80047C28</text>
</a>
</g>
</g>
<!-- Node3&#45;&gt;Node72 -->
<g id="edge14_Node000003_Node000072" class="edge">
<title>Node3&#45;&gt;Node72</title>
<g id="a_edge14_Node000003_Node000072"><a xlink:title=" ">
<path fill="none" stroke="#63b8ff" d="M357.82,-911.72C356.84,-912.61 355.9,-913.53 355,-914.5 315.64,-956.85 359.92,-998.66 319,-1039.5 314.01,-1044.48 307.74,-1048.11 301.1,-1050.74"/>
<polygon fill="#63b8ff" stroke="#63b8ff" points="360.07,-914.4 365.95,-905.59 355.86,-908.81 360.07,-914.4"/>
</a>
</g>
</g>
<!-- Node73 -->
<g id="Node000073" class="node">
<title>Node73</title>
<g id="a_Node000073"><a xlink:href="render__objects_8c.html#af25c2a1cd7ad90357bb51f2813dc4791" target="_top" xlink:title=" ">
<polygon fill="white" stroke="#666666" points="301,-1030 209,-1030 209,-1011 301,-1011 301,-1030"/>
<text text-anchor="middle" x="255" y="-1018" font-family="Helvetica,sans-Serif" font-size="10.00">func_80047D40</text>
</a>
</g>
</g>
<!-- Node3&#45;&gt;Node73 -->
<g id="edge15_Node000003_Node000073" class="edge">
<title>Node3&#45;&gt;Node73</title>
<g id="a_edge15_Node000003_Node000073"><a xlink:title=" ">
<path fill="none" stroke="#63b8ff" d="M358.47,-911.43C357.27,-912.41 356.11,-913.43 355,-914.5 324.61,-943.86 350.48,-974.31 319,-1002.5 313.92,-1007.05 307.75,-1010.46 301.3,-1013.01"/>
<polygon fill="#63b8ff" stroke="#63b8ff" points="360.7,-914.14 366.97,-905.6 356.75,-908.37 360.7,-914.14"/>
</a>
</g>
</g>
<!-- Node74 -->
<g id="Node000074" class="node">
<title>Node74</title>
<g id="a_Node000074"><a xlink:href="render__objects_8c.html#a49eccc6aef1353e402fef04b347a4e79" target="_top" xlink:title=" ">
<polygon fill="#fff0f0" stroke="red" points="300.5,-993 209.5,-993 209.5,-974 300.5,-974 300.5,-993"/>
<text text-anchor="middle" x="255" y="-981" font-family="Helvetica,sans-Serif" font-size="10.00">func_80047E48</text>
</a>
</g>
</g>
<!-- Node3&#45;&gt;Node74 -->
<g id="edge16_Node000003_Node000074" class="edge">
<title>Node3&#45;&gt;Node74</title>
<g id="a_edge16_Node000003_Node000074"><a xlink:title=" ">
<path fill="none" stroke="#63b8ff" d="M360.58,-910.61C358.65,-911.83 356.78,-913.13 355,-914.5 333,-931.4 341.63,-949.44 319,-965.5 313.53,-969.38 307.23,-972.43 300.78,-974.83"/>
<polygon fill="#63b8ff" stroke="#63b8ff" points="362.4,-913.6 369.4,-905.65 358.97,-907.5 362.4,-913.6"/>
</a>
</g>
</g>
<!-- Node76 -->
<g id="Node000076" class="node">
<title>Node76</title>
<g id="a_Node000076"><a xlink:href="render__objects_8c.html#ab4137dcaafb2d6de09c37a22ae8541d6" target="_top" xlink:title=" ">
<polygon fill="#fff0f0" stroke="red" points="300.5,-956 209.5,-956 209.5,-937 300.5,-937 300.5,-956"/>
<text text-anchor="middle" x="255" y="-944" font-family="Helvetica,sans-Serif" font-size="10.00">func_80047F40</text>
</a>
</g>
</g>
<!-- Node3&#45;&gt;Node76 -->
<g id="edge17_Node000003_Node000076" class="edge">
<title>Node3&#45;&gt;Node76</title>
<g id="a_edge17_Node000003_Node000076"><a xlink:title=" ">
<path fill="none" stroke="#63b8ff" d="M369.6,-909.01C364.66,-910.86 359.73,-912.71 355,-914.5 338.95,-920.58 335.27,-923.02 319,-928.5 310.16,-931.47 300.52,-934.39 291.5,-936.98"/>
<polygon fill="#63b8ff" stroke="#63b8ff" points="370.89,-912.27 379.04,-905.5 368.45,-905.7 370.89,-912.27"/>
</a>
</g>
</g>
<!-- Node78 -->
<g id="Node000078" class="node">
<title>Node78</title>
<g id="a_Node000078"><a xlink:href="render__objects_8c.html#a0aec5a5ef1b662df677936d54dd7f556" target="_top" xlink:title=" ">
<polygon fill="white" stroke="#666666" points="301,-919 209,-919 209,-900 301,-900 301,-919"/>
<text text-anchor="middle" x="255" y="-907" font-family="Helvetica,sans-Serif" font-size="10.00">func_80047FBC</text>
</a>
</g>
</g>
<!-- Node3&#45;&gt;Node78 -->
<g id="edge18_Node000003_Node000078" class="edge">
<title>Node3&#45;&gt;Node78</title>
<g id="a_edge18_Node000003_Node000078"><a xlink:title=" ">
<path fill="none" stroke="#63b8ff" d="M344.57,-899.24C329.82,-900.95 314.79,-902.69 301.39,-904.24"/>
<polygon fill="#63b8ff" stroke="#63b8ff" points="345.18,-902.69 354.71,-898.06 344.38,-895.74 345.18,-902.69"/>
</a>
</g>
</g>
<!-- Node79 -->
<g id="Node000079" class="node">
<title>Node79</title>
<g id="a_Node000079"><a xlink:href="render__objects_8c.html#a91178d2562551232deed087f59325a1e" target="_top" xlink:title=" ">
<polygon fill="#fff0f0" stroke="red" points="301,-882 209,-882 209,-863 301,-863 301,-882"/>
<text text-anchor="middle" x="255" y="-870" font-family="Helvetica,sans-Serif" font-size="10.00">func_800482AC</text>
</a>
</g>
</g>
<!-- Node3&#45;&gt;Node79 -->
<g id="edge19_Node000003_Node000079" class="edge">
<title>Node3&#45;&gt;Node79</title>
<g id="a_edge19_Node000003_Node000079"><a xlink:title=" ">
<path fill="none" stroke="#63b8ff" d="M344.57,-882.22C329.82,-880.6 314.79,-878.95 301.39,-877.48"/>
<polygon fill="#63b8ff" stroke="#63b8ff" points="344.39,-885.72 354.71,-883.33 345.15,-878.76 344.39,-885.72"/>
</a>
</g>
</g>
<!-- Node81 -->
<g id="Node000081" class="node">
<title>Node81</title>
<g id="a_Node000081"><a xlink:href="render__objects_8c.html#a5a6e10cbfda4dc8f12e67cfc05183ccb" target="_top" xlink:title=" ">
<polygon fill="#fff0f0" stroke="red" points="301,-845 209,-845 209,-826 301,-826 301,-845"/>
<text text-anchor="middle" x="255" y="-833" font-family="Helvetica,sans-Serif" font-size="10.00">func_800483B4</text>
</a>
</g>
</g>
<!-- Node3&#45;&gt;Node81 -->
<g id="edge20_Node000003_Node000081" class="edge">
<title>Node3&#45;&gt;Node81</title>
<g id="a_edge20_Node000003_Node000081"><a xlink:title=" ">
<path fill="none" stroke="#63b8ff" d="M369.18,-871.83C353.18,-866.1 335.4,-859.89 319,-854.5 309.23,-851.29 298.55,-847.99 288.79,-845.06"/>
<polygon fill="#63b8ff" stroke="#63b8ff" points="368.29,-875.23 378.88,-875.32 370.66,-868.64 368.29,-875.23"/>
</a>
</g>
</g>
<!-- Node83 -->
<g id="Node000083" class="node">
<title>Node83</title>
<g id="a_Node000083"><a xlink:href="render__objects_8c.html#a577b767fc17b228d27b5ed698eb1c8ad" target="_top" xlink:title=" ">
<polygon fill="#fff0f0" stroke="red" points="301,-808 209,-808 209,-789 301,-789 301,-808"/>
<text text-anchor="middle" x="255" y="-796" font-family="Helvetica,sans-Serif" font-size="10.00">func_800484BC</text>
</a>
</g>
</g>
<!-- Node3&#45;&gt;Node83 -->
<g id="edge21_Node000003_Node000083" class="edge">
<title>Node3&#45;&gt;Node83</title>
<g id="a_edge21_Node000003_Node000083"><a xlink:title=" ">
<path fill="none" stroke="#63b8ff" d="M395.11,-868.87C375.54,-852.8 347,-831.35 319,-817.5 311.52,-813.8 303.19,-810.67 295.09,-808.08"/>
<polygon fill="#63b8ff" stroke="#63b8ff" points="393,-871.66 402.92,-875.39 397.48,-866.29 393,-871.66"/>
</a>
</g>
</g>
<!-- Node87 -->
<g id="Node000087" class="node">
<title>Node87</title>
<g id="a_Node000087"><a xlink:href="render__objects_8c.html#a5ea915e2b61a3fc53a83969a86841a9f" target="_top" xlink:title=" ">
<polygon fill="#fff0f0" stroke="red" points="300.5,-771 209.5,-771 209.5,-752 300.5,-752 300.5,-771"/>
<text text-anchor="middle" x="255" y="-759" font-family="Helvetica,sans-Serif" font-size="10.00">func_80048540</text>
</a>
</g>
</g>
<!-- Node3&#45;&gt;Node87 -->
<g id="edge22_Node000003_Node000087" class="edge">
<title>Node3&#45;&gt;Node87</title>
<g id="a_edge22_Node000003_Node000087"><a xlink:title=" ">
<path fill="none" stroke="#63b8ff" d="M404.16,-866.79C386.29,-841.83 354.99,-803.09 319,-780.5 312.9,-776.67 305.99,-773.58 299.04,-771.09"/>
<polygon fill="#63b8ff" stroke="#63b8ff" points="401.51,-869.12 410.11,-875.31 407.25,-865.11 401.51,-869.12"/>
</a>
</g>
</g>
<!-- Node90 -->
<g id="Node000090" class="node">
<title>Node90</title>
<g id="a_Node000090"><a xlink:href="render__objects_8c.html#a7f21a1863237d7a23fd0d1381722477d" target="_top" xlink:title=" ">
<polygon fill="white" stroke="#666666" points="301,-734 209,-734 209,-715 301,-715 301,-734"/>
<text text-anchor="middle" x="255" y="-722" font-family="Helvetica,sans-Serif" font-size="10.00">func_800485C4</text>
</a>
</g>
</g>
<!-- Node3&#45;&gt;Node90 -->
<g id="edge23_Node000003_Node000090" class="edge">
<title>Node3&#45;&gt;Node90</title>
<g id="a_edge23_Node000003_Node000090"><a xlink:title=" ">
<path fill="none" stroke="#63b8ff" d="M409.42,-865.72C394.18,-832.95 362.96,-775.61 319,-743.5 313.65,-739.59 307.49,-736.48 301.16,-734"/>
<polygon fill="#63b8ff" stroke="#63b8ff" points="406.33,-867.37 413.63,-875.04 412.7,-864.49 406.33,-867.37"/>
</a>
</g>
</g>
<!-- Node91 -->
<g id="Node000091" class="node">
<title>Node91</title>
<g id="a_Node000091"><a xlink:href="render__objects_8c.html#a8e71bb2a914da25c9767d72707665f58" target="_top" xlink:title=" ">
<polygon fill="#fff0f0" stroke="red" points="301.5,-697 208.5,-697 208.5,-678 301.5,-678 301.5,-697"/>
<text text-anchor="middle" x="255" y="-685" font-family="Helvetica,sans-Serif" font-size="10.00">func_800563DC</text>
</a>
</g>
</g>
<!-- Node3&#45;&gt;Node91 -->
<g id="edge25_Node000003_Node000091" class="edge">
<title>Node3&#45;&gt;Node91</title>
<g id="a_edge25_Node000003_Node000091"><a xlink:title=" ">
<path fill="none" stroke="#63b8ff" d="M413.08,-865.66C400.79,-826.1 371.38,-748.93 319,-706.5 313.85,-702.33 307.8,-699.07 301.52,-696.53"/>
<polygon fill="#63b8ff" stroke="#63b8ff" points="409.75,-866.74 415.97,-875.32 416.46,-864.73 409.75,-866.74"/>
</a>
</g>
</g>
<!-- Node96 -->
<g id="Node000096" class="node">
<title>Node96</title>
<g id="a_Node000096"><a xlink:href="classPlayerBombKart.html#ab3bf9332abcce97183126cb5a7bce075" target="_top" xlink:title=" ">
<polygon fill="#fff0f0" stroke="red" points="316.5,-659.5 193.5,-659.5 193.5,-629.5 316.5,-629.5 316.5,-659.5"/>
<text text-anchor="start" x="201.5" y="-647.5" font-family="Helvetica,sans-Serif" font-size="10.00">PlayerBombKart::func</text>
<text text-anchor="middle" x="255" y="-636.5" font-family="Helvetica,sans-Serif" font-size="10.00">_800563DC</text>
</a>
</g>
</g>
<!-- Node3&#45;&gt;Node96 -->
<g id="edge26_Node000003_Node000096" class="edge">
<title>Node3&#45;&gt;Node96</title>
<g id="a_edge26_Node000003_Node000096"><a xlink:title=" ">
<path fill="none" stroke="#63b8ff" d="M415.02,-865.52C404.8,-820.42 377.32,-724.92 319,-669.5 314.99,-665.69 310.33,-662.44 305.39,-659.66"/>
<polygon fill="#63b8ff" stroke="#63b8ff" points="411.61,-866.32 417.16,-875.35 418.45,-864.84 411.61,-866.32"/>
</a>
</g>
</g>
<!-- Node5 -->
<g id="Node000005" class="node">
<title>Node5</title>
<g id="a_Node000005"><a xlink:href="classOCrab.html#a71a7d61fe580c22650d08446177f0d69" target="_top" xlink:title=" ">
<polygon fill="white" stroke="#666666" points="116.5,-1307 38.5,-1307 38.5,-1288 116.5,-1288 116.5,-1307"/>
<text text-anchor="middle" x="77.5" y="-1295" font-family="Helvetica,sans-Serif" font-size="10.00">OCrab::Draw</text>
</a>
</g>
</g>
<!-- Node4&#45;&gt;Node5 -->
<g id="edge4_Node000004_Node000005" class="edge">
<title>Node4&#45;&gt;Node5</title>
<g id="a_edge4_Node000004_Node000005"><a xlink:title=" ">
<path fill="none" stroke="#63b8ff" d="M236.81,-1221.88C218.13,-1238.79 186.68,-1264.72 155,-1279.5 143.13,-1285.04 129.4,-1288.95 116.88,-1291.68"/>
<polygon fill="#63b8ff" stroke="#63b8ff" points="239.25,-1224.39 244.23,-1215.03 234.51,-1219.25 239.25,-1224.39"/>
</a>
</g>
</g>
<!-- Node6 -->
<g id="Node000006" class="node">
<title>Node6</title>
<g id="a_Node000006"><a xlink:href="classOLakitu.html#acf4c307ecb7d50a557cff7e4e9fc22d2" target="_top" xlink:title=" ">
<polygon fill="white" stroke="#666666" points="120.5,-919 34.5,-919 34.5,-900 120.5,-900 120.5,-919"/>
<text text-anchor="middle" x="77.5" y="-907" font-family="Helvetica,sans-Serif" font-size="10.00">OLakitu::Draw</text>
</a>
</g>
</g>
<!-- Node4&#45;&gt;Node6 -->
<g id="edge5_Node000004_Node000006" class="edge">
<title>Node4&#45;&gt;Node6</title>
<g id="a_edge5_Node000004_Node000006"><a xlink:title=" ">
<path fill="none" stroke="#63b8ff" d="M194.63,-1190.48C193.37,-1189.55 192.16,-1188.55 191,-1187.5 158.27,-1157.62 171.47,-1135.65 155,-1094.5 128.01,-1027.06 94.1,-946.43 82.56,-919.1"/>
<polygon fill="#63b8ff" stroke="#63b8ff" points="193.18,-1193.69 203.55,-1195.85 196.79,-1187.7 193.18,-1193.69"/>
</a>
</g>
</g>
<!-- Node7 -->
<g id="Node000007" class="node">
<title>Node7</title>
<g id="a_Node000007"><a xlink:href="classOSnowman.html#a6a4b52c8ea89554b32436640a1c9dd80" target="_top" xlink:title=" ">
<polygon fill="#fff0f0" stroke="red" points="142,-1270 13,-1270 13,-1251 142,-1251 142,-1270"/>
<text text-anchor="middle" x="77.5" y="-1258" font-family="Helvetica,sans-Serif" font-size="10.00">OSnowman::DrawHead</text>
</a>
</g>
</g>
<!-- Node4&#45;&gt;Node7 -->
<g id="edge6_Node000004_Node000007" class="edge">
<title>Node4&#45;&gt;Node7</title>
<g id="a_edge6_Node000004_Node000007"><a xlink:title=" ">
<path fill="none" stroke="#63b8ff" d="M221.62,-1218.79C202.45,-1226.35 177.58,-1235.65 155,-1242.5 144.82,-1245.59 133.74,-1248.46 123.25,-1250.97"/>
<polygon fill="#63b8ff" stroke="#63b8ff" points="223.09,-1221.97 231.08,-1215.01 220.49,-1215.47 223.09,-1221.97"/>
</a>
</g>
</g>
<!-- Node9 -->
<g id="Node000009" class="node">
<title>Node9</title>
<g id="a_Node000009"><a xlink:href="classOCrab.html#a1342716f34378e4700baae3df702d294" target="_top" xlink:title=" ">
<polygon fill="white" stroke="#666666" points="131.5,-1233 23.5,-1233 23.5,-1214 131.5,-1214 131.5,-1233"/>
<text text-anchor="middle" x="77.5" y="-1221" font-family="Helvetica,sans-Serif" font-size="10.00">OCrab::DrawModel</text>
</a>
</g>
</g>
<!-- Node4&#45;&gt;Node9 -->
<g id="edge7_Node000004_Node000009" class="edge">
<title>Node4&#45;&gt;Node9</title>
<g id="a_edge7_Node000004_Node000009"><a xlink:title=" ">
<path fill="none" stroke="#63b8ff" d="M188.51,-1212.22C169.73,-1214.14 149.5,-1216.22 131.57,-1218.06"/>
<polygon fill="#63b8ff" stroke="#63b8ff" points="188.88,-1215.7 198.47,-1211.2 188.17,-1208.73 188.88,-1215.7"/>
</a>
</g>
</g>
<!-- Node10 -->
<g id="Node000010" class="node">
<title>Node10</title>
<g id="a_Node000010"><a xlink:href="render__objects_8c.html#aaac6f874f1336d214244acfa64e3ac66" target="_top" xlink:title=" ">
<polygon fill="white" stroke="#666666" points="123.5,-1196 31.5,-1196 31.5,-1177 123.5,-1177 123.5,-1196"/>
<text text-anchor="middle" x="77.5" y="-1184" font-family="Helvetica,sans-Serif" font-size="10.00">func_80048C3C</text>
</a>
</g>
</g>
<!-- Node4&#45;&gt;Node10 -->
<g id="edge8_Node000004_Node000010" class="edge">
<title>Node4&#45;&gt;Node10</title>
<g id="a_edge8_Node000004_Node000010"><a xlink:title=" ">
<path fill="none" stroke="#63b8ff" d="M188.4,-1198.4C166.84,-1196.06 143.38,-1193.52 123.7,-1191.39"/>
<polygon fill="#63b8ff" stroke="#63b8ff" points="188.15,-1201.89 198.47,-1199.49 188.91,-1194.93 188.15,-1201.89"/>
</a>
</g>
</g>
<!-- Node11 -->
<g id="Node000011" class="node">
<title>Node11</title>
<g id="a_Node000011"><a xlink:href="render__objects_8c.html#af4a47171ed4ccb8d47e975ee34655494" target="_top" xlink:title=" ">
<polygon fill="white" stroke="#666666" points="123,-1159 32,-1159 32,-1140 123,-1140 123,-1159"/>
<text text-anchor="middle" x="77.5" y="-1147" font-family="Helvetica,sans-Serif" font-size="10.00">func_80048F38</text>
</a>
</g>
</g>
<!-- Node4&#45;&gt;Node11 -->
<g id="edge9_Node000004_Node000011" class="edge">
<title>Node4&#45;&gt;Node11</title>
<g id="a_edge9_Node000004_Node000011"><a xlink:title=" ">
<path fill="none" stroke="#63b8ff" d="M206.07,-1192.94C200.93,-1191.26 195.82,-1189.44 191,-1187.5 174.21,-1180.76 171.9,-1174.95 155,-1168.5 144.9,-1164.65 133.75,-1161.36 123.16,-1158.66"/>
<polygon fill="#63b8ff" stroke="#63b8ff" points="205.34,-1196.38 215.93,-1196 207.41,-1189.69 205.34,-1196.38"/>
</a>
</g>
</g>
<!-- Node12 -->
<g id="Node000012" class="node">
<title>Node12</title>
<g id="a_Node000012"><a xlink:href="classOHedgehog.html#a65bd4c41d64eacf258c6ea830a1311f3" target="_top" xlink:title=" ">
<polygon fill="#fff0f0" stroke="red" points="155,-1122 0,-1122 0,-1103 155,-1103 155,-1122"/>
<text text-anchor="middle" x="77.5" y="-1110" font-family="Helvetica,sans-Serif" font-size="10.00">OHedgehog::func_800555BC</text>
</a>
</g>
</g>
<!-- Node4&#45;&gt;Node12 -->
<g id="edge10_Node000004_Node000012" class="edge">
<title>Node4&#45;&gt;Node12</title>
<g id="a_edge10_Node000004_Node000012"><a xlink:title=" ">
<path fill="none" stroke="#63b8ff" d="M196.84,-1191.33C194.81,-1190.15 192.85,-1188.88 191,-1187.5 167.25,-1169.86 179.06,-1148.73 155,-1131.5 149.55,-1127.6 143.38,-1124.49 136.97,-1122.02"/>
<polygon fill="#63b8ff" stroke="#63b8ff" points="195.62,-1194.62 206.14,-1195.88 198.7,-1188.34 195.62,-1194.62"/>
</a>
</g>
</g>
<!-- Node90&#45;&gt;Node6 -->
<g id="edge24_Node000090_Node000006" class="edge">
<title>Node90&#45;&gt;Node6</title>
<g id="a_edge24_Node000090_Node000006"><a xlink:title=" ">
<path fill="none" stroke="#63b8ff" d="M199.54,-738.19C196.54,-739.78 193.67,-741.54 191,-743.5 131.82,-787.02 93.77,-871.57 82.22,-899.95"/>
<polygon fill="#63b8ff" stroke="#63b8ff" points="201.16,-741.3 208.82,-733.97 198.26,-734.93 201.16,-741.3"/>
</a>
</g>
</g>
<!-- Node99 -->
<g id="Node000099" class="node">
<title>Node99</title>
<g id="a_Node000099"><a xlink:href="render__objects_8c.html#ac444c21ee2078da42a70d54c4ec9da61" target="_top" xlink:title=" ">
<polygon fill="#fff0f0" stroke="red" points="301,-611 209,-611 209,-592 301,-592 301,-611"/>
<text text-anchor="middle" x="255" y="-599" font-family="Helvetica,sans-Serif" font-size="10.00">func_8004788C</text>
</a>
</g>
</g>
<!-- Node98&#45;&gt;Node99 -->
<g id="edge28_Node000098_Node000099" class="edge">
<title>Node98&#45;&gt;Node99</title>
<g id="a_edge28_Node000098_Node000099"><a xlink:title=" ">
<path fill="none" stroke="#63b8ff" d="M413.76,-435.61C401.4,-470.41 370.48,-544.16 319,-583.5 313.67,-587.58 307.45,-590.73 301.03,-593.17"/>
<polygon fill="#63b8ff" stroke="#63b8ff" points="417.07,-436.74 417,-426.14 410.45,-434.47 417.07,-436.74"/>
</a>
</g>
</g>
<!-- Node105 -->
<g id="Node000105" class="node">
<title>Node105</title>
<g id="a_Node000105"><a xlink:href="render__objects_8c.html#a62d40457c9cad67a3b4ac53f4810f053" target="_top" xlink:title=" ">
<polygon fill="#fff0f0" stroke="red" points="301,-574 209,-574 209,-555 301,-555 301,-574"/>
<text text-anchor="middle" x="255" y="-562" font-family="Helvetica,sans-Serif" font-size="10.00">func_80047A18</text>
</a>
</g>
</g>
<!-- Node98&#45;&gt;Node105 -->
<g id="edge29_Node000098_Node000105" class="edge">
<title>Node98&#45;&gt;Node105</title>
<g id="a_edge29_Node000098_Node000105"><a xlink:title=" ">
<path fill="none" stroke="#63b8ff" d="M410.51,-435.24C395.17,-463.62 362.23,-517.28 319,-546.5 313.63,-550.13 307.52,-553.04 301.28,-555.36"/>
<polygon fill="#63b8ff" stroke="#63b8ff" points="413.8,-436.5 415.35,-426.02 407.6,-433.24 413.8,-436.5"/>
</a>
</g>
</g>
<!-- Node108 -->
<g id="Node000108" class="node">
<title>Node108</title>
<g id="a_Node000108"><a xlink:href="render__objects_8c.html#a70b9ab2b3d5af8fcfcd7fb1a651396a9" target="_top" xlink:title=" ">
<polygon fill="#fff0f0" stroke="red" points="301,-537 209,-537 209,-518 301,-518 301,-537"/>
<text text-anchor="middle" x="255" y="-525" font-family="Helvetica,sans-Serif" font-size="10.00">func_80047B9C</text>
</a>
</g>
</g>
<!-- Node98&#45;&gt;Node108 -->
<g id="edge30_Node000098_Node000108" class="edge">
<title>Node98&#45;&gt;Node108</title>
<g id="a_edge30_Node000098_Node000108"><a xlink:title=" ">
<path fill="none" stroke="#63b8ff" d="M405.59,-434.04C387.48,-454.96 354.45,-489.62 319,-509.5 312.95,-512.89 306.2,-515.69 299.44,-517.99"/>
<polygon fill="#63b8ff" stroke="#63b8ff" points="408.4,-436.13 412.19,-426.24 403.06,-431.61 408.4,-436.13"/>
</a>
</g>
</g>
<!-- Node110 -->
<g id="Node000110" class="node">
<title>Node110</title>
<g id="a_Node000110"><a xlink:href="render__objects_8c.html#a11b93b94f668a841d51489531a6fc963" target="_top" xlink:title=" ">
<polygon fill="#fff0f0" stroke="red" points="301,-500 209,-500 209,-481 301,-481 301,-500"/>
<text text-anchor="middle" x="255" y="-488" font-family="Helvetica,sans-Serif" font-size="10.00">func_80047CB4</text>
</a>
</g>
</g>
<!-- Node98&#45;&gt;Node110 -->
<g id="edge31_Node000098_Node000110" class="edge">
<title>Node98&#45;&gt;Node110</title>
<g id="a_edge31_Node000098_Node000110"><a xlink:title=" ">
<path fill="none" stroke="#63b8ff" d="M396.42,-431.6C376.43,-443.9 346.67,-461.05 319,-472.5 311.33,-475.67 302.91,-478.5 294.79,-480.92"/>
<polygon fill="#63b8ff" stroke="#63b8ff" points="398.51,-434.42 405.14,-426.16 394.8,-428.48 398.51,-434.42"/>
</a>
</g>
</g>
<!-- Node112 -->
<g id="Node000112" class="node">
<title>Node112</title>
<g id="a_Node000112"><a xlink:href="render__objects_8c.html#a7c2491c5079ac52653c15d40bd4fe849" target="_top" xlink:title=" ">
<polygon fill="white" stroke="#666666" points="302,-463 208,-463 208,-444 302,-444 302,-463"/>
<text text-anchor="middle" x="255" y="-451" font-family="Helvetica,sans-Serif" font-size="10.00">func_80047DCC</text>
</a>
</g>
</g>
<!-- Node98&#45;&gt;Node112 -->
<g id="edge32_Node000098_Node000112" class="edge">
<title>Node98&#45;&gt;Node112</title>
<g id="a_edge32_Node000098_Node000112"><a xlink:title=" ">
<path fill="none" stroke="#63b8ff" d="M367.75,-428.29C345.36,-433.34 319.55,-439.16 298.38,-443.94"/>
<polygon fill="#63b8ff" stroke="#63b8ff" points="368.78,-431.64 377.77,-426.03 367.24,-424.82 368.78,-431.64"/>
</a>
</g>
</g>
<!-- Node113 -->
<g id="Node000113" class="node">
<title>Node113</title>
<g id="a_Node000113"><a xlink:href="render__objects_8c.html#a9dbb20204cf9176cfeec66efa7a22e0b" target="_top" xlink:title=" ">
<polygon fill="white" stroke="#666666" points="301,-426 209,-426 209,-407 301,-407 301,-426"/>
<text text-anchor="middle" x="255" y="-414" font-family="Helvetica,sans-Serif" font-size="10.00">func_80047EC4</text>
</a>
</g>
</g>
<!-- Node98&#45;&gt;Node113 -->
<g id="edge33_Node000098_Node000113" class="edge">
<title>Node98&#45;&gt;Node113</title>
<g id="a_edge33_Node000098_Node000113"><a xlink:title=" ">
<path fill="none" stroke="#63b8ff" d="M364.91,-416.5C344.14,-416.5 320.79,-416.5 301.04,-416.5"/>
<polygon fill="#63b8ff" stroke="#63b8ff" points="365.19,-420 375.19,-416.5 365.19,-413 365.19,-420"/>
</a>
</g>
</g>
<!-- Node114 -->
<g id="Node000114" class="node">
<title>Node114</title>
<g id="a_Node000114"><a xlink:href="render__objects_8c.html#a0f506bac7d9077d130368f59aa040e45" target="_top" xlink:title=" ">
<polygon fill="white" stroke="#666666" points="300.5,-389 209.5,-389 209.5,-370 300.5,-370 300.5,-389"/>
<text text-anchor="middle" x="255" y="-377" font-family="Helvetica,sans-Serif" font-size="10.00">func_80048038</text>
</a>
</g>
</g>
<!-- Node98&#45;&gt;Node114 -->
<g id="edge34_Node000098_Node000114" class="edge">
<title>Node98&#45;&gt;Node114</title>
<g id="a_edge34_Node000098_Node000114"><a xlink:title=" ">
<path fill="none" stroke="#63b8ff" d="M367.75,-404.71C345.36,-399.66 319.55,-393.84 298.38,-389.06"/>
<polygon fill="#63b8ff" stroke="#63b8ff" points="367.24,-408.18 377.77,-406.97 368.78,-401.36 367.24,-408.18"/>
</a>
</g>
</g>
<!-- Node115 -->
<g id="Node000115" class="node">
<title>Node115</title>
<g id="a_Node000115"><a xlink:href="render__objects_8c.html#a52e219df24b6bd4433f7faf09ef387ff" target="_top" xlink:title=" ">
<polygon fill="white" stroke="#666666" points="300.5,-352 209.5,-352 209.5,-333 300.5,-333 300.5,-352"/>
<text text-anchor="middle" x="255" y="-340" font-family="Helvetica,sans-Serif" font-size="10.00">func_80048228</text>
</a>
</g>
</g>
<!-- Node98&#45;&gt;Node115 -->
<g id="edge35_Node000098_Node000115" class="edge">
<title>Node98&#45;&gt;Node115</title>
<g id="a_edge35_Node000098_Node000115"><a xlink:title=" ">
<path fill="none" stroke="#63b8ff" d="M395.99,-401.59C375.96,-389.6 346.35,-372.93 319,-361.5 310.57,-357.98 301.25,-354.8 292.43,-352.1"/>
<polygon fill="#63b8ff" stroke="#63b8ff" points="394.38,-404.71 404.75,-406.9 398.01,-398.72 394.38,-404.71"/>
</a>
</g>
</g>
<!-- Node116 -->
<g id="Node000116" class="node">
<title>Node116</title>
<g id="a_Node000116"><a xlink:href="render__objects_8c.html#af452dd0b6e993f7ef73acb7292b2a916" target="_top" xlink:title=" ">
<polygon fill="white" stroke="#666666" points="300.5,-315 209.5,-315 209.5,-296 300.5,-296 300.5,-315"/>
<text text-anchor="middle" x="255" y="-303" font-family="Helvetica,sans-Serif" font-size="10.00">func_80048330</text>
</a>
</g>
</g>
<!-- Node98&#45;&gt;Node116 -->
<g id="edge36_Node000098_Node000116" class="edge">
<title>Node98&#45;&gt;Node116</title>
<g id="a_edge36_Node000098_Node000116"><a xlink:title=" ">
<path fill="none" stroke="#63b8ff" d="M405.5,-399.25C387.3,-378.64 354.18,-344.45 319,-324.5 312.34,-320.72 304.85,-317.62 297.43,-315.1"/>
<polygon fill="#63b8ff" stroke="#63b8ff" points="402.95,-401.65 412.14,-406.92 408.24,-397.07 402.95,-401.65"/>
</a>
</g>
</g>
<!-- Node117 -->
<g id="Node000117" class="node">
<title>Node117</title>
<g id="a_Node000117"><a xlink:href="render__objects_8c.html#ad2b1c78e52c101f25b06937f591f6d1b" target="_top" xlink:title=" ">
<polygon fill="white" stroke="#666666" points="300.5,-278 209.5,-278 209.5,-259 300.5,-259 300.5,-278"/>
<text text-anchor="middle" x="255" y="-266" font-family="Helvetica,sans-Serif" font-size="10.00">func_80048438</text>
</a>
</g>
</g>
<!-- Node98&#45;&gt;Node117 -->
<g id="edge37_Node000098_Node000117" class="edge">
<title>Node98&#45;&gt;Node117</title>
<g id="a_edge37_Node000098_Node000117"><a xlink:title=" ">
<path fill="none" stroke="#63b8ff" d="M410.19,-397.57C394.64,-369.41 361.66,-316.67 319,-287.5 313.34,-283.63 306.88,-280.53 300.29,-278.05"/>
<polygon fill="#63b8ff" stroke="#63b8ff" points="407.31,-399.59 415.12,-406.75 413.47,-396.28 407.31,-399.59"/>
</a>
</g>
</g>
<!-- Node119 -->
<g id="Node000119" class="node">
<title>Node119</title>
<g id="a_Node000119"><a xlink:href="render__objects_8c.html#a7f59c9fc017e21ff5274a8d698f074b1" target="_top" xlink:title=" ">
<polygon fill="white" stroke="#666666" points="301,-241 209,-241 209,-222 301,-222 301,-241"/>
<text text-anchor="middle" x="255" y="-229" font-family="Helvetica,sans-Serif" font-size="10.00">func_80047B20</text>
</a>
</g>
</g>
<!-- Node118&#45;&gt;Node119 -->
<g id="edge39_Node000118_Node000119" class="edge">
<title>Node118&#45;&gt;Node119</title>
<g id="a_edge39_Node000118_Node000119"><a xlink:title=" ">
<path fill="none" stroke="#63b8ff" d="M367.75,-206.29C345.36,-211.34 319.55,-217.16 298.38,-221.94"/>
<polygon fill="#63b8ff" stroke="#63b8ff" points="368.78,-209.64 377.77,-204.03 367.24,-202.82 368.78,-209.64"/>
</a>
</g>
</g>
<!-- Node120 -->
<g id="Node000120" class="node">
<title>Node120</title>
<g id="a_Node000120"><a xlink:href="render__objects_8c.html#ae171e74d7c1846e12e902710c49c20fd" target="_top" xlink:title=" ">
<polygon fill="white" stroke="#666666" points="301,-204 209,-204 209,-185 301,-185 301,-204"/>
<text text-anchor="middle" x="255" y="-192" font-family="Helvetica,sans-Serif" font-size="10.00">func_800481B4</text>
</a>
</g>
</g>
<!-- Node118&#45;&gt;Node120 -->
<g id="edge40_Node000118_Node000120" class="edge">
<title>Node118&#45;&gt;Node120</title>
<g id="a_edge40_Node000118_Node000120"><a xlink:title=" ">
<path fill="none" stroke="#63b8ff" d="M364.53,-194.5C343.88,-194.5 320.71,-194.5 301.1,-194.5"/>
<polygon fill="#63b8ff" stroke="#63b8ff" points="364.75,-198 374.75,-194.5 364.75,-191 364.75,-198"/>
</a>
</g>
</g>
<!-- Node122 -->
<g id="Node000122" class="node">
<title>Node122</title>
<g id="a_Node000122"><a xlink:href="render__objects_8c.html#a38493fda23503b6c3d4be25319ad025f" target="_top" xlink:title=" ">
<polygon fill="#fff0f0" stroke="red" points="300.5,-167 209.5,-167 209.5,-148 300.5,-148 300.5,-167"/>
<text text-anchor="middle" x="255" y="-155" font-family="Helvetica,sans-Serif" font-size="10.00">func_8004E240</text>
</a>
</g>
</g>
<!-- Node121&#45;&gt;Node122 -->
<g id="edge42_Node000121_Node000122" class="edge">
<title>Node121&#45;&gt;Node122</title>
<g id="a_edge42_Node000121_Node000122"><a xlink:title=" ">
<path fill="none" stroke="#63b8ff" d="M364.06,-157.5C343.35,-157.5 320.16,-157.5 300.59,-157.5"/>
<polygon fill="#63b8ff" stroke="#63b8ff" points="364.32,-161 374.32,-157.5 364.32,-154 364.32,-161"/>
</a>
</g>
</g>
<!-- Node139 -->
<g id="Node000139" class="node">
<title>Node139</title>
<g id="a_Node000139"><a xlink:href="render__objects_8c.html#a17f9b05a746ef42ad0faca7d579356cd" target="_top" xlink:title=" ">
<polygon fill="#fff0f0" stroke="red" points="301,-130 209,-130 209,-111 301,-111 301,-130"/>
<text text-anchor="middle" x="255" y="-118" font-family="Helvetica,sans-Serif" font-size="10.00">func_8004E2B8</text>
</a>
</g>
</g>
<!-- Node121&#45;&gt;Node139 -->
<g id="edge43_Node000121_Node000139" class="edge">
<title>Node121&#45;&gt;Node139</title>
<g id="a_edge43_Node000121_Node000139"><a xlink:title=" ">
<path fill="none" stroke="#63b8ff" d="M367.75,-145.71C345.36,-140.66 319.55,-134.84 298.38,-130.06"/>
<polygon fill="#63b8ff" stroke="#63b8ff" points="367.24,-149.18 377.77,-147.97 368.78,-142.36 367.24,-149.18"/>
</a>
</g>
</g>
<!-- Node143 -->
<g id="Node000143" class="node">
<title>Node143</title>
<g id="a_Node000143"><a xlink:href="render__objects_8c.html#aaab3d66e866737e450b04b2efc376b7d" target="_top" xlink:title=" ">
<polygon fill="#fff0f0" stroke="red" points="300.5,-93 209.5,-93 209.5,-74 300.5,-74 300.5,-93"/>
<text text-anchor="middle" x="255" y="-81" font-family="Helvetica,sans-Serif" font-size="10.00">func_8004E338</text>
</a>
</g>
</g>
<!-- Node142&#45;&gt;Node143 -->
<g id="edge45_Node000142_Node000143" class="edge">
<title>Node142&#45;&gt;Node143</title>
<g id="a_edge45_Node000142_Node000143"><a xlink:title=" ">
<path fill="none" stroke="#63b8ff" d="M367.75,-108.71C345.36,-103.66 319.55,-97.84 298.38,-93.06"/>
<polygon fill="#63b8ff" stroke="#63b8ff" points="367.24,-112.18 377.77,-110.97 368.78,-105.36 367.24,-112.18"/>
</a>
</g>
</g>
<!-- Node146 -->
<g id="Node000146" class="node">
<title>Node146</title>
<g id="a_Node000146"><a xlink:href="render__objects_8c.html#aed285c112a16165b4c91395da0ae8889" target="_top" xlink:title=" ">
<polygon fill="#fff0f0" stroke="red" points="300.5,-56 209.5,-56 209.5,-37 300.5,-37 300.5,-56"/>
<text text-anchor="middle" x="255" y="-44" font-family="Helvetica,sans-Serif" font-size="10.00">func_80050320</text>
</a>
</g>
</g>
<!-- Node145&#45;&gt;Node146 -->
<g id="edge47_Node000145_Node000146" class="edge">
<title>Node145&#45;&gt;Node146</title>
<g id="a_edge47_Node000145_Node000146"><a xlink:title=" ">
<path fill="none" stroke="#63b8ff" d="M367.75,-71.71C345.36,-66.66 319.55,-60.84 298.38,-56.06"/>
<polygon fill="#63b8ff" stroke="#63b8ff" points="367.24,-75.18 377.77,-73.97 368.78,-68.36 367.24,-75.18"/>
</a>
</g>
</g>
<!-- Node150 -->
<g id="Node000150" class="node">
<title>Node150</title>
<g id="a_Node000150"><a xlink:href="classOSnowman.html#abb32ca3bd6c2d1e50779e2b58b94607f" target="_top" xlink:title=" ">
<polygon fill="#fff0f0" stroke="red" points="319,-19 191,-19 191,0 319,0 319,-19"/>
<text text-anchor="middle" x="255" y="-7" font-family="Helvetica,sans-Serif" font-size="10.00">OSnowman::DrawBody</text>
</a>
</g>
</g>
<!-- Node149&#45;&gt;Node150 -->
<g id="edge50_Node000149_Node000150" class="edge">
<title>Node149&#45;&gt;Node150</title>
<g id="a_edge50_Node000149_Node000150"><a xlink:title=" ">
<path fill="none" stroke="#63b8ff" d="M349.1,-9.5C339.12,-9.5 328.92,-9.5 319.1,-9.5"/>
<polygon fill="#63b8ff" stroke="#63b8ff" points="349.4,-13 359.4,-9.5 349.4,-6 349.4,-13"/>
</a>
</g>
</g>
</g>
</svg>

<g id="navigator" transform="translate(0 0)" fill="#404254">
  <rect fill="#f2f5e9" fill-opacity="0.5" stroke="#606060" stroke-width=".5" x="0" y="0" width="60" height="60"/>
  <use id="zoomplus" xlink:href="#zoomPlus" x="17" y="9" onmousedown="handleZoom(evt,'in')"/>
  <use id="zoomminus" xlink:href="#zoomMin" x="42" y="9" onmousedown="handleZoom(evt,'out')"/>
  <use id="reset" xlink:href="#resetDef" x="30" y="36" onmousedown="handleReset()"/>
   <use id="arrowup" xlink:href="#arrowUp" x="0" y="0" onmousedown="handlePan(0,-1)"/>
  <use id="arrowright" xlink:href="#arrowRight" x="0" y="0" onmousedown="handlePan(1,0)"/>
  <use id="arrowdown" xlink:href="#arrowDown" x="0" y="0" onmousedown="handlePan(0,1)"/>
  <use id="arrowleft" xlink:href="#arrowLeft" x="0" y="0" onmousedown="handlePan(-1,0)"/>
</g>
<svg viewBox="0 0 15 15" width="100%" height="30px" preserveAspectRatio="xMaxYMin meet">
 <g id="arrow_out" transform="scale(0.3 0.3)">
  <a xlink:href="render__objects_8h_ae93fb428bd6756747edd360e2ae6ebe0_icgraph_org.svg" target="_base">
   <rect id="button" ry="5" rx="5" y="6" x="6" height="38" width="38"
        fill="#f2f5e9" fill-opacity="0.5" stroke="#606060" stroke-width="1.0"/>
   <path id="arrow"
     d="M 11.500037,31.436501 C 11.940474,20.09759 22.043105,11.32322 32.158766,21.979434 L 37.068811,17.246167 C 37.068811,17.246167 37.088388,32 37.088388,32 L 22.160133,31.978069 C 22.160133,31.978069 26.997745,27.140456 26.997745,27.140456 C 18.528582,18.264221 13.291696,25.230495 11.500037,31.436501 z"
     style="fill:#404040;"/>
  </a>
 </g>
</svg>

<style type='text/css'>
<![CDATA[
[data-mouse-over-selected='false'] { opacity: 0.7; }
[data-mouse-over-selected='true']  { opacity: 1.0; }
]]>
</style>
<script type="application/ecmascript"><![CDATA[
document.addEventListener('DOMContentLoaded', (event) => {
  highlightEdges();
  highlightAdjacentNodes();
});
]]></script>
</svg>
