<?xml version="1.0" encoding="UTF-8" standalone="no"?>
<!DOCTYPE svg PUBLIC "-//W3C//DTD SVG 1.1//EN"
 "http://www.w3.org/Graphics/SVG/1.1/DTD/svg11.dtd">
<!-- Generated by graphviz version 2.43.0 (0)
 -->
<!-- Title: rsp_load_texture Pages: 1 -->
<!--zoomable 1298 -->

<svg id="main" version="1.1" xmlns="http://www.w3.org/2000/svg" xmlns:xlink="http://www.w3.org/1999/xlink" xml:space="preserve" onload="init(evt)">

<style type="text/css"><![CDATA[
.node, .edge {opacity: 0.7;}
.node.selected, .edge.selected {opacity: 1;}
.edge:hover path { stroke: red; }
.edge:hover polygon { stroke: red; fill: red; }
]]></style>

<defs>
  <circle id="rim" cx="0" cy="0" r="7"/>
  <circle id="rim2" cx="0" cy="0" r="3.5"/>
  <g id="zoomPlus">
    <use xlink:href="#rim" fill="#404040"><set attributeName="fill" to="#808080" begin="zoomplus.mouseover" end="zoomplus.mouseout"/></use>
    <path d="M-4,0h8M0,-4v8" fill="none" stroke="white" stroke-width="1.5" pointer-events="none"/>
  </g>
  <g id="zoomMin">
    <use xlink:href="#rim" fill="#404040"><set attributeName="fill" to="#808080" begin="zoomminus.mouseover" end="zoomminus.mouseout"/></use>
    <path d="M-4,0h8" fill="none" stroke="white" stroke-width="1.5" pointer-events="none"/>
  </g>
  <g id="arrowUp" transform="translate(30 24)">
    <use xlink:href="#rim"/>
    <path pointer-events="none" fill="none" stroke="white" stroke-width="1.5" d="M0,-3.0v7 M-2.5,-0.5L0,-3.0L2.5,-0.5"/>
  </g>
  <g id="arrowRight" transform="rotate(90) translate(36 -43)">
    <use xlink:href="#rim"/>
    <path pointer-events="none" fill="none" stroke="white" stroke-width="1.5" d="M0,-3.0v7 M-2.5,-0.5L0,-3.0L2.5,-0.5"/>
  </g>
  <g id="arrowDown" transform="rotate(180) translate(-30 -48)">
    <use xlink:href="#rim"/>
    <path pointer-events="none" fill="none" stroke="white" stroke-width="1.5" d="M0,-3.0v7 M-2.5,-0.5L0,-3.0L2.5,-0.5"/>
  </g>
  <g id="arrowLeft" transform="rotate(270) translate(-36 17)">
    <use xlink:href="#rim"/>
    <path pointer-events="none" fill="none" stroke="white" stroke-width="1.5" d="M0,-3.0v7 M-2.5,-0.5L0,-3.0L2.5,-0.5"/>
  </g>
  <g id="resetDef">
    <use xlink:href="#rim2" fill="#404040"><set attributeName="fill" to="#808080" begin="reset.mouseover" end="reset.mouseout"/></use>
  </g>
</defs>
<script type="application/ecmascript">
var viewWidth = 579;
var viewHeight = 1298;
var sectionId = 'dynsection-434';
</script>
<script type="application/ecmascript" xlink:href="svg.min.js"/>
<svg id="graph" class="graph">
<g id="viewport">
<title>rsp_load_texture</title>
<!-- Node1 -->
<g id="Node000001" class="node">
<title>Node1</title>
<g id="a_Node000001"><a xlink:title=" ">
<polygon fill="#999999" stroke="#666666" points="571,-389 473,-389 473,-370 571,-370 571,-389"/>
<text text-anchor="middle" x="522" y="-377" font-family="Helvetica,sans-Serif" font-size="10.00">rsp_load_texture</text>
</a>
</g>
</g>
<!-- Node2 -->
<g id="Node000002" class="node">
<title>Node2</title>
<g id="a_Node000002"><a xlink:href="classOCrab.html#a71a7d61fe580c22650d08446177f0d69" target="_top" xlink:title=" ">
<polygon fill="white" stroke="#666666" points="410,-1086 332,-1086 332,-1067 410,-1067 410,-1086"/>
<text text-anchor="middle" x="371" y="-1074" font-family="Helvetica,sans-Serif" font-size="10.00">OCrab::Draw</text>
</a>
</g>
</g>
<!-- Node1&#45;&gt;Node2 -->
<g id="edge1_Node000001_Node000002" class="edge">
<title>Node1&#45;&gt;Node2</title>
<g id="a_edge1_Node000001_Node000002"><a xlink:title=" ">
<path fill="none" stroke="#63b8ff" d="M521.36,-399.36C522.8,-500.21 524.32,-954.85 437,-1057.5 430.22,-1065.47 420.3,-1070.2 410.24,-1072.97"/>
<polygon fill="#63b8ff" stroke="#63b8ff" points="524.86,-399.26 521.2,-389.32 517.86,-399.37 524.86,-399.26"/>
</a>
</g>
</g>
<!-- Node3 -->
<g id="Node000003" class="node">
<title>Node3</title>
<g id="a_Node000003"><a xlink:href="classOGrandPrixBalloons.html#a29307fcadbf67dc9026e04f33055ece1" target="_top" xlink:title=" ">
<polygon fill="white" stroke="#666666" points="428,-1048.5 314,-1048.5 314,-1018.5 428,-1018.5 428,-1048.5"/>
<text text-anchor="start" x="322" y="-1036.5" font-family="Helvetica,sans-Serif" font-size="10.00">OGrandPrixBalloons</text>
<text text-anchor="middle" x="371" y="-1025.5" font-family="Helvetica,sans-Serif" font-size="10.00">::Draw</text>
</a>
</g>
</g>
<!-- Node1&#45;&gt;Node3 -->
<g id="edge2_Node000001_Node000003" class="edge">
<title>Node1&#45;&gt;Node3</title>
<g id="a_edge2_Node000001_Node000003"><a xlink:title=" ">
<path fill="none" stroke="#63b8ff" d="M521.02,-399.03C520.74,-494.58 515,-912.01 437,-1009.5 434.22,-1012.98 430.88,-1015.95 427.21,-1018.49"/>
<polygon fill="#63b8ff" stroke="#63b8ff" points="524.52,-399.03 521.03,-389.02 517.52,-399.02 524.52,-399.03"/>
</a>
</g>
</g>
<!-- Node4 -->
<g id="Node000004" class="node">
<title>Node4</title>
<g id="a_Node000004"><a xlink:href="classOLakitu.html#acf4c307ecb7d50a557cff7e4e9fc22d2" target="_top" xlink:title=" ">
<polygon fill="white" stroke="#666666" points="414,-1000 328,-1000 328,-981 414,-981 414,-1000"/>
<text text-anchor="middle" x="371" y="-988" font-family="Helvetica,sans-Serif" font-size="10.00">OLakitu::Draw</text>
</a>
</g>
</g>
<!-- Node1&#45;&gt;Node4 -->
<g id="edge3_Node000001_Node000004" class="edge">
<title>Node1&#45;&gt;Node4</title>
<g id="a_edge3_Node000001_Node000004"><a xlink:title=" ">
<path fill="none" stroke="#63b8ff" d="M520.97,-399.42C520.41,-492.43 513.49,-883.17 437,-971.5 431.07,-978.34 422.83,-982.79 414.2,-985.66"/>
<polygon fill="#63b8ff" stroke="#63b8ff" points="524.47,-399.39 521.01,-389.38 517.47,-399.36 524.47,-399.39"/>
</a>
</g>
</g>
<!-- Node5 -->
<g id="Node000005" class="node">
<title>Node5</title>
<g id="a_Node000005"><a xlink:href="render__objects_8c.html#a8a48ecaa397efcff0fd4aab89b040c59" target="_top" xlink:title=" ">
<polygon fill="white" stroke="#666666" points="437,-962.5 305,-962.5 305,-932.5 437,-932.5 437,-962.5"/>
<text text-anchor="start" x="313" y="-950.5" font-family="Helvetica,sans-Serif" font-size="10.00">draw_rectangle_texture</text>
<text text-anchor="middle" x="371" y="-939.5" font-family="Helvetica,sans-Serif" font-size="10.00">_overlap</text>
</a>
</g>
</g>
<!-- Node1&#45;&gt;Node5 -->
<g id="edge4_Node000001_Node000005" class="edge">
<title>Node1&#45;&gt;Node5</title>
<g id="a_edge4_Node000001_Node000005"><a xlink:title=" ">
<path fill="none" stroke="#63b8ff" d="M515.82,-399.26C492.39,-488.57 396.64,-853.58 375.95,-932.44"/>
<polygon fill="#63b8ff" stroke="#63b8ff" points="519.26,-399.92 518.41,-389.36 512.49,-398.14 519.26,-399.92"/>
</a>
</g>
</g>
<!-- Node91 -->
<g id="Node000091" class="node">
<title>Node91</title>
<g id="a_Node000091"><a xlink:href="classOSnowman.html#a6a4b52c8ea89554b32436640a1c9dd80" target="_top" xlink:title=" ">
<polygon fill="white" stroke="#666666" points="435.5,-630 306.5,-630 306.5,-611 435.5,-611 435.5,-630"/>
<text text-anchor="middle" x="371" y="-618" font-family="Helvetica,sans-Serif" font-size="10.00">OSnowman::DrawHead</text>
</a>
</g>
</g>
<!-- Node1&#45;&gt;Node91 -->
<g id="edge20_Node000001_Node000091" class="edge">
<title>Node1&#45;&gt;Node91</title>
<g id="a_edge20_Node000001_Node000091"><a xlink:title=" ">
<path fill="none" stroke="#63b8ff" d="M511.12,-398.2C495.95,-426.6 465.66,-482.11 437,-527.5 417.23,-558.82 391.44,-594.29 379.14,-610.93"/>
<polygon fill="#63b8ff" stroke="#63b8ff" points="514.39,-399.5 515.99,-389.03 508.21,-396.22 514.39,-399.5"/>
</a>
</g>
</g>
<!-- Node93 -->
<g id="Node000093" class="node">
<title>Node93</title>
<g id="a_Node000093"><a xlink:href="classOCrab.html#a1342716f34378e4700baae3df702d294" target="_top" xlink:title=" ">
<polygon fill="white" stroke="#666666" points="425,-518 317,-518 317,-499 425,-499 425,-518"/>
<text text-anchor="middle" x="371" y="-506" font-family="Helvetica,sans-Serif" font-size="10.00">OCrab::DrawModel</text>
</a>
</g>
</g>
<!-- Node1&#45;&gt;Node93 -->
<g id="edge22_Node000001_Node000093" class="edge">
<title>Node1&#45;&gt;Node93</title>
<g id="a_edge22_Node000001_Node000093"><a xlink:title=" ">
<path fill="none" stroke="#63b8ff" d="M511.78,-398.34C498.63,-423.21 472.14,-466.63 437,-490.5 431.96,-493.92 426.29,-496.69 420.45,-498.94"/>
<polygon fill="#63b8ff" stroke="#63b8ff" points="515.01,-399.71 516.44,-389.21 508.77,-396.52 515.01,-399.71"/>
</a>
</g>
</g>
<!-- Node94 -->
<g id="Node000094" class="node">
<title>Node94</title>
<g id="a_Node000094"><a xlink:href="render__objects_8c.html#aa6a427e62eecd9fda1e3fa16ed4285b6" target="_top" xlink:title=" ">
<polygon fill="white" stroke="#666666" points="416.5,-481 325.5,-481 325.5,-462 416.5,-462 416.5,-481"/>
<text text-anchor="middle" x="371" y="-469" font-family="Helvetica,sans-Serif" font-size="10.00">func_80047068</text>
</a>
</g>
</g>
<!-- Node1&#45;&gt;Node94 -->
<g id="edge23_Node000001_Node000094" class="edge">
<title>Node1&#45;&gt;Node94</title>
<g id="a_edge23_Node000001_Node000094"><a xlink:title=" ">
<path fill="none" stroke="#63b8ff" d="M496.48,-394.64C465.55,-413.74 413.31,-445.99 387.45,-461.96"/>
<polygon fill="#63b8ff" stroke="#63b8ff" points="498.67,-397.4 505.34,-389.17 494.99,-391.45 498.67,-397.4"/>
</a>
</g>
</g>
<!-- Node114 -->
<g id="Node000114" class="node">
<title>Node114</title>
<g id="a_Node000114"><a xlink:href="render__objects_8c.html#ab6b7c7c5b2602bb063fc4af93c38b23f" target="_top" xlink:title=" ">
<polygon fill="white" stroke="#666666" points="417,-315 325,-315 325,-296 417,-296 417,-315"/>
<text text-anchor="middle" x="371" y="-303" font-family="Helvetica,sans-Serif" font-size="10.00">func_8004768C</text>
</a>
</g>
</g>
<!-- Node1&#45;&gt;Node114 -->
<g id="edge34_Node000001_Node000114" class="edge">
<title>Node1&#45;&gt;Node114</title>
<g id="a_edge34_Node000001_Node000114"><a xlink:title=" ">
<path fill="none" stroke="#63b8ff" d="M492.83,-365.51C463.23,-350.81 417.45,-328.07 391.57,-315.22"/>
<polygon fill="#63b8ff" stroke="#63b8ff" points="491.31,-368.66 501.83,-369.98 494.43,-362.39 491.31,-368.66"/>
</a>
</g>
</g>
<!-- Node117 -->
<g id="Node000117" class="node">
<title>Node117</title>
<g id="a_Node000117"><a xlink:href="render__objects_8c.html#a577b767fc17b228d27b5ed698eb1c8ad" target="_top" xlink:title=" ">
<polygon fill="white" stroke="#666666" points="417,-241 325,-241 325,-222 417,-222 417,-241"/>
<text text-anchor="middle" x="371" y="-229" font-family="Helvetica,sans-Serif" font-size="10.00">func_800484BC</text>
</a>
</g>
</g>
<!-- Node1&#45;&gt;Node117 -->
<g id="edge37_Node000001_Node000117" class="edge">
<title>Node1&#45;&gt;Node117</title>
<g id="a_edge37_Node000001_Node000117"><a xlink:title=" ">
<path fill="none" stroke="#63b8ff" d="M506.08,-361.94C489.72,-342.98 462.42,-312.2 437,-287.5 419.27,-270.27 397.2,-251.84 383.88,-241.01"/>
<polygon fill="#63b8ff" stroke="#63b8ff" points="503.61,-364.43 512.78,-369.75 508.92,-359.88 503.61,-364.43"/>
</a>
</g>
</g>
<!-- Node121 -->
<g id="Node000121" class="node">
<title>Node121</title>
<g id="a_Node000121"><a xlink:href="render__objects_8c.html#a65c6304cf8284f93c5d8db1f1dce4932" target="_top" xlink:title=" ">
<polygon fill="white" stroke="#666666" points="417.5,-195 324.5,-195 324.5,-176 417.5,-176 417.5,-195"/>
<text text-anchor="middle" x="371" y="-183" font-family="Helvetica,sans-Serif" font-size="10.00">func_8004DF5C</text>
</a>
</g>
</g>
<!-- Node1&#45;&gt;Node121 -->
<g id="edge40_Node000001_Node000121" class="edge">
<title>Node1&#45;&gt;Node121</title>
<g id="a_edge40_Node000001_Node000121"><a xlink:title=" ">
<path fill="none" stroke="#63b8ff" d="M515.97,-360.2C506.19,-326.23 481.59,-255.42 437,-213.5 428.32,-205.34 416.88,-199.34 406.03,-195.04"/>
<polygon fill="#63b8ff" stroke="#63b8ff" points="512.59,-361.14 518.63,-369.85 519.34,-359.28 512.59,-361.14"/>
</a>
</g>
</g>
<!-- Node142 -->
<g id="Node000142" class="node">
<title>Node142</title>
<g id="a_Node000142"><a xlink:href="render__objects_8c.html#a5dee2690185a9165ca8cff4b55c65111" target="_top" xlink:title=" ">
<polygon fill="white" stroke="#666666" points="417,-158 325,-158 325,-139 417,-139 417,-158"/>
<text text-anchor="middle" x="371" y="-146" font-family="Helvetica,sans-Serif" font-size="10.00">func_8004E06C</text>
</a>
</g>
</g>
<!-- Node1&#45;&gt;Node142 -->
<g id="edge43_Node000001_Node000142" class="edge">
<title>Node1&#45;&gt;Node142</title>
<g id="a_edge43_Node000001_Node000142"><a xlink:title=" ">
<path fill="none" stroke="#63b8ff" d="M518.93,-359.83C513.48,-318.1 494.9,-220.26 437,-167.5 431.35,-162.35 424.38,-158.59 417.12,-155.85"/>
<polygon fill="#63b8ff" stroke="#63b8ff" points="515.46,-360.29 520.12,-369.81 522.41,-359.46 515.46,-360.29"/>
</a>
</g>
</g>
<!-- Node145 -->
<g id="Node000145" class="node">
<title>Node145</title>
<g id="a_Node000145"><a xlink:href="render__objects_8c.html#a24f481e614ec5cbac3e43da88959df2b" target="_top" xlink:title=" ">
<polygon fill="white" stroke="#666666" points="417.5,-121 324.5,-121 324.5,-102 417.5,-102 417.5,-121"/>
<text text-anchor="middle" x="371" y="-109" font-family="Helvetica,sans-Serif" font-size="10.00">func_8004FDB4</text>
</a>
</g>
</g>
<!-- Node1&#45;&gt;Node145 -->
<g id="edge45_Node000001_Node000145" class="edge">
<title>Node1&#45;&gt;Node145</title>
<g id="a_edge45_Node000001_Node000145"><a xlink:title=" ">
<path fill="none" stroke="#63b8ff" d="M520.27,-360C517.46,-313.37 503.74,-194.56 437,-130.5 431.57,-125.29 424.79,-121.5 417.68,-118.74"/>
<polygon fill="#63b8ff" stroke="#63b8ff" points="516.78,-360.17 520.77,-369.99 523.77,-359.83 516.78,-360.17"/>
</a>
</g>
</g>
<!-- Node148 -->
<g id="Node000148" class="node">
<title>Node148</title>
<g id="a_Node000148"><a xlink:href="render__objects_8c.html#a742c49e38b1be564b29023711aef1eea" target="_top" xlink:title=" ">
<polygon fill="white" stroke="#666666" points="417,-84 325,-84 325,-65 417,-65 417,-84"/>
<text text-anchor="middle" x="371" y="-72" font-family="Helvetica,sans-Serif" font-size="10.00">func_80050C68</text>
</a>
</g>
</g>
<!-- Node1&#45;&gt;Node148 -->
<g id="edge47_Node000001_Node000148" class="edge">
<title>Node1&#45;&gt;Node148</title>
<g id="a_edge47_Node000001_Node000148"><a xlink:title=" ">
<path fill="none" stroke="#63b8ff" d="M521.27,-359.6C520.85,-308.02 512.4,-168.81 437,-93.5 431.51,-88.02 424.53,-84.1 417.19,-81.3"/>
<polygon fill="#63b8ff" stroke="#63b8ff" points="517.77,-359.72 521.25,-369.73 524.77,-359.74 517.77,-359.72"/>
</a>
</g>
</g>
<!-- Node149 -->
<g id="Node000149" class="node">
<title>Node149</title>
<g id="a_Node000149"><a xlink:href="render__objects_8c.html#a1997892d9b0912660a6d9f51422e9bb8" target="_top" xlink:title=" ">
<polygon fill="white" stroke="#666666" points="432.5,-29 309.5,-29 309.5,-10 432.5,-10 432.5,-29"/>
<text text-anchor="middle" x="371" y="-17" font-family="Helvetica,sans-Serif" font-size="10.00">load_texture_and_tlut</text>
</a>
</g>
</g>
<!-- Node1&#45;&gt;Node149 -->
<g id="edge48_Node000001_Node000149" class="edge">
<title>Node1&#45;&gt;Node149</title>
<g id="a_edge48_Node000001_Node000149"><a xlink:title=" ">
<path fill="none" stroke="#63b8ff" d="M521.06,-359.83C520.24,-305.5 511.11,-151.12 437,-55.5 427.68,-43.47 413.14,-34.88 400.17,-29.12"/>
<polygon fill="#63b8ff" stroke="#63b8ff" points="517.56,-359.87 521.13,-369.84 524.56,-359.82 517.56,-359.87"/>
</a>
</g>
</g>
<!-- Node6 -->
<g id="Node000006" class="node">
<title>Node6</title>
<g id="a_Node000006"><a xlink:href="render__objects_8c.html#a8c64fbe4bff7ffa49273321d6f1b03be" target="_top" xlink:title=" ">
<polygon fill="#fff0f0" stroke="red" points="261,-1290 148,-1290 148,-1271 261,-1271 261,-1290"/>
<text text-anchor="middle" x="204.5" y="-1278" font-family="Helvetica,sans-Serif" font-size="10.00">draw_2d_texture_at</text>
</a>
</g>
</g>
<!-- Node5&#45;&gt;Node6 -->
<g id="edge5_Node000005_Node000006" class="edge">
<title>Node5&#45;&gt;Node6</title>
<g id="a_edge5_Node000005_Node000006"><a xlink:title=" ">
<path fill="none" stroke="#63b8ff" d="M308.06,-969.01C306.98,-970.12 305.95,-971.28 305,-972.5 225,-1074.82 353.56,-1163.92 269,-1262.5 266.09,-1265.89 262.59,-1268.67 258.76,-1270.94"/>
<polygon fill="#63b8ff" stroke="#63b8ff" points="310.44,-971.58 315.93,-962.52 305.99,-966.18 310.44,-971.58"/>
</a>
</g>
</g>
<!-- Node14 -->
<g id="Node000014" class="node">
<title>Node14</title>
<g id="a_Node000014"><a xlink:href="render__objects_8c.html#ab3e49e29c773461d6b29a3c241629d96" target="_top" xlink:title=" ">
<polygon fill="#fff0f0" stroke="red" points="250,-1253 159,-1253 159,-1234 250,-1234 250,-1253"/>
<text text-anchor="middle" x="204.5" y="-1241" font-family="Helvetica,sans-Serif" font-size="10.00">func_80047910</text>
</a>
</g>
</g>
<!-- Node5&#45;&gt;Node14 -->
<g id="edge6_Node000005_Node000014" class="edge">
<title>Node5&#45;&gt;Node14</title>
<g id="a_edge6_Node000005_Node000014"><a xlink:title=" ">
<path fill="none" stroke="#63b8ff" d="M308.08,-969.04C307,-970.14 305.96,-971.29 305,-972.5 234.25,-1061.35 343.72,-1139.96 269,-1225.5 264.02,-1231.2 257.39,-1235.15 250.29,-1237.88"/>
<polygon fill="#63b8ff" stroke="#63b8ff" points="310.47,-971.61 316,-962.58 306.04,-966.19 310.47,-971.61"/>
</a>
</g>
</g>
<!-- Node64 -->
<g id="Node000064" class="node">
<title>Node64</title>
<g id="a_Node000064"><a xlink:href="render__objects_8c.html#aa71c06796b1b014471b24c8bb646cef7" target="_top" xlink:title=" ">
<polygon fill="#fff0f0" stroke="red" points="250,-1216 159,-1216 159,-1197 250,-1197 250,-1216"/>
<text text-anchor="middle" x="204.5" y="-1204" font-family="Helvetica,sans-Serif" font-size="10.00">func_80047994</text>
</a>
</g>
</g>
<!-- Node5&#45;&gt;Node64 -->
<g id="edge7_Node000005_Node000064" class="edge">
<title>Node5&#45;&gt;Node64</title>
<g id="a_edge7_Node000005_Node000064"><a xlink:title=" ">
<path fill="none" stroke="#63b8ff" d="M308.12,-969.07C307.02,-970.16 305.98,-971.3 305,-972.5 243.47,-1047.91 333.89,-1115.97 269,-1188.5 263.96,-1194.14 257.29,-1198.06 250.18,-1200.79"/>
<polygon fill="#63b8ff" stroke="#63b8ff" points="310.5,-971.65 316.1,-962.65 306.11,-966.19 310.5,-971.65"/>
</a>
</g>
</g>
<!-- Node66 -->
<g id="Node000066" class="node">
<title>Node66</title>
<g id="a_Node000066"><a xlink:href="render__objects_8c.html#a305cbc47e0c008840e2046f59cb5184c" target="_top" xlink:title=" ">
<polygon fill="#fff0f0" stroke="red" points="250.5,-1179 158.5,-1179 158.5,-1160 250.5,-1160 250.5,-1179"/>
<text text-anchor="middle" x="204.5" y="-1167" font-family="Helvetica,sans-Serif" font-size="10.00">func_80047A9C</text>
</a>
</g>
</g>
<!-- Node5&#45;&gt;Node66 -->
<g id="edge8_Node000005_Node000066" class="edge">
<title>Node5&#45;&gt;Node66</title>
<g id="a_edge8_Node000005_Node000066"><a xlink:title=" ">
<path fill="none" stroke="#63b8ff" d="M308.6,-968.71C307.33,-969.9 306.13,-971.17 305,-972.5 252.66,-1034.51 324.11,-1091.93 269,-1151.5 264.02,-1156.88 257.56,-1160.7 250.67,-1163.4"/>
<polygon fill="#63b8ff" stroke="#63b8ff" points="310.77,-971.45 316.54,-962.57 306.49,-965.92 310.77,-971.45"/>
</a>
</g>
</g>
<!-- Node69 -->
<g id="Node000069" class="node">
<title>Node69</title>
<g id="a_Node000069"><a xlink:href="render__objects_8c.html#a209da068f7af82621ac1237d70885b62" target="_top" xlink:title=" ">
<polygon fill="white" stroke="#666666" points="250.5,-1142 158.5,-1142 158.5,-1123 250.5,-1123 250.5,-1142"/>
<text text-anchor="middle" x="204.5" y="-1130" font-family="Helvetica,sans-Serif" font-size="10.00">func_80047C28</text>
</a>
</g>
</g>
<!-- Node5&#45;&gt;Node69 -->
<g id="edge9_Node000005_Node000069" class="edge">
<title>Node5&#45;&gt;Node69</title>
<g id="a_edge9_Node000005_Node000069"><a xlink:title=" ">
<path fill="none" stroke="#63b8ff" d="M308.79,-968.7C307.45,-969.9 306.19,-971.16 305,-972.5 261.78,-1021.19 314.39,-1067.82 269,-1114.5 263.97,-1119.68 257.57,-1123.39 250.77,-1126.06"/>
<polygon fill="#63b8ff" stroke="#63b8ff" points="311.12,-971.32 317.05,-962.55 306.94,-965.71 311.12,-971.32"/>
</a>
</g>
</g>
<!-- Node70 -->
<g id="Node000070" class="node">
<title>Node70</title>
<g id="a_Node000070"><a xlink:href="render__objects_8c.html#af25c2a1cd7ad90357bb51f2813dc4791" target="_top" xlink:title=" ">
<polygon fill="white" stroke="#666666" points="250.5,-1105 158.5,-1105 158.5,-1086 250.5,-1086 250.5,-1105"/>
<text text-anchor="middle" x="204.5" y="-1093" font-family="Helvetica,sans-Serif" font-size="10.00">func_80047D40</text>
</a>
</g>
</g>
<!-- Node5&#45;&gt;Node70 -->
<g id="edge10_Node000005_Node000070" class="edge">
<title>Node5&#45;&gt;Node70</title>
<g id="a_edge10_Node000005_Node000070"><a xlink:title=" ">
<path fill="none" stroke="#63b8ff" d="M309.41,-968.43C307.86,-969.71 306.38,-971.06 305,-972.5 270.77,-1008.02 304.81,-1043.57 269,-1077.5 263.84,-1082.39 257.46,-1085.96 250.74,-1088.57"/>
<polygon fill="#63b8ff" stroke="#63b8ff" points="311.49,-971.25 317.7,-962.66 307.49,-965.5 311.49,-971.25"/>
</a>
</g>
</g>
<!-- Node71 -->
<g id="Node000071" class="node">
<title>Node71</title>
<g id="a_Node000071"><a xlink:href="render__objects_8c.html#a49eccc6aef1353e402fef04b347a4e79" target="_top" xlink:title=" ">
<polygon fill="#fff0f0" stroke="red" points="250,-1068 159,-1068 159,-1049 250,-1049 250,-1068"/>
<text text-anchor="middle" x="204.5" y="-1056" font-family="Helvetica,sans-Serif" font-size="10.00">func_80047E48</text>
</a>
</g>
</g>
<!-- Node5&#45;&gt;Node71 -->
<g id="edge11_Node000005_Node000071" class="edge">
<title>Node5&#45;&gt;Node71</title>
<g id="a_edge11_Node000005_Node000071"><a xlink:title=" ">
<path fill="none" stroke="#63b8ff" d="M311.04,-967.76C308.92,-969.24 306.9,-970.82 305,-972.5 279.42,-995.19 295.59,-1019 269,-1040.5 263.48,-1044.97 256.9,-1048.33 250.11,-1050.85"/>
<polygon fill="#63b8ff" stroke="#63b8ff" points="312.87,-970.75 319.6,-962.57 309.23,-964.77 312.87,-970.75"/>
</a>
</g>
</g>
<!-- Node73 -->
<g id="Node000073" class="node">
<title>Node73</title>
<g id="a_Node000073"><a xlink:href="render__objects_8c.html#ab4137dcaafb2d6de09c37a22ae8541d6" target="_top" xlink:title=" ">
<polygon fill="#fff0f0" stroke="red" points="250,-1031 159,-1031 159,-1012 250,-1012 250,-1031"/>
<text text-anchor="middle" x="204.5" y="-1019" font-family="Helvetica,sans-Serif" font-size="10.00">func_80047F40</text>
</a>
</g>
</g>
<!-- Node5&#45;&gt;Node73 -->
<g id="edge12_Node000005_Node000073" class="edge">
<title>Node5&#45;&gt;Node73</title>
<g id="a_edge12_Node000005_Node000073"><a xlink:title=" ">
<path fill="none" stroke="#63b8ff" d="M315.51,-966.82C311.88,-968.6 308.35,-970.5 305,-972.5 286.88,-983.34 287.59,-993.5 269,-1003.5 262.74,-1006.87 255.79,-1009.66 248.85,-1011.95"/>
<polygon fill="#63b8ff" stroke="#63b8ff" points="317.02,-969.98 324.64,-962.62 314.09,-963.62 317.02,-969.98"/>
</a>
</g>
</g>
<!-- Node75 -->
<g id="Node000075" class="node">
<title>Node75</title>
<g id="a_Node000075"><a xlink:href="render__objects_8c.html#a0aec5a5ef1b662df677936d54dd7f556" target="_top" xlink:title=" ">
<polygon fill="white" stroke="#666666" points="250.5,-994 158.5,-994 158.5,-975 250.5,-975 250.5,-994"/>
<text text-anchor="middle" x="204.5" y="-982" font-family="Helvetica,sans-Serif" font-size="10.00">func_80047FBC</text>
</a>
</g>
</g>
<!-- Node5&#45;&gt;Node75 -->
<g id="edge13_Node000005_Node000075" class="edge">
<title>Node5&#45;&gt;Node75</title>
<g id="a_edge13_Node000005_Node000075"><a xlink:title=" ">
<path fill="none" stroke="#63b8ff" d="M294.98,-964.37C278.8,-968.01 262.24,-971.74 247.84,-974.98"/>
<polygon fill="#63b8ff" stroke="#63b8ff" points="296,-967.73 304.99,-962.12 294.46,-960.9 296,-967.73"/>
</a>
</g>
</g>
<!-- Node76 -->
<g id="Node000076" class="node">
<title>Node76</title>
<g id="a_Node000076"><a xlink:href="render__objects_8c.html#a91178d2562551232deed087f59325a1e" target="_top" xlink:title=" ">
<polygon fill="#fff0f0" stroke="red" points="250.5,-957 158.5,-957 158.5,-938 250.5,-938 250.5,-957"/>
<text text-anchor="middle" x="204.5" y="-945" font-family="Helvetica,sans-Serif" font-size="10.00">func_800482AC</text>
</a>
</g>
</g>
<!-- Node5&#45;&gt;Node76 -->
<g id="edge14_Node000005_Node000076" class="edge">
<title>Node5&#45;&gt;Node76</title>
<g id="a_edge14_Node000005_Node000076"><a xlink:title=" ">
<path fill="none" stroke="#63b8ff" d="M294.68,-947.5C279.69,-947.5 264.39,-947.5 250.8,-947.5"/>
<polygon fill="#63b8ff" stroke="#63b8ff" points="294.99,-951 304.99,-947.5 294.99,-944 294.99,-951"/>
</a>
</g>
</g>
<!-- Node78 -->
<g id="Node000078" class="node">
<title>Node78</title>
<g id="a_Node000078"><a xlink:href="render__objects_8c.html#a5a6e10cbfda4dc8f12e67cfc05183ccb" target="_top" xlink:title=" ">
<polygon fill="#fff0f0" stroke="red" points="250.5,-920 158.5,-920 158.5,-901 250.5,-901 250.5,-920"/>
<text text-anchor="middle" x="204.5" y="-908" font-family="Helvetica,sans-Serif" font-size="10.00">func_800483B4</text>
</a>
</g>
</g>
<!-- Node5&#45;&gt;Node78 -->
<g id="edge15_Node000005_Node000078" class="edge">
<title>Node5&#45;&gt;Node78</title>
<g id="a_edge15_Node000005_Node000078"><a xlink:title=" ">
<path fill="none" stroke="#63b8ff" d="M294.98,-930.63C278.8,-926.99 262.24,-923.26 247.84,-920.02"/>
<polygon fill="#63b8ff" stroke="#63b8ff" points="294.46,-934.1 304.99,-932.88 296,-927.27 294.46,-934.1"/>
</a>
</g>
</g>
<!-- Node80 -->
<g id="Node000080" class="node">
<title>Node80</title>
<g id="a_Node000080"><a xlink:href="render__objects_8c.html#a5ea915e2b61a3fc53a83969a86841a9f" target="_top" xlink:title=" ">
<polygon fill="#fff0f0" stroke="red" points="250,-883 159,-883 159,-864 250,-864 250,-883"/>
<text text-anchor="middle" x="204.5" y="-871" font-family="Helvetica,sans-Serif" font-size="10.00">func_80048540</text>
</a>
</g>
</g>
<!-- Node5&#45;&gt;Node80 -->
<g id="edge16_Node000005_Node000080" class="edge">
<title>Node5&#45;&gt;Node80</title>
<g id="a_edge16_Node000005_Node000080"><a xlink:title=" ">
<path fill="none" stroke="#63b8ff" d="M337.09,-927.31C317.75,-916.03 292.55,-902.31 269,-892.5 260.5,-888.96 251.11,-885.78 242.22,-883.07"/>
<polygon fill="#63b8ff" stroke="#63b8ff" points="335.41,-930.39 345.8,-932.46 338.98,-924.36 335.41,-930.39"/>
</a>
</g>
</g>
<!-- Node83 -->
<g id="Node000083" class="node">
<title>Node83</title>
<g id="a_Node000083"><a xlink:href="render__objects_8c.html#a7f21a1863237d7a23fd0d1381722477d" target="_top" xlink:title=" ">
<polygon fill="white" stroke="#666666" points="250.5,-846 158.5,-846 158.5,-827 250.5,-827 250.5,-846"/>
<text text-anchor="middle" x="204.5" y="-834" font-family="Helvetica,sans-Serif" font-size="10.00">func_800485C4</text>
</a>
</g>
</g>
<!-- Node5&#45;&gt;Node83 -->
<g id="edge17_Node000005_Node000083" class="edge">
<title>Node5&#45;&gt;Node83</title>
<g id="a_edge17_Node000005_Node000083"><a xlink:title=" ">
<path fill="none" stroke="#63b8ff" d="M350.32,-924.44C331.42,-903.65 301.08,-873.64 269,-855.5 262.29,-851.7 254.74,-848.59 247.25,-846.07"/>
<polygon fill="#63b8ff" stroke="#63b8ff" points="347.95,-927.05 357.22,-932.18 353.18,-922.39 347.95,-927.05"/>
</a>
</g>
</g>
<!-- Node84 -->
<g id="Node000084" class="node">
<title>Node84</title>
<g id="a_Node000084"><a xlink:href="render__objects_8c.html#a8e71bb2a914da25c9767d72707665f58" target="_top" xlink:title=" ">
<polygon fill="#fff0f0" stroke="red" points="251,-809 158,-809 158,-790 251,-790 251,-809"/>
<text text-anchor="middle" x="204.5" y="-797" font-family="Helvetica,sans-Serif" font-size="10.00">func_800563DC</text>
</a>
</g>
</g>
<!-- Node5&#45;&gt;Node84 -->
<g id="edge18_Node000005_Node000084" class="edge">
<title>Node5&#45;&gt;Node84</title>
<g id="a_edge18_Node000005_Node000084"><a xlink:title=" ">
<path fill="none" stroke="#63b8ff" d="M357.19,-923.19C340.64,-894.09 309.11,-845.86 269,-818.5 263.3,-814.61 256.78,-811.5 250.14,-809.02"/>
<polygon fill="#63b8ff" stroke="#63b8ff" points="354.32,-925.22 362.22,-932.27 360.44,-921.83 354.32,-925.22"/>
</a>
</g>
</g>
<!-- Node89 -->
<g id="Node000089" class="node">
<title>Node89</title>
<g id="a_Node000089"><a xlink:href="classPlayerBombKart.html#ab3bf9332abcce97183126cb5a7bce075" target="_top" xlink:title=" ">
<polygon fill="#fff0f0" stroke="red" points="266,-771.5 143,-771.5 143,-741.5 266,-741.5 266,-771.5"/>
<text text-anchor="start" x="151" y="-759.5" font-family="Helvetica,sans-Serif" font-size="10.00">PlayerBombKart::func</text>
<text text-anchor="middle" x="204.5" y="-748.5" font-family="Helvetica,sans-Serif" font-size="10.00">_800563DC</text>
</a>
</g>
</g>
<!-- Node5&#45;&gt;Node89 -->
<g id="edge19_Node000005_Node000089" class="edge">
<title>Node5&#45;&gt;Node89</title>
<g id="a_edge19_Node000005_Node000089"><a xlink:title=" ">
<path fill="none" stroke="#63b8ff" d="M360.91,-922.76C346.59,-886.94 315.51,-820.65 269,-781.5 264.47,-777.69 259.28,-774.41 253.87,-771.6"/>
<polygon fill="#63b8ff" stroke="#63b8ff" points="357.78,-924.37 364.67,-932.42 364.31,-921.83 357.78,-924.37"/>
</a>
</g>
</g>
<!-- Node92 -->
<g id="Node000092" class="node">
<title>Node92</title>
<g id="a_Node000092"><a xlink:href="classOSnowman.html#a43b2b34a94dbde2f174d971bfa763ac0" target="_top" xlink:title=" ">
<polygon fill="white" stroke="#666666" points="104,-371 0,-371 0,-352 104,-352 104,-371"/>
<text text-anchor="middle" x="52" y="-359" font-family="Helvetica,sans-Serif" font-size="10.00">OSnowman::Draw</text>
</a>
</g>
</g>
<!-- Node91&#45;&gt;Node92 -->
<g id="edge21_Node000091_Node000092" class="edge">
<title>Node91&#45;&gt;Node92</title>
<g id="a_edge21_Node000091_Node000092"><a xlink:title=" ">
<path fill="none" stroke="#63b8ff" d="M353.88,-637.51C335.39,-655.66 303.19,-683.31 269,-694.5 214.51,-712.33 185.38,-729.54 140,-694.5 86.09,-652.86 59.2,-421.25 53.96,-371.09"/>
<polygon fill="#63b8ff" stroke="#63b8ff" points="356.61,-639.73 361.15,-630.16 351.63,-634.81 356.61,-639.73"/>
</a>
</g>
</g>
<!-- Node95 -->
<g id="Node000095" class="node">
<title>Node95</title>
<g id="a_Node000095"><a xlink:href="render__objects_8c.html#ac444c21ee2078da42a70d54c4ec9da61" target="_top" xlink:title=" ">
<polygon fill="#fff0f0" stroke="red" points="250.5,-685 158.5,-685 158.5,-666 250.5,-666 250.5,-685"/>
<text text-anchor="middle" x="204.5" y="-673" font-family="Helvetica,sans-Serif" font-size="10.00">func_8004788C</text>
</a>
</g>
</g>
<!-- Node94&#45;&gt;Node95 -->
<g id="edge24_Node000094_Node000095" class="edge">
<title>Node94&#45;&gt;Node95</title>
<g id="a_edge24_Node000094_Node000095"><a xlink:title=" ">
<path fill="none" stroke="#63b8ff" d="M316.07,-481.92C311.97,-484.24 308.19,-487.07 305,-490.5 253.28,-546.09 320.95,-602.12 269,-657.5 263.98,-662.85 257.51,-666.65 250.61,-669.34"/>
<polygon fill="#63b8ff" stroke="#63b8ff" points="317.85,-484.96 325.47,-477.6 314.92,-478.6 317.85,-484.96"/>
</a>
</g>
</g>
<!-- Node101 -->
<g id="Node000101" class="node">
<title>Node101</title>
<g id="a_Node000101"><a xlink:href="render__objects_8c.html#a62d40457c9cad67a3b4ac53f4810f053" target="_top" xlink:title=" ">
<polygon fill="#fff0f0" stroke="red" points="250.5,-648 158.5,-648 158.5,-629 250.5,-629 250.5,-648"/>
<text text-anchor="middle" x="204.5" y="-636" font-family="Helvetica,sans-Serif" font-size="10.00">func_80047A18</text>
</a>
</g>
</g>
<!-- Node94&#45;&gt;Node101 -->
<g id="edge25_Node000094_Node000101" class="edge">
<title>Node94&#45;&gt;Node101</title>
<g id="a_edge25_Node000094_Node000101"><a xlink:title=" ">
<path fill="none" stroke="#63b8ff" d="M316.1,-482.22C312.03,-484.48 308.24,-487.21 305,-490.5 262.91,-533.19 311.26,-577.98 269,-620.5 263.91,-625.62 257.48,-629.31 250.68,-631.96"/>
<polygon fill="#63b8ff" stroke="#63b8ff" points="317.76,-485.31 325.4,-477.98 314.85,-478.94 317.76,-485.31"/>
</a>
</g>
</g>
<!-- Node104 -->
<g id="Node000104" class="node">
<title>Node104</title>
<g id="a_Node000104"><a xlink:href="render__objects_8c.html#a70b9ab2b3d5af8fcfcd7fb1a651396a9" target="_top" xlink:title=" ">
<polygon fill="#fff0f0" stroke="red" points="250.5,-611 158.5,-611 158.5,-592 250.5,-592 250.5,-611"/>
<text text-anchor="middle" x="204.5" y="-599" font-family="Helvetica,sans-Serif" font-size="10.00">func_80047B9C</text>
</a>
</g>
</g>
<!-- Node94&#45;&gt;Node104 -->
<g id="edge26_Node000094_Node000104" class="edge">
<title>Node94&#45;&gt;Node104</title>
<g id="a_edge26_Node000094_Node000104"><a xlink:title=" ">
<path fill="none" stroke="#63b8ff" d="M315.75,-482.94C311.86,-485.05 308.21,-487.55 305,-490.5 272.36,-520.48 301.77,-553.65 269,-583.5 263.75,-588.28 257.32,-591.81 250.58,-594.4"/>
<polygon fill="#63b8ff" stroke="#63b8ff" points="317.5,-485.99 325.18,-478.69 314.62,-479.61 317.5,-485.99"/>
</a>
</g>
</g>
<!-- Node106 -->
<g id="Node000106" class="node">
<title>Node106</title>
<g id="a_Node000106"><a xlink:href="render__objects_8c.html#a11b93b94f668a841d51489531a6fc963" target="_top" xlink:title=" ">
<polygon fill="#fff0f0" stroke="red" points="250.5,-574 158.5,-574 158.5,-555 250.5,-555 250.5,-574"/>
<text text-anchor="middle" x="204.5" y="-562" font-family="Helvetica,sans-Serif" font-size="10.00">func_80047CB4</text>
</a>
</g>
</g>
<!-- Node94&#45;&gt;Node106 -->
<g id="edge27_Node000094_Node000106" class="edge">
<title>Node94&#45;&gt;Node106</title>
<g id="a_edge27_Node000094_Node000106"><a xlink:title=" ">
<path fill="none" stroke="#63b8ff" d="M316.01,-483.86C312.11,-485.77 308.39,-487.97 305,-490.5 281.3,-508.22 292.77,-528.88 269,-546.5 263.57,-550.53 257.27,-553.65 250.79,-556.08"/>
<polygon fill="#63b8ff" stroke="#63b8ff" points="317.47,-487.04 325.33,-479.93 314.75,-480.59 317.47,-487.04"/>
</a>
</g>
</g>
<!-- Node108 -->
<g id="Node000108" class="node">
<title>Node108</title>
<g id="a_Node000108"><a xlink:href="render__objects_8c.html#a7c2491c5079ac52653c15d40bd4fe849" target="_top" xlink:title=" ">
<polygon fill="white" stroke="#666666" points="251.5,-537 157.5,-537 157.5,-518 251.5,-518 251.5,-537"/>
<text text-anchor="middle" x="204.5" y="-525" font-family="Helvetica,sans-Serif" font-size="10.00">func_80047DCC</text>
</a>
</g>
</g>
<!-- Node94&#45;&gt;Node108 -->
<g id="edge28_Node000094_Node000108" class="edge">
<title>Node94&#45;&gt;Node108</title>
<g id="a_edge28_Node000094_Node000108"><a xlink:title=" ">
<path fill="none" stroke="#63b8ff" d="M322.49,-484.18C316.54,-486.12 310.58,-488.24 305,-490.5 288.23,-497.29 285.79,-502.77 269,-509.5 261.13,-512.65 252.5,-515.49 244.21,-517.92"/>
<polygon fill="#63b8ff" stroke="#63b8ff" points="323.93,-487.4 332.44,-481.08 321.85,-480.71 323.93,-487.4"/>
</a>
</g>
</g>
<!-- Node109 -->
<g id="Node000109" class="node">
<title>Node109</title>
<g id="a_Node000109"><a xlink:href="render__objects_8c.html#a9dbb20204cf9176cfeec66efa7a22e0b" target="_top" xlink:title=" ">
<polygon fill="white" stroke="#666666" points="250.5,-500 158.5,-500 158.5,-481 250.5,-481 250.5,-500"/>
<text text-anchor="middle" x="204.5" y="-488" font-family="Helvetica,sans-Serif" font-size="10.00">func_80047EC4</text>
</a>
</g>
</g>
<!-- Node94&#45;&gt;Node109 -->
<g id="edge29_Node000094_Node000109" class="edge">
<title>Node94&#45;&gt;Node109</title>
<g id="a_edge29_Node000094_Node000109"><a xlink:title=" ">
<path fill="none" stroke="#63b8ff" d="M315.41,-477.8C294.4,-480.23 270.65,-482.97 250.62,-485.29"/>
<polygon fill="#63b8ff" stroke="#63b8ff" points="315.95,-481.27 325.48,-476.64 315.15,-474.31 315.95,-481.27"/>
</a>
</g>
</g>
<!-- Node110 -->
<g id="Node000110" class="node">
<title>Node110</title>
<g id="a_Node000110"><a xlink:href="render__objects_8c.html#a0f506bac7d9077d130368f59aa040e45" target="_top" xlink:title=" ">
<polygon fill="white" stroke="#666666" points="250,-463 159,-463 159,-444 250,-444 250,-463"/>
<text text-anchor="middle" x="204.5" y="-451" font-family="Helvetica,sans-Serif" font-size="10.00">func_80048038</text>
</a>
</g>
</g>
<!-- Node94&#45;&gt;Node110 -->
<g id="edge30_Node000094_Node000110" class="edge">
<title>Node94&#45;&gt;Node110</title>
<g id="a_edge30_Node000094_Node000110"><a xlink:title=" ">
<path fill="none" stroke="#63b8ff" d="M315.33,-465.52C294.13,-463.2 270.17,-460.58 250.05,-458.37"/>
<polygon fill="#63b8ff" stroke="#63b8ff" points="315.16,-469.02 325.48,-466.63 315.92,-462.06 315.16,-469.02"/>
</a>
</g>
</g>
<!-- Node111 -->
<g id="Node000111" class="node">
<title>Node111</title>
<g id="a_Node000111"><a xlink:href="render__objects_8c.html#a52e219df24b6bd4433f7faf09ef387ff" target="_top" xlink:title=" ">
<polygon fill="white" stroke="#666666" points="250,-426 159,-426 159,-407 250,-407 250,-426"/>
<text text-anchor="middle" x="204.5" y="-414" font-family="Helvetica,sans-Serif" font-size="10.00">func_80048228</text>
</a>
</g>
</g>
<!-- Node94&#45;&gt;Node111 -->
<g id="edge31_Node000094_Node000111" class="edge">
<title>Node94&#45;&gt;Node111</title>
<g id="a_edge31_Node000094_Node000111"><a xlink:title=" ">
<path fill="none" stroke="#63b8ff" d="M334.78,-458.44C315.45,-451.4 290.99,-442.7 269,-435.5 259.16,-432.28 248.39,-428.97 238.56,-426.04"/>
<polygon fill="#63b8ff" stroke="#63b8ff" points="333.79,-461.81 344.39,-461.96 336.2,-455.24 333.79,-461.81"/>
</a>
</g>
</g>
<!-- Node112 -->
<g id="Node000112" class="node">
<title>Node112</title>
<g id="a_Node000112"><a xlink:href="render__objects_8c.html#af452dd0b6e993f7ef73acb7292b2a916" target="_top" xlink:title=" ">
<polygon fill="white" stroke="#666666" points="250,-389 159,-389 159,-370 250,-370 250,-389"/>
<text text-anchor="middle" x="204.5" y="-377" font-family="Helvetica,sans-Serif" font-size="10.00">func_80048330</text>
</a>
</g>
</g>
<!-- Node94&#45;&gt;Node112 -->
<g id="edge32_Node000094_Node000112" class="edge">
<title>Node94&#45;&gt;Node112</title>
<g id="a_edge32_Node000094_Node000112"><a xlink:title=" ">
<path fill="none" stroke="#63b8ff" d="M351.56,-455.22C332.19,-438.86 300.27,-413.93 269,-398.5 261.47,-394.78 253.07,-391.64 244.91,-389.05"/>
<polygon fill="#63b8ff" stroke="#63b8ff" points="349.42,-457.99 359.29,-461.86 353.98,-452.68 349.42,-457.99"/>
</a>
</g>
</g>
<!-- Node113 -->
<g id="Node000113" class="node">
<title>Node113</title>
<g id="a_Node000113"><a xlink:href="render__objects_8c.html#ad2b1c78e52c101f25b06937f591f6d1b" target="_top" xlink:title=" ">
<polygon fill="white" stroke="#666666" points="250,-352 159,-352 159,-333 250,-333 250,-352"/>
<text text-anchor="middle" x="204.5" y="-340" font-family="Helvetica,sans-Serif" font-size="10.00">func_80048438</text>
</a>
</g>
</g>
<!-- Node94&#45;&gt;Node113 -->
<g id="edge33_Node000094_Node000113" class="edge">
<title>Node94&#45;&gt;Node113</title>
<g id="a_edge33_Node000094_Node000113"><a xlink:title=" ">
<path fill="none" stroke="#63b8ff" d="M358.29,-453.64C341.42,-429.28 307.97,-385.9 269,-361.5 262.86,-357.65 255.89,-354.55 248.88,-352.05"/>
<polygon fill="#63b8ff" stroke="#63b8ff" points="355.42,-455.64 363.92,-461.96 361.22,-451.72 355.42,-455.64"/>
</a>
</g>
</g>
<!-- Node115 -->
<g id="Node000115" class="node">
<title>Node115</title>
<g id="a_Node000115"><a xlink:href="render__objects_8c.html#a7f59c9fc017e21ff5274a8d698f074b1" target="_top" xlink:title=" ">
<polygon fill="white" stroke="#666666" points="250.5,-315 158.5,-315 158.5,-296 250.5,-296 250.5,-315"/>
<text text-anchor="middle" x="204.5" y="-303" font-family="Helvetica,sans-Serif" font-size="10.00">func_80047B20</text>
</a>
</g>
</g>
<!-- Node114&#45;&gt;Node115 -->
<g id="edge35_Node000114_Node000115" class="edge">
<title>Node114&#45;&gt;Node115</title>
<g id="a_edge35_Node000114_Node000115"><a xlink:title=" ">
<path fill="none" stroke="#63b8ff" d="M314.36,-305.5C293.65,-305.5 270.41,-305.5 250.74,-305.5"/>
<polygon fill="#63b8ff" stroke="#63b8ff" points="314.61,-309 324.61,-305.5 314.61,-302 314.61,-309"/>
</a>
</g>
</g>
<!-- Node116 -->
<g id="Node000116" class="node">
<title>Node116</title>
<g id="a_Node000116"><a xlink:href="render__objects_8c.html#ae171e74d7c1846e12e902710c49c20fd" target="_top" xlink:title=" ">
<polygon fill="white" stroke="#666666" points="250.5,-278 158.5,-278 158.5,-259 250.5,-259 250.5,-278"/>
<text text-anchor="middle" x="204.5" y="-266" font-family="Helvetica,sans-Serif" font-size="10.00">func_800481B4</text>
</a>
</g>
</g>
<!-- Node114&#45;&gt;Node116 -->
<g id="edge36_Node000114_Node000116" class="edge">
<title>Node114&#45;&gt;Node116</title>
<g id="a_edge36_Node000114_Node000116"><a xlink:title=" ">
<path fill="none" stroke="#63b8ff" d="M317.59,-293.71C295.13,-288.66 269.24,-282.84 248,-278.06"/>
<polygon fill="#63b8ff" stroke="#63b8ff" points="317.11,-297.19 327.64,-295.97 318.65,-290.36 317.11,-297.19"/>
</a>
</g>
</g>
<!-- Node118 -->
<g id="Node000118" class="node">
<title>Node118</title>
<g id="a_Node000118"><a xlink:href="render__objects_8c.html#a8ca40d15fcc4bfbb350e4b295751e9ca" target="_top" xlink:title=" ">
<polygon fill="white" stroke="#666666" points="250.5,-241 158.5,-241 158.5,-222 250.5,-222 250.5,-241"/>
<text text-anchor="middle" x="204.5" y="-229" font-family="Helvetica,sans-Serif" font-size="10.00">func_80048D48</text>
</a>
</g>
</g>
<!-- Node117&#45;&gt;Node118 -->
<g id="edge38_Node000117_Node000118" class="edge">
<title>Node117&#45;&gt;Node118</title>
<g id="a_edge38_Node000117_Node000118"><a xlink:title=" ">
<path fill="none" stroke="#63b8ff" d="M314.36,-231.5C293.65,-231.5 270.41,-231.5 250.74,-231.5"/>
<polygon fill="#63b8ff" stroke="#63b8ff" points="314.61,-235 324.61,-231.5 314.61,-228 314.61,-235"/>
</a>
</g>
</g>
<!-- Node119 -->
<g id="Node000119" class="node">
<title>Node119</title>
<g id="a_Node000119"><a xlink:href="classOBoos.html#a6481d9811ecb0b976fd51ccbb1011ba5" target="_top" xlink:title=" ">
<polygon fill="#fff0f0" stroke="red" points="269,-204 140,-204 140,-185 269,-185 269,-204"/>
<text text-anchor="middle" x="204.5" y="-192" font-family="Helvetica,sans-Serif" font-size="10.00">OBoos::func_800523B8</text>
</a>
</g>
</g>
<!-- Node117&#45;&gt;Node119 -->
<g id="edge39_Node000117_Node000119" class="edge">
<title>Node117&#45;&gt;Node119</title>
<g id="a_edge39_Node000117_Node000119"><a xlink:title=" ">
<path fill="none" stroke="#63b8ff" d="M317.59,-219.71C295.13,-214.66 269.24,-208.84 248,-204.06"/>
<polygon fill="#63b8ff" stroke="#63b8ff" points="317.11,-223.19 327.64,-221.97 318.65,-216.36 317.11,-223.19"/>
</a>
</g>
</g>
<!-- Node122 -->
<g id="Node000122" class="node">
<title>Node122</title>
<g id="a_Node000122"><a xlink:href="render__objects_8c.html#a38493fda23503b6c3d4be25319ad025f" target="_top" xlink:title=" ">
<polygon fill="#fff0f0" stroke="red" points="250,-167 159,-167 159,-148 250,-148 250,-167"/>
<text text-anchor="middle" x="204.5" y="-155" font-family="Helvetica,sans-Serif" font-size="10.00">func_8004E240</text>
</a>
</g>
</g>
<!-- Node121&#45;&gt;Node122 -->
<g id="edge41_Node000121_Node000122" class="edge">
<title>Node121&#45;&gt;Node122</title>
<g id="a_edge41_Node000121_Node000122"><a xlink:title=" ">
<path fill="none" stroke="#63b8ff" d="M314.17,-176C293.33,-172.45 269.94,-168.47 250.22,-165.11"/>
<polygon fill="#63b8ff" stroke="#63b8ff" points="313.73,-179.47 324.18,-177.7 314.91,-172.57 313.73,-179.47"/>
</a>
</g>
</g>
<!-- Node139 -->
<g id="Node000139" class="node">
<title>Node139</title>
<g id="a_Node000139"><a xlink:href="render__objects_8c.html#a17f9b05a746ef42ad0faca7d579356cd" target="_top" xlink:title=" ">
<polygon fill="#fff0f0" stroke="red" points="250.5,-130 158.5,-130 158.5,-111 250.5,-111 250.5,-130"/>
<text text-anchor="middle" x="204.5" y="-118" font-family="Helvetica,sans-Serif" font-size="10.00">func_8004E2B8</text>
</a>
</g>
</g>
<!-- Node121&#45;&gt;Node139 -->
<g id="edge42_Node000121_Node000139" class="edge">
<title>Node121&#45;&gt;Node139</title>
<g id="a_edge42_Node000121_Node000139"><a xlink:title=" ">
<path fill="none" stroke="#63b8ff" d="M316.84,-172.66C312.76,-171.11 308.77,-169.39 305,-167.5 286.89,-158.4 287.02,-148.79 269,-139.5 261.74,-135.76 253.62,-132.63 245.68,-130.06"/>
<polygon fill="#63b8ff" stroke="#63b8ff" points="315.86,-176.03 326.46,-175.99 318.15,-169.41 315.86,-176.03"/>
</a>
</g>
</g>
<!-- Node143 -->
<g id="Node000143" class="node">
<title>Node143</title>
<g id="a_Node000143"><a xlink:href="render__objects_8c.html#aaab3d66e866737e450b04b2efc376b7d" target="_top" xlink:title=" ">
<polygon fill="#fff0f0" stroke="red" points="250,-93 159,-93 159,-74 250,-74 250,-93"/>
<text text-anchor="middle" x="204.5" y="-81" font-family="Helvetica,sans-Serif" font-size="10.00">func_8004E338</text>
</a>
</g>
</g>
<!-- Node142&#45;&gt;Node143 -->
<g id="edge44_Node000142_Node000143" class="edge">
<title>Node142&#45;&gt;Node143</title>
<g id="a_edge44_Node000142_Node000143"><a xlink:title=" ">
<path fill="none" stroke="#63b8ff" d="M316.84,-135.66C312.76,-134.11 308.77,-132.39 305,-130.5 286.89,-121.4 287.02,-111.79 269,-102.5 261.74,-98.76 253.62,-95.63 245.68,-93.06"/>
<polygon fill="#63b8ff" stroke="#63b8ff" points="315.86,-139.03 326.46,-138.99 318.15,-132.41 315.86,-139.03"/>
</a>
</g>
</g>
<!-- Node146 -->
<g id="Node000146" class="node">
<title>Node146</title>
<g id="a_Node000146"><a xlink:href="render__objects_8c.html#aed285c112a16165b4c91395da0ae8889" target="_top" xlink:title=" ">
<polygon fill="#fff0f0" stroke="red" points="250,-56 159,-56 159,-37 250,-37 250,-56"/>
<text text-anchor="middle" x="204.5" y="-44" font-family="Helvetica,sans-Serif" font-size="10.00">func_80050320</text>
</a>
</g>
</g>
<!-- Node145&#45;&gt;Node146 -->
<g id="edge46_Node000145_Node000146" class="edge">
<title>Node145&#45;&gt;Node146</title>
<g id="a_edge46_Node000145_Node000146"><a xlink:title=" ">
<path fill="none" stroke="#63b8ff" d="M316.61,-98.66C312.61,-97.11 308.69,-95.39 305,-93.5 286.72,-84.12 287.25,-73.94 269,-64.5 262.49,-61.13 255.26,-58.32 248.09,-56"/>
<polygon fill="#63b8ff" stroke="#63b8ff" points="315.47,-101.97 326.06,-101.98 317.79,-95.36 315.47,-101.97"/>
</a>
</g>
</g>
<!-- Node150 -->
<g id="Node000150" class="node">
<title>Node150</title>
<g id="a_Node000150"><a xlink:href="classOSnowman.html#abb32ca3bd6c2d1e50779e2b58b94607f" target="_top" xlink:title=" ">
<polygon fill="white" stroke="#666666" points="268.5,-19 140.5,-19 140.5,0 268.5,0 268.5,-19"/>
<text text-anchor="middle" x="204.5" y="-7" font-family="Helvetica,sans-Serif" font-size="10.00">OSnowman::DrawBody</text>
</a>
</g>
</g>
<!-- Node149&#45;&gt;Node150 -->
<g id="edge49_Node000149_Node000150" class="edge">
<title>Node149&#45;&gt;Node150</title>
<g id="a_edge49_Node000149_Node000150"><a xlink:title=" ">
<path fill="none" stroke="#63b8ff" d="M299.13,-15.19C288.95,-14.57 278.53,-13.94 268.51,-13.33"/>
<polygon fill="#63b8ff" stroke="#63b8ff" points="299.02,-18.69 309.21,-15.8 299.44,-11.7 299.02,-18.69"/>
</a>
</g>
</g>
<!-- Node150&#45;&gt;Node92 -->
<g id="edge50_Node000150_Node000092" class="edge">
<title>Node150&#45;&gt;Node92</title>
<g id="a_edge50_Node000150_Node000092"><a xlink:title=" ">
<path fill="none" stroke="#63b8ff" d="M142.9,-24.81C141.89,-25.66 140.92,-26.56 140,-27.5 92.32,-76.21 60.68,-302.12 54.22,-351.81"/>
<polygon fill="#63b8ff" stroke="#63b8ff" points="144.97,-27.64 151.32,-19.16 141.07,-21.83 144.97,-27.64"/>
</a>
</g>
</g>
</g>
</svg>

<g id="navigator" transform="translate(0 0)" fill="#404254">
  <rect fill="#f2f5e9" fill-opacity="0.5" stroke="#606060" stroke-width=".5" x="0" y="0" width="60" height="60"/>
  <use id="zoomplus" xlink:href="#zoomPlus" x="17" y="9" onmousedown="handleZoom(evt,'in')"/>
  <use id="zoomminus" xlink:href="#zoomMin" x="42" y="9" onmousedown="handleZoom(evt,'out')"/>
  <use id="reset" xlink:href="#resetDef" x="30" y="36" onmousedown="handleReset()"/>
   <use id="arrowup" xlink:href="#arrowUp" x="0" y="0" onmousedown="handlePan(0,-1)"/>
  <use id="arrowright" xlink:href="#arrowRight" x="0" y="0" onmousedown="handlePan(1,0)"/>
  <use id="arrowdown" xlink:href="#arrowDown" x="0" y="0" onmousedown="handlePan(0,1)"/>
  <use id="arrowleft" xlink:href="#arrowLeft" x="0" y="0" onmousedown="handlePan(-1,0)"/>
</g>
<svg viewBox="0 0 15 15" width="100%" height="30px" preserveAspectRatio="xMaxYMin meet">
 <g id="arrow_out" transform="scale(0.3 0.3)">
  <a xlink:href="render__objects_8h_ae93fb428bd6756747edd360e2ae6ebe0_icgraph_org.svg" target="_base">
   <rect id="button" ry="5" rx="5" y="6" x="6" height="38" width="38"
        fill="#f2f5e9" fill-opacity="0.5" stroke="#606060" stroke-width="1.0"/>
   <path id="arrow"
     d="M 11.500037,31.436501 C 11.940474,20.09759 22.043105,11.32322 32.158766,21.979434 L 37.068811,17.246167 C 37.068811,17.246167 37.088388,32 37.088388,32 L 22.160133,31.978069 C 22.160133,31.978069 26.997745,27.140456 26.997745,27.140456 C 18.528582,18.264221 13.291696,25.230495 11.500037,31.436501 z"
     style="fill:#404040;"/>
  </a>
 </g>
</svg>

<style type='text/css'>
<![CDATA[
[data-mouse-over-selected='false'] { opacity: 0.7; }
[data-mouse-over-selected='true']  { opacity: 1.0; }
]]>
</style>
<script type="application/ecmascript"><![CDATA[
document.addEventListener('DOMContentLoaded', (event) => {
  highlightEdges();
  highlightAdjacentNodes();
});
]]></script>
</svg>
