<?xml version="1.0" encoding="UTF-8" standalone="no"?>
<!DOCTYPE svg PUBLIC "-//W3C//DTD SVG 1.1//EN"
 "http://www.w3.org/Graphics/SVG/1.1/DTD/svg11.dtd">
<!-- Generated by graphviz version 2.43.0 (0)
 -->
<!-- Title: render_choco_mountain Pages: 1 -->
<!--zoomable 176 -->

<svg id="main" version="1.1" xmlns="http://www.w3.org/2000/svg" xmlns:xlink="http://www.w3.org/1999/xlink" xml:space="preserve" onload="init(evt)">

<style type="text/css"><![CDATA[
.node, .edge {opacity: 0.7;}
.node.selected, .edge.selected {opacity: 1;}
.edge:hover path { stroke: red; }
.edge:hover polygon { stroke: red; fill: red; }
]]></style>

<defs>
  <circle id="rim" cx="0" cy="0" r="7"/>
  <circle id="rim2" cx="0" cy="0" r="3.5"/>
  <g id="zoomPlus">
    <use xlink:href="#rim" fill="#404040"><set attributeName="fill" to="#808080" begin="zoomplus.mouseover" end="zoomplus.mouseout"/></use>
    <path d="M-4,0h8M0,-4v8" fill="none" stroke="white" stroke-width="1.5" pointer-events="none"/>
  </g>
  <g id="zoomMin">
    <use xlink:href="#rim" fill="#404040"><set attributeName="fill" to="#808080" begin="zoomminus.mouseover" end="zoomminus.mouseout"/></use>
    <path d="M-4,0h8" fill="none" stroke="white" stroke-width="1.5" pointer-events="none"/>
  </g>
  <g id="arrowUp" transform="translate(30 24)">
    <use xlink:href="#rim"/>
    <path pointer-events="none" fill="none" stroke="white" stroke-width="1.5" d="M0,-3.0v7 M-2.5,-0.5L0,-3.0L2.5,-0.5"/>
  </g>
  <g id="arrowRight" transform="rotate(90) translate(36 -43)">
    <use xlink:href="#rim"/>
    <path pointer-events="none" fill="none" stroke="white" stroke-width="1.5" d="M0,-3.0v7 M-2.5,-0.5L0,-3.0L2.5,-0.5"/>
  </g>
  <g id="arrowDown" transform="rotate(180) translate(-30 -48)">
    <use xlink:href="#rim"/>
    <path pointer-events="none" fill="none" stroke="white" stroke-width="1.5" d="M0,-3.0v7 M-2.5,-0.5L0,-3.0L2.5,-0.5"/>
  </g>
  <g id="arrowLeft" transform="rotate(270) translate(-36 17)">
    <use xlink:href="#rim"/>
    <path pointer-events="none" fill="none" stroke="white" stroke-width="1.5" d="M0,-3.0v7 M-2.5,-0.5L0,-3.0L2.5,-0.5"/>
  </g>
  <g id="resetDef">
    <use xlink:href="#rim2" fill="#404040"><set attributeName="fill" to="#808080" begin="reset.mouseover" end="reset.mouseout"/></use>
  </g>
</defs>
<script type="application/ecmascript">
var viewWidth = 740;
var viewHeight = 176;
var sectionId = 'dynsection-19';
</script>
<script type="application/ecmascript" xlink:href="svg.min.js"/>
<svg id="graph" class="graph">
<g id="viewport">
<title>render_choco_mountain</title>
<!-- Node1 -->
<g id="Node000001" class="node">
<title>Node1</title>
<g id="a_Node000001"><a xlink:title=" ">
<polygon fill="#999999" stroke="#666666" points="134,-111 0,-111 0,-92 134,-92 134,-111"/>
<text text-anchor="middle" x="67" y="-99" font-family="Helvetica,sans-Serif" font-size="10.00">render_choco_mountain</text>
</a>
</g>
</g>
<!-- Node2 -->
<g id="Node000002" class="node">
<title>Node2</title>
<g id="a_Node000002"><a xlink:href="render__courses_8c.html#a9a9119b96bf015cf8b5a168485f67e3f" target="_top" xlink:title=" ">
<polygon fill="white" stroke="#666666" points="288,-168 196,-168 196,-149 288,-149 288,-168"/>
<text text-anchor="middle" x="242" y="-156" font-family="Helvetica,sans-Serif" font-size="10.00">func_80290C20</text>
</a>
</g>
</g>
<!-- Node1&#45;&gt;Node2 -->
<g id="edge1_Node000001_Node000002" class="edge">
<title>Node1&#45;&gt;Node2</title>
<g id="a_edge1_Node000001_Node000002"><a xlink:title=" ">
<path fill="none" stroke="#63b8ff" d="M96.96,-111.04C125.77,-120.53 170.18,-135.17 202.07,-145.67"/>
<polygon fill="#63b8ff" stroke="#63b8ff" points="201.36,-149.12 211.95,-148.93 203.55,-142.47 201.36,-149.12"/>
</a>
</g>
</g>
<!-- Node3 -->
<g id="Node000003" class="node">
<title>Node3</title>
<g id="a_Node000003"><a xlink:href="GBIMiddleware_8cpp.html#a4ecc44e3c6f1ca5a6b4a20c41d3bd2d2" target="_top" xlink:title=" ">
<polygon fill="white" stroke="#666666" points="453,-130 364,-130 364,-111 453,-111 453,-130"/>
<text text-anchor="middle" x="408.5" y="-118" font-family="Helvetica,sans-Serif" font-size="10.00">gSPDisplayList</text>
</a>
</g>
</g>
<!-- Node1&#45;&gt;Node3 -->
<g id="edge2_Node000001_Node000003" class="edge">
<title>Node1&#45;&gt;Node3</title>
<g id="a_edge2_Node000001_Node000003"><a xlink:title=" ">
<path fill="none" stroke="#63b8ff" d="M134.26,-105.21C198.16,-108.78 293.69,-114.13 353.21,-117.46"/>
<polygon fill="#63b8ff" stroke="#63b8ff" points="353.35,-120.97 363.53,-118.04 353.74,-113.99 353.35,-120.97"/>
</a>
</g>
</g>
<!-- Node6 -->
<g id="Node000006" class="node">
<title>Node6</title>
<g id="a_Node000006"><a xlink:href="render__courses_8c.html#a0c6536cf72cff97ccc3ed5c85967817e" target="_top" xlink:title=" ">
<polygon fill="white" stroke="#666666" points="311.5,-92 172.5,-92 172.5,-73 311.5,-73 311.5,-92"/>
<text text-anchor="middle" x="242" y="-80" font-family="Helvetica,sans-Serif" font-size="10.00">render_course_segments</text>
</a>
</g>
</g>
<!-- Node1&#45;&gt;Node6 -->
<g id="edge5_Node000001_Node000006" class="edge">
<title>Node1&#45;&gt;Node6</title>
<g id="a_edge5_Node000001_Node000006"><a xlink:title=" ">
<path fill="none" stroke="#63b8ff" d="M134.39,-94.21C143.56,-93.2 153.04,-92.16 162.41,-91.13"/>
<polygon fill="#63b8ff" stroke="#63b8ff" points="162.94,-94.59 172.49,-90.02 162.17,-87.64 162.94,-94.59"/>
</a>
</g>
</g>
<!-- Node10 -->
<g id="Node000010" class="node">
<title>Node10</title>
<g id="a_Node000010"><a xlink:href="memory_8c.html#a8f7f3165d1a5092720aa26d9502bb678" target="_top" xlink:title=" ">
<polygon fill="white" stroke="#666666" points="314,-55 170,-55 170,-36 314,-36 314,-55"/>
<text text-anchor="middle" x="242" y="-43" font-family="Helvetica,sans-Serif" font-size="10.00">segmented_gfx_to_virtual</text>
</a>
</g>
</g>
<!-- Node1&#45;&gt;Node10 -->
<g id="edge10_Node000001_Node000010" class="edge">
<title>Node1&#45;&gt;Node10</title>
<g id="a_edge10_Node000001_Node000010"><a xlink:title=" ">
<path fill="none" stroke="#63b8ff" d="M92.53,-91.93C113.06,-84.07 143.23,-72.92 170,-64.5 177.45,-62.16 185.39,-59.85 193.16,-57.69"/>
<polygon fill="#63b8ff" stroke="#63b8ff" points="194.14,-61.06 202.87,-55.05 192.3,-54.3 194.14,-61.06"/>
</a>
</g>
</g>
<!-- Node4 -->
<g id="Node000004" class="node">
<title>Node4</title>
<g id="a_Node000004"><a xlink:href="Engine_8cpp.html#a223c8bc63f228dc11177515e38eff2db" target="_top" xlink:title=" ">
<polygon fill="white" stroke="#666666" points="652,-130 503,-130 503,-111 652,-111 652,-130"/>
<text text-anchor="middle" x="577.5" y="-118" font-family="Helvetica,sans-Serif" font-size="10.00">GameEngine_OTRSigCheck</text>
</a>
</g>
</g>
<!-- Node3&#45;&gt;Node4 -->
<g id="edge3_Node000003_Node000004" class="edge">
<title>Node3&#45;&gt;Node4</title>
<g id="a_edge3_Node000003_Node000004"><a xlink:title=" ">
<path fill="none" stroke="#63b8ff" d="M453.38,-120.5C465.47,-120.5 479,-120.5 492.55,-120.5"/>
<polygon fill="#63b8ff" stroke="#63b8ff" points="492.89,-124 502.89,-120.5 492.89,-117 492.89,-124"/>
</a>
</g>
</g>
<!-- Node5 -->
<g id="Node000005" class="node">
<title>Node5</title>
<g id="a_Node000005"><a xlink:href="string_8c.html#a008e171a518fe0e0352f31b245e03875" target="_top" xlink:title=" ">
<polygon fill="white" stroke="#666666" points="732,-130 688,-130 688,-111 732,-111 732,-130"/>
<text text-anchor="middle" x="710" y="-118" font-family="Helvetica,sans-Serif" font-size="10.00">strlen</text>
</a>
</g>
</g>
<!-- Node4&#45;&gt;Node5 -->
<g id="edge4_Node000004_Node000005" class="edge">
<title>Node4&#45;&gt;Node5</title>
<g id="a_edge4_Node000004_Node000005"><a xlink:title=" ">
<path fill="none" stroke="#63b8ff" d="M652.14,-120.5C661.12,-120.5 669.89,-120.5 677.75,-120.5"/>
<polygon fill="#63b8ff" stroke="#63b8ff" points="677.83,-124 687.83,-120.5 677.83,-117 677.83,-124"/>
</a>
</g>
</g>
<!-- Node6&#45;&gt;Node3 -->
<g id="edge7_Node000006_Node000003" class="edge">
<title>Node6&#45;&gt;Node3</title>
<g id="a_edge7_Node000006_Node000003"><a xlink:title=" ">
<path fill="none" stroke="#63b8ff" d="M284.51,-92.09C306.32,-97.13 333.23,-103.34 356.32,-108.68"/>
<polygon fill="#63b8ff" stroke="#63b8ff" points="355.76,-112.14 366.29,-110.98 357.33,-105.32 355.76,-112.14"/>
</a>
</g>
</g>
<!-- Node7 -->
<g id="Node000007" class="node">
<title>Node7</title>
<g id="a_Node000007"><a xlink:href="collision_8c.html#a053809031f467d0a6747788211e0ec69" target="_top" xlink:title=" ">
<polygon fill="white" stroke="#666666" points="467,-93 350,-93 350,-74 467,-74 467,-93"/>
<text text-anchor="middle" x="408.5" y="-81" font-family="Helvetica,sans-Serif" font-size="10.00">get_track_section_id</text>
</a>
</g>
</g>
<!-- Node6&#45;&gt;Node7 -->
<g id="edge6_Node000006_Node000007" class="edge">
<title>Node6&#45;&gt;Node7</title>
<g id="a_edge6_Node000006_Node000007"><a xlink:title=" ">
<path fill="none" stroke="#63b8ff" d="M311.81,-82.92C321.02,-82.97 330.46,-83.03 339.66,-83.09"/>
<polygon fill="#63b8ff" stroke="#63b8ff" points="339.89,-86.59 349.91,-83.15 339.93,-79.59 339.89,-86.59"/>
</a>
</g>
</g>
<!-- Node8 -->
<g id="Node000008" class="node">
<title>Node8</title>
<g id="a_Node000008"><a xlink:href="Game_8cpp.html#a8ebd6a4d970e4333ab5a9dd66c3d9c48" target="_top" xlink:title=" ">
<polygon fill="white" stroke="#666666" points="457,-56 360,-56 360,-37 457,-37 457,-56"/>
<text text-anchor="middle" x="408.5" y="-44" font-family="Helvetica,sans-Serif" font-size="10.00">IsBowsersCastle</text>
</a>
</g>
</g>
<!-- Node6&#45;&gt;Node8 -->
<g id="edge8_Node000006_Node000008" class="edge">
<title>Node6&#45;&gt;Node8</title>
<g id="a_edge8_Node000006_Node000008"><a xlink:title=" ">
<path fill="none" stroke="#63b8ff" d="M286.65,-72.95C307.37,-68.41 332.31,-62.95 354.14,-58.18"/>
<polygon fill="#63b8ff" stroke="#63b8ff" points="354.91,-61.59 363.93,-56.03 353.41,-54.75 354.91,-61.59"/>
</a>
</g>
</g>
<!-- Node9 -->
<g id="Node000009" class="node">
<title>Node9</title>
<g id="a_Node000009"><a xlink:href="Game_8cpp.html#a9f5c2ace915f66e850628695f297b1ff" target="_top" xlink:title=" ">
<polygon fill="white" stroke="#666666" points="459,-19 358,-19 358,0 459,0 459,-19"/>
<text text-anchor="middle" x="408.5" y="-7" font-family="Helvetica,sans-Serif" font-size="10.00">IsChocoMountain</text>
</a>
</g>
</g>
<!-- Node6&#45;&gt;Node9 -->
<g id="edge9_Node000006_Node000009" class="edge">
<title>Node6&#45;&gt;Node9</title>
<g id="a_edge9_Node000006_Node000009"><a xlink:title=" ">
<path fill="none" stroke="#63b8ff" d="M294.7,-72.9C301.42,-70.66 308.03,-67.89 314,-64.5 333.67,-53.32 330.74,-40.37 350,-28.5 353.38,-26.42 357.01,-24.54 360.75,-22.84"/>
<polygon fill="#63b8ff" stroke="#63b8ff" points="362.22,-26.02 370.17,-19.01 359.58,-19.54 362.22,-26.02"/>
</a>
</g>
</g>
</g>
</svg>

<g id="navigator" transform="translate(0 0)" fill="#404254">
  <rect fill="#f2f5e9" fill-opacity="0.5" stroke="#606060" stroke-width=".5" x="0" y="0" width="60" height="60"/>
  <use id="zoomplus" xlink:href="#zoomPlus" x="17" y="9" onmousedown="handleZoom(evt,'in')"/>
  <use id="zoomminus" xlink:href="#zoomMin" x="42" y="9" onmousedown="handleZoom(evt,'out')"/>
  <use id="reset" xlink:href="#resetDef" x="30" y="36" onmousedown="handleReset()"/>
   <use id="arrowup" xlink:href="#arrowUp" x="0" y="0" onmousedown="handlePan(0,-1)"/>
  <use id="arrowright" xlink:href="#arrowRight" x="0" y="0" onmousedown="handlePan(1,0)"/>
  <use id="arrowdown" xlink:href="#arrowDown" x="0" y="0" onmousedown="handlePan(0,1)"/>
  <use id="arrowleft" xlink:href="#arrowLeft" x="0" y="0" onmousedown="handlePan(-1,0)"/>
</g>
<svg viewBox="0 0 15 15" width="100%" height="30px" preserveAspectRatio="xMaxYMin meet">
 <g id="arrow_out" transform="scale(0.3 0.3)">
  <a xlink:href="render__courses_8c_a26eba8e475edeea00499b9d2952ad1d5_cgraph_org.svg" target="_base">
   <rect id="button" ry="5" rx="5" y="6" x="6" height="38" width="38"
        fill="#f2f5e9" fill-opacity="0.5" stroke="#606060" stroke-width="1.0"/>
   <path id="arrow"
     d="M 11.500037,31.436501 C 11.940474,20.09759 22.043105,11.32322 32.158766,21.979434 L 37.068811,17.246167 C 37.068811,17.246167 37.088388,32 37.088388,32 L 22.160133,31.978069 C 22.160133,31.978069 26.997745,27.140456 26.997745,27.140456 C 18.528582,18.264221 13.291696,25.230495 11.500037,31.436501 z"
     style="fill:#404040;"/>
  </a>
 </g>
</svg>

<style type='text/css'>
<![CDATA[
[data-mouse-over-selected='false'] { opacity: 0.7; }
[data-mouse-over-selected='true']  { opacity: 1.0; }
]]>
</style>
<script type="application/ecmascript"><![CDATA[
document.addEventListener('DOMContentLoaded', (event) => {
  highlightEdges();
  highlightAdjacentNodes();
});
]]></script>
</svg>
