<?xml version="1.0" encoding="UTF-8" standalone="no"?>
<!DOCTYPE svg PUBLIC "-//W3C//DTD SVG 1.1//EN"
 "http://www.w3.org/Graphics/SVG/1.1/DTD/svg11.dtd">
<!-- Generated by graphviz version 2.43.0 (0)
 -->
<!-- Title: render_kart Pages: 1 -->
<!--zoomable 680 -->

<svg id="main" version="1.1" xmlns="http://www.w3.org/2000/svg" xmlns:xlink="http://www.w3.org/1999/xlink" xml:space="preserve" onload="init(evt)">

<style type="text/css"><![CDATA[
.node, .edge {opacity: 0.7;}
.node.selected, .edge.selected {opacity: 1;}
.edge:hover path { stroke: red; }
.edge:hover polygon { stroke: red; fill: red; }
]]></style>

<defs>
  <circle id="rim" cx="0" cy="0" r="7"/>
  <circle id="rim2" cx="0" cy="0" r="3.5"/>
  <g id="zoomPlus">
    <use xlink:href="#rim" fill="#404040"><set attributeName="fill" to="#808080" begin="zoomplus.mouseover" end="zoomplus.mouseout"/></use>
    <path d="M-4,0h8M0,-4v8" fill="none" stroke="white" stroke-width="1.5" pointer-events="none"/>
  </g>
  <g id="zoomMin">
    <use xlink:href="#rim" fill="#404040"><set attributeName="fill" to="#808080" begin="zoomminus.mouseover" end="zoomminus.mouseout"/></use>
    <path d="M-4,0h8" fill="none" stroke="white" stroke-width="1.5" pointer-events="none"/>
  </g>
  <g id="arrowUp" transform="translate(30 24)">
    <use xlink:href="#rim"/>
    <path pointer-events="none" fill="none" stroke="white" stroke-width="1.5" d="M0,-3.0v7 M-2.5,-0.5L0,-3.0L2.5,-0.5"/>
  </g>
  <g id="arrowRight" transform="rotate(90) translate(36 -43)">
    <use xlink:href="#rim"/>
    <path pointer-events="none" fill="none" stroke="white" stroke-width="1.5" d="M0,-3.0v7 M-2.5,-0.5L0,-3.0L2.5,-0.5"/>
  </g>
  <g id="arrowDown" transform="rotate(180) translate(-30 -48)">
    <use xlink:href="#rim"/>
    <path pointer-events="none" fill="none" stroke="white" stroke-width="1.5" d="M0,-3.0v7 M-2.5,-0.5L0,-3.0L2.5,-0.5"/>
  </g>
  <g id="arrowLeft" transform="rotate(270) translate(-36 17)">
    <use xlink:href="#rim"/>
    <path pointer-events="none" fill="none" stroke="white" stroke-width="1.5" d="M0,-3.0v7 M-2.5,-0.5L0,-3.0L2.5,-0.5"/>
  </g>
  <g id="resetDef">
    <use xlink:href="#rim2" fill="#404040"><set attributeName="fill" to="#808080" begin="reset.mouseover" end="reset.mouseout"/></use>
  </g>
</defs>
<script type="application/ecmascript">
var viewWidth = 903;
var viewHeight = 680;
var sectionId = 'dynsection-61';
</script>
<script type="application/ecmascript" xlink:href="svg.min.js"/>
<svg id="graph" class="graph">
<g id="viewport">
<title>render_kart</title>
<!-- Node1 -->
<g id="Node000001" class="node">
<title>Node1</title>
<g id="a_Node000001"><a xlink:title=" ">
<polygon fill="#999999" stroke="#666666" points="72,-413.34 0,-413.34 0,-394.34 72,-394.34 72,-413.34"/>
<text text-anchor="middle" x="36" y="-401.34" font-family="Helvetica,sans-Serif" font-size="10.00">render_kart</text>
</a>
</g>
</g>
<!-- Node2 -->
<g id="Node000002" class="node">
<title>Node2</title>
<g id="a_Node000002"><a xlink:href="Matrix_8cpp.html#a616e20265f504585fce084aa10529aaa" target="_top" xlink:title=" ">
<polygon fill="white" stroke="#666666" points="213,-627.34 126,-627.34 126,-608.34 213,-608.34 213,-627.34"/>
<text text-anchor="middle" x="169.5" y="-615.34" font-family="Helvetica,sans-Serif" font-size="10.00">AddKartMatrix</text>
</a>
</g>
</g>
<!-- Node1&#45;&gt;Node2 -->
<g id="edge1_Node000001_Node000002" class="edge">
<title>Node1&#45;&gt;Node2</title>
<g id="a_edge1_Node000001_Node000002"><a xlink:title=" ">
<path fill="none" stroke="#63b8ff" d="M38.19,-413.6C42.31,-443.54 58.55,-535.23 108,-588.84 113.61,-594.92 120.76,-599.86 128.17,-603.82"/>
<polygon fill="#63b8ff" stroke="#63b8ff" points="127.06,-607.17 137.59,-608.33 130.08,-600.85 127.06,-607.17"/>
</a>
</g>
</g>
<!-- Node7 -->
<g id="Node000007" class="node">
<title>Node7</title>
<g id="a_Node000007"><a xlink:href="FrameInterpolation_8cpp.html#a3a036bc9d533e28a4e9697cd20dccf3e" target="_top" xlink:title=" ">
<polygon fill="white" stroke="#666666" points="396.5,-591.84 286.5,-591.84 286.5,-561.84 396.5,-561.84 396.5,-591.84"/>
<text text-anchor="start" x="294.5" y="-579.84" font-family="Helvetica,sans-Serif" font-size="10.00">FrameInterpolation</text>
<text text-anchor="middle" x="341.5" y="-568.84" font-family="Helvetica,sans-Serif" font-size="10.00">_RecordCloseChild</text>
</a>
</g>
</g>
<!-- Node1&#45;&gt;Node7 -->
<g id="edge6_Node000001_Node000007" class="edge">
<title>Node1&#45;&gt;Node7</title>
<g id="a_edge6_Node000001_Node000007"><a xlink:title=" ">
<path fill="none" stroke="#63b8ff" d="M38.57,-413.58C43.41,-440.17 60.76,-514.23 108,-547.84 156.68,-582.48 226.04,-586.91 276.32,-584.4"/>
<polygon fill="#63b8ff" stroke="#63b8ff" points="276.66,-587.89 286.43,-583.79 276.23,-580.9 276.66,-587.89"/>
</a>
</g>
</g>
<!-- Node8 -->
<g id="Node000008" class="node">
<title>Node8</title>
<g id="a_Node000008"><a xlink:href="FrameInterpolation_8cpp.html#a0eda726b74eac815af4e874014e2727c" target="_top" xlink:title=" ">
<polygon fill="white" stroke="#666666" points="577,-548.84 467,-548.84 467,-518.84 577,-518.84 577,-548.84"/>
<text text-anchor="start" x="475" y="-536.84" font-family="Helvetica,sans-Serif" font-size="10.00">FrameInterpolation</text>
<text text-anchor="middle" x="522" y="-525.84" font-family="Helvetica,sans-Serif" font-size="10.00">_RecordOpenChild</text>
</a>
</g>
</g>
<!-- Node1&#45;&gt;Node8 -->
<g id="edge8_Node000001_Node000008" class="edge">
<title>Node1&#45;&gt;Node8</title>
<g id="a_edge8_Node000001_Node000008"><a xlink:title=" ">
<path fill="none" stroke="#63b8ff" d="M40.47,-413.51C48.56,-434.47 70.86,-483.86 108,-504.84 165.94,-537.56 356.09,-538.12 456.91,-535.92"/>
<polygon fill="#63b8ff" stroke="#63b8ff" points="457.06,-539.42 466.97,-535.69 456.89,-532.42 457.06,-539.42"/>
</a>
</g>
</g>
<!-- Node9 -->
<g id="Node000009" class="node">
<title>Node9</title>
<g id="a_Node000009"><a xlink:href="render__objects_8c.html#a3412bd1100bae2a7228c53d260c4c5c5" target="_top" xlink:title=" ">
<polygon fill="white" stroke="#666666" points="215.5,-337.34 123.5,-337.34 123.5,-318.34 215.5,-318.34 215.5,-337.34"/>
<text text-anchor="middle" x="169.5" y="-325.34" font-family="Helvetica,sans-Serif" font-size="10.00">func_8004B614</text>
</a>
</g>
</g>
<!-- Node1&#45;&gt;Node9 -->
<g id="edge10_Node000001_Node000009" class="edge">
<title>Node1&#45;&gt;Node9</title>
<g id="a_edge10_Node000001_Node000009"><a xlink:title=" ">
<path fill="none" stroke="#63b8ff" d="M48.44,-394.03C61.98,-382.77 85.53,-364.25 108,-351.84 115.09,-347.92 122.96,-344.31 130.61,-341.15"/>
<polygon fill="#63b8ff" stroke="#63b8ff" points="132.1,-344.32 140.11,-337.39 129.52,-337.81 132.1,-344.32"/>
</a>
</g>
</g>
<!-- Node10 -->
<g id="Node000010" class="node">
<title>Node10</title>
<g id="a_Node000010"><a xlink:href="code__80057C60_8c.html#a156481baa44e5305c016e2902a91bbb1" target="_top" xlink:title=" ">
<polygon fill="white" stroke="#666666" points="215.5,-413.34 123.5,-413.34 123.5,-394.34 215.5,-394.34 215.5,-413.34"/>
<text text-anchor="middle" x="169.5" y="-401.34" font-family="Helvetica,sans-Serif" font-size="10.00">func_80062B18</text>
</a>
</g>
</g>
<!-- Node1&#45;&gt;Node10 -->
<g id="edge11_Node000001_Node000010" class="edge">
<title>Node1&#45;&gt;Node10</title>
<g id="a_edge11_Node000001_Node000010"><a xlink:title=" ">
<path fill="none" stroke="#63b8ff" d="M72.24,-403.84C84.73,-403.84 99.1,-403.84 112.87,-403.84"/>
<polygon fill="#63b8ff" stroke="#63b8ff" points="113.24,-407.34 123.24,-403.84 113.24,-400.34 113.24,-407.34"/>
</a>
</g>
</g>
<!-- Node12 -->
<g id="Node000012" class="node">
<title>Node12</title>
<g id="a_Node000012"><a xlink:href="math__util_8c.html#a19ed3bd78fd2d3e2bd0a29f6caf48545" target="_top" xlink:title=" ">
<polygon fill="white" stroke="#666666" points="359.5,-372.34 323.5,-372.34 323.5,-353.34 359.5,-353.34 359.5,-372.34"/>
<text text-anchor="middle" x="341.5" y="-360.34" font-family="Helvetica,sans-Serif" font-size="10.00">sins</text>
</a>
</g>
</g>
<!-- Node1&#45;&gt;Node12 -->
<g id="edge54_Node000001_Node000012" class="edge">
<title>Node1&#45;&gt;Node12</title>
<g id="a_edge54_Node000001_Node000012"><a xlink:title=" ">
<path fill="none" stroke="#63b8ff" d="M70.37,-394.28C82.17,-391.19 95.6,-388.01 108,-385.84 181.66,-372.93 269.82,-366.69 313.38,-364.2"/>
<polygon fill="#63b8ff" stroke="#63b8ff" points="313.67,-367.69 323.46,-363.65 313.29,-360.7 313.67,-367.69"/>
</a>
</g>
</g>
<!-- Node13 -->
<g id="Node000013" class="node">
<title>Node13</title>
<g id="a_Node000013"><a xlink:href="GBIMiddleware_8cpp.html#a4ecc44e3c6f1ca5a6b4a20c41d3bd2d2" target="_top" xlink:title=" ">
<polygon fill="white" stroke="#666666" points="214,-300.34 125,-300.34 125,-281.34 214,-281.34 214,-300.34"/>
<text text-anchor="middle" x="169.5" y="-288.34" font-family="Helvetica,sans-Serif" font-size="10.00">gSPDisplayList</text>
</a>
</g>
</g>
<!-- Node1&#45;&gt;Node13 -->
<g id="edge14_Node000001_Node000013" class="edge">
<title>Node1&#45;&gt;Node13</title>
<g id="a_edge14_Node000001_Node000013"><a xlink:title=" ">
<path fill="none" stroke="#63b8ff" d="M41.62,-394.28C51.27,-375.33 75.41,-332.82 108,-309.84 110.83,-307.84 113.88,-306.05 117.05,-304.44"/>
<polygon fill="#63b8ff" stroke="#63b8ff" points="118.5,-307.63 126.22,-300.38 115.66,-301.23 118.5,-307.63"/>
</a>
</g>
</g>
<!-- Node16 -->
<g id="Node000016" class="node">
<title>Node16</title>
<g id="a_Node000016"><a xlink:href="GBIMiddleware_8cpp.html#aeef79449a27a710d73576e4a4f7f7f99" target="_top" xlink:title=" ">
<polygon fill="white" stroke="#666666" points="202.5,-263.34 136.5,-263.34 136.5,-244.34 202.5,-244.34 202.5,-263.34"/>
<text text-anchor="middle" x="169.5" y="-251.34" font-family="Helvetica,sans-Serif" font-size="10.00">gSPVertex</text>
</a>
</g>
</g>
<!-- Node1&#45;&gt;Node16 -->
<g id="edge17_Node000001_Node000016" class="edge">
<title>Node1&#45;&gt;Node16</title>
<g id="a_edge17_Node000001_Node000016"><a xlink:title=" ">
<path fill="none" stroke="#63b8ff" d="M39.46,-394.33C46.16,-370.28 67.07,-306.56 108,-272.84 113.42,-268.37 119.9,-264.95 126.58,-262.33"/>
<polygon fill="#63b8ff" stroke="#63b8ff" points="128.02,-265.54 136.39,-259.04 125.79,-258.9 128.02,-265.54"/>
</a>
</g>
</g>
<!-- Node17 -->
<g id="Node000017" class="node">
<title>Node17</title>
<g id="a_Node000017"><a xlink:href="kart__dma_8c.html#aac244fa71146e9abe9ee94f82ef2e932" target="_top" xlink:title="Place DMA mio0 compressed character textures in a buffer. Later, this data becomes decompressed.">
<polygon fill="white" stroke="#666666" points="220.5,-226.34 118.5,-226.34 118.5,-207.34 220.5,-207.34 220.5,-226.34"/>
<text text-anchor="middle" x="169.5" y="-214.34" font-family="Helvetica,sans-Serif" font-size="10.00">load_kart_texture</text>
</a>
</g>
</g>
<!-- Node1&#45;&gt;Node17 -->
<g id="edge19_Node000001_Node000017" class="edge">
<title>Node1&#45;&gt;Node17</title>
<g id="a_edge19_Node000001_Node000017"><a xlink:title=" ">
<path fill="none" stroke="#63b8ff" d="M38.23,-394.25C42.38,-365.76 58.55,-280.77 108,-235.84 109.72,-234.27 111.57,-232.84 113.51,-231.52"/>
<polygon fill="#63b8ff" stroke="#63b8ff" points="115.53,-234.41 122.55,-226.47 112.11,-228.3 115.53,-234.41"/>
</a>
</g>
</g>
<!-- Node30 -->
<g id="Node000030" class="node">
<title>Node30</title>
<g id="a_Node000030"><a xlink:href="math__util_8c.html#aca95a220db79fe028b35270f35a4a7b3" target="_top" xlink:title=" ">
<polygon fill="white" stroke="#666666" points="205,-495.34 134,-495.34 134,-476.34 205,-476.34 205,-495.34"/>
<text text-anchor="middle" x="169.5" y="-483.34" font-family="Helvetica,sans-Serif" font-size="10.00">mtxf_scale</text>
</a>
</g>
</g>
<!-- Node1&#45;&gt;Node30 -->
<g id="edge46_Node000001_Node000030" class="edge">
<title>Node1&#45;&gt;Node30</title>
<g id="a_edge46_Node000001_Node000030"><a xlink:title=" ">
<path fill="none" stroke="#63b8ff" d="M47.42,-413.51C60.72,-425.5 84.8,-446.03 108,-459.84 115.78,-464.47 124.54,-468.72 132.92,-472.39"/>
<polygon fill="#63b8ff" stroke="#63b8ff" points="131.58,-475.62 142.16,-476.27 134.29,-469.17 131.58,-475.62"/>
</a>
</g>
</g>
<!-- Node32 -->
<g id="Node000032" class="node">
<title>Node32</title>
<g id="a_Node000032"><a xlink:href="render__player_8c.html#a565e21fd6aa0dacea58fb8a0e4304772" target="_top" xlink:title=" ">
<polygon fill="white" stroke="#666666" points="231,-450.34 108,-450.34 108,-431.34 231,-431.34 231,-450.34"/>
<text text-anchor="middle" x="169.5" y="-438.34" font-family="Helvetica,sans-Serif" font-size="10.00">mtxf_translate_rotate</text>
</a>
</g>
</g>
<!-- Node1&#45;&gt;Node32 -->
<g id="edge49_Node000001_Node000032" class="edge">
<title>Node1&#45;&gt;Node32</title>
<g id="a_edge49_Node000001_Node000032"><a xlink:title=" ">
<path fill="none" stroke="#63b8ff" d="M70.86,-413.37C87.15,-417.95 106.88,-423.5 124.33,-428.41"/>
<polygon fill="#63b8ff" stroke="#63b8ff" points="123.72,-431.87 134.29,-431.21 125.61,-425.14 123.72,-431.87"/>
</a>
</g>
</g>
<!-- Node3 -->
<g id="Node000003" class="node">
<title>Node3</title>
<g id="a_Node000003"><a xlink:href="Matrix_8cpp.html#aaa0983157188edefc6259671ccda6746" target="_top" xlink:title=" ">
<polygon fill="white" stroke="#666666" points="375,-629.34 308,-629.34 308,-610.34 375,-610.34 375,-629.34"/>
<text text-anchor="middle" x="341.5" y="-617.34" font-family="Helvetica,sans-Serif" font-size="10.00">AddMatrix</text>
</a>
</g>
</g>
<!-- Node2&#45;&gt;Node3 -->
<g id="edge2_Node000002_Node000003" class="edge">
<title>Node2&#45;&gt;Node3</title>
<g id="a_edge2_Node000002_Node000003"><a xlink:title=" ">
<path fill="none" stroke="#63b8ff" d="M213.4,-618.34C239.16,-618.65 271.83,-619.03 297.59,-619.33"/>
<polygon fill="#63b8ff" stroke="#63b8ff" points="297.77,-622.84 307.81,-619.45 297.85,-615.84 297.77,-622.84"/>
</a>
</g>
</g>
<!-- Node4 -->
<g id="Node000004" class="node">
<title>Node4</title>
<g id="a_Node000004"><a xlink:href="FrameInterpolation_8cpp.html#a8cf1f2d6fabc6925aa71a9515341b4aa" target="_top" xlink:title=" ">
<polygon fill="white" stroke="#666666" points="592,-634.84 452,-634.84 452,-604.84 592,-604.84 592,-634.84"/>
<text text-anchor="start" x="460" y="-622.84" font-family="Helvetica,sans-Serif" font-size="10.00">FrameInterpolation</text>
<text text-anchor="middle" x="522" y="-611.84" font-family="Helvetica,sans-Serif" font-size="10.00">_RecordMatrixMtxFToMtx</text>
</a>
</g>
</g>
<!-- Node3&#45;&gt;Node4 -->
<g id="edge3_Node000003_Node000004" class="edge">
<title>Node3&#45;&gt;Node4</title>
<g id="a_edge3_Node000003_Node000004"><a xlink:title=" ">
<path fill="none" stroke="#63b8ff" d="M375.24,-619.84C393.91,-619.84 418.2,-619.84 441.57,-619.84"/>
<polygon fill="#63b8ff" stroke="#63b8ff" points="441.86,-623.34 451.86,-619.84 441.86,-616.34 441.86,-623.34"/>
</a>
</g>
</g>
<!-- Node6 -->
<g id="Node000006" class="node">
<title>Node6</title>
<g id="a_Node000006"><a xlink:href="guMtxF2L_8c.html#a40ab2d64c609839ff1e0ef0de2d0dcc4" target="_top" xlink:title=" ">
<polygon fill="white" stroke="#666666" points="554.5,-672.34 489.5,-672.34 489.5,-653.34 554.5,-653.34 554.5,-672.34"/>
<text text-anchor="middle" x="522" y="-660.34" font-family="Helvetica,sans-Serif" font-size="10.00">guMtxF2L</text>
</a>
</g>
</g>
<!-- Node3&#45;&gt;Node6 -->
<g id="edge5_Node000003_Node000006" class="edge">
<title>Node3&#45;&gt;Node6</title>
<g id="a_edge5_Node000003_Node000006"><a xlink:title=" ">
<path fill="none" stroke="#63b8ff" d="M375.24,-627.72C404.57,-634.79 447.74,-645.19 479.49,-652.84"/>
<polygon fill="#63b8ff" stroke="#63b8ff" points="478.83,-656.28 489.37,-655.22 480.47,-649.47 478.83,-656.28"/>
</a>
</g>
</g>
<!-- Node5 -->
<g id="Node000005" class="node">
<title>Node5</title>
<g id="a_Node000005"><a xlink:href="FrameInterpolation_8cpp.html#a02c7ac5342a4d376edee38f312b480bf" target="_top" xlink:title=" ">
<polygon fill="white" stroke="#666666" points="736,-543.34 628,-543.34 628,-524.34 736,-524.34 736,-543.34"/>
<text text-anchor="middle" x="682" y="-531.34" font-family="Helvetica,sans-Serif" font-size="10.00">check_if_recording</text>
</a>
</g>
</g>
<!-- Node4&#45;&gt;Node5 -->
<g id="edge4_Node000004_Node000005" class="edge">
<title>Node4&#45;&gt;Node5</title>
<g id="a_edge4_Node000004_Node000005"><a xlink:title=" ">
<path fill="none" stroke="#63b8ff" d="M562.22,-604.73C572.1,-600.55 582.57,-595.79 592,-590.84 615.79,-578.34 641.49,-561.48 659.13,-549.35"/>
<polygon fill="#63b8ff" stroke="#63b8ff" points="661.35,-552.06 667.57,-543.48 657.36,-546.32 661.35,-552.06"/>
</a>
</g>
</g>
<!-- Node7&#45;&gt;Node5 -->
<g id="edge7_Node000007_Node000005" class="edge">
<title>Node7&#45;&gt;Node5</title>
<g id="a_edge7_Node000007_Node000005"><a xlink:title=" ">
<path fill="none" stroke="#63b8ff" d="M396.88,-575.63C447.67,-573.81 525.42,-569.25 592,-557.84 608.43,-555.02 626.23,-550.52 641.56,-546.18"/>
<polygon fill="#63b8ff" stroke="#63b8ff" points="642.61,-549.52 651.24,-543.36 640.66,-542.79 642.61,-549.52"/>
</a>
</g>
</g>
<!-- Node8&#45;&gt;Node5 -->
<g id="edge9_Node000008_Node000005" class="edge">
<title>Node8&#45;&gt;Node5</title>
<g id="a_edge9_Node000008_Node000005"><a xlink:title=" ">
<path fill="none" stroke="#63b8ff" d="M577.37,-533.84C590.39,-533.84 604.4,-533.84 617.78,-533.84"/>
<polygon fill="#63b8ff" stroke="#63b8ff" points="617.86,-537.34 627.86,-533.84 617.86,-530.34 617.86,-537.34"/>
</a>
</g>
</g>
<!-- Node11 -->
<g id="Node000011" class="node">
<title>Node11</title>
<g id="a_Node000011"><a xlink:href="math__util_8c.html#ae69cbf5c8d4b3b0dba2d7b4d4673689f" target="_top" xlink:title=" ">
<polygon fill="white" stroke="#666666" points="360.5,-409.34 322.5,-409.34 322.5,-390.34 360.5,-390.34 360.5,-409.34"/>
<text text-anchor="middle" x="341.5" y="-397.34" font-family="Helvetica,sans-Serif" font-size="10.00">coss</text>
</a>
</g>
</g>
<!-- Node10&#45;&gt;Node11 -->
<g id="edge12_Node000010_Node000011" class="edge">
<title>Node10&#45;&gt;Node11</title>
<g id="a_edge12_Node000010_Node000011"><a xlink:title=" ">
<path fill="none" stroke="#63b8ff" d="M215.61,-402.78C246.22,-402.06 285.74,-401.13 312.05,-400.51"/>
<polygon fill="#63b8ff" stroke="#63b8ff" points="312.19,-404 322.11,-400.27 312.03,-397.01 312.19,-404"/>
</a>
</g>
</g>
<!-- Node10&#45;&gt;Node12 -->
<g id="edge13_Node000010_Node000012" class="edge">
<title>Node10&#45;&gt;Node12</title>
<g id="a_edge13_Node000010_Node000012"><a xlink:title=" ">
<path fill="none" stroke="#63b8ff" d="M209.93,-394.33C241.76,-386.65 285.7,-376.05 313.61,-369.32"/>
<polygon fill="#63b8ff" stroke="#63b8ff" points="314.56,-372.69 323.46,-366.95 312.92,-365.89 314.56,-372.69"/>
</a>
</g>
</g>
<!-- Node14 -->
<g id="Node000014" class="node">
<title>Node14</title>
<g id="a_Node000014"><a xlink:href="Engine_8cpp.html#a223c8bc63f228dc11177515e38eff2db" target="_top" xlink:title=" ">
<polygon fill="white" stroke="#666666" points="416,-300.34 267,-300.34 267,-281.34 416,-281.34 416,-300.34"/>
<text text-anchor="middle" x="341.5" y="-288.34" font-family="Helvetica,sans-Serif" font-size="10.00">GameEngine_OTRSigCheck</text>
</a>
</g>
</g>
<!-- Node13&#45;&gt;Node14 -->
<g id="edge15_Node000013_Node000014" class="edge">
<title>Node13&#45;&gt;Node14</title>
<g id="a_edge15_Node000013_Node000014"><a xlink:title=" ">
<path fill="none" stroke="#63b8ff" d="M214.28,-290.84C227.31,-290.84 242.04,-290.84 256.73,-290.84"/>
<polygon fill="#63b8ff" stroke="#63b8ff" points="256.86,-294.34 266.86,-290.84 256.86,-287.34 256.86,-294.34"/>
</a>
</g>
</g>
<!-- Node15 -->
<g id="Node000015" class="node">
<title>Node15</title>
<g id="a_Node000015"><a xlink:href="string_8c.html#a008e171a518fe0e0352f31b245e03875" target="_top" xlink:title=" ">
<polygon fill="white" stroke="#666666" points="544,-300.34 500,-300.34 500,-281.34 544,-281.34 544,-300.34"/>
<text text-anchor="middle" x="522" y="-288.34" font-family="Helvetica,sans-Serif" font-size="10.00">strlen</text>
</a>
</g>
</g>
<!-- Node14&#45;&gt;Node15 -->
<g id="edge16_Node000014_Node000015" class="edge">
<title>Node14&#45;&gt;Node15</title>
<g id="a_edge16_Node000014_Node000015"><a xlink:title=" ">
<path fill="none" stroke="#63b8ff" d="M416.13,-290.84C441.69,-290.84 469.02,-290.84 489.37,-290.84"/>
<polygon fill="#63b8ff" stroke="#63b8ff" points="489.61,-294.34 499.61,-290.84 489.61,-287.34 489.61,-294.34"/>
</a>
</g>
</g>
<!-- Node16&#45;&gt;Node14 -->
<g id="edge18_Node000016_Node000014" class="edge">
<title>Node16&#45;&gt;Node14</title>
<g id="a_edge18_Node000016_Node000014"><a xlink:title=" ">
<path fill="none" stroke="#63b8ff" d="M202.88,-260.88C226.56,-266.04 259.22,-273.15 286.78,-279.15"/>
<polygon fill="#63b8ff" stroke="#63b8ff" points="286.17,-282.59 296.68,-281.3 287.66,-275.75 286.17,-282.59"/>
</a>
</g>
</g>
<!-- Node18 -->
<g id="Node000018" class="node">
<title>Node18</title>
<g id="a_Node000018"><a xlink:href="osPiStartDma_8c.html#ae288a36d96a4db6977d95327e246ec12" target="_top" xlink:title=" ">
<polygon fill="white" stroke="#666666" points="383,-226.34 300,-226.34 300,-207.34 383,-207.34 383,-226.34"/>
<text text-anchor="middle" x="341.5" y="-214.34" font-family="Helvetica,sans-Serif" font-size="10.00">osPiStartDma</text>
</a>
</g>
</g>
<!-- Node17&#45;&gt;Node18 -->
<g id="edge20_Node000017_Node000018" class="edge">
<title>Node17&#45;&gt;Node18</title>
<g id="a_edge20_Node000017_Node000018"><a xlink:title=" ">
<path fill="none" stroke="#63b8ff" d="M220.59,-216.84C242.4,-216.84 267.93,-216.84 289.81,-216.84"/>
<polygon fill="#63b8ff" stroke="#63b8ff" points="289.9,-220.34 299.9,-216.84 289.9,-213.34 289.9,-220.34"/>
</a>
</g>
</g>
<!-- Node29 -->
<g id="Node000029" class="node">
<title>Node29</title>
<g id="a_Node000029"><a xlink:href="osRecvMesg_8c.html#aa254dc33e373f235a99e17f7717493dc" target="_top" xlink:title=" ">
<polygon fill="white" stroke="#666666" points="561,-152.34 483,-152.34 483,-133.34 561,-133.34 561,-152.34"/>
<text text-anchor="middle" x="522" y="-140.34" font-family="Helvetica,sans-Serif" font-size="10.00">osRecvMesg</text>
</a>
</g>
</g>
<!-- Node17&#45;&gt;Node29 -->
<g id="edge40_Node000017_Node000029" class="edge">
<title>Node17&#45;&gt;Node29</title>
<g id="a_edge40_Node000017_Node000029"><a xlink:title=" ">
<path fill="none" stroke="#63b8ff" d="M215.6,-207.31C281.82,-193.34 404.81,-167.37 472.76,-153.02"/>
<polygon fill="#63b8ff" stroke="#63b8ff" points="473.72,-156.4 482.78,-150.91 472.27,-149.55 473.72,-156.4"/>
</a>
</g>
</g>
<!-- Node19 -->
<g id="Node000019" class="node">
<title>Node19</title>
<g id="a_Node000019"><a xlink:href="osJamMesg_8c.html#ac69f7738a5120910a2f6202d27fb44f4" target="_top" xlink:title=" ">
<polygon fill="white" stroke="#666666" points="558.5,-263.34 485.5,-263.34 485.5,-244.34 558.5,-244.34 558.5,-263.34"/>
<text text-anchor="middle" x="522" y="-251.34" font-family="Helvetica,sans-Serif" font-size="10.00">osJamMesg</text>
</a>
</g>
</g>
<!-- Node18&#45;&gt;Node19 -->
<g id="edge21_Node000018_Node000019" class="edge">
<title>Node18&#45;&gt;Node19</title>
<g id="a_edge21_Node000018_Node000019"><a xlink:title=" ">
<path fill="none" stroke="#63b8ff" d="M383,-225.23C410.49,-230.93 446.87,-238.47 475.37,-244.38"/>
<polygon fill="#63b8ff" stroke="#63b8ff" points="474.99,-247.87 485.49,-246.48 476.41,-241.02 474.99,-247.87"/>
</a>
</g>
</g>
<!-- Node27 -->
<g id="Node000027" class="node">
<title>Node27</title>
<g id="a_Node000027"><a xlink:href="osPiGetCmdQueue_8c.html#a758cb1b861d52fc7655d52ac7144ac88" target="_top" xlink:title=" ">
<polygon fill="white" stroke="#666666" points="576,-189.34 468,-189.34 468,-170.34 576,-170.34 576,-189.34"/>
<text text-anchor="middle" x="522" y="-177.34" font-family="Helvetica,sans-Serif" font-size="10.00">osPiGetCmdQueue</text>
</a>
</g>
</g>
<!-- Node18&#45;&gt;Node27 -->
<g id="edge33_Node000018_Node000027" class="edge">
<title>Node18&#45;&gt;Node27</title>
<g id="a_edge33_Node000018_Node000027"><a xlink:title=" ">
<path fill="none" stroke="#63b8ff" d="M383,-208.44C407.27,-203.41 438.46,-196.95 465.05,-191.44"/>
<polygon fill="#63b8ff" stroke="#63b8ff" points="465.91,-194.83 474.99,-189.37 464.49,-187.98 465.91,-194.83"/>
</a>
</g>
</g>
<!-- Node28 -->
<g id="Node000028" class="node">
<title>Node28</title>
<g id="a_Node000028"><a xlink:href="osSendMesg_8c.html#a413bd1b0a16c54dcc9e59c48b3d7f142" target="_top" xlink:title=" ">
<polygon fill="white" stroke="#666666" points="561,-226.34 483,-226.34 483,-207.34 561,-207.34 561,-226.34"/>
<text text-anchor="middle" x="522" y="-214.34" font-family="Helvetica,sans-Serif" font-size="10.00">osSendMesg</text>
</a>
</g>
</g>
<!-- Node18&#45;&gt;Node28 -->
<g id="edge34_Node000018_Node000028" class="edge">
<title>Node18&#45;&gt;Node28</title>
<g id="a_edge34_Node000018_Node000028"><a xlink:title=" ">
<path fill="none" stroke="#63b8ff" d="M383,-216.84C409.66,-216.84 444.69,-216.84 472.79,-216.84"/>
<polygon fill="#63b8ff" stroke="#63b8ff" points="472.79,-220.34 482.79,-216.84 472.79,-213.34 472.79,-220.34"/>
</a>
</g>
</g>
<!-- Node20 -->
<g id="Node000020" class="node">
<title>Node20</title>
<g id="a_Node000020"><a xlink:href="libultra__internal_8h.html#a8ad9db8aa6bfc4437abdd0363b663b16" target="_top" xlink:title=" ">
<polygon fill="white" stroke="#666666" points="877.5,-283.34 789.5,-283.34 789.5,-264.34 877.5,-264.34 877.5,-283.34"/>
<text text-anchor="middle" x="833.5" y="-271.34" font-family="Helvetica,sans-Serif" font-size="10.00">__osDisableInt</text>
</a>
</g>
</g>
<!-- Node19&#45;&gt;Node20 -->
<g id="edge22_Node000019_Node000020" class="edge">
<title>Node19&#45;&gt;Node20</title>
<g id="a_edge22_Node000019_Node000020"><a xlink:title=" ">
<path fill="none" stroke="#63b8ff" d="M558.7,-260.15C569.82,-263.02 581.82,-267.11 592,-272.84 611.18,-283.63 607.55,-298.71 628,-306.84 687.74,-330.59 763.76,-305.08 804.2,-287.52"/>
<polygon fill="#63b8ff" stroke="#63b8ff" points="805.76,-290.66 813.45,-283.38 802.89,-284.27 805.76,-290.66"/>
</a>
</g>
</g>
<!-- Node21 -->
<g id="Node000021" class="node">
<title>Node21</title>
<g id="a_Node000021"><a xlink:href="libultra__internal_8h.html#afe9c3abc4ca93d9fe18a87d9f108d5cb" target="_top" xlink:title=" ">
<polygon fill="white" stroke="#666666" points="895,-132.34 772,-132.34 772,-113.34 895,-113.34 895,-132.34"/>
<text text-anchor="middle" x="833.5" y="-120.34" font-family="Helvetica,sans-Serif" font-size="10.00">__osEnqueueAndYield</text>
</a>
</g>
</g>
<!-- Node19&#45;&gt;Node21 -->
<g id="edge23_Node000019_Node000021" class="edge">
<title>Node19&#45;&gt;Node21</title>
<g id="a_edge23_Node000019_Node000021"><a xlink:title=" ">
<path fill="none" stroke="#63b8ff" d="M558.84,-248.37C569.97,-245.67 581.94,-241.69 592,-235.84 611.83,-224.3 608.78,-211.36 628,-198.84 642.45,-189.42 739.88,-154.92 794.88,-135.81"/>
<polygon fill="#63b8ff" stroke="#63b8ff" points="796.33,-139.01 804.63,-132.43 794.03,-132.4 796.33,-139.01"/>
</a>
</g>
</g>
<!-- Node22 -->
<g id="Node000022" class="node">
<title>Node22</title>
<g id="a_Node000022"><a xlink:href="libultra__internal_8h.html#aaadded63bebce6cfdda5ecda193fc9ea" target="_top" xlink:title=" ">
<polygon fill="white" stroke="#666666" points="878.5,-359.34 788.5,-359.34 788.5,-340.34 878.5,-340.34 878.5,-359.34"/>
<text text-anchor="middle" x="833.5" y="-347.34" font-family="Helvetica,sans-Serif" font-size="10.00">__osPopThread</text>
</a>
</g>
</g>
<!-- Node19&#45;&gt;Node22 -->
<g id="edge24_Node000019_Node000022" class="edge">
<title>Node19&#45;&gt;Node22</title>
<g id="a_edge24_Node000019_Node000022"><a xlink:title=" ">
<path fill="none" stroke="#63b8ff" d="M558.77,-258.74C570.14,-261.54 582.27,-265.94 592,-272.84 614.93,-289.1 603.94,-310.3 628,-324.84 673.35,-352.23 734.68,-356.3 778.32,-354.86"/>
<polygon fill="#63b8ff" stroke="#63b8ff" points="778.62,-358.35 788.46,-354.41 778.32,-351.35 778.62,-358.35"/>
</a>
</g>
</g>
<!-- Node23 -->
<g id="Node000023" class="node">
<title>Node23</title>
<g id="a_Node000023"><a xlink:href="libultra__internal_8h.html#aecafa57b85fd739d6033705808194def" target="_top" xlink:title=" ">
<polygon fill="white" stroke="#666666" points="878,-76.34 789,-76.34 789,-57.34 878,-57.34 878,-76.34"/>
<text text-anchor="middle" x="833.5" y="-64.34" font-family="Helvetica,sans-Serif" font-size="10.00">__osRestoreInt</text>
</a>
</g>
</g>
<!-- Node19&#45;&gt;Node23 -->
<g id="edge25_Node000019_Node000023" class="edge">
<title>Node19&#45;&gt;Node23</title>
<g id="a_edge25_Node000019_Node000023"><a xlink:title=" ">
<path fill="none" stroke="#63b8ff" d="M558.84,-250.7C570.47,-248.17 582.75,-243.69 592,-235.84 622.03,-210.34 598.83,-181.32 628,-154.84 665.46,-120.83 689.56,-138.91 736,-118.84 761.37,-107.87 789.01,-92.61 808.18,-81.46"/>
<polygon fill="#63b8ff" stroke="#63b8ff" points="810.02,-84.44 816.87,-76.35 806.47,-78.4 810.02,-84.44"/>
</a>
</g>
</g>
<!-- Node24 -->
<g id="Node000024" class="node">
<title>Node24</title>
<g id="a_Node000024"><a xlink:href="osStartThread_8c.html#a3b144e814933e16a2fbf2642ad098ed3" target="_top" xlink:title=" ">
<polygon fill="white" stroke="#666666" points="724.5,-226.34 639.5,-226.34 639.5,-207.34 724.5,-207.34 724.5,-226.34"/>
<text text-anchor="middle" x="682" y="-214.34" font-family="Helvetica,sans-Serif" font-size="10.00">osStartThread</text>
</a>
</g>
</g>
<!-- Node19&#45;&gt;Node24 -->
<g id="edge26_Node000019_Node000024" class="edge">
<title>Node19&#45;&gt;Node24</title>
<g id="a_edge26_Node000019_Node000024"><a xlink:title=" ">
<path fill="none" stroke="#63b8ff" d="M558.85,-245.44C579.95,-240.5 606.97,-234.17 630.23,-228.73"/>
<polygon fill="#63b8ff" stroke="#63b8ff" points="631.34,-232.06 640.28,-226.37 629.74,-225.25 631.34,-232.06"/>
</a>
</g>
</g>
<!-- Node24&#45;&gt;Node20 -->
<g id="edge27_Node000024_Node000020" class="edge">
<title>Node24&#45;&gt;Node20</title>
<g id="a_edge27_Node000024_Node000020"><a xlink:title=" ">
<path fill="none" stroke="#63b8ff" d="M708.02,-226.38C732.6,-235.75 770.31,-250.13 797.78,-260.6"/>
<polygon fill="#63b8ff" stroke="#63b8ff" points="796.8,-263.97 807.4,-264.27 799.3,-257.43 796.8,-263.97"/>
</a>
</g>
</g>
<!-- Node24&#45;&gt;Node21 -->
<g id="edge29_Node000024_Node000021" class="edge">
<title>Node24&#45;&gt;Node21</title>
<g id="a_edge29_Node000024_Node000021"><a xlink:title=" ">
<path fill="none" stroke="#63b8ff" d="M708.08,-207.32C717.19,-203.4 727.36,-198.45 736,-192.84 753.95,-181.18 754.88,-173.69 772,-160.84 783.01,-152.58 795.83,-144.34 806.84,-137.66"/>
<polygon fill="#63b8ff" stroke="#63b8ff" points="808.78,-140.58 815.57,-132.44 805.19,-134.57 808.78,-140.58"/>
</a>
</g>
</g>
<!-- Node24&#45;&gt;Node22 -->
<g id="edge31_Node000024_Node000022" class="edge">
<title>Node24&#45;&gt;Node22</title>
<g id="a_edge31_Node000024_Node000022"><a xlink:title=" ">
<path fill="none" stroke="#63b8ff" d="M693.75,-226.4C718.95,-248.82 782.08,-304.98 813.75,-333.16"/>
<polygon fill="#63b8ff" stroke="#63b8ff" points="811.64,-335.97 821.44,-340 816.3,-330.74 811.64,-335.97"/>
</a>
</g>
</g>
<!-- Node24&#45;&gt;Node23 -->
<g id="edge32_Node000024_Node000023" class="edge">
<title>Node24&#45;&gt;Node23</title>
<g id="a_edge32_Node000024_Node000023"><a xlink:title=" ">
<path fill="none" stroke="#63b8ff" d="M691.92,-206.98C702.7,-194.95 721.22,-173.84 736,-154.84 753.03,-132.94 751.75,-122.8 772,-103.84 781.31,-95.12 793,-87.39 803.62,-81.29"/>
<polygon fill="#63b8ff" stroke="#63b8ff" points="805.51,-84.24 812.58,-76.36 802.13,-78.11 805.51,-84.24"/>
</a>
</g>
</g>
<!-- Node25 -->
<g id="Node000025" class="node">
<title>Node25</title>
<g id="a_Node000025"><a xlink:href="libultra__internal_8h.html#a650b788ebd5efde9c8cbccc1ee832445" target="_top" xlink:title=" ">
<polygon fill="white" stroke="#666666" points="891,-226.34 776,-226.34 776,-207.34 891,-207.34 891,-226.34"/>
<text text-anchor="middle" x="833.5" y="-214.34" font-family="Helvetica,sans-Serif" font-size="10.00">__osDispatchThread</text>
</a>
</g>
</g>
<!-- Node24&#45;&gt;Node25 -->
<g id="edge28_Node000024_Node000025" class="edge">
<title>Node24&#45;&gt;Node25</title>
<g id="a_edge28_Node000024_Node000025"><a xlink:title=" ">
<path fill="none" stroke="#63b8ff" d="M724.64,-216.84C737.44,-216.84 751.85,-216.84 765.88,-216.84"/>
<polygon fill="#63b8ff" stroke="#63b8ff" points="765.99,-220.34 775.99,-216.84 765.99,-213.34 765.99,-220.34"/>
</a>
</g>
</g>
<!-- Node26 -->
<g id="Node000026" class="node">
<title>Node26</title>
<g id="a_Node000026"><a xlink:href="libultra__internal_8h.html#ac9d6cfd19de5565e74f1d74a14e9092d" target="_top" xlink:title=" ">
<polygon fill="white" stroke="#666666" points="890.5,-189.34 776.5,-189.34 776.5,-170.34 890.5,-170.34 890.5,-189.34"/>
<text text-anchor="middle" x="833.5" y="-177.34" font-family="Helvetica,sans-Serif" font-size="10.00">__osEnqueueThread</text>
</a>
</g>
</g>
<!-- Node24&#45;&gt;Node26 -->
<g id="edge30_Node000024_Node000026" class="edge">
<title>Node24&#45;&gt;Node26</title>
<g id="a_edge30_Node000024_Node000026"><a xlink:title=" ">
<path fill="none" stroke="#63b8ff" d="M721.5,-207.31C740.52,-202.6 763.67,-196.87 783.9,-191.87"/>
<polygon fill="#63b8ff" stroke="#63b8ff" points="785,-195.2 793.87,-189.4 783.32,-188.4 785,-195.2"/>
</a>
</g>
</g>
<!-- Node28&#45;&gt;Node20 -->
<g id="edge35_Node000028_Node000020" class="edge">
<title>Node28&#45;&gt;Node20</title>
<g id="a_edge35_Node000028_Node000020"><a xlink:title=" ">
<path fill="none" stroke="#63b8ff" d="M561.14,-223.9C571.54,-226.73 582.54,-230.6 592,-235.84 610.99,-246.34 607.87,-260.72 628,-268.84 676.38,-288.34 736.57,-287.11 779.09,-282.52"/>
<polygon fill="#63b8ff" stroke="#63b8ff" points="779.7,-285.97 789.23,-281.32 778.89,-279.02 779.7,-285.97"/>
</a>
</g>
</g>
<!-- Node28&#45;&gt;Node21 -->
<g id="edge36_Node000028_Node000021" class="edge">
<title>Node28&#45;&gt;Node21</title>
<g id="a_edge36_Node000028_Node000021"><a xlink:title=" ">
<path fill="none" stroke="#63b8ff" d="M561.19,-210.49C571.59,-207.81 582.58,-204.06 592,-198.84 611.25,-188.17 608.48,-174.99 628,-164.84 669.35,-143.33 720.76,-132.83 761.69,-127.71"/>
<polygon fill="#63b8ff" stroke="#63b8ff" points="762.33,-131.16 771.86,-126.52 761.52,-124.2 762.33,-131.16"/>
</a>
</g>
</g>
<!-- Node28&#45;&gt;Node22 -->
<g id="edge37_Node000028_Node000022" class="edge">
<title>Node28&#45;&gt;Node22</title>
<g id="a_edge37_Node000028_Node000022"><a xlink:title=" ">
<path fill="none" stroke="#63b8ff" d="M561.11,-220.45C572.23,-223.19 583.63,-227.87 592,-235.84 628.97,-270.99 587.02,-314.45 628,-344.84 674.84,-379.58 745.73,-371.81 790.55,-361.77"/>
<polygon fill="#63b8ff" stroke="#63b8ff" points="791.6,-365.12 800.52,-359.4 789.98,-358.31 791.6,-365.12"/>
</a>
</g>
</g>
<!-- Node28&#45;&gt;Node23 -->
<g id="edge38_Node000028_Node000023" class="edge">
<title>Node28&#45;&gt;Node23</title>
<g id="a_edge38_Node000028_Node000023"><a xlink:title=" ">
<path fill="none" stroke="#63b8ff" d="M561.11,-212.85C571.97,-210.23 583.23,-205.91 592,-198.84 619.55,-176.64 600.84,-150.51 628,-127.84 670.74,-92.15 733.78,-77.34 778.55,-71.2"/>
<polygon fill="#63b8ff" stroke="#63b8ff" points="779.19,-74.64 788.67,-69.91 778.31,-67.7 779.19,-74.64"/>
</a>
</g>
</g>
<!-- Node28&#45;&gt;Node24 -->
<g id="edge39_Node000028_Node000024" class="edge">
<title>Node28&#45;&gt;Node24</title>
<g id="a_edge39_Node000028_Node000024"><a xlink:title=" ">
<path fill="none" stroke="#63b8ff" d="M561.25,-216.84C581.59,-216.84 606.89,-216.84 629,-216.84"/>
<polygon fill="#63b8ff" stroke="#63b8ff" points="629.22,-220.34 639.22,-216.84 629.22,-213.34 629.22,-220.34"/>
</a>
</g>
</g>
<!-- Node29&#45;&gt;Node20 -->
<g id="edge41_Node000029_Node000020" class="edge">
<title>Node29&#45;&gt;Node20</title>
<g id="a_edge41_Node000029_Node000020"><a xlink:title=" ">
<path fill="none" stroke="#63b8ff" d="M561.21,-146.7C572.07,-149.33 583.31,-153.67 592,-160.84 620.53,-184.35 598.64,-213.36 628,-235.84 651.18,-253.59 726.68,-264.08 779.15,-269.4"/>
<polygon fill="#63b8ff" stroke="#63b8ff" points="779.02,-272.9 789.32,-270.39 779.7,-265.93 779.02,-272.9"/>
</a>
</g>
</g>
<!-- Node29&#45;&gt;Node21 -->
<g id="edge42_Node000029_Node000021" class="edge">
<title>Node29&#45;&gt;Node21</title>
<g id="a_edge42_Node000029_Node000021"><a xlink:title=" ">
<path fill="none" stroke="#63b8ff" d="M536.43,-133.24C555.63,-120.18 592.54,-97.42 628,-88.84 674.65,-77.54 688.69,-80.75 736,-88.84 759,-92.77 783.81,-101.62 802.52,-109.31"/>
<polygon fill="#63b8ff" stroke="#63b8ff" points="801.39,-112.63 811.96,-113.3 804.12,-106.18 801.39,-112.63"/>
</a>
</g>
</g>
<!-- Node29&#45;&gt;Node22 -->
<g id="edge43_Node000029_Node000022" class="edge">
<title>Node29&#45;&gt;Node22</title>
<g id="a_edge43_Node000029_Node000022"><a xlink:title=" ">
<path fill="none" stroke="#63b8ff" d="M561,-145.94C572.11,-148.52 583.54,-153.03 592,-160.84 627.65,-193.71 594.79,-228.5 628,-263.84 668.06,-306.45 732.55,-328.77 778.39,-339.88"/>
<polygon fill="#63b8ff" stroke="#63b8ff" points="777.63,-343.29 788.17,-342.15 779.22,-336.48 777.63,-343.29"/>
</a>
</g>
</g>
<!-- Node29&#45;&gt;Node23 -->
<g id="edge44_Node000029_Node000023" class="edge">
<title>Node29&#45;&gt;Node23</title>
<g id="a_edge44_Node000029_Node000023"><a xlink:title=" ">
<path fill="none" stroke="#63b8ff" d="M527.11,-133.22C538.6,-107.75 573.81,-38.73 628,-12.84 671.31,7.85 689.55,-0.73 736,-12.84 764.42,-20.25 793.33,-38.08 812,-51.24"/>
<polygon fill="#63b8ff" stroke="#63b8ff" points="810.14,-54.22 820.29,-57.25 814.25,-48.55 810.14,-54.22"/>
</a>
</g>
</g>
<!-- Node29&#45;&gt;Node24 -->
<g id="edge45_Node000029_Node000024" class="edge">
<title>Node29&#45;&gt;Node24</title>
<g id="a_edge45_Node000029_Node000024"><a xlink:title=" ">
<path fill="none" stroke="#63b8ff" d="M561.3,-150.61C571.49,-153.27 582.34,-156.66 592,-160.84 616.83,-171.58 642.73,-188.65 660.15,-201.12"/>
<polygon fill="#63b8ff" stroke="#63b8ff" points="658.29,-204.1 668.43,-207.16 662.41,-198.44 658.29,-204.1"/>
</a>
</g>
</g>
<!-- Node31 -->
<g id="Node000031" class="node">
<title>Node31</title>
<g id="a_Node000031"><a xlink:href="FrameInterpolation_8cpp.html#ad8eff15a52471a7a9c4801f2f23124e6" target="_top" xlink:title=" ">
<polygon fill="white" stroke="#666666" points="398,-505.84 285,-505.84 285,-475.84 398,-475.84 398,-505.84"/>
<text text-anchor="start" x="293" y="-493.84" font-family="Helvetica,sans-Serif" font-size="10.00">FrameInterpolation</text>
<text text-anchor="middle" x="341.5" y="-482.84" font-family="Helvetica,sans-Serif" font-size="10.00">_RecordMatrixScale</text>
</a>
</g>
</g>
<!-- Node30&#45;&gt;Node31 -->
<g id="edge47_Node000030_Node000031" class="edge">
<title>Node30&#45;&gt;Node31</title>
<g id="a_edge47_Node000030_Node000031"><a xlink:title=" ">
<path fill="none" stroke="#63b8ff" d="M205.31,-486.86C225.37,-487.45 251.24,-488.21 274.97,-488.91"/>
<polygon fill="#63b8ff" stroke="#63b8ff" points="274.89,-492.41 284.99,-489.2 275.09,-485.41 274.89,-492.41"/>
</a>
</g>
</g>
<!-- Node31&#45;&gt;Node5 -->
<g id="edge48_Node000031_Node000005" class="edge">
<title>Node31&#45;&gt;Node5</title>
<g id="a_edge48_Node000031_Node000005"><a xlink:title=" ">
<path fill="none" stroke="#63b8ff" d="M398.36,-492.1C449.17,-493.96 526.06,-498.54 592,-509.84 608.43,-512.65 626.23,-517.15 641.56,-521.5"/>
<polygon fill="#63b8ff" stroke="#63b8ff" points="640.66,-524.88 651.24,-524.31 642.61,-518.16 640.66,-524.88"/>
</a>
</g>
</g>
<!-- Node32&#45;&gt;Node11 -->
<g id="edge50_Node000032_Node000011" class="edge">
<title>Node32&#45;&gt;Node11</title>
<g id="a_edge50_Node000032_Node000011"><a xlink:title=" ">
<path fill="none" stroke="#63b8ff" d="M209.93,-431.33C241.24,-423.78 284.26,-413.4 312.22,-406.66"/>
<polygon fill="#63b8ff" stroke="#63b8ff" points="313.24,-410.01 322.15,-404.26 311.6,-403.21 313.24,-410.01"/>
</a>
</g>
</g>
<!-- Node32&#45;&gt;Node12 -->
<g id="edge53_Node000032_Node000012" class="edge">
<title>Node32&#45;&gt;Node12</title>
<g id="a_edge53_Node000032_Node000012"><a xlink:title=" ">
<path fill="none" stroke="#63b8ff" d="M213.8,-431.23C219.82,-428.97 225.74,-426.21 231,-422.84 251.42,-409.76 246.35,-394.55 267,-381.84 281,-373.22 298.81,-368.49 313.39,-365.91"/>
<polygon fill="#63b8ff" stroke="#63b8ff" points="313.98,-369.36 323.33,-364.38 312.91,-362.44 313.98,-369.36"/>
</a>
</g>
</g>
<!-- Node33 -->
<g id="Node000033" class="node">
<title>Node33</title>
<g id="a_Node000033"><a xlink:href="FrameInterpolation_8cpp.html#aafa8768b46143c8110779aa8afdfe41c" target="_top" xlink:title=" ">
<polygon fill="white" stroke="#666666" points="407.5,-457.84 275.5,-457.84 275.5,-427.84 407.5,-427.84 407.5,-457.84"/>
<text text-anchor="start" x="283.5" y="-445.84" font-family="Helvetica,sans-Serif" font-size="10.00">FrameInterpolation</text>
<text text-anchor="middle" x="341.5" y="-434.84" font-family="Helvetica,sans-Serif" font-size="10.00">_RecordTranslateRotate</text>
</a>
</g>
</g>
<!-- Node32&#45;&gt;Node33 -->
<g id="edge51_Node000032_Node000033" class="edge">
<title>Node32&#45;&gt;Node33</title>
<g id="a_edge51_Node000032_Node000033"><a xlink:title=" ">
<path fill="none" stroke="#63b8ff" d="M231.39,-441.55C242.34,-441.68 253.86,-441.82 265.15,-441.95"/>
<polygon fill="#63b8ff" stroke="#63b8ff" points="265.39,-445.45 275.43,-442.07 265.47,-438.45 265.39,-445.45"/>
</a>
</g>
</g>
<!-- Node33&#45;&gt;Node5 -->
<g id="edge52_Node000033_Node000005" class="edge">
<title>Node33&#45;&gt;Node5</title>
<g id="a_edge52_Node000033_Node000005"><a xlink:title=" ">
<path fill="none" stroke="#63b8ff" d="M407.51,-450.62C458.56,-457.86 530.97,-470.61 592,-490.84 614.26,-498.22 638.13,-509.98 655.53,-519.33"/>
<polygon fill="#63b8ff" stroke="#63b8ff" points="654.04,-522.5 664.49,-524.24 657.4,-516.36 654.04,-522.5"/>
</a>
</g>
</g>
</g>
</svg>

<g id="navigator" transform="translate(0 0)" fill="#404254">
  <rect fill="#f2f5e9" fill-opacity="0.5" stroke="#606060" stroke-width=".5" x="0" y="0" width="60" height="60"/>
  <use id="zoomplus" xlink:href="#zoomPlus" x="17" y="9" onmousedown="handleZoom(evt,'in')"/>
  <use id="zoomminus" xlink:href="#zoomMin" x="42" y="9" onmousedown="handleZoom(evt,'out')"/>
  <use id="reset" xlink:href="#resetDef" x="30" y="36" onmousedown="handleReset()"/>
   <use id="arrowup" xlink:href="#arrowUp" x="0" y="0" onmousedown="handlePan(0,-1)"/>
  <use id="arrowright" xlink:href="#arrowRight" x="0" y="0" onmousedown="handlePan(1,0)"/>
  <use id="arrowdown" xlink:href="#arrowDown" x="0" y="0" onmousedown="handlePan(0,1)"/>
  <use id="arrowleft" xlink:href="#arrowLeft" x="0" y="0" onmousedown="handlePan(-1,0)"/>
</g>
<svg viewBox="0 0 15 15" width="100%" height="30px" preserveAspectRatio="xMaxYMin meet">
 <g id="arrow_out" transform="scale(0.3 0.3)">
  <a xlink:href="render__player_8c_a03f81d3e6d599a498b4a4b704752a608_cgraph_org.svg" target="_base">
   <rect id="button" ry="5" rx="5" y="6" x="6" height="38" width="38"
        fill="#f2f5e9" fill-opacity="0.5" stroke="#606060" stroke-width="1.0"/>
   <path id="arrow"
     d="M 11.500037,31.436501 C 11.940474,20.09759 22.043105,11.32322 32.158766,21.979434 L 37.068811,17.246167 C 37.068811,17.246167 37.088388,32 37.088388,32 L 22.160133,31.978069 C 22.160133,31.978069 26.997745,27.140456 26.997745,27.140456 C 18.528582,18.264221 13.291696,25.230495 11.500037,31.436501 z"
     style="fill:#404040;"/>
  </a>
 </g>
</svg>

<style type='text/css'>
<![CDATA[
[data-mouse-over-selected='false'] { opacity: 0.7; }
[data-mouse-over-selected='true']  { opacity: 1.0; }
]]>
</style>
<script type="application/ecmascript"><![CDATA[
document.addEventListener('DOMContentLoaded', (event) => {
  highlightEdges();
  highlightAdjacentNodes();
});
]]></script>
</svg>
