<?xml version="1.0" encoding="UTF-8" standalone="no"?>
<!DOCTYPE svg PUBLIC "-//W3C//DTD SVG 1.1//EN"
 "http://www.w3.org/Graphics/SVG/1.1/DTD/svg11.dtd">
<!-- Generated by graphviz version 2.43.0 (0)
 -->
<!-- Title: src/replays.h Pages: 1 -->
<svg width="4156pt" height="203pt"
 viewBox="0.00 0.00 4156.00 203.00" xmlns="http://www.w3.org/2000/svg" xmlns:xlink="http://www.w3.org/1999/xlink">
<g id="graph0" class="graph" transform="scale(1 1) rotate(0) translate(4 199)">
<title>src/replays.h</title>
<!-- Node1 -->
<g id="Node000001" class="node">
<title>Node1</title>
<g id="a_Node000001"><a xlink:title=" ">
<polygon fill="#999999" stroke="#666666" points="2229,-195 2150,-195 2150,-176 2229,-176 2229,-195"/>
<text text-anchor="middle" x="2189.5" y="-183" font-family="Helvetica,sans-Serif" font-size="10.00">src/replays.h</text>
</a>
</g>
</g>
<!-- Node2 -->
<g id="Node000002" class="node">
<title>Node2</title>
<g id="a_Node000002"><a xlink:href="code__800029B0_8c.html" target="_top" xlink:title=" ">
<polygon fill="white" stroke="#666666" points="119,-134.5 0,-134.5 0,-115.5 119,-115.5 119,-134.5"/>
<text text-anchor="middle" x="59.5" y="-122.5" font-family="Helvetica,sans-Serif" font-size="10.00">src/code_800029B0.c</text>
</a>
</g>
</g>
<!-- Node1&#45;&gt;Node2 -->
<g id="edge1_Node000001_Node000002" class="edge">
<title>Node1&#45;&gt;Node2</title>
<g id="a_edge1_Node000001_Node000002"><a xlink:title=" ">
<path fill="none" stroke="#63b8ff" d="M2139.79,-184.63C1865.66,-185.17 536.09,-185.38 128.5,-140 117.69,-138.8 106.05,-136.74 95.48,-134.56"/>
<polygon fill="#63b8ff" stroke="#63b8ff" points="2139.84,-188.13 2149.84,-184.61 2139.83,-181.13 2139.84,-188.13"/>
</a>
</g>
</g>
<!-- Node3 -->
<g id="Node000003" class="node">
<title>Node3</title>
<g id="a_Node000003"><a xlink:href="all__variables_8h.html" target="_top" xlink:title=" ">
<polygon fill="white" stroke="#666666" points="275.5,-134.5 137.5,-134.5 137.5,-115.5 275.5,-115.5 275.5,-134.5"/>
<text text-anchor="middle" x="206.5" y="-122.5" font-family="Helvetica,sans-Serif" font-size="10.00">src/debug/all_variables.h</text>
</a>
</g>
</g>
<!-- Node1&#45;&gt;Node3 -->
<g id="edge2_Node000001_Node000003" class="edge">
<title>Node1&#45;&gt;Node3</title>
<g id="a_edge2_Node000001_Node000003"><a xlink:title=" ">
<path fill="none" stroke="#63b8ff" d="M2139.46,-184.38C1877.28,-183.57 659.67,-177.82 284.5,-140 272.32,-138.77 259.18,-136.71 247.22,-134.53"/>
<polygon fill="#63b8ff" stroke="#63b8ff" points="2139.8,-187.88 2149.81,-184.41 2139.82,-180.88 2139.8,-187.88"/>
</a>
</g>
</g>
<!-- Node6 -->
<g id="Node000006" class="node">
<title>Node6</title>
<g id="a_Node000006"><a xlink:href="BansheeBoardwalk_8cpp.html" target="_top" xlink:title=" ">
<polygon fill="white" stroke="#666666" points="427.5,-140 293.5,-140 293.5,-110 427.5,-110 427.5,-140"/>
<text text-anchor="start" x="301.5" y="-128" font-family="Helvetica,sans-Serif" font-size="10.00">src/engine/courses</text>
<text text-anchor="middle" x="360.5" y="-117" font-family="Helvetica,sans-Serif" font-size="10.00">/BansheeBoardwalk.cpp</text>
</a>
</g>
</g>
<!-- Node1&#45;&gt;Node6 -->
<g id="edge5_Node000001_Node000006" class="edge">
<title>Node1&#45;&gt;Node6</title>
<g id="a_edge5_Node000001_Node000006"><a xlink:title=" ">
<path fill="none" stroke="#63b8ff" d="M2139.53,-184.27C1890.36,-182.99 780.63,-175.34 437.5,-140 434.26,-139.67 430.94,-139.27 427.6,-138.83"/>
<polygon fill="#63b8ff" stroke="#63b8ff" points="2139.71,-187.77 2149.73,-184.33 2139.74,-180.77 2139.71,-187.77"/>
</a>
</g>
</g>
<!-- Node7 -->
<g id="Node000007" class="node">
<title>Node7</title>
<g id="a_Node000007"><a xlink:href="BigDonut_8cpp.html" target="_top" xlink:title=" ">
<polygon fill="white" stroke="#666666" points="553,-140 446,-140 446,-110 553,-110 553,-140"/>
<text text-anchor="start" x="454" y="-128" font-family="Helvetica,sans-Serif" font-size="10.00">src/engine/courses</text>
<text text-anchor="middle" x="499.5" y="-117" font-family="Helvetica,sans-Serif" font-size="10.00">/BigDonut.cpp</text>
</a>
</g>
</g>
<!-- Node1&#45;&gt;Node7 -->
<g id="edge6_Node000001_Node000007" class="edge">
<title>Node1&#45;&gt;Node7</title>
<g id="a_edge6_Node000001_Node000007"><a xlink:title=" ">
<path fill="none" stroke="#63b8ff" d="M2139.65,-184.42C1901.57,-183.85 878.9,-179.12 562.5,-140 559.5,-139.63 556.43,-139.18 553.34,-138.67"/>
<polygon fill="#63b8ff" stroke="#63b8ff" points="2139.73,-187.92 2149.74,-184.44 2139.75,-180.92 2139.73,-187.92"/>
</a>
</g>
</g>
<!-- Node8 -->
<g id="Node000008" class="node">
<title>Node8</title>
<g id="a_Node000008"><a xlink:href="BlockFort_8cpp.html" target="_top" xlink:title=" ">
<polygon fill="white" stroke="#666666" points="678,-140 571,-140 571,-110 678,-110 678,-140"/>
<text text-anchor="start" x="579" y="-128" font-family="Helvetica,sans-Serif" font-size="10.00">src/engine/courses</text>
<text text-anchor="middle" x="624.5" y="-117" font-family="Helvetica,sans-Serif" font-size="10.00">/BlockFort.cpp</text>
</a>
</g>
</g>
<!-- Node1&#45;&gt;Node8 -->
<g id="edge7_Node000001_Node000008" class="edge">
<title>Node1&#45;&gt;Node8</title>
<g id="a_edge7_Node000001_Node000008"><a xlink:title=" ">
<path fill="none" stroke="#63b8ff" d="M2139.51,-184.29C1912.57,-183.13 977.84,-176.23 687.5,-140 684.5,-139.63 681.43,-139.17 678.34,-138.67"/>
<polygon fill="#63b8ff" stroke="#63b8ff" points="2139.76,-187.79 2149.78,-184.34 2139.79,-180.79 2139.76,-187.79"/>
</a>
</g>
</g>
<!-- Node9 -->
<g id="Node000009" class="node">
<title>Node9</title>
<g id="a_Node000009"><a xlink:href="BowsersCastle_8cpp.html" target="_top" xlink:title=" ">
<polygon fill="white" stroke="#666666" points="808.5,-140 696.5,-140 696.5,-110 808.5,-110 808.5,-140"/>
<text text-anchor="start" x="704.5" y="-128" font-family="Helvetica,sans-Serif" font-size="10.00">src/engine/courses</text>
<text text-anchor="middle" x="752.5" y="-117" font-family="Helvetica,sans-Serif" font-size="10.00">/BowsersCastle.cpp</text>
</a>
</g>
</g>
<!-- Node1&#45;&gt;Node9 -->
<g id="edge8_Node000001_Node000009" class="edge">
<title>Node1&#45;&gt;Node9</title>
<g id="a_edge8_Node000001_Node000009"><a xlink:title=" ">
<path fill="none" stroke="#63b8ff" d="M2139.7,-184.08C1925.44,-182.11 1081.07,-172.39 817.5,-140 814.64,-139.65 811.71,-139.23 808.76,-138.77"/>
<polygon fill="#63b8ff" stroke="#63b8ff" points="2139.68,-187.58 2149.71,-184.17 2139.75,-180.58 2139.68,-187.58"/>
</a>
</g>
</g>
<!-- Node10 -->
<g id="Node000010" class="node">
<title>Node10</title>
<g id="a_Node000010"><a xlink:href="ChocoMountain_8cpp.html" target="_top" xlink:title=" ">
<polygon fill="white" stroke="#666666" points="942.5,-140 826.5,-140 826.5,-110 942.5,-110 942.5,-140"/>
<text text-anchor="start" x="834.5" y="-128" font-family="Helvetica,sans-Serif" font-size="10.00">src/engine/courses</text>
<text text-anchor="middle" x="884.5" y="-117" font-family="Helvetica,sans-Serif" font-size="10.00">/ChocoMountain.cpp</text>
</a>
</g>
</g>
<!-- Node1&#45;&gt;Node10 -->
<g id="edge9_Node000001_Node000010" class="edge">
<title>Node1&#45;&gt;Node10</title>
<g id="a_edge9_Node000001_Node000010"><a xlink:title=" ">
<path fill="none" stroke="#63b8ff" d="M2139.46,-183.82C1938.32,-180.9 1188.18,-168.3 952.5,-140 949.27,-139.61 945.96,-139.15 942.63,-138.63"/>
<polygon fill="#63b8ff" stroke="#63b8ff" points="2139.68,-187.32 2149.73,-183.96 2139.78,-180.32 2139.68,-187.32"/>
</a>
</g>
</g>
<!-- Node11 -->
<g id="Node000011" class="node">
<title>Node11</title>
<g id="a_Node000011"><a xlink:href="Course_8cpp.html" target="_top" xlink:title=" ">
<polygon fill="white" stroke="#666666" points="1068,-140 961,-140 961,-110 1068,-110 1068,-140"/>
<text text-anchor="start" x="969" y="-128" font-family="Helvetica,sans-Serif" font-size="10.00">src/engine/courses</text>
<text text-anchor="middle" x="1014.5" y="-117" font-family="Helvetica,sans-Serif" font-size="10.00">/Course.cpp</text>
</a>
</g>
</g>
<!-- Node1&#45;&gt;Node11 -->
<g id="edge10_Node000001_Node000011" class="edge">
<title>Node1&#45;&gt;Node11</title>
<g id="a_edge10_Node000001_Node000011"><a xlink:title=" ">
<path fill="none" stroke="#63b8ff" d="M2139.64,-183.69C1951.85,-180.45 1287.28,-167.28 1077.5,-140 1074.39,-139.6 1071.2,-139.11 1068,-138.57"/>
<polygon fill="#63b8ff" stroke="#63b8ff" points="2139.71,-187.19 2149.77,-183.86 2139.83,-180.19 2139.71,-187.19"/>
</a>
</g>
</g>
<!-- Node12 -->
<g id="Node000012" class="node">
<title>Node12</title>
<g id="a_Node000012"><a xlink:href="DKJungle_8cpp.html" target="_top" xlink:title=" ">
<polygon fill="white" stroke="#666666" points="1193,-140 1086,-140 1086,-110 1193,-110 1193,-140"/>
<text text-anchor="start" x="1094" y="-128" font-family="Helvetica,sans-Serif" font-size="10.00">src/engine/courses</text>
<text text-anchor="middle" x="1139.5" y="-117" font-family="Helvetica,sans-Serif" font-size="10.00">/DKJungle.cpp</text>
</a>
</g>
</g>
<!-- Node1&#45;&gt;Node12 -->
<g id="edge11_Node000001_Node000012" class="edge">
<title>Node1&#45;&gt;Node12</title>
<g id="a_edge11_Node000001_Node000012"><a xlink:title=" ">
<path fill="none" stroke="#63b8ff" d="M2139.59,-183.4C1965.62,-179.37 1386.63,-164.42 1202.5,-140 1199.39,-139.59 1196.21,-139.1 1193,-138.55"/>
<polygon fill="#63b8ff" stroke="#63b8ff" points="2139.66,-186.9 2149.73,-183.63 2139.82,-179.9 2139.66,-186.9"/>
</a>
</g>
</g>
<!-- Node13 -->
<g id="Node000013" class="node">
<title>Node13</title>
<g id="a_Node000013"><a xlink:href="DoubleDeck_8cpp.html" target="_top" xlink:title=" ">
<polygon fill="white" stroke="#666666" points="1318,-140 1211,-140 1211,-110 1318,-110 1318,-140"/>
<text text-anchor="start" x="1219" y="-128" font-family="Helvetica,sans-Serif" font-size="10.00">src/engine/courses</text>
<text text-anchor="middle" x="1264.5" y="-117" font-family="Helvetica,sans-Serif" font-size="10.00">/DoubleDeck.cpp</text>
</a>
</g>
</g>
<!-- Node1&#45;&gt;Node13 -->
<g id="edge12_Node000001_Node000013" class="edge">
<title>Node1&#45;&gt;Node13</title>
<g id="a_edge12_Node000001_Node000013"><a xlink:title=" ">
<path fill="none" stroke="#63b8ff" d="M2139.5,-184.83C2006.63,-185.07 1633.99,-181.67 1327.5,-140 1324.39,-139.58 1321.21,-139.08 1318.01,-138.53"/>
<polygon fill="#63b8ff" stroke="#63b8ff" points="2139.77,-188.33 2149.76,-184.8 2139.75,-181.33 2139.77,-188.33"/>
</a>
</g>
</g>
<!-- Node14 -->
<g id="Node000014" class="node">
<title>Node14</title>
<g id="a_Node000014"><a xlink:href="FrappeSnowland_8cpp.html" target="_top" xlink:title=" ">
<polygon fill="white" stroke="#666666" points="1456.5,-140 1336.5,-140 1336.5,-110 1456.5,-110 1456.5,-140"/>
<text text-anchor="start" x="1344.5" y="-128" font-family="Helvetica,sans-Serif" font-size="10.00">src/engine/courses</text>
<text text-anchor="middle" x="1396.5" y="-117" font-family="Helvetica,sans-Serif" font-size="10.00">/FrappeSnowland.cpp</text>
</a>
</g>
</g>
<!-- Node1&#45;&gt;Node14 -->
<g id="edge13_Node000001_Node000014" class="edge">
<title>Node1&#45;&gt;Node14</title>
<g id="a_edge13_Node000001_Node000014"><a xlink:title=" ">
<path fill="none" stroke="#63b8ff" d="M2139.6,-183.76C2021.91,-181.51 1717.99,-172.73 1466.5,-140 1463.3,-139.58 1460.04,-139.11 1456.74,-138.59"/>
<polygon fill="#63b8ff" stroke="#63b8ff" points="2139.68,-187.26 2149.74,-183.95 2139.81,-180.26 2139.68,-187.26"/>
</a>
</g>
</g>
<!-- Node15 -->
<g id="Node000015" class="node">
<title>Node15</title>
<g id="a_Node000015"><a xlink:href="Harbour_8cpp.html" target="_top" xlink:title=" ">
<polygon fill="white" stroke="#666666" points="1582,-140 1475,-140 1475,-110 1582,-110 1582,-140"/>
<text text-anchor="start" x="1483" y="-128" font-family="Helvetica,sans-Serif" font-size="10.00">src/engine/courses</text>
<text text-anchor="middle" x="1528.5" y="-117" font-family="Helvetica,sans-Serif" font-size="10.00">/Harbour.cpp</text>
</a>
</g>
</g>
<!-- Node1&#45;&gt;Node15 -->
<g id="edge14_Node000001_Node000015" class="edge">
<title>Node1&#45;&gt;Node15</title>
<g id="a_edge14_Node000001_Node000015"><a xlink:title=" ">
<path fill="none" stroke="#63b8ff" d="M2139.65,-183.22C2036.71,-180.05 1793.38,-169.78 1591.5,-140 1588.4,-139.54 1585.22,-139.02 1582.02,-138.44"/>
<polygon fill="#63b8ff" stroke="#63b8ff" points="2139.65,-186.72 2149.75,-183.52 2139.86,-179.73 2139.65,-186.72"/>
</a>
</g>
</g>
<!-- Node16 -->
<g id="Node000016" class="node">
<title>Node16</title>
<g id="a_Node000016"><a xlink:href="KalimariDesert_8cpp.html" target="_top" xlink:title=" ">
<polygon fill="white" stroke="#666666" points="1713,-140 1600,-140 1600,-110 1713,-110 1713,-140"/>
<text text-anchor="start" x="1608" y="-128" font-family="Helvetica,sans-Serif" font-size="10.00">src/engine/courses</text>
<text text-anchor="middle" x="1656.5" y="-117" font-family="Helvetica,sans-Serif" font-size="10.00">/KalimariDesert.cpp</text>
</a>
</g>
</g>
<!-- Node1&#45;&gt;Node16 -->
<g id="edge15_Node000001_Node000016" class="edge">
<title>Node1&#45;&gt;Node16</title>
<g id="a_edge15_Node000001_Node000016"><a xlink:title=" ">
<path fill="none" stroke="#63b8ff" d="M2139.74,-181.63C2054.13,-176.27 1873.58,-163.15 1722.5,-140 1719.49,-139.54 1716.41,-139.03 1713.31,-138.48"/>
<polygon fill="#63b8ff" stroke="#63b8ff" points="2139.75,-185.14 2149.95,-182.26 2140.19,-178.15 2139.75,-185.14"/>
</a>
</g>
</g>
<!-- Node17 -->
<g id="Node000017" class="node">
<title>Node17</title>
<g id="a_Node000017"><a xlink:href="KoopaTroopaBeach_8cpp.html" target="_top" xlink:title=" ">
<polygon fill="white" stroke="#666666" points="1863.5,-140 1731.5,-140 1731.5,-110 1863.5,-110 1863.5,-140"/>
<text text-anchor="start" x="1739.5" y="-128" font-family="Helvetica,sans-Serif" font-size="10.00">src/engine/courses</text>
<text text-anchor="middle" x="1797.5" y="-117" font-family="Helvetica,sans-Serif" font-size="10.00">/KoopaTroopaBeach.cpp</text>
</a>
</g>
</g>
<!-- Node1&#45;&gt;Node17 -->
<g id="edge16_Node000001_Node000017" class="edge">
<title>Node1&#45;&gt;Node17</title>
<g id="a_edge16_Node000001_Node000017"><a xlink:title=" ">
<path fill="none" stroke="#63b8ff" d="M2139.55,-178.13C2077.18,-170.02 1967.26,-155.23 1873.5,-140 1870.32,-139.48 1867.07,-138.94 1863.79,-138.38"/>
<polygon fill="#63b8ff" stroke="#63b8ff" points="2139.14,-181.61 2149.51,-179.42 2140.04,-174.66 2139.14,-181.61"/>
</a>
</g>
</g>
<!-- Node18 -->
<g id="Node000018" class="node">
<title>Node18</title>
<g id="a_Node000018"><a xlink:href="LuigiRaceway_8cpp.html" target="_top" xlink:title=" ">
<polygon fill="white" stroke="#666666" points="1989,-140 1882,-140 1882,-110 1989,-110 1989,-140"/>
<text text-anchor="start" x="1890" y="-128" font-family="Helvetica,sans-Serif" font-size="10.00">src/engine/courses</text>
<text text-anchor="middle" x="1935.5" y="-117" font-family="Helvetica,sans-Serif" font-size="10.00">/LuigiRaceway.cpp</text>
</a>
</g>
</g>
<!-- Node1&#45;&gt;Node18 -->
<g id="edge17_Node000001_Node000018" class="edge">
<title>Node1&#45;&gt;Node18</title>
<g id="a_edge17_Node000001_Node000018"><a xlink:title=" ">
<path fill="none" stroke="#63b8ff" d="M2142.56,-173.69C2099.19,-163.7 2034.78,-148.87 1989.34,-138.4"/>
<polygon fill="#63b8ff" stroke="#63b8ff" points="2142.04,-177.16 2152.57,-175.99 2143.61,-170.34 2142.04,-177.16"/>
</a>
</g>
</g>
<!-- Node19 -->
<g id="Node000019" class="node">
<title>Node19</title>
<g id="a_Node000019"><a xlink:href="MarioRaceway_8cpp.html" target="_top" xlink:title=" ">
<polygon fill="white" stroke="#666666" points="2117.5,-140 2007.5,-140 2007.5,-110 2117.5,-110 2117.5,-140"/>
<text text-anchor="start" x="2015.5" y="-128" font-family="Helvetica,sans-Serif" font-size="10.00">src/engine/courses</text>
<text text-anchor="middle" x="2062.5" y="-117" font-family="Helvetica,sans-Serif" font-size="10.00">/MarioRaceway.cpp</text>
</a>
</g>
</g>
<!-- Node1&#45;&gt;Node19 -->
<g id="edge18_Node000001_Node000019" class="edge">
<title>Node1&#45;&gt;Node19</title>
<g id="a_edge18_Node000001_Node000019"><a xlink:title=" ">
<path fill="none" stroke="#63b8ff" d="M2161.75,-171.72C2141.54,-162.41 2114.16,-149.8 2093.28,-140.18"/>
<polygon fill="#63b8ff" stroke="#63b8ff" points="2160.49,-174.99 2171.03,-175.99 2163.41,-168.63 2160.49,-174.99"/>
</a>
</g>
</g>
<!-- Node20 -->
<g id="Node000020" class="node">
<title>Node20</title>
<g id="a_Node000020"><a xlink:href="MooMooFarm_8cpp.html" target="_top" xlink:title=" ">
<polygon fill="white" stroke="#666666" points="2243,-140 2136,-140 2136,-110 2243,-110 2243,-140"/>
<text text-anchor="start" x="2144" y="-128" font-family="Helvetica,sans-Serif" font-size="10.00">src/engine/courses</text>
<text text-anchor="middle" x="2189.5" y="-117" font-family="Helvetica,sans-Serif" font-size="10.00">/MooMooFarm.cpp</text>
</a>
</g>
</g>
<!-- Node1&#45;&gt;Node20 -->
<g id="edge19_Node000001_Node000020" class="edge">
<title>Node1&#45;&gt;Node20</title>
<g id="a_edge19_Node000001_Node000020"><a xlink:title=" ">
<path fill="none" stroke="#63b8ff" d="M2189.5,-165.65C2189.5,-157.36 2189.5,-147.78 2189.5,-140.11"/>
<polygon fill="#63b8ff" stroke="#63b8ff" points="2186,-165.87 2189.5,-175.87 2193,-165.87 2186,-165.87"/>
</a>
</g>
</g>
<!-- Node21 -->
<g id="Node000021" class="node">
<title>Node21</title>
<g id="a_Node000021"><a xlink:href="PodiumCeremony_8cpp.html" target="_top" xlink:title=" ">
<polygon fill="white" stroke="#666666" points="2386,-140 2261,-140 2261,-110 2386,-110 2386,-140"/>
<text text-anchor="start" x="2269" y="-128" font-family="Helvetica,sans-Serif" font-size="10.00">src/engine/courses</text>
<text text-anchor="middle" x="2323.5" y="-117" font-family="Helvetica,sans-Serif" font-size="10.00">/PodiumCeremony.cpp</text>
</a>
</g>
</g>
<!-- Node1&#45;&gt;Node21 -->
<g id="edge20_Node000001_Node000021" class="edge">
<title>Node1&#45;&gt;Node21</title>
<g id="a_edge20_Node000001_Node000021"><a xlink:title=" ">
<path fill="none" stroke="#63b8ff" d="M2218.24,-171.95C2239.7,-162.59 2269.03,-149.78 2291.28,-140.06"/>
<polygon fill="#63b8ff" stroke="#63b8ff" points="2216.75,-168.78 2208.98,-175.99 2219.55,-175.2 2216.75,-168.78"/>
</a>
</g>
</g>
<!-- Node22 -->
<g id="Node000022" class="node">
<title>Node22</title>
<g id="a_Node000022"><a xlink:href="RainbowRoad_8cpp.html" target="_top" xlink:title=" ">
<polygon fill="white" stroke="#666666" points="2511,-140 2404,-140 2404,-110 2511,-110 2511,-140"/>
<text text-anchor="start" x="2412" y="-128" font-family="Helvetica,sans-Serif" font-size="10.00">src/engine/courses</text>
<text text-anchor="middle" x="2457.5" y="-117" font-family="Helvetica,sans-Serif" font-size="10.00">/RainbowRoad.cpp</text>
</a>
</g>
</g>
<!-- Node1&#45;&gt;Node22 -->
<g id="edge21_Node000001_Node000022" class="edge">
<title>Node1&#45;&gt;Node22</title>
<g id="a_edge21_Node000001_Node000022"><a xlink:title=" ">
<path fill="none" stroke="#63b8ff" d="M2238.93,-173.96C2280.67,-165.02 2342.03,-151.81 2395.5,-140 2398.19,-139.4 2400.95,-138.79 2403.74,-138.17"/>
<polygon fill="#63b8ff" stroke="#63b8ff" points="2238.06,-170.56 2229.02,-176.08 2239.53,-177.41 2238.06,-170.56"/>
</a>
</g>
</g>
<!-- Node23 -->
<g id="Node000023" class="node">
<title>Node23</title>
<g id="a_Node000023"><a xlink:href="RoyalRaceway_8cpp.html" target="_top" xlink:title=" ">
<polygon fill="white" stroke="#666666" points="2639.5,-140 2529.5,-140 2529.5,-110 2639.5,-110 2639.5,-140"/>
<text text-anchor="start" x="2537.5" y="-128" font-family="Helvetica,sans-Serif" font-size="10.00">src/engine/courses</text>
<text text-anchor="middle" x="2584.5" y="-117" font-family="Helvetica,sans-Serif" font-size="10.00">/RoyalRaceway.cpp</text>
</a>
</g>
</g>
<!-- Node1&#45;&gt;Node23 -->
<g id="edge22_Node000001_Node000023" class="edge">
<title>Node1&#45;&gt;Node23</title>
<g id="a_edge22_Node000001_Node000023"><a xlink:title=" ">
<path fill="none" stroke="#63b8ff" d="M2239.11,-179.11C2304.01,-171.77 2421.17,-157.51 2520.5,-140 2523.41,-139.49 2526.39,-138.93 2529.4,-138.35"/>
<polygon fill="#63b8ff" stroke="#63b8ff" points="2238.7,-175.64 2229.15,-180.23 2239.48,-182.59 2238.7,-175.64"/>
</a>
</g>
</g>
<!-- Node24 -->
<g id="Node000024" class="node">
<title>Node24</title>
<g id="a_Node000024"><a xlink:href="SherbetLand_8cpp.html" target="_top" xlink:title=" ">
<polygon fill="white" stroke="#666666" points="2765,-140 2658,-140 2658,-110 2765,-110 2765,-140"/>
<text text-anchor="start" x="2666" y="-128" font-family="Helvetica,sans-Serif" font-size="10.00">src/engine/courses</text>
<text text-anchor="middle" x="2711.5" y="-117" font-family="Helvetica,sans-Serif" font-size="10.00">/SherbetLand.cpp</text>
</a>
</g>
</g>
<!-- Node1&#45;&gt;Node24 -->
<g id="edge23_Node000001_Node000024" class="edge">
<title>Node1&#45;&gt;Node24</title>
<g id="a_edge23_Node000001_Node000024"><a xlink:title=" ">
<path fill="none" stroke="#63b8ff" d="M2239.08,-181.68C2323.52,-176.44 2500.49,-163.53 2648.5,-140 2651.6,-139.51 2654.77,-138.96 2657.97,-138.36"/>
<polygon fill="#63b8ff" stroke="#63b8ff" points="2238.77,-178.2 2229,-182.3 2239.2,-185.18 2238.77,-178.2"/>
</a>
</g>
</g>
<!-- Node25 -->
<g id="Node000025" class="node">
<title>Node25</title>
<g id="a_Node000025"><a xlink:href="Skyscraper_8cpp.html" target="_top" xlink:title=" ">
<polygon fill="white" stroke="#666666" points="2890,-140 2783,-140 2783,-110 2890,-110 2890,-140"/>
<text text-anchor="start" x="2791" y="-128" font-family="Helvetica,sans-Serif" font-size="10.00">src/engine/courses</text>
<text text-anchor="middle" x="2836.5" y="-117" font-family="Helvetica,sans-Serif" font-size="10.00">/Skyscraper.cpp</text>
</a>
</g>
</g>
<!-- Node1&#45;&gt;Node25 -->
<g id="edge24_Node000001_Node000025" class="edge">
<title>Node1&#45;&gt;Node25</title>
<g id="a_edge24_Node000001_Node000025"><a xlink:title=" ">
<path fill="none" stroke="#63b8ff" d="M2239.33,-183.16C2340.65,-179.91 2577.74,-169.54 2774.5,-140 2777.23,-139.59 2780.01,-139.13 2782.82,-138.63"/>
<polygon fill="#63b8ff" stroke="#63b8ff" points="2238.98,-179.67 2229.1,-183.48 2239.2,-186.67 2238.98,-179.67"/>
</a>
</g>
</g>
<!-- Node26 -->
<g id="Node000026" class="node">
<title>Node26</title>
<g id="a_Node000026"><a xlink:href="TestCourse_8cpp.html" target="_top" xlink:title=" ">
<polygon fill="white" stroke="#666666" points="3015,-140 2908,-140 2908,-110 3015,-110 3015,-140"/>
<text text-anchor="start" x="2916" y="-128" font-family="Helvetica,sans-Serif" font-size="10.00">src/engine/courses</text>
<text text-anchor="middle" x="2961.5" y="-117" font-family="Helvetica,sans-Serif" font-size="10.00">/TestCourse.cpp</text>
</a>
</g>
</g>
<!-- Node1&#45;&gt;Node26 -->
<g id="edge25_Node000001_Node000026" class="edge">
<title>Node1&#45;&gt;Node26</title>
<g id="a_edge25_Node000001_Node000026"><a xlink:title=" ">
<path fill="none" stroke="#63b8ff" d="M2239.4,-184.1C2355.69,-182.58 2653.55,-175.25 2899.5,-140 2902.23,-139.61 2905.02,-139.16 2907.83,-138.67"/>
<polygon fill="#63b8ff" stroke="#63b8ff" points="2239.33,-180.6 2229.37,-184.22 2239.41,-187.6 2239.33,-180.6"/>
</a>
</g>
</g>
<!-- Node27 -->
<g id="Node000027" class="node">
<title>Node27</title>
<g id="a_Node000027"><a xlink:href="ToadsTurnpike_8cpp.html" target="_top" xlink:title=" ">
<polygon fill="white" stroke="#666666" points="3141.5,-140 3033.5,-140 3033.5,-110 3141.5,-110 3141.5,-140"/>
<text text-anchor="start" x="3041.5" y="-128" font-family="Helvetica,sans-Serif" font-size="10.00">src/engine/courses</text>
<text text-anchor="middle" x="3087.5" y="-117" font-family="Helvetica,sans-Serif" font-size="10.00">/ToadsTurnpike.cpp</text>
</a>
</g>
</g>
<!-- Node1&#45;&gt;Node27 -->
<g id="edge26_Node000001_Node000027" class="edge">
<title>Node1&#45;&gt;Node27</title>
<g id="a_edge26_Node000001_Node000027"><a xlink:title=" ">
<path fill="none" stroke="#63b8ff" d="M2239.31,-184.71C2369.2,-184.63 2728.67,-180.47 3024.5,-140 3027.39,-139.61 3030.34,-139.15 3033.31,-138.64"/>
<polygon fill="#63b8ff" stroke="#63b8ff" points="2239.27,-181.21 2229.27,-184.71 2239.27,-188.21 2239.27,-181.21"/>
</a>
</g>
</g>
<!-- Node28 -->
<g id="Node000028" class="node">
<title>Node28</title>
<g id="a_Node000028"><a xlink:href="WarioStadium_8cpp.html" target="_top" xlink:title=" ">
<polygon fill="white" stroke="#666666" points="3267.5,-140 3159.5,-140 3159.5,-110 3267.5,-110 3267.5,-140"/>
<text text-anchor="start" x="3167.5" y="-128" font-family="Helvetica,sans-Serif" font-size="10.00">src/engine/courses</text>
<text text-anchor="middle" x="3213.5" y="-117" font-family="Helvetica,sans-Serif" font-size="10.00">/WarioStadium.cpp</text>
</a>
</g>
</g>
<!-- Node1&#45;&gt;Node28 -->
<g id="edge27_Node000001_Node000028" class="edge">
<title>Node1&#45;&gt;Node28</title>
<g id="a_edge27_Node000001_Node000028"><a xlink:title=" ">
<path fill="none" stroke="#63b8ff" d="M2239.22,-183.33C2409.95,-179.14 2971.62,-163.84 3150.5,-140 3153.39,-139.62 3156.34,-139.16 3159.31,-138.66"/>
<polygon fill="#63b8ff" stroke="#63b8ff" points="2238.93,-179.84 2229.02,-183.58 2239.1,-186.83 2238.93,-179.84"/>
</a>
</g>
</g>
<!-- Node29 -->
<g id="Node000029" class="node">
<title>Node29</title>
<g id="a_Node000029"><a xlink:href="YoshiValley_8cpp.html" target="_top" xlink:title=" ">
<polygon fill="white" stroke="#666666" points="3393,-140 3286,-140 3286,-110 3393,-110 3393,-140"/>
<text text-anchor="start" x="3294" y="-128" font-family="Helvetica,sans-Serif" font-size="10.00">src/engine/courses</text>
<text text-anchor="middle" x="3339.5" y="-117" font-family="Helvetica,sans-Serif" font-size="10.00">/YoshiValley.cpp</text>
</a>
</g>
</g>
<!-- Node1&#45;&gt;Node29 -->
<g id="edge28_Node000001_Node000029" class="edge">
<title>Node1&#45;&gt;Node29</title>
<g id="a_edge28_Node000001_Node000029"><a xlink:title=" ">
<path fill="none" stroke="#63b8ff" d="M2239.45,-183.63C2424.64,-180.24 3071.88,-166.71 3276.5,-140 3279.61,-139.59 3282.79,-139.11 3286,-138.57"/>
<polygon fill="#63b8ff" stroke="#63b8ff" points="2239.13,-180.14 2229.19,-183.82 2239.25,-187.14 2239.13,-180.14"/>
</a>
</g>
</g>
<!-- Node30 -->
<g id="Node000030" class="node">
<title>Node30</title>
<g id="a_Node000030"><a xlink:href="main_8c.html" target="_top" xlink:title=" ">
<polygon fill="white" stroke="#666666" points="3478,-134.5 3411,-134.5 3411,-115.5 3478,-115.5 3478,-134.5"/>
<text text-anchor="middle" x="3444.5" y="-122.5" font-family="Helvetica,sans-Serif" font-size="10.00">src/main.c</text>
</a>
</g>
</g>
<!-- Node1&#45;&gt;Node30 -->
<g id="edge29_Node000001_Node000030" class="edge">
<title>Node1&#45;&gt;Node30</title>
<g id="a_edge29_Node000001_Node000030"><a xlink:title=" ">
<path fill="none" stroke="#63b8ff" d="M2239.34,-184.56C2438.01,-184.5 3173.71,-181.45 3402.5,-140 3409.16,-138.79 3416.2,-136.76 3422.58,-134.62"/>
<polygon fill="#63b8ff" stroke="#63b8ff" points="2239.2,-181.06 2229.2,-184.56 2239.2,-188.06 2239.2,-181.06"/>
</a>
</g>
</g>
<!-- Node31 -->
<g id="Node000031" class="node">
<title>Node31</title>
<g id="a_Node000031"><a xlink:href="menu__items_8c.html" target="_top" xlink:title=" ">
<polygon fill="white" stroke="#666666" points="3599,-134.5 3496,-134.5 3496,-115.5 3599,-115.5 3599,-134.5"/>
<text text-anchor="middle" x="3547.5" y="-122.5" font-family="Helvetica,sans-Serif" font-size="10.00">src/menu_items.c</text>
</a>
</g>
</g>
<!-- Node1&#45;&gt;Node31 -->
<g id="edge30_Node000001_Node000031" class="edge">
<title>Node1&#45;&gt;Node31</title>
<g id="a_edge30_Node000001_Node000031"><a xlink:title=" ">
<path fill="none" stroke="#63b8ff" d="M2239.28,-184.09C2446.25,-182.19 3239.51,-172.86 3487.5,-140 3496.94,-138.75 3507.06,-136.68 3516.26,-134.5"/>
<polygon fill="#63b8ff" stroke="#63b8ff" points="2238.99,-180.59 2229.02,-184.18 2239.05,-187.59 2238.99,-180.59"/>
</a>
</g>
</g>
<!-- Node32 -->
<g id="Node000032" class="node">
<title>Node32</title>
<g id="a_Node000032"><a xlink:href="menus_8c.html" target="_top" xlink:title=" ">
<polygon fill="white" stroke="#666666" points="3692,-134.5 3617,-134.5 3617,-115.5 3692,-115.5 3692,-134.5"/>
<text text-anchor="middle" x="3654.5" y="-122.5" font-family="Helvetica,sans-Serif" font-size="10.00">src/menus.c</text>
</a>
</g>
</g>
<!-- Node1&#45;&gt;Node32 -->
<g id="edge31_Node000001_Node000032" class="edge">
<title>Node1&#45;&gt;Node32</title>
<g id="a_edge31_Node000001_Node000032"><a xlink:title=" ">
<path fill="none" stroke="#63b8ff" d="M2239.27,-184.7C2458.19,-185.29 3336.77,-184.8 3608.5,-140 3615.75,-138.81 3623.45,-136.78 3630.43,-134.63"/>
<polygon fill="#63b8ff" stroke="#63b8ff" points="2239.06,-181.2 2229.05,-184.67 2239.04,-188.2 2239.06,-181.2"/>
</a>
</g>
</g>
<!-- Node33 -->
<g id="Node000033" class="node">
<title>Node33</title>
<g id="a_Node000033"><a xlink:href="race__logic_8c.html" target="_top" xlink:title=" ">
<polygon fill="white" stroke="#666666" points="3835,-134.5 3710,-134.5 3710,-115.5 3835,-115.5 3835,-134.5"/>
<text text-anchor="middle" x="3772.5" y="-122.5" font-family="Helvetica,sans-Serif" font-size="10.00">src/racing/race_logic.c</text>
</a>
</g>
</g>
<!-- Node1&#45;&gt;Node33 -->
<g id="edge32_Node000001_Node000033" class="edge">
<title>Node1&#45;&gt;Node33</title>
<g id="a_edge32_Node000001_Node000033"><a xlink:title=" ">
<path fill="none" stroke="#63b8ff" d="M2239.43,-184.14C2467.14,-182.33 3408.65,-172.95 3701.5,-140 3712.61,-138.75 3724.58,-136.68 3735.46,-134.5"/>
<polygon fill="#63b8ff" stroke="#63b8ff" points="2239.1,-180.64 2229.13,-184.22 2239.16,-187.64 2239.1,-180.64"/>
</a>
</g>
</g>
<!-- Node34 -->
<g id="Node000034" class="node">
<title>Node34</title>
<g id="a_Node000034"><a xlink:href="replays_8c.html" target="_top" xlink:title=" ">
<polygon fill="white" stroke="#666666" points="3931.5,-134.5 3853.5,-134.5 3853.5,-115.5 3931.5,-115.5 3931.5,-134.5"/>
<text text-anchor="middle" x="3892.5" y="-122.5" font-family="Helvetica,sans-Serif" font-size="10.00">src/replays.c</text>
</a>
</g>
</g>
<!-- Node1&#45;&gt;Node34 -->
<g id="edge33_Node000001_Node000034" class="edge">
<title>Node1&#45;&gt;Node34</title>
<g id="a_edge33_Node000001_Node000034"><a xlink:title=" ">
<path fill="none" stroke="#63b8ff" d="M2239.29,-183.92C2497.97,-180.82 3682.75,-165.33 3844.5,-140 3852.22,-138.79 3860.44,-136.7 3867.86,-134.5"/>
<polygon fill="#63b8ff" stroke="#63b8ff" points="2239.03,-180.43 2229.08,-184.04 2239.12,-187.42 2239.03,-180.43"/>
</a>
</g>
</g>
<!-- Node35 -->
<g id="Node000035" class="node">
<title>Node35</title>
<g id="a_Node000035"><a xlink:href="save_8c.html" target="_top" xlink:title=" ">
<polygon fill="white" stroke="#666666" points="4015,-134.5 3950,-134.5 3950,-115.5 4015,-115.5 4015,-134.5"/>
<text text-anchor="middle" x="3982.5" y="-122.5" font-family="Helvetica,sans-Serif" font-size="10.00">src/save.c</text>
</a>
</g>
</g>
<!-- Node1&#45;&gt;Node35 -->
<g id="edge34_Node000001_Node000035" class="edge">
<title>Node1&#45;&gt;Node35</title>
<g id="a_edge34_Node000001_Node000035"><a xlink:title=" ">
<path fill="none" stroke="#63b8ff" d="M2239.6,-184.11C2507.94,-181.91 3769.34,-170.01 3940.5,-140 3947.31,-138.81 3954.53,-136.72 3961.02,-134.52"/>
<polygon fill="#63b8ff" stroke="#63b8ff" points="2239.35,-180.61 2229.38,-184.19 2239.41,-187.61 2239.35,-180.61"/>
</a>
</g>
</g>
<!-- Node36 -->
<g id="Node000036" class="node">
<title>Node36</title>
<g id="a_Node000036"><a xlink:href="spawn__players_8c.html" target="_top" xlink:title=" ">
<polygon fill="white" stroke="#666666" points="4148,-134.5 4033,-134.5 4033,-115.5 4148,-115.5 4148,-134.5"/>
<text text-anchor="middle" x="4090.5" y="-122.5" font-family="Helvetica,sans-Serif" font-size="10.00">src/spawn_players.c</text>
</a>
</g>
</g>
<!-- Node1&#45;&gt;Node36 -->
<g id="edge35_Node000001_Node000036" class="edge">
<title>Node1&#45;&gt;Node36</title>
<g id="a_edge35_Node000001_Node000036"><a xlink:title=" ">
<path fill="none" stroke="#63b8ff" d="M2239.37,-184.54C2495.46,-184.53 3664.52,-182.18 4024.5,-140 4034.85,-138.79 4045.99,-136.73 4056.1,-134.55"/>
<polygon fill="#63b8ff" stroke="#63b8ff" points="2239.26,-181.04 2229.26,-184.54 2239.25,-188.04 2239.26,-181.04"/>
</a>
</g>
</g>
<!-- Node4 -->
<g id="Node000004" class="node">
<title>Node4</title>
<g id="a_Node000004"><a xlink:href="debug_8inc_8c.html" target="_top" xlink:title=" ">
<polygon fill="white" stroke="#666666" points="267.5,-74 145.5,-74 145.5,-55 267.5,-55 267.5,-74"/>
<text text-anchor="middle" x="206.5" y="-62" font-family="Helvetica,sans-Serif" font-size="10.00">src/debug/debug.inc.c</text>
</a>
</g>
</g>
<!-- Node3&#45;&gt;Node4 -->
<g id="edge3_Node000003_Node000004" class="edge">
<title>Node3&#45;&gt;Node4</title>
<g id="a_edge3_Node000003_Node000004"><a xlink:title=" ">
<path fill="none" stroke="#63b8ff" d="M206.5,-105.16C206.5,-94.74 206.5,-82.3 206.5,-74.17"/>
<polygon fill="#63b8ff" stroke="#63b8ff" points="203,-105.37 206.5,-115.37 210,-105.37 203,-105.37"/>
</a>
</g>
</g>
<!-- Node5 -->
<g id="Node000005" class="node">
<title>Node5</title>
<g id="a_Node000005"><a xlink:href="debug_8c.html" target="_top" xlink:title=" ">
<polygon fill="white" stroke="#666666" points="259,-19 154,-19 154,0 259,0 259,-19"/>
<text text-anchor="middle" x="206.5" y="-7" font-family="Helvetica,sans-Serif" font-size="10.00">src/debug/debug.c</text>
</a>
</g>
</g>
<!-- Node4&#45;&gt;Node5 -->
<g id="edge4_Node000004_Node000005" class="edge">
<title>Node4&#45;&gt;Node5</title>
<g id="a_edge4_Node000004_Node000005"><a xlink:title=" ">
<path fill="none" stroke="#63b8ff" d="M206.5,-44.66C206.5,-35.93 206.5,-25.99 206.5,-19.09"/>
<polygon fill="#63b8ff" stroke="#63b8ff" points="203,-44.75 206.5,-54.75 210,-44.75 203,-44.75"/>
</a>
</g>
</g>
</g>
</svg>
