<?xml version="1.0" encoding="UTF-8" standalone="no"?>
<!DOCTYPE svg PUBLIC "-//W3C//DTD SVG 1.1//EN"
 "http://www.w3.org/Graphics/SVG/1.1/DTD/svg11.dtd">
<!-- Generated by graphviz version 2.43.0 (0)
 -->
<!-- Title: src/port/ui/ResolutionEditor.cpp Pages: 1 -->
<svg width="1290pt" height="423pt"
 viewBox="0.00 0.00 1290.00 423.00" xmlns="http://www.w3.org/2000/svg" xmlns:xlink="http://www.w3.org/1999/xlink">
<g id="graph0" class="graph" transform="scale(1 1) rotate(0) translate(4 419)">
<title>src/port/ui/ResolutionEditor.cpp</title>
<!-- Node1 -->
<g id="Node000001" class="node">
<title>Node1</title>
<g id="a_Node000001"><a xlink:title=" ">
<polygon fill="#999999" stroke="#666666" points="957,-415 789,-415 789,-396 957,-396 957,-415"/>
<text text-anchor="middle" x="873" y="-403" font-family="Helvetica,sans-Serif" font-size="10.00">src/port/ui/ResolutionEditor.cpp</text>
</a>
</g>
</g>
<!-- Node2 -->
<g id="Node000002" class="node">
<title>Node2</title>
<g id="a_Node000002"><a xlink:href="ResolutionEditor_8h.html" target="_top" xlink:title=" ">
<polygon fill="white" stroke="#666666" points="663.5,-360 558.5,-360 558.5,-341 663.5,-341 663.5,-360"/>
<text text-anchor="middle" x="611" y="-348" font-family="Helvetica,sans-Serif" font-size="10.00">ResolutionEditor.h</text>
</a>
</g>
</g>
<!-- Node1&#45;&gt;Node2 -->
<g id="edge1_Node000001_Node000002" class="edge">
<title>Node1&#45;&gt;Node2</title>
<g id="a_edge1_Node000001_Node000002"><a xlink:title=" ">
<path fill="none" stroke="#63b8ff" d="M830.91,-395.98C785.3,-386.76 712.48,-372.03 663.25,-362.07"/>
<polygon fill="#63b8ff" stroke="#63b8ff" points="663.92,-358.63 653.42,-360.08 662.53,-365.5 663.92,-358.63"/>
</a>
</g>
</g>
<!-- Node3 -->
<g id="Node000003" class="node">
<title>Node3</title>
<g id="a_Node000003"><a xlink:title=" ">
<polygon fill="#e0e0e0" stroke="#999999" points="832,-74 694,-74 694,-55 832,-55 832,-74"/>
<text text-anchor="middle" x="763" y="-62" font-family="Helvetica,sans-Serif" font-size="10.00">libultraship/libultraship.h</text>
</a>
</g>
</g>
<!-- Node1&#45;&gt;Node3 -->
<g id="edge6_Node000001_Node000003" class="edge">
<title>Node1&#45;&gt;Node3</title>
<g id="a_edge6_Node000001_Node000003"><a xlink:title=" ">
<path fill="none" stroke="#63b8ff" d="M957.13,-404.3C1054.66,-402.45 1207.81,-393.98 1253,-360 1279.59,-340.01 1282,-324.27 1282,-291 1282,-291 1282,-291 1282,-173.5 1282,-134.98 1257.53,-127.08 1223,-110 1158.07,-77.89 955.92,-68.94 842.4,-66.45"/>
<polygon fill="#63b8ff" stroke="#63b8ff" points="842.44,-62.95 832.37,-66.24 842.29,-69.95 842.44,-62.95"/>
</a>
</g>
</g>
<!-- Node4 -->
<g id="Node000004" class="node">
<title>Node4</title>
<g id="a_Node000004"><a xlink:title=" ">
<polygon fill="#e0e0e0" stroke="#999999" points="513,-299.5 343,-299.5 343,-280.5 513,-280.5 513,-299.5"/>
<text text-anchor="middle" x="428" y="-287.5" font-family="Helvetica,sans-Serif" font-size="10.00">graphic/Fast3D/Fast3dWindow.h</text>
</a>
</g>
</g>
<!-- Node1&#45;&gt;Node4 -->
<g id="edge17_Node000001_Node000004" class="edge">
<title>Node1&#45;&gt;Node4</title>
<g id="a_edge17_Node000001_Node000004"><a xlink:title=" ">
<path fill="none" stroke="#63b8ff" d="M788.71,-401.56C722.34,-397.21 628.3,-386.45 550,-360 511.54,-347 471.39,-321.64 448.09,-305.55"/>
<polygon fill="#63b8ff" stroke="#63b8ff" points="449.94,-302.57 439.74,-299.68 445.91,-308.29 449.94,-302.57"/>
</a>
</g>
</g>
<!-- Node5 -->
<g id="Node000005" class="node">
<title>Node5</title>
<g id="a_Node000005"><a xlink:title=" ">
<polygon fill="#e0e0e0" stroke="#999999" points="721,-299.5 569,-299.5 569,-280.5 721,-280.5 721,-299.5"/>
<text text-anchor="middle" x="645" y="-287.5" font-family="Helvetica,sans-Serif" font-size="10.00">graphic/Fast3D/interpreter.h</text>
</a>
</g>
</g>
<!-- Node1&#45;&gt;Node5 -->
<g id="edge18_Node000001_Node000005" class="edge">
<title>Node1&#45;&gt;Node5</title>
<g id="a_edge18_Node000001_Node000005"><a xlink:title=" ">
<path fill="none" stroke="#63b8ff" d="M855.86,-395.97C816.33,-376.29 718.55,-327.61 671.34,-304.11"/>
<polygon fill="#63b8ff" stroke="#63b8ff" points="672.85,-300.95 662.34,-299.63 669.73,-307.22 672.85,-300.95"/>
</a>
</g>
</g>
<!-- Node6 -->
<g id="Node000006" class="node">
<title>Node6</title>
<g id="a_Node000006"><a xlink:title=" ">
<polygon fill="#e0e0e0" stroke="#999999" points="698.5,-129 645.5,-129 645.5,-110 698.5,-110 698.5,-129"/>
<text text-anchor="middle" x="672" y="-117" font-family="Helvetica,sans-Serif" font-size="10.00">imgui.h</text>
</a>
</g>
</g>
<!-- Node1&#45;&gt;Node6 -->
<g id="edge5_Node000001_Node000006" class="edge">
<title>Node1&#45;&gt;Node6</title>
<g id="a_edge5_Node000001_Node000006"><a xlink:title=" ">
<path fill="none" stroke="#63b8ff" d="M868.03,-396C857.73,-377.54 835,-332.14 835,-291 835,-291 835,-291 835,-228.5 835,-196.89 748.72,-154.11 701.71,-133.14"/>
<polygon fill="#63b8ff" stroke="#63b8ff" points="702.88,-129.83 692.31,-129.01 700.06,-136.24 702.88,-129.83"/>
</a>
</g>
</g>
<!-- Node7 -->
<g id="Node000007" class="node">
<title>Node7</title>
<g id="a_Node000007"><a xlink:href="UIWidgets_8h.html" target="_top" xlink:title=" ">
<polygon fill="white" stroke="#666666" points="950,-184 874,-184 874,-165 950,-165 950,-184"/>
<text text-anchor="middle" x="912" y="-172" font-family="Helvetica,sans-Serif" font-size="10.00">UIWidgets.h</text>
</a>
</g>
</g>
<!-- Node1&#45;&gt;Node7 -->
<g id="edge7_Node000001_Node000007" class="edge">
<title>Node1&#45;&gt;Node7</title>
<g id="a_edge7_Node000001_Node000007"><a xlink:title=" ">
<path fill="none" stroke="#63b8ff" d="M916.13,-395.96C962.38,-384.25 1033.53,-358.27 1066,-305 1099.53,-249.99 1004.82,-207.03 949.24,-187.31"/>
<polygon fill="#63b8ff" stroke="#63b8ff" points="950.29,-183.96 939.69,-184.01 948,-190.58 950.29,-183.96"/>
</a>
</g>
</g>
<!-- Node14 -->
<g id="Node000014" class="node">
<title>Node14</title>
<g id="a_Node000014"><a xlink:href="Engine_8h.html" target="_top" xlink:title=" ">
<polygon fill="white" stroke="#666666" points="1243.5,-360 1162.5,-360 1162.5,-341 1243.5,-341 1243.5,-360"/>
<text text-anchor="middle" x="1203" y="-348" font-family="Helvetica,sans-Serif" font-size="10.00">port/Engine.h</text>
</a>
</g>
</g>
<!-- Node1&#45;&gt;Node14 -->
<g id="edge19_Node000001_Node000014" class="edge">
<title>Node1&#45;&gt;Node14</title>
<g id="a_edge19_Node000001_Node000014"><a xlink:title=" ">
<path fill="none" stroke="#63b8ff" d="M926.02,-395.98C988.2,-386 1090.54,-369.56 1151.88,-359.71"/>
<polygon fill="#63b8ff" stroke="#63b8ff" points="1152.78,-363.11 1162.1,-358.07 1151.67,-356.2 1152.78,-363.11"/>
</a>
</g>
</g>
<!-- Node15 -->
<g id="Node000015" class="node">
<title>Node15</title>
<g id="a_Node000015"><a xlink:href="PortMenu_8h.html" target="_top" xlink:title=" ">
<polygon fill="white" stroke="#666666" points="947,-360 875,-360 875,-341 947,-341 947,-360"/>
<text text-anchor="middle" x="911" y="-348" font-family="Helvetica,sans-Serif" font-size="10.00">PortMenu.h</text>
</a>
</g>
</g>
<!-- Node1&#45;&gt;Node15 -->
<g id="edge20_Node000001_Node000015" class="edge">
<title>Node1&#45;&gt;Node15</title>
<g id="a_edge20_Node000001_Node000015"><a xlink:title=" ">
<path fill="none" stroke="#63b8ff" d="M879.27,-395.75C884.59,-388.34 892.36,-377.5 898.88,-368.41"/>
<polygon fill="#63b8ff" stroke="#63b8ff" points="901.86,-370.26 904.84,-360.09 896.17,-366.18 901.86,-370.26"/>
</a>
</g>
</g>
<!-- Node2&#45;&gt;Node3 -->
<g id="edge2_Node000002_Node000003" class="edge">
<title>Node2&#45;&gt;Node3</title>
<g id="a_edge2_Node000002_Node000003"><a xlink:title=" ">
<path fill="none" stroke="#63b8ff" d="M597.22,-340.97C585.58,-333.05 569.36,-320.21 560,-305 542.09,-275.9 541,-264.67 541,-230.5 541,-230.5 541,-230.5 541,-173.5 541,-108 620.11,-82.21 683.89,-72.07"/>
<polygon fill="#63b8ff" stroke="#63b8ff" points="684.6,-75.5 693.97,-70.57 683.57,-68.58 684.6,-75.5"/>
</a>
</g>
</g>
<!-- Node2&#45;&gt;Node4 -->
<g id="edge3_Node000002_Node000004" class="edge">
<title>Node2&#45;&gt;Node4</title>
<g id="a_edge3_Node000002_Node000004"><a xlink:title=" ">
<path fill="none" stroke="#63b8ff" d="M584.39,-340.99C552.81,-330.9 499.99,-314.01 464.58,-302.69"/>
<polygon fill="#63b8ff" stroke="#63b8ff" points="465.23,-299.23 454.64,-299.52 463.1,-305.9 465.23,-299.23"/>
</a>
</g>
</g>
<!-- Node2&#45;&gt;Node5 -->
<g id="edge4_Node000002_Node000005" class="edge">
<title>Node2&#45;&gt;Node5</title>
<g id="a_edge4_Node000002_Node000005"><a xlink:title=" ">
<path fill="none" stroke="#63b8ff" d="M616.02,-340.87C620.94,-332.4 628.59,-319.24 634.79,-308.57"/>
<polygon fill="#63b8ff" stroke="#63b8ff" points="637.96,-310.07 639.96,-299.67 631.91,-306.55 637.96,-310.07"/>
</a>
</g>
</g>
<!-- Node7&#45;&gt;Node3 -->
<g id="edge13_Node000007_Node000003" class="edge">
<title>Node7&#45;&gt;Node3</title>
<g id="a_edge13_Node000007_Node000003"><a xlink:title=" ">
<path fill="none" stroke="#63b8ff" d="M950.13,-173.16C1018.35,-171.65 1157.02,-164.22 1187,-129 1192.47,-122.57 1192.65,-116.28 1187,-110 1164.43,-84.94 959.11,-73.01 842.67,-68.21"/>
<polygon fill="#63b8ff" stroke="#63b8ff" points="842.52,-64.7 832.38,-67.8 842.23,-71.7 842.52,-64.7"/>
</a>
</g>
</g>
<!-- Node7&#45;&gt;Node6 -->
<g id="edge12_Node000007_Node000006" class="edge">
<title>Node7&#45;&gt;Node6</title>
<g id="a_edge12_Node000007_Node000006"><a xlink:title=" ">
<path fill="none" stroke="#63b8ff" d="M873.98,-165.41C834.98,-157.07 772.29,-143.53 708.55,-129.09"/>
<polygon fill="#63b8ff" stroke="#63b8ff" points="709.25,-125.66 698.72,-126.86 707.7,-132.49 709.25,-125.66"/>
</a>
</g>
</g>
<!-- Node8 -->
<g id="Node000008" class="node">
<title>Node8</title>
<g id="a_Node000008"><a xlink:title=" ">
<polygon fill="#e0e0e0" stroke="#999999" points="871,-129 827,-129 827,-110 871,-110 871,-129"/>
<text text-anchor="middle" x="849" y="-117" font-family="Helvetica,sans-Serif" font-size="10.00">string</text>
</a>
</g>
</g>
<!-- Node7&#45;&gt;Node8 -->
<g id="edge8_Node000007_Node000008" class="edge">
<title>Node7&#45;&gt;Node8</title>
<g id="a_edge8_Node000007_Node000008"><a xlink:title=" ">
<path fill="none" stroke="#63b8ff" d="M901.88,-164.98C892.56,-157.15 878.53,-145.34 867.26,-135.86"/>
<polygon fill="#63b8ff" stroke="#63b8ff" points="869.21,-132.93 859.31,-129.17 864.71,-138.29 869.21,-132.93"/>
</a>
</g>
</g>
<!-- Node9 -->
<g id="Node000009" class="node">
<title>Node9</title>
<g id="a_Node000009"><a xlink:title=" ">
<polygon fill="#e0e0e0" stroke="#999999" points="936.5,-129 889.5,-129 889.5,-110 936.5,-110 936.5,-129"/>
<text text-anchor="middle" x="913" y="-117" font-family="Helvetica,sans-Serif" font-size="10.00">vector</text>
</a>
</g>
</g>
<!-- Node7&#45;&gt;Node9 -->
<g id="edge9_Node000007_Node000009" class="edge">
<title>Node7&#45;&gt;Node9</title>
<g id="a_edge9_Node000007_Node000009"><a xlink:title=" ">
<path fill="none" stroke="#63b8ff" d="M912.17,-164.75C912.3,-157.8 912.48,-147.85 912.65,-139.13"/>
<polygon fill="#63b8ff" stroke="#63b8ff" points="916.15,-139.15 912.84,-129.09 909.15,-139.02 916.15,-139.15"/>
</a>
</g>
</g>
<!-- Node10 -->
<g id="Node000010" class="node">
<title>Node10</title>
<g id="a_Node000010"><a xlink:title=" ">
<polygon fill="#e0e0e0" stroke="#999999" points="995,-129 955,-129 955,-110 995,-110 995,-129"/>
<text text-anchor="middle" x="975" y="-117" font-family="Helvetica,sans-Serif" font-size="10.00">span</text>
</a>
</g>
</g>
<!-- Node7&#45;&gt;Node10 -->
<g id="edge10_Node000007_Node000010" class="edge">
<title>Node7&#45;&gt;Node10</title>
<g id="a_edge10_Node000007_Node000010"><a xlink:title=" ">
<path fill="none" stroke="#63b8ff" d="M922.12,-164.98C931.44,-157.15 945.47,-145.34 956.74,-135.86"/>
<polygon fill="#63b8ff" stroke="#63b8ff" points="959.29,-138.29 964.69,-129.17 954.79,-132.93 959.29,-138.29"/>
</a>
</g>
</g>
<!-- Node11 -->
<g id="Node000011" class="node">
<title>Node11</title>
<g id="a_Node000011"><a xlink:title=" ">
<polygon fill="#e0e0e0" stroke="#999999" points="1066.5,-129 1013.5,-129 1013.5,-110 1066.5,-110 1066.5,-129"/>
<text text-anchor="middle" x="1040" y="-117" font-family="Helvetica,sans-Serif" font-size="10.00">stdint.h</text>
</a>
</g>
</g>
<!-- Node7&#45;&gt;Node11 -->
<g id="edge11_Node000007_Node000011" class="edge">
<title>Node7&#45;&gt;Node11</title>
<g id="a_edge11_Node000007_Node000011"><a xlink:title=" ">
<path fill="none" stroke="#63b8ff" d="M932.57,-164.98C953.43,-156.34 985.97,-142.87 1009.77,-133.02"/>
<polygon fill="#63b8ff" stroke="#63b8ff" points="1011.16,-136.23 1019.06,-129.17 1008.48,-129.76 1011.16,-136.23"/>
</a>
</g>
</g>
<!-- Node12 -->
<g id="Node000012" class="node">
<title>Node12</title>
<g id="a_Node000012"><a xlink:title=" ">
<polygon fill="#e0e0e0" stroke="#999999" points="1177.5,-129 1084.5,-129 1084.5,-110 1177.5,-110 1177.5,-129"/>
<text text-anchor="middle" x="1131" y="-117" font-family="Helvetica,sans-Serif" font-size="10.00">unordered_map</text>
</a>
</g>
</g>
<!-- Node7&#45;&gt;Node12 -->
<g id="edge14_Node000007_Node000012" class="edge">
<title>Node7&#45;&gt;Node12</title>
<g id="a_edge14_Node000007_Node000012"><a xlink:title=" ">
<path fill="none" stroke="#63b8ff" d="M947.19,-164.98C984.83,-155.87 1044.66,-141.4 1085.77,-131.45"/>
<polygon fill="#63b8ff" stroke="#63b8ff" points="1086.64,-134.84 1095.54,-129.08 1085,-128.03 1086.64,-134.84"/>
</a>
</g>
</g>
<!-- Node13 -->
<g id="Node000013" class="node">
<title>Node13</title>
<g id="a_Node000013"><a xlink:href="ShipUtils_8h.html" target="_top" xlink:title=" ">
<polygon fill="white" stroke="#666666" points="809,-129 717,-129 717,-110 809,-110 809,-129"/>
<text text-anchor="middle" x="763" y="-117" font-family="Helvetica,sans-Serif" font-size="10.00">port/ShipUtils.h</text>
</a>
</g>
</g>
<!-- Node7&#45;&gt;Node13 -->
<g id="edge15_Node000007_Node000013" class="edge">
<title>Node7&#45;&gt;Node13</title>
<g id="a_edge15_Node000007_Node000013"><a xlink:title=" ">
<path fill="none" stroke="#63b8ff" d="M888.06,-164.98C863.44,-156.23 824.88,-142.51 797.08,-132.62"/>
<polygon fill="#63b8ff" stroke="#63b8ff" points="797.97,-129.22 787.38,-129.17 795.62,-135.82 797.97,-129.22"/>
</a>
</g>
</g>
<!-- Node13&#45;&gt;Node3 -->
<g id="edge16_Node000013_Node000003" class="edge">
<title>Node13&#45;&gt;Node3</title>
<g id="a_edge16_Node000013_Node000003"><a xlink:title=" ">
<path fill="none" stroke="#63b8ff" d="M763,-109.75C763,-102.8 763,-92.85 763,-84.13"/>
<polygon fill="#63b8ff" stroke="#63b8ff" points="766.5,-84.09 763,-74.09 759.5,-84.09 766.5,-84.09"/>
</a>
</g>
</g>
<!-- Node15&#45;&gt;Node3 -->
<g id="edge21_Node000015_Node000003" class="edge">
<title>Node15&#45;&gt;Node3</title>
<g id="a_edge21_Node000015_Node000003"><a xlink:title=" ">
<path fill="none" stroke="#63b8ff" d="M947.23,-345.58C980.49,-340.56 1029.93,-329.38 1066,-305 1153.75,-245.68 1274.03,-188.57 1203,-110 1179.33,-83.82 962.63,-72.29 842.43,-67.87"/>
<polygon fill="#63b8ff" stroke="#63b8ff" points="842.29,-64.36 832.17,-67.5 842.04,-71.36 842.29,-64.36"/>
</a>
</g>
</g>
<!-- Node15&#45;&gt;Node7 -->
<g id="edge22_Node000015_Node000007" class="edge">
<title>Node15&#45;&gt;Node7</title>
<g id="a_edge22_Node000015_Node000007"><a xlink:title=" ">
<path fill="none" stroke="#63b8ff" d="M911.05,-340.63C911.21,-313.64 911.68,-232.03 911.89,-194.61"/>
<polygon fill="#63b8ff" stroke="#63b8ff" points="915.39,-194.16 911.95,-184.14 908.39,-194.12 915.39,-194.16"/>
</a>
</g>
</g>
<!-- Node16 -->
<g id="Node000016" class="node">
<title>Node16</title>
<g id="a_Node000016"><a xlink:href="Menu_8h.html" target="_top" xlink:title=" ">
<polygon fill="white" stroke="#666666" points="792.5,-299.5 739.5,-299.5 739.5,-280.5 792.5,-280.5 792.5,-299.5"/>
<text text-anchor="middle" x="766" y="-287.5" font-family="Helvetica,sans-Serif" font-size="10.00">Menu.h</text>
</a>
</g>
</g>
<!-- Node15&#45;&gt;Node16 -->
<g id="edge23_Node000015_Node000016" class="edge">
<title>Node15&#45;&gt;Node16</title>
<g id="a_edge23_Node000015_Node000016"><a xlink:title=" ">
<path fill="none" stroke="#63b8ff" d="M889.92,-340.99C865.32,-331.07 824.47,-314.59 796.44,-303.28"/>
<polygon fill="#63b8ff" stroke="#63b8ff" points="797.69,-300.01 787.11,-299.52 795.07,-306.5 797.69,-300.01"/>
</a>
</g>
</g>
<!-- Node34 -->
<g id="Node000034" class="node">
<title>Node34</title>
<g id="a_Node000034"><a xlink:title=" ">
<polygon fill="#e0e0e0" stroke="#999999" points="1056.5,-305 939.5,-305 939.5,-275 1056.5,-275 1056.5,-305"/>
<text text-anchor="start" x="947.5" y="-293" font-family="Helvetica,sans-Serif" font-size="10.00">Fast3D/backends/gfx</text>
<text text-anchor="middle" x="998" y="-282" font-family="Helvetica,sans-Serif" font-size="10.00">_rendering_api.h</text>
</a>
</g>
</g>
<!-- Node15&#45;&gt;Node34 -->
<g id="edge55_Node000015_Node000034" class="edge">
<title>Node15&#45;&gt;Node34</title>
<g id="a_edge55_Node000015_Node000034"><a xlink:title=" ">
<path fill="none" stroke="#63b8ff" d="M923.84,-340.87C935.53,-333 953.25,-321.09 968.43,-310.89"/>
<polygon fill="#63b8ff" stroke="#63b8ff" points="970.66,-313.6 977.01,-305.11 966.76,-307.79 970.66,-313.6"/>
</a>
</g>
</g>
<!-- Node16&#45;&gt;Node3 -->
<g id="edge24_Node000016_Node000003" class="edge">
<title>Node16&#45;&gt;Node3</title>
<g id="a_edge24_Node000016_Node000003"><a xlink:title=" ">
<path fill="none" stroke="#63b8ff" d="M744.77,-280.45C739.94,-278.59 734.81,-276.67 730,-275 678.61,-257.13 645.32,-282.76 613,-239 593.07,-212.01 525.82,-231.7 625,-110 639.68,-91.98 661.73,-81.17 683.91,-74.71"/>
<polygon fill="#63b8ff" stroke="#63b8ff" points="684.97,-78.06 693.75,-72.12 683.19,-71.29 684.97,-78.06"/>
</a>
</g>
</g>
<!-- Node16&#45;&gt;Node7 -->
<g id="edge25_Node000016_Node000007" class="edge">
<title>Node16&#45;&gt;Node7</title>
<g id="a_edge25_Node000016_Node000007"><a xlink:title=" ">
<path fill="none" stroke="#63b8ff" d="M776.97,-280.47C801.71,-261.24 862.05,-214.33 893,-190.27"/>
<polygon fill="#63b8ff" stroke="#63b8ff" points="895.15,-193.03 900.9,-184.13 890.86,-187.5 895.15,-193.03"/>
</a>
</g>
</g>
<!-- Node17 -->
<g id="Node000017" class="node">
<title>Node17</title>
<g id="a_Node000017"><a xlink:href="MenuTypes_8h.html" target="_top" xlink:title=" ">
<polygon fill="white" stroke="#666666" points="806,-239 726,-239 726,-220 806,-220 806,-239"/>
<text text-anchor="middle" x="766" y="-227" font-family="Helvetica,sans-Serif" font-size="10.00">MenuTypes.h</text>
</a>
</g>
</g>
<!-- Node16&#45;&gt;Node17 -->
<g id="edge26_Node000016_Node000017" class="edge">
<title>Node16&#45;&gt;Node17</title>
<g id="a_edge26_Node000016_Node000017"><a xlink:title=" ">
<path fill="none" stroke="#63b8ff" d="M766,-280.37C766,-272.25 766,-259.81 766,-249.39"/>
<polygon fill="#63b8ff" stroke="#63b8ff" points="769.5,-249.17 766,-239.17 762.5,-249.17 769.5,-249.17"/>
</a>
</g>
</g>
<!-- Node18 -->
<g id="Node000018" class="node">
<title>Node18</title>
<g id="a_Node000018"><a xlink:title=" ">
<polygon fill="#e0e0e0" stroke="#999999" points="708,-239 622,-239 622,-220 708,-220 708,-239"/>
<text text-anchor="middle" x="665" y="-227" font-family="Helvetica,sans-Serif" font-size="10.00">../port/Game.h</text>
</a>
</g>
</g>
<!-- Node16&#45;&gt;Node18 -->
<g id="edge29_Node000016_Node000018" class="edge">
<title>Node16&#45;&gt;Node18</title>
<g id="a_edge29_Node000016_Node000018"><a xlink:title=" ">
<path fill="none" stroke="#63b8ff" d="M751.1,-280.37C734.69,-270.86 708.07,-255.45 688.77,-244.27"/>
<polygon fill="#63b8ff" stroke="#63b8ff" points="690.37,-241.15 679.96,-239.17 686.86,-247.21 690.37,-241.15"/>
</a>
</g>
</g>
<!-- Node19 -->
<g id="Node000019" class="node">
<title>Node19</title>
<g id="a_Node000019"><a xlink:href="defines_8h.html" target="_top" xlink:title=" ">
<polygon fill="white" stroke="#666666" points="228.5,-184 167.5,-184 167.5,-165 228.5,-165 228.5,-184"/>
<text text-anchor="middle" x="198" y="-172" font-family="Helvetica,sans-Serif" font-size="10.00">defines.h</text>
</a>
</g>
</g>
<!-- Node16&#45;&gt;Node19 -->
<g id="edge30_Node000016_Node000019" class="edge">
<title>Node16&#45;&gt;Node19</title>
<g id="a_edge30_Node000016_Node000019"><a xlink:title=" ">
<path fill="none" stroke="#63b8ff" d="M746.88,-280.43C741.52,-278.34 735.61,-276.33 730,-275 563.18,-235.56 512.11,-281.31 346,-239 300.48,-227.41 250.96,-203.68 222.3,-188.74"/>
<polygon fill="#63b8ff" stroke="#63b8ff" points="223.89,-185.62 213.42,-184.04 220.62,-191.81 223.89,-185.62"/>
</a>
</g>
</g>
<!-- Node20 -->
<g id="Node000020" class="node">
<title>Node20</title>
<g id="a_Node000020"><a xlink:href="main_8h.html" target="_top" xlink:title=" ">
<polygon fill="white" stroke="#666666" points="111,-184 61,-184 61,-165 111,-165 111,-184"/>
<text text-anchor="middle" x="86" y="-172" font-family="Helvetica,sans-Serif" font-size="10.00">main.h</text>
</a>
</g>
</g>
<!-- Node16&#45;&gt;Node20 -->
<g id="edge31_Node000016_Node000020" class="edge">
<title>Node16&#45;&gt;Node20</title>
<g id="a_edge31_Node000016_Node000020"><a xlink:title=" ">
<path fill="none" stroke="#63b8ff" d="M747.28,-280.47C741.82,-278.32 735.76,-276.27 730,-275 605.84,-247.64 276.62,-287.27 159,-239 134.58,-228.98 112.63,-207.33 99.32,-192.11"/>
<polygon fill="#63b8ff" stroke="#63b8ff" points="101.64,-189.43 92.53,-184.02 96.28,-193.93 101.64,-189.43"/>
</a>
</g>
</g>
<!-- Node27 -->
<g id="Node000027" class="node">
<title>Node27</title>
<g id="a_Node000027"><a xlink:href="menus_8h.html" target="_top" xlink:title=" ">
<polygon fill="white" stroke="#666666" points="227.5,-239 168.5,-239 168.5,-220 227.5,-220 227.5,-239"/>
<text text-anchor="middle" x="198" y="-227" font-family="Helvetica,sans-Serif" font-size="10.00">menus.h</text>
</a>
</g>
</g>
<!-- Node16&#45;&gt;Node27 -->
<g id="edge39_Node000016_Node000027" class="edge">
<title>Node16&#45;&gt;Node27</title>
<g id="a_edge39_Node000016_Node000027"><a xlink:title=" ">
<path fill="none" stroke="#63b8ff" d="M746.9,-280.38C741.53,-278.29 735.62,-276.29 730,-275 533.56,-230 478.66,-257.65 278,-239 264.83,-237.78 250.46,-236.29 237.58,-234.91"/>
<polygon fill="#63b8ff" stroke="#63b8ff" points="237.93,-231.43 227.62,-233.83 237.18,-238.39 237.93,-231.43"/>
</a>
</g>
</g>
<!-- Node28 -->
<g id="Node000028" class="node">
<title>Node28</title>
<g id="a_Node000028"><a xlink:href="code__800029B0_8h.html" target="_top" xlink:title=" ">
<polygon fill="white" stroke="#666666" points="458.5,-239 355.5,-239 355.5,-220 458.5,-220 458.5,-239"/>
<text text-anchor="middle" x="407" y="-227" font-family="Helvetica,sans-Serif" font-size="10.00">code_800029B0.h</text>
</a>
</g>
</g>
<!-- Node16&#45;&gt;Node28 -->
<g id="edge42_Node000016_Node000028" class="edge">
<title>Node16&#45;&gt;Node28</title>
<g id="a_edge42_Node000016_Node000028"><a xlink:title=" ">
<path fill="none" stroke="#63b8ff" d="M746.47,-280.45C741.2,-278.41 735.45,-276.41 730,-275 640.8,-251.85 534.44,-240.15 468.8,-234.7"/>
<polygon fill="#63b8ff" stroke="#63b8ff" points="468.88,-231.19 458.63,-233.87 468.31,-238.17 468.88,-231.19"/>
</a>
</g>
</g>
<!-- Node17&#45;&gt;Node3 -->
<g id="edge27_Node000017_Node000003" class="edge">
<title>Node17&#45;&gt;Node3</title>
<g id="a_edge27_Node000017_Node000003"><a xlink:title=" ">
<path fill="none" stroke="#63b8ff" d="M742.04,-219.91C696,-202.05 602.67,-158.54 637,-110 648.29,-94.03 665.81,-83.76 684.24,-77.15"/>
<polygon fill="#63b8ff" stroke="#63b8ff" points="685.48,-80.43 693.92,-74.03 683.33,-73.77 685.48,-80.43"/>
</a>
</g>
</g>
<!-- Node17&#45;&gt;Node7 -->
<g id="edge28_Node000017_Node000007" class="edge">
<title>Node17&#45;&gt;Node7</title>
<g id="a_edge28_Node000017_Node000007"><a xlink:title=" ">
<path fill="none" stroke="#63b8ff" d="M789.46,-219.98C813.58,-211.23 851.37,-197.51 878.6,-187.62"/>
<polygon fill="#63b8ff" stroke="#63b8ff" points="879.91,-190.87 888.12,-184.17 877.52,-184.29 879.91,-190.87"/>
</a>
</g>
</g>
<!-- Node21 -->
<g id="Node000021" class="node">
<title>Node21</title>
<g id="a_Node000021"><a xlink:href="mk64_8h.html" target="_top" xlink:title=" ">
<polygon fill="white" stroke="#666666" points="113.5,-129 60.5,-129 60.5,-110 113.5,-110 113.5,-129"/>
<text text-anchor="middle" x="87" y="-117" font-family="Helvetica,sans-Serif" font-size="10.00">mk64.h</text>
</a>
</g>
</g>
<!-- Node20&#45;&gt;Node21 -->
<g id="edge32_Node000020_Node000021" class="edge">
<title>Node20&#45;&gt;Node21</title>
<g id="a_edge32_Node000020_Node000021"><a xlink:title=" ">
<path fill="none" stroke="#63b8ff" d="M86.17,-164.75C86.3,-157.8 86.48,-147.85 86.65,-139.13"/>
<polygon fill="#63b8ff" stroke="#63b8ff" points="90.15,-139.15 86.84,-129.09 83.15,-139.02 90.15,-139.15"/>
</a>
</g>
</g>
<!-- Node26 -->
<g id="Node000026" class="node">
<title>Node26</title>
<g id="a_Node000026"><a xlink:href="common__structs_8h.html" target="_top" xlink:title=" ">
<polygon fill="white" stroke="#666666" points="244.5,-129 137.5,-129 137.5,-110 244.5,-110 244.5,-129"/>
<text text-anchor="middle" x="191" y="-117" font-family="Helvetica,sans-Serif" font-size="10.00">common_structs.h</text>
</a>
</g>
</g>
<!-- Node20&#45;&gt;Node26 -->
<g id="edge37_Node000020_Node000026" class="edge">
<title>Node20&#45;&gt;Node26</title>
<g id="a_edge37_Node000020_Node000026"><a xlink:title=" ">
<path fill="none" stroke="#63b8ff" d="M102.87,-164.98C119.61,-156.54 145.5,-143.47 164.89,-133.68"/>
<polygon fill="#63b8ff" stroke="#63b8ff" points="166.47,-136.8 173.82,-129.17 163.32,-130.55 166.47,-136.8"/>
</a>
</g>
</g>
<!-- Node22 -->
<g id="Node000022" class="node">
<title>Node22</title>
<g id="a_Node000022"><a xlink:title=" ">
<polygon fill="#e0e0e0" stroke="#999999" points="332,-74 252,-74 252,-55 332,-55 332,-74"/>
<text text-anchor="middle" x="292" y="-62" font-family="Helvetica,sans-Serif" font-size="10.00">libultraship.h</text>
</a>
</g>
</g>
<!-- Node21&#45;&gt;Node22 -->
<g id="edge33_Node000021_Node000022" class="edge">
<title>Node21&#45;&gt;Node22</title>
<g id="a_edge33_Node000021_Node000022"><a xlink:title=" ">
<path fill="none" stroke="#63b8ff" d="M113.8,-111.57C148.22,-102.67 208.36,-87.12 249.16,-76.57"/>
<polygon fill="#63b8ff" stroke="#63b8ff" points="250.29,-79.9 259.09,-74.01 248.53,-73.12 250.29,-79.9"/>
</a>
</g>
</g>
<!-- Node23 -->
<g id="Node000023" class="node">
<title>Node23</title>
<g id="a_Node000023"><a xlink:href="string_8h.html" target="_top" xlink:title=" ">
<polygon fill="white" stroke="#666666" points="71.5,-74 18.5,-74 18.5,-55 71.5,-55 71.5,-74"/>
<text text-anchor="middle" x="45" y="-62" font-family="Helvetica,sans-Serif" font-size="10.00">string.h</text>
</a>
</g>
</g>
<!-- Node21&#45;&gt;Node23 -->
<g id="edge34_Node000021_Node000023" class="edge">
<title>Node21&#45;&gt;Node23</title>
<g id="a_edge34_Node000021_Node000023"><a xlink:title=" ">
<path fill="none" stroke="#63b8ff" d="M80.06,-109.75C74.13,-102.26 65.43,-91.28 58.18,-82.13"/>
<polygon fill="#63b8ff" stroke="#63b8ff" points="60.76,-79.75 51.81,-74.09 55.27,-84.1 60.76,-79.75"/>
</a>
</g>
</g>
<!-- Node25 -->
<g id="Node000025" class="node">
<title>Node25</title>
<g id="a_Node000025"><a xlink:title=" ">
<polygon fill="#e0e0e0" stroke="#999999" points="168,-74 90,-74 90,-55 168,-55 168,-74"/>
<text text-anchor="middle" x="129" y="-62" font-family="Helvetica,sans-Serif" font-size="10.00">libultra/gbi.h</text>
</a>
</g>
</g>
<!-- Node21&#45;&gt;Node25 -->
<g id="edge36_Node000021_Node000025" class="edge">
<title>Node21&#45;&gt;Node25</title>
<g id="a_edge36_Node000021_Node000025"><a xlink:title=" ">
<path fill="none" stroke="#63b8ff" d="M93.94,-109.75C99.87,-102.26 108.57,-91.28 115.82,-82.13"/>
<polygon fill="#63b8ff" stroke="#63b8ff" points="118.73,-84.1 122.19,-74.09 113.24,-79.75 118.73,-84.1"/>
</a>
</g>
</g>
<!-- Node24 -->
<g id="Node000024" class="node">
<title>Node24</title>
<g id="a_Node000024"><a xlink:title=" ">
<polygon fill="#e0e0e0" stroke="#999999" points="90,-19 0,-19 0,0 90,0 90,-19"/>
<text text-anchor="middle" x="45" y="-7" font-family="Helvetica,sans-Serif" font-size="10.00">libultra/types.h</text>
</a>
</g>
</g>
<!-- Node23&#45;&gt;Node24 -->
<g id="edge35_Node000023_Node000024" class="edge">
<title>Node23&#45;&gt;Node24</title>
<g id="a_edge35_Node000023_Node000024"><a xlink:title=" ">
<path fill="none" stroke="#63b8ff" d="M45,-54.75C45,-47.8 45,-37.85 45,-29.13"/>
<polygon fill="#63b8ff" stroke="#63b8ff" points="48.5,-29.09 45,-19.09 41.5,-29.09 48.5,-29.09"/>
</a>
</g>
</g>
<!-- Node26&#45;&gt;Node22 -->
<g id="edge38_Node000026_Node000022" class="edge">
<title>Node26&#45;&gt;Node22</title>
<g id="a_edge38_Node000026_Node000022"><a xlink:title=" ">
<path fill="none" stroke="#63b8ff" d="M207.23,-109.98C223.18,-101.61 247.78,-88.7 266.38,-78.95"/>
<polygon fill="#63b8ff" stroke="#63b8ff" points="268.25,-81.92 275.48,-74.17 265,-75.72 268.25,-81.92"/>
</a>
</g>
</g>
<!-- Node27&#45;&gt;Node19 -->
<g id="edge41_Node000027_Node000019" class="edge">
<title>Node27&#45;&gt;Node19</title>
<g id="a_edge41_Node000027_Node000019"><a xlink:title=" ">
<path fill="none" stroke="#63b8ff" d="M198,-219.75C198,-212.8 198,-202.85 198,-194.13"/>
<polygon fill="#63b8ff" stroke="#63b8ff" points="201.5,-194.09 198,-184.09 194.5,-194.09 201.5,-194.09"/>
</a>
</g>
</g>
<!-- Node27&#45;&gt;Node26 -->
<g id="edge40_Node000027_Node000026" class="edge">
<title>Node27&#45;&gt;Node26</title>
<g id="a_edge40_Node000027_Node000026"><a xlink:title=" ">
<path fill="none" stroke="#63b8ff" d="M186.36,-219.73C176.69,-211.67 163.65,-198.74 158,-184 151.58,-167.25 162.9,-149.2 173.99,-136.64"/>
<polygon fill="#63b8ff" stroke="#63b8ff" points="176.67,-138.89 181.05,-129.25 171.61,-134.06 176.67,-138.89"/>
</a>
</g>
</g>
<!-- Node28&#45;&gt;Node22 -->
<g id="edge46_Node000028_Node000022" class="edge">
<title>Node28&#45;&gt;Node22</title>
<g id="a_edge46_Node000028_Node000022"><a xlink:title=" ">
<path fill="none" stroke="#63b8ff" d="M394.97,-219.99C383.88,-211.71 367.44,-198.32 356,-184 330.31,-151.86 309.7,-107.92 299.32,-83.58"/>
<polygon fill="#63b8ff" stroke="#63b8ff" points="302.48,-82.06 295.41,-74.17 296.02,-84.75 302.48,-82.06"/>
</a>
</g>
</g>
<!-- Node29 -->
<g id="Node000029" class="node">
<title>Node29</title>
<g id="a_Node000029"><a xlink:href="macros_8h.html" target="_top" xlink:title=" ">
<polygon fill="white" stroke="#666666" points="513,-129 451,-129 451,-110 513,-110 513,-129"/>
<text text-anchor="middle" x="482" y="-117" font-family="Helvetica,sans-Serif" font-size="10.00">macros.h</text>
</a>
</g>
</g>
<!-- Node28&#45;&gt;Node29 -->
<g id="edge43_Node000028_Node000029" class="edge">
<title>Node28&#45;&gt;Node29</title>
<g id="a_edge43_Node000028_Node000029"><a xlink:title=" ">
<path fill="none" stroke="#63b8ff" d="M419.61,-219.93C430.74,-211.8 446.76,-198.68 457,-184 466.54,-170.34 473.14,-152.52 477.15,-139.24"/>
<polygon fill="#63b8ff" stroke="#63b8ff" points="480.6,-139.92 479.93,-129.34 473.86,-138.03 480.6,-139.92"/>
</a>
</g>
</g>
<!-- Node31 -->
<g id="Node000031" class="node">
<title>Node31</title>
<g id="a_Node000031"><a xlink:href="actor__types_8h.html" target="_top" xlink:title=" ">
<polygon fill="white" stroke="#666666" points="448.5,-184 365.5,-184 365.5,-165 448.5,-165 448.5,-184"/>
<text text-anchor="middle" x="407" y="-172" font-family="Helvetica,sans-Serif" font-size="10.00">actor_types.h</text>
</a>
</g>
</g>
<!-- Node28&#45;&gt;Node31 -->
<g id="edge47_Node000028_Node000031" class="edge">
<title>Node28&#45;&gt;Node31</title>
<g id="a_edge47_Node000028_Node000031"><a xlink:title=" ">
<path fill="none" stroke="#63b8ff" d="M407,-219.75C407,-212.8 407,-202.85 407,-194.13"/>
<polygon fill="#63b8ff" stroke="#63b8ff" points="410.5,-194.09 407,-184.09 403.5,-194.09 410.5,-194.09"/>
</a>
</g>
</g>
<!-- Node33 -->
<g id="Node000033" class="node">
<title>Node33</title>
<g id="a_Node000033"><a xlink:href="camera_8h.html" target="_top" xlink:title=" ">
<polygon fill="white" stroke="#666666" points="309,-184 247,-184 247,-165 309,-165 309,-184"/>
<text text-anchor="middle" x="278" y="-172" font-family="Helvetica,sans-Serif" font-size="10.00">camera.h</text>
</a>
</g>
</g>
<!-- Node28&#45;&gt;Node33 -->
<g id="edge52_Node000028_Node000033" class="edge">
<title>Node28&#45;&gt;Node33</title>
<g id="a_edge52_Node000028_Node000033"><a xlink:title=" ">
<path fill="none" stroke="#63b8ff" d="M386.27,-219.98C365.24,-211.34 332.45,-197.87 308.46,-188.02"/>
<polygon fill="#63b8ff" stroke="#63b8ff" points="309.68,-184.73 299.1,-184.17 307.02,-191.21 309.68,-184.73"/>
</a>
</g>
</g>
<!-- Node29&#45;&gt;Node22 -->
<g id="edge45_Node000029_Node000022" class="edge">
<title>Node29&#45;&gt;Node22</title>
<g id="a_edge45_Node000029_Node000022"><a xlink:title=" ">
<path fill="none" stroke="#63b8ff" d="M451.47,-109.98C419.3,-101.01 368.44,-86.82 332.83,-76.89"/>
<polygon fill="#63b8ff" stroke="#63b8ff" points="333.34,-73.4 322.77,-74.08 331.46,-80.14 333.34,-73.4"/>
</a>
</g>
</g>
<!-- Node30 -->
<g id="Node000030" class="node">
<title>Node30</title>
<g id="a_Node000030"><a xlink:href="math_8h.html" target="_top" xlink:title=" ">
<polygon fill="white" stroke="#666666" points="507.5,-74 456.5,-74 456.5,-55 507.5,-55 507.5,-74"/>
<text text-anchor="middle" x="482" y="-62" font-family="Helvetica,sans-Serif" font-size="10.00">math.h</text>
</a>
</g>
</g>
<!-- Node29&#45;&gt;Node30 -->
<g id="edge44_Node000029_Node000030" class="edge">
<title>Node29&#45;&gt;Node30</title>
<g id="a_edge44_Node000029_Node000030"><a xlink:title=" ">
<path fill="none" stroke="#63b8ff" d="M482,-109.75C482,-102.8 482,-92.85 482,-84.13"/>
<polygon fill="#63b8ff" stroke="#63b8ff" points="485.5,-84.09 482,-74.09 478.5,-84.09 485.5,-84.09"/>
</a>
</g>
</g>
<!-- Node31&#45;&gt;Node22 -->
<g id="edge48_Node000031_Node000022" class="edge">
<title>Node31&#45;&gt;Node22</title>
<g id="a_edge48_Node000031_Node000022"><a xlink:title=" ">
<path fill="none" stroke="#63b8ff" d="M397.59,-164.66C378.12,-146.38 333.19,-104.18 308.68,-81.17"/>
<polygon fill="#63b8ff" stroke="#63b8ff" points="310.91,-78.45 301.22,-74.16 306.11,-83.56 310.91,-78.45"/>
</a>
</g>
</g>
<!-- Node31&#45;&gt;Node26 -->
<g id="edge50_Node000031_Node000026" class="edge">
<title>Node31&#45;&gt;Node26</title>
<g id="a_edge50_Node000031_Node000026"><a xlink:title=" ">
<path fill="none" stroke="#63b8ff" d="M372.3,-164.98C335.25,-155.89 276.41,-141.46 235.87,-131.51"/>
<polygon fill="#63b8ff" stroke="#63b8ff" points="236.52,-128.07 225.98,-129.08 234.85,-134.86 236.52,-128.07"/>
</a>
</g>
</g>
<!-- Node31&#45;&gt;Node29 -->
<g id="edge49_Node000031_Node000029" class="edge">
<title>Node31&#45;&gt;Node29</title>
<g id="a_edge49_Node000031_Node000029"><a xlink:title=" ">
<path fill="none" stroke="#63b8ff" d="M419.05,-164.98C430.46,-156.92 447.83,-144.65 461.43,-135.03"/>
<polygon fill="#63b8ff" stroke="#63b8ff" points="463.58,-137.8 469.73,-129.17 459.54,-132.08 463.58,-137.8"/>
</a>
</g>
</g>
<!-- Node32 -->
<g id="Node000032" class="node">
<title>Node32</title>
<g id="a_Node000032"><a xlink:title=" ">
<polygon fill="#e0e0e0" stroke="#999999" points="433,-129 377,-129 377,-110 433,-110 433,-129"/>
<text text-anchor="middle" x="405" y="-117" font-family="Helvetica,sans-Serif" font-size="10.00">assert.h</text>
</a>
</g>
</g>
<!-- Node31&#45;&gt;Node32 -->
<g id="edge51_Node000031_Node000032" class="edge">
<title>Node31&#45;&gt;Node32</title>
<g id="a_edge51_Node000031_Node000032"><a xlink:title=" ">
<path fill="none" stroke="#63b8ff" d="M406.67,-164.75C406.41,-157.8 406.03,-147.85 405.7,-139.13"/>
<polygon fill="#63b8ff" stroke="#63b8ff" points="409.2,-138.95 405.32,-129.09 402.2,-139.21 409.2,-138.95"/>
</a>
</g>
</g>
<!-- Node33&#45;&gt;Node22 -->
<g id="edge53_Node000033_Node000022" class="edge">
<title>Node33&#45;&gt;Node22</title>
<g id="a_edge53_Node000033_Node000022"><a xlink:title=" ">
<path fill="none" stroke="#63b8ff" d="M279.15,-164.66C281.41,-147.17 286.52,-107.8 289.57,-84.27"/>
<polygon fill="#63b8ff" stroke="#63b8ff" points="293.06,-84.53 290.88,-74.16 286.12,-83.63 293.06,-84.53"/>
</a>
</g>
</g>
<!-- Node33&#45;&gt;Node26 -->
<g id="edge54_Node000033_Node000026" class="edge">
<title>Node33&#45;&gt;Node26</title>
<g id="a_edge54_Node000033_Node000026"><a xlink:title=" ">
<path fill="none" stroke="#63b8ff" d="M264.02,-164.98C250.53,-156.77 229.87,-144.18 213.96,-134.49"/>
<polygon fill="#63b8ff" stroke="#63b8ff" points="215.59,-131.38 205.23,-129.17 211.95,-137.36 215.59,-131.38"/>
</a>
</g>
</g>
</g>
</svg>
