<?xml version="1.0" encoding="UTF-8" standalone="no"?>
<!DOCTYPE svg PUBLIC "-//W3C//DTD SVG 1.1//EN"
 "http://www.w3.org/Graphics/SVG/1.1/DTD/svg11.dtd">
<!-- Generated by graphviz version 2.43.0 (0)
 -->
<!-- Title: src/port/ui/ResolutionEditor.cpp Pages: 1 -->
<svg width="1592pt" height="423pt"
 viewBox="0.00 0.00 1591.50 423.00" xmlns="http://www.w3.org/2000/svg" xmlns:xlink="http://www.w3.org/1999/xlink">
<g id="graph0" class="graph" transform="scale(1 1) rotate(0) translate(4 419)">
<title>src/port/ui/ResolutionEditor.cpp</title>
<!-- Node1 -->
<g id="Node000001" class="node">
<title>Node1</title>
<g id="a_Node000001"><a xlink:title=" ">
<polygon fill="#999999" stroke="#666666" points="1275,-415 1107,-415 1107,-396 1275,-396 1275,-415"/>
<text text-anchor="middle" x="1191" y="-403" font-family="Helvetica,sans-Serif" font-size="10.00">src/port/ui/ResolutionEditor.cpp</text>
</a>
</g>
</g>
<!-- Node2 -->
<g id="Node000002" class="node">
<title>Node2</title>
<g id="a_Node000002"><a xlink:href="ResolutionEditor_8h.html" target="_top" xlink:title=" ">
<polygon fill="white" stroke="#666666" points="1276.5,-360 1171.5,-360 1171.5,-341 1276.5,-341 1276.5,-360"/>
<text text-anchor="middle" x="1224" y="-348" font-family="Helvetica,sans-Serif" font-size="10.00">ResolutionEditor.h</text>
</a>
</g>
</g>
<!-- Node1&#45;&gt;Node2 -->
<g id="edge1_Node000001_Node000002" class="edge">
<title>Node1&#45;&gt;Node2</title>
<g id="a_edge1_Node000001_Node000002"><a xlink:title=" ">
<path fill="none" stroke="#63b8ff" d="M1196.45,-395.75C1201.01,-388.42 1207.67,-377.73 1213.29,-368.7"/>
<polygon fill="#63b8ff" stroke="#63b8ff" points="1216.34,-370.43 1218.65,-360.09 1210.4,-366.73 1216.34,-370.43"/>
</a>
</g>
</g>
<!-- Node3 -->
<g id="Node000003" class="node">
<title>Node3</title>
<g id="a_Node000003"><a xlink:title=" ">
<polygon fill="#e0e0e0" stroke="#999999" points="1125,-74 987,-74 987,-55 1125,-55 1125,-74"/>
<text text-anchor="middle" x="1056" y="-62" font-family="Helvetica,sans-Serif" font-size="10.00">libultraship/libultraship.h</text>
</a>
</g>
</g>
<!-- Node1&#45;&gt;Node3 -->
<g id="edge6_Node000001_Node000003" class="edge">
<title>Node1&#45;&gt;Node3</title>
<g id="a_edge6_Node000001_Node000003"><a xlink:title=" ">
<path fill="none" stroke="#63b8ff" d="M1275.15,-401.22C1350.1,-393.24 1448,-368.07 1448,-291 1448,-291 1448,-291 1448,-173.5 1448,-109.26 1249.86,-81.77 1135.31,-71.25"/>
<polygon fill="#63b8ff" stroke="#63b8ff" points="1135.45,-67.75 1125.18,-70.34 1134.83,-74.72 1135.45,-67.75"/>
</a>
</g>
</g>
<!-- Node4 -->
<g id="Node000004" class="node">
<title>Node4</title>
<g id="a_Node000004"><a xlink:title=" ">
<polygon fill="#e0e0e0" stroke="#999999" points="1212,-299.5 1042,-299.5 1042,-280.5 1212,-280.5 1212,-299.5"/>
<text text-anchor="middle" x="1127" y="-287.5" font-family="Helvetica,sans-Serif" font-size="10.00">graphic/Fast3D/Fast3dWindow.h</text>
</a>
</g>
</g>
<!-- Node1&#45;&gt;Node4 -->
<g id="edge17_Node000001_Node000004" class="edge">
<title>Node1&#45;&gt;Node4</title>
<g id="a_edge17_Node000001_Node000004"><a xlink:title=" ">
<path fill="none" stroke="#63b8ff" d="M1184.94,-395.81C1178.86,-386.97 1169.38,-372.78 1162,-360 1152.17,-342.96 1142.13,-322.84 1135.34,-308.73"/>
<polygon fill="#63b8ff" stroke="#63b8ff" points="1138.48,-307.18 1131.02,-299.66 1132.16,-310.19 1138.48,-307.18"/>
</a>
</g>
</g>
<!-- Node5 -->
<g id="Node000005" class="node">
<title>Node5</title>
<g id="a_Node000005"><a xlink:title=" ">
<polygon fill="#e0e0e0" stroke="#999999" points="1420,-299.5 1268,-299.5 1268,-280.5 1420,-280.5 1420,-299.5"/>
<text text-anchor="middle" x="1344" y="-287.5" font-family="Helvetica,sans-Serif" font-size="10.00">graphic/Fast3D/interpreter.h</text>
</a>
</g>
</g>
<!-- Node1&#45;&gt;Node5 -->
<g id="edge18_Node000001_Node000005" class="edge">
<title>Node1&#45;&gt;Node5</title>
<g id="a_edge18_Node000001_Node000005"><a xlink:title=" ">
<path fill="none" stroke="#63b8ff" d="M1216.14,-395.94C1236.05,-388.4 1263.91,-376.12 1285,-360 1304.29,-345.25 1321.72,-323.27 1332.55,-308.1"/>
<polygon fill="#63b8ff" stroke="#63b8ff" points="1335.58,-309.87 1338.4,-299.66 1329.83,-305.89 1335.58,-309.87"/>
</a>
</g>
</g>
<!-- Node6 -->
<g id="Node000006" class="node">
<title>Node6</title>
<g id="a_Node000006"><a xlink:title=" ">
<polygon fill="#e0e0e0" stroke="#999999" points="1211.5,-129 1158.5,-129 1158.5,-110 1211.5,-110 1211.5,-129"/>
<text text-anchor="middle" x="1185" y="-117" font-family="Helvetica,sans-Serif" font-size="10.00">imgui.h</text>
</a>
</g>
</g>
<!-- Node1&#45;&gt;Node6 -->
<g id="edge5_Node000001_Node000006" class="edge">
<title>Node1&#45;&gt;Node6</title>
<g id="a_edge5_Node000001_Node000006"><a xlink:title=" ">
<path fill="none" stroke="#63b8ff" d="M1145.42,-395.92C1092.97,-383.09 1014,-353.42 1014,-291 1014,-291 1014,-291 1014,-228.5 1014,-165.43 1098.19,-137.7 1148.42,-126.76"/>
<polygon fill="#63b8ff" stroke="#63b8ff" points="1149.19,-130.18 1158.28,-124.73 1147.78,-123.32 1149.19,-130.18"/>
</a>
</g>
</g>
<!-- Node7 -->
<g id="Node000007" class="node">
<title>Node7</title>
<g id="a_Node000007"><a xlink:href="UIWidgets_8h.html" target="_top" xlink:title=" ">
<polygon fill="white" stroke="#666666" points="935,-184 859,-184 859,-165 935,-165 935,-184"/>
<text text-anchor="middle" x="897" y="-172" font-family="Helvetica,sans-Serif" font-size="10.00">UIWidgets.h</text>
</a>
</g>
</g>
<!-- Node1&#45;&gt;Node7 -->
<g id="edge7_Node000001_Node000007" class="edge">
<title>Node1&#45;&gt;Node7</title>
<g id="a_edge7_Node000001_Node000007"><a xlink:title=" ">
<path fill="none" stroke="#63b8ff" d="M1106.61,-399.87C1070.83,-394.32 1030.47,-382.93 1000,-360 942.63,-316.81 912.77,-231.8 901.9,-194.17"/>
<polygon fill="#63b8ff" stroke="#63b8ff" points="905.16,-192.82 899.12,-184.12 898.41,-194.69 905.16,-192.82"/>
</a>
</g>
</g>
<!-- Node14 -->
<g id="Node000014" class="node">
<title>Node14</title>
<g id="a_Node000014"><a xlink:href="Engine_8h.html" target="_top" xlink:title=" ">
<polygon fill="white" stroke="#666666" points="1563.5,-360 1482.5,-360 1482.5,-341 1563.5,-341 1563.5,-360"/>
<text text-anchor="middle" x="1523" y="-348" font-family="Helvetica,sans-Serif" font-size="10.00">port/Engine.h</text>
</a>
</g>
</g>
<!-- Node1&#45;&gt;Node14 -->
<g id="edge19_Node000001_Node000014" class="edge">
<title>Node1&#45;&gt;Node14</title>
<g id="a_edge19_Node000001_Node000014"><a xlink:title=" ">
<path fill="none" stroke="#63b8ff" d="M1244.34,-395.98C1307.2,-385.95 1410.85,-369.4 1472.46,-359.57"/>
<polygon fill="#63b8ff" stroke="#63b8ff" points="1473.02,-363.02 1482.35,-357.99 1471.92,-356.11 1473.02,-363.02"/>
</a>
</g>
</g>
<!-- Node16 -->
<g id="Node000016" class="node">
<title>Node16</title>
<g id="a_Node000016"><a xlink:href="PortMenu_8h.html" target="_top" xlink:title=" ">
<polygon fill="white" stroke="#666666" points="816,-360 744,-360 744,-341 816,-341 816,-360"/>
<text text-anchor="middle" x="780" y="-348" font-family="Helvetica,sans-Serif" font-size="10.00">PortMenu.h</text>
</a>
</g>
</g>
<!-- Node1&#45;&gt;Node16 -->
<g id="edge21_Node000001_Node000016" class="edge">
<title>Node1&#45;&gt;Node16</title>
<g id="a_edge21_Node000001_Node000016"><a xlink:title=" ">
<path fill="none" stroke="#63b8ff" d="M1124.97,-395.98C1041.37,-385.21 899.49,-366.91 826.47,-357.49"/>
<polygon fill="#63b8ff" stroke="#63b8ff" points="826.58,-353.98 816.21,-356.17 825.68,-360.92 826.58,-353.98"/>
</a>
</g>
</g>
<!-- Node2&#45;&gt;Node3 -->
<g id="edge2_Node000002_Node000003" class="edge">
<title>Node2&#45;&gt;Node3</title>
<g id="a_edge2_Node000002_Node000003"><a xlink:title=" ">
<path fill="none" stroke="#63b8ff" d="M1225.96,-340.89C1230.23,-321.37 1240,-272.19 1240,-230.5 1240,-230.5 1240,-230.5 1240,-173.5 1240,-143.91 1241.34,-130.5 1220,-110 1197.35,-88.24 1165.17,-76.88 1135.31,-71.04"/>
<polygon fill="#63b8ff" stroke="#63b8ff" points="1135.75,-67.56 1125.29,-69.26 1134.53,-74.46 1135.75,-67.56"/>
</a>
</g>
</g>
<!-- Node2&#45;&gt;Node4 -->
<g id="edge3_Node000002_Node000004" class="edge">
<title>Node2&#45;&gt;Node4</title>
<g id="a_edge3_Node000002_Node000004"><a xlink:title=" ">
<path fill="none" stroke="#63b8ff" d="M1209.69,-340.87C1194,-331.41 1168.6,-316.09 1150.09,-304.92"/>
<polygon fill="#63b8ff" stroke="#63b8ff" points="1151.74,-301.83 1141.37,-299.67 1148.13,-307.83 1151.74,-301.83"/>
</a>
</g>
</g>
<!-- Node2&#45;&gt;Node5 -->
<g id="edge4_Node000002_Node000005" class="edge">
<title>Node2&#45;&gt;Node5</title>
<g id="a_edge4_Node000002_Node000005"><a xlink:title=" ">
<path fill="none" stroke="#63b8ff" d="M1241.45,-340.99C1261.36,-331.29 1294.14,-315.31 1317.27,-304.03"/>
<polygon fill="#63b8ff" stroke="#63b8ff" points="1319.07,-307.04 1326.53,-299.52 1316.01,-300.75 1319.07,-307.04"/>
</a>
</g>
</g>
<!-- Node7&#45;&gt;Node3 -->
<g id="edge13_Node000007_Node000003" class="edge">
<title>Node7&#45;&gt;Node3</title>
<g id="a_edge13_Node000007_Node000003"><a xlink:title=" ">
<path fill="none" stroke="#63b8ff" d="M935.3,-171.17C990.78,-166.92 1089.27,-155.71 1111,-129 1125.19,-111.56 1102.34,-92.09 1081.91,-79.37"/>
<polygon fill="#63b8ff" stroke="#63b8ff" points="1083.53,-76.25 1073.13,-74.19 1079.97,-82.28 1083.53,-76.25"/>
</a>
</g>
</g>
<!-- Node7&#45;&gt;Node6 -->
<g id="edge12_Node000007_Node000006" class="edge">
<title>Node7&#45;&gt;Node6</title>
<g id="a_edge12_Node000007_Node000006"><a xlink:title=" ">
<path fill="none" stroke="#63b8ff" d="M935.14,-166.95C983.71,-158.53 1070.21,-143.29 1144,-129 1145.28,-128.75 1146.59,-128.5 1147.91,-128.23"/>
<polygon fill="#63b8ff" stroke="#63b8ff" points="1149,-131.59 1158.11,-126.18 1147.62,-124.72 1149,-131.59"/>
</a>
</g>
</g>
<!-- Node8 -->
<g id="Node000008" class="node">
<title>Node8</title>
<g id="a_Node000008"><a xlink:title=" ">
<polygon fill="#e0e0e0" stroke="#999999" points="926,-129 882,-129 882,-110 926,-110 926,-129"/>
<text text-anchor="middle" x="904" y="-117" font-family="Helvetica,sans-Serif" font-size="10.00">string</text>
</a>
</g>
</g>
<!-- Node7&#45;&gt;Node8 -->
<g id="edge8_Node000007_Node000008" class="edge">
<title>Node7&#45;&gt;Node8</title>
<g id="a_edge8_Node000007_Node000008"><a xlink:title=" ">
<path fill="none" stroke="#63b8ff" d="M898.16,-164.75C899.07,-157.8 900.39,-147.85 901.54,-139.13"/>
<polygon fill="#63b8ff" stroke="#63b8ff" points="905.03,-139.46 902.87,-129.09 898.09,-138.54 905.03,-139.46"/>
</a>
</g>
</g>
<!-- Node9 -->
<g id="Node000009" class="node">
<title>Node9</title>
<g id="a_Node000009"><a xlink:title=" ">
<polygon fill="#e0e0e0" stroke="#999999" points="991.5,-129 944.5,-129 944.5,-110 991.5,-110 991.5,-129"/>
<text text-anchor="middle" x="968" y="-117" font-family="Helvetica,sans-Serif" font-size="10.00">vector</text>
</a>
</g>
</g>
<!-- Node7&#45;&gt;Node9 -->
<g id="edge9_Node000007_Node000009" class="edge">
<title>Node7&#45;&gt;Node9</title>
<g id="a_edge9_Node000007_Node000009"><a xlink:title=" ">
<path fill="none" stroke="#63b8ff" d="M908.41,-164.98C919.11,-157 935.34,-144.88 948.16,-135.31"/>
<polygon fill="#63b8ff" stroke="#63b8ff" points="950.47,-137.96 956.39,-129.17 946.28,-132.35 950.47,-137.96"/>
</a>
</g>
</g>
<!-- Node10 -->
<g id="Node000010" class="node">
<title>Node10</title>
<g id="a_Node000010"><a xlink:title=" ">
<polygon fill="#e0e0e0" stroke="#999999" points="681,-129 641,-129 641,-110 681,-110 681,-129"/>
<text text-anchor="middle" x="661" y="-117" font-family="Helvetica,sans-Serif" font-size="10.00">span</text>
</a>
</g>
</g>
<!-- Node7&#45;&gt;Node10 -->
<g id="edge10_Node000007_Node000010" class="edge">
<title>Node7&#45;&gt;Node10</title>
<g id="a_edge10_Node000007_Node000010"><a xlink:title=" ">
<path fill="none" stroke="#63b8ff" d="M858.65,-166.13C818.99,-158.32 755.06,-145.19 691.08,-129.13"/>
<polygon fill="#63b8ff" stroke="#63b8ff" points="691.78,-125.7 681.23,-126.63 690.06,-132.48 691.78,-125.7"/>
</a>
</g>
</g>
<!-- Node11 -->
<g id="Node000011" class="node">
<title>Node11</title>
<g id="a_Node000011"><a xlink:title=" ">
<polygon fill="#e0e0e0" stroke="#999999" points="752.5,-129 699.5,-129 699.5,-110 752.5,-110 752.5,-129"/>
<text text-anchor="middle" x="726" y="-117" font-family="Helvetica,sans-Serif" font-size="10.00">stdint.h</text>
</a>
</g>
</g>
<!-- Node7&#45;&gt;Node11 -->
<g id="edge11_Node000007_Node000011" class="edge">
<title>Node7&#45;&gt;Node11</title>
<g id="a_edge11_Node000007_Node000011"><a xlink:title=" ">
<path fill="none" stroke="#63b8ff" d="M869.53,-164.98C840.48,-155.98 794.51,-141.73 762.44,-131.8"/>
<polygon fill="#63b8ff" stroke="#63b8ff" points="763.15,-128.35 752.56,-128.73 761.08,-135.04 763.15,-128.35"/>
</a>
</g>
</g>
<!-- Node12 -->
<g id="Node000012" class="node">
<title>Node12</title>
<g id="a_Node000012"><a xlink:title=" ">
<polygon fill="#e0e0e0" stroke="#999999" points="863.5,-129 770.5,-129 770.5,-110 863.5,-110 863.5,-129"/>
<text text-anchor="middle" x="817" y="-117" font-family="Helvetica,sans-Serif" font-size="10.00">unordered_map</text>
</a>
</g>
</g>
<!-- Node7&#45;&gt;Node12 -->
<g id="edge14_Node000007_Node000012" class="edge">
<title>Node7&#45;&gt;Node12</title>
<g id="a_edge14_Node000007_Node000012"><a xlink:title=" ">
<path fill="none" stroke="#63b8ff" d="M884.15,-164.98C871.86,-156.84 853.09,-144.41 838.52,-134.76"/>
<polygon fill="#63b8ff" stroke="#63b8ff" points="840.36,-131.78 830.09,-129.17 836.49,-137.61 840.36,-131.78"/>
</a>
</g>
</g>
<!-- Node13 -->
<g id="Node000013" class="node">
<title>Node13</title>
<g id="a_Node000013"><a xlink:href="ShipUtils_8h.html" target="_top" xlink:title=" ">
<polygon fill="white" stroke="#666666" points="1102,-129 1010,-129 1010,-110 1102,-110 1102,-129"/>
<text text-anchor="middle" x="1056" y="-117" font-family="Helvetica,sans-Serif" font-size="10.00">port/ShipUtils.h</text>
</a>
</g>
</g>
<!-- Node7&#45;&gt;Node13 -->
<g id="edge15_Node000007_Node000013" class="edge">
<title>Node7&#45;&gt;Node13</title>
<g id="a_edge15_Node000007_Node000013"><a xlink:title=" ">
<path fill="none" stroke="#63b8ff" d="M922.55,-164.98C949.12,-156.13 990.94,-142.19 1020.67,-132.28"/>
<polygon fill="#63b8ff" stroke="#63b8ff" points="1021.87,-135.56 1030.25,-129.08 1019.66,-128.92 1021.87,-135.56"/>
</a>
</g>
</g>
<!-- Node13&#45;&gt;Node3 -->
<g id="edge16_Node000013_Node000003" class="edge">
<title>Node13&#45;&gt;Node3</title>
<g id="a_edge16_Node000013_Node000003"><a xlink:title=" ">
<path fill="none" stroke="#63b8ff" d="M1056,-109.75C1056,-102.8 1056,-92.85 1056,-84.13"/>
<polygon fill="#63b8ff" stroke="#63b8ff" points="1059.5,-84.09 1056,-74.09 1052.5,-84.09 1059.5,-84.09"/>
</a>
</g>
</g>
<!-- Node15 -->
<g id="Node000015" class="node">
<title>Node15</title>
<g id="a_Node000015"><a xlink:href="HMAS_8h.html" target="_top" xlink:title=" ">
<polygon fill="white" stroke="#666666" points="1583.5,-299.5 1476.5,-299.5 1476.5,-280.5 1583.5,-280.5 1583.5,-299.5"/>
<text text-anchor="middle" x="1530" y="-287.5" font-family="Helvetica,sans-Serif" font-size="10.00">port/audio/HMAS.h</text>
</a>
</g>
</g>
<!-- Node14&#45;&gt;Node15 -->
<g id="edge20_Node000014_Node000015" class="edge">
<title>Node14&#45;&gt;Node15</title>
<g id="a_edge20_Node000014_Node000015"><a xlink:title=" ">
<path fill="none" stroke="#63b8ff" d="M1524.03,-340.87C1525,-332.75 1526.49,-320.31 1527.74,-309.89"/>
<polygon fill="#63b8ff" stroke="#63b8ff" points="1531.25,-310.01 1528.96,-299.67 1524.3,-309.18 1531.25,-310.01"/>
</a>
</g>
</g>
<!-- Node16&#45;&gt;Node3 -->
<g id="edge22_Node000016_Node000003" class="edge">
<title>Node16&#45;&gt;Node3</title>
<g id="a_edge22_Node000016_Node000003"><a xlink:title=" ">
<path fill="none" stroke="#63b8ff" d="M761.16,-340.88C746.2,-333.25 725.59,-320.85 712,-305 651.01,-233.9 569.31,-179.61 632,-110 654.57,-84.94 859.89,-73.01 976.33,-68.21"/>
<polygon fill="#63b8ff" stroke="#63b8ff" points="976.77,-71.7 986.62,-67.8 976.48,-64.7 976.77,-71.7"/>
</a>
</g>
</g>
<!-- Node16&#45;&gt;Node7 -->
<g id="edge23_Node000016_Node000007" class="edge">
<title>Node16&#45;&gt;Node7</title>
<g id="a_edge23_Node000016_Node000007"><a xlink:title=" ">
<path fill="none" stroke="#63b8ff" d="M799.11,-340.87C813.96,-333.3 834.15,-321.01 847,-305 874.06,-271.29 887.75,-221.24 893.52,-194.3"/>
<polygon fill="#63b8ff" stroke="#63b8ff" points="896.99,-194.78 895.52,-184.28 890.13,-193.4 896.99,-194.78"/>
</a>
</g>
</g>
<!-- Node17 -->
<g id="Node000017" class="node">
<title>Node17</title>
<g id="a_Node000017"><a xlink:href="Menu_8h.html" target="_top" xlink:title=" ">
<polygon fill="white" stroke="#666666" points="471.5,-299.5 418.5,-299.5 418.5,-280.5 471.5,-280.5 471.5,-299.5"/>
<text text-anchor="middle" x="445" y="-287.5" font-family="Helvetica,sans-Serif" font-size="10.00">Menu.h</text>
</a>
</g>
</g>
<!-- Node16&#45;&gt;Node17 -->
<g id="edge24_Node000016_Node000017" class="edge">
<title>Node16&#45;&gt;Node17</title>
<g id="a_edge24_Node000016_Node000017"><a xlink:title=" ">
<path fill="none" stroke="#63b8ff" d="M743.83,-343.18C679.72,-331.99 546.84,-308.78 482.09,-297.48"/>
<polygon fill="#63b8ff" stroke="#63b8ff" points="482.38,-293.97 471.93,-295.7 481.18,-300.87 482.38,-293.97"/>
</a>
</g>
</g>
<!-- Node35 -->
<g id="Node000035" class="node">
<title>Node35</title>
<g id="a_Node000035"><a xlink:title=" ">
<polygon fill="#e0e0e0" stroke="#999999" points="838.5,-305 721.5,-305 721.5,-275 838.5,-275 838.5,-305"/>
<text text-anchor="start" x="729.5" y="-293" font-family="Helvetica,sans-Serif" font-size="10.00">Fast3D/backends/gfx</text>
<text text-anchor="middle" x="780" y="-282" font-family="Helvetica,sans-Serif" font-size="10.00">_rendering_api.h</text>
</a>
</g>
</g>
<!-- Node16&#45;&gt;Node35 -->
<g id="edge56_Node000016_Node000035" class="edge">
<title>Node16&#45;&gt;Node35</title>
<g id="a_edge56_Node000016_Node000035"><a xlink:title=" ">
<path fill="none" stroke="#63b8ff" d="M780,-340.87C780,-334.11 780,-324.35 780,-315.26"/>
<polygon fill="#63b8ff" stroke="#63b8ff" points="783.5,-315.11 780,-305.11 776.5,-315.11 783.5,-315.11"/>
</a>
</g>
</g>
<!-- Node17&#45;&gt;Node3 -->
<g id="edge25_Node000017_Node000003" class="edge">
<title>Node17&#45;&gt;Node3</title>
<g id="a_edge25_Node000017_Node000003"><a xlink:title=" ">
<path fill="none" stroke="#63b8ff" d="M455.22,-280.37C466.19,-270.84 483.82,-254.76 497,-239 541.21,-186.14 523.84,-145.33 583,-110 647.45,-71.52 859.34,-65.26 976.45,-64.86"/>
<polygon fill="#63b8ff" stroke="#63b8ff" points="976.79,-68.36 986.79,-64.84 976.78,-61.36 976.79,-68.36"/>
</a>
</g>
</g>
<!-- Node17&#45;&gt;Node7 -->
<g id="edge26_Node000017_Node000007" class="edge">
<title>Node17&#45;&gt;Node7</title>
<g id="a_edge26_Node000017_Node000007"><a xlink:title=" ">
<path fill="none" stroke="#63b8ff" d="M471.59,-282.32C546.55,-263.5 760.19,-209.85 853.03,-186.54"/>
<polygon fill="#63b8ff" stroke="#63b8ff" points="854.1,-189.88 862.95,-184.05 852.4,-183.09 854.1,-189.88"/>
</a>
</g>
</g>
<!-- Node18 -->
<g id="Node000018" class="node">
<title>Node18</title>
<g id="a_Node000018"><a xlink:href="MenuTypes_8h.html" target="_top" xlink:title=" ">
<polygon fill="white" stroke="#666666" points="624,-239 544,-239 544,-220 624,-220 624,-239"/>
<text text-anchor="middle" x="584" y="-227" font-family="Helvetica,sans-Serif" font-size="10.00">MenuTypes.h</text>
</a>
</g>
</g>
<!-- Node17&#45;&gt;Node18 -->
<g id="edge27_Node000017_Node000018" class="edge">
<title>Node17&#45;&gt;Node18</title>
<g id="a_edge27_Node000017_Node000018"><a xlink:title=" ">
<path fill="none" stroke="#63b8ff" d="M465.21,-280.49C488.68,-270.62 527.61,-254.23 554.46,-242.93"/>
<polygon fill="#63b8ff" stroke="#63b8ff" points="555.9,-246.12 563.76,-239.02 553.19,-239.67 555.9,-246.12"/>
</a>
</g>
</g>
<!-- Node19 -->
<g id="Node000019" class="node">
<title>Node19</title>
<g id="a_Node000019"><a xlink:title=" ">
<polygon fill="#e0e0e0" stroke="#999999" points="488,-239 402,-239 402,-220 488,-220 488,-239"/>
<text text-anchor="middle" x="445" y="-227" font-family="Helvetica,sans-Serif" font-size="10.00">../port/Game.h</text>
</a>
</g>
</g>
<!-- Node17&#45;&gt;Node19 -->
<g id="edge30_Node000017_Node000019" class="edge">
<title>Node17&#45;&gt;Node19</title>
<g id="a_edge30_Node000017_Node000019"><a xlink:title=" ">
<path fill="none" stroke="#63b8ff" d="M445,-280.37C445,-272.25 445,-259.81 445,-249.39"/>
<polygon fill="#63b8ff" stroke="#63b8ff" points="448.5,-249.17 445,-239.17 441.5,-249.17 448.5,-249.17"/>
</a>
</g>
</g>
<!-- Node20 -->
<g id="Node000020" class="node">
<title>Node20</title>
<g id="a_Node000020"><a xlink:href="defines_8h.html" target="_top" xlink:title=" ">
<polygon fill="white" stroke="#666666" points="179.5,-184 118.5,-184 118.5,-165 179.5,-165 179.5,-184"/>
<text text-anchor="middle" x="149" y="-172" font-family="Helvetica,sans-Serif" font-size="10.00">defines.h</text>
</a>
</g>
</g>
<!-- Node17&#45;&gt;Node20 -->
<g id="edge31_Node000017_Node000020" class="edge">
<title>Node17&#45;&gt;Node20</title>
<g id="a_edge31_Node000017_Node000020"><a xlink:title=" ">
<path fill="none" stroke="#63b8ff" d="M418.26,-287.61C356.41,-283.85 205.9,-271.52 169,-239 156.41,-227.9 151.67,-208.97 149.92,-194.66"/>
<polygon fill="#63b8ff" stroke="#63b8ff" points="153.39,-194.08 149.07,-184.41 146.41,-194.66 153.39,-194.08"/>
</a>
</g>
</g>
<!-- Node21 -->
<g id="Node000021" class="node">
<title>Node21</title>
<g id="a_Node000021"><a xlink:href="main_8h.html" target="_top" xlink:title=" ">
<polygon fill="white" stroke="#666666" points="100,-184 50,-184 50,-165 100,-165 100,-184"/>
<text text-anchor="middle" x="75" y="-172" font-family="Helvetica,sans-Serif" font-size="10.00">main.h</text>
</a>
</g>
</g>
<!-- Node17&#45;&gt;Node21 -->
<g id="edge32_Node000017_Node000021" class="edge">
<title>Node17&#45;&gt;Node21</title>
<g id="a_edge32_Node000017_Node000021"><a xlink:title=" ">
<path fill="none" stroke="#63b8ff" d="M418.31,-288.89C365.31,-287.74 244.08,-280.38 153,-239 128.05,-227.66 104.38,-206.36 89.79,-191.57"/>
<polygon fill="#63b8ff" stroke="#63b8ff" points="92.12,-188.94 82.67,-184.13 87.06,-193.78 92.12,-188.94"/>
</a>
</g>
</g>
<!-- Node28 -->
<g id="Node000028" class="node">
<title>Node28</title>
<g id="a_Node000028"><a xlink:href="menus_8h.html" target="_top" xlink:title=" ">
<polygon fill="white" stroke="#666666" points="237.5,-239 178.5,-239 178.5,-220 237.5,-220 237.5,-239"/>
<text text-anchor="middle" x="208" y="-227" font-family="Helvetica,sans-Serif" font-size="10.00">menus.h</text>
</a>
</g>
</g>
<!-- Node17&#45;&gt;Node28 -->
<g id="edge40_Node000017_Node000028" class="edge">
<title>Node17&#45;&gt;Node28</title>
<g id="a_edge40_Node000017_Node000028"><a xlink:title=" ">
<path fill="none" stroke="#63b8ff" d="M418.27,-282.4C376.57,-272.11 295.79,-252.17 247.4,-240.23"/>
<polygon fill="#63b8ff" stroke="#63b8ff" points="248.14,-236.8 237.59,-237.8 246.46,-243.6 248.14,-236.8"/>
</a>
</g>
</g>
<!-- Node29 -->
<g id="Node000029" class="node">
<title>Node29</title>
<g id="a_Node000029"><a xlink:href="code__800029B0_8h.html" target="_top" xlink:title=" ">
<polygon fill="white" stroke="#666666" points="383.5,-239 280.5,-239 280.5,-220 383.5,-220 383.5,-239"/>
<text text-anchor="middle" x="332" y="-227" font-family="Helvetica,sans-Serif" font-size="10.00">code_800029B0.h</text>
</a>
</g>
</g>
<!-- Node17&#45;&gt;Node29 -->
<g id="edge43_Node000017_Node000029" class="edge">
<title>Node17&#45;&gt;Node29</title>
<g id="a_edge43_Node000017_Node000029"><a xlink:title=" ">
<path fill="none" stroke="#63b8ff" d="M428.33,-280.37C409.72,-270.73 379.38,-255.03 357.72,-243.81"/>
<polygon fill="#63b8ff" stroke="#63b8ff" points="359.23,-240.66 348.74,-239.17 356.01,-246.87 359.23,-240.66"/>
</a>
</g>
</g>
<!-- Node18&#45;&gt;Node3 -->
<g id="edge28_Node000018_Node000003" class="edge">
<title>Node18&#45;&gt;Node3</title>
<g id="a_edge28_Node000018_Node000003"><a xlink:title=" ">
<path fill="none" stroke="#63b8ff" d="M581.92,-219.79C577.23,-197.79 568.51,-139.62 599,-110 625.48,-84.27 853.04,-72.47 976.73,-67.92"/>
<polygon fill="#63b8ff" stroke="#63b8ff" points="977.04,-71.41 986.91,-67.55 976.79,-64.42 977.04,-71.41"/>
</a>
</g>
</g>
<!-- Node18&#45;&gt;Node7 -->
<g id="edge29_Node000018_Node000007" class="edge">
<title>Node18&#45;&gt;Node7</title>
<g id="a_edge29_Node000018_Node000007"><a xlink:title=" ">
<path fill="none" stroke="#63b8ff" d="M624.28,-221.68C681.72,-211.95 787,-194.13 848.6,-183.7"/>
<polygon fill="#63b8ff" stroke="#63b8ff" points="849.56,-187.08 858.84,-181.96 848.39,-180.18 849.56,-187.08"/>
</a>
</g>
</g>
<!-- Node22 -->
<g id="Node000022" class="node">
<title>Node22</title>
<g id="a_Node000022"><a xlink:href="mk64_8h.html" target="_top" xlink:title=" ">
<polygon fill="white" stroke="#666666" points="107.5,-129 54.5,-129 54.5,-110 107.5,-110 107.5,-129"/>
<text text-anchor="middle" x="81" y="-117" font-family="Helvetica,sans-Serif" font-size="10.00">mk64.h</text>
</a>
</g>
</g>
<!-- Node21&#45;&gt;Node22 -->
<g id="edge33_Node000021_Node000022" class="edge">
<title>Node21&#45;&gt;Node22</title>
<g id="a_edge33_Node000021_Node000022"><a xlink:title=" ">
<path fill="none" stroke="#63b8ff" d="M75.99,-164.75C76.78,-157.8 77.9,-147.85 78.89,-139.13"/>
<polygon fill="#63b8ff" stroke="#63b8ff" points="82.38,-139.42 80.03,-129.09 75.42,-138.63 82.38,-139.42"/>
</a>
</g>
</g>
<!-- Node27 -->
<g id="Node000027" class="node">
<title>Node27</title>
<g id="a_Node000027"><a xlink:href="common__structs_8h.html" target="_top" xlink:title=" ">
<polygon fill="white" stroke="#666666" points="238.5,-129 131.5,-129 131.5,-110 238.5,-110 238.5,-129"/>
<text text-anchor="middle" x="185" y="-117" font-family="Helvetica,sans-Serif" font-size="10.00">common_structs.h</text>
</a>
</g>
</g>
<!-- Node21&#45;&gt;Node27 -->
<g id="edge38_Node000021_Node000027" class="edge">
<title>Node21&#45;&gt;Node27</title>
<g id="a_edge38_Node000021_Node000027"><a xlink:title=" ">
<path fill="none" stroke="#63b8ff" d="M92.67,-164.98C110.29,-156.5 137.58,-143.35 157.93,-133.54"/>
<polygon fill="#63b8ff" stroke="#63b8ff" points="159.52,-136.66 167.01,-129.17 156.48,-130.36 159.52,-136.66"/>
</a>
</g>
</g>
<!-- Node23 -->
<g id="Node000023" class="node">
<title>Node23</title>
<g id="a_Node000023"><a xlink:title=" ">
<polygon fill="#e0e0e0" stroke="#999999" points="326,-74 246,-74 246,-55 326,-55 326,-74"/>
<text text-anchor="middle" x="286" y="-62" font-family="Helvetica,sans-Serif" font-size="10.00">libultraship.h</text>
</a>
</g>
</g>
<!-- Node22&#45;&gt;Node23 -->
<g id="edge34_Node000022_Node000023" class="edge">
<title>Node22&#45;&gt;Node23</title>
<g id="a_edge34_Node000022_Node000023"><a xlink:title=" ">
<path fill="none" stroke="#63b8ff" d="M107.8,-111.57C142.22,-102.67 202.36,-87.12 243.16,-76.57"/>
<polygon fill="#63b8ff" stroke="#63b8ff" points="244.29,-79.9 253.09,-74.01 242.53,-73.12 244.29,-79.9"/>
</a>
</g>
</g>
<!-- Node24 -->
<g id="Node000024" class="node">
<title>Node24</title>
<g id="a_Node000024"><a xlink:href="string_8h.html" target="_top" xlink:title=" ">
<polygon fill="white" stroke="#666666" points="149.5,-74 96.5,-74 96.5,-55 149.5,-55 149.5,-74"/>
<text text-anchor="middle" x="123" y="-62" font-family="Helvetica,sans-Serif" font-size="10.00">string.h</text>
</a>
</g>
</g>
<!-- Node22&#45;&gt;Node24 -->
<g id="edge35_Node000022_Node000024" class="edge">
<title>Node22&#45;&gt;Node24</title>
<g id="a_edge35_Node000022_Node000024"><a xlink:title=" ">
<path fill="none" stroke="#63b8ff" d="M87.94,-109.75C93.87,-102.26 102.57,-91.28 109.82,-82.13"/>
<polygon fill="#63b8ff" stroke="#63b8ff" points="112.73,-84.1 116.19,-74.09 107.24,-79.75 112.73,-84.1"/>
</a>
</g>
</g>
<!-- Node26 -->
<g id="Node000026" class="node">
<title>Node26</title>
<g id="a_Node000026"><a xlink:title=" ">
<polygon fill="#e0e0e0" stroke="#999999" points="78,-74 0,-74 0,-55 78,-55 78,-74"/>
<text text-anchor="middle" x="39" y="-62" font-family="Helvetica,sans-Serif" font-size="10.00">libultra/gbi.h</text>
</a>
</g>
</g>
<!-- Node22&#45;&gt;Node26 -->
<g id="edge37_Node000022_Node000026" class="edge">
<title>Node22&#45;&gt;Node26</title>
<g id="a_edge37_Node000022_Node000026"><a xlink:title=" ">
<path fill="none" stroke="#63b8ff" d="M74.06,-109.75C68.13,-102.26 59.43,-91.28 52.18,-82.13"/>
<polygon fill="#63b8ff" stroke="#63b8ff" points="54.76,-79.75 45.81,-74.09 49.27,-84.1 54.76,-79.75"/>
</a>
</g>
</g>
<!-- Node25 -->
<g id="Node000025" class="node">
<title>Node25</title>
<g id="a_Node000025"><a xlink:title=" ">
<polygon fill="#e0e0e0" stroke="#999999" points="168,-19 78,-19 78,0 168,0 168,-19"/>
<text text-anchor="middle" x="123" y="-7" font-family="Helvetica,sans-Serif" font-size="10.00">libultra/types.h</text>
</a>
</g>
</g>
<!-- Node24&#45;&gt;Node25 -->
<g id="edge36_Node000024_Node000025" class="edge">
<title>Node24&#45;&gt;Node25</title>
<g id="a_edge36_Node000024_Node000025"><a xlink:title=" ">
<path fill="none" stroke="#63b8ff" d="M123,-54.75C123,-47.8 123,-37.85 123,-29.13"/>
<polygon fill="#63b8ff" stroke="#63b8ff" points="126.5,-29.09 123,-19.09 119.5,-29.09 126.5,-29.09"/>
</a>
</g>
</g>
<!-- Node27&#45;&gt;Node23 -->
<g id="edge39_Node000027_Node000023" class="edge">
<title>Node27&#45;&gt;Node23</title>
<g id="a_edge39_Node000027_Node000023"><a xlink:title=" ">
<path fill="none" stroke="#63b8ff" d="M201.23,-109.98C217.18,-101.61 241.78,-88.7 260.38,-78.95"/>
<polygon fill="#63b8ff" stroke="#63b8ff" points="262.25,-81.92 269.48,-74.17 259,-75.72 262.25,-81.92"/>
</a>
</g>
</g>
<!-- Node28&#45;&gt;Node20 -->
<g id="edge42_Node000028_Node000020" class="edge">
<title>Node28&#45;&gt;Node20</title>
<g id="a_edge42_Node000028_Node000020"><a xlink:title=" ">
<path fill="none" stroke="#63b8ff" d="M198.52,-219.98C189.8,-212.15 176.66,-200.34 166.1,-190.86"/>
<polygon fill="#63b8ff" stroke="#63b8ff" points="168.43,-188.25 158.65,-184.17 163.75,-193.46 168.43,-188.25"/>
</a>
</g>
</g>
<!-- Node28&#45;&gt;Node27 -->
<g id="edge41_Node000028_Node000027" class="edge">
<title>Node28&#45;&gt;Node27</title>
<g id="a_edge41_Node000028_Node000027"><a xlink:title=" ">
<path fill="none" stroke="#63b8ff" d="M206.12,-219.66C202.38,-202.09 193.93,-162.45 188.93,-138.95"/>
<polygon fill="#63b8ff" stroke="#63b8ff" points="192.35,-138.21 186.84,-129.16 185.5,-139.67 192.35,-138.21"/>
</a>
</g>
</g>
<!-- Node29&#45;&gt;Node23 -->
<g id="edge47_Node000029_Node000023" class="edge">
<title>Node29&#45;&gt;Node23</title>
<g id="a_edge47_Node000029_Node000023"><a xlink:title=" ">
<path fill="none" stroke="#63b8ff" d="M329.53,-219.74C322.32,-194.2 301.22,-119.43 291.29,-84.23"/>
<polygon fill="#63b8ff" stroke="#63b8ff" points="294.57,-82.98 288.49,-74.31 287.83,-84.88 294.57,-82.98"/>
</a>
</g>
</g>
<!-- Node30 -->
<g id="Node000030" class="node">
<title>Node30</title>
<g id="a_Node000030"><a xlink:href="macros_8h.html" target="_top" xlink:title=" ">
<polygon fill="white" stroke="#666666" points="507,-129 445,-129 445,-110 507,-110 507,-129"/>
<text text-anchor="middle" x="476" y="-117" font-family="Helvetica,sans-Serif" font-size="10.00">macros.h</text>
</a>
</g>
</g>
<!-- Node29&#45;&gt;Node30 -->
<g id="edge44_Node000029_Node000030" class="edge">
<title>Node29&#45;&gt;Node30</title>
<g id="a_edge44_Node000029_Node000030"><a xlink:title=" ">
<path fill="none" stroke="#63b8ff" d="M374.92,-219.93C398.28,-213.42 426.35,-202.34 446,-184 458.94,-171.92 466.85,-153.12 471.28,-139.1"/>
<polygon fill="#63b8ff" stroke="#63b8ff" points="474.75,-139.69 474.11,-129.11 468.02,-137.78 474.75,-139.69"/>
</a>
</g>
</g>
<!-- Node32 -->
<g id="Node000032" class="node">
<title>Node32</title>
<g id="a_Node000032"><a xlink:href="actor__types_8h.html" target="_top" xlink:title=" ">
<polygon fill="white" stroke="#666666" points="437.5,-184 354.5,-184 354.5,-165 437.5,-165 437.5,-184"/>
<text text-anchor="middle" x="396" y="-172" font-family="Helvetica,sans-Serif" font-size="10.00">actor_types.h</text>
</a>
</g>
</g>
<!-- Node29&#45;&gt;Node32 -->
<g id="edge48_Node000029_Node000032" class="edge">
<title>Node29&#45;&gt;Node32</title>
<g id="a_edge48_Node000029_Node000032"><a xlink:title=" ">
<path fill="none" stroke="#63b8ff" d="M342.28,-219.98C351.84,-212.07 366.28,-200.11 377.78,-190.58"/>
<polygon fill="#63b8ff" stroke="#63b8ff" points="380.06,-193.24 385.53,-184.17 375.6,-187.85 380.06,-193.24"/>
</a>
</g>
</g>
<!-- Node34 -->
<g id="Node000034" class="node">
<title>Node34</title>
<g id="a_Node000034"><a xlink:href="camera_8h.html" target="_top" xlink:title=" ">
<polygon fill="white" stroke="#666666" points="298,-184 236,-184 236,-165 298,-165 298,-184"/>
<text text-anchor="middle" x="267" y="-172" font-family="Helvetica,sans-Serif" font-size="10.00">camera.h</text>
</a>
</g>
</g>
<!-- Node29&#45;&gt;Node34 -->
<g id="edge53_Node000029_Node000034" class="edge">
<title>Node29&#45;&gt;Node34</title>
<g id="a_edge53_Node000029_Node000034"><a xlink:title=" ">
<path fill="none" stroke="#63b8ff" d="M321.56,-219.98C311.85,-212.07 297.18,-200.11 285.5,-190.58"/>
<polygon fill="#63b8ff" stroke="#63b8ff" points="287.6,-187.78 277.63,-184.17 283.17,-193.2 287.6,-187.78"/>
</a>
</g>
</g>
<!-- Node30&#45;&gt;Node23 -->
<g id="edge46_Node000030_Node000023" class="edge">
<title>Node30&#45;&gt;Node23</title>
<g id="a_edge46_Node000030_Node000023"><a xlink:title=" ">
<path fill="none" stroke="#63b8ff" d="M445.47,-109.98C413.3,-101.01 362.44,-86.82 326.83,-76.89"/>
<polygon fill="#63b8ff" stroke="#63b8ff" points="327.34,-73.4 316.77,-74.08 325.46,-80.14 327.34,-73.4"/>
</a>
</g>
</g>
<!-- Node31 -->
<g id="Node000031" class="node">
<title>Node31</title>
<g id="a_Node000031"><a xlink:href="math_8h.html" target="_top" xlink:title=" ">
<polygon fill="white" stroke="#666666" points="501.5,-74 450.5,-74 450.5,-55 501.5,-55 501.5,-74"/>
<text text-anchor="middle" x="476" y="-62" font-family="Helvetica,sans-Serif" font-size="10.00">math.h</text>
</a>
</g>
</g>
<!-- Node30&#45;&gt;Node31 -->
<g id="edge45_Node000030_Node000031" class="edge">
<title>Node30&#45;&gt;Node31</title>
<g id="a_edge45_Node000030_Node000031"><a xlink:title=" ">
<path fill="none" stroke="#63b8ff" d="M476,-109.75C476,-102.8 476,-92.85 476,-84.13"/>
<polygon fill="#63b8ff" stroke="#63b8ff" points="479.5,-84.09 476,-74.09 472.5,-84.09 479.5,-84.09"/>
</a>
</g>
</g>
<!-- Node32&#45;&gt;Node23 -->
<g id="edge49_Node000032_Node000023" class="edge">
<title>Node32&#45;&gt;Node23</title>
<g id="a_edge49_Node000032_Node000023"><a xlink:title=" ">
<path fill="none" stroke="#63b8ff" d="M387,-164.66C368.37,-146.38 325.4,-104.18 301.96,-81.17"/>
<polygon fill="#63b8ff" stroke="#63b8ff" points="304.41,-78.67 294.82,-74.16 299.5,-83.66 304.41,-78.67"/>
</a>
</g>
</g>
<!-- Node32&#45;&gt;Node27 -->
<g id="edge51_Node000032_Node000027" class="edge">
<title>Node32&#45;&gt;Node27</title>
<g id="a_edge51_Node000032_Node000027"><a xlink:title=" ">
<path fill="none" stroke="#63b8ff" d="M362.1,-164.98C325.98,-155.91 268.68,-141.52 229.08,-131.57"/>
<polygon fill="#63b8ff" stroke="#63b8ff" points="229.72,-128.12 219.17,-129.08 228.01,-134.91 229.72,-128.12"/>
</a>
</g>
</g>
<!-- Node32&#45;&gt;Node30 -->
<g id="edge50_Node000032_Node000030" class="edge">
<title>Node32&#45;&gt;Node30</title>
<g id="a_edge50_Node000032_Node000030"><a xlink:title=" ">
<path fill="none" stroke="#63b8ff" d="M408.85,-164.98C421.14,-156.84 439.91,-144.41 454.48,-134.76"/>
<polygon fill="#63b8ff" stroke="#63b8ff" points="456.51,-137.61 462.91,-129.17 452.64,-131.78 456.51,-137.61"/>
</a>
</g>
</g>
<!-- Node33 -->
<g id="Node000033" class="node">
<title>Node33</title>
<g id="a_Node000033"><a xlink:title=" ">
<polygon fill="#e0e0e0" stroke="#999999" points="427,-129 371,-129 371,-110 427,-110 427,-129"/>
<text text-anchor="middle" x="399" y="-117" font-family="Helvetica,sans-Serif" font-size="10.00">assert.h</text>
</a>
</g>
</g>
<!-- Node32&#45;&gt;Node33 -->
<g id="edge52_Node000032_Node000033" class="edge">
<title>Node32&#45;&gt;Node33</title>
<g id="a_edge52_Node000032_Node000033"><a xlink:title=" ">
<path fill="none" stroke="#63b8ff" d="M396.5,-164.75C396.89,-157.8 397.45,-147.85 397.95,-139.13"/>
<polygon fill="#63b8ff" stroke="#63b8ff" points="401.44,-139.27 398.51,-129.09 394.45,-138.88 401.44,-139.27"/>
</a>
</g>
</g>
<!-- Node34&#45;&gt;Node23 -->
<g id="edge54_Node000034_Node000023" class="edge">
<title>Node34&#45;&gt;Node23</title>
<g id="a_edge54_Node000034_Node000023"><a xlink:title=" ">
<path fill="none" stroke="#63b8ff" d="M268.55,-164.66C271.63,-147.17 278.56,-107.8 282.7,-84.27"/>
<polygon fill="#63b8ff" stroke="#63b8ff" points="286.19,-84.61 284.48,-74.16 279.3,-83.4 286.19,-84.61"/>
</a>
</g>
</g>
<!-- Node34&#45;&gt;Node27 -->
<g id="edge55_Node000034_Node000027" class="edge">
<title>Node34&#45;&gt;Node27</title>
<g id="a_edge55_Node000034_Node000027"><a xlink:title=" ">
<path fill="none" stroke="#63b8ff" d="M253.83,-164.98C241.23,-156.84 222,-144.41 207.06,-134.76"/>
<polygon fill="#63b8ff" stroke="#63b8ff" points="208.71,-131.66 198.41,-129.17 204.91,-137.54 208.71,-131.66"/>
</a>
</g>
</g>
</g>
</svg>
