<?xml version="1.0" encoding="UTF-8" standalone="no"?>
<!DOCTYPE svg PUBLIC "-//W3C//DTD SVG 1.1//EN"
 "http://www.w3.org/Graphics/SVG/1.1/DTD/svg11.dtd">
<!-- Generated by graphviz version 2.43.0 (0)
 -->
<!-- Title: src/engine/courses/RoyalRaceway.h Pages: 1 -->
<svg width="1484pt" height="379pt"
 viewBox="0.00 0.00 1484.00 379.00" xmlns="http://www.w3.org/2000/svg" xmlns:xlink="http://www.w3.org/1999/xlink">
<g id="graph0" class="graph" transform="scale(1 1) rotate(0) translate(4 375)">
<title>src/engine/courses/RoyalRaceway.h</title>
<!-- Node1 -->
<g id="Node000001" class="node">
<title>Node1</title>
<g id="a_Node000001"><a xlink:title=" ">
<polygon fill="#999999" stroke="#666666" points="817.5,-371 710.5,-371 710.5,-341 817.5,-341 817.5,-371"/>
<text text-anchor="start" x="718.5" y="-359" font-family="Helvetica,sans-Serif" font-size="10.00">src/engine/courses</text>
<text text-anchor="middle" x="764" y="-348" font-family="Helvetica,sans-Serif" font-size="10.00">/RoyalRaceway.h</text>
</a>
</g>
</g>
<!-- Node2 -->
<g id="Node000002" class="node">
<title>Node2</title>
<g id="a_Node000002"><a xlink:title=" ">
<polygon fill="#e0e0e0" stroke="#999999" points="826,-19 746,-19 746,0 826,0 826,-19"/>
<text text-anchor="middle" x="786" y="-7" font-family="Helvetica,sans-Serif" font-size="10.00">libultraship.h</text>
</a>
</g>
</g>
<!-- Node1&#45;&gt;Node2 -->
<g id="edge1_Node000001_Node000002" class="edge">
<title>Node1&#45;&gt;Node2</title>
<g id="a_edge1_Node000001_Node000002"><a xlink:title=" ">
<path fill="none" stroke="#63b8ff" d="M817.71,-344.78C899.53,-327.65 1046,-290.18 1046,-241.5 1046,-241.5 1046,-241.5 1046,-124 1046,-33.45 911.9,-14.42 836.31,-10.89"/>
<polygon fill="#63b8ff" stroke="#63b8ff" points="836.18,-7.38 826.06,-10.49 835.91,-14.37 836.18,-7.38"/>
</a>
</g>
</g>
<!-- Node3 -->
<g id="Node000003" class="node">
<title>Node3</title>
<g id="a_Node000003"><a xlink:href="Course_8h.html" target="_top" xlink:title=" ">
<polygon fill="white" stroke="#666666" points="472.5,-305 413.5,-305 413.5,-286 472.5,-286 472.5,-305"/>
<text text-anchor="middle" x="443" y="-293" font-family="Helvetica,sans-Serif" font-size="10.00">Course.h</text>
</a>
</g>
</g>
<!-- Node1&#45;&gt;Node3 -->
<g id="edge2_Node000001_Node000003" class="edge">
<title>Node1&#45;&gt;Node3</title>
<g id="a_edge2_Node000001_Node000003"><a xlink:title=" ">
<path fill="none" stroke="#63b8ff" d="M710.27,-345.21C646.09,-333.51 540.21,-314.22 482.88,-303.77"/>
<polygon fill="#63b8ff" stroke="#63b8ff" points="483.22,-300.27 472.76,-301.92 481.97,-307.16 483.22,-300.27"/>
</a>
</g>
</g>
<!-- Node5 -->
<g id="Node000005" class="node">
<title>Node5</title>
<g id="a_Node000005"><a xlink:href="camera_8h.html" target="_top" xlink:title=" ">
<polygon fill="white" stroke="#666666" points="62,-250 0,-250 0,-231 62,-231 62,-250"/>
<text text-anchor="middle" x="31" y="-238" font-family="Helvetica,sans-Serif" font-size="10.00">camera.h</text>
</a>
</g>
</g>
<!-- Node1&#45;&gt;Node5 -->
<g id="edge61_Node000001_Node000005" class="edge">
<title>Node1&#45;&gt;Node5</title>
<g id="a_edge61_Node000001_Node000005"><a xlink:title=" ">
<path fill="none" stroke="#63b8ff" d="M710.2,-350.48C627.8,-343.19 465.54,-327.34 329,-305 236.42,-289.85 129.09,-265.22 71.88,-251.51"/>
<polygon fill="#63b8ff" stroke="#63b8ff" points="72.68,-248.1 62.13,-249.16 71.04,-254.9 72.68,-248.1"/>
</a>
</g>
</g>
<!-- Node7 -->
<g id="Node000007" class="node">
<title>Node7</title>
<g id="a_Node000007"><a xlink:href="course__offsets_8h.html" target="_top" xlink:title=" ">
<polygon fill="white" stroke="#666666" points="792,-195 696,-195 696,-176 792,-176 792,-195"/>
<text text-anchor="middle" x="744" y="-183" font-family="Helvetica,sans-Serif" font-size="10.00">course_offsets.h</text>
</a>
</g>
</g>
<!-- Node1&#45;&gt;Node7 -->
<g id="edge60_Node000001_Node000007" class="edge">
<title>Node1&#45;&gt;Node7</title>
<g id="a_edge60_Node000001_Node000007"><a xlink:title=" ">
<path fill="none" stroke="#63b8ff" d="M762.33,-340.92C758.74,-310.65 750.27,-239.35 746.23,-205.27"/>
<polygon fill="#63b8ff" stroke="#63b8ff" points="749.69,-204.77 745.04,-195.25 742.74,-205.6 749.69,-204.77"/>
</a>
</g>
</g>
<!-- Node13 -->
<g id="Node000013" class="node">
<title>Node13</title>
<g id="a_Node000013"><a xlink:href="src_2data_2some__data_8h.html" target="_top" xlink:title=" ">
<polygon fill="white" stroke="#666666" points="728,-250 624,-250 624,-231 728,-231 728,-250"/>
<text text-anchor="middle" x="676" y="-238" font-family="Helvetica,sans-Serif" font-size="10.00">data/some_data.h</text>
</a>
</g>
</g>
<!-- Node1&#45;&gt;Node13 -->
<g id="edge62_Node000001_Node000013" class="edge">
<title>Node1&#45;&gt;Node13</title>
<g id="a_edge62_Node000001_Node000013"><a xlink:title=" ">
<path fill="none" stroke="#63b8ff" d="M752.85,-340.63C736.6,-319.65 706.43,-280.75 689.12,-258.42"/>
<polygon fill="#63b8ff" stroke="#63b8ff" points="691.66,-255.99 682.77,-250.23 686.13,-260.28 691.66,-255.99"/>
</a>
</g>
</g>
<!-- Node15 -->
<g id="Node000015" class="node">
<title>Node15</title>
<g id="a_Node000015"><a xlink:href="objects_8h.html" target="_top" xlink:title=" ">
<polygon fill="white" stroke="#666666" points="504.5,-195 443.5,-195 443.5,-176 504.5,-176 504.5,-195"/>
<text text-anchor="middle" x="474" y="-183" font-family="Helvetica,sans-Serif" font-size="10.00">objects.h</text>
</a>
</g>
</g>
<!-- Node1&#45;&gt;Node15 -->
<g id="edge63_Node000001_Node000015" class="edge">
<title>Node1&#45;&gt;Node15</title>
<g id="a_edge63_Node000001_Node000015"><a xlink:title=" ">
<path fill="none" stroke="#63b8ff" d="M739.77,-340.92C684.94,-309.06 551.88,-231.75 497.62,-200.23"/>
<polygon fill="#63b8ff" stroke="#63b8ff" points="499.14,-197.06 488.74,-195.06 495.62,-203.11 499.14,-197.06"/>
</a>
</g>
</g>
<!-- Node20 -->
<g id="Node000020" class="node">
<title>Node20</title>
<g id="a_Node000020"><a xlink:href="path__spawn__metadata_8h.html" target="_top" xlink:title=" ">
<polygon fill="white" stroke="#666666" points="257.5,-250 120.5,-250 120.5,-231 257.5,-231 257.5,-250"/>
<text text-anchor="middle" x="189" y="-238" font-family="Helvetica,sans-Serif" font-size="10.00">path_spawn_metadata.h</text>
</a>
</g>
</g>
<!-- Node1&#45;&gt;Node20 -->
<g id="edge64_Node000001_Node000020" class="edge">
<title>Node1&#45;&gt;Node20</title>
<g id="a_edge64_Node000001_Node000020"><a xlink:title=" ">
<path fill="none" stroke="#63b8ff" d="M710.5,-350.09C639.8,-343.02 511.63,-328.23 404,-305 339.02,-290.97 265.04,-267.4 222.99,-253.26"/>
<polygon fill="#63b8ff" stroke="#63b8ff" points="224.11,-249.94 213.52,-250.05 221.87,-256.57 224.11,-249.94"/>
</a>
</g>
</g>
<!-- Node24 -->
<g id="Node000024" class="node">
<title>Node24</title>
<g id="a_Node000024"><a xlink:href="royal__raceway__vertices_8h.html" target="_top" xlink:title=" ">
<polygon fill="white" stroke="#666666" points="1196,-140 1074,-140 1074,-110 1196,-110 1196,-140"/>
<text text-anchor="start" x="1082" y="-128" font-family="Helvetica,sans-Serif" font-size="10.00">assets/royal_raceway</text>
<text text-anchor="middle" x="1135" y="-117" font-family="Helvetica,sans-Serif" font-size="10.00">_vertices.h</text>
</a>
</g>
</g>
<!-- Node1&#45;&gt;Node24 -->
<g id="edge48_Node000001_Node000024" class="edge">
<title>Node1&#45;&gt;Node24</title>
<g id="a_edge48_Node000001_Node000024"><a xlink:title=" ">
<path fill="none" stroke="#63b8ff" d="M817.68,-352.06C892.57,-346.96 1023.36,-334.07 1060,-305 1109.1,-266.05 1126.44,-189.2 1132.26,-150.09"/>
<polygon fill="#63b8ff" stroke="#63b8ff" points="1135.73,-150.5 1133.61,-140.12 1128.8,-149.56 1135.73,-150.5"/>
</a>
</g>
</g>
<!-- Node25 -->
<g id="Node000025" class="node">
<title>Node25</title>
<g id="a_Node000025"><a xlink:href="royal__raceway__displaylists_8h.html" target="_top" xlink:title=" ">
<polygon fill="white" stroke="#666666" points="1476,-140 1354,-140 1354,-110 1476,-110 1476,-140"/>
<text text-anchor="start" x="1362" y="-128" font-family="Helvetica,sans-Serif" font-size="10.00">assets/royal_raceway</text>
<text text-anchor="middle" x="1415" y="-117" font-family="Helvetica,sans-Serif" font-size="10.00">_displaylists.h</text>
</a>
</g>
</g>
<!-- Node1&#45;&gt;Node25 -->
<g id="edge52_Node000001_Node000025" class="edge">
<title>Node1&#45;&gt;Node25</title>
<g id="a_edge52_Node000001_Node000025"><a xlink:title=" ">
<path fill="none" stroke="#63b8ff" d="M817.7,-353.73C887.41,-350.64 1011.95,-340.18 1112,-305 1223.15,-265.91 1338.78,-184.14 1389.07,-146.17"/>
<polygon fill="#63b8ff" stroke="#63b8ff" points="1391.29,-148.88 1397.13,-140.04 1387.05,-143.31 1391.29,-148.88"/>
</a>
</g>
</g>
<!-- Node26 -->
<g id="Node000026" class="node">
<title>Node26</title>
<g id="a_Node000026"><a xlink:href="royal__raceway__data_8h.html" target="_top" xlink:title=" ">
<polygon fill="white" stroke="#666666" points="1336,-140 1214,-140 1214,-110 1336,-110 1336,-140"/>
<text text-anchor="start" x="1222" y="-128" font-family="Helvetica,sans-Serif" font-size="10.00">assets/royal_raceway</text>
<text text-anchor="middle" x="1275" y="-117" font-family="Helvetica,sans-Serif" font-size="10.00">_data.h</text>
</a>
</g>
</g>
<!-- Node1&#45;&gt;Node26 -->
<g id="edge56_Node000001_Node000026" class="edge">
<title>Node1&#45;&gt;Node26</title>
<g id="a_edge56_Node000001_Node000026"><a xlink:title=" ">
<path fill="none" stroke="#63b8ff" d="M817.7,-350.42C896.03,-343.09 1037.26,-327.26 1083,-305 1160.72,-267.18 1228.66,-187.15 1258.66,-148.21"/>
<polygon fill="#63b8ff" stroke="#63b8ff" points="1261.54,-150.2 1264.8,-140.12 1255.97,-145.97 1261.54,-150.2"/>
</a>
</g>
</g>
<!-- Node3&#45;&gt;Node2 -->
<g id="edge3_Node000003_Node000002" class="edge">
<title>Node3&#45;&gt;Node2</title>
<g id="a_edge3_Node000003_Node000002"><a xlink:title=" ">
<path fill="none" stroke="#63b8ff" d="M450.6,-285.82C458.25,-276.98 470.27,-262.8 480,-250 525.8,-189.73 519.33,-159.03 577,-110 628.38,-66.32 702.2,-37.15 746.97,-22.24"/>
<polygon fill="#63b8ff" stroke="#63b8ff" points="748.18,-25.52 756.61,-19.1 746.01,-18.87 748.18,-25.52"/>
</a>
</g>
</g>
<!-- Node4 -->
<g id="Node000004" class="node">
<title>Node4</title>
<g id="a_Node000004"><a xlink:href="CoreMath_8h.html" target="_top" xlink:title=" ">
<polygon fill="white" stroke="#666666" points="1017.5,-195 944.5,-195 944.5,-176 1017.5,-176 1017.5,-195"/>
<text text-anchor="middle" x="981" y="-183" font-family="Helvetica,sans-Serif" font-size="10.00">CoreMath.h</text>
</a>
</g>
</g>
<!-- Node3&#45;&gt;Node4 -->
<g id="edge4_Node000003_Node000004" class="edge">
<title>Node3&#45;&gt;Node4</title>
<g id="a_edge4_Node000003_Node000004"><a xlink:title=" ">
<path fill="none" stroke="#63b8ff" d="M472.81,-291.03C526.12,-284.6 641.17,-269.67 737,-250 810.46,-234.93 894.87,-211.59 942.68,-197.8"/>
<polygon fill="#63b8ff" stroke="#63b8ff" points="943.68,-201.15 952.31,-195.01 941.73,-194.43 943.68,-201.15"/>
</a>
</g>
</g>
<!-- Node3&#45;&gt;Node5 -->
<g id="edge6_Node000003_Node000005" class="edge">
<title>Node3&#45;&gt;Node5</title>
<g id="a_edge6_Node000003_Node000005"><a xlink:title=" ">
<path fill="none" stroke="#63b8ff" d="M413.11,-291.45C350.7,-284.94 202.03,-268.76 78,-250 76.06,-249.71 74.08,-249.4 72.09,-249.07"/>
<polygon fill="#63b8ff" stroke="#63b8ff" points="72.5,-245.59 62.05,-247.38 71.33,-252.49 72.5,-245.59"/>
</a>
</g>
</g>
<!-- Node6 -->
<g id="Node000006" class="node">
<title>Node6</title>
<g id="a_Node000006"><a xlink:href="common__structs_8h.html" target="_top" xlink:title=" ">
<polygon fill="white" stroke="#666666" points="277.5,-74 170.5,-74 170.5,-55 277.5,-55 277.5,-74"/>
<text text-anchor="middle" x="224" y="-62" font-family="Helvetica,sans-Serif" font-size="10.00">common_structs.h</text>
</a>
</g>
</g>
<!-- Node3&#45;&gt;Node6 -->
<g id="edge47_Node000003_Node000006" class="edge">
<title>Node3&#45;&gt;Node6</title>
<g id="a_edge47_Node000003_Node000006"><a xlink:title=" ">
<path fill="none" stroke="#63b8ff" d="M413.35,-290.03C383.82,-284.47 338.21,-272.78 305,-250 253.14,-214.43 236.98,-199.28 216,-140 209.5,-121.65 213.34,-99.29 217.64,-83.88"/>
<polygon fill="#63b8ff" stroke="#63b8ff" points="221.08,-84.64 220.72,-74.05 214.39,-82.55 221.08,-84.64"/>
</a>
</g>
</g>
<!-- Node3&#45;&gt;Node7 -->
<g id="edge10_Node000003_Node000007" class="edge">
<title>Node3&#45;&gt;Node7</title>
<g id="a_edge10_Node000003_Node000007"><a xlink:title=" ">
<path fill="none" stroke="#63b8ff" d="M469.92,-285.94C496.19,-277.42 537.16,-263.68 572,-250 591.45,-242.36 595.55,-238.64 615,-231 645.76,-218.92 681.3,-206.8 707.27,-198.26"/>
<polygon fill="#63b8ff" stroke="#63b8ff" points="708.66,-201.49 717.08,-195.06 706.49,-194.83 708.66,-201.49"/>
</a>
</g>
</g>
<!-- Node3&#45;&gt;Node13 -->
<g id="edge19_Node000003_Node000013" class="edge">
<title>Node3&#45;&gt;Node13</title>
<g id="a_edge19_Node000003_Node000013"><a xlink:title=" ">
<path fill="none" stroke="#63b8ff" d="M472.51,-287.79C511.75,-278.86 581.6,-262.97 628.36,-252.34"/>
<polygon fill="#63b8ff" stroke="#63b8ff" points="629.28,-255.72 638.26,-250.09 627.73,-248.89 629.28,-255.72"/>
</a>
</g>
</g>
<!-- Node16 -->
<g id="Node000016" class="node">
<title>Node16</title>
<g id="a_Node000016"><a xlink:href="defines_8h.html" target="_top" xlink:title=" ">
<polygon fill="white" stroke="#666666" points="375.5,-250 314.5,-250 314.5,-231 375.5,-231 375.5,-250"/>
<text text-anchor="middle" x="345" y="-238" font-family="Helvetica,sans-Serif" font-size="10.00">defines.h</text>
</a>
</g>
</g>
<!-- Node3&#45;&gt;Node16 -->
<g id="edge27_Node000003_Node000016" class="edge">
<title>Node3&#45;&gt;Node16</title>
<g id="a_edge27_Node000003_Node000016"><a xlink:title=" ">
<path fill="none" stroke="#63b8ff" d="M427.25,-285.98C411.77,-277.61 387.91,-264.7 369.86,-254.95"/>
<polygon fill="#63b8ff" stroke="#63b8ff" points="371.49,-251.85 361.03,-250.17 368.16,-258.01 371.49,-251.85"/>
</a>
</g>
</g>
<!-- Node17 -->
<g id="Node000017" class="node">
<title>Node17</title>
<g id="a_Node000017"><a xlink:href="bomb__kart_8h.html" target="_top" xlink:title=" ">
<polygon fill="white" stroke="#666666" points="375.5,-195 298.5,-195 298.5,-176 375.5,-176 375.5,-195"/>
<text text-anchor="middle" x="337" y="-183" font-family="Helvetica,sans-Serif" font-size="10.00">bomb_kart.h</text>
</a>
</g>
</g>
<!-- Node3&#45;&gt;Node17 -->
<g id="edge28_Node000003_Node000017" class="edge">
<title>Node3&#45;&gt;Node17</title>
<g id="a_edge28_Node000003_Node000017"><a xlink:title=" ">
<path fill="none" stroke="#63b8ff" d="M450.09,-285.95C459.91,-273.02 475.15,-248.17 463,-231 445.52,-206.29 413.13,-195.21 385.56,-190.28"/>
<polygon fill="#63b8ff" stroke="#63b8ff" points="386.09,-186.82 375.66,-188.73 385,-193.74 386.09,-186.82"/>
</a>
</g>
</g>
<!-- Node3&#45;&gt;Node20 -->
<g id="edge35_Node000003_Node000020" class="edge">
<title>Node3&#45;&gt;Node20</title>
<g id="a_edge35_Node000003_Node000020"><a xlink:title=" ">
<path fill="none" stroke="#63b8ff" d="M413.37,-288.32C370.79,-279.43 291.74,-262.94 239.76,-252.09"/>
<polygon fill="#63b8ff" stroke="#63b8ff" points="240.24,-248.62 229.74,-250 238.81,-255.47 240.24,-248.62"/>
</a>
</g>
</g>
<!-- Node21 -->
<g id="Node000021" class="node">
<title>Node21</title>
<g id="a_Node000021"><a xlink:href="waypoints_8h.html" target="_top" xlink:title=" ">
<polygon fill="white" stroke="#666666" points="132,-195 56,-195 56,-176 132,-176 132,-195"/>
<text text-anchor="middle" x="94" y="-183" font-family="Helvetica,sans-Serif" font-size="10.00">waypoints.h</text>
</a>
</g>
</g>
<!-- Node3&#45;&gt;Node21 -->
<g id="edge45_Node000003_Node000021" class="edge">
<title>Node3&#45;&gt;Node21</title>
<g id="a_edge45_Node000003_Node000021"><a xlink:title=" ">
<path fill="none" stroke="#63b8ff" d="M413.25,-294.59C340.37,-294.18 155.6,-289.22 111,-250 98.42,-238.94 94.68,-219.69 93.77,-205.28"/>
<polygon fill="#63b8ff" stroke="#63b8ff" points="97.27,-204.92 93.54,-195 90.27,-205.08 97.27,-204.92"/>
</a>
</g>
</g>
<!-- Node23 -->
<g id="Node000023" class="node">
<title>Node23</title>
<g id="a_Node000023"><a xlink:href="sounds_8h.html" target="_top" xlink:title=" ">
<polygon fill="white" stroke="#666666" points="454,-250 394,-250 394,-231 454,-231 454,-250"/>
<text text-anchor="middle" x="424" y="-238" font-family="Helvetica,sans-Serif" font-size="10.00">sounds.h</text>
</a>
</g>
</g>
<!-- Node3&#45;&gt;Node23 -->
<g id="edge46_Node000003_Node000023" class="edge">
<title>Node3&#45;&gt;Node23</title>
<g id="a_edge46_Node000003_Node000023"><a xlink:title=" ">
<path fill="none" stroke="#63b8ff" d="M439.86,-285.75C437.32,-278.65 433.64,-268.4 430.47,-259.56"/>
<polygon fill="#63b8ff" stroke="#63b8ff" points="433.75,-258.32 427.08,-250.09 427.16,-260.68 433.75,-258.32"/>
</a>
</g>
</g>
<!-- Node4&#45;&gt;Node2 -->
<g id="edge5_Node000004_Node000002" class="edge">
<title>Node4&#45;&gt;Node2</title>
<g id="a_edge5_Node000004_Node000002"><a xlink:title=" ">
<path fill="none" stroke="#63b8ff" d="M985.13,-175.75C995.18,-152.98 1018.09,-91.15 989,-55 970.2,-31.63 890.17,-19.84 836.39,-14.45"/>
<polygon fill="#63b8ff" stroke="#63b8ff" points="836.63,-10.96 826.35,-13.49 835.97,-17.93 836.63,-10.96"/>
</a>
</g>
</g>
<!-- Node5&#45;&gt;Node2 -->
<g id="edge7_Node000005_Node000002" class="edge">
<title>Node5&#45;&gt;Node2</title>
<g id="a_edge7_Node000005_Node000002"><a xlink:title=" ">
<path fill="none" stroke="#63b8ff" d="M30.52,-230.73C29.76,-207.93 30.85,-146.03 62,-110 94.92,-71.92 112.75,-69.35 161,-55 215.37,-38.83 595.99,-19.47 735.18,-12.85"/>
<polygon fill="#63b8ff" stroke="#63b8ff" points="735.73,-16.33 745.56,-12.36 735.4,-9.34 735.73,-16.33"/>
</a>
</g>
</g>
<!-- Node5&#45;&gt;Node6 -->
<g id="edge8_Node000005_Node000006" class="edge">
<title>Node5&#45;&gt;Node6</title>
<g id="a_edge8_Node000005_Node000006"><a xlink:title=" ">
<path fill="none" stroke="#63b8ff" d="M32.08,-230.92C33.88,-218.37 38.23,-194.49 47,-176 62.65,-142.99 66.55,-131.62 96,-110 117.67,-94.09 145.49,-83.52 169.66,-76.69"/>
<polygon fill="#63b8ff" stroke="#63b8ff" points="170.66,-80.04 179.42,-74.07 168.85,-73.28 170.66,-80.04"/>
</a>
</g>
</g>
<!-- Node6&#45;&gt;Node2 -->
<g id="edge9_Node000006_Node000002" class="edge">
<title>Node6&#45;&gt;Node2</title>
<g id="a_edge9_Node000006_Node000002"><a xlink:title=" ">
<path fill="none" stroke="#63b8ff" d="M277.63,-58.44C386.1,-48.21 630.15,-25.2 735.74,-15.24"/>
<polygon fill="#63b8ff" stroke="#63b8ff" points="736.19,-18.71 745.82,-14.29 735.53,-11.74 736.19,-18.71"/>
</a>
</g>
</g>
<!-- Node7&#45;&gt;Node2 -->
<g id="edge11_Node000007_Node000002" class="edge">
<title>Node7&#45;&gt;Node2</title>
<g id="a_edge11_Node000007_Node000002"><a xlink:title=" ">
<path fill="none" stroke="#63b8ff" d="M746.14,-175.63C752.68,-148.52 772.53,-66.32 781.5,-29.13"/>
<polygon fill="#63b8ff" stroke="#63b8ff" points="784.97,-29.69 783.91,-19.14 778.16,-28.04 784.97,-29.69"/>
</a>
</g>
</g>
<!-- Node8 -->
<g id="Node000008" class="node">
<title>Node8</title>
<g id="a_Node000008"><a xlink:title=" ">
<polygon fill="#e0e0e0" stroke="#999999" points="521,-19 431,-19 431,0 521,0 521,-19"/>
<text text-anchor="middle" x="476" y="-7" font-family="Helvetica,sans-Serif" font-size="10.00">libultra/types.h</text>
</a>
</g>
</g>
<!-- Node7&#45;&gt;Node8 -->
<g id="edge12_Node000007_Node000008" class="edge">
<title>Node7&#45;&gt;Node8</title>
<g id="a_edge12_Node000007_Node000008"><a xlink:title=" ">
<path fill="none" stroke="#63b8ff" d="M695.74,-183.97C624.33,-182.04 495.83,-173.83 467,-140 440.17,-108.51 456.44,-55.61 467.8,-28.18"/>
<polygon fill="#63b8ff" stroke="#63b8ff" points="471.01,-29.58 471.81,-19.01 464.59,-26.77 471.01,-29.58"/>
</a>
</g>
</g>
<!-- Node9 -->
<g id="Node000009" class="node">
<title>Node9</title>
<g id="a_Node000009"><a xlink:title=" ">
<polygon fill="#e0e0e0" stroke="#999999" points="980,-74 902,-74 902,-55 980,-55 980,-74"/>
<text text-anchor="middle" x="941" y="-62" font-family="Helvetica,sans-Serif" font-size="10.00">libultra/gbi.h</text>
</a>
</g>
</g>
<!-- Node7&#45;&gt;Node9 -->
<g id="edge13_Node000007_Node000009" class="edge">
<title>Node7&#45;&gt;Node9</title>
<g id="a_edge13_Node000007_Node000009"><a xlink:title=" ">
<path fill="none" stroke="#63b8ff" d="M748.49,-175.75C756.88,-160.23 776.47,-127.83 802,-110 828.74,-91.33 863.72,-80.19 891.9,-73.72"/>
<polygon fill="#63b8ff" stroke="#63b8ff" points="892.92,-77.08 901.95,-71.54 891.43,-70.24 892.92,-77.08"/>
</a>
</g>
</g>
<!-- Node10 -->
<g id="Node000010" class="node">
<title>Node10</title>
<g id="a_Node000010"><a xlink:href="other__textures_8h.html" target="_top" xlink:title=" ">
<polygon fill="white" stroke="#666666" points="941.5,-134.5 810.5,-134.5 810.5,-115.5 941.5,-115.5 941.5,-134.5"/>
<text text-anchor="middle" x="876" y="-122.5" font-family="Helvetica,sans-Serif" font-size="10.00">assets/other_textures.h</text>
</a>
</g>
</g>
<!-- Node7&#45;&gt;Node10 -->
<g id="edge14_Node000007_Node000010" class="edge">
<title>Node7&#45;&gt;Node10</title>
<g id="a_edge14_Node000007_Node000010"><a xlink:title=" ">
<path fill="none" stroke="#63b8ff" d="M763.19,-175.99C785.39,-166.16 822.12,-149.88 847.62,-138.58"/>
<polygon fill="#63b8ff" stroke="#63b8ff" points="849.06,-141.77 856.78,-134.52 846.22,-135.37 849.06,-141.77"/>
</a>
</g>
</g>
<!-- Node12 -->
<g id="Node000012" class="node">
<title>Node12</title>
<g id="a_Node000012"><a xlink:href="animation_8h.html" target="_top" xlink:title=" ">
<polygon fill="white" stroke="#666666" points="419.5,-134.5 344.5,-134.5 344.5,-115.5 419.5,-115.5 419.5,-134.5"/>
<text text-anchor="middle" x="382" y="-122.5" font-family="Helvetica,sans-Serif" font-size="10.00">animation.h</text>
</a>
</g>
</g>
<!-- Node7&#45;&gt;Node12 -->
<g id="edge17_Node000007_Node000012" class="edge">
<title>Node7&#45;&gt;Node12</title>
<g id="a_edge17_Node000007_Node000012"><a xlink:title=" ">
<path fill="none" stroke="#63b8ff" d="M695.89,-179.41C634.68,-172.53 525.87,-158.89 434,-140 429.83,-139.14 425.49,-138.15 421.19,-137.09"/>
<polygon fill="#63b8ff" stroke="#63b8ff" points="421.83,-133.64 411.28,-134.54 420.09,-140.42 421.83,-133.64"/>
</a>
</g>
</g>
<!-- Node10&#45;&gt;Node2 -->
<g id="edge15_Node000010_Node000002" class="edge">
<title>Node10&#45;&gt;Node2</title>
<g id="a_edge15_Node000010_Node000002"><a xlink:title=" ">
<path fill="none" stroke="#63b8ff" d="M869.24,-115.47C854.38,-96.74 818.69,-51.72 799.21,-27.16"/>
<polygon fill="#63b8ff" stroke="#63b8ff" points="801.8,-24.79 792.84,-19.13 796.31,-29.14 801.8,-24.79"/>
</a>
</g>
</g>
<!-- Node11 -->
<g id="Node000011" class="node">
<title>Node11</title>
<g id="a_Node000011"><a xlink:href="align__asset__macro_8h.html" target="_top" xlink:title=" ">
<polygon fill="white" stroke="#666666" points="1229.5,-74 1112.5,-74 1112.5,-55 1229.5,-55 1229.5,-74"/>
<text text-anchor="middle" x="1171" y="-62" font-family="Helvetica,sans-Serif" font-size="10.00">align_asset_macro.h</text>
</a>
</g>
</g>
<!-- Node10&#45;&gt;Node11 -->
<g id="edge16_Node000010_Node000011" class="edge">
<title>Node10&#45;&gt;Node11</title>
<g id="a_edge16_Node000010_Node000011"><a xlink:title=" ">
<path fill="none" stroke="#63b8ff" d="M918.9,-115.49C971.66,-105.03 1061.21,-87.27 1118.16,-75.98"/>
<polygon fill="#63b8ff" stroke="#63b8ff" points="1118.92,-79.4 1128.05,-74.02 1117.56,-72.53 1118.92,-79.4"/>
</a>
</g>
</g>
<!-- Node12&#45;&gt;Node6 -->
<g id="edge18_Node000012_Node000006" class="edge">
<title>Node12&#45;&gt;Node6</title>
<g id="a_edge18_Node000012_Node000006"><a xlink:title=" ">
<path fill="none" stroke="#63b8ff" d="M359.03,-115.49C332.11,-105.53 287.33,-88.95 256.77,-77.63"/>
<polygon fill="#63b8ff" stroke="#63b8ff" points="257.6,-74.21 247,-74.02 255.16,-80.77 257.6,-74.21"/>
</a>
</g>
</g>
<!-- Node13&#45;&gt;Node9 -->
<g id="edge20_Node000013_Node000009" class="edge">
<title>Node13&#45;&gt;Node9</title>
<g id="a_edge20_Node000013_Node000009"><a xlink:title=" ">
<path fill="none" stroke="#63b8ff" d="M717,-230.95C787.05,-215.38 924.81,-180.27 951,-140 961.97,-123.13 956.1,-99.55 949.69,-83.46"/>
<polygon fill="#63b8ff" stroke="#63b8ff" points="952.81,-81.86 945.57,-74.12 946.4,-84.69 952.81,-81.86"/>
</a>
</g>
</g>
<!-- Node13&#45;&gt;Node10 -->
<g id="edge23_Node000013_Node000010" class="edge">
<title>Node13&#45;&gt;Node10</title>
<g id="a_edge23_Node000013_Node000010"><a xlink:title=" ">
<path fill="none" stroke="#63b8ff" d="M711.63,-230.94C737.6,-223.74 772.99,-211.9 801,-195 824.77,-180.66 847.59,-157.97 861.68,-142.56"/>
<polygon fill="#63b8ff" stroke="#63b8ff" points="864.52,-144.63 868.56,-134.84 859.29,-139.97 864.52,-144.63"/>
</a>
</g>
</g>
<!-- Node14 -->
<g id="Node000014" class="node">
<title>Node14</title>
<g id="a_Node000014"><a xlink:href="spline_8h.html" target="_top" xlink:title=" ">
<polygon fill="white" stroke="#666666" points="326.5,-134.5 271.5,-134.5 271.5,-115.5 326.5,-115.5 326.5,-134.5"/>
<text text-anchor="middle" x="299" y="-122.5" font-family="Helvetica,sans-Serif" font-size="10.00">spline.h</text>
</a>
</g>
</g>
<!-- Node13&#45;&gt;Node14 -->
<g id="edge21_Node000013_Node000014" class="edge">
<title>Node13&#45;&gt;Node14</title>
<g id="a_edge21_Node000013_Node000014"><a xlink:title=" ">
<path fill="none" stroke="#63b8ff" d="M657.3,-230.99C627.37,-217.66 566.62,-191.74 513,-176 435.55,-153.27 412.45,-162.71 335,-140 333.07,-139.43 331.1,-138.81 329.12,-138.14"/>
<polygon fill="#63b8ff" stroke="#63b8ff" points="329.94,-134.72 319.35,-134.61 327.56,-141.3 329.94,-134.72"/>
</a>
</g>
</g>
<!-- Node13&#45;&gt;Node15 -->
<g id="edge24_Node000013_Node000015" class="edge">
<title>Node13&#45;&gt;Node15</title>
<g id="a_edge24_Node000013_Node000015"><a xlink:title=" ">
<path fill="none" stroke="#63b8ff" d="M643.55,-230.98C608.43,-221.77 552.38,-207.07 514.43,-197.11"/>
<polygon fill="#63b8ff" stroke="#63b8ff" points="515.28,-193.71 504.72,-194.56 513.5,-200.48 515.28,-193.71"/>
</a>
</g>
</g>
<!-- Node14&#45;&gt;Node6 -->
<g id="edge22_Node000014_Node000006" class="edge">
<title>Node14&#45;&gt;Node6</title>
<g id="a_edge22_Node000014_Node000006"><a xlink:title=" ">
<path fill="none" stroke="#63b8ff" d="M287.93,-115.37C276.19,-106.21 257.41,-91.56 243.24,-80.51"/>
<polygon fill="#63b8ff" stroke="#63b8ff" points="245.15,-77.56 235.11,-74.17 240.84,-83.08 245.15,-77.56"/>
</a>
</g>
</g>
<!-- Node15&#45;&gt;Node6 -->
<g id="edge26_Node000015_Node000006" class="edge">
<title>Node15&#45;&gt;Node6</title>
<g id="a_edge26_Node000015_Node000006"><a xlink:title=" ">
<path fill="none" stroke="#63b8ff" d="M443.43,-181.34C391.79,-175.48 290.15,-161.54 262,-140 243.93,-126.18 233.75,-101.37 228.56,-84.2"/>
<polygon fill="#63b8ff" stroke="#63b8ff" points="231.85,-82.94 225.85,-74.21 225.09,-84.78 231.85,-82.94"/>
</a>
</g>
</g>
<!-- Node15&#45;&gt;Node14 -->
<g id="edge25_Node000015_Node000014" class="edge">
<title>Node15&#45;&gt;Node14</title>
<g id="a_edge25_Node000015_Node000014"><a xlink:title=" ">
<path fill="none" stroke="#63b8ff" d="M445.61,-175.97C417.4,-167.36 372.98,-153.45 335,-140 333.35,-139.42 331.66,-138.8 329.96,-138.18"/>
<polygon fill="#63b8ff" stroke="#63b8ff" points="330.83,-134.77 320.24,-134.51 328.36,-141.32 330.83,-134.77"/>
</a>
</g>
</g>
<!-- Node17&#45;&gt;Node6 -->
<g id="edge29_Node000017_Node000006" class="edge">
<title>Node17&#45;&gt;Node6</title>
<g id="a_edge29_Node000017_Node000006"><a xlink:title=" ">
<path fill="none" stroke="#63b8ff" d="M298.4,-179.03C274.36,-173.47 245.04,-162.31 229,-140 217.44,-123.92 217.89,-100.51 220.14,-84.24"/>
<polygon fill="#63b8ff" stroke="#63b8ff" points="223.61,-84.74 221.86,-74.29 216.71,-83.55 223.61,-84.74"/>
</a>
</g>
</g>
<!-- Node18 -->
<g id="Node000018" class="node">
<title>Node18</title>
<g id="a_Node000018"><a xlink:href="mk64_8h.html" target="_top" xlink:title=" ">
<polygon fill="white" stroke="#666666" points="529.5,-134.5 476.5,-134.5 476.5,-115.5 529.5,-115.5 529.5,-134.5"/>
<text text-anchor="middle" x="503" y="-122.5" font-family="Helvetica,sans-Serif" font-size="10.00">mk64.h</text>
</a>
</g>
</g>
<!-- Node17&#45;&gt;Node18 -->
<g id="edge30_Node000017_Node000018" class="edge">
<title>Node17&#45;&gt;Node18</title>
<g id="a_edge30_Node000017_Node000018"><a xlink:title=" ">
<path fill="none" stroke="#63b8ff" d="M361.14,-175.99C389.54,-165.99 436.88,-149.3 468.99,-137.99"/>
<polygon fill="#63b8ff" stroke="#63b8ff" points="470.56,-141.14 478.83,-134.52 468.24,-134.54 470.56,-141.14"/>
</a>
</g>
</g>
<!-- Node18&#45;&gt;Node2 -->
<g id="edge31_Node000018_Node000002" class="edge">
<title>Node18&#45;&gt;Node2</title>
<g id="a_edge31_Node000018_Node000002"><a xlink:title=" ">
<path fill="none" stroke="#63b8ff" d="M510.29,-115.24C523.15,-100.39 551.42,-70.39 582,-55 630.76,-30.46 692.74,-19.39 735.52,-14.44"/>
<polygon fill="#63b8ff" stroke="#63b8ff" points="736.13,-17.89 745.69,-13.33 735.37,-10.93 736.13,-17.89"/>
</a>
</g>
</g>
<!-- Node18&#45;&gt;Node9 -->
<g id="edge34_Node000018_Node000009" class="edge">
<title>Node18&#45;&gt;Node9</title>
<g id="a_edge34_Node000018_Node000009"><a xlink:title=" ">
<path fill="none" stroke="#63b8ff" d="M529.64,-118.52C543.69,-115.75 561.24,-112.45 577,-110 689.04,-92.57 821.37,-77.85 891.53,-70.51"/>
<polygon fill="#63b8ff" stroke="#63b8ff" points="892.25,-73.96 901.83,-69.44 891.52,-66.99 892.25,-73.96"/>
</a>
</g>
</g>
<!-- Node19 -->
<g id="Node000019" class="node">
<title>Node19</title>
<g id="a_Node000019"><a xlink:href="string_8h.html" target="_top" xlink:title=" ">
<polygon fill="white" stroke="#666666" points="529.5,-74 476.5,-74 476.5,-55 529.5,-55 529.5,-74"/>
<text text-anchor="middle" x="503" y="-62" font-family="Helvetica,sans-Serif" font-size="10.00">string.h</text>
</a>
</g>
</g>
<!-- Node18&#45;&gt;Node19 -->
<g id="edge32_Node000018_Node000019" class="edge">
<title>Node18&#45;&gt;Node19</title>
<g id="a_edge32_Node000018_Node000019"><a xlink:title=" ">
<path fill="none" stroke="#63b8ff" d="M503,-115.37C503,-107.25 503,-94.81 503,-84.39"/>
<polygon fill="#63b8ff" stroke="#63b8ff" points="506.5,-84.17 503,-74.17 499.5,-84.17 506.5,-84.17"/>
</a>
</g>
</g>
<!-- Node19&#45;&gt;Node8 -->
<g id="edge33_Node000019_Node000008" class="edge">
<title>Node19&#45;&gt;Node8</title>
<g id="a_edge33_Node000019_Node000008"><a xlink:title=" ">
<path fill="none" stroke="#63b8ff" d="M498.54,-54.75C494.88,-47.57 489.59,-37.18 485.05,-28.27"/>
<polygon fill="#63b8ff" stroke="#63b8ff" points="488.03,-26.41 480.38,-19.09 481.8,-29.59 488.03,-26.41"/>
</a>
</g>
</g>
<!-- Node20&#45;&gt;Node6 -->
<g id="edge38_Node000020_Node000006" class="edge">
<title>Node20&#45;&gt;Node6</title>
<g id="a_edge38_Node000020_Node000006"><a xlink:title=" ">
<path fill="none" stroke="#63b8ff" d="M182.29,-230.8C166.5,-209.15 129.95,-151.65 153,-110 160.84,-95.83 175.29,-85.57 189.11,-78.5"/>
<polygon fill="#63b8ff" stroke="#63b8ff" points="190.92,-81.52 198.49,-74.1 187.95,-75.18 190.92,-81.52"/>
</a>
</g>
</g>
<!-- Node20&#45;&gt;Node17 -->
<g id="edge44_Node000020_Node000017" class="edge">
<title>Node20&#45;&gt;Node17</title>
<g id="a_edge44_Node000020_Node000017"><a xlink:title=" ">
<path fill="none" stroke="#63b8ff" d="M212.78,-230.98C237.23,-222.23 275.53,-208.51 303.15,-198.62"/>
<polygon fill="#63b8ff" stroke="#63b8ff" points="304.55,-201.84 312.79,-195.17 302.19,-195.25 304.55,-201.84"/>
</a>
</g>
</g>
<!-- Node20&#45;&gt;Node21 -->
<g id="edge36_Node000020_Node000021" class="edge">
<title>Node20&#45;&gt;Node21</title>
<g id="a_edge36_Node000020_Node000021"><a xlink:title=" ">
<path fill="none" stroke="#63b8ff" d="M173.74,-230.98C158.87,-222.69 136.02,-209.94 118.58,-200.22"/>
<polygon fill="#63b8ff" stroke="#63b8ff" points="119.98,-196.99 109.54,-195.17 116.57,-203.1 119.98,-196.99"/>
</a>
</g>
</g>
<!-- Node22 -->
<g id="Node000022" class="node">
<title>Node22</title>
<g id="a_Node000022"><a xlink:href="common__data_8h.html" target="_top" xlink:title=" ">
<polygon fill="white" stroke="#666666" points="716,-134.5 586,-134.5 586,-115.5 716,-115.5 716,-134.5"/>
<text text-anchor="middle" x="651" y="-122.5" font-family="Helvetica,sans-Serif" font-size="10.00">assets/common_data.h</text>
</a>
</g>
</g>
<!-- Node20&#45;&gt;Node22 -->
<g id="edge39_Node000020_Node000022" class="edge">
<title>Node20&#45;&gt;Node22</title>
<g id="a_edge39_Node000020_Node000022"><a xlink:title=" ">
<path fill="none" stroke="#63b8ff" d="M257.81,-232.71C338.39,-224.3 466.76,-209.31 513,-195 556.07,-181.67 602.17,-156.04 628.69,-140.05"/>
<polygon fill="#63b8ff" stroke="#63b8ff" points="630.83,-142.84 637.53,-134.63 627.17,-136.87 630.83,-142.84"/>
</a>
</g>
</g>
<!-- Node21&#45;&gt;Node6 -->
<g id="edge37_Node000021_Node000006" class="edge">
<title>Node21&#45;&gt;Node6</title>
<g id="a_edge37_Node000021_Node000006"><a xlink:title=" ">
<path fill="none" stroke="#63b8ff" d="M94.08,-176C94.66,-160.86 97.99,-129.04 115,-110 129.21,-94.09 149.95,-83.76 169.53,-77.1"/>
<polygon fill="#63b8ff" stroke="#63b8ff" points="170.83,-80.36 179.32,-74.03 168.73,-73.68 170.83,-80.36"/>
</a>
</g>
</g>
<!-- Node22&#45;&gt;Node2 -->
<g id="edge41_Node000022_Node000002" class="edge">
<title>Node22&#45;&gt;Node2</title>
<g id="a_edge41_Node000022_Node000002"><a xlink:title=" ">
<path fill="none" stroke="#63b8ff" d="M660.6,-115.36C675.35,-102.14 704.54,-76.22 730,-55 742.04,-44.96 755.83,-34 766.71,-25.47"/>
<polygon fill="#63b8ff" stroke="#63b8ff" points="768.99,-28.13 774.72,-19.21 764.69,-22.61 768.99,-28.13"/>
</a>
</g>
</g>
<!-- Node22&#45;&gt;Node6 -->
<g id="edge42_Node000022_Node000006" class="edge">
<title>Node22&#45;&gt;Node6</title>
<g id="a_edge42_Node000022_Node000006"><a xlink:title=" ">
<path fill="none" stroke="#63b8ff" d="M588.91,-115.49C508.5,-104.48 369.06,-85.37 287.82,-74.24"/>
<polygon fill="#63b8ff" stroke="#63b8ff" points="288.1,-70.75 277.72,-72.86 287.15,-77.68 288.1,-70.75"/>
</a>
</g>
</g>
<!-- Node22&#45;&gt;Node9 -->
<g id="edge40_Node000022_Node000009" class="edge">
<title>Node22&#45;&gt;Node9</title>
<g id="a_edge40_Node000022_Node000009"><a xlink:title=" ">
<path fill="none" stroke="#63b8ff" d="M693.17,-115.49C745.82,-104.87 835.73,-86.74 891.56,-75.47"/>
<polygon fill="#63b8ff" stroke="#63b8ff" points="892.46,-78.86 901.57,-73.45 891.08,-72 892.46,-78.86"/>
</a>
</g>
</g>
<!-- Node22&#45;&gt;Node11 -->
<g id="edge43_Node000022_Node000011" class="edge">
<title>Node22&#45;&gt;Node11</title>
<g id="a_edge43_Node000022_Node000011"><a xlink:title=" ">
<path fill="none" stroke="#63b8ff" d="M716.07,-116.68C814.74,-105.58 1001.36,-84.58 1102.19,-73.24"/>
<polygon fill="#63b8ff" stroke="#63b8ff" points="1102.73,-76.7 1112.27,-72.11 1101.94,-69.75 1102.73,-76.7"/>
</a>
</g>
</g>
<!-- Node24&#45;&gt;Node2 -->
<g id="edge49_Node000024_Node000002" class="edge">
<title>Node24&#45;&gt;Node2</title>
<g id="a_edge49_Node000024_Node000002"><a xlink:title=" ">
<path fill="none" stroke="#63b8ff" d="M1123.98,-109.75C1110.68,-93.65 1086.73,-67.99 1060,-55 987.77,-19.9 893.49,-11.64 836.46,-10.15"/>
<polygon fill="#63b8ff" stroke="#63b8ff" points="836.32,-6.65 826.26,-9.95 836.18,-13.65 836.32,-6.65"/>
</a>
</g>
</g>
<!-- Node24&#45;&gt;Node9 -->
<g id="edge50_Node000024_Node000009" class="edge">
<title>Node24&#45;&gt;Node9</title>
<g id="a_edge50_Node000024_Node000009"><a xlink:title=" ">
<path fill="none" stroke="#63b8ff" d="M1088.53,-109.99C1055.05,-99.89 1010.43,-86.44 979.06,-76.98"/>
<polygon fill="#63b8ff" stroke="#63b8ff" points="979.95,-73.59 969.37,-74.05 977.93,-80.29 979.95,-73.59"/>
</a>
</g>
</g>
<!-- Node24&#45;&gt;Node11 -->
<g id="edge51_Node000024_Node000011" class="edge">
<title>Node24&#45;&gt;Node11</title>
<g id="a_edge51_Node000024_Node000011"><a xlink:title=" ">
<path fill="none" stroke="#63b8ff" d="M1143.71,-109.84C1148.67,-101.78 1154.93,-91.62 1160.2,-83.06"/>
<polygon fill="#63b8ff" stroke="#63b8ff" points="1163.35,-84.62 1165.61,-74.27 1157.38,-80.95 1163.35,-84.62"/>
</a>
</g>
</g>
<!-- Node25&#45;&gt;Node2 -->
<g id="edge53_Node000025_Node000002" class="edge">
<title>Node25&#45;&gt;Node2</title>
<g id="a_edge53_Node000025_Node000002"><a xlink:title=" ">
<path fill="none" stroke="#63b8ff" d="M1390.32,-109.88C1360.66,-93.63 1308.88,-67.6 1261,-55 1110.14,-15.3 924.15,-9.93 836.38,-9.86"/>
<polygon fill="#63b8ff" stroke="#63b8ff" points="836.17,-6.36 826.17,-9.88 836.18,-13.36 836.17,-6.36"/>
</a>
</g>
</g>
<!-- Node25&#45;&gt;Node9 -->
<g id="edge54_Node000025_Node000009" class="edge">
<title>Node25&#45;&gt;Node9</title>
<g id="a_edge54_Node000025_Node000009"><a xlink:title=" ">
<path fill="none" stroke="#63b8ff" d="M1353.97,-111.47C1350.94,-110.95 1347.94,-110.45 1345,-110 1217.79,-90.31 1066.74,-76.09 990.41,-69.54"/>
<polygon fill="#63b8ff" stroke="#63b8ff" points="990.41,-66.02 980.15,-68.66 989.82,-73 990.41,-66.02"/>
</a>
</g>
</g>
<!-- Node25&#45;&gt;Node11 -->
<g id="edge55_Node000025_Node000011" class="edge">
<title>Node25&#45;&gt;Node11</title>
<g id="a_edge55_Node000025_Node000011"><a xlink:title=" ">
<path fill="none" stroke="#63b8ff" d="M1356.56,-109.99C1313.63,-99.7 1256.13,-85.91 1216.58,-76.43"/>
<polygon fill="#63b8ff" stroke="#63b8ff" points="1217.22,-72.98 1206.68,-74.05 1215.59,-79.79 1217.22,-72.98"/>
</a>
</g>
</g>
<!-- Node26&#45;&gt;Node2 -->
<g id="edge57_Node000026_Node000002" class="edge">
<title>Node26&#45;&gt;Node2</title>
<g id="a_edge57_Node000026_Node000002"><a xlink:title=" ">
<path fill="none" stroke="#63b8ff" d="M1271.91,-109.94C1267.55,-93.76 1257.92,-67.78 1239,-55 1206.21,-32.86 947.44,-18.12 836.36,-12.76"/>
<polygon fill="#63b8ff" stroke="#63b8ff" points="836.24,-9.25 826.09,-12.27 835.91,-16.24 836.24,-9.25"/>
</a>
</g>
</g>
<!-- Node26&#45;&gt;Node9 -->
<g id="edge58_Node000026_Node000009" class="edge">
<title>Node26&#45;&gt;Node9</title>
<g id="a_edge58_Node000026_Node000009"><a xlink:title=" ">
<path fill="none" stroke="#63b8ff" d="M1213.94,-111.67C1210.92,-111.1 1207.93,-110.54 1205,-110 1130.43,-96.26 1043.7,-81.96 990.59,-73.4"/>
<polygon fill="#63b8ff" stroke="#63b8ff" points="990.85,-69.9 980.43,-71.76 989.74,-76.81 990.85,-69.9"/>
</a>
</g>
</g>
<!-- Node26&#45;&gt;Node11 -->
<g id="edge59_Node000026_Node000011" class="edge">
<title>Node26&#45;&gt;Node11</title>
<g id="a_edge59_Node000026_Node000011"><a xlink:title=" ">
<path fill="none" stroke="#63b8ff" d="M1250.09,-109.99C1233.51,-100.66 1211.84,-88.47 1195.37,-79.21"/>
<polygon fill="#63b8ff" stroke="#63b8ff" points="1196.79,-75.99 1186.36,-74.14 1193.36,-82.09 1196.79,-75.99"/>
</a>
</g>
</g>
</g>
</svg>
