<?xml version="1.0" encoding="UTF-8" standalone="no"?>
<!DOCTYPE svg PUBLIC "-//W3C//DTD SVG 1.1//EN"
 "http://www.w3.org/Graphics/SVG/1.1/DTD/svg11.dtd">
<!-- Generated by graphviz version 2.43.0 (0)
 -->
<!-- Title: func_800B63F0 Pages: 1 -->
<svg width="386pt" height="193pt"
 viewBox="0.00 0.00 386.00 193.00" xmlns="http://www.w3.org/2000/svg" xmlns:xlink="http://www.w3.org/1999/xlink">
<g id="graph0" class="graph" transform="scale(1 1) rotate(0) translate(4 189)">
<title>func_800B63F0</title>
<!-- Node1 -->
<g id="Node000001" class="node">
<title>Node1</title>
<g id="a_Node000001"><a xlink:title=" ">
<polygon fill="#999999" stroke="#666666" points="92,-93 0,-93 0,-74 92,-74 92,-93"/>
<text text-anchor="middle" x="46" y="-81" font-family="Helvetica,sans-Serif" font-size="10.00">func_800B63F0</text>
</a>
</g>
</g>
<!-- Node2 -->
<g id="Node000002" class="node">
<title>Node2</title>
<g id="a_Node000002"><a xlink:href="replays_8c.html#a840e5bade4a5208ea6d23197838f41f1" target="_top" xlink:title=" ">
<polygon fill="white" stroke="#666666" points="235.5,-167 143.5,-167 143.5,-148 235.5,-148 235.5,-167"/>
<text text-anchor="middle" x="189.5" y="-155" font-family="Helvetica,sans-Serif" font-size="10.00">func_800051C4</text>
</a>
</g>
</g>
<!-- Node1&#45;&gt;Node2 -->
<g id="edge1_Node000001_Node000002" class="edge">
<title>Node1&#45;&gt;Node2</title>
<g id="a_edge1_Node000001_Node000002"><a xlink:title=" ">
<path fill="none" stroke="#63b8ff" d="M58.35,-93.1C73.4,-105.39 101.18,-126.64 128,-139.5 131.84,-141.34 135.9,-143.03 140.03,-144.59"/>
<polygon fill="#63b8ff" stroke="#63b8ff" points="139.14,-147.98 149.73,-147.95 141.43,-141.37 139.14,-147.98"/>
</a>
</g>
</g>
<!-- Node5 -->
<g id="Node000005" class="node">
<title>Node5</title>
<g id="a_Node000005"><a xlink:href="replays_8c.html#aedb1050835c582e17394a9c176bc2e78" target="_top" xlink:title=" ">
<polygon fill="white" stroke="#666666" points="235.5,-130 143.5,-130 143.5,-111 235.5,-111 235.5,-130"/>
<text text-anchor="middle" x="189.5" y="-118" font-family="Helvetica,sans-Serif" font-size="10.00">func_80005AE8</text>
</a>
</g>
</g>
<!-- Node1&#45;&gt;Node5 -->
<g id="edge4_Node000001_Node000005" class="edge">
<title>Node1&#45;&gt;Node5</title>
<g id="a_edge4_Node000001_Node000005"><a xlink:title=" ">
<path fill="none" stroke="#63b8ff" d="M83.44,-93.03C101.21,-97.67 122.79,-103.32 141.76,-108.28"/>
<polygon fill="#63b8ff" stroke="#63b8ff" points="141.13,-111.73 151.69,-110.88 142.9,-104.96 141.13,-111.73"/>
</a>
</g>
</g>
<!-- Node6 -->
<g id="Node000006" class="node">
<title>Node6</title>
<g id="a_Node000006"><a xlink:href="save_8c.html#aeacc8cc95db5e9aedd84f9b05ee916cb" target="_top" xlink:title=" ">
<polygon fill="white" stroke="#666666" points="235.5,-93 143.5,-93 143.5,-74 235.5,-74 235.5,-93"/>
<text text-anchor="middle" x="189.5" y="-81" font-family="Helvetica,sans-Serif" font-size="10.00">func_800B60E8</text>
</a>
</g>
</g>
<!-- Node1&#45;&gt;Node6 -->
<g id="edge5_Node000001_Node000006" class="edge">
<title>Node1&#45;&gt;Node6</title>
<g id="a_edge5_Node000001_Node000006"><a xlink:title=" ">
<path fill="none" stroke="#63b8ff" d="M92.16,-83.5C105.18,-83.5 119.54,-83.5 133.1,-83.5"/>
<polygon fill="#63b8ff" stroke="#63b8ff" points="133.28,-87 143.28,-83.5 133.28,-80 133.28,-87"/>
</a>
</g>
</g>
<!-- Node7 -->
<g id="Node000007" class="node">
<title>Node7</title>
<g id="a_Node000007"><a xlink:href="Game_8cpp.html#ae131a8b6906df364a68be4307caab750" target="_top" xlink:title=" ">
<polygon fill="white" stroke="#666666" points="251,-56 128,-56 128,-37 251,-37 251,-56"/>
<text text-anchor="middle" x="189.5" y="-44" font-family="Helvetica,sans-Serif" font-size="10.00">GetCupCursorPosition</text>
</a>
</g>
</g>
<!-- Node1&#45;&gt;Node7 -->
<g id="edge6_Node000001_Node000007" class="edge">
<title>Node1&#45;&gt;Node7</title>
<g id="a_edge6_Node000001_Node000007"><a xlink:title=" ">
<path fill="none" stroke="#63b8ff" d="M83.44,-73.97C101.21,-69.33 122.79,-63.68 141.76,-58.72"/>
<polygon fill="#63b8ff" stroke="#63b8ff" points="142.9,-62.04 151.69,-56.12 141.13,-55.27 142.9,-62.04"/>
</a>
</g>
</g>
<!-- Node8 -->
<g id="Node000008" class="node">
<title>Node8</title>
<g id="a_Node000008"><a xlink:href="Game_8cpp.html#a0499ce6f7f2cd1b56b0674de6c0cc813" target="_top" xlink:title=" ">
<polygon fill="white" stroke="#666666" points="229.5,-19 149.5,-19 149.5,0 229.5,0 229.5,-19"/>
<text text-anchor="middle" x="189.5" y="-7" font-family="Helvetica,sans-Serif" font-size="10.00">GetCupIndex</text>
</a>
</g>
</g>
<!-- Node1&#45;&gt;Node8 -->
<g id="edge7_Node000001_Node000008" class="edge">
<title>Node1&#45;&gt;Node8</title>
<g id="a_edge7_Node000001_Node000008"><a xlink:title=" ">
<path fill="none" stroke="#63b8ff" d="M58.67,-73.94C73.84,-61.92 101.53,-41.3 128,-28.5 132.59,-26.28 137.5,-24.24 142.46,-22.39"/>
<polygon fill="#63b8ff" stroke="#63b8ff" points="143.71,-25.66 152,-19.07 141.41,-19.05 143.71,-25.66"/>
</a>
</g>
</g>
<!-- Node3 -->
<g id="Node000003" class="node">
<title>Node3</title>
<g id="a_Node000003"><a xlink:href="stubs_8c.html#a394b1e63b5fdc419adfcd1bcbfef1678" target="_top" xlink:title=" ">
<polygon fill="white" stroke="#666666" points="378,-185 287,-185 287,-166 378,-166 378,-185"/>
<text text-anchor="middle" x="332.5" y="-173" font-family="Helvetica,sans-Serif" font-size="10.00">func_80040174</text>
</a>
</g>
</g>
<!-- Node2&#45;&gt;Node3 -->
<g id="edge2_Node000002_Node000003" class="edge">
<title>Node2&#45;&gt;Node3</title>
<g id="a_edge2_Node000002_Node000003"><a xlink:title=" ">
<path fill="none" stroke="#63b8ff" d="M235.5,-163.24C248.6,-164.92 263.06,-166.76 276.7,-168.5"/>
<polygon fill="#63b8ff" stroke="#63b8ff" points="276.56,-172.02 286.93,-169.81 277.45,-165.07 276.56,-172.02"/>
</a>
</g>
</g>
<!-- Node4 -->
<g id="Node000004" class="node">
<title>Node4</title>
<g id="a_Node000004"><a xlink:href="stubs_8c.html#a5e0b1e38e7d5d3a80dcc0c6d99b79f9e" target="_top" xlink:title=" ">
<polygon fill="white" stroke="#666666" points="371,-148 294,-148 294,-129 371,-129 371,-148"/>
<text text-anchor="middle" x="332.5" y="-136" font-family="Helvetica,sans-Serif" font-size="10.00">mio0encode</text>
</a>
</g>
</g>
<!-- Node2&#45;&gt;Node4 -->
<g id="edge3_Node000002_Node000004" class="edge">
<title>Node2&#45;&gt;Node4</title>
<g id="a_edge3_Node000002_Node000004"><a xlink:title=" ">
<path fill="none" stroke="#63b8ff" d="M235.5,-151.44C250.84,-149.37 268.04,-147.05 283.6,-144.96"/>
<polygon fill="#63b8ff" stroke="#63b8ff" points="284.1,-148.42 293.55,-143.61 283.17,-141.48 284.1,-148.42"/>
</a>
</g>
</g>
</g>
</svg>
