<?xml version="1.0" encoding="UTF-8" standalone="no"?>
<!DOCTYPE svg PUBLIC "-//W3C//DTD SVG 1.1//EN"
 "http://www.w3.org/Graphics/SVG/1.1/DTD/svg11.dtd">
<!-- Generated by graphviz version 2.43.0 (0)
 -->
<!-- Title: src/engine/actors/Ship.h Pages: 1 -->
<svg width="1219pt" height="148pt"
 viewBox="0.00 0.00 1218.50 148.00" xmlns="http://www.w3.org/2000/svg" xmlns:xlink="http://www.w3.org/1999/xlink">
<g id="graph0" class="graph" transform="scale(1 1) rotate(0) translate(4 144)">
<title>src/engine/actors/Ship.h</title>
<!-- Node1 -->
<g id="Node000001" class="node">
<title>Node1</title>
<g id="a_Node000001"><a xlink:title=" ">
<polygon fill="#999999" stroke="#666666" points="642.5,-140 509.5,-140 509.5,-121 642.5,-121 642.5,-140"/>
<text text-anchor="middle" x="576" y="-128" font-family="Helvetica,sans-Serif" font-size="10.00">src/engine/actors/Ship.h</text>
</a>
</g>
</g>
<!-- Node2 -->
<g id="Node000002" class="node">
<title>Node2</title>
<g id="a_Node000002"><a xlink:href="AllActors_8h.html" target="_top" xlink:title=" ">
<polygon fill="white" stroke="#666666" points="144,-79.5 22,-79.5 22,-60.5 144,-60.5 144,-79.5"/>
<text text-anchor="middle" x="83" y="-67.5" font-family="Helvetica,sans-Serif" font-size="10.00">src/engine/AllActors.h</text>
</a>
</g>
</g>
<!-- Node1&#45;&gt;Node2 -->
<g id="edge1_Node000001_Node000002" class="edge">
<title>Node1&#45;&gt;Node2</title>
<g id="a_edge1_Node000001_Node000002"><a xlink:title=" ">
<path fill="none" stroke="#63b8ff" d="M499.37,-123.59C414.43,-116.53 273.48,-103.35 153,-85 143.08,-83.49 132.42,-81.53 122.5,-79.56"/>
<polygon fill="#63b8ff" stroke="#63b8ff" points="499.2,-127.08 509.45,-124.42 499.77,-120.11 499.2,-127.08"/>
</a>
</g>
</g>
<!-- Node4 -->
<g id="Node000004" class="node">
<title>Node4</title>
<g id="a_Node000004"><a xlink:href="Ship_8cpp.html" target="_top" xlink:title=" ">
<polygon fill="white" stroke="#666666" points="306,-79.5 162,-79.5 162,-60.5 306,-60.5 306,-79.5"/>
<text text-anchor="middle" x="234" y="-67.5" font-family="Helvetica,sans-Serif" font-size="10.00">src/engine/actors/Ship.cpp</text>
</a>
</g>
</g>
<!-- Node1&#45;&gt;Node4 -->
<g id="edge3_Node000001_Node000004" class="edge">
<title>Node1&#45;&gt;Node4</title>
<g id="a_edge3_Node000001_Node000004"><a xlink:title=" ">
<path fill="none" stroke="#63b8ff" d="M516.03,-119.24C450.1,-107.96 345.37,-90.05 283.79,-79.52"/>
<polygon fill="#63b8ff" stroke="#63b8ff" points="515.82,-122.76 526.27,-120.99 517,-115.86 515.82,-122.76"/>
</a>
</g>
</g>
<!-- Node5 -->
<g id="Node000005" class="node">
<title>Node5</title>
<g id="a_Node000005"><a xlink:href="Harbour_8cpp.html" target="_top" xlink:title=" ">
<polygon fill="white" stroke="#666666" points="431.5,-85 324.5,-85 324.5,-55 431.5,-55 431.5,-85"/>
<text text-anchor="start" x="332.5" y="-73" font-family="Helvetica,sans-Serif" font-size="10.00">src/engine/courses</text>
<text text-anchor="middle" x="378" y="-62" font-family="Helvetica,sans-Serif" font-size="10.00">/Harbour.cpp</text>
</a>
</g>
</g>
<!-- Node1&#45;&gt;Node5 -->
<g id="edge4_Node000001_Node000005" class="edge">
<title>Node1&#45;&gt;Node5</title>
<g id="a_edge4_Node000001_Node000005"><a xlink:title=" ">
<path fill="none" stroke="#63b8ff" d="M537.34,-118.08C505.36,-108.63 459.82,-95.17 425.6,-85.06"/>
<polygon fill="#63b8ff" stroke="#63b8ff" points="536.63,-121.52 547.21,-120.99 538.61,-114.8 536.63,-121.52"/>
</a>
</g>
</g>
<!-- Node6 -->
<g id="Node000006" class="node">
<title>Node6</title>
<g id="a_Node000006"><a xlink:href="TestCourse_8cpp.html" target="_top" xlink:title=" ">
<polygon fill="white" stroke="#666666" points="556.5,-85 449.5,-85 449.5,-55 556.5,-55 556.5,-85"/>
<text text-anchor="start" x="457.5" y="-73" font-family="Helvetica,sans-Serif" font-size="10.00">src/engine/courses</text>
<text text-anchor="middle" x="503" y="-62" font-family="Helvetica,sans-Serif" font-size="10.00">/TestCourse.cpp</text>
</a>
</g>
</g>
<!-- Node1&#45;&gt;Node6 -->
<g id="edge5_Node000001_Node000006" class="edge">
<title>Node1&#45;&gt;Node6</title>
<g id="a_edge5_Node000001_Node000006"><a xlink:title=" ">
<path fill="none" stroke="#63b8ff" d="M557.28,-114.5C545.99,-105.45 531.7,-94 520.61,-85.11"/>
<polygon fill="#63b8ff" stroke="#63b8ff" points="555.24,-117.35 565.23,-120.87 559.61,-111.88 555.24,-117.35"/>
</a>
</g>
</g>
<!-- Node7 -->
<g id="Node000007" class="node">
<title>Node7</title>
<g id="a_Node000007"><a xlink:href="Editor_8cpp.html" target="_top" xlink:title=" ">
<polygon fill="white" stroke="#666666" points="723.5,-79.5 574.5,-79.5 574.5,-60.5 723.5,-60.5 723.5,-79.5"/>
<text text-anchor="middle" x="649" y="-67.5" font-family="Helvetica,sans-Serif" font-size="10.00">src/engine/editor/Editor.cpp</text>
</a>
</g>
</g>
<!-- Node1&#45;&gt;Node7 -->
<g id="edge6_Node000001_Node000007" class="edge">
<title>Node1&#45;&gt;Node7</title>
<g id="a_edge6_Node000001_Node000007"><a xlink:title=" ">
<path fill="none" stroke="#63b8ff" d="M594.67,-114.54C608.46,-103.49 626.74,-88.84 638.18,-79.67"/>
<polygon fill="#63b8ff" stroke="#63b8ff" points="592.39,-111.88 586.77,-120.87 596.76,-117.35 592.39,-111.88"/>
</a>
</g>
</g>
<!-- Node8 -->
<g id="Node000008" class="node">
<title>Node8</title>
<g id="a_Node000008"><a xlink:href="Gizmo_8cpp.html" target="_top" xlink:title=" ">
<polygon fill="white" stroke="#666666" points="894.5,-79.5 741.5,-79.5 741.5,-60.5 894.5,-60.5 894.5,-79.5"/>
<text text-anchor="middle" x="818" y="-67.5" font-family="Helvetica,sans-Serif" font-size="10.00">src/engine/editor/Gizmo.cpp</text>
</a>
</g>
</g>
<!-- Node1&#45;&gt;Node8 -->
<g id="edge7_Node000001_Node000008" class="edge">
<title>Node1&#45;&gt;Node8</title>
<g id="a_edge7_Node000001_Node000008"><a xlink:title=" ">
<path fill="none" stroke="#63b8ff" d="M621.05,-118.61C667.82,-107.3 740,-89.85 782.77,-79.52"/>
<polygon fill="#63b8ff" stroke="#63b8ff" points="620.09,-115.24 611.19,-120.99 621.73,-122.05 620.09,-115.24"/>
</a>
</g>
</g>
<!-- Node9 -->
<g id="Node000009" class="node">
<title>Node9</title>
<g id="a_Node000009"><a xlink:href="Light_8cpp.html" target="_top" xlink:title=" ">
<polygon fill="white" stroke="#666666" points="1059,-79.5 913,-79.5 913,-60.5 1059,-60.5 1059,-79.5"/>
<text text-anchor="middle" x="986" y="-67.5" font-family="Helvetica,sans-Serif" font-size="10.00">src/engine/editor/Light.cpp</text>
</a>
</g>
</g>
<!-- Node1&#45;&gt;Node9 -->
<g id="edge8_Node000001_Node000009" class="edge">
<title>Node1&#45;&gt;Node9</title>
<g id="a_edge8_Node000001_Node000009"><a xlink:title=" ">
<path fill="none" stroke="#63b8ff" d="M652.67,-119.85C719.21,-111.3 818.09,-98.16 904,-85 914.85,-83.34 926.48,-81.43 937.48,-79.57"/>
<polygon fill="#63b8ff" stroke="#63b8ff" points="652.16,-116.39 642.69,-121.13 653.05,-123.33 652.16,-116.39"/>
</a>
</g>
</g>
<!-- Node10 -->
<g id="Node000010" class="node">
<title>Node10</title>
<g id="a_Node000010"><a xlink:href="ObjectPicker_8cpp.html" target="_top" xlink:title=" ">
<polygon fill="white" stroke="#666666" points="1210.5,-85 1077.5,-85 1077.5,-55 1210.5,-55 1210.5,-85"/>
<text text-anchor="start" x="1085.5" y="-73" font-family="Helvetica,sans-Serif" font-size="10.00">src/engine/editor/Object</text>
<text text-anchor="middle" x="1144" y="-62" font-family="Helvetica,sans-Serif" font-size="10.00">Picker.cpp</text>
</a>
</g>
</g>
<!-- Node1&#45;&gt;Node10 -->
<g id="edge9_Node000001_Node000010" class="edge">
<title>Node1&#45;&gt;Node10</title>
<g id="a_edge9_Node000001_Node000010"><a xlink:title=" ">
<path fill="none" stroke="#63b8ff" d="M652.68,-124.76C749.68,-118.26 921.72,-105.05 1068,-85 1071.06,-84.58 1074.18,-84.12 1077.33,-83.64"/>
<polygon fill="#63b8ff" stroke="#63b8ff" points="652.41,-121.27 642.67,-125.42 652.88,-128.25 652.41,-121.27"/>
</a>
</g>
</g>
<!-- Node3 -->
<g id="Node000003" class="node">
<title>Node3</title>
<g id="a_Node000003"><a xlink:href="ContentBrowser_8cpp.html" target="_top" xlink:title=" ">
<polygon fill="white" stroke="#666666" points="166,-19 0,-19 0,0 166,0 166,-19"/>
<text text-anchor="middle" x="83" y="-7" font-family="Helvetica,sans-Serif" font-size="10.00">src/port/ui/ContentBrowser.cpp</text>
</a>
</g>
</g>
<!-- Node2&#45;&gt;Node3 -->
<g id="edge2_Node000002_Node000003" class="edge">
<title>Node2&#45;&gt;Node3</title>
<g id="a_edge2_Node000002_Node000003"><a xlink:title=" ">
<path fill="none" stroke="#63b8ff" d="M83,-50.16C83,-39.74 83,-27.3 83,-19.17"/>
<polygon fill="#63b8ff" stroke="#63b8ff" points="79.5,-50.37 83,-60.37 86.5,-50.37 79.5,-50.37"/>
</a>
</g>
</g>
</g>
</svg>
