<?xml version="1.0" encoding="UTF-8" standalone="no"?>
<!DOCTYPE svg PUBLIC "-//W3C//DTD SVG 1.1//EN"
 "http://www.w3.org/Graphics/SVG/1.1/DTD/svg11.dtd">
<!-- Generated by graphviz version 2.43.0 (0)
 -->
<!-- Title: spawn_players_gp_two_player Pages: 1 -->
<svg width="1154pt" height="444pt"
 viewBox="0.00 0.00 1154.00 444.00" xmlns="http://www.w3.org/2000/svg" xmlns:xlink="http://www.w3.org/1999/xlink">
<g id="graph0" class="graph" transform="scale(1 1) rotate(0) translate(4 440)">
<title>spawn_players_gp_two_player</title>
<!-- Node1 -->
<g id="Node000001" class="node">
<title>Node1</title>
<g id="a_Node000001"><a xlink:title=" ">
<polygon fill="#999999" stroke="#666666" points="130,-322.5 0,-322.5 0,-292.5 130,-292.5 130,-322.5"/>
<text text-anchor="start" x="8" y="-310.5" font-family="Helvetica,sans-Serif" font-size="10.00">spawn_players_gp_two</text>
<text text-anchor="middle" x="65" y="-299.5" font-family="Helvetica,sans-Serif" font-size="10.00">_player</text>
</a>
</g>
</g>
<!-- Node2 -->
<g id="Node000002" class="node">
<title>Node2</title>
<g id="a_Node000002"><a xlink:href="spawn__players_8c.html#a1ef01690d08edebb46104bed8651c847" target="_top" xlink:title=" ">
<polygon fill="white" stroke="#666666" points="258.5,-392 166.5,-392 166.5,-373 258.5,-373 258.5,-392"/>
<text text-anchor="middle" x="212.5" y="-380" font-family="Helvetica,sans-Serif" font-size="10.00">func_80039AE4</text>
</a>
</g>
</g>
<!-- Node1&#45;&gt;Node2 -->
<g id="edge1_Node000001_Node000002" class="edge">
<title>Node1&#45;&gt;Node2</title>
<g id="a_edge1_Node000001_Node000002"><a xlink:title=" ">
<path fill="none" stroke="#63b8ff" d="M90.14,-322.54C110.08,-334.65 139.34,-351.71 166,-364.5 169.16,-366.02 172.48,-367.51 175.83,-368.95"/>
<polygon fill="#63b8ff" stroke="#63b8ff" points="174.66,-372.26 185.24,-372.84 177.34,-365.79 174.66,-372.26"/>
</a>
</g>
</g>
<!-- Node3 -->
<g id="Node000003" class="node">
<title>Node3</title>
<g id="a_Node000003"><a xlink:href="spawn__players_8c.html#aaf1f89a8f58a74d28fb1481e50c2f790" target="_top" xlink:title=" ">
<polygon fill="white" stroke="#666666" points="259,-355 166,-355 166,-336 259,-336 259,-355"/>
<text text-anchor="middle" x="212.5" y="-343" font-family="Helvetica,sans-Serif" font-size="10.00">func_80039DA4</text>
</a>
</g>
</g>
<!-- Node1&#45;&gt;Node3 -->
<g id="edge2_Node000001_Node000003" class="edge">
<title>Node1&#45;&gt;Node3</title>
<g id="a_edge2_Node000001_Node000003"><a xlink:title=" ">
<path fill="none" stroke="#63b8ff" d="M123.51,-322.52C137.3,-326.12 151.87,-329.93 165.09,-333.38"/>
<polygon fill="#63b8ff" stroke="#63b8ff" points="164.35,-336.8 174.91,-335.94 166.12,-330.03 164.35,-336.8"/>
</a>
</g>
</g>
<!-- Node4 -->
<g id="Node000004" class="node">
<title>Node4</title>
<g id="a_Node000004"><a xlink:href="Game_8cpp.html#ae131a8b6906df364a68be4307caab750" target="_top" xlink:title=" ">
<polygon fill="white" stroke="#666666" points="425,-345 302,-345 302,-326 425,-326 425,-345"/>
<text text-anchor="middle" x="363.5" y="-333" font-family="Helvetica,sans-Serif" font-size="10.00">GetCupCursorPosition</text>
</a>
</g>
</g>
<!-- Node1&#45;&gt;Node4 -->
<g id="edge4_Node000001_Node000004" class="edge">
<title>Node1&#45;&gt;Node4</title>
<g id="a_edge4_Node000001_Node000004"><a xlink:title=" ">
<path fill="none" stroke="#63b8ff" d="M130.34,-313.58C177.88,-318.07 242.59,-324.18 291.62,-328.81"/>
<polygon fill="#63b8ff" stroke="#63b8ff" points="291.55,-332.31 301.83,-329.77 292.2,-325.35 291.55,-332.31"/>
</a>
</g>
</g>
<!-- Node5 -->
<g id="Node000005" class="node">
<title>Node5</title>
<g id="a_Node000005"><a xlink:href="math__util_8c.html#a151b63b8adf9af7e4054b3b84bd226dc" target="_top" xlink:title=" ">
<polygon fill="white" stroke="#666666" points="248.5,-279 176.5,-279 176.5,-260 248.5,-260 248.5,-279"/>
<text text-anchor="middle" x="212.5" y="-267" font-family="Helvetica,sans-Serif" font-size="10.00">random_int</text>
</a>
</g>
</g>
<!-- Node1&#45;&gt;Node5 -->
<g id="edge5_Node000001_Node000005" class="edge">
<title>Node1&#45;&gt;Node5</title>
<g id="a_edge5_Node000001_Node000005"><a xlink:title=" ">
<path fill="none" stroke="#63b8ff" d="M123.51,-292.48C137.68,-288.78 152.67,-284.86 166.18,-281.34"/>
<polygon fill="#63b8ff" stroke="#63b8ff" points="167.39,-284.64 176.19,-278.72 165.63,-277.86 167.39,-284.64"/>
</a>
</g>
</g>
<!-- Node7 -->
<g id="Node000007" class="node">
<title>Node7</title>
<g id="a_Node000007"><a xlink:href="spawn__players_8c.html#a43c7f2d844178603dc415f549283e97c" target="_top" xlink:title=" ">
<polygon fill="white" stroke="#666666" points="254.5,-176 170.5,-176 170.5,-157 254.5,-157 254.5,-176"/>
<text text-anchor="middle" x="212.5" y="-164" font-family="Helvetica,sans-Serif" font-size="10.00">spawn_player</text>
</a>
</g>
</g>
<!-- Node1&#45;&gt;Node7 -->
<g id="edge7_Node000001_Node000007" class="edge">
<title>Node1&#45;&gt;Node7</title>
<g id="a_edge7_Node000001_Node000007"><a xlink:title=" ">
<path fill="none" stroke="#63b8ff" d="M81.57,-292.41C109.05,-265.79 165.91,-210.68 194.42,-183.05"/>
<polygon fill="#63b8ff" stroke="#63b8ff" points="196.92,-185.5 201.66,-176.03 192.05,-180.48 196.92,-185.5"/>
</a>
</g>
</g>
<!-- Node3&#45;&gt;Node4 -->
<g id="edge3_Node000003_Node000004" class="edge">
<title>Node3&#45;&gt;Node4</title>
<g id="a_edge3_Node000003_Node000004"><a xlink:title=" ">
<path fill="none" stroke="#63b8ff" d="M259.01,-342.45C269.37,-341.75 280.6,-341 291.73,-340.25"/>
<polygon fill="#63b8ff" stroke="#63b8ff" points="292.15,-343.73 301.89,-339.57 291.68,-336.75 292.15,-343.73"/>
</a>
</g>
</g>
<!-- Node6 -->
<g id="Node000006" class="node">
<title>Node6</title>
<g id="a_Node000006"><a xlink:href="math__util_8c.html#a062850863585005ad1d0a75d9ff70693" target="_top" xlink:title=" ">
<polygon fill="white" stroke="#666666" points="402,-289 325,-289 325,-270 402,-270 402,-289"/>
<text text-anchor="middle" x="363.5" y="-277" font-family="Helvetica,sans-Serif" font-size="10.00">random_u16</text>
</a>
</g>
</g>
<!-- Node5&#45;&gt;Node6 -->
<g id="edge6_Node000005_Node000006" class="edge">
<title>Node5&#45;&gt;Node6</title>
<g id="a_edge6_Node000005_Node000006"><a xlink:title=" ">
<path fill="none" stroke="#63b8ff" d="M248.81,-271.87C268.48,-273.19 293.25,-274.85 314.64,-276.29"/>
<polygon fill="#63b8ff" stroke="#63b8ff" points="314.63,-279.79 324.84,-276.97 315.09,-272.81 314.63,-279.79"/>
</a>
</g>
</g>
<!-- Node8 -->
<g id="Node000008" class="node">
<title>Node8</title>
<g id="a_Node000008"><a xlink:href="math__util_8c.html#ad8cb26171252640b6d9398122af8173a" target="_top" xlink:title=" ">
<polygon fill="white" stroke="#666666" points="596.5,-306.5 477.5,-306.5 477.5,-276.5 596.5,-276.5 596.5,-306.5"/>
<text text-anchor="start" x="485.5" y="-294.5" font-family="Helvetica,sans-Serif" font-size="10.00">calculate_orientation</text>
<text text-anchor="middle" x="537" y="-283.5" font-family="Helvetica,sans-Serif" font-size="10.00">_matrix</text>
</a>
</g>
</g>
<!-- Node7&#45;&gt;Node8 -->
<g id="edge8_Node000007_Node000008" class="edge">
<title>Node7&#45;&gt;Node8</title>
<g id="a_edge8_Node000007_Node000008"><a xlink:title=" ">
<path fill="none" stroke="#63b8ff" d="M224.91,-176.14C240.03,-188.48 267.97,-209.79 295,-222.5 352.29,-249.45 371.14,-244.06 432,-261.5 445.59,-265.39 460.18,-269.59 474,-273.58"/>
<polygon fill="#63b8ff" stroke="#63b8ff" points="473.32,-277.02 483.9,-276.43 475.26,-270.3 473.32,-277.02"/>
</a>
</g>
</g>
<!-- Node19 -->
<g id="Node000019" class="node">
<title>Node19</title>
<g id="a_Node000019"><a xlink:href="code__80057C60_8c.html#a4d111aaf9c9ecb0d617dc5b672298222" target="_top" xlink:title=" ">
<polygon fill="white" stroke="#666666" points="410,-176 317,-176 317,-157 410,-157 410,-176"/>
<text text-anchor="middle" x="363.5" y="-164" font-family="Helvetica,sans-Serif" font-size="10.00">func_8005D6C0</text>
</a>
</g>
</g>
<!-- Node7&#45;&gt;Node19 -->
<g id="edge22_Node000007_Node000019" class="edge">
<title>Node7&#45;&gt;Node19</title>
<g id="a_edge22_Node000007_Node000019"><a xlink:title=" ">
<path fill="none" stroke="#63b8ff" d="M254.61,-166.5C270.59,-166.5 289.15,-166.5 306.33,-166.5"/>
<polygon fill="#63b8ff" stroke="#63b8ff" points="306.81,-170 316.81,-166.5 306.81,-163 306.81,-170"/>
</a>
</g>
</g>
<!-- Node20 -->
<g id="Node000020" class="node">
<title>Node20</title>
<g id="a_Node000020"><a xlink:href="code__80057C60_8c.html#ae5997041f5f751f2bd9428983c0a77c1" target="_top" xlink:title=" ">
<polygon fill="white" stroke="#666666" points="409.5,-213 317.5,-213 317.5,-194 409.5,-194 409.5,-213"/>
<text text-anchor="middle" x="363.5" y="-201" font-family="Helvetica,sans-Serif" font-size="10.00">func_8006B7E4</text>
</a>
</g>
</g>
<!-- Node7&#45;&gt;Node20 -->
<g id="edge23_Node000007_Node000020" class="edge">
<title>Node7&#45;&gt;Node20</title>
<g id="a_edge23_Node000007_Node000020"><a xlink:title=" ">
<path fill="none" stroke="#63b8ff" d="M251.87,-176.03C270.83,-180.74 293.9,-186.47 314.06,-191.47"/>
<polygon fill="#63b8ff" stroke="#63b8ff" points="313.45,-194.93 324,-193.94 315.14,-188.13 313.45,-194.93"/>
</a>
</g>
</g>
<!-- Node23 -->
<g id="Node000023" class="node">
<title>Node23</title>
<g id="a_Node000023"><a xlink:href="code__80057C60_8c.html#a28d7556493fb759c2581d2e6aad9be25" target="_top" xlink:title=" ">
<polygon fill="white" stroke="#666666" points="409.5,-139 317.5,-139 317.5,-120 409.5,-120 409.5,-139"/>
<text text-anchor="middle" x="363.5" y="-127" font-family="Helvetica,sans-Serif" font-size="10.00">func_8006B87C</text>
</a>
</g>
</g>
<!-- Node7&#45;&gt;Node23 -->
<g id="edge28_Node000007_Node000023" class="edge">
<title>Node7&#45;&gt;Node23</title>
<g id="a_edge28_Node000007_Node000023"><a xlink:title=" ">
<path fill="none" stroke="#63b8ff" d="M251.87,-156.97C270.83,-152.26 293.9,-146.53 314.06,-141.53"/>
<polygon fill="#63b8ff" stroke="#63b8ff" points="315.14,-144.87 324,-139.06 313.45,-138.07 315.14,-144.87"/>
</a>
</g>
</g>
<!-- Node24 -->
<g id="Node000024" class="node">
<title>Node24</title>
<g id="a_Node000024"><a xlink:href="render__courses_8c.html#a37ee937c815f25140e16f2ae6c528a73" target="_top" xlink:title=" ">
<polygon fill="white" stroke="#666666" points="409.5,-102 317.5,-102 317.5,-83 409.5,-83 409.5,-102"/>
<text text-anchor="middle" x="363.5" y="-90" font-family="Helvetica,sans-Serif" font-size="10.00">func_80295BF8</text>
</a>
</g>
</g>
<!-- Node7&#45;&gt;Node24 -->
<g id="edge29_Node000007_Node000024" class="edge">
<title>Node7&#45;&gt;Node24</title>
<g id="a_edge29_Node000007_Node000024"><a xlink:title=" ">
<path fill="none" stroke="#63b8ff" d="M225.2,-156.82C240.41,-144.67 268.21,-123.92 295,-111.5 300.04,-109.16 305.43,-107.06 310.88,-105.17"/>
<polygon fill="#63b8ff" stroke="#63b8ff" points="312.25,-108.41 320.7,-102.02 310.11,-101.74 312.25,-108.41"/>
</a>
</g>
</g>
<!-- Node27 -->
<g id="Node000027" class="node">
<title>Node27</title>
<g id="a_Node000027"><a xlink:href="collision_8c.html#ad95e9ed2051529d5edee26109fa07427" target="_top" xlink:title=" ">
<polygon fill="white" stroke="#666666" points="432,-62 295,-62 295,-43 432,-43 432,-62"/>
<text text-anchor="middle" x="363.5" y="-50" font-family="Helvetica,sans-Serif" font-size="10.00">spawn_actor_on_surface</text>
</a>
</g>
</g>
<!-- Node7&#45;&gt;Node27 -->
<g id="edge32_Node000007_Node000027" class="edge">
<title>Node7&#45;&gt;Node27</title>
<g id="a_edge32_Node000007_Node000027"><a xlink:title=" ">
<path fill="none" stroke="#63b8ff" d="M219.43,-156.92C231.43,-138.33 260.38,-97.2 295,-74.5 300.21,-71.08 305.99,-68.16 311.92,-65.67"/>
<polygon fill="#63b8ff" stroke="#63b8ff" points="313.19,-68.93 321.29,-62.09 310.7,-62.39 313.19,-68.93"/>
</a>
</g>
</g>
<!-- Node9 -->
<g id="Node000009" class="node">
<title>Node9</title>
<g id="a_Node000009"><a xlink:href="math__util_8c.html#ab9faf7f44e869c2270678250306a9546" target="_top" xlink:title=" ">
<polygon fill="white" stroke="#666666" points="772,-263.5 668,-263.5 668,-233.5 772,-233.5 772,-263.5"/>
<text text-anchor="start" x="676" y="-251.5" font-family="Helvetica,sans-Serif" font-size="10.00">calculate_rotation</text>
<text text-anchor="middle" x="720" y="-240.5" font-family="Helvetica,sans-Serif" font-size="10.00">_matrix</text>
</a>
</g>
</g>
<!-- Node8&#45;&gt;Node9 -->
<g id="edge9_Node000008_Node000009" class="edge">
<title>Node8&#45;&gt;Node9</title>
<g id="a_edge9_Node000008_Node000009"><a xlink:title=" ">
<path fill="none" stroke="#63b8ff" d="M596.77,-277.54C616.37,-272.88 638.25,-267.68 658.02,-262.99"/>
<polygon fill="#63b8ff" stroke="#63b8ff" points="658.91,-266.37 667.83,-260.66 657.3,-259.56 658.91,-266.37"/>
</a>
</g>
</g>
<!-- Node10 -->
<g id="Node000010" class="node">
<title>Node10</title>
<g id="a_Node000010"><a xlink:href="math__util_8c.html#ae69cbf5c8d4b3b0dba2d7b4d4673689f" target="_top" xlink:title=" ">
<polygon fill="white" stroke="#666666" points="907,-215 869,-215 869,-196 907,-196 907,-215"/>
<text text-anchor="middle" x="888" y="-203" font-family="Helvetica,sans-Serif" font-size="10.00">coss</text>
</a>
</g>
</g>
<!-- Node8&#45;&gt;Node10 -->
<g id="edge17_Node000008_Node000010" class="edge">
<title>Node8&#45;&gt;Node10</title>
<g id="a_edge17_Node000008_Node000010"><a xlink:title=" ">
<path fill="none" stroke="#63b8ff" d="M555.35,-276.41C574.92,-260.37 608.41,-235.81 642,-224.5 717.05,-199.23 812.07,-200.61 858.65,-203.29"/>
<polygon fill="#63b8ff" stroke="#63b8ff" points="858.67,-206.8 868.88,-203.94 859.12,-199.81 858.67,-206.8"/>
</a>
</g>
</g>
<!-- Node11 -->
<g id="Node000011" class="node">
<title>Node11</title>
<g id="a_Node000011"><a xlink:href="math__util_8c.html#a19ed3bd78fd2d3e2bd0a29f6caf48545" target="_top" xlink:title=" ">
<polygon fill="white" stroke="#666666" points="906,-258 870,-258 870,-239 906,-239 906,-258"/>
<text text-anchor="middle" x="888" y="-246" font-family="Helvetica,sans-Serif" font-size="10.00">sins</text>
</a>
</g>
</g>
<!-- Node8&#45;&gt;Node11 -->
<g id="edge20_Node000008_Node000011" class="edge">
<title>Node8&#45;&gt;Node11</title>
<g id="a_edge20_Node000008_Node000011"><a xlink:title=" ">
<path fill="none" stroke="#63b8ff" d="M596.73,-290.39C649.67,-288.64 729.51,-284.13 798,-272.5 819.23,-268.89 842.74,-262.45 860.26,-257.14"/>
<polygon fill="#63b8ff" stroke="#63b8ff" points="861.31,-260.48 869.82,-254.18 859.23,-253.8 861.31,-260.48"/>
</a>
</g>
</g>
<!-- Node12 -->
<g id="Node000012" class="node">
<title>Node12</title>
<g id="a_Node000012"><a xlink:href="math__util_8c.html#af524d0a35bc0c97564ca6c9cb6aae60f" target="_top" xlink:title=" ">
<polygon fill="white" stroke="#666666" points="793,-377 647,-377 647,-358 793,-358 793,-377"/>
<text text-anchor="middle" x="720" y="-365" font-family="Helvetica,sans-Serif" font-size="10.00">calculate_vector_angle_xy</text>
</a>
</g>
</g>
<!-- Node8&#45;&gt;Node12 -->
<g id="edge12_Node000008_Node000012" class="edge">
<title>Node8&#45;&gt;Node12</title>
<g id="a_edge12_Node000008_Node000012"><a xlink:title=" ">
<path fill="none" stroke="#63b8ff" d="M565.25,-306.65C585.91,-317.75 615.22,-332.72 642,-343.5 652.34,-347.67 663.7,-351.56 674.44,-354.95"/>
<polygon fill="#63b8ff" stroke="#63b8ff" points="673.5,-358.32 684.08,-357.92 675.56,-351.63 673.5,-358.32"/>
</a>
</g>
</g>
<!-- Node16 -->
<g id="Node000016" class="node">
<title>Node16</title>
<g id="a_Node000016"><a xlink:href="math_8h.html#a37bde043e94a6f074c78f10518fb5d99" target="_top" xlink:title=" ">
<polygon fill="white" stroke="#666666" points="907.5,-339 868.5,-339 868.5,-320 907.5,-320 907.5,-339"/>
<text text-anchor="middle" x="888" y="-327" font-family="Helvetica,sans-Serif" font-size="10.00">sqrtf</text>
</a>
</g>
</g>
<!-- Node8&#45;&gt;Node16 -->
<g id="edge21_Node000008_Node000016" class="edge">
<title>Node8&#45;&gt;Node16</title>
<g id="a_edge21_Node000008_Node000016"><a xlink:title=" ">
<path fill="none" stroke="#63b8ff" d="M596.53,-299.76C611.35,-301.74 627.25,-303.79 642,-305.5 720.01,-314.57 812.27,-322.98 858.12,-327.01"/>
<polygon fill="#63b8ff" stroke="#63b8ff" points="857.96,-330.51 868.23,-327.89 858.57,-323.54 857.96,-330.51"/>
</a>
</g>
</g>
<!-- Node17 -->
<g id="Node000017" class="node">
<title>Node17</title>
<g id="a_Node000017"><a xlink:href="FrameInterpolation_8cpp.html#a370937c591d27758600d740e2881e7cf" target="_top" xlink:title=" ">
<polygon fill="white" stroke="#666666" points="798,-436 642,-436 642,-395 798,-395 798,-436"/>
<text text-anchor="start" x="650" y="-424" font-family="Helvetica,sans-Serif" font-size="10.00">FrameInterpolation</text>
<text text-anchor="start" x="650" y="-413" font-family="Helvetica,sans-Serif" font-size="10.00">_RecordCalculateOrientation</text>
<text text-anchor="middle" x="720" y="-402" font-family="Helvetica,sans-Serif" font-size="10.00">Matrix</text>
</a>
</g>
</g>
<!-- Node8&#45;&gt;Node17 -->
<g id="edge18_Node000008_Node000017" class="edge">
<title>Node8&#45;&gt;Node17</title>
<g id="a_edge18_Node000008_Node000017"><a xlink:title=" ">
<path fill="none" stroke="#63b8ff" d="M551.06,-306.59C569.51,-327.12 605.1,-363.87 642,-386.5 644.18,-387.84 646.44,-389.13 648.75,-390.38"/>
<polygon fill="#63b8ff" stroke="#63b8ff" points="647.35,-393.6 657.86,-394.97 650.5,-387.35 647.35,-393.6"/>
</a>
</g>
</g>
<!-- Node9&#45;&gt;Node10 -->
<g id="edge10_Node000009_Node000010" class="edge">
<title>Node9&#45;&gt;Node10</title>
<g id="a_edge10_Node000009_Node000010"><a xlink:title=" ">
<path fill="none" stroke="#63b8ff" d="M772.16,-235.25C800.71,-227.85 835.18,-218.92 858.86,-212.79"/>
<polygon fill="#63b8ff" stroke="#63b8ff" points="859.8,-216.16 868.61,-210.26 858.05,-209.38 859.8,-216.16"/>
</a>
</g>
</g>
<!-- Node9&#45;&gt;Node11 -->
<g id="edge11_Node000009_Node000011" class="edge">
<title>Node9&#45;&gt;Node11</title>
<g id="a_edge11_Node000009_Node000011"><a xlink:title=" ">
<path fill="none" stroke="#63b8ff" d="M772.16,-248.5C801.07,-248.5 836.06,-248.5 859.77,-248.5"/>
<polygon fill="#63b8ff" stroke="#63b8ff" points="859.8,-252 869.8,-248.5 859.8,-245 859.8,-252"/>
</a>
</g>
</g>
<!-- Node13 -->
<g id="Node000013" class="node">
<title>Node13</title>
<g id="a_Node000013"><a xlink:href="math__util_8c.html#ae5ccdf2ee48e06c8a0bced3f3a00f582" target="_top" xlink:title=" ">
<polygon fill="white" stroke="#666666" points="914.5,-377 861.5,-377 861.5,-358 914.5,-358 914.5,-377"/>
<text text-anchor="middle" x="888" y="-365" font-family="Helvetica,sans-Serif" font-size="10.00">_atan2f</text>
</a>
</g>
</g>
<!-- Node12&#45;&gt;Node13 -->
<g id="edge13_Node000012_Node000013" class="edge">
<title>Node12&#45;&gt;Node13</title>
<g id="a_edge13_Node000012_Node000013"><a xlink:title=" ">
<path fill="none" stroke="#63b8ff" d="M793.33,-367.5C813.44,-367.5 834.41,-367.5 851.39,-367.5"/>
<polygon fill="#63b8ff" stroke="#63b8ff" points="851.41,-371 861.41,-367.5 851.41,-364 851.41,-371"/>
</a>
</g>
</g>
<!-- Node12&#45;&gt;Node16 -->
<g id="edge16_Node000012_Node000016" class="edge">
<title>Node12&#45;&gt;Node16</title>
<g id="a_edge16_Node000012_Node000016"><a xlink:title=" ">
<path fill="none" stroke="#63b8ff" d="M762.89,-357.91C792.6,-351.11 831.72,-342.15 858.03,-336.13"/>
<polygon fill="#63b8ff" stroke="#63b8ff" points="859.15,-339.47 868.12,-333.82 857.59,-332.64 859.15,-339.47"/>
</a>
</g>
</g>
<!-- Node14 -->
<g id="Node000014" class="node">
<title>Node14</title>
<g id="a_Node000014"><a xlink:href="math__util_8c.html#aaa39a297477f56051975259f4bddd829" target="_top" xlink:title=" ">
<polygon fill="white" stroke="#666666" points="1028,-377 978,-377 978,-358 1028,-358 1028,-377"/>
<text text-anchor="middle" x="1003" y="-365" font-family="Helvetica,sans-Serif" font-size="10.00">atan2s</text>
</a>
</g>
</g>
<!-- Node13&#45;&gt;Node14 -->
<g id="edge14_Node000013_Node000014" class="edge">
<title>Node13&#45;&gt;Node14</title>
<g id="a_edge14_Node000013_Node000014"><a xlink:title=" ">
<path fill="none" stroke="#63b8ff" d="M914.64,-367.5C930.28,-367.5 950.47,-367.5 967.5,-367.5"/>
<polygon fill="#63b8ff" stroke="#63b8ff" points="967.62,-371 977.62,-367.5 967.62,-364 967.62,-371"/>
</a>
</g>
</g>
<!-- Node15 -->
<g id="Node000015" class="node">
<title>Node15</title>
<g id="a_Node000015"><a xlink:href="math__util_8c.html#a0273b0ea0783a06996c28669a7438ed9" target="_top" xlink:title=" ">
<polygon fill="white" stroke="#666666" points="1146,-377 1064,-377 1064,-358 1146,-358 1146,-377"/>
<text text-anchor="middle" x="1105" y="-365" font-family="Helvetica,sans-Serif" font-size="10.00">atan2_lookup</text>
</a>
</g>
</g>
<!-- Node14&#45;&gt;Node15 -->
<g id="edge15_Node000014_Node000015" class="edge">
<title>Node14&#45;&gt;Node15</title>
<g id="a_edge15_Node000014_Node000015"><a xlink:title=" ">
<path fill="none" stroke="#63b8ff" d="M1028.21,-367.5C1035.85,-367.5 1044.6,-367.5 1053.38,-367.5"/>
<polygon fill="#63b8ff" stroke="#63b8ff" points="1053.63,-371 1063.63,-367.5 1053.63,-364 1053.63,-371"/>
</a>
</g>
</g>
<!-- Node18 -->
<g id="Node000018" class="node">
<title>Node18</title>
<g id="a_Node000018"><a xlink:href="FrameInterpolation_8cpp.html#a02c7ac5342a4d376edee38f312b480bf" target="_top" xlink:title=" ">
<polygon fill="white" stroke="#666666" points="942,-425 834,-425 834,-406 942,-406 942,-425"/>
<text text-anchor="middle" x="888" y="-413" font-family="Helvetica,sans-Serif" font-size="10.00">check_if_recording</text>
</a>
</g>
</g>
<!-- Node17&#45;&gt;Node18 -->
<g id="edge19_Node000017_Node000018" class="edge">
<title>Node17&#45;&gt;Node18</title>
<g id="a_edge19_Node000017_Node000018"><a xlink:title=" ">
<path fill="none" stroke="#63b8ff" d="M798.17,-415.5C806.72,-415.5 815.35,-415.5 823.69,-415.5"/>
<polygon fill="#63b8ff" stroke="#63b8ff" points="823.71,-419 833.71,-415.5 823.71,-412 823.71,-419"/>
</a>
</g>
</g>
<!-- Node21 -->
<g id="Node000021" class="node">
<title>Node21</title>
<g id="a_Node000021"><a xlink:href="code__80057C60_8c.html#a21a2e4c659f3534853c75ae5dbf05d22" target="_top" xlink:title=" ">
<polygon fill="white" stroke="#666666" points="583,-195 491,-195 491,-176 583,-176 583,-195"/>
<text text-anchor="middle" x="537" y="-183" font-family="Helvetica,sans-Serif" font-size="10.00">func_8006A50C</text>
</a>
</g>
</g>
<!-- Node20&#45;&gt;Node21 -->
<g id="edge24_Node000020_Node000021" class="edge">
<title>Node20&#45;&gt;Node21</title>
<g id="a_edge24_Node000020_Node000021"><a xlink:title=" ">
<path fill="none" stroke="#63b8ff" d="M409.56,-198.77C431.43,-196.48 457.9,-193.7 480.96,-191.28"/>
<polygon fill="#63b8ff" stroke="#63b8ff" points="481.36,-194.75 490.94,-190.23 480.63,-187.79 481.36,-194.75"/>
</a>
</g>
</g>
<!-- Node22 -->
<g id="Node000022" class="node">
<title>Node22</title>
<g id="a_Node000022"><a xlink:href="code__80057C60_8c.html#a156481baa44e5305c016e2902a91bbb1" target="_top" xlink:title=" ">
<polygon fill="white" stroke="#666666" points="766,-177 674,-177 674,-158 766,-158 766,-177"/>
<text text-anchor="middle" x="720" y="-165" font-family="Helvetica,sans-Serif" font-size="10.00">func_80062B18</text>
</a>
</g>
</g>
<!-- Node21&#45;&gt;Node22 -->
<g id="edge25_Node000021_Node000022" class="edge">
<title>Node21&#45;&gt;Node22</title>
<g id="a_edge25_Node000021_Node000022"><a xlink:title=" ">
<path fill="none" stroke="#63b8ff" d="M583.21,-181C607.61,-178.58 637.93,-175.56 663.73,-173"/>
<polygon fill="#63b8ff" stroke="#63b8ff" points="664.14,-176.47 673.74,-172 663.44,-169.51 664.14,-176.47"/>
</a>
</g>
</g>
<!-- Node22&#45;&gt;Node10 -->
<g id="edge26_Node000022_Node000010" class="edge">
<title>Node22&#45;&gt;Node10</title>
<g id="a_edge26_Node000022_Node000010"><a xlink:title=" ">
<path fill="none" stroke="#63b8ff" d="M762.89,-177.09C792.94,-183.97 832.61,-193.05 858.92,-199.07"/>
<polygon fill="#63b8ff" stroke="#63b8ff" points="858.45,-202.55 868.98,-201.37 860.01,-195.73 858.45,-202.55"/>
</a>
</g>
</g>
<!-- Node22&#45;&gt;Node11 -->
<g id="edge27_Node000022_Node000011" class="edge">
<title>Node22&#45;&gt;Node11</title>
<g id="a_edge27_Node000022_Node000011"><a xlink:title=" ">
<path fill="none" stroke="#63b8ff" d="M739.28,-177.02C761.53,-188.53 800.3,-208.38 834,-224.5 842.61,-228.62 852.08,-232.96 860.6,-236.81"/>
<polygon fill="#63b8ff" stroke="#63b8ff" points="859.17,-240 869.73,-240.9 862.04,-233.62 859.17,-240"/>
</a>
</g>
</g>
<!-- Node25 -->
<g id="Node000025" class="node">
<title>Node25</title>
<g id="a_Node000025"><a xlink:href="collision_8c.html#ad72fef3ffe32191d73b1822f512ebf3f" target="_top" xlink:title=" ">
<polygon fill="white" stroke="#666666" points="584.5,-105 489.5,-105 489.5,-86 584.5,-86 584.5,-105"/>
<text text-anchor="middle" x="537" y="-93" font-family="Helvetica,sans-Serif" font-size="10.00">func_802AAAAC</text>
</a>
</g>
</g>
<!-- Node24&#45;&gt;Node25 -->
<g id="edge30_Node000024_Node000025" class="edge">
<title>Node24&#45;&gt;Node25</title>
<g id="a_edge30_Node000024_Node000025"><a xlink:title=" ">
<path fill="none" stroke="#63b8ff" d="M409.56,-93.29C430.9,-93.66 456.62,-94.11 479.28,-94.51"/>
<polygon fill="#63b8ff" stroke="#63b8ff" points="479.39,-98.01 489.45,-94.69 479.51,-91.01 479.39,-98.01"/>
</a>
</g>
</g>
<!-- Node26 -->
<g id="Node000026" class="node">
<title>Node26</title>
<g id="a_Node000026"><a xlink:href="math__util_8c.html#a79fd07a0971ec96a3ff0801963a2fa7f" target="_top" xlink:title=" ">
<polygon fill="white" stroke="#666666" points="752,-105 688,-105 688,-86 752,-86 752,-105"/>
<text text-anchor="middle" x="720" y="-93" font-family="Helvetica,sans-Serif" font-size="10.00">vec3f_set</text>
</a>
</g>
</g>
<!-- Node25&#45;&gt;Node26 -->
<g id="edge31_Node000025_Node000026" class="edge">
<title>Node25&#45;&gt;Node26</title>
<g id="a_edge31_Node000025_Node000026"><a xlink:title=" ">
<path fill="none" stroke="#63b8ff" d="M584.61,-95.5C613.4,-95.5 650.02,-95.5 677.75,-95.5"/>
<polygon fill="#63b8ff" stroke="#63b8ff" points="677.91,-99 687.91,-95.5 677.91,-92 677.91,-99"/>
</a>
</g>
</g>
<!-- Node28 -->
<g id="Node000028" class="node">
<title>Node28</title>
<g id="a_Node000028"><a xlink:href="collision_8c.html#a6527a2135a10909cdf9a1fd731be5628" target="_top" xlink:title=" ">
<polygon fill="white" stroke="#666666" points="606,-19 468,-19 468,0 606,0 606,-19"/>
<text text-anchor="middle" x="537" y="-7" font-family="Helvetica,sans-Serif" font-size="10.00">calculate_surface_height</text>
</a>
</g>
</g>
<!-- Node27&#45;&gt;Node28 -->
<g id="edge33_Node000027_Node000028" class="edge">
<title>Node27&#45;&gt;Node28</title>
<g id="a_edge33_Node000027_Node000028"><a xlink:title=" ">
<path fill="none" stroke="#63b8ff" d="M402.56,-42.96C427.76,-36.64 461.02,-28.3 488.03,-21.53"/>
<polygon fill="#63b8ff" stroke="#63b8ff" points="489.2,-24.84 498.04,-19.02 487.49,-18.05 489.2,-24.84"/>
</a>
</g>
</g>
<!-- Node29 -->
<g id="Node000029" class="node">
<title>Node29</title>
<g id="a_Node000029"><a xlink:href="collision_8c.html#a0fe340ccfe1d926a592ea9a0c84d7574" target="_top" xlink:title=" ">
<polygon fill="white" stroke="#666666" points="603,-67.5 471,-67.5 471,-37.5 603,-37.5 603,-67.5"/>
<text text-anchor="start" x="479" y="-55.5" font-family="Helvetica,sans-Serif" font-size="10.00">check_horizontally</text>
<text text-anchor="middle" x="537" y="-44.5" font-family="Helvetica,sans-Serif" font-size="10.00">_colliding_with_triangle</text>
</a>
</g>
</g>
<!-- Node27&#45;&gt;Node29 -->
<g id="edge34_Node000027_Node000029" class="edge">
<title>Node27&#45;&gt;Node29</title>
<g id="a_edge34_Node000027_Node000029"><a xlink:title=" ">
<path fill="none" stroke="#63b8ff" d="M432.28,-52.5C441.63,-52.5 451.28,-52.5 460.76,-52.5"/>
<polygon fill="#63b8ff" stroke="#63b8ff" points="460.95,-56 470.95,-52.5 460.95,-49 460.95,-56"/>
</a>
</g>
</g>
</g>
</svg>
