<?xml version="1.0" encoding="UTF-8" standalone="no"?>
<!DOCTYPE svg PUBLIC "-//W3C//DTD SVG 1.1//EN"
 "http://www.w3.org/Graphics/SVG/1.1/DTD/svg11.dtd">
<!-- Generated by graphviz version 2.43.0 (0)
 -->
<!-- Title: func_8003CD78 Pages: 1 -->
<svg width="1253pt" height="434pt"
 viewBox="0.00 0.00 1253.00 434.00" xmlns="http://www.w3.org/2000/svg" xmlns:xlink="http://www.w3.org/1999/xlink">
<g id="graph0" class="graph" transform="scale(1 1) rotate(0) translate(4 430)">
<title>func_8003CD78</title>
<!-- Node1 -->
<g id="Node000001" class="node">
<title>Node1</title>
<g id="a_Node000001"><a xlink:title=" ">
<polygon fill="#999999" stroke="#666666" points="93,-156 0,-156 0,-137 93,-137 93,-156"/>
<text text-anchor="middle" x="46.5" y="-144" font-family="Helvetica,sans-Serif" font-size="10.00">func_8003CD78</text>
</a>
</g>
</g>
<!-- Node2 -->
<g id="Node000002" class="node">
<title>Node2</title>
<g id="a_Node000002"><a xlink:href="spawn__players_8c.html#ad7cb329529acad24029cf01ec2213126" target="_top" xlink:title=" ">
<polygon fill="white" stroke="#666666" points="221,-156 129,-156 129,-137 221,-137 221,-156"/>
<text text-anchor="middle" x="175" y="-144" font-family="Helvetica,sans-Serif" font-size="10.00">func_8003BE30</text>
</a>
</g>
</g>
<!-- Node1&#45;&gt;Node2 -->
<g id="edge1_Node000001_Node000002" class="edge">
<title>Node1&#45;&gt;Node2</title>
<g id="a_edge1_Node000001_Node000002"><a xlink:title=" ">
<path fill="none" stroke="#63b8ff" d="M93.17,-146.5C101.42,-146.5 110.11,-146.5 118.6,-146.5"/>
<polygon fill="#63b8ff" stroke="#63b8ff" points="118.82,-150 128.82,-146.5 118.82,-143 118.82,-150"/>
</a>
</g>
</g>
<!-- Node3 -->
<g id="Node000003" class="node">
<title>Node3</title>
<g id="a_Node000003"><a xlink:href="spawn__players_8c.html#a1ef01690d08edebb46104bed8651c847" target="_top" xlink:title=" ">
<polygon fill="white" stroke="#666666" points="349,-175 257,-175 257,-156 349,-156 349,-175"/>
<text text-anchor="middle" x="303" y="-163" font-family="Helvetica,sans-Serif" font-size="10.00">func_80039AE4</text>
</a>
</g>
</g>
<!-- Node2&#45;&gt;Node3 -->
<g id="edge2_Node000002_Node000003" class="edge">
<title>Node2&#45;&gt;Node3</title>
<g id="a_edge2_Node000002_Node000003"><a xlink:title=" ">
<path fill="none" stroke="#63b8ff" d="M221.13,-153.31C229.46,-154.56 238.23,-155.88 246.81,-157.18"/>
<polygon fill="#63b8ff" stroke="#63b8ff" points="246.35,-160.65 256.76,-158.68 247.39,-153.73 246.35,-160.65"/>
</a>
</g>
</g>
<!-- Node4 -->
<g id="Node000004" class="node">
<title>Node4</title>
<g id="a_Node000004"><a xlink:href="spawn__players_8c.html#a43c7f2d844178603dc415f549283e97c" target="_top" xlink:title=" ">
<polygon fill="white" stroke="#666666" points="345,-138 261,-138 261,-119 345,-119 345,-138"/>
<text text-anchor="middle" x="303" y="-126" font-family="Helvetica,sans-Serif" font-size="10.00">spawn_player</text>
</a>
</g>
</g>
<!-- Node2&#45;&gt;Node4 -->
<g id="edge3_Node000002_Node000004" class="edge">
<title>Node2&#45;&gt;Node4</title>
<g id="a_edge3_Node000002_Node000004"><a xlink:title=" ">
<path fill="none" stroke="#63b8ff" d="M221.13,-140.05C230.78,-138.67 241.03,-137.21 250.88,-135.8"/>
<polygon fill="#63b8ff" stroke="#63b8ff" points="251.55,-139.24 260.96,-134.36 250.56,-132.31 251.55,-139.24"/>
</a>
</g>
</g>
<!-- Node5 -->
<g id="Node000005" class="node">
<title>Node5</title>
<g id="a_Node000005"><a xlink:href="math__util_8c.html#ad8cb26171252640b6d9398122af8173a" target="_top" xlink:title=" ">
<polygon fill="white" stroke="#666666" points="695.5,-295.5 576.5,-295.5 576.5,-265.5 695.5,-265.5 695.5,-295.5"/>
<text text-anchor="start" x="584.5" y="-283.5" font-family="Helvetica,sans-Serif" font-size="10.00">calculate_orientation</text>
<text text-anchor="middle" x="636" y="-272.5" font-family="Helvetica,sans-Serif" font-size="10.00">_matrix</text>
</a>
</g>
</g>
<!-- Node4&#45;&gt;Node5 -->
<g id="edge4_Node000004_Node000005" class="edge">
<title>Node4&#45;&gt;Node5</title>
<g id="a_edge4_Node000004_Node000005"><a xlink:title=" ">
<path fill="none" stroke="#63b8ff" d="M334.02,-138.18C339.34,-140.71 344.59,-143.79 349,-147.5 371.64,-166.55 361.43,-185.61 385,-203.5 438.11,-243.8 512.51,-263.2 566.32,-272.42"/>
<polygon fill="#63b8ff" stroke="#63b8ff" points="566.02,-275.92 576.46,-274.08 567.15,-269.01 566.02,-275.92"/>
</a>
</g>
</g>
<!-- Node16 -->
<g id="Node000016" class="node">
<title>Node16</title>
<g id="a_Node000016"><a xlink:href="code__80057C60_8c.html#ab6fd60c5cc852960210c924ba7aa47f6" target="_top" xlink:title=" ">
<polygon fill="white" stroke="#666666" points="528,-157 388,-157 388,-138 528,-138 528,-157"/>
<text text-anchor="middle" x="458" y="-145" font-family="Helvetica,sans-Serif" font-size="10.00">clear_all_player_balloons</text>
</a>
</g>
</g>
<!-- Node4&#45;&gt;Node16 -->
<g id="edge18_Node000004_Node000016" class="edge">
<title>Node4&#45;&gt;Node16</title>
<g id="a_edge18_Node000004_Node000016"><a xlink:title=" ">
<path fill="none" stroke="#63b8ff" d="M345,-133.59C355.2,-134.86 366.48,-136.26 377.85,-137.67"/>
<polygon fill="#63b8ff" stroke="#63b8ff" points="377.47,-141.15 387.82,-138.91 378.33,-134.2 377.47,-141.15"/>
</a>
</g>
</g>
<!-- Node17 -->
<g id="Node000017" class="node">
<title>Node17</title>
<g id="a_Node000017"><a xlink:href="render__courses_8c.html#a37ee937c815f25140e16f2ae6c528a73" target="_top" xlink:title=" ">
<polygon fill="white" stroke="#666666" points="504,-120 412,-120 412,-101 504,-101 504,-120"/>
<text text-anchor="middle" x="458" y="-108" font-family="Helvetica,sans-Serif" font-size="10.00">func_80295BF8</text>
</a>
</g>
</g>
<!-- Node4&#45;&gt;Node17 -->
<g id="edge19_Node000004_Node000017" class="edge">
<title>Node4&#45;&gt;Node17</title>
<g id="a_edge19_Node000004_Node000017"><a xlink:title=" ">
<path fill="none" stroke="#63b8ff" d="M345,-123.68C362.4,-121.63 382.95,-119.21 401.67,-117.01"/>
<polygon fill="#63b8ff" stroke="#63b8ff" points="402.32,-120.46 411.85,-115.81 401.51,-113.5 402.32,-120.46"/>
</a>
</g>
</g>
<!-- Node20 -->
<g id="Node000020" class="node">
<title>Node20</title>
<g id="a_Node000020"><a xlink:href="code__80057C60_8c.html#a78bd5e72e1f64b0ab8d599dfcfc7ca94" target="_top" xlink:title=" ">
<polygon fill="white" stroke="#666666" points="524,-194 392,-194 392,-175 524,-175 524,-194"/>
<text text-anchor="middle" x="458" y="-182" font-family="Helvetica,sans-Serif" font-size="10.00">init_all_player_balloons</text>
</a>
</g>
</g>
<!-- Node4&#45;&gt;Node20 -->
<g id="edge22_Node000004_Node000020" class="edge">
<title>Node4&#45;&gt;Node20</title>
<g id="a_edge22_Node000004_Node000020"><a xlink:title=" ">
<path fill="none" stroke="#63b8ff" d="M327.99,-138.18C334.83,-141.06 342.26,-144.3 349,-147.5 365.35,-155.25 368.1,-160.04 385,-166.5 390.4,-168.56 396.11,-170.46 401.87,-172.18"/>
<polygon fill="#63b8ff" stroke="#63b8ff" points="400.97,-175.56 411.55,-174.9 402.87,-168.82 400.97,-175.56"/>
</a>
</g>
</g>
<!-- Node23 -->
<g id="Node000023" class="node">
<title>Node23</title>
<g id="a_Node000023"><a xlink:href="code__80057C60_8c.html#a94d34593138565c85a016c12cd68639d" target="_top" xlink:title=" ">
<polygon fill="white" stroke="#666666" points="531,-83 385,-83 385,-64 531,-64 531,-83"/>
<text text-anchor="middle" x="458" y="-71" font-family="Helvetica,sans-Serif" font-size="10.00">reset_player_particle_pool</text>
</a>
</g>
</g>
<!-- Node4&#45;&gt;Node23 -->
<g id="edge27_Node000004_Node000023" class="edge">
<title>Node4&#45;&gt;Node23</title>
<g id="a_edge27_Node000004_Node000023"><a xlink:title=" ">
<path fill="none" stroke="#63b8ff" d="M323.29,-118.88C339.48,-111.05 363.37,-100.11 385,-92.5 391.88,-90.08 399.21,-87.81 406.48,-85.73"/>
<polygon fill="#63b8ff" stroke="#63b8ff" points="407.58,-89.06 416.29,-83.03 405.72,-82.31 407.58,-89.06"/>
</a>
</g>
</g>
<!-- Node24 -->
<g id="Node000024" class="node">
<title>Node24</title>
<g id="a_Node000024"><a xlink:href="collision_8c.html#ad95e9ed2051529d5edee26109fa07427" target="_top" xlink:title=" ">
<polygon fill="white" stroke="#666666" points="526.5,-46 389.5,-46 389.5,-27 526.5,-27 526.5,-46"/>
<text text-anchor="middle" x="458" y="-34" font-family="Helvetica,sans-Serif" font-size="10.00">spawn_actor_on_surface</text>
</a>
</g>
</g>
<!-- Node4&#45;&gt;Node24 -->
<g id="edge28_Node000004_Node000024" class="edge">
<title>Node4&#45;&gt;Node24</title>
<g id="a_edge28_Node000004_Node000024"><a xlink:title=" ">
<path fill="none" stroke="#63b8ff" d="M311.91,-118.87C325.3,-103.2 354.03,-72.25 385,-55.5 389.25,-53.2 393.8,-51.17 398.47,-49.37"/>
<polygon fill="#63b8ff" stroke="#63b8ff" points="399.85,-52.59 408.15,-46.01 397.56,-45.98 399.85,-52.59"/>
</a>
</g>
</g>
<!-- Node6 -->
<g id="Node000006" class="node">
<title>Node6</title>
<g id="a_Node000006"><a xlink:href="math__util_8c.html#ab9faf7f44e869c2270678250306a9546" target="_top" xlink:title=" ">
<polygon fill="white" stroke="#666666" points="871,-252.5 767,-252.5 767,-222.5 871,-222.5 871,-252.5"/>
<text text-anchor="start" x="775" y="-240.5" font-family="Helvetica,sans-Serif" font-size="10.00">calculate_rotation</text>
<text text-anchor="middle" x="819" y="-229.5" font-family="Helvetica,sans-Serif" font-size="10.00">_matrix</text>
</a>
</g>
</g>
<!-- Node5&#45;&gt;Node6 -->
<g id="edge5_Node000005_Node000006" class="edge">
<title>Node5&#45;&gt;Node6</title>
<g id="a_edge5_Node000005_Node000006"><a xlink:title=" ">
<path fill="none" stroke="#63b8ff" d="M695.77,-266.54C715.37,-261.88 737.25,-256.68 757.02,-251.99"/>
<polygon fill="#63b8ff" stroke="#63b8ff" points="757.91,-255.37 766.83,-249.66 756.3,-248.56 757.91,-255.37"/>
</a>
</g>
</g>
<!-- Node7 -->
<g id="Node000007" class="node">
<title>Node7</title>
<g id="a_Node000007"><a xlink:href="math__util_8c.html#ae69cbf5c8d4b3b0dba2d7b4d4673689f" target="_top" xlink:title=" ">
<polygon fill="white" stroke="#666666" points="1006,-204 968,-204 968,-185 1006,-185 1006,-204"/>
<text text-anchor="middle" x="987" y="-192" font-family="Helvetica,sans-Serif" font-size="10.00">coss</text>
</a>
</g>
</g>
<!-- Node5&#45;&gt;Node7 -->
<g id="edge13_Node000005_Node000007" class="edge">
<title>Node5&#45;&gt;Node7</title>
<g id="a_edge13_Node000005_Node000007"><a xlink:title=" ">
<path fill="none" stroke="#63b8ff" d="M654.35,-265.41C673.92,-249.37 707.41,-224.81 741,-213.5 816.05,-188.23 911.07,-189.61 957.65,-192.29"/>
<polygon fill="#63b8ff" stroke="#63b8ff" points="957.67,-195.8 967.88,-192.94 958.12,-188.81 957.67,-195.8"/>
</a>
</g>
</g>
<!-- Node8 -->
<g id="Node000008" class="node">
<title>Node8</title>
<g id="a_Node000008"><a xlink:href="math__util_8c.html#a19ed3bd78fd2d3e2bd0a29f6caf48545" target="_top" xlink:title=" ">
<polygon fill="white" stroke="#666666" points="1005,-247 969,-247 969,-228 1005,-228 1005,-247"/>
<text text-anchor="middle" x="987" y="-235" font-family="Helvetica,sans-Serif" font-size="10.00">sins</text>
</a>
</g>
</g>
<!-- Node5&#45;&gt;Node8 -->
<g id="edge16_Node000005_Node000008" class="edge">
<title>Node5&#45;&gt;Node8</title>
<g id="a_edge16_Node000005_Node000008"><a xlink:title=" ">
<path fill="none" stroke="#63b8ff" d="M695.73,-279.39C748.67,-277.64 828.51,-273.13 897,-261.5 918.23,-257.89 941.74,-251.45 959.26,-246.14"/>
<polygon fill="#63b8ff" stroke="#63b8ff" points="960.31,-249.48 968.82,-243.18 958.23,-242.8 960.31,-249.48"/>
</a>
</g>
</g>
<!-- Node9 -->
<g id="Node000009" class="node">
<title>Node9</title>
<g id="a_Node000009"><a xlink:href="math__util_8c.html#af524d0a35bc0c97564ca6c9cb6aae60f" target="_top" xlink:title=" ">
<polygon fill="white" stroke="#666666" points="892,-328 746,-328 746,-309 892,-309 892,-328"/>
<text text-anchor="middle" x="819" y="-316" font-family="Helvetica,sans-Serif" font-size="10.00">calculate_vector_angle_xy</text>
</a>
</g>
</g>
<!-- Node5&#45;&gt;Node9 -->
<g id="edge8_Node000005_Node000009" class="edge">
<title>Node5&#45;&gt;Node9</title>
<g id="a_edge8_Node000005_Node000009"><a xlink:title=" ">
<path fill="none" stroke="#63b8ff" d="M695.77,-292.84C717.33,-297.36 741.65,-302.47 762.88,-306.93"/>
<polygon fill="#63b8ff" stroke="#63b8ff" points="762.21,-310.36 772.71,-308.99 763.65,-303.51 762.21,-310.36"/>
</a>
</g>
</g>
<!-- Node13 -->
<g id="Node000013" class="node">
<title>Node13</title>
<g id="a_Node000013"><a xlink:href="math_8h.html#a37bde043e94a6f074c78f10518fb5d99" target="_top" xlink:title=" ">
<polygon fill="white" stroke="#666666" points="1006.5,-366 967.5,-366 967.5,-347 1006.5,-347 1006.5,-366"/>
<text text-anchor="middle" x="987" y="-354" font-family="Helvetica,sans-Serif" font-size="10.00">sqrtf</text>
</a>
</g>
</g>
<!-- Node5&#45;&gt;Node13 -->
<g id="edge17_Node000005_Node000013" class="edge">
<title>Node5&#45;&gt;Node13</title>
<g id="a_edge17_Node000005_Node000013"><a xlink:title=" ">
<path fill="none" stroke="#63b8ff" d="M658.12,-295.6C678.33,-309.17 710.22,-328.33 741,-337.5 816.52,-359.98 910.59,-359.92 957.14,-358.13"/>
<polygon fill="#63b8ff" stroke="#63b8ff" points="957.55,-361.62 967.39,-357.68 957.24,-354.62 957.55,-361.62"/>
</a>
</g>
</g>
<!-- Node14 -->
<g id="Node000014" class="node">
<title>Node14</title>
<g id="a_Node000014"><a xlink:href="FrameInterpolation_8cpp.html#a370937c591d27758600d740e2881e7cf" target="_top" xlink:title=" ">
<polygon fill="white" stroke="#666666" points="897,-426 741,-426 741,-385 897,-385 897,-426"/>
<text text-anchor="start" x="749" y="-414" font-family="Helvetica,sans-Serif" font-size="10.00">FrameInterpolation</text>
<text text-anchor="start" x="749" y="-403" font-family="Helvetica,sans-Serif" font-size="10.00">_RecordCalculateOrientation</text>
<text text-anchor="middle" x="819" y="-392" font-family="Helvetica,sans-Serif" font-size="10.00">Matrix</text>
</a>
</g>
</g>
<!-- Node5&#45;&gt;Node14 -->
<g id="edge14_Node000005_Node000014" class="edge">
<title>Node5&#45;&gt;Node14</title>
<g id="a_edge14_Node000005_Node000014"><a xlink:title=" ">
<path fill="none" stroke="#63b8ff" d="M651.74,-295.72C670.95,-314.94 706.22,-348.21 741,-370.5 746.35,-373.93 752.1,-377.2 757.95,-380.27"/>
<polygon fill="#63b8ff" stroke="#63b8ff" points="756.69,-383.56 767.2,-384.92 759.84,-377.3 756.69,-383.56"/>
</a>
</g>
</g>
<!-- Node6&#45;&gt;Node7 -->
<g id="edge6_Node000006_Node000007" class="edge">
<title>Node6&#45;&gt;Node7</title>
<g id="a_edge6_Node000006_Node000007"><a xlink:title=" ">
<path fill="none" stroke="#63b8ff" d="M871.16,-224.25C899.71,-216.85 934.18,-207.92 957.86,-201.79"/>
<polygon fill="#63b8ff" stroke="#63b8ff" points="958.8,-205.16 967.61,-199.26 957.05,-198.38 958.8,-205.16"/>
</a>
</g>
</g>
<!-- Node6&#45;&gt;Node8 -->
<g id="edge7_Node000006_Node000008" class="edge">
<title>Node6&#45;&gt;Node8</title>
<g id="a_edge7_Node000006_Node000008"><a xlink:title=" ">
<path fill="none" stroke="#63b8ff" d="M871.16,-237.5C900.07,-237.5 935.06,-237.5 958.77,-237.5"/>
<polygon fill="#63b8ff" stroke="#63b8ff" points="958.8,-241 968.8,-237.5 958.8,-234 958.8,-241"/>
</a>
</g>
</g>
<!-- Node10 -->
<g id="Node000010" class="node">
<title>Node10</title>
<g id="a_Node000010"><a xlink:href="math__util_8c.html#ae5ccdf2ee48e06c8a0bced3f3a00f582" target="_top" xlink:title=" ">
<polygon fill="white" stroke="#666666" points="1013.5,-328 960.5,-328 960.5,-309 1013.5,-309 1013.5,-328"/>
<text text-anchor="middle" x="987" y="-316" font-family="Helvetica,sans-Serif" font-size="10.00">_atan2f</text>
</a>
</g>
</g>
<!-- Node9&#45;&gt;Node10 -->
<g id="edge9_Node000009_Node000010" class="edge">
<title>Node9&#45;&gt;Node10</title>
<g id="a_edge9_Node000009_Node000010"><a xlink:title=" ">
<path fill="none" stroke="#63b8ff" d="M892.33,-318.5C912.44,-318.5 933.41,-318.5 950.39,-318.5"/>
<polygon fill="#63b8ff" stroke="#63b8ff" points="950.41,-322 960.41,-318.5 950.41,-315 950.41,-322"/>
</a>
</g>
</g>
<!-- Node9&#45;&gt;Node13 -->
<g id="edge12_Node000009_Node000013" class="edge">
<title>Node9&#45;&gt;Node13</title>
<g id="a_edge12_Node000009_Node000013"><a xlink:title=" ">
<path fill="none" stroke="#63b8ff" d="M861.89,-328.09C891.6,-334.89 930.72,-343.85 957.03,-349.87"/>
<polygon fill="#63b8ff" stroke="#63b8ff" points="956.59,-353.36 967.12,-352.18 958.15,-346.53 956.59,-353.36"/>
</a>
</g>
</g>
<!-- Node11 -->
<g id="Node000011" class="node">
<title>Node11</title>
<g id="a_Node000011"><a xlink:href="math__util_8c.html#aaa39a297477f56051975259f4bddd829" target="_top" xlink:title=" ">
<polygon fill="white" stroke="#666666" points="1127,-328 1077,-328 1077,-309 1127,-309 1127,-328"/>
<text text-anchor="middle" x="1102" y="-316" font-family="Helvetica,sans-Serif" font-size="10.00">atan2s</text>
</a>
</g>
</g>
<!-- Node10&#45;&gt;Node11 -->
<g id="edge10_Node000010_Node000011" class="edge">
<title>Node10&#45;&gt;Node11</title>
<g id="a_edge10_Node000010_Node000011"><a xlink:title=" ">
<path fill="none" stroke="#63b8ff" d="M1013.64,-318.5C1029.28,-318.5 1049.47,-318.5 1066.5,-318.5"/>
<polygon fill="#63b8ff" stroke="#63b8ff" points="1066.62,-322 1076.62,-318.5 1066.62,-315 1066.62,-322"/>
</a>
</g>
</g>
<!-- Node12 -->
<g id="Node000012" class="node">
<title>Node12</title>
<g id="a_Node000012"><a xlink:href="math__util_8c.html#a0273b0ea0783a06996c28669a7438ed9" target="_top" xlink:title=" ">
<polygon fill="white" stroke="#666666" points="1245,-328 1163,-328 1163,-309 1245,-309 1245,-328"/>
<text text-anchor="middle" x="1204" y="-316" font-family="Helvetica,sans-Serif" font-size="10.00">atan2_lookup</text>
</a>
</g>
</g>
<!-- Node11&#45;&gt;Node12 -->
<g id="edge11_Node000011_Node000012" class="edge">
<title>Node11&#45;&gt;Node12</title>
<g id="a_edge11_Node000011_Node000012"><a xlink:title=" ">
<path fill="none" stroke="#63b8ff" d="M1127.21,-318.5C1134.85,-318.5 1143.6,-318.5 1152.38,-318.5"/>
<polygon fill="#63b8ff" stroke="#63b8ff" points="1152.63,-322 1162.63,-318.5 1152.63,-315 1152.63,-322"/>
</a>
</g>
</g>
<!-- Node15 -->
<g id="Node000015" class="node">
<title>Node15</title>
<g id="a_Node000015"><a xlink:href="FrameInterpolation_8cpp.html#a02c7ac5342a4d376edee38f312b480bf" target="_top" xlink:title=" ">
<polygon fill="white" stroke="#666666" points="1041,-415 933,-415 933,-396 1041,-396 1041,-415"/>
<text text-anchor="middle" x="987" y="-403" font-family="Helvetica,sans-Serif" font-size="10.00">check_if_recording</text>
</a>
</g>
</g>
<!-- Node14&#45;&gt;Node15 -->
<g id="edge15_Node000014_Node000015" class="edge">
<title>Node14&#45;&gt;Node15</title>
<g id="a_edge15_Node000014_Node000015"><a xlink:title=" ">
<path fill="none" stroke="#63b8ff" d="M897.17,-405.5C905.72,-405.5 914.35,-405.5 922.69,-405.5"/>
<polygon fill="#63b8ff" stroke="#63b8ff" points="922.71,-409 932.71,-405.5 922.71,-402 922.71,-409"/>
</a>
</g>
</g>
<!-- Node18 -->
<g id="Node000018" class="node">
<title>Node18</title>
<g id="a_Node000018"><a xlink:href="collision_8c.html#ad72fef3ffe32191d73b1822f512ebf3f" target="_top" xlink:title=" ">
<polygon fill="white" stroke="#666666" points="683.5,-120 588.5,-120 588.5,-101 683.5,-101 683.5,-120"/>
<text text-anchor="middle" x="636" y="-108" font-family="Helvetica,sans-Serif" font-size="10.00">func_802AAAAC</text>
</a>
</g>
</g>
<!-- Node17&#45;&gt;Node18 -->
<g id="edge20_Node000017_Node000018" class="edge">
<title>Node17&#45;&gt;Node18</title>
<g id="a_edge20_Node000017_Node000018"><a xlink:title=" ">
<path fill="none" stroke="#63b8ff" d="M504.32,-110.5C526.87,-110.5 554.35,-110.5 578.28,-110.5"/>
<polygon fill="#63b8ff" stroke="#63b8ff" points="578.3,-114 588.3,-110.5 578.3,-107 578.3,-114"/>
</a>
</g>
</g>
<!-- Node19 -->
<g id="Node000019" class="node">
<title>Node19</title>
<g id="a_Node000019"><a xlink:href="math__util_8c.html#a79fd07a0971ec96a3ff0801963a2fa7f" target="_top" xlink:title=" ">
<polygon fill="white" stroke="#666666" points="851,-120 787,-120 787,-101 851,-101 851,-120"/>
<text text-anchor="middle" x="819" y="-108" font-family="Helvetica,sans-Serif" font-size="10.00">vec3f_set</text>
</a>
</g>
</g>
<!-- Node18&#45;&gt;Node19 -->
<g id="edge21_Node000018_Node000019" class="edge">
<title>Node18&#45;&gt;Node19</title>
<g id="a_edge21_Node000018_Node000019"><a xlink:title=" ">
<path fill="none" stroke="#63b8ff" d="M683.61,-110.5C712.4,-110.5 749.02,-110.5 776.75,-110.5"/>
<polygon fill="#63b8ff" stroke="#63b8ff" points="776.91,-114 786.91,-110.5 776.91,-107 776.91,-114"/>
</a>
</g>
</g>
<!-- Node21 -->
<g id="Node000021" class="node">
<title>Node21</title>
<g id="a_Node000021"><a xlink:href="code__80057C60_8c.html#af4475b485a9024049ffeb416dc2a9d1a" target="_top" xlink:title=" ">
<polygon fill="white" stroke="#666666" points="673,-176 599,-176 599,-157 673,-157 673,-176"/>
<text text-anchor="middle" x="636" y="-164" font-family="Helvetica,sans-Serif" font-size="10.00">init_balloon</text>
</a>
</g>
</g>
<!-- Node20&#45;&gt;Node21 -->
<g id="edge23_Node000020_Node000021" class="edge">
<title>Node20&#45;&gt;Node21</title>
<g id="a_edge23_Node000020_Node000021"><a xlink:title=" ">
<path fill="none" stroke="#63b8ff" d="M524.04,-177.85C545.55,-175.65 569.03,-173.25 588.83,-171.22"/>
<polygon fill="#63b8ff" stroke="#63b8ff" points="589.23,-174.7 598.82,-170.2 588.52,-167.74 589.23,-174.7"/>
</a>
</g>
</g>
<!-- Node22 -->
<g id="Node000022" class="node">
<title>Node22</title>
<g id="a_Node000022"><a xlink:href="code__80057C60_8c.html#a156481baa44e5305c016e2902a91bbb1" target="_top" xlink:title=" ">
<polygon fill="white" stroke="#666666" points="865,-166 773,-166 773,-147 865,-147 865,-166"/>
<text text-anchor="middle" x="819" y="-154" font-family="Helvetica,sans-Serif" font-size="10.00">func_80062B18</text>
</a>
</g>
</g>
<!-- Node21&#45;&gt;Node22 -->
<g id="edge24_Node000021_Node000022" class="edge">
<title>Node21&#45;&gt;Node22</title>
<g id="a_edge24_Node000021_Node000022"><a xlink:title=" ">
<path fill="none" stroke="#63b8ff" d="M673.19,-164.5C698.85,-163.08 733.74,-161.16 762.85,-159.55"/>
<polygon fill="#63b8ff" stroke="#63b8ff" points="763.09,-163.04 772.88,-158.99 762.7,-156.05 763.09,-163.04"/>
</a>
</g>
</g>
<!-- Node22&#45;&gt;Node7 -->
<g id="edge25_Node000022_Node000007" class="edge">
<title>Node22&#45;&gt;Node7</title>
<g id="a_edge25_Node000022_Node000007"><a xlink:title=" ">
<path fill="none" stroke="#63b8ff" d="M861.89,-166.09C891.94,-172.97 931.61,-182.05 957.92,-188.07"/>
<polygon fill="#63b8ff" stroke="#63b8ff" points="957.45,-191.55 967.98,-190.37 959.01,-184.73 957.45,-191.55"/>
</a>
</g>
</g>
<!-- Node22&#45;&gt;Node8 -->
<g id="edge26_Node000022_Node000008" class="edge">
<title>Node22&#45;&gt;Node8</title>
<g id="a_edge26_Node000022_Node000008"><a xlink:title=" ">
<path fill="none" stroke="#63b8ff" d="M838.28,-166.02C860.53,-177.53 899.3,-197.38 933,-213.5 941.61,-217.62 951.08,-221.96 959.6,-225.81"/>
<polygon fill="#63b8ff" stroke="#63b8ff" points="958.17,-229 968.73,-229.9 961.04,-222.62 958.17,-229"/>
</a>
</g>
</g>
<!-- Node25 -->
<g id="Node000025" class="node">
<title>Node25</title>
<g id="a_Node000025"><a xlink:href="collision_8c.html#a6527a2135a10909cdf9a1fd731be5628" target="_top" xlink:title=" ">
<polygon fill="white" stroke="#666666" points="705,-19 567,-19 567,0 705,0 705,-19"/>
<text text-anchor="middle" x="636" y="-7" font-family="Helvetica,sans-Serif" font-size="10.00">calculate_surface_height</text>
</a>
</g>
</g>
<!-- Node24&#45;&gt;Node25 -->
<g id="edge29_Node000024_Node000025" class="edge">
<title>Node24&#45;&gt;Node25</title>
<g id="a_edge29_Node000024_Node000025"><a xlink:title=" ">
<path fill="none" stroke="#63b8ff" d="M521.05,-26.98C534.59,-24.9 549.03,-22.69 562.92,-20.56"/>
<polygon fill="#63b8ff" stroke="#63b8ff" points="563.56,-24 572.92,-19.02 562.5,-17.08 563.56,-24"/>
</a>
</g>
</g>
<!-- Node26 -->
<g id="Node000026" class="node">
<title>Node26</title>
<g id="a_Node000026"><a xlink:href="collision_8c.html#a0fe340ccfe1d926a592ea9a0c84d7574" target="_top" xlink:title=" ">
<polygon fill="white" stroke="#666666" points="702,-67.5 570,-67.5 570,-37.5 702,-37.5 702,-67.5"/>
<text text-anchor="start" x="578" y="-55.5" font-family="Helvetica,sans-Serif" font-size="10.00">check_horizontally</text>
<text text-anchor="middle" x="636" y="-44.5" font-family="Helvetica,sans-Serif" font-size="10.00">_colliding_with_triangle</text>
</a>
</g>
</g>
<!-- Node24&#45;&gt;Node26 -->
<g id="edge30_Node000024_Node000026" class="edge">
<title>Node24&#45;&gt;Node26</title>
<g id="a_edge30_Node000024_Node000026"><a xlink:title=" ">
<path fill="none" stroke="#63b8ff" d="M526.54,-42.64C537.45,-43.63 548.81,-44.66 559.88,-45.67"/>
<polygon fill="#63b8ff" stroke="#63b8ff" points="559.68,-49.17 569.96,-46.59 560.31,-42.2 559.68,-49.17"/>
</a>
</g>
</g>
</g>
</svg>
