<?xml version="1.0" encoding="UTF-8" standalone="no"?>
<!DOCTYPE svg PUBLIC "-//W3C//DTD SVG 1.1//EN"
 "http://www.w3.org/Graphics/SVG/1.1/DTD/svg11.dtd">
<!-- Generated by graphviz version 2.43.0 (0)
 -->
<!-- Title: spawn_network_players Pages: 1 -->
<!--zoomable 434 -->

<svg id="main" version="1.1" xmlns="http://www.w3.org/2000/svg" xmlns:xlink="http://www.w3.org/1999/xlink" xml:space="preserve" onload="init(evt)">

<style type="text/css"><![CDATA[
.node, .edge {opacity: 0.7;}
.node.selected, .edge.selected {opacity: 1;}
.edge:hover path { stroke: red; }
.edge:hover polygon { stroke: red; fill: red; }
]]></style>

<defs>
  <circle id="rim" cx="0" cy="0" r="7"/>
  <circle id="rim2" cx="0" cy="0" r="3.5"/>
  <g id="zoomPlus">
    <use xlink:href="#rim" fill="#404040"><set attributeName="fill" to="#808080" begin="zoomplus.mouseover" end="zoomplus.mouseout"/></use>
    <path d="M-4,0h8M0,-4v8" fill="none" stroke="white" stroke-width="1.5" pointer-events="none"/>
  </g>
  <g id="zoomMin">
    <use xlink:href="#rim" fill="#404040"><set attributeName="fill" to="#808080" begin="zoomminus.mouseover" end="zoomminus.mouseout"/></use>
    <path d="M-4,0h8" fill="none" stroke="white" stroke-width="1.5" pointer-events="none"/>
  </g>
  <g id="arrowUp" transform="translate(30 24)">
    <use xlink:href="#rim"/>
    <path pointer-events="none" fill="none" stroke="white" stroke-width="1.5" d="M0,-3.0v7 M-2.5,-0.5L0,-3.0L2.5,-0.5"/>
  </g>
  <g id="arrowRight" transform="rotate(90) translate(36 -43)">
    <use xlink:href="#rim"/>
    <path pointer-events="none" fill="none" stroke="white" stroke-width="1.5" d="M0,-3.0v7 M-2.5,-0.5L0,-3.0L2.5,-0.5"/>
  </g>
  <g id="arrowDown" transform="rotate(180) translate(-30 -48)">
    <use xlink:href="#rim"/>
    <path pointer-events="none" fill="none" stroke="white" stroke-width="1.5" d="M0,-3.0v7 M-2.5,-0.5L0,-3.0L2.5,-0.5"/>
  </g>
  <g id="arrowLeft" transform="rotate(270) translate(-36 17)">
    <use xlink:href="#rim"/>
    <path pointer-events="none" fill="none" stroke="white" stroke-width="1.5" d="M0,-3.0v7 M-2.5,-0.5L0,-3.0L2.5,-0.5"/>
  </g>
  <g id="resetDef">
    <use xlink:href="#rim2" fill="#404040"><set attributeName="fill" to="#808080" begin="reset.mouseover" end="reset.mouseout"/></use>
  </g>
</defs>
<script type="application/ecmascript">
var viewWidth = 1197;
var viewHeight = 434;
var sectionId = 'dynsection-13';
</script>
<script type="application/ecmascript" xlink:href="svg.min.js"/>
<svg id="graph" class="graph">
<g id="viewport">
<title>spawn_network_players</title>
<!-- Node1 -->
<g id="Node000001" class="node">
<title>Node1</title>
<g id="a_Node000001"><a xlink:title=" ">
<polygon fill="#999999" stroke="#666666" points="134,-159 0,-159 0,-140 134,-140 134,-159"/>
<text text-anchor="middle" x="67" y="-147" font-family="Helvetica,sans-Serif" font-size="10.00">spawn_network_players</text>
</a>
</g>
</g>
<!-- Node2 -->
<g id="Node000002" class="node">
<title>Node2</title>
<g id="a_Node000002"><a xlink:href="start__game_8c.html#abe9ca904e43a1c0bdd10227709c8ccc0" target="_top" xlink:title=" ">
<polygon fill="white" stroke="#666666" points="293,-186.5 170,-186.5 170,-156.5 293,-156.5 293,-186.5"/>
<text text-anchor="start" x="178" y="-174.5" font-family="Helvetica,sans-Serif" font-size="10.00">assign_player_control</text>
<text text-anchor="middle" x="231.5" y="-163.5" font-family="Helvetica,sans-Serif" font-size="10.00">_types</text>
</a>
</g>
</g>
<!-- Node1&#45;&gt;Node2 -->
<g id="edge1_Node000001_Node000002" class="edge">
<title>Node1&#45;&gt;Node2</title>
<g id="a_edge1_Node000001_Node000002"><a xlink:title=" ">
<path fill="none" stroke="#63b8ff" d="M134.09,-158.45C142.62,-159.6 151.38,-160.79 159.97,-161.95"/>
<polygon fill="#63b8ff" stroke="#63b8ff" points="159.58,-165.43 169.96,-163.3 160.52,-158.49 159.58,-165.43"/>
</a>
</g>
</g>
<!-- Node3 -->
<g id="Node000003" class="node">
<title>Node3</title>
<g id="a_Node000003"><a xlink:href="spawn__players_8c.html#a43c7f2d844178603dc415f549283e97c" target="_top" xlink:title=" ">
<polygon fill="white" stroke="#666666" points="273.5,-138 189.5,-138 189.5,-119 273.5,-119 273.5,-138"/>
<text text-anchor="middle" x="231.5" y="-126" font-family="Helvetica,sans-Serif" font-size="10.00">spawn_player</text>
</a>
</g>
</g>
<!-- Node1&#45;&gt;Node3 -->
<g id="edge2_Node000001_Node000003" class="edge">
<title>Node1&#45;&gt;Node3</title>
<g id="a_edge2_Node000001_Node000003"><a xlink:title=" ">
<path fill="none" stroke="#63b8ff" d="M134.09,-140.96C149.08,-139.02 164.79,-136.99 179.07,-135.15"/>
<polygon fill="#63b8ff" stroke="#63b8ff" points="179.71,-138.59 189.18,-133.84 178.81,-131.65 179.71,-138.59"/>
</a>
</g>
</g>
<!-- Node4 -->
<g id="Node000004" class="node">
<title>Node4</title>
<g id="a_Node000004"><a xlink:href="math__util_8c.html#ad8cb26171252640b6d9398122af8173a" target="_top" xlink:title=" ">
<polygon fill="white" stroke="#666666" points="639.5,-295.5 520.5,-295.5 520.5,-265.5 639.5,-265.5 639.5,-295.5"/>
<text text-anchor="start" x="528.5" y="-283.5" font-family="Helvetica,sans-Serif" font-size="10.00">calculate_orientation</text>
<text text-anchor="middle" x="580" y="-272.5" font-family="Helvetica,sans-Serif" font-size="10.00">_matrix</text>
</a>
</g>
</g>
<!-- Node3&#45;&gt;Node4 -->
<g id="edge3_Node000003_Node000004" class="edge">
<title>Node3&#45;&gt;Node4</title>
<g id="a_edge3_Node000003_Node000004"><a xlink:title=" ">
<path fill="none" stroke="#63b8ff" d="M273.78,-137.2C280.61,-139.8 287.31,-143.16 293,-147.5 316.52,-165.45 305.43,-185.61 329,-203.5 382.11,-243.8 456.51,-263.2 510.32,-272.42"/>
<polygon fill="#63b8ff" stroke="#63b8ff" points="510.02,-275.92 520.46,-274.08 511.15,-269.01 510.02,-275.92"/>
</a>
</g>
</g>
<!-- Node15 -->
<g id="Node000015" class="node">
<title>Node15</title>
<g id="a_Node000015"><a xlink:href="code__80057C60_8c.html#ab6fd60c5cc852960210c924ba7aa47f6" target="_top" xlink:title=" ">
<polygon fill="white" stroke="#666666" points="472,-157 332,-157 332,-138 472,-138 472,-157"/>
<text text-anchor="middle" x="402" y="-145" font-family="Helvetica,sans-Serif" font-size="10.00">clear_all_player_balloons</text>
</a>
</g>
</g>
<!-- Node3&#45;&gt;Node15 -->
<g id="edge17_Node000003_Node000015" class="edge">
<title>Node3&#45;&gt;Node15</title>
<g id="a_edge17_Node000003_Node000015"><a xlink:title=" ">
<path fill="none" stroke="#63b8ff" d="M273.72,-133.15C288.24,-134.79 305.1,-136.69 321.7,-138.56"/>
<polygon fill="#63b8ff" stroke="#63b8ff" points="321.65,-142.07 331.97,-139.72 322.43,-135.12 321.65,-142.07"/>
</a>
</g>
</g>
<!-- Node16 -->
<g id="Node000016" class="node">
<title>Node16</title>
<g id="a_Node000016"><a xlink:href="render__courses_8c.html#a37ee937c815f25140e16f2ae6c528a73" target="_top" xlink:title=" ">
<polygon fill="white" stroke="#666666" points="448,-120 356,-120 356,-101 448,-101 448,-120"/>
<text text-anchor="middle" x="402" y="-108" font-family="Helvetica,sans-Serif" font-size="10.00">func_80295BF8</text>
</a>
</g>
</g>
<!-- Node3&#45;&gt;Node16 -->
<g id="edge18_Node000003_Node000016" class="edge">
<title>Node3&#45;&gt;Node16</title>
<g id="a_edge18_Node000003_Node000016"><a xlink:title=" ">
<path fill="none" stroke="#63b8ff" d="M273.72,-124.1C295.36,-121.78 322.18,-118.92 345.61,-116.42"/>
<polygon fill="#63b8ff" stroke="#63b8ff" points="346.19,-119.87 355.77,-115.33 345.45,-112.91 346.19,-119.87"/>
</a>
</g>
</g>
<!-- Node19 -->
<g id="Node000019" class="node">
<title>Node19</title>
<g id="a_Node000019"><a xlink:href="code__80057C60_8c.html#a78bd5e72e1f64b0ab8d599dfcfc7ca94" target="_top" xlink:title=" ">
<polygon fill="white" stroke="#666666" points="468,-194 336,-194 336,-175 468,-175 468,-194"/>
<text text-anchor="middle" x="402" y="-182" font-family="Helvetica,sans-Serif" font-size="10.00">init_all_player_balloons</text>
</a>
</g>
</g>
<!-- Node3&#45;&gt;Node19 -->
<g id="edge21_Node000003_Node000019" class="edge">
<title>Node3&#45;&gt;Node19</title>
<g id="a_edge21_Node000003_Node000019"><a xlink:title=" ">
<path fill="none" stroke="#63b8ff" d="M266.81,-138.09C275.47,-140.83 284.67,-144.03 293,-147.5 309.7,-154.46 312.1,-160.04 329,-166.5 334.4,-168.56 340.11,-170.46 345.87,-172.18"/>
<polygon fill="#63b8ff" stroke="#63b8ff" points="344.97,-175.56 355.55,-174.9 346.87,-168.82 344.97,-175.56"/>
</a>
</g>
</g>
<!-- Node22 -->
<g id="Node000022" class="node">
<title>Node22</title>
<g id="a_Node000022"><a xlink:href="code__80057C60_8c.html#a94d34593138565c85a016c12cd68639d" target="_top" xlink:title=" ">
<polygon fill="white" stroke="#666666" points="475,-83 329,-83 329,-64 475,-64 475,-83"/>
<text text-anchor="middle" x="402" y="-71" font-family="Helvetica,sans-Serif" font-size="10.00">reset_player_particle_pool</text>
</a>
</g>
</g>
<!-- Node3&#45;&gt;Node22 -->
<g id="edge26_Node000003_Node000022" class="edge">
<title>Node3&#45;&gt;Node22</title>
<g id="a_edge26_Node000003_Node000022"><a xlink:title=" ">
<path fill="none" stroke="#63b8ff" d="M256.07,-118.96C275.47,-111.29 303.78,-100.51 329,-92.5 336.45,-90.13 344.4,-87.83 352.19,-85.68"/>
<polygon fill="#63b8ff" stroke="#63b8ff" points="353.19,-89.04 361.94,-83.06 351.37,-82.28 353.19,-89.04"/>
</a>
</g>
</g>
<!-- Node23 -->
<g id="Node000023" class="node">
<title>Node23</title>
<g id="a_Node000023"><a xlink:href="collision_8c.html#ad95e9ed2051529d5edee26109fa07427" target="_top" xlink:title=" ">
<polygon fill="white" stroke="#666666" points="470.5,-46 333.5,-46 333.5,-27 470.5,-27 470.5,-46"/>
<text text-anchor="middle" x="402" y="-34" font-family="Helvetica,sans-Serif" font-size="10.00">spawn_actor_on_surface</text>
</a>
</g>
</g>
<!-- Node3&#45;&gt;Node23 -->
<g id="edge27_Node000003_Node000023" class="edge">
<title>Node3&#45;&gt;Node23</title>
<g id="a_edge27_Node000003_Node000023"><a xlink:title=" ">
<path fill="none" stroke="#63b8ff" d="M242.32,-118.95C258.84,-103.38 293.86,-72.59 329,-55.5 333.87,-53.13 339.07,-51.03 344.37,-49.17"/>
<polygon fill="#63b8ff" stroke="#63b8ff" points="345.51,-52.48 353.95,-46.08 343.36,-45.82 345.51,-52.48"/>
</a>
</g>
</g>
<!-- Node5 -->
<g id="Node000005" class="node">
<title>Node5</title>
<g id="a_Node000005"><a xlink:href="math__util_8c.html#ab9faf7f44e869c2270678250306a9546" target="_top" xlink:title=" ">
<polygon fill="white" stroke="#666666" points="815,-252.5 711,-252.5 711,-222.5 815,-222.5 815,-252.5"/>
<text text-anchor="start" x="719" y="-240.5" font-family="Helvetica,sans-Serif" font-size="10.00">calculate_rotation</text>
<text text-anchor="middle" x="763" y="-229.5" font-family="Helvetica,sans-Serif" font-size="10.00">_matrix</text>
</a>
</g>
</g>
<!-- Node4&#45;&gt;Node5 -->
<g id="edge4_Node000004_Node000005" class="edge">
<title>Node4&#45;&gt;Node5</title>
<g id="a_edge4_Node000004_Node000005"><a xlink:title=" ">
<path fill="none" stroke="#63b8ff" d="M639.77,-266.54C659.37,-261.88 681.25,-256.68 701.02,-251.99"/>
<polygon fill="#63b8ff" stroke="#63b8ff" points="701.91,-255.37 710.83,-249.66 700.3,-248.56 701.91,-255.37"/>
</a>
</g>
</g>
<!-- Node6 -->
<g id="Node000006" class="node">
<title>Node6</title>
<g id="a_Node000006"><a xlink:href="math__util_8c.html#ae69cbf5c8d4b3b0dba2d7b4d4673689f" target="_top" xlink:title=" ">
<polygon fill="white" stroke="#666666" points="950,-204 912,-204 912,-185 950,-185 950,-204"/>
<text text-anchor="middle" x="931" y="-192" font-family="Helvetica,sans-Serif" font-size="10.00">coss</text>
</a>
</g>
</g>
<!-- Node4&#45;&gt;Node6 -->
<g id="edge12_Node000004_Node000006" class="edge">
<title>Node4&#45;&gt;Node6</title>
<g id="a_edge12_Node000004_Node000006"><a xlink:title=" ">
<path fill="none" stroke="#63b8ff" d="M598.35,-265.41C617.92,-249.37 651.41,-224.81 685,-213.5 760.05,-188.23 855.07,-189.61 901.65,-192.29"/>
<polygon fill="#63b8ff" stroke="#63b8ff" points="901.67,-195.8 911.88,-192.94 902.12,-188.81 901.67,-195.8"/>
</a>
</g>
</g>
<!-- Node7 -->
<g id="Node000007" class="node">
<title>Node7</title>
<g id="a_Node000007"><a xlink:href="math__util_8c.html#a19ed3bd78fd2d3e2bd0a29f6caf48545" target="_top" xlink:title=" ">
<polygon fill="white" stroke="#666666" points="949,-247 913,-247 913,-228 949,-228 949,-247"/>
<text text-anchor="middle" x="931" y="-235" font-family="Helvetica,sans-Serif" font-size="10.00">sins</text>
</a>
</g>
</g>
<!-- Node4&#45;&gt;Node7 -->
<g id="edge15_Node000004_Node000007" class="edge">
<title>Node4&#45;&gt;Node7</title>
<g id="a_edge15_Node000004_Node000007"><a xlink:title=" ">
<path fill="none" stroke="#63b8ff" d="M639.73,-279.39C692.67,-277.64 772.51,-273.13 841,-261.5 862.23,-257.89 885.74,-251.45 903.26,-246.14"/>
<polygon fill="#63b8ff" stroke="#63b8ff" points="904.31,-249.48 912.82,-243.18 902.23,-242.8 904.31,-249.48"/>
</a>
</g>
</g>
<!-- Node8 -->
<g id="Node000008" class="node">
<title>Node8</title>
<g id="a_Node000008"><a xlink:href="math__util_8c.html#af524d0a35bc0c97564ca6c9cb6aae60f" target="_top" xlink:title=" ">
<polygon fill="white" stroke="#666666" points="836,-328 690,-328 690,-309 836,-309 836,-328"/>
<text text-anchor="middle" x="763" y="-316" font-family="Helvetica,sans-Serif" font-size="10.00">calculate_vector_angle_xy</text>
</a>
</g>
</g>
<!-- Node4&#45;&gt;Node8 -->
<g id="edge7_Node000004_Node000008" class="edge">
<title>Node4&#45;&gt;Node8</title>
<g id="a_edge7_Node000004_Node000008"><a xlink:title=" ">
<path fill="none" stroke="#63b8ff" d="M639.77,-292.84C661.33,-297.36 685.65,-302.47 706.88,-306.93"/>
<polygon fill="#63b8ff" stroke="#63b8ff" points="706.21,-310.36 716.71,-308.99 707.65,-303.51 706.21,-310.36"/>
</a>
</g>
</g>
<!-- Node12 -->
<g id="Node000012" class="node">
<title>Node12</title>
<g id="a_Node000012"><a xlink:href="math_8h.html#a37bde043e94a6f074c78f10518fb5d99" target="_top" xlink:title=" ">
<polygon fill="white" stroke="#666666" points="950.5,-366 911.5,-366 911.5,-347 950.5,-347 950.5,-366"/>
<text text-anchor="middle" x="931" y="-354" font-family="Helvetica,sans-Serif" font-size="10.00">sqrtf</text>
</a>
</g>
</g>
<!-- Node4&#45;&gt;Node12 -->
<g id="edge16_Node000004_Node000012" class="edge">
<title>Node4&#45;&gt;Node12</title>
<g id="a_edge16_Node000004_Node000012"><a xlink:title=" ">
<path fill="none" stroke="#63b8ff" d="M602.12,-295.6C622.33,-309.17 654.22,-328.33 685,-337.5 760.52,-359.98 854.59,-359.92 901.14,-358.13"/>
<polygon fill="#63b8ff" stroke="#63b8ff" points="901.55,-361.62 911.39,-357.68 901.24,-354.62 901.55,-361.62"/>
</a>
</g>
</g>
<!-- Node13 -->
<g id="Node000013" class="node">
<title>Node13</title>
<g id="a_Node000013"><a xlink:href="FrameInterpolation_8cpp.html#a370937c591d27758600d740e2881e7cf" target="_top" xlink:title=" ">
<polygon fill="white" stroke="#666666" points="841,-426 685,-426 685,-385 841,-385 841,-426"/>
<text text-anchor="start" x="693" y="-414" font-family="Helvetica,sans-Serif" font-size="10.00">FrameInterpolation</text>
<text text-anchor="start" x="693" y="-403" font-family="Helvetica,sans-Serif" font-size="10.00">_RecordCalculateOrientation</text>
<text text-anchor="middle" x="763" y="-392" font-family="Helvetica,sans-Serif" font-size="10.00">Matrix</text>
</a>
</g>
</g>
<!-- Node4&#45;&gt;Node13 -->
<g id="edge13_Node000004_Node000013" class="edge">
<title>Node4&#45;&gt;Node13</title>
<g id="a_edge13_Node000004_Node000013"><a xlink:title=" ">
<path fill="none" stroke="#63b8ff" d="M595.74,-295.72C614.95,-314.94 650.22,-348.21 685,-370.5 690.35,-373.93 696.1,-377.2 701.95,-380.27"/>
<polygon fill="#63b8ff" stroke="#63b8ff" points="700.69,-383.56 711.2,-384.92 703.84,-377.3 700.69,-383.56"/>
</a>
</g>
</g>
<!-- Node5&#45;&gt;Node6 -->
<g id="edge5_Node000005_Node000006" class="edge">
<title>Node5&#45;&gt;Node6</title>
<g id="a_edge5_Node000005_Node000006"><a xlink:title=" ">
<path fill="none" stroke="#63b8ff" d="M815.16,-224.25C843.71,-216.85 878.18,-207.92 901.86,-201.79"/>
<polygon fill="#63b8ff" stroke="#63b8ff" points="902.8,-205.16 911.61,-199.26 901.05,-198.38 902.8,-205.16"/>
</a>
</g>
</g>
<!-- Node5&#45;&gt;Node7 -->
<g id="edge6_Node000005_Node000007" class="edge">
<title>Node5&#45;&gt;Node7</title>
<g id="a_edge6_Node000005_Node000007"><a xlink:title=" ">
<path fill="none" stroke="#63b8ff" d="M815.16,-237.5C844.07,-237.5 879.06,-237.5 902.77,-237.5"/>
<polygon fill="#63b8ff" stroke="#63b8ff" points="902.8,-241 912.8,-237.5 902.8,-234 902.8,-241"/>
</a>
</g>
</g>
<!-- Node9 -->
<g id="Node000009" class="node">
<title>Node9</title>
<g id="a_Node000009"><a xlink:href="math__util_8c.html#ae5ccdf2ee48e06c8a0bced3f3a00f582" target="_top" xlink:title=" ">
<polygon fill="white" stroke="#666666" points="957.5,-328 904.5,-328 904.5,-309 957.5,-309 957.5,-328"/>
<text text-anchor="middle" x="931" y="-316" font-family="Helvetica,sans-Serif" font-size="10.00">_atan2f</text>
</a>
</g>
</g>
<!-- Node8&#45;&gt;Node9 -->
<g id="edge8_Node000008_Node000009" class="edge">
<title>Node8&#45;&gt;Node9</title>
<g id="a_edge8_Node000008_Node000009"><a xlink:title=" ">
<path fill="none" stroke="#63b8ff" d="M836.33,-318.5C856.44,-318.5 877.41,-318.5 894.39,-318.5"/>
<polygon fill="#63b8ff" stroke="#63b8ff" points="894.41,-322 904.41,-318.5 894.41,-315 894.41,-322"/>
</a>
</g>
</g>
<!-- Node8&#45;&gt;Node12 -->
<g id="edge11_Node000008_Node000012" class="edge">
<title>Node8&#45;&gt;Node12</title>
<g id="a_edge11_Node000008_Node000012"><a xlink:title=" ">
<path fill="none" stroke="#63b8ff" d="M805.89,-328.09C835.6,-334.89 874.72,-343.85 901.03,-349.87"/>
<polygon fill="#63b8ff" stroke="#63b8ff" points="900.59,-353.36 911.12,-352.18 902.15,-346.53 900.59,-353.36"/>
</a>
</g>
</g>
<!-- Node10 -->
<g id="Node000010" class="node">
<title>Node10</title>
<g id="a_Node000010"><a xlink:href="math__util_8c.html#aaa39a297477f56051975259f4bddd829" target="_top" xlink:title=" ">
<polygon fill="white" stroke="#666666" points="1071,-328 1021,-328 1021,-309 1071,-309 1071,-328"/>
<text text-anchor="middle" x="1046" y="-316" font-family="Helvetica,sans-Serif" font-size="10.00">atan2s</text>
</a>
</g>
</g>
<!-- Node9&#45;&gt;Node10 -->
<g id="edge9_Node000009_Node000010" class="edge">
<title>Node9&#45;&gt;Node10</title>
<g id="a_edge9_Node000009_Node000010"><a xlink:title=" ">
<path fill="none" stroke="#63b8ff" d="M957.64,-318.5C973.28,-318.5 993.47,-318.5 1010.5,-318.5"/>
<polygon fill="#63b8ff" stroke="#63b8ff" points="1010.62,-322 1020.62,-318.5 1010.62,-315 1010.62,-322"/>
</a>
</g>
</g>
<!-- Node11 -->
<g id="Node000011" class="node">
<title>Node11</title>
<g id="a_Node000011"><a xlink:href="math__util_8c.html#a0273b0ea0783a06996c28669a7438ed9" target="_top" xlink:title=" ">
<polygon fill="white" stroke="#666666" points="1189,-328 1107,-328 1107,-309 1189,-309 1189,-328"/>
<text text-anchor="middle" x="1148" y="-316" font-family="Helvetica,sans-Serif" font-size="10.00">atan2_lookup</text>
</a>
</g>
</g>
<!-- Node10&#45;&gt;Node11 -->
<g id="edge10_Node000010_Node000011" class="edge">
<title>Node10&#45;&gt;Node11</title>
<g id="a_edge10_Node000010_Node000011"><a xlink:title=" ">
<path fill="none" stroke="#63b8ff" d="M1071.21,-318.5C1078.85,-318.5 1087.6,-318.5 1096.38,-318.5"/>
<polygon fill="#63b8ff" stroke="#63b8ff" points="1096.63,-322 1106.63,-318.5 1096.63,-315 1096.63,-322"/>
</a>
</g>
</g>
<!-- Node14 -->
<g id="Node000014" class="node">
<title>Node14</title>
<g id="a_Node000014"><a xlink:href="FrameInterpolation_8cpp.html#a02c7ac5342a4d376edee38f312b480bf" target="_top" xlink:title=" ">
<polygon fill="white" stroke="#666666" points="985,-415 877,-415 877,-396 985,-396 985,-415"/>
<text text-anchor="middle" x="931" y="-403" font-family="Helvetica,sans-Serif" font-size="10.00">check_if_recording</text>
</a>
</g>
</g>
<!-- Node13&#45;&gt;Node14 -->
<g id="edge14_Node000013_Node000014" class="edge">
<title>Node13&#45;&gt;Node14</title>
<g id="a_edge14_Node000013_Node000014"><a xlink:title=" ">
<path fill="none" stroke="#63b8ff" d="M841.17,-405.5C849.72,-405.5 858.35,-405.5 866.69,-405.5"/>
<polygon fill="#63b8ff" stroke="#63b8ff" points="866.71,-409 876.71,-405.5 866.71,-402 866.71,-409"/>
</a>
</g>
</g>
<!-- Node17 -->
<g id="Node000017" class="node">
<title>Node17</title>
<g id="a_Node000017"><a xlink:href="collision_8c.html#ad72fef3ffe32191d73b1822f512ebf3f" target="_top" xlink:title=" ">
<polygon fill="white" stroke="#666666" points="627.5,-120 532.5,-120 532.5,-101 627.5,-101 627.5,-120"/>
<text text-anchor="middle" x="580" y="-108" font-family="Helvetica,sans-Serif" font-size="10.00">func_802AAAAC</text>
</a>
</g>
</g>
<!-- Node16&#45;&gt;Node17 -->
<g id="edge19_Node000016_Node000017" class="edge">
<title>Node16&#45;&gt;Node17</title>
<g id="a_edge19_Node000016_Node000017"><a xlink:title=" ">
<path fill="none" stroke="#63b8ff" d="M448.32,-110.5C470.87,-110.5 498.35,-110.5 522.28,-110.5"/>
<polygon fill="#63b8ff" stroke="#63b8ff" points="522.3,-114 532.3,-110.5 522.3,-107 522.3,-114"/>
</a>
</g>
</g>
<!-- Node18 -->
<g id="Node000018" class="node">
<title>Node18</title>
<g id="a_Node000018"><a xlink:href="math__util_8c.html#a79fd07a0971ec96a3ff0801963a2fa7f" target="_top" xlink:title=" ">
<polygon fill="white" stroke="#666666" points="795,-120 731,-120 731,-101 795,-101 795,-120"/>
<text text-anchor="middle" x="763" y="-108" font-family="Helvetica,sans-Serif" font-size="10.00">vec3f_set</text>
</a>
</g>
</g>
<!-- Node17&#45;&gt;Node18 -->
<g id="edge20_Node000017_Node000018" class="edge">
<title>Node17&#45;&gt;Node18</title>
<g id="a_edge20_Node000017_Node000018"><a xlink:title=" ">
<path fill="none" stroke="#63b8ff" d="M627.61,-110.5C656.4,-110.5 693.02,-110.5 720.75,-110.5"/>
<polygon fill="#63b8ff" stroke="#63b8ff" points="720.91,-114 730.91,-110.5 720.91,-107 720.91,-114"/>
</a>
</g>
</g>
<!-- Node20 -->
<g id="Node000020" class="node">
<title>Node20</title>
<g id="a_Node000020"><a xlink:href="code__80057C60_8c.html#af4475b485a9024049ffeb416dc2a9d1a" target="_top" xlink:title=" ">
<polygon fill="white" stroke="#666666" points="617,-176 543,-176 543,-157 617,-157 617,-176"/>
<text text-anchor="middle" x="580" y="-164" font-family="Helvetica,sans-Serif" font-size="10.00">init_balloon</text>
</a>
</g>
</g>
<!-- Node19&#45;&gt;Node20 -->
<g id="edge22_Node000019_Node000020" class="edge">
<title>Node19&#45;&gt;Node20</title>
<g id="a_edge22_Node000019_Node000020"><a xlink:title=" ">
<path fill="none" stroke="#63b8ff" d="M468.04,-177.85C489.55,-175.65 513.03,-173.25 532.83,-171.22"/>
<polygon fill="#63b8ff" stroke="#63b8ff" points="533.23,-174.7 542.82,-170.2 532.52,-167.74 533.23,-174.7"/>
</a>
</g>
</g>
<!-- Node21 -->
<g id="Node000021" class="node">
<title>Node21</title>
<g id="a_Node000021"><a xlink:href="code__80057C60_8c.html#a156481baa44e5305c016e2902a91bbb1" target="_top" xlink:title=" ">
<polygon fill="white" stroke="#666666" points="809,-166 717,-166 717,-147 809,-147 809,-166"/>
<text text-anchor="middle" x="763" y="-154" font-family="Helvetica,sans-Serif" font-size="10.00">func_80062B18</text>
</a>
</g>
</g>
<!-- Node20&#45;&gt;Node21 -->
<g id="edge23_Node000020_Node000021" class="edge">
<title>Node20&#45;&gt;Node21</title>
<g id="a_edge23_Node000020_Node000021"><a xlink:title=" ">
<path fill="none" stroke="#63b8ff" d="M617.19,-164.5C642.85,-163.08 677.74,-161.16 706.85,-159.55"/>
<polygon fill="#63b8ff" stroke="#63b8ff" points="707.09,-163.04 716.88,-158.99 706.7,-156.05 707.09,-163.04"/>
</a>
</g>
</g>
<!-- Node21&#45;&gt;Node6 -->
<g id="edge24_Node000021_Node000006" class="edge">
<title>Node21&#45;&gt;Node6</title>
<g id="a_edge24_Node000021_Node000006"><a xlink:title=" ">
<path fill="none" stroke="#63b8ff" d="M805.89,-166.09C835.94,-172.97 875.61,-182.05 901.92,-188.07"/>
<polygon fill="#63b8ff" stroke="#63b8ff" points="901.45,-191.55 911.98,-190.37 903.01,-184.73 901.45,-191.55"/>
</a>
</g>
</g>
<!-- Node21&#45;&gt;Node7 -->
<g id="edge25_Node000021_Node000007" class="edge">
<title>Node21&#45;&gt;Node7</title>
<g id="a_edge25_Node000021_Node000007"><a xlink:title=" ">
<path fill="none" stroke="#63b8ff" d="M782.28,-166.02C804.53,-177.53 843.3,-197.38 877,-213.5 885.61,-217.62 895.08,-221.96 903.6,-225.81"/>
<polygon fill="#63b8ff" stroke="#63b8ff" points="902.17,-229 912.73,-229.9 905.04,-222.62 902.17,-229"/>
</a>
</g>
</g>
<!-- Node24 -->
<g id="Node000024" class="node">
<title>Node24</title>
<g id="a_Node000024"><a xlink:href="collision_8c.html#a6527a2135a10909cdf9a1fd731be5628" target="_top" xlink:title=" ">
<polygon fill="white" stroke="#666666" points="649,-19 511,-19 511,0 649,0 649,-19"/>
<text text-anchor="middle" x="580" y="-7" font-family="Helvetica,sans-Serif" font-size="10.00">calculate_surface_height</text>
</a>
</g>
</g>
<!-- Node23&#45;&gt;Node24 -->
<g id="edge28_Node000023_Node000024" class="edge">
<title>Node23&#45;&gt;Node24</title>
<g id="a_edge28_Node000023_Node000024"><a xlink:title=" ">
<path fill="none" stroke="#63b8ff" d="M465.05,-26.98C478.59,-24.9 493.03,-22.69 506.92,-20.56"/>
<polygon fill="#63b8ff" stroke="#63b8ff" points="507.56,-24 516.92,-19.02 506.5,-17.08 507.56,-24"/>
</a>
</g>
</g>
<!-- Node25 -->
<g id="Node000025" class="node">
<title>Node25</title>
<g id="a_Node000025"><a xlink:href="collision_8c.html#a0fe340ccfe1d926a592ea9a0c84d7574" target="_top" xlink:title=" ">
<polygon fill="white" stroke="#666666" points="646,-67.5 514,-67.5 514,-37.5 646,-37.5 646,-67.5"/>
<text text-anchor="start" x="522" y="-55.5" font-family="Helvetica,sans-Serif" font-size="10.00">check_horizontally</text>
<text text-anchor="middle" x="580" y="-44.5" font-family="Helvetica,sans-Serif" font-size="10.00">_colliding_with_triangle</text>
</a>
</g>
</g>
<!-- Node23&#45;&gt;Node25 -->
<g id="edge29_Node000023_Node000025" class="edge">
<title>Node23&#45;&gt;Node25</title>
<g id="a_edge29_Node000023_Node000025"><a xlink:title=" ">
<path fill="none" stroke="#63b8ff" d="M470.54,-42.64C481.45,-43.63 492.81,-44.66 503.88,-45.67"/>
<polygon fill="#63b8ff" stroke="#63b8ff" points="503.68,-49.17 513.96,-46.59 504.31,-42.2 503.68,-49.17"/>
</a>
</g>
</g>
</g>
</svg>

<g id="navigator" transform="translate(0 0)" fill="#404254">
  <rect fill="#f2f5e9" fill-opacity="0.5" stroke="#606060" stroke-width=".5" x="0" y="0" width="60" height="60"/>
  <use id="zoomplus" xlink:href="#zoomPlus" x="17" y="9" onmousedown="handleZoom(evt,'in')"/>
  <use id="zoomminus" xlink:href="#zoomMin" x="42" y="9" onmousedown="handleZoom(evt,'out')"/>
  <use id="reset" xlink:href="#resetDef" x="30" y="36" onmousedown="handleReset()"/>
   <use id="arrowup" xlink:href="#arrowUp" x="0" y="0" onmousedown="handlePan(0,-1)"/>
  <use id="arrowright" xlink:href="#arrowRight" x="0" y="0" onmousedown="handlePan(1,0)"/>
  <use id="arrowdown" xlink:href="#arrowDown" x="0" y="0" onmousedown="handlePan(0,1)"/>
  <use id="arrowleft" xlink:href="#arrowLeft" x="0" y="0" onmousedown="handlePan(-1,0)"/>
</g>
<svg viewBox="0 0 15 15" width="100%" height="30px" preserveAspectRatio="xMaxYMin meet">
 <g id="arrow_out" transform="scale(0.3 0.3)">
  <a xlink:href="start__game_8c_a588211157508d34f5093285a13f7d59b_cgraph_org.svg" target="_base">
   <rect id="button" ry="5" rx="5" y="6" x="6" height="38" width="38"
        fill="#f2f5e9" fill-opacity="0.5" stroke="#606060" stroke-width="1.0"/>
   <path id="arrow"
     d="M 11.500037,31.436501 C 11.940474,20.09759 22.043105,11.32322 32.158766,21.979434 L 37.068811,17.246167 C 37.068811,17.246167 37.088388,32 37.088388,32 L 22.160133,31.978069 C 22.160133,31.978069 26.997745,27.140456 26.997745,27.140456 C 18.528582,18.264221 13.291696,25.230495 11.500037,31.436501 z"
     style="fill:#404040;"/>
  </a>
 </g>
</svg>

<style type='text/css'>
<![CDATA[
[data-mouse-over-selected='false'] { opacity: 0.7; }
[data-mouse-over-selected='true']  { opacity: 1.0; }
]]>
</style>
<script type="application/ecmascript"><![CDATA[
document.addEventListener('DOMContentLoaded', (event) => {
  highlightEdges();
  highlightAdjacentNodes();
});
]]></script>
</svg>
