<?xml version="1.0" encoding="UTF-8" standalone="no"?>
<!DOCTYPE svg PUBLIC "-//W3C//DTD SVG 1.1//EN"
 "http://www.w3.org/Graphics/SVG/1.1/DTD/svg11.dtd">
<!-- Generated by graphviz version 2.43.0 (0)
 -->
<!-- Title: memcpy Pages: 1 -->
<!--zoomable 1116 -->

<svg id="main" version="1.1" xmlns="http://www.w3.org/2000/svg" xmlns:xlink="http://www.w3.org/1999/xlink" xml:space="preserve" onload="init(evt)">

<style type="text/css"><![CDATA[
.node, .edge {opacity: 0.7;}
.node.selected, .edge.selected {opacity: 1;}
.edge:hover path { stroke: red; }
.edge:hover polygon { stroke: red; fill: red; }
]]></style>

<defs>
  <circle id="rim" cx="0" cy="0" r="7"/>
  <circle id="rim2" cx="0" cy="0" r="3.5"/>
  <g id="zoomPlus">
    <use xlink:href="#rim" fill="#404040"><set attributeName="fill" to="#808080" begin="zoomplus.mouseover" end="zoomplus.mouseout"/></use>
    <path d="M-4,0h8M0,-4v8" fill="none" stroke="white" stroke-width="1.5" pointer-events="none"/>
  </g>
  <g id="zoomMin">
    <use xlink:href="#rim" fill="#404040"><set attributeName="fill" to="#808080" begin="zoomminus.mouseover" end="zoomminus.mouseout"/></use>
    <path d="M-4,0h8" fill="none" stroke="white" stroke-width="1.5" pointer-events="none"/>
  </g>
  <g id="arrowUp" transform="translate(30 24)">
    <use xlink:href="#rim"/>
    <path pointer-events="none" fill="none" stroke="white" stroke-width="1.5" d="M0,-3.0v7 M-2.5,-0.5L0,-3.0L2.5,-0.5"/>
  </g>
  <g id="arrowRight" transform="rotate(90) translate(36 -43)">
    <use xlink:href="#rim"/>
    <path pointer-events="none" fill="none" stroke="white" stroke-width="1.5" d="M0,-3.0v7 M-2.5,-0.5L0,-3.0L2.5,-0.5"/>
  </g>
  <g id="arrowDown" transform="rotate(180) translate(-30 -48)">
    <use xlink:href="#rim"/>
    <path pointer-events="none" fill="none" stroke="white" stroke-width="1.5" d="M0,-3.0v7 M-2.5,-0.5L0,-3.0L2.5,-0.5"/>
  </g>
  <g id="arrowLeft" transform="rotate(270) translate(-36 17)">
    <use xlink:href="#rim"/>
    <path pointer-events="none" fill="none" stroke="white" stroke-width="1.5" d="M0,-3.0v7 M-2.5,-0.5L0,-3.0L2.5,-0.5"/>
  </g>
  <g id="resetDef">
    <use xlink:href="#rim2" fill="#404040"><set attributeName="fill" to="#808080" begin="reset.mouseover" end="reset.mouseout"/></use>
  </g>
</defs>
<script type="application/ecmascript">
var viewWidth = 704;
var viewHeight = 1116;
var sectionId = 'dynsection-2';
</script>
<script type="application/ecmascript" xlink:href="svg.min.js"/>
<svg id="graph" class="graph">
<g id="viewport">
<title>memcpy</title>
<!-- Node1 -->
<g id="Node000001" class="node">
<title>Node1</title>
<g id="a_Node000001"><a xlink:title=" ">
<polygon fill="#999999" stroke="#666666" points="696,-754 637,-754 637,-735 696,-735 696,-754"/>
<text text-anchor="middle" x="666.5" y="-742" font-family="Helvetica,sans-Serif" font-size="10.00">memcpy</text>
</a>
</g>
</g>
<!-- Node2 -->
<g id="Node000002" class="node">
<title>Node2</title>
<g id="a_Node000002"><a xlink:href="__Ldtob_8c.html#a2b6c5318b43bab1636bad9113ffb2761" target="_top" xlink:title=" ">
<polygon fill="white" stroke="#666666" points="566,-1108 516,-1108 516,-1089 566,-1089 566,-1108"/>
<text text-anchor="middle" x="541" y="-1096" font-family="Helvetica,sans-Serif" font-size="10.00">_Genld</text>
</a>
</g>
</g>
<!-- Node1&#45;&gt;Node2 -->
<g id="edge1_Node000001_Node000002" class="edge">
<title>Node1&#45;&gt;Node2</title>
<g id="a_edge1_Node000001_Node000002"><a xlink:title=" ">
<path fill="none" stroke="#63b8ff" d="M664.05,-764.61C659.05,-828.63 640.64,-1026.34 601,-1074.5 592.36,-1085 578.4,-1090.95 566.23,-1094.3"/>
<polygon fill="#63b8ff" stroke="#63b8ff" points="667.56,-764.51 664.83,-754.28 660.58,-763.98 667.56,-764.51"/>
</a>
</g>
</g>
<!-- Node3 -->
<g id="Node000003" class="node">
<title>Node3</title>
<g id="a_Node000003"><a xlink:href="__Ldtob_8c.html#a7cc858157b66e15c831ad085113729ae" target="_top" xlink:title=" ">
<polygon fill="white" stroke="#666666" points="386,-1106 337,-1106 337,-1087 386,-1087 386,-1106"/>
<text text-anchor="middle" x="361.5" y="-1094" font-family="Helvetica,sans-Serif" font-size="10.00">_Ldtob</text>
</a>
</g>
</g>
<!-- Node1&#45;&gt;Node3 -->
<g id="edge6_Node000001_Node000003" class="edge">
<title>Node1&#45;&gt;Node3</title>
<g id="a_edge6_Node000001_Node000003"><a xlink:title=" ">
<path fill="none" stroke="#63b8ff" d="M663.94,-764.01C658.8,-823.61 640.35,-1001.64 601,-1041.5 585.77,-1056.92 443.36,-1082.69 386.14,-1092.52"/>
<polygon fill="#63b8ff" stroke="#63b8ff" points="667.43,-764.29 664.78,-754.03 660.46,-763.71 667.43,-764.29"/>
</a>
</g>
</g>
<!-- Node71 -->
<g id="Node000071" class="node">
<title>Node71</title>
<g id="a_Node000071"><a xlink:href="__Litob_8c.html#aaaba3b0ab7920d422a61fe9e22600dd0" target="_top" xlink:title=" ">
<polygon fill="white" stroke="#666666" points="564,-1032 518,-1032 518,-1013 564,-1013 564,-1032"/>
<text text-anchor="middle" x="541" y="-1020" font-family="Helvetica,sans-Serif" font-size="10.00">_Litob</text>
</a>
</g>
</g>
<!-- Node1&#45;&gt;Node71 -->
<g id="edge7_Node000001_Node000071" class="edge">
<title>Node1&#45;&gt;Node71</title>
<g id="a_edge7_Node000001_Node000071"><a xlink:title=" ">
<path fill="none" stroke="#63b8ff" d="M663.12,-764.27C656.2,-818.75 634.39,-969.29 601,-1004.5 591.49,-1014.52 576.59,-1019.02 564.14,-1021.01"/>
<polygon fill="#63b8ff" stroke="#63b8ff" points="666.62,-764.54 664.37,-754.18 659.67,-763.68 666.62,-764.54"/>
</a>
</g>
</g>
<!-- Node72 -->
<g id="Node000072" class="node">
<title>Node72</title>
<g id="a_Node000072"><a xlink:href="mixer_8c.html#a7938a510708c526174e6649526385dee" target="_top" xlink:title=" ">
<polygon fill="white" stroke="#666666" points="590,-995 492,-995 492,-976 590,-976 590,-995"/>
<text text-anchor="middle" x="541" y="-983" font-family="Helvetica,sans-Serif" font-size="10.00">aADPCMdecImpl</text>
</a>
</g>
</g>
<!-- Node1&#45;&gt;Node72 -->
<g id="edge9_Node000001_Node000072" class="edge">
<title>Node1&#45;&gt;Node72</title>
<g id="a_edge9_Node000001_Node000072"><a xlink:title=" ">
<path fill="none" stroke="#63b8ff" d="M665.71,-764.12C665.06,-807.11 657.35,-910.32 601,-967.5 597.62,-970.93 593.6,-973.71 589.28,-975.97"/>
<polygon fill="#63b8ff" stroke="#63b8ff" points="669.21,-764.12 665.74,-754.11 662.21,-764.1 669.21,-764.12"/>
</a>
</g>
</g>
<!-- Node73 -->
<g id="Node000073" class="node">
<title>Node73</title>
<g id="a_Node000073"><a xlink:href="mixer_8c.html#ae6ecfb0de822ee485b5af25a1f673932" target="_top" xlink:title=" ">
<polygon fill="white" stroke="#666666" points="586.5,-958 495.5,-958 495.5,-939 586.5,-939 586.5,-958"/>
<text text-anchor="middle" x="541" y="-946" font-family="Helvetica,sans-Serif" font-size="10.00">aDuplicateImpl</text>
</a>
</g>
</g>
<!-- Node1&#45;&gt;Node73 -->
<g id="edge10_Node000001_Node000073" class="edge">
<title>Node1&#45;&gt;Node73</title>
<g id="a_edge10_Node000001_Node000073"><a xlink:title=" ">
<path fill="none" stroke="#63b8ff" d="M664.34,-764.42C661.05,-802.23 648.52,-884.74 601,-930.5 596.91,-934.44 591.99,-937.52 586.75,-939.92"/>
<polygon fill="#63b8ff" stroke="#63b8ff" points="667.85,-764.44 665.09,-754.21 660.87,-763.92 667.85,-764.44"/>
</a>
</g>
</g>
<!-- Node74 -->
<g id="Node000074" class="node">
<title>Node74</title>
<g id="a_Node000074"><a xlink:href="mixer_8c.html#a49fd8ddd11623cb73bef4300d8e796e1" target="_top" xlink:title=" ">
<polygon fill="white" stroke="#666666" points="575.5,-921 506.5,-921 506.5,-902 575.5,-902 575.5,-921"/>
<text text-anchor="middle" x="541" y="-909" font-family="Helvetica,sans-Serif" font-size="10.00">aFilterImpl</text>
</a>
</g>
</g>
<!-- Node1&#45;&gt;Node74 -->
<g id="edge11_Node000001_Node000074" class="edge">
<title>Node1&#45;&gt;Node74</title>
<g id="a_edge11_Node000001_Node000074"><a xlink:title=" ">
<path fill="none" stroke="#63b8ff" d="M662.37,-764.38C656.3,-796.25 639.94,-858.71 601,-893.5 593.97,-899.78 584.8,-903.87 575.8,-906.53"/>
<polygon fill="#63b8ff" stroke="#63b8ff" points="665.88,-764.58 664.16,-754.13 658.99,-763.38 665.88,-764.58"/>
</a>
</g>
</g>
<!-- Node75 -->
<g id="Node000075" class="node">
<title>Node75</title>
<g id="a_Node000075"><a xlink:href="mixer_8c.html#a085bc9a3483aa8e58ee35e81d332228b" target="_top" xlink:title=" ">
<polygon fill="white" stroke="#666666" points="593,-884 489,-884 489,-865 593,-865 593,-884"/>
<text text-anchor="middle" x="541" y="-872" font-family="Helvetica,sans-Serif" font-size="10.00">aLoadADPCMImpl</text>
</a>
</g>
</g>
<!-- Node1&#45;&gt;Node75 -->
<g id="edge12_Node000001_Node000075" class="edge">
<title>Node1&#45;&gt;Node75</title>
<g id="a_edge12_Node000001_Node000075"><a xlink:title=" ">
<path fill="none" stroke="#63b8ff" d="M659.32,-764.03C650.42,-789.08 631.59,-832.16 601,-856.5 596.73,-859.9 591.81,-862.66 586.69,-864.9"/>
<polygon fill="#63b8ff" stroke="#63b8ff" points="662.75,-764.82 662.63,-754.22 656.12,-762.58 662.75,-764.82"/>
</a>
</g>
</g>
<!-- Node76 -->
<g id="Node000076" class="node">
<title>Node76</title>
<g id="a_Node000076"><a xlink:href="mixer_8c.html#a3f344b56668f8ec957d0e9cf6f8a8181" target="_top" xlink:title=" ">
<polygon fill="white" stroke="#666666" points="589.5,-847 492.5,-847 492.5,-828 589.5,-828 589.5,-847"/>
<text text-anchor="middle" x="541" y="-835" font-family="Helvetica,sans-Serif" font-size="10.00">aLoadBufferImpl</text>
</a>
</g>
</g>
<!-- Node1&#45;&gt;Node76 -->
<g id="edge13_Node000001_Node000076" class="edge">
<title>Node1&#45;&gt;Node76</title>
<g id="a_edge13_Node000001_Node000076"><a xlink:title=" ">
<path fill="none" stroke="#63b8ff" d="M654.32,-762.61C642.91,-779.64 623.69,-804.69 601,-819.5 595.8,-822.9 589.93,-825.68 583.95,-827.95"/>
<polygon fill="#63b8ff" stroke="#63b8ff" points="657.34,-764.38 659.83,-754.08 651.46,-760.58 657.34,-764.38"/>
</a>
</g>
</g>
<!-- Node77 -->
<g id="Node000077" class="node">
<title>Node77</title>
<g id="a_Node000077"><a xlink:href="mixer_8c.html#ab209a67ca3106bf0590ffc4790bc14a2" target="_top" xlink:title=" ">
<polygon fill="white" stroke="#666666" points="587.5,-810 494.5,-810 494.5,-791 587.5,-791 587.5,-810"/>
<text text-anchor="middle" x="541" y="-798" font-family="Helvetica,sans-Serif" font-size="10.00">aResampleImpl</text>
</a>
</g>
</g>
<!-- Node1&#45;&gt;Node77 -->
<g id="edge14_Node000001_Node000077" class="edge">
<title>Node1&#45;&gt;Node77</title>
<g id="a_edge14_Node000001_Node000077"><a xlink:title=" ">
<path fill="none" stroke="#63b8ff" d="M642.65,-759.75C630.62,-767.32 615.41,-776.16 601,-782.5 593.75,-785.69 585.76,-788.54 578.06,-790.98"/>
<polygon fill="#63b8ff" stroke="#63b8ff" points="644.65,-762.63 651.17,-754.28 640.86,-756.74 644.65,-762.63"/>
</a>
</g>
</g>
<!-- Node78 -->
<g id="Node000078" class="node">
<title>Node78</title>
<g id="a_Node000078"><a xlink:href="mixer_8c.html#a934e7d92ee6fe6fa60f621496471d4ec" target="_top" xlink:title=" ">
<polygon fill="white" stroke="#666666" points="578.5,-773 503.5,-773 503.5,-754 578.5,-754 578.5,-773"/>
<text text-anchor="middle" x="541" y="-761" font-family="Helvetica,sans-Serif" font-size="10.00">aS8DecImpl</text>
</a>
</g>
</g>
<!-- Node1&#45;&gt;Node78 -->
<g id="edge15_Node000001_Node000078" class="edge">
<title>Node1&#45;&gt;Node78</title>
<g id="a_edge15_Node000001_Node000078"><a xlink:title=" ">
<path fill="none" stroke="#63b8ff" d="M626.7,-750.47C611.44,-752.82 594,-755.5 578.93,-757.82"/>
<polygon fill="#63b8ff" stroke="#63b8ff" points="627.5,-753.89 636.86,-748.91 626.44,-746.97 627.5,-753.89"/>
</a>
</g>
</g>
<!-- Node79 -->
<g id="Node000079" class="node">
<title>Node79</title>
<g id="a_Node000079"><a xlink:href="mixer_8c.html#aee48bceba268e2ef25d6b8bfaae71400" target="_top" xlink:title=" ">
<polygon fill="white" stroke="#666666" points="590,-736 492,-736 492,-717 590,-717 590,-736"/>
<text text-anchor="middle" x="541" y="-724" font-family="Helvetica,sans-Serif" font-size="10.00">aSaveBufferImpl</text>
</a>
</g>
</g>
<!-- Node1&#45;&gt;Node79 -->
<g id="edge16_Node000001_Node000079" class="edge">
<title>Node1&#45;&gt;Node79</title>
<g id="a_edge16_Node000001_Node000079"><a xlink:title=" ">
<path fill="none" stroke="#63b8ff" d="M626.67,-738.84C615.15,-737.16 602.38,-735.3 590.32,-733.54"/>
<polygon fill="#63b8ff" stroke="#63b8ff" points="626.46,-742.35 636.86,-740.33 627.47,-735.42 626.46,-742.35"/>
</a>
</g>
</g>
<!-- Node80 -->
<g id="Node000080" class="node">
<title>Node80</title>
<g id="a_Node000080"><a xlink:href="start__game_8c.html#a2e086956a1c0bd2f6ac8111273c3cb29" target="_top" xlink:title=" ">
<polygon fill="white" stroke="#666666" points="597.5,-699 484.5,-699 484.5,-680 597.5,-680 597.5,-699"/>
<text text-anchor="middle" x="541" y="-687" font-family="Helvetica,sans-Serif" font-size="10.00">assign_player_slots</text>
</a>
</g>
</g>
<!-- Node1&#45;&gt;Node80 -->
<g id="edge17_Node000001_Node000080" class="edge">
<title>Node1&#45;&gt;Node80</title>
<g id="a_edge17_Node000001_Node000080"><a xlink:title=" ">
<path fill="none" stroke="#63b8ff" d="M641.45,-729.58C629.56,-722.6 614.83,-714.51 601,-708.5 592.91,-704.98 583.95,-701.77 575.5,-699.02"/>
<polygon fill="#63b8ff" stroke="#63b8ff" points="639.92,-732.75 650.3,-734.88 643.52,-726.74 639.92,-732.75"/>
</a>
</g>
</g>
<!-- Node86 -->
<g id="Node000086" class="node">
<title>Node86</title>
<g id="a_Node000086"><a xlink:href="mixer_8c.html#a05ec48171b802632d2172ccc1c39069e" target="_top" xlink:title=" ">
<polygon fill="white" stroke="#666666" points="590,-662 492,-662 492,-643 590,-643 590,-662"/>
<text text-anchor="middle" x="541" y="-650" font-family="Helvetica,sans-Serif" font-size="10.00">aUnkCmd19Impl</text>
</a>
</g>
</g>
<!-- Node1&#45;&gt;Node86 -->
<g id="edge19_Node000001_Node000086" class="edge">
<title>Node1&#45;&gt;Node86</title>
<g id="a_edge19_Node000001_Node000086"><a xlink:title=" ">
<path fill="none" stroke="#63b8ff" d="M653.65,-726.23C642.07,-709.73 623,-685.9 601,-671.5 595.15,-667.67 588.46,-664.56 581.75,-662.05"/>
<polygon fill="#63b8ff" stroke="#63b8ff" points="651.07,-728.66 659.57,-734.97 656.86,-724.73 651.07,-728.66"/>
</a>
</g>
</g>
<!-- Node87 -->
<g id="Node000087" class="node">
<title>Node87</title>
<g id="a_Node000087"><a xlink:href="memory_8c.html#a56dd580b5f9113b83709d1f11181e6a7" target="_top" xlink:title=" ">
<polygon fill="white" stroke="#666666" points="583,-625 499,-625 499,-606 583,-606 583,-625"/>
<text text-anchor="middle" x="541" y="-613" font-family="Helvetica,sans-Serif" font-size="10.00">dma_textures</text>
</a>
</g>
</g>
<!-- Node1&#45;&gt;Node87 -->
<g id="edge20_Node000001_Node000087" class="edge">
<title>Node1&#45;&gt;Node87</title>
<g id="a_edge20_Node000001_Node000087"><a xlink:title=" ">
<path fill="none" stroke="#63b8ff" d="M659.17,-725.38C650.1,-700.86 631.09,-658.63 601,-634.5 595.71,-630.26 589.45,-626.95 583.02,-624.38"/>
<polygon fill="#63b8ff" stroke="#63b8ff" points="655.93,-726.72 662.55,-734.99 662.53,-724.39 655.93,-726.72"/>
</a>
</g>
</g>
<!-- Node146 -->
<g id="Node000146" class="node">
<title>Node146</title>
<g id="a_Node000146"><a xlink:href="classModelLoader.html#a4be93e4e4c67207ac012298c9388c6d7" target="_top" xlink:title=" ">
<polygon fill="white" stroke="#666666" points="601,-496 481,-496 481,-477 601,-477 601,-496"/>
<text text-anchor="middle" x="541" y="-484" font-family="Helvetica,sans-Serif" font-size="10.00">ModelLoader::Extract</text>
</a>
</g>
</g>
<!-- Node1&#45;&gt;Node146 -->
<g id="edge36_Node000001_Node000146" class="edge">
<title>Node1&#45;&gt;Node146</title>
<g id="a_edge36_Node000001_Node000146"><a xlink:title=" ">
<path fill="none" stroke="#63b8ff" d="M657.6,-725.26C645.87,-696.98 622.87,-642.65 601,-597.5 582.55,-559.4 558.18,-515.3 547.46,-496.17"/>
<polygon fill="#63b8ff" stroke="#63b8ff" points="654.47,-726.85 661.52,-734.75 660.94,-724.18 654.47,-726.85"/>
</a>
</g>
</g>
<!-- Node148 -->
<g id="Node000148" class="node">
<title>Node148</title>
<g id="a_Node000148"><a xlink:href="kart__dma_8c.html#a637d0acc4b8a5146a83b664d348b21f2" target="_top" xlink:title=" ">
<polygon fill="white" stroke="#666666" points="591.5,-366 490.5,-366 490.5,-347 591.5,-347 591.5,-366"/>
<text text-anchor="middle" x="541" y="-354" font-family="Helvetica,sans-Serif" font-size="10.00">load_kart_palette</text>
</a>
</g>
</g>
<!-- Node1&#45;&gt;Node148 -->
<g id="edge38_Node000001_Node000148" class="edge">
<title>Node1&#45;&gt;Node148</title>
<g id="a_edge38_Node000001_Node000148"><a xlink:title=" ">
<path fill="none" stroke="#63b8ff" d="M662.63,-724.57C655.62,-678.43 635.58,-561.15 601,-468.5 586.17,-428.76 560.17,-385.28 548.27,-366.29"/>
<polygon fill="#63b8ff" stroke="#63b8ff" points="659.21,-725.33 664.14,-734.7 666.13,-724.3 659.21,-725.33"/>
</a>
</g>
</g>
<!-- Node154 -->
<g id="Node000154" class="node">
<title>Node154</title>
<g id="a_Node000154"><a xlink:href="memory_8c.html#a3617f7116e3cc000b7ebf38ad3bae48f" target="_top" xlink:title=" ">
<polygon fill="white" stroke="#666666" points="599,-255 483,-255 483,-236 599,-236 599,-255"/>
<text text-anchor="middle" x="541" y="-243" font-family="Helvetica,sans-Serif" font-size="10.00">load_lakitu_tlut_x64</text>
</a>
</g>
</g>
<!-- Node1&#45;&gt;Node154 -->
<g id="edge41_Node000001_Node000154" class="edge">
<title>Node1&#45;&gt;Node154</title>
<g id="a_edge41_Node000001_Node000154"><a xlink:title=" ">
<path fill="none" stroke="#63b8ff" d="M665.17,-724.68C663.57,-664.54 654.36,-479.63 601,-338.5 588.42,-305.23 562.98,-271.21 550,-255.1"/>
<polygon fill="#63b8ff" stroke="#63b8ff" points="661.68,-725.07 665.4,-734.99 668.67,-724.92 661.68,-725.07"/>
</a>
</g>
</g>
<!-- Node167 -->
<g id="Node000167" class="node">
<title>Node167</title>
<g id="a_Node000167"><a xlink:href="kart__dma_8c.html#a7fcac9592dc14342151b0dcc0f6b0746" target="_top" xlink:title="read data from ROM and write it to the given virtual address">
<polygon fill="white" stroke="#666666" points="597,-180.5 485,-180.5 485,-150.5 597,-150.5 597,-180.5"/>
<text text-anchor="start" x="493" y="-168.5" font-family="Helvetica,sans-Serif" font-size="10.00">load_wheel_palette</text>
<text text-anchor="middle" x="541" y="-157.5" font-family="Helvetica,sans-Serif" font-size="10.00">_non_blocking</text>
</a>
</g>
</g>
<!-- Node1&#45;&gt;Node167 -->
<g id="edge46_Node000001_Node000167" class="edge">
<title>Node1&#45;&gt;Node167</title>
<g id="a_edge46_Node000001_Node000167"><a xlink:title=" ">
<path fill="none" stroke="#63b8ff" d="M664.67,-724.43C660.93,-640.56 643.99,-318.26 601,-227.5 592.1,-208.7 575.28,-191.92 561.88,-180.57"/>
<polygon fill="#63b8ff" stroke="#63b8ff" points="661.18,-724.79 665.11,-734.63 668.17,-724.49 661.18,-724.79"/>
</a>
</g>
</g>
<!-- Node175 -->
<g id="Node000175" class="node">
<title>Node175</title>
<g id="a_Node000175"><a xlink:href="sprintf_8c.html#a6151eb738d6a0c5af66836e8a50fad9e" target="_top" xlink:title=" ">
<polygon fill="white" stroke="#666666" points="242,-211 168,-211 168,-192 242,-192 242,-211"/>
<text text-anchor="middle" x="205" y="-199" font-family="Helvetica,sans-Serif" font-size="10.00">proutSprintf</text>
</a>
</g>
</g>
<!-- Node1&#45;&gt;Node175 -->
<g id="edge48_Node000001_Node000175" class="edge">
<title>Node1&#45;&gt;Node175</title>
<g id="a_edge48_Node000001_Node000175"><a xlink:title=" ">
<path fill="none" stroke="#63b8ff" d="M664.73,-724.78C660.67,-625.82 640.5,-186.33 601,-141.5 553.24,-87.29 342.54,-72.03 278,-104.5 240.9,-123.16 218.12,-170.98 209.7,-191.69"/>
<polygon fill="#63b8ff" stroke="#63b8ff" points="661.23,-725.04 665.13,-734.89 668.23,-724.75 661.23,-725.04"/>
</a>
</g>
</g>
<!-- Node176 -->
<g id="Node000176" class="node">
<title>Node176</title>
<g id="a_Node000176"><a xlink:href="packets_8c.html#af9536eb7dd70435bff139db61e546862" target="_top" xlink:title=" ">
<polygon fill="white" stroke="#666666" points="588.5,-56 493.5,-56 493.5,-37 588.5,-37 588.5,-56"/>
<text text-anchor="middle" x="541" y="-44" font-family="Helvetica,sans-Serif" font-size="10.00">send_str_packet</text>
</a>
</g>
</g>
<!-- Node1&#45;&gt;Node176 -->
<g id="edge50_Node000001_Node000176" class="edge">
<title>Node1&#45;&gt;Node176</title>
<g id="a_edge50_Node000001_Node000176"><a xlink:title=" ">
<path fill="none" stroke="#63b8ff" d="M664.81,-724.61C660.99,-618.77 641.09,-124.35 601,-70.5 596.31,-64.2 589.69,-59.55 582.56,-56.12"/>
<polygon fill="#63b8ff" stroke="#63b8ff" points="661.32,-724.97 665.17,-734.84 668.32,-724.72 661.32,-724.97"/>
</a>
</g>
</g>
<!-- Node2&#45;&gt;Node3 -->
<g id="edge2_Node000002_Node000003" class="edge">
<title>Node2&#45;&gt;Node3</title>
<g id="a_edge2_Node000002_Node000003"><a xlink:title=" ">
<path fill="none" stroke="#63b8ff" d="M505.42,-1098.11C470.3,-1097.71 416.84,-1097.11 386.23,-1096.77"/>
<polygon fill="#63b8ff" stroke="#63b8ff" points="505.65,-1101.61 515.69,-1098.23 505.73,-1094.61 505.65,-1101.61"/>
</a>
</g>
</g>
<!-- Node4 -->
<g id="Node000004" class="node">
<title>Node4</title>
<g id="a_Node000004"><a xlink:href="__Printf_8c.html#ad73a5847f2d7c9de14cc2723da86bf45" target="_top" xlink:title=" ">
<polygon fill="white" stroke="#666666" points="230,-1068 180,-1068 180,-1049 230,-1049 230,-1068"/>
<text text-anchor="middle" x="205" y="-1056" font-family="Helvetica,sans-Serif" font-size="10.00">_Putfld</text>
</a>
</g>
</g>
<!-- Node3&#45;&gt;Node4 -->
<g id="edge3_Node000003_Node000004" class="edge">
<title>Node3&#45;&gt;Node4</title>
<g id="a_edge3_Node000003_Node000004"><a xlink:title=" ">
<path fill="none" stroke="#63b8ff" d="M326.93,-1088.24C297.72,-1081.06 256.09,-1070.82 230.08,-1064.42"/>
<polygon fill="#63b8ff" stroke="#63b8ff" points="326.15,-1091.66 336.7,-1090.65 327.82,-1084.86 326.15,-1091.66"/>
</a>
</g>
</g>
<!-- Node5 -->
<g id="Node000005" class="node">
<title>Node5</title>
<g id="a_Node000005"><a xlink:href="__Printf_8c.html#a39bb05c90efce6c6790c5d58d271d72d" target="_top" xlink:title=" ">
<polygon fill="#fff0f0" stroke="red" points="132,-951 84,-951 84,-932 132,-932 132,-951"/>
<text text-anchor="middle" x="108" y="-939" font-family="Helvetica,sans-Serif" font-size="10.00">_Printf</text>
</a>
</g>
</g>
<!-- Node4&#45;&gt;Node5 -->
<g id="edge4_Node000004_Node000005" class="edge">
<title>Node4&#45;&gt;Node5</title>
<g id="a_edge4_Node000004_Node000005"><a xlink:title=" ">
<path fill="none" stroke="#63b8ff" d="M189.79,-1041C169.5,-1016.01 132.91,-970.95 116.88,-951.21"/>
<polygon fill="#63b8ff" stroke="#63b8ff" points="187.21,-1043.37 196.23,-1048.93 192.64,-1038.96 187.21,-1043.37"/>
</a>
</g>
</g>
<!-- Node67 -->
<g id="Node000067" class="node">
<title>Node67</title>
<g id="a_Node000067"><a xlink:href="sprintf_8c.html#a353b2f73aed82bd1eb8cc2b34ec936d9" target="_top" xlink:title=" ">
<polygon fill="#fff0f0" stroke="red" points="48,-698 0,-698 0,-679 48,-679 48,-698"/>
<text text-anchor="middle" x="24" y="-686" font-family="Helvetica,sans-Serif" font-size="10.00">sprintf</text>
</a>
</g>
</g>
<!-- Node5&#45;&gt;Node67 -->
<g id="edge5_Node000005_Node000067" class="edge">
<title>Node5&#45;&gt;Node67</title>
<g id="a_edge5_Node000005_Node000067"><a xlink:title=" ">
<path fill="none" stroke="#63b8ff" d="M100.73,-922.15C84.26,-871.35 40.22,-735.47 28.12,-698.12"/>
<polygon fill="#63b8ff" stroke="#63b8ff" points="97.47,-923.46 103.89,-931.89 104.13,-921.3 97.47,-923.46"/>
</a>
</g>
</g>
<!-- Node71&#45;&gt;Node4 -->
<g id="edge8_Node000071_Node000004" class="edge">
<title>Node71&#45;&gt;Node4</title>
<g id="a_edge8_Node000071_Node000004"><a xlink:title=" ">
<path fill="none" stroke="#63b8ff" d="M507.94,-1029.04C489.58,-1032.59 466.07,-1036.78 445,-1039.5 366.77,-1049.58 273.4,-1055.15 230.17,-1057.36"/>
<polygon fill="#63b8ff" stroke="#63b8ff" points="508.69,-1032.46 517.83,-1027.1 507.34,-1025.59 508.69,-1032.46"/>
</a>
</g>
</g>
<!-- Node81 -->
<g id="Node000081" class="node">
<title>Node81</title>
<g id="a_Node000081"><a xlink:href="networking_8c.html#ae4e16a7c6d8ea252f0434363561595e1" target="_top" xlink:title=" ">
<polygon fill="#fff0f0" stroke="red" points="420.5,-1030 302.5,-1030 302.5,-1011 420.5,-1011 420.5,-1030"/>
<text text-anchor="middle" x="361.5" y="-1018" font-family="Helvetica,sans-Serif" font-size="10.00">handleReceivedData</text>
</a>
</g>
</g>
<!-- Node80&#45;&gt;Node81 -->
<g id="edge18_Node000080_Node000081" class="edge">
<title>Node80&#45;&gt;Node81</title>
<g id="a_edge18_Node000080_Node000081"><a xlink:title=" ">
<path fill="none" stroke="#63b8ff" d="M484.24,-705.07C483.09,-706.14 482.01,-707.28 481,-708.5 397.41,-809.63 532.82,-904.03 445,-1001.5 438.51,-1008.71 429.88,-1013.46 420.65,-1016.55"/>
<polygon fill="#63b8ff" stroke="#63b8ff" points="486.6,-707.69 492.68,-699.02 482.51,-702.01 486.6,-707.69"/>
</a>
</g>
</g>
<!-- Node88 -->
<g id="Node000088" class="node">
<title>Node88</title>
<g id="a_Node000088"><a xlink:href="classMarioRaceway.html#a2facbdeb01e8549e918dfbeb706b0423" target="_top" xlink:title=" ">
<polygon fill="white" stroke="#666666" points="442,-992.5 281,-992.5 281,-962.5 442,-962.5 442,-992.5"/>
<text text-anchor="start" x="289" y="-980.5" font-family="Helvetica,sans-Serif" font-size="10.00">MarioRaceway::CreditsSpawn</text>
<text text-anchor="middle" x="361.5" y="-969.5" font-family="Helvetica,sans-Serif" font-size="10.00">Actors</text>
</a>
</g>
</g>
<!-- Node87&#45;&gt;Node88 -->
<g id="edge21_Node000087_Node000088" class="edge">
<title>Node87&#45;&gt;Node88</title>
<g id="a_edge21_Node000087_Node000088"><a xlink:title=" ">
<path fill="none" stroke="#63b8ff" d="M489.64,-626.81C486.4,-628.95 483.46,-631.49 481,-634.5 390.64,-744.92 536.92,-844.38 445,-953.5 442.12,-956.92 438.78,-959.87 435.13,-962.41"/>
<polygon fill="#63b8ff" stroke="#63b8ff" points="491.54,-629.77 498.77,-622.03 488.29,-623.57 491.54,-629.77"/>
</a>
</g>
</g>
<!-- Node89 -->
<g id="Node000089" class="node">
<title>Node89</title>
<g id="a_Node000089"><a xlink:href="classMooMooFarm.html#a0143bd29a9784731fd49a84304fec835" target="_top" xlink:title=" ">
<polygon fill="white" stroke="#666666" points="439,-944.5 284,-944.5 284,-914.5 439,-914.5 439,-944.5"/>
<text text-anchor="start" x="292" y="-932.5" font-family="Helvetica,sans-Serif" font-size="10.00">MooMooFarm::CreditsSpawn</text>
<text text-anchor="middle" x="361.5" y="-921.5" font-family="Helvetica,sans-Serif" font-size="10.00">Actors</text>
</a>
</g>
</g>
<!-- Node87&#45;&gt;Node89 -->
<g id="edge22_Node000087_Node000089" class="edge">
<title>Node87&#45;&gt;Node89</title>
<g id="a_edge22_Node000087_Node000089"><a xlink:title=" ">
<path fill="none" stroke="#63b8ff" d="M489.71,-626.87C486.45,-629 483.49,-631.52 481,-634.5 403.13,-727.77 524.19,-813.35 445,-905.5 442.08,-908.89 438.72,-911.82 435.05,-914.35"/>
<polygon fill="#63b8ff" stroke="#63b8ff" points="491.61,-629.82 498.86,-622.1 488.38,-623.61 491.61,-629.82"/>
</a>
</g>
</g>
<!-- Node90 -->
<g id="Node000090" class="node">
<title>Node90</title>
<g id="a_Node000090"><a xlink:href="code__80057C60_8c.html#a07b43c07e7afcf3fcccf63622bb991e1" target="_top" xlink:title=" ">
<polygon fill="#fff0f0" stroke="red" points="407.5,-896 315.5,-896 315.5,-877 407.5,-877 407.5,-896"/>
<text text-anchor="middle" x="361.5" y="-884" font-family="Helvetica,sans-Serif" font-size="10.00">func_8005D290</text>
</a>
</g>
</g>
<!-- Node87&#45;&gt;Node90 -->
<g id="edge23_Node000087_Node000090" class="edge">
<title>Node87&#45;&gt;Node90</title>
<g id="a_edge23_Node000087_Node000090"><a xlink:title=" ">
<path fill="none" stroke="#63b8ff" d="M489.78,-626.93C486.51,-629.04 483.52,-631.54 481,-634.5 412.99,-714.22 516.34,-790.75 445,-867.5 435.39,-877.83 421.39,-883.09 407.64,-885.62"/>
<polygon fill="#63b8ff" stroke="#63b8ff" points="491.68,-629.88 498.96,-622.18 488.47,-623.66 491.68,-629.88"/>
</a>
</g>
</g>
<!-- Node134 -->
<g id="Node000134" class="node">
<title>Node134</title>
<g id="a_Node000134"><a xlink:href="actors_8c.html#a142a32371ea62d0303702286b839bdfd" target="_top" xlink:title="Loads actor textures, course specific actor textures. Calls to spawn_course_vehicles and place_course...">
<polygon fill="#fff0f0" stroke="red" points="420,-858.5 303,-858.5 303,-828.5 420,-828.5 420,-858.5"/>
<text text-anchor="start" x="311" y="-846.5" font-family="Helvetica,sans-Serif" font-size="10.00">init_actors_and_load</text>
<text text-anchor="middle" x="361.5" y="-835.5" font-family="Helvetica,sans-Serif" font-size="10.00">_textures</text>
</a>
</g>
</g>
<!-- Node87&#45;&gt;Node134 -->
<g id="edge24_Node000087_Node000134" class="edge">
<title>Node87&#45;&gt;Node134</title>
<g id="a_edge24_Node000087_Node000134"><a xlink:title=" ">
<path fill="none" stroke="#63b8ff" d="M489.76,-627.13C486.52,-629.2 483.54,-631.63 481,-634.5 425.41,-697.16 501.48,-757.64 445,-819.5 438.36,-826.77 429.66,-831.89 420.41,-835.48"/>
<polygon fill="#63b8ff" stroke="#63b8ff" points="491.54,-630.15 498.83,-622.46 488.34,-623.92 491.54,-630.15"/>
</a>
</g>
</g>
<!-- Node135 -->
<g id="Node000135" class="node">
<title>Node135</title>
<g id="a_Node000135"><a xlink:href="classBowsersCastle.html#a9f1a3812301d228a8164a9f30a963c0f" target="_top" xlink:title=" ">
<polygon fill="white" stroke="#666666" points="441,-810 282,-810 282,-791 441,-791 441,-810"/>
<text text-anchor="middle" x="361.5" y="-798" font-family="Helvetica,sans-Serif" font-size="10.00">BowsersCastle::LoadTextures</text>
</a>
</g>
</g>
<!-- Node87&#45;&gt;Node135 -->
<g id="edge25_Node000087_Node000135" class="edge">
<title>Node87&#45;&gt;Node135</title>
<g id="a_edge25_Node000087_Node000135"><a xlink:title=" ">
<path fill="none" stroke="#63b8ff" d="M489.76,-627.35C486.54,-629.37 483.57,-631.74 481,-634.5 434.91,-684.08 493.43,-735.2 445,-782.5 441.64,-785.78 437.84,-788.52 433.75,-790.8"/>
<polygon fill="#63b8ff" stroke="#63b8ff" points="491.42,-630.43 498.73,-622.77 488.24,-624.2 491.42,-630.43"/>
</a>
</g>
</g>
<!-- Node136 -->
<g id="Node000136" class="node">
<title>Node136</title>
<g id="a_Node000136"><a xlink:href="classDKJungle.html#aa31876372f83263bab7990a89b35c278" target="_top" xlink:title=" ">
<polygon fill="white" stroke="#666666" points="427,-773 296,-773 296,-754 427,-754 427,-773"/>
<text text-anchor="middle" x="361.5" y="-761" font-family="Helvetica,sans-Serif" font-size="10.00">DKJungle::LoadTextures</text>
</a>
</g>
</g>
<!-- Node87&#45;&gt;Node136 -->
<g id="edge26_Node000087_Node000136" class="edge">
<title>Node87&#45;&gt;Node136</title>
<g id="a_edge26_Node000087_Node000136"><a xlink:title=" ">
<path fill="none" stroke="#63b8ff" d="M489.55,-627.84C486.45,-629.75 483.55,-631.95 481,-634.5 444.29,-671.13 483.44,-710.68 445,-745.5 439.78,-750.22 433.62,-753.81 427.06,-756.52"/>
<polygon fill="#63b8ff" stroke="#63b8ff" points="491.4,-630.83 498.75,-623.2 488.24,-624.58 491.4,-630.83"/>
</a>
</g>
</g>
<!-- Node137 -->
<g id="Node000137" class="node">
<title>Node137</title>
<g id="a_Node000137"><a xlink:href="classFrappeSnowland.html#a481cff704767cc9b8c1fafa9422f236e" target="_top" xlink:title=" ">
<polygon fill="white" stroke="#666666" points="445,-736 278,-736 278,-717 445,-717 445,-736"/>
<text text-anchor="middle" x="361.5" y="-724" font-family="Helvetica,sans-Serif" font-size="10.00">FrappeSnowland::LoadTextures</text>
</a>
</g>
</g>
<!-- Node87&#45;&gt;Node137 -->
<g id="edge27_Node000087_Node000137" class="edge">
<title>Node87&#45;&gt;Node137</title>
<g id="a_edge27_Node000087_Node000137"><a xlink:title=" ">
<path fill="none" stroke="#63b8ff" d="M489.79,-628.34C486.65,-630.13 483.68,-632.17 481,-634.5 453.38,-658.47 473.75,-685.89 445,-708.5 440.74,-711.85 435.98,-714.61 430.97,-716.88"/>
<polygon fill="#63b8ff" stroke="#63b8ff" points="491.5,-631.4 499,-623.91 488.47,-625.09 491.5,-631.4"/>
</a>
</g>
</g>
<!-- Node138 -->
<g id="Node000138" class="node">
<title>Node138</title>
<g id="a_Node000138"><a xlink:href="classHarbour.html#ae71af4091f9fd946071a4cbc2f6f4c7d" target="_top" xlink:title=" ">
<polygon fill="white" stroke="#666666" points="424.5,-699 298.5,-699 298.5,-680 424.5,-680 424.5,-699"/>
<text text-anchor="middle" x="361.5" y="-687" font-family="Helvetica,sans-Serif" font-size="10.00">Harbour::LoadTextures</text>
</a>
</g>
</g>
<!-- Node87&#45;&gt;Node138 -->
<g id="edge28_Node000087_Node000138" class="edge">
<title>Node87&#45;&gt;Node138</title>
<g id="a_edge28_Node000087_Node000138"><a xlink:title=" ">
<path fill="none" stroke="#63b8ff" d="M491.66,-628.86C487.95,-630.55 484.35,-632.42 481,-634.5 461.5,-646.6 465.06,-660.36 445,-671.5 438.72,-674.99 431.82,-677.8 424.77,-680.07"/>
<polygon fill="#63b8ff" stroke="#63b8ff" points="493.08,-632.07 501.03,-625.06 490.44,-625.58 493.08,-632.07"/>
</a>
</g>
</g>
<!-- Node139 -->
<g id="Node000139" class="node">
<title>Node139</title>
<g id="a_Node000139"><a xlink:href="classKalimariDesert.html#ad675f272a68b7acc7407d6e94a5f75d8" target="_top" xlink:title=" ">
<polygon fill="white" stroke="#666666" points="442,-662 281,-662 281,-643 442,-643 442,-662"/>
<text text-anchor="middle" x="361.5" y="-650" font-family="Helvetica,sans-Serif" font-size="10.00">KalimariDesert::LoadTextures</text>
</a>
</g>
</g>
<!-- Node87&#45;&gt;Node139 -->
<g id="edge29_Node000087_Node000139" class="edge">
<title>Node87&#45;&gt;Node139</title>
<g id="a_edge29_Node000087_Node000139"><a xlink:title=" ">
<path fill="none" stroke="#63b8ff" d="M488.97,-626.14C463.46,-631.45 432.84,-637.84 408.12,-642.99"/>
<polygon fill="#63b8ff" stroke="#63b8ff" points="489.76,-629.55 498.83,-624.08 488.33,-622.7 489.76,-629.55"/>
</a>
</g>
</g>
<!-- Node140 -->
<g id="Node000140" class="node">
<title>Node140</title>
<g id="a_Node000140"><a xlink:href="classLuigiRaceway.html#ad65a591e3b480e1042ed02d522fe51f5" target="_top" xlink:title=" ">
<polygon fill="white" stroke="#666666" points="438.5,-625 284.5,-625 284.5,-606 438.5,-606 438.5,-625"/>
<text text-anchor="middle" x="361.5" y="-613" font-family="Helvetica,sans-Serif" font-size="10.00">LuigiRaceway::LoadTextures</text>
</a>
</g>
</g>
<!-- Node87&#45;&gt;Node140 -->
<g id="edge30_Node000087_Node000140" class="edge">
<title>Node87&#45;&gt;Node140</title>
<g id="a_edge30_Node000087_Node000140"><a xlink:title=" ">
<path fill="none" stroke="#63b8ff" d="M488.39,-615.5C472.84,-615.5 455.44,-615.5 438.65,-615.5"/>
<polygon fill="#63b8ff" stroke="#63b8ff" points="488.83,-619 498.83,-615.5 488.83,-612 488.83,-619"/>
</a>
</g>
</g>
<!-- Node141 -->
<g id="Node000141" class="node">
<title>Node141</title>
<g id="a_Node000141"><a xlink:href="classMarioRaceway.html#af274aaf7967749973cb3794bf5157715" target="_top" xlink:title=" ">
<polygon fill="white" stroke="#666666" points="440.5,-588 282.5,-588 282.5,-569 440.5,-569 440.5,-588"/>
<text text-anchor="middle" x="361.5" y="-576" font-family="Helvetica,sans-Serif" font-size="10.00">MarioRaceway::LoadTextures</text>
</a>
</g>
</g>
<!-- Node87&#45;&gt;Node141 -->
<g id="edge31_Node000087_Node000141" class="edge">
<title>Node87&#45;&gt;Node141</title>
<g id="a_edge31_Node000087_Node000141"><a xlink:title=" ">
<path fill="none" stroke="#63b8ff" d="M488.97,-604.86C463.46,-599.55 432.84,-593.16 408.12,-588.01"/>
<polygon fill="#63b8ff" stroke="#63b8ff" points="488.33,-608.3 498.83,-606.92 489.76,-601.45 488.33,-608.3"/>
</a>
</g>
</g>
<!-- Node142 -->
<g id="Node000142" class="node">
<title>Node142</title>
<g id="a_Node000142"><a xlink:href="classMooMooFarm.html#afdbf85477508254faadb50942c01dfea" target="_top" xlink:title=" ">
<polygon fill="white" stroke="#666666" points="438,-551 285,-551 285,-532 438,-532 438,-551"/>
<text text-anchor="middle" x="361.5" y="-539" font-family="Helvetica,sans-Serif" font-size="10.00">MooMooFarm::LoadTextures</text>
</a>
</g>
</g>
<!-- Node87&#45;&gt;Node142 -->
<g id="edge32_Node000087_Node000142" class="edge">
<title>Node87&#45;&gt;Node142</title>
<g id="a_edge32_Node000087_Node000142"><a xlink:title=" ">
<path fill="none" stroke="#63b8ff" d="M518.13,-600.3C499.46,-587.96 471.51,-570.95 445,-560.5 435.43,-556.73 424.92,-553.6 414.71,-551.04"/>
<polygon fill="#63b8ff" stroke="#63b8ff" points="516.25,-603.25 526.5,-605.93 520.16,-597.44 516.25,-603.25"/>
</a>
</g>
</g>
<!-- Node143 -->
<g id="Node000143" class="node">
<title>Node143</title>
<g id="a_Node000143"><a xlink:href="classRoyalRaceway.html#a74a130b049f8451b9e684b570cd40f99" target="_top" xlink:title=" ">
<polygon fill="white" stroke="#666666" points="440.5,-514 282.5,-514 282.5,-495 440.5,-495 440.5,-514"/>
<text text-anchor="middle" x="361.5" y="-502" font-family="Helvetica,sans-Serif" font-size="10.00">RoyalRaceway::LoadTextures</text>
</a>
</g>
</g>
<!-- Node87&#45;&gt;Node143 -->
<g id="edge33_Node000087_Node000143" class="edge">
<title>Node87&#45;&gt;Node143</title>
<g id="a_edge33_Node000087_Node000143"><a xlink:title=" ">
<path fill="none" stroke="#63b8ff" d="M526.83,-597.87C510.16,-576.85 479.42,-542.21 445,-523.5 437.9,-519.64 430.04,-516.56 422.08,-514.11"/>
<polygon fill="#63b8ff" stroke="#63b8ff" points="524.2,-600.19 533.09,-605.96 529.74,-595.91 524.2,-600.19"/>
</a>
</g>
</g>
<!-- Node144 -->
<g id="Node000144" class="node">
<title>Node144</title>
<g id="a_Node000144"><a xlink:href="classTestCourse.html#ab2e6d294c327e59bacd01425dc4b0498" target="_top" xlink:title=" ">
<polygon fill="white" stroke="#666666" points="431.5,-477 291.5,-477 291.5,-458 431.5,-458 431.5,-477"/>
<text text-anchor="middle" x="361.5" y="-465" font-family="Helvetica,sans-Serif" font-size="10.00">TestCourse::LoadTextures</text>
</a>
</g>
</g>
<!-- Node87&#45;&gt;Node144 -->
<g id="edge34_Node000087_Node000144" class="edge">
<title>Node87&#45;&gt;Node144</title>
<g id="a_edge34_Node000087_Node000144"><a xlink:title=" ">
<path fill="none" stroke="#63b8ff" d="M531.51,-596.63C517.67,-568.11 487.44,-514.38 445,-486.5 439.1,-482.63 432.52,-479.54 425.71,-477.08"/>
<polygon fill="#63b8ff" stroke="#63b8ff" points="528.45,-598.34 535.87,-605.91 534.79,-595.37 528.45,-598.34"/>
</a>
</g>
</g>
<!-- Node145 -->
<g id="Node000145" class="node">
<title>Node145</title>
<g id="a_Node000145"><a xlink:href="classYoshiValley.html#a750e6c4f5f53ec72f3f3d8a1bd5263e9" target="_top" xlink:title=" ">
<polygon fill="white" stroke="#666666" points="432,-440 291,-440 291,-421 432,-421 432,-440"/>
<text text-anchor="middle" x="361.5" y="-428" font-family="Helvetica,sans-Serif" font-size="10.00">YoshiValley::LoadTextures</text>
</a>
</g>
</g>
<!-- Node87&#45;&gt;Node145 -->
<g id="edge35_Node000087_Node000145" class="edge">
<title>Node87&#45;&gt;Node145</title>
<g id="a_edge35_Node000087_Node000145"><a xlink:title=" ">
<path fill="none" stroke="#63b8ff" d="M529.94,-597.01C506.89,-554.78 451.73,-454.49 445,-449.5 439.81,-445.64 433.96,-442.55 427.84,-440.08"/>
<polygon fill="#63b8ff" stroke="#63b8ff" points="526.96,-598.86 534.82,-605.97 533.11,-595.51 526.96,-598.86"/>
</a>
</g>
</g>
<!-- Node147 -->
<g id="Node000147" class="node">
<title>Node147</title>
<g id="a_Node000147"><a xlink:href="classModelLoader.html#ab578b63a565352c0c270bc4ebbc07653" target="_top" xlink:title=" ">
<polygon fill="white" stroke="#666666" points="416,-403 307,-403 307,-384 416,-384 416,-403"/>
<text text-anchor="middle" x="361.5" y="-391" font-family="Helvetica,sans-Serif" font-size="10.00">ModelLoader::Load</text>
</a>
</g>
</g>
<!-- Node146&#45;&gt;Node147 -->
<g id="edge37_Node000146_Node000147" class="edge">
<title>Node146&#45;&gt;Node147</title>
<g id="a_edge37_Node000146_Node000147"><a xlink:title=" ">
<path fill="none" stroke="#63b8ff" d="M523.41,-469.83C505.56,-452.87 475.61,-427.06 445,-412.5 435.97,-408.21 425.92,-404.85 416.03,-402.24"/>
<polygon fill="#63b8ff" stroke="#63b8ff" points="521.1,-472.47 530.71,-476.93 525.98,-467.45 521.1,-472.47"/>
</a>
</g>
</g>
<!-- Node149 -->
<g id="Node000149" class="node">
<title>Node149</title>
<g id="a_Node000149"><a xlink:href="spawn__players_8c.html#a1d1dc4164aa554583609ad0d9bbbf276" target="_top" xlink:title=" ">
<polygon fill="#fff0f0" stroke="red" points="408,-366 315,-366 315,-347 408,-347 408,-366"/>
<text text-anchor="middle" x="361.5" y="-354" font-family="Helvetica,sans-Serif" font-size="10.00">func_8003CD98</text>
</a>
</g>
</g>
<!-- Node148&#45;&gt;Node149 -->
<g id="edge39_Node000148_Node000149" class="edge">
<title>Node148&#45;&gt;Node149</title>
<g id="a_edge39_Node000148_Node000149"><a xlink:title=" ">
<path fill="none" stroke="#63b8ff" d="M479.88,-356.5C456.41,-356.5 429.95,-356.5 408.1,-356.5"/>
<polygon fill="#63b8ff" stroke="#63b8ff" points="480.08,-360 490.08,-356.5 480.08,-353 480.08,-360"/>
</a>
</g>
</g>
<!-- Node150 -->
<g id="Node000150" class="node">
<title>Node150</title>
<g id="a_Node000150"><a xlink:href="spawn__players_8c.html#af4ffc0854efc3e4c009e6d40b651f773" target="_top" xlink:title=" ">
<polygon fill="#fff0f0" stroke="red" points="408.5,-329 314.5,-329 314.5,-310 408.5,-310 408.5,-329"/>
<text text-anchor="middle" x="361.5" y="-317" font-family="Helvetica,sans-Serif" font-size="10.00">func_8003DB5C</text>
</a>
</g>
</g>
<!-- Node148&#45;&gt;Node150 -->
<g id="edge40_Node000148_Node000150" class="edge">
<title>Node148&#45;&gt;Node150</title>
<g id="a_edge40_Node000148_Node000150"><a xlink:title=" ">
<path fill="none" stroke="#63b8ff" d="M484.43,-344.92C459.97,-339.82 431.59,-333.9 408.36,-329.06"/>
<polygon fill="#63b8ff" stroke="#63b8ff" points="483.79,-348.36 494.29,-346.97 485.21,-341.5 483.79,-348.36"/>
</a>
</g>
</g>
<!-- Node155 -->
<g id="Node000155" class="node">
<title>Node155</title>
<g id="a_Node000155"><a xlink:href="update__objects_8c.html#aad7449c3468a6e25931243fd9d0fc3ae" target="_top" xlink:title=" ">
<polygon fill="#fff0f0" stroke="red" points="408,-292 315,-292 315,-273 408,-273 408,-292"/>
<text text-anchor="middle" x="361.5" y="-280" font-family="Helvetica,sans-Serif" font-size="10.00">func_80085DB8</text>
</a>
</g>
</g>
<!-- Node154&#45;&gt;Node155 -->
<g id="edge42_Node000154_Node000155" class="edge">
<title>Node154&#45;&gt;Node155</title>
<g id="a_edge42_Node000154_Node000155"><a xlink:title=" ">
<path fill="none" stroke="#63b8ff" d="M484.39,-257.09C459.83,-262.21 431.32,-268.15 408.06,-273"/>
<polygon fill="#63b8ff" stroke="#63b8ff" points="485.21,-260.5 494.29,-255.03 483.79,-253.64 485.21,-260.5"/>
</a>
</g>
</g>
<!-- Node160 -->
<g id="Node000160" class="node">
<title>Node160</title>
<g id="a_Node000160"><a xlink:href="update__objects_8c.html#abef9e21ca75285520cc71d37b6ef71b5" target="_top" xlink:title=" ">
<polygon fill="#fff0f0" stroke="red" points="407,-255 316,-255 316,-236 407,-236 407,-255"/>
<text text-anchor="middle" x="361.5" y="-243" font-family="Helvetica,sans-Serif" font-size="10.00">func_80085EF8</text>
</a>
</g>
</g>
<!-- Node154&#45;&gt;Node160 -->
<g id="edge43_Node000154_Node000160" class="edge">
<title>Node154&#45;&gt;Node160</title>
<g id="a_edge43_Node000154_Node000160"><a xlink:title=" ">
<path fill="none" stroke="#63b8ff" d="M472.62,-245.5C450.71,-245.5 426.97,-245.5 407.15,-245.5"/>
<polygon fill="#63b8ff" stroke="#63b8ff" points="472.86,-249 482.86,-245.5 472.86,-242 472.86,-249"/>
</a>
</g>
</g>
<!-- Node162 -->
<g id="Node000162" class="node">
<title>Node162</title>
<g id="a_Node000162"><a xlink:href="classOLakitu.html#a55d273da9dad852276fb5d1dc4c41e88" target="_top" xlink:title=" ">
<polygon fill="#fff0f0" stroke="red" points="439,-217.5 284,-217.5 284,-187.5 439,-187.5 439,-217.5"/>
<text text-anchor="start" x="292" y="-205.5" font-family="Helvetica,sans-Serif" font-size="10.00">OLakitu::init_obj_lakitu</text>
<text text-anchor="middle" x="361.5" y="-194.5" font-family="Helvetica,sans-Serif" font-size="10.00">_starter_and_checkered_flag</text>
</a>
</g>
</g>
<!-- Node154&#45;&gt;Node162 -->
<g id="edge44_Node000154_Node000162" class="edge">
<title>Node154&#45;&gt;Node162</title>
<g id="a_edge44_Node000154_Node000162"><a xlink:title=" ">
<path fill="none" stroke="#63b8ff" d="M490.83,-233.59C470.29,-228.61 446.18,-222.77 424.44,-217.51"/>
<polygon fill="#63b8ff" stroke="#63b8ff" points="490.06,-237 500.61,-235.96 491.71,-230.2 490.06,-237"/>
</a>
</g>
</g>
<!-- Node165 -->
<g id="Node000165" class="node">
<title>Node165</title>
<g id="a_Node000165"><a xlink:href="update__objects_8c.html#a86976d4b79853c37ad7d3b5f0513a9b8" target="_top" xlink:title=" ">
<polygon fill="#fff0f0" stroke="red" points="431.5,-169 291.5,-169 291.5,-150 431.5,-150 431.5,-169"/>
<text text-anchor="middle" x="361.5" y="-157" font-family="Helvetica,sans-Serif" font-size="10.00">init_obj_neon_mushroom</text>
</a>
</g>
</g>
<!-- Node154&#45;&gt;Node165 -->
<g id="edge45_Node000154_Node000165" class="edge">
<title>Node154&#45;&gt;Node165</title>
<g id="a_edge45_Node000154_Node000165"><a xlink:title=" ">
<path fill="none" stroke="#63b8ff" d="M521.44,-229.07C503.2,-213.77 473.98,-191.45 445,-178.5 436.41,-174.66 426.96,-171.56 417.62,-169.05"/>
<polygon fill="#63b8ff" stroke="#63b8ff" points="519.59,-232.09 529.46,-235.94 524.14,-226.77 519.59,-232.09"/>
</a>
</g>
</g>
<!-- Node168 -->
<g id="Node000168" class="node">
<title>Node168</title>
<g id="a_Node000168"><a xlink:href="render__player_8c.html#a53a1f659eaad8e23847f927e359c3551" target="_top" xlink:title=" ">
<polygon fill="#fff0f0" stroke="red" points="424,-132 299,-132 299,-113 424,-113 424,-132"/>
<text text-anchor="middle" x="361.5" y="-120" font-family="Helvetica,sans-Serif" font-size="10.00">update_wheel_palette</text>
</a>
</g>
</g>
<!-- Node167&#45;&gt;Node168 -->
<g id="edge47_Node000167_Node000168" class="edge">
<title>Node167&#45;&gt;Node168</title>
<g id="a_edge47_Node000167_Node000168"><a xlink:title=" ">
<path fill="none" stroke="#63b8ff" d="M474.89,-148.86C464.89,-146.36 454.67,-143.84 445,-141.5 432,-138.36 417.82,-135.05 404.93,-132.09"/>
<polygon fill="#63b8ff" stroke="#63b8ff" points="474.24,-152.3 484.79,-151.34 475.94,-145.51 474.24,-152.3"/>
</a>
</g>
</g>
<!-- Node175&#45;&gt;Node67 -->
<g id="edge49_Node000175_Node000067" class="edge">
<title>Node175&#45;&gt;Node67</title>
<g id="a_edge49_Node000175_Node000067"><a xlink:title=" ">
<path fill="none" stroke="#63b8ff" d="M196.92,-220.77C166.88,-302.5 50.54,-619.02 28.58,-678.75"/>
<polygon fill="#63b8ff" stroke="#63b8ff" points="200.26,-221.82 200.42,-211.23 193.69,-219.41 200.26,-221.82"/>
</a>
</g>
</g>
<!-- Node84 -->
<g id="Node000084" class="node">
<title>Node84</title>
<g id="a_Node000084"><a xlink:href="networking_8c.html#a9c6ade683b9f080f25707e0812ef7a6c" target="_top" xlink:title=" ">
<polygon fill="#fff0f0" stroke="red" points="410.5,-56 312.5,-56 312.5,-37 410.5,-37 410.5,-56"/>
<text text-anchor="middle" x="361.5" y="-44" font-family="Helvetica,sans-Serif" font-size="10.00">ConnectToServer</text>
</a>
</g>
</g>
<!-- Node176&#45;&gt;Node84 -->
<g id="edge51_Node000176_Node000084" class="edge">
<title>Node176&#45;&gt;Node84</title>
<g id="a_edge51_Node000176_Node000084"><a xlink:title=" ">
<path fill="none" stroke="#63b8ff" d="M483.24,-46.5C459.87,-46.5 433.08,-46.5 410.68,-46.5"/>
<polygon fill="#63b8ff" stroke="#63b8ff" points="483.36,-50 493.36,-46.5 483.36,-43 483.36,-50"/>
</a>
</g>
</g>
<!-- Node177 -->
<g id="Node000177" class="node">
<title>Node177</title>
<g id="a_Node000177"><a xlink:href="networking_8c.html#a840ac4cfb918d97373907c0a176ce5c5" target="_top" xlink:title=" ">
<polygon fill="#fff0f0" stroke="red" points="419,-19 304,-19 304,0 419,0 419,-19"/>
<text text-anchor="middle" x="361.5" y="-7" font-family="Helvetica,sans-Serif" font-size="10.00">networking_cleanup</text>
</a>
</g>
</g>
<!-- Node176&#45;&gt;Node177 -->
<g id="edge52_Node000176_Node000177" class="edge">
<title>Node176&#45;&gt;Node177</title>
<g id="a_edge52_Node000176_Node000177"><a xlink:title=" ">
<path fill="none" stroke="#63b8ff" d="M484.43,-34.92C459.97,-29.82 431.59,-23.9 408.36,-19.06"/>
<polygon fill="#63b8ff" stroke="#63b8ff" points="483.79,-38.36 494.29,-36.97 485.21,-31.5 483.79,-38.36"/>
</a>
</g>
</g>
</g>
</svg>

<g id="navigator" transform="translate(0 0)" fill="#404254">
  <rect fill="#f2f5e9" fill-opacity="0.5" stroke="#606060" stroke-width=".5" x="0" y="0" width="60" height="60"/>
  <use id="zoomplus" xlink:href="#zoomPlus" x="17" y="9" onmousedown="handleZoom(evt,'in')"/>
  <use id="zoomminus" xlink:href="#zoomMin" x="42" y="9" onmousedown="handleZoom(evt,'out')"/>
  <use id="reset" xlink:href="#resetDef" x="30" y="36" onmousedown="handleReset()"/>
   <use id="arrowup" xlink:href="#arrowUp" x="0" y="0" onmousedown="handlePan(0,-1)"/>
  <use id="arrowright" xlink:href="#arrowRight" x="0" y="0" onmousedown="handlePan(1,0)"/>
  <use id="arrowdown" xlink:href="#arrowDown" x="0" y="0" onmousedown="handlePan(0,1)"/>
  <use id="arrowleft" xlink:href="#arrowLeft" x="0" y="0" onmousedown="handlePan(-1,0)"/>
</g>
<svg viewBox="0 0 15 15" width="100%" height="30px" preserveAspectRatio="xMaxYMin meet">
 <g id="arrow_out" transform="scale(0.3 0.3)">
  <a xlink:href="string_8h_ad7f1ae1bbb49dece44bda378982a704d_icgraph_org.svg" target="_base">
   <rect id="button" ry="5" rx="5" y="6" x="6" height="38" width="38"
        fill="#f2f5e9" fill-opacity="0.5" stroke="#606060" stroke-width="1.0"/>
   <path id="arrow"
     d="M 11.500037,31.436501 C 11.940474,20.09759 22.043105,11.32322 32.158766,21.979434 L 37.068811,17.246167 C 37.068811,17.246167 37.088388,32 37.088388,32 L 22.160133,31.978069 C 22.160133,31.978069 26.997745,27.140456 26.997745,27.140456 C 18.528582,18.264221 13.291696,25.230495 11.500037,31.436501 z"
     style="fill:#404040;"/>
  </a>
 </g>
</svg>

<style type='text/css'>
<![CDATA[
[data-mouse-over-selected='false'] { opacity: 0.7; }
[data-mouse-over-selected='true']  { opacity: 1.0; }
]]>
</style>
<script type="application/ecmascript"><![CDATA[
document.addEventListener('DOMContentLoaded', (event) => {
  highlightEdges();
  highlightAdjacentNodes();
});
]]></script>
</svg>
