<?xml version="1.0" encoding="UTF-8" standalone="no"?>
<!DOCTYPE svg PUBLIC "-//W3C//DTD SVG 1.1//EN"
 "http://www.w3.org/Graphics/SVG/1.1/DTD/svg11.dtd">
<!-- Generated by graphviz version 2.43.0 (0)
 -->
<!-- Title: memcpy Pages: 1 -->
<!--zoomable 867 -->

<svg id="main" version="1.1" xmlns="http://www.w3.org/2000/svg" xmlns:xlink="http://www.w3.org/1999/xlink" xml:space="preserve" onload="init(evt)">

<style type="text/css"><![CDATA[
.node, .edge {opacity: 0.7;}
.node.selected, .edge.selected {opacity: 1;}
.edge:hover path { stroke: red; }
.edge:hover polygon { stroke: red; fill: red; }
]]></style>

<defs>
  <circle id="rim" cx="0" cy="0" r="7"/>
  <circle id="rim2" cx="0" cy="0" r="3.5"/>
  <g id="zoomPlus">
    <use xlink:href="#rim" fill="#404040"><set attributeName="fill" to="#808080" begin="zoomplus.mouseover" end="zoomplus.mouseout"/></use>
    <path d="M-4,0h8M0,-4v8" fill="none" stroke="white" stroke-width="1.5" pointer-events="none"/>
  </g>
  <g id="zoomMin">
    <use xlink:href="#rim" fill="#404040"><set attributeName="fill" to="#808080" begin="zoomminus.mouseover" end="zoomminus.mouseout"/></use>
    <path d="M-4,0h8" fill="none" stroke="white" stroke-width="1.5" pointer-events="none"/>
  </g>
  <g id="arrowUp" transform="translate(30 24)">
    <use xlink:href="#rim"/>
    <path pointer-events="none" fill="none" stroke="white" stroke-width="1.5" d="M0,-3.0v7 M-2.5,-0.5L0,-3.0L2.5,-0.5"/>
  </g>
  <g id="arrowRight" transform="rotate(90) translate(36 -43)">
    <use xlink:href="#rim"/>
    <path pointer-events="none" fill="none" stroke="white" stroke-width="1.5" d="M0,-3.0v7 M-2.5,-0.5L0,-3.0L2.5,-0.5"/>
  </g>
  <g id="arrowDown" transform="rotate(180) translate(-30 -48)">
    <use xlink:href="#rim"/>
    <path pointer-events="none" fill="none" stroke="white" stroke-width="1.5" d="M0,-3.0v7 M-2.5,-0.5L0,-3.0L2.5,-0.5"/>
  </g>
  <g id="arrowLeft" transform="rotate(270) translate(-36 17)">
    <use xlink:href="#rim"/>
    <path pointer-events="none" fill="none" stroke="white" stroke-width="1.5" d="M0,-3.0v7 M-2.5,-0.5L0,-3.0L2.5,-0.5"/>
  </g>
  <g id="resetDef">
    <use xlink:href="#rim2" fill="#404040"><set attributeName="fill" to="#808080" begin="reset.mouseover" end="reset.mouseout"/></use>
  </g>
</defs>
<script type="application/ecmascript">
var viewWidth = 994;
var viewHeight = 867;
var sectionId = 'dynsection-2';
</script>
<script type="application/ecmascript" xlink:href="svg.min.js"/>
<svg id="graph" class="graph">
<g id="viewport">
<title>memcpy</title>
<!-- Node1 -->
<g id="Node000001" class="node">
<title>Node1</title>
<g id="a_Node000001"><a xlink:title=" ">
<polygon fill="#999999" stroke="#666666" points="986,-526 927,-526 927,-507 986,-507 986,-526"/>
<text text-anchor="middle" x="956.5" y="-514" font-family="Helvetica,sans-Serif" font-size="10.00">memcpy</text>
</a>
</g>
</g>
<!-- Node2 -->
<g id="Node000002" class="node">
<title>Node2</title>
<g id="a_Node000002"><a xlink:href="__Ldtob_8c.html#a2b6c5318b43bab1636bad9113ffb2761" target="_top" xlink:title=" ">
<polygon fill="white" stroke="#666666" points="856,-824 806,-824 806,-805 856,-805 856,-824"/>
<text text-anchor="middle" x="831" y="-812" font-family="Helvetica,sans-Serif" font-size="10.00">_Genld</text>
</a>
</g>
</g>
<!-- Node1&#45;&gt;Node2 -->
<g id="edge1_Node000001_Node000002" class="edge">
<title>Node1&#45;&gt;Node2</title>
<g id="a_edge1_Node000001_Node000002"><a xlink:title=" ">
<path fill="none" stroke="#63b8ff" d="M953.24,-536.06C946.4,-592.07 924.37,-751.51 891,-790.5 882.16,-800.83 868.19,-806.78 856.07,-810.17"/>
<polygon fill="#63b8ff" stroke="#63b8ff" points="956.72,-536.38 954.43,-526.03 949.77,-535.55 956.72,-536.38"/>
</a>
</g>
</g>
<!-- Node3 -->
<g id="Node000003" class="node">
<title>Node3</title>
<g id="a_Node000003"><a xlink:href="__Ldtob_8c.html#a7cc858157b66e15c831ad085113729ae" target="_top" xlink:title=" ">
<polygon fill="white" stroke="#666666" points="682,-824 633,-824 633,-805 682,-805 682,-824"/>
<text text-anchor="middle" x="657.5" y="-812" font-family="Helvetica,sans-Serif" font-size="10.00">_Ldtob</text>
</a>
</g>
</g>
<!-- Node1&#45;&gt;Node3 -->
<g id="edge12_Node000001_Node000003" class="edge">
<title>Node1&#45;&gt;Node3</title>
<g id="a_edge12_Node000001_Node000003"><a xlink:title=" ">
<path fill="none" stroke="#63b8ff" d="M954.61,-536.5C951.3,-600.06 937.47,-795.53 891,-833.5 828.12,-884.88 721.12,-844.12 677.68,-824.04"/>
<polygon fill="#63b8ff" stroke="#63b8ff" points="958.11,-536.39 955.1,-526.23 951.12,-536.05 958.11,-536.39"/>
</a>
</g>
</g>
<!-- Node71 -->
<g id="Node000071" class="node">
<title>Node71</title>
<g id="a_Node000071"><a xlink:href="__Litob_8c.html#aaaba3b0ab7920d422a61fe9e22600dd0" target="_top" xlink:title=" ">
<polygon fill="white" stroke="#666666" points="680.5,-786 634.5,-786 634.5,-767 680.5,-767 680.5,-786"/>
<text text-anchor="middle" x="657.5" y="-774" font-family="Helvetica,sans-Serif" font-size="10.00">_Litob</text>
</a>
</g>
</g>
<!-- Node1&#45;&gt;Node71 -->
<g id="edge13_Node000001_Node000071" class="edge">
<title>Node1&#45;&gt;Node71</title>
<g id="a_edge13_Node000001_Node000071"><a xlink:title=" ">
<path fill="none" stroke="#63b8ff" d="M953.13,-536.23C946.41,-588.54 925.47,-728.74 891,-757.5 830.05,-808.36 726.14,-792.48 680.78,-782.24"/>
<polygon fill="#63b8ff" stroke="#63b8ff" points="956.61,-536.57 954.38,-526.21 949.67,-535.7 956.61,-536.57"/>
</a>
</g>
</g>
<!-- Node72 -->
<g id="Node000072" class="node">
<title>Node72</title>
<g id="a_Node000072"><a xlink:href="mixer_8c.html#a7938a510708c526174e6649526385dee" target="_top" xlink:title=" ">
<polygon fill="white" stroke="#666666" points="880,-748 782,-748 782,-729 880,-729 880,-748"/>
<text text-anchor="middle" x="831" y="-736" font-family="Helvetica,sans-Serif" font-size="10.00">aADPCMdecImpl</text>
</a>
</g>
</g>
<!-- Node1&#45;&gt;Node72 -->
<g id="edge15_Node000001_Node000072" class="edge">
<title>Node1&#45;&gt;Node72</title>
<g id="a_edge15_Node000001_Node000072"><a xlink:title=" ">
<path fill="none" stroke="#63b8ff" d="M955.06,-536.36C953.07,-576.81 942.77,-669.25 891,-720.5 887.58,-723.89 883.53,-726.64 879.19,-728.88"/>
<polygon fill="#63b8ff" stroke="#63b8ff" points="958.56,-536.32 955.43,-526.2 951.57,-536.06 958.56,-536.32"/>
</a>
</g>
</g>
<!-- Node73 -->
<g id="Node000073" class="node">
<title>Node73</title>
<g id="a_Node000073"><a xlink:href="mixer_8c.html#ae6ecfb0de822ee485b5af25a1f673932" target="_top" xlink:title=" ">
<polygon fill="white" stroke="#666666" points="876.5,-711 785.5,-711 785.5,-692 876.5,-692 876.5,-711"/>
<text text-anchor="middle" x="831" y="-699" font-family="Helvetica,sans-Serif" font-size="10.00">aDuplicateImpl</text>
</a>
</g>
</g>
<!-- Node1&#45;&gt;Node73 -->
<g id="edge16_Node000001_Node000073" class="edge">
<title>Node1&#45;&gt;Node73</title>
<g id="a_edge16_Node000001_Node000073"><a xlink:title=" ">
<path fill="none" stroke="#63b8ff" d="M953.44,-536.29C948.76,-571.1 934.14,-643.37 891,-683.5 886.84,-687.37 881.88,-690.4 876.62,-692.79"/>
<polygon fill="#63b8ff" stroke="#63b8ff" points="956.96,-536.37 954.67,-526.03 950.01,-535.54 956.96,-536.37"/>
</a>
</g>
</g>
<!-- Node74 -->
<g id="Node000074" class="node">
<title>Node74</title>
<g id="a_Node000074"><a xlink:href="mixer_8c.html#a49fd8ddd11623cb73bef4300d8e796e1" target="_top" xlink:title=" ">
<polygon fill="white" stroke="#666666" points="865.5,-674 796.5,-674 796.5,-655 865.5,-655 865.5,-674"/>
<text text-anchor="middle" x="831" y="-662" font-family="Helvetica,sans-Serif" font-size="10.00">aFilterImpl</text>
</a>
</g>
</g>
<!-- Node1&#45;&gt;Node74 -->
<g id="edge17_Node000001_Node000074" class="edge">
<title>Node1&#45;&gt;Node74</title>
<g id="a_edge17_Node000001_Node000074"><a xlink:title=" ">
<path fill="none" stroke="#63b8ff" d="M950.98,-536.27C943.45,-564.76 925.61,-617.16 891,-646.5 883.81,-652.59 874.59,-656.63 865.59,-659.29"/>
<polygon fill="#63b8ff" stroke="#63b8ff" points="954.44,-536.85 953.45,-526.3 947.65,-535.16 954.44,-536.85"/>
</a>
</g>
</g>
<!-- Node75 -->
<g id="Node000075" class="node">
<title>Node75</title>
<g id="a_Node000075"><a xlink:href="mixer_8c.html#a085bc9a3483aa8e58ee35e81d332228b" target="_top" xlink:title=" ">
<polygon fill="white" stroke="#666666" points="883,-637 779,-637 779,-618 883,-618 883,-637"/>
<text text-anchor="middle" x="831" y="-625" font-family="Helvetica,sans-Serif" font-size="10.00">aLoadADPCMImpl</text>
</a>
</g>
</g>
<!-- Node1&#45;&gt;Node75 -->
<g id="edge18_Node000001_Node000075" class="edge">
<title>Node1&#45;&gt;Node75</title>
<g id="a_edge18_Node000001_Node000075"><a xlink:title=" ">
<path fill="none" stroke="#63b8ff" d="M947.09,-535.5C936.82,-556.59 917.46,-590.19 891,-609.5 886.33,-612.91 881,-615.68 875.51,-617.93"/>
<polygon fill="#63b8ff" stroke="#63b8ff" points="950.34,-536.81 951.4,-526.27 944,-533.85 950.34,-536.81"/>
</a>
</g>
</g>
<!-- Node76 -->
<g id="Node000076" class="node">
<title>Node76</title>
<g id="a_Node000076"><a xlink:href="mixer_8c.html#a3f344b56668f8ec957d0e9cf6f8a8181" target="_top" xlink:title=" ">
<polygon fill="white" stroke="#666666" points="879.5,-600 782.5,-600 782.5,-581 879.5,-581 879.5,-600"/>
<text text-anchor="middle" x="831" y="-588" font-family="Helvetica,sans-Serif" font-size="10.00">aLoadBufferImpl</text>
</a>
</g>
</g>
<!-- Node1&#45;&gt;Node76 -->
<g id="edge19_Node000001_Node000076" class="edge">
<title>Node1&#45;&gt;Node76</title>
<g id="a_edge19_Node000001_Node000076"><a xlink:title=" ">
<path fill="none" stroke="#63b8ff" d="M939.67,-533.67C927.44,-546.02 909.52,-562.25 891,-572.5 885,-575.82 878.32,-578.6 871.66,-580.91"/>
<polygon fill="#63b8ff" stroke="#63b8ff" points="942.43,-535.85 946.84,-526.21 937.38,-531 942.43,-535.85"/>
</a>
</g>
</g>
<!-- Node77 -->
<g id="Node000077" class="node">
<title>Node77</title>
<g id="a_Node000077"><a xlink:href="mixer_8c.html#ab209a67ca3106bf0590ffc4790bc14a2" target="_top" xlink:title=" ">
<polygon fill="white" stroke="#666666" points="877.5,-563 784.5,-563 784.5,-544 877.5,-544 877.5,-563"/>
<text text-anchor="middle" x="831" y="-551" font-family="Helvetica,sans-Serif" font-size="10.00">aResampleImpl</text>
</a>
</g>
</g>
<!-- Node1&#45;&gt;Node77 -->
<g id="edge20_Node000001_Node000077" class="edge">
<title>Node1&#45;&gt;Node77</title>
<g id="a_edge20_Node000001_Node000077"><a xlink:title=" ">
<path fill="none" stroke="#63b8ff" d="M917.18,-527.98C900.1,-533.1 880.22,-539.05 863.96,-543.92"/>
<polygon fill="#63b8ff" stroke="#63b8ff" points="918.28,-531.3 926.86,-525.08 916.27,-524.6 918.28,-531.3"/>
</a>
</g>
</g>
<!-- Node78 -->
<g id="Node000078" class="node">
<title>Node78</title>
<g id="a_Node000078"><a xlink:href="mixer_8c.html#a934e7d92ee6fe6fa60f621496471d4ec" target="_top" xlink:title=" ">
<polygon fill="white" stroke="#666666" points="868.5,-526 793.5,-526 793.5,-507 868.5,-507 868.5,-526"/>
<text text-anchor="middle" x="831" y="-514" font-family="Helvetica,sans-Serif" font-size="10.00">aS8DecImpl</text>
</a>
</g>
</g>
<!-- Node1&#45;&gt;Node78 -->
<g id="edge21_Node000001_Node000078" class="edge">
<title>Node1&#45;&gt;Node78</title>
<g id="a_edge21_Node000001_Node000078"><a xlink:title=" ">
<path fill="none" stroke="#63b8ff" d="M916.7,-516.5C901.44,-516.5 884,-516.5 868.93,-516.5"/>
<polygon fill="#63b8ff" stroke="#63b8ff" points="916.86,-520 926.86,-516.5 916.86,-513 916.86,-520"/>
</a>
</g>
</g>
<!-- Node79 -->
<g id="Node000079" class="node">
<title>Node79</title>
<g id="a_Node000079"><a xlink:href="mixer_8c.html#aee48bceba268e2ef25d6b8bfaae71400" target="_top" xlink:title=" ">
<polygon fill="white" stroke="#666666" points="880,-489 782,-489 782,-470 880,-470 880,-489"/>
<text text-anchor="middle" x="831" y="-477" font-family="Helvetica,sans-Serif" font-size="10.00">aSaveBufferImpl</text>
</a>
</g>
</g>
<!-- Node1&#45;&gt;Node79 -->
<g id="edge22_Node000001_Node000079" class="edge">
<title>Node1&#45;&gt;Node79</title>
<g id="a_edge22_Node000001_Node000079"><a xlink:title=" ">
<path fill="none" stroke="#63b8ff" d="M917.18,-505.02C900.1,-499.9 880.22,-493.95 863.96,-489.08"/>
<polygon fill="#63b8ff" stroke="#63b8ff" points="916.27,-508.4 926.86,-507.92 918.28,-501.7 916.27,-508.4"/>
</a>
</g>
</g>
<!-- Node80 -->
<g id="Node000080" class="node">
<title>Node80</title>
<g id="a_Node000080"><a xlink:href="start__game_8c.html#a2e086956a1c0bd2f6ac8111273c3cb29" target="_top" xlink:title=" ">
<polygon fill="white" stroke="#666666" points="887.5,-179 774.5,-179 774.5,-160 887.5,-160 887.5,-179"/>
<text text-anchor="middle" x="831" y="-167" font-family="Helvetica,sans-Serif" font-size="10.00">assign_player_slots</text>
</a>
</g>
</g>
<!-- Node1&#45;&gt;Node80 -->
<g id="edge23_Node000001_Node000080" class="edge">
<title>Node1&#45;&gt;Node80</title>
<g id="a_edge23_Node000001_Node000080"><a xlink:title=" ">
<path fill="none" stroke="#63b8ff" d="M955.1,-496.73C953.31,-447.46 943.56,-316.53 891,-224.5 880.03,-205.29 860.12,-188.84 846.49,-179.06"/>
<polygon fill="#63b8ff" stroke="#63b8ff" points="951.61,-497.05 955.4,-506.95 958.61,-496.85 951.61,-497.05"/>
</a>
</g>
</g>
<!-- Node86 -->
<g id="Node000086" class="node">
<title>Node86</title>
<g id="a_Node000086"><a xlink:href="mixer_8c.html#a05ec48171b802632d2172ccc1c39069e" target="_top" xlink:title=" ">
<polygon fill="white" stroke="#666666" points="880,-413 782,-413 782,-394 880,-394 880,-413"/>
<text text-anchor="middle" x="831" y="-401" font-family="Helvetica,sans-Serif" font-size="10.00">aUnkCmd19Impl</text>
</a>
</g>
</g>
<!-- Node1&#45;&gt;Node86 -->
<g id="edge26_Node000001_Node000086" class="edge">
<title>Node1&#45;&gt;Node86</title>
<g id="a_edge26_Node000001_Node000086"><a xlink:title=" ">
<path fill="none" stroke="#63b8ff" d="M946.09,-497.85C935.23,-478 915.66,-446.84 891,-427.5 883.26,-421.43 873.76,-416.68 864.68,-413.06"/>
<polygon fill="#63b8ff" stroke="#63b8ff" points="943.07,-499.62 950.83,-506.83 949.26,-496.36 943.07,-499.62"/>
</a>
</g>
</g>
<!-- Node87 -->
<g id="Node000087" class="node">
<title>Node87</title>
<g id="a_Node000087"><a xlink:href="classModelLoader.html#a4be93e4e4c67207ac012298c9388c6d7" target="_top" xlink:title=" ">
<polygon fill="white" stroke="#666666" points="891,-376 771,-376 771,-357 891,-357 891,-376"/>
<text text-anchor="middle" x="831" y="-364" font-family="Helvetica,sans-Serif" font-size="10.00">ModelLoader::Extract</text>
</a>
</g>
</g>
<!-- Node1&#45;&gt;Node87 -->
<g id="edge27_Node000001_Node000087" class="edge">
<title>Node1&#45;&gt;Node87</title>
<g id="a_edge27_Node000001_Node000087"><a xlink:title=" ">
<path fill="none" stroke="#63b8ff" d="M950.96,-496.65C943.41,-468.03 925.55,-415.34 891,-385.5 886.52,-381.63 881.24,-378.55 875.72,-376.09"/>
<polygon fill="#63b8ff" stroke="#63b8ff" points="947.64,-497.8 953.44,-506.66 954.44,-496.12 947.64,-497.8"/>
</a>
</g>
</g>
<!-- Node89 -->
<g id="Node000089" class="node">
<title>Node89</title>
<g id="a_Node000089"><a xlink:href="kart__dma_8c.html#a637d0acc4b8a5146a83b664d348b21f2" target="_top" xlink:title=" ">
<polygon fill="white" stroke="#666666" points="881.5,-339 780.5,-339 780.5,-320 881.5,-320 881.5,-339"/>
<text text-anchor="middle" x="831" y="-327" font-family="Helvetica,sans-Serif" font-size="10.00">load_kart_palette</text>
</a>
</g>
</g>
<!-- Node1&#45;&gt;Node89 -->
<g id="edge29_Node000001_Node000089" class="edge">
<title>Node1&#45;&gt;Node89</title>
<g id="a_edge29_Node000001_Node000089"><a xlink:title=" ">
<path fill="none" stroke="#63b8ff" d="M953.41,-496.66C948.69,-461.75 934.02,-389.21 891,-348.5 886.94,-344.65 882.09,-341.59 876.94,-339.14"/>
<polygon fill="#63b8ff" stroke="#63b8ff" points="949.98,-497.45 954.66,-506.95 956.93,-496.6 949.98,-497.45"/>
</a>
</g>
</g>
<!-- Node138 -->
<g id="Node000138" class="node">
<title>Node138</title>
<g id="a_Node000138"><a xlink:href="memory_8c.html#a3617f7116e3cc000b7ebf38ad3bae48f" target="_top" xlink:title=" ">
<polygon fill="white" stroke="#666666" points="889,-253 773,-253 773,-234 889,-234 889,-253"/>
<text text-anchor="middle" x="831" y="-241" font-family="Helvetica,sans-Serif" font-size="10.00">load_lakitu_tlut_x64</text>
</a>
</g>
</g>
<!-- Node1&#45;&gt;Node138 -->
<g id="edge34_Node000001_Node000138" class="edge">
<title>Node1&#45;&gt;Node138</title>
<g id="a_edge34_Node000001_Node000138"><a xlink:title=" ">
<path fill="none" stroke="#63b8ff" d="M952.09,-496.8C944.96,-458.98 926.14,-374.36 891,-311.5 877.88,-288.03 855.76,-265.4 842.65,-253.08"/>
<polygon fill="#63b8ff" stroke="#63b8ff" points="948.71,-497.75 953.93,-506.96 955.59,-496.5 948.71,-497.75"/>
</a>
</g>
</g>
<!-- Node151 -->
<g id="Node000151" class="node">
<title>Node151</title>
<g id="a_Node000151"><a xlink:href="kart__dma_8c.html#a7fcac9592dc14342151b0dcc0f6b0746" target="_top" xlink:title="read data from ROM and write it to the given virtual address">
<polygon fill="white" stroke="#666666" points="887,-49.5 775,-49.5 775,-19.5 887,-19.5 887,-49.5"/>
<text text-anchor="start" x="783" y="-37.5" font-family="Helvetica,sans-Serif" font-size="10.00">load_wheel_palette</text>
<text text-anchor="middle" x="831" y="-26.5" font-family="Helvetica,sans-Serif" font-size="10.00">_non_blocking</text>
</a>
</g>
</g>
<!-- Node1&#45;&gt;Node151 -->
<g id="edge43_Node000001_Node000151" class="edge">
<title>Node1&#45;&gt;Node151</title>
<g id="a_edge43_Node000001_Node000151"><a xlink:title=" ">
<path fill="none" stroke="#63b8ff" d="M954.65,-496.85C951.06,-421.14 935.25,-148.86 891,-76.5 884.18,-65.34 873.16,-56.32 862.48,-49.54"/>
<polygon fill="#63b8ff" stroke="#63b8ff" points="951.15,-497.08 955.11,-506.91 958.15,-496.76 951.15,-497.08"/>
</a>
</g>
</g>
<!-- Node159 -->
<g id="Node000159" class="node">
<title>Node159</title>
<g id="a_Node000159"><a xlink:href="sprintf_8c.html#a6151eb738d6a0c5af66836e8a50fad9e" target="_top" xlink:title=" ">
<polygon fill="white" stroke="#666666" points="369.5,-484 295.5,-484 295.5,-465 369.5,-465 369.5,-484"/>
<text text-anchor="middle" x="332.5" y="-472" font-family="Helvetica,sans-Serif" font-size="10.00">proutSprintf</text>
</a>
</g>
</g>
<!-- Node1&#45;&gt;Node159 -->
<g id="edge47_Node000001_Node000159" class="edge">
<title>Node1&#45;&gt;Node159</title>
<g id="a_edge47_Node000001_Node000159"><a xlink:title=" ">
<path fill="none" stroke="#63b8ff" d="M941.18,-498.88C929.31,-485.78 911.16,-468.93 891,-461.5 704.77,-392.88 459.3,-442.5 368.89,-464.99"/>
<polygon fill="#63b8ff" stroke="#63b8ff" points="938.85,-501.54 948.03,-506.82 944.14,-496.96 938.85,-501.54"/>
</a>
</g>
</g>
<!-- Node160 -->
<g id="Node000160" class="node">
<title>Node160</title>
<g id="a_Node000160"><a xlink:href="packets_8c.html#af9536eb7dd70435bff139db61e546862" target="_top" xlink:title=" ">
<polygon fill="white" stroke="#666666" points="878.5,-105 783.5,-105 783.5,-86 878.5,-86 878.5,-105"/>
<text text-anchor="middle" x="831" y="-93" font-family="Helvetica,sans-Serif" font-size="10.00">send_str_packet</text>
</a>
</g>
</g>
<!-- Node1&#45;&gt;Node160 -->
<g id="edge49_Node000001_Node000160" class="edge">
<title>Node1&#45;&gt;Node160</title>
<g id="a_edge49_Node000001_Node000160"><a xlink:title=" ">
<path fill="none" stroke="#63b8ff" d="M953.7,-496.97C947.31,-430.2 924.25,-211.74 891,-150.5 880.51,-131.18 860.69,-114.87 846.94,-105.15"/>
<polygon fill="#63b8ff" stroke="#63b8ff" points="950.22,-497.35 954.64,-506.98 957.19,-496.7 950.22,-497.35"/>
</a>
</g>
</g>
<!-- Node2&#45;&gt;Node3 -->
<g id="edge2_Node000002_Node000003" class="edge">
<title>Node2&#45;&gt;Node3</title>
<g id="a_edge2_Node000002_Node000003"><a xlink:title=" ">
<path fill="none" stroke="#63b8ff" d="M795.48,-814.5C761.77,-814.5 711.38,-814.5 682.03,-814.5"/>
<polygon fill="#63b8ff" stroke="#63b8ff" points="795.79,-818 805.79,-814.5 795.79,-811 795.79,-818"/>
</a>
</g>
</g>
<!-- Node4 -->
<g id="Node000004" class="node">
<title>Node4</title>
<g id="a_Node000004"><a xlink:href="__Printf_8c.html#ad73a5847f2d7c9de14cc2723da86bf45" target="_top" xlink:title=" ">
<polygon fill="white" stroke="#666666" points="504.5,-786 454.5,-786 454.5,-767 504.5,-767 504.5,-786"/>
<text text-anchor="middle" x="479.5" y="-774" font-family="Helvetica,sans-Serif" font-size="10.00">_Putfld</text>
</a>
</g>
</g>
<!-- Node3&#45;&gt;Node4 -->
<g id="edge3_Node000003_Node000004" class="edge">
<title>Node3&#45;&gt;Node4</title>
<g id="a_edge3_Node000003_Node000004"><a xlink:title=" ">
<path fill="none" stroke="#63b8ff" d="M622.67,-807.2C588.1,-799.73 535.29,-788.33 504.71,-781.73"/>
<polygon fill="#63b8ff" stroke="#63b8ff" points="622.25,-810.69 632.76,-809.38 623.73,-803.84 622.25,-810.69"/>
</a>
</g>
</g>
<!-- Node5 -->
<g id="Node000005" class="node">
<title>Node5</title>
<g id="a_Node000005"><a xlink:href="__Printf_8c.html#a39bb05c90efce6c6790c5d58d271d72d" target="_top" xlink:title=" ">
<polygon fill="#fff0f0" stroke="red" points="356.5,-753 308.5,-753 308.5,-734 356.5,-734 356.5,-753"/>
<text text-anchor="middle" x="332.5" y="-741" font-family="Helvetica,sans-Serif" font-size="10.00">_Printf</text>
</a>
</g>
</g>
<!-- Node4&#45;&gt;Node5 -->
<g id="edge4_Node000004_Node000005" class="edge">
<title>Node4&#45;&gt;Node5</title>
<g id="a_edge4_Node000004_Node000005"><a xlink:title=" ">
<path fill="none" stroke="#63b8ff" d="M444.44,-768.75C417.5,-762.62 380.59,-754.22 356.89,-748.82"/>
<polygon fill="#63b8ff" stroke="#63b8ff" points="443.7,-772.17 454.23,-770.98 445.26,-765.34 443.7,-772.17"/>
</a>
</g>
</g>
<!-- Node6 -->
<g id="Node000006" class="node">
<title>Node6</title>
<g id="a_Node000006"><a xlink:href="is__debug_8c.html#a0a0b1c5c397ef1486b9b08b2e872ff5f" target="_top" xlink:title=" ">
<polygon fill="#fff0f0" stroke="red" points="231.5,-716 154.5,-716 154.5,-697 231.5,-697 231.5,-716"/>
<text text-anchor="middle" x="193" y="-704" font-family="Helvetica,sans-Serif" font-size="10.00">osSyncPrintf</text>
</a>
</g>
</g>
<!-- Node5&#45;&gt;Node6 -->
<g id="edge5_Node000005_Node000006" class="edge">
<title>Node5&#45;&gt;Node6</title>
<g id="a_edge5_Node000005_Node000006"><a xlink:title=" ">
<path fill="none" stroke="#63b8ff" d="M298.79,-734.7C277.93,-729.08 250.89,-721.81 229.5,-716.05"/>
<polygon fill="#63b8ff" stroke="#63b8ff" points="297.92,-738.09 308.49,-737.31 299.74,-731.33 297.92,-738.09"/>
</a>
</g>
</g>
<!-- Node8 -->
<g id="Node000008" class="node">
<title>Node8</title>
<g id="a_Node000008"><a xlink:href="is__debug_8c.html#a07582d28e6728e94c69884a4ad3038f8" target="_top" xlink:title=" ">
<polygon fill="white" stroke="#666666" points="250,-790 136,-790 136,-771 250,-771 250,-790"/>
<text text-anchor="middle" x="193" y="-778" font-family="Helvetica,sans-Serif" font-size="10.00">osSyncPrintfUnused</text>
</a>
</g>
</g>
<!-- Node5&#45;&gt;Node8 -->
<g id="edge6_Node000005_Node000008" class="edge">
<title>Node5&#45;&gt;Node8</title>
<g id="a_edge6_Node000005_Node000008"><a xlink:title=" ">
<path fill="none" stroke="#63b8ff" d="M298.79,-752.3C277.93,-757.92 250.89,-765.19 229.5,-770.95"/>
<polygon fill="#63b8ff" stroke="#63b8ff" points="299.74,-755.67 308.49,-749.69 297.92,-748.91 299.74,-755.67"/>
</a>
</g>
</g>
<!-- Node9 -->
<g id="Node000009" class="node">
<title>Node9</title>
<g id="a_Node000009"><a xlink:href="is__debug_8c.html#a42e65774c872bb2ffd35e7827f481776" target="_top" xlink:title=" ">
<polygon fill="white" stroke="#666666" points="212.5,-753 173.5,-753 173.5,-734 212.5,-734 212.5,-753"/>
<text text-anchor="middle" x="193" y="-741" font-family="Helvetica,sans-Serif" font-size="10.00">print</text>
</a>
</g>
</g>
<!-- Node5&#45;&gt;Node9 -->
<g id="edge7_Node000005_Node000009" class="edge">
<title>Node5&#45;&gt;Node9</title>
<g id="a_edge7_Node000005_Node000009"><a xlink:title=" ">
<path fill="none" stroke="#63b8ff" d="M298.38,-743.5C271.52,-743.5 234.64,-743.5 212.67,-743.5"/>
<polygon fill="#63b8ff" stroke="#63b8ff" points="298.49,-747 308.49,-743.5 298.49,-740 298.49,-747"/>
</a>
</g>
</g>
<!-- Node67 -->
<g id="Node000067" class="node">
<title>Node67</title>
<g id="a_Node000067"><a xlink:href="sprintf_8c.html#a353b2f73aed82bd1eb8cc2b34ec936d9" target="_top" xlink:title=" ">
<polygon fill="white" stroke="#666666" points="217,-549 169,-549 169,-530 217,-530 217,-549"/>
<text text-anchor="middle" x="193" y="-537" font-family="Helvetica,sans-Serif" font-size="10.00">sprintf</text>
</a>
</g>
</g>
<!-- Node5&#45;&gt;Node67 -->
<g id="edge8_Node000005_Node000067" class="edge">
<title>Node5&#45;&gt;Node67</title>
<g id="a_edge8_Node000005_Node000067"><a xlink:title=" ">
<path fill="none" stroke="#63b8ff" d="M319.41,-725.57C291.29,-683.85 222.23,-581.38 200.59,-549.28"/>
<polygon fill="#63b8ff" stroke="#63b8ff" points="316.56,-727.6 325.05,-733.93 322.37,-723.69 316.56,-727.6"/>
</a>
</g>
</g>
<!-- Node68 -->
<g id="Node000068" class="node">
<title>Node68</title>
<g id="a_Node000068"><a xlink:href="stubs_8c.html#a6bb2c5cb35cc8f2d71036be0276e891f" target="_top" xlink:title=" ">
<polygon fill="white" stroke="#666666" points="100,-586 0,-586 0,-567 100,-567 100,-586"/>
<text text-anchor="middle" x="50" y="-574" font-family="Helvetica,sans-Serif" font-size="10.00">osPfsAllocateFile</text>
</a>
</g>
</g>
<!-- Node67&#45;&gt;Node68 -->
<g id="edge9_Node000067_Node000068" class="edge">
<title>Node67&#45;&gt;Node68</title>
<g id="a_edge9_Node000067_Node000068"><a xlink:title=" ">
<path fill="none" stroke="#63b8ff" d="M159.04,-548.15C137.53,-553.79 109.44,-561.16 87.3,-566.98"/>
<polygon fill="#63b8ff" stroke="#63b8ff" points="159.93,-551.53 168.72,-545.61 158.16,-544.76 159.93,-551.53"/>
</a>
</g>
</g>
<!-- Node69 -->
<g id="Node000069" class="node">
<title>Node69</title>
<g id="a_Node000069"><a xlink:href="stubs_8c.html#a4694169ebbc67d1cab176b4f8945ce51" target="_top" xlink:title=" ">
<polygon fill="white" stroke="#666666" points="96,-549 4,-549 4,-530 96,-530 96,-549"/>
<text text-anchor="middle" x="50" y="-537" font-family="Helvetica,sans-Serif" font-size="10.00">osPfsDeleteFile</text>
</a>
</g>
</g>
<!-- Node67&#45;&gt;Node69 -->
<g id="edge10_Node000067_Node000069" class="edge">
<title>Node67&#45;&gt;Node69</title>
<g id="a_edge10_Node000067_Node000069"><a xlink:title=" ">
<path fill="none" stroke="#63b8ff" d="M158.64,-539.5C140.02,-539.5 116.54,-539.5 96.28,-539.5"/>
<polygon fill="#63b8ff" stroke="#63b8ff" points="158.72,-543 168.72,-539.5 158.72,-536 158.72,-543"/>
</a>
</g>
</g>
<!-- Node70 -->
<g id="Node000070" class="node">
<title>Node70</title>
<g id="a_Node000070"><a xlink:href="stubs_8c.html#ac2db0df25dbcd5c6bec9319681fdd138" target="_top" xlink:title=" ">
<polygon fill="white" stroke="#666666" points="90,-512 10,-512 10,-493 90,-493 90,-512"/>
<text text-anchor="middle" x="50" y="-500" font-family="Helvetica,sans-Serif" font-size="10.00">osPfsFindFile</text>
</a>
</g>
</g>
<!-- Node67&#45;&gt;Node70 -->
<g id="edge11_Node000067_Node000070" class="edge">
<title>Node67&#45;&gt;Node70</title>
<g id="a_edge11_Node000067_Node000070"><a xlink:title=" ">
<path fill="none" stroke="#63b8ff" d="M159.04,-530.85C137.53,-525.21 109.44,-517.84 87.3,-512.02"/>
<polygon fill="#63b8ff" stroke="#63b8ff" points="158.16,-534.24 168.72,-533.39 159.93,-527.47 158.16,-534.24"/>
</a>
</g>
</g>
<!-- Node71&#45;&gt;Node4 -->
<g id="edge14_Node000071_Node000004" class="edge">
<title>Node71&#45;&gt;Node4</title>
<g id="a_edge14_Node000071_Node000004"><a xlink:title=" ">
<path fill="none" stroke="#63b8ff" d="M624.15,-776.5C589.58,-776.5 535.59,-776.5 504.58,-776.5"/>
<polygon fill="#63b8ff" stroke="#63b8ff" points="624.21,-780 634.21,-776.5 624.21,-773 624.21,-780"/>
</a>
</g>
</g>
<!-- Node81 -->
<g id="Node000081" class="node">
<title>Node81</title>
<g id="a_Node000081"><a xlink:href="networking_8c.html#ae4e16a7c6d8ea252f0434363561595e1" target="_top" xlink:title=" ">
<polygon fill="white" stroke="#666666" points="716.5,-142 598.5,-142 598.5,-123 716.5,-123 716.5,-142"/>
<text text-anchor="middle" x="657.5" y="-130" font-family="Helvetica,sans-Serif" font-size="10.00">handleReceivedData</text>
</a>
</g>
</g>
<!-- Node80&#45;&gt;Node81 -->
<g id="edge24_Node000080_Node000081" class="edge">
<title>Node80&#45;&gt;Node81</title>
<g id="a_edge24_Node000080_Node000081"><a xlink:title=" ">
<path fill="none" stroke="#63b8ff" d="M775.99,-157.85C752.43,-152.77 725.15,-146.88 702.81,-142.06"/>
<polygon fill="#63b8ff" stroke="#63b8ff" points="775.32,-161.28 785.83,-159.97 776.8,-154.44 775.32,-161.28"/>
</a>
</g>
</g>
<!-- Node82 -->
<g id="Node000082" class="node">
<title>Node82</title>
<g id="a_Node000082"><a xlink:href="networking_8c.html#a6fdfec7636de6ab68fc5108c84c29844" target="_top" xlink:title=" ">
<polygon fill="#fff0f0" stroke="red" points="528.5,-142 430.5,-142 430.5,-123 528.5,-123 528.5,-142"/>
<text text-anchor="middle" x="479.5" y="-130" font-family="Helvetica,sans-Serif" font-size="10.00">networking_loop</text>
</a>
</g>
</g>
<!-- Node81&#45;&gt;Node82 -->
<g id="edge25_Node000081_Node000082" class="edge">
<title>Node81&#45;&gt;Node82</title>
<g id="a_edge25_Node000081_Node000082"><a xlink:title=" ">
<path fill="none" stroke="#63b8ff" d="M588.13,-132.5C568.24,-132.5 546.93,-132.5 528.57,-132.5"/>
<polygon fill="#63b8ff" stroke="#63b8ff" points="588.38,-136 598.38,-132.5 588.38,-129 588.38,-136"/>
</a>
</g>
</g>
<!-- Node88 -->
<g id="Node000088" class="node">
<title>Node88</title>
<g id="a_Node000088"><a xlink:href="classModelLoader.html#ab578b63a565352c0c270bc4ebbc07653" target="_top" xlink:title=" ">
<polygon fill="white" stroke="#666666" points="712,-414 603,-414 603,-395 712,-395 712,-414"/>
<text text-anchor="middle" x="657.5" y="-402" font-family="Helvetica,sans-Serif" font-size="10.00">ModelLoader::Load</text>
</a>
</g>
</g>
<!-- Node87&#45;&gt;Node88 -->
<g id="edge28_Node000087_Node000088" class="edge">
<title>Node87&#45;&gt;Node88</title>
<g id="a_edge28_Node000087_Node000088"><a xlink:title=" ">
<path fill="none" stroke="#63b8ff" d="M776.96,-378.25C752.71,-383.63 724.35,-389.91 701.47,-394.98"/>
<polygon fill="#63b8ff" stroke="#63b8ff" points="777.72,-381.67 786.72,-376.09 776.2,-374.84 777.72,-381.67"/>
</a>
</g>
</g>
<!-- Node90 -->
<g id="Node000090" class="node">
<title>Node90</title>
<g id="a_Node000090"><a xlink:href="spawn__players_8c.html#a1d1dc4164aa554583609ad0d9bbbf276" target="_top" xlink:title=" ">
<polygon fill="white" stroke="#666666" points="379,-179 286,-179 286,-160 379,-160 379,-179"/>
<text text-anchor="middle" x="332.5" y="-167" font-family="Helvetica,sans-Serif" font-size="10.00">func_8003CD98</text>
</a>
</g>
</g>
<!-- Node89&#45;&gt;Node90 -->
<g id="edge30_Node000089_Node000090" class="edge">
<title>Node89&#45;&gt;Node90</title>
<g id="a_edge30_Node000089_Node000090"><a xlink:title=" ">
<path fill="none" stroke="#63b8ff" d="M770.12,-333.64C669.78,-339.45 472.96,-345.74 415,-310.5 364.75,-279.95 342.35,-205.96 335.72,-179.29"/>
<polygon fill="#63b8ff" stroke="#63b8ff" points="770.63,-337.11 780.4,-333.02 770.21,-330.12 770.63,-337.11"/>
</a>
</g>
</g>
<!-- Node134 -->
<g id="Node000134" class="node">
<title>Node134</title>
<g id="a_Node000134"><a xlink:href="spawn__players_8c.html#af4ffc0854efc3e4c009e6d40b651f773" target="_top" xlink:title=" ">
<polygon fill="white" stroke="#666666" points="704.5,-377 610.5,-377 610.5,-358 704.5,-358 704.5,-377"/>
<text text-anchor="middle" x="657.5" y="-365" font-family="Helvetica,sans-Serif" font-size="10.00">func_8003DB5C</text>
</a>
</g>
</g>
<!-- Node89&#45;&gt;Node134 -->
<g id="edge32_Node000089_Node000134" class="edge">
<title>Node89&#45;&gt;Node134</title>
<g id="a_edge32_Node000089_Node000134"><a xlink:title=" ">
<path fill="none" stroke="#63b8ff" d="M776.96,-341.25C752.71,-346.63 724.35,-352.91 701.47,-357.98"/>
<polygon fill="#63b8ff" stroke="#63b8ff" points="777.72,-344.67 786.72,-339.09 776.2,-337.84 777.72,-344.67"/>
</a>
</g>
</g>
<!-- Node91 -->
<g id="Node000091" class="node">
<title>Node91</title>
<g id="a_Node000091"><a xlink:href="spawn__players_8c.html#ac1a9412b931cfa517a2382c2fc605399" target="_top" xlink:title=" ">
<polygon fill="#fff0f0" stroke="red" points="239,-179 147,-179 147,-160 239,-160 239,-179"/>
<text text-anchor="middle" x="193" y="-167" font-family="Helvetica,sans-Serif" font-size="10.00">func_8003D080</text>
</a>
</g>
</g>
<!-- Node90&#45;&gt;Node91 -->
<g id="edge31_Node000090_Node000091" class="edge">
<title>Node90&#45;&gt;Node91</title>
<g id="a_edge31_Node000090_Node000091"><a xlink:title=" ">
<path fill="none" stroke="#63b8ff" d="M275.67,-169.5C263.51,-169.5 250.8,-169.5 239.12,-169.5"/>
<polygon fill="#63b8ff" stroke="#63b8ff" points="275.71,-173 285.71,-169.5 275.71,-166 275.71,-173"/>
</a>
</g>
</g>
<!-- Node135 -->
<g id="Node000135" class="node">
<title>Node135</title>
<g id="a_Node000135"><a xlink:href="race__logic_8c.html#aeb498a031d0fc8f31b5947bf329344f4" target="_top" xlink:title=" ">
<polygon fill="#fff0f0" stroke="red" points="525,-377 434,-377 434,-358 525,-358 525,-377"/>
<text text-anchor="middle" x="479.5" y="-365" font-family="Helvetica,sans-Serif" font-size="10.00">func_8028E678</text>
</a>
</g>
</g>
<!-- Node134&#45;&gt;Node135 -->
<g id="edge33_Node000134_Node000135" class="edge">
<title>Node134&#45;&gt;Node135</title>
<g id="a_edge33_Node000134_Node000135"><a xlink:title=" ">
<path fill="none" stroke="#63b8ff" d="M600.13,-367.5C575.9,-367.5 547.99,-367.5 525.22,-367.5"/>
<polygon fill="#63b8ff" stroke="#63b8ff" points="600.26,-371 610.26,-367.5 600.26,-364 600.26,-371"/>
</a>
</g>
</g>
<!-- Node139 -->
<g id="Node000139" class="node">
<title>Node139</title>
<g id="a_Node000139"><a xlink:href="update__objects_8c.html#aad7449c3468a6e25931243fd9d0fc3ae" target="_top" xlink:title=" ">
<polygon fill="white" stroke="#666666" points="704,-216 611,-216 611,-197 704,-197 704,-216"/>
<text text-anchor="middle" x="657.5" y="-204" font-family="Helvetica,sans-Serif" font-size="10.00">func_80085DB8</text>
</a>
</g>
</g>
<!-- Node138&#45;&gt;Node139 -->
<g id="edge35_Node000138_Node000139" class="edge">
<title>Node138&#45;&gt;Node139</title>
<g id="a_edge35_Node000138_Node000139"><a xlink:title=" ">
<path fill="none" stroke="#63b8ff" d="M775.99,-231.85C752.43,-226.77 725.15,-220.88 702.81,-216.06"/>
<polygon fill="#63b8ff" stroke="#63b8ff" points="775.32,-235.28 785.83,-233.97 776.8,-228.44 775.32,-235.28"/>
</a>
</g>
</g>
<!-- Node144 -->
<g id="Node000144" class="node">
<title>Node144</title>
<g id="a_Node000144"><a xlink:href="update__objects_8c.html#abef9e21ca75285520cc71d37b6ef71b5" target="_top" xlink:title=" ">
<polygon fill="white" stroke="#666666" points="703,-179 612,-179 612,-160 703,-160 703,-179"/>
<text text-anchor="middle" x="657.5" y="-167" font-family="Helvetica,sans-Serif" font-size="10.00">func_80085EF8</text>
</a>
</g>
</g>
<!-- Node138&#45;&gt;Node144 -->
<g id="edge37_Node000138_Node000144" class="edge">
<title>Node138&#45;&gt;Node144</title>
<g id="a_edge37_Node000138_Node000144"><a xlink:title=" ">
<path fill="none" stroke="#63b8ff" d="M808.48,-228.25C789.83,-215.68 761.72,-198.23 735,-187.5 725,-183.48 713.88,-180.23 703.3,-177.66"/>
<polygon fill="#63b8ff" stroke="#63b8ff" points="806.6,-231.21 816.82,-233.98 810.56,-225.43 806.6,-231.21"/>
</a>
</g>
</g>
<!-- Node146 -->
<g id="Node000146" class="node">
<title>Node146</title>
<g id="a_Node000146"><a xlink:href="classOLakitu.html#a55d273da9dad852276fb5d1dc4c41e88" target="_top" xlink:title=" ">
<polygon fill="white" stroke="#666666" points="735,-301.5 580,-301.5 580,-271.5 735,-271.5 735,-301.5"/>
<text text-anchor="start" x="588" y="-289.5" font-family="Helvetica,sans-Serif" font-size="10.00">OLakitu::init_obj_lakitu</text>
<text text-anchor="middle" x="657.5" y="-278.5" font-family="Helvetica,sans-Serif" font-size="10.00">_starter_and_checkered_flag</text>
</a>
</g>
</g>
<!-- Node138&#45;&gt;Node146 -->
<g id="edge39_Node000138_Node000146" class="edge">
<title>Node138&#45;&gt;Node146</title>
<g id="a_edge39_Node000138_Node000146"><a xlink:title=" ">
<path fill="none" stroke="#63b8ff" d="M782.22,-255.48C762.43,-260.44 739.26,-266.25 718.35,-271.49"/>
<polygon fill="#63b8ff" stroke="#63b8ff" points="783.09,-258.87 791.94,-253.04 781.39,-252.08 783.09,-258.87"/>
</a>
</g>
</g>
<!-- Node149 -->
<g id="Node000149" class="node">
<title>Node149</title>
<g id="a_Node000149"><a xlink:href="update__objects_8c.html#a86976d4b79853c37ad7d3b5f0513a9b8" target="_top" xlink:title=" ">
<polygon fill="white" stroke="#666666" points="727.5,-253 587.5,-253 587.5,-234 727.5,-234 727.5,-253"/>
<text text-anchor="middle" x="657.5" y="-241" font-family="Helvetica,sans-Serif" font-size="10.00">init_obj_neon_mushroom</text>
</a>
</g>
</g>
<!-- Node138&#45;&gt;Node149 -->
<g id="edge41_Node000138_Node000149" class="edge">
<title>Node138&#45;&gt;Node149</title>
<g id="a_edge41_Node000138_Node000149"><a xlink:title=" ">
<path fill="none" stroke="#63b8ff" d="M762.86,-243.5C751.27,-243.5 739.21,-243.5 727.57,-243.5"/>
<polygon fill="#63b8ff" stroke="#63b8ff" points="762.89,-247 772.89,-243.5 762.89,-240 762.89,-247"/>
</a>
</g>
</g>
<!-- Node140 -->
<g id="Node000140" class="node">
<title>Node140</title>
<g id="a_Node000140"><a xlink:href="update__objects_8c.html#aaf345d74477b4556bd7cb590179d7e72" target="_top" xlink:title=" ">
<polygon fill="#fff0f0" stroke="red" points="525,-216 434,-216 434,-197 525,-197 525,-216"/>
<text text-anchor="middle" x="479.5" y="-204" font-family="Helvetica,sans-Serif" font-size="10.00">func_80085E38</text>
</a>
</g>
</g>
<!-- Node139&#45;&gt;Node140 -->
<g id="edge36_Node000139_Node000140" class="edge">
<title>Node139&#45;&gt;Node140</title>
<g id="a_edge36_Node000139_Node000140"><a xlink:title=" ">
<path fill="none" stroke="#63b8ff" d="M600.54,-206.5C576.19,-206.5 548.05,-206.5 525.14,-206.5"/>
<polygon fill="#63b8ff" stroke="#63b8ff" points="600.72,-210 610.72,-206.5 600.72,-203 600.72,-210"/>
</a>
</g>
</g>
<!-- Node145 -->
<g id="Node000145" class="node">
<title>Node145</title>
<g id="a_Node000145"><a xlink:href="update__objects_8c.html#a611ea98550b46aa887eb34b7472ef871" target="_top" xlink:title=" ">
<polygon fill="#fff0f0" stroke="red" points="525,-179 434,-179 434,-160 525,-160 525,-179"/>
<text text-anchor="middle" x="479.5" y="-167" font-family="Helvetica,sans-Serif" font-size="10.00">func_80085F74</text>
</a>
</g>
</g>
<!-- Node144&#45;&gt;Node145 -->
<g id="edge38_Node000144_Node000145" class="edge">
<title>Node144&#45;&gt;Node145</title>
<g id="a_edge38_Node000144_Node000145"><a xlink:title=" ">
<path fill="none" stroke="#63b8ff" d="M601.41,-169.5C576.91,-169.5 548.44,-169.5 525.29,-169.5"/>
<polygon fill="#63b8ff" stroke="#63b8ff" points="601.63,-173 611.63,-169.5 601.63,-166 601.63,-173"/>
</a>
</g>
</g>
<!-- Node147 -->
<g id="Node000147" class="node">
<title>Node147</title>
<g id="a_Node000147"><a xlink:href="classOLakitu.html#aef9bf9e2cb4783624b766105deb9aa87" target="_top" xlink:title=" ">
<polygon fill="#fff0f0" stroke="red" points="544,-301.5 415,-301.5 415,-271.5 544,-271.5 544,-301.5"/>
<text text-anchor="start" x="423" y="-289.5" font-family="Helvetica,sans-Serif" font-size="10.00">OLakitu::update_object</text>
<text text-anchor="middle" x="479.5" y="-278.5" font-family="Helvetica,sans-Serif" font-size="10.00">_lakitu_starter</text>
</a>
</g>
</g>
<!-- Node146&#45;&gt;Node147 -->
<g id="edge40_Node000146_Node000147" class="edge">
<title>Node146&#45;&gt;Node147</title>
<g id="a_edge40_Node000146_Node000147"><a xlink:title=" ">
<path fill="none" stroke="#63b8ff" d="M569.69,-286.5C561.03,-286.5 552.37,-286.5 544.02,-286.5"/>
<polygon fill="#63b8ff" stroke="#63b8ff" points="569.82,-290 579.82,-286.5 569.82,-283 569.82,-290"/>
</a>
</g>
</g>
<!-- Node150 -->
<g id="Node000150" class="node">
<title>Node150</title>
<g id="a_Node000150"><a xlink:href="update__objects_8c.html#a38bcb1c1e3fb81ad72c3e87254e35a0c" target="_top" xlink:title=" ">
<polygon fill="#fff0f0" stroke="red" points="525.5,-253 433.5,-253 433.5,-234 525.5,-234 525.5,-253"/>
<text text-anchor="middle" x="479.5" y="-241" font-family="Helvetica,sans-Serif" font-size="10.00">func_80085CA0</text>
</a>
</g>
</g>
<!-- Node149&#45;&gt;Node150 -->
<g id="edge42_Node000149_Node000150" class="edge">
<title>Node149&#45;&gt;Node150</title>
<g id="a_edge42_Node000149_Node000150"><a xlink:title=" ">
<path fill="none" stroke="#63b8ff" d="M577.11,-243.5C559.43,-243.5 541.27,-243.5 525.55,-243.5"/>
<polygon fill="#63b8ff" stroke="#63b8ff" points="577.45,-247 587.45,-243.5 577.45,-240 577.45,-247"/>
</a>
</g>
</g>
<!-- Node152 -->
<g id="Node000152" class="node">
<title>Node152</title>
<g id="a_Node000152"><a xlink:href="render__player_8c.html#a53a1f659eaad8e23847f927e359c3551" target="_top" xlink:title=" ">
<polygon fill="white" stroke="#666666" points="720,-25 595,-25 595,-6 720,-6 720,-25"/>
<text text-anchor="middle" x="657.5" y="-13" font-family="Helvetica,sans-Serif" font-size="10.00">update_wheel_palette</text>
</a>
</g>
</g>
<!-- Node151&#45;&gt;Node152 -->
<g id="edge44_Node000151_Node000152" class="edge">
<title>Node151&#45;&gt;Node152</title>
<g id="a_edge44_Node000151_Node000152"><a xlink:title=" ">
<path fill="none" stroke="#63b8ff" d="M764.81,-27.28C750.15,-25.65 734.65,-23.94 720.15,-22.33"/>
<polygon fill="#63b8ff" stroke="#63b8ff" points="764.47,-30.76 774.79,-28.38 765.24,-23.8 764.47,-30.76"/>
</a>
</g>
</g>
<!-- Node153 -->
<g id="Node000153" class="node">
<title>Node153</title>
<g id="a_Node000153"><a xlink:href="render__player_8c.html#a9afd62c74edf8ebd0a77158f6626ce10" target="_top" xlink:title=" ">
<polygon fill="#fff0f0" stroke="red" points="521.5,-19 437.5,-19 437.5,0 521.5,0 521.5,-19"/>
<text text-anchor="middle" x="479.5" y="-7" font-family="Helvetica,sans-Serif" font-size="10.00">render_player</text>
</a>
</g>
</g>
<!-- Node152&#45;&gt;Node153 -->
<g id="edge45_Node000152_Node000153" class="edge">
<title>Node152&#45;&gt;Node153</title>
<g id="a_edge45_Node000152_Node000153"><a xlink:title=" ">
<path fill="none" stroke="#63b8ff" d="M584.84,-13.06C563.31,-12.32 540.43,-11.54 521.59,-10.9"/>
<polygon fill="#63b8ff" stroke="#63b8ff" points="584.83,-16.56 594.94,-13.4 585.07,-9.56 584.83,-16.56"/>
</a>
</g>
</g>
<!-- Node153&#45;&gt;Node90 -->
<g id="edge46_Node000153_Node000090" class="edge">
<title>Node153&#45;&gt;Node90</title>
<g id="a_edge46_Node000153_Node000090"><a xlink:title=" ">
<path fill="none" stroke="#63b8ff" d="M427.76,-20.74C423.2,-22.89 418.86,-25.45 415,-28.5 369.08,-64.79 344.13,-134.58 336.27,-159.97"/>
<polygon fill="#63b8ff" stroke="#63b8ff" points="429.36,-23.87 437.32,-16.88 426.74,-17.38 429.36,-23.87"/>
</a>
</g>
</g>
<!-- Node159&#45;&gt;Node67 -->
<g id="edge48_Node000159_Node000067" class="edge">
<title>Node159&#45;&gt;Node67</title>
<g id="a_edge48_Node000159_Node000067"><a xlink:title=" ">
<path fill="none" stroke="#63b8ff" d="M302.06,-488.42C275.64,-500.91 237.56,-518.91 214.37,-529.87"/>
<polygon fill="#63b8ff" stroke="#63b8ff" points="303.67,-491.53 311.21,-484.09 300.67,-485.2 303.67,-491.53"/>
</a>
</g>
</g>
<!-- Node84 -->
<g id="Node000084" class="node">
<title>Node84</title>
<g id="a_Node000084"><a xlink:href="networking_8c.html#a9c6ade683b9f080f25707e0812ef7a6c" target="_top" xlink:title=" ">
<polygon fill="white" stroke="#666666" points="706.5,-65 608.5,-65 608.5,-46 706.5,-46 706.5,-65"/>
<text text-anchor="middle" x="657.5" y="-53" font-family="Helvetica,sans-Serif" font-size="10.00">ConnectToServer</text>
</a>
</g>
</g>
<!-- Node160&#45;&gt;Node84 -->
<g id="edge50_Node000160_Node000084" class="edge">
<title>Node160&#45;&gt;Node84</title>
<g id="a_edge50_Node000160_Node000084"><a xlink:title=" ">
<path fill="none" stroke="#63b8ff" d="M779.06,-83.62C753.58,-77.68 723.15,-70.58 699.24,-65"/>
<polygon fill="#63b8ff" stroke="#63b8ff" points="778.39,-87.06 788.92,-85.92 779.98,-80.24 778.39,-87.06"/>
</a>
</g>
</g>
<!-- Node161 -->
<g id="Node000161" class="node">
<title>Node161</title>
<g id="a_Node000161"><a xlink:href="networking_8c.html#a840ac4cfb918d97373907c0a176ce5c5" target="_top" xlink:title=" ">
<polygon fill="white" stroke="#666666" points="715,-105 600,-105 600,-86 715,-86 715,-105"/>
<text text-anchor="middle" x="657.5" y="-93" font-family="Helvetica,sans-Serif" font-size="10.00">networking_cleanup</text>
</a>
</g>
</g>
<!-- Node160&#45;&gt;Node161 -->
<g id="edge52_Node000160_Node000161" class="edge">
<title>Node160&#45;&gt;Node161</title>
<g id="a_edge52_Node000160_Node000161"><a xlink:title=" ">
<path fill="none" stroke="#63b8ff" d="M773.02,-95.5C754.38,-95.5 733.68,-95.5 715.07,-95.5"/>
<polygon fill="#63b8ff" stroke="#63b8ff" points="773.14,-99 783.14,-95.5 773.14,-92 773.14,-99"/>
</a>
</g>
</g>
<!-- Node85 -->
<g id="Node000085" class="node">
<title>Node85</title>
<g id="a_Node000085"><a xlink:href="namespaceGameUI_1_1Multiplayer.html#a82477c0920d435faed20e3dd60161438" target="_top" xlink:title=" ">
<polygon fill="white" stroke="#666666" points="538.5,-67.5 420.5,-67.5 420.5,-37.5 538.5,-37.5 538.5,-67.5"/>
<text text-anchor="start" x="428.5" y="-55.5" font-family="Helvetica,sans-Serif" font-size="10.00">GameUI::Multiplayer</text>
<text text-anchor="middle" x="479.5" y="-44.5" font-family="Helvetica,sans-Serif" font-size="10.00">::DrawColumn1</text>
</a>
</g>
</g>
<!-- Node84&#45;&gt;Node85 -->
<g id="edge51_Node000084_Node000085" class="edge">
<title>Node84&#45;&gt;Node85</title>
<g id="a_edge51_Node000084_Node000085"><a xlink:title=" ">
<path fill="none" stroke="#63b8ff" d="M598.29,-54.51C579.09,-54.18 557.74,-53.82 538.56,-53.49"/>
<polygon fill="#63b8ff" stroke="#63b8ff" points="598.35,-58.01 608.41,-54.68 598.47,-51.01 598.35,-58.01"/>
</a>
</g>
</g>
<!-- Node161&#45;&gt;Node82 -->
<g id="edge54_Node000161_Node000082" class="edge">
<title>Node161&#45;&gt;Node82</title>
<g id="a_edge54_Node000161_Node000082"><a xlink:title=" ">
<path fill="none" stroke="#63b8ff" d="M601.07,-107.15C576.9,-112.23 548.9,-118.12 525.98,-122.94"/>
<polygon fill="#63b8ff" stroke="#63b8ff" points="602.11,-110.51 611.18,-105.03 600.67,-103.66 602.11,-110.51"/>
</a>
</g>
</g>
<!-- Node162 -->
<g id="Node000162" class="node">
<title>Node162</title>
<g id="a_Node000162"><a xlink:href="networking_8c.html#aed9ca538cfe9988acf346351f27a368e" target="_top" xlink:title=" ">
<polygon fill="#fff0f0" stroke="red" points="544,-105 415,-105 415,-86 544,-86 544,-105"/>
<text text-anchor="middle" x="479.5" y="-93" font-family="Helvetica,sans-Serif" font-size="10.00">networking_disconnect</text>
</a>
</g>
</g>
<!-- Node161&#45;&gt;Node162 -->
<g id="edge53_Node000161_Node000162" class="edge">
<title>Node161&#45;&gt;Node162</title>
<g id="a_edge53_Node000161_Node000162"><a xlink:title=" ">
<path fill="none" stroke="#63b8ff" d="M589.65,-95.5C574.7,-95.5 558.89,-95.5 544.07,-95.5"/>
<polygon fill="#63b8ff" stroke="#63b8ff" points="589.84,-99 599.84,-95.5 589.84,-92 589.84,-99"/>
</a>
</g>
</g>
</g>
</svg>

<g id="navigator" transform="translate(0 0)" fill="#404254">
  <rect fill="#f2f5e9" fill-opacity="0.5" stroke="#606060" stroke-width=".5" x="0" y="0" width="60" height="60"/>
  <use id="zoomplus" xlink:href="#zoomPlus" x="17" y="9" onmousedown="handleZoom(evt,'in')"/>
  <use id="zoomminus" xlink:href="#zoomMin" x="42" y="9" onmousedown="handleZoom(evt,'out')"/>
  <use id="reset" xlink:href="#resetDef" x="30" y="36" onmousedown="handleReset()"/>
   <use id="arrowup" xlink:href="#arrowUp" x="0" y="0" onmousedown="handlePan(0,-1)"/>
  <use id="arrowright" xlink:href="#arrowRight" x="0" y="0" onmousedown="handlePan(1,0)"/>
  <use id="arrowdown" xlink:href="#arrowDown" x="0" y="0" onmousedown="handlePan(0,1)"/>
  <use id="arrowleft" xlink:href="#arrowLeft" x="0" y="0" onmousedown="handlePan(-1,0)"/>
</g>
<svg viewBox="0 0 15 15" width="100%" height="30px" preserveAspectRatio="xMaxYMin meet">
 <g id="arrow_out" transform="scale(0.3 0.3)">
  <a xlink:href="string_8h_ad7f1ae1bbb49dece44bda378982a704d_icgraph_org.svg" target="_base">
   <rect id="button" ry="5" rx="5" y="6" x="6" height="38" width="38"
        fill="#f2f5e9" fill-opacity="0.5" stroke="#606060" stroke-width="1.0"/>
   <path id="arrow"
     d="M 11.500037,31.436501 C 11.940474,20.09759 22.043105,11.32322 32.158766,21.979434 L 37.068811,17.246167 C 37.068811,17.246167 37.088388,32 37.088388,32 L 22.160133,31.978069 C 22.160133,31.978069 26.997745,27.140456 26.997745,27.140456 C 18.528582,18.264221 13.291696,25.230495 11.500037,31.436501 z"
     style="fill:#404040;"/>
  </a>
 </g>
</svg>

<style type='text/css'>
<![CDATA[
[data-mouse-over-selected='false'] { opacity: 0.7; }
[data-mouse-over-selected='true']  { opacity: 1.0; }
]]>
</style>
<script type="application/ecmascript"><![CDATA[
document.addEventListener('DOMContentLoaded', (event) => {
  highlightEdges();
  highlightAdjacentNodes();
});
]]></script>
</svg>
