<?xml version="1.0" encoding="UTF-8" standalone="no"?>
<!DOCTYPE svg PUBLIC "-//W3C//DTD SVG 1.1//EN"
 "http://www.w3.org/Graphics/SVG/1.1/DTD/svg11.dtd">
<!-- Generated by graphviz version 2.43.0 (0)
 -->
<!-- Title: ModelLoader::LoadModelList Pages: 1 -->
<svg width="311pt" height="126pt"
 viewBox="0.00 0.00 310.50 126.00" xmlns="http://www.w3.org/2000/svg" xmlns:xlink="http://www.w3.org/1999/xlink">
<g id="graph0" class="graph" transform="scale(1 1) rotate(0) translate(4 122)">
<title>ModelLoader::LoadModelList</title>
<!-- Node1 -->
<g id="Node000001" class="node">
<title>Node1</title>
<g id="a_Node000001"><a xlink:title=" ">
<polygon fill="#999999" stroke="#666666" points="208.5,-19 52.5,-19 52.5,0 208.5,0 208.5,-19"/>
<text text-anchor="middle" x="130.5" y="-7" font-family="Helvetica,sans-Serif" font-size="10.00">ModelLoader::LoadModelList</text>
</a>
</g>
</g>
<!-- Node2 -->
<g id="Node000002" class="node">
<title>Node2</title>
<g id="a_Node000002"><a xlink:title=" ">
<polygon fill="white" stroke="#666666" points="59,-118 0,-118 0,-99 59,-99 59,-118"/>
<text text-anchor="middle" x="29.5" y="-106" font-family="Helvetica,sans-Serif" font-size="10.00">Course *</text>
</a>
</g>
</g>
<!-- Node2&#45;&gt;Node1 -->
<g id="edge1_Node000001_Node000002" class="edge">
<title>Node2&#45;&gt;Node1</title>
<g id="a_edge1_Node000001_Node000002"><a xlink:title=" ">
<path fill="none" stroke="#9a32cd" stroke-dasharray="5,2" d="M29.8,-88.73C31.05,-72.98 35.28,-50.89 48.5,-37 56.44,-28.66 67.03,-22.93 77.94,-19.01"/>
<polygon fill="#9a32cd" stroke="#9a32cd" points="26.3,-88.72 29.33,-98.87 33.29,-89.05 26.3,-88.72"/>
</a>
</g>
<text text-anchor="middle" x="66.5" y="-56.5" font-family="Helvetica,sans-Serif" font-size="10.00" fill="grey"> course</text>
</g>
<!-- Node3 -->
<g id="Node000003" class="node">
<title>Node3</title>
<g id="a_Node000003"><a xlink:title=" ">
<polygon fill="white" stroke="#666666" points="111.5,-118 77.5,-118 77.5,-99 111.5,-99 111.5,-118"/>
<text text-anchor="middle" x="94.5" y="-106" font-family="Helvetica,sans-Serif" font-size="10.00">Gfx</text>
</a>
</g>
</g>
<!-- Node3&#45;&gt;Node1 -->
<g id="edge2_Node000001_Node000003" class="edge">
<title>Node3&#45;&gt;Node1</title>
<g id="a_edge2_Node000001_Node000003"><a xlink:title=" ">
<path fill="none" stroke="#9a32cd" stroke-dasharray="5,2" d="M90.45,-88.66C88.25,-73.81 87.4,-53.01 95.5,-37 99.29,-29.52 106.28,-23.57 113.03,-19.23"/>
<polygon fill="#9a32cd" stroke="#9a32cd" points="87.04,-89.47 92.28,-98.68 93.93,-88.21 87.04,-89.47"/>
</a>
</g>
<text text-anchor="middle" x="120" y="-56.5" font-family="Helvetica,sans-Serif" font-size="10.00" fill="grey"> gfxBuffer</text>
</g>
<!-- Node4 -->
<g id="Node000004" class="node">
<title>Node4</title>
<g id="a_Node000004"><a xlink:title=" ">
<polygon fill="white" stroke="#666666" points="189,-118 144,-118 144,-99 189,-99 189,-118"/>
<text text-anchor="middle" x="166.5" y="-106" font-family="Helvetica,sans-Serif" font-size="10.00">size_t</text>
</a>
</g>
</g>
<!-- Node4&#45;&gt;Node1 -->
<g id="edge3_Node000001_Node000004" class="edge">
<title>Node4&#45;&gt;Node1</title>
<g id="a_edge3_Node000001_Node000004"><a xlink:title=" ">
<path fill="none" stroke="#9a32cd" stroke-dasharray="5,2" d="M161.71,-88.92C157.75,-74.51 151.64,-54.17 144.5,-37 141.94,-30.85 138.44,-24.23 135.58,-19.14"/>
<polygon fill="#9a32cd" stroke="#9a32cd" points="158.34,-89.87 164.29,-98.63 165.1,-88.07 158.34,-89.87"/>
</a>
</g>
<text text-anchor="middle" x="193" y="-73" font-family="Helvetica,sans-Serif" font-size="10.00" fill="grey"> gfxBufferSize</text>
<text text-anchor="middle" x="193" y="-62" font-family="Helvetica,sans-Serif" font-size="10.00" fill="grey">gfxStart</text>
<text text-anchor="middle" x="193" y="-51" font-family="Helvetica,sans-Serif" font-size="10.00" fill="grey">vtxBufferSize</text>
<text text-anchor="middle" x="193" y="-40" font-family="Helvetica,sans-Serif" font-size="10.00" fill="grey">vtxStart</text>
</g>
<!-- Node5 -->
<g id="Node000005" class="node">
<title>Node5</title>
<g id="a_Node000005"><a xlink:title=" ">
<polygon fill="white" stroke="#666666" points="275,-118 242,-118 242,-99 275,-99 275,-118"/>
<text text-anchor="middle" x="258.5" y="-106" font-family="Helvetica,sans-Serif" font-size="10.00">Vtx</text>
</a>
</g>
</g>
<!-- Node5&#45;&gt;Node1 -->
<g id="edge4_Node000001_Node000005" class="edge">
<title>Node5&#45;&gt;Node1</title>
<g id="a_edge4_Node000001_Node000005"><a xlink:title=" ">
<path fill="none" stroke="#9a32cd" stroke-dasharray="5,2" d="M256.05,-88.4C253.01,-72.45 246.26,-50.23 231.5,-37 222.32,-28.77 210.89,-23.05 199.06,-19.07"/>
<polygon fill="#9a32cd" stroke="#9a32cd" points="252.66,-89.37 257.68,-98.7 259.58,-88.28 252.66,-89.37"/>
</a>
</g>
<text text-anchor="middle" x="278" y="-56.5" font-family="Helvetica,sans-Serif" font-size="10.00" fill="grey"> vtxBuffer</text>
</g>
</g>
</svg>
