<?xml version="1.0" encoding="UTF-8" standalone="no"?>
<!DOCTYPE svg PUBLIC "-//W3C//DTD SVG 1.1//EN"
 "http://www.w3.org/Graphics/SVG/1.1/DTD/svg11.dtd">
<!-- Generated by graphviz version 2.43.0 (0)
 -->
<!-- Title: Editor::ContentBrowserWindow::Tracks Pages: 1 -->
<svg width="446pt" height="126pt"
 viewBox="0.00 0.00 446.00 126.00" xmlns="http://www.w3.org/2000/svg" xmlns:xlink="http://www.w3.org/1999/xlink">
<g id="graph0" class="graph" transform="scale(1 1) rotate(0) translate(4 122)">
<title>Editor::ContentBrowserWindow::Tracks</title>
<!-- Node1 -->
<g id="Node000001" class="node">
<title>Node1</title>
<g id="a_Node000001"><a xlink:title=" ">
<polygon fill="#999999" stroke="#666666" points="291.5,-30 123.5,-30 123.5,0 291.5,0 291.5,-30"/>
<text text-anchor="start" x="131.5" y="-18" font-family="Helvetica,sans-Serif" font-size="10.00">Editor::ContentBrowserWindow</text>
<text text-anchor="middle" x="207.5" y="-7" font-family="Helvetica,sans-Serif" font-size="10.00">::Tracks</text>
</a>
</g>
</g>
<!-- Node2 -->
<g id="Node000002" class="node">
<title>Node2</title>
<g id="a_Node000002"><a xlink:title=" ">
<polygon fill="white" stroke="#666666" points="125,-118 0,-118 0,-99 125,-99 125,-118"/>
<text text-anchor="middle" x="62.5" y="-106" font-family="Helvetica,sans-Serif" font-size="10.00">unique_ptr&lt; Course &gt;</text>
</a>
</g>
</g>
<!-- Node2&#45;&gt;Node1 -->
<g id="edge1_Node000001_Node000002" class="edge">
<title>Node2&#45;&gt;Node1</title>
<g id="a_edge1_Node000001_Node000002"><a xlink:title=" ">
<path fill="none" stroke="#9a32cd" stroke-dasharray="5,2" d="M72.27,-90.2C80.58,-76.91 93.69,-59.03 109.5,-48 120.36,-40.42 133.14,-34.55 145.8,-30.04"/>
<polygon fill="#9a32cd" stroke="#9a32cd" points="69.2,-88.51 67.08,-98.89 75.21,-92.09 69.2,-88.51"/>
</a>
</g>
<text text-anchor="middle" x="140.5" y="-62" font-family="Helvetica,sans-Serif" font-size="10.00" fill="grey"> invalidTrack</text>
</g>
<!-- Node3 -->
<g id="Node000003" class="node">
<title>Node3</title>
<g id="a_Node000003"><a xlink:title=" ">
<polygon fill="white" stroke="#666666" points="202,-118 143,-118 143,-99 202,-99 202,-118"/>
<text text-anchor="middle" x="172.5" y="-106" font-family="Helvetica,sans-Serif" font-size="10.00">Course *</text>
</a>
</g>
</g>
<!-- Node3&#45;&gt;Node1 -->
<g id="edge2_Node000001_Node000003" class="edge">
<title>Node3&#45;&gt;Node1</title>
<g id="a_edge2_Node000001_Node000003"><a xlink:title=" ">
<path fill="none" stroke="#9a32cd" stroke-dasharray="5,2" d="M174.26,-88.49C175.86,-76.49 178.88,-60.88 184.5,-48 187.23,-41.73 191.34,-35.47 195.33,-30.18"/>
<polygon fill="#9a32cd" stroke="#9a32cd" points="170.75,-88.35 173.11,-98.68 177.71,-89.13 170.75,-88.35"/>
</a>
</g>
<text text-anchor="middle" x="202.5" y="-62" font-family="Helvetica,sans-Serif" font-size="10.00" fill="grey"> course</text>
</g>
<!-- Node4 -->
<g id="Node000004" class="node">
<title>Node4</title>
<g id="a_Node000004"><a xlink:title=" ">
<polygon fill="white" stroke="#666666" points="264.5,-118 220.5,-118 220.5,-99 264.5,-99 264.5,-118"/>
<text text-anchor="middle" x="242.5" y="-106" font-family="Helvetica,sans-Serif" font-size="10.00">string</text>
</a>
</g>
</g>
<!-- Node4&#45;&gt;Node1 -->
<g id="edge3_Node000001_Node000004" class="edge">
<title>Node4&#45;&gt;Node1</title>
<g id="a_edge3_Node000001_Node000004"><a xlink:title=" ">
<path fill="none" stroke="#9a32cd" stroke-dasharray="5,2" d="M235.98,-89.41C231.68,-77.59 225.87,-61.84 220.5,-48 218.24,-42.19 215.68,-35.81 213.42,-30.3"/>
<polygon fill="#9a32cd" stroke="#9a32cd" points="232.76,-90.78 239.45,-98.99 239.34,-88.4 232.76,-90.78"/>
</a>
</g>
<text text-anchor="middle" x="256" y="-73" font-family="Helvetica,sans-Serif" font-size="10.00" fill="grey"> Dir</text>
<text text-anchor="middle" x="256" y="-62" font-family="Helvetica,sans-Serif" font-size="10.00" fill="grey">Name</text>
<text text-anchor="middle" x="256" y="-51" font-family="Helvetica,sans-Serif" font-size="10.00" fill="grey">SceneFile</text>
</g>
<!-- Node5 -->
<g id="Node000005" class="node">
<title>Node5</title>
<g id="a_Node000005"><a xlink:title=" ">
<polygon fill="white" stroke="#666666" points="438,-118 283,-118 283,-99 438,-99 438,-118"/>
<text text-anchor="middle" x="360.5" y="-106" font-family="Helvetica,sans-Serif" font-size="10.00">shared_ptr&lt; Ship::Archive &gt;</text>
</a>
</g>
</g>
<!-- Node5&#45;&gt;Node1 -->
<g id="edge4_Node000001_Node000005" class="edge">
<title>Node5&#45;&gt;Node1</title>
<g id="a_edge4_Node000001_Node000005"><a xlink:title=" ">
<path fill="none" stroke="#9a32cd" stroke-dasharray="5,2" d="M343.23,-92.03C328.2,-79.12 305.46,-60.81 283.5,-48 271.88,-41.22 258.54,-35.1 246.32,-30.08"/>
<polygon fill="#9a32cd" stroke="#9a32cd" points="341.28,-94.98 351.11,-98.93 345.89,-89.72 341.28,-94.98"/>
</a>
</g>
<text text-anchor="middle" x="348.5" y="-62" font-family="Helvetica,sans-Serif" font-size="10.00" fill="grey"> Archive</text>
</g>
</g>
</svg>
