<?xml version="1.0" encoding="UTF-8" standalone="no"?>
<!DOCTYPE svg PUBLIC "-//W3C//DTD SVG 1.1//EN"
 "http://www.w3.org/Graphics/SVG/1.1/DTD/svg11.dtd">
<!-- Generated by graphviz version 2.43.0 (0)
 -->
<!-- Title: struct_8018E768_entry Pages: 1 -->
<svg width="197pt" height="203pt"
 viewBox="0.00 0.00 197.00 203.00" xmlns="http://www.w3.org/2000/svg" xmlns:xlink="http://www.w3.org/1999/xlink">

<svg id="main" version="1.1" xmlns="http://www.w3.org/2000/svg" xmlns:xlink="http://www.w3.org/1999/xlink" xml:space="preserve">

<style type="text/css"><![CDATA[
.node, .edge {opacity: 0.7;}
.node.selected, .edge.selected {opacity: 1;}
.edge:hover path { stroke: red; }
.edge:hover polygon { stroke: red; fill: red; }
]]></style>
<script type="application/ecmascript" xlink:href="svg.min.js"/>
<svg id="graph" class="graph">
<g id="graph0" class="graph" transform="scale(1 1) rotate(0) translate(4 199)">
<title>struct_8018E768_entry</title>
<!-- Node1 -->
<g id="Node000001" class="node">
<title>Node1</title>
<g id="a_Node000001"><a xlink:title=" ">
<polygon fill="#999999" stroke="#666666" points="175,-19 47,-19 47,0 175,0 175,-19"/>
<text text-anchor="middle" x="111" y="-7" font-family="Helvetica,sans-Serif" font-size="10.00">struct_8018E768_entry</text>
</a>
</g>
</g>
<!-- Node2 -->
<g id="Node000002" class="node">
<title>Node2</title>
<g id="a_Node000002"><a xlink:href="structMenuTexture.html" target="_top" xlink:title="struct for a texture use in menu mainly">
<polygon fill="white" stroke="#666666" points="114,-85 34,-85 34,-66 114,-66 114,-85"/>
<text text-anchor="middle" x="74" y="-73" font-family="Helvetica,sans-Serif" font-size="10.00">MenuTexture</text>
</a>
</g>
</g>
<!-- Node2&#45;&gt;Node1 -->
<g id="edge1_Node000001_Node000002" class="edge">
<title>Node2&#45;&gt;Node1</title>
<g id="a_edge1_Node000001_Node000002"><a xlink:title=" ">
<path fill="none" stroke="#9a32cd" stroke-dasharray="5,2" d="M76.32,-55.67C77.65,-49.44 79.73,-42.65 83,-37 87.02,-30.05 93.42,-23.79 99.09,-19.1"/>
<polygon fill="#9a32cd" stroke="#9a32cd" points="72.8,-55.51 74.65,-65.94 79.71,-56.63 72.8,-55.51"/>
</a>
</g>
<text text-anchor="middle" x="105" y="-40" font-family="Helvetica,sans-Serif" font-size="10.00" fill="grey"> textures</text>
</g>
<!-- Node3 -->
<g id="Node000003" class="node">
<title>Node3</title>
<g id="a_Node000003"><a xlink:title=" ">
<polygon fill="white" stroke="#666666" points="34,-195 0,-195 0,-176 34,-176 34,-195"/>
<text text-anchor="middle" x="17" y="-183" font-family="Helvetica,sans-Serif" font-size="10.00">s32</text>
</a>
</g>
</g>
<!-- Node3&#45;&gt;Node2 -->
<g id="edge2_Node000002_Node000003" class="edge">
<title>Node3&#45;&gt;Node2</title>
<g id="a_edge2_Node000002_Node000003"><a xlink:title=" ">
<path fill="none" stroke="#9a32cd" stroke-dasharray="5,2" d="M20.63,-165.79C24.61,-148.46 32.21,-122.5 45,-103 49.49,-96.16 56.14,-89.91 61.94,-85.2"/>
<polygon fill="#9a32cd" stroke="#9a32cd" points="17.16,-165.27 18.51,-175.78 24.01,-166.72 17.16,-165.27"/>
</a>
</g>
<text text-anchor="middle" x="57.5" y="-128" font-family="Helvetica,sans-Serif" font-size="10.00" fill="grey"> type</text>
</g>
<!-- Node4 -->
<g id="Node000004" class="node">
<title>Node4</title>
<g id="a_Node000004"><a xlink:title=" ">
<polygon fill="white" stroke="#666666" points="95.5,-195 52.5,-195 52.5,-176 95.5,-176 95.5,-195"/>
<text text-anchor="middle" x="74" y="-183" font-family="Helvetica,sans-Serif" font-size="10.00">u64 *</text>
</a>
</g>
</g>
<!-- Node4&#45;&gt;Node2 -->
<g id="edge3_Node000002_Node000004" class="edge">
<title>Node4&#45;&gt;Node2</title>
<g id="a_edge3_Node000002_Node000004"><a xlink:title=" ">
<path fill="none" stroke="#9a32cd" stroke-dasharray="5,2" d="M74,-165.48C74,-141.84 74,-102.5 74,-85.16"/>
<polygon fill="#9a32cd" stroke="#9a32cd" points="70.5,-165.66 74,-175.66 77.5,-165.66 70.5,-165.66"/>
</a>
</g>
<text text-anchor="middle" x="105" y="-128" font-family="Helvetica,sans-Serif" font-size="10.00" fill="grey"> textureData</text>
</g>
<!-- Node5 -->
<g id="Node000005" class="node">
<title>Node5</title>
<g id="a_Node000005"><a xlink:title=" ">
<polygon fill="white" stroke="#666666" points="176.5,-195 141.5,-195 141.5,-176 176.5,-176 176.5,-195"/>
<text text-anchor="middle" x="159" y="-183" font-family="Helvetica,sans-Serif" font-size="10.00">u16</text>
</a>
</g>
</g>
<!-- Node5&#45;&gt;Node2 -->
<g id="edge4_Node000002_Node000005" class="edge">
<title>Node5&#45;&gt;Node2</title>
<g id="a_edge4_Node000002_Node000005"><a xlink:title=" ">
<path fill="none" stroke="#9a32cd" stroke-dasharray="5,2" d="M158.5,-165.57C157.06,-147.48 152.26,-120.46 137,-103 129.82,-94.78 119.66,-89.05 109.6,-85.07"/>
<polygon fill="#9a32cd" stroke="#9a32cd" points="155.02,-165.94 159.03,-175.74 162.01,-165.57 155.02,-165.94"/>
</a>
</g>
<text text-anchor="middle" x="172.5" y="-150" font-family="Helvetica,sans-Serif" font-size="10.00" fill="grey"> dX</text>
<text text-anchor="middle" x="172.5" y="-139" font-family="Helvetica,sans-Serif" font-size="10.00" fill="grey">dY</text>
<text text-anchor="middle" x="172.5" y="-128" font-family="Helvetica,sans-Serif" font-size="10.00" fill="grey">height</text>
<text text-anchor="middle" x="172.5" y="-117" font-family="Helvetica,sans-Serif" font-size="10.00" fill="grey">size</text>
<text text-anchor="middle" x="172.5" y="-106" font-family="Helvetica,sans-Serif" font-size="10.00" fill="grey">width</text>
</g>
<!-- Node6 -->
<g id="Node000006" class="node">
<title>Node6</title>
<g id="a_Node000006"><a xlink:title=" ">
<polygon fill="white" stroke="#666666" points="166,-85 132,-85 132,-66 166,-66 166,-85"/>
<text text-anchor="middle" x="149" y="-73" font-family="Helvetica,sans-Serif" font-size="10.00">Gfx</text>
</a>
</g>
</g>
<!-- Node6&#45;&gt;Node1 -->
<g id="edge5_Node000001_Node000006" class="edge">
<title>Node6&#45;&gt;Node1</title>
<g id="a_edge5_Node000001_Node000006"><a xlink:title=" ">
<path fill="none" stroke="#9a32cd" stroke-dasharray="5,2" d="M138.72,-56.87C135.04,-50.59 130.85,-43.47 127,-37 123.48,-31.09 119.48,-24.46 116.36,-19.32"/>
<polygon fill="#9a32cd" stroke="#9a32cd" points="135.9,-58.98 143.96,-65.84 141.94,-55.44 135.9,-58.98"/>
</a>
</g>
<text text-anchor="middle" x="161" y="-40" font-family="Helvetica,sans-Serif" font-size="10.00" fill="grey"> displayList</text>
</g>
</g>
</svg>
</svg>

<style type='text/css'>
<![CDATA[
[data-mouse-over-selected='false'] { opacity: 0.7; }
[data-mouse-over-selected='true']  { opacity: 1.0; }
]]>
</style>
<script type="application/ecmascript"><![CDATA[
document.addEventListener('DOMContentLoaded', (event) => {
  highlightEdges();
  highlightAdjacentNodes();
});
]]></script>
</svg>
