<?xml version="1.0" encoding="UTF-8" standalone="no"?>
<!DOCTYPE svg PUBLIC "-//W3C//DTD SVG 1.1//EN"
 "http://www.w3.org/Graphics/SVG/1.1/DTD/svg11.dtd">
<!-- Generated by graphviz version 2.43.0 (0)
 -->
<!-- Title: Player Pages: 1 -->
<svg width="1083pt" height="404pt"
 viewBox="0.00 0.00 1083.00 404.00" xmlns="http://www.w3.org/2000/svg" xmlns:xlink="http://www.w3.org/1999/xlink">
<g id="graph0" class="graph" transform="scale(1 1) rotate(0) translate(4 400)">
<title>Player</title>
<!-- Node1 -->
<g id="Node000001" class="node">
<title>Node1</title>
<g id="a_Node000001"><a xlink:title=" ">
<polygon fill="#999999" stroke="#666666" points="505.5,-19 458.5,-19 458.5,0 505.5,0 505.5,-19"/>
<text text-anchor="middle" x="482" y="-7" font-family="Helvetica,sans-Serif" font-size="10.00">Player</text>
</a>
</g>
</g>
<!-- Node2 -->
<g id="Node000002" class="node">
<title>Node2</title>
<g id="a_Node000002"><a xlink:title=" ">
<polygon fill="white" stroke="#666666" points="329.5,-396 294.5,-396 294.5,-377 329.5,-377 329.5,-396"/>
<text text-anchor="middle" x="312" y="-384" font-family="Helvetica,sans-Serif" font-size="10.00">u16</text>
</a>
</g>
</g>
<!-- Node2&#45;&gt;Node1 -->
<g id="edge1_Node000001_Node000002" class="edge">
<title>Node2&#45;&gt;Node1</title>
<g id="a_edge1_Node000001_Node000002"><a xlink:title=" ">
<path fill="none" stroke="#9a32cd" stroke-dasharray="5,2" d="M305.84,-366.93C290.98,-318.53 258.23,-186.19 312,-99 344.57,-46.18 419.91,-23.35 458.42,-14.85"/>
<polygon fill="#9a32cd" stroke="#9a32cd" points="302.56,-368.19 308.93,-376.66 309.23,-366.06 302.56,-368.19"/>
</a>
</g>
<text text-anchor="middle" x="361.5" y="-212" font-family="Helvetica,sans-Serif" font-size="10.00" fill="grey"> animFrameSelector</text>
<text text-anchor="middle" x="361.5" y="-201" font-family="Helvetica,sans-Serif" font-size="10.00" fill="grey">animGroupSelector</text>
<text text-anchor="middle" x="361.5" y="-190" font-family="Helvetica,sans-Serif" font-size="10.00" fill="grey">characterId</text>
<text text-anchor="middle" x="361.5" y="-179" font-family="Helvetica,sans-Serif" font-size="10.00" fill="grey">surfaceType</text>
<text text-anchor="middle" x="361.5" y="-168" font-family="Helvetica,sans-Serif" font-size="10.00" fill="grey">type</text>
<text text-anchor="middle" x="361.5" y="-157" font-family="Helvetica,sans-Serif" font-size="10.00" fill="grey">unk_002</text>
<text text-anchor="middle" x="361.5" y="-146" font-family="Helvetica,sans-Serif" font-size="10.00" fill="grey">unk_006</text>
<text text-anchor="middle" x="361.5" y="-135" font-family="Helvetica,sans-Serif" font-size="10.00" fill="grey">unk_046</text>
<text text-anchor="middle" x="361.5" y="-124" font-family="Helvetica,sans-Serif" font-size="10.00" fill="grey">unk_0B4</text>
<text text-anchor="middle" x="361.5" y="-113" font-family="Helvetica,sans-Serif" font-size="10.00" fill="grey">unk_0B6</text>
<text text-anchor="middle" x="361.5" y="-102" font-family="Helvetica,sans-Serif" font-size="10.00" fill="grey">...</text>
</g>
<!-- Node8 -->
<g id="Node000008" class="node">
<title>Node8</title>
<g id="a_Node000008"><a xlink:href="structCollision.html" target="_top" xlink:title=" ">
<polygon fill="white" stroke="#666666" points="478.5,-169 419.5,-169 419.5,-150 478.5,-150 478.5,-169"/>
<text text-anchor="middle" x="449" y="-157" font-family="Helvetica,sans-Serif" font-size="10.00">Collision</text>
</a>
</g>
</g>
<!-- Node2&#45;&gt;Node8 -->
<g id="edge8_Node000008_Node000002" class="edge">
<title>Node2&#45;&gt;Node8</title>
<g id="a_edge8_Node000008_Node000002"><a xlink:title=" ">
<path fill="none" stroke="#9a32cd" stroke-dasharray="5,2" d="M311.76,-366.59C311.7,-331.19 313.6,-256.76 330,-238 350.86,-214.14 372.21,-236.93 399,-220 419.76,-206.88 436.27,-182.34 444.09,-169.25"/>
<polygon fill="#9a32cd" stroke="#9a32cd" points="308.26,-366.99 311.83,-376.97 315.26,-366.94 308.26,-366.99"/>
</a>
</g>
<text text-anchor="middle" x="365" y="-323.5" font-family="Helvetica,sans-Serif" font-size="10.00" fill="grey"> meshIndexYX</text>
<text text-anchor="middle" x="365" y="-312.5" font-family="Helvetica,sans-Serif" font-size="10.00" fill="grey">meshIndexZX</text>
<text text-anchor="middle" x="365" y="-301.5" font-family="Helvetica,sans-Serif" font-size="10.00" fill="grey">meshIndexZY</text>
<text text-anchor="middle" x="365" y="-290.5" font-family="Helvetica,sans-Serif" font-size="10.00" fill="grey">unk30</text>
<text text-anchor="middle" x="365" y="-279.5" font-family="Helvetica,sans-Serif" font-size="10.00" fill="grey">unk32</text>
<text text-anchor="middle" x="365" y="-268.5" font-family="Helvetica,sans-Serif" font-size="10.00" fill="grey">unk34</text>
</g>
<!-- Node9 -->
<g id="Node000009" class="node">
<title>Node9</title>
<g id="a_Node000009"><a xlink:href="structKartTyre.html" target="_top" xlink:title=" ">
<polygon fill="white" stroke="#666666" points="197.5,-169 140.5,-169 140.5,-150 197.5,-150 197.5,-169"/>
<text text-anchor="middle" x="169" y="-157" font-family="Helvetica,sans-Serif" font-size="10.00">KartTyre</text>
</a>
</g>
</g>
<!-- Node2&#45;&gt;Node9 -->
<g id="edge13_Node000009_Node000002" class="edge">
<title>Node2&#45;&gt;Node9</title>
<g id="a_edge13_Node000009_Node000002"><a xlink:title=" ">
<path fill="none" stroke="#9a32cd" stroke-dasharray="5,2" d="M284.29,-383.52C250.95,-380.52 197.84,-373.56 185,-359 159.73,-330.35 166.17,-203.23 168.4,-169.01"/>
<polygon fill="#9a32cd" stroke="#9a32cd" points="284.09,-387.02 294.35,-384.36 284.67,-380.04 284.09,-387.02"/>
</a>
</g>
<text text-anchor="middle" x="233.5" y="-296" font-family="Helvetica,sans-Serif" font-size="10.00" fill="grey"> collisionMeshIndex</text>
</g>
<!-- Node11 -->
<g id="Node000011" class="node">
<title>Node11</title>
<g id="a_Node000011"><a xlink:href="structUnkPlayerStruct258.html" target="_top" xlink:title=" ">
<polygon fill="white" stroke="#666666" points="678.5,-169 565.5,-169 565.5,-150 678.5,-150 678.5,-169"/>
<text text-anchor="middle" x="622" y="-157" font-family="Helvetica,sans-Serif" font-size="10.00">UnkPlayerStruct258</text>
</a>
</g>
</g>
<!-- Node2&#45;&gt;Node11 -->
<g id="edge17_Node000011_Node000002" class="edge">
<title>Node2&#45;&gt;Node11</title>
<g id="a_edge17_Node000011_Node000002"><a xlink:title=" ">
<path fill="none" stroke="#9a32cd" stroke-dasharray="5,2" d="M340.17,-384.78C407.76,-382.8 574.91,-376.19 593,-359 596.53,-355.65 616,-206.85 620.89,-169.12"/>
<polygon fill="#9a32cd" stroke="#9a32cd" points="339.74,-381.3 329.85,-385.07 339.94,-388.29 339.74,-381.3"/>
</a>
</g>
<text text-anchor="middle" x="633.5" y="-301.5" font-family="Helvetica,sans-Serif" font-size="10.00" fill="grey"> unk_010</text>
<text text-anchor="middle" x="633.5" y="-290.5" font-family="Helvetica,sans-Serif" font-size="10.00" fill="grey">unk_012</text>
</g>
<!-- Node3 -->
<g id="Node000003" class="node">
<title>Node3</title>
<g id="a_Node000003"><a xlink:title=" ">
<polygon fill="white" stroke="#666666" points="919,-396 885,-396 885,-377 919,-377 919,-396"/>
<text text-anchor="middle" x="902" y="-384" font-family="Helvetica,sans-Serif" font-size="10.00">s16</text>
</a>
</g>
</g>
<!-- Node3&#45;&gt;Node1 -->
<g id="edge2_Node000001_Node000003" class="edge">
<title>Node3&#45;&gt;Node1</title>
<g id="a_edge2_Node000001_Node000003"><a xlink:title=" ">
<path fill="none" stroke="#9a32cd" stroke-dasharray="5,2" d="M926.18,-370.79C930.04,-367.39 933.57,-363.44 936,-359 991.57,-257.52 1000.84,-202.44 949,-99 928.37,-57.84 909.17,-53.01 866,-37 799.43,-12.3 578.79,-10.35 505.73,-10.4"/>
<polygon fill="#9a32cd" stroke="#9a32cd" points="923.85,-368.16 918,-376.99 928.08,-373.74 923.85,-368.16"/>
</a>
</g>
<text text-anchor="middle" x="1029" y="-212" font-family="Helvetica,sans-Serif" font-size="10.00" fill="grey"> boostTimer</text>
<text text-anchor="middle" x="1029" y="-201" font-family="Helvetica,sans-Serif" font-size="10.00" fill="grey">currentItemCopy</text>
<text text-anchor="middle" x="1029" y="-190" font-family="Helvetica,sans-Serif" font-size="10.00" fill="grey">currentRank</text>
<text text-anchor="middle" x="1029" y="-179" font-family="Helvetica,sans-Serif" font-size="10.00" fill="grey">lapCount</text>
<text text-anchor="middle" x="1029" y="-168" font-family="Helvetica,sans-Serif" font-size="10.00" fill="grey">nearestPathPointId</text>
<text text-anchor="middle" x="1029" y="-157" font-family="Helvetica,sans-Serif" font-size="10.00" fill="grey">rotation</text>
<text text-anchor="middle" x="1029" y="-146" font-family="Helvetica,sans-Serif" font-size="10.00" fill="grey">slopeAccel</text>
<text text-anchor="middle" x="1029" y="-135" font-family="Helvetica,sans-Serif" font-size="10.00" fill="grey">unk_012</text>
<text text-anchor="middle" x="1029" y="-124" font-family="Helvetica,sans-Serif" font-size="10.00" fill="grey">unk_040</text>
<text text-anchor="middle" x="1029" y="-113" font-family="Helvetica,sans-Serif" font-size="10.00" fill="grey">unk_042</text>
<text text-anchor="middle" x="1029" y="-102" font-family="Helvetica,sans-Serif" font-size="10.00" fill="grey">...</text>
</g>
<!-- Node3&#45;&gt;Node11 -->
<g id="edge18_Node000011_Node000003" class="edge">
<title>Node3&#45;&gt;Node11</title>
<g id="a_edge18_Node000011_Node000003"><a xlink:title=" ">
<path fill="none" stroke="#9a32cd" stroke-dasharray="5,2" d="M874.96,-383.06C841.74,-379.54 787.94,-372 773,-359 729.94,-321.54 764.31,-283.61 730,-238 726.51,-233.37 661.92,-188.23 634.33,-169.05"/>
<polygon fill="#9a32cd" stroke="#9a32cd" points="874.65,-386.54 884.95,-384.06 875.35,-379.58 874.65,-386.54"/>
</a>
</g>
<text text-anchor="middle" x="796" y="-351" font-family="Helvetica,sans-Serif" font-size="10.00" fill="grey"> unk_01C</text>
<text text-anchor="middle" x="796" y="-340" font-family="Helvetica,sans-Serif" font-size="10.00" fill="grey">unk_01E</text>
<text text-anchor="middle" x="796" y="-329" font-family="Helvetica,sans-Serif" font-size="10.00" fill="grey">unk_020</text>
<text text-anchor="middle" x="796" y="-318" font-family="Helvetica,sans-Serif" font-size="10.00" fill="grey">unk_022</text>
<text text-anchor="middle" x="796" y="-307" font-family="Helvetica,sans-Serif" font-size="10.00" fill="grey">unk_02C</text>
<text text-anchor="middle" x="796" y="-296" font-family="Helvetica,sans-Serif" font-size="10.00" fill="grey">unk_02E</text>
<text text-anchor="middle" x="796" y="-285" font-family="Helvetica,sans-Serif" font-size="10.00" fill="grey">unk_030</text>
<text text-anchor="middle" x="796" y="-274" font-family="Helvetica,sans-Serif" font-size="10.00" fill="grey">unk_032</text>
<text text-anchor="middle" x="796" y="-263" font-family="Helvetica,sans-Serif" font-size="10.00" fill="grey">unk_034</text>
<text text-anchor="middle" x="796" y="-252" font-family="Helvetica,sans-Serif" font-size="10.00" fill="grey">unk_036</text>
<text text-anchor="middle" x="796" y="-241" font-family="Helvetica,sans-Serif" font-size="10.00" fill="grey">...</text>
</g>
<!-- Node12 -->
<g id="Node000012" class="node">
<title>Node12</title>
<g id="a_Node000012"><a xlink:href="structUnkPlayerInner.html" target="_top" xlink:title=" ">
<polygon fill="white" stroke="#666666" points="940,-169 848,-169 848,-150 940,-150 940,-169"/>
<text text-anchor="middle" x="894" y="-157" font-family="Helvetica,sans-Serif" font-size="10.00">UnkPlayerInner</text>
</a>
</g>
</g>
<!-- Node3&#45;&gt;Node12 -->
<g id="edge20_Node000012_Node000003" class="edge">
<title>Node3&#45;&gt;Node12</title>
<g id="a_edge20_Node000012_Node000003"><a xlink:title=" ">
<path fill="none" stroke="#9a32cd" stroke-dasharray="5,2" d="M901.34,-366.85C899.69,-320.59 895.47,-201.92 894.3,-169.05"/>
<polygon fill="#9a32cd" stroke="#9a32cd" points="897.84,-367.09 901.7,-376.95 904.84,-366.84 897.84,-367.09"/>
</a>
</g>
<text text-anchor="middle" x="916.5" y="-329" font-family="Helvetica,sans-Serif" font-size="10.00" fill="grey"> unk0</text>
<text text-anchor="middle" x="916.5" y="-318" font-family="Helvetica,sans-Serif" font-size="10.00" fill="grey">unk18</text>
<text text-anchor="middle" x="916.5" y="-307" font-family="Helvetica,sans-Serif" font-size="10.00" fill="grey">unk1A</text>
<text text-anchor="middle" x="916.5" y="-296" font-family="Helvetica,sans-Serif" font-size="10.00" fill="grey">unk1C</text>
<text text-anchor="middle" x="916.5" y="-285" font-family="Helvetica,sans-Serif" font-size="10.00" fill="grey">unk1E</text>
<text text-anchor="middle" x="916.5" y="-274" font-family="Helvetica,sans-Serif" font-size="10.00" fill="grey">unk2</text>
<text text-anchor="middle" x="916.5" y="-263" font-family="Helvetica,sans-Serif" font-size="10.00" fill="grey">unk20</text>
</g>
<!-- Node4 -->
<g id="Node000004" class="node">
<title>Node4</title>
<g id="a_Node000004"><a xlink:title=" ">
<polygon fill="white" stroke="#666666" points="254,-169 216,-169 216,-150 254,-150 254,-169"/>
<text text-anchor="middle" x="235" y="-157" font-family="Helvetica,sans-Serif" font-size="10.00">char</text>
</a>
</g>
</g>
<!-- Node4&#45;&gt;Node1 -->
<g id="edge3_Node000001_Node000004" class="edge">
<title>Node4&#45;&gt;Node1</title>
<g id="a_edge3_Node000001_Node000004"><a xlink:title=" ">
<path fill="none" stroke="#9a32cd" stroke-dasharray="5,2" d="M228.5,-140.25C220.39,-113.87 210.49,-65.17 236,-37 250.78,-20.68 399.64,-13.5 458.36,-11.29"/>
<polygon fill="#9a32cd" stroke="#9a32cd" points="225.18,-141.38 231.65,-149.77 231.83,-139.18 225.18,-141.38"/>
</a>
</g>
<text text-anchor="middle" x="259" y="-67.5" font-family="Helvetica,sans-Serif" font-size="10.00" fill="grey"> unk_00A</text>
<text text-anchor="middle" x="259" y="-56.5" font-family="Helvetica,sans-Serif" font-size="10.00" fill="grey">unk_032</text>
<text text-anchor="middle" x="259" y="-45.5" font-family="Helvetica,sans-Serif" font-size="10.00" fill="grey">unk_10E</text>
</g>
<!-- Node5 -->
<g id="Node000005" class="node">
<title>Node5</title>
<g id="a_Node000005"><a xlink:title=" ">
<polygon fill="white" stroke="#666666" points="34,-396 0,-396 0,-377 34,-377 34,-396"/>
<text text-anchor="middle" x="17" y="-384" font-family="Helvetica,sans-Serif" font-size="10.00">s32</text>
</a>
</g>
</g>
<!-- Node5&#45;&gt;Node1 -->
<g id="edge4_Node000001_Node000005" class="edge">
<title>Node5&#45;&gt;Node1</title>
<g id="a_edge4_Node000001_Node000005"><a xlink:title=" ">
<path fill="none" stroke="#9a32cd" stroke-dasharray="5,2" d="M14.05,-366.88C7.29,-317.29 -4.09,-180.26 61,-99 94.17,-57.59 112.55,-53.41 163,-37 217.96,-19.12 394.2,-12.8 458.36,-11.06"/>
<polygon fill="#9a32cd" stroke="#9a32cd" points="10.59,-367.43 15.51,-376.81 17.52,-366.41 10.59,-367.43"/>
</a>
</g>
<text text-anchor="middle" x="96" y="-179" font-family="Helvetica,sans-Serif" font-size="10.00" fill="grey"> nCharacter</text>
<text text-anchor="middle" x="96" y="-168" font-family="Helvetica,sans-Serif" font-size="10.00" fill="grey">nStartingRank</text>
<text text-anchor="middle" x="96" y="-157" font-family="Helvetica,sans-Serif" font-size="10.00" fill="grey">soundEffects</text>
<text text-anchor="middle" x="96" y="-146" font-family="Helvetica,sans-Serif" font-size="10.00" fill="grey">tyreSpeed</text>
<text text-anchor="middle" x="96" y="-135" font-family="Helvetica,sans-Serif" font-size="10.00" fill="grey">unk_07C</text>
</g>
<!-- Node5&#45;&gt;Node9 -->
<g id="edge14_Node000009_Node000005" class="edge">
<title>Node5&#45;&gt;Node9</title>
<g id="a_edge14_Node000009_Node000005"><a xlink:title=" ">
<path fill="none" stroke="#9a32cd" stroke-dasharray="5,2" d="M15.31,-366.58C13.61,-336.51 14.42,-277.19 42,-238 51.39,-224.65 59.97,-228.33 74,-220 103.45,-202.51 137.31,-180.94 155.59,-169.18"/>
<polygon fill="#9a32cd" stroke="#9a32cd" points="11.84,-367.18 16.06,-376.9 18.82,-366.67 11.84,-367.18"/>
</a>
</g>
<text text-anchor="middle" x="61.5" y="-296" font-family="Helvetica,sans-Serif" font-size="10.00" fill="grey"> unk_14</text>
</g>
<!-- Node6 -->
<g id="Node000006" class="node">
<title>Node6</title>
<g id="a_Node000006"><a xlink:title=" ">
<polygon fill="white" stroke="#666666" points="699,-396 667,-396 667,-377 699,-377 699,-396"/>
<text text-anchor="middle" x="683" y="-384" font-family="Helvetica,sans-Serif" font-size="10.00">f32</text>
</a>
</g>
</g>
<!-- Node6&#45;&gt;Node1 -->
<g id="edge5_Node000001_Node000006" class="edge">
<title>Node6&#45;&gt;Node1</title>
<g id="a_edge5_Node000001_Node000006"><a xlink:title=" ">
<path fill="none" stroke="#9a32cd" stroke-dasharray="5,2" d="M708.49,-376.76C716.49,-372.67 724.43,-366.91 729,-359 755.91,-312.44 736.69,-291.23 729,-238 715.39,-143.78 732.65,-92.07 655,-37 631.39,-20.26 547.12,-13.76 505.54,-11.53"/>
<polygon fill="#9a32cd" stroke="#9a32cd" points="707,-373.59 699.25,-380.82 709.82,-380 707,-373.59"/>
</a>
</g>
<text text-anchor="middle" x="776" y="-212" font-family="Helvetica,sans-Serif" font-size="10.00" fill="grey"> boostPower</text>
<text text-anchor="middle" x="776" y="-201" font-family="Helvetica,sans-Serif" font-size="10.00" fill="grey">boundingBoxSize</text>
<text text-anchor="middle" x="776" y="-190" font-family="Helvetica,sans-Serif" font-size="10.00" fill="grey">currentSpeed</text>
<text text-anchor="middle" x="776" y="-179" font-family="Helvetica,sans-Serif" font-size="10.00" fill="grey">kartFriction</text>
<text text-anchor="middle" x="776" y="-168" font-family="Helvetica,sans-Serif" font-size="10.00" fill="grey">kartGravity</text>
<text text-anchor="middle" x="776" y="-157" font-family="Helvetica,sans-Serif" font-size="10.00" fill="grey">kartHopAcceleration</text>
<text text-anchor="middle" x="776" y="-146" font-family="Helvetica,sans-Serif" font-size="10.00" fill="grey">kartHopJerk</text>
<text text-anchor="middle" x="776" y="-135" font-family="Helvetica,sans-Serif" font-size="10.00" fill="grey">kartHopVelocity</text>
<text text-anchor="middle" x="776" y="-124" font-family="Helvetica,sans-Serif" font-size="10.00" fill="grey">oldPos</text>
<text text-anchor="middle" x="776" y="-113" font-family="Helvetica,sans-Serif" font-size="10.00" fill="grey">orientationMatrix</text>
<text text-anchor="middle" x="776" y="-102" font-family="Helvetica,sans-Serif" font-size="10.00" fill="grey">...</text>
</g>
<!-- Node6&#45;&gt;Node8 -->
<g id="edge9_Node000008_Node000006" class="edge">
<title>Node6&#45;&gt;Node8</title>
<g id="a_edge9_Node000008_Node000006"><a xlink:title=" ">
<path fill="none" stroke="#9a32cd" stroke-dasharray="5,2" d="M656.52,-385.19C612.3,-384.1 526.19,-379.35 505,-359 465.53,-321.08 497.93,-290.37 482,-238 474.17,-212.26 460.55,-183.48 453.51,-169.33"/>
<polygon fill="#9a32cd" stroke="#9a32cd" points="656.73,-388.7 666.8,-385.4 656.87,-381.7 656.73,-388.7"/>
</a>
</g>
<text text-anchor="middle" x="549" y="-318" font-family="Helvetica,sans-Serif" font-size="10.00" fill="grey"> orientationVector</text>
<text text-anchor="middle" x="549" y="-307" font-family="Helvetica,sans-Serif" font-size="10.00" fill="grey">surfaceDistance</text>
<text text-anchor="middle" x="549" y="-296" font-family="Helvetica,sans-Serif" font-size="10.00" fill="grey">unk48</text>
<text text-anchor="middle" x="549" y="-285" font-family="Helvetica,sans-Serif" font-size="10.00" fill="grey">unk54</text>
<text text-anchor="middle" x="549" y="-274" font-family="Helvetica,sans-Serif" font-size="10.00" fill="grey">unk6C</text>
</g>
<!-- Node6&#45;&gt;Node9 -->
<g id="edge11_Node000009_Node000006" class="edge">
<title>Node6&#45;&gt;Node9</title>
<g id="a_edge11_Node000009_Node000006"><a xlink:title=" ">
<path fill="none" stroke="#9a32cd" stroke-dasharray="5,2" d="M656.59,-384.65C593.14,-382.37 436.04,-375.12 419,-359 379.45,-321.59 439.68,-275.27 400,-238 368.6,-208.51 243.77,-242.43 207,-220 187.75,-208.26 176.54,-182.66 171.76,-169.19"/>
<polygon fill="#9a32cd" stroke="#9a32cd" points="656.51,-388.15 666.62,-385 656.75,-381.16 656.51,-388.15"/>
</a>
</g>
<text text-anchor="middle" x="448.5" y="-301.5" font-family="Helvetica,sans-Serif" font-size="10.00" fill="grey"> baseHeight</text>
<text text-anchor="middle" x="448.5" y="-290.5" font-family="Helvetica,sans-Serif" font-size="10.00" fill="grey">pos</text>
</g>
<!-- Node6&#45;&gt;Node11 -->
<g id="edge16_Node000011_Node000006" class="edge">
<title>Node6&#45;&gt;Node11</title>
<g id="a_edge16_Node000011_Node000006"><a xlink:title=" ">
<path fill="none" stroke="#9a32cd" stroke-dasharray="5,2" d="M682.12,-366.88C680.35,-338.48 675.24,-282.9 661,-238 652.62,-211.58 636.14,-183.1 627.53,-169.17"/>
<polygon fill="#9a32cd" stroke="#9a32cd" points="678.63,-367.18 682.67,-376.97 685.62,-366.8 678.63,-367.18"/>
</a>
</g>
<text text-anchor="middle" x="703.5" y="-323.5" font-family="Helvetica,sans-Serif" font-size="10.00" fill="grey"> unk_000</text>
<text text-anchor="middle" x="703.5" y="-312.5" font-family="Helvetica,sans-Serif" font-size="10.00" fill="grey">unk_00C</text>
<text text-anchor="middle" x="703.5" y="-301.5" font-family="Helvetica,sans-Serif" font-size="10.00" fill="grey">unk_014</text>
<text text-anchor="middle" x="703.5" y="-290.5" font-family="Helvetica,sans-Serif" font-size="10.00" fill="grey">unk_018</text>
<text text-anchor="middle" x="703.5" y="-279.5" font-family="Helvetica,sans-Serif" font-size="10.00" fill="grey">unk_024</text>
<text text-anchor="middle" x="703.5" y="-268.5" font-family="Helvetica,sans-Serif" font-size="10.00" fill="grey">unk_028</text>
</g>
<!-- Node6&#45;&gt;Node12 -->
<g id="edge21_Node000012_Node000006" class="edge">
<title>Node6&#45;&gt;Node12</title>
<g id="a_edge21_Node000012_Node000006"><a xlink:title=" ">
<path fill="none" stroke="#9a32cd" stroke-dasharray="5,2" d="M709.21,-383.77C745.03,-380.88 806.67,-373.86 823,-359 864.41,-321.33 838.37,-290.43 858,-238 867.57,-212.44 881.98,-183.58 889.33,-169.38"/>
<polygon fill="#9a32cd" stroke="#9a32cd" points="708.72,-380.3 699.01,-384.54 709.24,-387.28 708.72,-380.3"/>
</a>
</g>
<text text-anchor="middle" x="875" y="-318" font-family="Helvetica,sans-Serif" font-size="10.00" fill="grey"> unk10</text>
<text text-anchor="middle" x="875" y="-307" font-family="Helvetica,sans-Serif" font-size="10.00" fill="grey">unk14</text>
<text text-anchor="middle" x="875" y="-296" font-family="Helvetica,sans-Serif" font-size="10.00" fill="grey">unk4</text>
<text text-anchor="middle" x="875" y="-285" font-family="Helvetica,sans-Serif" font-size="10.00" fill="grey">unk8</text>
<text text-anchor="middle" x="875" y="-274" font-family="Helvetica,sans-Serif" font-size="10.00" fill="grey">unkC</text>
</g>
<!-- Node7 -->
<g id="Node000007" class="node">
<title>Node7</title>
<g id="a_Node000007"><a xlink:title=" ">
<polygon fill="white" stroke="#666666" points="533.5,-169 498.5,-169 498.5,-150 533.5,-150 533.5,-169"/>
<text text-anchor="middle" x="516" y="-157" font-family="Helvetica,sans-Serif" font-size="10.00">u32</text>
</a>
</g>
</g>
<!-- Node7&#45;&gt;Node1 -->
<g id="edge6_Node000001_Node000007" class="edge">
<title>Node7&#45;&gt;Node1</title>
<g id="a_edge6_Node000001_Node000007"><a xlink:title=" ">
<path fill="none" stroke="#9a32cd" stroke-dasharray="5,2" d="M514.03,-139.52C511.18,-115.31 505.02,-72.35 494,-37 492.08,-30.83 489.08,-24.2 486.56,-19.12"/>
<polygon fill="#9a32cd" stroke="#9a32cd" points="510.59,-140.23 515.17,-149.78 517.54,-139.46 510.59,-140.23"/>
</a>
</g>
<text text-anchor="middle" x="539" y="-73" font-family="Helvetica,sans-Serif" font-size="10.00" fill="grey"> effects</text>
<text text-anchor="middle" x="539" y="-62" font-family="Helvetica,sans-Serif" font-size="10.00" fill="grey">nControlFlags</text>
<text text-anchor="middle" x="539" y="-51" font-family="Helvetica,sans-Serif" font-size="10.00" fill="grey">nHasAuthority</text>
<text text-anchor="middle" x="539" y="-40" font-family="Helvetica,sans-Serif" font-size="10.00" fill="grey">unk_200</text>
</g>
<!-- Node8&#45;&gt;Node1 -->
<g id="edge7_Node000001_Node000008" class="edge">
<title>Node8&#45;&gt;Node1</title>
<g id="a_edge7_Node000001_Node000008"><a xlink:title=" ">
<path fill="none" stroke="#9a32cd" stroke-dasharray="5,2" d="M444.49,-139.79C439.52,-114.96 434.14,-70.37 450,-37 453.53,-29.57 460.26,-23.51 466.64,-19.06"/>
<polygon fill="#9a32cd" stroke="#9a32cd" points="441.1,-140.69 446.67,-149.7 447.94,-139.18 441.1,-140.69"/>
</a>
</g>
<text text-anchor="middle" x="472" y="-56.5" font-family="Helvetica,sans-Serif" font-size="10.00" fill="grey"> collision</text>
</g>
<!-- Node9&#45;&gt;Node1 -->
<g id="edge10_Node000001_Node000009" class="edge">
<title>Node9&#45;&gt;Node1</title>
<g id="a_edge10_Node000001_Node000009"><a xlink:title=" ">
<path fill="none" stroke="#9a32cd" stroke-dasharray="5,2" d="M165.63,-139.79C161.96,-112.8 159.92,-63.31 188,-37 207.59,-18.65 392.01,-12.59 458.36,-10.99"/>
<polygon fill="#9a32cd" stroke="#9a32cd" points="162.2,-140.52 167.22,-149.85 169.11,-139.42 162.2,-140.52"/>
</a>
</g>
<text text-anchor="middle" x="202" y="-56.5" font-family="Helvetica,sans-Serif" font-size="10.00" fill="grey"> tyres</text>
</g>
<!-- Node10 -->
<g id="Node000010" class="node">
<title>Node10</title>
<g id="a_Node000010"><a xlink:title=" ">
<polygon fill="white" stroke="#666666" points="109.5,-396 80.5,-396 80.5,-377 109.5,-377 109.5,-396"/>
<text text-anchor="middle" x="95" y="-384" font-family="Helvetica,sans-Serif" font-size="10.00">u8</text>
</a>
</g>
</g>
<!-- Node10&#45;&gt;Node9 -->
<g id="edge12_Node000009_Node000010" class="edge">
<title>Node10&#45;&gt;Node9</title>
<g id="a_edge12_Node000009_Node000010"><a xlink:title=" ">
<path fill="none" stroke="#9a32cd" stroke-dasharray="5,2" d="M90.92,-366.85C85.53,-338.02 78.59,-281.44 96,-238 108.24,-207.46 138.75,-181.92 156.21,-169.19"/>
<polygon fill="#9a32cd" stroke="#9a32cd" points="87.52,-367.66 92.93,-376.77 94.38,-366.27 87.52,-367.66"/>
</a>
</g>
<text text-anchor="middle" x="129" y="-301.5" font-family="Helvetica,sans-Serif" font-size="10.00" fill="grey"> surfaceFlags</text>
<text text-anchor="middle" x="129" y="-290.5" font-family="Helvetica,sans-Serif" font-size="10.00" fill="grey">surfaceType</text>
</g>
<!-- Node11&#45;&gt;Node1 -->
<g id="edge15_Node000001_Node000011" class="edge">
<title>Node11&#45;&gt;Node1</title>
<g id="a_edge15_Node000001_Node000011"><a xlink:title=" ">
<path fill="none" stroke="#9a32cd" stroke-dasharray="5,2" d="M620.48,-139.74C617.3,-113.05 607.56,-64.33 578,-37 558.32,-18.8 527.28,-12.93 505.85,-11.12"/>
<polygon fill="#9a32cd" stroke="#9a32cd" points="617.03,-140.39 621.5,-150 623.99,-139.7 617.03,-140.39"/>
</a>
</g>
<text text-anchor="middle" x="628.5" y="-56.5" font-family="Helvetica,sans-Serif" font-size="10.00" fill="grey"> unk_258</text>
</g>
<!-- Node12&#45;&gt;Node1 -->
<g id="edge19_Node000001_Node000012" class="edge">
<title>Node12&#45;&gt;Node1</title>
<g id="a_edge19_Node000001_Node000012"><a xlink:title=" ">
<path fill="none" stroke="#9a32cd" stroke-dasharray="5,2" d="M880.58,-142.16C856.6,-114.36 803.3,-58.78 744,-37 700.55,-21.04 561.9,-13.75 505.85,-11.4"/>
<polygon fill="#9a32cd" stroke="#9a32cd" points="877.93,-144.44 887.06,-149.82 883.28,-139.92 877.93,-144.44"/>
</a>
</g>
<text text-anchor="middle" x="838.5" y="-56.5" font-family="Helvetica,sans-Serif" font-size="10.00" fill="grey"> unk_DB4</text>
</g>
</g>
</svg>
