<?xml version="1.0" encoding="UTF-8" standalone="no"?>
<!DOCTYPE svg PUBLIC "-//W3C//DTD SVG 1.1//EN"
 "http://www.w3.org/Graphics/SVG/1.1/DTD/svg11.dtd">
<!-- Generated by graphviz version 2.43.0 (0)
 -->
<!-- Title: WidgetInfo::CVar Pages: 1 -->
<svg width="555pt" height="113pt"
 viewBox="0.00 0.00 555.00 112.50" xmlns="http://www.w3.org/2000/svg" xmlns:xlink="http://www.w3.org/1999/xlink">
<g id="graph0" class="graph" transform="scale(1 1) rotate(0) translate(4 108.5)">
<title>WidgetInfo::CVar</title>
<!-- Node1 -->
<g id="Node000001" class="node">
<title>Node1</title>
<g id="a_Node000001"><a xlink:title=" ">
<polygon fill="#999999" stroke="#666666" points="547,-56 449,-56 449,-37 547,-37 547,-56"/>
<text text-anchor="middle" x="498" y="-44" font-family="Helvetica,sans-Serif" font-size="10.00">WidgetInfo::CVar</text>
</a>
</g>
</g>
<!-- Node2 -->
<g id="Node000002" class="node">
<title>Node2</title>
<g id="a_Node000002"><a xlink:href="classGameUI_1_1PortMenu.html#ae2b125ddd080ba7cfd4da340dfb14192" target="_top" xlink:title=" ">
<polygon fill="white" stroke="#666666" points="386.5,-104.5 233.5,-104.5 233.5,-74.5 386.5,-74.5 386.5,-104.5"/>
<text text-anchor="start" x="241.5" y="-92.5" font-family="Helvetica,sans-Serif" font-size="10.00">GameUI::PortMenu::AddDev</text>
<text text-anchor="middle" x="310" y="-81.5" font-family="Helvetica,sans-Serif" font-size="10.00">Tools</text>
</a>
</g>
</g>
<!-- Node1&#45;&gt;Node2 -->
<g id="edge1_Node000001_Node000002" class="edge">
<title>Node1&#45;&gt;Node2</title>
<g id="a_edge1_Node000001_Node000002"><a xlink:title=" ">
<path fill="none" stroke="#63b8ff" d="M445.77,-58.34C424.18,-63.34 398.79,-69.2 375.91,-74.49"/>
<polygon fill="#63b8ff" stroke="#63b8ff" points="446.77,-61.71 455.72,-56.04 445.19,-54.89 446.77,-61.71"/>
</a>
</g>
</g>
<!-- Node4 -->
<g id="Node000004" class="node">
<title>Node4</title>
<g id="a_Node000004"><a xlink:href="classGameUI_1_1PortMenu.html#ad0164e1a4d1111fb2312cdec60c8d223" target="_top" xlink:title=" ">
<polygon fill="white" stroke="#666666" points="413,-56 207,-56 207,-37 413,-37 413,-56"/>
<text text-anchor="middle" x="310" y="-44" font-family="Helvetica,sans-Serif" font-size="10.00">GameUI::PortMenu::AddEnhancements</text>
</a>
</g>
</g>
<!-- Node1&#45;&gt;Node4 -->
<g id="edge3_Node000001_Node000004" class="edge">
<title>Node1&#45;&gt;Node4</title>
<g id="a_edge3_Node000001_Node000004"><a xlink:title=" ">
<path fill="none" stroke="#63b8ff" d="M438.57,-46.5C430.45,-46.5 421.92,-46.5 413.29,-46.5"/>
<polygon fill="#63b8ff" stroke="#63b8ff" points="438.62,-50 448.62,-46.5 438.62,-43 438.62,-50"/>
</a>
</g>
</g>
<!-- Node5 -->
<g id="Node000005" class="node">
<title>Node5</title>
<g id="a_Node000005"><a xlink:href="classGameUI_1_1PortMenu.html#ad1010e161497fac3f609b69b0f7d6348" target="_top" xlink:title=" ">
<polygon fill="white" stroke="#666666" points="396.5,-19 223.5,-19 223.5,0 396.5,0 396.5,-19"/>
<text text-anchor="middle" x="310" y="-7" font-family="Helvetica,sans-Serif" font-size="10.00">GameUI::PortMenu::AddSettings</text>
</a>
</g>
</g>
<!-- Node1&#45;&gt;Node5 -->
<g id="edge5_Node000001_Node000005" class="edge">
<title>Node1&#45;&gt;Node5</title>
<g id="a_edge5_Node000001_Node000005"><a xlink:title=" ">
<path fill="none" stroke="#63b8ff" d="M443.5,-34.81C433.38,-32.66 422.87,-30.48 413,-28.5 397.02,-25.3 379.59,-21.99 363.73,-19.04"/>
<polygon fill="#63b8ff" stroke="#63b8ff" points="442.94,-38.27 453.45,-36.93 444.4,-31.42 442.94,-38.27"/>
</a>
</g>
</g>
<!-- Node3 -->
<g id="Node000003" class="node">
<title>Node3</title>
<g id="a_Node000003"><a xlink:href="classGameUI_1_1PortMenu.html#a6107d5040943b730f00a96293d335e23" target="_top" xlink:title=" ">
<polygon fill="white" stroke="#666666" points="171,-56 0,-56 0,-37 171,-37 171,-56"/>
<text text-anchor="middle" x="85.5" y="-44" font-family="Helvetica,sans-Serif" font-size="10.00">GameUI::PortMenu::InitElement</text>
</a>
</g>
</g>
<!-- Node2&#45;&gt;Node3 -->
<g id="edge2_Node000002_Node000003" class="edge">
<title>Node2&#45;&gt;Node3</title>
<g id="a_edge2_Node000002_Node000003"><a xlink:title=" ">
<path fill="none" stroke="#63b8ff" d="M223.41,-72.96C193.74,-67.22 161.48,-60.99 135.74,-56.02"/>
<polygon fill="#63b8ff" stroke="#63b8ff" points="222.88,-76.42 233.36,-74.88 224.21,-69.55 222.88,-76.42"/>
</a>
</g>
</g>
<!-- Node4&#45;&gt;Node3 -->
<g id="edge4_Node000004_Node000003" class="edge">
<title>Node4&#45;&gt;Node3</title>
<g id="a_edge4_Node000004_Node000003"><a xlink:title=" ">
<path fill="none" stroke="#63b8ff" d="M196.72,-46.5C188.08,-46.5 179.44,-46.5 171.02,-46.5"/>
<polygon fill="#63b8ff" stroke="#63b8ff" points="196.87,-50 206.87,-46.5 196.87,-43 196.87,-50"/>
</a>
</g>
</g>
<!-- Node5&#45;&gt;Node3 -->
<g id="edge6_Node000005_Node000003" class="edge">
<title>Node5&#45;&gt;Node3</title>
<g id="a_edge6_Node000005_Node000003"><a xlink:title=" ">
<path fill="none" stroke="#63b8ff" d="M241.78,-20.68C210.58,-25.87 173.88,-31.97 143.99,-36.94"/>
<polygon fill="#63b8ff" stroke="#63b8ff" points="242.41,-24.12 251.7,-19.03 241.26,-17.22 242.41,-24.12"/>
</a>
</g>
</g>
</g>
</svg>
