<?xml version="1.0" encoding="UTF-8" standalone="no"?>
<!DOCTYPE svg PUBLIC "-//W3C//DTD SVG 1.1//EN"
 "http://www.w3.org/Graphics/SVG/1.1/DTD/svg11.dtd">
<!-- Generated by graphviz version 2.43.0 (0)
 -->
<!-- Title: MenuTexture Pages: 1 -->
<svg width="196pt" height="137pt"
 viewBox="0.00 0.00 196.00 137.00" xmlns="http://www.w3.org/2000/svg" xmlns:xlink="http://www.w3.org/1999/xlink">
<g id="graph0" class="graph" transform="scale(1 1) rotate(0) translate(4 133)">
<title>MenuTexture</title>
<!-- Node1 -->
<g id="Node000001" class="node">
<title>Node1</title>
<g id="a_Node000001"><a xlink:title="struct for a texture use in menu mainly">
<polygon fill="#999999" stroke="#666666" points="114,-19 34,-19 34,0 114,0 114,-19"/>
<text text-anchor="middle" x="74" y="-7" font-family="Helvetica,sans-Serif" font-size="10.00">MenuTexture</text>
</a>
</g>
</g>
<!-- Node2 -->
<g id="Node000002" class="node">
<title>Node2</title>
<g id="a_Node000002"><a xlink:title=" ">
<polygon fill="white" stroke="#666666" points="34,-129 0,-129 0,-110 34,-110 34,-129"/>
<text text-anchor="middle" x="17" y="-117" font-family="Helvetica,sans-Serif" font-size="10.00">s32</text>
</a>
</g>
</g>
<!-- Node2&#45;&gt;Node1 -->
<g id="edge1_Node000001_Node000002" class="edge">
<title>Node2&#45;&gt;Node1</title>
<g id="a_edge1_Node000001_Node000002"><a xlink:title=" ">
<path fill="none" stroke="#9a32cd" stroke-dasharray="5,2" d="M20.63,-99.79C24.61,-82.46 32.21,-56.5 45,-37 49.49,-30.16 56.14,-23.91 61.94,-19.2"/>
<polygon fill="#9a32cd" stroke="#9a32cd" points="17.16,-99.27 18.51,-109.78 24.01,-100.72 17.16,-99.27"/>
</a>
</g>
<text text-anchor="middle" x="57.5" y="-62" font-family="Helvetica,sans-Serif" font-size="10.00" fill="grey"> type</text>
</g>
<!-- Node3 -->
<g id="Node000003" class="node">
<title>Node3</title>
<g id="a_Node000003"><a xlink:title=" ">
<polygon fill="white" stroke="#666666" points="95.5,-129 52.5,-129 52.5,-110 95.5,-110 95.5,-129"/>
<text text-anchor="middle" x="74" y="-117" font-family="Helvetica,sans-Serif" font-size="10.00">u64 *</text>
</a>
</g>
</g>
<!-- Node3&#45;&gt;Node1 -->
<g id="edge2_Node000001_Node000003" class="edge">
<title>Node3&#45;&gt;Node1</title>
<g id="a_edge2_Node000001_Node000003"><a xlink:title=" ">
<path fill="none" stroke="#9a32cd" stroke-dasharray="5,2" d="M74,-99.48C74,-75.84 74,-36.5 74,-19.16"/>
<polygon fill="#9a32cd" stroke="#9a32cd" points="70.5,-99.66 74,-109.66 77.5,-99.66 70.5,-99.66"/>
</a>
</g>
<text text-anchor="middle" x="105" y="-62" font-family="Helvetica,sans-Serif" font-size="10.00" fill="grey"> textureData</text>
</g>
<!-- Node4 -->
<g id="Node000004" class="node">
<title>Node4</title>
<g id="a_Node000004"><a xlink:title=" ">
<polygon fill="white" stroke="#666666" points="176.5,-129 141.5,-129 141.5,-110 176.5,-110 176.5,-129"/>
<text text-anchor="middle" x="159" y="-117" font-family="Helvetica,sans-Serif" font-size="10.00">u16</text>
</a>
</g>
</g>
<!-- Node4&#45;&gt;Node1 -->
<g id="edge3_Node000001_Node000004" class="edge">
<title>Node4&#45;&gt;Node1</title>
<g id="a_edge3_Node000001_Node000004"><a xlink:title=" ">
<path fill="none" stroke="#9a32cd" stroke-dasharray="5,2" d="M158.5,-99.57C157.06,-81.48 152.26,-54.46 137,-37 129.82,-28.78 119.66,-23.05 109.6,-19.07"/>
<polygon fill="#9a32cd" stroke="#9a32cd" points="155.02,-99.94 159.03,-109.74 162.01,-99.57 155.02,-99.94"/>
</a>
</g>
<text text-anchor="middle" x="172.5" y="-84" font-family="Helvetica,sans-Serif" font-size="10.00" fill="grey"> dX</text>
<text text-anchor="middle" x="172.5" y="-73" font-family="Helvetica,sans-Serif" font-size="10.00" fill="grey">dY</text>
<text text-anchor="middle" x="172.5" y="-62" font-family="Helvetica,sans-Serif" font-size="10.00" fill="grey">height</text>
<text text-anchor="middle" x="172.5" y="-51" font-family="Helvetica,sans-Serif" font-size="10.00" fill="grey">size</text>
<text text-anchor="middle" x="172.5" y="-40" font-family="Helvetica,sans-Serif" font-size="10.00" fill="grey">width</text>
</g>
</g>
</svg>
