<?xml version="1.0" encoding="UTF-8" standalone="no"?>
<!DOCTYPE svg PUBLIC "-//W3C//DTD SVG 1.1//EN"
 "http://www.w3.org/Graphics/SVG/1.1/DTD/svg11.dtd">
<!-- Generated by graphviz version 2.43.0 (0)
 -->
<!-- Title: osPfsAllocateFile Pages: 1 -->
<svg width="675pt" height="303pt"
 viewBox="0.00 0.00 675.00 302.75" xmlns="http://www.w3.org/2000/svg" xmlns:xlink="http://www.w3.org/1999/xlink">
<g id="graph0" class="graph" transform="scale(1 1) rotate(0) translate(4 298.75)">
<title>osPfsAllocateFile</title>
<!-- Node1 -->
<g id="Node000001" class="node">
<title>Node1</title>
<g id="a_Node000001"><a xlink:title=" ">
<polygon fill="#999999" stroke="#666666" points="100,-49.75 0,-49.75 0,-30.75 100,-30.75 100,-49.75"/>
<text text-anchor="middle" x="50" y="-37.75" font-family="Helvetica,sans-Serif" font-size="10.00">osPfsAllocateFile</text>
</a>
</g>
</g>
<!-- Node2 -->
<g id="Node000002" class="node">
<title>Node2</title>
<g id="a_Node000002"><a xlink:href="sprintf_8c.html#a353b2f73aed82bd1eb8cc2b34ec936d9" target="_top" xlink:title=" ">
<polygon fill="white" stroke="#666666" points="184,-49.75 136,-49.75 136,-30.75 184,-30.75 184,-49.75"/>
<text text-anchor="middle" x="160" y="-37.75" font-family="Helvetica,sans-Serif" font-size="10.00">sprintf</text>
</a>
</g>
</g>
<!-- Node1&#45;&gt;Node2 -->
<g id="edge1_Node000001_Node000002" class="edge">
<title>Node1&#45;&gt;Node2</title>
<g id="a_edge1_Node000001_Node000002"><a xlink:title=" ">
<path fill="none" stroke="#63b8ff" d="M100.26,-40.25C108.92,-40.25 117.75,-40.25 125.84,-40.25"/>
<polygon fill="#63b8ff" stroke="#63b8ff" points="125.98,-43.75 135.98,-40.25 125.98,-36.75 125.98,-43.75"/>
</a>
</g>
</g>
<!-- Node3 -->
<g id="Node000003" class="node">
<title>Node3</title>
<g id="a_Node000003"><a xlink:href="__Printf_8c.html#a39bb05c90efce6c6790c5d58d271d72d" target="_top" xlink:title=" ">
<polygon fill="white" stroke="#666666" points="281,-68.75 233,-68.75 233,-49.75 281,-49.75 281,-68.75"/>
<text text-anchor="middle" x="257" y="-56.75" font-family="Helvetica,sans-Serif" font-size="10.00">_Printf</text>
</a>
</g>
</g>
<!-- Node2&#45;&gt;Node3 -->
<g id="edge2_Node000002_Node000003" class="edge">
<title>Node2&#45;&gt;Node3</title>
<g id="a_edge2_Node000002_Node000003"><a xlink:title=" ">
<path fill="none" stroke="#63b8ff" d="M184.48,-44.95C195.99,-47.25 210.04,-50.06 222.64,-52.58"/>
<polygon fill="#63b8ff" stroke="#63b8ff" points="222.29,-56.08 232.79,-54.61 223.67,-49.21 222.29,-56.08"/>
</a>
</g>
</g>
<!-- Node15 -->
<g id="Node000015" class="node">
<title>Node15</title>
<g id="a_Node000015"><a xlink:href="sprintf_8c.html#a6151eb738d6a0c5af66836e8a50fad9e" target="_top" xlink:title=" ">
<polygon fill="white" stroke="#666666" points="294,-31.75 220,-31.75 220,-12.75 294,-12.75 294,-31.75"/>
<text text-anchor="middle" x="257" y="-19.75" font-family="Helvetica,sans-Serif" font-size="10.00">proutSprintf</text>
</a>
</g>
</g>
<!-- Node2&#45;&gt;Node15 -->
<g id="edge16_Node000002_Node000015" class="edge">
<title>Node2&#45;&gt;Node15</title>
<g id="a_edge16_Node000002_Node000015"><a xlink:title=" ">
<path fill="none" stroke="#63b8ff" d="M184.48,-35.8C192.23,-34.33 201.13,-32.65 209.96,-30.97"/>
<polygon fill="#63b8ff" stroke="#63b8ff" points="210.67,-34.4 219.84,-29.1 209.36,-27.52 210.67,-34.4"/>
</a>
</g>
</g>
<!-- Node4 -->
<g id="Node000004" class="node">
<title>Node4</title>
<g id="a_Node000004"><a xlink:href="__Printf_8c.html#ad73a5847f2d7c9de14cc2723da86bf45" target="_top" xlink:title=" ">
<polygon fill="white" stroke="#666666" points="380,-105.75 330,-105.75 330,-86.75 380,-86.75 380,-105.75"/>
<text text-anchor="middle" x="355" y="-93.75" font-family="Helvetica,sans-Serif" font-size="10.00">_Putfld</text>
</a>
</g>
</g>
<!-- Node3&#45;&gt;Node4 -->
<g id="edge3_Node000003_Node000004" class="edge">
<title>Node3&#45;&gt;Node4</title>
<g id="a_edge3_Node000003_Node000004"><a xlink:title=" ">
<path fill="none" stroke="#63b8ff" d="M281.24,-68.21C293,-72.74 307.5,-78.33 320.44,-83.32"/>
<polygon fill="#63b8ff" stroke="#63b8ff" points="319.38,-86.66 329.97,-86.99 321.9,-80.13 319.38,-86.66"/>
</a>
</g>
</g>
<!-- Node14 -->
<g id="Node000014" class="node">
<title>Node14</title>
<g id="a_Node000014"><a xlink:href="string_8c.html#a988b4defe51a1815ef3b9ddab10e7a89" target="_top" xlink:title=" ">
<polygon fill="white" stroke="#666666" points="377,-68.75 333,-68.75 333,-49.75 377,-49.75 377,-68.75"/>
<text text-anchor="middle" x="355" y="-56.75" font-family="Helvetica,sans-Serif" font-size="10.00">strchr</text>
</a>
</g>
</g>
<!-- Node3&#45;&gt;Node14 -->
<g id="edge15_Node000003_Node000014" class="edge">
<title>Node3&#45;&gt;Node14</title>
<g id="a_edge15_Node000003_Node000014"><a xlink:title=" ">
<path fill="none" stroke="#63b8ff" d="M281.24,-59.25C293.67,-59.25 309.16,-59.25 322.65,-59.25"/>
<polygon fill="#63b8ff" stroke="#63b8ff" points="322.94,-62.75 332.94,-59.25 322.94,-55.75 322.94,-62.75"/>
</a>
</g>
</g>
<!-- Node5 -->
<g id="Node000005" class="node">
<title>Node5</title>
<g id="a_Node000005"><a xlink:href="__Ldtob_8c.html#a7cc858157b66e15c831ad085113729ae" target="_top" xlink:title=" ">
<polygon fill="white" stroke="#666666" points="465,-199.75 416,-199.75 416,-180.75 465,-180.75 465,-199.75"/>
<text text-anchor="middle" x="440.5" y="-187.75" font-family="Helvetica,sans-Serif" font-size="10.00">_Ldtob</text>
</a>
</g>
</g>
<!-- Node4&#45;&gt;Node5 -->
<g id="edge4_Node000004_Node000005" class="edge">
<title>Node4&#45;&gt;Node5</title>
<g id="a_edge4_Node000004_Node000005"><a xlink:title=" ">
<path fill="none" stroke="#63b8ff" d="M364.62,-105.96C378.69,-121.8 406.79,-153.42 424.27,-173.11"/>
<polygon fill="#63b8ff" stroke="#63b8ff" points="421.79,-175.59 431.05,-180.74 427.03,-170.94 421.79,-175.59"/>
</a>
</g>
</g>
<!-- Node11 -->
<g id="Node000011" class="node">
<title>Node11</title>
<g id="a_Node000011"><a xlink:href="__Litob_8c.html#aaaba3b0ab7920d422a61fe9e22600dd0" target="_top" xlink:title=" ">
<polygon fill="white" stroke="#666666" points="463.5,-106.75 417.5,-106.75 417.5,-87.75 463.5,-87.75 463.5,-106.75"/>
<text text-anchor="middle" x="440.5" y="-94.75" font-family="Helvetica,sans-Serif" font-size="10.00">_Litob</text>
</a>
</g>
</g>
<!-- Node4&#45;&gt;Node11 -->
<g id="edge11_Node000004_Node000011" class="edge">
<title>Node4&#45;&gt;Node11</title>
<g id="a_edge11_Node000004_Node000011"><a xlink:title=" ">
<path fill="none" stroke="#63b8ff" d="M380.15,-96.54C388.6,-96.64 398.22,-96.76 407.23,-96.86"/>
<polygon fill="#63b8ff" stroke="#63b8ff" points="407.36,-100.37 417.4,-96.99 407.44,-93.37 407.36,-100.37"/>
</a>
</g>
</g>
<!-- Node13 -->
<g id="Node000013" class="node">
<title>Node13</title>
<g id="a_Node000013"><a xlink:href="string_8c.html#a008e171a518fe0e0352f31b245e03875" target="_top" xlink:title=" ">
<polygon fill="white" stroke="#666666" points="462.5,-69.75 418.5,-69.75 418.5,-50.75 462.5,-50.75 462.5,-69.75"/>
<text text-anchor="middle" x="440.5" y="-57.75" font-family="Helvetica,sans-Serif" font-size="10.00">strlen</text>
</a>
</g>
</g>
<!-- Node4&#45;&gt;Node13 -->
<g id="edge14_Node000004_Node000013" class="edge">
<title>Node4&#45;&gt;Node13</title>
<g id="a_edge14_Node000004_Node000013"><a xlink:title=" ">
<path fill="none" stroke="#63b8ff" d="M378.38,-86.6C387.82,-82.53 398.97,-77.73 409.14,-73.34"/>
<polygon fill="#63b8ff" stroke="#63b8ff" points="410.7,-76.48 418.5,-69.3 407.93,-70.05 410.7,-76.48"/>
</a>
</g>
</g>
<!-- Node6 -->
<g id="Node000006" class="node">
<title>Node6</title>
<g id="a_Node000006"><a xlink:href="__Ldtob_8c.html#a2b6c5318b43bab1636bad9113ffb2761" target="_top" xlink:title=" ">
<polygon fill="white" stroke="#666666" points="561.5,-294.75 511.5,-294.75 511.5,-275.75 561.5,-275.75 561.5,-294.75"/>
<text text-anchor="middle" x="536.5" y="-282.75" font-family="Helvetica,sans-Serif" font-size="10.00">_Genld</text>
</a>
</g>
</g>
<!-- Node5&#45;&gt;Node6 -->
<g id="edge5_Node000005_Node000006" class="edge">
<title>Node5&#45;&gt;Node6</title>
<g id="a_edge5_Node000005_Node000006"><a xlink:title=" ">
<path fill="none" stroke="#63b8ff" d="M448.47,-200.14C458.9,-214.55 479.63,-241.72 501,-261.25 504.21,-264.19 507.8,-267.05 511.41,-269.73"/>
<polygon fill="#63b8ff" stroke="#63b8ff" points="509.53,-272.69 519.73,-275.56 513.55,-266.95 509.53,-272.69"/>
</a>
</g>
</g>
<!-- Node7 -->
<g id="Node000007" class="node">
<title>Node7</title>
<g id="a_Node000007"><a xlink:href="string_8c.html#ad7f1ae1bbb49dece44bda378982a704d" target="_top" xlink:title=" ">
<polygon fill="white" stroke="#666666" points="667,-181.75 608,-181.75 608,-162.75 667,-162.75 667,-181.75"/>
<text text-anchor="middle" x="637.5" y="-169.75" font-family="Helvetica,sans-Serif" font-size="10.00">memcpy</text>
</a>
</g>
</g>
<!-- Node5&#45;&gt;Node7 -->
<g id="edge9_Node000005_Node000007" class="edge">
<title>Node5&#45;&gt;Node7</title>
<g id="a_edge9_Node000005_Node000007"><a xlink:title=" ">
<path fill="none" stroke="#63b8ff" d="M452.38,-199.95C463.64,-209.28 482.18,-222.75 501,-228.25 531.29,-237.1 542.44,-239.29 572,-228.25 592.48,-220.6 610.76,-203.19 622.58,-189.8"/>
<polygon fill="#63b8ff" stroke="#63b8ff" points="625.3,-192.01 629.07,-182.11 619.95,-187.49 625.3,-192.01"/>
</a>
</g>
</g>
<!-- Node8 -->
<g id="Node000008" class="node">
<title>Node8</title>
<g id="a_Node000008"><a xlink:href="__Ldtob_8c.html#ab7ade9ce60aaa8baa0244b503351d742" target="_top" xlink:title=" ">
<polygon fill="white" stroke="#666666" points="572,-218.75 501,-218.75 501,-199.75 572,-199.75 572,-218.75"/>
<text text-anchor="middle" x="536.5" y="-206.75" font-family="Helvetica,sans-Serif" font-size="10.00">_Ldunscale</text>
</a>
</g>
</g>
<!-- Node5&#45;&gt;Node8 -->
<g id="edge7_Node000005_Node000008" class="edge">
<title>Node5&#45;&gt;Node8</title>
<g id="a_edge7_Node000005_Node000008"><a xlink:title=" ">
<path fill="none" stroke="#63b8ff" d="M465.22,-195.04C473.04,-196.63 482.02,-198.44 490.88,-200.23"/>
<polygon fill="#63b8ff" stroke="#63b8ff" points="490.28,-203.68 500.77,-202.23 491.66,-196.82 490.28,-203.68"/>
</a>
</g>
</g>
<!-- Node9 -->
<g id="Node000009" class="node">
<title>Node9</title>
<g id="a_Node000009"><a xlink:href="ldiv_8c.html#a0302920caf64a5fbe1ce0862799d7784" target="_top" xlink:title=" ">
<polygon fill="white" stroke="#666666" points="554,-181.75 519,-181.75 519,-162.75 554,-162.75 554,-181.75"/>
<text text-anchor="middle" x="536.5" y="-169.75" font-family="Helvetica,sans-Serif" font-size="10.00">ldiv</text>
</a>
</g>
</g>
<!-- Node5&#45;&gt;Node9 -->
<g id="edge8_Node000005_Node000009" class="edge">
<title>Node5&#45;&gt;Node9</title>
<g id="a_edge8_Node000005_Node000009"><a xlink:title=" ">
<path fill="none" stroke="#63b8ff" d="M465.22,-185.71C478.57,-183.15 495.27,-179.95 509.04,-177.32"/>
<polygon fill="#63b8ff" stroke="#63b8ff" points="509.73,-180.75 518.9,-175.43 508.42,-173.87 509.73,-180.75"/>
</a>
</g>
</g>
<!-- Node10 -->
<g id="Node000010" class="node">
<title>Node10</title>
<g id="a_Node000010"><a xlink:href="alBnkfNew_8c.html#a96a0200a6b40350e524f536d232ecb53" target="_top" xlink:title=" ">
<polygon fill="white" stroke="#666666" points="562.5,-144.75 510.5,-144.75 510.5,-125.75 562.5,-125.75 562.5,-144.75"/>
<text text-anchor="middle" x="536.5" y="-132.75" font-family="Helvetica,sans-Serif" font-size="10.00">unused</text>
</a>
</g>
</g>
<!-- Node5&#45;&gt;Node10 -->
<g id="edge10_Node000005_Node000010" class="edge">
<title>Node5&#45;&gt;Node10</title>
<g id="a_edge10_Node000005_Node000010"><a xlink:title=" ">
<path fill="none" stroke="#63b8ff" d="M457.06,-180.6C469,-173.25 485.94,-162.95 501,-154.25 503.55,-152.78 506.23,-151.26 508.9,-149.75"/>
<polygon fill="#63b8ff" stroke="#63b8ff" points="510.83,-152.69 517.87,-144.78 507.43,-146.57 510.83,-152.69"/>
</a>
</g>
</g>
<!-- Node6&#45;&gt;Node7 -->
<g id="edge6_Node000006_Node000007" class="edge">
<title>Node6&#45;&gt;Node7</title>
<g id="a_edge6_Node000006_Node000007"><a xlink:title=" ">
<path fill="none" stroke="#63b8ff" d="M553.82,-275.53C559.87,-271.52 566.58,-266.56 572,-261.25 594.14,-239.53 614.17,-209.51 625.84,-190.49"/>
<polygon fill="#63b8ff" stroke="#63b8ff" points="628.86,-192.26 631.01,-181.88 622.86,-188.65 628.86,-192.26"/>
</a>
</g>
</g>
<!-- Node11&#45;&gt;Node7 -->
<g id="edge13_Node000011_Node000007" class="edge">
<title>Node11&#45;&gt;Node7</title>
<g id="a_edge13_Node000011_Node000007"><a xlink:title=" ">
<path fill="none" stroke="#63b8ff" d="M463.79,-97.02C490.65,-97.54 536.57,-101.04 572,-117.25 591.32,-126.09 609.36,-142.45 621.42,-155.04"/>
<polygon fill="#63b8ff" stroke="#63b8ff" points="619.09,-157.67 628.44,-162.65 624.24,-152.93 619.09,-157.67"/>
</a>
</g>
</g>
<!-- Node12 -->
<g id="Node000012" class="node">
<title>Node12</title>
<g id="a_Node000012"><a xlink:href="ldiv_8c.html#a5b23c3639f11980dca762c5f1d74f339" target="_top" xlink:title=" ">
<polygon fill="white" stroke="#666666" points="555.5,-68.75 517.5,-68.75 517.5,-49.75 555.5,-49.75 555.5,-68.75"/>
<text text-anchor="middle" x="536.5" y="-56.75" font-family="Helvetica,sans-Serif" font-size="10.00">lldiv</text>
</a>
</g>
</g>
<!-- Node11&#45;&gt;Node12 -->
<g id="edge12_Node000011_Node000012" class="edge">
<title>Node11&#45;&gt;Node12</title>
<g id="a_edge12_Node000011_Node000012"><a xlink:title=" ">
<path fill="none" stroke="#63b8ff" d="M463.78,-88.24C476.97,-82.91 493.8,-76.11 507.84,-70.43"/>
<polygon fill="#63b8ff" stroke="#63b8ff" points="509.52,-73.53 517.47,-66.54 506.89,-67.04 509.52,-73.53"/>
</a>
</g>
</g>
<!-- Node15&#45;&gt;Node7 -->
<g id="edge17_Node000015_Node000007" class="edge">
<title>Node15&#45;&gt;Node7</title>
<g id="a_edge17_Node000015_Node000007"><a xlink:title=" ">
<path fill="none" stroke="#63b8ff" d="M294.1,-13.46C356.56,-0.44 486.29,16.74 572,-40.25 610.8,-66.05 627.07,-122.23 633.2,-152.31"/>
<polygon fill="#63b8ff" stroke="#63b8ff" points="629.82,-153.25 635.09,-162.44 636.7,-151.97 629.82,-153.25"/>
</a>
</g>
</g>
</g>
</svg>
