<?xml version="1.0" encoding="UTF-8" standalone="no"?>
<!DOCTYPE svg PUBLIC "-//W3C//DTD SVG 1.1//EN"
 "http://www.w3.org/Graphics/SVG/1.1/DTD/svg11.dtd">
<!-- Generated by graphviz version 2.43.0 (0)
 -->
<!-- Title: osPfsFindFile Pages: 1 -->
<!--zoomable 571 -->

<svg id="main" version="1.1" xmlns="http://www.w3.org/2000/svg" xmlns:xlink="http://www.w3.org/1999/xlink" xml:space="preserve" onload="init(evt)">

<style type="text/css"><![CDATA[
.node, .edge {opacity: 0.7;}
.node.selected, .edge.selected {opacity: 1;}
.edge:hover path { stroke: red; }
.edge:hover polygon { stroke: red; fill: red; }
]]></style>

<defs>
  <circle id="rim" cx="0" cy="0" r="7"/>
  <circle id="rim2" cx="0" cy="0" r="3.5"/>
  <g id="zoomPlus">
    <use xlink:href="#rim" fill="#404040"><set attributeName="fill" to="#808080" begin="zoomplus.mouseover" end="zoomplus.mouseout"/></use>
    <path d="M-4,0h8M0,-4v8" fill="none" stroke="white" stroke-width="1.5" pointer-events="none"/>
  </g>
  <g id="zoomMin">
    <use xlink:href="#rim" fill="#404040"><set attributeName="fill" to="#808080" begin="zoomminus.mouseover" end="zoomminus.mouseout"/></use>
    <path d="M-4,0h8" fill="none" stroke="white" stroke-width="1.5" pointer-events="none"/>
  </g>
  <g id="arrowUp" transform="translate(30 24)">
    <use xlink:href="#rim"/>
    <path pointer-events="none" fill="none" stroke="white" stroke-width="1.5" d="M0,-3.0v7 M-2.5,-0.5L0,-3.0L2.5,-0.5"/>
  </g>
  <g id="arrowRight" transform="rotate(90) translate(36 -43)">
    <use xlink:href="#rim"/>
    <path pointer-events="none" fill="none" stroke="white" stroke-width="1.5" d="M0,-3.0v7 M-2.5,-0.5L0,-3.0L2.5,-0.5"/>
  </g>
  <g id="arrowDown" transform="rotate(180) translate(-30 -48)">
    <use xlink:href="#rim"/>
    <path pointer-events="none" fill="none" stroke="white" stroke-width="1.5" d="M0,-3.0v7 M-2.5,-0.5L0,-3.0L2.5,-0.5"/>
  </g>
  <g id="arrowLeft" transform="rotate(270) translate(-36 17)">
    <use xlink:href="#rim"/>
    <path pointer-events="none" fill="none" stroke="white" stroke-width="1.5" d="M0,-3.0v7 M-2.5,-0.5L0,-3.0L2.5,-0.5"/>
  </g>
  <g id="resetDef">
    <use xlink:href="#rim2" fill="#404040"><set attributeName="fill" to="#808080" begin="reset.mouseover" end="reset.mouseout"/></use>
  </g>
</defs>
<script type="application/ecmascript">
var viewWidth = 1014;
var viewHeight = 571;
var sectionId = 'dynsection-15';
</script>
<script type="application/ecmascript" xlink:href="svg.min.js"/>
<svg id="graph" class="graph">
<g id="viewport">
<title>osPfsFindFile</title>
<!-- Node1 -->
<g id="Node000001" class="node">
<title>Node1</title>
<g id="a_Node000001"><a xlink:title=" ">
<polygon fill="#999999" stroke="#666666" points="80,-319.16 0,-319.16 0,-300.16 80,-300.16 80,-319.16"/>
<text text-anchor="middle" x="40" y="-307.16" font-family="Helvetica,sans-Serif" font-size="10.00">osPfsFindFile</text>
</a>
</g>
</g>
<!-- Node2 -->
<g id="Node000002" class="node">
<title>Node2</title>
<g id="a_Node000002"><a xlink:href="contramread_8c.html#a594f9ee5edd6c2fb8070576da1fd06e0" target="_top" xlink:title=" ">
<polygon fill="white" stroke="#666666" points="224,-395.16 116,-395.16 116,-376.16 224,-376.16 224,-395.16"/>
<text text-anchor="middle" x="170" y="-383.16" font-family="Helvetica,sans-Serif" font-size="10.00">__osContRamRead</text>
</a>
</g>
</g>
<!-- Node1&#45;&gt;Node2 -->
<g id="edge1_Node000001_Node000002" class="edge">
<title>Node1&#45;&gt;Node2</title>
<g id="a_edge1_Node000001_Node000002"><a xlink:title=" ">
<path fill="none" stroke="#63b8ff" d="M57.21,-319.28C79.14,-332.3 118.46,-355.65 144.14,-370.89"/>
<polygon fill="#63b8ff" stroke="#63b8ff" points="142.53,-374.01 152.92,-376.11 146.11,-367.99 142.53,-374.01"/>
</a>
</g>
</g>
<!-- Node24 -->
<g id="Node000024" class="node">
<title>Node24</title>
<g id="a_Node000024"><a xlink:href="sprintf_8c.html#a353b2f73aed82bd1eb8cc2b34ec936d9" target="_top" xlink:title=" ">
<polygon fill="white" stroke="#666666" points="194,-261.16 146,-261.16 146,-242.16 194,-242.16 194,-261.16"/>
<text text-anchor="middle" x="170" y="-249.16" font-family="Helvetica,sans-Serif" font-size="10.00">sprintf</text>
</a>
</g>
</g>
<!-- Node1&#45;&gt;Node24 -->
<g id="edge34_Node000001_Node000024" class="edge">
<title>Node1&#45;&gt;Node24</title>
<g id="a_edge34_Node000001_Node000024"><a xlink:title=" ">
<path fill="none" stroke="#63b8ff" d="M62.14,-300.08C82.98,-290.63 115.05,-276.1 138.62,-265.42"/>
<polygon fill="#63b8ff" stroke="#63b8ff" points="140.17,-268.56 147.83,-261.25 137.28,-262.19 140.17,-268.56"/>
</a>
</g>
</g>
<!-- Node3 -->
<g id="Node000003" class="node">
<title>Node3</title>
<g id="a_Node000003"><a xlink:href="crc_8c.html#a3da2a6d11716fef869b6be888c9b7263" target="_top" xlink:title=" ">
<polygon fill="white" stroke="#666666" points="375.5,-301.16 275.5,-301.16 275.5,-282.16 375.5,-282.16 375.5,-301.16"/>
<text text-anchor="middle" x="325.5" y="-289.16" font-family="Helvetica,sans-Serif" font-size="10.00">__osContDataCrc</text>
</a>
</g>
</g>
<!-- Node2&#45;&gt;Node3 -->
<g id="edge2_Node000002_Node000003" class="edge">
<title>Node2&#45;&gt;Node3</title>
<g id="a_edge2_Node000002_Node000003"><a xlink:title=" ">
<path fill="none" stroke="#63b8ff" d="M179.66,-376.15C194.57,-360.32 226.72,-328.55 260,-310.66 264.04,-308.48 268.36,-306.53 272.78,-304.78"/>
<polygon fill="#63b8ff" stroke="#63b8ff" points="274.32,-307.94 282.55,-301.26 271.95,-301.36 274.32,-307.94"/>
</a>
</g>
</g>
<!-- Node4 -->
<g id="Node000004" class="node">
<title>Node4</title>
<g id="a_Node000004"><a xlink:href="contramread_8c.html#acf36d11e540d86585205f35bb0253390" target="_top" xlink:title=" ">
<polygon fill="white" stroke="#666666" points="391,-563.16 260,-563.16 260,-544.16 391,-544.16 391,-563.16"/>
<text text-anchor="middle" x="325.5" y="-551.16" font-family="Helvetica,sans-Serif" font-size="10.00">__osPackRamReadData</text>
</a>
</g>
</g>
<!-- Node2&#45;&gt;Node4 -->
<g id="edge3_Node000002_Node000004" class="edge">
<title>Node2&#45;&gt;Node4</title>
<g id="a_edge3_Node000002_Node000004"><a xlink:title=" ">
<path fill="none" stroke="#63b8ff" d="M173.94,-395.46C182.5,-422.27 210,-497.35 260,-535.66 261.8,-537.03 263.7,-538.31 265.67,-539.48"/>
<polygon fill="#63b8ff" stroke="#63b8ff" points="264.22,-542.67 274.73,-544.04 267.37,-536.42 264.22,-542.67"/>
</a>
</g>
</g>
<!-- Node6 -->
<g id="Node000006" class="node">
<title>Node6</title>
<g id="a_Node000006"><a xlink:href="contramread_8c.html#a1d45a82b9161aa7445ddbc4fba1e0fd1" target="_top" xlink:title=" ">
<polygon fill="white" stroke="#666666" points="376,-526.16 275,-526.16 275,-507.16 376,-507.16 376,-526.16"/>
<text text-anchor="middle" x="325.5" y="-514.16" font-family="Helvetica,sans-Serif" font-size="10.00">__osPfsGetStatus</text>
</a>
</g>
</g>
<!-- Node2&#45;&gt;Node6 -->
<g id="edge5_Node000002_Node000006" class="edge">
<title>Node2&#45;&gt;Node6</title>
<g id="a_edge5_Node000002_Node000006"><a xlink:title=" ">
<path fill="none" stroke="#63b8ff" d="M176.62,-395.38C189.07,-416.11 220.97,-464.99 260,-492.66 265.76,-496.74 272.31,-500.22 278.96,-503.15"/>
<polygon fill="#63b8ff" stroke="#63b8ff" points="278.12,-506.59 288.71,-507.07 280.73,-500.09 278.12,-506.59"/>
</a>
</g>
</g>
<!-- Node7 -->
<g id="Node000007" class="node">
<title>Node7</title>
<g id="a_Node000007"><a xlink:href="____osSiCreateAccessQueue_8c.html#ae0373fb01ccb4831c6c9783b23524a07" target="_top" xlink:title=" ">
<polygon fill="white" stroke="#666666" points="374.5,-414.16 276.5,-414.16 276.5,-395.16 374.5,-395.16 374.5,-414.16"/>
<text text-anchor="middle" x="325.5" y="-402.16" font-family="Helvetica,sans-Serif" font-size="10.00">__osSiGetAccess</text>
</a>
</g>
</g>
<!-- Node2&#45;&gt;Node7 -->
<g id="edge6_Node000002_Node000007" class="edge">
<title>Node2&#45;&gt;Node7</title>
<g id="a_edge6_Node000002_Node000007"><a xlink:title=" ">
<path fill="none" stroke="#63b8ff" d="M224.26,-392.25C237.91,-393.94 252.67,-395.76 266.55,-397.48"/>
<polygon fill="#63b8ff" stroke="#63b8ff" points="266.12,-400.96 276.47,-398.71 266.98,-394.01 266.12,-400.96"/>
</a>
</g>
</g>
<!-- Node18 -->
<g id="Node000018" class="node">
<title>Node18</title>
<g id="a_Node000018"><a xlink:href="osRecvMesg_8c.html#aa254dc33e373f235a99e17f7717493dc" target="_top" xlink:title=" ">
<polygon fill="white" stroke="#666666" points="706,-451.16 628,-451.16 628,-432.16 706,-432.16 706,-451.16"/>
<text text-anchor="middle" x="667" y="-439.16" font-family="Helvetica,sans-Serif" font-size="10.00">osRecvMesg</text>
</a>
</g>
</g>
<!-- Node2&#45;&gt;Node18 -->
<g id="edge33_Node000002_Node000018" class="edge">
<title>Node2&#45;&gt;Node18</title>
<g id="a_edge33_Node000002_Node000018"><a xlink:title=" ">
<path fill="none" stroke="#63b8ff" d="M189.19,-395.32C206.79,-404.21 234.48,-416.99 260,-423.66 385.67,-456.48 540.55,-451.4 617.64,-445.96"/>
<polygon fill="#63b8ff" stroke="#63b8ff" points="618.28,-449.42 627.99,-445.19 617.76,-442.44 618.28,-449.42"/>
</a>
</g>
</g>
<!-- Node19 -->
<g id="Node000019" class="node">
<title>Node19</title>
<g id="a_Node000019"><a xlink:href="____osSiRawStartDma_8c.html#a469384eba4ccec319dbec8745f22bd2f" target="_top" xlink:title=" ">
<polygon fill="white" stroke="#666666" points="383,-338.16 268,-338.16 268,-319.16 383,-319.16 383,-338.16"/>
<text text-anchor="middle" x="325.5" y="-326.16" font-family="Helvetica,sans-Serif" font-size="10.00">__osSiRawStartDma</text>
</a>
</g>
</g>
<!-- Node2&#45;&gt;Node19 -->
<g id="edge27_Node000002_Node000019" class="edge">
<title>Node2&#45;&gt;Node19</title>
<g id="a_edge27_Node000002_Node000019"><a xlink:title=" ">
<path fill="none" stroke="#63b8ff" d="M196.69,-376.11C222.04,-366.7 260.98,-352.24 289.22,-341.76"/>
<polygon fill="#63b8ff" stroke="#63b8ff" points="290.57,-344.99 298.72,-338.23 288.13,-338.43 290.57,-344.99"/>
</a>
</g>
</g>
<!-- Node23 -->
<g id="Node000023" class="node">
<title>Node23</title>
<g id="a_Node000023"><a xlink:href="____osSiCreateAccessQueue_8c.html#aa6dbd69637149484f5fad08232892b50" target="_top" xlink:title=" ">
<polygon fill="white" stroke="#666666" points="548,-375.16 451,-375.16 451,-356.16 548,-356.16 548,-375.16"/>
<text text-anchor="middle" x="499.5" y="-363.16" font-family="Helvetica,sans-Serif" font-size="10.00">__osSiRelAccess</text>
</a>
</g>
</g>
<!-- Node2&#45;&gt;Node23 -->
<g id="edge31_Node000002_Node000023" class="edge">
<title>Node2&#45;&gt;Node23</title>
<g id="a_edge31_Node000002_Node000023"><a xlink:title=" ">
<path fill="none" stroke="#63b8ff" d="M224.35,-382.4C283.72,-378.77 379.33,-372.93 440.51,-369.2"/>
<polygon fill="#63b8ff" stroke="#63b8ff" points="441,-372.67 450.77,-368.57 440.58,-365.69 441,-372.67"/>
</a>
</g>
</g>
<!-- Node5 -->
<g id="Node000005" class="node">
<title>Node5</title>
<g id="a_Node000005"><a xlink:href="crc_8c.html#a5ab8a1ce418d27ff12d648c447c8ab6e" target="_top" xlink:title=" ">
<polygon fill="white" stroke="#666666" points="557.5,-563.16 441.5,-563.16 441.5,-544.16 557.5,-544.16 557.5,-563.16"/>
<text text-anchor="middle" x="499.5" y="-551.16" font-family="Helvetica,sans-Serif" font-size="10.00">__osContAddressCrc</text>
</a>
</g>
</g>
<!-- Node4&#45;&gt;Node5 -->
<g id="edge4_Node000004_Node000005" class="edge">
<title>Node4&#45;&gt;Node5</title>
<g id="a_edge4_Node000004_Node000005"><a xlink:title=" ">
<path fill="none" stroke="#63b8ff" d="M391.04,-553.66C404.05,-553.66 417.76,-553.66 430.88,-553.66"/>
<polygon fill="#63b8ff" stroke="#63b8ff" points="431.24,-557.16 441.24,-553.66 431.24,-550.16 431.24,-557.16"/>
</a>
</g>
</g>
<!-- Node8 -->
<g id="Node000008" class="node">
<title>Node8</title>
<g id="a_Node000008"><a xlink:href="____osSiCreateAccessQueue_8c.html#a7520cad725d80a88735d29f75a3de94a" target="_top" xlink:title=" ">
<polygon fill="white" stroke="#666666" points="572,-412.16 427,-412.16 427,-393.16 572,-393.16 572,-412.16"/>
<text text-anchor="middle" x="499.5" y="-400.16" font-family="Helvetica,sans-Serif" font-size="10.00">__osSiCreateAccessQueue</text>
</a>
</g>
</g>
<!-- Node7&#45;&gt;Node8 -->
<g id="edge7_Node000007_Node000008" class="edge">
<title>Node7&#45;&gt;Node8</title>
<g id="a_edge7_Node000007_Node000008"><a xlink:title=" ">
<path fill="none" stroke="#63b8ff" d="M374.87,-404.09C387.82,-403.94 402.19,-403.78 416.42,-403.61"/>
<polygon fill="#63b8ff" stroke="#63b8ff" points="416.78,-407.11 426.73,-403.49 416.69,-400.11 416.78,-407.11"/>
</a>
</g>
</g>
<!-- Node7&#45;&gt;Node18 -->
<g id="edge21_Node000007_Node000018" class="edge">
<title>Node7&#45;&gt;Node18</title>
<g id="a_edge21_Node000007_Node000018"><a xlink:title=" ">
<path fill="none" stroke="#63b8ff" d="M374.69,-413.65C391.23,-416.51 409.88,-419.5 427,-421.66 492.81,-429.96 569.27,-435.67 617.64,-438.81"/>
<polygon fill="#63b8ff" stroke="#63b8ff" points="617.61,-442.31 627.81,-439.45 618.06,-435.33 617.61,-442.31"/>
</a>
</g>
</g>
<!-- Node9 -->
<g id="Node000009" class="node">
<title>Node9</title>
<g id="a_Node000009"><a xlink:href="osCreateMesgQueue_8c.html#aab783cab54141cb60618b45f534104b9" target="_top" xlink:title=" ">
<polygon fill="white" stroke="#666666" points="726,-412.16 608,-412.16 608,-393.16 726,-393.16 726,-412.16"/>
<text text-anchor="middle" x="667" y="-400.16" font-family="Helvetica,sans-Serif" font-size="10.00">osCreateMesgQueue</text>
</a>
</g>
</g>
<!-- Node8&#45;&gt;Node9 -->
<g id="edge8_Node000008_Node000009" class="edge">
<title>Node8&#45;&gt;Node9</title>
<g id="a_edge8_Node000008_Node000009"><a xlink:title=" ">
<path fill="none" stroke="#63b8ff" d="M572.13,-402.66C580.64,-402.66 589.31,-402.66 597.76,-402.66"/>
<polygon fill="#63b8ff" stroke="#63b8ff" points="597.96,-406.16 607.96,-402.66 597.96,-399.16 597.96,-406.16"/>
</a>
</g>
</g>
<!-- Node10 -->
<g id="Node000010" class="node">
<title>Node10</title>
<g id="a_Node000010"><a xlink:href="osSendMesg_8c.html#a413bd1b0a16c54dcc9e59c48b3d7f142" target="_top" xlink:title=" ">
<polygon fill="white" stroke="#666666" points="706,-375.16 628,-375.16 628,-356.16 706,-356.16 706,-375.16"/>
<text text-anchor="middle" x="667" y="-363.16" font-family="Helvetica,sans-Serif" font-size="10.00">osSendMesg</text>
</a>
</g>
</g>
<!-- Node8&#45;&gt;Node10 -->
<g id="edge9_Node000008_Node000010" class="edge">
<title>Node8&#45;&gt;Node10</title>
<g id="a_edge9_Node000008_Node000010"><a xlink:title=" ">
<path fill="none" stroke="#63b8ff" d="M543.12,-393.13C566,-388.01 594.28,-381.69 617.94,-376.4"/>
<polygon fill="#63b8ff" stroke="#63b8ff" points="618.77,-379.8 627.76,-374.2 617.24,-372.97 618.77,-379.8"/>
</a>
</g>
</g>
<!-- Node11 -->
<g id="Node000011" class="node">
<title>Node11</title>
<g id="a_Node000011"><a xlink:href="libultra__internal_8h.html#a8ad9db8aa6bfc4437abdd0363b663b16" target="_top" xlink:title=" ">
<polygon fill="white" stroke="#666666" points="988.5,-395.16 900.5,-395.16 900.5,-376.16 988.5,-376.16 988.5,-395.16"/>
<text text-anchor="middle" x="944.5" y="-383.16" font-family="Helvetica,sans-Serif" font-size="10.00">__osDisableInt</text>
</a>
</g>
</g>
<!-- Node10&#45;&gt;Node11 -->
<g id="edge10_Node000010_Node000011" class="edge">
<title>Node10&#45;&gt;Node11</title>
<g id="a_edge10_Node000010_Node000011"><a xlink:title=" ">
<path fill="none" stroke="#63b8ff" d="M706.02,-368.42C753.86,-371.89 836.3,-377.87 890.36,-381.8"/>
<polygon fill="#63b8ff" stroke="#63b8ff" points="890.21,-385.3 900.44,-382.53 890.72,-378.31 890.21,-385.3"/>
</a>
</g>
</g>
<!-- Node12 -->
<g id="Node000012" class="node">
<title>Node12</title>
<g id="a_Node000012"><a xlink:href="libultra__internal_8h.html#afe9c3abc4ca93d9fe18a87d9f108d5cb" target="_top" xlink:title=" ">
<polygon fill="white" stroke="#666666" points="1006,-358.16 883,-358.16 883,-339.16 1006,-339.16 1006,-358.16"/>
<text text-anchor="middle" x="944.5" y="-346.16" font-family="Helvetica,sans-Serif" font-size="10.00">__osEnqueueAndYield</text>
</a>
</g>
</g>
<!-- Node10&#45;&gt;Node12 -->
<g id="edge11_Node000010_Node000012" class="edge">
<title>Node10&#45;&gt;Node12</title>
<g id="a_edge11_Node000010_Node000012"><a xlink:title=" ">
<path fill="none" stroke="#63b8ff" d="M706.19,-356.54C713.02,-354.15 719.9,-351.22 726,-347.66 745,-336.55 741.55,-321.79 762,-313.66 814.47,-292.79 880.56,-317.14 916.75,-334.41"/>
<polygon fill="#63b8ff" stroke="#63b8ff" points="915.62,-337.76 926.13,-339.05 918.72,-331.48 915.62,-337.76"/>
</a>
</g>
</g>
<!-- Node13 -->
<g id="Node000013" class="node">
<title>Node13</title>
<g id="a_Node000013"><a xlink:href="libultra__internal_8h.html#aaadded63bebce6cfdda5ecda193fc9ea" target="_top" xlink:title=" ">
<polygon fill="white" stroke="#666666" points="989.5,-543.16 899.5,-543.16 899.5,-524.16 989.5,-524.16 989.5,-543.16"/>
<text text-anchor="middle" x="944.5" y="-531.16" font-family="Helvetica,sans-Serif" font-size="10.00">__osPopThread</text>
</a>
</g>
</g>
<!-- Node10&#45;&gt;Node13 -->
<g id="edge12_Node000010_Node000013" class="edge">
<title>Node10&#45;&gt;Node13</title>
<g id="a_edge12_Node000010_Node000013"><a xlink:title=" ">
<path fill="none" stroke="#63b8ff" d="M706.11,-372.56C713.42,-375.33 720.5,-379.22 726,-384.66 761.37,-419.65 725.19,-457.18 762,-490.66 796.38,-521.92 849.25,-531.65 889.08,-534.16"/>
<polygon fill="#63b8ff" stroke="#63b8ff" points="889,-537.66 899.16,-534.66 889.35,-530.66 889,-537.66"/>
</a>
</g>
</g>
<!-- Node14 -->
<g id="Node000014" class="node">
<title>Node14</title>
<g id="a_Node000014"><a xlink:href="libultra__internal_8h.html#aecafa57b85fd739d6033705808194def" target="_top" xlink:title=" ">
<polygon fill="white" stroke="#666666" points="989,-506.16 900,-506.16 900,-487.16 989,-487.16 989,-506.16"/>
<text text-anchor="middle" x="944.5" y="-494.16" font-family="Helvetica,sans-Serif" font-size="10.00">__osRestoreInt</text>
</a>
</g>
</g>
<!-- Node10&#45;&gt;Node14 -->
<g id="edge13_Node000010_Node000014" class="edge">
<title>Node10&#45;&gt;Node14</title>
<g id="a_edge13_Node000010_Node000014"><a xlink:title=" ">
<path fill="none" stroke="#63b8ff" d="M706.25,-373.29C713.38,-376 720.36,-379.68 726,-384.66 754.04,-409.37 732.52,-437.68 762,-460.66 798.17,-488.85 850.43,-496.79 889.6,-498.3"/>
<polygon fill="#63b8ff" stroke="#63b8ff" points="889.67,-501.81 899.76,-498.57 889.85,-494.81 889.67,-501.81"/>
</a>
</g>
</g>
<!-- Node15 -->
<g id="Node000015" class="node">
<title>Node15</title>
<g id="a_Node000015"><a xlink:href="osStartThread_8c.html#a3b144e814933e16a2fbf2642ad098ed3" target="_top" xlink:title=" ">
<polygon fill="white" stroke="#666666" points="847,-451.16 762,-451.16 762,-432.16 847,-432.16 847,-451.16"/>
<text text-anchor="middle" x="804.5" y="-439.16" font-family="Helvetica,sans-Serif" font-size="10.00">osStartThread</text>
</a>
</g>
</g>
<!-- Node10&#45;&gt;Node15 -->
<g id="edge14_Node000010_Node000015" class="edge">
<title>Node10&#45;&gt;Node15</title>
<g id="a_edge14_Node000010_Node000015"><a xlink:title=" ">
<path fill="none" stroke="#63b8ff" d="M703.08,-375.16C710.82,-377.8 718.84,-380.97 726,-384.66 747.6,-395.77 769.67,-412.66 784.71,-425.17"/>
<polygon fill="#63b8ff" stroke="#63b8ff" points="782.81,-428.14 792.69,-431.95 787.34,-422.81 782.81,-428.14"/>
</a>
</g>
</g>
<!-- Node15&#45;&gt;Node11 -->
<g id="edge15_Node000015_Node000011" class="edge">
<title>Node15&#45;&gt;Node11</title>
<g id="a_edge15_Node000015_Node000011"><a xlink:title=" ">
<path fill="none" stroke="#63b8ff" d="M823.65,-432.09C839.16,-424.14 862.19,-412.84 883,-404.66 888.58,-402.46 894.52,-400.34 900.42,-398.36"/>
<polygon fill="#63b8ff" stroke="#63b8ff" points="901.8,-401.59 910.24,-395.18 899.64,-394.93 901.8,-401.59"/>
</a>
</g>
</g>
<!-- Node15&#45;&gt;Node12 -->
<g id="edge17_Node000015_Node000012" class="edge">
<title>Node15&#45;&gt;Node12</title>
<g id="a_edge17_Node000015_Node000012"><a xlink:title=" ">
<path fill="none" stroke="#63b8ff" d="M813.03,-432.03C825.79,-416.34 853.2,-385.25 883,-367.66 886.63,-365.51 890.52,-363.59 894.52,-361.86"/>
<polygon fill="#63b8ff" stroke="#63b8ff" points="895.92,-365.07 903.97,-358.19 893.38,-358.55 895.92,-365.07"/>
</a>
</g>
</g>
<!-- Node15&#45;&gt;Node13 -->
<g id="edge19_Node000015_Node000013" class="edge">
<title>Node15&#45;&gt;Node13</title>
<g id="a_edge19_Node000015_Node000013"><a xlink:title=" ">
<path fill="none" stroke="#63b8ff" d="M813,-451.33C825.72,-467.09 853.07,-498.29 883,-515.66 885.98,-517.39 889.14,-518.96 892.4,-520.4"/>
<polygon fill="#63b8ff" stroke="#63b8ff" points="891.15,-523.67 901.73,-524.07 893.71,-517.15 891.15,-523.67"/>
</a>
</g>
</g>
<!-- Node15&#45;&gt;Node14 -->
<g id="edge20_Node000015_Node000014" class="edge">
<title>Node15&#45;&gt;Node14</title>
<g id="a_edge20_Node000015_Node000014"><a xlink:title=" ">
<path fill="none" stroke="#63b8ff" d="M823.62,-451.3C839.11,-459.3 862.13,-470.62 883,-478.66 887.86,-480.53 893,-482.32 898.15,-484.01"/>
<polygon fill="#63b8ff" stroke="#63b8ff" points="897.41,-487.44 908,-487.1 899.51,-480.76 897.41,-487.44"/>
</a>
</g>
</g>
<!-- Node16 -->
<g id="Node000016" class="node">
<title>Node16</title>
<g id="a_Node000016"><a xlink:href="libultra__internal_8h.html#a650b788ebd5efde9c8cbccc1ee832445" target="_top" xlink:title=" ">
<polygon fill="white" stroke="#666666" points="1002,-432.16 887,-432.16 887,-413.16 1002,-413.16 1002,-432.16"/>
<text text-anchor="middle" x="944.5" y="-420.16" font-family="Helvetica,sans-Serif" font-size="10.00">__osDispatchThread</text>
</a>
</g>
</g>
<!-- Node15&#45;&gt;Node16 -->
<g id="edge16_Node000015_Node000016" class="edge">
<title>Node15&#45;&gt;Node16</title>
<g id="a_edge16_Node000015_Node000016"><a xlink:title=" ">
<path fill="none" stroke="#63b8ff" d="M847.28,-435.9C856.62,-434.62 866.75,-433.22 876.82,-431.84"/>
<polygon fill="#63b8ff" stroke="#63b8ff" points="877.41,-435.29 886.84,-430.46 876.45,-428.35 877.41,-435.29"/>
</a>
</g>
</g>
<!-- Node17 -->
<g id="Node000017" class="node">
<title>Node17</title>
<g id="a_Node000017"><a xlink:href="libultra__internal_8h.html#ac9d6cfd19de5565e74f1d74a14e9092d" target="_top" xlink:title=" ">
<polygon fill="white" stroke="#666666" points="1001.5,-469.16 887.5,-469.16 887.5,-450.16 1001.5,-450.16 1001.5,-469.16"/>
<text text-anchor="middle" x="944.5" y="-457.16" font-family="Helvetica,sans-Serif" font-size="10.00">__osEnqueueThread</text>
</a>
</g>
</g>
<!-- Node15&#45;&gt;Node17 -->
<g id="edge18_Node000015_Node000017" class="edge">
<title>Node15&#45;&gt;Node17</title>
<g id="a_edge18_Node000015_Node000017"><a xlink:title=" ">
<path fill="none" stroke="#63b8ff" d="M847.28,-447.1C856.74,-448.34 867.01,-449.68 877.21,-451.01"/>
<polygon fill="#63b8ff" stroke="#63b8ff" points="876.97,-454.51 887.34,-452.33 877.88,-447.57 876.97,-454.51"/>
</a>
</g>
</g>
<!-- Node18&#45;&gt;Node11 -->
<g id="edge22_Node000018_Node000011" class="edge">
<title>Node18&#45;&gt;Node11</title>
<g id="a_edge22_Node000018_Node000011"><a xlink:title=" ">
<path fill="none" stroke="#63b8ff" d="M706.02,-433.93C753.86,-424.2 836.3,-407.45 890.36,-396.46"/>
<polygon fill="#63b8ff" stroke="#63b8ff" points="891.34,-399.83 900.44,-394.41 889.94,-392.97 891.34,-399.83"/>
</a>
</g>
</g>
<!-- Node18&#45;&gt;Node12 -->
<g id="edge23_Node000018_Node000012" class="edge">
<title>Node18&#45;&gt;Node12</title>
<g id="a_edge23_Node000018_Node000012"><a xlink:title=" ">
<path fill="none" stroke="#63b8ff" d="M699.44,-432.07C708.18,-429.07 717.58,-425.52 726,-421.66 742.84,-413.93 744.96,-407.93 762,-400.66 803.19,-383.07 852.13,-369.44 888.8,-360.55"/>
<polygon fill="#63b8ff" stroke="#63b8ff" points="889.88,-363.89 898.8,-358.18 888.26,-357.08 889.88,-363.89"/>
</a>
</g>
</g>
<!-- Node18&#45;&gt;Node13 -->
<g id="edge24_Node000018_Node000013" class="edge">
<title>Node18&#45;&gt;Node13</title>
<g id="a_edge24_Node000018_Node000013"><a xlink:title=" ">
<path fill="none" stroke="#63b8ff" d="M677.07,-451.25C692.71,-467.1 726.5,-498.43 762,-512.66 802.64,-528.94 852.22,-533.77 889.28,-534.76"/>
<polygon fill="#63b8ff" stroke="#63b8ff" points="889.32,-538.26 899.39,-534.94 889.45,-531.26 889.32,-538.26"/>
</a>
</g>
</g>
<!-- Node18&#45;&gt;Node14 -->
<g id="edge25_Node000018_Node000014" class="edge">
<title>Node18&#45;&gt;Node14</title>
<g id="a_edge25_Node000018_Node000014"><a xlink:title=" ">
<path fill="none" stroke="#63b8ff" d="M680.51,-451.24C697.75,-463.79 730.29,-485.19 762,-493.66 803.89,-504.84 853.17,-504.87 889.8,-502.5"/>
<polygon fill="#63b8ff" stroke="#63b8ff" points="890.06,-505.99 899.78,-501.78 889.55,-499.01 890.06,-505.99"/>
</a>
</g>
</g>
<!-- Node18&#45;&gt;Node15 -->
<g id="edge26_Node000018_Node000015" class="edge">
<title>Node18&#45;&gt;Node15</title>
<g id="a_edge26_Node000018_Node000015"><a xlink:title=" ">
<path fill="none" stroke="#63b8ff" d="M706.1,-441.66C720.22,-441.66 736.48,-441.66 751.62,-441.66"/>
<polygon fill="#63b8ff" stroke="#63b8ff" points="751.88,-445.16 761.88,-441.66 751.88,-438.16 751.88,-445.16"/>
</a>
</g>
</g>
<!-- Node20 -->
<g id="Node000020" class="node">
<title>Node20</title>
<g id="a_Node000020"><a xlink:href="____osSiDeviceBusy_8c.html#ad812ec86e9d0b5929797407de1b3ecbc" target="_top" xlink:title=" ">
<polygon fill="white" stroke="#666666" points="552,-301.16 447,-301.16 447,-282.16 552,-282.16 552,-301.16"/>
<text text-anchor="middle" x="499.5" y="-289.16" font-family="Helvetica,sans-Serif" font-size="10.00">__osSiDeviceBusy</text>
</a>
</g>
</g>
<!-- Node19&#45;&gt;Node20 -->
<g id="edge28_Node000019_Node000020" class="edge">
<title>Node19&#45;&gt;Node20</title>
<g id="a_edge28_Node000019_Node000020"><a xlink:title=" ">
<path fill="none" stroke="#63b8ff" d="M370.79,-319.13C393.18,-314.31 420.53,-308.43 444.18,-303.34"/>
<polygon fill="#63b8ff" stroke="#63b8ff" points="445.02,-306.74 454.06,-301.22 443.54,-299.9 445.02,-306.74"/>
</a>
</g>
</g>
<!-- Node21 -->
<g id="Node000021" class="node">
<title>Node21</title>
<g id="a_Node000021"><a xlink:href="osVirtualToPhysical_8c.html#a87fb0b956b8effcecdf9585577895570" target="_top" xlink:title=" ">
<polygon fill="white" stroke="#666666" points="555,-338.16 444,-338.16 444,-319.16 555,-319.16 555,-338.16"/>
<text text-anchor="middle" x="499.5" y="-326.16" font-family="Helvetica,sans-Serif" font-size="10.00">osVirtualToPhysical</text>
</a>
</g>
</g>
<!-- Node19&#45;&gt;Node21 -->
<g id="edge29_Node000019_Node000021" class="edge">
<title>Node19&#45;&gt;Node21</title>
<g id="a_edge29_Node000019_Node000021"><a xlink:title=" ">
<path fill="none" stroke="#63b8ff" d="M383.3,-328.66C399.42,-328.66 417.1,-328.66 433.66,-328.66"/>
<polygon fill="#63b8ff" stroke="#63b8ff" points="433.81,-332.16 443.81,-328.66 433.81,-325.16 433.81,-332.16"/>
</a>
</g>
</g>
<!-- Node22 -->
<g id="Node000022" class="node">
<title>Node22</title>
<g id="a_Node000022"><a xlink:href="libultra__internal_8h.html#a4f7c83166c9481713d4b56defd0888c7" target="_top" xlink:title=" ">
<polygon fill="white" stroke="#666666" points="709,-338.16 625,-338.16 625,-319.16 709,-319.16 709,-338.16"/>
<text text-anchor="middle" x="667" y="-326.16" font-family="Helvetica,sans-Serif" font-size="10.00">__osProbeTLB</text>
</a>
</g>
</g>
<!-- Node21&#45;&gt;Node22 -->
<g id="edge30_Node000021_Node000022" class="edge">
<title>Node21&#45;&gt;Node22</title>
<g id="a_edge30_Node000021_Node000022"><a xlink:title=" ">
<path fill="none" stroke="#63b8ff" d="M555.15,-328.66C574.3,-328.66 595.72,-328.66 614.59,-328.66"/>
<polygon fill="#63b8ff" stroke="#63b8ff" points="614.78,-332.16 624.78,-328.66 614.78,-325.16 614.78,-332.16"/>
</a>
</g>
</g>
<!-- Node23&#45;&gt;Node10 -->
<g id="edge32_Node000023_Node000010" class="edge">
<title>Node23&#45;&gt;Node10</title>
<g id="a_edge32_Node000023_Node000010"><a xlink:title=" ">
<path fill="none" stroke="#63b8ff" d="M548.37,-365.66C570.21,-365.66 596.02,-365.66 617.89,-365.66"/>
<polygon fill="#63b8ff" stroke="#63b8ff" points="617.95,-369.16 627.95,-365.66 617.95,-362.16 617.95,-369.16"/>
</a>
</g>
</g>
<!-- Node25 -->
<g id="Node000025" class="node">
<title>Node25</title>
<g id="a_Node000025"><a xlink:href="__Printf_8c.html#a39bb05c90efce6c6790c5d58d271d72d" target="_top" xlink:title=" ">
<polygon fill="white" stroke="#666666" points="349.5,-205.16 301.5,-205.16 301.5,-186.16 349.5,-186.16 349.5,-205.16"/>
<text text-anchor="middle" x="325.5" y="-193.16" font-family="Helvetica,sans-Serif" font-size="10.00">_Printf</text>
</a>
</g>
</g>
<!-- Node24&#45;&gt;Node25 -->
<g id="edge35_Node000024_Node000025" class="edge">
<title>Node24&#45;&gt;Node25</title>
<g id="a_edge35_Node000024_Node000025"><a xlink:title=" ">
<path fill="none" stroke="#63b8ff" d="M194.31,-243.15C220.27,-233.68 262.42,-218.3 291.7,-207.62"/>
<polygon fill="#63b8ff" stroke="#63b8ff" points="293.28,-210.77 301.47,-204.06 290.88,-204.2 293.28,-210.77"/>
</a>
</g>
</g>
<!-- Node37 -->
<g id="Node000037" class="node">
<title>Node37</title>
<g id="a_Node000037"><a xlink:href="sprintf_8c.html#a6151eb738d6a0c5af66836e8a50fad9e" target="_top" xlink:title=" ">
<polygon fill="white" stroke="#666666" points="841.5,-261.16 767.5,-261.16 767.5,-242.16 841.5,-242.16 841.5,-261.16"/>
<text text-anchor="middle" x="804.5" y="-249.16" font-family="Helvetica,sans-Serif" font-size="10.00">proutSprintf</text>
</a>
</g>
</g>
<!-- Node24&#45;&gt;Node37 -->
<g id="edge49_Node000024_Node000037" class="edge">
<title>Node24&#45;&gt;Node37</title>
<g id="a_edge49_Node000024_Node000037"><a xlink:title=" ">
<path fill="none" stroke="#63b8ff" d="M194.26,-251.66C287.04,-251.66 631.71,-251.66 757.32,-251.66"/>
<polygon fill="#63b8ff" stroke="#63b8ff" points="757.39,-255.16 767.39,-251.66 757.39,-248.16 757.39,-255.16"/>
</a>
</g>
</g>
<!-- Node26 -->
<g id="Node000026" class="node">
<title>Node26</title>
<g id="a_Node000026"><a xlink:href="__Printf_8c.html#ad73a5847f2d7c9de14cc2723da86bf45" target="_top" xlink:title=" ">
<polygon fill="white" stroke="#666666" points="524.5,-159.16 474.5,-159.16 474.5,-140.16 524.5,-140.16 524.5,-159.16"/>
<text text-anchor="middle" x="499.5" y="-147.16" font-family="Helvetica,sans-Serif" font-size="10.00">_Putfld</text>
</a>
</g>
</g>
<!-- Node25&#45;&gt;Node26 -->
<g id="edge36_Node000025_Node000026" class="edge">
<title>Node25&#45;&gt;Node26</title>
<g id="a_edge36_Node000025_Node000026"><a xlink:title=" ">
<path fill="none" stroke="#63b8ff" d="M349.7,-189.45C379.2,-181.56 430.38,-167.87 464.34,-158.79"/>
<polygon fill="#63b8ff" stroke="#63b8ff" points="465.53,-162.1 474.29,-156.13 463.72,-155.33 465.53,-162.1"/>
</a>
</g>
</g>
<!-- Node36 -->
<g id="Node000036" class="node">
<title>Node36</title>
<g id="a_Node000036"><a xlink:href="string_8c.html#a988b4defe51a1815ef3b9ddab10e7a89" target="_top" xlink:title=" ">
<polygon fill="white" stroke="#666666" points="521.5,-205.16 477.5,-205.16 477.5,-186.16 521.5,-186.16 521.5,-205.16"/>
<text text-anchor="middle" x="499.5" y="-193.16" font-family="Helvetica,sans-Serif" font-size="10.00">strchr</text>
</a>
</g>
</g>
<!-- Node25&#45;&gt;Node36 -->
<g id="edge48_Node000025_Node000036" class="edge">
<title>Node25&#45;&gt;Node36</title>
<g id="a_edge48_Node000025_Node000036"><a xlink:title=" ">
<path fill="none" stroke="#63b8ff" d="M349.7,-195.66C379.98,-195.66 433.11,-195.66 467.01,-195.66"/>
<polygon fill="#63b8ff" stroke="#63b8ff" points="467.29,-199.16 477.29,-195.66 467.29,-192.16 467.29,-199.16"/>
</a>
</g>
</g>
<!-- Node27 -->
<g id="Node000027" class="node">
<title>Node27</title>
<g id="a_Node000027"><a xlink:href="__Ldtob_8c.html#a7cc858157b66e15c831ad085113729ae" target="_top" xlink:title=" ">
<polygon fill="white" stroke="#666666" points="691.5,-150.16 642.5,-150.16 642.5,-131.16 691.5,-131.16 691.5,-150.16"/>
<text text-anchor="middle" x="667" y="-138.16" font-family="Helvetica,sans-Serif" font-size="10.00">_Ldtob</text>
</a>
</g>
</g>
<!-- Node26&#45;&gt;Node27 -->
<g id="edge37_Node000026_Node000027" class="edge">
<title>Node26&#45;&gt;Node27</title>
<g id="a_edge37_Node000026_Node000027"><a xlink:title=" ">
<path fill="none" stroke="#63b8ff" d="M524.57,-148.35C552.92,-146.8 600.21,-144.23 632.22,-142.49"/>
<polygon fill="#63b8ff" stroke="#63b8ff" points="632.65,-145.97 642.44,-141.94 632.27,-138.98 632.65,-145.97"/>
</a>
</g>
</g>
<!-- Node33 -->
<g id="Node000033" class="node">
<title>Node33</title>
<g id="a_Node000033"><a xlink:href="__Litob_8c.html#aaaba3b0ab7920d422a61fe9e22600dd0" target="_top" xlink:title=" ">
<polygon fill="white" stroke="#666666" points="690,-37.16 644,-37.16 644,-18.16 690,-18.16 690,-37.16"/>
<text text-anchor="middle" x="667" y="-25.16" font-family="Helvetica,sans-Serif" font-size="10.00">_Litob</text>
</a>
</g>
</g>
<!-- Node26&#45;&gt;Node33 -->
<g id="edge44_Node000026_Node000033" class="edge">
<title>Node26&#45;&gt;Node33</title>
<g id="a_edge44_Node000026_Node000033"><a xlink:title=" ">
<path fill="none" stroke="#63b8ff" d="M513.49,-140.08C542.01,-119.06 610.33,-68.69 645.02,-43.12"/>
<polygon fill="#63b8ff" stroke="#63b8ff" points="647.1,-45.93 653.07,-37.18 642.95,-40.3 647.1,-45.93"/>
</a>
</g>
</g>
<!-- Node35 -->
<g id="Node000035" class="node">
<title>Node35</title>
<g id="a_Node000035"><a xlink:href="string_8c.html#a008e171a518fe0e0352f31b245e03875" target="_top" xlink:title=" ">
<polygon fill="white" stroke="#666666" points="689,-187.16 645,-187.16 645,-168.16 689,-168.16 689,-187.16"/>
<text text-anchor="middle" x="667" y="-175.16" font-family="Helvetica,sans-Serif" font-size="10.00">strlen</text>
</a>
</g>
</g>
<!-- Node26&#45;&gt;Node35 -->
<g id="edge47_Node000026_Node000035" class="edge">
<title>Node26&#45;&gt;Node35</title>
<g id="a_edge47_Node000026_Node000035"><a xlink:title=" ">
<path fill="none" stroke="#63b8ff" d="M524.57,-153.73C553.64,-158.65 602.64,-166.94 634.64,-172.35"/>
<polygon fill="#63b8ff" stroke="#63b8ff" points="634.35,-175.85 644.8,-174.07 635.52,-168.95 634.35,-175.85"/>
</a>
</g>
</g>
<!-- Node28 -->
<g id="Node000028" class="node">
<title>Node28</title>
<g id="a_Node000028"><a xlink:href="__Ldtob_8c.html#a2b6c5318b43bab1636bad9113ffb2761" target="_top" xlink:title=" ">
<polygon fill="white" stroke="#666666" points="829.5,-113.16 779.5,-113.16 779.5,-94.16 829.5,-94.16 829.5,-113.16"/>
<text text-anchor="middle" x="804.5" y="-101.16" font-family="Helvetica,sans-Serif" font-size="10.00">_Genld</text>
</a>
</g>
</g>
<!-- Node27&#45;&gt;Node28 -->
<g id="edge38_Node000027_Node000028" class="edge">
<title>Node27&#45;&gt;Node28</title>
<g id="a_edge38_Node000027_Node000028"><a xlink:title=" ">
<path fill="none" stroke="#63b8ff" d="M691.6,-134.21C713.1,-128.34 745.1,-119.6 769.38,-112.97"/>
<polygon fill="#63b8ff" stroke="#63b8ff" points="770.53,-116.29 779.26,-110.28 768.69,-109.53 770.53,-116.29"/>
</a>
</g>
</g>
<!-- Node29 -->
<g id="Node000029" class="node">
<title>Node29</title>
<g id="a_Node000029"><a xlink:href="string_8c.html#ad7f1ae1bbb49dece44bda378982a704d" target="_top" xlink:title=" ">
<polygon fill="white" stroke="#666666" points="974,-94.16 915,-94.16 915,-75.16 974,-75.16 974,-94.16"/>
<text text-anchor="middle" x="944.5" y="-82.16" font-family="Helvetica,sans-Serif" font-size="10.00">memcpy</text>
</a>
</g>
</g>
<!-- Node27&#45;&gt;Node29 -->
<g id="edge42_Node000027_Node000029" class="edge">
<title>Node27&#45;&gt;Node29</title>
<g id="a_edge42_Node000027_Node000029"><a xlink:title=" ">
<path fill="none" stroke="#63b8ff" d="M679.5,-130.95C696.32,-117.46 729.22,-93.68 762,-84.66 809.9,-71.47 867.65,-74.53 904.94,-78.82"/>
<polygon fill="#63b8ff" stroke="#63b8ff" points="904.54,-82.3 914.89,-80.05 905.4,-75.35 904.54,-82.3"/>
</a>
</g>
</g>
<!-- Node30 -->
<g id="Node000030" class="node">
<title>Node30</title>
<g id="a_Node000030"><a xlink:href="__Ldtob_8c.html#ab7ade9ce60aaa8baa0244b503351d742" target="_top" xlink:title=" ">
<polygon fill="white" stroke="#666666" points="840,-224.16 769,-224.16 769,-205.16 840,-205.16 840,-224.16"/>
<text text-anchor="middle" x="804.5" y="-212.16" font-family="Helvetica,sans-Serif" font-size="10.00">_Ldunscale</text>
</a>
</g>
</g>
<!-- Node27&#45;&gt;Node30 -->
<g id="edge40_Node000027_Node000030" class="edge">
<title>Node27&#45;&gt;Node30</title>
<g id="a_edge40_Node000027_Node000030"><a xlink:title=" ">
<path fill="none" stroke="#63b8ff" d="M691.71,-145.18C702.69,-147.97 715.57,-152.26 726,-158.66 745.56,-170.65 743.25,-182.43 762,-195.66 764.37,-197.33 766.91,-198.91 769.52,-200.39"/>
<polygon fill="#63b8ff" stroke="#63b8ff" points="768.04,-203.57 778.54,-205.04 771.25,-197.34 768.04,-203.57"/>
</a>
</g>
</g>
<!-- Node31 -->
<g id="Node000031" class="node">
<title>Node31</title>
<g id="a_Node000031"><a xlink:href="ldiv_8c.html#a0302920caf64a5fbe1ce0862799d7784" target="_top" xlink:title=" ">
<polygon fill="white" stroke="#666666" points="822,-187.16 787,-187.16 787,-168.16 822,-168.16 822,-187.16"/>
<text text-anchor="middle" x="804.5" y="-175.16" font-family="Helvetica,sans-Serif" font-size="10.00">ldiv</text>
</a>
</g>
</g>
<!-- Node27&#45;&gt;Node31 -->
<g id="edge41_Node000027_Node000031" class="edge">
<title>Node27&#45;&gt;Node31</title>
<g id="a_edge41_Node000027_Node000031"><a xlink:title=" ">
<path fill="none" stroke="#63b8ff" d="M691.6,-147.1C715.49,-153.62 752.34,-163.68 777.16,-170.46"/>
<polygon fill="#63b8ff" stroke="#63b8ff" points="776.42,-173.89 786.99,-173.15 778.26,-167.14 776.42,-173.89"/>
</a>
</g>
</g>
<!-- Node32 -->
<g id="Node000032" class="node">
<title>Node32</title>
<g id="a_Node000032"><a xlink:href="alBnkfNew_8c.html#a96a0200a6b40350e524f536d232ecb53" target="_top" xlink:title=" ">
<polygon fill="white" stroke="#666666" points="830.5,-150.16 778.5,-150.16 778.5,-131.16 830.5,-131.16 830.5,-150.16"/>
<text text-anchor="middle" x="804.5" y="-138.16" font-family="Helvetica,sans-Serif" font-size="10.00">unused</text>
</a>
</g>
</g>
<!-- Node27&#45;&gt;Node32 -->
<g id="edge43_Node000027_Node000032" class="edge">
<title>Node27&#45;&gt;Node32</title>
<g id="a_edge43_Node000027_Node000032"><a xlink:title=" ">
<path fill="none" stroke="#63b8ff" d="M691.6,-140.66C712.74,-140.66 744.03,-140.66 768.15,-140.66"/>
<polygon fill="#63b8ff" stroke="#63b8ff" points="768.33,-144.16 778.33,-140.66 768.33,-137.16 768.33,-144.16"/>
</a>
</g>
</g>
<!-- Node28&#45;&gt;Node29 -->
<g id="edge39_Node000028_Node000029" class="edge">
<title>Node28&#45;&gt;Node29</title>
<g id="a_edge39_Node000028_Node000029"><a xlink:title=" ">
<path fill="none" stroke="#63b8ff" d="M829.54,-100.35C850.35,-97.48 880.83,-93.28 905.03,-89.95"/>
<polygon fill="#63b8ff" stroke="#63b8ff" points="905.54,-93.41 914.97,-88.58 904.59,-86.48 905.54,-93.41"/>
</a>
</g>
</g>
<!-- Node33&#45;&gt;Node29 -->
<g id="edge46_Node000033_Node000029" class="edge">
<title>Node33&#45;&gt;Node29</title>
<g id="a_edge46_Node000033_Node000029"><a xlink:title=" ">
<path fill="none" stroke="#63b8ff" d="M690.18,-19.33C724.71,-7.69 792.96,10.07 847,-8.66 880.53,-20.27 911.23,-48.89 928.63,-67.5"/>
<polygon fill="#63b8ff" stroke="#63b8ff" points="926.13,-69.96 935.44,-75.02 931.32,-65.26 926.13,-69.96"/>
</a>
</g>
</g>
<!-- Node34 -->
<g id="Node000034" class="node">
<title>Node34</title>
<g id="a_Node000034"><a xlink:href="ldiv_8c.html#a5b23c3639f11980dca762c5f1d74f339" target="_top" xlink:title=" ">
<polygon fill="white" stroke="#666666" points="823.5,-37.16 785.5,-37.16 785.5,-18.16 823.5,-18.16 823.5,-37.16"/>
<text text-anchor="middle" x="804.5" y="-25.16" font-family="Helvetica,sans-Serif" font-size="10.00">lldiv</text>
</a>
</g>
</g>
<!-- Node33&#45;&gt;Node34 -->
<g id="edge45_Node000033_Node000034" class="edge">
<title>Node33&#45;&gt;Node34</title>
<g id="a_edge45_Node000033_Node000034"><a xlink:title=" ">
<path fill="none" stroke="#63b8ff" d="M690.07,-27.66C713.3,-27.66 749.94,-27.66 775.26,-27.66"/>
<polygon fill="#63b8ff" stroke="#63b8ff" points="775.35,-31.16 785.35,-27.66 775.35,-24.16 775.35,-31.16"/>
</a>
</g>
</g>
<!-- Node37&#45;&gt;Node29 -->
<g id="edge50_Node000037_Node000029" class="edge">
<title>Node37&#45;&gt;Node29</title>
<g id="a_edge50_Node000037_Node000029"><a xlink:title=" ">
<path fill="none" stroke="#63b8ff" d="M832.3,-242.09C837.5,-239.51 842.68,-236.38 847,-232.66 890.22,-195.42 921.57,-134.18 935.49,-103.46"/>
<polygon fill="#63b8ff" stroke="#63b8ff" points="938.7,-104.85 939.53,-94.29 932.3,-102.03 938.7,-104.85"/>
</a>
</g>
</g>
</g>
</svg>

<g id="navigator" transform="translate(0 0)" fill="#404254">
  <rect fill="#f2f5e9" fill-opacity="0.5" stroke="#606060" stroke-width=".5" x="0" y="0" width="60" height="60"/>
  <use id="zoomplus" xlink:href="#zoomPlus" x="17" y="9" onmousedown="handleZoom(evt,'in')"/>
  <use id="zoomminus" xlink:href="#zoomMin" x="42" y="9" onmousedown="handleZoom(evt,'out')"/>
  <use id="reset" xlink:href="#resetDef" x="30" y="36" onmousedown="handleReset()"/>
   <use id="arrowup" xlink:href="#arrowUp" x="0" y="0" onmousedown="handlePan(0,-1)"/>
  <use id="arrowright" xlink:href="#arrowRight" x="0" y="0" onmousedown="handlePan(1,0)"/>
  <use id="arrowdown" xlink:href="#arrowDown" x="0" y="0" onmousedown="handlePan(0,1)"/>
  <use id="arrowleft" xlink:href="#arrowLeft" x="0" y="0" onmousedown="handlePan(-1,0)"/>
</g>
<svg viewBox="0 0 15 15" width="100%" height="30px" preserveAspectRatio="xMaxYMin meet">
 <g id="arrow_out" transform="scale(0.3 0.3)">
  <a xlink:href="stubs_8h_ac2db0df25dbcd5c6bec9319681fdd138_cgraph_org.svg" target="_base">
   <rect id="button" ry="5" rx="5" y="6" x="6" height="38" width="38"
        fill="#f2f5e9" fill-opacity="0.5" stroke="#606060" stroke-width="1.0"/>
   <path id="arrow"
     d="M 11.500037,31.436501 C 11.940474,20.09759 22.043105,11.32322 32.158766,21.979434 L 37.068811,17.246167 C 37.068811,17.246167 37.088388,32 37.088388,32 L 22.160133,31.978069 C 22.160133,31.978069 26.997745,27.140456 26.997745,27.140456 C 18.528582,18.264221 13.291696,25.230495 11.500037,31.436501 z"
     style="fill:#404040;"/>
  </a>
 </g>
</svg>

<style type='text/css'>
<![CDATA[
[data-mouse-over-selected='false'] { opacity: 0.7; }
[data-mouse-over-selected='true']  { opacity: 1.0; }
]]>
</style>
<script type="application/ecmascript"><![CDATA[
document.addEventListener('DOMContentLoaded', (event) => {
  highlightEdges();
  highlightAdjacentNodes();
});
]]></script>
</svg>
