<?xml version="1.0" encoding="UTF-8" standalone="no"?>
<!DOCTYPE svg PUBLIC "-//W3C//DTD SVG 1.1//EN"
 "http://www.w3.org/Graphics/SVG/1.1/DTD/svg11.dtd">
<!-- Generated by graphviz version 2.43.0 (0)
 -->
<!-- Title: courses/toads_turnpike/course_offsets.c Pages: 1 -->
<svg width="707pt" height="269pt"
 viewBox="0.00 0.00 706.50 269.00" xmlns="http://www.w3.org/2000/svg" xmlns:xlink="http://www.w3.org/1999/xlink">
<g id="graph0" class="graph" transform="scale(1 1) rotate(0) translate(4 265)">
<title>courses/toads_turnpike/course_offsets.c</title>
<!-- Node1 -->
<g id="Node000001" class="node">
<title>Node1</title>
<g id="a_Node000001"><a xlink:title=" ">
<polygon fill="#999999" stroke="#666666" points="355.5,-261 226.5,-261 226.5,-231 355.5,-231 355.5,-261"/>
<text text-anchor="start" x="234.5" y="-249" font-family="Helvetica,sans-Serif" font-size="10.00">courses/toads_turnpike</text>
<text text-anchor="middle" x="291" y="-238" font-family="Helvetica,sans-Serif" font-size="10.00">/course_offsets.c</text>
</a>
</g>
</g>
<!-- Node2 -->
<g id="Node000002" class="node">
<title>Node2</title>
<g id="a_Node000002"><a xlink:title=" ">
<polygon fill="#e0e0e0" stroke="#999999" points="90,-134.5 0,-134.5 0,-115.5 90,-115.5 90,-134.5"/>
<text text-anchor="middle" x="45" y="-122.5" font-family="Helvetica,sans-Serif" font-size="10.00">libultra/types.h</text>
</a>
</g>
</g>
<!-- Node1&#45;&gt;Node2 -->
<g id="edge1_Node000001_Node000002" class="edge">
<title>Node1&#45;&gt;Node2</title>
<g id="a_edge1_Node000001_Node000002"><a xlink:title=" ">
<path fill="none" stroke="#63b8ff" d="M261.81,-230.88C213.69,-207.6 118.4,-161.51 71.85,-138.99"/>
<polygon fill="#63b8ff" stroke="#63b8ff" points="73.22,-135.76 62.7,-134.56 70.17,-142.07 73.22,-135.76"/>
</a>
</g>
</g>
<!-- Node3 -->
<g id="Node000003" class="node">
<title>Node3</title>
<g id="a_Node000003"><a xlink:href="common__data_8h.html" target="_top" xlink:title=" ">
<polygon fill="white" stroke="#666666" points="519,-134.5 389,-134.5 389,-115.5 519,-115.5 519,-134.5"/>
<text text-anchor="middle" x="454" y="-122.5" font-family="Helvetica,sans-Serif" font-size="10.00">assets/common_data.h</text>
</a>
</g>
</g>
<!-- Node1&#45;&gt;Node3 -->
<g id="edge2_Node000001_Node000003" class="edge">
<title>Node1&#45;&gt;Node3</title>
<g id="a_edge2_Node000001_Node000003"><a xlink:title=" ">
<path fill="none" stroke="#63b8ff" d="M310.34,-230.88C341.35,-208.24 401.91,-164.03 433.59,-140.9"/>
<polygon fill="#63b8ff" stroke="#63b8ff" points="436.06,-143.43 442.07,-134.71 431.93,-137.78 436.06,-143.43"/>
</a>
</g>
</g>
<!-- Node8 -->
<g id="Node000008" class="node">
<title>Node8</title>
<g id="a_Node000008"><a xlink:href="course__offsets_8h.html" target="_top" xlink:title=" ">
<polygon fill="white" stroke="#666666" points="301,-195 205,-195 205,-176 301,-176 301,-195"/>
<text text-anchor="middle" x="253" y="-183" font-family="Helvetica,sans-Serif" font-size="10.00">course_offsets.h</text>
</a>
</g>
</g>
<!-- Node1&#45;&gt;Node8 -->
<g id="edge8_Node000001_Node000008" class="edge">
<title>Node1&#45;&gt;Node8</title>
<g id="a_edge8_Node000001_Node000008"><a xlink:title=" ">
<path fill="none" stroke="#63b8ff" d="M281.8,-230.84C276.51,-222.69 269.82,-212.4 264.22,-203.78"/>
<polygon fill="#63b8ff" stroke="#63b8ff" points="267.08,-201.75 258.69,-195.27 261.21,-205.56 267.08,-201.75"/>
</a>
</g>
</g>
<!-- Node11 -->
<g id="Node000011" class="node">
<title>Node11</title>
<g id="a_Node000011"><a xlink:href="toads__turnpike__data_8h.html" target="_top" xlink:title=" ">
<polygon fill="white" stroke="#666666" points="698.5,-140 575.5,-140 575.5,-110 698.5,-110 698.5,-140"/>
<text text-anchor="start" x="583.5" y="-128" font-family="Helvetica,sans-Serif" font-size="10.00">assets/toads_turnpike</text>
<text text-anchor="middle" x="637" y="-117" font-family="Helvetica,sans-Serif" font-size="10.00">_data.h</text>
</a>
</g>
</g>
<!-- Node1&#45;&gt;Node11 -->
<g id="edge17_Node000001_Node000011" class="edge">
<title>Node1&#45;&gt;Node11</title>
<g id="a_edge17_Node000001_Node000011"><a xlink:title=" ">
<path fill="none" stroke="#63b8ff" d="M331.71,-231C395.13,-209.19 517.4,-167.14 586.4,-143.4"/>
<polygon fill="#63b8ff" stroke="#63b8ff" points="587.86,-146.6 596.18,-140.04 585.58,-139.98 587.86,-146.6"/>
</a>
</g>
</g>
<!-- Node4 -->
<g id="Node000004" class="node">
<title>Node4</title>
<g id="a_Node000004"><a xlink:title=" ">
<polygon fill="#e0e0e0" stroke="#999999" points="613,-74 535,-74 535,-55 613,-55 613,-74"/>
<text text-anchor="middle" x="574" y="-62" font-family="Helvetica,sans-Serif" font-size="10.00">libultra/gbi.h</text>
</a>
</g>
</g>
<!-- Node3&#45;&gt;Node4 -->
<g id="edge3_Node000003_Node000004" class="edge">
<title>Node3&#45;&gt;Node4</title>
<g id="a_edge3_Node000003_Node000004"><a xlink:title=" ">
<path fill="none" stroke="#63b8ff" d="M471.45,-115.49C491.36,-105.79 524.14,-89.81 547.27,-78.53"/>
<polygon fill="#63b8ff" stroke="#63b8ff" points="549.07,-81.54 556.53,-74.02 546.01,-75.25 549.07,-81.54"/>
</a>
</g>
</g>
<!-- Node5 -->
<g id="Node000005" class="node">
<title>Node5</title>
<g id="a_Node000005"><a xlink:title=" ">
<polygon fill="#e0e0e0" stroke="#999999" points="330,-19 250,-19 250,0 330,0 330,-19"/>
<text text-anchor="middle" x="290" y="-7" font-family="Helvetica,sans-Serif" font-size="10.00">libultraship.h</text>
</a>
</g>
</g>
<!-- Node3&#45;&gt;Node5 -->
<g id="edge4_Node000003_Node000005" class="edge">
<title>Node3&#45;&gt;Node5</title>
<g id="a_edge4_Node000003_Node000005"><a xlink:title=" ">
<path fill="none" stroke="#63b8ff" d="M464.2,-115.25C479.07,-101.44 503.35,-74.19 488,-55 469.84,-32.3 392.84,-20.38 340.39,-14.77"/>
<polygon fill="#63b8ff" stroke="#63b8ff" points="340.55,-11.27 330.25,-13.73 339.84,-18.23 340.55,-11.27"/>
</a>
</g>
</g>
<!-- Node6 -->
<g id="Node000006" class="node">
<title>Node6</title>
<g id="a_Node000006"><a xlink:href="common__structs_8h.html" target="_top" xlink:title=" ">
<polygon fill="white" stroke="#666666" points="343.5,-74 236.5,-74 236.5,-55 343.5,-55 343.5,-74"/>
<text text-anchor="middle" x="290" y="-62" font-family="Helvetica,sans-Serif" font-size="10.00">common_structs.h</text>
</a>
</g>
</g>
<!-- Node3&#45;&gt;Node6 -->
<g id="edge5_Node000003_Node000006" class="edge">
<title>Node3&#45;&gt;Node6</title>
<g id="a_edge5_Node000003_Node000006"><a xlink:title=" ">
<path fill="none" stroke="#63b8ff" d="M430.15,-115.49C402.1,-105.49 355.33,-88.8 323.6,-77.49"/>
<polygon fill="#63b8ff" stroke="#63b8ff" points="324.47,-74.08 313.88,-74.02 322.12,-80.67 324.47,-74.08"/>
</a>
</g>
</g>
<!-- Node7 -->
<g id="Node000007" class="node">
<title>Node7</title>
<g id="a_Node000007"><a xlink:href="align__asset__macro_8h.html" target="_top" xlink:title=" ">
<polygon fill="white" stroke="#666666" points="478.5,-74 361.5,-74 361.5,-55 478.5,-55 478.5,-74"/>
<text text-anchor="middle" x="420" y="-62" font-family="Helvetica,sans-Serif" font-size="10.00">align_asset_macro.h</text>
</a>
</g>
</g>
<!-- Node3&#45;&gt;Node7 -->
<g id="edge7_Node000003_Node000007" class="edge">
<title>Node3&#45;&gt;Node7</title>
<g id="a_edge7_Node000003_Node000007"><a xlink:title=" ">
<path fill="none" stroke="#63b8ff" d="M448.98,-115.37C444.06,-106.9 436.41,-93.74 430.21,-83.07"/>
<polygon fill="#63b8ff" stroke="#63b8ff" points="433.09,-81.05 425.04,-74.17 427.04,-84.57 433.09,-81.05"/>
</a>
</g>
</g>
<!-- Node6&#45;&gt;Node5 -->
<g id="edge6_Node000006_Node000005" class="edge">
<title>Node6&#45;&gt;Node5</title>
<g id="a_edge6_Node000006_Node000005"><a xlink:title=" ">
<path fill="none" stroke="#63b8ff" d="M290,-54.75C290,-47.8 290,-37.85 290,-29.13"/>
<polygon fill="#63b8ff" stroke="#63b8ff" points="293.5,-29.09 290,-19.09 286.5,-29.09 293.5,-29.09"/>
</a>
</g>
</g>
<!-- Node8&#45;&gt;Node2 -->
<g id="edge10_Node000008_Node000002" class="edge">
<title>Node8&#45;&gt;Node2</title>
<g id="a_edge10_Node000008_Node000002"><a xlink:title=" ">
<path fill="none" stroke="#63b8ff" d="M222.76,-175.99C186.4,-165.77 125.27,-148.58 85.03,-137.26"/>
<polygon fill="#63b8ff" stroke="#63b8ff" points="85.86,-133.85 75.28,-134.52 83.96,-140.59 85.86,-133.85"/>
</a>
</g>
</g>
<!-- Node8&#45;&gt;Node4 -->
<g id="edge11_Node000008_Node000004" class="edge">
<title>Node8&#45;&gt;Node4</title>
<g id="a_edge11_Node000008_Node000004"><a xlink:title=" ">
<path fill="none" stroke="#63b8ff" d="M301.18,-181.5C369.88,-176.43 491.71,-164.25 528,-140 548.1,-126.57 560.97,-101.09 567.85,-83.7"/>
<polygon fill="#63b8ff" stroke="#63b8ff" points="571.21,-84.69 571.36,-74.1 564.64,-82.29 571.21,-84.69"/>
</a>
</g>
</g>
<!-- Node8&#45;&gt;Node5 -->
<g id="edge9_Node000008_Node000005" class="edge">
<title>Node8&#45;&gt;Node5</title>
<g id="a_edge9_Node000008_Node000005"><a xlink:title=" ">
<path fill="none" stroke="#63b8ff" d="M204.96,-178.92C180.29,-173.35 152.27,-162.22 137,-140 129.45,-129.01 130.86,-121.84 137,-110 160.56,-64.55 215.32,-36.84 252.52,-22.58"/>
<polygon fill="#63b8ff" stroke="#63b8ff" points="253.86,-25.81 262.03,-19.07 251.44,-19.24 253.86,-25.81"/>
</a>
</g>
</g>
<!-- Node9 -->
<g id="Node000009" class="node">
<title>Node9</title>
<g id="a_Node000009"><a xlink:href="other__textures_8h.html" target="_top" xlink:title=" ">
<polygon fill="white" stroke="#666666" points="277.5,-134.5 146.5,-134.5 146.5,-115.5 277.5,-115.5 277.5,-134.5"/>
<text text-anchor="middle" x="212" y="-122.5" font-family="Helvetica,sans-Serif" font-size="10.00">assets/other_textures.h</text>
</a>
</g>
</g>
<!-- Node8&#45;&gt;Node9 -->
<g id="edge12_Node000008_Node000009" class="edge">
<title>Node8&#45;&gt;Node9</title>
<g id="a_edge12_Node000008_Node000009"><a xlink:title=" ">
<path fill="none" stroke="#63b8ff" d="M246.95,-175.87C240.89,-167.23 231.41,-153.7 223.86,-142.92"/>
<polygon fill="#63b8ff" stroke="#63b8ff" points="226.68,-140.85 218.07,-134.67 220.95,-144.87 226.68,-140.85"/>
</a>
</g>
</g>
<!-- Node10 -->
<g id="Node000010" class="node">
<title>Node10</title>
<g id="a_Node000010"><a xlink:href="animation_8h.html" target="_top" xlink:title=" ">
<polygon fill="white" stroke="#666666" points="370.5,-134.5 295.5,-134.5 295.5,-115.5 370.5,-115.5 370.5,-134.5"/>
<text text-anchor="middle" x="333" y="-122.5" font-family="Helvetica,sans-Serif" font-size="10.00">animation.h</text>
</a>
</g>
</g>
<!-- Node8&#45;&gt;Node10 -->
<g id="edge15_Node000008_Node000010" class="edge">
<title>Node8&#45;&gt;Node10</title>
<g id="a_edge15_Node000008_Node000010"><a xlink:title=" ">
<path fill="none" stroke="#63b8ff" d="M264.8,-175.87C277.45,-166.62 297.74,-151.78 312.91,-140.69"/>
<polygon fill="#63b8ff" stroke="#63b8ff" points="315.14,-143.4 321.15,-134.67 311.01,-137.74 315.14,-143.4"/>
</a>
</g>
</g>
<!-- Node9&#45;&gt;Node5 -->
<g id="edge13_Node000009_Node000005" class="edge">
<title>Node9&#45;&gt;Node5</title>
<g id="a_edge13_Node000009_Node000005"><a xlink:title=" ">
<path fill="none" stroke="#63b8ff" d="M211.94,-115.16C212.25,-101.22 214.55,-73.81 227,-55 235.69,-41.88 249.67,-31.43 262.26,-23.97"/>
<polygon fill="#63b8ff" stroke="#63b8ff" points="264.04,-26.98 271.08,-19.06 260.64,-20.86 264.04,-26.98"/>
</a>
</g>
</g>
<!-- Node9&#45;&gt;Node7 -->
<g id="edge14_Node000009_Node000007" class="edge">
<title>Node9&#45;&gt;Node7</title>
<g id="a_edge14_Node000009_Node000007"><a xlink:title=" ">
<path fill="none" stroke="#63b8ff" d="M242.24,-115.49C278.6,-105.27 339.73,-88.08 379.97,-76.76"/>
<polygon fill="#63b8ff" stroke="#63b8ff" points="381.04,-80.09 389.72,-74.02 379.14,-73.35 381.04,-80.09"/>
</a>
</g>
</g>
<!-- Node10&#45;&gt;Node6 -->
<g id="edge16_Node000010_Node000006" class="edge">
<title>Node10&#45;&gt;Node6</title>
<g id="a_edge16_Node000010_Node000006"><a xlink:title=" ">
<path fill="none" stroke="#63b8ff" d="M326.66,-115.37C320.3,-106.73 310.36,-93.2 302.43,-82.42"/>
<polygon fill="#63b8ff" stroke="#63b8ff" points="305.11,-80.15 296.37,-74.17 299.47,-84.3 305.11,-80.15"/>
</a>
</g>
</g>
<!-- Node11&#45;&gt;Node4 -->
<g id="edge19_Node000011_Node000004" class="edge">
<title>Node11&#45;&gt;Node4</title>
<g id="a_edge19_Node000011_Node000004"><a xlink:title=" ">
<path fill="none" stroke="#63b8ff" d="M621.75,-109.84C612.42,-101.17 600.47,-90.08 590.85,-81.15"/>
<polygon fill="#63b8ff" stroke="#63b8ff" points="593.15,-78.51 583.44,-74.27 588.39,-83.64 593.15,-78.51"/>
</a>
</g>
</g>
<!-- Node11&#45;&gt;Node5 -->
<g id="edge18_Node000011_Node000005" class="edge">
<title>Node11&#45;&gt;Node5</title>
<g id="a_edge18_Node000011_Node000005"><a xlink:title=" ">
<path fill="none" stroke="#63b8ff" d="M638.28,-109.81C638.85,-94.01 637.05,-68.88 622,-55 581.98,-18.09 422.89,-11.37 340.32,-10.42"/>
<polygon fill="#63b8ff" stroke="#63b8ff" points="340.2,-6.92 330.16,-10.33 340.13,-13.92 340.2,-6.92"/>
</a>
</g>
</g>
<!-- Node11&#45;&gt;Node7 -->
<g id="edge20_Node000011_Node000007" class="edge">
<title>Node11&#45;&gt;Node7</title>
<g id="a_edge20_Node000011_Node000007"><a xlink:title=" ">
<path fill="none" stroke="#63b8ff" d="M585.02,-109.99C547.25,-99.8 496.79,-86.2 461.66,-76.73"/>
<polygon fill="#63b8ff" stroke="#63b8ff" points="462.3,-73.28 451.73,-74.05 460.47,-80.04 462.3,-73.28"/>
</a>
</g>
</g>
</g>
</svg>
