<?xml version="1.0" encoding="UTF-8" standalone="no"?>
<!DOCTYPE svg PUBLIC "-//W3C//DTD SVG 1.1//EN"
 "http://www.w3.org/Graphics/SVG/1.1/DTD/svg11.dtd">
<!-- Generated by graphviz version 2.43.0 (0)
 -->
<!-- Title: src/port/resource/importers/TrackSectionsFactory.cpp Pages: 1 -->
<!--zoomable 170 -->

<svg id="main" version="1.1" xmlns="http://www.w3.org/2000/svg" xmlns:xlink="http://www.w3.org/1999/xlink" xml:space="preserve" onload="init(evt)">

<style type="text/css"><![CDATA[
.node, .edge {opacity: 0.7;}
.node.selected, .edge.selected {opacity: 1;}
.edge:hover path { stroke: red; }
.edge:hover polygon { stroke: red; fill: red; }
]]></style>

<defs>
  <circle id="rim" cx="0" cy="0" r="7"/>
  <circle id="rim2" cx="0" cy="0" r="3.5"/>
  <g id="zoomPlus">
    <use xlink:href="#rim" fill="#404040"><set attributeName="fill" to="#808080" begin="zoomplus.mouseover" end="zoomplus.mouseout"/></use>
    <path d="M-4,0h8M0,-4v8" fill="none" stroke="white" stroke-width="1.5" pointer-events="none"/>
  </g>
  <g id="zoomMin">
    <use xlink:href="#rim" fill="#404040"><set attributeName="fill" to="#808080" begin="zoomminus.mouseover" end="zoomminus.mouseout"/></use>
    <path d="M-4,0h8" fill="none" stroke="white" stroke-width="1.5" pointer-events="none"/>
  </g>
  <g id="arrowUp" transform="translate(30 24)">
    <use xlink:href="#rim"/>
    <path pointer-events="none" fill="none" stroke="white" stroke-width="1.5" d="M0,-3.0v7 M-2.5,-0.5L0,-3.0L2.5,-0.5"/>
  </g>
  <g id="arrowRight" transform="rotate(90) translate(36 -43)">
    <use xlink:href="#rim"/>
    <path pointer-events="none" fill="none" stroke="white" stroke-width="1.5" d="M0,-3.0v7 M-2.5,-0.5L0,-3.0L2.5,-0.5"/>
  </g>
  <g id="arrowDown" transform="rotate(180) translate(-30 -48)">
    <use xlink:href="#rim"/>
    <path pointer-events="none" fill="none" stroke="white" stroke-width="1.5" d="M0,-3.0v7 M-2.5,-0.5L0,-3.0L2.5,-0.5"/>
  </g>
  <g id="arrowLeft" transform="rotate(270) translate(-36 17)">
    <use xlink:href="#rim"/>
    <path pointer-events="none" fill="none" stroke="white" stroke-width="1.5" d="M0,-3.0v7 M-2.5,-0.5L0,-3.0L2.5,-0.5"/>
  </g>
  <g id="resetDef">
    <use xlink:href="#rim2" fill="#404040"><set attributeName="fill" to="#808080" begin="reset.mouseover" end="reset.mouseout"/></use>
  </g>
</defs>
<script type="application/ecmascript">
var viewWidth = 908;
var viewHeight = 170;
var sectionId = 'dynsection-0';
</script>
<script type="application/ecmascript" xlink:href="svg.min.js"/>
<svg id="graph" class="graph">
<g id="viewport">
<title>src/port/resource/importers/TrackSectionsFactory.cpp</title>
<!-- Node1 -->
<g id="Node000001" class="node">
<title>Node1</title>
<g id="a_Node000001"><a xlink:title=" ">
<polygon fill="#999999" stroke="#666666" points="714,-162 565,-162 565,-132 714,-132 714,-162"/>
<text text-anchor="start" x="573" y="-150" font-family="Helvetica,sans-Serif" font-size="10.00">src/port/resource/importers</text>
<text text-anchor="middle" x="639.5" y="-139" font-family="Helvetica,sans-Serif" font-size="10.00">/TrackSectionsFactory.cpp</text>
</a>
</g>
</g>
<!-- Node2 -->
<g id="Node000002" class="node">
<title>Node2</title>
<g id="a_Node000002"><a xlink:href="TrackSectionsFactory_8h.html" target="_top" xlink:title=" ">
<polygon fill="white" stroke="#666666" points="299.5,-90.5 173.5,-90.5 173.5,-71.5 299.5,-71.5 299.5,-90.5"/>
<text text-anchor="middle" x="236.5" y="-78.5" font-family="Helvetica,sans-Serif" font-size="10.00">TrackSectionsFactory.h</text>
</a>
</g>
</g>
<!-- Node1&#45;&gt;Node2 -->
<g id="edge1_Node000001_Node000002" class="edge">
<title>Node1&#45;&gt;Node2</title>
<g id="a_edge1_Node000001_Node000002"><a xlink:title=" ">
<path fill="none" stroke="#63b8ff" d="M564.64,-134.11C488.6,-122.04 372.09,-103.53 300.29,-92.13"/>
<polygon fill="#63b8ff" stroke="#63b8ff" points="300.46,-88.61 290.04,-90.5 299.36,-95.53 300.46,-88.61"/>
</a>
</g>
</g>
<!-- Node6 -->
<g id="Node000006" class="node">
<title>Node6</title>
<g id="a_Node000006"><a xlink:href="TrackSections_8h.html" target="_top" xlink:title=" ">
<polygon fill="white" stroke="#666666" points="574.5,-90.5 448.5,-90.5 448.5,-71.5 574.5,-71.5 574.5,-90.5"/>
<text text-anchor="middle" x="511.5" y="-78.5" font-family="Helvetica,sans-Serif" font-size="10.00">../type/TrackSections.h</text>
</a>
</g>
</g>
<!-- Node1&#45;&gt;Node6 -->
<g id="edge5_Node000001_Node000006" class="edge">
<title>Node1&#45;&gt;Node6</title>
<g id="a_edge5_Node000001_Node000006"><a xlink:title=" ">
<path fill="none" stroke="#63b8ff" d="M611.41,-131.95C589.46,-120.98 559.17,-105.83 537.71,-95.11"/>
<polygon fill="#63b8ff" stroke="#63b8ff" points="539.04,-91.86 528.53,-90.52 535.91,-98.12 539.04,-91.86"/>
</a>
</g>
</g>
<!-- Node10 -->
<g id="Node000010" class="node">
<title>Node10</title>
<g id="a_Node000010"><a xlink:title=" ">
<polygon fill="#e0e0e0" stroke="#999999" points="686,-90.5 593,-90.5 593,-71.5 686,-71.5 686,-90.5"/>
<text text-anchor="middle" x="639.5" y="-78.5" font-family="Helvetica,sans-Serif" font-size="10.00">spdlog/spdlog.h</text>
</a>
</g>
</g>
<!-- Node1&#45;&gt;Node10 -->
<g id="edge9_Node000001_Node000010" class="edge">
<title>Node1&#45;&gt;Node10</title>
<g id="a_edge9_Node000001_Node000010"><a xlink:title=" ">
<path fill="none" stroke="#63b8ff" d="M639.5,-131.8C639.5,-122.7 639.5,-110.79 639.5,-100.9"/>
<polygon fill="#63b8ff" stroke="#63b8ff" points="643,-100.84 639.5,-90.84 636,-100.84 643,-100.84"/>
</a>
</g>
</g>
<!-- Node11 -->
<g id="Node000011" class="node">
<title>Node11</title>
<g id="a_Node000011"><a xlink:title=" ">
<polygon fill="#e0e0e0" stroke="#999999" points="813,-96 704,-96 704,-66 813,-66 813,-96"/>
<text text-anchor="start" x="712" y="-84" font-family="Helvetica,sans-Serif" font-size="10.00">libultraship/libultra</text>
<text text-anchor="middle" x="758.5" y="-73" font-family="Helvetica,sans-Serif" font-size="10.00">/gbi.h</text>
</a>
</g>
</g>
<!-- Node1&#45;&gt;Node11 -->
<g id="edge10_Node000001_Node000011" class="edge">
<title>Node1&#45;&gt;Node11</title>
<g id="a_edge10_Node000001_Node000011"><a xlink:title=" ">
<path fill="none" stroke="#63b8ff" d="M665.62,-131.95C682.59,-122.83 704.92,-110.82 723.43,-100.86"/>
<polygon fill="#63b8ff" stroke="#63b8ff" points="725.3,-103.83 732.45,-96.01 721.98,-97.67 725.3,-103.83"/>
</a>
</g>
</g>
<!-- Node12 -->
<g id="Node000012" class="node">
<title>Node12</title>
<g id="a_Node000012"><a xlink:title=" ">
<polygon fill="#e0e0e0" stroke="#999999" points="900,-90.5 831,-90.5 831,-71.5 900,-71.5 900,-90.5"/>
<text text-anchor="middle" x="865.5" y="-78.5" font-family="Helvetica,sans-Serif" font-size="10.00">tinyxml2.h</text>
</a>
</g>
</g>
<!-- Node1&#45;&gt;Node12 -->
<g id="edge11_Node000001_Node000012" class="edge">
<title>Node1&#45;&gt;Node12</title>
<g id="a_edge11_Node000001_Node000012"><a xlink:title=" ">
<path fill="none" stroke="#63b8ff" d="M693.74,-131.91C730.26,-122.25 779.43,-108.89 822.5,-96 824.94,-95.27 827.44,-94.5 829.96,-93.72"/>
<polygon fill="#63b8ff" stroke="#63b8ff" points="831.17,-97.01 839.64,-90.64 829.05,-90.33 831.17,-97.01"/>
</a>
</g>
</g>
<!-- Node3 -->
<g id="Node000003" class="node">
<title>Node3</title>
<g id="a_Node000003"><a xlink:title=" ">
<polygon fill="#e0e0e0" stroke="#999999" points="71,-24.5 0,-24.5 0,-5.5 71,-5.5 71,-24.5"/>
<text text-anchor="middle" x="35.5" y="-12.5" font-family="Helvetica,sans-Serif" font-size="10.00">Resource.h</text>
</a>
</g>
</g>
<!-- Node2&#45;&gt;Node3 -->
<g id="edge2_Node000002_Node000003" class="edge">
<title>Node2&#45;&gt;Node3</title>
<g id="a_edge2_Node000002_Node000003"><a xlink:title=" ">
<path fill="none" stroke="#63b8ff" d="M209.39,-71.37C173.93,-60.08 111.66,-40.25 72.05,-27.64"/>
<polygon fill="#63b8ff" stroke="#63b8ff" points="73.09,-24.3 62.5,-24.6 70.97,-30.97 73.09,-24.3"/>
</a>
</g>
</g>
<!-- Node4 -->
<g id="Node000004" class="node">
<title>Node4</title>
<g id="a_Node000004"><a xlink:title=" ">
<polygon fill="#e0e0e0" stroke="#999999" points="225.5,-24.5 89.5,-24.5 89.5,-5.5 225.5,-5.5 225.5,-24.5"/>
<text text-anchor="middle" x="157.5" y="-12.5" font-family="Helvetica,sans-Serif" font-size="10.00">ResourceFactoryBinary.h</text>
</a>
</g>
</g>
<!-- Node2&#45;&gt;Node4 -->
<g id="edge3_Node000002_Node000004" class="edge">
<title>Node2&#45;&gt;Node4</title>
<g id="a_edge3_Node000002_Node000004"><a xlink:title=" ">
<path fill="none" stroke="#63b8ff" d="M225.85,-71.37C213.12,-61.06 191.62,-43.65 176.13,-31.09"/>
<polygon fill="#63b8ff" stroke="#63b8ff" points="178.21,-28.27 168.24,-24.7 173.8,-33.71 178.21,-28.27"/>
</a>
</g>
</g>
<!-- Node5 -->
<g id="Node000005" class="node">
<title>Node5</title>
<g id="a_Node000005"><a xlink:title=" ">
<polygon fill="#e0e0e0" stroke="#999999" points="385.5,-30 243.5,-30 243.5,0 385.5,0 385.5,-30"/>
<text text-anchor="start" x="251.5" y="-18" font-family="Helvetica,sans-Serif" font-size="10.00">resource/ResourceFactory</text>
<text text-anchor="middle" x="314.5" y="-7" font-family="Helvetica,sans-Serif" font-size="10.00">XML.h</text>
</a>
</g>
</g>
<!-- Node2&#45;&gt;Node5 -->
<g id="edge4_Node000002_Node000005" class="edge">
<title>Node2&#45;&gt;Node5</title>
<g id="a_edge4_Node000002_Node000005"><a xlink:title=" ">
<path fill="none" stroke="#63b8ff" d="M247.02,-71.37C257.8,-62.53 274.95,-48.45 289.27,-36.71"/>
<polygon fill="#63b8ff" stroke="#63b8ff" points="291.79,-39.16 297.3,-30.12 287.35,-33.75 291.79,-39.16"/>
</a>
</g>
</g>
<!-- Node7 -->
<g id="Node000007" class="node">
<title>Node7</title>
<g id="a_Node000007"><a xlink:title=" ">
<polygon fill="#e0e0e0" stroke="#999999" points="519.5,-24.5 403.5,-24.5 403.5,-5.5 519.5,-5.5 519.5,-24.5"/>
<text text-anchor="middle" x="461.5" y="-12.5" font-family="Helvetica,sans-Serif" font-size="10.00">resource/Resource.h</text>
</a>
</g>
</g>
<!-- Node6&#45;&gt;Node7 -->
<g id="edge6_Node000006_Node000007" class="edge">
<title>Node6&#45;&gt;Node7</title>
<g id="a_edge6_Node000006_Node000007"><a xlink:title=" ">
<path fill="none" stroke="#63b8ff" d="M504.76,-71.37C497.12,-61.59 484.49,-45.42 474.84,-33.08"/>
<polygon fill="#63b8ff" stroke="#63b8ff" points="477.37,-30.63 468.46,-24.91 471.86,-34.94 477.37,-30.63"/>
</a>
</g>
</g>
<!-- Node8 -->
<g id="Node000008" class="node">
<title>Node8</title>
<g id="a_Node000008"><a xlink:title=" ">
<polygon fill="#e0e0e0" stroke="#999999" points="585,-24.5 538,-24.5 538,-5.5 585,-5.5 585,-24.5"/>
<text text-anchor="middle" x="561.5" y="-12.5" font-family="Helvetica,sans-Serif" font-size="10.00">vector</text>
</a>
</g>
</g>
<!-- Node6&#45;&gt;Node8 -->
<g id="edge7_Node000006_Node000008" class="edge">
<title>Node6&#45;&gt;Node8</title>
<g id="a_edge7_Node000006_Node000008"><a xlink:title=" ">
<path fill="none" stroke="#63b8ff" d="M518.24,-71.37C525.88,-61.59 538.51,-45.42 548.16,-33.08"/>
<polygon fill="#63b8ff" stroke="#63b8ff" points="551.14,-34.94 554.54,-24.91 545.63,-30.63 551.14,-34.94"/>
</a>
</g>
</g>
<!-- Node9 -->
<g id="Node000009" class="node">
<title>Node9</title>
<g id="a_Node000009"><a xlink:title=" ">
<polygon fill="#e0e0e0" stroke="#999999" points="681.5,-24.5 603.5,-24.5 603.5,-5.5 681.5,-5.5 681.5,-24.5"/>
<text text-anchor="middle" x="642.5" y="-12.5" font-family="Helvetica,sans-Serif" font-size="10.00">libultra/gbi.h</text>
</a>
</g>
</g>
<!-- Node6&#45;&gt;Node9 -->
<g id="edge8_Node000006_Node000009" class="edge">
<title>Node6&#45;&gt;Node9</title>
<g id="a_edge8_Node000006_Node000009"><a xlink:title=" ">
<path fill="none" stroke="#63b8ff" d="M529.17,-71.37C551.34,-60.54 589.58,-41.85 615.45,-29.22"/>
<polygon fill="#63b8ff" stroke="#63b8ff" points="617.25,-32.23 624.69,-24.7 614.17,-25.94 617.25,-32.23"/>
</a>
</g>
</g>
</g>
</svg>

<g id="navigator" transform="translate(0 0)" fill="#404254">
  <rect fill="#f2f5e9" fill-opacity="0.5" stroke="#606060" stroke-width=".5" x="0" y="0" width="60" height="60"/>
  <use id="zoomplus" xlink:href="#zoomPlus" x="17" y="9" onmousedown="handleZoom(evt,'in')"/>
  <use id="zoomminus" xlink:href="#zoomMin" x="42" y="9" onmousedown="handleZoom(evt,'out')"/>
  <use id="reset" xlink:href="#resetDef" x="30" y="36" onmousedown="handleReset()"/>
   <use id="arrowup" xlink:href="#arrowUp" x="0" y="0" onmousedown="handlePan(0,-1)"/>
  <use id="arrowright" xlink:href="#arrowRight" x="0" y="0" onmousedown="handlePan(1,0)"/>
  <use id="arrowdown" xlink:href="#arrowDown" x="0" y="0" onmousedown="handlePan(0,1)"/>
  <use id="arrowleft" xlink:href="#arrowLeft" x="0" y="0" onmousedown="handlePan(-1,0)"/>
</g>
<svg viewBox="0 0 15 15" width="100%" height="30px" preserveAspectRatio="xMaxYMin meet">
 <g id="arrow_out" transform="scale(0.3 0.3)">
  <a xlink:href="TrackSectionsFactory_8cpp__incl_org.svg" target="_base">
   <rect id="button" ry="5" rx="5" y="6" x="6" height="38" width="38"
        fill="#f2f5e9" fill-opacity="0.5" stroke="#606060" stroke-width="1.0"/>
   <path id="arrow"
     d="M 11.500037,31.436501 C 11.940474,20.09759 22.043105,11.32322 32.158766,21.979434 L 37.068811,17.246167 C 37.068811,17.246167 37.088388,32 37.088388,32 L 22.160133,31.978069 C 22.160133,31.978069 26.997745,27.140456 26.997745,27.140456 C 18.528582,18.264221 13.291696,25.230495 11.500037,31.436501 z"
     style="fill:#404040;"/>
  </a>
 </g>
</svg>

<style type='text/css'>
<![CDATA[
[data-mouse-over-selected='false'] { opacity: 0.7; }
[data-mouse-over-selected='true']  { opacity: 1.0; }
]]>
</style>
<script type="application/ecmascript"><![CDATA[
document.addEventListener('DOMContentLoaded', (event) => {
  highlightEdges();
  highlightAdjacentNodes();
});
]]></script>
</svg>
