<?xml version="1.0" encoding="UTF-8" standalone="no"?>
<!DOCTYPE svg PUBLIC "-//W3C//DTD SVG 1.1//EN"
 "http://www.w3.org/Graphics/SVG/1.1/DTD/svg11.dtd">
<!-- Generated by graphviz version 2.43.0 (0)
 -->
<!-- Title: src/engine/vehicles/Train.h Pages: 1 -->
<!--zoomable 313 -->

<svg id="main" version="1.1" xmlns="http://www.w3.org/2000/svg" xmlns:xlink="http://www.w3.org/1999/xlink" xml:space="preserve" onload="init(evt)">

<style type="text/css"><![CDATA[
.node, .edge {opacity: 0.7;}
.node.selected, .edge.selected {opacity: 1;}
.edge:hover path { stroke: red; }
.edge:hover polygon { stroke: red; fill: red; }
]]></style>

<defs>
  <circle id="rim" cx="0" cy="0" r="7"/>
  <circle id="rim2" cx="0" cy="0" r="3.5"/>
  <g id="zoomPlus">
    <use xlink:href="#rim" fill="#404040"><set attributeName="fill" to="#808080" begin="zoomplus.mouseover" end="zoomplus.mouseout"/></use>
    <path d="M-4,0h8M0,-4v8" fill="none" stroke="white" stroke-width="1.5" pointer-events="none"/>
  </g>
  <g id="zoomMin">
    <use xlink:href="#rim" fill="#404040"><set attributeName="fill" to="#808080" begin="zoomminus.mouseover" end="zoomminus.mouseout"/></use>
    <path d="M-4,0h8" fill="none" stroke="white" stroke-width="1.5" pointer-events="none"/>
  </g>
  <g id="arrowUp" transform="translate(30 24)">
    <use xlink:href="#rim"/>
    <path pointer-events="none" fill="none" stroke="white" stroke-width="1.5" d="M0,-3.0v7 M-2.5,-0.5L0,-3.0L2.5,-0.5"/>
  </g>
  <g id="arrowRight" transform="rotate(90) translate(36 -43)">
    <use xlink:href="#rim"/>
    <path pointer-events="none" fill="none" stroke="white" stroke-width="1.5" d="M0,-3.0v7 M-2.5,-0.5L0,-3.0L2.5,-0.5"/>
  </g>
  <g id="arrowDown" transform="rotate(180) translate(-30 -48)">
    <use xlink:href="#rim"/>
    <path pointer-events="none" fill="none" stroke="white" stroke-width="1.5" d="M0,-3.0v7 M-2.5,-0.5L0,-3.0L2.5,-0.5"/>
  </g>
  <g id="arrowLeft" transform="rotate(270) translate(-36 17)">
    <use xlink:href="#rim"/>
    <path pointer-events="none" fill="none" stroke="white" stroke-width="1.5" d="M0,-3.0v7 M-2.5,-0.5L0,-3.0L2.5,-0.5"/>
  </g>
  <g id="resetDef">
    <use xlink:href="#rim2" fill="#404040"><set attributeName="fill" to="#808080" begin="reset.mouseover" end="reset.mouseout"/></use>
  </g>
</defs>
<script type="application/ecmascript">
var viewWidth = 529;
var viewHeight = 313;
var sectionId = 'dynsection-0';
</script>
<script type="application/ecmascript" xlink:href="svg.min.js"/>
<svg id="graph" class="graph">
<g id="viewport">
<title>src/engine/vehicles/Train.h</title>
<!-- Node1 -->
<g id="Node000001" class="node">
<title>Node1</title>
<g id="a_Node000001"><a xlink:title=" ">
<polygon fill="#999999" stroke="#666666" points="227.77,-305 117.77,-305 117.77,-275 227.77,-275 227.77,-305"/>
<text text-anchor="start" x="125.77" y="-293" font-family="Helvetica,sans-Serif" font-size="10.00">src/engine/vehicles</text>
<text text-anchor="middle" x="172.77" y="-282" font-family="Helvetica,sans-Serif" font-size="10.00">/Train.h</text>
</a>
</g>
</g>
<!-- Node2 -->
<g id="Node000002" class="node">
<title>Node2</title>
<g id="a_Node000002"><a xlink:title=" ">
<polygon fill="#e0e0e0" stroke="#999999" points="191.77,-74 111.77,-74 111.77,-55 191.77,-55 191.77,-74"/>
<text text-anchor="middle" x="151.77" y="-62" font-family="Helvetica,sans-Serif" font-size="10.00">libultraship.h</text>
</a>
</g>
</g>
<!-- Node1&#45;&gt;Node2 -->
<g id="edge1_Node000001_Node000002" class="edge">
<title>Node1&#45;&gt;Node2</title>
<g id="a_edge1_Node000001_Node000002"><a xlink:title=" ">
<path fill="none" stroke="#63b8ff" d="M117.44,-282.78C87.19,-276.55 51.38,-264.05 28.77,-239 -4.9,-201.71 8.58,-178.9 2.77,-129 1.79,-120.61 -2.28,-116.77 2.77,-110 25.28,-79.79 67.53,-69.29 101.3,-65.99"/>
<polygon fill="#63b8ff" stroke="#63b8ff" points="101.79,-69.46 111.48,-65.19 101.24,-62.49 101.79,-69.46"/>
</a>
</g>
</g>
<!-- Node3 -->
<g id="Node000003" class="node">
<title>Node3</title>
<g id="a_Node000003"><a xlink:href="Actor_8h.html" target="_top" xlink:title=" ">
<polygon fill="white" stroke="#666666" points="197.77,-239 147.77,-239 147.77,-220 197.77,-220 197.77,-239"/>
<text text-anchor="middle" x="172.77" y="-227" font-family="Helvetica,sans-Serif" font-size="10.00">Actor.h</text>
</a>
</g>
</g>
<!-- Node1&#45;&gt;Node3 -->
<g id="edge2_Node000001_Node000003" class="edge">
<title>Node1&#45;&gt;Node3</title>
<g id="a_edge2_Node000001_Node000003"><a xlink:title=" ">
<path fill="none" stroke="#63b8ff" d="M172.77,-274.84C172.77,-267.21 172.77,-257.7 172.77,-249.45"/>
<polygon fill="#63b8ff" stroke="#63b8ff" points="176.27,-249.27 172.77,-239.27 169.27,-249.27 176.27,-249.27"/>
</a>
</g>
</g>
<!-- Node7 -->
<g id="Node000007" class="node">
<title>Node7</title>
<g id="a_Node000007"><a xlink:href="main_8h.html" target="_top" xlink:title=" ">
<polygon fill="white" stroke="#666666" points="389.77,-184 339.77,-184 339.77,-165 389.77,-165 389.77,-184"/>
<text text-anchor="middle" x="364.77" y="-172" font-family="Helvetica,sans-Serif" font-size="10.00">main.h</text>
</a>
</g>
</g>
<!-- Node1&#45;&gt;Node7 -->
<g id="edge22_Node000001_Node000007" class="edge">
<title>Node1&#45;&gt;Node7</title>
<g id="a_edge22_Node000001_Node000007"><a xlink:title=" ">
<path fill="none" stroke="#63b8ff" d="M184.63,-274.81C198.08,-259.49 221.35,-235.22 245.77,-220 272.09,-203.59 305.4,-191.78 330.08,-184.47"/>
<polygon fill="#63b8ff" stroke="#63b8ff" points="331.1,-187.82 339.75,-181.7 329.17,-181.09 331.1,-187.82"/>
</a>
</g>
</g>
<!-- Node14 -->
<g id="Node000014" class="node">
<title>Node14</title>
<g id="a_Node000014"><a xlink:title=" ">
<polygon fill="#e0e0e0" stroke="#999999" points="301.27,-239 254.27,-239 254.27,-220 301.27,-220 301.27,-239"/>
<text text-anchor="middle" x="277.77" y="-227" font-family="Helvetica,sans-Serif" font-size="10.00">vector</text>
</a>
</g>
</g>
<!-- Node1&#45;&gt;Node14 -->
<g id="edge21_Node000001_Node000014" class="edge">
<title>Node1&#45;&gt;Node14</title>
<g id="a_edge21_Node000001_Node000014"><a xlink:title=" ">
<path fill="none" stroke="#63b8ff" d="M197.92,-274.99C214.65,-265.66 236.54,-253.47 253.16,-244.21"/>
<polygon fill="#63b8ff" stroke="#63b8ff" points="255.23,-247.06 262.26,-239.14 251.82,-240.95 255.23,-247.06"/>
</a>
</g>
</g>
<!-- Node15 -->
<g id="Node000015" class="node">
<title>Node15</title>
<g id="a_Node000015"><a xlink:href="vehicles_8h.html" target="_top" xlink:title=" ">
<polygon fill="white" stroke="#666666" points="103.77,-239 37.77,-239 37.77,-220 103.77,-220 103.77,-239"/>
<text text-anchor="middle" x="70.77" y="-227" font-family="Helvetica,sans-Serif" font-size="10.00">vehicles.h</text>
</a>
</g>
</g>
<!-- Node1&#45;&gt;Node15 -->
<g id="edge23_Node000001_Node000015" class="edge">
<title>Node1&#45;&gt;Node15</title>
<g id="a_edge23_Node000001_Node000015"><a xlink:title=" ">
<path fill="none" stroke="#63b8ff" d="M148.34,-274.99C132.08,-265.66 110.82,-253.47 94.67,-244.21"/>
<polygon fill="#63b8ff" stroke="#63b8ff" points="96.25,-241.08 85.83,-239.14 92.76,-247.15 96.25,-241.08"/>
</a>
</g>
</g>
<!-- Node3&#45;&gt;Node2 -->
<g id="edge3_Node000003_Node000002" class="edge">
<title>Node3&#45;&gt;Node2</title>
<g id="a_edge3_Node000003_Node000002"><a xlink:title=" ">
<path fill="none" stroke="#63b8ff" d="M161.12,-219.73C151.46,-211.67 138.42,-198.74 132.77,-184 119.71,-149.94 133.4,-107.04 143.36,-83.32"/>
<polygon fill="#63b8ff" stroke="#63b8ff" points="146.57,-84.7 147.44,-74.14 140.18,-81.86 146.57,-84.7"/>
</a>
</g>
</g>
<!-- Node4 -->
<g id="Node000004" class="node">
<title>Node4</title>
<g id="a_Node000004"><a xlink:href="CoreMath_8h.html" target="_top" xlink:title=" ">
<polygon fill="white" stroke="#666666" points="85.27,-129 12.27,-129 12.27,-110 85.27,-110 85.27,-129"/>
<text text-anchor="middle" x="48.77" y="-117" font-family="Helvetica,sans-Serif" font-size="10.00">CoreMath.h</text>
</a>
</g>
</g>
<!-- Node3&#45;&gt;Node4 -->
<g id="edge4_Node000003_Node000004" class="edge">
<title>Node3&#45;&gt;Node4</title>
<g id="a_edge4_Node000003_Node000004"><a xlink:title=" ">
<path fill="none" stroke="#63b8ff" d="M155.11,-219.96C139.57,-211.96 116.83,-198.99 99.77,-184 84.06,-170.2 69.48,-151.16 59.97,-137.53"/>
<polygon fill="#63b8ff" stroke="#63b8ff" points="62.75,-135.4 54.24,-129.09 56.96,-139.33 62.75,-135.4"/>
</a>
</g>
</g>
<!-- Node5 -->
<g id="Node000005" class="node">
<title>Node5</title>
<g id="a_Node000005"><a xlink:href="macros_8h.html" target="_top" xlink:title=" ">
<polygon fill="white" stroke="#666666" points="321.77,-184 259.77,-184 259.77,-165 321.77,-165 321.77,-184"/>
<text text-anchor="middle" x="290.77" y="-172" font-family="Helvetica,sans-Serif" font-size="10.00">macros.h</text>
</a>
</g>
</g>
<!-- Node3&#45;&gt;Node5 -->
<g id="edge6_Node000003_Node000005" class="edge">
<title>Node3&#45;&gt;Node5</title>
<g id="a_edge6_Node000003_Node000005"><a xlink:title=" ">
<path fill="none" stroke="#63b8ff" d="M191.73,-219.98C210.79,-211.42 240.43,-198.11 262.31,-188.28"/>
<polygon fill="#63b8ff" stroke="#63b8ff" points="263.78,-191.46 271.46,-184.17 260.91,-185.07 263.78,-191.46"/>
</a>
</g>
</g>
<!-- Node3&#45;&gt;Node7 -->
<g id="edge9_Node000003_Node000007" class="edge">
<title>Node3&#45;&gt;Node7</title>
<g id="a_edge9_Node000003_Node000007"><a xlink:title=" ">
<path fill="none" stroke="#63b8ff" d="M197.87,-221.57C231.65,-212.25 291.88,-195.62 330,-185.1"/>
<polygon fill="#63b8ff" stroke="#63b8ff" points="330.95,-188.47 339.66,-182.43 329.09,-181.72 330.95,-188.47"/>
</a>
</g>
</g>
<!-- Node12 -->
<g id="Node000012" class="node">
<title>Node12</title>
<g id="a_Node000012"><a xlink:href="common__structs_8h.html" target="_top" xlink:title=" ">
<polygon fill="white" stroke="#666666" points="287.27,-129 180.27,-129 180.27,-110 287.27,-110 287.27,-129"/>
<text text-anchor="middle" x="233.77" y="-117" font-family="Helvetica,sans-Serif" font-size="10.00">common_structs.h</text>
</a>
</g>
</g>
<!-- Node3&#45;&gt;Node12 -->
<g id="edge20_Node000003_Node000012" class="edge">
<title>Node3&#45;&gt;Node12</title>
<g id="a_edge20_Node000003_Node000012"><a xlink:title=" ">
<path fill="none" stroke="#63b8ff" d="M182.59,-219.85C191.56,-211.47 204.63,-198.02 212.77,-184 220.96,-169.88 226.49,-152.11 229.81,-138.96"/>
<polygon fill="#63b8ff" stroke="#63b8ff" points="233.23,-139.72 232.09,-129.19 226.41,-138.13 233.23,-139.72"/>
</a>
</g>
</g>
<!-- Node13 -->
<g id="Node000013" class="node">
<title>Node13</title>
<g id="a_Node000013"><a xlink:href="camera_8h.html" target="_top" xlink:title=" ">
<polygon fill="white" stroke="#666666" points="203.77,-184 141.77,-184 141.77,-165 203.77,-165 203.77,-184"/>
<text text-anchor="middle" x="172.77" y="-172" font-family="Helvetica,sans-Serif" font-size="10.00">camera.h</text>
</a>
</g>
</g>
<!-- Node3&#45;&gt;Node13 -->
<g id="edge17_Node000003_Node000013" class="edge">
<title>Node3&#45;&gt;Node13</title>
<g id="a_edge17_Node000003_Node000013"><a xlink:title=" ">
<path fill="none" stroke="#63b8ff" d="M172.77,-219.75C172.77,-212.8 172.77,-202.85 172.77,-194.13"/>
<polygon fill="#63b8ff" stroke="#63b8ff" points="176.27,-194.09 172.77,-184.09 169.27,-194.09 176.27,-194.09"/>
</a>
</g>
</g>
<!-- Node4&#45;&gt;Node2 -->
<g id="edge5_Node000004_Node000002" class="edge">
<title>Node4&#45;&gt;Node2</title>
<g id="a_edge5_Node000004_Node000002"><a xlink:title=" ">
<path fill="none" stroke="#63b8ff" d="M65.32,-109.98C81.66,-101.57 106.9,-88.59 125.9,-78.81"/>
<polygon fill="#63b8ff" stroke="#63b8ff" points="127.63,-81.86 134.92,-74.17 124.42,-75.63 127.63,-81.86"/>
</a>
</g>
</g>
<!-- Node5&#45;&gt;Node2 -->
<g id="edge8_Node000005_Node000002" class="edge">
<title>Node5&#45;&gt;Node2</title>
<g id="a_edge8_Node000005_Node000002"><a xlink:title=" ">
<path fill="none" stroke="#63b8ff" d="M294.98,-164.71C300.66,-151.46 308.75,-126.21 296.77,-110 275.23,-80.86 234.95,-70.19 202.3,-66.55"/>
<polygon fill="#63b8ff" stroke="#63b8ff" points="202.28,-63.04 192,-65.6 201.64,-70.01 202.28,-63.04"/>
</a>
</g>
</g>
<!-- Node6 -->
<g id="Node000006" class="node">
<title>Node6</title>
<g id="a_Node000006"><a xlink:href="math_8h.html" target="_top" xlink:title=" ">
<polygon fill="white" stroke="#666666" points="395.27,-129 344.27,-129 344.27,-110 395.27,-110 395.27,-129"/>
<text text-anchor="middle" x="369.77" y="-117" font-family="Helvetica,sans-Serif" font-size="10.00">math.h</text>
</a>
</g>
</g>
<!-- Node5&#45;&gt;Node6 -->
<g id="edge7_Node000005_Node000006" class="edge">
<title>Node5&#45;&gt;Node6</title>
<g id="a_edge7_Node000005_Node000006"><a xlink:title=" ">
<path fill="none" stroke="#63b8ff" d="M303.46,-164.98C315.6,-156.84 334.12,-144.41 348.51,-134.76"/>
<polygon fill="#63b8ff" stroke="#63b8ff" points="350.49,-137.65 356.84,-129.17 346.59,-131.84 350.49,-137.65"/>
</a>
</g>
</g>
<!-- Node8 -->
<g id="Node000008" class="node">
<title>Node8</title>
<g id="a_Node000008"><a xlink:href="mk64_8h.html" target="_top" xlink:title=" ">
<polygon fill="white" stroke="#666666" points="466.27,-129 413.27,-129 413.27,-110 466.27,-110 466.27,-129"/>
<text text-anchor="middle" x="439.77" y="-117" font-family="Helvetica,sans-Serif" font-size="10.00">mk64.h</text>
</a>
</g>
</g>
<!-- Node7&#45;&gt;Node8 -->
<g id="edge10_Node000007_Node000008" class="edge">
<title>Node7&#45;&gt;Node8</title>
<g id="a_edge10_Node000007_Node000008"><a xlink:title=" ">
<path fill="none" stroke="#63b8ff" d="M376.82,-164.98C388.23,-156.92 405.6,-144.65 419.2,-135.03"/>
<polygon fill="#63b8ff" stroke="#63b8ff" points="421.35,-137.8 427.5,-129.17 417.31,-132.08 421.35,-137.8"/>
</a>
</g>
</g>
<!-- Node7&#45;&gt;Node12 -->
<g id="edge15_Node000007_Node000012" class="edge">
<title>Node7&#45;&gt;Node12</title>
<g id="a_edge15_Node000007_Node000012"><a xlink:title=" ">
<path fill="none" stroke="#63b8ff" d="M343.72,-164.98C322.36,-156.34 289.06,-142.87 264.7,-133.02"/>
<polygon fill="#63b8ff" stroke="#63b8ff" points="265.78,-129.68 255.2,-129.17 263.15,-136.17 265.78,-129.68"/>
</a>
</g>
</g>
<!-- Node8&#45;&gt;Node2 -->
<g id="edge11_Node000008_Node000002" class="edge">
<title>Node8&#45;&gt;Node2</title>
<g id="a_edge11_Node000008_Node000002"><a xlink:title=" ">
<path fill="none" stroke="#63b8ff" d="M413.05,-111.83C410.26,-111.18 407.46,-110.56 404.77,-110 334.73,-95.35 253.1,-81.58 201.92,-73.35"/>
<polygon fill="#63b8ff" stroke="#63b8ff" points="202.22,-69.85 191.79,-71.73 201.11,-76.76 202.22,-69.85"/>
</a>
</g>
</g>
<!-- Node9 -->
<g id="Node000009" class="node">
<title>Node9</title>
<g id="a_Node000009"><a xlink:href="string_8h.html" target="_top" xlink:title=" ">
<polygon fill="white" stroke="#666666" points="424.27,-74 371.27,-74 371.27,-55 424.27,-55 424.27,-74"/>
<text text-anchor="middle" x="397.77" y="-62" font-family="Helvetica,sans-Serif" font-size="10.00">string.h</text>
</a>
</g>
</g>
<!-- Node8&#45;&gt;Node9 -->
<g id="edge12_Node000008_Node000009" class="edge">
<title>Node8&#45;&gt;Node9</title>
<g id="a_edge12_Node000008_Node000009"><a xlink:title=" ">
<path fill="none" stroke="#63b8ff" d="M432.83,-109.75C426.9,-102.26 418.19,-91.28 410.94,-82.13"/>
<polygon fill="#63b8ff" stroke="#63b8ff" points="413.53,-79.75 404.57,-74.09 408.04,-84.1 413.53,-79.75"/>
</a>
</g>
</g>
<!-- Node11 -->
<g id="Node000011" class="node">
<title>Node11</title>
<g id="a_Node000011"><a xlink:title=" ">
<polygon fill="#e0e0e0" stroke="#999999" points="520.77,-74 442.77,-74 442.77,-55 520.77,-55 520.77,-74"/>
<text text-anchor="middle" x="481.77" y="-62" font-family="Helvetica,sans-Serif" font-size="10.00">libultra/gbi.h</text>
</a>
</g>
</g>
<!-- Node8&#45;&gt;Node11 -->
<g id="edge14_Node000008_Node000011" class="edge">
<title>Node8&#45;&gt;Node11</title>
<g id="a_edge14_Node000008_Node000011"><a xlink:title=" ">
<path fill="none" stroke="#63b8ff" d="M446.7,-109.75C452.63,-102.26 461.34,-91.28 468.59,-82.13"/>
<polygon fill="#63b8ff" stroke="#63b8ff" points="471.49,-84.1 474.96,-74.09 466.01,-79.75 471.49,-84.1"/>
</a>
</g>
</g>
<!-- Node10 -->
<g id="Node000010" class="node">
<title>Node10</title>
<g id="a_Node000010"><a xlink:title=" ">
<polygon fill="#e0e0e0" stroke="#999999" points="442.77,-19 352.77,-19 352.77,0 442.77,0 442.77,-19"/>
<text text-anchor="middle" x="397.77" y="-7" font-family="Helvetica,sans-Serif" font-size="10.00">libultra/types.h</text>
</a>
</g>
</g>
<!-- Node9&#45;&gt;Node10 -->
<g id="edge13_Node000009_Node000010" class="edge">
<title>Node9&#45;&gt;Node10</title>
<g id="a_edge13_Node000009_Node000010"><a xlink:title=" ">
<path fill="none" stroke="#63b8ff" d="M397.77,-54.75C397.77,-47.8 397.77,-37.85 397.77,-29.13"/>
<polygon fill="#63b8ff" stroke="#63b8ff" points="401.27,-29.09 397.77,-19.09 394.27,-29.09 401.27,-29.09"/>
</a>
</g>
</g>
<!-- Node12&#45;&gt;Node2 -->
<g id="edge16_Node000012_Node000002" class="edge">
<title>Node12&#45;&gt;Node2</title>
<g id="a_edge16_Node000012_Node000002"><a xlink:title=" ">
<path fill="none" stroke="#63b8ff" d="M220.59,-109.98C208,-101.84 188.76,-89.41 173.83,-79.76"/>
<polygon fill="#63b8ff" stroke="#63b8ff" points="175.48,-76.66 165.18,-74.17 171.68,-82.54 175.48,-76.66"/>
</a>
</g>
</g>
<!-- Node13&#45;&gt;Node2 -->
<g id="edge18_Node000013_Node000002" class="edge">
<title>Node13&#45;&gt;Node2</title>
<g id="a_edge18_Node000013_Node000002"><a xlink:title=" ">
<path fill="none" stroke="#63b8ff" d="M171.05,-164.66C167.65,-147.17 159.99,-107.8 155.42,-84.27"/>
<polygon fill="#63b8ff" stroke="#63b8ff" points="158.79,-83.31 153.45,-74.16 151.92,-84.64 158.79,-83.31"/>
</a>
</g>
</g>
<!-- Node13&#45;&gt;Node12 -->
<g id="edge19_Node000013_Node000012" class="edge">
<title>Node13&#45;&gt;Node12</title>
<g id="a_edge19_Node000013_Node000012"><a xlink:title=" ">
<path fill="none" stroke="#63b8ff" d="M182.57,-164.98C191.58,-157.15 205.17,-145.34 216.08,-135.86"/>
<polygon fill="#63b8ff" stroke="#63b8ff" points="218.53,-138.37 223.79,-129.17 213.94,-133.09 218.53,-138.37"/>
</a>
</g>
</g>
<!-- Node15&#45;&gt;Node12 -->
<g id="edge24_Node000015_Node000012" class="edge">
<title>Node15&#45;&gt;Node12</title>
<g id="a_edge24_Node000015_Node000012"><a xlink:title=" ">
<path fill="none" stroke="#63b8ff" d="M77.54,-219.65C88.11,-206.33 109.72,-180.98 132.77,-165 152.66,-151.21 177.51,-140.19 197.59,-132.57"/>
<polygon fill="#63b8ff" stroke="#63b8ff" points="198.84,-135.84 207.02,-129.1 196.42,-129.27 198.84,-135.84"/>
</a>
</g>
</g>
</g>
</svg>

<g id="navigator" transform="translate(0 0)" fill="#404254">
  <rect fill="#f2f5e9" fill-opacity="0.5" stroke="#606060" stroke-width=".5" x="0" y="0" width="60" height="60"/>
  <use id="zoomplus" xlink:href="#zoomPlus" x="17" y="9" onmousedown="handleZoom(evt,'in')"/>
  <use id="zoomminus" xlink:href="#zoomMin" x="42" y="9" onmousedown="handleZoom(evt,'out')"/>
  <use id="reset" xlink:href="#resetDef" x="30" y="36" onmousedown="handleReset()"/>
   <use id="arrowup" xlink:href="#arrowUp" x="0" y="0" onmousedown="handlePan(0,-1)"/>
  <use id="arrowright" xlink:href="#arrowRight" x="0" y="0" onmousedown="handlePan(1,0)"/>
  <use id="arrowdown" xlink:href="#arrowDown" x="0" y="0" onmousedown="handlePan(0,1)"/>
  <use id="arrowleft" xlink:href="#arrowLeft" x="0" y="0" onmousedown="handlePan(-1,0)"/>
</g>
<svg viewBox="0 0 15 15" width="100%" height="30px" preserveAspectRatio="xMaxYMin meet">
 <g id="arrow_out" transform="scale(0.3 0.3)">
  <a xlink:href="Train_8h__incl_org.svg" target="_base">
   <rect id="button" ry="5" rx="5" y="6" x="6" height="38" width="38"
        fill="#f2f5e9" fill-opacity="0.5" stroke="#606060" stroke-width="1.0"/>
   <path id="arrow"
     d="M 11.500037,31.436501 C 11.940474,20.09759 22.043105,11.32322 32.158766,21.979434 L 37.068811,17.246167 C 37.068811,17.246167 37.088388,32 37.088388,32 L 22.160133,31.978069 C 22.160133,31.978069 26.997745,27.140456 26.997745,27.140456 C 18.528582,18.264221 13.291696,25.230495 11.500037,31.436501 z"
     style="fill:#404040;"/>
  </a>
 </g>
</svg>

<style type='text/css'>
<![CDATA[
[data-mouse-over-selected='false'] { opacity: 0.7; }
[data-mouse-over-selected='true']  { opacity: 1.0; }
]]>
</style>
<script type="application/ecmascript"><![CDATA[
document.addEventListener('DOMContentLoaded', (event) => {
  highlightEdges();
  highlightAdjacentNodes();
});
]]></script>
</svg>
