<?xml version="1.0" encoding="UTF-8" standalone="no"?>
<!DOCTYPE svg PUBLIC "-//W3C//DTD SVG 1.1//EN"
 "http://www.w3.org/Graphics/SVG/1.1/DTD/svg11.dtd">
<!-- Generated by graphviz version 2.43.0 (0)
 -->
<!-- Title: src/engine/actors/Tree.h Pages: 1 -->
<svg width="564pt" height="148pt"
 viewBox="0.00 0.00 563.50 148.00" xmlns="http://www.w3.org/2000/svg" xmlns:xlink="http://www.w3.org/1999/xlink">
<g id="graph0" class="graph" transform="scale(1 1) rotate(0) translate(4 144)">
<title>src/engine/actors/Tree.h</title>
<!-- Node1 -->
<g id="Node000001" class="node">
<title>Node1</title>
<g id="a_Node000001"><a xlink:title=" ">
<polygon fill="#999999" stroke="#666666" points="371,-140 239,-140 239,-121 371,-121 371,-140"/>
<text text-anchor="middle" x="305" y="-128" font-family="Helvetica,sans-Serif" font-size="10.00">src/engine/actors/Tree.h</text>
</a>
</g>
</g>
<!-- Node2 -->
<g id="Node000002" class="node">
<title>Node2</title>
<g id="a_Node000002"><a xlink:href="AllActors_8h.html" target="_top" xlink:title=" ">
<polygon fill="white" stroke="#666666" points="144,-79.5 22,-79.5 22,-60.5 144,-60.5 144,-79.5"/>
<text text-anchor="middle" x="83" y="-67.5" font-family="Helvetica,sans-Serif" font-size="10.00">src/engine/AllActors.h</text>
</a>
</g>
</g>
<!-- Node1&#45;&gt;Node2 -->
<g id="edge1_Node000001_Node000002" class="edge">
<title>Node1&#45;&gt;Node2</title>
<g id="a_edge1_Node000001_Node000002"><a xlink:title=" ">
<path fill="none" stroke="#63b8ff" d="M262.86,-118.4C219.94,-107.08 154.3,-89.79 115.32,-79.52"/>
<polygon fill="#63b8ff" stroke="#63b8ff" points="262.16,-121.83 272.72,-120.99 263.94,-115.06 262.16,-121.83"/>
</a>
</g>
</g>
<!-- Node4 -->
<g id="Node000004" class="node">
<title>Node4</title>
<g id="a_Node000004"><a xlink:href="Tree_8cpp.html" target="_top" xlink:title=" ">
<polygon fill="white" stroke="#666666" points="305.5,-79.5 162.5,-79.5 162.5,-60.5 305.5,-60.5 305.5,-79.5"/>
<text text-anchor="middle" x="234" y="-67.5" font-family="Helvetica,sans-Serif" font-size="10.00">src/engine/actors/Tree.cpp</text>
</a>
</g>
</g>
<!-- Node1&#45;&gt;Node4 -->
<g id="edge3_Node000001_Node000004" class="edge">
<title>Node1&#45;&gt;Node4</title>
<g id="a_edge3_Node000001_Node000004"><a xlink:title=" ">
<path fill="none" stroke="#63b8ff" d="M286.46,-114.22C273.1,-103.21 255.55,-88.75 244.52,-79.67"/>
<polygon fill="#63b8ff" stroke="#63b8ff" points="284.58,-117.21 294.52,-120.87 289.03,-111.81 284.58,-117.21"/>
</a>
</g>
</g>
<!-- Node5 -->
<g id="Node000005" class="node">
<title>Node5</title>
<g id="a_Node000005"><a xlink:href="Harbour_8cpp.html" target="_top" xlink:title=" ">
<polygon fill="white" stroke="#666666" points="430.5,-85 323.5,-85 323.5,-55 430.5,-55 430.5,-85"/>
<text text-anchor="start" x="331.5" y="-73" font-family="Helvetica,sans-Serif" font-size="10.00">src/engine/courses</text>
<text text-anchor="middle" x="377" y="-62" font-family="Helvetica,sans-Serif" font-size="10.00">/Harbour.cpp</text>
</a>
</g>
</g>
<!-- Node1&#45;&gt;Node5 -->
<g id="edge4_Node000001_Node000005" class="edge">
<title>Node1&#45;&gt;Node5</title>
<g id="a_edge4_Node000001_Node000005"><a xlink:title=" ">
<path fill="none" stroke="#63b8ff" d="M323.46,-114.5C334.6,-105.45 348.69,-94 359.63,-85.11"/>
<polygon fill="#63b8ff" stroke="#63b8ff" points="321.18,-111.85 315.62,-120.87 325.59,-117.28 321.18,-111.85"/>
</a>
</g>
</g>
<!-- Node6 -->
<g id="Node000006" class="node">
<title>Node6</title>
<g id="a_Node000006"><a xlink:href="TestCourse_8cpp.html" target="_top" xlink:title=" ">
<polygon fill="white" stroke="#666666" points="555.5,-85 448.5,-85 448.5,-55 555.5,-55 555.5,-85"/>
<text text-anchor="start" x="456.5" y="-73" font-family="Helvetica,sans-Serif" font-size="10.00">src/engine/courses</text>
<text text-anchor="middle" x="502" y="-62" font-family="Helvetica,sans-Serif" font-size="10.00">/TestCourse.cpp</text>
</a>
</g>
</g>
<!-- Node1&#45;&gt;Node6 -->
<g id="edge5_Node000001_Node000006" class="edge">
<title>Node1&#45;&gt;Node6</title>
<g id="a_edge5_Node000001_Node000006"><a xlink:title=" ">
<path fill="none" stroke="#63b8ff" d="M343.47,-118.08C375.28,-108.63 420.6,-95.17 454.64,-85.06"/>
<polygon fill="#63b8ff" stroke="#63b8ff" points="342.24,-114.79 333.65,-120.99 344.23,-121.5 342.24,-114.79"/>
</a>
</g>
</g>
<!-- Node3 -->
<g id="Node000003" class="node">
<title>Node3</title>
<g id="a_Node000003"><a xlink:href="ContentBrowser_8cpp.html" target="_top" xlink:title=" ">
<polygon fill="white" stroke="#666666" points="166,-19 0,-19 0,0 166,0 166,-19"/>
<text text-anchor="middle" x="83" y="-7" font-family="Helvetica,sans-Serif" font-size="10.00">src/port/ui/ContentBrowser.cpp</text>
</a>
</g>
</g>
<!-- Node2&#45;&gt;Node3 -->
<g id="edge2_Node000002_Node000003" class="edge">
<title>Node2&#45;&gt;Node3</title>
<g id="a_edge2_Node000002_Node000003"><a xlink:title=" ">
<path fill="none" stroke="#63b8ff" d="M83,-50.16C83,-39.74 83,-27.3 83,-19.17"/>
<polygon fill="#63b8ff" stroke="#63b8ff" points="79.5,-50.37 83,-60.37 86.5,-50.37 79.5,-50.37"/>
</a>
</g>
</g>
</g>
</svg>
