<?xml version="1.0" encoding="UTF-8" standalone="no"?>
<!DOCTYPE svg PUBLIC "-//W3C//DTD SVG 1.1//EN"
 "http://www.w3.org/Graphics/SVG/1.1/DTD/svg11.dtd">
<!-- Generated by graphviz version 2.43.0 (0)
 -->
<!-- Title: src/port/resource/type/UnkSpawnData.cpp Pages: 1 -->
<svg width="412pt" height="214pt"
 viewBox="0.00 0.00 411.50 214.00" xmlns="http://www.w3.org/2000/svg" xmlns:xlink="http://www.w3.org/1999/xlink">

<svg id="main" version="1.1" xmlns="http://www.w3.org/2000/svg" xmlns:xlink="http://www.w3.org/1999/xlink" xml:space="preserve">

<style type="text/css"><![CDATA[
.node, .edge {opacity: 0.7;}
.node.selected, .edge.selected {opacity: 1;}
.edge:hover path { stroke: red; }
.edge:hover polygon { stroke: red; fill: red; }
]]></style>
<script type="application/ecmascript" xlink:href="svg.min.js"/>
<svg id="graph" class="graph">
<g id="graph0" class="graph" transform="scale(1 1) rotate(0) translate(4 210)">
<title>src/port/resource/type/UnkSpawnData.cpp</title>
<!-- Node1 -->
<g id="Node000001" class="node">
<title>Node1</title>
<g id="a_Node000001"><a xlink:title=" ">
<polygon fill="#999999" stroke="#666666" points="320.5,-206 197.5,-206 197.5,-176 320.5,-176 320.5,-206"/>
<text text-anchor="start" x="205.5" y="-194" font-family="Helvetica,sans-Serif" font-size="10.00">src/port/resource/type</text>
<text text-anchor="middle" x="259" y="-183" font-family="Helvetica,sans-Serif" font-size="10.00">/UnkSpawnData.cpp</text>
</a>
</g>
</g>
<!-- Node2 -->
<g id="Node000002" class="node">
<title>Node2</title>
<g id="a_Node000002"><a xlink:href="UnkSpawnData_8h.html" target="_top" xlink:title=" ">
<polygon fill="white" stroke="#666666" points="248.5,-134.5 147.5,-134.5 147.5,-115.5 248.5,-115.5 248.5,-134.5"/>
<text text-anchor="middle" x="198" y="-122.5" font-family="Helvetica,sans-Serif" font-size="10.00">UnkSpawnData.h</text>
</a>
</g>
</g>
<!-- Node1&#45;&gt;Node2 -->
<g id="edge1_Node000001_Node000002" class="edge">
<title>Node1&#45;&gt;Node2</title>
<g id="a_edge1_Node000001_Node000002"><a xlink:title=" ">
<path fill="none" stroke="#63b8ff" d="M245.46,-175.8C235.95,-165.82 223.22,-152.46 213.33,-142.09"/>
<polygon fill="#63b8ff" stroke="#63b8ff" points="215.86,-139.67 206.43,-134.84 210.8,-144.5 215.86,-139.67"/>
</a>
</g>
</g>
<!-- Node8 -->
<g id="Node000008" class="node">
<title>Node8</title>
<g id="a_Node000008"><a xlink:title=" ">
<polygon fill="#e0e0e0" stroke="#999999" points="375.5,-140 266.5,-140 266.5,-110 375.5,-110 375.5,-140"/>
<text text-anchor="start" x="274.5" y="-128" font-family="Helvetica,sans-Serif" font-size="10.00">libultraship/libultra</text>
<text text-anchor="middle" x="321" y="-117" font-family="Helvetica,sans-Serif" font-size="10.00">/gbi.h</text>
</a>
</g>
</g>
<!-- Node1&#45;&gt;Node8 -->
<g id="edge7_Node000001_Node000008" class="edge">
<title>Node1&#45;&gt;Node8</title>
<g id="a_edge7_Node000001_Node000008"><a xlink:title=" ">
<path fill="none" stroke="#63b8ff" d="M272.76,-175.8C280.79,-167.51 291.07,-156.89 300.09,-147.59"/>
<polygon fill="#63b8ff" stroke="#63b8ff" points="302.83,-149.78 307.28,-140.16 297.81,-144.91 302.83,-149.78"/>
</a>
</g>
</g>
<!-- Node3 -->
<g id="Node000003" class="node">
<title>Node3</title>
<g id="a_Node000003"><a xlink:title=" ">
<polygon fill="#e0e0e0" stroke="#999999" points="116,-74 0,-74 0,-55 116,-55 116,-74"/>
<text text-anchor="middle" x="58" y="-62" font-family="Helvetica,sans-Serif" font-size="10.00">resource/Resource.h</text>
</a>
</g>
</g>
<!-- Node2&#45;&gt;Node3 -->
<g id="edge2_Node000002_Node000003" class="edge">
<title>Node2&#45;&gt;Node3</title>
<g id="a_edge2_Node000002_Node000003"><a xlink:title=" ">
<path fill="none" stroke="#63b8ff" d="M177.64,-115.49C154,-105.62 114.8,-89.23 87.75,-77.93"/>
<polygon fill="#63b8ff" stroke="#63b8ff" points="88.96,-74.64 78.38,-74.02 86.26,-81.1 88.96,-74.64"/>
</a>
</g>
</g>
<!-- Node4 -->
<g id="Node000004" class="node">
<title>Node4</title>
<g id="a_Node000004"><a xlink:title=" ">
<polygon fill="#e0e0e0" stroke="#999999" points="181.5,-74 134.5,-74 134.5,-55 181.5,-55 181.5,-74"/>
<text text-anchor="middle" x="158" y="-62" font-family="Helvetica,sans-Serif" font-size="10.00">vector</text>
</a>
</g>
</g>
<!-- Node2&#45;&gt;Node4 -->
<g id="edge3_Node000002_Node000004" class="edge">
<title>Node2&#45;&gt;Node4</title>
<g id="a_edge3_Node000002_Node000004"><a xlink:title=" ">
<path fill="none" stroke="#63b8ff" d="M192.1,-115.37C186.25,-106.81 177.13,-93.47 169.79,-82.74"/>
<polygon fill="#63b8ff" stroke="#63b8ff" points="172.46,-80.45 163.93,-74.17 166.68,-84.4 172.46,-80.45"/>
</a>
</g>
</g>
<!-- Node5 -->
<g id="Node000005" class="node">
<title>Node5</title>
<g id="a_Node000005"><a xlink:title=" ">
<polygon fill="#e0e0e0" stroke="#999999" points="278,-74 200,-74 200,-55 278,-55 278,-74"/>
<text text-anchor="middle" x="239" y="-62" font-family="Helvetica,sans-Serif" font-size="10.00">libultra/gbi.h</text>
</a>
</g>
</g>
<!-- Node2&#45;&gt;Node5 -->
<g id="edge4_Node000002_Node000005" class="edge">
<title>Node2&#45;&gt;Node5</title>
<g id="a_edge4_Node000002_Node000005"><a xlink:title=" ">
<path fill="none" stroke="#63b8ff" d="M204.05,-115.37C210.11,-106.73 219.59,-93.2 227.14,-82.42"/>
<polygon fill="#63b8ff" stroke="#63b8ff" points="230.05,-84.37 232.93,-74.17 224.32,-80.35 230.05,-84.37"/>
</a>
</g>
</g>
<!-- Node6 -->
<g id="Node000006" class="node">
<title>Node6</title>
<g id="a_Node000006"><a xlink:href="common__structs_8h.html" target="_top" xlink:title=" ">
<polygon fill="white" stroke="#666666" points="403.5,-74 296.5,-74 296.5,-55 403.5,-55 403.5,-74"/>
<text text-anchor="middle" x="350" y="-62" font-family="Helvetica,sans-Serif" font-size="10.00">common_structs.h</text>
</a>
</g>
</g>
<!-- Node2&#45;&gt;Node6 -->
<g id="edge5_Node000002_Node000006" class="edge">
<title>Node2&#45;&gt;Node6</title>
<g id="a_edge5_Node000002_Node000006"><a xlink:title=" ">
<path fill="none" stroke="#63b8ff" d="M220.1,-115.49C245.99,-105.53 289.08,-88.95 318.47,-77.63"/>
<polygon fill="#63b8ff" stroke="#63b8ff" points="319.8,-80.88 327.87,-74.02 317.28,-74.34 319.8,-80.88"/>
</a>
</g>
</g>
<!-- Node7 -->
<g id="Node000007" class="node">
<title>Node7</title>
<g id="a_Node000007"><a xlink:title=" ">
<polygon fill="#e0e0e0" stroke="#999999" points="390,-19 310,-19 310,0 390,0 390,-19"/>
<text text-anchor="middle" x="350" y="-7" font-family="Helvetica,sans-Serif" font-size="10.00">libultraship.h</text>
</a>
</g>
</g>
<!-- Node6&#45;&gt;Node7 -->
<g id="edge6_Node000006_Node000007" class="edge">
<title>Node6&#45;&gt;Node7</title>
<g id="a_edge6_Node000006_Node000007"><a xlink:title=" ">
<path fill="none" stroke="#63b8ff" d="M350,-54.75C350,-47.8 350,-37.85 350,-29.13"/>
<polygon fill="#63b8ff" stroke="#63b8ff" points="353.5,-29.09 350,-19.09 346.5,-29.09 353.5,-29.09"/>
</a>
</g>
</g>
</g>
</svg>
</svg>

<style type='text/css'>
<![CDATA[
[data-mouse-over-selected='false'] { opacity: 0.7; }
[data-mouse-over-selected='true']  { opacity: 1.0; }
]]>
</style>
<script type="application/ecmascript"><![CDATA[
document.addEventListener('DOMContentLoaded', (event) => {
  highlightEdges();
  highlightAdjacentNodes();
});
]]></script>
</svg>
