<?xml version="1.0" encoding="UTF-8" standalone="no"?>
<!DOCTYPE svg PUBLIC "-//W3C//DTD SVG 1.1//EN"
 "http://www.w3.org/Graphics/SVG/1.1/DTD/svg11.dtd">
<!-- Generated by graphviz version 2.43.0 (0)
 -->
<!-- Title: func_80076278 Pages: 1 -->
<svg width="717pt" height="38pt"
 viewBox="0.00 0.00 717.00 38.00" xmlns="http://www.w3.org/2000/svg" xmlns:xlink="http://www.w3.org/1999/xlink">
<g id="graph0" class="graph" transform="scale(1 1) rotate(0) translate(4 34)">
<title>func_80076278</title>
<!-- Node1 -->
<g id="Node000001" class="node">
<title>Node1</title>
<g id="a_Node000001"><a xlink:title=" ">
<polygon fill="#999999" stroke="#666666" points="709,-24.5 618,-24.5 618,-5.5 709,-5.5 709,-24.5"/>
<text text-anchor="middle" x="663.5" y="-12.5" font-family="Helvetica,sans-Serif" font-size="10.00">func_80076278</text>
</a>
</g>
</g>
<!-- Node2 -->
<g id="Node000002" class="node">
<title>Node2</title>
<g id="a_Node000002"><a xlink:href="update__objects_8c.html#a26f43007c28b1d28cb27a42fc3ae99d6" target="_top" xlink:title=" ">
<polygon fill="white" stroke="#666666" points="582,-24.5 489,-24.5 489,-5.5 582,-5.5 582,-24.5"/>
<text text-anchor="middle" x="535.5" y="-12.5" font-family="Helvetica,sans-Serif" font-size="10.00">func_800762DC</text>
</a>
</g>
</g>
<!-- Node1&#45;&gt;Node2 -->
<g id="edge1_Node000001_Node000002" class="edge">
<title>Node1&#45;&gt;Node2</title>
<g id="a_edge1_Node000001_Node000002"><a xlink:title=" ">
<path fill="none" stroke="#63b8ff" d="M607.61,-15C599.2,-15 590.6,-15 582.41,-15"/>
<polygon fill="#63b8ff" stroke="#63b8ff" points="607.72,-18.5 617.72,-15 607.72,-11.5 607.72,-18.5"/>
</a>
</g>
</g>
<!-- Node3 -->
<g id="Node000003" class="node">
<title>Node3</title>
<g id="a_Node000003"><a xlink:href="update__objects_8c.html#a269298ce38d852af33c677ae12781528" target="_top" xlink:title=" ">
<polygon fill="white" stroke="#666666" points="453,-24.5 361,-24.5 361,-5.5 453,-5.5 453,-24.5"/>
<text text-anchor="middle" x="407" y="-12.5" font-family="Helvetica,sans-Serif" font-size="10.00">func_8007661C</text>
</a>
</g>
</g>
<!-- Node2&#45;&gt;Node3 -->
<g id="edge2_Node000002_Node000003" class="edge">
<title>Node2&#45;&gt;Node3</title>
<g id="a_edge2_Node000002_Node000003"><a xlink:title=" ">
<path fill="none" stroke="#63b8ff" d="M478.59,-15C470.09,-15 461.41,-15 453.18,-15"/>
<polygon fill="#63b8ff" stroke="#63b8ff" points="478.83,-18.5 488.83,-15 478.83,-11.5 478.83,-18.5"/>
</a>
</g>
</g>
<!-- Node4 -->
<g id="Node000004" class="node">
<title>Node4</title>
<g id="a_Node000004"><a xlink:href="update__objects_8c.html#adb84f91341a8ce4d15d3242630d3e5e2" target="_top" xlink:title=" ">
<polygon fill="white" stroke="#666666" points="325,-24.5 200,-24.5 200,-5.5 325,-5.5 325,-24.5"/>
<text text-anchor="middle" x="262.5" y="-12.5" font-family="Helvetica,sans-Serif" font-size="10.00">update_flame_particle</text>
</a>
</g>
</g>
<!-- Node3&#45;&gt;Node4 -->
<g id="edge3_Node000003_Node000004" class="edge">
<title>Node3&#45;&gt;Node4</title>
<g id="a_edge3_Node000003_Node000004"><a xlink:title=" ">
<path fill="none" stroke="#63b8ff" d="M350.86,-15C342.46,-15 333.75,-15 325.23,-15"/>
<polygon fill="#63b8ff" stroke="#63b8ff" points="350.91,-18.5 360.91,-15 350.91,-11.5 350.91,-18.5"/>
</a>
</g>
</g>
<!-- Node5 -->
<g id="Node000005" class="node">
<title>Node5</title>
<g id="a_Node000005"><a xlink:href="classBowsersCastle.html#a7df11a91ef164c44a231dfe74fdab745" target="_top" xlink:title=" ">
<polygon fill="white" stroke="#666666" points="164,-30 0,-30 0,0 164,0 164,-30"/>
<text text-anchor="start" x="8" y="-18" font-family="Helvetica,sans-Serif" font-size="10.00">BowsersCastle::UpdateCourse</text>
<text text-anchor="middle" x="82" y="-7" font-family="Helvetica,sans-Serif" font-size="10.00">Objects</text>
</a>
</g>
</g>
<!-- Node4&#45;&gt;Node5 -->
<g id="edge4_Node000004_Node000005" class="edge">
<title>Node4&#45;&gt;Node5</title>
<g id="a_edge4_Node000004_Node000005"><a xlink:title=" ">
<path fill="none" stroke="#63b8ff" d="M189.71,-15C181.32,-15 172.71,-15 164.2,-15"/>
<polygon fill="#63b8ff" stroke="#63b8ff" points="189.82,-18.5 199.82,-15 189.82,-11.5 189.82,-18.5"/>
</a>
</g>
</g>
</g>
</svg>
