<?xml version="1.0" encoding="UTF-8" standalone="no"?>
<!DOCTYPE svg PUBLIC "-//W3C//DTD SVG 1.1//EN"
 "http://www.w3.org/Graphics/SVG/1.1/DTD/svg11.dtd">
<!-- Generated by graphviz version 2.43.0 (0)
 -->
<!-- Title: func_8007B040 Pages: 1 -->
<svg width="706pt" height="221pt"
 viewBox="0.00 0.00 706.00 220.67" xmlns="http://www.w3.org/2000/svg" xmlns:xlink="http://www.w3.org/1999/xlink">
<g id="graph0" class="graph" transform="scale(1 1) rotate(0) translate(4 216.67)">
<title>func_8007B040</title>
<!-- Node1 -->
<g id="Node000001" class="node">
<title>Node1</title>
<g id="a_Node000001"><a xlink:title=" ">
<polygon fill="#999999" stroke="#666666" points="92,-119.67 0,-119.67 0,-100.67 92,-100.67 92,-119.67"/>
<text text-anchor="middle" x="46" y="-107.67" font-family="Helvetica,sans-Serif" font-size="10.00">func_8007B040</text>
</a>
</g>
</g>
<!-- Node2 -->
<g id="Node000002" class="node">
<title>Node2</title>
<g id="a_Node000002"><a xlink:href="update__objects_8c.html#a2c88cc32dff07c6af5fe74d00b9fa279" target="_top" xlink:title=" ">
<polygon fill="white" stroke="#666666" points="246,-212.67 154,-212.67 154,-193.67 246,-193.67 246,-212.67"/>
<text text-anchor="middle" x="200" y="-200.67" font-family="Helvetica,sans-Serif" font-size="10.00">func_800722A4</text>
</a>
</g>
</g>
<!-- Node1&#45;&gt;Node2 -->
<g id="edge1_Node000001_Node000002" class="edge">
<title>Node1&#45;&gt;Node2</title>
<g id="a_edge1_Node000001_Node000002"><a xlink:title=" ">
<path fill="none" stroke="#63b8ff" d="M54.62,-119.85C67.8,-135.93 96.51,-168.06 128,-185.17 133.08,-187.93 138.6,-190.28 144.24,-192.27"/>
<polygon fill="#63b8ff" stroke="#63b8ff" points="143.19,-195.61 153.78,-195.31 145.31,-188.94 143.19,-195.61"/>
</a>
</g>
</g>
<!-- Node3 -->
<g id="Node000003" class="node">
<title>Node3</title>
<g id="a_Node000003"><a xlink:href="update__objects_8c.html#aaece45bd6baf5aaf797c872a6e105604" target="_top" xlink:title=" ">
<polygon fill="white" stroke="#666666" points="246,-175.67 154,-175.67 154,-156.67 246,-156.67 246,-175.67"/>
<text text-anchor="middle" x="200" y="-163.67" font-family="Helvetica,sans-Serif" font-size="10.00">func_800722CC</text>
</a>
</g>
</g>
<!-- Node1&#45;&gt;Node3 -->
<g id="edge2_Node000001_Node000003" class="edge">
<title>Node1&#45;&gt;Node3</title>
<g id="a_edge2_Node000001_Node000003"><a xlink:title=" ">
<path fill="none" stroke="#63b8ff" d="M64.92,-119.79C81.06,-128.16 105.62,-140.17 128,-148.17 133.81,-150.25 139.98,-152.19 146.15,-153.96"/>
<polygon fill="#63b8ff" stroke="#63b8ff" points="145.23,-157.34 155.8,-156.62 147.09,-150.59 145.23,-157.34"/>
</a>
</g>
</g>
<!-- Node4 -->
<g id="Node000004" class="node">
<title>Node4</title>
<g id="a_Node000004"><a xlink:href="update__objects_8c.html#a6eafc39608c664ff3d5b832ffb629b12" target="_top" xlink:title=" ">
<polygon fill="white" stroke="#666666" points="245.5,-138.67 154.5,-138.67 154.5,-119.67 245.5,-119.67 245.5,-138.67"/>
<text text-anchor="middle" x="200" y="-126.67" font-family="Helvetica,sans-Serif" font-size="10.00">func_80072320</text>
</a>
</g>
</g>
<!-- Node1&#45;&gt;Node4 -->
<g id="edge3_Node000001_Node000004" class="edge">
<title>Node1&#45;&gt;Node4</title>
<g id="a_edge3_Node000001_Node000004"><a xlink:title=" ">
<path fill="none" stroke="#63b8ff" d="M92.19,-115.82C108.43,-117.85 126.92,-120.16 143.9,-122.28"/>
<polygon fill="#63b8ff" stroke="#63b8ff" points="143.89,-125.81 154.24,-123.57 144.75,-118.86 143.89,-125.81"/>
</a>
</g>
</g>
<!-- Node5 -->
<g id="Node000005" class="node">
<title>Node5</title>
<g id="a_Node000005"><a xlink:href="external_8c.html#a2be9efc97a92e19d02aaee90d676acc1" target="_top" xlink:title=" ">
<polygon fill="white" stroke="#666666" points="246,-101.67 154,-101.67 154,-82.67 246,-82.67 246,-101.67"/>
<text text-anchor="middle" x="200" y="-89.67" font-family="Helvetica,sans-Serif" font-size="10.00">func_800C9060</text>
</a>
</g>
</g>
<!-- Node1&#45;&gt;Node5 -->
<g id="edge4_Node000001_Node000005" class="edge">
<title>Node1&#45;&gt;Node5</title>
<g id="a_edge4_Node000001_Node000005"><a xlink:title=" ">
<path fill="none" stroke="#63b8ff" d="M92.19,-104.82C108.35,-102.9 126.75,-100.73 143.67,-98.72"/>
<polygon fill="#63b8ff" stroke="#63b8ff" points="144.46,-102.15 153.98,-97.5 143.64,-95.2 144.46,-102.15"/>
</a>
</g>
</g>
<!-- Node7 -->
<g id="Node000007" class="node">
<title>Node7</title>
<g id="a_Node000007"><a xlink:href="update__objects_8c.html#a475d92dfa4779b85886956f18cc59a0c" target="_top" xlink:title=" ">
<polygon fill="white" stroke="#666666" points="272,-64.67 128,-64.67 128,-45.67 272,-45.67 272,-64.67"/>
<text text-anchor="middle" x="200" y="-52.67" font-family="Helvetica,sans-Serif" font-size="10.00">gen_random_item_human</text>
</a>
</g>
</g>
<!-- Node1&#45;&gt;Node7 -->
<g id="edge6_Node000001_Node000007" class="edge">
<title>Node1&#45;&gt;Node7</title>
<g id="a_edge6_Node000001_Node000007"><a xlink:title=" ">
<path fill="none" stroke="#63b8ff" d="M66.29,-100.57C82.49,-92.75 106.38,-81.81 128,-74.17 134.78,-71.77 142.02,-69.51 149.18,-67.44"/>
<polygon fill="#63b8ff" stroke="#63b8ff" points="150.17,-70.8 158.86,-64.74 148.29,-64.05 150.17,-70.8"/>
</a>
</g>
</g>
<!-- Node10 -->
<g id="Node000010" class="node">
<title>Node10</title>
<g id="a_Node000010"><a xlink:href="math__util_8c.html#a151b63b8adf9af7e4054b3b84bd226dc" target="_top" xlink:title=" ">
<polygon fill="white" stroke="#666666" points="536,-23.67 464,-23.67 464,-4.67 536,-4.67 536,-23.67"/>
<text text-anchor="middle" x="500" y="-11.67" font-family="Helvetica,sans-Serif" font-size="10.00">random_int</text>
</a>
</g>
</g>
<!-- Node1&#45;&gt;Node10 -->
<g id="edge13_Node000001_Node000010" class="edge">
<title>Node1&#45;&gt;Node10</title>
<g id="a_edge13_Node000001_Node000010"><a xlink:title=" ">
<path fill="none" stroke="#63b8ff" d="M53.93,-100.5C66.49,-83.84 94.84,-50.18 128,-36.17 237.48,10.08 381.47,1.17 453.64,-7.47"/>
<polygon fill="#63b8ff" stroke="#63b8ff" points="453.4,-10.97 463.76,-8.74 454.27,-4.02 453.4,-10.97"/>
</a>
</g>
</g>
<!-- Node6 -->
<g id="Node000006" class="node">
<title>Node6</title>
<g id="a_Node000006"><a xlink:href="external_8c.html#a475cff796211891556f52877cd8e9b9e" target="_top" xlink:title=" ">
<polygon fill="white" stroke="#666666" points="396.5,-101.67 324.5,-101.67 324.5,-82.67 396.5,-82.67 396.5,-101.67"/>
<text text-anchor="middle" x="360.5" y="-89.67" font-family="Helvetica,sans-Serif" font-size="10.00">play_sound</text>
</a>
</g>
</g>
<!-- Node5&#45;&gt;Node6 -->
<g id="edge5_Node000005_Node000006" class="edge">
<title>Node5&#45;&gt;Node6</title>
<g id="a_edge5_Node000005_Node000006"><a xlink:title=" ">
<path fill="none" stroke="#63b8ff" d="M246.42,-92.17C267.72,-92.17 293.04,-92.17 314.32,-92.17"/>
<polygon fill="#63b8ff" stroke="#63b8ff" points="314.4,-95.67 324.4,-92.17 314.4,-88.67 314.4,-95.67"/>
</a>
</g>
</g>
<!-- Node8 -->
<g id="Node000008" class="node">
<title>Node8</title>
<g id="a_Node000008"><a xlink:href="update__objects_8c.html#a456e12fbd8dfd73574b91d4a860e12a2" target="_top" xlink:title=" ">
<polygon fill="white" stroke="#666666" points="413,-64.67 308,-64.67 308,-45.67 413,-45.67 413,-64.67"/>
<text text-anchor="middle" x="360.5" y="-52.67" font-family="Helvetica,sans-Serif" font-size="10.00">gen_random_item</text>
</a>
</g>
</g>
<!-- Node7&#45;&gt;Node8 -->
<g id="edge7_Node000007_Node000008" class="edge">
<title>Node7&#45;&gt;Node8</title>
<g id="a_edge7_Node000007_Node000008"><a xlink:title=" ">
<path fill="none" stroke="#63b8ff" d="M272.37,-55.17C280.9,-55.17 289.55,-55.17 297.92,-55.17"/>
<polygon fill="#63b8ff" stroke="#63b8ff" points="297.97,-58.67 307.97,-55.17 297.97,-51.67 297.97,-58.67"/>
</a>
</g>
</g>
<!-- Node9 -->
<g id="Node000009" class="node">
<title>Node9</title>
<g id="a_Node000009"><a xlink:href="update__objects_8c.html#ad088fd4ce9beca25bd05ffb28cf99247" target="_top" xlink:title=" ">
<polygon fill="white" stroke="#666666" points="698,-87.67 587,-87.67 587,-68.67 698,-68.67 698,-87.67"/>
<text text-anchor="middle" x="642.5" y="-75.67" font-family="Helvetica,sans-Serif" font-size="10.00">getProbabilityArray</text>
</a>
</g>
</g>
<!-- Node8&#45;&gt;Node9 -->
<g id="edge8_Node000008_Node000009" class="edge">
<title>Node8&#45;&gt;Node9</title>
<g id="a_edge8_Node000008_Node000009"><a xlink:title=" ">
<path fill="none" stroke="#63b8ff" d="M386.72,-64.78C403.97,-70.82 427.52,-78.05 449,-81.17 491.18,-87.3 539.1,-86.58 576.57,-84.31"/>
<polygon fill="#63b8ff" stroke="#63b8ff" points="577.1,-87.79 586.85,-83.64 576.65,-80.8 577.1,-87.79"/>
</a>
</g>
</g>
<!-- Node8&#45;&gt;Node10 -->
<g id="edge9_Node000008_Node000010" class="edge">
<title>Node8&#45;&gt;Node10</title>
<g id="a_edge9_Node000008_Node000010"><a xlink:title=" ">
<path fill="none" stroke="#63b8ff" d="M393.39,-45.66C412.34,-40.01 436.6,-32.77 457.09,-26.67"/>
<polygon fill="#63b8ff" stroke="#63b8ff" points="458.22,-29.98 466.81,-23.77 456.22,-23.27 458.22,-29.98"/>
</a>
</g>
</g>
<!-- Node12 -->
<g id="Node000012" class="node">
<title>Node12</title>
<g id="a_Node000012"><a xlink:href="update__objects_8c.html#a3aaa8e38eb0600810c23ff7d14f0ef30" target="_top" xlink:title=" ">
<polygon fill="white" stroke="#666666" points="551,-72.17 449,-72.17 449,-42.17 551,-42.17 551,-72.17"/>
<text text-anchor="start" x="457" y="-60.17" font-family="Helvetica,sans-Serif" font-size="10.00">verify_probability</text>
<text text-anchor="middle" x="500" y="-49.17" font-family="Helvetica,sans-Serif" font-size="10.00">_table</text>
</a>
</g>
</g>
<!-- Node8&#45;&gt;Node12 -->
<g id="edge11_Node000008_Node000012" class="edge">
<title>Node8&#45;&gt;Node12</title>
<g id="a_edge11_Node000008_Node000012"><a xlink:title=" ">
<path fill="none" stroke="#63b8ff" d="M413.09,-55.92C421.43,-56.04 430.14,-56.17 438.67,-56.29"/>
<polygon fill="#63b8ff" stroke="#63b8ff" points="438.89,-59.8 448.94,-56.44 439,-52.8 438.89,-59.8"/>
</a>
</g>
</g>
<!-- Node11 -->
<g id="Node000011" class="node">
<title>Node11</title>
<g id="a_Node000011"><a xlink:href="math__util_8c.html#a062850863585005ad1d0a75d9ff70693" target="_top" xlink:title=" ">
<polygon fill="white" stroke="#666666" points="681,-23.67 604,-23.67 604,-4.67 681,-4.67 681,-23.67"/>
<text text-anchor="middle" x="642.5" y="-11.67" font-family="Helvetica,sans-Serif" font-size="10.00">random_u16</text>
</a>
</g>
</g>
<!-- Node10&#45;&gt;Node11 -->
<g id="edge10_Node000010_Node000011" class="edge">
<title>Node10&#45;&gt;Node11</title>
<g id="a_edge10_Node000010_Node000011"><a xlink:title=" ">
<path fill="none" stroke="#63b8ff" d="M536.09,-14.17C553.51,-14.17 574.82,-14.17 593.7,-14.17"/>
<polygon fill="#63b8ff" stroke="#63b8ff" points="593.9,-17.67 603.9,-14.17 593.9,-10.67 593.9,-17.67"/>
</a>
</g>
</g>
<!-- Node12&#45;&gt;Node9 -->
<g id="edge12_Node000012_Node000009" class="edge">
<title>Node12&#45;&gt;Node9</title>
<g id="a_edge12_Node000012_Node000009"><a xlink:title=" ">
<path fill="none" stroke="#63b8ff" d="M551.33,-64.69C559.59,-65.93 568.25,-67.22 576.81,-68.5"/>
<polygon fill="#63b8ff" stroke="#63b8ff" points="576.36,-71.97 586.77,-69.99 577.39,-65.05 576.36,-71.97"/>
</a>
</g>
</g>
</g>
</svg>
