<?xml version="1.0" encoding="UTF-8" standalone="no"?>
<!DOCTYPE svg PUBLIC "-//W3C//DTD SVG 1.1//EN"
 "http://www.w3.org/Graphics/SVG/1.1/DTD/svg11.dtd">
<!-- Generated by graphviz version 2.43.0 (0)
 -->
<!-- Title: func_8007E3EC Pages: 1 -->
<svg width="416pt" height="38pt"
 viewBox="0.00 0.00 416.00 38.00" xmlns="http://www.w3.org/2000/svg" xmlns:xlink="http://www.w3.org/1999/xlink">
<g id="graph0" class="graph" transform="scale(1 1) rotate(0) translate(4 34)">
<title>func_8007E3EC</title>
<!-- Node1 -->
<g id="Node000001" class="node">
<title>Node1</title>
<g id="a_Node000001"><a xlink:title=" ">
<polygon fill="#999999" stroke="#666666" points="408,-24.5 316,-24.5 316,-5.5 408,-5.5 408,-24.5"/>
<text text-anchor="middle" x="362" y="-12.5" font-family="Helvetica,sans-Serif" font-size="10.00">func_8007E3EC</text>
</a>
</g>
</g>
<!-- Node2 -->
<g id="Node000002" class="node">
<title>Node2</title>
<g id="a_Node000002"><a xlink:href="update__objects_8c.html#ac8b268e6a216ed165f6d9ba102367fd7" target="_top" xlink:title=" ">
<polygon fill="white" stroke="#666666" points="280,-24.5 188,-24.5 188,-5.5 280,-5.5 280,-24.5"/>
<text text-anchor="middle" x="234" y="-12.5" font-family="Helvetica,sans-Serif" font-size="10.00">func_8007E4C4</text>
</a>
</g>
</g>
<!-- Node1&#45;&gt;Node2 -->
<g id="edge1_Node000001_Node000002" class="edge">
<title>Node1&#45;&gt;Node2</title>
<g id="a_edge1_Node000001_Node000002"><a xlink:title=" ">
<path fill="none" stroke="#63b8ff" d="M305.65,-15C297.16,-15 288.48,-15 280.24,-15"/>
<polygon fill="#63b8ff" stroke="#63b8ff" points="305.87,-18.5 315.87,-15 305.87,-11.5 305.87,-18.5"/>
</a>
</g>
</g>
<!-- Node3 -->
<g id="Node000003" class="node">
<title>Node3</title>
<g id="a_Node000003"><a xlink:href="classBansheeBoardwalk.html#a9b8d7ccc5ccef6ae5ae56ab2949f24cd" target="_top" xlink:title=" ">
<polygon fill="white" stroke="#666666" points="152,-30 0,-30 0,0 152,0 152,-30"/>
<text text-anchor="start" x="8" y="-18" font-family="Helvetica,sans-Serif" font-size="10.00">BansheeBoardwalk::Update</text>
<text text-anchor="middle" x="76" y="-7" font-family="Helvetica,sans-Serif" font-size="10.00">CourseObjects</text>
</a>
</g>
</g>
<!-- Node2&#45;&gt;Node3 -->
<g id="edge2_Node000002_Node000003" class="edge">
<title>Node2&#45;&gt;Node3</title>
<g id="a_edge2_Node000002_Node000003"><a xlink:title=" ">
<path fill="none" stroke="#63b8ff" d="M177.68,-15C169.45,-15 160.85,-15 152.29,-15"/>
<polygon fill="#63b8ff" stroke="#63b8ff" points="177.88,-18.5 187.88,-15 177.88,-11.5 177.88,-18.5"/>
</a>
</g>
</g>
</g>
</svg>
