<?xml version="1.0" encoding="UTF-8" standalone="no"?>
<!DOCTYPE svg PUBLIC "-//W3C//DTD SVG 1.1//EN"
 "http://www.w3.org/Graphics/SVG/1.1/DTD/svg11.dtd">
<!-- Generated by graphviz version 2.43.0 (0)
 -->
<!-- Title: gen_random_item_human Pages: 1 -->
<svg width="578pt" height="91pt"
 viewBox="0.00 0.00 578.00 91.00" xmlns="http://www.w3.org/2000/svg" xmlns:xlink="http://www.w3.org/1999/xlink">
<g id="graph0" class="graph" transform="scale(1 1) rotate(0) translate(4 87)">
<title>gen_random_item_human</title>
<!-- Node1 -->
<g id="Node000001" class="node">
<title>Node1</title>
<g id="a_Node000001"><a xlink:title=" ">
<polygon fill="#999999" stroke="#666666" points="144,-62 0,-62 0,-43 144,-43 144,-62"/>
<text text-anchor="middle" x="72" y="-50" font-family="Helvetica,sans-Serif" font-size="10.00">gen_random_item_human</text>
</a>
</g>
</g>
<!-- Node2 -->
<g id="Node000002" class="node">
<title>Node2</title>
<g id="a_Node000002"><a xlink:href="update__objects_8c.html#a456e12fbd8dfd73574b91d4a860e12a2" target="_top" xlink:title=" ">
<polygon fill="white" stroke="#666666" points="285,-62 180,-62 180,-43 285,-43 285,-62"/>
<text text-anchor="middle" x="232.5" y="-50" font-family="Helvetica,sans-Serif" font-size="10.00">gen_random_item</text>
</a>
</g>
</g>
<!-- Node1&#45;&gt;Node2 -->
<g id="edge1_Node000001_Node000002" class="edge">
<title>Node1&#45;&gt;Node2</title>
<g id="a_edge1_Node000001_Node000002"><a xlink:title=" ">
<path fill="none" stroke="#63b8ff" d="M144.37,-52.5C152.9,-52.5 161.55,-52.5 169.92,-52.5"/>
<polygon fill="#63b8ff" stroke="#63b8ff" points="169.97,-56 179.97,-52.5 169.97,-49 169.97,-56"/>
</a>
</g>
</g>
<!-- Node3 -->
<g id="Node000003" class="node">
<title>Node3</title>
<g id="a_Node000003"><a xlink:href="update__objects_8c.html#ad088fd4ce9beca25bd05ffb28cf99247" target="_top" xlink:title=" ">
<polygon fill="white" stroke="#666666" points="570,-83 459,-83 459,-64 570,-64 570,-83"/>
<text text-anchor="middle" x="514.5" y="-71" font-family="Helvetica,sans-Serif" font-size="10.00">getProbabilityArray</text>
</a>
</g>
</g>
<!-- Node2&#45;&gt;Node3 -->
<g id="edge2_Node000002_Node000003" class="edge">
<title>Node2&#45;&gt;Node3</title>
<g id="a_edge2_Node000002_Node000003"><a xlink:title=" ">
<path fill="none" stroke="#63b8ff" d="M261.08,-62.11C278.12,-67.53 300.55,-73.75 321,-76.5 363.24,-82.19 411.16,-81.47 448.62,-79.31"/>
<polygon fill="#63b8ff" stroke="#63b8ff" points="449.13,-82.78 458.9,-78.66 448.7,-75.8 449.13,-82.78"/>
</a>
</g>
</g>
<!-- Node4 -->
<g id="Node000004" class="node">
<title>Node4</title>
<g id="a_Node000004"><a xlink:href="math__util_8c.html#a151b63b8adf9af7e4054b3b84bd226dc" target="_top" xlink:title=" ">
<polygon fill="white" stroke="#666666" points="408,-19 336,-19 336,0 408,0 408,-19"/>
<text text-anchor="middle" x="372" y="-7" font-family="Helvetica,sans-Serif" font-size="10.00">random_int</text>
</a>
</g>
</g>
<!-- Node2&#45;&gt;Node4 -->
<g id="edge3_Node000002_Node000004" class="edge">
<title>Node2&#45;&gt;Node4</title>
<g id="a_edge3_Node000002_Node000004"><a xlink:title=" ">
<path fill="none" stroke="#63b8ff" d="M264.02,-42.96C283.69,-36.81 309.48,-28.74 330.81,-22.07"/>
<polygon fill="#63b8ff" stroke="#63b8ff" points="332.07,-25.34 340.57,-19.02 329.98,-18.66 332.07,-25.34"/>
</a>
</g>
</g>
<!-- Node6 -->
<g id="Node000006" class="node">
<title>Node6</title>
<g id="a_Node000006"><a xlink:href="update__objects_8c.html#a3aaa8e38eb0600810c23ff7d14f0ef30" target="_top" xlink:title=" ">
<polygon fill="white" stroke="#666666" points="423,-67.5 321,-67.5 321,-37.5 423,-37.5 423,-67.5"/>
<text text-anchor="start" x="329" y="-55.5" font-family="Helvetica,sans-Serif" font-size="10.00">verify_probability</text>
<text text-anchor="middle" x="372" y="-44.5" font-family="Helvetica,sans-Serif" font-size="10.00">_table</text>
</a>
</g>
</g>
<!-- Node2&#45;&gt;Node6 -->
<g id="edge5_Node000002_Node000006" class="edge">
<title>Node2&#45;&gt;Node6</title>
<g id="a_edge5_Node000002_Node000006"><a xlink:title=" ">
<path fill="none" stroke="#63b8ff" d="M285.09,-52.5C293.43,-52.5 302.14,-52.5 310.67,-52.5"/>
<polygon fill="#63b8ff" stroke="#63b8ff" points="310.94,-56 320.94,-52.5 310.94,-49 310.94,-56"/>
</a>
</g>
</g>
<!-- Node5 -->
<g id="Node000005" class="node">
<title>Node5</title>
<g id="a_Node000005"><a xlink:href="math__util_8c.html#a062850863585005ad1d0a75d9ff70693" target="_top" xlink:title=" ">
<polygon fill="white" stroke="#666666" points="553,-19 476,-19 476,0 553,0 553,-19"/>
<text text-anchor="middle" x="514.5" y="-7" font-family="Helvetica,sans-Serif" font-size="10.00">random_u16</text>
</a>
</g>
</g>
<!-- Node4&#45;&gt;Node5 -->
<g id="edge4_Node000004_Node000005" class="edge">
<title>Node4&#45;&gt;Node5</title>
<g id="a_edge4_Node000004_Node000005"><a xlink:title=" ">
<path fill="none" stroke="#63b8ff" d="M408.09,-9.5C425.51,-9.5 446.82,-9.5 465.7,-9.5"/>
<polygon fill="#63b8ff" stroke="#63b8ff" points="465.9,-13 475.9,-9.5 465.9,-6 465.9,-13"/>
</a>
</g>
</g>
<!-- Node6&#45;&gt;Node3 -->
<g id="edge6_Node000006_Node000003" class="edge">
<title>Node6&#45;&gt;Node3</title>
<g id="a_edge6_Node000006_Node000003"><a xlink:title=" ">
<path fill="none" stroke="#63b8ff" d="M423.33,-60.02C431.59,-61.26 440.25,-62.55 448.81,-63.83"/>
<polygon fill="#63b8ff" stroke="#63b8ff" points="448.36,-67.3 458.77,-65.32 449.39,-60.38 448.36,-67.3"/>
</a>
</g>
</g>
</g>
</svg>
