<?xml version="1.0" encoding="UTF-8" standalone="no"?>
<!DOCTYPE svg PUBLIC "-//W3C//DTD SVG 1.1//EN"
 "http://www.w3.org/Graphics/SVG/1.1/DTD/svg11.dtd">
<!-- Generated by graphviz version 2.43.0 (0)
 -->
<!-- Title: func_80078790 Pages: 1 -->
<svg width="453pt" height="38pt"
 viewBox="0.00 0.00 453.00 38.00" xmlns="http://www.w3.org/2000/svg" xmlns:xlink="http://www.w3.org/1999/xlink">
<g id="graph0" class="graph" transform="scale(1 1) rotate(0) translate(4 34)">
<title>func_80078790</title>
<!-- Node1 -->
<g id="Node000001" class="node">
<title>Node1</title>
<g id="a_Node000001"><a xlink:title=" ">
<polygon fill="#999999" stroke="#666666" points="445,-24.5 354,-24.5 354,-5.5 445,-5.5 445,-24.5"/>
<text text-anchor="middle" x="399.5" y="-12.5" font-family="Helvetica,sans-Serif" font-size="10.00">func_80078790</text>
</a>
</g>
</g>
<!-- Node2 -->
<g id="Node000002" class="node">
<title>Node2</title>
<g id="a_Node000002"><a xlink:href="update__objects_8c.html#aa48fd49d06dac7e1948b468b4f260477" target="_top" xlink:title=" ">
<polygon fill="white" stroke="#666666" points="318,-24.5 208,-24.5 208,-5.5 318,-5.5 318,-24.5"/>
<text text-anchor="middle" x="263" y="-12.5" font-family="Helvetica,sans-Serif" font-size="10.00">update_snowflakes</text>
</a>
</g>
</g>
<!-- Node1&#45;&gt;Node2 -->
<g id="edge1_Node000001_Node000002" class="edge">
<title>Node1&#45;&gt;Node2</title>
<g id="a_edge1_Node000001_Node000002"><a xlink:title=" ">
<path fill="none" stroke="#63b8ff" d="M343.7,-15C335.36,-15 326.75,-15 318.41,-15"/>
<polygon fill="#63b8ff" stroke="#63b8ff" points="343.71,-18.5 353.71,-15 343.71,-11.5 343.71,-18.5"/>
</a>
</g>
</g>
<!-- Node3 -->
<g id="Node000003" class="node">
<title>Node3</title>
<g id="a_Node000003"><a xlink:href="classFrappeSnowland.html#ae22725da914e172f2917b576831315aa" target="_top" xlink:title=" ">
<polygon fill="white" stroke="#666666" points="172,-30 0,-30 0,0 172,0 172,-30"/>
<text text-anchor="start" x="8" y="-18" font-family="Helvetica,sans-Serif" font-size="10.00">FrappeSnowland::UpdateCourse</text>
<text text-anchor="middle" x="86" y="-7" font-family="Helvetica,sans-Serif" font-size="10.00">Objects</text>
</a>
</g>
</g>
<!-- Node2&#45;&gt;Node3 -->
<g id="edge2_Node000002_Node000003" class="edge">
<title>Node2&#45;&gt;Node3</title>
<g id="a_edge2_Node000002_Node000003"><a xlink:title=" ">
<path fill="none" stroke="#63b8ff" d="M197.38,-15C189.18,-15 180.69,-15 172.23,-15"/>
<polygon fill="#63b8ff" stroke="#63b8ff" points="197.59,-18.5 207.59,-15 197.59,-11.5 197.59,-18.5"/>
</a>
</g>
</g>
</g>
</svg>
