<?xml version="1.0" encoding="UTF-8" standalone="no"?>
<!DOCTYPE svg PUBLIC "-//W3C//DTD SVG 1.1//EN"
 "http://www.w3.org/Graphics/SVG/1.1/DTD/svg11.dtd">
<!-- Generated by graphviz version 2.43.0 (0)
 -->
<!-- Title: func_8007B34C Pages: 1 -->
<svg width="895pt" height="901pt"
 viewBox="0.00 0.00 895.00 901.00" xmlns="http://www.w3.org/2000/svg" xmlns:xlink="http://www.w3.org/1999/xlink">
<g id="graph0" class="graph" transform="scale(1 1) rotate(0) translate(4 897)">
<title>func_8007B34C</title>
<!-- Node1 -->
<g id="Node000001" class="node">
<title>Node1</title>
<g id="a_Node000001"><a xlink:title=" ">
<polygon fill="#999999" stroke="#666666" points="92,-462 0,-462 0,-443 92,-443 92,-462"/>
<text text-anchor="middle" x="46" y="-450" font-family="Helvetica,sans-Serif" font-size="10.00">func_8007B34C</text>
</a>
</g>
</g>
<!-- Node2 -->
<g id="Node000002" class="node">
<title>Node2</title>
<g id="a_Node000002"><a xlink:href="update__objects_8c.html#abe0750bafe0e01a419bd8a8ad6b59bd5" target="_top" xlink:title=" ">
<polygon fill="white" stroke="#666666" points="244,-519 155,-519 155,-500 244,-500 244,-519"/>
<text text-anchor="middle" x="199.5" y="-507" font-family="Helvetica,sans-Serif" font-size="10.00">consume_item</text>
</a>
</g>
</g>
<!-- Node1&#45;&gt;Node2 -->
<g id="edge1_Node000001_Node000002" class="edge">
<title>Node1&#45;&gt;Node2</title>
<g id="a_edge1_Node000001_Node000002"><a xlink:title=" ">
<path fill="none" stroke="#63b8ff" d="M69.55,-462.1C85.73,-468.89 108.09,-478.06 128,-485.5 138.19,-489.31 149.29,-493.2 159.61,-496.72"/>
<polygon fill="#63b8ff" stroke="#63b8ff" points="158.61,-500.08 169.21,-499.96 160.85,-493.44 158.61,-500.08"/>
</a>
</g>
</g>
<!-- Node4 -->
<g id="Node000004" class="node">
<title>Node4</title>
<g id="a_Node000004"><a xlink:href="update__objects_8c.html#aaece45bd6baf5aaf797c872a6e105604" target="_top" xlink:title=" ">
<polygon fill="white" stroke="#666666" points="425,-706 333,-706 333,-687 425,-687 425,-706"/>
<text text-anchor="middle" x="379" y="-694" font-family="Helvetica,sans-Serif" font-size="10.00">func_800722CC</text>
</a>
</g>
</g>
<!-- Node1&#45;&gt;Node4 -->
<g id="edge9_Node000001_Node000004" class="edge">
<title>Node1&#45;&gt;Node4</title>
<g id="a_edge9_Node000001_Node000004"><a xlink:title=" ">
<path fill="none" stroke="#63b8ff" d="M47.34,-462.19C49.12,-496.55 60.12,-613.36 128,-666.5 183.25,-709.75 267.5,-710.56 322.66,-705.15"/>
<polygon fill="#63b8ff" stroke="#63b8ff" points="323.04,-708.62 332.61,-704.07 322.29,-701.66 323.04,-708.62"/>
</a>
</g>
</g>
<!-- Node5 -->
<g id="Node000005" class="node">
<title>Node5</title>
<g id="a_Node000005"><a xlink:href="update__objects_8c.html#ab7e91b1ebcbec57dfed6e185a2f67580" target="_top" xlink:title=" ">
<polygon fill="white" stroke="#666666" points="424.5,-445 333.5,-445 333.5,-426 424.5,-426 424.5,-445"/>
<text text-anchor="middle" x="379" y="-433" font-family="Helvetica,sans-Serif" font-size="10.00">func_80072354</text>
</a>
</g>
</g>
<!-- Node1&#45;&gt;Node5 -->
<g id="edge11_Node000001_Node000005" class="edge">
<title>Node1&#45;&gt;Node5</title>
<g id="a_edge11_Node000001_Node000005"><a xlink:title=" ">
<path fill="none" stroke="#63b8ff" d="M92.33,-450.17C152.58,-447.08 258.94,-441.62 323.49,-438.3"/>
<polygon fill="#63b8ff" stroke="#63b8ff" points="323.67,-441.79 333.48,-437.79 323.32,-434.8 323.67,-441.79"/>
</a>
</g>
</g>
<!-- Node6 -->
<g id="Node000006" class="node">
<title>Node6</title>
<g id="a_Node000006"><a xlink:href="update__objects_8c.html#a6433786e30fbe8c3dc83f83c9f2c35f9" target="_top" xlink:title=" ">
<polygon fill="white" stroke="#666666" points="425,-558 333,-558 333,-539 425,-539 425,-558"/>
<text text-anchor="middle" x="379" y="-546" font-family="Helvetica,sans-Serif" font-size="10.00">func_800726CC</text>
</a>
</g>
</g>
<!-- Node1&#45;&gt;Node6 -->
<g id="edge16_Node000001_Node000006" class="edge">
<title>Node1&#45;&gt;Node6</title>
<g id="a_edge16_Node000001_Node000006"><a xlink:title=" ">
<path fill="none" stroke="#63b8ff" d="M53.69,-462.09C66.11,-478.99 94.5,-513.67 128,-528.5 190.52,-556.17 270.41,-557.42 322.83,-554.25"/>
<polygon fill="#63b8ff" stroke="#63b8ff" points="323.2,-557.74 332.94,-553.57 322.72,-550.75 323.2,-557.74"/>
</a>
</g>
</g>
<!-- Node9 -->
<g id="Node000009" class="node">
<title>Node9</title>
<g id="a_Node000009"><a xlink:href="update__objects_8c.html#a6eafc39608c664ff3d5b832ffb629b12" target="_top" xlink:title=" ">
<polygon fill="white" stroke="#666666" points="424.5,-819 333.5,-819 333.5,-800 424.5,-800 424.5,-819"/>
<text text-anchor="middle" x="379" y="-807" font-family="Helvetica,sans-Serif" font-size="10.00">func_80072320</text>
</a>
</g>
</g>
<!-- Node1&#45;&gt;Node9 -->
<g id="edge10_Node000001_Node000009" class="edge">
<title>Node1&#45;&gt;Node9</title>
<g id="a_edge10_Node000001_Node000009"><a xlink:title=" ">
<path fill="none" stroke="#63b8ff" d="M48.23,-462.29C54.38,-509.61 83.25,-714 128,-756.5 180.24,-806.12 266.8,-814.11 323.12,-813.33"/>
<polygon fill="#63b8ff" stroke="#63b8ff" points="323.36,-816.82 333.27,-813.08 323.19,-809.82 323.36,-816.82"/>
</a>
</g>
</g>
<!-- Node10 -->
<g id="Node000010" class="node">
<title>Node10</title>
<g id="a_Node000010"><a xlink:href="update__objects_8c.html#a5978ef1e35515c275f92eb79b8601d77" target="_top" xlink:title=" ">
<polygon fill="white" stroke="#666666" points="424.5,-521 333.5,-521 333.5,-502 424.5,-502 424.5,-521"/>
<text text-anchor="middle" x="379" y="-509" font-family="Helvetica,sans-Serif" font-size="10.00">func_80072428</text>
</a>
</g>
</g>
<!-- Node1&#45;&gt;Node10 -->
<g id="edge12_Node000001_Node000010" class="edge">
<title>Node1&#45;&gt;Node10</title>
<g id="a_edge12_Node000001_Node000010"><a xlink:title=" ">
<path fill="none" stroke="#63b8ff" d="M92.08,-460.18C137.33,-467.93 209.04,-480.32 271,-491.5 287.94,-494.56 306.37,-497.97 323.09,-501.1"/>
<polygon fill="#63b8ff" stroke="#63b8ff" points="322.78,-504.6 333.25,-503.01 324.07,-497.72 322.78,-504.6"/>
</a>
</g>
</g>
<!-- Node12 -->
<g id="Node000012" class="node">
<title>Node12</title>
<g id="a_Node000012"><a xlink:href="update__objects_8c.html#a9118be650e419fe94f08bea1e9040a4b" target="_top" xlink:title=" ">
<polygon fill="white" stroke="#666666" points="246,-292 153,-292 153,-273 246,-273 246,-292"/>
<text text-anchor="middle" x="199.5" y="-280" font-family="Helvetica,sans-Serif" font-size="10.00">func_80072D3C</text>
</a>
</g>
</g>
<!-- Node1&#45;&gt;Node12 -->
<g id="edge17_Node000001_Node000012" class="edge">
<title>Node1&#45;&gt;Node12</title>
<g id="a_edge17_Node000001_Node000012"><a xlink:title=" ">
<path fill="none" stroke="#63b8ff" d="M49.71,-442.73C57.42,-416.69 81.96,-344.98 128,-306.5 132.95,-302.36 138.64,-298.93 144.61,-296.08"/>
<polygon fill="#63b8ff" stroke="#63b8ff" points="146.28,-299.17 154.13,-292.06 143.56,-292.72 146.28,-299.17"/>
</a>
</g>
</g>
<!-- Node14 -->
<g id="Node000014" class="node">
<title>Node14</title>
<g id="a_Node000014"><a xlink:href="update__objects_8c.html#a8bfc5f5c7034d61b534e14f325b6e399" target="_top" xlink:title=" ">
<polygon fill="white" stroke="#666666" points="431,-331 327,-331 327,-312 431,-312 431,-331"/>
<text text-anchor="middle" x="379" y="-319" font-family="Helvetica,sans-Serif" font-size="10.00">object_next_state</text>
</a>
</g>
</g>
<!-- Node1&#45;&gt;Node14 -->
<g id="edge64_Node000001_Node000014" class="edge">
<title>Node1&#45;&gt;Node14</title>
<g id="a_edge64_Node000001_Node000014"><a xlink:title=" ">
<path fill="none" stroke="#63b8ff" d="M50.65,-442.81C59.72,-420.22 85.7,-364.17 128,-340.5 185.81,-308.15 263.24,-307.55 316.53,-312.38"/>
<polygon fill="#63b8ff" stroke="#63b8ff" points="316.22,-315.87 326.52,-313.37 316.92,-308.9 316.22,-315.87"/>
</a>
</g>
</g>
<!-- Node16 -->
<g id="Node000016" class="node">
<title>Node16</title>
<g id="a_Node000016"><a xlink:href="update__objects_8c.html#a5ac10bdf02fa5f66183ce0da2f55a41d" target="_top" xlink:title=" ">
<polygon fill="white" stroke="#666666" points="245,-255 154,-255 154,-236 245,-236 245,-255"/>
<text text-anchor="middle" x="199.5" y="-243" font-family="Helvetica,sans-Serif" font-size="10.00">func_80072E54</text>
</a>
</g>
</g>
<!-- Node1&#45;&gt;Node16 -->
<g id="edge24_Node000001_Node000016" class="edge">
<title>Node1&#45;&gt;Node16</title>
<g id="a_edge24_Node000001_Node000016"><a xlink:title=" ">
<path fill="none" stroke="#63b8ff" d="M48.18,-443C52.53,-412.21 70.5,-314.28 128,-264.5 132.78,-260.36 138.37,-257.11 144.28,-254.57"/>
<polygon fill="#63b8ff" stroke="#63b8ff" points="145.56,-257.83 153.75,-251.12 143.16,-251.25 145.56,-257.83"/>
</a>
</g>
</g>
<!-- Node17 -->
<g id="Node000017" class="node">
<title>Node17</title>
<g id="a_Node000017"><a xlink:href="update__objects_8c.html#a70cbaa064b9edf041584e51b3870d614" target="_top" xlink:title=" ">
<polygon fill="white" stroke="#666666" points="424.5,-632 333.5,-632 333.5,-613 424.5,-613 424.5,-632"/>
<text text-anchor="middle" x="379" y="-620" font-family="Helvetica,sans-Serif" font-size="10.00">func_80073600</text>
</a>
</g>
</g>
<!-- Node1&#45;&gt;Node17 -->
<g id="edge30_Node000001_Node000017" class="edge">
<title>Node1&#45;&gt;Node17</title>
<g id="a_edge30_Node000001_Node000017"><a xlink:title=" ">
<path fill="none" stroke="#63b8ff" d="M48.81,-462.14C54.58,-489.92 75.36,-570.27 128,-604.5 186.26,-642.38 269.13,-640.01 323.23,-632.86"/>
<polygon fill="#63b8ff" stroke="#63b8ff" points="323.9,-636.29 333.31,-631.42 322.92,-629.36 323.9,-636.29"/>
</a>
</g>
</g>
<!-- Node18 -->
<g id="Node000018" class="node">
<title>Node18</title>
<g id="a_Node000018"><a xlink:href="update__objects_8c.html#a16dc38d539ef9db19b9bda1c8dd5303c" target="_top" xlink:title=" ">
<polygon fill="white" stroke="#666666" points="245.5,-856 153.5,-856 153.5,-837 245.5,-837 245.5,-856"/>
<text text-anchor="middle" x="199.5" y="-844" font-family="Helvetica,sans-Serif" font-size="10.00">func_8007AFB0</text>
</a>
</g>
</g>
<!-- Node1&#45;&gt;Node18 -->
<g id="edge33_Node000001_Node000018" class="edge">
<title>Node1&#45;&gt;Node18</title>
<g id="a_edge33_Node000001_Node000018"><a xlink:title=" ">
<path fill="none" stroke="#63b8ff" d="M46.54,-462.1C44.91,-506.32 43.49,-692.96 128,-806.5 136.37,-817.74 148.9,-826.29 161.08,-832.54"/>
<polygon fill="#63b8ff" stroke="#63b8ff" points="159.72,-835.77 170.26,-836.88 162.72,-829.44 159.72,-835.77"/>
</a>
</g>
</g>
<!-- Node25 -->
<g id="Node000025" class="node">
<title>Node25</title>
<g id="a_Node000025"><a xlink:href="update__objects_8c.html#a37b4627d662d769f57cd28e5819ed7f8" target="_top" xlink:title=" ">
<polygon fill="white" stroke="#666666" points="245.5,-747 153.5,-747 153.5,-728 245.5,-728 245.5,-747"/>
<text text-anchor="middle" x="199.5" y="-735" font-family="Helvetica,sans-Serif" font-size="10.00">func_8007B040</text>
</a>
</g>
</g>
<!-- Node1&#45;&gt;Node25 -->
<g id="edge40_Node000001_Node000025" class="edge">
<title>Node1&#45;&gt;Node25</title>
<g id="a_edge40_Node000001_Node000025"><a xlink:title=" ">
<path fill="none" stroke="#63b8ff" d="M47.04,-462.09C47.71,-499.71 55.2,-638.7 128,-713.5 132.56,-718.18 138.06,-721.95 143.96,-724.98"/>
<polygon fill="#63b8ff" stroke="#63b8ff" points="142.92,-728.35 153.48,-729.17 145.74,-721.94 142.92,-728.35"/>
</a>
</g>
</g>
<!-- Node28 -->
<g id="Node000028" class="node">
<title>Node28</title>
<g id="a_Node000028"><a xlink:href="update__objects_8c.html#ae289b58b0b7cbeeda3b463b7fcaa5d52" target="_top" xlink:title=" ">
<polygon fill="white" stroke="#666666" points="245.5,-595 153.5,-595 153.5,-576 245.5,-576 245.5,-595"/>
<text text-anchor="middle" x="199.5" y="-583" font-family="Helvetica,sans-Serif" font-size="10.00">func_8007B254</text>
</a>
</g>
</g>
<!-- Node1&#45;&gt;Node28 -->
<g id="edge48_Node000001_Node000028" class="edge">
<title>Node1&#45;&gt;Node28</title>
<g id="a_edge48_Node000001_Node000028"><a xlink:title=" ">
<path fill="none" stroke="#63b8ff" d="M51.62,-462.19C62.17,-483.33 90.09,-533.86 128,-561.5 133.89,-565.79 140.6,-569.36 147.5,-572.31"/>
<polygon fill="#63b8ff" stroke="#63b8ff" points="146.35,-575.62 156.94,-575.97 148.88,-569.09 146.35,-575.62"/>
</a>
</g>
</g>
<!-- Node29 -->
<g id="Node000029" class="node">
<title>Node29</title>
<g id="a_Node000029"><a xlink:href="external_8c.html#aeec25112a50d31b3f33d06325ab2ec7d" target="_top" xlink:title=" ">
<polygon fill="white" stroke="#666666" points="425,-669 333,-669 333,-650 425,-650 425,-669"/>
<text text-anchor="middle" x="379" y="-657" font-family="Helvetica,sans-Serif" font-size="10.00">func_800C8F80</text>
</a>
</g>
</g>
<!-- Node1&#45;&gt;Node29 -->
<g id="edge54_Node000001_Node000029" class="edge">
<title>Node1&#45;&gt;Node29</title>
<g id="a_edge54_Node000001_Node000029"><a xlink:title=" ">
<path fill="none" stroke="#63b8ff" d="M47.98,-462.09C51.72,-493.09 68.02,-591.14 128,-634.5 184.46,-675.31 267.77,-674.93 322.46,-668.87"/>
<polygon fill="#63b8ff" stroke="#63b8ff" points="323.15,-672.31 332.66,-667.64 322.31,-665.36 323.15,-672.31"/>
</a>
</g>
</g>
<!-- Node30 -->
<g id="Node000030" class="node">
<title>Node30</title>
<g id="a_Node000030"><a xlink:href="external_8c.html#ad377fc55133176f069744a4bcb5e0364" target="_top" xlink:title=" ">
<polygon fill="white" stroke="#666666" points="245.5,-218 153.5,-218 153.5,-199 245.5,-199 245.5,-218"/>
<text text-anchor="middle" x="199.5" y="-206" font-family="Helvetica,sans-Serif" font-size="10.00">func_800C9018</text>
</a>
</g>
</g>
<!-- Node1&#45;&gt;Node30 -->
<g id="edge55_Node000001_Node000030" class="edge">
<title>Node1&#45;&gt;Node30</title>
<g id="a_edge55_Node000001_Node000030"><a xlink:title=" ">
<path fill="none" stroke="#63b8ff" d="M47.45,-442.67C49.61,-407.76 61.73,-288.53 128,-227.5 132.65,-223.22 138.17,-219.88 144.03,-217.29"/>
<polygon fill="#63b8ff" stroke="#63b8ff" points="145.3,-220.55 153.46,-213.79 142.87,-213.99 145.3,-220.55"/>
</a>
</g>
</g>
<!-- Node37 -->
<g id="Node000037" class="node">
<title>Node37</title>
<g id="a_Node000037"><a xlink:href="update__objects_8c.html#abdebd086b5ff081f83af3d9205f39cd3" target="_top" xlink:title=" ">
<polygon fill="white" stroke="#666666" points="233.5,-405 165.5,-405 165.5,-386 233.5,-386 233.5,-405"/>
<text text-anchor="middle" x="199.5" y="-393" font-family="Helvetica,sans-Serif" font-size="10.00">init_object</text>
</a>
</g>
</g>
<!-- Node1&#45;&gt;Node37 -->
<g id="edge62_Node000001_Node000037" class="edge">
<title>Node1&#45;&gt;Node37</title>
<g id="a_edge62_Node000001_Node000037"><a xlink:title=" ">
<path fill="none" stroke="#63b8ff" d="M69.55,-442.9C85.73,-436.11 108.09,-426.94 128,-419.5 138.19,-415.69 149.29,-411.8 159.61,-408.28"/>
<polygon fill="#63b8ff" stroke="#63b8ff" points="160.85,-411.56 169.21,-405.04 158.61,-404.92 160.85,-411.56"/>
</a>
</g>
</g>
<!-- Node38 -->
<g id="Node000038" class="node">
<title>Node38</title>
<g id="a_Node000038"><a xlink:href="math__util__2_8c.html#a77d7fb3801386144fcd949c0d88dfa34" target="_top" xlink:title=" ">
<polygon fill="white" stroke="#666666" points="267.5,-181 131.5,-181 131.5,-162 267.5,-162 267.5,-181"/>
<text text-anchor="middle" x="199.5" y="-169" font-family="Helvetica,sans-Serif" font-size="10.00">s16_step_down_towards</text>
</a>
</g>
</g>
<!-- Node1&#45;&gt;Node38 -->
<g id="edge65_Node000001_Node000038" class="edge">
<title>Node1&#45;&gt;Node38</title>
<g id="a_edge65_Node000001_Node000038"><a xlink:title=" ">
<path fill="none" stroke="#63b8ff" d="M46.88,-442.99C46.95,-405.08 52.42,-263.36 128,-190.5 129.51,-189.05 131.11,-187.7 132.79,-186.46"/>
<polygon fill="#63b8ff" stroke="#63b8ff" points="135.03,-189.2 141.79,-181.04 131.42,-183.2 135.03,-189.2"/>
</a>
</g>
</g>
<!-- Node39 -->
<g id="Node000039" class="node">
<title>Node39</title>
<g id="a_Node000039"><a xlink:href="math__util__2_8c.html#a5f31a5342d28021d101edf7461a4a5e3" target="_top" xlink:title=" ">
<polygon fill="white" stroke="#666666" points="260.5,-144 138.5,-144 138.5,-125 260.5,-125 260.5,-144"/>
<text text-anchor="middle" x="199.5" y="-132" font-family="Helvetica,sans-Serif" font-size="10.00">s16_step_up_towards</text>
</a>
</g>
</g>
<!-- Node1&#45;&gt;Node39 -->
<g id="edge66_Node000001_Node000039" class="edge">
<title>Node1&#45;&gt;Node39</title>
<g id="a_edge66_Node000001_Node000039"><a xlink:title=" ">
<path fill="none" stroke="#63b8ff" d="M48.3,-442.91C54.79,-396.59 85,-196.44 128,-153.5 129.45,-152.06 130.99,-150.72 132.61,-149.48"/>
<polygon fill="#63b8ff" stroke="#63b8ff" points="134.66,-152.32 141.31,-144.07 130.97,-146.38 134.66,-152.32"/>
</a>
</g>
</g>
<!-- Node40 -->
<g id="Node000040" class="node">
<title>Node40</title>
<g id="a_Node000040"><a xlink:href="update__objects_8c.html#aa87c6969a1223fe82e1cf59e29664510" target="_top" xlink:title="will return true if the timer is done">
<polygon fill="white" stroke="#666666" points="271,-368 128,-368 128,-349 271,-349 271,-368"/>
<text text-anchor="middle" x="199.5" y="-356" font-family="Helvetica,sans-Serif" font-size="10.00">set_and_run_timer_object</text>
</a>
</g>
</g>
<!-- Node1&#45;&gt;Node40 -->
<g id="edge67_Node000001_Node000040" class="edge">
<title>Node1&#45;&gt;Node40</title>
<g id="a_edge67_Node000001_Node000040"><a xlink:title=" ">
<path fill="none" stroke="#63b8ff" d="M54.65,-442.87C67.87,-426.87 96.64,-394.84 128,-377.5 132.15,-375.21 136.59,-373.18 141.15,-371.38"/>
<polygon fill="#63b8ff" stroke="#63b8ff" points="142.37,-374.67 150.62,-368.02 140.03,-368.07 142.37,-374.67"/>
</a>
</g>
</g>
<!-- Node41 -->
<g id="Node000041" class="node">
<title>Node41</title>
<g id="a_Node000041"><a xlink:href="update__objects_8c.html#a7efe1605c91b5d2412e1163dc67f42c0" target="_top" xlink:title=" ">
<polygon fill="white" stroke="#666666" points="246.5,-107 152.5,-107 152.5,-88 246.5,-88 246.5,-107"/>
<text text-anchor="middle" x="199.5" y="-95" font-family="Helvetica,sans-Serif" font-size="10.00">set_type_object</text>
</a>
</g>
</g>
<!-- Node1&#45;&gt;Node41 -->
<g id="edge70_Node000001_Node000041" class="edge">
<title>Node1&#45;&gt;Node41</title>
<g id="a_edge70_Node000001_Node000041"><a xlink:title=" ">
<path fill="none" stroke="#63b8ff" d="M48.02,-442.75C53.43,-392.74 80.38,-165.4 128,-116.5 132.19,-112.19 137.25,-108.83 142.71,-106.21"/>
<polygon fill="#63b8ff" stroke="#63b8ff" points="144.18,-109.39 152.19,-102.46 141.6,-102.88 144.18,-109.39"/>
</a>
</g>
</g>
<!-- Node3 -->
<g id="Node000003" class="node">
<title>Node3</title>
<g id="a_Node000003"><a xlink:href="update__objects_8c.html#a2c88cc32dff07c6af5fe74d00b9fa279" target="_top" xlink:title=" ">
<polygon fill="white" stroke="#666666" points="425,-595 333,-595 333,-576 425,-576 425,-595"/>
<text text-anchor="middle" x="379" y="-583" font-family="Helvetica,sans-Serif" font-size="10.00">func_800722A4</text>
</a>
</g>
</g>
<!-- Node2&#45;&gt;Node3 -->
<g id="edge2_Node000002_Node000003" class="edge">
<title>Node2&#45;&gt;Node3</title>
<g id="a_edge2_Node000002_Node000003"><a xlink:title=" ">
<path fill="none" stroke="#63b8ff" d="M215.44,-519.21C235.52,-531.89 272.7,-554.06 307,-567.5 312.18,-569.53 317.66,-571.39 323.19,-573.08"/>
<polygon fill="#63b8ff" stroke="#63b8ff" points="322.57,-576.55 333.15,-575.95 324.5,-569.82 322.57,-576.55"/>
</a>
</g>
</g>
<!-- Node2&#45;&gt;Node4 -->
<g id="edge3_Node000002_Node000004" class="edge">
<title>Node2&#45;&gt;Node4</title>
<g id="a_edge3_Node000002_Node000004"><a xlink:title=" ">
<path fill="none" stroke="#63b8ff" d="M216.78,-519.01C232.75,-529.13 256.72,-546.54 271,-567.5 300.2,-610.36 269.15,-643.04 307,-678.5 311.69,-682.89 317.29,-686.25 323.27,-688.82"/>
<polygon fill="#63b8ff" stroke="#63b8ff" points="322.29,-692.18 332.89,-692.22 324.63,-685.59 322.29,-692.18"/>
</a>
</g>
</g>
<!-- Node2&#45;&gt;Node5 -->
<g id="edge4_Node000002_Node000005" class="edge">
<title>Node2&#45;&gt;Node5</title>
<g id="a_edge4_Node000002_Node000005"><a xlink:title=" ">
<path fill="none" stroke="#63b8ff" d="M219.07,-500C240.1,-489.42 275.54,-472.15 307,-459.5 316.78,-455.57 327.48,-451.72 337.53,-448.3"/>
<polygon fill="#63b8ff" stroke="#63b8ff" points="338.94,-451.52 347.32,-445.03 336.73,-444.88 338.94,-451.52"/>
</a>
</g>
</g>
<!-- Node2&#45;&gt;Node6 -->
<g id="edge5_Node000002_Node000006" class="edge">
<title>Node2&#45;&gt;Node6</title>
<g id="a_edge5_Node000002_Node000006"><a xlink:title=" ">
<path fill="none" stroke="#63b8ff" d="M243.92,-519.04C268.29,-524.4 298.9,-531.12 324.72,-536.79"/>
<polygon fill="#63b8ff" stroke="#63b8ff" points="324.2,-540.26 334.72,-538.99 325.7,-533.43 324.2,-540.26"/>
</a>
</g>
</g>
<!-- Node8 -->
<g id="Node000008" class="node">
<title>Node8</title>
<g id="a_Node000008"><a xlink:href="update__objects_8c.html#af20e3f3c403dd4fbea56e358997e515a" target="_top" xlink:title=" ">
<polygon fill="white" stroke="#666666" points="621,-416 493,-416 493,-397 621,-397 621,-416"/>
<text text-anchor="middle" x="557" y="-404" font-family="Helvetica,sans-Serif" font-size="10.00">set_object_timer_state</text>
</a>
</g>
</g>
<!-- Node2&#45;&gt;Node8 -->
<g id="edge8_Node000002_Node000008" class="edge">
<title>Node2&#45;&gt;Node8</title>
<g id="a_edge8_Node000002_Node000008"><a xlink:title=" ">
<path fill="none" stroke="#63b8ff" d="M244.05,-503.59C294.83,-495.86 380.75,-480.21 451,-454.5 467.99,-448.28 470.65,-443.23 487,-435.5 498.36,-430.13 510.98,-424.68 522.29,-419.98"/>
<polygon fill="#63b8ff" stroke="#63b8ff" points="523.9,-423.09 531.82,-416.05 521.24,-416.62 523.9,-423.09"/>
</a>
</g>
</g>
<!-- Node7 -->
<g id="Node000007" class="node">
<title>Node7</title>
<g id="a_Node000007"><a xlink:href="update__objects_8c.html#a3953241e15c6372ac8944ba842148a9a" target="_top" xlink:title=" ">
<polygon fill="white" stroke="#666666" points="768,-406 669,-406 669,-387 768,-387 768,-406"/>
<text text-anchor="middle" x="718.5" y="-394" font-family="Helvetica,sans-Serif" font-size="10.00">clear_object_flag</text>
</a>
</g>
</g>
<!-- Node6&#45;&gt;Node7 -->
<g id="edge6_Node000006_Node000007" class="edge">
<title>Node6&#45;&gt;Node7</title>
<g id="a_edge6_Node000006_Node000007"><a xlink:title=" ">
<path fill="none" stroke="#63b8ff" d="M425.07,-540.56C476.38,-530.2 561.55,-508.97 627,-472.5 655.8,-456.45 684.11,-430.6 701.19,-413.58"/>
<polygon fill="#63b8ff" stroke="#63b8ff" points="704.11,-415.6 708.62,-406.02 699.12,-410.69 704.11,-415.6"/>
</a>
</g>
</g>
<!-- Node6&#45;&gt;Node8 -->
<g id="edge7_Node000006_Node000008" class="edge">
<title>Node6&#45;&gt;Node8</title>
<g id="a_edge7_Node000006_Node000008"><a xlink:title=" ">
<path fill="none" stroke="#63b8ff" d="M425.25,-543.86C434.6,-541.13 443.79,-536.93 451,-530.5 484.69,-500.44 455.65,-467.99 487,-435.5 493.16,-429.11 500.95,-424.07 509.05,-420.11"/>
<polygon fill="#63b8ff" stroke="#63b8ff" points="510.51,-423.29 518.27,-416.08 507.7,-416.88 510.51,-423.29"/>
</a>
</g>
</g>
<!-- Node10&#45;&gt;Node8 -->
<g id="edge15_Node000010_Node000008" class="edge">
<title>Node10&#45;&gt;Node8</title>
<g id="a_edge15_Node000010_Node000008"><a xlink:title=" ">
<path fill="none" stroke="#63b8ff" d="M422.74,-501.95C432.63,-498.46 442.69,-493.76 451,-487.5 473.45,-470.59 465.17,-453.21 487,-435.5 494.87,-429.11 504.35,-423.93 513.73,-419.8"/>
<polygon fill="#63b8ff" stroke="#63b8ff" points="515.07,-423.04 523.01,-416.03 512.43,-416.55 515.07,-423.04"/>
</a>
</g>
</g>
<!-- Node11 -->
<g id="Node000011" class="node">
<title>Node11</title>
<g id="a_Node000011"><a xlink:href="code__80086E70_8c.html#acd186a6f592769b3e3db3da72fcf765f" target="_top" xlink:title=" ">
<polygon fill="white" stroke="#666666" points="602.5,-463 511.5,-463 511.5,-444 602.5,-444 602.5,-463"/>
<text text-anchor="middle" x="557" y="-451" font-family="Helvetica,sans-Serif" font-size="10.00">func_80086F60</text>
</a>
</g>
</g>
<!-- Node10&#45;&gt;Node11 -->
<g id="edge13_Node000010_Node000011" class="edge">
<title>Node10&#45;&gt;Node11</title>
<g id="a_edge13_Node000010_Node000011"><a xlink:title=" ">
<path fill="none" stroke="#63b8ff" d="M409.06,-501.92C438.62,-492.18 484.58,-477.04 517.22,-466.28"/>
<polygon fill="#63b8ff" stroke="#63b8ff" points="518.49,-469.55 526.89,-463.09 516.3,-462.9 518.49,-469.55"/>
</a>
</g>
</g>
<!-- Node11&#45;&gt;Node7 -->
<g id="edge14_Node000011_Node000007" class="edge">
<title>Node11&#45;&gt;Node7</title>
<g id="a_edge14_Node000011_Node000007"><a xlink:title=" ">
<path fill="none" stroke="#63b8ff" d="M584.7,-443.96C611.15,-434.51 651.85,-419.96 681.23,-409.46"/>
<polygon fill="#63b8ff" stroke="#63b8ff" points="682.48,-412.73 690.72,-406.07 680.12,-406.14 682.48,-412.73"/>
</a>
</g>
</g>
<!-- Node12&#45;&gt;Node7 -->
<g id="edge18_Node000012_Node000007" class="edge">
<title>Node12&#45;&gt;Node7</title>
<g id="a_edge18_Node000012_Node000007"><a xlink:title=" ">
<path fill="none" stroke="#63b8ff" d="M246.2,-281.76C326.29,-281.97 495.94,-289.25 627,-341.5 652.31,-351.59 678.64,-368.42 696.33,-380.82"/>
<polygon fill="#63b8ff" stroke="#63b8ff" points="694.57,-383.86 704.74,-386.83 698.64,-378.17 694.57,-383.86"/>
</a>
</g>
</g>
<!-- Node13 -->
<g id="Node000013" class="node">
<title>Node13</title>
<g id="a_Node000013"><a xlink:href="update__objects_8c.html#a2301a51a93a60f0382cdc7002e14f95a" target="_top" xlink:title=" ">
<polygon fill="white" stroke="#666666" points="447,-217.5 311,-217.5 311,-187.5 447,-187.5 447,-217.5"/>
<text text-anchor="start" x="319" y="-205.5" font-family="Helvetica,sans-Serif" font-size="10.00">is_obj_index_flag_status</text>
<text text-anchor="middle" x="379" y="-194.5" font-family="Helvetica,sans-Serif" font-size="10.00">_inactive</text>
</a>
</g>
</g>
<!-- Node12&#45;&gt;Node13 -->
<g id="edge19_Node000012_Node000013" class="edge">
<title>Node12&#45;&gt;Node13</title>
<g id="a_edge19_Node000012_Node000013"><a xlink:title=" ">
<path fill="none" stroke="#63b8ff" d="M246.32,-274.71C254.86,-272.18 263.46,-268.87 271,-264.5 290.86,-253.01 287.67,-239.86 307,-227.5 310.16,-225.48 313.5,-223.6 316.95,-221.85"/>
<polygon fill="#63b8ff" stroke="#63b8ff" points="318.65,-224.92 326.25,-217.53 315.71,-218.57 318.65,-224.92"/>
</a>
</g>
</g>
<!-- Node12&#45;&gt;Node14 -->
<g id="edge20_Node000012_Node000014" class="edge">
<title>Node12&#45;&gt;Node14</title>
<g id="a_edge20_Node000012_Node000014"><a xlink:title=" ">
<path fill="none" stroke="#63b8ff" d="M243.92,-292.04C268.29,-297.4 298.9,-304.12 324.72,-309.79"/>
<polygon fill="#63b8ff" stroke="#63b8ff" points="324.2,-313.26 334.72,-311.99 325.7,-306.43 324.2,-313.26"/>
</a>
</g>
</g>
<!-- Node15 -->
<g id="Node000015" class="node">
<title>Node15</title>
<g id="a_Node000015"><a xlink:href="update__objects_8c.html#afe64f2394ee0deab6370b77609500bda" target="_top" xlink:title=" ">
<polygon fill="white" stroke="#666666" points="424,-255 334,-255 334,-236 424,-236 424,-255"/>
<text text-anchor="middle" x="379" y="-243" font-family="Helvetica,sans-Serif" font-size="10.00">set_object_flag</text>
</a>
</g>
</g>
<!-- Node12&#45;&gt;Node15 -->
<g id="edge23_Node000012_Node000015" class="edge">
<title>Node12&#45;&gt;Node15</title>
<g id="a_edge23_Node000012_Node000015"><a xlink:title=" ">
<path fill="none" stroke="#63b8ff" d="M246.21,-272.97C269.95,-268.02 299.12,-261.94 323.97,-256.76"/>
<polygon fill="#63b8ff" stroke="#63b8ff" points="324.9,-260.14 333.98,-254.68 323.47,-253.29 324.9,-260.14"/>
</a>
</g>
</g>
<!-- Node14&#45;&gt;Node7 -->
<g id="edge21_Node000014_Node000007" class="edge">
<title>Node14&#45;&gt;Node7</title>
<g id="a_edge21_Node000014_Node000007"><a xlink:title=" ">
<path fill="none" stroke="#63b8ff" d="M423.09,-331.07C484.78,-344.79 598.18,-369.98 664.79,-384.79"/>
<polygon fill="#63b8ff" stroke="#63b8ff" points="664.15,-388.23 674.67,-386.98 665.67,-381.4 664.15,-388.23"/>
</a>
</g>
</g>
<!-- Node14&#45;&gt;Node8 -->
<g id="edge22_Node000014_Node000008" class="edge">
<title>Node14&#45;&gt;Node8</title>
<g id="a_edge22_Node000014_Node000008"><a xlink:title=" ">
<path fill="none" stroke="#63b8ff" d="M412.69,-331.03C424.92,-334.99 438.8,-339.96 451,-345.5 480.43,-358.86 512.27,-378.1 533.08,-391.38"/>
<polygon fill="#63b8ff" stroke="#63b8ff" points="531.25,-394.36 541.55,-396.85 535.04,-388.48 531.25,-394.36"/>
</a>
</g>
</g>
<!-- Node16&#45;&gt;Node7 -->
<g id="edge25_Node000016_Node000007" class="edge">
<title>Node16&#45;&gt;Node7</title>
<g id="a_edge25_Node000016_Node000007"><a xlink:title=" ">
<path fill="none" stroke="#63b8ff" d="M245.08,-240.4C254.39,-237.7 263.61,-233.62 271,-227.5 300.09,-203.4 275.13,-170.78 307,-150.5 360.99,-116.14 390.87,-128.58 451,-150.5 573.84,-195.29 672.75,-329.28 705.72,-378.29"/>
<polygon fill="#63b8ff" stroke="#63b8ff" points="702.99,-380.5 711.42,-386.9 708.82,-376.63 702.99,-380.5"/>
</a>
</g>
</g>
<!-- Node16&#45;&gt;Node8 -->
<g id="edge29_Node000016_Node000008" class="edge">
<title>Node16&#45;&gt;Node8</title>
<g id="a_edge29_Node000016_Node000008"><a xlink:title=" ">
<path fill="none" stroke="#63b8ff" d="M245.35,-238.96C254.34,-236.34 263.36,-232.66 271,-227.5 293.4,-212.39 282.89,-190.7 307,-178.5 364.1,-149.6 397.1,-143.98 451,-178.5 525.09,-225.95 547.62,-340.36 553.84,-386.61"/>
<polygon fill="#63b8ff" stroke="#63b8ff" points="550.4,-387.31 555.09,-396.81 557.35,-386.46 550.4,-387.31"/>
</a>
</g>
</g>
<!-- Node16&#45;&gt;Node13 -->
<g id="edge26_Node000016_Node000013" class="edge">
<title>Node16&#45;&gt;Node13</title>
<g id="a_edge26_Node000016_Node000013"><a xlink:title=" ">
<path fill="none" stroke="#63b8ff" d="M239.89,-235.96C259.38,-231.24 283.52,-225.39 306.13,-219.91"/>
<polygon fill="#63b8ff" stroke="#63b8ff" points="307.16,-223.26 316.06,-217.51 305.51,-216.46 307.16,-223.26"/>
</a>
</g>
</g>
<!-- Node16&#45;&gt;Node14 -->
<g id="edge27_Node000016_Node000014" class="edge">
<title>Node16&#45;&gt;Node14</title>
<g id="a_edge27_Node000016_Node000014"><a xlink:title=" ">
<path fill="none" stroke="#63b8ff" d="M242.02,-255.01C251.67,-257.68 261.8,-260.87 271,-264.5 300.67,-276.23 332.71,-294.05 353.92,-306.64"/>
<polygon fill="#63b8ff" stroke="#63b8ff" points="352.21,-309.69 362.58,-311.85 355.82,-303.69 352.21,-309.69"/>
</a>
</g>
</g>
<!-- Node16&#45;&gt;Node15 -->
<g id="edge28_Node000016_Node000015" class="edge">
<title>Node16&#45;&gt;Node15</title>
<g id="a_edge28_Node000016_Node000015"><a xlink:title=" ">
<path fill="none" stroke="#63b8ff" d="M245.29,-245.5C269.12,-245.5 298.61,-245.5 323.73,-245.5"/>
<polygon fill="#63b8ff" stroke="#63b8ff" points="323.84,-249 333.84,-245.5 323.84,-242 323.84,-249"/>
</a>
</g>
</g>
<!-- Node17&#45;&gt;Node7 -->
<g id="edge31_Node000017_Node000007" class="edge">
<title>Node17&#45;&gt;Node7</title>
<g id="a_edge31_Node000017_Node000007"><a xlink:title=" ">
<path fill="none" stroke="#63b8ff" d="M424.43,-612.93C433.35,-610.54 442.57,-607.72 451,-604.5 533.45,-573 559.21,-569.02 627,-512.5 661.64,-483.62 691.55,-439.4 706.77,-414.73"/>
<polygon fill="#63b8ff" stroke="#63b8ff" points="709.86,-416.4 712.04,-406.03 703.87,-412.77 709.86,-416.4"/>
</a>
</g>
</g>
<!-- Node17&#45;&gt;Node8 -->
<g id="edge32_Node000017_Node000008" class="edge">
<title>Node17&#45;&gt;Node8</title>
<g id="a_edge32_Node000017_Node000008"><a xlink:title=" ">
<path fill="none" stroke="#63b8ff" d="M424.53,-619.07C434.37,-616.34 443.95,-611.83 451,-604.5 504.25,-549.16 438.03,-494.66 487,-435.5 492.18,-429.24 498.96,-424.3 506.23,-420.42"/>
<polygon fill="#63b8ff" stroke="#63b8ff" points="508.04,-423.44 515.63,-416.05 505.09,-417.09 508.04,-423.44"/>
</a>
</g>
</g>
<!-- Node19 -->
<g id="Node000019" class="node">
<title>Node19</title>
<g id="a_Node000019"><a xlink:href="update__objects_8c.html#a232231dfa81c570456984fd2af82e60a" target="_top" xlink:title=" ">
<polygon fill="white" stroke="#666666" points="425,-893 333,-893 333,-874 425,-874 425,-893"/>
<text text-anchor="middle" x="379" y="-881" font-family="Helvetica,sans-Serif" font-size="10.00">func_800729B4</text>
</a>
</g>
</g>
<!-- Node18&#45;&gt;Node19 -->
<g id="edge34_Node000018_Node000019" class="edge">
<title>Node18&#45;&gt;Node19</title>
<g id="a_edge34_Node000018_Node000019"><a xlink:title=" ">
<path fill="none" stroke="#63b8ff" d="M245.75,-855.93C269.22,-860.83 298.09,-866.84 322.85,-872"/>
<polygon fill="#63b8ff" stroke="#63b8ff" points="322.33,-875.47 332.83,-874.08 323.76,-868.62 322.33,-875.47"/>
</a>
</g>
</g>
<!-- Node20 -->
<g id="Node000020" class="node">
<title>Node20</title>
<g id="a_Node000020"><a xlink:href="update__objects_8c.html#a475d92dfa4779b85886956f18cc59a0c" target="_top" xlink:title=" ">
<polygon fill="white" stroke="#666666" points="451,-856 307,-856 307,-837 451,-837 451,-856"/>
<text text-anchor="middle" x="379" y="-844" font-family="Helvetica,sans-Serif" font-size="10.00">gen_random_item_human</text>
</a>
</g>
</g>
<!-- Node18&#45;&gt;Node20 -->
<g id="edge35_Node000018_Node000020" class="edge">
<title>Node18&#45;&gt;Node20</title>
<g id="a_edge35_Node000018_Node000020"><a xlink:title=" ">
<path fill="none" stroke="#63b8ff" d="M245.75,-846.5C261.29,-846.5 279.2,-846.5 296.71,-846.5"/>
<polygon fill="#63b8ff" stroke="#63b8ff" points="296.96,-850 306.96,-846.5 296.96,-843 296.96,-850"/>
</a>
</g>
</g>
<!-- Node21 -->
<g id="Node000021" class="node">
<title>Node21</title>
<g id="a_Node000021"><a xlink:href="update__objects_8c.html#a5d5e90510363f2db4ec1d76839b76d95" target="_top" xlink:title=" ">
<polygon fill="white" stroke="#666666" points="609.5,-837 504.5,-837 504.5,-818 609.5,-818 609.5,-837"/>
<text text-anchor="middle" x="557" y="-825" font-family="Helvetica,sans-Serif" font-size="10.00">gen_random_item</text>
</a>
</g>
</g>
<!-- Node20&#45;&gt;Node21 -->
<g id="edge36_Node000020_Node000021" class="edge">
<title>Node20&#45;&gt;Node21</title>
<g id="a_edge36_Node000020_Node000021"><a xlink:title=" ">
<path fill="none" stroke="#63b8ff" d="M451.08,-838.83C465.43,-837.28 480.41,-835.66 494.41,-834.15"/>
<polygon fill="#63b8ff" stroke="#63b8ff" points="494.84,-837.62 504.41,-833.07 494.09,-830.66 494.84,-837.62"/>
</a>
</g>
</g>
<!-- Node22 -->
<g id="Node000022" class="node">
<title>Node22</title>
<g id="a_Node000022"><a xlink:href="update__objects_8c.html#ad088fd4ce9beca25bd05ffb28cf99247" target="_top" xlink:title=" ">
<polygon fill="white" stroke="#666666" points="774,-837 663,-837 663,-818 774,-818 774,-837"/>
<text text-anchor="middle" x="718.5" y="-825" font-family="Helvetica,sans-Serif" font-size="10.00">getProbabilityArray</text>
</a>
</g>
</g>
<!-- Node21&#45;&gt;Node22 -->
<g id="edge37_Node000021_Node000022" class="edge">
<title>Node21&#45;&gt;Node22</title>
<g id="a_edge37_Node000021_Node000022"><a xlink:title=" ">
<path fill="none" stroke="#63b8ff" d="M609.79,-827.5C623.47,-827.5 638.42,-827.5 652.7,-827.5"/>
<polygon fill="#63b8ff" stroke="#63b8ff" points="652.96,-831 662.96,-827.5 652.96,-824 652.96,-831"/>
</a>
</g>
</g>
<!-- Node23 -->
<g id="Node000023" class="node">
<title>Node23</title>
<g id="a_Node000023"><a xlink:href="math__util_8c.html#a151b63b8adf9af7e4054b3b84bd226dc" target="_top" xlink:title=" ">
<polygon fill="white" stroke="#666666" points="754.5,-790 682.5,-790 682.5,-771 754.5,-771 754.5,-790"/>
<text text-anchor="middle" x="718.5" y="-778" font-family="Helvetica,sans-Serif" font-size="10.00">random_int</text>
</a>
</g>
</g>
<!-- Node21&#45;&gt;Node23 -->
<g id="edge38_Node000021_Node000023" class="edge">
<title>Node21&#45;&gt;Node23</title>
<g id="a_edge38_Node000021_Node000023"><a xlink:title=" ">
<path fill="none" stroke="#63b8ff" d="M590.28,-817.99C614.73,-810.78 648.56,-800.82 675.18,-792.97"/>
<polygon fill="#63b8ff" stroke="#63b8ff" points="676.39,-796.26 685,-790.08 674.42,-789.55 676.39,-796.26"/>
</a>
</g>
</g>
<!-- Node24 -->
<g id="Node000024" class="node">
<title>Node24</title>
<g id="a_Node000024"><a xlink:href="math__util_8c.html#a062850863585005ad1d0a75d9ff70693" target="_top" xlink:title=" ">
<polygon fill="white" stroke="#666666" points="887,-790 810,-790 810,-771 887,-771 887,-790"/>
<text text-anchor="middle" x="848.5" y="-778" font-family="Helvetica,sans-Serif" font-size="10.00">random_u16</text>
</a>
</g>
</g>
<!-- Node23&#45;&gt;Node24 -->
<g id="edge39_Node000023_Node000024" class="edge">
<title>Node23&#45;&gt;Node24</title>
<g id="a_edge39_Node000023_Node000024"><a xlink:title=" ">
<path fill="none" stroke="#63b8ff" d="M754.82,-780.5C768.64,-780.5 784.73,-780.5 799.57,-780.5"/>
<polygon fill="#63b8ff" stroke="#63b8ff" points="799.61,-784 809.61,-780.5 799.61,-777 799.61,-784"/>
</a>
</g>
</g>
<!-- Node25&#45;&gt;Node3 -->
<g id="edge41_Node000025_Node000003" class="edge">
<title>Node25&#45;&gt;Node3</title>
<g id="a_edge41_Node000025_Node000003"><a xlink:title=" ">
<path fill="none" stroke="#63b8ff" d="M205.45,-727.72C218.48,-703 256.23,-637.66 307,-604.5 312,-601.24 317.54,-598.53 323.26,-596.29"/>
<polygon fill="#63b8ff" stroke="#63b8ff" points="324.67,-599.51 332.98,-592.94 322.39,-592.89 324.67,-599.51"/>
</a>
</g>
</g>
<!-- Node25&#45;&gt;Node4 -->
<g id="edge42_Node000025_Node000004" class="edge">
<title>Node25&#45;&gt;Node4</title>
<g id="a_edge42_Node000025_Node000004"><a xlink:title=" ">
<path fill="none" stroke="#63b8ff" d="M241.67,-727.99C267,-722.14 299.69,-714.59 326.7,-708.35"/>
<polygon fill="#63b8ff" stroke="#63b8ff" points="327.79,-711.69 336.75,-706.03 326.22,-704.87 327.79,-711.69"/>
</a>
</g>
</g>
<!-- Node25&#45;&gt;Node9 -->
<g id="edge43_Node000025_Node000009" class="edge">
<title>Node25&#45;&gt;Node9</title>
<g id="a_edge43_Node000025_Node000009"><a xlink:title=" ">
<path fill="none" stroke="#63b8ff" d="M220.27,-747.11C241.47,-757.25 276.24,-773.4 307,-785.5 317,-789.43 327.94,-793.33 338.17,-796.8"/>
<polygon fill="#63b8ff" stroke="#63b8ff" points="337.12,-800.13 347.71,-799.98 339.33,-793.5 337.12,-800.13"/>
</a>
</g>
</g>
<!-- Node25&#45;&gt;Node20 -->
<g id="edge46_Node000025_Node000020" class="edge">
<title>Node25&#45;&gt;Node20</title>
<g id="a_edge46_Node000025_Node000020"><a xlink:title=" ">
<path fill="none" stroke="#63b8ff" d="M208.84,-747.11C225.54,-765.73 265.1,-806.81 307,-828.5 310.68,-830.41 314.58,-832.12 318.58,-833.66"/>
<polygon fill="#63b8ff" stroke="#63b8ff" points="317.44,-836.97 328.04,-836.94 319.74,-830.35 317.44,-836.97"/>
</a>
</g>
</g>
<!-- Node25&#45;&gt;Node23 -->
<g id="edge47_Node000025_Node000023" class="edge">
<title>Node25&#45;&gt;Node23</title>
<g id="a_edge47_Node000025_Node000023"><a xlink:title=" ">
<path fill="none" stroke="#63b8ff" d="M245.76,-744.61C264.65,-747.38 286.85,-750.4 307,-752.5 439.32,-766.31 596.37,-774.85 672.14,-778.47"/>
<polygon fill="#63b8ff" stroke="#63b8ff" points="672.13,-781.98 682.28,-778.95 672.46,-774.98 672.13,-781.98"/>
</a>
</g>
</g>
<!-- Node26 -->
<g id="Node000026" class="node">
<title>Node26</title>
<g id="a_Node000026"><a xlink:href="external_8c.html#a2be9efc97a92e19d02aaee90d676acc1" target="_top" xlink:title=" ">
<polygon fill="white" stroke="#666666" points="425,-743 333,-743 333,-724 425,-724 425,-743"/>
<text text-anchor="middle" x="379" y="-731" font-family="Helvetica,sans-Serif" font-size="10.00">func_800C9060</text>
</a>
</g>
</g>
<!-- Node25&#45;&gt;Node26 -->
<g id="edge44_Node000025_Node000026" class="edge">
<title>Node25&#45;&gt;Node26</title>
<g id="a_edge44_Node000025_Node000026"><a xlink:title=" ">
<path fill="none" stroke="#63b8ff" d="M245.75,-736.48C269.12,-735.95 297.83,-735.31 322.52,-734.75"/>
<polygon fill="#63b8ff" stroke="#63b8ff" points="322.91,-738.24 332.83,-734.52 322.76,-731.24 322.91,-738.24"/>
</a>
</g>
</g>
<!-- Node27 -->
<g id="Node000027" class="node">
<title>Node27</title>
<g id="a_Node000027"><a xlink:href="external_8c.html#a475cff796211891556f52877cd8e9b9e" target="_top" xlink:title=" ">
<polygon fill="white" stroke="#666666" points="593,-687 521,-687 521,-668 593,-668 593,-687"/>
<text text-anchor="middle" x="557" y="-675" font-family="Helvetica,sans-Serif" font-size="10.00">play_sound</text>
</a>
</g>
</g>
<!-- Node26&#45;&gt;Node27 -->
<g id="edge45_Node000026_Node000027" class="edge">
<title>Node26&#45;&gt;Node27</title>
<g id="a_edge45_Node000026_Node000027"><a xlink:title=" ">
<path fill="none" stroke="#63b8ff" d="M420.74,-723.91C430.69,-721.36 441.27,-718.48 451,-715.5 475.05,-708.12 501.7,-698.46 522.13,-690.72"/>
<polygon fill="#63b8ff" stroke="#63b8ff" points="523.53,-693.94 531.62,-687.1 521.03,-687.4 523.53,-693.94"/>
</a>
</g>
</g>
<!-- Node28&#45;&gt;Node3 -->
<g id="edge49_Node000028_Node000003" class="edge">
<title>Node28&#45;&gt;Node3</title>
<g id="a_edge49_Node000028_Node000003"><a xlink:title=" ">
<path fill="none" stroke="#63b8ff" d="M245.75,-585.5C269.12,-585.5 297.83,-585.5 322.52,-585.5"/>
<polygon fill="#63b8ff" stroke="#63b8ff" points="322.83,-589 332.83,-585.5 322.83,-582 322.83,-589"/>
</a>
</g>
</g>
<!-- Node28&#45;&gt;Node6 -->
<g id="edge51_Node000028_Node000006" class="edge">
<title>Node28&#45;&gt;Node6</title>
<g id="a_edge51_Node000028_Node000006"><a xlink:title=" ">
<path fill="none" stroke="#63b8ff" d="M245.75,-576.07C269.22,-571.17 298.09,-565.16 322.85,-560"/>
<polygon fill="#63b8ff" stroke="#63b8ff" points="323.76,-563.38 332.83,-557.92 322.33,-556.53 323.76,-563.38"/>
</a>
</g>
</g>
<!-- Node28&#45;&gt;Node10 -->
<g id="edge50_Node000028_Node000010" class="edge">
<title>Node28&#45;&gt;Node10</title>
<g id="a_edge50_Node000028_Node000010"><a xlink:title=" ">
<path fill="none" stroke="#63b8ff" d="M216.59,-575.79C237.02,-563.8 273.62,-543.41 307,-530.5 313.24,-528.09 319.9,-525.87 326.54,-523.86"/>
<polygon fill="#63b8ff" stroke="#63b8ff" points="327.58,-527.2 336.22,-521.08 325.64,-520.48 327.58,-527.2"/>
</a>
</g>
</g>
<!-- Node28&#45;&gt;Node29 -->
<g id="edge52_Node000028_Node000029" class="edge">
<title>Node28&#45;&gt;Node29</title>
<g id="a_edge52_Node000028_Node000029"><a xlink:title=" ">
<path fill="none" stroke="#63b8ff" d="M215.83,-595.05C236.06,-607.29 273.06,-628.49 307,-641.5 312.4,-643.57 318.12,-645.47 323.88,-647.2"/>
<polygon fill="#63b8ff" stroke="#63b8ff" points="322.99,-650.59 333.56,-649.95 324.9,-643.85 322.99,-650.59"/>
</a>
</g>
</g>
<!-- Node29&#45;&gt;Node27 -->
<g id="edge53_Node000029_Node000027" class="edge">
<title>Node29&#45;&gt;Node27</title>
<g id="a_edge53_Node000029_Node000027"><a xlink:title=" ">
<path fill="none" stroke="#63b8ff" d="M425.32,-664.14C451.58,-666.82 484.52,-670.19 510.76,-672.87"/>
<polygon fill="#63b8ff" stroke="#63b8ff" points="510.52,-676.37 520.83,-673.9 511.23,-669.4 510.52,-676.37"/>
</a>
</g>
</g>
<!-- Node31 -->
<g id="Node000031" class="node">
<title>Node31</title>
<g id="a_Node000031"><a xlink:href="external_8c.html#a028d40421b90c38f68ebfd5acc626f2e" target="_top" xlink:title=" ">
<polygon fill="white" stroke="#666666" points="425,-75 333,-75 333,-56 425,-56 425,-75"/>
<text text-anchor="middle" x="379" y="-63" font-family="Helvetica,sans-Serif" font-size="10.00">func_800C5578</text>
</a>
</g>
</g>
<!-- Node30&#45;&gt;Node31 -->
<g id="edge56_Node000030_Node000031" class="edge">
<title>Node30&#45;&gt;Node31</title>
<g id="a_edge56_Node000030_Node000031"><a xlink:title=" ">
<path fill="none" stroke="#63b8ff" d="M245.58,-203.45C254.75,-200.73 263.79,-196.65 271,-190.5 301.6,-164.42 280.4,-137.65 307,-107.5 317.29,-95.83 331.64,-86.51 344.74,-79.63"/>
<polygon fill="#63b8ff" stroke="#63b8ff" points="346.57,-82.63 353.98,-75.06 343.47,-76.36 346.57,-82.63"/>
</a>
</g>
</g>
<!-- Node32 -->
<g id="Node000032" class="node">
<title>Node32</title>
<g id="a_Node000032"><a xlink:href="external_8c.html#ac0fb767de7e14a03f1bcfa53f0abd23b" target="_top" xlink:title=" ">
<polygon fill="white" stroke="#666666" points="627,-56 487,-56 487,-37 627,-37 627,-56"/>
<text text-anchor="middle" x="557" y="-44" font-family="Helvetica,sans-Serif" font-size="10.00">delete_sound_from_bank</text>
</a>
</g>
</g>
<!-- Node31&#45;&gt;Node32 -->
<g id="edge57_Node000031_Node000032" class="edge">
<title>Node31&#45;&gt;Node32</title>
<g id="a_edge57_Node000031_Node000032"><a xlink:title=" ">
<path fill="none" stroke="#63b8ff" d="M425.32,-60.61C440.99,-58.92 459.04,-56.97 476.62,-55.07"/>
<polygon fill="#63b8ff" stroke="#63b8ff" points="477.33,-58.51 486.9,-53.96 476.58,-51.55 477.33,-58.51"/>
</a>
</g>
</g>
<!-- Node34 -->
<g id="Node000034" class="node">
<title>Node34</title>
<g id="a_Node000034"><a xlink:href="external_8c.html#ab83bd36e63f0f1baddcb2482b5ad31b0" target="_top" xlink:title=" ">
<polygon fill="white" stroke="#666666" points="603.5,-19 510.5,-19 510.5,0 603.5,0 603.5,-19"/>
<text text-anchor="middle" x="557" y="-7" font-family="Helvetica,sans-Serif" font-size="10.00">func_800C41CC</text>
</a>
</g>
</g>
<!-- Node31&#45;&gt;Node34 -->
<g id="edge59_Node000031_Node000034" class="edge">
<title>Node31&#45;&gt;Node34</title>
<g id="a_edge59_Node000031_Node000034"><a xlink:title=" ">
<path fill="none" stroke="#63b8ff" d="M404.88,-55.98C426.43,-47.9 458.55,-36.25 487,-27.5 493.52,-25.5 500.43,-23.52 507.26,-21.66"/>
<polygon fill="#63b8ff" stroke="#63b8ff" points="508.4,-24.97 517.15,-19.01 506.59,-18.21 508.4,-24.97"/>
</a>
</g>
</g>
<!-- Node35 -->
<g id="Node000035" class="node">
<title>Node35</title>
<g id="a_Node000035"><a xlink:href="port__eu_8c.html#aa89dfaecca46c6d071f08c1898d1f7c9" target="_top" xlink:title=" ">
<polygon fill="white" stroke="#666666" points="603.5,-93 510.5,-93 510.5,-74 603.5,-74 603.5,-93"/>
<text text-anchor="middle" x="557" y="-81" font-family="Helvetica,sans-Serif" font-size="10.00">func_800CBBE8</text>
</a>
</g>
</g>
<!-- Node31&#45;&gt;Node35 -->
<g id="edge60_Node000031_Node000035" class="edge">
<title>Node31&#45;&gt;Node35</title>
<g id="a_edge60_Node000031_Node000035"><a xlink:title=" ">
<path fill="none" stroke="#63b8ff" d="M425.32,-70.14C448.14,-72.47 476,-75.32 500.13,-77.79"/>
<polygon fill="#63b8ff" stroke="#63b8ff" points="499.91,-81.28 510.22,-78.82 500.63,-74.32 499.91,-81.28"/>
</a>
</g>
</g>
<!-- Node33 -->
<g id="Node000033" class="node">
<title>Node33</title>
<g id="a_Node000033"><a xlink:href="external_8c.html#a358ac55e8ab5262dcae8037334be06d7" target="_top" xlink:title=" ">
<polygon fill="white" stroke="#666666" points="764.5,-56 672.5,-56 672.5,-37 764.5,-37 764.5,-56"/>
<text text-anchor="middle" x="718.5" y="-44" font-family="Helvetica,sans-Serif" font-size="10.00">func_800C40F0</text>
</a>
</g>
</g>
<!-- Node32&#45;&gt;Node33 -->
<g id="edge58_Node000032_Node000033" class="edge">
<title>Node32&#45;&gt;Node33</title>
<g id="a_edge58_Node000032_Node000033"><a xlink:title=" ">
<path fill="none" stroke="#63b8ff" d="M627.03,-46.5C638.76,-46.5 650.81,-46.5 662.13,-46.5"/>
<polygon fill="#63b8ff" stroke="#63b8ff" points="662.3,-50 672.3,-46.5 662.3,-43 662.3,-50"/>
</a>
</g>
</g>
<!-- Node36 -->
<g id="Node000036" class="node">
<title>Node36</title>
<g id="a_Node000036"><a xlink:href="port__eu_8c.html#af361a20d2e08f30c53a237ca481ff734" target="_top" xlink:title=" ">
<polygon fill="white" stroke="#666666" points="765,-93 672,-93 672,-74 765,-74 765,-93"/>
<text text-anchor="middle" x="718.5" y="-81" font-family="Helvetica,sans-Serif" font-size="10.00">func_800CBB48</text>
</a>
</g>
</g>
<!-- Node35&#45;&gt;Node36 -->
<g id="edge61_Node000035_Node000036" class="edge">
<title>Node35&#45;&gt;Node36</title>
<g id="a_edge61_Node000035_Node000036"><a xlink:title=" ">
<path fill="none" stroke="#63b8ff" d="M603.71,-83.5C621.81,-83.5 642.79,-83.5 661.78,-83.5"/>
<polygon fill="#63b8ff" stroke="#63b8ff" points="661.79,-87 671.79,-83.5 661.79,-80 661.79,-87"/>
</a>
</g>
</g>
<!-- Node37&#45;&gt;Node8 -->
<g id="edge63_Node000037_Node000008" class="edge">
<title>Node37&#45;&gt;Node8</title>
<g id="a_edge63_Node000037_Node000008"><a xlink:title=" ">
<path fill="none" stroke="#63b8ff" d="M233.63,-396.52C290.12,-398.27 406.41,-401.87 482.77,-404.23"/>
<polygon fill="#63b8ff" stroke="#63b8ff" points="482.71,-407.73 492.81,-404.54 482.92,-400.74 482.71,-407.73"/>
</a>
</g>
</g>
<!-- Node40&#45;&gt;Node8 -->
<g id="edge69_Node000040_Node000008" class="edge">
<title>Node40&#45;&gt;Node8</title>
<g id="a_edge69_Node000040_Node000008"><a xlink:title=" ">
<path fill="none" stroke="#63b8ff" d="M271.16,-368.04C332.44,-376.32 420.8,-388.25 482.82,-396.62"/>
<polygon fill="#63b8ff" stroke="#63b8ff" points="482.54,-400.11 492.92,-397.98 483.48,-393.18 482.54,-400.11"/>
</a>
</g>
</g>
<!-- Node40&#45;&gt;Node14 -->
<g id="edge68_Node000040_Node000014" class="edge">
<title>Node40&#45;&gt;Node14</title>
<g id="a_edge68_Node000040_Node000014"><a xlink:title=" ">
<path fill="none" stroke="#63b8ff" d="M246.21,-348.97C269.41,-344.14 297.79,-338.22 322.27,-333.12"/>
<polygon fill="#63b8ff" stroke="#63b8ff" points="323.06,-336.53 332.14,-331.06 321.63,-329.67 323.06,-336.53"/>
</a>
</g>
</g>
</g>
</svg>
