<?xml version="1.0" encoding="UTF-8" standalone="no"?>
<!DOCTYPE svg PUBLIC "-//W3C//DTD SVG 1.1//EN"
 "http://www.w3.org/Graphics/SVG/1.1/DTD/svg11.dtd">
<!-- Generated by graphviz version 2.43.0 (0)
 -->
<!-- Title: find_unused_obj_index Pages: 1 -->
<svg width="625pt" height="1625pt"
 viewBox="0.00 0.00 625.00 1625.00" xmlns="http://www.w3.org/2000/svg" xmlns:xlink="http://www.w3.org/1999/xlink">
<g id="graph0" class="graph" transform="scale(1 1) rotate(0) translate(4 1621)">
<title>find_unused_obj_index</title>
<!-- Node1 -->
<g id="Node000001" class="node">
<title>Node1</title>
<g id="a_Node000001"><a xlink:title=" ">
<polygon fill="#999999" stroke="#666666" points="617,-549 489,-549 489,-530 617,-530 617,-549"/>
<text text-anchor="middle" x="553" y="-537" font-family="Helvetica,sans-Serif" font-size="10.00">find_unused_obj_index</text>
</a>
</g>
</g>
<!-- Node2 -->
<g id="Node000002" class="node">
<title>Node2</title>
<g id="a_Node000002"><a xlink:href="update__objects_8c.html#a6e56a43ec98e81db05f2410893efa437" target="_top" xlink:title=" ">
<polygon fill="white" stroke="#666666" points="430.5,-1321 302.5,-1321 302.5,-1302 430.5,-1302 430.5,-1321"/>
<text text-anchor="middle" x="366.5" y="-1309" font-family="Helvetica,sans-Serif" font-size="10.00">add_unused_obj_index</text>
</a>
</g>
</g>
<!-- Node1&#45;&gt;Node2 -->
<g id="edge1_Node000001_Node000002" class="edge">
<title>Node1&#45;&gt;Node2</title>
<g id="a_edge1_Node000001_Node000002"><a xlink:title=" ">
<path fill="none" stroke="#63b8ff" d="M549.61,-559.5C540.81,-631.07 507.8,-880.75 453,-1080.5 428.9,-1168.34 385.72,-1269.92 371.89,-1301.57"/>
<polygon fill="#63b8ff" stroke="#63b8ff" points="553.13,-559.6 550.86,-549.25 546.18,-558.75 553.13,-559.6"/>
</a>
</g>
</g>
<!-- Node90 -->
<g id="Node000090" class="node">
<title>Node90</title>
<g id="a_Node000090"><a xlink:href="classMooMooFarm.html#a7b794a6f0f3e7955abb3ec2e77c7b30d" target="_top" xlink:title=" ">
<polygon fill="white" stroke="#666666" points="435,-1071 298,-1071 298,-1052 435,-1052 435,-1071"/>
<text text-anchor="middle" x="366.5" y="-1059" font-family="Helvetica,sans-Serif" font-size="10.00">MooMooFarm::BeginPlay</text>
</a>
</g>
</g>
<!-- Node1&#45;&gt;Node90 -->
<g id="edge18_Node000001_Node000090" class="edge">
<title>Node1&#45;&gt;Node90</title>
<g id="a_edge18_Node000001_Node000090"><a xlink:title=" ">
<path fill="none" stroke="#63b8ff" d="M550.78,-559.12C545.23,-642.37 519.62,-965.51 453,-1037.5 447.24,-1043.72 440.01,-1048.38 432.2,-1051.86"/>
<polygon fill="#63b8ff" stroke="#63b8ff" points="554.28,-559.22 551.44,-549.01 547.3,-558.77 554.28,-559.22"/>
</a>
</g>
</g>
<!-- Node91 -->
<g id="Node000091" class="node">
<title>Node91</title>
<g id="a_Node000091"><a xlink:href="code__8006E9C0_8c.html#a7ce8b772e14372f2078703a39e676d2a" target="_top" xlink:title=" ">
<polygon fill="white" stroke="#666666" points="213.5,-842 122.5,-842 122.5,-823 213.5,-823 213.5,-842"/>
<text text-anchor="middle" x="168" y="-830" font-family="Helvetica,sans-Serif" font-size="10.00">func_80070148</text>
</a>
</g>
</g>
<!-- Node1&#45;&gt;Node91 -->
<g id="edge19_Node000001_Node000091" class="edge">
<title>Node1&#45;&gt;Node91</title>
<g id="a_edge19_Node000001_Node000091"><a xlink:title=" ">
<path fill="none" stroke="#63b8ff" d="M551.72,-559.39C549.8,-611.38 536.73,-751.6 453,-814.5 380.52,-868.95 266.03,-854.59 206.99,-842.09"/>
<polygon fill="#63b8ff" stroke="#63b8ff" points="555.23,-559.27 551.99,-549.18 548.23,-559.09 555.23,-559.27"/>
</a>
</g>
</g>
<!-- Node96 -->
<g id="Node000096" class="node">
<title>Node96</title>
<g id="a_Node000096"><a xlink:href="code__8006E9C0_8c.html#ac7ae9fc93c7e19a1387f35ab5dd0f54f" target="_top" xlink:title=" ">
<polygon fill="white" stroke="#666666" points="401,-805 332,-805 332,-786 401,-786 401,-805"/>
<text text-anchor="middle" x="366.5" y="-793" font-family="Helvetica,sans-Serif" font-size="10.00">init_clouds</text>
</a>
</g>
</g>
<!-- Node1&#45;&gt;Node96 -->
<g id="edge21_Node000001_Node000096" class="edge">
<title>Node1&#45;&gt;Node96</title>
<g id="a_edge21_Node000001_Node000096"><a xlink:title=" ">
<path fill="none" stroke="#63b8ff" d="M549.92,-559.18C543.98,-605.11 522.56,-719.85 453,-777.5 438.63,-789.41 418.34,-794.03 401.12,-795.61"/>
<polygon fill="#63b8ff" stroke="#63b8ff" points="553.42,-559.4 551.12,-549.06 546.47,-558.58 553.42,-559.4"/>
</a>
</g>
</g>
<!-- Node97 -->
<g id="Node000097" class="node">
<title>Node97</title>
<g id="a_Node000097"><a xlink:href="code__8006E9C0_8c.html#a9b35328c0ffddc0723de4730c5e41431" target="_top" xlink:title=" ">
<polygon fill="white" stroke="#666666" points="225.5,-928 110.5,-928 110.5,-909 225.5,-909 225.5,-928"/>
<text text-anchor="middle" x="168" y="-916" font-family="Helvetica,sans-Serif" font-size="10.00">init_hud_one_player</text>
</a>
</g>
</g>
<!-- Node1&#45;&gt;Node97 -->
<g id="edge22_Node000001_Node000097" class="edge">
<title>Node1&#45;&gt;Node97</title>
<g id="a_edge22_Node000001_Node000097"><a xlink:title=" ">
<path fill="none" stroke="#63b8ff" d="M549.18,-559.31C539.28,-625.92 503.94,-840.02 453,-883.5 419.84,-911.8 298.68,-917.75 225.75,-918.69"/>
<polygon fill="#63b8ff" stroke="#63b8ff" points="552.66,-559.7 550.64,-549.29 545.73,-558.68 552.66,-559.7"/>
</a>
</g>
</g>
<!-- Node98 -->
<g id="Node000098" class="node">
<title>Node98</title>
<g id="a_Node000098"><a xlink:href="code__8006E9C0_8c.html#a36e7c29e21274b76d24f7c8864af5c3b" target="_top" xlink:title=" ">
<polygon fill="white" stroke="#666666" points="223.5,-890.5 112.5,-890.5 112.5,-860.5 223.5,-860.5 223.5,-890.5"/>
<text text-anchor="start" x="120.5" y="-878.5" font-family="Helvetica,sans-Serif" font-size="10.00">init_hud_three_four</text>
<text text-anchor="middle" x="168" y="-867.5" font-family="Helvetica,sans-Serif" font-size="10.00">_player</text>
</a>
</g>
</g>
<!-- Node1&#45;&gt;Node98 -->
<g id="edge24_Node000001_Node000098" class="edge">
<title>Node1&#45;&gt;Node98</title>
<g id="a_edge24_Node000001_Node000098"><a xlink:title=" ">
<path fill="none" stroke="#63b8ff" d="M552.45,-559.28C552.54,-614.95 544.4,-773.73 453,-847.5 388.23,-899.78 286.16,-895.5 223.64,-886.38"/>
<polygon fill="#63b8ff" stroke="#63b8ff" points="555.95,-558.99 552.34,-549.03 548.95,-559.07 555.95,-558.99"/>
</a>
</g>
</g>
<!-- Node99 -->
<g id="Node000099" class="node">
<title>Node99</title>
<g id="a_Node000099"><a xlink:href="code__8006E9C0_8c.html#ae0bbfee0194d6a21ab9c2133af28ae16" target="_top" xlink:title=" ">
<polygon fill="white" stroke="#666666" points="225.5,-1024.5 110.5,-1024.5 110.5,-994.5 225.5,-994.5 225.5,-1024.5"/>
<text text-anchor="start" x="118.5" y="-1012.5" font-family="Helvetica,sans-Serif" font-size="10.00">init_hud_two_player</text>
<text text-anchor="middle" x="168" y="-1001.5" font-family="Helvetica,sans-Serif" font-size="10.00">_horizontal</text>
</a>
</g>
</g>
<!-- Node1&#45;&gt;Node99 -->
<g id="edge26_Node000001_Node000099" class="edge">
<title>Node1&#45;&gt;Node99</title>
<g id="a_edge26_Node000001_Node000099"><a xlink:title=" ">
<path fill="none" stroke="#63b8ff" d="M550.7,-559.01C545.04,-637.76 519.71,-930.72 453,-988.5 390.68,-1042.47 289.05,-1035.04 225.76,-1023.3"/>
<polygon fill="#63b8ff" stroke="#63b8ff" points="554.2,-559.22 551.4,-549 547.21,-558.73 554.2,-559.22"/>
</a>
</g>
</g>
<!-- Node100 -->
<g id="Node000100" class="node">
<title>Node100</title>
<g id="a_Node000100"><a xlink:href="code__8006E9C0_8c.html#aa98fba14045af26e5c13a6a72442b8be" target="_top" xlink:title=" ">
<polygon fill="white" stroke="#666666" points="225.5,-976.5 110.5,-976.5 110.5,-946.5 225.5,-946.5 225.5,-976.5"/>
<text text-anchor="start" x="118.5" y="-964.5" font-family="Helvetica,sans-Serif" font-size="10.00">init_hud_two_player</text>
<text text-anchor="middle" x="168" y="-953.5" font-family="Helvetica,sans-Serif" font-size="10.00">_vertical</text>
</a>
</g>
</g>
<!-- Node1&#45;&gt;Node100 -->
<g id="edge28_Node000001_Node000100" class="edge">
<title>Node1&#45;&gt;Node100</title>
<g id="a_edge28_Node000001_Node000100"><a xlink:title=" ">
<path fill="none" stroke="#63b8ff" d="M550.54,-559.66C544.48,-637.21 518.45,-914.49 453,-966.5 419.12,-993.42 298.22,-981.08 225.54,-970.66"/>
<polygon fill="#63b8ff" stroke="#63b8ff" points="554.06,-559.59 551.32,-549.36 547.08,-559.06 554.06,-559.59"/>
</a>
</g>
</g>
<!-- Node101 -->
<g id="Node000101" class="node">
<title>Node101</title>
<g id="a_Node000101"><a xlink:href="code__8006E9C0_8c.html#ac9869b321dfbda91715daf48a65b2075" target="_top" xlink:title=" ">
<polygon fill="white" stroke="#666666" points="426.5,-957 306.5,-957 306.5,-938 426.5,-938 426.5,-957"/>
<text text-anchor="middle" x="366.5" y="-945" font-family="Helvetica,sans-Serif" font-size="10.00">init_object_list_index</text>
</a>
</g>
</g>
<!-- Node1&#45;&gt;Node101 -->
<g id="edge30_Node000001_Node000101" class="edge">
<title>Node1&#45;&gt;Node101</title>
<g id="a_edge30_Node000001_Node000101"><a xlink:title=" ">
<path fill="none" stroke="#63b8ff" d="M549.5,-559.41C540.18,-630.45 505.35,-870.02 453,-923.5 445.77,-930.88 436.47,-936.04 426.68,-939.64"/>
<polygon fill="#63b8ff" stroke="#63b8ff" points="553.01,-559.54 550.81,-549.18 546.07,-558.65 553.01,-559.54"/>
</a>
</g>
</g>
<!-- Node102 -->
<g id="Node000102" class="node">
<title>Node102</title>
<g id="a_Node000102"><a xlink:href="code__8006E9C0_8c.html#a60668034c4dbddceebb8a6fb822f9206" target="_top" xlink:title=" ">
<polygon fill="white" stroke="#666666" points="397.5,-768 335.5,-768 335.5,-749 397.5,-749 397.5,-768"/>
<text text-anchor="middle" x="366.5" y="-756" font-family="Helvetica,sans-Serif" font-size="10.00">init_stars</text>
</a>
</g>
</g>
<!-- Node1&#45;&gt;Node102 -->
<g id="edge35_Node000001_Node000102" class="edge">
<title>Node1&#45;&gt;Node102</title>
<g id="a_edge35_Node000001_Node000102"><a xlink:title=" ">
<path fill="none" stroke="#63b8ff" d="M548.15,-559.26C539.18,-599.81 512.92,-692.52 453,-739.5 437.32,-751.79 415.3,-756.48 397.53,-758.12"/>
<polygon fill="#63b8ff" stroke="#63b8ff" points="551.62,-559.8 550.24,-549.29 544.77,-558.36 551.62,-559.8"/>
</a>
</g>
</g>
<!-- Node106 -->
<g id="Node000106" class="node">
<title>Node106</title>
<g id="a_Node000106"><a xlink:href="classFrappeSnowland.html#ad4fbf496f1500172dabeb7fa375f582f" target="_top" xlink:title=" ">
<polygon fill="white" stroke="#666666" points="442.5,-731 290.5,-731 290.5,-712 442.5,-712 442.5,-731"/>
<text text-anchor="middle" x="366.5" y="-719" font-family="Helvetica,sans-Serif" font-size="10.00">FrappeSnowland::InitClouds</text>
</a>
</g>
</g>
<!-- Node1&#45;&gt;Node106 -->
<g id="edge39_Node000001_Node000106" class="edge">
<title>Node1&#45;&gt;Node106</title>
<g id="a_edge39_Node000001_Node000106"><a xlink:title=" ">
<path fill="none" stroke="#63b8ff" d="M545.92,-558.89C534.02,-593.52 504.24,-665.78 453,-702.5 447.69,-706.31 441.74,-709.37 435.54,-711.84"/>
<polygon fill="#63b8ff" stroke="#63b8ff" points="549.35,-559.66 549.16,-549.07 542.71,-557.47 549.35,-559.66"/>
</a>
</g>
</g>
<!-- Node107 -->
<g id="Node000107" class="node">
<title>Node107</title>
<g id="a_Node000107"><a xlink:href="classChocoMountain.html#a2262e70982782ab6da29bc53f735d457" target="_top" xlink:title=" ">
<polygon fill="white" stroke="#666666" points="440.5,-693.5 292.5,-693.5 292.5,-663.5 440.5,-663.5 440.5,-693.5"/>
<text text-anchor="start" x="300.5" y="-681.5" font-family="Helvetica,sans-Serif" font-size="10.00">ChocoMountain::InitCourse</text>
<text text-anchor="middle" x="366.5" y="-670.5" font-family="Helvetica,sans-Serif" font-size="10.00">Objects</text>
</a>
</g>
</g>
<!-- Node1&#45;&gt;Node107 -->
<g id="edge40_Node000001_Node000107" class="edge">
<title>Node1&#45;&gt;Node107</title>
<g id="a_edge40_Node000001_Node000107"><a xlink:title=" ">
<path fill="none" stroke="#63b8ff" d="M541.11,-557.91C525.05,-583.44 492.61,-629.29 453,-654.5 447.67,-657.89 441.85,-660.82 435.84,-663.33"/>
<polygon fill="#63b8ff" stroke="#63b8ff" points="544.2,-559.56 546.44,-549.21 538.23,-555.91 544.2,-559.56"/>
</a>
</g>
</g>
<!-- Node108 -->
<g id="Node000108" class="node">
<title>Node108</title>
<g id="a_Node000108"><a xlink:href="classFrappeSnowland.html#a4c9b2e59721ea1785d6b4c1e46ff9fbf" target="_top" xlink:title=" ">
<polygon fill="white" stroke="#666666" points="442.5,-645.5 290.5,-645.5 290.5,-615.5 442.5,-615.5 442.5,-645.5"/>
<text text-anchor="start" x="298.5" y="-633.5" font-family="Helvetica,sans-Serif" font-size="10.00">FrappeSnowland::InitCourse</text>
<text text-anchor="middle" x="366.5" y="-622.5" font-family="Helvetica,sans-Serif" font-size="10.00">Objects</text>
</a>
</g>
</g>
<!-- Node1&#45;&gt;Node108 -->
<g id="edge41_Node000001_Node000108" class="edge">
<title>Node1&#45;&gt;Node108</title>
<g id="a_edge41_Node000001_Node000108"><a xlink:title=" ">
<path fill="none" stroke="#63b8ff" d="M532.6,-555.42C513.42,-570.46 482.71,-592.72 453,-606.5 445.73,-609.87 437.88,-612.87 430,-615.49"/>
<polygon fill="#63b8ff" stroke="#63b8ff" points="534.92,-558.05 540.56,-549.07 530.56,-552.57 534.92,-558.05"/>
</a>
</g>
</g>
<!-- Node109 -->
<g id="Node000109" class="node">
<title>Node109</title>
<g id="a_Node000109"><a xlink:href="classKalimariDesert.html#a88da9dbc643688df794fa43c35250bbd" target="_top" xlink:title=" ">
<polygon fill="white" stroke="#666666" points="439.5,-597.5 293.5,-597.5 293.5,-567.5 439.5,-567.5 439.5,-597.5"/>
<text text-anchor="start" x="301.5" y="-585.5" font-family="Helvetica,sans-Serif" font-size="10.00">KalimariDesert::InitCourse</text>
<text text-anchor="middle" x="366.5" y="-574.5" font-family="Helvetica,sans-Serif" font-size="10.00">Objects</text>
</a>
</g>
</g>
<!-- Node1&#45;&gt;Node109 -->
<g id="edge42_Node000001_Node000109" class="edge">
<title>Node1&#45;&gt;Node109</title>
<g id="a_edge42_Node000001_Node000109"><a xlink:title=" ">
<path fill="none" stroke="#63b8ff" d="M501.18,-551.34C479.77,-556.34 454.58,-562.2 431.89,-567.49"/>
<polygon fill="#63b8ff" stroke="#63b8ff" points="502.11,-554.72 511.05,-549.04 500.52,-547.9 502.11,-554.72"/>
</a>
</g>
</g>
<!-- Node110 -->
<g id="Node000110" class="node">
<title>Node110</title>
<g id="a_Node000110"><a xlink:href="classOBat.html#a3c46b254c54f92c30630ebc30957b93a" target="_top" xlink:title=" ">
<polygon fill="white" stroke="#666666" points="402,-549 331,-549 331,-530 402,-530 402,-549"/>
<text text-anchor="middle" x="366.5" y="-537" font-family="Helvetica,sans-Serif" font-size="10.00">OBat::OBat</text>
</a>
</g>
</g>
<!-- Node1&#45;&gt;Node110 -->
<g id="edge43_Node000001_Node000110" class="edge">
<title>Node1&#45;&gt;Node110</title>
<g id="a_edge43_Node000001_Node000110"><a xlink:title=" ">
<path fill="none" stroke="#63b8ff" d="M478.76,-539.5C452.34,-539.5 423.75,-539.5 402.16,-539.5"/>
<polygon fill="#63b8ff" stroke="#63b8ff" points="478.76,-543 488.76,-539.5 478.76,-536 478.76,-543"/>
</a>
</g>
</g>
<!-- Node111 -->
<g id="Node000111" class="node">
<title>Node111</title>
<g id="a_Node000111"><a xlink:href="classOBombKart.html#adce8f46e3608e94dd14e465b61db900b" target="_top" xlink:title=" ">
<polygon fill="white" stroke="#666666" points="434,-512 299,-512 299,-493 434,-493 434,-512"/>
<text text-anchor="middle" x="366.5" y="-500" font-family="Helvetica,sans-Serif" font-size="10.00">OBombKart::OBombKart</text>
</a>
</g>
</g>
<!-- Node1&#45;&gt;Node111 -->
<g id="edge44_Node000001_Node000111" class="edge">
<title>Node1&#45;&gt;Node111</title>
<g id="a_edge44_Node000001_Node000111"><a xlink:title=" ">
<path fill="none" stroke="#63b8ff" d="M494.58,-527.98C469.08,-522.87 439.42,-516.92 415.17,-512.06"/>
<polygon fill="#63b8ff" stroke="#63b8ff" points="493.99,-531.44 504.49,-529.97 495.37,-524.57 493.99,-531.44"/>
</a>
</g>
</g>
<!-- Node112 -->
<g id="Node000112" class="node">
<title>Node112</title>
<g id="a_Node000112"><a xlink:href="classOBoos.html#abe825a5b1651287a9516ddb09d3eb00a" target="_top" xlink:title=" ">
<polygon fill="white" stroke="#666666" points="409.5,-475 323.5,-475 323.5,-456 409.5,-456 409.5,-475"/>
<text text-anchor="middle" x="366.5" y="-463" font-family="Helvetica,sans-Serif" font-size="10.00">OBoos::OBoos</text>
</a>
</g>
</g>
<!-- Node1&#45;&gt;Node112 -->
<g id="edge45_Node000001_Node000112" class="edge">
<title>Node1&#45;&gt;Node112</title>
<g id="a_edge45_Node000001_Node000112"><a xlink:title=" ">
<path fill="none" stroke="#63b8ff" d="M529.8,-524.3C510.35,-511.64 480.91,-494.04 453,-483.5 439.24,-478.3 423.63,-474.46 409.55,-471.69"/>
<polygon fill="#63b8ff" stroke="#63b8ff" points="527.98,-527.29 538.25,-529.9 531.84,-521.45 527.98,-527.29"/>
</a>
</g>
</g>
<!-- Node113 -->
<g id="Node000113" class="node">
<title>Node113</title>
<g id="a_Node000113"><a xlink:href="classOCrab.html#add22998a91c07d9af8b1a188412fbfce" target="_top" xlink:title=" ">
<polygon fill="white" stroke="#666666" points="408,-438 325,-438 325,-419 408,-419 408,-438"/>
<text text-anchor="middle" x="366.5" y="-426" font-family="Helvetica,sans-Serif" font-size="10.00">OCrab::OCrab</text>
</a>
</g>
</g>
<!-- Node1&#45;&gt;Node113 -->
<g id="edge46_Node000001_Node000113" class="edge">
<title>Node1&#45;&gt;Node113</title>
<g id="a_edge46_Node000001_Node000113"><a xlink:title=" ">
<path fill="none" stroke="#63b8ff" d="M538.45,-521.86C521.06,-500.54 488.83,-465.19 453,-446.5 439.28,-439.34 422.92,-435.03 408.2,-432.44"/>
<polygon fill="#63b8ff" stroke="#63b8ff" points="535.8,-524.15 544.76,-529.8 541.27,-519.79 535.8,-524.15"/>
</a>
</g>
</g>
<!-- Node114 -->
<g id="Node000114" class="node">
<title>Node114</title>
<g id="a_Node000114"><a xlink:href="classOFlagpole.html#a21b85af0d5355323a7efa775c43a086a" target="_top" xlink:title=" ">
<polygon fill="white" stroke="#666666" points="427.5,-401 305.5,-401 305.5,-382 427.5,-382 427.5,-401"/>
<text text-anchor="middle" x="366.5" y="-389" font-family="Helvetica,sans-Serif" font-size="10.00">OFlagpole::OFlagpole</text>
</a>
</g>
</g>
<!-- Node1&#45;&gt;Node114 -->
<g id="edge47_Node000001_Node000114" class="edge">
<title>Node1&#45;&gt;Node114</title>
<g id="a_edge47_Node000001_Node000114"><a xlink:title=" ">
<path fill="none" stroke="#63b8ff" d="M543.24,-520.76C528.75,-491.98 496.97,-437.3 453,-409.5 445.31,-404.64 436.52,-401.06 427.58,-398.44"/>
<polygon fill="#63b8ff" stroke="#63b8ff" points="540.1,-522.32 547.63,-529.78 546.39,-519.25 540.1,-522.32"/>
</a>
</g>
</g>
<!-- Node115 -->
<g id="Node000115" class="node">
<title>Node115</title>
<g id="a_Node000115"><a xlink:href="classOGrandPrixBalloons.html#a86cb32532d09957bfa89aa595ef7ba1b" target="_top" xlink:title=" ">
<polygon fill="white" stroke="#666666" points="426.5,-363.5 306.5,-363.5 306.5,-333.5 426.5,-333.5 426.5,-363.5"/>
<text text-anchor="start" x="314.5" y="-351.5" font-family="Helvetica,sans-Serif" font-size="10.00">OGrandPrixBalloons</text>
<text text-anchor="middle" x="366.5" y="-340.5" font-family="Helvetica,sans-Serif" font-size="10.00">::OGrandPrixBalloons</text>
</a>
</g>
</g>
<!-- Node1&#45;&gt;Node115 -->
<g id="edge48_Node000001_Node000115" class="edge">
<title>Node1&#45;&gt;Node115</title>
<g id="a_edge48_Node000001_Node000115"><a xlink:title=" ">
<path fill="none" stroke="#63b8ff" d="M545.86,-519.92C533.85,-484.9 503.9,-411.57 453,-372.5 445.3,-366.59 436.2,-362.13 426.88,-358.77"/>
<polygon fill="#63b8ff" stroke="#63b8ff" points="542.67,-521.44 549.13,-529.85 549.32,-519.25 542.67,-521.44"/>
</a>
</g>
</g>
<!-- Node116 -->
<g id="Node000116" class="node">
<title>Node116</title>
<g id="a_Node000116"><a xlink:href="classOHotAirBalloon.html#ada883b011a78b888dd554d7bccec3edf" target="_top" xlink:title=" ">
<polygon fill="white" stroke="#666666" points="453,-315 280,-315 280,-296 453,-296 453,-315"/>
<text text-anchor="middle" x="366.5" y="-303" font-family="Helvetica,sans-Serif" font-size="10.00">OHotAirBalloon::OHotAirBalloon</text>
</a>
</g>
</g>
<!-- Node1&#45;&gt;Node116 -->
<g id="edge49_Node000001_Node000116" class="edge">
<title>Node1&#45;&gt;Node116</title>
<g id="a_edge49_Node000001_Node000116"><a xlink:title=" ">
<path fill="none" stroke="#63b8ff" d="M548.95,-520.04C541.21,-477.49 516.7,-375.91 453,-324.5 448.27,-320.68 442.92,-317.59 437.28,-315.1"/>
<polygon fill="#63b8ff" stroke="#63b8ff" points="545.51,-520.68 550.64,-529.95 552.41,-519.5 545.51,-520.68"/>
</a>
</g>
</g>
<!-- Node117 -->
<g id="Node000117" class="node">
<title>Node117</title>
<g id="a_Node000117"><a xlink:href="classOMole.html#ac634aa46930f54a1dfedc316034b4b95" target="_top" xlink:title=" ">
<polygon fill="white" stroke="#666666" points="409.5,-278 323.5,-278 323.5,-259 409.5,-259 409.5,-278"/>
<text text-anchor="middle" x="366.5" y="-266" font-family="Helvetica,sans-Serif" font-size="10.00">OMole::OMole</text>
</a>
</g>
</g>
<!-- Node1&#45;&gt;Node117 -->
<g id="edge50_Node000001_Node000117" class="edge">
<title>Node1&#45;&gt;Node117</title>
<g id="a_edge50_Node000001_Node000117"><a xlink:title=" ">
<path fill="none" stroke="#63b8ff" d="M550.47,-519.89C545.63,-472.02 526.31,-348.58 453,-286.5 441.08,-276.4 424.91,-271.52 409.84,-269.28"/>
<polygon fill="#63b8ff" stroke="#63b8ff" points="546.99,-520.23 551.38,-529.88 553.96,-519.6 546.99,-520.23"/>
</a>
</g>
</g>
<!-- Node118 -->
<g id="Node000118" class="node">
<title>Node118</title>
<g id="a_Node000118"><a xlink:href="classOPenguin.html#af4577424dd140f7d06947a3f57341c8d" target="_top" xlink:title=" ">
<polygon fill="white" stroke="#666666" points="424.5,-241 308.5,-241 308.5,-222 424.5,-222 424.5,-241"/>
<text text-anchor="middle" x="366.5" y="-229" font-family="Helvetica,sans-Serif" font-size="10.00">OPenguin::OPenguin</text>
</a>
</g>
</g>
<!-- Node1&#45;&gt;Node118 -->
<g id="edge51_Node000001_Node000118" class="edge">
<title>Node1&#45;&gt;Node118</title>
<g id="a_edge51_Node000001_Node000118"><a xlink:title=" ">
<path fill="none" stroke="#63b8ff" d="M551.58,-519.94C549.33,-467.46 535.57,-322.6 453,-249.5 445.05,-242.46 435.05,-237.93 424.73,-235.05"/>
<polygon fill="#63b8ff" stroke="#63b8ff" points="548.08,-520.05 551.91,-529.93 555.08,-519.82 548.08,-520.05"/>
</a>
</g>
</g>
<!-- Node119 -->
<g id="Node000119" class="node">
<title>Node119</title>
<g id="a_Node000119"><a xlink:href="classOPodium.html#a201d4327450523e20df2e1c3e72f2bd5" target="_top" xlink:title=" ">
<polygon fill="white" stroke="#666666" points="422,-204 311,-204 311,-185 422,-185 422,-204"/>
<text text-anchor="middle" x="366.5" y="-192" font-family="Helvetica,sans-Serif" font-size="10.00">OPodium::OPodium</text>
</a>
</g>
</g>
<!-- Node1&#45;&gt;Node119 -->
<g id="edge52_Node000001_Node000119" class="edge">
<title>Node1&#45;&gt;Node119</title>
<g id="a_edge52_Node000001_Node000119"><a xlink:title=" ">
<path fill="none" stroke="#63b8ff" d="M552.45,-519.8C552.61,-462.85 544.82,-296.7 453,-212.5 444.5,-204.71 433.52,-199.96 422.27,-197.13"/>
<polygon fill="#63b8ff" stroke="#63b8ff" points="548.95,-519.91 552.33,-529.95 555.95,-520 548.95,-519.91"/>
</a>
</g>
</g>
<!-- Node120 -->
<g id="Node000120" class="node">
<title>Node120</title>
<g id="a_Node000120"><a xlink:href="classOSeagull.html#a4dc7ec474bcdfc2469500232b6419b87" target="_top" xlink:title=" ">
<polygon fill="white" stroke="#666666" points="421.5,-167 311.5,-167 311.5,-148 421.5,-148 421.5,-167"/>
<text text-anchor="middle" x="366.5" y="-155" font-family="Helvetica,sans-Serif" font-size="10.00">OSeagull::OSeagull</text>
</a>
</g>
</g>
<!-- Node1&#45;&gt;Node120 -->
<g id="edge53_Node000001_Node000120" class="edge">
<title>Node1&#45;&gt;Node120</title>
<g id="a_edge53_Node000001_Node000120"><a xlink:title=" ">
<path fill="none" stroke="#63b8ff" d="M549.34,-519.63C539.71,-450.8 504.56,-224.15 453,-175.5 444.39,-167.38 433.1,-162.54 421.54,-159.73"/>
<polygon fill="#63b8ff" stroke="#63b8ff" points="545.92,-520.49 550.75,-529.92 552.86,-519.54 545.92,-520.49"/>
</a>
</g>
</g>
<!-- Node121 -->
<g id="Node000121" class="node">
<title>Node121</title>
<g id="a_Node000121"><a xlink:href="classOSnowman.html#a32940bf9857a85b80f7ad16b8eb41474" target="_top" xlink:title=" ">
<polygon fill="white" stroke="#666666" points="433.5,-130 299.5,-130 299.5,-111 433.5,-111 433.5,-130"/>
<text text-anchor="middle" x="366.5" y="-118" font-family="Helvetica,sans-Serif" font-size="10.00">OSnowman::OSnowman</text>
</a>
</g>
</g>
<!-- Node1&#45;&gt;Node121 -->
<g id="edge54_Node000001_Node000121" class="edge">
<title>Node1&#45;&gt;Node121</title>
<g id="a_edge54_Node000001_Node000121"><a xlink:title=" ">
<path fill="none" stroke="#63b8ff" d="M549.86,-519.53C541.57,-446.15 509.3,-192.89 453,-138.5 447.55,-133.23 440.96,-129.33 433.89,-126.47"/>
<polygon fill="#63b8ff" stroke="#63b8ff" points="546.4,-520.15 550.98,-529.7 553.36,-519.38 546.4,-520.15"/>
</a>
</g>
</g>
<!-- Node122 -->
<g id="Node000122" class="node">
<title>Node122</title>
<g id="a_Node000122"><a xlink:href="classOThwomp.html#ac2790aef66d054b5524b9ffeba9de7f4" target="_top" xlink:title=" ">
<polygon fill="white" stroke="#666666" points="427.5,-93 305.5,-93 305.5,-74 427.5,-74 427.5,-93"/>
<text text-anchor="middle" x="366.5" y="-81" font-family="Helvetica,sans-Serif" font-size="10.00">OThwomp::OThwomp</text>
</a>
</g>
</g>
<!-- Node1&#45;&gt;Node122 -->
<g id="edge55_Node000001_Node000122" class="edge">
<title>Node1&#45;&gt;Node122</title>
<g id="a_edge55_Node000001_Node000122"><a xlink:title=" ">
<path fill="none" stroke="#63b8ff" d="M550.32,-519.73C543.35,-442.4 514.14,-161.74 453,-101.5 445.98,-94.58 437.01,-90.01 427.53,-87.05"/>
<polygon fill="#63b8ff" stroke="#63b8ff" points="546.86,-520.32 551.22,-529.97 553.83,-519.71 546.86,-520.32"/>
</a>
</g>
</g>
<!-- Node123 -->
<g id="Node000123" class="node">
<title>Node123</title>
<g id="a_Node000123"><a xlink:href="classOTrashBin.html#a090a0f67a3d43f9e5001d79b74056d85" target="_top" xlink:title=" ">
<polygon fill="white" stroke="#666666" points="426.5,-56 306.5,-56 306.5,-37 426.5,-37 426.5,-56"/>
<text text-anchor="middle" x="366.5" y="-44" font-family="Helvetica,sans-Serif" font-size="10.00">OTrashBin::OTrashBin</text>
</a>
</g>
</g>
<!-- Node1&#45;&gt;Node123 -->
<g id="edge56_Node000001_Node000123" class="edge">
<title>Node1&#45;&gt;Node123</title>
<g id="a_edge56_Node000001_Node000123"><a xlink:title=" ">
<path fill="none" stroke="#63b8ff" d="M550.69,-519.65C544.9,-438.18 518.93,-130.56 453,-64.5 445.82,-57.31 436.54,-52.64 426.76,-49.68"/>
<polygon fill="#63b8ff" stroke="#63b8ff" points="547.22,-520.24 551.4,-529.98 554.2,-519.76 547.22,-520.24"/>
</a>
</g>
</g>
<!-- Node124 -->
<g id="Node000124" class="node">
<title>Node124</title>
<g id="a_Node000124"><a xlink:href="classOTrophy.html#a80d20fb8457692e9c508921e65949e83" target="_top" xlink:title=" ">
<polygon fill="white" stroke="#666666" points="417,-19 316,-19 316,0 417,0 417,-19"/>
<text text-anchor="middle" x="366.5" y="-7" font-family="Helvetica,sans-Serif" font-size="10.00">OTrophy::OTrophy</text>
</a>
</g>
</g>
<!-- Node1&#45;&gt;Node124 -->
<g id="edge57_Node000001_Node000124" class="edge">
<title>Node1&#45;&gt;Node124</title>
<g id="a_edge57_Node000001_Node000124"><a xlink:title=" ">
<path fill="none" stroke="#63b8ff" d="M551,-519.48C546.32,-433.84 523.71,-99.39 453,-27.5 443.53,-17.88 430.31,-12.77 417.1,-10.2"/>
<polygon fill="#63b8ff" stroke="#63b8ff" points="547.52,-519.86 551.54,-529.67 554.51,-519.5 547.52,-519.86"/>
</a>
</g>
</g>
<!-- Node3 -->
<g id="Node000003" class="node">
<title>Node3</title>
<g id="a_Node000003"><a xlink:href="classOThwomp.html#a8692894c1d51ec6751a10c41c63d7127" target="_top" xlink:title=" ">
<polygon fill="#fff0f0" stroke="red" points="234,-1321 102,-1321 102,-1302 234,-1302 234,-1321"/>
<text text-anchor="middle" x="168" y="-1309" font-family="Helvetica,sans-Serif" font-size="10.00">OThwomp::AddParticles</text>
</a>
</g>
</g>
<!-- Node2&#45;&gt;Node3 -->
<g id="edge2_Node000002_Node000003" class="edge">
<title>Node2&#45;&gt;Node3</title>
<g id="a_edge2_Node000002_Node000003"><a xlink:title=" ">
<path fill="none" stroke="#63b8ff" d="M292.13,-1311.5C273.1,-1311.5 252.74,-1311.5 234.16,-1311.5"/>
<polygon fill="#63b8ff" stroke="#63b8ff" points="292.24,-1315 302.24,-1311.5 292.24,-1308 292.24,-1315"/>
</a>
</g>
</g>
<!-- Node5 -->
<g id="Node000005" class="node">
<title>Node5</title>
<g id="a_Node000005"><a xlink:href="classABoat.html#a3bf4384ddc2a42e84bef6c6ca038bd7e" target="_top" xlink:title=" ">
<polygon fill="#fff0f0" stroke="red" points="220,-1284 116,-1284 116,-1265 220,-1265 220,-1284"/>
<text text-anchor="middle" x="168" y="-1272" font-family="Helvetica,sans-Serif" font-size="10.00">ABoat::AddSmoke</text>
</a>
</g>
</g>
<!-- Node2&#45;&gt;Node5 -->
<g id="edge3_Node000002_Node000005" class="edge">
<title>Node2&#45;&gt;Node5</title>
<g id="a_edge3_Node000002_Node000005"><a xlink:title=" ">
<path fill="none" stroke="#63b8ff" d="M305.06,-1300.12C277.74,-1294.98 245.83,-1288.97 219.77,-1284.06"/>
<polygon fill="#63b8ff" stroke="#63b8ff" points="304.42,-1303.56 314.9,-1301.97 305.72,-1296.68 304.42,-1303.56"/>
</a>
</g>
</g>
<!-- Node7 -->
<g id="Node000007" class="node">
<title>Node7</title>
<g id="a_Node000007"><a xlink:href="classATrain.html#ad24444822dfa3a9c96f0e0028201dfe9" target="_top" xlink:title=" ">
<polygon fill="#fff0f0" stroke="red" points="220,-1247 116,-1247 116,-1228 220,-1228 220,-1247"/>
<text text-anchor="middle" x="168" y="-1235" font-family="Helvetica,sans-Serif" font-size="10.00">ATrain::AddSmoke</text>
</a>
</g>
</g>
<!-- Node2&#45;&gt;Node7 -->
<g id="edge4_Node000002_Node000007" class="edge">
<title>Node2&#45;&gt;Node7</title>
<g id="a_edge4_Node000002_Node000007"><a xlink:title=" ">
<path fill="none" stroke="#63b8ff" d="M338.01,-1297.36C313.75,-1285.3 277.19,-1268.11 244,-1256.5 233.86,-1252.95 222.73,-1249.76 212.22,-1247.06"/>
<polygon fill="#63b8ff" stroke="#63b8ff" points="336.48,-1300.51 346.98,-1301.87 339.62,-1294.25 336.48,-1300.51"/>
</a>
</g>
</g>
<!-- Node9 -->
<g id="Node000009" class="node">
<title>Node9</title>
<g id="a_Node000009"><a xlink:href="classStarEmitter.html#aefc0e47ab167903bdd3826262a40104c" target="_top" xlink:title=" ">
<polygon fill="white" stroke="#666666" points="218.5,-1210 117.5,-1210 117.5,-1191 218.5,-1191 218.5,-1210"/>
<text text-anchor="middle" x="168" y="-1198" font-family="Helvetica,sans-Serif" font-size="10.00">StarEmitter::Emit</text>
</a>
</g>
</g>
<!-- Node2&#45;&gt;Node9 -->
<g id="edge5_Node000002_Node000009" class="edge">
<title>Node2&#45;&gt;Node9</title>
<g id="a_edge5_Node000002_Node000009"><a xlink:title=" ">
<path fill="none" stroke="#63b8ff" d="M348.39,-1294.93C326.13,-1274.29 285.2,-1239.31 244,-1219.5 236.01,-1215.66 227.15,-1212.54 218.41,-1210.02"/>
<polygon fill="#63b8ff" stroke="#63b8ff" points="346.04,-1297.52 355.71,-1301.84 350.84,-1292.43 346.04,-1297.52"/>
</a>
</g>
</g>
<!-- Node10 -->
<g id="Node000010" class="node">
<title>Node10</title>
<g id="a_Node000010"><a xlink:href="update__objects_8c.html#a81fd7e53c48fff45cb7e21682c0284b8" target="_top" xlink:title=" ">
<polygon fill="#fff0f0" stroke="red" points="213.5,-1173 122.5,-1173 122.5,-1154 213.5,-1154 213.5,-1173"/>
<text text-anchor="middle" x="168" y="-1161" font-family="Helvetica,sans-Serif" font-size="10.00">func_80075304</text>
</a>
</g>
</g>
<!-- Node2&#45;&gt;Node10 -->
<g id="edge6_Node000002_Node000010" class="edge">
<title>Node2&#45;&gt;Node10</title>
<g id="a_edge6_Node000002_Node000010"><a xlink:title=" ">
<path fill="none" stroke="#63b8ff" d="M353.71,-1293.52C334.29,-1265.39 292.84,-1211.23 244,-1182.5 234.85,-1177.12 224.21,-1173.25 213.86,-1170.47"/>
<polygon fill="#63b8ff" stroke="#63b8ff" points="350.93,-1295.66 359.43,-1301.99 356.73,-1291.74 350.93,-1295.66"/>
</a>
</g>
</g>
<!-- Node12 -->
<g id="Node000012" class="node">
<title>Node12</title>
<g id="a_Node000012"><a xlink:href="update__objects_8c.html#a2a11f519aaca0205f9674856a1443f1e" target="_top" xlink:title=" ">
<polygon fill="#fff0f0" stroke="red" points="213.5,-1136 122.5,-1136 122.5,-1117 213.5,-1117 213.5,-1136"/>
<text text-anchor="middle" x="168" y="-1124" font-family="Helvetica,sans-Serif" font-size="10.00">func_80075F28</text>
</a>
</g>
</g>
<!-- Node2&#45;&gt;Node12 -->
<g id="edge7_Node000002_Node000012" class="edge">
<title>Node2&#45;&gt;Node12</title>
<g id="a_edge7_Node000002_Node000012"><a xlink:title=" ">
<path fill="none" stroke="#63b8ff" d="M356.97,-1292.33C340.44,-1257.45 300.61,-1183.7 244,-1145.5 234.98,-1139.41 224.16,-1135.28 213.58,-1132.47"/>
<polygon fill="#63b8ff" stroke="#63b8ff" points="353.98,-1294.21 361.35,-1301.82 360.34,-1291.28 353.98,-1294.21"/>
</a>
</g>
</g>
<!-- Node18 -->
<g id="Node000018" class="node">
<title>Node18</title>
<g id="a_Node000018"><a xlink:href="update__objects_8c.html#a8961519eebfc170539434d78a6fb1419" target="_top" xlink:title=" ">
<polygon fill="#fff0f0" stroke="red" points="213.5,-1099 122.5,-1099 122.5,-1080 213.5,-1080 213.5,-1099"/>
<text text-anchor="middle" x="168" y="-1087" font-family="Helvetica,sans-Serif" font-size="10.00">func_80076278</text>
</a>
</g>
</g>
<!-- Node2&#45;&gt;Node18 -->
<g id="edge8_Node000002_Node000018" class="edge">
<title>Node2&#45;&gt;Node18</title>
<g id="a_edge8_Node000002_Node000018"><a xlink:title=" ">
<path fill="none" stroke="#63b8ff" d="M359.53,-1292.05C346.01,-1251.33 309.03,-1156.9 244,-1108.5 235.16,-1101.92 224.29,-1097.61 213.6,-1094.79"/>
<polygon fill="#63b8ff" stroke="#63b8ff" points="356.21,-1293.15 362.6,-1301.6 362.88,-1291.01 356.21,-1293.15"/>
</a>
</g>
</g>
<!-- Node21 -->
<g id="Node000021" class="node">
<title>Node21</title>
<g id="a_Node000021"><a xlink:href="update__objects_8c.html#af83d0d2485e0eb8c148a2d092d33e9e8" target="_top" xlink:title=" ">
<polygon fill="#fff0f0" stroke="red" points="213.5,-1062 122.5,-1062 122.5,-1043 213.5,-1043 213.5,-1062"/>
<text text-anchor="middle" x="168" y="-1050" font-family="Helvetica,sans-Serif" font-size="10.00">func_80076828</text>
</a>
</g>
</g>
<!-- Node2&#45;&gt;Node21 -->
<g id="edge9_Node000002_Node000021" class="edge">
<title>Node2&#45;&gt;Node21</title>
<g id="a_edge9_Node000002_Node000021"><a xlink:title=" ">
<path fill="none" stroke="#63b8ff" d="M361.44,-1292.06C350.82,-1246.17 317.76,-1130.55 244,-1071.5 235.3,-1064.53 224.35,-1060.09 213.54,-1057.26"/>
<polygon fill="#63b8ff" stroke="#63b8ff" points="358.05,-1292.91 363.62,-1301.91 364.88,-1291.39 358.05,-1292.91"/>
</a>
</g>
</g>
<!-- Node23 -->
<g id="Node000023" class="node">
<title>Node23</title>
<g id="a_Node000023"><a xlink:href="update__objects_8c.html#a281b6219991026ad20df7d33ae149504" target="_top" xlink:title=" ">
<polygon fill="#fff0f0" stroke="red" points="214,-1617 122,-1617 122,-1598 214,-1598 214,-1617"/>
<text text-anchor="middle" x="168" y="-1605" font-family="Helvetica,sans-Serif" font-size="10.00">func_8007D714</text>
</a>
</g>
</g>
<!-- Node2&#45;&gt;Node23 -->
<g id="edge10_Node000002_Node000023" class="edge">
<title>Node2&#45;&gt;Node23</title>
<g id="a_edge10_Node000002_Node000023"><a xlink:title=" ">
<path fill="none" stroke="#63b8ff" d="M362.92,-1331.25C355.15,-1382.38 327.16,-1519.86 244,-1589.5 235.58,-1596.55 224.86,-1600.93 214.18,-1603.63"/>
<polygon fill="#63b8ff" stroke="#63b8ff" points="366.4,-1331.6 364.35,-1321.2 359.47,-1330.61 366.4,-1331.6"/>
</a>
</g>
</g>
<!-- Node29 -->
<g id="Node000029" class="node">
<title>Node29</title>
<g id="a_Node000029"><a xlink:href="classOSnowman.html#a3133da2c8a369a3e131dada84ea0ac5e" target="_top" xlink:title=" ">
<polygon fill="#fff0f0" stroke="red" points="244,-1580 92,-1580 92,-1561 244,-1561 244,-1580"/>
<text text-anchor="middle" x="168" y="-1568" font-family="Helvetica,sans-Serif" font-size="10.00">OSnowman::func_800836F0</text>
</a>
</g>
</g>
<!-- Node2&#45;&gt;Node29 -->
<g id="edge11_Node000002_Node000029" class="edge">
<title>Node2&#45;&gt;Node29</title>
<g id="a_edge11_Node000002_Node000029"><a xlink:title=" ">
<path fill="none" stroke="#63b8ff" d="M361.52,-1331.08C351.06,-1377.3 318.32,-1493.65 244,-1552.5 239.7,-1555.91 234.85,-1558.69 229.74,-1560.95"/>
<polygon fill="#63b8ff" stroke="#63b8ff" points="364.97,-1331.67 363.66,-1321.16 358.13,-1330.19 364.97,-1331.67"/>
</a>
</g>
</g>
<!-- Node31 -->
<g id="Node000031" class="node">
<title>Node31</title>
<g id="a_Node000031"><a xlink:href="update__objects_8c.html#a3501ac815266fa218dca8c6edbb9235d" target="_top" xlink:title=" ">
<polygon fill="#fff0f0" stroke="red" points="214,-1543 122,-1543 122,-1524 214,-1524 214,-1543"/>
<text text-anchor="middle" x="168" y="-1531" font-family="Helvetica,sans-Serif" font-size="10.00">func_8008421C</text>
</a>
</g>
</g>
<!-- Node2&#45;&gt;Node31 -->
<g id="edge12_Node000002_Node000031" class="edge">
<title>Node2&#45;&gt;Node31</title>
<g id="a_edge12_Node000002_Node000031"><a xlink:title=" ">
<path fill="none" stroke="#63b8ff" d="M359.71,-1330.81C346.41,-1371.68 309.68,-1467.15 244,-1515.5 235.37,-1521.85 224.81,-1525.99 214.37,-1528.68"/>
<polygon fill="#63b8ff" stroke="#63b8ff" points="363.13,-1331.61 362.78,-1321.02 356.45,-1329.51 363.13,-1331.61"/>
</a>
</g>
</g>
<!-- Node34 -->
<g id="Node000034" class="node">
<title>Node34</title>
<g id="a_Node000034"><a xlink:href="update__objects_8c.html#a86113b7f254606e89d4e7c566ce8ff27" target="_top" xlink:title=" ">
<polygon fill="#fff0f0" stroke="red" points="217,-1506 119,-1506 119,-1487 217,-1487 217,-1506"/>
<text text-anchor="middle" x="168" y="-1494" font-family="Helvetica,sans-Serif" font-size="10.00">init_leaf_particle</text>
</a>
</g>
</g>
<!-- Node2&#45;&gt;Node34 -->
<g id="edge13_Node000002_Node000034" class="edge">
<title>Node2&#45;&gt;Node34</title>
<g id="a_edge13_Node000002_Node000034"><a xlink:title=" ">
<path fill="none" stroke="#63b8ff" d="M357.26,-1330.4C340.99,-1365.42 301.27,-1440.27 244,-1478.5 235.98,-1483.85 226.54,-1487.62 217.11,-1490.27"/>
<polygon fill="#63b8ff" stroke="#63b8ff" points="360.46,-1331.83 361.39,-1321.27 354.08,-1328.94 360.46,-1331.83"/>
</a>
</g>
</g>
<!-- Node80 -->
<g id="Node000080" class="node">
<title>Node80</title>
<g id="a_Node000080"><a xlink:href="update__objects_8c.html#ae5f13fecc7f9954584ff68142fb8d605" target="_top" xlink:title=" ">
<polygon fill="#fff0f0" stroke="red" points="224,-1469 112,-1469 112,-1450 224,-1450 224,-1469"/>
<text text-anchor="middle" x="168" y="-1457" font-family="Helvetica,sans-Serif" font-size="10.00">init_smoke_particle</text>
</a>
</g>
</g>
<!-- Node2&#45;&gt;Node80 -->
<g id="edge14_Node000002_Node000080" class="edge">
<title>Node2&#45;&gt;Node80</title>
<g id="a_edge14_Node000002_Node000080"><a xlink:title=" ">
<path fill="none" stroke="#63b8ff" d="M353.79,-1329.69C334.48,-1358.14 293.17,-1412.87 244,-1441.5 237.87,-1445.07 231.06,-1447.94 224.12,-1450.23"/>
<polygon fill="#63b8ff" stroke="#63b8ff" points="356.86,-1331.4 359.47,-1321.13 351.02,-1327.52 356.86,-1331.4"/>
</a>
</g>
</g>
<!-- Node84 -->
<g id="Node000084" class="node">
<title>Node84</title>
<g id="a_Node000084"><a xlink:href="update__objects_8c.html#af78bd6e35b3e4b386a57ef313a93c010" target="_top" xlink:title=" ">
<polygon fill="#fff0f0" stroke="red" points="226.5,-1432 109.5,-1432 109.5,-1413 226.5,-1413 226.5,-1432"/>
<text text-anchor="middle" x="168" y="-1420" font-family="Helvetica,sans-Serif" font-size="10.00">init_smoke_particles</text>
</a>
</g>
</g>
<!-- Node2&#45;&gt;Node84 -->
<g id="edge15_Node000002_Node000084" class="edge">
<title>Node2&#45;&gt;Node84</title>
<g id="a_edge15_Node000002_Node000084"><a xlink:title=" ">
<path fill="none" stroke="#63b8ff" d="M348.81,-1328.01C326.71,-1348.94 285.65,-1384.67 244,-1404.5 236.87,-1407.9 229.04,-1410.68 221.21,-1412.96"/>
<polygon fill="#63b8ff" stroke="#63b8ff" points="351.28,-1330.49 356.06,-1321.03 346.43,-1325.45 351.28,-1330.49"/>
</a>
</g>
</g>
<!-- Node86 -->
<g id="Node000086" class="node">
<title>Node86</title>
<g id="a_Node000086"><a xlink:href="update__objects_8c.html#a57e774b9ea68f23d211ba913cbff35ec" target="_top" xlink:title=" ">
<polygon fill="#fff0f0" stroke="red" points="225,-1395 111,-1395 111,-1376 225,-1376 225,-1395"/>
<text text-anchor="middle" x="168" y="-1383" font-family="Helvetica,sans-Serif" font-size="10.00">spawn_ferry_smoke</text>
</a>
</g>
</g>
<!-- Node2&#45;&gt;Node86 -->
<g id="edge16_Node000002_Node000086" class="edge">
<title>Node2&#45;&gt;Node86</title>
<g id="a_edge16_Node000002_Node000086"><a xlink:title=" ">
<path fill="none" stroke="#63b8ff" d="M338.5,-1325.81C314.29,-1338.19 277.52,-1355.88 244,-1367.5 234.76,-1370.7 224.7,-1373.54 215.02,-1375.96"/>
<polygon fill="#63b8ff" stroke="#63b8ff" points="340.16,-1328.89 347.44,-1321.19 336.95,-1322.68 340.16,-1328.89"/>
</a>
</g>
</g>
<!-- Node88 -->
<g id="Node000088" class="node">
<title>Node88</title>
<g id="a_Node000088"><a xlink:href="update__objects_8c.html#a70c9121ccaf0916741d06ba150911781" target="_top" xlink:title=" ">
<polygon fill="#fff0f0" stroke="red" points="224.5,-1358 111.5,-1358 111.5,-1339 224.5,-1339 224.5,-1358"/>
<text text-anchor="middle" x="168" y="-1346" font-family="Helvetica,sans-Serif" font-size="10.00">spawn_train_smoke</text>
</a>
</g>
</g>
<!-- Node2&#45;&gt;Node88 -->
<g id="edge17_Node000002_Node000088" class="edge">
<title>Node2&#45;&gt;Node88</title>
<g id="a_edge17_Node000002_Node000088"><a xlink:title=" ">
<path fill="none" stroke="#63b8ff" d="M305.06,-1322.88C277.74,-1328.02 245.83,-1334.03 219.77,-1338.94"/>
<polygon fill="#63b8ff" stroke="#63b8ff" points="305.72,-1326.32 314.9,-1321.03 304.42,-1319.44 305.72,-1326.32"/>
</a>
</g>
</g>
<!-- Node92 -->
<g id="Node000092" class="node">
<title>Node92</title>
<g id="a_Node000092"><a xlink:href="code__8006E9C0_8c.html#a47667a5a47fd4ca740865e963ce795c9" target="_top" xlink:title=" ">
<polygon fill="#fff0f0" stroke="red" points="56,-928 0,-928 0,-909 56,-909 56,-928"/>
<text text-anchor="middle" x="28" y="-916" font-family="Helvetica,sans-Serif" font-size="10.00">init_hud</text>
</a>
</g>
</g>
<!-- Node91&#45;&gt;Node92 -->
<g id="edge20_Node000091_Node000092" class="edge">
<title>Node91&#45;&gt;Node92</title>
<g id="a_edge20_Node000091_Node000092"><a xlink:title=" ">
<path fill="none" stroke="#63b8ff" d="M112.4,-842.4C105.28,-844.81 98.29,-847.8 92,-851.5 66.96,-866.24 45.68,-893.89 35.47,-908.64"/>
<polygon fill="#63b8ff" stroke="#63b8ff" points="113.57,-845.71 122.13,-839.47 111.55,-839.01 113.57,-845.71"/>
</a>
</g>
</g>
<!-- Node97&#45;&gt;Node92 -->
<g id="edge23_Node000097_Node000092" class="edge">
<title>Node97&#45;&gt;Node92</title>
<g id="a_edge23_Node000097_Node000092"><a xlink:title=" ">
<path fill="none" stroke="#63b8ff" d="M100.27,-918.5C84.66,-918.5 68.9,-918.5 56.18,-918.5"/>
<polygon fill="#63b8ff" stroke="#63b8ff" points="100.47,-922 110.47,-918.5 100.47,-915 100.47,-922"/>
</a>
</g>
</g>
<!-- Node98&#45;&gt;Node92 -->
<g id="edge25_Node000098_Node000092" class="edge">
<title>Node98&#45;&gt;Node92</title>
<g id="a_edge25_Node000098_Node000092"><a xlink:title=" ">
<path fill="none" stroke="#63b8ff" d="M108.98,-893.58C90.63,-899.3 71.23,-905.34 56.13,-910.05"/>
<polygon fill="#63b8ff" stroke="#63b8ff" points="110.23,-896.86 118.73,-890.54 108.15,-890.17 110.23,-896.86"/>
</a>
</g>
</g>
<!-- Node99&#45;&gt;Node92 -->
<g id="edge27_Node000099_Node000092" class="edge">
<title>Node99&#45;&gt;Node92</title>
<g id="a_edge27_Node000099_Node000092"><a xlink:title=" ">
<path fill="none" stroke="#63b8ff" d="M101.17,-990.65C98,-989.06 94.92,-987.34 92,-985.5 67.42,-969.99 45.95,-942.67 35.59,-928.17"/>
<polygon fill="#63b8ff" stroke="#63b8ff" points="99.75,-993.85 110.3,-994.81 102.66,-987.48 99.75,-993.85"/>
</a>
</g>
</g>
<!-- Node100&#45;&gt;Node92 -->
<g id="edge29_Node000100_Node000092" class="edge">
<title>Node100&#45;&gt;Node92</title>
<g id="a_edge29_Node000100_Node000092"><a xlink:title=" ">
<path fill="none" stroke="#63b8ff" d="M108.98,-943.42C90.63,-937.7 71.23,-931.66 56.13,-926.95"/>
<polygon fill="#63b8ff" stroke="#63b8ff" points="108.15,-946.83 118.73,-946.46 110.23,-940.14 108.15,-946.83"/>
</a>
</g>
</g>
<!-- Node101&#45;&gt;Node97 -->
<g id="edge31_Node000101_Node000097" class="edge">
<title>Node101&#45;&gt;Node97</title>
<g id="a_edge31_Node000101_Node000097"><a xlink:title=" ">
<path fill="none" stroke="#63b8ff" d="M296.21,-937.27C273.15,-933.87 247.74,-930.12 225.74,-926.87"/>
<polygon fill="#63b8ff" stroke="#63b8ff" points="295.87,-940.76 306.28,-938.76 296.9,-933.84 295.87,-940.76"/>
</a>
</g>
</g>
<!-- Node101&#45;&gt;Node98 -->
<g id="edge32_Node000101_Node000098" class="edge">
<title>Node101&#45;&gt;Node98</title>
<g id="a_edge32_Node000101_Node000098"><a xlink:title=" ">
<path fill="none" stroke="#63b8ff" d="M332.4,-934.21C308.06,-924.55 274.11,-911.34 244,-900.5 234.83,-897.2 224.98,-893.81 215.53,-890.63"/>
<polygon fill="#63b8ff" stroke="#63b8ff" points="331.29,-937.53 341.88,-937.98 333.88,-931.03 331.29,-937.53"/>
</a>
</g>
</g>
<!-- Node101&#45;&gt;Node99 -->
<g id="edge33_Node000101_Node000099" class="edge">
<title>Node101&#45;&gt;Node99</title>
<g id="a_edge33_Node000101_Node000099"><a xlink:title=" ">
<path fill="none" stroke="#63b8ff" d="M325.49,-960.12C294.07,-970.04 250.2,-983.88 216.91,-994.38"/>
<polygon fill="#63b8ff" stroke="#63b8ff" points="326.74,-963.4 335.23,-957.05 324.64,-956.72 326.74,-963.4"/>
</a>
</g>
</g>
<!-- Node101&#45;&gt;Node100 -->
<g id="edge34_Node000101_Node000100" class="edge">
<title>Node101&#45;&gt;Node100</title>
<g id="a_edge34_Node000101_Node000100"><a xlink:title=" ">
<path fill="none" stroke="#63b8ff" d="M296.21,-952.44C273.15,-954.08 247.74,-955.89 225.74,-957.46"/>
<polygon fill="#63b8ff" stroke="#63b8ff" points="296.55,-955.92 306.28,-951.72 296.05,-948.94 296.55,-955.92"/>
</a>
</g>
</g>
<!-- Node103 -->
<g id="Node000103" class="node">
<title>Node103</title>
<g id="a_Node000103"><a xlink:href="classRainbowRoad.html#abdbd5717ef5154aa41dc2b91642237e4" target="_top" xlink:title=" ">
<polygon fill="white" stroke="#666666" points="237,-805 99,-805 99,-786 237,-786 237,-805"/>
<text text-anchor="middle" x="168" y="-793" font-family="Helvetica,sans-Serif" font-size="10.00">RainbowRoad::InitClouds</text>
</a>
</g>
</g>
<!-- Node102&#45;&gt;Node103 -->
<g id="edge36_Node000102_Node000103" class="edge">
<title>Node102&#45;&gt;Node103</title>
<g id="a_edge36_Node000102_Node000103"><a xlink:title=" ">
<path fill="none" stroke="#63b8ff" d="M325.34,-766.06C294.76,-771.82 252.46,-779.78 219.57,-785.98"/>
<polygon fill="#63b8ff" stroke="#63b8ff" points="326.05,-769.49 335.23,-764.2 324.75,-762.61 326.05,-769.49"/>
</a>
</g>
</g>
<!-- Node104 -->
<g id="Node000104" class="node">
<title>Node104</title>
<g id="a_Node000104"><a xlink:href="classToadsTurnpike.html#aaf67b107fa62338f26af69ab0a64eefc" target="_top" xlink:title=" ">
<polygon fill="white" stroke="#666666" points="238,-768 98,-768 98,-749 238,-749 238,-768"/>
<text text-anchor="middle" x="168" y="-756" font-family="Helvetica,sans-Serif" font-size="10.00">ToadsTurnpike::InitClouds</text>
</a>
</g>
</g>
<!-- Node102&#45;&gt;Node104 -->
<g id="edge37_Node000102_Node000104" class="edge">
<title>Node102&#45;&gt;Node104</title>
<g id="a_edge37_Node000102_Node000104"><a xlink:title=" ">
<path fill="none" stroke="#63b8ff" d="M325,-758.5C299.93,-758.5 267.1,-758.5 238.02,-758.5"/>
<polygon fill="#63b8ff" stroke="#63b8ff" points="325.23,-762 335.23,-758.5 325.23,-755 325.23,-762"/>
</a>
</g>
</g>
<!-- Node105 -->
<g id="Node000105" class="node">
<title>Node105</title>
<g id="a_Node000105"><a xlink:href="classWarioStadium.html#af002126ac7006c5469ab04c0793627f4" target="_top" xlink:title=" ">
<polygon fill="white" stroke="#666666" points="238,-731 98,-731 98,-712 238,-712 238,-731"/>
<text text-anchor="middle" x="168" y="-719" font-family="Helvetica,sans-Serif" font-size="10.00">WarioStadium::InitClouds</text>
</a>
</g>
</g>
<!-- Node102&#45;&gt;Node105 -->
<g id="edge38_Node000102_Node000105" class="edge">
<title>Node102&#45;&gt;Node105</title>
<g id="a_edge38_Node000102_Node000105"><a xlink:title=" ">
<path fill="none" stroke="#63b8ff" d="M325.34,-750.94C294.76,-745.18 252.46,-737.22 219.57,-731.02"/>
<polygon fill="#63b8ff" stroke="#63b8ff" points="324.75,-754.39 335.23,-752.8 326.05,-747.51 324.75,-754.39"/>
</a>
</g>
</g>
</g>
</svg>
