<?xml version="1.0" encoding="UTF-8" standalone="no"?>
<!DOCTYPE svg PUBLIC "-//W3C//DTD SVG 1.1//EN"
 "http://www.w3.org/Graphics/SVG/1.1/DTD/svg11.dtd">
<!-- Generated by graphviz version 2.43.0 (0)
 -->
<!-- Title: init_obj_neon_mushroom Pages: 1 -->
<svg width="737pt" height="38pt"
 viewBox="0.00 0.00 737.00 38.00" xmlns="http://www.w3.org/2000/svg" xmlns:xlink="http://www.w3.org/1999/xlink">
<g id="graph0" class="graph" transform="scale(1 1) rotate(0) translate(4 34)">
<title>init_obj_neon_mushroom</title>
<!-- Node1 -->
<g id="Node000001" class="node">
<title>Node1</title>
<g id="a_Node000001"><a xlink:title=" ">
<polygon fill="#999999" stroke="#666666" points="729,-24.5 589,-24.5 589,-5.5 729,-5.5 729,-24.5"/>
<text text-anchor="middle" x="659" y="-12.5" font-family="Helvetica,sans-Serif" font-size="10.00">init_obj_neon_mushroom</text>
</a>
</g>
</g>
<!-- Node2 -->
<g id="Node000002" class="node">
<title>Node2</title>
<g id="a_Node000002"><a xlink:href="update__objects_8c.html#a38bcb1c1e3fb81ad72c3e87254e35a0c" target="_top" xlink:title=" ">
<polygon fill="white" stroke="#666666" points="553,-24.5 461,-24.5 461,-5.5 553,-5.5 553,-24.5"/>
<text text-anchor="middle" x="507" y="-12.5" font-family="Helvetica,sans-Serif" font-size="10.00">func_80085CA0</text>
</a>
</g>
</g>
<!-- Node1&#45;&gt;Node2 -->
<g id="edge1_Node000001_Node000002" class="edge">
<title>Node1&#45;&gt;Node2</title>
<g id="a_edge1_Node000001_Node000002"><a xlink:title=" ">
<path fill="none" stroke="#63b8ff" d="M578.46,-15C569.73,-15 561.09,-15 553,-15"/>
<polygon fill="#63b8ff" stroke="#63b8ff" points="578.71,-18.5 588.71,-15 578.71,-11.5 578.71,-18.5"/>
</a>
</g>
</g>
<!-- Node3 -->
<g id="Node000003" class="node">
<title>Node3</title>
<g id="a_Node000003"><a xlink:href="update__objects_8c.html#a84c4faf0caa931fc708016d3c6ee6176" target="_top" xlink:title=" ">
<polygon fill="white" stroke="#666666" points="425,-24.5 310,-24.5 310,-5.5 425,-5.5 425,-24.5"/>
<text text-anchor="middle" x="367.5" y="-12.5" font-family="Helvetica,sans-Serif" font-size="10.00">update_object_neon</text>
</a>
</g>
</g>
<!-- Node2&#45;&gt;Node3 -->
<g id="edge2_Node000002_Node000003" class="edge">
<title>Node2&#45;&gt;Node3</title>
<g id="a_edge2_Node000002_Node000003"><a xlink:title=" ">
<path fill="none" stroke="#63b8ff" d="M450.85,-15C442.4,-15 433.66,-15 425.18,-15"/>
<polygon fill="#63b8ff" stroke="#63b8ff" points="450.98,-18.5 460.98,-15 450.98,-11.5 450.98,-18.5"/>
</a>
</g>
</g>
<!-- Node4 -->
<g id="Node000004" class="node">
<title>Node4</title>
<g id="a_Node000004"><a xlink:href="update__objects_8c.html#a5a771dbf7fbb25d378ab59b7610200db" target="_top" xlink:title=" ">
<polygon fill="white" stroke="#666666" points="274,-24.5 194,-24.5 194,-5.5 274,-5.5 274,-24.5"/>
<text text-anchor="middle" x="234" y="-12.5" font-family="Helvetica,sans-Serif" font-size="10.00">update_neon</text>
</a>
</g>
</g>
<!-- Node3&#45;&gt;Node4 -->
<g id="edge3_Node000003_Node000004" class="edge">
<title>Node3&#45;&gt;Node4</title>
<g id="a_edge3_Node000003_Node000004"><a xlink:title=" ">
<path fill="none" stroke="#63b8ff" d="M299.69,-15C290.9,-15 282.15,-15 274.04,-15"/>
<polygon fill="#63b8ff" stroke="#63b8ff" points="299.97,-18.5 309.97,-15 299.97,-11.5 299.97,-18.5"/>
</a>
</g>
</g>
<!-- Node5 -->
<g id="Node000005" class="node">
<title>Node5</title>
<g id="a_Node000005"><a xlink:href="classRainbowRoad.html#a809aba848984ae497661c6c46289f658" target="_top" xlink:title=" ">
<polygon fill="white" stroke="#666666" points="158,-30 0,-30 0,0 158,0 158,-30"/>
<text text-anchor="start" x="8" y="-18" font-family="Helvetica,sans-Serif" font-size="10.00">RainbowRoad::UpdateCourse</text>
<text text-anchor="middle" x="79" y="-7" font-family="Helvetica,sans-Serif" font-size="10.00">Objects</text>
</a>
</g>
</g>
<!-- Node4&#45;&gt;Node5 -->
<g id="edge4_Node000004_Node000005" class="edge">
<title>Node4&#45;&gt;Node5</title>
<g id="a_edge4_Node000004_Node000005"><a xlink:title=" ">
<path fill="none" stroke="#63b8ff" d="M183.89,-15C175.68,-15 166.99,-15 158.26,-15"/>
<polygon fill="#63b8ff" stroke="#63b8ff" points="184,-18.5 194,-15 184,-11.5 184,-18.5"/>
</a>
</g>
</g>
</g>
</svg>
