<?xml version="1.0" encoding="UTF-8" standalone="no"?>
<!DOCTYPE svg PUBLIC "-//W3C//DTD SVG 1.1//EN"
 "http://www.w3.org/Graphics/SVG/1.1/DTD/svg11.dtd">
<!-- Generated by graphviz version 2.43.0 (0)
 -->
<!-- Title: src/port/resource/importers/Vec3fFactory.cpp Pages: 1 -->
<svg width="444pt" height="159pt"
 viewBox="0.00 0.00 443.50 159.00" xmlns="http://www.w3.org/2000/svg" xmlns:xlink="http://www.w3.org/1999/xlink">

<svg id="main" version="1.1" xmlns="http://www.w3.org/2000/svg" xmlns:xlink="http://www.w3.org/1999/xlink" xml:space="preserve">

<style type="text/css"><![CDATA[
.node, .edge {opacity: 0.7;}
.node.selected, .edge.selected {opacity: 1;}
.edge:hover path { stroke: red; }
.edge:hover polygon { stroke: red; fill: red; }
]]></style>
<script type="application/ecmascript" xlink:href="svg.min.js"/>
<svg id="graph" class="graph">
<g id="graph0" class="graph" transform="scale(1 1) rotate(0) translate(4 155)">
<title>src/port/resource/importers/Vec3fFactory.cpp</title>
<!-- Node1 -->
<g id="Node000001" class="node">
<title>Node1</title>
<g id="a_Node000001"><a xlink:title=" ">
<polygon fill="#999999" stroke="#666666" points="343.5,-151 194.5,-151 194.5,-121 343.5,-121 343.5,-151"/>
<text text-anchor="start" x="202.5" y="-139" font-family="Helvetica,sans-Serif" font-size="10.00">src/port/resource/importers</text>
<text text-anchor="middle" x="269" y="-128" font-family="Helvetica,sans-Serif" font-size="10.00">/Vec3fFactory.cpp</text>
</a>
</g>
</g>
<!-- Node2 -->
<g id="Node000002" class="node">
<title>Node2</title>
<g id="a_Node000002"><a xlink:href="Vec3fFactory_8h.html" target="_top" xlink:title=" ">
<polygon fill="white" stroke="#666666" points="195,-85 109,-85 109,-66 195,-66 195,-85"/>
<text text-anchor="middle" x="152" y="-73" font-family="Helvetica,sans-Serif" font-size="10.00">Vec3fFactory.h</text>
</a>
</g>
</g>
<!-- Node1&#45;&gt;Node2 -->
<g id="edge1_Node000001_Node000002" class="edge">
<title>Node1&#45;&gt;Node2</title>
<g id="a_edge1_Node000001_Node000002"><a xlink:title=" ">
<path fill="none" stroke="#63b8ff" d="M240.98,-120.99C221.98,-111.49 197.03,-99.02 178.39,-89.69"/>
<polygon fill="#63b8ff" stroke="#63b8ff" points="179.79,-86.48 169.28,-85.14 176.66,-92.74 179.79,-86.48"/>
</a>
</g>
</g>
<!-- Node5 -->
<g id="Node000005" class="node">
<title>Node5</title>
<g id="a_Node000005"><a xlink:href="Vec3fArray_8h.html" target="_top" xlink:title=" ">
<polygon fill="white" stroke="#666666" points="324.5,-85 213.5,-85 213.5,-66 324.5,-66 324.5,-85"/>
<text text-anchor="middle" x="269" y="-73" font-family="Helvetica,sans-Serif" font-size="10.00">../type/Vec3fArray.h</text>
</a>
</g>
</g>
<!-- Node1&#45;&gt;Node5 -->
<g id="edge4_Node000001_Node000005" class="edge">
<title>Node1&#45;&gt;Node5</title>
<g id="a_edge4_Node000001_Node000005"><a xlink:title=" ">
<path fill="none" stroke="#63b8ff" d="M269,-120.84C269,-113.21 269,-103.7 269,-95.45"/>
<polygon fill="#63b8ff" stroke="#63b8ff" points="272.5,-95.27 269,-85.27 265.5,-95.27 272.5,-95.27"/>
</a>
</g>
</g>
<!-- Node8 -->
<g id="Node000008" class="node">
<title>Node8</title>
<g id="a_Node000008"><a xlink:title=" ">
<polygon fill="#e0e0e0" stroke="#999999" points="435.5,-85 342.5,-85 342.5,-66 435.5,-66 435.5,-85"/>
<text text-anchor="middle" x="389" y="-73" font-family="Helvetica,sans-Serif" font-size="10.00">spdlog/spdlog.h</text>
</a>
</g>
</g>
<!-- Node1&#45;&gt;Node8 -->
<g id="edge8_Node000001_Node000008" class="edge">
<title>Node1&#45;&gt;Node8</title>
<g id="a_edge8_Node000001_Node000008"><a xlink:title=" ">
<path fill="none" stroke="#63b8ff" d="M297.74,-120.99C317.32,-111.45 343.05,-98.9 362.2,-89.57"/>
<polygon fill="#63b8ff" stroke="#63b8ff" points="363.82,-92.67 371.28,-85.14 360.76,-86.38 363.82,-92.67"/>
</a>
</g>
</g>
<!-- Node3 -->
<g id="Node000003" class="node">
<title>Node3</title>
<g id="a_Node000003"><a xlink:title=" ">
<polygon fill="#e0e0e0" stroke="#999999" points="225.5,-24.5 154.5,-24.5 154.5,-5.5 225.5,-5.5 225.5,-24.5"/>
<text text-anchor="middle" x="190" y="-12.5" font-family="Helvetica,sans-Serif" font-size="10.00">Resource.h</text>
</a>
</g>
</g>
<!-- Node2&#45;&gt;Node3 -->
<g id="edge2_Node000002_Node000003" class="edge">
<title>Node2&#45;&gt;Node3</title>
<g id="a_edge2_Node000002_Node000003"><a xlink:title=" ">
<path fill="none" stroke="#63b8ff" d="M157.61,-65.87C163.16,-57.31 171.83,-43.97 178.8,-33.24"/>
<polygon fill="#63b8ff" stroke="#63b8ff" points="181.86,-34.96 184.37,-24.67 175.99,-31.15 181.86,-34.96"/>
</a>
</g>
</g>
<!-- Node4 -->
<g id="Node000004" class="node">
<title>Node4</title>
<g id="a_Node000004"><a xlink:title=" ">
<polygon fill="#e0e0e0" stroke="#999999" points="136,-24.5 0,-24.5 0,-5.5 136,-5.5 136,-24.5"/>
<text text-anchor="middle" x="68" y="-12.5" font-family="Helvetica,sans-Serif" font-size="10.00">ResourceFactoryBinary.h</text>
</a>
</g>
</g>
<!-- Node2&#45;&gt;Node4 -->
<g id="edge3_Node000002_Node000004" class="edge">
<title>Node2&#45;&gt;Node4</title>
<g id="a_edge3_Node000002_Node000004"><a xlink:title=" ">
<path fill="none" stroke="#63b8ff" d="M139.61,-65.87C126.21,-56.54 104.62,-41.51 88.65,-30.38"/>
<polygon fill="#63b8ff" stroke="#63b8ff" points="90.65,-27.51 80.45,-24.67 86.65,-33.25 90.65,-27.51"/>
</a>
</g>
</g>
<!-- Node5&#45;&gt;Node3 -->
<g id="edge6_Node000005_Node000003" class="edge">
<title>Node5&#45;&gt;Node3</title>
<g id="a_edge6_Node000005_Node000003"><a xlink:title=" ">
<path fill="none" stroke="#63b8ff" d="M257.34,-65.87C244.86,-56.62 224.82,-41.78 209.84,-30.69"/>
<polygon fill="#63b8ff" stroke="#63b8ff" points="211.82,-27.81 201.7,-24.67 207.66,-33.43 211.82,-27.81"/>
</a>
</g>
</g>
<!-- Node6 -->
<g id="Node000006" class="node">
<title>Node6</title>
<g id="a_Node000006"><a xlink:title=" ">
<polygon fill="#e0e0e0" stroke="#999999" points="294,-24.5 244,-24.5 244,-5.5 294,-5.5 294,-24.5"/>
<text text-anchor="middle" x="269" y="-12.5" font-family="Helvetica,sans-Serif" font-size="10.00">cstdint</text>
</a>
</g>
</g>
<!-- Node5&#45;&gt;Node6 -->
<g id="edge5_Node000005_Node000006" class="edge">
<title>Node5&#45;&gt;Node6</title>
<g id="a_edge5_Node000005_Node000006"><a xlink:title=" ">
<path fill="none" stroke="#63b8ff" d="M269,-65.87C269,-57.75 269,-45.31 269,-34.89"/>
<polygon fill="#63b8ff" stroke="#63b8ff" points="272.5,-34.67 269,-24.67 265.5,-34.67 272.5,-34.67"/>
</a>
</g>
</g>
<!-- Node7 -->
<g id="Node000007" class="node">
<title>Node7</title>
<g id="a_Node000007"><a xlink:title=" ">
<polygon fill="#e0e0e0" stroke="#999999" points="421.5,-30 312.5,-30 312.5,0 421.5,0 421.5,-30"/>
<text text-anchor="start" x="320.5" y="-18" font-family="Helvetica,sans-Serif" font-size="10.00">libultraship/libultra</text>
<text text-anchor="middle" x="367" y="-7" font-family="Helvetica,sans-Serif" font-size="10.00">/types.h</text>
</a>
</g>
</g>
<!-- Node5&#45;&gt;Node7 -->
<g id="edge7_Node000005_Node000007" class="edge">
<title>Node5&#45;&gt;Node7</title>
<g id="a_edge7_Node000005_Node000007"><a xlink:title=" ">
<path fill="none" stroke="#63b8ff" d="M283.46,-65.87C296.88,-57.86 317.33,-45.65 334.64,-35.31"/>
<polygon fill="#63b8ff" stroke="#63b8ff" points="336.56,-38.25 343.36,-30.11 332.97,-32.23 336.56,-38.25"/>
</a>
</g>
</g>
</g>
</svg>
</svg>

<style type='text/css'>
<![CDATA[
[data-mouse-over-selected='false'] { opacity: 0.7; }
[data-mouse-over-selected='true']  { opacity: 1.0; }
]]>
</style>
<script type="application/ecmascript"><![CDATA[
document.addEventListener('DOMContentLoaded', (event) => {
  highlightEdges();
  highlightAdjacentNodes();
});
]]></script>
</svg>
