<?xml version="1.0" encoding="UTF-8" standalone="no"?>
<!DOCTYPE svg PUBLIC "-//W3C//DTD SVG 1.1//EN"
 "http://www.w3.org/Graphics/SVG/1.1/DTD/svg11.dtd">
<!-- Generated by graphviz version 2.43.0 (0)
 -->
<!-- Title: include/assets/wario_stadium_data.h Pages: 1 -->
<svg width="2335pt" height="280pt"
 viewBox="0.00 0.00 2334.50 280.00" xmlns="http://www.w3.org/2000/svg" xmlns:xlink="http://www.w3.org/1999/xlink">
<g id="graph0" class="graph" transform="scale(1 1) rotate(0) translate(4 276)">
<title>include/assets/wario_stadium_data.h</title>
<!-- Node1 -->
<g id="Node000001" class="node">
<title>Node1</title>
<g id="a_Node000001"><a xlink:title=" ">
<polygon fill="#999999" stroke="#666666" points="1857.5,-272 1741.5,-272 1741.5,-242 1857.5,-242 1857.5,-272"/>
<text text-anchor="start" x="1749.5" y="-260" font-family="Helvetica,sans-Serif" font-size="10.00">include/assets/wario</text>
<text text-anchor="middle" x="1799.5" y="-249" font-family="Helvetica,sans-Serif" font-size="10.00">_stadium_data.h</text>
</a>
</g>
</g>
<!-- Node2 -->
<g id="Node000002" class="node">
<title>Node2</title>
<g id="a_Node000002"><a xlink:href="all__course__data_8h.html" target="_top" xlink:title=" ">
<polygon fill="white" stroke="#666666" points="978,-206 871,-206 871,-176 978,-176 978,-206"/>
<text text-anchor="start" x="879" y="-194" font-family="Helvetica,sans-Serif" font-size="10.00">courses/all_course</text>
<text text-anchor="middle" x="924.5" y="-183" font-family="Helvetica,sans-Serif" font-size="10.00">_data.h</text>
</a>
</g>
</g>
<!-- Node1&#45;&gt;Node2 -->
<g id="edge1_Node000001_Node000002" class="edge">
<title>Node1&#45;&gt;Node2</title>
<g id="a_edge1_Node000001_Node000002"><a xlink:title=" ">
<path fill="none" stroke="#63b8ff" d="M1731.43,-251.02C1563.09,-238.71 1129.92,-207.03 978.07,-195.92"/>
<polygon fill="#63b8ff" stroke="#63b8ff" points="1731.18,-254.51 1741.41,-251.75 1731.69,-247.53 1731.18,-254.51"/>
</a>
</g>
</g>
<!-- Node4 -->
<g id="Node000004" class="node">
<title>Node4</title>
<g id="a_Node000004"><a xlink:href="actors_8c.html" target="_top" xlink:title=" ">
<polygon fill="white" stroke="#666666" points="1173,-74 1068,-74 1068,-55 1173,-55 1173,-74"/>
<text text-anchor="middle" x="1120.5" y="-62" font-family="Helvetica,sans-Serif" font-size="10.00">src/racing/actors.c</text>
</a>
</g>
</g>
<!-- Node1&#45;&gt;Node4 -->
<g id="edge27_Node000001_Node000004" class="edge">
<title>Node1&#45;&gt;Node4</title>
<g id="a_edge27_Node000001_Node000004"><a xlink:title=" ">
<path fill="none" stroke="#63b8ff" d="M1731.56,-245.15C1704.8,-237.92 1675.5,-225.9 1654.5,-206 1621.07,-174.32 1652.51,-137.4 1615.5,-110 1580.52,-84.11 1293.24,-71.39 1173.05,-67.16"/>
<polygon fill="#63b8ff" stroke="#63b8ff" points="1730.74,-248.56 1741.29,-247.61 1732.45,-241.77 1730.74,-248.56"/>
</a>
</g>
</g>
<!-- Node9 -->
<g id="Node000009" class="node">
<title>Node9</title>
<g id="a_Node000009"><a xlink:href="path__spawn__metadata_8c.html" target="_top" xlink:title=" ">
<polygon fill="white" stroke="#666666" points="1607,-140 1490,-140 1490,-110 1607,-110 1607,-140"/>
<text text-anchor="start" x="1498" y="-128" font-family="Helvetica,sans-Serif" font-size="10.00">src/data/path_spawn</text>
<text text-anchor="middle" x="1548.5" y="-117" font-family="Helvetica,sans-Serif" font-size="10.00">_metadata.c</text>
</a>
</g>
</g>
<!-- Node1&#45;&gt;Node9 -->
<g id="edge21_Node000001_Node000009" class="edge">
<title>Node1&#45;&gt;Node9</title>
<g id="a_edge21_Node000001_Node000009"><a xlink:title=" ">
<path fill="none" stroke="#63b8ff" d="M1731.22,-246.05C1696.48,-238.77 1654.7,-226.47 1621.5,-206 1593.65,-188.83 1569.94,-158.04 1557.6,-140.08"/>
<polygon fill="#63b8ff" stroke="#63b8ff" points="1730.8,-249.53 1741.29,-248.06 1732.17,-242.67 1730.8,-249.53"/>
</a>
</g>
</g>
<!-- Node17 -->
<g id="Node000017" class="node">
<title>Node17</title>
<g id="a_Node000017"><a xlink:href="wario__stadium_2course__offsets_8c.html" target="_top" xlink:title=" ">
<polygon fill="white" stroke="#666666" points="1793,-206 1664,-206 1664,-176 1793,-176 1793,-206"/>
<text text-anchor="start" x="1672" y="-194" font-family="Helvetica,sans-Serif" font-size="10.00">courses/wario_stadium</text>
<text text-anchor="middle" x="1728.5" y="-183" font-family="Helvetica,sans-Serif" font-size="10.00">/course_offsets.c</text>
</a>
</g>
</g>
<!-- Node1&#45;&gt;Node17 -->
<g id="edge18_Node000001_Node000017" class="edge">
<title>Node1&#45;&gt;Node17</title>
<g id="a_edge18_Node000001_Node000017"><a xlink:title=" ">
<path fill="none" stroke="#63b8ff" d="M1776.12,-234.92C1765.65,-225.49 1753.58,-214.61 1744.21,-206.16"/>
<polygon fill="#63b8ff" stroke="#63b8ff" points="1773.97,-237.7 1783.74,-241.8 1778.66,-232.5 1773.97,-237.7"/>
</a>
</g>
</g>
<!-- Node18 -->
<g id="Node000018" class="node">
<title>Node18</title>
<g id="a_Node000018"><a xlink:href="wario__sign_2render_8inc_8c.html" target="_top" xlink:title=" ">
<polygon fill="white" stroke="#666666" points="1930,-206 1811,-206 1811,-176 1930,-176 1930,-206"/>
<text text-anchor="start" x="1819" y="-194" font-family="Helvetica,sans-Serif" font-size="10.00">src/actors/wario_sign</text>
<text text-anchor="middle" x="1870.5" y="-183" font-family="Helvetica,sans-Serif" font-size="10.00">/render.inc.c</text>
</a>
</g>
</g>
<!-- Node1&#45;&gt;Node18 -->
<g id="edge19_Node000001_Node000018" class="edge">
<title>Node1&#45;&gt;Node18</title>
<g id="a_edge19_Node000001_Node000018"><a xlink:title=" ">
<path fill="none" stroke="#63b8ff" d="M1822.88,-234.92C1833.35,-225.49 1845.42,-214.61 1854.79,-206.16"/>
<polygon fill="#63b8ff" stroke="#63b8ff" points="1820.34,-232.5 1815.26,-241.8 1825.03,-237.7 1820.34,-232.5"/>
</a>
</g>
</g>
<!-- Node19 -->
<g id="Node000019" class="node">
<title>Node19</title>
<g id="a_Node000019"><a xlink:href="WarioSign_8cpp.html" target="_top" xlink:title=" ">
<polygon fill="white" stroke="#666666" points="2120.5,-200.5 1948.5,-200.5 1948.5,-181.5 2120.5,-181.5 2120.5,-200.5"/>
<text text-anchor="middle" x="2034.5" y="-188.5" font-family="Helvetica,sans-Serif" font-size="10.00">src/engine/actors/WarioSign.cpp</text>
</a>
</g>
</g>
<!-- Node1&#45;&gt;Node19 -->
<g id="edge22_Node000001_Node000019" class="edge">
<title>Node1&#45;&gt;Node19</title>
<g id="a_edge22_Node000001_Node000019"><a xlink:title=" ">
<path fill="none" stroke="#63b8ff" d="M1860.87,-239.29C1906.56,-226.84 1967.03,-210.37 2003.23,-200.52"/>
<polygon fill="#63b8ff" stroke="#63b8ff" points="1859.8,-235.95 1851.07,-241.95 1861.64,-242.7 1859.8,-235.95"/>
</a>
</g>
</g>
<!-- Node20 -->
<g id="Node000020" class="node">
<title>Node20</title>
<g id="a_Node000020"><a xlink:href="WarioStadium_8cpp.html" target="_top" xlink:title=" ">
<polygon fill="white" stroke="#666666" points="2202.5,-140 2094.5,-140 2094.5,-110 2202.5,-110 2202.5,-140"/>
<text text-anchor="start" x="2102.5" y="-128" font-family="Helvetica,sans-Serif" font-size="10.00">src/engine/courses</text>
<text text-anchor="middle" x="2148.5" y="-117" font-family="Helvetica,sans-Serif" font-size="10.00">/WarioStadium.cpp</text>
</a>
</g>
</g>
<!-- Node1&#45;&gt;Node20 -->
<g id="edge23_Node000001_Node000020" class="edge">
<title>Node1&#45;&gt;Node20</title>
<g id="a_edge23_Node000001_Node000020"><a xlink:title=" ">
<path fill="none" stroke="#63b8ff" d="M1867.72,-254.42C1953.01,-250.99 2092.37,-240.17 2129.5,-206 2147.78,-189.18 2149.99,-158.27 2149.53,-140.19"/>
<polygon fill="#63b8ff" stroke="#63b8ff" points="1867.45,-250.92 1857.59,-254.8 1867.72,-257.92 1867.45,-250.92"/>
</a>
</g>
</g>
<!-- Node21 -->
<g id="Node000021" class="node">
<title>Node21</title>
<g id="a_Node000021"><a xlink:href="WarioStadium_8h.html" target="_top" xlink:title=" ">
<polygon fill="white" stroke="#666666" points="2284,-206 2177,-206 2177,-176 2284,-176 2284,-206"/>
<text text-anchor="start" x="2185" y="-194" font-family="Helvetica,sans-Serif" font-size="10.00">src/engine/courses</text>
<text text-anchor="middle" x="2230.5" y="-183" font-family="Helvetica,sans-Serif" font-size="10.00">/WarioStadium.h</text>
</a>
</g>
</g>
<!-- Node1&#45;&gt;Node21 -->
<g id="edge24_Node000001_Node000021" class="edge">
<title>Node1&#45;&gt;Node21</title>
<g id="a_edge24_Node000001_Node000021"><a xlink:title=" ">
<path fill="none" stroke="#63b8ff" d="M1867.52,-247.99C1940.62,-239.07 2060.1,-223.57 2162.5,-206 2167.13,-205.2 2171.93,-204.33 2176.74,-203.41"/>
<polygon fill="#63b8ff" stroke="#63b8ff" points="1867.03,-244.53 1857.52,-249.21 1867.87,-251.48 1867.03,-244.53"/>
</a>
</g>
</g>
<!-- Node3 -->
<g id="Node000003" class="node">
<title>Node3</title>
<g id="a_Node000003"><a xlink:href="paddle__boat_2render_8inc_8c.html" target="_top" xlink:title=" ">
<polygon fill="white" stroke="#666666" points="988,-140 861,-140 861,-110 988,-110 988,-140"/>
<text text-anchor="start" x="869" y="-128" font-family="Helvetica,sans-Serif" font-size="10.00">src/actors/paddle_boat</text>
<text text-anchor="middle" x="924.5" y="-117" font-family="Helvetica,sans-Serif" font-size="10.00">/render.inc.c</text>
</a>
</g>
</g>
<!-- Node2&#45;&gt;Node3 -->
<g id="edge2_Node000002_Node000003" class="edge">
<title>Node2&#45;&gt;Node3</title>
<g id="a_edge2_Node000002_Node000003"><a xlink:title=" ">
<path fill="none" stroke="#63b8ff" d="M924.5,-165.54C924.5,-156.96 924.5,-147.61 924.5,-140.16"/>
<polygon fill="#63b8ff" stroke="#63b8ff" points="921,-165.8 924.5,-175.8 928,-165.8 921,-165.8"/>
</a>
</g>
</g>
<!-- Node2&#45;&gt;Node4 -->
<g id="edge13_Node000002_Node000004" class="edge">
<title>Node2&#45;&gt;Node4</title>
<g id="a_edge13_Node000002_Node000004"><a xlink:title=" ">
<path fill="none" stroke="#63b8ff" d="M954.11,-169.92C967.21,-160.91 982.73,-150.07 996.5,-140 1014.15,-127.09 1017.08,-121.78 1035.5,-110 1057.39,-96 1084.17,-82.54 1101.74,-74.16"/>
<polygon fill="#63b8ff" stroke="#63b8ff" points="951.76,-167.29 945.48,-175.82 955.71,-173.06 951.76,-167.29"/>
</a>
</g>
</g>
<!-- Node5 -->
<g id="Node000005" class="node">
<title>Node5</title>
<g id="a_Node000005"><a xlink:href="trees_2render_8inc_8c.html" target="_top" xlink:title=" ">
<polygon fill="white" stroke="#666666" points="1196,-134.5 1045,-134.5 1045,-115.5 1196,-115.5 1196,-134.5"/>
<text text-anchor="middle" x="1120.5" y="-122.5" font-family="Helvetica,sans-Serif" font-size="10.00">src/actors/trees/render.inc.c</text>
</a>
</g>
</g>
<!-- Node2&#45;&gt;Node5 -->
<g id="edge4_Node000002_Node000005" class="edge">
<title>Node2&#45;&gt;Node5</title>
<g id="a_edge4_Node000002_Node000005"><a xlink:title=" ">
<path fill="none" stroke="#63b8ff" d="M977.37,-172.74C1015.26,-160.36 1064.67,-144.23 1094.42,-134.52"/>
<polygon fill="#63b8ff" stroke="#63b8ff" points="975.93,-169.52 967.51,-175.95 978.11,-176.18 975.93,-169.52"/>
</a>
</g>
</g>
<!-- Node6 -->
<g id="Node000006" class="node">
<title>Node6</title>
<g id="a_Node000006"><a xlink:href="code__800029B0_8c.html" target="_top" xlink:title=" ">
<polygon fill="white" stroke="#666666" points="1333,-134.5 1214,-134.5 1214,-115.5 1333,-115.5 1333,-134.5"/>
<text text-anchor="middle" x="1273.5" y="-122.5" font-family="Helvetica,sans-Serif" font-size="10.00">src/code_800029B0.c</text>
</a>
</g>
</g>
<!-- Node2&#45;&gt;Node6 -->
<g id="edge6_Node000002_Node000006" class="edge">
<title>Node2&#45;&gt;Node6</title>
<g id="a_edge6_Node000002_Node000006"><a xlink:title=" ">
<path fill="none" stroke="#63b8ff" d="M988.16,-179.07C1044.96,-169.21 1130.37,-154.14 1204.5,-140 1213.51,-138.28 1223.16,-136.37 1232.3,-134.52"/>
<polygon fill="#63b8ff" stroke="#63b8ff" points="987.5,-175.63 978.25,-180.79 988.7,-182.53 987.5,-175.63"/>
</a>
</g>
</g>
<!-- Node7 -->
<g id="Node000007" class="node">
<title>Node7</title>
<g id="a_Node000007"><a xlink:href="code__80005FD0_8c.html" target="_top" xlink:title=" ">
<polygon fill="white" stroke="#666666" points="1471.5,-134.5 1351.5,-134.5 1351.5,-115.5 1471.5,-115.5 1471.5,-134.5"/>
<text text-anchor="middle" x="1411.5" y="-122.5" font-family="Helvetica,sans-Serif" font-size="10.00">src/code_80005FD0.c</text>
</a>
</g>
</g>
<!-- Node2&#45;&gt;Node7 -->
<g id="edge7_Node000002_Node000007" class="edge">
<title>Node2&#45;&gt;Node7</title>
<g id="a_edge7_Node000002_Node000007"><a xlink:title=" ">
<path fill="none" stroke="#63b8ff" d="M988.16,-183.93C1070.13,-175.75 1216.87,-159.9 1341.5,-140 1351.29,-138.44 1361.8,-136.48 1371.62,-134.54"/>
<polygon fill="#63b8ff" stroke="#63b8ff" points="987.61,-180.46 978,-184.93 988.3,-187.43 987.61,-180.46"/>
</a>
</g>
</g>
<!-- Node8 -->
<g id="Node000008" class="node">
<title>Node8</title>
<g id="a_Node000008"><a xlink:href="code__8006E9C0_8c.html" target="_top" xlink:title=" ">
<polygon fill="white" stroke="#666666" points="119,-134.5 0,-134.5 0,-115.5 119,-115.5 119,-134.5"/>
<text text-anchor="middle" x="59.5" y="-122.5" font-family="Helvetica,sans-Serif" font-size="10.00">src/code_8006E9C0.c</text>
</a>
</g>
</g>
<!-- Node2&#45;&gt;Node8 -->
<g id="edge8_Node000002_Node000008" class="edge">
<title>Node2&#45;&gt;Node8</title>
<g id="a_edge8_Node000002_Node000008"><a xlink:title=" ">
<path fill="none" stroke="#63b8ff" d="M860.48,-188.96C724.9,-186.1 399.08,-175.78 128.5,-140 118.2,-138.64 107.13,-136.64 96.94,-134.57"/>
<polygon fill="#63b8ff" stroke="#63b8ff" points="860.61,-192.46 870.68,-189.17 860.75,-185.46 860.61,-192.46"/>
</a>
</g>
</g>
<!-- Node2&#45;&gt;Node9 -->
<g id="edge9_Node000002_Node000009" class="edge">
<title>Node2&#45;&gt;Node9</title>
<g id="a_edge9_Node000002_Node000009"><a xlink:title=" ">
<path fill="none" stroke="#63b8ff" d="M988.32,-186.62C1091.98,-180.6 1303.22,-166.14 1480.5,-140 1483.6,-139.54 1486.77,-139.03 1489.97,-138.49"/>
<polygon fill="#63b8ff" stroke="#63b8ff" points="987.8,-183.14 978.02,-187.21 988.21,-190.13 987.8,-183.14"/>
</a>
</g>
</g>
<!-- Node10 -->
<g id="Node000010" class="node">
<title>Node10</title>
<g id="a_Node000010"><a xlink:href="all__variables_8h.html" target="_top" xlink:title=" ">
<polygon fill="white" stroke="#666666" points="275.5,-134.5 137.5,-134.5 137.5,-115.5 275.5,-115.5 275.5,-134.5"/>
<text text-anchor="middle" x="206.5" y="-122.5" font-family="Helvetica,sans-Serif" font-size="10.00">src/debug/all_variables.h</text>
</a>
</g>
</g>
<!-- Node2&#45;&gt;Node10 -->
<g id="edge10_Node000002_Node000010" class="edge">
<title>Node2&#45;&gt;Node10</title>
<g id="a_edge10_Node000002_Node000010"><a xlink:title=" ">
<path fill="none" stroke="#63b8ff" d="M860.72,-187.13C745.37,-181.46 494.54,-166.99 284.5,-140 273.17,-138.54 260.99,-136.56 249.7,-134.55"/>
<polygon fill="#63b8ff" stroke="#63b8ff" points="860.64,-190.63 870.79,-187.61 860.98,-183.63 860.64,-190.63"/>
</a>
</g>
</g>
<!-- Node13 -->
<g id="Node000013" class="node">
<title>Node13</title>
<g id="a_Node000013"><a xlink:href="memory_8c.html" target="_top" xlink:title=" ">
<polygon fill="white" stroke="#666666" points="409,-134.5 294,-134.5 294,-115.5 409,-115.5 409,-134.5"/>
<text text-anchor="middle" x="351.5" y="-122.5" font-family="Helvetica,sans-Serif" font-size="10.00">src/racing/memory.c</text>
</a>
</g>
</g>
<!-- Node2&#45;&gt;Node13 -->
<g id="edge14_Node000002_Node000013" class="edge">
<title>Node2&#45;&gt;Node13</title>
<g id="a_edge14_Node000002_Node000013"><a xlink:title=" ">
<path fill="none" stroke="#63b8ff" d="M860.81,-185.99C764.45,-179.42 576.05,-164.56 417.5,-140 407.89,-138.51 397.58,-136.52 388.02,-134.5"/>
<polygon fill="#63b8ff" stroke="#63b8ff" points="860.76,-189.5 870.97,-186.68 861.23,-182.51 860.76,-189.5"/>
</a>
</g>
</g>
<!-- Node14 -->
<g id="Node000014" class="node">
<title>Node14</title>
<g id="a_Node000014"><a xlink:href="render__courses_8c.html" target="_top" xlink:title=" ">
<polygon fill="white" stroke="#666666" points="576,-134.5 427,-134.5 427,-115.5 576,-115.5 576,-134.5"/>
<text text-anchor="middle" x="501.5" y="-122.5" font-family="Helvetica,sans-Serif" font-size="10.00">src/racing/render_courses.c</text>
</a>
</g>
</g>
<!-- Node2&#45;&gt;Node14 -->
<g id="edge15_Node000002_Node000014" class="edge">
<title>Node2&#45;&gt;Node14</title>
<g id="a_edge15_Node000002_Node000014"><a xlink:title=" ">
<path fill="none" stroke="#63b8ff" d="M860.58,-180.94C792.38,-171.18 681.23,-155.04 585.5,-140 574.55,-138.28 562.8,-136.37 551.67,-134.52"/>
<polygon fill="#63b8ff" stroke="#63b8ff" points="860.34,-184.44 870.73,-182.39 861.33,-177.51 860.34,-184.44"/>
</a>
</g>
</g>
<!-- Node15 -->
<g id="Node000015" class="node">
<title>Node15</title>
<g id="a_Node000015"><a xlink:href="render__objects_8c.html" target="_top" xlink:title=" ">
<polygon fill="white" stroke="#666666" points="708.5,-134.5 594.5,-134.5 594.5,-115.5 708.5,-115.5 708.5,-134.5"/>
<text text-anchor="middle" x="651.5" y="-122.5" font-family="Helvetica,sans-Serif" font-size="10.00">src/render_objects.c</text>
</a>
</g>
</g>
<!-- Node2&#45;&gt;Node15 -->
<g id="edge16_Node000002_Node000015" class="edge">
<title>Node2&#45;&gt;Node15</title>
<g id="a_edge16_Node000002_Node000015"><a xlink:title=" ">
<path fill="none" stroke="#63b8ff" d="M861.12,-175.14C807.37,-162.54 732.17,-144.91 687.98,-134.55"/>
<polygon fill="#63b8ff" stroke="#63b8ff" points="860.35,-178.56 870.89,-177.43 861.95,-171.74 860.35,-178.56"/>
</a>
</g>
</g>
<!-- Node16 -->
<g id="Node000016" class="node">
<title>Node16</title>
<g id="a_Node000016"><a xlink:href="update__objects_8c.html" target="_top" xlink:title=" ">
<polygon fill="white" stroke="#666666" points="842.5,-134.5 726.5,-134.5 726.5,-115.5 842.5,-115.5 842.5,-134.5"/>
<text text-anchor="middle" x="784.5" y="-122.5" font-family="Helvetica,sans-Serif" font-size="10.00">src/update_objects.c</text>
</a>
</g>
</g>
<!-- Node2&#45;&gt;Node16 -->
<g id="edge17_Node000002_Node000016" class="edge">
<title>Node2&#45;&gt;Node16</title>
<g id="a_edge17_Node000002_Node000016"><a xlink:title=" ">
<path fill="none" stroke="#63b8ff" d="M884.64,-171.78C857.88,-159.54 823.84,-143.98 803.13,-134.52"/>
<polygon fill="#63b8ff" stroke="#63b8ff" points="883.23,-174.98 893.78,-175.95 886.14,-168.61 883.23,-174.98"/>
</a>
</g>
</g>
<!-- Node3&#45;&gt;Node4 -->
<g id="edge3_Node000003_Node000004" class="edge">
<title>Node3&#45;&gt;Node4</title>
<g id="a_edge3_Node000003_Node000004"><a xlink:title=" ">
<path fill="none" stroke="#63b8ff" d="M981.4,-107.02C1017.61,-96.21 1062.96,-82.67 1091.84,-74.05"/>
<polygon fill="#63b8ff" stroke="#63b8ff" points="980.03,-103.77 971.45,-109.99 982.03,-110.48 980.03,-103.77"/>
</a>
</g>
</g>
<!-- Node5&#45;&gt;Node4 -->
<g id="edge5_Node000005_Node000004" class="edge">
<title>Node5&#45;&gt;Node4</title>
<g id="a_edge5_Node000005_Node000004"><a xlink:title=" ">
<path fill="none" stroke="#63b8ff" d="M1120.5,-105.16C1120.5,-94.74 1120.5,-82.3 1120.5,-74.17"/>
<polygon fill="#63b8ff" stroke="#63b8ff" points="1117,-105.37 1120.5,-115.37 1124,-105.37 1117,-105.37"/>
</a>
</g>
</g>
<!-- Node11 -->
<g id="Node000011" class="node">
<title>Node11</title>
<g id="a_Node000011"><a xlink:href="debug_8inc_8c.html" target="_top" xlink:title=" ">
<polygon fill="white" stroke="#666666" points="267.5,-74 145.5,-74 145.5,-55 267.5,-55 267.5,-74"/>
<text text-anchor="middle" x="206.5" y="-62" font-family="Helvetica,sans-Serif" font-size="10.00">src/debug/debug.inc.c</text>
</a>
</g>
</g>
<!-- Node10&#45;&gt;Node11 -->
<g id="edge11_Node000010_Node000011" class="edge">
<title>Node10&#45;&gt;Node11</title>
<g id="a_edge11_Node000010_Node000011"><a xlink:title=" ">
<path fill="none" stroke="#63b8ff" d="M206.5,-105.16C206.5,-94.74 206.5,-82.3 206.5,-74.17"/>
<polygon fill="#63b8ff" stroke="#63b8ff" points="203,-105.37 206.5,-115.37 210,-105.37 203,-105.37"/>
</a>
</g>
</g>
<!-- Node12 -->
<g id="Node000012" class="node">
<title>Node12</title>
<g id="a_Node000012"><a xlink:href="debug_8c.html" target="_top" xlink:title=" ">
<polygon fill="white" stroke="#666666" points="259,-19 154,-19 154,0 259,0 259,-19"/>
<text text-anchor="middle" x="206.5" y="-7" font-family="Helvetica,sans-Serif" font-size="10.00">src/debug/debug.c</text>
</a>
</g>
</g>
<!-- Node11&#45;&gt;Node12 -->
<g id="edge12_Node000011_Node000012" class="edge">
<title>Node11&#45;&gt;Node12</title>
<g id="a_edge12_Node000011_Node000012"><a xlink:title=" ">
<path fill="none" stroke="#63b8ff" d="M206.5,-44.66C206.5,-35.93 206.5,-25.99 206.5,-19.09"/>
<polygon fill="#63b8ff" stroke="#63b8ff" points="203,-44.75 206.5,-54.75 210,-44.75 203,-44.75"/>
</a>
</g>
</g>
<!-- Node18&#45;&gt;Node4 -->
<g id="edge20_Node000018_Node000004" class="edge">
<title>Node18&#45;&gt;Node4</title>
<g id="a_edge20_Node000018_Node000004"><a xlink:title=" ">
<path fill="none" stroke="#63b8ff" d="M1830.42,-171.85C1786.85,-152.99 1714.72,-124.28 1649.5,-110 1478.22,-72.48 1269.35,-66.15 1173.37,-65.37"/>
<polygon fill="#63b8ff" stroke="#63b8ff" points="1829.23,-175.15 1839.8,-175.95 1832.03,-168.74 1829.23,-175.15"/>
</a>
</g>
</g>
<!-- Node21&#45;&gt;Node20 -->
<g id="edge25_Node000021_Node000020" class="edge">
<title>Node21&#45;&gt;Node20</title>
<g id="a_edge25_Node000021_Node000020"><a xlink:title=" ">
<path fill="none" stroke="#63b8ff" d="M2204.21,-169.48C2191.95,-159.91 2177.68,-148.77 2166.65,-140.16"/>
<polygon fill="#63b8ff" stroke="#63b8ff" points="2202.26,-172.4 2212.3,-175.8 2206.57,-166.88 2202.26,-172.4"/>
</a>
</g>
</g>
<!-- Node22 -->
<g id="Node000022" class="node">
<title>Node22</title>
<g id="a_Node000022"><a xlink:href="Game_8cpp.html" target="_top" xlink:title=" ">
<polygon fill="white" stroke="#666666" points="2326.5,-134.5 2220.5,-134.5 2220.5,-115.5 2326.5,-115.5 2326.5,-134.5"/>
<text text-anchor="middle" x="2273.5" y="-122.5" font-family="Helvetica,sans-Serif" font-size="10.00">src/port/Game.cpp</text>
</a>
</g>
</g>
<!-- Node21&#45;&gt;Node22 -->
<g id="edge26_Node000021_Node000022" class="edge">
<title>Node21&#45;&gt;Node22</title>
<g id="a_edge26_Node000021_Node000022"><a xlink:title=" ">
<path fill="none" stroke="#63b8ff" d="M2245.77,-167.28C2253.3,-156.07 2261.95,-143.19 2267.56,-134.84"/>
<polygon fill="#63b8ff" stroke="#63b8ff" points="2242.71,-165.54 2240.04,-175.8 2248.53,-169.45 2242.71,-165.54"/>
</a>
</g>
</g>
</g>
</svg>
